  0
SECTION
  2
HEADER
  9
$ANGBASE
  50
0.0
  9
$ANGDIR
  70
1
  9
$MEASUREMENT
  70
0
  0
ENDSEC
  0
SECTION
  2
TABLES
  0
TABLE
  2
LTYPE
  70
4
  0
LTYPE
  5
40F
  2
CONTINUOUS
  70
0
  3
Solid line
  72
65
  73
0
  40
0.0
  0
LTYPE
  5
410
  2
DASHDOT
 70
0
  3
Dash Dot ____ _ ____ _
 72
65
 73
4
 40
2.0
 49
1.25
 49
-0.25
 49
0.25
 49
-0.25
  0
LTYPE
  5
411
  2
DASHED
 70
0
  3
Dashed __ __ __ __ __
 72
65
 73
2
 40
0.75
 49
0.5
 49
-0.25
  0
LTYPE
  5
43B
  2
DOTTED
 70
0
  3
Dotted .  .  .  .
 72
65
 73
2
 40
0.2
 49
0.0
 49
-0.2
  0
ENDTAB
  0
TABLE
  2
STYLE
  70
4
  0
STYLE
  2
KICAD
  70
0
  40
0
  41
1
  42
1
  50
0
  71
0
  3
isocp.shx
  0
STYLE
  2
KICADB
  70
0
  40
0
  41
1
  42
1
  50
0
  71
0
  3
isocp.shx
  0
STYLE
  2
KICADI
  70
0
  40
0
  41
1
  42
1
  50
15
  71
0
  3
isocp.shx
  0
STYLE
  2
KICADBI
  70
0
  40
0
  41
1
  42
1
  50
15
  71
0
  3
isocp.shx
  0
ENDTAB
  0
TABLE
  2
LAYER
  70
1
  0
LAYER
  2
BLACK
  70
0
  62
7
  6
CONTINUOUS
  0
ENDTAB
  0
ENDSEC
  0
SECTION
  2
ENTITIES
0
LINE
8
BLACK
6
CONTINUOUS
10
5.8267716535433074
20
-3.5029527559055116
11
5.8465022834645666
21
-3.503657440944882
0
LINE
8
BLACK
6
CONTINUOUS
10
5.8465022834645666
20
-3.503657440944882
11
5.8661323622047243
21
-3.5057678740157479
0
LINE
8
BLACK
6
CONTINUOUS
10
5.8661323622047243
20
-3.5057678740157479
11
5.8855618503937004
21
-3.509273346456693
0
LINE
8
BLACK
6
CONTINUOUS
10
5.8855618503937004
20
-3.509273346456693
11
5.9046917716535434
21
-3.5141559842519685
0
LINE
8
BLACK
6
CONTINUOUS
10
5.9046917716535434
20
-3.5141559842519685
11
5.9234246456692912
21
-3.520390866141732
0
LINE
8
BLACK
6
CONTINUOUS
10
5.9234246456692912
20
-3.520390866141732
11
5.9416649606299208
21
-3.5279462598425195
0
LINE
8
BLACK
6
CONTINUOUS
10
5.9416649606299208
20
-3.5279462598425195
11
5.9593198425196849
21
-3.5367836614173229
0
LINE
8
BLACK
6
CONTINUOUS
10
5.9593198425196849
20
-3.5367836614173229
11
5.9762992913385826
21
-3.5468580314960629
0
LINE
8
BLACK
6
CONTINUOUS
10
5.9762992913385826
20
-3.5468580314960629
11
5.992516771653543
21
-3.558118031496063
0
LINE
8
BLACK
6
CONTINUOUS
10
5.992516771653543
20
-3.558118031496063
11
6.007889645669291
21
-3.5705062598425195
0
LINE
8
BLACK
6
CONTINUOUS
10
6.007889645669291
20
-3.5705062598425195
11
6.0223395669291335
21
-3.583959645669291
0
LINE
8
BLACK
6
CONTINUOUS
10
6.0223395669291335
20
-3.583959645669291
11
6.0357929527559051
21
-3.5984095669291336
0
LINE
8
BLACK
6
CONTINUOUS
10
6.0357929527559051
20
-3.5984095669291336
11
6.048181181102362
21
-3.613782440944882
0
LINE
8
BLACK
6
CONTINUOUS
10
6.048181181102362
20
-3.613782440944882
11
6.0594411811023621
21
-3.6299999212598424
0
LINE
8
BLACK
6
CONTINUOUS
10
6.0594411811023621
20
-3.6299999212598424
11
6.0695155511811025
21
-3.6469793700787401
0
LINE
8
BLACK
6
CONTINUOUS
10
6.0695155511811025
20
-3.6469793700787401
11
6.078352952755905
21
-3.6646342519685038
0
LINE
8
BLACK
6
CONTINUOUS
10
6.078352952755905
20
-3.6646342519685038
11
6.0859083464566925
21
-3.6828745669291338
0
LINE
8
BLACK
6
CONTINUOUS
10
6.0859083464566925
20
-3.6828745669291338
11
6.0921432283464565
21
-3.7016074409448816
0
LINE
8
BLACK
6
CONTINUOUS
10
6.0921432283464565
20
-3.7016074409448816
11
6.097025866141732
21
-3.7207373622047242
0
LINE
8
BLACK
6
CONTINUOUS
10
6.097025866141732
20
-3.7207373622047242
11
6.1005313385826767
21
-3.7401668503937007
0
LINE
8
BLACK
6
CONTINUOUS
10
6.1005313385826767
20
-3.7401668503937007
11
6.102641771653543
21
-3.759796929133858
0
LINE
8
BLACK
6
CONTINUOUS
10
6.102641771653543
20
-3.759796929133858
11
6.103346456692913
21
-3.7795275590551181
0
LINE
8
BLACK
6
CONTINUOUS
10
6.103346456692913
20
-3.7795275590551181
11
6.103346456692913
21
-4.015748031496063
0
LINE
8
BLACK
6
CONTINUOUS
10
6.103346456692913
20
-4.015748031496063
11
6.102641771653543
21
-4.035478661417323
0
LINE
8
BLACK
6
CONTINUOUS
10
6.102641771653543
20
-4.035478661417323
11
6.1005313385826767
21
-4.0551087401574799
0
LINE
8
BLACK
6
CONTINUOUS
10
6.1005313385826767
20
-4.0551087401574799
11
6.097025866141732
21
-4.0745382283464568
0
LINE
8
BLACK
6
CONTINUOUS
10
6.097025866141732
20
-4.0745382283464568
11
6.0921432283464565
21
-4.093668149606299
0
LINE
8
BLACK
6
CONTINUOUS
10
6.0921432283464565
20
-4.093668149606299
11
6.0859083464566925
21
-4.1124010236220467
0
LINE
8
BLACK
6
CONTINUOUS
10
6.0859083464566925
20
-4.1124010236220467
11
6.078352952755905
21
-4.1306413385826772
0
LINE
8
BLACK
6
CONTINUOUS
10
6.078352952755905
20
-4.1306413385826772
11
6.0695155511811025
21
-4.1482962204724405
0
LINE
8
BLACK
6
CONTINUOUS
10
6.0695155511811025
20
-4.1482962204724405
11
6.0594411811023621
21
-4.1652756692913382
0
LINE
8
BLACK
6
CONTINUOUS
10
6.0594411811023621
20
-4.1652756692913382
11
6.048181181102362
21
-4.1814931496062995
0
LINE
8
BLACK
6
CONTINUOUS
10
6.048181181102362
20
-4.1814931496062995
11
6.0357929527559051
21
-4.1968660236220474
0
LINE
8
BLACK
6
CONTINUOUS
10
6.0357929527559051
20
-4.1968660236220474
11
6.0223395669291335
21
-4.21131594488189
0
LINE
8
BLACK
6
CONTINUOUS
10
6.0223395669291335
20
-4.21131594488189
11
6.007889645669291
21
-4.2247693307086616
0
LINE
8
BLACK
6
CONTINUOUS
10
6.007889645669291
20
-4.2247693307086616
11
5.992516771653543
21
-4.2371575590551176
0
LINE
8
BLACK
6
CONTINUOUS
10
5.992516771653543
20
-4.2371575590551176
11
5.9762992913385826
21
-4.2484175590551176
0
LINE
8
BLACK
6
CONTINUOUS
10
5.9762992913385826
20
-4.2484175590551176
11
5.9593198425196849
21
-4.2584919291338581
0
LINE
8
BLACK
6
CONTINUOUS
10
5.9593198425196849
20
-4.2584919291338581
11
5.9416649606299208
21
-4.2673293307086615
0
LINE
8
BLACK
6
CONTINUOUS
10
5.9416649606299208
20
-4.2673293307086615
11
5.9234246456692912
21
-4.274884724409449
0
LINE
8
BLACK
6
CONTINUOUS
10
5.9234246456692912
20
-4.274884724409449
11
5.9046917716535434
21
-4.2811196062992121
0
LINE
8
BLACK
6
CONTINUOUS
10
5.9046917716535434
20
-4.2811196062992121
11
5.8855618503937004
21
-4.2860022440944885
0
LINE
8
BLACK
6
CONTINUOUS
10
5.8855618503937004
20
-4.2860022440944885
11
5.8661323622047243
21
-4.2895077165354332
0
LINE
8
BLACK
6
CONTINUOUS
10
5.8661323622047243
20
-4.2895077165354332
11
5.8465022834645666
21
-4.2916181496062995
0
LINE
8
BLACK
6
CONTINUOUS
10
5.8465022834645666
20
-4.2916181496062995
11
5.8267716535433074
21
-4.2923228346456694
0
LINE
8
BLACK
6
CONTINUOUS
10
5.8267716535433074
20
-4.2923228346456694
11
4.9212598425196852
21
-4.2923228346456694
0
LINE
8
BLACK
6
CONTINUOUS
10
4.9212598425196852
20
-4.2923228346456694
11
4.8969626771653543
21
-4.2915742519685036
0
LINE
8
BLACK
6
CONTINUOUS
10
4.8969626771653543
20
-4.2915742519685036
11
4.872757677165354
21
-4.2893313385826772
0
LINE
8
BLACK
6
CONTINUOUS
10
4.872757677165354
20
-4.2893313385826772
11
4.8487366535433072
21
-4.2856025590551177
0
LINE
8
BLACK
6
CONTINUOUS
10
4.8487366535433072
20
-4.2856025590551177
11
4.824990748031496
21
-4.280402125984252
0
LINE
8
BLACK
6
CONTINUOUS
10
4.824990748031496
20
-4.280402125984252
11
4.8016100000000002
21
-4.2737497637795272
0
LINE
8
BLACK
6
CONTINUOUS
10
4.8016100000000002
20
-4.2737497637795272
11
4.7786831496062989
21
-4.2656706299212601
0
LINE
8
BLACK
6
CONTINUOUS
10
4.7786831496062989
20
-4.2656706299212601
11
4.7562971653543302
21
-4.2561954330708662
0
LINE
8
BLACK
6
CONTINUOUS
10
4.7562971653543302
20
-4.2561954330708662
11
4.7345368897637794
21
-4.2453601181102361
0
LINE
8
BLACK
6
CONTINUOUS
10
4.7345368897637794
20
-4.2453601181102361
11
4.7134849606299207
21
-4.2332057874015749
0
LINE
8
BLACK
6
CONTINUOUS
10
4.7134849606299207
20
-4.2332057874015749
11
4.6932211417322831
21
-4.2197785039370075
0
LINE
8
BLACK
6
CONTINUOUS
10
4.6932211417322831
20
-4.2197785039370075
11
4.6738224015748031
21
-4.2051292519685042
0
LINE
8
BLACK
6
CONTINUOUS
10
4.6738224015748031
20
-4.2051292519685042
11
4.655362244094488
21
-4.1893135433070867
0
LINE
8
BLACK
6
CONTINUOUS
10
4.655362244094488
20
-4.1893135433070867
11
4.6379107480314961
21
-4.172391456692913
0
LINE
8
BLACK
6
CONTINUOUS
10
4.6379107480314961
20
-4.172391456692913
11
4.6215340944881893
21
-4.1544270866141728
0
LINE
8
BLACK
6
CONTINUOUS
10
4.6215340944881893
20
-4.1544270866141728
11
4.6062943700787402
21
-4.1354886614173223
0
LINE
8
BLACK
6
CONTINUOUS
10
4.6062943700787402
20
-4.1354886614173223
11
4.5922494488188974
21
-4.1156479921259841
0
LINE
8
BLACK
6
CONTINUOUS
10
4.5922494488188974
20
-4.1156479921259841
11
4.5794525590551176
21
-4.0949803149606296
0
LINE
8
BLACK
6
CONTINUOUS
10
4.5794525590551176
20
-4.0949803149606296
11
4.5679522834645665
21
-4.0735640551181103
0
LINE
8
BLACK
6
CONTINUOUS
10
4.5679522834645665
20
-4.0735640551181103
11
4.557792204724409
21
-4.051480433070866
0
LINE
8
BLACK
6
CONTINUOUS
10
4.557792204724409
20
-4.051480433070866
11
4.5490109055118113
21
-4.0288132677165356
0
LINE
8
BLACK
6
CONTINUOUS
10
4.5490109055118113
20
-4.0288132677165356
11
4.5416416535433068
21
-4.0056484645669288
0
LINE
8
BLACK
6
CONTINUOUS
10
4.5416416535433068
20
-4.0056484645669288
11
4.5357124409448817
21
-3.9820739763779525
0
LINE
8
BLACK
6
CONTINUOUS
10
4.5357124409448817
20
-3.9820739763779525
11
4.5312457086614168
21
-3.9581791732283462
0
LINE
8
BLACK
6
CONTINUOUS
10
4.5312457086614168
20
-3.9581791732283462
11
4.528258464566929
21
-3.9340547244094486
0
LINE
8
BLACK
6
CONTINUOUS
10
4.528258464566929
20
-3.9340547244094486
11
4.5267620078740158
21
-3.9097921259842519
0
LINE
8
BLACK
6
CONTINUOUS
10
4.5267620078740158
20
-3.9097921259842519
11
4.5267620078740158
21
-3.8854834645669292
0
LINE
8
BLACK
6
CONTINUOUS
10
4.5267620078740158
20
-3.8854834645669292
11
4.528258464566929
21
-3.861220866141732
0
LINE
8
BLACK
6
CONTINUOUS
10
4.528258464566929
20
-3.861220866141732
11
4.5312457086614168
21
-3.8370964173228344
0
LINE
8
BLACK
6
CONTINUOUS
10
4.5312457086614168
20
-3.8370964173228344
11
4.5357124409448817
21
-3.8132016141732281
0
LINE
8
BLACK
6
CONTINUOUS
10
4.5357124409448817
20
-3.8132016141732281
11
4.5416416535433068
21
-3.7896271259842518
0
LINE
8
BLACK
6
CONTINUOUS
10
4.5416416535433068
20
-3.7896271259842518
11
4.5490109055118113
21
-3.7664623228346454
0
LINE
8
BLACK
6
CONTINUOUS
10
4.5490109055118113
20
-3.7664623228346454
11
4.557792204724409
21
-3.743795157480315
0
LINE
8
BLACK
6
CONTINUOUS
10
4.557792204724409
20
-3.743795157480315
11
4.5679522834645665
21
-3.7217115354330708
0
LINE
8
BLACK
6
CONTINUOUS
10
4.5679522834645665
20
-3.7217115354330708
11
4.5794525590551176
21
-3.7002952755905509
0
LINE
8
BLACK
6
CONTINUOUS
10
4.5794525590551176
20
-3.7002952755905509
11
4.5922494488188974
21
-3.6796275984251969
0
LINE
8
BLACK
6
CONTINUOUS
10
4.5922494488188974
20
-3.6796275984251969
11
4.6062943700787402
21
-3.6597869291338583
0
LINE
8
BLACK
6
CONTINUOUS
10
4.6062943700787402
20
-3.6597869291338583
11
4.6215340944881893
21
-3.6408485039370078
0
LINE
8
BLACK
6
CONTINUOUS
10
4.6215340944881893
20
-3.6408485039370078
11
4.6379107480314961
21
-3.6228841338582676
0
LINE
8
BLACK
6
CONTINUOUS
10
4.6379107480314961
20
-3.6228841338582676
11
4.655362244094488
21
-3.6059620472440943
0
LINE
8
BLACK
6
CONTINUOUS
10
4.655362244094488
20
-3.6059620472440943
11
4.6738224015748031
21
-3.5901463385826773
0
LINE
8
BLACK
6
CONTINUOUS
10
4.6738224015748031
20
-3.5901463385826773
11
4.6932211417322831
21
-3.5754970866141731
0
LINE
8
BLACK
6
CONTINUOUS
10
4.6932211417322831
20
-3.5754970866141731
11
4.7134849606299207
21
-3.5620698031496061
0
LINE
8
BLACK
6
CONTINUOUS
10
4.7134849606299207
20
-3.5620698031496061
11
4.7345368897637794
21
-3.549915472440945
0
LINE
8
BLACK
6
CONTINUOUS
10
4.7345368897637794
20
-3.549915472440945
11
4.7562971653543302
21
-3.5390801574803148
0
LINE
8
BLACK
6
CONTINUOUS
10
4.7562971653543302
20
-3.5390801574803148
11
4.7786831496062989
21
-3.5296049606299214
0
LINE
8
BLACK
6
CONTINUOUS
10
4.7786831496062989
20
-3.5296049606299214
11
4.8016100000000002
21
-3.5215258267716534
0
LINE
8
BLACK
6
CONTINUOUS
10
4.8016100000000002
20
-3.5215258267716534
11
4.824990748031496
21
-3.5148734645669291
0
LINE
8
BLACK
6
CONTINUOUS
10
4.824990748031496
20
-3.5148734645669291
11
4.8487366535433072
21
-3.5096730314960629
0
LINE
8
BLACK
6
CONTINUOUS
10
4.8487366535433072
20
-3.5096730314960629
11
4.872757677165354
21
-3.5059442519685038
0
LINE
8
BLACK
6
CONTINUOUS
10
4.872757677165354
20
-3.5059442519685038
11
4.8969626771653543
21
-3.503701338582677
0
LINE
8
BLACK
6
CONTINUOUS
10
4.8969626771653543
20
-3.503701338582677
11
4.9212598425196852
21
-3.5029527559055116
0
LINE
8
BLACK
6
CONTINUOUS
10
4.9212598425196852
20
-3.5029527559055116
11
5.8267716535433074
21
-3.5029527559055116
0
LINE
8
BLACK
6
CONTINUOUS
10
4.9212598425196852
20
-3.5049212598425195
11
4.9091603937007875
21
-3.5049212598425195
0
LINE
8
BLACK
6
CONTINUOUS
10
4.9091603937007875
20
-3.5049212598425195
11
4.8850073228346451
21
-3.5064109842519686
0
LINE
8
BLACK
6
CONTINUOUS
10
4.8850073228346451
20
-3.5064109842519686
11
4.8609918110236219
21
-3.5093847244094487
0
LINE
8
BLACK
6
CONTINUOUS
10
4.8609918110236219
20
-3.5093847244094487
11
4.8372049212598425
21
-3.5138312992125984
0
LINE
8
BLACK
6
CONTINUOUS
10
4.8372049212598425
20
-3.5138312992125984
11
4.8137368503937008
21
-3.5197337401574802
0
LINE
8
BLACK
6
CONTINUOUS
10
4.8137368503937008
20
-3.5197337401574802
11
4.7906766929133857
21
-3.5270697244094489
0
LINE
8
BLACK
6
CONTINUOUS
10
4.7906766929133857
20
-3.5270697244094489
11
4.7681118503937006
21
-3.535811377952756
0
LINE
8
BLACK
6
CONTINUOUS
10
4.7681118503937006
20
-3.535811377952756
11
4.7461279527559057
21
-3.5459255511811021
0
LINE
8
BLACK
6
CONTINUOUS
10
4.7461279527559057
20
-3.5459255511811021
11
4.7248084251968505
21
-3.5573739370078741
0
LINE
8
BLACK
6
CONTINUOUS
10
4.7248084251968505
20
-3.5573739370078741
11
4.7042340551181105
21
-3.5701130314960627
0
LINE
8
BLACK
6
CONTINUOUS
10
4.7042340551181105
20
-3.5701130314960627
11
4.6844829527559053
21
-3.584094527559055
0
LINE
8
BLACK
6
CONTINUOUS
10
4.6844829527559053
20
-3.584094527559055
11
4.6656300393700789
21
-3.5992654330708662
0
LINE
8
BLACK
6
CONTINUOUS
10
4.6656300393700789
20
-3.5992654330708662
11
4.6477468110236222
21
-3.615568149606299
0
LINE
8
BLACK
6
CONTINUOUS
10
4.6477468110236222
20
-3.615568149606299
11
4.6309011023622046
21
-3.6329408267716534
0
LINE
8
BLACK
6
CONTINUOUS
10
4.6309011023622046
20
-3.6329408267716534
11
4.615156850393701
21
-3.6513176377952754
0
LINE
8
BLACK
6
CONTINUOUS
10
4.615156850393701
20
-3.6513176377952754
11
4.60057374015748
21
-3.6706287795275592
0
LINE
8
BLACK
6
CONTINUOUS
10
4.60057374015748
20
-3.6706287795275592
11
4.587207086614173
21
-3.6908011023622045
0
LINE
8
BLACK
6
CONTINUOUS
10
4.587207086614173
20
-3.6908011023622045
11
4.5751076377952753
21
-3.711757992125984
0
LINE
8
BLACK
6
CONTINUOUS
10
4.5751076377952753
20
-3.711757992125984
11
4.5643212204724408
21
-3.733419960629921
0
LINE
8
BLACK
6
CONTINUOUS
10
4.5643212204724408
20
-3.733419960629921
11
4.5548888188976377
21
-3.7557049212598423
0
LINE
8
BLACK
6
CONTINUOUS
10
4.5548888188976377
20
-3.7557049212598423
11
4.5468461811023619
21
-3.7785282283464565
0
LINE
8
BLACK
6
CONTINUOUS
10
4.5468461811023619
20
-3.7785282283464565
11
4.5402238582677166
21
-3.8018033858267715
0
LINE
8
BLACK
6
CONTINUOUS
10
4.5402238582677166
20
-3.8018033858267715
11
4.5350468897637795
21
-3.825442086614173
0
LINE
8
BLACK
6
CONTINUOUS
10
4.5350468897637795
20
-3.825442086614173
11
4.5313349606299216
21
-3.8493546456692913
0
LINE
8
BLACK
6
CONTINUOUS
10
4.5313349606299216
20
-3.8493546456692913
11
4.5291021653543302
21
-3.8734503543307084
0
LINE
8
BLACK
6
CONTINUOUS
10
4.5291021653543302
20
-3.8734503543307084
11
4.5283569685039371
21
-3.8976377952755903
0
LINE
8
BLACK
6
CONTINUOUS
10
4.5283569685039371
20
-3.8976377952755903
11
4.5291021653543302
21
-3.9218252362204722
0
LINE
8
BLACK
6
CONTINUOUS
10
4.5291021653543302
20
-3.9218252362204722
11
4.5313349606299216
21
-3.9459209448818897
0
LINE
8
BLACK
6
CONTINUOUS
10
4.5313349606299216
20
-3.9459209448818897
11
4.5350468897637795
21
-3.9698335039370076
0
LINE
8
BLACK
6
CONTINUOUS
10
4.5350468897637795
20
-3.9698335039370076
11
4.5402238582677166
21
-3.9934722047244096
0
LINE
8
BLACK
6
CONTINUOUS
10
4.5402238582677166
20
-3.9934722047244096
11
4.5468461811023619
21
-4.0167473622047245
0
LINE
8
BLACK
6
CONTINUOUS
10
4.5468461811023619
20
-4.0167473622047245
11
4.5548888188976377
21
-4.0395706692913382
0
LINE
8
BLACK
6
CONTINUOUS
10
4.5548888188976377
20
-4.0395706692913382
11
4.5643212204724408
21
-4.0618556299212596
0
LINE
8
BLACK
6
CONTINUOUS
10
4.5643212204724408
20
-4.0618556299212596
11
4.5751076377952753
21
-4.083517598425197
0
LINE
8
BLACK
6
CONTINUOUS
10
4.5751076377952753
20
-4.083517598425197
11
4.587207086614173
21
-4.1044744881889761
0
LINE
8
BLACK
6
CONTINUOUS
10
4.587207086614173
20
-4.1044744881889761
11
4.60057374015748
21
-4.1246468110236219
0
LINE
8
BLACK
6
CONTINUOUS
10
4.60057374015748
20
-4.1246468110236219
11
4.615156850393701
21
-4.1439579527559056
0
LINE
8
BLACK
6
CONTINUOUS
10
4.615156850393701
20
-4.1439579527559056
11
4.6309011023622046
21
-4.1623347637795272
0
LINE
8
BLACK
6
CONTINUOUS
10
4.6309011023622046
20
-4.1623347637795272
11
4.6477468110236222
21
-4.179707440944882
0
LINE
8
BLACK
6
CONTINUOUS
10
4.6477468110236222
20
-4.179707440944882
11
4.6656300393700789
21
-4.1960101574803153
0
LINE
8
BLACK
6
CONTINUOUS
10
4.6656300393700789
20
-4.1960101574803153
11
4.6844829527559053
21
-4.211181062992126
0
LINE
8
BLACK
6
CONTINUOUS
10
4.6844829527559053
20
-4.211181062992126
11
4.7042340551181105
21
-4.2251625590551178
0
LINE
8
BLACK
6
CONTINUOUS
10
4.7042340551181105
20
-4.2251625590551178
11
4.7248084251968505
21
-4.2379016535433074
0
LINE
8
BLACK
6
CONTINUOUS
10
4.7248084251968505
20
-4.2379016535433074
11
4.7461279527559057
21
-4.2493500393700785
0
LINE
8
BLACK
6
CONTINUOUS
10
4.7461279527559057
20
-4.2493500393700785
11
4.7681118503937006
21
-4.2594642125984254
0
LINE
8
BLACK
6
CONTINUOUS
10
4.7681118503937006
20
-4.2594642125984254
11
4.7906766929133857
21
-4.2682058661417326
0
LINE
8
BLACK
6
CONTINUOUS
10
4.7906766929133857
20
-4.2682058661417326
11
4.8137368503937008
21
-4.2755418503937008
0
LINE
8
BLACK
6
CONTINUOUS
10
4.8137368503937008
20
-4.2755418503937008
11
4.8372049212598425
21
-4.2814442913385822
0
LINE
8
BLACK
6
CONTINUOUS
10
4.8372049212598425
20
-4.2814442913385822
11
4.8609918110236219
21
-4.2858908661417319
0
LINE
8
BLACK
6
CONTINUOUS
10
4.8609918110236219
20
-4.2858908661417319
11
4.8850073228346451
21
-4.2888646062992128
0
LINE
8
BLACK
6
CONTINUOUS
10
4.8850073228346451
20
-4.2888646062992128
11
4.9091603937007875
21
-4.2903543307086611
0
LINE
8
BLACK
6
CONTINUOUS
10
4.9091603937007875
20
-4.2903543307086611
11
4.9212598425196852
21
-4.2903543307086611
0
LINE
8
BLACK
6
CONTINUOUS
10
4.9212598425196852
20
-4.2903543307086611
11
5.8267716535433074
21
-4.2903543307086611
0
LINE
8
BLACK
6
CONTINUOUS
10
5.8267716535433074
20
-4.2903543307086611
11
5.8365792519685042
21
-4.2903543307086611
0
LINE
8
BLACK
6
CONTINUOUS
10
5.8365792519685042
20
-4.2903543307086611
11
5.8561444488188972
21
-4.2889549999999996
0
LINE
8
BLACK
6
CONTINUOUS
10
5.8561444488188972
20
-4.2889549999999996
11
5.8755599606299214
21
-4.2861634645669291
0
LINE
8
BLACK
6
CONTINUOUS
10
5.8755599606299214
20
-4.2861634645669291
11
5.8947268897637795
21
-4.2819939763779526
0
LINE
8
BLACK
6
CONTINUOUS
10
5.8947268897637795
20
-4.2819939763779526
11
5.9135474803149606
21
-4.276467716535433
0
LINE
8
BLACK
6
CONTINUOUS
10
5.9135474803149606
20
-4.276467716535433
11
5.9319259448818897
21
-4.2696129133858269
0
LINE
8
BLACK
6
CONTINUOUS
10
5.9319259448818897
20
-4.2696129133858269
11
5.9497685433070862
21
-4.2614644881889765
0
LINE
8
BLACK
6
CONTINUOUS
10
5.9497685433070862
20
-4.2614644881889765
11
5.9669843700787402
21
-4.2520639370078737
0
LINE
8
BLACK
6
CONTINUOUS
10
5.9669843700787402
20
-4.2520639370078737
11
5.9834857086614175
21
-4.2414591732283462
0
LINE
8
BLACK
6
CONTINUOUS
10
5.9834857086614175
20
-4.2414591732283462
11
5.9991884645669291
21
-4.229704212598425
0
LINE
8
BLACK
6
CONTINUOUS
10
5.9991884645669291
20
-4.229704212598425
11
6.0140125984251966
21
-4.2168590157480317
0
LINE
8
BLACK
6
CONTINUOUS
10
6.0140125984251966
20
-4.2168590157480317
11
6.0278826377952752
21
-4.2029889763779531
0
LINE
8
BLACK
6
CONTINUOUS
10
6.0278826377952752
20
-4.2029889763779531
11
6.0407278346456694
21
-4.1881648425196847
0
LINE
8
BLACK
6
CONTINUOUS
10
6.0407278346456694
20
-4.1881648425196847
11
6.0524827952755906
21
-4.1724620866141731
0
LINE
8
BLACK
6
CONTINUOUS
10
6.0524827952755906
20
-4.1724620866141731
11
6.0630875590551181
21
-4.1559607480314957
0
LINE
8
BLACK
6
CONTINUOUS
10
6.0630875590551181
20
-4.1559607480314957
11
6.07248811023622
21
-4.1387449212598426
0
LINE
8
BLACK
6
CONTINUOUS
10
6.07248811023622
20
-4.1387449212598426
11
6.0806365354330705
21
-4.1209023228346453
0
LINE
8
BLACK
6
CONTINUOUS
10
6.0806365354330705
20
-4.1209023228346453
11
6.0874913385826774
21
-4.1025238582677162
0
LINE
8
BLACK
6
CONTINUOUS
10
6.0874913385826774
20
-4.1025238582677162
11
6.0930175984251971
21
-4.083703267716535
0
LINE
8
BLACK
6
CONTINUOUS
10
6.0930175984251971
20
-4.083703267716535
11
6.0971870866141735
21
-4.0645363385826769
0
LINE
8
BLACK
6
CONTINUOUS
10
6.0971870866141735
20
-4.0645363385826769
11
6.0999786220472441
21
-4.0451208267716536
0
LINE
8
BLACK
6
CONTINUOUS
10
6.0999786220472441
20
-4.0451208267716536
11
6.1013779527559056
21
-4.0255556299212598
0
LINE
8
BLACK
6
CONTINUOUS
10
6.1013779527559056
20
-4.0255556299212598
11
6.1013779527559056
21
-4.015748031496063
0
LINE
8
BLACK
6
CONTINUOUS
10
6.1013779527559056
20
-4.015748031496063
11
6.1013779527559056
21
-3.7795275590551181
0
LINE
8
BLACK
6
CONTINUOUS
10
6.1013779527559056
20
-3.7795275590551181
11
6.1013779527559056
21
-3.7697199606299212
0
LINE
8
BLACK
6
CONTINUOUS
10
6.1013779527559056
20
-3.7697199606299212
11
6.0999786220472441
21
-3.7501547637795274
0
LINE
8
BLACK
6
CONTINUOUS
10
6.0999786220472441
20
-3.7501547637795274
11
6.0971870866141735
21
-3.7307392519685036
0
LINE
8
BLACK
6
CONTINUOUS
10
6.0971870866141735
20
-3.7307392519685036
11
6.0930175984251971
21
-3.7115723228346456
0
LINE
8
BLACK
6
CONTINUOUS
10
6.0930175984251971
20
-3.7115723228346456
11
6.0874913385826774
21
-3.6927517322834644
0
LINE
8
BLACK
6
CONTINUOUS
10
6.0874913385826774
20
-3.6927517322834644
11
6.0806365354330705
21
-3.6743732677165353
0
LINE
8
BLACK
6
CONTINUOUS
10
6.0806365354330705
20
-3.6743732677165353
11
6.07248811023622
21
-3.6565306692913384
0
LINE
8
BLACK
6
CONTINUOUS
10
6.07248811023622
20
-3.6565306692913384
11
6.0630875590551181
21
-3.6393148425196848
0
LINE
8
BLACK
6
CONTINUOUS
10
6.0630875590551181
20
-3.6393148425196848
11
6.0524827952755906
21
-3.622813503937008
0
LINE
8
BLACK
6
CONTINUOUS
10
6.0524827952755906
20
-3.622813503937008
11
6.0407278346456694
21
-3.6071107480314959
0
LINE
8
BLACK
6
CONTINUOUS
10
6.0407278346456694
20
-3.6071107480314959
11
6.0278826377952752
21
-3.5922866141732284
0
LINE
8
BLACK
6
CONTINUOUS
10
6.0278826377952752
20
-3.5922866141732284
11
6.0140125984251966
21
-3.5784165748031493
0
LINE
8
BLACK
6
CONTINUOUS
10
6.0140125984251966
20
-3.5784165748031493
11
5.9991884645669291
21
-3.565571377952756
0
LINE
8
BLACK
6
CONTINUOUS
10
5.9991884645669291
20
-3.565571377952756
11
5.9834857086614175
21
-3.5538164173228344
0
LINE
8
BLACK
6
CONTINUOUS
10
5.9834857086614175
20
-3.5538164173228344
11
5.9669843700787402
21
-3.5432116535433069
0
LINE
8
BLACK
6
CONTINUOUS
10
5.9669843700787402
20
-3.5432116535433069
11
5.9497685433070862
21
-3.5338111023622045
0
LINE
8
BLACK
6
CONTINUOUS
10
5.9497685433070862
20
-3.5338111023622045
11
5.9319259448818897
21
-3.5256626771653541
0
LINE
8
BLACK
6
CONTINUOUS
10
5.9319259448818897
20
-3.5256626771653541
11
5.9135474803149606
21
-3.518807874015748
0
LINE
8
BLACK
6
CONTINUOUS
10
5.9135474803149606
20
-3.518807874015748
11
5.8947268897637795
21
-3.5132816141732284
0
LINE
8
BLACK
6
CONTINUOUS
10
5.8947268897637795
20
-3.5132816141732284
11
5.8755599606299214
21
-3.5091121259842519
0
LINE
8
BLACK
6
CONTINUOUS
10
5.8755599606299214
20
-3.5091121259842519
11
5.8561444488188972
21
-3.5063205905511809
0
LINE
8
BLACK
6
CONTINUOUS
10
5.8561444488188972
20
-3.5063205905511809
11
5.8365792519685042
21
-3.5049212598425195
0
LINE
8
BLACK
6
CONTINUOUS
10
5.8365792519685042
20
-3.5049212598425195
11
5.8267716535433074
21
-3.5049212598425195
0
LINE
8
BLACK
6
CONTINUOUS
10
5.8267716535433074
20
-3.5049212598425195
11
4.9212598425196852
21
-3.5049212598425195
  0
ENDSEC
  0
EOF
