%TF.GenerationSoftware,KiCad,Pcbnew,(6.0.4)*%
%TF.CreationDate,2022-04-30T14:42:06+02:00*%
%TF.ProjectId,test_fixture,74657374-5f66-4697-9874-7572652e6b69,rev?*%
%TF.SameCoordinates,Original*%
%TF.FileFunction,Legend,Bot*%
%TF.FilePolarity,Positive*%
%FSLAX46Y46*%
G04 Gerber Fmt 4.6, Leading zero omitted, Abs format (unit mm)*
G04 Created by KiCad (PCBNEW (6.0.4)) date 2022-04-30 14:42:06*
%MOMM*%
%LPD*%
G01*
G04 APERTURE LIST*
%ADD10C,0.300000*%
G04 APERTURE END LIST*
D10*
X141192866Y-115613571D02*
X141005366Y-114113571D01*
X140550008Y-115613571D02*
X140451794Y-114827857D01*
X140505366Y-114685000D01*
X140639294Y-114613571D01*
X140853580Y-114613571D01*
X141005366Y-114685000D01*
X141085723Y-114756428D01*
X139925008Y-114613571D02*
X139353580Y-114613571D01*
X139648223Y-114113571D02*
X139808937Y-115399285D01*
X139755366Y-115542142D01*
X139621437Y-115613571D01*
X139478580Y-115613571D01*
X139067866Y-114613571D02*
X138496437Y-114613571D01*
X138791080Y-114113571D02*
X138951794Y-115399285D01*
X138898223Y-115542142D01*
X138764294Y-115613571D01*
X138621437Y-115613571D01*
X137996437Y-114613571D02*
X138183937Y-116113571D01*
X138005366Y-114685000D02*
X137853580Y-114613571D01*
X137567866Y-114613571D01*
X137433937Y-114685000D01*
X137371437Y-114756428D01*
X137317866Y-114899285D01*
X137371437Y-115327857D01*
X137460723Y-115470714D01*
X137541080Y-115542142D01*
X137692866Y-115613571D01*
X137978580Y-115613571D01*
X138112508Y-115542142D01*
X136826794Y-115542142D02*
X136692866Y-115613571D01*
X136407151Y-115613571D01*
X136255366Y-115542142D01*
X136166080Y-115399285D01*
X136157151Y-115327857D01*
X136210723Y-115185000D01*
X136344651Y-115113571D01*
X136558937Y-115113571D01*
X136692866Y-115042142D01*
X136746437Y-114899285D01*
X136737508Y-114827857D01*
X136648223Y-114685000D01*
X136496437Y-114613571D01*
X136282151Y-114613571D01*
X136148223Y-114685000D01*
X135532151Y-115470714D02*
X135469651Y-115542142D01*
X135550008Y-115613571D01*
X135612508Y-115542142D01*
X135532151Y-115470714D01*
X135550008Y-115613571D01*
X135433937Y-114685000D02*
X135371437Y-114756428D01*
X135451794Y-114827857D01*
X135514294Y-114756428D01*
X135433937Y-114685000D01*
X135451794Y-114827857D01*
X133567866Y-114042142D02*
X135094651Y-115970714D01*
X131996437Y-114042142D02*
X133523223Y-115970714D01*
X130925008Y-114613571D02*
X131076794Y-115827857D01*
X131166080Y-115970714D01*
X131246437Y-116042142D01*
X131398223Y-116113571D01*
X131612508Y-116113571D01*
X131746437Y-116042142D01*
X131041080Y-115542142D02*
X131192866Y-115613571D01*
X131478580Y-115613571D01*
X131612508Y-115542142D01*
X131675008Y-115470714D01*
X131728580Y-115327857D01*
X131675008Y-114899285D01*
X131585723Y-114756428D01*
X131505366Y-114685000D01*
X131353580Y-114613571D01*
X131067866Y-114613571D01*
X130933937Y-114685000D01*
X130335723Y-115613571D02*
X130210723Y-114613571D01*
X130148223Y-114113571D02*
X130228580Y-114185000D01*
X130166080Y-114256428D01*
X130085723Y-114185000D01*
X130148223Y-114113571D01*
X130166080Y-114256428D01*
X129710723Y-114613571D02*
X129139294Y-114613571D01*
X129433937Y-114113571D02*
X129594651Y-115399285D01*
X129541080Y-115542142D01*
X129407151Y-115613571D01*
X129264294Y-115613571D01*
X128764294Y-115613571D02*
X128576794Y-114113571D01*
X128121437Y-115613571D02*
X128023223Y-114827857D01*
X128076794Y-114685000D01*
X128210723Y-114613571D01*
X128425008Y-114613571D01*
X128576794Y-114685000D01*
X128657151Y-114756428D01*
X126639294Y-114613571D02*
X126764294Y-115613571D01*
X127282151Y-114613571D02*
X127380366Y-115399285D01*
X127326794Y-115542142D01*
X127192866Y-115613571D01*
X126978580Y-115613571D01*
X126826794Y-115542142D01*
X126746437Y-115470714D01*
X126050008Y-115613571D02*
X125862508Y-114113571D01*
X125933937Y-114685000D02*
X125782151Y-114613571D01*
X125496437Y-114613571D01*
X125362508Y-114685000D01*
X125300008Y-114756428D01*
X125246437Y-114899285D01*
X125300008Y-115327857D01*
X125389294Y-115470714D01*
X125469651Y-115542142D01*
X125621437Y-115613571D01*
X125907151Y-115613571D01*
X126041080Y-115542142D01*
X124675008Y-115470714D02*
X124612508Y-115542142D01*
X124692866Y-115613571D01*
X124755366Y-115542142D01*
X124675008Y-115470714D01*
X124692866Y-115613571D01*
X123326794Y-115542142D02*
X123478580Y-115613571D01*
X123764294Y-115613571D01*
X123898223Y-115542142D01*
X123960723Y-115470714D01*
X124014294Y-115327857D01*
X123960723Y-114899285D01*
X123871437Y-114756428D01*
X123791080Y-114685000D01*
X123639294Y-114613571D01*
X123353580Y-114613571D01*
X123219651Y-114685000D01*
X122478580Y-115613571D02*
X122612508Y-115542142D01*
X122675008Y-115470714D01*
X122728580Y-115327857D01*
X122675008Y-114899285D01*
X122585723Y-114756428D01*
X122505366Y-114685000D01*
X122353580Y-114613571D01*
X122139294Y-114613571D01*
X122005366Y-114685000D01*
X121942866Y-114756428D01*
X121889294Y-114899285D01*
X121942866Y-115327857D01*
X122032151Y-115470714D01*
X122112508Y-115542142D01*
X122264294Y-115613571D01*
X122478580Y-115613571D01*
X121335723Y-115613571D02*
X121210723Y-114613571D01*
X121228580Y-114756428D02*
X121148223Y-114685000D01*
X120996437Y-114613571D01*
X120782151Y-114613571D01*
X120648223Y-114685000D01*
X120594651Y-114827857D01*
X120692866Y-115613571D01*
X120594651Y-114827857D02*
X120505366Y-114685000D01*
X120353580Y-114613571D01*
X120139294Y-114613571D01*
X120005366Y-114685000D01*
X119951794Y-114827857D01*
X120050008Y-115613571D01*
X118067866Y-114042142D02*
X119594651Y-115970714D01*
X117764294Y-115613571D02*
X117639294Y-114613571D01*
X117675008Y-114899285D02*
X117585723Y-114756428D01*
X117505366Y-114685000D01*
X117353580Y-114613571D01*
X117210723Y-114613571D01*
X116067866Y-114613571D02*
X116192866Y-115613571D01*
X116710723Y-114613571D02*
X116808937Y-115399285D01*
X116755366Y-115542142D01*
X116621437Y-115613571D01*
X116407151Y-115613571D01*
X116255366Y-115542142D01*
X116175008Y-115470714D01*
X115353580Y-114613571D02*
X115478580Y-115613571D01*
X115371437Y-114756428D02*
X115291080Y-114685000D01*
X115139294Y-114613571D01*
X114925008Y-114613571D01*
X114791080Y-114685000D01*
X114737508Y-114827857D01*
X114835723Y-115613571D01*
X113478580Y-115613571D02*
X113291080Y-114113571D01*
X113469651Y-115542142D02*
X113621437Y-115613571D01*
X113907151Y-115613571D01*
X114041080Y-115542142D01*
X114103580Y-115470714D01*
X114157151Y-115327857D01*
X114103580Y-114899285D01*
X114014294Y-114756428D01*
X113933937Y-114685000D01*
X113782151Y-114613571D01*
X113496437Y-114613571D01*
X113362508Y-114685000D01*
X112764294Y-115613571D02*
X112576794Y-114113571D01*
X112648223Y-114685000D02*
X112496437Y-114613571D01*
X112210723Y-114613571D01*
X112076794Y-114685000D01*
X112014294Y-114756428D01*
X111960723Y-114899285D01*
X112014294Y-115327857D01*
X112103580Y-115470714D01*
X112183937Y-115542142D01*
X112335723Y-115613571D01*
X112621437Y-115613571D01*
X112755366Y-115542142D01*
X110139294Y-114042142D02*
X111666080Y-115970714D01*
X109192866Y-115613571D02*
X109005366Y-114113571D01*
X109183937Y-115542142D02*
X109335723Y-115613571D01*
X109621437Y-115613571D01*
X109755366Y-115542142D01*
X109817866Y-115470714D01*
X109871437Y-115327857D01*
X109817866Y-114899285D01*
X109728580Y-114756428D01*
X109648223Y-114685000D01*
X109496437Y-114613571D01*
X109210723Y-114613571D01*
X109076794Y-114685000D01*
X108478580Y-115613571D02*
X108353580Y-114613571D01*
X108291080Y-114113571D02*
X108371437Y-114185000D01*
X108308937Y-114256428D01*
X108228580Y-114185000D01*
X108291080Y-114113571D01*
X108308937Y-114256428D01*
X107112508Y-115542142D02*
X107264294Y-115613571D01*
X107550008Y-115613571D01*
X107683937Y-115542142D01*
X107746437Y-115470714D01*
X107800008Y-115327857D01*
X107746437Y-114899285D01*
X107657151Y-114756428D01*
X107576794Y-114685000D01*
X107425008Y-114613571D01*
X107139294Y-114613571D01*
X107005366Y-114685000D01*
X106567866Y-114613571D02*
X105996437Y-114613571D01*
X106291080Y-114113571D02*
X106451794Y-115399285D01*
X106398223Y-115542142D01*
X106264294Y-115613571D01*
X106121437Y-115613571D01*
X105407151Y-115613571D02*
X105541080Y-115542142D01*
X105603580Y-115470714D01*
X105657151Y-115327857D01*
X105603580Y-114899285D01*
X105514294Y-114756428D01*
X105433937Y-114685000D01*
X105282151Y-114613571D01*
X105067866Y-114613571D01*
X104933937Y-114685000D01*
X104871437Y-114756428D01*
X104817866Y-114899285D01*
X104871437Y-115327857D01*
X104960723Y-115470714D01*
X105041080Y-115542142D01*
X105192866Y-115613571D01*
X105407151Y-115613571D01*
X104353580Y-114613571D02*
X103782151Y-114613571D01*
X104264294Y-115613571D02*
X104103580Y-114327857D01*
X104014294Y-114185000D01*
X103862508Y-114113571D01*
X103719651Y-114113571D01*
X102639294Y-114613571D02*
X102764294Y-115613571D01*
X103282151Y-114613571D02*
X103380366Y-115399285D01*
X103326794Y-115542142D01*
X103192866Y-115613571D01*
X102978580Y-115613571D01*
X102826794Y-115542142D01*
X102746437Y-115470714D01*
X101925008Y-114613571D02*
X102050008Y-115613571D01*
X101942866Y-114756428D02*
X101862508Y-114685000D01*
X101710723Y-114613571D01*
X101496437Y-114613571D01*
X101362508Y-114685000D01*
X101308937Y-114827857D01*
X101407151Y-115613571D01*
M02*
