%TF.GenerationSoftware,KiCad,Pcbnew,(6.0.4)*%
%TF.CreationDate,2022-04-30T14:42:06+02:00*%
%TF.ProjectId,test_fixture,74657374-5f66-4697-9874-7572652e6b69,rev?*%
%TF.SameCoordinates,Original*%
%TF.FileFunction,Legend,Top*%
%TF.FilePolarity,Positive*%
%FSLAX46Y46*%
G04 Gerber Fmt 4.6, Leading zero omitted, Abs format (unit mm)*
G04 Created by KiCad (PCBNEW (6.0.4)) date 2022-04-30 14:42:06*
%MOMM*%
%LPD*%
G01*
G04 APERTURE LIST*
%ADD10C,0.150000*%
%ADD11C,0.300000*%
%ADD12C,0.120000*%
G04 APERTURE END LIST*
D10*
X112657000Y-121919904D02*
X112609380Y-122015142D01*
X112609380Y-122158000D01*
X112657000Y-122300857D01*
X112752238Y-122396095D01*
X112847476Y-122443714D01*
X113037952Y-122491333D01*
X113180809Y-122491333D01*
X113371285Y-122443714D01*
X113466523Y-122396095D01*
X113561761Y-122300857D01*
X113609380Y-122158000D01*
X113609380Y-122062761D01*
X113561761Y-121919904D01*
X113514142Y-121872285D01*
X113180809Y-121872285D01*
X113180809Y-122062761D01*
X113609380Y-121443714D02*
X112609380Y-121443714D01*
X113609380Y-120872285D01*
X112609380Y-120872285D01*
X113609380Y-120396095D02*
X112609380Y-120396095D01*
X112609380Y-120158000D01*
X112657000Y-120015142D01*
X112752238Y-119919904D01*
X112847476Y-119872285D01*
X113037952Y-119824666D01*
X113180809Y-119824666D01*
X113371285Y-119872285D01*
X113466523Y-119919904D01*
X113561761Y-120015142D01*
X113609380Y-120158000D01*
X113609380Y-120396095D01*
X130945000Y-121538904D02*
X130897380Y-121634142D01*
X130897380Y-121777000D01*
X130945000Y-121919857D01*
X131040238Y-122015095D01*
X131135476Y-122062714D01*
X131325952Y-122110333D01*
X131468809Y-122110333D01*
X131659285Y-122062714D01*
X131754523Y-122015095D01*
X131849761Y-121919857D01*
X131897380Y-121777000D01*
X131897380Y-121681761D01*
X131849761Y-121538904D01*
X131802142Y-121491285D01*
X131468809Y-121491285D01*
X131468809Y-121681761D01*
X131897380Y-121062714D02*
X130897380Y-121062714D01*
X131897380Y-120491285D01*
X130897380Y-120491285D01*
X131897380Y-120015095D02*
X130897380Y-120015095D01*
X130897380Y-119777000D01*
X130945000Y-119634142D01*
X131040238Y-119538904D01*
X131135476Y-119491285D01*
X131325952Y-119443666D01*
X131468809Y-119443666D01*
X131659285Y-119491285D01*
X131754523Y-119538904D01*
X131849761Y-119634142D01*
X131897380Y-119777000D01*
X131897380Y-120015095D01*
X138184000Y-121411904D02*
X138136380Y-121507142D01*
X138136380Y-121650000D01*
X138184000Y-121792857D01*
X138279238Y-121888095D01*
X138374476Y-121935714D01*
X138564952Y-121983333D01*
X138707809Y-121983333D01*
X138898285Y-121935714D01*
X138993523Y-121888095D01*
X139088761Y-121792857D01*
X139136380Y-121650000D01*
X139136380Y-121554761D01*
X139088761Y-121411904D01*
X139041142Y-121364285D01*
X138707809Y-121364285D01*
X138707809Y-121554761D01*
X139136380Y-120935714D02*
X138136380Y-120935714D01*
X139136380Y-120364285D01*
X138136380Y-120364285D01*
X139136380Y-119888095D02*
X138136380Y-119888095D01*
X138136380Y-119650000D01*
X138184000Y-119507142D01*
X138279238Y-119411904D01*
X138374476Y-119364285D01*
X138564952Y-119316666D01*
X138707809Y-119316666D01*
X138898285Y-119364285D01*
X138993523Y-119411904D01*
X139088761Y-119507142D01*
X139136380Y-119650000D01*
X139136380Y-119888095D01*
X133730999Y-99314030D02*
G75*
G03*
X138938000Y-96774000I118001J6365230D01*
G01*
X134239000Y-86233000D02*
X103759000Y-86233000D01*
X103886000Y-99314000D02*
X133731000Y-99314000D01*
X139065000Y-89408000D02*
X139065000Y-96266000D01*
X139065000Y-89408000D02*
X138938000Y-88773000D01*
X104013000Y-86232991D02*
G75*
G03*
X104140000Y-99314000I-115180J-6542239D01*
G01*
X139065000Y-96266000D02*
X138938000Y-96774000D01*
X138937992Y-88773006D02*
G75*
G03*
X134239000Y-86233001I-4942692J-3527394D01*
G01*
X96607380Y-120141904D02*
X96607380Y-119570476D01*
X97607380Y-119856190D02*
X96607380Y-119856190D01*
X96607380Y-119332380D02*
X97607380Y-118665714D01*
X96607380Y-118665714D02*
X97607380Y-119332380D01*
D11*
X137414142Y-108597000D02*
X137271285Y-108525571D01*
X137057000Y-108525571D01*
X136842714Y-108597000D01*
X136699857Y-108739857D01*
X136628428Y-108882714D01*
X136557000Y-109168428D01*
X136557000Y-109382714D01*
X136628428Y-109668428D01*
X136699857Y-109811285D01*
X136842714Y-109954142D01*
X137057000Y-110025571D01*
X137199857Y-110025571D01*
X137414142Y-109954142D01*
X137485571Y-109882714D01*
X137485571Y-109382714D01*
X137199857Y-109382714D01*
X138128428Y-110025571D02*
X138128428Y-108525571D01*
X138985571Y-110025571D01*
X138985571Y-108525571D01*
X139699857Y-110025571D02*
X139699857Y-108525571D01*
X140057000Y-108525571D01*
X140271285Y-108597000D01*
X140414142Y-108739857D01*
X140485571Y-108882714D01*
X140557000Y-109168428D01*
X140557000Y-109382714D01*
X140485571Y-109668428D01*
X140414142Y-109811285D01*
X140271285Y-109954142D01*
X140057000Y-110025571D01*
X139699857Y-110025571D01*
D10*
X99195000Y-120395904D02*
X99147380Y-120491142D01*
X99147380Y-120634000D01*
X99195000Y-120776857D01*
X99290238Y-120872095D01*
X99385476Y-120919714D01*
X99575952Y-120967333D01*
X99718809Y-120967333D01*
X99909285Y-120919714D01*
X100004523Y-120872095D01*
X100099761Y-120776857D01*
X100147380Y-120634000D01*
X100147380Y-120538761D01*
X100099761Y-120395904D01*
X100052142Y-120348285D01*
X99718809Y-120348285D01*
X99718809Y-120538761D01*
X100147380Y-119919714D02*
X99147380Y-119919714D01*
X100147380Y-119348285D01*
X99147380Y-119348285D01*
X100147380Y-118872095D02*
X99147380Y-118872095D01*
X99147380Y-118634000D01*
X99195000Y-118491142D01*
X99290238Y-118395904D01*
X99385476Y-118348285D01*
X99575952Y-118300666D01*
X99718809Y-118300666D01*
X99909285Y-118348285D01*
X100004523Y-118395904D01*
X100099761Y-118491142D01*
X100147380Y-118634000D01*
X100147380Y-118872095D01*
D11*
X106661428Y-84244571D02*
X106661428Y-82744571D01*
X107018571Y-82744571D01*
X107232857Y-82816000D01*
X107375714Y-82958857D01*
X107447142Y-83101714D01*
X107518571Y-83387428D01*
X107518571Y-83601714D01*
X107447142Y-83887428D01*
X107375714Y-84030285D01*
X107232857Y-84173142D01*
X107018571Y-84244571D01*
X106661428Y-84244571D01*
X108161428Y-84244571D02*
X108161428Y-83244571D01*
X108161428Y-82744571D02*
X108090000Y-82816000D01*
X108161428Y-82887428D01*
X108232857Y-82816000D01*
X108161428Y-82744571D01*
X108161428Y-82887428D01*
X109518571Y-84173142D02*
X109375714Y-84244571D01*
X109090000Y-84244571D01*
X108947142Y-84173142D01*
X108875714Y-84101714D01*
X108804285Y-83958857D01*
X108804285Y-83530285D01*
X108875714Y-83387428D01*
X108947142Y-83316000D01*
X109090000Y-83244571D01*
X109375714Y-83244571D01*
X109518571Y-83316000D01*
X109947142Y-83244571D02*
X110518571Y-83244571D01*
X110161428Y-82744571D02*
X110161428Y-84030285D01*
X110232857Y-84173142D01*
X110375714Y-84244571D01*
X110518571Y-84244571D01*
X111232857Y-84244571D02*
X111090000Y-84173142D01*
X111018571Y-84101714D01*
X110947142Y-83958857D01*
X110947142Y-83530285D01*
X111018571Y-83387428D01*
X111090000Y-83316000D01*
X111232857Y-83244571D01*
X111447142Y-83244571D01*
X111590000Y-83316000D01*
X111661428Y-83387428D01*
X111732857Y-83530285D01*
X111732857Y-83958857D01*
X111661428Y-84101714D01*
X111590000Y-84173142D01*
X111447142Y-84244571D01*
X111232857Y-84244571D01*
X112161428Y-83244571D02*
X112732857Y-83244571D01*
X112375714Y-84244571D02*
X112375714Y-82958857D01*
X112447142Y-82816000D01*
X112590000Y-82744571D01*
X112732857Y-82744571D01*
X113875714Y-83244571D02*
X113875714Y-84244571D01*
X113232857Y-83244571D02*
X113232857Y-84030285D01*
X113304285Y-84173142D01*
X113447142Y-84244571D01*
X113661428Y-84244571D01*
X113804285Y-84173142D01*
X113875714Y-84101714D01*
X114590000Y-83244571D02*
X114590000Y-84244571D01*
X114590000Y-83387428D02*
X114661428Y-83316000D01*
X114804285Y-83244571D01*
X115018571Y-83244571D01*
X115161428Y-83316000D01*
X115232857Y-83458857D01*
X115232857Y-84244571D01*
X115947142Y-83673142D02*
X117090000Y-83673142D01*
X118590000Y-84244571D02*
X117732857Y-84244571D01*
X118161428Y-84244571D02*
X118161428Y-82744571D01*
X118018571Y-82958857D01*
X117875714Y-83101714D01*
X117732857Y-83173142D01*
X119232857Y-84101714D02*
X119304285Y-84173142D01*
X119232857Y-84244571D01*
X119161428Y-84173142D01*
X119232857Y-84101714D01*
X119232857Y-84244571D01*
X119875714Y-82887428D02*
X119947142Y-82816000D01*
X120090000Y-82744571D01*
X120447142Y-82744571D01*
X120590000Y-82816000D01*
X120661428Y-82887428D01*
X120732857Y-83030285D01*
X120732857Y-83173142D01*
X120661428Y-83387428D01*
X119804285Y-84244571D01*
X120732857Y-84244571D01*
X121375714Y-83673142D02*
X122518571Y-83673142D01*
X123018571Y-82744571D02*
X123875714Y-82744571D01*
X123447142Y-84244571D02*
X123447142Y-82744571D01*
X124947142Y-84173142D02*
X124804285Y-84244571D01*
X124518571Y-84244571D01*
X124375714Y-84173142D01*
X124304285Y-84030285D01*
X124304285Y-83458857D01*
X124375714Y-83316000D01*
X124518571Y-83244571D01*
X124804285Y-83244571D01*
X124947142Y-83316000D01*
X125018571Y-83458857D01*
X125018571Y-83601714D01*
X124304285Y-83744571D01*
X125590000Y-84173142D02*
X125732857Y-84244571D01*
X126018571Y-84244571D01*
X126161428Y-84173142D01*
X126232857Y-84030285D01*
X126232857Y-83958857D01*
X126161428Y-83816000D01*
X126018571Y-83744571D01*
X125804285Y-83744571D01*
X125661428Y-83673142D01*
X125590000Y-83530285D01*
X125590000Y-83458857D01*
X125661428Y-83316000D01*
X125804285Y-83244571D01*
X126018571Y-83244571D01*
X126161428Y-83316000D01*
X126661428Y-83244571D02*
X127232857Y-83244571D01*
X126875714Y-82744571D02*
X126875714Y-84030285D01*
X126947142Y-84173142D01*
X127090000Y-84244571D01*
X127232857Y-84244571D01*
X135584714Y-105858571D02*
X136084714Y-107358571D01*
X136584714Y-105858571D01*
X137584714Y-106572857D02*
X137799000Y-106644285D01*
X137870428Y-106715714D01*
X137941857Y-106858571D01*
X137941857Y-107072857D01*
X137870428Y-107215714D01*
X137799000Y-107287142D01*
X137656142Y-107358571D01*
X137084714Y-107358571D01*
X137084714Y-105858571D01*
X137584714Y-105858571D01*
X137727571Y-105930000D01*
X137799000Y-106001428D01*
X137870428Y-106144285D01*
X137870428Y-106287142D01*
X137799000Y-106430000D01*
X137727571Y-106501428D01*
X137584714Y-106572857D01*
X137084714Y-106572857D01*
X138513285Y-106930000D02*
X139227571Y-106930000D01*
X138370428Y-107358571D02*
X138870428Y-105858571D01*
X139370428Y-107358571D01*
X139656142Y-105858571D02*
X140513285Y-105858571D01*
X140084714Y-107358571D02*
X140084714Y-105858571D01*
D10*
X94940380Y-119673666D02*
X94464190Y-120007000D01*
X94940380Y-120245095D02*
X93940380Y-120245095D01*
X93940380Y-119864142D01*
X93988000Y-119768904D01*
X94035619Y-119721285D01*
X94130857Y-119673666D01*
X94273714Y-119673666D01*
X94368952Y-119721285D01*
X94416571Y-119768904D01*
X94464190Y-119864142D01*
X94464190Y-120245095D01*
X93940380Y-119340333D02*
X94940380Y-118673666D01*
X93940380Y-118673666D02*
X94940380Y-119340333D01*
%TO.C,PDM_CLK1*%
X108529380Y-118784238D02*
X107529380Y-118784238D01*
X107529380Y-118403285D01*
X107577000Y-118308047D01*
X107624619Y-118260428D01*
X107719857Y-118212809D01*
X107862714Y-118212809D01*
X107957952Y-118260428D01*
X108005571Y-118308047D01*
X108053190Y-118403285D01*
X108053190Y-118784238D01*
X108529380Y-117784238D02*
X107529380Y-117784238D01*
X107529380Y-117546142D01*
X107577000Y-117403285D01*
X107672238Y-117308047D01*
X107767476Y-117260428D01*
X107957952Y-117212809D01*
X108100809Y-117212809D01*
X108291285Y-117260428D01*
X108386523Y-117308047D01*
X108481761Y-117403285D01*
X108529380Y-117546142D01*
X108529380Y-117784238D01*
X108529380Y-116784238D02*
X107529380Y-116784238D01*
X108243666Y-116450904D01*
X107529380Y-116117571D01*
X108529380Y-116117571D01*
X108624619Y-115879476D02*
X108624619Y-115117571D01*
X108434142Y-114308047D02*
X108481761Y-114355666D01*
X108529380Y-114498523D01*
X108529380Y-114593761D01*
X108481761Y-114736619D01*
X108386523Y-114831857D01*
X108291285Y-114879476D01*
X108100809Y-114927095D01*
X107957952Y-114927095D01*
X107767476Y-114879476D01*
X107672238Y-114831857D01*
X107577000Y-114736619D01*
X107529380Y-114593761D01*
X107529380Y-114498523D01*
X107577000Y-114355666D01*
X107624619Y-114308047D01*
X108529380Y-113403285D02*
X108529380Y-113879476D01*
X107529380Y-113879476D01*
X108529380Y-113069952D02*
X107529380Y-113069952D01*
X108529380Y-112498523D02*
X107957952Y-112927095D01*
X107529380Y-112498523D02*
X108100809Y-113069952D01*
X108529380Y-111546142D02*
X108529380Y-112117571D01*
X108529380Y-111831857D02*
X107529380Y-111831857D01*
X107672238Y-111927095D01*
X107767476Y-112022333D01*
X107815095Y-112117571D01*
%TO.C,SPI_MOSI1*%
X119276761Y-121546476D02*
X119324380Y-121403619D01*
X119324380Y-121165523D01*
X119276761Y-121070285D01*
X119229142Y-121022666D01*
X119133904Y-120975047D01*
X119038666Y-120975047D01*
X118943428Y-121022666D01*
X118895809Y-121070285D01*
X118848190Y-121165523D01*
X118800571Y-121356000D01*
X118752952Y-121451238D01*
X118705333Y-121498857D01*
X118610095Y-121546476D01*
X118514857Y-121546476D01*
X118419619Y-121498857D01*
X118372000Y-121451238D01*
X118324380Y-121356000D01*
X118324380Y-121117904D01*
X118372000Y-120975047D01*
X119324380Y-120546476D02*
X118324380Y-120546476D01*
X118324380Y-120165523D01*
X118372000Y-120070285D01*
X118419619Y-120022666D01*
X118514857Y-119975047D01*
X118657714Y-119975047D01*
X118752952Y-120022666D01*
X118800571Y-120070285D01*
X118848190Y-120165523D01*
X118848190Y-120546476D01*
X119324380Y-119546476D02*
X118324380Y-119546476D01*
X119419619Y-119308380D02*
X119419619Y-118546476D01*
X119324380Y-118308380D02*
X118324380Y-118308380D01*
X119038666Y-117975047D01*
X118324380Y-117641714D01*
X119324380Y-117641714D01*
X118324380Y-116975047D02*
X118324380Y-116784571D01*
X118372000Y-116689333D01*
X118467238Y-116594095D01*
X118657714Y-116546476D01*
X118991047Y-116546476D01*
X119181523Y-116594095D01*
X119276761Y-116689333D01*
X119324380Y-116784571D01*
X119324380Y-116975047D01*
X119276761Y-117070285D01*
X119181523Y-117165523D01*
X118991047Y-117213142D01*
X118657714Y-117213142D01*
X118467238Y-117165523D01*
X118372000Y-117070285D01*
X118324380Y-116975047D01*
X119276761Y-116165523D02*
X119324380Y-116022666D01*
X119324380Y-115784571D01*
X119276761Y-115689333D01*
X119229142Y-115641714D01*
X119133904Y-115594095D01*
X119038666Y-115594095D01*
X118943428Y-115641714D01*
X118895809Y-115689333D01*
X118848190Y-115784571D01*
X118800571Y-115975047D01*
X118752952Y-116070285D01*
X118705333Y-116117904D01*
X118610095Y-116165523D01*
X118514857Y-116165523D01*
X118419619Y-116117904D01*
X118372000Y-116070285D01*
X118324380Y-115975047D01*
X118324380Y-115736952D01*
X118372000Y-115594095D01*
X119324380Y-115165523D02*
X118324380Y-115165523D01*
X119324380Y-114165523D02*
X119324380Y-114736952D01*
X119324380Y-114451238D02*
X118324380Y-114451238D01*
X118467238Y-114546476D01*
X118562476Y-114641714D01*
X118610095Y-114736952D01*
%TO.C,J3*%
X96186666Y-108462380D02*
X96186666Y-109176666D01*
X96139047Y-109319523D01*
X96043809Y-109414761D01*
X95900952Y-109462380D01*
X95805714Y-109462380D01*
X96567619Y-108462380D02*
X97186666Y-108462380D01*
X96853333Y-108843333D01*
X96996190Y-108843333D01*
X97091428Y-108890952D01*
X97139047Y-108938571D01*
X97186666Y-109033809D01*
X97186666Y-109271904D01*
X97139047Y-109367142D01*
X97091428Y-109414761D01*
X96996190Y-109462380D01*
X96710476Y-109462380D01*
X96615238Y-109414761D01*
X96567619Y-109367142D01*
%TO.C,PDM_DATA1*%
X105481380Y-119371571D02*
X104481380Y-119371571D01*
X104481380Y-118990619D01*
X104529000Y-118895380D01*
X104576619Y-118847761D01*
X104671857Y-118800142D01*
X104814714Y-118800142D01*
X104909952Y-118847761D01*
X104957571Y-118895380D01*
X105005190Y-118990619D01*
X105005190Y-119371571D01*
X105481380Y-118371571D02*
X104481380Y-118371571D01*
X104481380Y-118133476D01*
X104529000Y-117990619D01*
X104624238Y-117895380D01*
X104719476Y-117847761D01*
X104909952Y-117800142D01*
X105052809Y-117800142D01*
X105243285Y-117847761D01*
X105338523Y-117895380D01*
X105433761Y-117990619D01*
X105481380Y-118133476D01*
X105481380Y-118371571D01*
X105481380Y-117371571D02*
X104481380Y-117371571D01*
X105195666Y-117038238D01*
X104481380Y-116704904D01*
X105481380Y-116704904D01*
X105576619Y-116466809D02*
X105576619Y-115704904D01*
X105481380Y-115466809D02*
X104481380Y-115466809D01*
X104481380Y-115228714D01*
X104529000Y-115085857D01*
X104624238Y-114990619D01*
X104719476Y-114943000D01*
X104909952Y-114895380D01*
X105052809Y-114895380D01*
X105243285Y-114943000D01*
X105338523Y-114990619D01*
X105433761Y-115085857D01*
X105481380Y-115228714D01*
X105481380Y-115466809D01*
X105195666Y-114514428D02*
X105195666Y-114038238D01*
X105481380Y-114609666D02*
X104481380Y-114276333D01*
X105481380Y-113943000D01*
X104481380Y-113752523D02*
X104481380Y-113181095D01*
X105481380Y-113466809D02*
X104481380Y-113466809D01*
X105195666Y-112895380D02*
X105195666Y-112419190D01*
X105481380Y-112990619D02*
X104481380Y-112657285D01*
X105481380Y-112323952D01*
X105481380Y-111466809D02*
X105481380Y-112038238D01*
X105481380Y-111752523D02*
X104481380Y-111752523D01*
X104624238Y-111847761D01*
X104719476Y-111943000D01*
X104767095Y-112038238D01*
%TO.C,SPI_MISO1*%
X125245761Y-121673476D02*
X125293380Y-121530619D01*
X125293380Y-121292523D01*
X125245761Y-121197285D01*
X125198142Y-121149666D01*
X125102904Y-121102047D01*
X125007666Y-121102047D01*
X124912428Y-121149666D01*
X124864809Y-121197285D01*
X124817190Y-121292523D01*
X124769571Y-121483000D01*
X124721952Y-121578238D01*
X124674333Y-121625857D01*
X124579095Y-121673476D01*
X124483857Y-121673476D01*
X124388619Y-121625857D01*
X124341000Y-121578238D01*
X124293380Y-121483000D01*
X124293380Y-121244904D01*
X124341000Y-121102047D01*
X125293380Y-120673476D02*
X124293380Y-120673476D01*
X124293380Y-120292523D01*
X124341000Y-120197285D01*
X124388619Y-120149666D01*
X124483857Y-120102047D01*
X124626714Y-120102047D01*
X124721952Y-120149666D01*
X124769571Y-120197285D01*
X124817190Y-120292523D01*
X124817190Y-120673476D01*
X125293380Y-119673476D02*
X124293380Y-119673476D01*
X125388619Y-119435380D02*
X125388619Y-118673476D01*
X125293380Y-118435380D02*
X124293380Y-118435380D01*
X125007666Y-118102047D01*
X124293380Y-117768714D01*
X125293380Y-117768714D01*
X125293380Y-117292523D02*
X124293380Y-117292523D01*
X125245761Y-116863952D02*
X125293380Y-116721095D01*
X125293380Y-116483000D01*
X125245761Y-116387761D01*
X125198142Y-116340142D01*
X125102904Y-116292523D01*
X125007666Y-116292523D01*
X124912428Y-116340142D01*
X124864809Y-116387761D01*
X124817190Y-116483000D01*
X124769571Y-116673476D01*
X124721952Y-116768714D01*
X124674333Y-116816333D01*
X124579095Y-116863952D01*
X124483857Y-116863952D01*
X124388619Y-116816333D01*
X124341000Y-116768714D01*
X124293380Y-116673476D01*
X124293380Y-116435380D01*
X124341000Y-116292523D01*
X124293380Y-115673476D02*
X124293380Y-115483000D01*
X124341000Y-115387761D01*
X124436238Y-115292523D01*
X124626714Y-115244904D01*
X124960047Y-115244904D01*
X125150523Y-115292523D01*
X125245761Y-115387761D01*
X125293380Y-115483000D01*
X125293380Y-115673476D01*
X125245761Y-115768714D01*
X125150523Y-115863952D01*
X124960047Y-115911571D01*
X124626714Y-115911571D01*
X124436238Y-115863952D01*
X124341000Y-115768714D01*
X124293380Y-115673476D01*
X125293380Y-114292523D02*
X125293380Y-114863952D01*
X125293380Y-114578238D02*
X124293380Y-114578238D01*
X124436238Y-114673476D01*
X124531476Y-114768714D01*
X124579095Y-114863952D01*
%TO.C,P3.3V1*%
X129611380Y-112593142D02*
X128611380Y-112593142D01*
X128611380Y-112212190D01*
X128659000Y-112116952D01*
X128706619Y-112069333D01*
X128801857Y-112021714D01*
X128944714Y-112021714D01*
X129039952Y-112069333D01*
X129087571Y-112116952D01*
X129135190Y-112212190D01*
X129135190Y-112593142D01*
X128611380Y-111688380D02*
X128611380Y-111069333D01*
X128992333Y-111402666D01*
X128992333Y-111259809D01*
X129039952Y-111164571D01*
X129087571Y-111116952D01*
X129182809Y-111069333D01*
X129420904Y-111069333D01*
X129516142Y-111116952D01*
X129563761Y-111164571D01*
X129611380Y-111259809D01*
X129611380Y-111545523D01*
X129563761Y-111640761D01*
X129516142Y-111688380D01*
X129516142Y-110640761D02*
X129563761Y-110593142D01*
X129611380Y-110640761D01*
X129563761Y-110688380D01*
X129516142Y-110640761D01*
X129611380Y-110640761D01*
X128611380Y-110259809D02*
X128611380Y-109640761D01*
X128992333Y-109974095D01*
X128992333Y-109831238D01*
X129039952Y-109736000D01*
X129087571Y-109688380D01*
X129182809Y-109640761D01*
X129420904Y-109640761D01*
X129516142Y-109688380D01*
X129563761Y-109736000D01*
X129611380Y-109831238D01*
X129611380Y-110116952D01*
X129563761Y-110212190D01*
X129516142Y-110259809D01*
X128611380Y-109355047D02*
X129611380Y-109021714D01*
X128611380Y-108688380D01*
X129611380Y-107831238D02*
X129611380Y-108402666D01*
X129611380Y-108116952D02*
X128611380Y-108116952D01*
X128754238Y-108212190D01*
X128849476Y-108307428D01*
X128897095Y-108402666D01*
%TO.C,SPI_CS1*%
X122705761Y-117411142D02*
X122753380Y-117268285D01*
X122753380Y-117030190D01*
X122705761Y-116934952D01*
X122658142Y-116887333D01*
X122562904Y-116839714D01*
X122467666Y-116839714D01*
X122372428Y-116887333D01*
X122324809Y-116934952D01*
X122277190Y-117030190D01*
X122229571Y-117220666D01*
X122181952Y-117315904D01*
X122134333Y-117363523D01*
X122039095Y-117411142D01*
X121943857Y-117411142D01*
X121848619Y-117363523D01*
X121801000Y-117315904D01*
X121753380Y-117220666D01*
X121753380Y-116982571D01*
X121801000Y-116839714D01*
X122753380Y-116411142D02*
X121753380Y-116411142D01*
X121753380Y-116030190D01*
X121801000Y-115934952D01*
X121848619Y-115887333D01*
X121943857Y-115839714D01*
X122086714Y-115839714D01*
X122181952Y-115887333D01*
X122229571Y-115934952D01*
X122277190Y-116030190D01*
X122277190Y-116411142D01*
X122753380Y-115411142D02*
X121753380Y-115411142D01*
X122848619Y-115173047D02*
X122848619Y-114411142D01*
X122658142Y-113601619D02*
X122705761Y-113649238D01*
X122753380Y-113792095D01*
X122753380Y-113887333D01*
X122705761Y-114030190D01*
X122610523Y-114125428D01*
X122515285Y-114173047D01*
X122324809Y-114220666D01*
X122181952Y-114220666D01*
X121991476Y-114173047D01*
X121896238Y-114125428D01*
X121801000Y-114030190D01*
X121753380Y-113887333D01*
X121753380Y-113792095D01*
X121801000Y-113649238D01*
X121848619Y-113601619D01*
X122705761Y-113220666D02*
X122753380Y-113077809D01*
X122753380Y-112839714D01*
X122705761Y-112744476D01*
X122658142Y-112696857D01*
X122562904Y-112649238D01*
X122467666Y-112649238D01*
X122372428Y-112696857D01*
X122324809Y-112744476D01*
X122277190Y-112839714D01*
X122229571Y-113030190D01*
X122181952Y-113125428D01*
X122134333Y-113173047D01*
X122039095Y-113220666D01*
X121943857Y-113220666D01*
X121848619Y-113173047D01*
X121801000Y-113125428D01*
X121753380Y-113030190D01*
X121753380Y-112792095D01*
X121801000Y-112649238D01*
X122753380Y-111696857D02*
X122753380Y-112268285D01*
X122753380Y-111982571D02*
X121753380Y-111982571D01*
X121896238Y-112077809D01*
X121991476Y-112173047D01*
X122039095Y-112268285D01*
%TO.C,DEC_CAP1*%
X113355380Y-115514000D02*
X112355380Y-115514000D01*
X112355380Y-115275904D01*
X112403000Y-115133047D01*
X112498238Y-115037809D01*
X112593476Y-114990190D01*
X112783952Y-114942571D01*
X112926809Y-114942571D01*
X113117285Y-114990190D01*
X113212523Y-115037809D01*
X113307761Y-115133047D01*
X113355380Y-115275904D01*
X113355380Y-115514000D01*
X112831571Y-114514000D02*
X112831571Y-114180666D01*
X113355380Y-114037809D02*
X113355380Y-114514000D01*
X112355380Y-114514000D01*
X112355380Y-114037809D01*
X113260142Y-113037809D02*
X113307761Y-113085428D01*
X113355380Y-113228285D01*
X113355380Y-113323523D01*
X113307761Y-113466380D01*
X113212523Y-113561619D01*
X113117285Y-113609238D01*
X112926809Y-113656857D01*
X112783952Y-113656857D01*
X112593476Y-113609238D01*
X112498238Y-113561619D01*
X112403000Y-113466380D01*
X112355380Y-113323523D01*
X112355380Y-113228285D01*
X112403000Y-113085428D01*
X112450619Y-113037809D01*
X113450619Y-112847333D02*
X113450619Y-112085428D01*
X113260142Y-111275904D02*
X113307761Y-111323523D01*
X113355380Y-111466380D01*
X113355380Y-111561619D01*
X113307761Y-111704476D01*
X113212523Y-111799714D01*
X113117285Y-111847333D01*
X112926809Y-111894952D01*
X112783952Y-111894952D01*
X112593476Y-111847333D01*
X112498238Y-111799714D01*
X112403000Y-111704476D01*
X112355380Y-111561619D01*
X112355380Y-111466380D01*
X112403000Y-111323523D01*
X112450619Y-111275904D01*
X113069666Y-110894952D02*
X113069666Y-110418761D01*
X113355380Y-110990190D02*
X112355380Y-110656857D01*
X113355380Y-110323523D01*
X113355380Y-109990190D02*
X112355380Y-109990190D01*
X112355380Y-109609238D01*
X112403000Y-109514000D01*
X112450619Y-109466380D01*
X112545857Y-109418761D01*
X112688714Y-109418761D01*
X112783952Y-109466380D01*
X112831571Y-109514000D01*
X112879190Y-109609238D01*
X112879190Y-109990190D01*
X113355380Y-108466380D02*
X113355380Y-109037809D01*
X113355380Y-108752095D02*
X112355380Y-108752095D01*
X112498238Y-108847333D01*
X112593476Y-108942571D01*
X112641095Y-109037809D01*
%TO.C,SPI_CLK1*%
X116609761Y-118220714D02*
X116657380Y-118077857D01*
X116657380Y-117839761D01*
X116609761Y-117744523D01*
X116562142Y-117696904D01*
X116466904Y-117649285D01*
X116371666Y-117649285D01*
X116276428Y-117696904D01*
X116228809Y-117744523D01*
X116181190Y-117839761D01*
X116133571Y-118030238D01*
X116085952Y-118125476D01*
X116038333Y-118173095D01*
X115943095Y-118220714D01*
X115847857Y-118220714D01*
X115752619Y-118173095D01*
X115705000Y-118125476D01*
X115657380Y-118030238D01*
X115657380Y-117792142D01*
X115705000Y-117649285D01*
X116657380Y-117220714D02*
X115657380Y-117220714D01*
X115657380Y-116839761D01*
X115705000Y-116744523D01*
X115752619Y-116696904D01*
X115847857Y-116649285D01*
X115990714Y-116649285D01*
X116085952Y-116696904D01*
X116133571Y-116744523D01*
X116181190Y-116839761D01*
X116181190Y-117220714D01*
X116657380Y-116220714D02*
X115657380Y-116220714D01*
X116752619Y-115982619D02*
X116752619Y-115220714D01*
X116562142Y-114411190D02*
X116609761Y-114458809D01*
X116657380Y-114601666D01*
X116657380Y-114696904D01*
X116609761Y-114839761D01*
X116514523Y-114935000D01*
X116419285Y-114982619D01*
X116228809Y-115030238D01*
X116085952Y-115030238D01*
X115895476Y-114982619D01*
X115800238Y-114935000D01*
X115705000Y-114839761D01*
X115657380Y-114696904D01*
X115657380Y-114601666D01*
X115705000Y-114458809D01*
X115752619Y-114411190D01*
X116657380Y-113506428D02*
X116657380Y-113982619D01*
X115657380Y-113982619D01*
X116657380Y-113173095D02*
X115657380Y-113173095D01*
X116657380Y-112601666D02*
X116085952Y-113030238D01*
X115657380Y-112601666D02*
X116228809Y-113173095D01*
X116657380Y-111649285D02*
X116657380Y-112220714D01*
X116657380Y-111935000D02*
X115657380Y-111935000D01*
X115800238Y-112030238D01*
X115895476Y-112125476D01*
X115943095Y-112220714D01*
%TO.C,LDO_EN1*%
X133548380Y-113164619D02*
X133548380Y-113640809D01*
X132548380Y-113640809D01*
X133548380Y-112831285D02*
X132548380Y-112831285D01*
X132548380Y-112593190D01*
X132596000Y-112450333D01*
X132691238Y-112355095D01*
X132786476Y-112307476D01*
X132976952Y-112259857D01*
X133119809Y-112259857D01*
X133310285Y-112307476D01*
X133405523Y-112355095D01*
X133500761Y-112450333D01*
X133548380Y-112593190D01*
X133548380Y-112831285D01*
X132548380Y-111640809D02*
X132548380Y-111450333D01*
X132596000Y-111355095D01*
X132691238Y-111259857D01*
X132881714Y-111212238D01*
X133215047Y-111212238D01*
X133405523Y-111259857D01*
X133500761Y-111355095D01*
X133548380Y-111450333D01*
X133548380Y-111640809D01*
X133500761Y-111736047D01*
X133405523Y-111831285D01*
X133215047Y-111878904D01*
X132881714Y-111878904D01*
X132691238Y-111831285D01*
X132596000Y-111736047D01*
X132548380Y-111640809D01*
X133643619Y-111021761D02*
X133643619Y-110259857D01*
X133024571Y-110021761D02*
X133024571Y-109688428D01*
X133548380Y-109545571D02*
X133548380Y-110021761D01*
X132548380Y-110021761D01*
X132548380Y-109545571D01*
X133548380Y-109117000D02*
X132548380Y-109117000D01*
X133548380Y-108545571D01*
X132548380Y-108545571D01*
X133548380Y-107545571D02*
X133548380Y-108117000D01*
X133548380Y-107831285D02*
X132548380Y-107831285D01*
X132691238Y-107926523D01*
X132786476Y-108021761D01*
X132834095Y-108117000D01*
D12*
%TO.C,J1*%
X99426000Y-115637000D02*
X100756000Y-115637000D01*
X98156000Y-118297000D02*
X93016000Y-118297000D01*
X100756000Y-115637000D02*
X100756000Y-116967000D01*
X98156000Y-115637000D02*
X98156000Y-118297000D01*
X98156000Y-115637000D02*
X93016000Y-115637000D01*
X93016000Y-115637000D02*
X93016000Y-118297000D01*
%TO.C,PDM_CLK1*%
X109027000Y-110363000D02*
G75*
G03*
X109027000Y-110363000I-950000J0D01*
G01*
%TO.C,J6*%
X135068000Y-119320000D02*
X136398000Y-119320000D01*
X135068000Y-120650000D02*
X135068000Y-119320000D01*
X137608000Y-119320000D02*
X137728000Y-119320000D01*
X137608000Y-121980000D02*
X137728000Y-121980000D01*
X137728000Y-121980000D02*
X137728000Y-119320000D01*
%TO.C,SPI_MOSI1*%
X120076000Y-112522000D02*
G75*
G03*
X120076000Y-112522000I-950000J0D01*
G01*
%TO.C,J3*%
X98285000Y-101540000D02*
X94755000Y-101540000D01*
X98285000Y-108010000D02*
X98285000Y-107945000D01*
X94755000Y-101605000D02*
X94755000Y-101540000D01*
X98285000Y-101605000D02*
X98285000Y-101540000D01*
X98285000Y-108010000D02*
X94755000Y-108010000D01*
X94755000Y-108010000D02*
X94755000Y-107945000D01*
X99610000Y-107945000D02*
X98285000Y-107945000D01*
%TO.C,PDM_DATA1*%
X105852000Y-110236000D02*
G75*
G03*
X105852000Y-110236000I-950000J0D01*
G01*
%TO.C,SPI_MISO1*%
X125918000Y-112649000D02*
G75*
G03*
X125918000Y-112649000I-950000J0D01*
G01*
%TO.C,P3.3V1*%
X130109000Y-106553000D02*
G75*
G03*
X130109000Y-106553000I-950000J0D01*
G01*
%TO.C,SPI_CS1*%
X123124000Y-109093000D02*
G75*
G03*
X123124000Y-109093000I-950000J0D01*
G01*
%TO.C,J2*%
X143316000Y-107823000D02*
X143316000Y-105223000D01*
X143316000Y-105223000D02*
X140656000Y-105223000D01*
X143316000Y-109093000D02*
X143316000Y-110423000D01*
X143316000Y-110423000D02*
X141986000Y-110423000D01*
X140656000Y-107823000D02*
X140656000Y-105223000D01*
X143316000Y-107823000D02*
X140656000Y-107823000D01*
%TO.C,DEC_CAP1*%
X113726000Y-106680000D02*
G75*
G03*
X113726000Y-106680000I-950000J0D01*
G01*
%TO.C,SPI_CLK1*%
X117028000Y-109220000D02*
G75*
G03*
X117028000Y-109220000I-950000J0D01*
G01*
%TO.C,LDO_EN1*%
X134046000Y-106426000D02*
G75*
G03*
X134046000Y-106426000I-950000J0D01*
G01*
%TO.C,J5*%
X127829000Y-119320000D02*
X129159000Y-119320000D01*
X130489000Y-121980000D02*
X130489000Y-119320000D01*
X130369000Y-119320000D02*
X130489000Y-119320000D01*
X130369000Y-121980000D02*
X130489000Y-121980000D01*
X127829000Y-120650000D02*
X127829000Y-119320000D01*
%TO.C,J4*%
X112074000Y-122488000D02*
X112074000Y-119828000D01*
X109414000Y-121158000D02*
X109414000Y-119828000D01*
X109414000Y-119828000D02*
X110744000Y-119828000D01*
X111954000Y-122488000D02*
X112074000Y-122488000D01*
X111954000Y-119828000D02*
X112074000Y-119828000D01*
%TD*%
M02*
