%TF.GenerationSoftware,KiCad,Pcbnew,(6.0.4)*%
%TF.CreationDate,2022-04-30T14:42:06+02:00*%
%TF.ProjectId,test_fixture,74657374-5f66-4697-9874-7572652e6b69,rev?*%
%TF.SameCoordinates,Original*%
%TF.FileFunction,Copper,L2,Bot*%
%TF.FilePolarity,Positive*%
%FSLAX46Y46*%
G04 Gerber Fmt 4.6, Leading zero omitted, Abs format (unit mm)*
G04 Created by KiCad (PCBNEW (6.0.4)) date 2022-04-30 14:42:06*
%MOMM*%
%LPD*%
G01*
G04 APERTURE LIST*
%ADD10C,0.300000*%
%TA.AperFunction,NonConductor*%
%ADD11C,0.300000*%
%TD*%
%TA.AperFunction,ComponentPad*%
%ADD12C,1.270000*%
%TD*%
%TA.AperFunction,ComponentPad*%
%ADD13R,1.700000X1.700000*%
%TD*%
%TA.AperFunction,ComponentPad*%
%ADD14O,1.700000X1.700000*%
%TD*%
%TA.AperFunction,ViaPad*%
%ADD15C,0.800000*%
%TD*%
%TA.AperFunction,Conductor*%
%ADD16C,0.250000*%
%TD*%
G04 APERTURE END LIST*
D10*
D11*
X141192866Y-115613571D02*
X141005366Y-114113571D01*
X140550008Y-115613571D02*
X140451794Y-114827857D01*
X140505366Y-114685000D01*
X140639294Y-114613571D01*
X140853580Y-114613571D01*
X141005366Y-114685000D01*
X141085723Y-114756428D01*
X139925008Y-114613571D02*
X139353580Y-114613571D01*
X139648223Y-114113571D02*
X139808937Y-115399285D01*
X139755366Y-115542142D01*
X139621437Y-115613571D01*
X139478580Y-115613571D01*
X139067866Y-114613571D02*
X138496437Y-114613571D01*
X138791080Y-114113571D02*
X138951794Y-115399285D01*
X138898223Y-115542142D01*
X138764294Y-115613571D01*
X138621437Y-115613571D01*
X137996437Y-114613571D02*
X138183937Y-116113571D01*
X138005366Y-114685000D02*
X137853580Y-114613571D01*
X137567866Y-114613571D01*
X137433937Y-114685000D01*
X137371437Y-114756428D01*
X137317866Y-114899285D01*
X137371437Y-115327857D01*
X137460723Y-115470714D01*
X137541080Y-115542142D01*
X137692866Y-115613571D01*
X137978580Y-115613571D01*
X138112508Y-115542142D01*
X136826794Y-115542142D02*
X136692866Y-115613571D01*
X136407151Y-115613571D01*
X136255366Y-115542142D01*
X136166080Y-115399285D01*
X136157151Y-115327857D01*
X136210723Y-115185000D01*
X136344651Y-115113571D01*
X136558937Y-115113571D01*
X136692866Y-115042142D01*
X136746437Y-114899285D01*
X136737508Y-114827857D01*
X136648223Y-114685000D01*
X136496437Y-114613571D01*
X136282151Y-114613571D01*
X136148223Y-114685000D01*
X135532151Y-115470714D02*
X135469651Y-115542142D01*
X135550008Y-115613571D01*
X135612508Y-115542142D01*
X135532151Y-115470714D01*
X135550008Y-115613571D01*
X135433937Y-114685000D02*
X135371437Y-114756428D01*
X135451794Y-114827857D01*
X135514294Y-114756428D01*
X135433937Y-114685000D01*
X135451794Y-114827857D01*
X133567866Y-114042142D02*
X135094651Y-115970714D01*
X131996437Y-114042142D02*
X133523223Y-115970714D01*
X130925008Y-114613571D02*
X131076794Y-115827857D01*
X131166080Y-115970714D01*
X131246437Y-116042142D01*
X131398223Y-116113571D01*
X131612508Y-116113571D01*
X131746437Y-116042142D01*
X131041080Y-115542142D02*
X131192866Y-115613571D01*
X131478580Y-115613571D01*
X131612508Y-115542142D01*
X131675008Y-115470714D01*
X131728580Y-115327857D01*
X131675008Y-114899285D01*
X131585723Y-114756428D01*
X131505366Y-114685000D01*
X131353580Y-114613571D01*
X131067866Y-114613571D01*
X130933937Y-114685000D01*
X130335723Y-115613571D02*
X130210723Y-114613571D01*
X130148223Y-114113571D02*
X130228580Y-114185000D01*
X130166080Y-114256428D01*
X130085723Y-114185000D01*
X130148223Y-114113571D01*
X130166080Y-114256428D01*
X129710723Y-114613571D02*
X129139294Y-114613571D01*
X129433937Y-114113571D02*
X129594651Y-115399285D01*
X129541080Y-115542142D01*
X129407151Y-115613571D01*
X129264294Y-115613571D01*
X128764294Y-115613571D02*
X128576794Y-114113571D01*
X128121437Y-115613571D02*
X128023223Y-114827857D01*
X128076794Y-114685000D01*
X128210723Y-114613571D01*
X128425008Y-114613571D01*
X128576794Y-114685000D01*
X128657151Y-114756428D01*
X126639294Y-114613571D02*
X126764294Y-115613571D01*
X127282151Y-114613571D02*
X127380366Y-115399285D01*
X127326794Y-115542142D01*
X127192866Y-115613571D01*
X126978580Y-115613571D01*
X126826794Y-115542142D01*
X126746437Y-115470714D01*
X126050008Y-115613571D02*
X125862508Y-114113571D01*
X125933937Y-114685000D02*
X125782151Y-114613571D01*
X125496437Y-114613571D01*
X125362508Y-114685000D01*
X125300008Y-114756428D01*
X125246437Y-114899285D01*
X125300008Y-115327857D01*
X125389294Y-115470714D01*
X125469651Y-115542142D01*
X125621437Y-115613571D01*
X125907151Y-115613571D01*
X126041080Y-115542142D01*
X124675008Y-115470714D02*
X124612508Y-115542142D01*
X124692866Y-115613571D01*
X124755366Y-115542142D01*
X124675008Y-115470714D01*
X124692866Y-115613571D01*
X123326794Y-115542142D02*
X123478580Y-115613571D01*
X123764294Y-115613571D01*
X123898223Y-115542142D01*
X123960723Y-115470714D01*
X124014294Y-115327857D01*
X123960723Y-114899285D01*
X123871437Y-114756428D01*
X123791080Y-114685000D01*
X123639294Y-114613571D01*
X123353580Y-114613571D01*
X123219651Y-114685000D01*
X122478580Y-115613571D02*
X122612508Y-115542142D01*
X122675008Y-115470714D01*
X122728580Y-115327857D01*
X122675008Y-114899285D01*
X122585723Y-114756428D01*
X122505366Y-114685000D01*
X122353580Y-114613571D01*
X122139294Y-114613571D01*
X122005366Y-114685000D01*
X121942866Y-114756428D01*
X121889294Y-114899285D01*
X121942866Y-115327857D01*
X122032151Y-115470714D01*
X122112508Y-115542142D01*
X122264294Y-115613571D01*
X122478580Y-115613571D01*
X121335723Y-115613571D02*
X121210723Y-114613571D01*
X121228580Y-114756428D02*
X121148223Y-114685000D01*
X120996437Y-114613571D01*
X120782151Y-114613571D01*
X120648223Y-114685000D01*
X120594651Y-114827857D01*
X120692866Y-115613571D01*
X120594651Y-114827857D02*
X120505366Y-114685000D01*
X120353580Y-114613571D01*
X120139294Y-114613571D01*
X120005366Y-114685000D01*
X119951794Y-114827857D01*
X120050008Y-115613571D01*
X118067866Y-114042142D02*
X119594651Y-115970714D01*
X117764294Y-115613571D02*
X117639294Y-114613571D01*
X117675008Y-114899285D02*
X117585723Y-114756428D01*
X117505366Y-114685000D01*
X117353580Y-114613571D01*
X117210723Y-114613571D01*
X116067866Y-114613571D02*
X116192866Y-115613571D01*
X116710723Y-114613571D02*
X116808937Y-115399285D01*
X116755366Y-115542142D01*
X116621437Y-115613571D01*
X116407151Y-115613571D01*
X116255366Y-115542142D01*
X116175008Y-115470714D01*
X115353580Y-114613571D02*
X115478580Y-115613571D01*
X115371437Y-114756428D02*
X115291080Y-114685000D01*
X115139294Y-114613571D01*
X114925008Y-114613571D01*
X114791080Y-114685000D01*
X114737508Y-114827857D01*
X114835723Y-115613571D01*
X113478580Y-115613571D02*
X113291080Y-114113571D01*
X113469651Y-115542142D02*
X113621437Y-115613571D01*
X113907151Y-115613571D01*
X114041080Y-115542142D01*
X114103580Y-115470714D01*
X114157151Y-115327857D01*
X114103580Y-114899285D01*
X114014294Y-114756428D01*
X113933937Y-114685000D01*
X113782151Y-114613571D01*
X113496437Y-114613571D01*
X113362508Y-114685000D01*
X112764294Y-115613571D02*
X112576794Y-114113571D01*
X112648223Y-114685000D02*
X112496437Y-114613571D01*
X112210723Y-114613571D01*
X112076794Y-114685000D01*
X112014294Y-114756428D01*
X111960723Y-114899285D01*
X112014294Y-115327857D01*
X112103580Y-115470714D01*
X112183937Y-115542142D01*
X112335723Y-115613571D01*
X112621437Y-115613571D01*
X112755366Y-115542142D01*
X110139294Y-114042142D02*
X111666080Y-115970714D01*
X109192866Y-115613571D02*
X109005366Y-114113571D01*
X109183937Y-115542142D02*
X109335723Y-115613571D01*
X109621437Y-115613571D01*
X109755366Y-115542142D01*
X109817866Y-115470714D01*
X109871437Y-115327857D01*
X109817866Y-114899285D01*
X109728580Y-114756428D01*
X109648223Y-114685000D01*
X109496437Y-114613571D01*
X109210723Y-114613571D01*
X109076794Y-114685000D01*
X108478580Y-115613571D02*
X108353580Y-114613571D01*
X108291080Y-114113571D02*
X108371437Y-114185000D01*
X108308937Y-114256428D01*
X108228580Y-114185000D01*
X108291080Y-114113571D01*
X108308937Y-114256428D01*
X107112508Y-115542142D02*
X107264294Y-115613571D01*
X107550008Y-115613571D01*
X107683937Y-115542142D01*
X107746437Y-115470714D01*
X107800008Y-115327857D01*
X107746437Y-114899285D01*
X107657151Y-114756428D01*
X107576794Y-114685000D01*
X107425008Y-114613571D01*
X107139294Y-114613571D01*
X107005366Y-114685000D01*
X106567866Y-114613571D02*
X105996437Y-114613571D01*
X106291080Y-114113571D02*
X106451794Y-115399285D01*
X106398223Y-115542142D01*
X106264294Y-115613571D01*
X106121437Y-115613571D01*
X105407151Y-115613571D02*
X105541080Y-115542142D01*
X105603580Y-115470714D01*
X105657151Y-115327857D01*
X105603580Y-114899285D01*
X105514294Y-114756428D01*
X105433937Y-114685000D01*
X105282151Y-114613571D01*
X105067866Y-114613571D01*
X104933937Y-114685000D01*
X104871437Y-114756428D01*
X104817866Y-114899285D01*
X104871437Y-115327857D01*
X104960723Y-115470714D01*
X105041080Y-115542142D01*
X105192866Y-115613571D01*
X105407151Y-115613571D01*
X104353580Y-114613571D02*
X103782151Y-114613571D01*
X104264294Y-115613571D02*
X104103580Y-114327857D01*
X104014294Y-114185000D01*
X103862508Y-114113571D01*
X103719651Y-114113571D01*
X102639294Y-114613571D02*
X102764294Y-115613571D01*
X103282151Y-114613571D02*
X103380366Y-115399285D01*
X103326794Y-115542142D01*
X103192866Y-115613571D01*
X102978580Y-115613571D01*
X102826794Y-115542142D01*
X102746437Y-115470714D01*
X101925008Y-114613571D02*
X102050008Y-115613571D01*
X101942866Y-114756428D02*
X101862508Y-114685000D01*
X101710723Y-114613571D01*
X101496437Y-114613571D01*
X101362508Y-114685000D01*
X101308937Y-114827857D01*
X101407151Y-115613571D01*
D12*
%TO.P,POGO19,1,Pin_1*%
%TO.N,/CHRG_IN*%
X137033000Y-94488000D03*
%TD*%
%TO.P,POGO16,1,Pin_1*%
%TO.N,/P3.3V*%
X121920000Y-96139000D03*
%TD*%
%TO.P,POGO11,1,Pin_1*%
%TO.N,/PDM_CLK*%
X106045000Y-98171000D03*
%TD*%
%TO.P,POGO10,1,Pin_1*%
%TO.N,/SPI_CLK*%
X122555000Y-90170000D03*
%TD*%
D13*
%TO.P,J1,1,Pin_1*%
%TO.N,GNDD*%
X99426000Y-116967000D03*
D14*
%TO.P,J1,2,Pin_2*%
%TO.N,/UART_TX*%
X96886000Y-116967000D03*
%TO.P,J1,3,Pin_3*%
%TO.N,/UART_RX*%
X94346000Y-116967000D03*
%TD*%
D13*
%TO.P,J6,1,Pin_1*%
%TO.N,GNDD*%
X136398000Y-120650000D03*
%TD*%
D12*
%TO.P,POGO5,1,Pin_1*%
%TO.N,/UART_TX*%
X116205000Y-87376000D03*
%TD*%
%TO.P,POGO7,1,Pin_1*%
%TO.N,/SPI_MOSI*%
X124206000Y-93599000D03*
%TD*%
%TO.P,POGO15,1,Pin_1*%
%TO.N,/LDO_EN*%
X127127000Y-98171000D03*
%TD*%
%TO.P,POGO13,1,Pin_1*%
%TO.N,/POWER_VBAT*%
X129921000Y-88773000D03*
%TD*%
%TO.P,POGO17,1,Pin_1*%
%TO.N,/DEC_CAP*%
X111887000Y-98552000D03*
%TD*%
%TO.P,POGO18,1,Pin_1*%
%TO.N,Net-(J3-Pad8)*%
X106680000Y-91440000D03*
%TD*%
%TO.P,POGO1,1,Pin_1*%
%TO.N,/UART_RX*%
X114173000Y-87122000D03*
%TD*%
%TO.P,POGO2,1,Pin_1*%
%TO.N,/VTREF*%
X101473000Y-95377000D03*
%TD*%
%TO.P,POGO14,1,Pin_1*%
%TO.N,GNDD*%
X118618000Y-86868000D03*
%TD*%
D13*
%TO.P,J2,1,Pin_1*%
%TO.N,GNDD*%
X141986000Y-109093000D03*
D14*
%TO.P,J2,2,Pin_2*%
%TO.N,/POWER_VBAT*%
X141986000Y-106553000D03*
%TD*%
D12*
%TO.P,POGO21,1,Pin_1*%
%TO.N,/SWDCLK*%
X106680000Y-93980000D03*
%TD*%
%TO.P,POGO20,1,Pin_1*%
%TO.N,/RESET*%
X105410000Y-90297000D03*
%TD*%
%TO.P,POGO9,1,Pin_1*%
%TO.N,/SPI_CS*%
X125222000Y-87376000D03*
%TD*%
%TO.P,POGO12,1,Pin_1*%
%TO.N,/PDM_DATA*%
X103886000Y-98171000D03*
%TD*%
%TO.P,POGO6,1,Pin_1*%
%TO.N,GNDD*%
X130048000Y-91694000D03*
%TD*%
D13*
%TO.P,J5,1,Pin_1*%
%TO.N,GNDD*%
X129159000Y-120650000D03*
%TD*%
D12*
%TO.P,POGO23,1,Pin_1*%
%TO.N,/SWO*%
X105410000Y-92837000D03*
%TD*%
%TO.P,POGO8,1,Pin_1*%
%TO.N,/SPI_MISO*%
X127635000Y-87376000D03*
%TD*%
%TO.P,POGO4,1,Pin_1*%
%TO.N,Net-(J3-Pad9)*%
X101854000Y-90170000D03*
%TD*%
D13*
%TO.P,J4,1,Pin_1*%
%TO.N,GNDD*%
X110744000Y-121158000D03*
%TD*%
D12*
%TO.P,POGO22,1,Pin_1*%
%TO.N,/SWDIO*%
X105410000Y-95377000D03*
%TD*%
%TO.P,POGO3,1,Pin_1*%
%TO.N,Net-(J3-Pad3)*%
X102743000Y-94107000D03*
%TD*%
D15*
%TO.N,/SWDIO*%
X92075000Y-108204000D03*
%TO.N,/SWDCLK*%
X92075000Y-106045000D03*
%TO.N,/P3.3V*%
X129159000Y-106553000D03*
%TD*%
D16*
%TO.N,GNDD*%
X99426000Y-108727000D02*
X99426000Y-116967000D01*
X118618000Y-86868000D02*
X118618000Y-89535000D01*
X118618000Y-89535000D02*
X99426000Y-108727000D01*
%TO.N,/UART_TX*%
X96886000Y-110124000D02*
X96886000Y-116967000D01*
X116205000Y-87376000D02*
X116205000Y-90805000D01*
X116205000Y-90805000D02*
X96886000Y-110124000D01*
%TO.N,/UART_RX*%
X114173000Y-91948000D02*
X94346000Y-111775000D01*
X94346000Y-111775000D02*
X94346000Y-116967000D01*
X114173000Y-87122000D02*
X114173000Y-91948000D01*
%TO.N,/SWDIO*%
X104902000Y-95377000D02*
X105410000Y-95377000D01*
X92075000Y-108204000D02*
X104902000Y-95377000D01*
%TO.N,/SWDCLK*%
X104775000Y-93980000D02*
X106680000Y-93980000D01*
X92710000Y-106045000D02*
X104775000Y-93980000D01*
X92075000Y-106045000D02*
X92710000Y-106045000D01*
%TO.N,/P3.3V*%
X121920000Y-99314000D02*
X121920000Y-96139000D01*
X129159000Y-106553000D02*
X121920000Y-99314000D01*
%TD*%
%TA.AperFunction,Conductor*%
%TO.N,GNDD*%
G36*
X141836960Y-81554502D02*
G01*
X141883453Y-81608158D01*
X141893557Y-81678432D01*
X141864063Y-81743012D01*
X141852164Y-81755014D01*
X141797383Y-81803310D01*
X141750262Y-81844853D01*
X141591076Y-82038649D01*
X141464922Y-82255404D01*
X141463109Y-82260127D01*
X141463108Y-82260129D01*
X141453297Y-82285687D01*
X141375045Y-82489539D01*
X141374012Y-82494485D01*
X141374010Y-82494491D01*
X141330490Y-82702814D01*
X141323759Y-82735033D01*
X141323530Y-82740082D01*
X141323529Y-82740088D01*
X141322884Y-82754301D01*
X141312382Y-82985568D01*
X141312963Y-82990588D01*
X141312963Y-82990592D01*
X141325924Y-83102607D01*
X141341208Y-83234699D01*
X141409494Y-83476017D01*
X141411628Y-83480592D01*
X141411630Y-83480599D01*
X141504343Y-83679422D01*
X141515484Y-83703313D01*
X141518326Y-83707494D01*
X141518326Y-83707495D01*
X141653605Y-83906552D01*
X141653608Y-83906556D01*
X141656451Y-83910739D01*
X141659928Y-83914416D01*
X141659929Y-83914417D01*
X141760238Y-84020491D01*
X141828767Y-84092959D01*
X141832793Y-84096037D01*
X141832794Y-84096038D01*
X142023981Y-84242212D01*
X142023985Y-84242215D01*
X142028001Y-84245285D01*
X142032459Y-84247675D01*
X142032460Y-84247676D01*
X142153723Y-84312696D01*
X142249026Y-84363797D01*
X142253807Y-84365443D01*
X142253811Y-84365445D01*
X142473073Y-84440943D01*
X142486156Y-84445448D01*
X142589689Y-84463331D01*
X142729380Y-84487460D01*
X142729386Y-84487461D01*
X142733290Y-84488135D01*
X142737251Y-84488315D01*
X142737252Y-84488315D01*
X142761931Y-84489436D01*
X142761950Y-84489436D01*
X142763350Y-84489500D01*
X142938015Y-84489500D01*
X142940523Y-84489298D01*
X142940528Y-84489298D01*
X143119944Y-84474863D01*
X143119949Y-84474862D01*
X143124985Y-84474457D01*
X143129893Y-84473252D01*
X143129896Y-84473251D01*
X143363625Y-84415841D01*
X143368539Y-84414634D01*
X143373191Y-84412659D01*
X143373195Y-84412658D01*
X143594741Y-84318617D01*
X143594742Y-84318617D01*
X143599396Y-84316641D01*
X143811615Y-84183000D01*
X143999738Y-84017147D01*
X144048138Y-83958224D01*
X144106830Y-83918283D01*
X144177802Y-83916413D01*
X144238518Y-83953210D01*
X144269702Y-84016992D01*
X144271500Y-84038202D01*
X144271500Y-120217413D01*
X144251498Y-120285534D01*
X144197842Y-120332027D01*
X144127568Y-120342131D01*
X144062988Y-120312637D01*
X144041288Y-120288236D01*
X143969395Y-120182448D01*
X143969392Y-120182444D01*
X143966549Y-120178261D01*
X143865925Y-120071853D01*
X143797713Y-119999721D01*
X143794233Y-119996041D01*
X143720562Y-119939715D01*
X143599019Y-119846788D01*
X143599015Y-119846785D01*
X143594999Y-119843715D01*
X143514163Y-119800371D01*
X143378435Y-119727595D01*
X143373974Y-119725203D01*
X143369193Y-119723557D01*
X143369189Y-119723555D01*
X143141633Y-119645201D01*
X143136844Y-119643552D01*
X143033311Y-119625669D01*
X142893620Y-119601540D01*
X142893614Y-119601539D01*
X142889710Y-119600865D01*
X142885749Y-119600685D01*
X142885748Y-119600685D01*
X142861069Y-119599564D01*
X142861050Y-119599564D01*
X142859650Y-119599500D01*
X142684985Y-119599500D01*
X142682477Y-119599702D01*
X142682472Y-119599702D01*
X142503056Y-119614137D01*
X142503051Y-119614138D01*
X142498015Y-119614543D01*
X142493107Y-119615748D01*
X142493104Y-119615749D01*
X142261326Y-119672680D01*
X142254461Y-119674366D01*
X142249809Y-119676341D01*
X142249805Y-119676342D01*
X142063719Y-119755331D01*
X142023604Y-119772359D01*
X141811385Y-119906000D01*
X141623262Y-120071853D01*
X141464076Y-120265649D01*
X141337922Y-120482404D01*
X141336109Y-120487127D01*
X141336108Y-120487129D01*
X141309467Y-120556530D01*
X141248045Y-120716539D01*
X141247012Y-120721485D01*
X141247010Y-120721491D01*
X141208282Y-120906876D01*
X141196759Y-120962033D01*
X141185382Y-121212568D01*
X141214208Y-121461699D01*
X141215587Y-121466573D01*
X141215588Y-121466577D01*
X141258325Y-121617606D01*
X141282494Y-121703017D01*
X141284628Y-121707592D01*
X141284630Y-121707599D01*
X141362526Y-121874646D01*
X141388484Y-121930313D01*
X141391326Y-121934494D01*
X141391326Y-121934495D01*
X141526605Y-122133552D01*
X141526608Y-122133556D01*
X141529451Y-122137739D01*
X141532928Y-122141416D01*
X141532929Y-122141417D01*
X141631879Y-122246054D01*
X141701767Y-122319959D01*
X141705793Y-122323037D01*
X141705794Y-122323038D01*
X141896981Y-122469212D01*
X141896985Y-122469215D01*
X141901001Y-122472285D01*
X141905459Y-122474675D01*
X141905460Y-122474676D01*
X142029048Y-122540943D01*
X142122026Y-122590797D01*
X142126807Y-122592443D01*
X142126811Y-122592445D01*
X142352538Y-122670169D01*
X142359156Y-122672448D01*
X142433788Y-122685339D01*
X142497510Y-122716643D01*
X142534192Y-122777430D01*
X142532188Y-122848398D01*
X142492133Y-122907016D01*
X142426745Y-122934674D01*
X142412342Y-122935500D01*
X91270340Y-122935500D01*
X91202219Y-122915498D01*
X91155726Y-122861842D01*
X91145622Y-122791568D01*
X91175116Y-122726988D01*
X91240285Y-122687137D01*
X91420625Y-122642841D01*
X91425539Y-122641634D01*
X91430191Y-122639659D01*
X91430195Y-122639658D01*
X91651741Y-122545617D01*
X91651742Y-122545617D01*
X91656396Y-122543641D01*
X91868615Y-122410000D01*
X92056738Y-122244147D01*
X92214020Y-122052669D01*
X109386001Y-122052669D01*
X109386371Y-122059490D01*
X109391895Y-122110352D01*
X109395521Y-122125604D01*
X109440676Y-122246054D01*
X109449214Y-122261649D01*
X109525715Y-122363724D01*
X109538276Y-122376285D01*
X109640351Y-122452786D01*
X109655946Y-122461324D01*
X109776394Y-122506478D01*
X109791649Y-122510105D01*
X109842514Y-122515631D01*
X109849328Y-122516000D01*
X110471885Y-122516000D01*
X110487124Y-122511525D01*
X110488329Y-122510135D01*
X110490000Y-122502452D01*
X110490000Y-122497884D01*
X110998000Y-122497884D01*
X111002475Y-122513123D01*
X111003865Y-122514328D01*
X111011548Y-122515999D01*
X111638669Y-122515999D01*
X111645490Y-122515629D01*
X111696352Y-122510105D01*
X111711604Y-122506479D01*
X111832054Y-122461324D01*
X111847649Y-122452786D01*
X111949724Y-122376285D01*
X111962285Y-122363724D01*
X112038786Y-122261649D01*
X112047324Y-122246054D01*
X112092478Y-122125606D01*
X112096105Y-122110351D01*
X112101631Y-122059486D01*
X112102000Y-122052672D01*
X112102000Y-121544669D01*
X127801001Y-121544669D01*
X127801371Y-121551490D01*
X127806895Y-121602352D01*
X127810521Y-121617604D01*
X127855676Y-121738054D01*
X127864214Y-121753649D01*
X127940715Y-121855724D01*
X127953276Y-121868285D01*
X128055351Y-121944786D01*
X128070946Y-121953324D01*
X128191394Y-121998478D01*
X128206649Y-122002105D01*
X128257514Y-122007631D01*
X128264328Y-122008000D01*
X128886885Y-122008000D01*
X128902124Y-122003525D01*
X128903329Y-122002135D01*
X128905000Y-121994452D01*
X128905000Y-121989884D01*
X129413000Y-121989884D01*
X129417475Y-122005123D01*
X129418865Y-122006328D01*
X129426548Y-122007999D01*
X130053669Y-122007999D01*
X130060490Y-122007629D01*
X130111352Y-122002105D01*
X130126604Y-121998479D01*
X130247054Y-121953324D01*
X130262649Y-121944786D01*
X130364724Y-121868285D01*
X130377285Y-121855724D01*
X130453786Y-121753649D01*
X130462324Y-121738054D01*
X130507478Y-121617606D01*
X130511105Y-121602351D01*
X130516631Y-121551486D01*
X130517000Y-121544672D01*
X130517000Y-121544669D01*
X135040001Y-121544669D01*
X135040371Y-121551490D01*
X135045895Y-121602352D01*
X135049521Y-121617604D01*
X135094676Y-121738054D01*
X135103214Y-121753649D01*
X135179715Y-121855724D01*
X135192276Y-121868285D01*
X135294351Y-121944786D01*
X135309946Y-121953324D01*
X135430394Y-121998478D01*
X135445649Y-122002105D01*
X135496514Y-122007631D01*
X135503328Y-122008000D01*
X136125885Y-122008000D01*
X136141124Y-122003525D01*
X136142329Y-122002135D01*
X136144000Y-121994452D01*
X136144000Y-121989884D01*
X136652000Y-121989884D01*
X136656475Y-122005123D01*
X136657865Y-122006328D01*
X136665548Y-122007999D01*
X137292669Y-122007999D01*
X137299490Y-122007629D01*
X137350352Y-122002105D01*
X137365604Y-121998479D01*
X137486054Y-121953324D01*
X137501649Y-121944786D01*
X137603724Y-121868285D01*
X137616285Y-121855724D01*
X137692786Y-121753649D01*
X137701324Y-121738054D01*
X137746478Y-121617606D01*
X137750105Y-121602351D01*
X137755631Y-121551486D01*
X137756000Y-121544672D01*
X137756000Y-120922115D01*
X137751525Y-120906876D01*
X137750135Y-120905671D01*
X137742452Y-120904000D01*
X136670115Y-120904000D01*
X136654876Y-120908475D01*
X136653671Y-120909865D01*
X136652000Y-120917548D01*
X136652000Y-121989884D01*
X136144000Y-121989884D01*
X136144000Y-120922115D01*
X136139525Y-120906876D01*
X136138135Y-120905671D01*
X136130452Y-120904000D01*
X135058116Y-120904000D01*
X135042877Y-120908475D01*
X135041672Y-120909865D01*
X135040001Y-120917548D01*
X135040001Y-121544669D01*
X130517000Y-121544669D01*
X130517000Y-120922115D01*
X130512525Y-120906876D01*
X130511135Y-120905671D01*
X130503452Y-120904000D01*
X129431115Y-120904000D01*
X129415876Y-120908475D01*
X129414671Y-120909865D01*
X129413000Y-120917548D01*
X129413000Y-121989884D01*
X128905000Y-121989884D01*
X128905000Y-120922115D01*
X128900525Y-120906876D01*
X128899135Y-120905671D01*
X128891452Y-120904000D01*
X127819116Y-120904000D01*
X127803877Y-120908475D01*
X127802672Y-120909865D01*
X127801001Y-120917548D01*
X127801001Y-121544669D01*
X112102000Y-121544669D01*
X112102000Y-121430115D01*
X112097525Y-121414876D01*
X112096135Y-121413671D01*
X112088452Y-121412000D01*
X111016115Y-121412000D01*
X111000876Y-121416475D01*
X110999671Y-121417865D01*
X110998000Y-121425548D01*
X110998000Y-122497884D01*
X110490000Y-122497884D01*
X110490000Y-121430115D01*
X110485525Y-121414876D01*
X110484135Y-121413671D01*
X110476452Y-121412000D01*
X109404116Y-121412000D01*
X109388877Y-121416475D01*
X109387672Y-121417865D01*
X109386001Y-121425548D01*
X109386001Y-122052669D01*
X92214020Y-122052669D01*
X92215924Y-122050351D01*
X92342078Y-121833596D01*
X92374196Y-121749928D01*
X92430143Y-121604181D01*
X92431955Y-121599461D01*
X92441978Y-121551486D01*
X92482206Y-121358921D01*
X92483241Y-121353967D01*
X92494618Y-121103432D01*
X92469446Y-120885885D01*
X109386000Y-120885885D01*
X109390475Y-120901124D01*
X109391865Y-120902329D01*
X109399548Y-120904000D01*
X110471885Y-120904000D01*
X110487124Y-120899525D01*
X110488329Y-120898135D01*
X110490000Y-120890452D01*
X110490000Y-120885885D01*
X110998000Y-120885885D01*
X111002475Y-120901124D01*
X111003865Y-120902329D01*
X111011548Y-120904000D01*
X112083884Y-120904000D01*
X112099123Y-120899525D01*
X112100328Y-120898135D01*
X112101999Y-120890452D01*
X112101999Y-120377885D01*
X127801000Y-120377885D01*
X127805475Y-120393124D01*
X127806865Y-120394329D01*
X127814548Y-120396000D01*
X128886885Y-120396000D01*
X128902124Y-120391525D01*
X128903329Y-120390135D01*
X128905000Y-120382452D01*
X128905000Y-120377885D01*
X129413000Y-120377885D01*
X129417475Y-120393124D01*
X129418865Y-120394329D01*
X129426548Y-120396000D01*
X130498884Y-120396000D01*
X130514123Y-120391525D01*
X130515328Y-120390135D01*
X130516999Y-120382452D01*
X130516999Y-120377885D01*
X135040000Y-120377885D01*
X135044475Y-120393124D01*
X135045865Y-120394329D01*
X135053548Y-120396000D01*
X136125885Y-120396000D01*
X136141124Y-120391525D01*
X136142329Y-120390135D01*
X136144000Y-120382452D01*
X136144000Y-120377885D01*
X136652000Y-120377885D01*
X136656475Y-120393124D01*
X136657865Y-120394329D01*
X136665548Y-120396000D01*
X137737884Y-120396000D01*
X137753123Y-120391525D01*
X137754328Y-120390135D01*
X137755999Y-120382452D01*
X137755999Y-119755331D01*
X137755629Y-119748510D01*
X137750105Y-119697648D01*
X137746479Y-119682396D01*
X137701324Y-119561946D01*
X137692786Y-119546351D01*
X137616285Y-119444276D01*
X137603724Y-119431715D01*
X137501649Y-119355214D01*
X137486054Y-119346676D01*
X137365606Y-119301522D01*
X137350351Y-119297895D01*
X137299486Y-119292369D01*
X137292672Y-119292000D01*
X136670115Y-119292000D01*
X136654876Y-119296475D01*
X136653671Y-119297865D01*
X136652000Y-119305548D01*
X136652000Y-120377885D01*
X136144000Y-120377885D01*
X136144000Y-119310116D01*
X136139525Y-119294877D01*
X136138135Y-119293672D01*
X136130452Y-119292001D01*
X135503331Y-119292001D01*
X135496510Y-119292371D01*
X135445648Y-119297895D01*
X135430396Y-119301521D01*
X135309946Y-119346676D01*
X135294351Y-119355214D01*
X135192276Y-119431715D01*
X135179715Y-119444276D01*
X135103214Y-119546351D01*
X135094676Y-119561946D01*
X135049522Y-119682394D01*
X135045895Y-119697649D01*
X135040369Y-119748514D01*
X135040000Y-119755328D01*
X135040000Y-120377885D01*
X130516999Y-120377885D01*
X130516999Y-119755331D01*
X130516629Y-119748510D01*
X130511105Y-119697648D01*
X130507479Y-119682396D01*
X130462324Y-119561946D01*
X130453786Y-119546351D01*
X130377285Y-119444276D01*
X130364724Y-119431715D01*
X130262649Y-119355214D01*
X130247054Y-119346676D01*
X130126606Y-119301522D01*
X130111351Y-119297895D01*
X130060486Y-119292369D01*
X130053672Y-119292000D01*
X129431115Y-119292000D01*
X129415876Y-119296475D01*
X129414671Y-119297865D01*
X129413000Y-119305548D01*
X129413000Y-120377885D01*
X128905000Y-120377885D01*
X128905000Y-119310116D01*
X128900525Y-119294877D01*
X128899135Y-119293672D01*
X128891452Y-119292001D01*
X128264331Y-119292001D01*
X128257510Y-119292371D01*
X128206648Y-119297895D01*
X128191396Y-119301521D01*
X128070946Y-119346676D01*
X128055351Y-119355214D01*
X127953276Y-119431715D01*
X127940715Y-119444276D01*
X127864214Y-119546351D01*
X127855676Y-119561946D01*
X127810522Y-119682394D01*
X127806895Y-119697649D01*
X127801369Y-119748514D01*
X127801000Y-119755328D01*
X127801000Y-120377885D01*
X112101999Y-120377885D01*
X112101999Y-120263331D01*
X112101629Y-120256510D01*
X112096105Y-120205648D01*
X112092479Y-120190396D01*
X112047324Y-120069946D01*
X112038786Y-120054351D01*
X111962285Y-119952276D01*
X111949724Y-119939715D01*
X111847649Y-119863214D01*
X111832054Y-119854676D01*
X111711606Y-119809522D01*
X111696351Y-119805895D01*
X111645486Y-119800369D01*
X111638672Y-119800000D01*
X111016115Y-119800000D01*
X111000876Y-119804475D01*
X110999671Y-119805865D01*
X110998000Y-119813548D01*
X110998000Y-120885885D01*
X110490000Y-120885885D01*
X110490000Y-119818116D01*
X110485525Y-119802877D01*
X110484135Y-119801672D01*
X110476452Y-119800001D01*
X109849331Y-119800001D01*
X109842510Y-119800371D01*
X109791648Y-119805895D01*
X109776396Y-119809521D01*
X109655946Y-119854676D01*
X109640351Y-119863214D01*
X109538276Y-119939715D01*
X109525715Y-119952276D01*
X109449214Y-120054351D01*
X109440676Y-120069946D01*
X109395522Y-120190394D01*
X109391895Y-120205649D01*
X109386369Y-120256514D01*
X109386000Y-120263328D01*
X109386000Y-120885885D01*
X92469446Y-120885885D01*
X92465792Y-120854301D01*
X92426810Y-120716539D01*
X92398884Y-120617852D01*
X92398883Y-120617850D01*
X92397506Y-120612983D01*
X92395372Y-120608408D01*
X92395370Y-120608401D01*
X92293653Y-120390269D01*
X92293651Y-120390265D01*
X92291516Y-120385687D01*
X92223452Y-120285534D01*
X92153395Y-120182448D01*
X92153392Y-120182444D01*
X92150549Y-120178261D01*
X92049925Y-120071853D01*
X91981713Y-119999721D01*
X91978233Y-119996041D01*
X91904562Y-119939715D01*
X91783019Y-119846788D01*
X91783015Y-119846785D01*
X91778999Y-119843715D01*
X91698163Y-119800371D01*
X91562435Y-119727595D01*
X91557974Y-119725203D01*
X91553193Y-119723557D01*
X91553189Y-119723555D01*
X91325633Y-119645201D01*
X91320844Y-119643552D01*
X91217311Y-119625669D01*
X91077620Y-119601540D01*
X91077614Y-119601539D01*
X91073710Y-119600865D01*
X91069749Y-119600685D01*
X91069748Y-119600685D01*
X91045069Y-119599564D01*
X91045050Y-119599564D01*
X91043650Y-119599500D01*
X90868985Y-119599500D01*
X90866477Y-119599702D01*
X90866472Y-119599702D01*
X90687056Y-119614137D01*
X90687051Y-119614138D01*
X90682015Y-119614543D01*
X90677107Y-119615748D01*
X90677104Y-119615749D01*
X90445326Y-119672680D01*
X90438461Y-119674366D01*
X90433809Y-119676341D01*
X90433805Y-119676342D01*
X90247719Y-119755331D01*
X90207604Y-119772359D01*
X89995385Y-119906000D01*
X89807262Y-120071853D01*
X89648076Y-120265649D01*
X89521922Y-120482404D01*
X89520776Y-120485388D01*
X89473657Y-120537786D01*
X89405179Y-120556530D01*
X89337439Y-120535276D01*
X89291942Y-120480774D01*
X89281500Y-120430551D01*
X89281500Y-108204000D01*
X91161496Y-108204000D01*
X91181458Y-108393928D01*
X91240473Y-108575556D01*
X91335960Y-108740944D01*
X91340378Y-108745851D01*
X91340379Y-108745852D01*
X91421660Y-108836124D01*
X91463747Y-108882866D01*
X91618248Y-108995118D01*
X91624276Y-108997802D01*
X91624278Y-108997803D01*
X91786681Y-109070109D01*
X91792712Y-109072794D01*
X91886113Y-109092647D01*
X91973056Y-109111128D01*
X91973061Y-109111128D01*
X91979513Y-109112500D01*
X92170487Y-109112500D01*
X92176939Y-109111128D01*
X92176944Y-109111128D01*
X92263888Y-109092647D01*
X92357288Y-109072794D01*
X92363319Y-109070109D01*
X92525722Y-108997803D01*
X92525724Y-108997802D01*
X92531752Y-108995118D01*
X92686253Y-108882866D01*
X92728340Y-108836124D01*
X92809621Y-108745852D01*
X92809622Y-108745851D01*
X92814040Y-108740944D01*
X92909527Y-108575556D01*
X92968542Y-108393928D01*
X92985907Y-108228706D01*
X93012920Y-108163050D01*
X93022122Y-108152782D01*
X102617922Y-98556982D01*
X102680234Y-98522956D01*
X102751049Y-98528021D01*
X102807885Y-98570568D01*
X102821441Y-98593322D01*
X102891457Y-98745199D01*
X102894788Y-98749912D01*
X102894789Y-98749914D01*
X103009416Y-98912106D01*
X103012751Y-98916825D01*
X103163289Y-99063474D01*
X103168085Y-99066679D01*
X103168088Y-99066681D01*
X103266478Y-99132423D01*
X103338031Y-99180233D01*
X103343339Y-99182514D01*
X103343340Y-99182514D01*
X103525822Y-99260914D01*
X103525825Y-99260915D01*
X103531125Y-99263192D01*
X103536754Y-99264466D01*
X103536755Y-99264466D01*
X103730467Y-99308299D01*
X103730473Y-99308300D01*
X103736104Y-99309574D01*
X103741875Y-99309801D01*
X103741877Y-99309801D01*
X103805433Y-99312298D01*
X103946103Y-99317825D01*
X104154088Y-99287669D01*
X104159552Y-99285814D01*
X104159557Y-99285813D01*
X104347624Y-99221973D01*
X104347629Y-99221971D01*
X104353096Y-99220115D01*
X104376683Y-99206906D01*
X104430042Y-99177023D01*
X104536460Y-99117426D01*
X104698041Y-98983041D01*
X104832426Y-98821460D01*
X104855068Y-98781030D01*
X104905804Y-98731370D01*
X104975336Y-98717023D01*
X105041586Y-98742545D01*
X105067898Y-98769878D01*
X105168415Y-98912106D01*
X105168419Y-98912111D01*
X105171751Y-98916825D01*
X105322289Y-99063474D01*
X105327085Y-99066679D01*
X105327088Y-99066681D01*
X105425478Y-99132423D01*
X105497031Y-99180233D01*
X105502339Y-99182514D01*
X105502340Y-99182514D01*
X105684819Y-99260913D01*
X105684825Y-99260915D01*
X105690125Y-99263192D01*
X105695755Y-99264466D01*
X105700123Y-99265885D01*
X105758729Y-99305958D01*
X105786366Y-99371355D01*
X105774259Y-99441312D01*
X105750282Y-99474813D01*
X93953747Y-111271348D01*
X93945461Y-111278888D01*
X93938982Y-111283000D01*
X93933557Y-111288777D01*
X93892357Y-111332651D01*
X93889602Y-111335493D01*
X93869865Y-111355230D01*
X93867385Y-111358427D01*
X93859682Y-111367447D01*
X93829414Y-111399679D01*
X93825595Y-111406625D01*
X93825593Y-111406628D01*
X93819652Y-111417434D01*
X93808801Y-111433953D01*
X93796386Y-111449959D01*
X93793241Y-111457228D01*
X93793238Y-111457232D01*
X93778826Y-111490537D01*
X93773609Y-111501187D01*
X93752305Y-111539940D01*
X93750334Y-111547615D01*
X93750334Y-111547616D01*
X93747267Y-111559562D01*
X93740863Y-111578266D01*
X93732819Y-111596855D01*
X93731580Y-111604678D01*
X93731577Y-111604688D01*
X93725901Y-111640524D01*
X93723495Y-111652144D01*
X93712500Y-111694970D01*
X93712500Y-111715224D01*
X93710949Y-111734934D01*
X93707780Y-111754943D01*
X93708526Y-111762835D01*
X93711941Y-111798961D01*
X93712500Y-111810819D01*
X93712500Y-115688692D01*
X93692498Y-115756813D01*
X93644683Y-115800453D01*
X93619607Y-115813507D01*
X93615474Y-115816610D01*
X93615471Y-115816612D01*
X93532450Y-115878946D01*
X93440965Y-115947635D01*
X93286629Y-116109138D01*
X93160743Y-116293680D01*
X93066688Y-116496305D01*
X93006989Y-116711570D01*
X92983251Y-116933695D01*
X92996110Y-117156715D01*
X92997247Y-117161761D01*
X92997248Y-117161767D01*
X93011606Y-117225475D01*
X93045222Y-117374639D01*
X93129266Y-117581616D01*
X93180942Y-117665944D01*
X93243291Y-117767688D01*
X93245987Y-117772088D01*
X93392250Y-117940938D01*
X93564126Y-118083632D01*
X93757000Y-118196338D01*
X93965692Y-118276030D01*
X93970760Y-118277061D01*
X93970763Y-118277062D01*
X94078017Y-118298883D01*
X94184597Y-118320567D01*
X94189772Y-118320757D01*
X94189774Y-118320757D01*
X94402673Y-118328564D01*
X94402677Y-118328564D01*
X94407837Y-118328753D01*
X94412957Y-118328097D01*
X94412959Y-118328097D01*
X94624288Y-118301025D01*
X94624289Y-118301025D01*
X94629416Y-118300368D01*
X94634366Y-118298883D01*
X94838429Y-118237661D01*
X94838434Y-118237659D01*
X94843384Y-118236174D01*
X95043994Y-118137896D01*
X95225860Y-118008173D01*
X95384096Y-117850489D01*
X95443594Y-117767689D01*
X95514453Y-117669077D01*
X95515776Y-117670028D01*
X95562645Y-117626857D01*
X95632580Y-117614625D01*
X95698026Y-117642144D01*
X95725875Y-117673994D01*
X95785987Y-117772088D01*
X95932250Y-117940938D01*
X96104126Y-118083632D01*
X96297000Y-118196338D01*
X96505692Y-118276030D01*
X96510760Y-118277061D01*
X96510763Y-118277062D01*
X96618017Y-118298883D01*
X96724597Y-118320567D01*
X96729772Y-118320757D01*
X96729774Y-118320757D01*
X96942673Y-118328564D01*
X96942677Y-118328564D01*
X96947837Y-118328753D01*
X96952957Y-118328097D01*
X96952959Y-118328097D01*
X97164288Y-118301025D01*
X97164289Y-118301025D01*
X97169416Y-118300368D01*
X97174366Y-118298883D01*
X97378429Y-118237661D01*
X97378434Y-118237659D01*
X97383384Y-118236174D01*
X97583994Y-118137896D01*
X97765860Y-118008173D01*
X97833331Y-117940938D01*
X97874479Y-117899933D01*
X97936851Y-117866017D01*
X98007658Y-117871205D01*
X98064419Y-117913851D01*
X98081401Y-117944954D01*
X98122676Y-118055054D01*
X98131214Y-118070649D01*
X98207715Y-118172724D01*
X98220276Y-118185285D01*
X98322351Y-118261786D01*
X98337946Y-118270324D01*
X98458394Y-118315478D01*
X98473649Y-118319105D01*
X98524514Y-118324631D01*
X98531328Y-118325000D01*
X99153885Y-118325000D01*
X99169124Y-118320525D01*
X99170329Y-118319135D01*
X99172000Y-118311452D01*
X99172000Y-118306884D01*
X99680000Y-118306884D01*
X99684475Y-118322123D01*
X99685865Y-118323328D01*
X99693548Y-118324999D01*
X100320669Y-118324999D01*
X100327490Y-118324629D01*
X100378352Y-118319105D01*
X100393604Y-118315479D01*
X100514054Y-118270324D01*
X100529649Y-118261786D01*
X100631724Y-118185285D01*
X100644285Y-118172724D01*
X100720786Y-118070649D01*
X100729324Y-118055054D01*
X100774478Y-117934606D01*
X100778105Y-117919351D01*
X100783631Y-117868486D01*
X100784000Y-117861672D01*
X100784000Y-117239115D01*
X100779525Y-117223876D01*
X100778135Y-117222671D01*
X100770452Y-117221000D01*
X99698115Y-117221000D01*
X99682876Y-117225475D01*
X99681671Y-117226865D01*
X99680000Y-117234548D01*
X99680000Y-118306884D01*
X99172000Y-118306884D01*
X99172000Y-116694885D01*
X99680000Y-116694885D01*
X99684475Y-116710124D01*
X99685865Y-116711329D01*
X99693548Y-116713000D01*
X100123500Y-116713000D01*
X100191621Y-116733002D01*
X100238114Y-116786658D01*
X100249500Y-116839000D01*
X100249500Y-116876000D01*
X142066500Y-116876000D01*
X142066500Y-112994000D01*
X100249500Y-112994000D01*
X100249500Y-115483000D01*
X100229498Y-115551121D01*
X100175842Y-115597614D01*
X100123500Y-115609000D01*
X99698115Y-115609000D01*
X99682876Y-115613475D01*
X99681671Y-115614865D01*
X99680000Y-115622548D01*
X99680000Y-116694885D01*
X99172000Y-116694885D01*
X99172000Y-115627116D01*
X99167525Y-115611877D01*
X99166135Y-115610672D01*
X99158452Y-115609001D01*
X98531331Y-115609001D01*
X98524510Y-115609371D01*
X98473648Y-115614895D01*
X98458396Y-115618521D01*
X98337946Y-115663676D01*
X98322351Y-115672214D01*
X98220276Y-115748715D01*
X98207715Y-115761276D01*
X98131214Y-115863351D01*
X98122676Y-115878946D01*
X98081297Y-115989322D01*
X98038655Y-116046087D01*
X97972093Y-116070786D01*
X97902744Y-116055578D01*
X97870121Y-116029891D01*
X97819151Y-115973876D01*
X97819145Y-115973870D01*
X97815670Y-115970051D01*
X97811619Y-115966852D01*
X97811615Y-115966848D01*
X97644414Y-115834800D01*
X97644410Y-115834798D01*
X97640359Y-115831598D01*
X97635835Y-115829101D01*
X97635831Y-115829098D01*
X97584608Y-115800822D01*
X97534636Y-115750390D01*
X97519500Y-115690513D01*
X97519500Y-110438594D01*
X97539502Y-110370473D01*
X97556405Y-110349499D01*
X97918235Y-109987669D01*
X140628001Y-109987669D01*
X140628371Y-109994490D01*
X140633895Y-110045352D01*
X140637521Y-110060604D01*
X140682676Y-110181054D01*
X140691214Y-110196649D01*
X140767715Y-110298724D01*
X140780276Y-110311285D01*
X140882351Y-110387786D01*
X140897946Y-110396324D01*
X141018394Y-110441478D01*
X141033649Y-110445105D01*
X141084514Y-110450631D01*
X141091328Y-110451000D01*
X141713885Y-110451000D01*
X141729124Y-110446525D01*
X141730329Y-110445135D01*
X141732000Y-110437452D01*
X141732000Y-110432884D01*
X142240000Y-110432884D01*
X142244475Y-110448123D01*
X142245865Y-110449328D01*
X142253548Y-110450999D01*
X142880669Y-110450999D01*
X142887490Y-110450629D01*
X142938352Y-110445105D01*
X142953604Y-110441479D01*
X143074054Y-110396324D01*
X143089649Y-110387786D01*
X143191724Y-110311285D01*
X143204285Y-110298724D01*
X143280786Y-110196649D01*
X143289324Y-110181054D01*
X143334478Y-110060606D01*
X143338105Y-110045351D01*
X143343631Y-109994486D01*
X143344000Y-109987672D01*
X143344000Y-109365115D01*
X143339525Y-109349876D01*
X143338135Y-109348671D01*
X143330452Y-109347000D01*
X142258115Y-109347000D01*
X142242876Y-109351475D01*
X142241671Y-109352865D01*
X142240000Y-109360548D01*
X142240000Y-110432884D01*
X141732000Y-110432884D01*
X141732000Y-109365115D01*
X141727525Y-109349876D01*
X141726135Y-109348671D01*
X141718452Y-109347000D01*
X140646116Y-109347000D01*
X140630877Y-109351475D01*
X140629672Y-109352865D01*
X140628001Y-109360548D01*
X140628001Y-109987669D01*
X97918235Y-109987669D01*
X109383967Y-98521938D01*
X110738995Y-98521938D01*
X110752740Y-98731649D01*
X110804471Y-98935343D01*
X110806890Y-98940590D01*
X110890038Y-99120953D01*
X110890041Y-99120958D01*
X110892457Y-99126199D01*
X110895788Y-99130912D01*
X110895789Y-99130914D01*
X111007159Y-99288497D01*
X111013751Y-99297825D01*
X111164289Y-99444474D01*
X111169085Y-99447679D01*
X111169088Y-99447681D01*
X111239499Y-99494728D01*
X111339031Y-99561233D01*
X111344339Y-99563514D01*
X111344340Y-99563514D01*
X111526822Y-99641914D01*
X111526825Y-99641915D01*
X111532125Y-99644192D01*
X111537754Y-99645466D01*
X111537755Y-99645466D01*
X111731467Y-99689299D01*
X111731473Y-99689300D01*
X111737104Y-99690574D01*
X111742875Y-99690801D01*
X111742877Y-99690801D01*
X111806433Y-99693298D01*
X111947103Y-99698825D01*
X112155088Y-99668669D01*
X112160552Y-99666814D01*
X112160557Y-99666813D01*
X112348624Y-99602973D01*
X112348629Y-99602971D01*
X112354096Y-99601115D01*
X112382822Y-99585028D01*
X112489755Y-99525142D01*
X112537460Y-99498426D01*
X112540896Y-99495568D01*
X115912382Y-99495568D01*
X115912963Y-99500588D01*
X115912963Y-99500592D01*
X115915143Y-99519431D01*
X115941208Y-99744699D01*
X115942587Y-99749573D01*
X115942588Y-99749577D01*
X115981526Y-99887181D01*
X116009494Y-99986017D01*
X116011628Y-99990592D01*
X116011630Y-99990599D01*
X116113347Y-100208731D01*
X116115484Y-100213313D01*
X116118326Y-100217494D01*
X116118326Y-100217495D01*
X116253605Y-100416552D01*
X116253608Y-100416556D01*
X116256451Y-100420739D01*
X116259928Y-100424416D01*
X116259929Y-100424417D01*
X116360238Y-100530491D01*
X116428767Y-100602959D01*
X116432793Y-100606037D01*
X116432794Y-100606038D01*
X116623981Y-100752212D01*
X116623985Y-100752215D01*
X116628001Y-100755285D01*
X116632459Y-100757675D01*
X116632460Y-100757676D01*
X116753723Y-100822696D01*
X116849026Y-100873797D01*
X116853807Y-100875443D01*
X116853811Y-100875445D01*
X117073073Y-100950943D01*
X117086156Y-100955448D01*
X117189689Y-100973331D01*
X117329380Y-100997460D01*
X117329386Y-100997461D01*
X117333290Y-100998135D01*
X117337251Y-100998315D01*
X117337252Y-100998315D01*
X117361931Y-100999436D01*
X117361950Y-100999436D01*
X117363350Y-100999500D01*
X117538015Y-100999500D01*
X117540523Y-100999298D01*
X117540528Y-100999298D01*
X117719944Y-100984863D01*
X117719949Y-100984862D01*
X117724985Y-100984457D01*
X117729893Y-100983252D01*
X117729896Y-100983251D01*
X117963625Y-100925841D01*
X117968539Y-100924634D01*
X117973191Y-100922659D01*
X117973195Y-100922658D01*
X118194741Y-100828617D01*
X118194742Y-100828617D01*
X118199396Y-100826641D01*
X118411615Y-100693000D01*
X118599738Y-100527147D01*
X118758924Y-100333351D01*
X118885078Y-100116596D01*
X118974955Y-99882461D01*
X118976185Y-99876577D01*
X119025206Y-99641921D01*
X119026241Y-99636967D01*
X119027125Y-99617514D01*
X119032700Y-99494728D01*
X119037618Y-99386432D01*
X119035874Y-99371355D01*
X119009374Y-99142334D01*
X119008792Y-99137301D01*
X119005651Y-99126199D01*
X118941884Y-98900852D01*
X118941883Y-98900850D01*
X118940506Y-98895983D01*
X118938372Y-98891408D01*
X118938370Y-98891401D01*
X118836653Y-98673269D01*
X118836651Y-98673265D01*
X118834516Y-98668687D01*
X118798558Y-98615777D01*
X118696395Y-98465448D01*
X118696392Y-98465444D01*
X118693549Y-98461261D01*
X118594247Y-98356251D01*
X118524713Y-98282721D01*
X118521233Y-98279041D01*
X118517206Y-98275962D01*
X118326019Y-98129788D01*
X118326015Y-98129785D01*
X118321999Y-98126715D01*
X118295539Y-98112527D01*
X118130691Y-98024137D01*
X118100974Y-98008203D01*
X118096193Y-98006557D01*
X118096189Y-98006555D01*
X117868633Y-97928201D01*
X117863844Y-97926552D01*
X117757897Y-97908252D01*
X117620620Y-97884540D01*
X117620614Y-97884539D01*
X117616710Y-97883865D01*
X117612749Y-97883685D01*
X117612748Y-97883685D01*
X117588069Y-97882564D01*
X117588050Y-97882564D01*
X117586650Y-97882500D01*
X117411985Y-97882500D01*
X117409477Y-97882702D01*
X117409472Y-97882702D01*
X117230056Y-97897137D01*
X117230051Y-97897138D01*
X117225015Y-97897543D01*
X117220107Y-97898748D01*
X117220104Y-97898749D01*
X117003458Y-97951963D01*
X116981461Y-97957366D01*
X116976809Y-97959341D01*
X116976805Y-97959342D01*
X116778733Y-98043419D01*
X116750604Y-98055359D01*
X116651057Y-98118047D01*
X116552069Y-98180383D01*
X116538385Y-98189000D01*
X116350262Y-98354853D01*
X116191076Y-98548649D01*
X116064922Y-98765404D01*
X116063109Y-98770127D01*
X116063108Y-98770129D01*
X116043404Y-98821460D01*
X115975045Y-98999539D01*
X115974012Y-99004485D01*
X115974010Y-99004491D01*
X115947479Y-99131491D01*
X115923759Y-99245033D01*
X115923530Y-99250082D01*
X115923529Y-99250088D01*
X115920175Y-99323958D01*
X115912382Y-99495568D01*
X112540896Y-99495568D01*
X112699041Y-99364041D01*
X112833426Y-99202460D01*
X112917915Y-99051595D01*
X112933291Y-99024139D01*
X112933292Y-99024137D01*
X112936115Y-99019096D01*
X112937971Y-99013629D01*
X112937973Y-99013624D01*
X113001813Y-98825557D01*
X113001814Y-98825552D01*
X113003669Y-98820088D01*
X113033825Y-98612103D01*
X113035399Y-98552000D01*
X113016169Y-98342721D01*
X112959123Y-98140451D01*
X112866171Y-97951963D01*
X112847318Y-97926715D01*
X112743880Y-97788195D01*
X112743879Y-97788194D01*
X112740427Y-97783571D01*
X112708727Y-97754268D01*
X112590341Y-97644833D01*
X112590338Y-97644831D01*
X112586101Y-97640914D01*
X112408362Y-97528769D01*
X112213163Y-97450892D01*
X112207506Y-97449767D01*
X112207500Y-97449765D01*
X112012707Y-97411019D01*
X112012705Y-97411019D01*
X112007040Y-97409892D01*
X112001265Y-97409816D01*
X112001261Y-97409816D01*
X111896001Y-97408438D01*
X111796898Y-97407141D01*
X111791201Y-97408120D01*
X111791200Y-97408120D01*
X111595469Y-97441753D01*
X111589772Y-97442732D01*
X111392601Y-97515472D01*
X111387640Y-97518424D01*
X111387639Y-97518424D01*
X111255018Y-97597326D01*
X111211988Y-97622926D01*
X111053981Y-97761494D01*
X111050410Y-97766024D01*
X110938287Y-97908252D01*
X110923872Y-97926537D01*
X110921181Y-97931653D01*
X110921179Y-97931655D01*
X110828710Y-98107410D01*
X110826018Y-98112527D01*
X110763696Y-98313234D01*
X110738995Y-98521938D01*
X109383967Y-98521938D01*
X111796967Y-96108938D01*
X120771995Y-96108938D01*
X120785740Y-96318649D01*
X120837471Y-96522343D01*
X120839890Y-96527590D01*
X120923038Y-96707953D01*
X120923041Y-96707958D01*
X120925457Y-96713199D01*
X121046751Y-96884825D01*
X121197289Y-97031474D01*
X121202093Y-97034684D01*
X121230501Y-97053666D01*
X121276029Y-97108142D01*
X121286500Y-97158431D01*
X121286500Y-99235233D01*
X121285973Y-99246416D01*
X121284298Y-99253909D01*
X121284547Y-99261835D01*
X121284547Y-99261836D01*
X121286438Y-99321986D01*
X121286500Y-99325945D01*
X121286500Y-99353856D01*
X121286997Y-99357790D01*
X121286997Y-99357791D01*
X121287005Y-99357856D01*
X121287938Y-99369693D01*
X121289327Y-99413889D01*
X121294978Y-99433339D01*
X121298987Y-99452700D01*
X121301526Y-99472797D01*
X121304445Y-99480168D01*
X121304445Y-99480170D01*
X121317804Y-99513912D01*
X121321649Y-99525142D01*
X121333982Y-99567593D01*
X121338015Y-99574412D01*
X121338017Y-99574417D01*
X121344293Y-99585028D01*
X121352988Y-99602776D01*
X121360448Y-99621617D01*
X121365110Y-99628033D01*
X121365110Y-99628034D01*
X121386436Y-99657387D01*
X121392952Y-99667307D01*
X121411102Y-99697996D01*
X121415458Y-99705362D01*
X121429779Y-99719683D01*
X121442619Y-99734716D01*
X121454528Y-99751107D01*
X121488605Y-99779298D01*
X121497384Y-99787288D01*
X128211878Y-106501783D01*
X128245904Y-106564095D01*
X128248093Y-106577708D01*
X128263863Y-106727749D01*
X128265458Y-106742928D01*
X128324473Y-106924556D01*
X128327776Y-106930278D01*
X128327777Y-106930279D01*
X128348069Y-106965425D01*
X128419960Y-107089944D01*
X128424378Y-107094851D01*
X128424379Y-107094852D01*
X128493861Y-107172020D01*
X128547747Y-107231866D01*
X128585475Y-107259277D01*
X128689982Y-107335206D01*
X128702248Y-107344118D01*
X128708276Y-107346802D01*
X128708278Y-107346803D01*
X128856695Y-107412882D01*
X128876712Y-107421794D01*
X128970113Y-107441647D01*
X129057056Y-107460128D01*
X129057061Y-107460128D01*
X129063513Y-107461500D01*
X129254487Y-107461500D01*
X129260939Y-107460128D01*
X129260944Y-107460128D01*
X129347887Y-107441647D01*
X129441288Y-107421794D01*
X129461305Y-107412882D01*
X129609722Y-107346803D01*
X129609724Y-107346802D01*
X129615752Y-107344118D01*
X129628019Y-107335206D01*
X129732525Y-107259277D01*
X129770253Y-107231866D01*
X129824139Y-107172020D01*
X129893621Y-107094852D01*
X129893622Y-107094851D01*
X129898040Y-107089944D01*
X129969931Y-106965425D01*
X129990223Y-106930279D01*
X129990224Y-106930278D01*
X129993527Y-106924556D01*
X130052542Y-106742928D01*
X130054138Y-106727749D01*
X130071814Y-106559565D01*
X130072504Y-106553000D01*
X130069004Y-106519695D01*
X140623251Y-106519695D01*
X140623548Y-106524848D01*
X140623548Y-106524851D01*
X140629011Y-106619590D01*
X140636110Y-106742715D01*
X140637247Y-106747761D01*
X140637248Y-106747767D01*
X140657765Y-106838803D01*
X140685222Y-106960639D01*
X140769266Y-107167616D01*
X140771965Y-107172020D01*
X140879072Y-107346803D01*
X140885987Y-107358088D01*
X141032250Y-107526938D01*
X141036225Y-107530238D01*
X141036231Y-107530244D01*
X141041425Y-107534556D01*
X141081059Y-107593460D01*
X141082555Y-107664441D01*
X141045439Y-107724962D01*
X141005168Y-107749480D01*
X140897946Y-107789676D01*
X140882351Y-107798214D01*
X140780276Y-107874715D01*
X140767715Y-107887276D01*
X140691214Y-107989351D01*
X140682676Y-108004946D01*
X140637522Y-108125394D01*
X140633895Y-108140649D01*
X140628369Y-108191514D01*
X140628000Y-108198328D01*
X140628000Y-108820885D01*
X140632475Y-108836124D01*
X140633865Y-108837329D01*
X140641548Y-108839000D01*
X143325884Y-108839000D01*
X143341123Y-108834525D01*
X143342328Y-108833135D01*
X143343999Y-108825452D01*
X143343999Y-108198331D01*
X143343629Y-108191510D01*
X143338105Y-108140648D01*
X143334479Y-108125396D01*
X143289324Y-108004946D01*
X143280786Y-107989351D01*
X143204285Y-107887276D01*
X143191724Y-107874715D01*
X143089649Y-107798214D01*
X143074054Y-107789676D01*
X142963813Y-107748348D01*
X142907049Y-107705706D01*
X142882349Y-107639145D01*
X142897557Y-107569796D01*
X142919104Y-107541115D01*
X143020430Y-107440144D01*
X143020440Y-107440132D01*
X143024096Y-107436489D01*
X143033670Y-107423166D01*
X143151435Y-107259277D01*
X143154453Y-107255077D01*
X143164006Y-107235749D01*
X143251136Y-107059453D01*
X143251137Y-107059451D01*
X143253430Y-107054811D01*
X143318370Y-106841069D01*
X143347529Y-106619590D01*
X143348449Y-106581944D01*
X143349074Y-106556365D01*
X143349074Y-106556361D01*
X143349156Y-106553000D01*
X143330852Y-106330361D01*
X143276431Y-106113702D01*
X143187354Y-105908840D01*
X143147906Y-105847862D01*
X143068822Y-105725617D01*
X143068820Y-105725614D01*
X143066014Y-105721277D01*
X142915670Y-105556051D01*
X142911619Y-105552852D01*
X142911615Y-105552848D01*
X142744414Y-105420800D01*
X142744410Y-105420798D01*
X142740359Y-105417598D01*
X142544789Y-105309638D01*
X142539920Y-105307914D01*
X142539916Y-105307912D01*
X142339087Y-105236795D01*
X142339083Y-105236794D01*
X142334212Y-105235069D01*
X142329119Y-105234162D01*
X142329116Y-105234161D01*
X142119373Y-105196800D01*
X142119367Y-105196799D01*
X142114284Y-105195894D01*
X142040452Y-105194992D01*
X141896081Y-105193228D01*
X141896079Y-105193228D01*
X141890911Y-105193165D01*
X141670091Y-105226955D01*
X141457756Y-105296357D01*
X141259607Y-105399507D01*
X141255474Y-105402610D01*
X141255471Y-105402612D01*
X141115033Y-105508056D01*
X141080965Y-105533635D01*
X140926629Y-105695138D01*
X140800743Y-105879680D01*
X140785003Y-105913590D01*
X140727052Y-106038435D01*
X140706688Y-106082305D01*
X140646989Y-106297570D01*
X140623251Y-106519695D01*
X130069004Y-106519695D01*
X130052542Y-106363072D01*
X129993527Y-106181444D01*
X129898040Y-106016056D01*
X129801503Y-105908840D01*
X129774675Y-105879045D01*
X129774674Y-105879044D01*
X129770253Y-105874134D01*
X129615752Y-105761882D01*
X129609724Y-105759198D01*
X129609722Y-105759197D01*
X129447319Y-105686891D01*
X129447318Y-105686891D01*
X129441288Y-105684206D01*
X129347887Y-105664353D01*
X129260944Y-105645872D01*
X129260939Y-105645872D01*
X129254487Y-105644500D01*
X129198594Y-105644500D01*
X129130473Y-105624498D01*
X129109499Y-105607595D01*
X123124473Y-99622568D01*
X132168382Y-99622568D01*
X132168963Y-99627588D01*
X132168963Y-99627592D01*
X132173716Y-99668669D01*
X132197208Y-99871699D01*
X132198587Y-99876573D01*
X132198588Y-99876577D01*
X132237526Y-100014181D01*
X132265494Y-100113017D01*
X132267628Y-100117592D01*
X132267630Y-100117599D01*
X132369347Y-100335731D01*
X132371484Y-100340313D01*
X132374326Y-100344494D01*
X132374326Y-100344495D01*
X132509605Y-100543552D01*
X132509608Y-100543556D01*
X132512451Y-100547739D01*
X132515928Y-100551416D01*
X132515929Y-100551417D01*
X132616238Y-100657491D01*
X132684767Y-100729959D01*
X132688793Y-100733037D01*
X132688794Y-100733038D01*
X132879981Y-100879212D01*
X132879985Y-100879215D01*
X132884001Y-100882285D01*
X133105026Y-101000797D01*
X133109807Y-101002443D01*
X133109811Y-101002445D01*
X133335538Y-101080169D01*
X133342156Y-101082448D01*
X133445689Y-101100331D01*
X133585380Y-101124460D01*
X133585386Y-101124461D01*
X133589290Y-101125135D01*
X133593251Y-101125315D01*
X133593252Y-101125315D01*
X133617931Y-101126436D01*
X133617950Y-101126436D01*
X133619350Y-101126500D01*
X133794015Y-101126500D01*
X133796523Y-101126298D01*
X133796528Y-101126298D01*
X133975944Y-101111863D01*
X133975949Y-101111862D01*
X133980985Y-101111457D01*
X133985893Y-101110252D01*
X133985896Y-101110251D01*
X134219625Y-101052841D01*
X134224539Y-101051634D01*
X134229191Y-101049659D01*
X134229195Y-101049658D01*
X134450741Y-100955617D01*
X134450742Y-100955617D01*
X134455396Y-100953641D01*
X134593812Y-100866476D01*
X134663334Y-100822696D01*
X134663335Y-100822695D01*
X134667615Y-100820000D01*
X134855738Y-100654147D01*
X135014924Y-100460351D01*
X135141078Y-100243596D01*
X135151098Y-100217495D01*
X135229143Y-100014181D01*
X135230955Y-100009461D01*
X135234896Y-99990599D01*
X135281206Y-99768921D01*
X135282241Y-99763967D01*
X135282895Y-99749577D01*
X135288705Y-99621617D01*
X135293618Y-99513432D01*
X135292133Y-99500592D01*
X135276684Y-99367079D01*
X135264792Y-99264301D01*
X135261852Y-99253909D01*
X135197884Y-99027852D01*
X135197883Y-99027850D01*
X135196506Y-99022983D01*
X135194372Y-99018408D01*
X135194370Y-99018401D01*
X135092653Y-98800269D01*
X135092651Y-98800265D01*
X135090516Y-98795687D01*
X135037056Y-98717023D01*
X134952395Y-98592448D01*
X134952392Y-98592444D01*
X134949549Y-98588261D01*
X134887794Y-98522956D01*
X134780713Y-98409721D01*
X134777233Y-98406041D01*
X134773206Y-98402962D01*
X134582019Y-98256788D01*
X134582015Y-98256785D01*
X134577999Y-98253715D01*
X134457306Y-98189000D01*
X134367670Y-98140938D01*
X134356974Y-98135203D01*
X134352193Y-98133557D01*
X134352189Y-98133555D01*
X134124633Y-98055201D01*
X134119844Y-98053552D01*
X134016311Y-98035669D01*
X133876620Y-98011540D01*
X133876614Y-98011539D01*
X133872710Y-98010865D01*
X133868749Y-98010685D01*
X133868748Y-98010685D01*
X133844069Y-98009564D01*
X133844050Y-98009564D01*
X133842650Y-98009500D01*
X133667985Y-98009500D01*
X133665477Y-98009702D01*
X133665472Y-98009702D01*
X133486056Y-98024137D01*
X133486051Y-98024138D01*
X133481015Y-98024543D01*
X133476107Y-98025748D01*
X133476104Y-98025749D01*
X133344571Y-98058057D01*
X133237461Y-98084366D01*
X133232809Y-98086341D01*
X133232805Y-98086342D01*
X133042069Y-98167305D01*
X133006604Y-98182359D01*
X132794385Y-98316000D01*
X132606262Y-98481853D01*
X132447076Y-98675649D01*
X132320922Y-98892404D01*
X132319109Y-98897127D01*
X132319108Y-98897129D01*
X132310001Y-98920854D01*
X132231045Y-99126539D01*
X132230012Y-99131485D01*
X132230010Y-99131491D01*
X132195262Y-99297825D01*
X132179759Y-99372033D01*
X132179530Y-99377082D01*
X132179529Y-99377088D01*
X132176469Y-99444474D01*
X132168382Y-99622568D01*
X123124473Y-99622568D01*
X122590405Y-99088500D01*
X122556379Y-99026188D01*
X122553500Y-98999405D01*
X122553500Y-98140938D01*
X125978995Y-98140938D01*
X125992740Y-98350649D01*
X126044471Y-98554343D01*
X126046890Y-98559590D01*
X126130038Y-98739953D01*
X126130041Y-98739958D01*
X126132457Y-98745199D01*
X126135788Y-98749912D01*
X126135789Y-98749914D01*
X126250416Y-98912106D01*
X126253751Y-98916825D01*
X126404289Y-99063474D01*
X126409085Y-99066679D01*
X126409088Y-99066681D01*
X126507478Y-99132423D01*
X126579031Y-99180233D01*
X126584339Y-99182514D01*
X126584340Y-99182514D01*
X126766822Y-99260914D01*
X126766825Y-99260915D01*
X126772125Y-99263192D01*
X126777754Y-99264466D01*
X126777755Y-99264466D01*
X126971467Y-99308299D01*
X126971473Y-99308300D01*
X126977104Y-99309574D01*
X126982875Y-99309801D01*
X126982877Y-99309801D01*
X127046433Y-99312298D01*
X127187103Y-99317825D01*
X127395088Y-99287669D01*
X127400552Y-99285814D01*
X127400557Y-99285813D01*
X127588624Y-99221973D01*
X127588629Y-99221971D01*
X127594096Y-99220115D01*
X127617683Y-99206906D01*
X127671042Y-99177023D01*
X127777460Y-99117426D01*
X127939041Y-98983041D01*
X128073426Y-98821460D01*
X128176115Y-98638096D01*
X128177971Y-98632629D01*
X128177973Y-98632624D01*
X128241813Y-98444557D01*
X128241814Y-98444552D01*
X128243669Y-98439088D01*
X128273825Y-98231103D01*
X128275399Y-98171000D01*
X128256169Y-97961721D01*
X128246716Y-97928201D01*
X128207321Y-97788519D01*
X128199123Y-97759451D01*
X128106171Y-97570963D01*
X128094595Y-97555460D01*
X127983880Y-97407195D01*
X127983879Y-97407194D01*
X127980427Y-97402571D01*
X127826101Y-97259914D01*
X127648362Y-97147769D01*
X127453163Y-97069892D01*
X127447506Y-97068767D01*
X127447500Y-97068765D01*
X127252707Y-97030019D01*
X127252705Y-97030019D01*
X127247040Y-97028892D01*
X127241265Y-97028816D01*
X127241261Y-97028816D01*
X127136001Y-97027438D01*
X127036898Y-97026141D01*
X127031201Y-97027120D01*
X127031200Y-97027120D01*
X126885739Y-97052115D01*
X126829772Y-97061732D01*
X126632601Y-97134472D01*
X126627640Y-97137424D01*
X126627639Y-97137424D01*
X126613845Y-97145631D01*
X126451988Y-97241926D01*
X126293981Y-97380494D01*
X126163872Y-97545537D01*
X126161181Y-97550653D01*
X126161179Y-97550655D01*
X126121151Y-97626736D01*
X126066018Y-97731527D01*
X126003696Y-97932234D01*
X126003017Y-97937969D01*
X126003017Y-97937970D01*
X126000488Y-97959342D01*
X125978995Y-98140938D01*
X122553500Y-98140938D01*
X122553500Y-97158621D01*
X122573502Y-97090500D01*
X122598931Y-97061747D01*
X122727603Y-96954732D01*
X122732041Y-96951041D01*
X122866426Y-96789460D01*
X122969115Y-96606096D01*
X122970971Y-96600629D01*
X122970973Y-96600624D01*
X123034813Y-96412557D01*
X123034814Y-96412552D01*
X123036669Y-96407088D01*
X123066825Y-96199103D01*
X123068399Y-96139000D01*
X123049169Y-95929721D01*
X122992123Y-95727451D01*
X122899171Y-95538963D01*
X122773427Y-95370571D01*
X122655787Y-95261826D01*
X122623341Y-95231833D01*
X122623338Y-95231831D01*
X122619101Y-95227914D01*
X122441362Y-95115769D01*
X122246163Y-95037892D01*
X122240506Y-95036767D01*
X122240500Y-95036765D01*
X122045707Y-94998019D01*
X122045705Y-94998019D01*
X122040040Y-94996892D01*
X122034265Y-94996816D01*
X122034261Y-94996816D01*
X121929001Y-94995438D01*
X121829898Y-94994141D01*
X121824201Y-94995120D01*
X121824200Y-94995120D01*
X121642797Y-95026291D01*
X121622772Y-95029732D01*
X121425601Y-95102472D01*
X121420640Y-95105424D01*
X121420639Y-95105424D01*
X121388754Y-95124394D01*
X121244988Y-95209926D01*
X121086981Y-95348494D01*
X121083410Y-95353024D01*
X120972256Y-95494023D01*
X120956872Y-95513537D01*
X120954181Y-95518653D01*
X120954179Y-95518655D01*
X120893179Y-95634598D01*
X120859018Y-95699527D01*
X120796696Y-95900234D01*
X120771995Y-96108938D01*
X111796967Y-96108938D01*
X114336967Y-93568938D01*
X123057995Y-93568938D01*
X123071740Y-93778649D01*
X123123471Y-93982343D01*
X123125890Y-93987590D01*
X123209038Y-94167953D01*
X123209041Y-94167958D01*
X123211457Y-94173199D01*
X123214788Y-94177912D01*
X123214789Y-94177914D01*
X123328263Y-94338474D01*
X123332751Y-94344825D01*
X123483289Y-94491474D01*
X123488085Y-94494679D01*
X123488088Y-94494681D01*
X123619802Y-94582689D01*
X123658031Y-94608233D01*
X123663339Y-94610514D01*
X123663340Y-94610514D01*
X123845822Y-94688914D01*
X123845825Y-94688915D01*
X123851125Y-94691192D01*
X123856754Y-94692466D01*
X123856755Y-94692466D01*
X124050467Y-94736299D01*
X124050473Y-94736300D01*
X124056104Y-94737574D01*
X124061875Y-94737801D01*
X124061877Y-94737801D01*
X124125433Y-94740298D01*
X124266103Y-94745825D01*
X124474088Y-94715669D01*
X124479552Y-94713814D01*
X124479557Y-94713813D01*
X124667624Y-94649973D01*
X124667629Y-94649971D01*
X124673096Y-94648115D01*
X124696683Y-94634906D01*
X124845119Y-94551777D01*
X124856460Y-94545426D01*
X125018041Y-94411041D01*
X125152426Y-94249460D01*
X125242288Y-94089000D01*
X125252291Y-94071139D01*
X125252292Y-94071137D01*
X125255115Y-94066096D01*
X125256971Y-94060629D01*
X125256973Y-94060624D01*
X125320813Y-93872557D01*
X125320814Y-93872552D01*
X125322669Y-93867088D01*
X125352825Y-93659103D01*
X125354399Y-93599000D01*
X125335169Y-93389721D01*
X125315795Y-93321024D01*
X125297887Y-93257529D01*
X125278123Y-93187451D01*
X125185171Y-92998963D01*
X125065736Y-92839019D01*
X125062880Y-92835195D01*
X125062879Y-92835194D01*
X125059427Y-92830571D01*
X125035544Y-92808494D01*
X124909341Y-92691833D01*
X124909338Y-92691831D01*
X124905101Y-92687914D01*
X124861700Y-92660530D01*
X129445830Y-92660530D01*
X129455710Y-92673017D01*
X129495472Y-92699585D01*
X129505575Y-92705071D01*
X129687973Y-92783435D01*
X129698916Y-92786990D01*
X129892533Y-92830802D01*
X129903942Y-92832304D01*
X130102308Y-92840097D01*
X130113790Y-92839495D01*
X130310250Y-92811011D01*
X130321445Y-92808323D01*
X130450342Y-92764568D01*
X133438382Y-92764568D01*
X133438963Y-92769588D01*
X133438963Y-92769592D01*
X133447121Y-92840097D01*
X133467208Y-93013699D01*
X133468587Y-93018573D01*
X133468588Y-93018577D01*
X133534116Y-93250148D01*
X133535494Y-93255017D01*
X133537628Y-93259592D01*
X133537630Y-93259599D01*
X133639347Y-93477731D01*
X133641484Y-93482313D01*
X133644326Y-93486494D01*
X133644326Y-93486495D01*
X133779605Y-93685552D01*
X133779608Y-93685556D01*
X133782451Y-93689739D01*
X133785928Y-93693416D01*
X133785929Y-93693417D01*
X133815034Y-93724195D01*
X133954767Y-93871959D01*
X133958793Y-93875037D01*
X133958794Y-93875038D01*
X134149981Y-94021212D01*
X134149985Y-94021215D01*
X134154001Y-94024285D01*
X134158459Y-94026675D01*
X134158460Y-94026676D01*
X134277904Y-94090721D01*
X134375026Y-94142797D01*
X134379807Y-94144443D01*
X134379811Y-94144445D01*
X134594080Y-94218224D01*
X134612156Y-94224448D01*
X134715689Y-94242331D01*
X134855380Y-94266460D01*
X134855386Y-94266461D01*
X134859290Y-94267135D01*
X134863251Y-94267315D01*
X134863252Y-94267315D01*
X134887931Y-94268436D01*
X134887950Y-94268436D01*
X134889350Y-94268500D01*
X135064015Y-94268500D01*
X135066523Y-94268298D01*
X135066528Y-94268298D01*
X135245944Y-94253863D01*
X135245949Y-94253862D01*
X135250985Y-94253457D01*
X135255893Y-94252252D01*
X135255896Y-94252251D01*
X135489625Y-94194841D01*
X135494539Y-94193634D01*
X135499191Y-94191659D01*
X135499195Y-94191658D01*
X135720735Y-94097620D01*
X135720740Y-94097617D01*
X135725396Y-94095641D01*
X135729684Y-94092940D01*
X135733929Y-94090721D01*
X135803564Y-94076884D01*
X135869626Y-94102890D01*
X135911141Y-94160484D01*
X135914927Y-94231380D01*
X135912644Y-94239739D01*
X135909696Y-94249234D01*
X135909017Y-94254969D01*
X135909017Y-94254970D01*
X135901103Y-94321841D01*
X135884995Y-94457938D01*
X135898740Y-94667649D01*
X135950471Y-94871343D01*
X135952890Y-94876590D01*
X136036038Y-95056953D01*
X136036041Y-95056958D01*
X136038457Y-95062199D01*
X136041788Y-95066912D01*
X136041789Y-95066914D01*
X136142861Y-95209926D01*
X136159751Y-95233825D01*
X136310289Y-95380474D01*
X136315085Y-95383679D01*
X136315088Y-95383681D01*
X136457106Y-95478574D01*
X136485031Y-95497233D01*
X136490339Y-95499514D01*
X136490340Y-95499514D01*
X136672822Y-95577914D01*
X136672825Y-95577915D01*
X136678125Y-95580192D01*
X136683754Y-95581466D01*
X136683755Y-95581466D01*
X136877467Y-95625299D01*
X136877473Y-95625300D01*
X136883104Y-95626574D01*
X136888875Y-95626801D01*
X136888877Y-95626801D01*
X136952433Y-95629298D01*
X137093103Y-95634825D01*
X137301088Y-95604669D01*
X137306552Y-95602814D01*
X137306557Y-95602813D01*
X137494624Y-95538973D01*
X137494629Y-95538971D01*
X137500096Y-95537115D01*
X137542198Y-95513537D01*
X137672119Y-95440777D01*
X137683460Y-95434426D01*
X137845041Y-95300041D01*
X137979426Y-95138460D01*
X138058751Y-94996816D01*
X138079291Y-94960139D01*
X138079292Y-94960137D01*
X138082115Y-94955096D01*
X138083971Y-94949629D01*
X138083973Y-94949624D01*
X138147813Y-94761557D01*
X138147814Y-94761552D01*
X138149669Y-94756088D01*
X138179825Y-94548103D01*
X138181399Y-94488000D01*
X138162169Y-94278721D01*
X138159287Y-94268500D01*
X138123160Y-94140405D01*
X138105123Y-94076451D01*
X138012171Y-93887963D01*
X138002520Y-93875038D01*
X137889880Y-93724195D01*
X137889879Y-93724194D01*
X137886427Y-93719571D01*
X137854155Y-93689739D01*
X137736341Y-93580833D01*
X137736338Y-93580831D01*
X137732101Y-93576914D01*
X137554362Y-93464769D01*
X137359163Y-93386892D01*
X137353506Y-93385767D01*
X137353500Y-93385765D01*
X137158707Y-93347019D01*
X137158705Y-93347019D01*
X137153040Y-93345892D01*
X137147265Y-93345816D01*
X137147261Y-93345816D01*
X137042001Y-93344438D01*
X136942898Y-93343141D01*
X136937201Y-93344120D01*
X136937200Y-93344120D01*
X136755535Y-93375336D01*
X136735772Y-93378732D01*
X136690380Y-93395478D01*
X136621481Y-93420896D01*
X136550647Y-93425708D01*
X136488457Y-93391461D01*
X136454655Y-93329027D01*
X136460239Y-93257529D01*
X136499143Y-93156181D01*
X136500955Y-93151461D01*
X136502185Y-93145577D01*
X136551206Y-92910921D01*
X136552241Y-92905967D01*
X136553125Y-92886514D01*
X136558770Y-92762187D01*
X136563618Y-92655432D01*
X136560398Y-92627597D01*
X136540776Y-92458019D01*
X136534792Y-92406301D01*
X136532310Y-92397527D01*
X136467884Y-92169852D01*
X136467883Y-92169850D01*
X136466506Y-92164983D01*
X136464372Y-92160408D01*
X136464370Y-92160401D01*
X136362653Y-91942269D01*
X136362651Y-91942265D01*
X136360516Y-91937687D01*
X136342880Y-91911736D01*
X136222395Y-91734448D01*
X136222392Y-91734444D01*
X136219549Y-91730261D01*
X136197375Y-91706812D01*
X136050713Y-91551721D01*
X136047233Y-91548041D01*
X136043206Y-91544962D01*
X135852019Y-91398788D01*
X135852015Y-91398785D01*
X135847999Y-91395715D01*
X135626974Y-91277203D01*
X135622193Y-91275557D01*
X135622189Y-91275555D01*
X135394633Y-91197201D01*
X135389844Y-91195552D01*
X135276782Y-91176023D01*
X135146620Y-91153540D01*
X135146614Y-91153539D01*
X135142710Y-91152865D01*
X135138749Y-91152685D01*
X135138748Y-91152685D01*
X135114069Y-91151564D01*
X135114050Y-91151564D01*
X135112650Y-91151500D01*
X134937985Y-91151500D01*
X134935477Y-91151702D01*
X134935472Y-91151702D01*
X134756056Y-91166137D01*
X134756051Y-91166138D01*
X134751015Y-91166543D01*
X134746107Y-91167748D01*
X134746104Y-91167749D01*
X134529417Y-91220973D01*
X134507461Y-91226366D01*
X134502809Y-91228341D01*
X134502805Y-91228342D01*
X134326868Y-91303023D01*
X134276604Y-91324359D01*
X134272320Y-91327057D01*
X134078069Y-91449383D01*
X134064385Y-91458000D01*
X133876262Y-91623853D01*
X133717076Y-91817649D01*
X133590922Y-92034404D01*
X133589109Y-92039127D01*
X133589108Y-92039129D01*
X133579297Y-92064687D01*
X133501045Y-92268539D01*
X133500012Y-92273485D01*
X133500010Y-92273491D01*
X133474098Y-92397527D01*
X133449759Y-92514033D01*
X133449530Y-92519082D01*
X133449529Y-92519088D01*
X133446461Y-92586653D01*
X133438382Y-92764568D01*
X130450342Y-92764568D01*
X130509424Y-92744512D01*
X130519931Y-92739834D01*
X130641745Y-92671614D01*
X130651610Y-92661536D01*
X130648654Y-92653864D01*
X130060812Y-92066022D01*
X130046868Y-92058408D01*
X130045035Y-92058539D01*
X130038420Y-92062790D01*
X129452027Y-92649183D01*
X129445830Y-92660530D01*
X124861700Y-92660530D01*
X124727362Y-92575769D01*
X124532163Y-92497892D01*
X124526506Y-92496767D01*
X124526500Y-92496765D01*
X124331707Y-92458019D01*
X124331705Y-92458019D01*
X124326040Y-92456892D01*
X124320265Y-92456816D01*
X124320261Y-92456816D01*
X124215001Y-92455438D01*
X124115898Y-92454141D01*
X124110201Y-92455120D01*
X124110200Y-92455120D01*
X123928797Y-92486291D01*
X123908772Y-92489732D01*
X123711601Y-92562472D01*
X123706640Y-92565424D01*
X123706639Y-92565424D01*
X123557986Y-92653864D01*
X123530988Y-92669926D01*
X123372981Y-92808494D01*
X123349806Y-92837892D01*
X123248799Y-92966019D01*
X123242872Y-92973537D01*
X123240181Y-92978653D01*
X123240179Y-92978655D01*
X123219175Y-93018577D01*
X123145018Y-93159527D01*
X123082696Y-93360234D01*
X123082017Y-93365969D01*
X123082017Y-93365970D01*
X123079541Y-93386892D01*
X123057995Y-93568938D01*
X114336967Y-93568938D01*
X116236187Y-91669718D01*
X128900874Y-91669718D01*
X128913858Y-91867803D01*
X128915659Y-91879173D01*
X128964523Y-92071576D01*
X128968364Y-92082423D01*
X129051475Y-92262705D01*
X129057223Y-92272661D01*
X129068675Y-92288867D01*
X129079263Y-92297254D01*
X129092564Y-92290226D01*
X129675978Y-91706812D01*
X129682356Y-91695132D01*
X130412408Y-91695132D01*
X130412539Y-91696965D01*
X130416790Y-91703580D01*
X131003950Y-92290740D01*
X131016330Y-92297500D01*
X131022910Y-92292574D01*
X131093834Y-92165931D01*
X131098512Y-92155424D01*
X131162323Y-91967445D01*
X131165011Y-91956250D01*
X131193791Y-91757750D01*
X131194421Y-91750367D01*
X131195800Y-91697704D01*
X131195557Y-91690305D01*
X131177204Y-91490566D01*
X131175107Y-91479251D01*
X131121222Y-91288190D01*
X131117100Y-91277451D01*
X131029299Y-91099409D01*
X131027192Y-91095970D01*
X131017876Y-91088980D01*
X131005459Y-91095751D01*
X130420022Y-91681188D01*
X130412408Y-91695132D01*
X129682356Y-91695132D01*
X129683592Y-91692868D01*
X129683461Y-91691035D01*
X129679210Y-91684420D01*
X129090626Y-91095836D01*
X129078246Y-91089076D01*
X129072280Y-91093542D01*
X128990173Y-91249602D01*
X128985768Y-91260236D01*
X128926900Y-91449822D01*
X128924508Y-91461076D01*
X128901175Y-91658217D01*
X128900874Y-91669718D01*
X116236187Y-91669718D01*
X116597253Y-91308652D01*
X116605539Y-91301112D01*
X116612018Y-91297000D01*
X116630609Y-91277203D01*
X116658643Y-91247349D01*
X116661398Y-91244507D01*
X116681135Y-91224770D01*
X116683615Y-91221573D01*
X116691320Y-91212551D01*
X116707283Y-91195552D01*
X116721586Y-91180321D01*
X116725405Y-91173375D01*
X116725407Y-91173372D01*
X116731348Y-91162566D01*
X116742199Y-91146047D01*
X116749758Y-91136301D01*
X116754614Y-91130041D01*
X116757759Y-91122772D01*
X116757762Y-91122768D01*
X116772174Y-91089463D01*
X116777391Y-91078813D01*
X116798695Y-91040060D01*
X116803733Y-91020437D01*
X116810137Y-91001734D01*
X116815033Y-90990420D01*
X116815033Y-90990419D01*
X116818181Y-90983145D01*
X116819420Y-90975322D01*
X116819423Y-90975312D01*
X116825099Y-90939476D01*
X116827505Y-90927856D01*
X116836528Y-90892711D01*
X116836528Y-90892710D01*
X116838500Y-90885030D01*
X116838500Y-90864776D01*
X116840051Y-90845065D01*
X116841980Y-90832886D01*
X116843220Y-90825057D01*
X116839059Y-90781038D01*
X116838500Y-90769181D01*
X116838500Y-90139938D01*
X121406995Y-90139938D01*
X121420740Y-90349649D01*
X121472471Y-90553343D01*
X121474890Y-90558590D01*
X121558038Y-90738953D01*
X121558041Y-90738958D01*
X121560457Y-90744199D01*
X121563788Y-90748912D01*
X121563789Y-90748914D01*
X121665416Y-90892711D01*
X121681751Y-90915825D01*
X121832289Y-91062474D01*
X121837085Y-91065679D01*
X121837088Y-91065681D01*
X121968579Y-91153540D01*
X122007031Y-91179233D01*
X122012339Y-91181514D01*
X122012340Y-91181514D01*
X122194822Y-91259914D01*
X122194825Y-91259915D01*
X122200125Y-91262192D01*
X122205754Y-91263466D01*
X122205755Y-91263466D01*
X122399467Y-91307299D01*
X122399473Y-91307300D01*
X122405104Y-91308574D01*
X122410875Y-91308801D01*
X122410877Y-91308801D01*
X122474433Y-91311298D01*
X122615103Y-91316825D01*
X122823088Y-91286669D01*
X122828552Y-91284814D01*
X122828557Y-91284813D01*
X123016624Y-91220973D01*
X123016629Y-91220971D01*
X123022096Y-91219115D01*
X123205460Y-91116426D01*
X123367041Y-90982041D01*
X123501426Y-90820460D01*
X123553688Y-90727139D01*
X129445251Y-90727139D01*
X129448738Y-90735528D01*
X130035188Y-91321978D01*
X130049132Y-91329592D01*
X130050965Y-91329461D01*
X130057580Y-91325210D01*
X130643657Y-90739133D01*
X130650417Y-90726753D01*
X130644387Y-90718698D01*
X130574020Y-90674299D01*
X130563769Y-90669076D01*
X130379389Y-90595516D01*
X130368352Y-90592247D01*
X130173654Y-90553518D01*
X130162210Y-90552315D01*
X129963719Y-90549718D01*
X129952239Y-90550621D01*
X129756599Y-90584238D01*
X129745479Y-90587218D01*
X129559234Y-90655927D01*
X129548856Y-90660877D01*
X129454849Y-90716806D01*
X129445251Y-90727139D01*
X123553688Y-90727139D01*
X123576957Y-90685590D01*
X123601291Y-90642139D01*
X123601292Y-90642137D01*
X123604115Y-90637096D01*
X123605971Y-90631629D01*
X123605973Y-90631624D01*
X123669813Y-90443557D01*
X123669814Y-90443552D01*
X123671669Y-90438088D01*
X123701825Y-90230103D01*
X123703399Y-90170000D01*
X123684169Y-89960721D01*
X123627123Y-89758451D01*
X123534171Y-89569963D01*
X123492465Y-89514111D01*
X123411880Y-89406195D01*
X123411879Y-89406194D01*
X123408427Y-89401571D01*
X123395729Y-89389833D01*
X123258341Y-89262833D01*
X123258338Y-89262831D01*
X123254101Y-89258914D01*
X123076362Y-89146769D01*
X122881163Y-89068892D01*
X122875506Y-89067767D01*
X122875500Y-89067765D01*
X122680707Y-89029019D01*
X122680705Y-89029019D01*
X122675040Y-89027892D01*
X122669265Y-89027816D01*
X122669261Y-89027816D01*
X122564001Y-89026438D01*
X122464898Y-89025141D01*
X122459201Y-89026120D01*
X122459200Y-89026120D01*
X122340265Y-89046557D01*
X122257772Y-89060732D01*
X122060601Y-89133472D01*
X122055640Y-89136424D01*
X122055639Y-89136424D01*
X121890581Y-89234624D01*
X121879988Y-89240926D01*
X121721981Y-89379494D01*
X121707664Y-89397655D01*
X121604459Y-89528571D01*
X121591872Y-89544537D01*
X121589181Y-89549653D01*
X121589179Y-89549655D01*
X121498372Y-89722252D01*
X121494018Y-89730527D01*
X121431696Y-89931234D01*
X121406995Y-90139938D01*
X116838500Y-90139938D01*
X116838500Y-88742938D01*
X128772995Y-88742938D01*
X128786740Y-88952649D01*
X128838471Y-89156343D01*
X128840890Y-89161590D01*
X128924038Y-89341953D01*
X128924041Y-89341958D01*
X128926457Y-89347199D01*
X128929788Y-89351912D01*
X128929789Y-89351914D01*
X129042238Y-89511024D01*
X129047751Y-89518825D01*
X129198289Y-89665474D01*
X129203085Y-89668679D01*
X129203088Y-89668681D01*
X129303909Y-89736047D01*
X129373031Y-89782233D01*
X129378339Y-89784514D01*
X129378340Y-89784514D01*
X129560822Y-89862914D01*
X129560825Y-89862915D01*
X129566125Y-89865192D01*
X129571754Y-89866466D01*
X129571755Y-89866466D01*
X129765467Y-89910299D01*
X129765473Y-89910300D01*
X129771104Y-89911574D01*
X129776875Y-89911801D01*
X129776877Y-89911801D01*
X129840433Y-89914298D01*
X129981103Y-89919825D01*
X130189088Y-89889669D01*
X130194552Y-89887814D01*
X130194557Y-89887813D01*
X130382624Y-89823973D01*
X130382629Y-89823971D01*
X130388096Y-89822115D01*
X130571460Y-89719426D01*
X130733041Y-89585041D01*
X130867426Y-89423460D01*
X130958704Y-89260472D01*
X130967291Y-89245139D01*
X130967292Y-89245137D01*
X130970115Y-89240096D01*
X130971971Y-89234629D01*
X130971973Y-89234624D01*
X131035813Y-89046557D01*
X131035814Y-89046552D01*
X131037669Y-89041088D01*
X131067825Y-88833103D01*
X131069399Y-88773000D01*
X131050169Y-88563721D01*
X130993123Y-88361451D01*
X130900171Y-88172963D01*
X130858465Y-88117111D01*
X130777880Y-88009195D01*
X130777879Y-88009194D01*
X130774427Y-88004571D01*
X130750544Y-87982494D01*
X130624341Y-87865833D01*
X130624338Y-87865831D01*
X130620101Y-87861914D01*
X130442362Y-87749769D01*
X130247163Y-87671892D01*
X130241506Y-87670767D01*
X130241500Y-87670765D01*
X130046707Y-87632019D01*
X130046705Y-87632019D01*
X130041040Y-87630892D01*
X130035265Y-87630816D01*
X130035261Y-87630816D01*
X129930001Y-87629438D01*
X129830898Y-87628141D01*
X129825201Y-87629120D01*
X129825200Y-87629120D01*
X129629469Y-87662753D01*
X129623772Y-87663732D01*
X129426601Y-87736472D01*
X129421640Y-87739424D01*
X129421639Y-87739424D01*
X129256581Y-87837624D01*
X129245988Y-87843926D01*
X129087981Y-87982494D01*
X129074339Y-87999799D01*
X128962686Y-88141431D01*
X128957872Y-88147537D01*
X128955181Y-88152653D01*
X128955179Y-88152655D01*
X128864372Y-88325252D01*
X128860018Y-88333527D01*
X128797696Y-88534234D01*
X128772995Y-88742938D01*
X116838500Y-88742938D01*
X116838500Y-88395621D01*
X116858502Y-88327500D01*
X116883931Y-88298747D01*
X117012603Y-88191732D01*
X117017041Y-88188041D01*
X117151426Y-88026460D01*
X117222651Y-87899279D01*
X117251291Y-87848139D01*
X117251292Y-87848137D01*
X117254115Y-87843096D01*
X117255971Y-87837629D01*
X117255973Y-87837624D01*
X117257023Y-87834530D01*
X118015830Y-87834530D01*
X118025710Y-87847017D01*
X118065472Y-87873585D01*
X118075575Y-87879071D01*
X118257973Y-87957435D01*
X118268916Y-87960990D01*
X118462533Y-88004802D01*
X118473942Y-88006304D01*
X118672308Y-88014097D01*
X118683790Y-88013495D01*
X118880250Y-87985011D01*
X118891445Y-87982323D01*
X119079424Y-87918512D01*
X119089931Y-87913834D01*
X119211745Y-87845614D01*
X119221610Y-87835536D01*
X119218654Y-87827864D01*
X118630812Y-87240022D01*
X118616868Y-87232408D01*
X118615035Y-87232539D01*
X118608420Y-87236790D01*
X118022027Y-87823183D01*
X118015830Y-87834530D01*
X117257023Y-87834530D01*
X117319813Y-87649557D01*
X117319814Y-87649552D01*
X117321669Y-87644088D01*
X117351825Y-87436103D01*
X117352158Y-87423393D01*
X117373938Y-87355819D01*
X117428793Y-87310748D01*
X117499307Y-87302488D01*
X117563093Y-87333662D01*
X117592541Y-87373942D01*
X117621475Y-87436705D01*
X117627223Y-87446661D01*
X117638675Y-87462867D01*
X117649263Y-87471254D01*
X117662564Y-87464226D01*
X118245978Y-86880812D01*
X118252356Y-86869132D01*
X118982408Y-86869132D01*
X118982539Y-86870965D01*
X118986790Y-86877580D01*
X119573950Y-87464740D01*
X119586330Y-87471500D01*
X119592910Y-87466574D01*
X119660470Y-87345938D01*
X124073995Y-87345938D01*
X124087740Y-87555649D01*
X124139471Y-87759343D01*
X124141890Y-87764590D01*
X124225038Y-87944953D01*
X124225041Y-87944958D01*
X124227457Y-87950199D01*
X124230788Y-87954912D01*
X124230789Y-87954914D01*
X124317725Y-88077924D01*
X124348751Y-88121825D01*
X124499289Y-88268474D01*
X124504085Y-88271679D01*
X124504088Y-88271681D01*
X124604909Y-88339047D01*
X124674031Y-88385233D01*
X124679339Y-88387514D01*
X124679340Y-88387514D01*
X124861822Y-88465914D01*
X124861825Y-88465915D01*
X124867125Y-88468192D01*
X124872754Y-88469466D01*
X124872755Y-88469466D01*
X125066467Y-88513299D01*
X125066473Y-88513300D01*
X125072104Y-88514574D01*
X125077875Y-88514801D01*
X125077877Y-88514801D01*
X125141433Y-88517298D01*
X125282103Y-88522825D01*
X125490088Y-88492669D01*
X125495552Y-88490814D01*
X125495557Y-88490813D01*
X125683624Y-88426973D01*
X125683629Y-88426971D01*
X125689096Y-88425115D01*
X125742101Y-88395431D01*
X125766042Y-88382023D01*
X125872460Y-88322426D01*
X126034041Y-88188041D01*
X126168426Y-88026460D01*
X126239651Y-87899279D01*
X126268291Y-87848139D01*
X126268292Y-87848137D01*
X126271115Y-87843096D01*
X126272971Y-87837629D01*
X126272973Y-87837624D01*
X126307496Y-87735921D01*
X126348333Y-87677844D01*
X126414086Y-87651066D01*
X126483878Y-87664087D01*
X126535551Y-87712774D01*
X126548931Y-87745404D01*
X126552471Y-87759343D01*
X126554890Y-87764590D01*
X126638038Y-87944953D01*
X126638041Y-87944958D01*
X126640457Y-87950199D01*
X126643788Y-87954912D01*
X126643789Y-87954914D01*
X126730725Y-88077924D01*
X126761751Y-88121825D01*
X126912289Y-88268474D01*
X126917085Y-88271679D01*
X126917088Y-88271681D01*
X127017909Y-88339047D01*
X127087031Y-88385233D01*
X127092339Y-88387514D01*
X127092340Y-88387514D01*
X127274822Y-88465914D01*
X127274825Y-88465915D01*
X127280125Y-88468192D01*
X127285754Y-88469466D01*
X127285755Y-88469466D01*
X127479467Y-88513299D01*
X127479473Y-88513300D01*
X127485104Y-88514574D01*
X127490875Y-88514801D01*
X127490877Y-88514801D01*
X127554433Y-88517298D01*
X127695103Y-88522825D01*
X127903088Y-88492669D01*
X127908552Y-88490814D01*
X127908557Y-88490813D01*
X128096624Y-88426973D01*
X128096629Y-88426971D01*
X128102096Y-88425115D01*
X128155101Y-88395431D01*
X128179042Y-88382023D01*
X128285460Y-88322426D01*
X128447041Y-88188041D01*
X128581426Y-88026460D01*
X128652651Y-87899279D01*
X128681291Y-87848139D01*
X128681292Y-87848137D01*
X128684115Y-87843096D01*
X128685971Y-87837629D01*
X128685973Y-87837624D01*
X128749813Y-87649557D01*
X128749814Y-87649552D01*
X128751669Y-87644088D01*
X128781825Y-87436103D01*
X128783399Y-87376000D01*
X128764169Y-87166721D01*
X128757041Y-87141445D01*
X128727471Y-87036599D01*
X128707123Y-86964451D01*
X128623839Y-86795568D01*
X135724382Y-86795568D01*
X135753208Y-87044699D01*
X135754587Y-87049573D01*
X135754588Y-87049577D01*
X135815121Y-87263495D01*
X135821494Y-87286017D01*
X135823628Y-87290592D01*
X135823630Y-87290599D01*
X135925347Y-87508731D01*
X135927484Y-87513313D01*
X135930326Y-87517494D01*
X135930326Y-87517495D01*
X136065605Y-87716552D01*
X136065608Y-87716556D01*
X136068451Y-87720739D01*
X136071928Y-87724416D01*
X136071929Y-87724417D01*
X136169754Y-87827864D01*
X136240767Y-87902959D01*
X136244793Y-87906037D01*
X136244794Y-87906038D01*
X136435981Y-88052212D01*
X136435985Y-88052215D01*
X136440001Y-88055285D01*
X136444459Y-88057675D01*
X136444460Y-88057676D01*
X136564098Y-88121825D01*
X136661026Y-88173797D01*
X136665807Y-88175443D01*
X136665811Y-88175445D01*
X136891538Y-88253169D01*
X136898156Y-88255448D01*
X137001689Y-88273331D01*
X137141380Y-88297460D01*
X137141386Y-88297461D01*
X137145290Y-88298135D01*
X137149251Y-88298315D01*
X137149252Y-88298315D01*
X137173931Y-88299436D01*
X137173950Y-88299436D01*
X137175350Y-88299500D01*
X137350015Y-88299500D01*
X137352523Y-88299298D01*
X137352528Y-88299298D01*
X137531944Y-88284863D01*
X137531949Y-88284862D01*
X137536985Y-88284457D01*
X137541893Y-88283252D01*
X137541896Y-88283251D01*
X137775625Y-88225841D01*
X137780539Y-88224634D01*
X137785191Y-88222659D01*
X137785195Y-88222658D01*
X138006741Y-88128617D01*
X138006742Y-88128617D01*
X138011396Y-88126641D01*
X138189515Y-88014474D01*
X138219334Y-87995696D01*
X138219335Y-87995695D01*
X138223615Y-87993000D01*
X138411738Y-87827147D01*
X138570924Y-87633351D01*
X138697078Y-87416596D01*
X138713054Y-87374979D01*
X138785143Y-87187181D01*
X138786955Y-87182461D01*
X138790192Y-87166970D01*
X138837206Y-86941921D01*
X138838241Y-86936967D01*
X138838494Y-86931410D01*
X138844883Y-86790699D01*
X138849618Y-86686432D01*
X138820792Y-86437301D01*
X138798408Y-86358195D01*
X138753884Y-86200852D01*
X138753883Y-86200850D01*
X138752506Y-86195983D01*
X138750372Y-86191408D01*
X138750370Y-86191401D01*
X138648653Y-85973269D01*
X138648651Y-85973265D01*
X138646516Y-85968687D01*
X138625254Y-85937401D01*
X138508395Y-85765448D01*
X138508392Y-85765444D01*
X138505549Y-85761261D01*
X138470901Y-85724621D01*
X138336713Y-85582721D01*
X138333233Y-85579041D01*
X138239349Y-85507261D01*
X138138019Y-85429788D01*
X138138015Y-85429785D01*
X138133999Y-85426715D01*
X137912974Y-85308203D01*
X137908193Y-85306557D01*
X137908189Y-85306555D01*
X137680633Y-85228201D01*
X137675844Y-85226552D01*
X137572311Y-85208669D01*
X137432620Y-85184540D01*
X137432614Y-85184539D01*
X137428710Y-85183865D01*
X137424749Y-85183685D01*
X137424748Y-85183685D01*
X137400069Y-85182564D01*
X137400050Y-85182564D01*
X137398650Y-85182500D01*
X137223985Y-85182500D01*
X137221477Y-85182702D01*
X137221472Y-85182702D01*
X137042056Y-85197137D01*
X137042051Y-85197138D01*
X137037015Y-85197543D01*
X137032107Y-85198748D01*
X137032104Y-85198749D01*
X136884518Y-85235000D01*
X136793461Y-85257366D01*
X136788809Y-85259341D01*
X136788805Y-85259342D01*
X136625359Y-85328721D01*
X136562604Y-85355359D01*
X136350385Y-85489000D01*
X136162262Y-85654853D01*
X136003076Y-85848649D01*
X135876922Y-86065404D01*
X135875109Y-86070127D01*
X135875108Y-86070129D01*
X135833538Y-86178423D01*
X135787045Y-86299539D01*
X135786012Y-86304485D01*
X135786010Y-86304491D01*
X135746007Y-86495978D01*
X135735759Y-86545033D01*
X135735530Y-86550082D01*
X135735529Y-86550088D01*
X135733918Y-86585563D01*
X135724382Y-86795568D01*
X128623839Y-86795568D01*
X128614171Y-86775963D01*
X128496210Y-86617993D01*
X128491880Y-86612195D01*
X128491879Y-86612194D01*
X128488427Y-86607571D01*
X128417025Y-86541568D01*
X128338341Y-86468833D01*
X128338338Y-86468831D01*
X128334101Y-86464914D01*
X128156362Y-86352769D01*
X127961163Y-86274892D01*
X127955506Y-86273767D01*
X127955500Y-86273765D01*
X127760707Y-86235019D01*
X127760705Y-86235019D01*
X127755040Y-86233892D01*
X127749265Y-86233816D01*
X127749261Y-86233816D01*
X127644001Y-86232438D01*
X127544898Y-86231141D01*
X127539201Y-86232120D01*
X127539200Y-86232120D01*
X127343469Y-86265753D01*
X127337772Y-86266732D01*
X127140601Y-86339472D01*
X127135640Y-86342424D01*
X127135639Y-86342424D01*
X126992795Y-86427408D01*
X126959988Y-86446926D01*
X126801981Y-86585494D01*
X126671872Y-86750537D01*
X126669181Y-86755653D01*
X126669179Y-86755655D01*
X126578262Y-86928461D01*
X126574018Y-86936527D01*
X126572304Y-86942047D01*
X126549356Y-87015951D01*
X126510053Y-87075076D01*
X126445024Y-87103566D01*
X126374915Y-87092376D01*
X126321985Y-87045059D01*
X126307755Y-87012787D01*
X126295692Y-86970015D01*
X126294123Y-86964451D01*
X126201171Y-86775963D01*
X126083210Y-86617993D01*
X126078880Y-86612195D01*
X126078879Y-86612194D01*
X126075427Y-86607571D01*
X126004025Y-86541568D01*
X125925341Y-86468833D01*
X125925338Y-86468831D01*
X125921101Y-86464914D01*
X125743362Y-86352769D01*
X125548163Y-86274892D01*
X125542506Y-86273767D01*
X125542500Y-86273765D01*
X125347707Y-86235019D01*
X125347705Y-86235019D01*
X125342040Y-86233892D01*
X125336265Y-86233816D01*
X125336261Y-86233816D01*
X125231001Y-86232438D01*
X125131898Y-86231141D01*
X125126201Y-86232120D01*
X125126200Y-86232120D01*
X124930469Y-86265753D01*
X124924772Y-86266732D01*
X124727601Y-86339472D01*
X124722640Y-86342424D01*
X124722639Y-86342424D01*
X124579795Y-86427408D01*
X124546988Y-86446926D01*
X124388981Y-86585494D01*
X124258872Y-86750537D01*
X124256181Y-86755653D01*
X124256179Y-86755655D01*
X124165262Y-86928461D01*
X124161018Y-86936527D01*
X124098696Y-87137234D01*
X124098017Y-87142969D01*
X124098017Y-87142970D01*
X124087432Y-87232408D01*
X124073995Y-87345938D01*
X119660470Y-87345938D01*
X119663834Y-87339931D01*
X119668512Y-87329424D01*
X119732323Y-87141445D01*
X119735011Y-87130250D01*
X119763791Y-86931750D01*
X119764421Y-86924367D01*
X119765800Y-86871704D01*
X119765557Y-86864305D01*
X119747204Y-86664566D01*
X119745107Y-86653251D01*
X119691222Y-86462190D01*
X119687100Y-86451451D01*
X119599299Y-86273409D01*
X119597192Y-86269970D01*
X119587876Y-86262980D01*
X119575459Y-86269751D01*
X118990022Y-86855188D01*
X118982408Y-86869132D01*
X118252356Y-86869132D01*
X118253592Y-86866868D01*
X118253461Y-86865035D01*
X118249210Y-86858420D01*
X117660626Y-86269836D01*
X117648246Y-86263076D01*
X117642280Y-86267542D01*
X117560173Y-86423602D01*
X117555768Y-86434236D01*
X117496900Y-86623822D01*
X117494508Y-86635076D01*
X117470991Y-86833772D01*
X117443121Y-86899069D01*
X117384372Y-86938933D01*
X117313398Y-86940707D01*
X117252731Y-86903828D01*
X117232858Y-86874691D01*
X117212679Y-86833772D01*
X117184171Y-86775963D01*
X117066210Y-86617993D01*
X117061880Y-86612195D01*
X117061879Y-86612194D01*
X117058427Y-86607571D01*
X116987025Y-86541568D01*
X116908341Y-86468833D01*
X116908338Y-86468831D01*
X116904101Y-86464914D01*
X116726362Y-86352769D01*
X116531163Y-86274892D01*
X116525506Y-86273767D01*
X116525500Y-86273765D01*
X116330707Y-86235019D01*
X116330705Y-86235019D01*
X116325040Y-86233892D01*
X116319265Y-86233816D01*
X116319261Y-86233816D01*
X116214001Y-86232438D01*
X116114898Y-86231141D01*
X116109201Y-86232120D01*
X116109200Y-86232120D01*
X115913469Y-86265753D01*
X115907772Y-86266732D01*
X115710601Y-86339472D01*
X115705640Y-86342424D01*
X115705639Y-86342424D01*
X115562795Y-86427408D01*
X115529988Y-86446926D01*
X115371981Y-86585494D01*
X115371321Y-86586331D01*
X115311242Y-86621205D01*
X115240318Y-86617993D01*
X115182390Y-86576947D01*
X115168245Y-86554557D01*
X115154726Y-86527144D01*
X115152171Y-86521963D01*
X115107537Y-86462190D01*
X115029880Y-86358195D01*
X115029879Y-86358194D01*
X115026427Y-86353571D01*
X115022191Y-86349655D01*
X114876341Y-86214833D01*
X114876338Y-86214831D01*
X114872101Y-86210914D01*
X114694362Y-86098769D01*
X114499163Y-86020892D01*
X114493506Y-86019767D01*
X114493500Y-86019765D01*
X114298707Y-85981019D01*
X114298705Y-85981019D01*
X114293040Y-85979892D01*
X114287265Y-85979816D01*
X114287261Y-85979816D01*
X114182001Y-85978438D01*
X114082898Y-85977141D01*
X114077201Y-85978120D01*
X114077200Y-85978120D01*
X113881469Y-86011753D01*
X113875772Y-86012732D01*
X113678601Y-86085472D01*
X113497988Y-86192926D01*
X113339981Y-86331494D01*
X113209872Y-86496537D01*
X113207181Y-86501653D01*
X113207179Y-86501655D01*
X113151454Y-86607571D01*
X113112018Y-86682527D01*
X113049696Y-86883234D01*
X113049017Y-86888969D01*
X113049017Y-86888970D01*
X113043336Y-86936967D01*
X113024995Y-87091938D01*
X113038740Y-87301649D01*
X113090471Y-87505343D01*
X113092890Y-87510590D01*
X113176038Y-87690953D01*
X113176041Y-87690958D01*
X113178457Y-87696199D01*
X113181788Y-87700912D01*
X113181789Y-87700914D01*
X113284054Y-87845614D01*
X113299751Y-87867825D01*
X113450289Y-88014474D01*
X113455093Y-88017684D01*
X113483501Y-88036666D01*
X113529029Y-88091142D01*
X113539500Y-88141431D01*
X113539500Y-91633405D01*
X113519498Y-91701526D01*
X113502595Y-91722500D01*
X107345804Y-97879291D01*
X107283492Y-97913317D01*
X107212677Y-97908252D01*
X107155841Y-97865705D01*
X107135440Y-97824398D01*
X107125321Y-97788519D01*
X107117123Y-97759451D01*
X107024171Y-97570963D01*
X107012595Y-97555460D01*
X106901880Y-97407195D01*
X106901879Y-97407194D01*
X106898427Y-97402571D01*
X106744101Y-97259914D01*
X106566362Y-97147769D01*
X106371163Y-97069892D01*
X106365506Y-97068767D01*
X106365500Y-97068765D01*
X106170707Y-97030019D01*
X106170705Y-97030019D01*
X106165040Y-97028892D01*
X106159265Y-97028816D01*
X106159261Y-97028816D01*
X106054001Y-97027438D01*
X105954898Y-97026141D01*
X105949201Y-97027120D01*
X105949200Y-97027120D01*
X105803739Y-97052115D01*
X105747772Y-97061732D01*
X105550601Y-97134472D01*
X105545640Y-97137424D01*
X105545639Y-97137424D01*
X105531845Y-97145631D01*
X105369988Y-97241926D01*
X105211981Y-97380494D01*
X105081872Y-97545537D01*
X105079179Y-97550656D01*
X105077434Y-97553972D01*
X105076197Y-97555248D01*
X105076039Y-97555491D01*
X105075991Y-97555460D01*
X105028014Y-97604944D01*
X104958881Y-97621106D01*
X104891986Y-97597326D01*
X104864969Y-97570692D01*
X104742880Y-97407195D01*
X104742879Y-97407194D01*
X104739427Y-97402571D01*
X104585101Y-97259914D01*
X104407362Y-97147769D01*
X104313221Y-97110210D01*
X104257363Y-97066390D01*
X104234063Y-96999326D01*
X104250719Y-96930311D01*
X104270818Y-96904086D01*
X104750338Y-96424566D01*
X104812650Y-96390540D01*
X104889170Y-96397893D01*
X105049822Y-96466914D01*
X105049825Y-96466915D01*
X105055125Y-96469192D01*
X105060754Y-96470466D01*
X105060755Y-96470466D01*
X105254467Y-96514299D01*
X105254473Y-96514300D01*
X105260104Y-96515574D01*
X105265875Y-96515801D01*
X105265877Y-96515801D01*
X105329433Y-96518298D01*
X105470103Y-96523825D01*
X105678088Y-96493669D01*
X105683552Y-96491814D01*
X105683557Y-96491813D01*
X105871624Y-96427973D01*
X105871629Y-96427971D01*
X105877096Y-96426115D01*
X105901306Y-96412557D01*
X106000779Y-96356849D01*
X106060460Y-96323426D01*
X106222041Y-96189041D01*
X106356426Y-96027460D01*
X106459115Y-95844096D01*
X106460971Y-95838629D01*
X106460973Y-95838624D01*
X106524813Y-95650557D01*
X106524814Y-95650552D01*
X106526669Y-95645088D01*
X106556825Y-95437103D01*
X106558399Y-95377000D01*
X106547816Y-95261826D01*
X106561501Y-95192161D01*
X106610677Y-95140954D01*
X106678234Y-95124394D01*
X106740103Y-95126825D01*
X106948088Y-95096669D01*
X106953552Y-95094814D01*
X106953557Y-95094813D01*
X107141624Y-95030973D01*
X107141629Y-95030971D01*
X107147096Y-95029115D01*
X107330460Y-94926426D01*
X107492041Y-94792041D01*
X107626426Y-94630460D01*
X107723043Y-94457938D01*
X107726291Y-94452139D01*
X107726292Y-94452137D01*
X107729115Y-94447096D01*
X107730971Y-94441629D01*
X107730973Y-94441624D01*
X107794813Y-94253557D01*
X107794814Y-94253552D01*
X107796669Y-94248088D01*
X107826825Y-94040103D01*
X107828399Y-93980000D01*
X107809169Y-93770721D01*
X107797502Y-93729351D01*
X107760739Y-93599000D01*
X107752123Y-93568451D01*
X107659171Y-93379963D01*
X107640318Y-93354715D01*
X107536880Y-93216195D01*
X107536879Y-93216194D01*
X107533427Y-93211571D01*
X107520729Y-93199833D01*
X107383341Y-93072833D01*
X107383338Y-93072831D01*
X107379101Y-93068914D01*
X107201362Y-92956769D01*
X107006163Y-92878892D01*
X107000506Y-92877767D01*
X107000500Y-92877765D01*
X106805707Y-92839019D01*
X106805705Y-92839019D01*
X106800040Y-92837892D01*
X106794265Y-92837816D01*
X106794261Y-92837816D01*
X106759466Y-92837361D01*
X106757720Y-92837338D01*
X106689867Y-92816446D01*
X106644080Y-92762187D01*
X106634897Y-92691786D01*
X106665233Y-92627597D01*
X106725456Y-92589999D01*
X106741289Y-92586653D01*
X106948088Y-92556669D01*
X106953552Y-92554814D01*
X106953557Y-92554813D01*
X107141624Y-92490973D01*
X107141629Y-92490971D01*
X107147096Y-92489115D01*
X107330460Y-92386426D01*
X107492041Y-92252041D01*
X107626426Y-92090460D01*
X107729115Y-91907096D01*
X107730971Y-91901629D01*
X107730973Y-91901624D01*
X107794813Y-91713557D01*
X107794814Y-91713552D01*
X107796669Y-91708088D01*
X107826825Y-91500103D01*
X107828399Y-91440000D01*
X107809169Y-91230721D01*
X107805266Y-91216880D01*
X107778355Y-91121462D01*
X107752123Y-91028451D01*
X107659171Y-90839963D01*
X107653887Y-90832886D01*
X107536880Y-90676195D01*
X107536879Y-90676194D01*
X107533427Y-90671571D01*
X107529191Y-90667655D01*
X107383341Y-90532833D01*
X107383338Y-90532831D01*
X107379101Y-90528914D01*
X107201362Y-90416769D01*
X107006163Y-90338892D01*
X107000506Y-90337767D01*
X107000500Y-90337765D01*
X106805707Y-90299019D01*
X106805705Y-90299019D01*
X106800040Y-90297892D01*
X106794265Y-90297816D01*
X106794261Y-90297816D01*
X106678709Y-90296304D01*
X106671631Y-90296211D01*
X106603778Y-90275319D01*
X106557991Y-90221060D01*
X106547809Y-90181751D01*
X106539698Y-90093478D01*
X106539169Y-90087721D01*
X106482123Y-89885451D01*
X106389171Y-89696963D01*
X106263427Y-89528571D01*
X106259191Y-89524655D01*
X106113341Y-89389833D01*
X106113338Y-89389831D01*
X106109101Y-89385914D01*
X105931362Y-89273769D01*
X105736163Y-89195892D01*
X105730506Y-89194767D01*
X105730500Y-89194765D01*
X105535707Y-89156019D01*
X105535705Y-89156019D01*
X105530040Y-89154892D01*
X105524265Y-89154816D01*
X105524261Y-89154816D01*
X105419001Y-89153438D01*
X105319898Y-89152141D01*
X105314201Y-89153120D01*
X105314200Y-89153120D01*
X105264908Y-89161590D01*
X105112772Y-89187732D01*
X104915601Y-89260472D01*
X104910640Y-89263424D01*
X104910639Y-89263424D01*
X104761902Y-89351914D01*
X104734988Y-89367926D01*
X104576981Y-89506494D01*
X104573410Y-89511024D01*
X104451652Y-89665474D01*
X104446872Y-89671537D01*
X104444181Y-89676653D01*
X104444179Y-89676655D01*
X104351710Y-89852410D01*
X104349018Y-89857527D01*
X104286696Y-90058234D01*
X104261995Y-90266938D01*
X104275740Y-90476649D01*
X104327471Y-90680343D01*
X104329890Y-90685590D01*
X104413038Y-90865953D01*
X104413041Y-90865958D01*
X104415457Y-90871199D01*
X104418788Y-90875912D01*
X104418789Y-90875914D01*
X104530525Y-91034015D01*
X104536751Y-91042825D01*
X104687289Y-91189474D01*
X104692085Y-91192679D01*
X104692088Y-91192681D01*
X104823579Y-91280540D01*
X104862031Y-91306233D01*
X104867339Y-91308514D01*
X104867340Y-91308514D01*
X105049822Y-91386914D01*
X105049825Y-91386915D01*
X105055125Y-91389192D01*
X105060754Y-91390466D01*
X105060755Y-91390466D01*
X105254467Y-91434299D01*
X105254473Y-91434300D01*
X105260104Y-91435574D01*
X105265875Y-91435801D01*
X105265877Y-91435801D01*
X105405369Y-91441282D01*
X105472652Y-91463943D01*
X105517002Y-91519383D01*
X105524339Y-91590000D01*
X105492333Y-91653373D01*
X105431146Y-91689382D01*
X105398775Y-91693174D01*
X105319898Y-91692141D01*
X105314201Y-91693120D01*
X105314200Y-91693120D01*
X105118469Y-91726753D01*
X105112772Y-91727732D01*
X104915601Y-91800472D01*
X104910640Y-91803424D01*
X104910639Y-91803424D01*
X104745581Y-91901624D01*
X104734988Y-91907926D01*
X104576981Y-92046494D01*
X104559027Y-92069269D01*
X104486394Y-92161404D01*
X104446872Y-92211537D01*
X104444181Y-92216653D01*
X104444179Y-92216655D01*
X104353372Y-92389252D01*
X104349018Y-92397527D01*
X104286696Y-92598234D01*
X104286017Y-92603969D01*
X104286017Y-92603970D01*
X104281032Y-92646088D01*
X104261995Y-92806938D01*
X104275740Y-93016649D01*
X104327471Y-93220343D01*
X104388388Y-93352483D01*
X104398743Y-93422718D01*
X104369481Y-93487404D01*
X104348027Y-93507165D01*
X104337893Y-93514528D01*
X104332842Y-93520634D01*
X104309702Y-93548605D01*
X104301712Y-93557384D01*
X104043804Y-93815292D01*
X103981492Y-93849318D01*
X103910677Y-93844253D01*
X103853841Y-93801706D01*
X103833440Y-93760399D01*
X103815123Y-93695451D01*
X103722171Y-93506963D01*
X103700343Y-93477731D01*
X103599880Y-93343195D01*
X103599879Y-93343194D01*
X103596427Y-93338571D01*
X103592191Y-93334655D01*
X103446341Y-93199833D01*
X103446338Y-93199831D01*
X103442101Y-93195914D01*
X103264362Y-93083769D01*
X103069163Y-93005892D01*
X103063506Y-93004767D01*
X103063500Y-93004765D01*
X102868707Y-92966019D01*
X102868705Y-92966019D01*
X102863040Y-92964892D01*
X102857265Y-92964816D01*
X102857261Y-92964816D01*
X102752001Y-92963438D01*
X102652898Y-92962141D01*
X102647201Y-92963120D01*
X102647200Y-92963120D01*
X102465535Y-92994336D01*
X102445772Y-92997732D01*
X102248601Y-93070472D01*
X102243640Y-93073424D01*
X102243639Y-93073424D01*
X102089636Y-93165047D01*
X102067988Y-93177926D01*
X101909981Y-93316494D01*
X101886806Y-93345892D01*
X101810854Y-93442237D01*
X101779872Y-93481537D01*
X101777181Y-93486653D01*
X101777179Y-93486655D01*
X101688401Y-93655395D01*
X101682018Y-93667527D01*
X101619696Y-93868234D01*
X101594995Y-94076938D01*
X101596444Y-94099039D01*
X101580941Y-94168321D01*
X101530442Y-94218224D01*
X101469065Y-94233269D01*
X101463025Y-94233190D01*
X101382898Y-94232141D01*
X101377201Y-94233120D01*
X101377200Y-94233120D01*
X101181469Y-94266753D01*
X101175772Y-94267732D01*
X100978601Y-94340472D01*
X100973640Y-94343424D01*
X100973639Y-94343424D01*
X100808581Y-94441624D01*
X100797988Y-94447926D01*
X100639981Y-94586494D01*
X100621045Y-94610514D01*
X100520701Y-94737801D01*
X100509872Y-94751537D01*
X100507181Y-94756653D01*
X100507179Y-94756655D01*
X100416372Y-94929252D01*
X100412018Y-94937527D01*
X100349696Y-95138234D01*
X100349017Y-95143969D01*
X100349017Y-95143970D01*
X100341561Y-95206972D01*
X100324995Y-95346938D01*
X100338740Y-95556649D01*
X100390471Y-95760343D01*
X100392890Y-95765590D01*
X100476038Y-95945953D01*
X100476041Y-95945958D01*
X100478457Y-95951199D01*
X100481788Y-95955912D01*
X100481789Y-95955914D01*
X100594012Y-96114704D01*
X100599751Y-96122825D01*
X100750289Y-96269474D01*
X100755085Y-96272679D01*
X100755088Y-96272681D01*
X100825499Y-96319728D01*
X100925031Y-96386233D01*
X100930339Y-96388514D01*
X100930340Y-96388514D01*
X101112815Y-96466911D01*
X101112818Y-96466912D01*
X101118125Y-96469192D01*
X101123762Y-96470468D01*
X101128122Y-96471884D01*
X101186729Y-96511957D01*
X101214366Y-96577353D01*
X101202261Y-96647310D01*
X101178283Y-96680813D01*
X96908152Y-100950943D01*
X92643816Y-105215279D01*
X92581504Y-105249305D01*
X92510689Y-105244240D01*
X92503472Y-105241291D01*
X92363319Y-105178891D01*
X92363318Y-105178891D01*
X92357288Y-105176206D01*
X92263887Y-105156353D01*
X92176944Y-105137872D01*
X92176939Y-105137872D01*
X92170487Y-105136500D01*
X91979513Y-105136500D01*
X91973061Y-105137872D01*
X91973056Y-105137872D01*
X91886113Y-105156353D01*
X91792712Y-105176206D01*
X91786682Y-105178891D01*
X91786681Y-105178891D01*
X91624278Y-105251197D01*
X91624276Y-105251198D01*
X91618248Y-105253882D01*
X91463747Y-105366134D01*
X91459326Y-105371044D01*
X91459325Y-105371045D01*
X91414526Y-105420800D01*
X91335960Y-105508056D01*
X91240473Y-105673444D01*
X91181458Y-105855072D01*
X91180768Y-105861633D01*
X91180768Y-105861635D01*
X91165054Y-106011148D01*
X91161496Y-106045000D01*
X91162186Y-106051565D01*
X91165942Y-106087297D01*
X91181458Y-106234928D01*
X91240473Y-106416556D01*
X91335960Y-106581944D01*
X91340378Y-106586851D01*
X91340379Y-106586852D01*
X91372844Y-106622908D01*
X91463747Y-106723866D01*
X91618248Y-106836118D01*
X91624276Y-106838802D01*
X91624278Y-106838803D01*
X91786681Y-106911109D01*
X91792712Y-106913794D01*
X91886113Y-106933647D01*
X91973056Y-106952128D01*
X91973061Y-106952128D01*
X91979513Y-106953500D01*
X92125405Y-106953500D01*
X92193526Y-106973502D01*
X92240019Y-107027158D01*
X92250123Y-107097432D01*
X92220629Y-107162012D01*
X92214500Y-107168595D01*
X92124500Y-107258595D01*
X92062188Y-107292621D01*
X92035405Y-107295500D01*
X91979513Y-107295500D01*
X91973061Y-107296872D01*
X91973056Y-107296872D01*
X91886113Y-107315353D01*
X91792712Y-107335206D01*
X91786682Y-107337891D01*
X91786681Y-107337891D01*
X91624278Y-107410197D01*
X91624276Y-107410198D01*
X91618248Y-107412882D01*
X91612907Y-107416762D01*
X91612906Y-107416763D01*
X91585756Y-107436489D01*
X91463747Y-107525134D01*
X91335960Y-107667056D01*
X91240473Y-107832444D01*
X91181458Y-108014072D01*
X91180768Y-108020633D01*
X91180768Y-108020635D01*
X91168154Y-108140648D01*
X91161496Y-108204000D01*
X89281500Y-108204000D01*
X89281500Y-92891568D01*
X97497382Y-92891568D01*
X97497963Y-92896588D01*
X97497963Y-92896592D01*
X97509273Y-92994336D01*
X97526208Y-93140699D01*
X97527587Y-93145573D01*
X97527588Y-93145577D01*
X97586136Y-93352480D01*
X97594494Y-93382017D01*
X97596628Y-93386592D01*
X97596630Y-93386599D01*
X97697402Y-93602704D01*
X97700484Y-93609313D01*
X97703326Y-93613494D01*
X97703326Y-93613495D01*
X97838605Y-93812552D01*
X97838608Y-93812556D01*
X97841451Y-93816739D01*
X97844928Y-93820416D01*
X97844929Y-93820417D01*
X97945238Y-93926491D01*
X98013767Y-93998959D01*
X98017793Y-94002037D01*
X98017794Y-94002038D01*
X98208981Y-94148212D01*
X98208985Y-94148215D01*
X98213001Y-94151285D01*
X98217459Y-94153675D01*
X98217460Y-94153676D01*
X98262664Y-94177914D01*
X98434026Y-94269797D01*
X98438807Y-94271443D01*
X98438811Y-94271445D01*
X98663623Y-94348854D01*
X98671156Y-94351448D01*
X98774689Y-94369331D01*
X98914380Y-94393460D01*
X98914386Y-94393461D01*
X98918290Y-94394135D01*
X98922251Y-94394315D01*
X98922252Y-94394315D01*
X98946931Y-94395436D01*
X98946950Y-94395436D01*
X98948350Y-94395500D01*
X99123015Y-94395500D01*
X99125523Y-94395298D01*
X99125528Y-94395298D01*
X99304944Y-94380863D01*
X99304949Y-94380862D01*
X99309985Y-94380457D01*
X99314893Y-94379252D01*
X99314896Y-94379251D01*
X99548625Y-94321841D01*
X99553539Y-94320634D01*
X99558191Y-94318659D01*
X99558195Y-94318658D01*
X99779741Y-94224617D01*
X99779742Y-94224617D01*
X99784396Y-94222641D01*
X99974558Y-94102890D01*
X99992334Y-94091696D01*
X99992335Y-94091695D01*
X99996615Y-94089000D01*
X100184738Y-93923147D01*
X100343924Y-93729351D01*
X100470078Y-93512596D01*
X100472241Y-93506963D01*
X100528565Y-93360234D01*
X100559955Y-93278461D01*
X100563896Y-93259599D01*
X100610206Y-93037921D01*
X100611241Y-93032967D01*
X100611895Y-93018577D01*
X100617662Y-92891568D01*
X100622618Y-92782432D01*
X100621133Y-92769592D01*
X100601305Y-92598234D01*
X100593792Y-92533301D01*
X100583773Y-92497892D01*
X100526884Y-92296852D01*
X100526883Y-92296850D01*
X100525506Y-92291983D01*
X100523372Y-92287408D01*
X100523370Y-92287401D01*
X100421653Y-92069269D01*
X100421651Y-92069265D01*
X100419516Y-92064687D01*
X100345822Y-91956250D01*
X100281395Y-91861448D01*
X100281392Y-91861444D01*
X100278549Y-91857261D01*
X100177925Y-91750853D01*
X100109713Y-91678721D01*
X100106233Y-91675041D01*
X100084228Y-91658217D01*
X99911019Y-91525788D01*
X99911015Y-91525785D01*
X99906999Y-91522715D01*
X99786306Y-91458000D01*
X99690435Y-91406595D01*
X99685974Y-91404203D01*
X99681193Y-91402557D01*
X99681189Y-91402555D01*
X99453633Y-91324201D01*
X99448844Y-91322552D01*
X99322119Y-91300663D01*
X99205620Y-91280540D01*
X99205614Y-91280539D01*
X99201710Y-91279865D01*
X99197749Y-91279685D01*
X99197748Y-91279685D01*
X99173069Y-91278564D01*
X99173050Y-91278564D01*
X99171650Y-91278500D01*
X98996985Y-91278500D01*
X98994477Y-91278702D01*
X98994472Y-91278702D01*
X98815056Y-91293137D01*
X98815051Y-91293138D01*
X98810015Y-91293543D01*
X98805107Y-91294748D01*
X98805104Y-91294749D01*
X98573326Y-91351680D01*
X98566461Y-91353366D01*
X98561809Y-91355341D01*
X98561805Y-91355342D01*
X98372791Y-91435574D01*
X98335604Y-91451359D01*
X98123385Y-91585000D01*
X97935262Y-91750853D01*
X97776076Y-91944649D01*
X97649922Y-92161404D01*
X97648109Y-92166127D01*
X97648108Y-92166129D01*
X97628713Y-92216655D01*
X97560045Y-92395539D01*
X97559012Y-92400485D01*
X97559010Y-92400491D01*
X97525171Y-92562472D01*
X97508759Y-92641033D01*
X97508530Y-92646082D01*
X97508529Y-92646088D01*
X97507274Y-92673736D01*
X97497382Y-92891568D01*
X89281500Y-92891568D01*
X89281500Y-90139938D01*
X100705995Y-90139938D01*
X100719740Y-90349649D01*
X100771471Y-90553343D01*
X100773890Y-90558590D01*
X100857038Y-90738953D01*
X100857041Y-90738958D01*
X100859457Y-90744199D01*
X100862788Y-90748912D01*
X100862789Y-90748914D01*
X100964416Y-90892711D01*
X100980751Y-90915825D01*
X101131289Y-91062474D01*
X101136085Y-91065679D01*
X101136088Y-91065681D01*
X101267579Y-91153540D01*
X101306031Y-91179233D01*
X101311339Y-91181514D01*
X101311340Y-91181514D01*
X101493822Y-91259914D01*
X101493825Y-91259915D01*
X101499125Y-91262192D01*
X101504754Y-91263466D01*
X101504755Y-91263466D01*
X101698467Y-91307299D01*
X101698473Y-91307300D01*
X101704104Y-91308574D01*
X101709875Y-91308801D01*
X101709877Y-91308801D01*
X101773433Y-91311298D01*
X101914103Y-91316825D01*
X102122088Y-91286669D01*
X102127552Y-91284814D01*
X102127557Y-91284813D01*
X102315624Y-91220973D01*
X102315629Y-91220971D01*
X102321096Y-91219115D01*
X102504460Y-91116426D01*
X102666041Y-90982041D01*
X102800426Y-90820460D01*
X102875957Y-90685590D01*
X102900291Y-90642139D01*
X102900292Y-90642137D01*
X102903115Y-90637096D01*
X102904971Y-90631629D01*
X102904973Y-90631624D01*
X102968813Y-90443557D01*
X102968814Y-90443552D01*
X102970669Y-90438088D01*
X103000825Y-90230103D01*
X103002399Y-90170000D01*
X102983169Y-89960721D01*
X102926123Y-89758451D01*
X102833171Y-89569963D01*
X102791465Y-89514111D01*
X102710880Y-89406195D01*
X102710879Y-89406194D01*
X102707427Y-89401571D01*
X102694729Y-89389833D01*
X102557341Y-89262833D01*
X102557338Y-89262831D01*
X102553101Y-89258914D01*
X102375362Y-89146769D01*
X102180163Y-89068892D01*
X102174506Y-89067767D01*
X102174500Y-89067765D01*
X101979707Y-89029019D01*
X101979705Y-89029019D01*
X101974040Y-89027892D01*
X101968265Y-89027816D01*
X101968261Y-89027816D01*
X101863001Y-89026438D01*
X101763898Y-89025141D01*
X101758201Y-89026120D01*
X101758200Y-89026120D01*
X101639265Y-89046557D01*
X101556772Y-89060732D01*
X101359601Y-89133472D01*
X101354640Y-89136424D01*
X101354639Y-89136424D01*
X101189581Y-89234624D01*
X101178988Y-89240926D01*
X101020981Y-89379494D01*
X101006664Y-89397655D01*
X100903459Y-89528571D01*
X100890872Y-89544537D01*
X100888181Y-89549653D01*
X100888179Y-89549655D01*
X100797372Y-89722252D01*
X100793018Y-89730527D01*
X100730696Y-89931234D01*
X100705995Y-90139938D01*
X89281500Y-90139938D01*
X89281500Y-86541568D01*
X100799382Y-86541568D01*
X100799963Y-86546588D01*
X100799963Y-86546592D01*
X100806566Y-86603655D01*
X100828208Y-86790699D01*
X100829586Y-86795568D01*
X100829588Y-86795577D01*
X100870154Y-86938933D01*
X100896494Y-87032017D01*
X100898628Y-87036592D01*
X100898630Y-87036599D01*
X100961992Y-87172478D01*
X101002484Y-87259313D01*
X101005326Y-87263494D01*
X101005326Y-87263495D01*
X101140605Y-87462552D01*
X101140608Y-87462556D01*
X101143451Y-87466739D01*
X101146928Y-87470416D01*
X101146929Y-87470417D01*
X101247238Y-87576491D01*
X101315767Y-87648959D01*
X101319793Y-87652037D01*
X101319794Y-87652038D01*
X101510981Y-87798212D01*
X101510985Y-87798215D01*
X101515001Y-87801285D01*
X101519459Y-87803675D01*
X101519460Y-87803676D01*
X101635383Y-87865833D01*
X101736026Y-87919797D01*
X101740807Y-87921443D01*
X101740811Y-87921445D01*
X101917613Y-87982323D01*
X101973156Y-88001448D01*
X102076689Y-88019331D01*
X102216380Y-88043460D01*
X102216386Y-88043461D01*
X102220290Y-88044135D01*
X102224251Y-88044315D01*
X102224252Y-88044315D01*
X102248931Y-88045436D01*
X102248950Y-88045436D01*
X102250350Y-88045500D01*
X102425015Y-88045500D01*
X102427523Y-88045298D01*
X102427528Y-88045298D01*
X102606944Y-88030863D01*
X102606949Y-88030862D01*
X102611985Y-88030457D01*
X102616893Y-88029252D01*
X102616896Y-88029251D01*
X102850625Y-87971841D01*
X102855539Y-87970634D01*
X102860191Y-87968659D01*
X102860195Y-87968658D01*
X103081741Y-87874617D01*
X103081742Y-87874617D01*
X103086396Y-87872641D01*
X103275194Y-87753749D01*
X103294334Y-87741696D01*
X103294335Y-87741695D01*
X103298615Y-87739000D01*
X103486738Y-87573147D01*
X103645924Y-87379351D01*
X103772078Y-87162596D01*
X103861955Y-86928461D01*
X103867102Y-86903828D01*
X103912206Y-86687921D01*
X103913241Y-86682967D01*
X103913494Y-86677410D01*
X103919730Y-86540079D01*
X103924618Y-86432432D01*
X103923597Y-86423602D01*
X103901776Y-86235019D01*
X103895792Y-86183301D01*
X103871267Y-86096629D01*
X103828884Y-85946852D01*
X103828883Y-85946850D01*
X103827506Y-85941983D01*
X103825372Y-85937408D01*
X103825370Y-85937401D01*
X103808461Y-85901139D01*
X118015251Y-85901139D01*
X118018738Y-85909528D01*
X118605188Y-86495978D01*
X118619132Y-86503592D01*
X118620965Y-86503461D01*
X118627580Y-86499210D01*
X119213657Y-85913133D01*
X119220417Y-85900753D01*
X119214387Y-85892698D01*
X119144020Y-85848299D01*
X119133769Y-85843076D01*
X118949389Y-85769516D01*
X118938352Y-85766247D01*
X118743654Y-85727518D01*
X118732210Y-85726315D01*
X118533719Y-85723718D01*
X118522239Y-85724621D01*
X118326599Y-85758238D01*
X118315479Y-85761218D01*
X118129234Y-85829927D01*
X118118856Y-85834877D01*
X118024849Y-85890806D01*
X118015251Y-85901139D01*
X103808461Y-85901139D01*
X103723653Y-85719269D01*
X103723651Y-85719265D01*
X103721516Y-85714687D01*
X103678580Y-85651509D01*
X103583395Y-85511448D01*
X103583392Y-85511444D01*
X103580549Y-85507261D01*
X103479925Y-85400853D01*
X103411713Y-85328721D01*
X103408233Y-85325041D01*
X103404206Y-85321962D01*
X103213019Y-85175788D01*
X103213015Y-85175785D01*
X103208999Y-85172715D01*
X102987974Y-85054203D01*
X102983193Y-85052557D01*
X102983189Y-85052555D01*
X102755633Y-84974201D01*
X102750844Y-84972552D01*
X102647311Y-84954669D01*
X102507620Y-84930540D01*
X102507614Y-84930539D01*
X102503710Y-84929865D01*
X102499749Y-84929685D01*
X102499748Y-84929685D01*
X102475069Y-84928564D01*
X102475050Y-84928564D01*
X102473650Y-84928500D01*
X102298985Y-84928500D01*
X102296477Y-84928702D01*
X102296472Y-84928702D01*
X102117056Y-84943137D01*
X102117051Y-84943138D01*
X102112015Y-84943543D01*
X102107107Y-84944748D01*
X102107104Y-84944749D01*
X101875326Y-85001680D01*
X101868461Y-85003366D01*
X101863809Y-85005341D01*
X101863805Y-85005342D01*
X101743061Y-85056595D01*
X101637604Y-85101359D01*
X101633320Y-85104057D01*
X101436182Y-85228201D01*
X101425385Y-85235000D01*
X101237262Y-85400853D01*
X101078076Y-85594649D01*
X100951922Y-85811404D01*
X100950109Y-85816127D01*
X100950108Y-85816129D01*
X100914255Y-85909528D01*
X100862045Y-86045539D01*
X100861012Y-86050485D01*
X100861010Y-86050491D01*
X100829599Y-86200852D01*
X100810759Y-86291033D01*
X100810530Y-86296082D01*
X100810529Y-86296088D01*
X100807709Y-86358195D01*
X100799382Y-86541568D01*
X89281500Y-86541568D01*
X89281500Y-83774646D01*
X89301502Y-83706525D01*
X89355158Y-83660032D01*
X89425432Y-83649928D01*
X89490012Y-83679422D01*
X89521695Y-83721396D01*
X89572484Y-83830313D01*
X89575326Y-83834494D01*
X89575326Y-83834495D01*
X89710605Y-84033552D01*
X89710608Y-84033556D01*
X89713451Y-84037739D01*
X89716928Y-84041416D01*
X89716929Y-84041417D01*
X89817238Y-84147491D01*
X89885767Y-84219959D01*
X89889793Y-84223037D01*
X89889794Y-84223038D01*
X90080981Y-84369212D01*
X90080985Y-84369215D01*
X90085001Y-84372285D01*
X90306026Y-84490797D01*
X90310807Y-84492443D01*
X90310811Y-84492445D01*
X90536538Y-84570169D01*
X90543156Y-84572448D01*
X90646689Y-84590331D01*
X90786380Y-84614460D01*
X90786386Y-84614461D01*
X90790290Y-84615135D01*
X90794251Y-84615315D01*
X90794252Y-84615315D01*
X90818931Y-84616436D01*
X90818950Y-84616436D01*
X90820350Y-84616500D01*
X90995015Y-84616500D01*
X90997523Y-84616298D01*
X90997528Y-84616298D01*
X91176944Y-84601863D01*
X91176949Y-84601862D01*
X91181985Y-84601457D01*
X91186893Y-84600252D01*
X91186896Y-84600251D01*
X91420625Y-84542841D01*
X91425539Y-84541634D01*
X91430191Y-84539659D01*
X91430195Y-84539658D01*
X91651741Y-84445617D01*
X91651742Y-84445617D01*
X91656396Y-84443641D01*
X91794812Y-84356476D01*
X91864334Y-84312696D01*
X91864335Y-84312695D01*
X91868615Y-84310000D01*
X92056738Y-84144147D01*
X92215924Y-83950351D01*
X92342078Y-83733596D01*
X92352098Y-83707495D01*
X92430143Y-83504181D01*
X92431955Y-83499461D01*
X92435896Y-83480599D01*
X92482206Y-83258921D01*
X92483241Y-83253967D01*
X92483895Y-83239577D01*
X92494388Y-83008486D01*
X92494618Y-83003432D01*
X92493133Y-82990592D01*
X92466374Y-82759334D01*
X92465792Y-82754301D01*
X92426810Y-82616539D01*
X92398884Y-82517852D01*
X92398883Y-82517850D01*
X92397506Y-82512983D01*
X92395372Y-82508408D01*
X92395370Y-82508401D01*
X92293653Y-82290269D01*
X92293651Y-82290265D01*
X92291516Y-82285687D01*
X92259107Y-82237999D01*
X92153395Y-82082448D01*
X92153392Y-82082444D01*
X92150549Y-82078261D01*
X92049925Y-81971853D01*
X91981713Y-81899721D01*
X91978233Y-81896041D01*
X91801077Y-81760595D01*
X91759110Y-81703332D01*
X91754765Y-81632468D01*
X91789421Y-81570504D01*
X91852075Y-81537114D01*
X91877607Y-81534500D01*
X141768839Y-81534500D01*
X141836960Y-81554502D01*
G37*
%TD.AperFunction*%
%TD*%
M02*
