%TF.GenerationSoftware,KiCad,Pcbnew,(6.0.4)*%
%TF.CreationDate,2022-04-30T14:42:06+02:00*%
%TF.ProjectId,test_fixture,74657374-5f66-4697-9874-7572652e6b69,rev?*%
%TF.SameCoordinates,Original*%
%TF.FileFunction,Copper,L1,Top*%
%TF.FilePolarity,Positive*%
%FSLAX46Y46*%
G04 Gerber Fmt 4.6, Leading zero omitted, Abs format (unit mm)*
G04 Created by KiCad (PCBNEW (6.0.4)) date 2022-04-30 14:42:06*
%MOMM*%
%LPD*%
G01*
G04 APERTURE LIST*
%ADD10C,0.300000*%
%TA.AperFunction,NonConductor*%
%ADD11C,0.300000*%
%TD*%
%TA.AperFunction,ComponentPad*%
%ADD12C,1.270000*%
%TD*%
%TA.AperFunction,ComponentPad*%
%ADD13R,1.700000X1.700000*%
%TD*%
%TA.AperFunction,ComponentPad*%
%ADD14O,1.700000X1.700000*%
%TD*%
%TA.AperFunction,SMDPad,CuDef*%
%ADD15C,1.500000*%
%TD*%
%TA.AperFunction,SMDPad,CuDef*%
%ADD16R,2.400000X0.740000*%
%TD*%
%TA.AperFunction,ViaPad*%
%ADD17C,0.800000*%
%TD*%
%TA.AperFunction,Conductor*%
%ADD18C,0.250000*%
%TD*%
%TA.AperFunction,Conductor*%
%ADD19C,1.000000*%
%TD*%
G04 APERTURE END LIST*
D10*
D11*
X106661428Y-84244571D02*
X106661428Y-82744571D01*
X107018571Y-82744571D01*
X107232857Y-82816000D01*
X107375714Y-82958857D01*
X107447142Y-83101714D01*
X107518571Y-83387428D01*
X107518571Y-83601714D01*
X107447142Y-83887428D01*
X107375714Y-84030285D01*
X107232857Y-84173142D01*
X107018571Y-84244571D01*
X106661428Y-84244571D01*
X108161428Y-84244571D02*
X108161428Y-83244571D01*
X108161428Y-82744571D02*
X108090000Y-82816000D01*
X108161428Y-82887428D01*
X108232857Y-82816000D01*
X108161428Y-82744571D01*
X108161428Y-82887428D01*
X109518571Y-84173142D02*
X109375714Y-84244571D01*
X109090000Y-84244571D01*
X108947142Y-84173142D01*
X108875714Y-84101714D01*
X108804285Y-83958857D01*
X108804285Y-83530285D01*
X108875714Y-83387428D01*
X108947142Y-83316000D01*
X109090000Y-83244571D01*
X109375714Y-83244571D01*
X109518571Y-83316000D01*
X109947142Y-83244571D02*
X110518571Y-83244571D01*
X110161428Y-82744571D02*
X110161428Y-84030285D01*
X110232857Y-84173142D01*
X110375714Y-84244571D01*
X110518571Y-84244571D01*
X111232857Y-84244571D02*
X111090000Y-84173142D01*
X111018571Y-84101714D01*
X110947142Y-83958857D01*
X110947142Y-83530285D01*
X111018571Y-83387428D01*
X111090000Y-83316000D01*
X111232857Y-83244571D01*
X111447142Y-83244571D01*
X111590000Y-83316000D01*
X111661428Y-83387428D01*
X111732857Y-83530285D01*
X111732857Y-83958857D01*
X111661428Y-84101714D01*
X111590000Y-84173142D01*
X111447142Y-84244571D01*
X111232857Y-84244571D01*
X112161428Y-83244571D02*
X112732857Y-83244571D01*
X112375714Y-84244571D02*
X112375714Y-82958857D01*
X112447142Y-82816000D01*
X112590000Y-82744571D01*
X112732857Y-82744571D01*
X113875714Y-83244571D02*
X113875714Y-84244571D01*
X113232857Y-83244571D02*
X113232857Y-84030285D01*
X113304285Y-84173142D01*
X113447142Y-84244571D01*
X113661428Y-84244571D01*
X113804285Y-84173142D01*
X113875714Y-84101714D01*
X114590000Y-83244571D02*
X114590000Y-84244571D01*
X114590000Y-83387428D02*
X114661428Y-83316000D01*
X114804285Y-83244571D01*
X115018571Y-83244571D01*
X115161428Y-83316000D01*
X115232857Y-83458857D01*
X115232857Y-84244571D01*
X115947142Y-83673142D02*
X117090000Y-83673142D01*
X118590000Y-84244571D02*
X117732857Y-84244571D01*
X118161428Y-84244571D02*
X118161428Y-82744571D01*
X118018571Y-82958857D01*
X117875714Y-83101714D01*
X117732857Y-83173142D01*
X119232857Y-84101714D02*
X119304285Y-84173142D01*
X119232857Y-84244571D01*
X119161428Y-84173142D01*
X119232857Y-84101714D01*
X119232857Y-84244571D01*
X119875714Y-82887428D02*
X119947142Y-82816000D01*
X120090000Y-82744571D01*
X120447142Y-82744571D01*
X120590000Y-82816000D01*
X120661428Y-82887428D01*
X120732857Y-83030285D01*
X120732857Y-83173142D01*
X120661428Y-83387428D01*
X119804285Y-84244571D01*
X120732857Y-84244571D01*
X121375714Y-83673142D02*
X122518571Y-83673142D01*
X123018571Y-82744571D02*
X123875714Y-82744571D01*
X123447142Y-84244571D02*
X123447142Y-82744571D01*
X124947142Y-84173142D02*
X124804285Y-84244571D01*
X124518571Y-84244571D01*
X124375714Y-84173142D01*
X124304285Y-84030285D01*
X124304285Y-83458857D01*
X124375714Y-83316000D01*
X124518571Y-83244571D01*
X124804285Y-83244571D01*
X124947142Y-83316000D01*
X125018571Y-83458857D01*
X125018571Y-83601714D01*
X124304285Y-83744571D01*
X125590000Y-84173142D02*
X125732857Y-84244571D01*
X126018571Y-84244571D01*
X126161428Y-84173142D01*
X126232857Y-84030285D01*
X126232857Y-83958857D01*
X126161428Y-83816000D01*
X126018571Y-83744571D01*
X125804285Y-83744571D01*
X125661428Y-83673142D01*
X125590000Y-83530285D01*
X125590000Y-83458857D01*
X125661428Y-83316000D01*
X125804285Y-83244571D01*
X126018571Y-83244571D01*
X126161428Y-83316000D01*
X126661428Y-83244571D02*
X127232857Y-83244571D01*
X126875714Y-82744571D02*
X126875714Y-84030285D01*
X126947142Y-84173142D01*
X127090000Y-84244571D01*
X127232857Y-84244571D01*
D10*
D11*
X137414142Y-108597000D02*
X137271285Y-108525571D01*
X137057000Y-108525571D01*
X136842714Y-108597000D01*
X136699857Y-108739857D01*
X136628428Y-108882714D01*
X136557000Y-109168428D01*
X136557000Y-109382714D01*
X136628428Y-109668428D01*
X136699857Y-109811285D01*
X136842714Y-109954142D01*
X137057000Y-110025571D01*
X137199857Y-110025571D01*
X137414142Y-109954142D01*
X137485571Y-109882714D01*
X137485571Y-109382714D01*
X137199857Y-109382714D01*
X138128428Y-110025571D02*
X138128428Y-108525571D01*
X138985571Y-110025571D01*
X138985571Y-108525571D01*
X139699857Y-110025571D02*
X139699857Y-108525571D01*
X140057000Y-108525571D01*
X140271285Y-108597000D01*
X140414142Y-108739857D01*
X140485571Y-108882714D01*
X140557000Y-109168428D01*
X140557000Y-109382714D01*
X140485571Y-109668428D01*
X140414142Y-109811285D01*
X140271285Y-109954142D01*
X140057000Y-110025571D01*
X139699857Y-110025571D01*
D10*
D11*
X135584714Y-105858571D02*
X136084714Y-107358571D01*
X136584714Y-105858571D01*
X137584714Y-106572857D02*
X137799000Y-106644285D01*
X137870428Y-106715714D01*
X137941857Y-106858571D01*
X137941857Y-107072857D01*
X137870428Y-107215714D01*
X137799000Y-107287142D01*
X137656142Y-107358571D01*
X137084714Y-107358571D01*
X137084714Y-105858571D01*
X137584714Y-105858571D01*
X137727571Y-105930000D01*
X137799000Y-106001428D01*
X137870428Y-106144285D01*
X137870428Y-106287142D01*
X137799000Y-106430000D01*
X137727571Y-106501428D01*
X137584714Y-106572857D01*
X137084714Y-106572857D01*
X138513285Y-106930000D02*
X139227571Y-106930000D01*
X138370428Y-107358571D02*
X138870428Y-105858571D01*
X139370428Y-107358571D01*
X139656142Y-105858571D02*
X140513285Y-105858571D01*
X140084714Y-107358571D02*
X140084714Y-105858571D01*
D12*
%TO.P,POGO19,1,Pin_1*%
%TO.N,/CHRG_IN*%
X137033000Y-94488000D03*
%TD*%
%TO.P,POGO16,1,Pin_1*%
%TO.N,/P3.3V*%
X121920000Y-96139000D03*
%TD*%
%TO.P,POGO11,1,Pin_1*%
%TO.N,/PDM_CLK*%
X106045000Y-98171000D03*
%TD*%
%TO.P,POGO10,1,Pin_1*%
%TO.N,/SPI_CLK*%
X122555000Y-90170000D03*
%TD*%
D13*
%TO.P,J1,1,Pin_1*%
%TO.N,GNDD*%
X99426000Y-116967000D03*
D14*
%TO.P,J1,2,Pin_2*%
%TO.N,/UART_TX*%
X96886000Y-116967000D03*
%TO.P,J1,3,Pin_3*%
%TO.N,/UART_RX*%
X94346000Y-116967000D03*
%TD*%
D15*
%TO.P,PDM_CLK1,1,1*%
%TO.N,/PDM_CLK*%
X108077000Y-110363000D03*
%TD*%
D13*
%TO.P,J6,1,Pin_1*%
%TO.N,GNDD*%
X136398000Y-120650000D03*
%TD*%
D12*
%TO.P,POGO5,1,Pin_1*%
%TO.N,/UART_TX*%
X116205000Y-87376000D03*
%TD*%
%TO.P,POGO7,1,Pin_1*%
%TO.N,/SPI_MOSI*%
X124206000Y-93599000D03*
%TD*%
D15*
%TO.P,SPI_MOSI1,1,1*%
%TO.N,/SPI_MOSI*%
X119126000Y-112522000D03*
%TD*%
D12*
%TO.P,POGO15,1,Pin_1*%
%TO.N,/LDO_EN*%
X127127000Y-98171000D03*
%TD*%
%TO.P,POGO13,1,Pin_1*%
%TO.N,/POWER_VBAT*%
X129921000Y-88773000D03*
%TD*%
D16*
%TO.P,J3,1,VTref*%
%TO.N,/VTREF*%
X98470000Y-107315000D03*
%TO.P,J3,2,SWDIO/TMS*%
%TO.N,/SWDIO*%
X94570000Y-107315000D03*
%TO.P,J3,3,GND*%
%TO.N,Net-(J3-Pad3)*%
X98470000Y-106045000D03*
%TO.P,J3,4,SWDCLK/TCK*%
%TO.N,/SWDCLK*%
X94570000Y-106045000D03*
%TO.P,J3,5,GND*%
%TO.N,Net-(J3-Pad3)*%
X98470000Y-104775000D03*
%TO.P,J3,6,SWO/TDO*%
%TO.N,/SWO*%
X94570000Y-104775000D03*
%TO.P,J3,7,KEY*%
%TO.N,unconnected-(J3-Pad7)*%
X98470000Y-103505000D03*
%TO.P,J3,8,NC/TDI*%
%TO.N,Net-(J3-Pad8)*%
X94570000Y-103505000D03*
%TO.P,J3,9,GNDDetect*%
%TO.N,Net-(J3-Pad9)*%
X98470000Y-102235000D03*
%TO.P,J3,10,~{RESET}*%
%TO.N,/RESET*%
X94570000Y-102235000D03*
%TD*%
D12*
%TO.P,POGO17,1,Pin_1*%
%TO.N,/DEC_CAP*%
X111887000Y-98552000D03*
%TD*%
D15*
%TO.P,PDM_DATA1,1,1*%
%TO.N,/PDM_DATA*%
X104902000Y-110236000D03*
%TD*%
%TO.P,SPI_MISO1,1,1*%
%TO.N,/SPI_MISO*%
X124968000Y-112649000D03*
%TD*%
D12*
%TO.P,POGO18,1,Pin_1*%
%TO.N,Net-(J3-Pad8)*%
X106680000Y-91440000D03*
%TD*%
D15*
%TO.P,P3.3V1,1,1*%
%TO.N,/P3.3V*%
X129159000Y-106553000D03*
%TD*%
%TO.P,SPI_CS1,1,1*%
%TO.N,/SPI_CS*%
X122174000Y-109093000D03*
%TD*%
D12*
%TO.P,POGO1,1,Pin_1*%
%TO.N,/UART_RX*%
X114173000Y-87122000D03*
%TD*%
%TO.P,POGO2,1,Pin_1*%
%TO.N,/VTREF*%
X101473000Y-95377000D03*
%TD*%
%TO.P,POGO14,1,Pin_1*%
%TO.N,GNDD*%
X118618000Y-86868000D03*
%TD*%
D13*
%TO.P,J2,1,Pin_1*%
%TO.N,GNDD*%
X141986000Y-109093000D03*
D14*
%TO.P,J2,2,Pin_2*%
%TO.N,/POWER_VBAT*%
X141986000Y-106553000D03*
%TD*%
D12*
%TO.P,POGO21,1,Pin_1*%
%TO.N,/SWDCLK*%
X106680000Y-93980000D03*
%TD*%
%TO.P,POGO20,1,Pin_1*%
%TO.N,/RESET*%
X105410000Y-90297000D03*
%TD*%
D15*
%TO.P,DEC_CAP1,1,1*%
%TO.N,/DEC_CAP*%
X112776000Y-106680000D03*
%TD*%
D12*
%TO.P,POGO9,1,Pin_1*%
%TO.N,/SPI_CS*%
X125222000Y-87376000D03*
%TD*%
%TO.P,POGO12,1,Pin_1*%
%TO.N,/PDM_DATA*%
X103886000Y-98171000D03*
%TD*%
%TO.P,POGO6,1,Pin_1*%
%TO.N,GNDD*%
X130048000Y-91694000D03*
%TD*%
D15*
%TO.P,SPI_CLK1,1,1*%
%TO.N,/SPI_CLK*%
X116078000Y-109220000D03*
%TD*%
%TO.P,LDO_EN1,1,1*%
%TO.N,/LDO_EN*%
X133096000Y-106426000D03*
%TD*%
D13*
%TO.P,J5,1,Pin_1*%
%TO.N,GNDD*%
X129159000Y-120650000D03*
%TD*%
D12*
%TO.P,POGO23,1,Pin_1*%
%TO.N,/SWO*%
X105410000Y-92837000D03*
%TD*%
%TO.P,POGO8,1,Pin_1*%
%TO.N,/SPI_MISO*%
X127635000Y-87376000D03*
%TD*%
%TO.P,POGO4,1,Pin_1*%
%TO.N,Net-(J3-Pad9)*%
X101854000Y-90170000D03*
%TD*%
D13*
%TO.P,J4,1,Pin_1*%
%TO.N,GNDD*%
X110744000Y-121158000D03*
%TD*%
D12*
%TO.P,POGO22,1,Pin_1*%
%TO.N,/SWDIO*%
X105410000Y-95377000D03*
%TD*%
%TO.P,POGO3,1,Pin_1*%
%TO.N,Net-(J3-Pad3)*%
X102743000Y-94107000D03*
%TD*%
D17*
%TO.N,/SWDIO*%
X92075000Y-108204000D03*
%TO.N,/SWDCLK*%
X92075000Y-106045000D03*
%TO.N,/P3.3V*%
X129159000Y-106553000D03*
%TD*%
D18*
%TO.N,/CHRG_IN*%
X139700000Y-97155000D02*
X139700000Y-102743000D01*
X137033000Y-94488000D02*
X139700000Y-97155000D01*
D19*
%TO.N,/POWER_VBAT*%
X141986000Y-92075000D02*
X138684000Y-88773000D01*
X138684000Y-88773000D02*
X129921000Y-88773000D01*
X141986000Y-106553000D02*
X141986000Y-92075000D01*
D18*
%TO.N,/VTREF*%
X102362000Y-96266000D02*
X101473000Y-95377000D01*
X100965000Y-107315000D02*
X102362000Y-105918000D01*
X102362000Y-105918000D02*
X102362000Y-96266000D01*
X98470000Y-107315000D02*
X100965000Y-107315000D01*
%TO.N,/SWDIO*%
X92964000Y-107315000D02*
X92075000Y-108204000D01*
X94570000Y-107315000D02*
X92964000Y-107315000D01*
%TO.N,/SWDCLK*%
X94570000Y-106045000D02*
X92075000Y-106045000D01*
X92075000Y-106045000D02*
X91948000Y-106045000D01*
%TO.N,/SWO*%
X99070040Y-88254960D02*
X106923960Y-88254960D01*
X106923960Y-88254960D02*
X107950000Y-89281000D01*
X107950000Y-89281000D02*
X107950000Y-91694000D01*
X107950000Y-91694000D02*
X106807000Y-92837000D01*
X94570000Y-104775000D02*
X93218000Y-104775000D01*
X90736480Y-96588520D02*
X99070040Y-88254960D01*
X93218000Y-104775000D02*
X90736480Y-102293480D01*
X106807000Y-92837000D02*
X105410000Y-92837000D01*
X90736480Y-102293480D02*
X90736480Y-96588520D01*
%TO.N,/RESET*%
X94570000Y-102235000D02*
X93091000Y-102235000D01*
X91948000Y-97282000D02*
X100076000Y-89154000D01*
X104267000Y-89154000D02*
X105410000Y-90297000D01*
X100076000Y-89154000D02*
X104267000Y-89154000D01*
X93091000Y-102235000D02*
X91948000Y-101092000D01*
X91948000Y-101092000D02*
X91948000Y-97282000D01*
%TO.N,/SPI_MOSI*%
X119126000Y-112522000D02*
X119126000Y-105791000D01*
X119126000Y-105791000D02*
X124206000Y-100711000D01*
X124206000Y-100711000D02*
X124206000Y-93599000D01*
%TO.N,/SPI_MISO*%
X125984000Y-89027000D02*
X127635000Y-87376000D01*
X124968000Y-112649000D02*
X125984000Y-111633000D01*
X125984000Y-111633000D02*
X125984000Y-89027000D01*
%TO.N,/SPI_CS*%
X122174000Y-104648000D02*
X125222000Y-101600000D01*
X125222000Y-101600000D02*
X125222000Y-87376000D01*
X122174000Y-109093000D02*
X122174000Y-104648000D01*
%TO.N,/SPI_CLK*%
X120269000Y-101346000D02*
X120269000Y-92456000D01*
X116078000Y-109220000D02*
X116078000Y-105537000D01*
X116078000Y-105537000D02*
X120269000Y-101346000D01*
X120269000Y-92456000D02*
X122555000Y-90170000D01*
%TO.N,/PDM_CLK*%
X108077000Y-110363000D02*
X108077000Y-100203000D01*
X108077000Y-100203000D02*
X106045000Y-98171000D01*
%TO.N,/PDM_DATA*%
X103886000Y-109220000D02*
X104902000Y-110236000D01*
X103886000Y-98171000D02*
X103886000Y-109220000D01*
%TO.N,/LDO_EN*%
X133096000Y-106426000D02*
X127127000Y-100457000D01*
X127127000Y-100457000D02*
X127127000Y-98171000D01*
%TO.N,/DEC_CAP*%
X112776000Y-106680000D02*
X112776000Y-99441000D01*
X112776000Y-99441000D02*
X111887000Y-98552000D01*
%TO.N,Net-(J3-Pad9)*%
X100330000Y-97409000D02*
X99187000Y-96266000D01*
X99187000Y-96266000D02*
X99187000Y-95377000D01*
X100330000Y-101346000D02*
X100330000Y-97409000D01*
X101854000Y-92710000D02*
X101854000Y-90170000D01*
X98470000Y-102235000D02*
X99441000Y-102235000D01*
X99187000Y-95377000D02*
X101854000Y-92710000D01*
X99441000Y-102235000D02*
X100330000Y-101346000D01*
%TO.N,Net-(J3-Pad8)*%
X93091000Y-103505000D02*
X91186000Y-101600000D01*
X106680000Y-89154000D02*
X106680000Y-91440000D01*
X91186000Y-97155000D02*
X99636520Y-88704480D01*
X106230480Y-88704480D02*
X106680000Y-89154000D01*
X99636520Y-88704480D02*
X106230480Y-88704480D01*
X94570000Y-103505000D02*
X93091000Y-103505000D01*
X91186000Y-101600000D02*
X91186000Y-97155000D01*
%TO.N,Net-(J3-Pad3)*%
X99822000Y-95504000D02*
X100330000Y-94996000D01*
X101727000Y-105410000D02*
X101727000Y-97155000D01*
X100584000Y-104775000D02*
X100965000Y-104394000D01*
X100965000Y-97155000D02*
X99822000Y-96012000D01*
X101219000Y-94107000D02*
X102743000Y-94107000D01*
X98470000Y-106045000D02*
X101092000Y-106045000D01*
X101092000Y-106045000D02*
X101727000Y-105410000D01*
X100330000Y-94996000D02*
X101219000Y-94107000D01*
X100965000Y-104394000D02*
X100965000Y-97155000D01*
X100330000Y-95758000D02*
X100330000Y-94996000D01*
X99822000Y-96012000D02*
X99822000Y-95504000D01*
X101727000Y-97155000D02*
X100330000Y-95758000D01*
X98470000Y-104775000D02*
X100584000Y-104775000D01*
%TD*%
%TA.AperFunction,Conductor*%
%TO.N,GNDD*%
G36*
X105587907Y-81554502D02*
G01*
X105634400Y-81608158D01*
X105645786Y-81660500D01*
X105645786Y-85507000D01*
X118311419Y-85507000D01*
X118379540Y-85527002D01*
X118426033Y-85580658D01*
X118436137Y-85650932D01*
X118406643Y-85715512D01*
X118346917Y-85753896D01*
X118332756Y-85757180D01*
X118326600Y-85758238D01*
X118315479Y-85761218D01*
X118129234Y-85829927D01*
X118118856Y-85834877D01*
X118024849Y-85890806D01*
X118015251Y-85901139D01*
X118018738Y-85909528D01*
X118605188Y-86495978D01*
X118619132Y-86503592D01*
X118620965Y-86503461D01*
X118627580Y-86499210D01*
X119213657Y-85913133D01*
X119220417Y-85900753D01*
X119214387Y-85892698D01*
X119144020Y-85848299D01*
X119133769Y-85843076D01*
X118949389Y-85769516D01*
X118938352Y-85766247D01*
X118889751Y-85756579D01*
X118826842Y-85723671D01*
X118791710Y-85661976D01*
X118795510Y-85591081D01*
X118837036Y-85533495D01*
X118903103Y-85507501D01*
X118914333Y-85507000D01*
X128034215Y-85507000D01*
X128034215Y-81660500D01*
X128054217Y-81592379D01*
X128107873Y-81545886D01*
X128160215Y-81534500D01*
X141768839Y-81534500D01*
X141836960Y-81554502D01*
X141883453Y-81608158D01*
X141893557Y-81678432D01*
X141864063Y-81743012D01*
X141852164Y-81755014D01*
X141797383Y-81803310D01*
X141750262Y-81844853D01*
X141591076Y-82038649D01*
X141464922Y-82255404D01*
X141463109Y-82260127D01*
X141463108Y-82260129D01*
X141453297Y-82285687D01*
X141375045Y-82489539D01*
X141374012Y-82494485D01*
X141374010Y-82494491D01*
X141330490Y-82702814D01*
X141323759Y-82735033D01*
X141323530Y-82740082D01*
X141323529Y-82740088D01*
X141322884Y-82754301D01*
X141312382Y-82985568D01*
X141312963Y-82990588D01*
X141312963Y-82990592D01*
X141325924Y-83102607D01*
X141341208Y-83234699D01*
X141409494Y-83476017D01*
X141411628Y-83480592D01*
X141411630Y-83480599D01*
X141504343Y-83679422D01*
X141515484Y-83703313D01*
X141518326Y-83707494D01*
X141518326Y-83707495D01*
X141653605Y-83906552D01*
X141653608Y-83906556D01*
X141656451Y-83910739D01*
X141659928Y-83914416D01*
X141659929Y-83914417D01*
X141760238Y-84020491D01*
X141828767Y-84092959D01*
X141832793Y-84096037D01*
X141832794Y-84096038D01*
X142023981Y-84242212D01*
X142023985Y-84242215D01*
X142028001Y-84245285D01*
X142032459Y-84247675D01*
X142032460Y-84247676D01*
X142153723Y-84312696D01*
X142249026Y-84363797D01*
X142253807Y-84365443D01*
X142253811Y-84365445D01*
X142473073Y-84440943D01*
X142486156Y-84445448D01*
X142589689Y-84463331D01*
X142729380Y-84487460D01*
X142729386Y-84487461D01*
X142733290Y-84488135D01*
X142737251Y-84488315D01*
X142737252Y-84488315D01*
X142761931Y-84489436D01*
X142761950Y-84489436D01*
X142763350Y-84489500D01*
X142938015Y-84489500D01*
X142940523Y-84489298D01*
X142940528Y-84489298D01*
X143119944Y-84474863D01*
X143119949Y-84474862D01*
X143124985Y-84474457D01*
X143129893Y-84473252D01*
X143129896Y-84473251D01*
X143363625Y-84415841D01*
X143368539Y-84414634D01*
X143373191Y-84412659D01*
X143373195Y-84412658D01*
X143594741Y-84318617D01*
X143594742Y-84318617D01*
X143599396Y-84316641D01*
X143811615Y-84183000D01*
X143999738Y-84017147D01*
X144048138Y-83958224D01*
X144106830Y-83918283D01*
X144177802Y-83916413D01*
X144238518Y-83953210D01*
X144269702Y-84016992D01*
X144271500Y-84038202D01*
X144271500Y-120217413D01*
X144251498Y-120285534D01*
X144197842Y-120332027D01*
X144127568Y-120342131D01*
X144062988Y-120312637D01*
X144041288Y-120288236D01*
X143969395Y-120182448D01*
X143969392Y-120182444D01*
X143966549Y-120178261D01*
X143865925Y-120071853D01*
X143797713Y-119999721D01*
X143794233Y-119996041D01*
X143720562Y-119939715D01*
X143599019Y-119846788D01*
X143599015Y-119846785D01*
X143594999Y-119843715D01*
X143514163Y-119800371D01*
X143378435Y-119727595D01*
X143373974Y-119725203D01*
X143369193Y-119723557D01*
X143369189Y-119723555D01*
X143141633Y-119645201D01*
X143136844Y-119643552D01*
X143033311Y-119625669D01*
X142893620Y-119601540D01*
X142893614Y-119601539D01*
X142889710Y-119600865D01*
X142885749Y-119600685D01*
X142885748Y-119600685D01*
X142861069Y-119599564D01*
X142861050Y-119599564D01*
X142859650Y-119599500D01*
X142684985Y-119599500D01*
X142682477Y-119599702D01*
X142682472Y-119599702D01*
X142503056Y-119614137D01*
X142503051Y-119614138D01*
X142498015Y-119614543D01*
X142493107Y-119615748D01*
X142493104Y-119615749D01*
X142261326Y-119672680D01*
X142254461Y-119674366D01*
X142249809Y-119676341D01*
X142249805Y-119676342D01*
X142063719Y-119755331D01*
X142023604Y-119772359D01*
X141811385Y-119906000D01*
X141623262Y-120071853D01*
X141464076Y-120265649D01*
X141337922Y-120482404D01*
X141336109Y-120487127D01*
X141336108Y-120487129D01*
X141309467Y-120556530D01*
X141248045Y-120716539D01*
X141247012Y-120721485D01*
X141247010Y-120721491D01*
X141208282Y-120906876D01*
X141196759Y-120962033D01*
X141185382Y-121212568D01*
X141214208Y-121461699D01*
X141215587Y-121466573D01*
X141215588Y-121466577D01*
X141258325Y-121617606D01*
X141282494Y-121703017D01*
X141284628Y-121707592D01*
X141284630Y-121707599D01*
X141362526Y-121874646D01*
X141388484Y-121930313D01*
X141391326Y-121934494D01*
X141391326Y-121934495D01*
X141526605Y-122133552D01*
X141526608Y-122133556D01*
X141529451Y-122137739D01*
X141532928Y-122141416D01*
X141532929Y-122141417D01*
X141631879Y-122246054D01*
X141701767Y-122319959D01*
X141705793Y-122323037D01*
X141705794Y-122323038D01*
X141896981Y-122469212D01*
X141896985Y-122469215D01*
X141901001Y-122472285D01*
X141905459Y-122474675D01*
X141905460Y-122474676D01*
X142029048Y-122540943D01*
X142122026Y-122590797D01*
X142126807Y-122592443D01*
X142126811Y-122592445D01*
X142352538Y-122670169D01*
X142359156Y-122672448D01*
X142433788Y-122685339D01*
X142497510Y-122716643D01*
X142534192Y-122777430D01*
X142532188Y-122848398D01*
X142492133Y-122907016D01*
X142426745Y-122934674D01*
X142412342Y-122935500D01*
X91270340Y-122935500D01*
X91202219Y-122915498D01*
X91155726Y-122861842D01*
X91145622Y-122791568D01*
X91175116Y-122726988D01*
X91240285Y-122687137D01*
X91420625Y-122642841D01*
X91425539Y-122641634D01*
X91430191Y-122639659D01*
X91430195Y-122639658D01*
X91651741Y-122545617D01*
X91651742Y-122545617D01*
X91656396Y-122543641D01*
X91868615Y-122410000D01*
X92056738Y-122244147D01*
X92214020Y-122052669D01*
X109386001Y-122052669D01*
X109386371Y-122059490D01*
X109391895Y-122110352D01*
X109395521Y-122125604D01*
X109440676Y-122246054D01*
X109449214Y-122261649D01*
X109525715Y-122363724D01*
X109538276Y-122376285D01*
X109640351Y-122452786D01*
X109655946Y-122461324D01*
X109776394Y-122506478D01*
X109791649Y-122510105D01*
X109842514Y-122515631D01*
X109849328Y-122516000D01*
X110471885Y-122516000D01*
X110487124Y-122511525D01*
X110488329Y-122510135D01*
X110490000Y-122502452D01*
X110490000Y-122497884D01*
X110998000Y-122497884D01*
X111002475Y-122513123D01*
X111003865Y-122514328D01*
X111011548Y-122515999D01*
X111638669Y-122515999D01*
X111645490Y-122515629D01*
X111696352Y-122510105D01*
X111711604Y-122506479D01*
X111832054Y-122461324D01*
X111847649Y-122452786D01*
X111949724Y-122376285D01*
X111962285Y-122363724D01*
X112038786Y-122261649D01*
X112047324Y-122246054D01*
X112092478Y-122125606D01*
X112096105Y-122110351D01*
X112101631Y-122059486D01*
X112102000Y-122052672D01*
X112102000Y-121544669D01*
X127801001Y-121544669D01*
X127801371Y-121551490D01*
X127806895Y-121602352D01*
X127810521Y-121617604D01*
X127855676Y-121738054D01*
X127864214Y-121753649D01*
X127940715Y-121855724D01*
X127953276Y-121868285D01*
X128055351Y-121944786D01*
X128070946Y-121953324D01*
X128191394Y-121998478D01*
X128206649Y-122002105D01*
X128257514Y-122007631D01*
X128264328Y-122008000D01*
X128886885Y-122008000D01*
X128902124Y-122003525D01*
X128903329Y-122002135D01*
X128905000Y-121994452D01*
X128905000Y-121989884D01*
X129413000Y-121989884D01*
X129417475Y-122005123D01*
X129418865Y-122006328D01*
X129426548Y-122007999D01*
X130053669Y-122007999D01*
X130060490Y-122007629D01*
X130111352Y-122002105D01*
X130126604Y-121998479D01*
X130247054Y-121953324D01*
X130262649Y-121944786D01*
X130364724Y-121868285D01*
X130377285Y-121855724D01*
X130453786Y-121753649D01*
X130462324Y-121738054D01*
X130507478Y-121617606D01*
X130511105Y-121602351D01*
X130516631Y-121551486D01*
X130517000Y-121544672D01*
X130517000Y-121544669D01*
X135040001Y-121544669D01*
X135040371Y-121551490D01*
X135045895Y-121602352D01*
X135049521Y-121617604D01*
X135094676Y-121738054D01*
X135103214Y-121753649D01*
X135179715Y-121855724D01*
X135192276Y-121868285D01*
X135294351Y-121944786D01*
X135309946Y-121953324D01*
X135430394Y-121998478D01*
X135445649Y-122002105D01*
X135496514Y-122007631D01*
X135503328Y-122008000D01*
X136125885Y-122008000D01*
X136141124Y-122003525D01*
X136142329Y-122002135D01*
X136144000Y-121994452D01*
X136144000Y-121989884D01*
X136652000Y-121989884D01*
X136656475Y-122005123D01*
X136657865Y-122006328D01*
X136665548Y-122007999D01*
X137292669Y-122007999D01*
X137299490Y-122007629D01*
X137350352Y-122002105D01*
X137365604Y-121998479D01*
X137486054Y-121953324D01*
X137501649Y-121944786D01*
X137603724Y-121868285D01*
X137616285Y-121855724D01*
X137692786Y-121753649D01*
X137701324Y-121738054D01*
X137746478Y-121617606D01*
X137750105Y-121602351D01*
X137755631Y-121551486D01*
X137756000Y-121544672D01*
X137756000Y-120922115D01*
X137751525Y-120906876D01*
X137750135Y-120905671D01*
X137742452Y-120904000D01*
X136670115Y-120904000D01*
X136654876Y-120908475D01*
X136653671Y-120909865D01*
X136652000Y-120917548D01*
X136652000Y-121989884D01*
X136144000Y-121989884D01*
X136144000Y-120922115D01*
X136139525Y-120906876D01*
X136138135Y-120905671D01*
X136130452Y-120904000D01*
X135058116Y-120904000D01*
X135042877Y-120908475D01*
X135041672Y-120909865D01*
X135040001Y-120917548D01*
X135040001Y-121544669D01*
X130517000Y-121544669D01*
X130517000Y-120922115D01*
X130512525Y-120906876D01*
X130511135Y-120905671D01*
X130503452Y-120904000D01*
X129431115Y-120904000D01*
X129415876Y-120908475D01*
X129414671Y-120909865D01*
X129413000Y-120917548D01*
X129413000Y-121989884D01*
X128905000Y-121989884D01*
X128905000Y-120922115D01*
X128900525Y-120906876D01*
X128899135Y-120905671D01*
X128891452Y-120904000D01*
X127819116Y-120904000D01*
X127803877Y-120908475D01*
X127802672Y-120909865D01*
X127801001Y-120917548D01*
X127801001Y-121544669D01*
X112102000Y-121544669D01*
X112102000Y-121430115D01*
X112097525Y-121414876D01*
X112096135Y-121413671D01*
X112088452Y-121412000D01*
X111016115Y-121412000D01*
X111000876Y-121416475D01*
X110999671Y-121417865D01*
X110998000Y-121425548D01*
X110998000Y-122497884D01*
X110490000Y-122497884D01*
X110490000Y-121430115D01*
X110485525Y-121414876D01*
X110484135Y-121413671D01*
X110476452Y-121412000D01*
X109404116Y-121412000D01*
X109388877Y-121416475D01*
X109387672Y-121417865D01*
X109386001Y-121425548D01*
X109386001Y-122052669D01*
X92214020Y-122052669D01*
X92215924Y-122050351D01*
X92342078Y-121833596D01*
X92374196Y-121749928D01*
X92430143Y-121604181D01*
X92431955Y-121599461D01*
X92441978Y-121551486D01*
X92482206Y-121358921D01*
X92483241Y-121353967D01*
X92494618Y-121103432D01*
X92469446Y-120885885D01*
X109386000Y-120885885D01*
X109390475Y-120901124D01*
X109391865Y-120902329D01*
X109399548Y-120904000D01*
X110471885Y-120904000D01*
X110487124Y-120899525D01*
X110488329Y-120898135D01*
X110490000Y-120890452D01*
X110490000Y-120885885D01*
X110998000Y-120885885D01*
X111002475Y-120901124D01*
X111003865Y-120902329D01*
X111011548Y-120904000D01*
X112083884Y-120904000D01*
X112099123Y-120899525D01*
X112100328Y-120898135D01*
X112101999Y-120890452D01*
X112101999Y-120377885D01*
X127801000Y-120377885D01*
X127805475Y-120393124D01*
X127806865Y-120394329D01*
X127814548Y-120396000D01*
X128886885Y-120396000D01*
X128902124Y-120391525D01*
X128903329Y-120390135D01*
X128905000Y-120382452D01*
X128905000Y-120377885D01*
X129413000Y-120377885D01*
X129417475Y-120393124D01*
X129418865Y-120394329D01*
X129426548Y-120396000D01*
X130498884Y-120396000D01*
X130514123Y-120391525D01*
X130515328Y-120390135D01*
X130516999Y-120382452D01*
X130516999Y-120377885D01*
X135040000Y-120377885D01*
X135044475Y-120393124D01*
X135045865Y-120394329D01*
X135053548Y-120396000D01*
X136125885Y-120396000D01*
X136141124Y-120391525D01*
X136142329Y-120390135D01*
X136144000Y-120382452D01*
X136144000Y-120377885D01*
X136652000Y-120377885D01*
X136656475Y-120393124D01*
X136657865Y-120394329D01*
X136665548Y-120396000D01*
X137737884Y-120396000D01*
X137753123Y-120391525D01*
X137754328Y-120390135D01*
X137755999Y-120382452D01*
X137755999Y-119755331D01*
X137755629Y-119748510D01*
X137750105Y-119697648D01*
X137746479Y-119682396D01*
X137701324Y-119561946D01*
X137692786Y-119546351D01*
X137616285Y-119444276D01*
X137603724Y-119431715D01*
X137501649Y-119355214D01*
X137486054Y-119346676D01*
X137365606Y-119301522D01*
X137350351Y-119297895D01*
X137299486Y-119292369D01*
X137292672Y-119292000D01*
X136670115Y-119292000D01*
X136654876Y-119296475D01*
X136653671Y-119297865D01*
X136652000Y-119305548D01*
X136652000Y-120377885D01*
X136144000Y-120377885D01*
X136144000Y-119310116D01*
X136139525Y-119294877D01*
X136138135Y-119293672D01*
X136130452Y-119292001D01*
X135503331Y-119292001D01*
X135496510Y-119292371D01*
X135445648Y-119297895D01*
X135430396Y-119301521D01*
X135309946Y-119346676D01*
X135294351Y-119355214D01*
X135192276Y-119431715D01*
X135179715Y-119444276D01*
X135103214Y-119546351D01*
X135094676Y-119561946D01*
X135049522Y-119682394D01*
X135045895Y-119697649D01*
X135040369Y-119748514D01*
X135040000Y-119755328D01*
X135040000Y-120377885D01*
X130516999Y-120377885D01*
X130516999Y-119755331D01*
X130516629Y-119748510D01*
X130511105Y-119697648D01*
X130507479Y-119682396D01*
X130462324Y-119561946D01*
X130453786Y-119546351D01*
X130377285Y-119444276D01*
X130364724Y-119431715D01*
X130262649Y-119355214D01*
X130247054Y-119346676D01*
X130126606Y-119301522D01*
X130111351Y-119297895D01*
X130060486Y-119292369D01*
X130053672Y-119292000D01*
X129431115Y-119292000D01*
X129415876Y-119296475D01*
X129414671Y-119297865D01*
X129413000Y-119305548D01*
X129413000Y-120377885D01*
X128905000Y-120377885D01*
X128905000Y-119310116D01*
X128900525Y-119294877D01*
X128899135Y-119293672D01*
X128891452Y-119292001D01*
X128264331Y-119292001D01*
X128257510Y-119292371D01*
X128206648Y-119297895D01*
X128191396Y-119301521D01*
X128070946Y-119346676D01*
X128055351Y-119355214D01*
X127953276Y-119431715D01*
X127940715Y-119444276D01*
X127864214Y-119546351D01*
X127855676Y-119561946D01*
X127810522Y-119682394D01*
X127806895Y-119697649D01*
X127801369Y-119748514D01*
X127801000Y-119755328D01*
X127801000Y-120377885D01*
X112101999Y-120377885D01*
X112101999Y-120263331D01*
X112101629Y-120256510D01*
X112096105Y-120205648D01*
X112092479Y-120190396D01*
X112047324Y-120069946D01*
X112038786Y-120054351D01*
X111962285Y-119952276D01*
X111949724Y-119939715D01*
X111847649Y-119863214D01*
X111832054Y-119854676D01*
X111711606Y-119809522D01*
X111696351Y-119805895D01*
X111645486Y-119800369D01*
X111638672Y-119800000D01*
X111016115Y-119800000D01*
X111000876Y-119804475D01*
X110999671Y-119805865D01*
X110998000Y-119813548D01*
X110998000Y-120885885D01*
X110490000Y-120885885D01*
X110490000Y-119818116D01*
X110485525Y-119802877D01*
X110484135Y-119801672D01*
X110476452Y-119800001D01*
X109849331Y-119800001D01*
X109842510Y-119800371D01*
X109791648Y-119805895D01*
X109776396Y-119809521D01*
X109655946Y-119854676D01*
X109640351Y-119863214D01*
X109538276Y-119939715D01*
X109525715Y-119952276D01*
X109449214Y-120054351D01*
X109440676Y-120069946D01*
X109395522Y-120190394D01*
X109391895Y-120205649D01*
X109386369Y-120256514D01*
X109386000Y-120263328D01*
X109386000Y-120885885D01*
X92469446Y-120885885D01*
X92465792Y-120854301D01*
X92426810Y-120716539D01*
X92398884Y-120617852D01*
X92398883Y-120617850D01*
X92397506Y-120612983D01*
X92395372Y-120608408D01*
X92395370Y-120608401D01*
X92293653Y-120390269D01*
X92293651Y-120390265D01*
X92291516Y-120385687D01*
X92223452Y-120285534D01*
X92153395Y-120182448D01*
X92153392Y-120182444D01*
X92150549Y-120178261D01*
X92049925Y-120071853D01*
X91981713Y-119999721D01*
X91978233Y-119996041D01*
X91904562Y-119939715D01*
X91783019Y-119846788D01*
X91783015Y-119846785D01*
X91778999Y-119843715D01*
X91698163Y-119800371D01*
X91562435Y-119727595D01*
X91557974Y-119725203D01*
X91553193Y-119723557D01*
X91553189Y-119723555D01*
X91325633Y-119645201D01*
X91320844Y-119643552D01*
X91217311Y-119625669D01*
X91077620Y-119601540D01*
X91077614Y-119601539D01*
X91073710Y-119600865D01*
X91069749Y-119600685D01*
X91069748Y-119600685D01*
X91045069Y-119599564D01*
X91045050Y-119599564D01*
X91043650Y-119599500D01*
X90868985Y-119599500D01*
X90866477Y-119599702D01*
X90866472Y-119599702D01*
X90687056Y-119614137D01*
X90687051Y-119614138D01*
X90682015Y-119614543D01*
X90677107Y-119615748D01*
X90677104Y-119615749D01*
X90445326Y-119672680D01*
X90438461Y-119674366D01*
X90433809Y-119676341D01*
X90433805Y-119676342D01*
X90247719Y-119755331D01*
X90207604Y-119772359D01*
X89995385Y-119906000D01*
X89807262Y-120071853D01*
X89648076Y-120265649D01*
X89521922Y-120482404D01*
X89520776Y-120485388D01*
X89473657Y-120537786D01*
X89405179Y-120556530D01*
X89337439Y-120535276D01*
X89291942Y-120480774D01*
X89281500Y-120430551D01*
X89281500Y-116933695D01*
X92983251Y-116933695D01*
X92996110Y-117156715D01*
X92997247Y-117161761D01*
X92997248Y-117161767D01*
X93011606Y-117225475D01*
X93045222Y-117374639D01*
X93129266Y-117581616D01*
X93180942Y-117665944D01*
X93243291Y-117767688D01*
X93245987Y-117772088D01*
X93392250Y-117940938D01*
X93564126Y-118083632D01*
X93757000Y-118196338D01*
X93965692Y-118276030D01*
X93970760Y-118277061D01*
X93970763Y-118277062D01*
X94078017Y-118298883D01*
X94184597Y-118320567D01*
X94189772Y-118320757D01*
X94189774Y-118320757D01*
X94402673Y-118328564D01*
X94402677Y-118328564D01*
X94407837Y-118328753D01*
X94412957Y-118328097D01*
X94412959Y-118328097D01*
X94624288Y-118301025D01*
X94624289Y-118301025D01*
X94629416Y-118300368D01*
X94634366Y-118298883D01*
X94838429Y-118237661D01*
X94838434Y-118237659D01*
X94843384Y-118236174D01*
X95043994Y-118137896D01*
X95225860Y-118008173D01*
X95384096Y-117850489D01*
X95443594Y-117767689D01*
X95514453Y-117669077D01*
X95515776Y-117670028D01*
X95562645Y-117626857D01*
X95632580Y-117614625D01*
X95698026Y-117642144D01*
X95725875Y-117673994D01*
X95785987Y-117772088D01*
X95932250Y-117940938D01*
X96104126Y-118083632D01*
X96297000Y-118196338D01*
X96505692Y-118276030D01*
X96510760Y-118277061D01*
X96510763Y-118277062D01*
X96618017Y-118298883D01*
X96724597Y-118320567D01*
X96729772Y-118320757D01*
X96729774Y-118320757D01*
X96942673Y-118328564D01*
X96942677Y-118328564D01*
X96947837Y-118328753D01*
X96952957Y-118328097D01*
X96952959Y-118328097D01*
X97164288Y-118301025D01*
X97164289Y-118301025D01*
X97169416Y-118300368D01*
X97174366Y-118298883D01*
X97378429Y-118237661D01*
X97378434Y-118237659D01*
X97383384Y-118236174D01*
X97583994Y-118137896D01*
X97765860Y-118008173D01*
X97833331Y-117940938D01*
X97874479Y-117899933D01*
X97936851Y-117866017D01*
X98007658Y-117871205D01*
X98064419Y-117913851D01*
X98081401Y-117944954D01*
X98122676Y-118055054D01*
X98131214Y-118070649D01*
X98207715Y-118172724D01*
X98220276Y-118185285D01*
X98322351Y-118261786D01*
X98337946Y-118270324D01*
X98458394Y-118315478D01*
X98473649Y-118319105D01*
X98524514Y-118324631D01*
X98531328Y-118325000D01*
X99153885Y-118325000D01*
X99169124Y-118320525D01*
X99170329Y-118319135D01*
X99172000Y-118311452D01*
X99172000Y-118306884D01*
X99680000Y-118306884D01*
X99684475Y-118322123D01*
X99685865Y-118323328D01*
X99693548Y-118324999D01*
X100320669Y-118324999D01*
X100327490Y-118324629D01*
X100378352Y-118319105D01*
X100393604Y-118315479D01*
X100514054Y-118270324D01*
X100529649Y-118261786D01*
X100631724Y-118185285D01*
X100644285Y-118172724D01*
X100720786Y-118070649D01*
X100729324Y-118055054D01*
X100774478Y-117934606D01*
X100778105Y-117919351D01*
X100783631Y-117868486D01*
X100784000Y-117861672D01*
X100784000Y-117239115D01*
X100779525Y-117223876D01*
X100778135Y-117222671D01*
X100770452Y-117221000D01*
X99698115Y-117221000D01*
X99682876Y-117225475D01*
X99681671Y-117226865D01*
X99680000Y-117234548D01*
X99680000Y-118306884D01*
X99172000Y-118306884D01*
X99172000Y-116694885D01*
X99680000Y-116694885D01*
X99684475Y-116710124D01*
X99685865Y-116711329D01*
X99693548Y-116713000D01*
X100765884Y-116713000D01*
X100781123Y-116708525D01*
X100782328Y-116707135D01*
X100783999Y-116699452D01*
X100783999Y-116072331D01*
X100783629Y-116065510D01*
X100778105Y-116014648D01*
X100774479Y-115999396D01*
X100729324Y-115878946D01*
X100720786Y-115863351D01*
X100644285Y-115761276D01*
X100631724Y-115748715D01*
X100529649Y-115672214D01*
X100514054Y-115663676D01*
X100393606Y-115618522D01*
X100378351Y-115614895D01*
X100327486Y-115609369D01*
X100320672Y-115609000D01*
X99698115Y-115609000D01*
X99682876Y-115613475D01*
X99681671Y-115614865D01*
X99680000Y-115622548D01*
X99680000Y-116694885D01*
X99172000Y-116694885D01*
X99172000Y-115627116D01*
X99167525Y-115611877D01*
X99166135Y-115610672D01*
X99158452Y-115609001D01*
X98531331Y-115609001D01*
X98524510Y-115609371D01*
X98473648Y-115614895D01*
X98458396Y-115618521D01*
X98337946Y-115663676D01*
X98322351Y-115672214D01*
X98220276Y-115748715D01*
X98207715Y-115761276D01*
X98131214Y-115863351D01*
X98122676Y-115878946D01*
X98081297Y-115989322D01*
X98038655Y-116046087D01*
X97972093Y-116070786D01*
X97902744Y-116055578D01*
X97870121Y-116029891D01*
X97819151Y-115973876D01*
X97819145Y-115973870D01*
X97815670Y-115970051D01*
X97811619Y-115966852D01*
X97811615Y-115966848D01*
X97644414Y-115834800D01*
X97644410Y-115834798D01*
X97640359Y-115831598D01*
X97444789Y-115723638D01*
X97439920Y-115721914D01*
X97439916Y-115721912D01*
X97239087Y-115650795D01*
X97239083Y-115650794D01*
X97234212Y-115649069D01*
X97229119Y-115648162D01*
X97229116Y-115648161D01*
X97019373Y-115610800D01*
X97019367Y-115610799D01*
X97014284Y-115609894D01*
X96940452Y-115608992D01*
X96796081Y-115607228D01*
X96796079Y-115607228D01*
X96790911Y-115607165D01*
X96570091Y-115640955D01*
X96357756Y-115710357D01*
X96159607Y-115813507D01*
X96155474Y-115816610D01*
X96155471Y-115816612D01*
X96072450Y-115878946D01*
X95980965Y-115947635D01*
X95826629Y-116109138D01*
X95719201Y-116266621D01*
X95664293Y-116311621D01*
X95593768Y-116319792D01*
X95530021Y-116288538D01*
X95509324Y-116264054D01*
X95428822Y-116139617D01*
X95428820Y-116139614D01*
X95426014Y-116135277D01*
X95275670Y-115970051D01*
X95271619Y-115966852D01*
X95271615Y-115966848D01*
X95104414Y-115834800D01*
X95104410Y-115834798D01*
X95100359Y-115831598D01*
X94904789Y-115723638D01*
X94899920Y-115721914D01*
X94899916Y-115721912D01*
X94699087Y-115650795D01*
X94699083Y-115650794D01*
X94694212Y-115649069D01*
X94689119Y-115648162D01*
X94689116Y-115648161D01*
X94479373Y-115610800D01*
X94479367Y-115610799D01*
X94474284Y-115609894D01*
X94400452Y-115608992D01*
X94256081Y-115607228D01*
X94256079Y-115607228D01*
X94250911Y-115607165D01*
X94030091Y-115640955D01*
X93817756Y-115710357D01*
X93619607Y-115813507D01*
X93615474Y-115816610D01*
X93615471Y-115816612D01*
X93532450Y-115878946D01*
X93440965Y-115947635D01*
X93286629Y-116109138D01*
X93160743Y-116293680D01*
X93066688Y-116496305D01*
X93006989Y-116711570D01*
X92983251Y-116933695D01*
X89281500Y-116933695D01*
X89281500Y-112522000D01*
X117862693Y-112522000D01*
X117881885Y-112741371D01*
X117938880Y-112954076D01*
X117941205Y-112959061D01*
X118029618Y-113148666D01*
X118029621Y-113148671D01*
X118031944Y-113153653D01*
X118035100Y-113158160D01*
X118035101Y-113158162D01*
X118124028Y-113285162D01*
X118158251Y-113334038D01*
X118313962Y-113489749D01*
X118494346Y-113616056D01*
X118693924Y-113709120D01*
X118906629Y-113766115D01*
X119126000Y-113785307D01*
X119345371Y-113766115D01*
X119558076Y-113709120D01*
X119757654Y-113616056D01*
X119938038Y-113489749D01*
X120093749Y-113334038D01*
X120127973Y-113285162D01*
X120216899Y-113158162D01*
X120216900Y-113158160D01*
X120220056Y-113153653D01*
X120222379Y-113148671D01*
X120222382Y-113148666D01*
X120310795Y-112959061D01*
X120313120Y-112954076D01*
X120370115Y-112741371D01*
X120389307Y-112522000D01*
X120370115Y-112302629D01*
X120313120Y-112089924D01*
X120248231Y-111950768D01*
X120222382Y-111895334D01*
X120222379Y-111895329D01*
X120220056Y-111890347D01*
X120209311Y-111875001D01*
X120096908Y-111714473D01*
X120096906Y-111714470D01*
X120093749Y-111709962D01*
X119938038Y-111554251D01*
X119933530Y-111551094D01*
X119933527Y-111551092D01*
X119832161Y-111480115D01*
X119813228Y-111466858D01*
X119768901Y-111411402D01*
X119759500Y-111363646D01*
X119759500Y-106105594D01*
X119779502Y-106037473D01*
X119796405Y-106016499D01*
X121325405Y-104487499D01*
X121387717Y-104453473D01*
X121458532Y-104458538D01*
X121515368Y-104501085D01*
X121540179Y-104567605D01*
X121540500Y-104576594D01*
X121540500Y-104588224D01*
X121538949Y-104607934D01*
X121535780Y-104627943D01*
X121536526Y-104635835D01*
X121539941Y-104671961D01*
X121540500Y-104683819D01*
X121540500Y-107934646D01*
X121520498Y-108002767D01*
X121486772Y-108037858D01*
X121482169Y-108041081D01*
X121366473Y-108122092D01*
X121366470Y-108122094D01*
X121361962Y-108125251D01*
X121206251Y-108280962D01*
X121203094Y-108285470D01*
X121203092Y-108285473D01*
X121114166Y-108412473D01*
X121079944Y-108461347D01*
X121077621Y-108466329D01*
X121077618Y-108466334D01*
X121030415Y-108567562D01*
X120986880Y-108660924D01*
X120929885Y-108873629D01*
X120910693Y-109093000D01*
X120929885Y-109312371D01*
X120986880Y-109525076D01*
X121021742Y-109599838D01*
X121077618Y-109719666D01*
X121077621Y-109719671D01*
X121079944Y-109724653D01*
X121083100Y-109729160D01*
X121083101Y-109729162D01*
X121172028Y-109856162D01*
X121206251Y-109905038D01*
X121361962Y-110060749D01*
X121542346Y-110187056D01*
X121741924Y-110280120D01*
X121954629Y-110337115D01*
X122174000Y-110356307D01*
X122393371Y-110337115D01*
X122606076Y-110280120D01*
X122805654Y-110187056D01*
X122986038Y-110060749D01*
X123141749Y-109905038D01*
X123175973Y-109856162D01*
X123264899Y-109729162D01*
X123264900Y-109729160D01*
X123268056Y-109724653D01*
X123270379Y-109719671D01*
X123270382Y-109719666D01*
X123326258Y-109599838D01*
X123361120Y-109525076D01*
X123418115Y-109312371D01*
X123437307Y-109093000D01*
X123418115Y-108873629D01*
X123361120Y-108660924D01*
X123317585Y-108567562D01*
X123270382Y-108466334D01*
X123270379Y-108466329D01*
X123268056Y-108461347D01*
X123233834Y-108412473D01*
X123144908Y-108285473D01*
X123144906Y-108285470D01*
X123141749Y-108280962D01*
X122986038Y-108125251D01*
X122981530Y-108122094D01*
X122981527Y-108122092D01*
X122865831Y-108041081D01*
X122861228Y-108037858D01*
X122816901Y-107982402D01*
X122807500Y-107934646D01*
X122807500Y-104962594D01*
X122827502Y-104894473D01*
X122844405Y-104873499D01*
X125135405Y-102582500D01*
X125197717Y-102548474D01*
X125268533Y-102553539D01*
X125325368Y-102596086D01*
X125350179Y-102662606D01*
X125350500Y-102671595D01*
X125350500Y-111284389D01*
X125330498Y-111352510D01*
X125276842Y-111399003D01*
X125206568Y-111409107D01*
X125194433Y-111406617D01*
X125192684Y-111406309D01*
X125187371Y-111404885D01*
X124968000Y-111385693D01*
X124748629Y-111404885D01*
X124535924Y-111461880D01*
X124496819Y-111480115D01*
X124341334Y-111552618D01*
X124341329Y-111552621D01*
X124336347Y-111554944D01*
X124331840Y-111558100D01*
X124331838Y-111558101D01*
X124160473Y-111678092D01*
X124160470Y-111678094D01*
X124155962Y-111681251D01*
X124000251Y-111836962D01*
X123997094Y-111841470D01*
X123997092Y-111841473D01*
X123911087Y-111964301D01*
X123873944Y-112017347D01*
X123871621Y-112022329D01*
X123871618Y-112022334D01*
X123847563Y-112073921D01*
X123780880Y-112216924D01*
X123723885Y-112429629D01*
X123704693Y-112649000D01*
X123723885Y-112868371D01*
X123780880Y-113081076D01*
X123783205Y-113086061D01*
X123871618Y-113275666D01*
X123871621Y-113275671D01*
X123873944Y-113280653D01*
X123877100Y-113285160D01*
X123877101Y-113285162D01*
X123911325Y-113334038D01*
X124000251Y-113461038D01*
X124155962Y-113616749D01*
X124336346Y-113743056D01*
X124535924Y-113836120D01*
X124748629Y-113893115D01*
X124968000Y-113912307D01*
X125187371Y-113893115D01*
X125400076Y-113836120D01*
X125599654Y-113743056D01*
X125780038Y-113616749D01*
X125935749Y-113461038D01*
X126024676Y-113334038D01*
X126058899Y-113285162D01*
X126058900Y-113285160D01*
X126062056Y-113280653D01*
X126064379Y-113275671D01*
X126064382Y-113275666D01*
X126152795Y-113086061D01*
X126155120Y-113081076D01*
X126212115Y-112868371D01*
X126231307Y-112649000D01*
X126212115Y-112429629D01*
X126203716Y-112398283D01*
X126205406Y-112327306D01*
X126236328Y-112276577D01*
X126376253Y-112136652D01*
X126384539Y-112129112D01*
X126391018Y-112125000D01*
X126437644Y-112075348D01*
X126440398Y-112072507D01*
X126460135Y-112052770D01*
X126462615Y-112049573D01*
X126470320Y-112040551D01*
X126495159Y-112014100D01*
X126500586Y-112008321D01*
X126504405Y-112001375D01*
X126504407Y-112001372D01*
X126510348Y-111990566D01*
X126521199Y-111974047D01*
X126528758Y-111964301D01*
X126533614Y-111958041D01*
X126536759Y-111950772D01*
X126536762Y-111950768D01*
X126551174Y-111917463D01*
X126556391Y-111906813D01*
X126577695Y-111868060D01*
X126582733Y-111848437D01*
X126589137Y-111829734D01*
X126594033Y-111818420D01*
X126594033Y-111818419D01*
X126597181Y-111811145D01*
X126598420Y-111803322D01*
X126598423Y-111803312D01*
X126604099Y-111767476D01*
X126606505Y-111755856D01*
X126615528Y-111720711D01*
X126615528Y-111720710D01*
X126617500Y-111713030D01*
X126617500Y-111692776D01*
X126619051Y-111673065D01*
X126620980Y-111660886D01*
X126622220Y-111653057D01*
X126618059Y-111609038D01*
X126617500Y-111597181D01*
X126617500Y-106553000D01*
X127895693Y-106553000D01*
X127914885Y-106772371D01*
X127971880Y-106985076D01*
X128007826Y-107062162D01*
X128062618Y-107179666D01*
X128062621Y-107179671D01*
X128064944Y-107184653D01*
X128068100Y-107189160D01*
X128068101Y-107189162D01*
X128169402Y-107333834D01*
X128191251Y-107365038D01*
X128346962Y-107520749D01*
X128527346Y-107647056D01*
X128726924Y-107740120D01*
X128939629Y-107797115D01*
X129159000Y-107816307D01*
X129378371Y-107797115D01*
X129591076Y-107740120D01*
X129790654Y-107647056D01*
X129971038Y-107520749D01*
X130126749Y-107365038D01*
X130148599Y-107333834D01*
X130249899Y-107189162D01*
X130249900Y-107189160D01*
X130253056Y-107184653D01*
X130255379Y-107179671D01*
X130255382Y-107179666D01*
X130310174Y-107062162D01*
X130346120Y-106985076D01*
X130403115Y-106772371D01*
X130422307Y-106553000D01*
X130403115Y-106333629D01*
X130346120Y-106120924D01*
X130297426Y-106016499D01*
X130255382Y-105926334D01*
X130255379Y-105926329D01*
X130253056Y-105921347D01*
X130249899Y-105916838D01*
X130129908Y-105745473D01*
X130129906Y-105745470D01*
X130126749Y-105740962D01*
X129971038Y-105585251D01*
X129953284Y-105572819D01*
X129891759Y-105529739D01*
X129790654Y-105458944D01*
X129591076Y-105365880D01*
X129378371Y-105308885D01*
X129159000Y-105289693D01*
X128939629Y-105308885D01*
X128726924Y-105365880D01*
X128641587Y-105405673D01*
X128532334Y-105456618D01*
X128532329Y-105456621D01*
X128527347Y-105458944D01*
X128522840Y-105462100D01*
X128522838Y-105462101D01*
X128351473Y-105582092D01*
X128351470Y-105582094D01*
X128346962Y-105585251D01*
X128191251Y-105740962D01*
X128188094Y-105745470D01*
X128188092Y-105745473D01*
X128068101Y-105916838D01*
X128064944Y-105921347D01*
X128062621Y-105926329D01*
X128062618Y-105926334D01*
X128020574Y-106016499D01*
X127971880Y-106120924D01*
X127914885Y-106333629D01*
X127895693Y-106553000D01*
X126617500Y-106553000D01*
X126617500Y-101147594D01*
X126637502Y-101079473D01*
X126691158Y-101032980D01*
X126761432Y-101022876D01*
X126826012Y-101052370D01*
X126832595Y-101058499D01*
X131827672Y-106053577D01*
X131861698Y-106115889D01*
X131860284Y-106175283D01*
X131851885Y-106206629D01*
X131832693Y-106426000D01*
X131851885Y-106645371D01*
X131908880Y-106858076D01*
X131952415Y-106951438D01*
X131999618Y-107052666D01*
X131999621Y-107052671D01*
X132001944Y-107057653D01*
X132005100Y-107062160D01*
X132005101Y-107062162D01*
X132094028Y-107189162D01*
X132128251Y-107238038D01*
X132283962Y-107393749D01*
X132288471Y-107396906D01*
X132288473Y-107396908D01*
X132363241Y-107449261D01*
X132464346Y-107520056D01*
X132663924Y-107613120D01*
X132876629Y-107670115D01*
X133096000Y-107689307D01*
X133315371Y-107670115D01*
X133528076Y-107613120D01*
X133727654Y-107520056D01*
X133828759Y-107449261D01*
X133903527Y-107396908D01*
X133903529Y-107396906D01*
X133908038Y-107393749D01*
X134063749Y-107238038D01*
X134097973Y-107189162D01*
X134186899Y-107062162D01*
X134186900Y-107062160D01*
X134190056Y-107057653D01*
X134192379Y-107052671D01*
X134192382Y-107052666D01*
X134239585Y-106951438D01*
X134283120Y-106858076D01*
X134340115Y-106645371D01*
X134359307Y-106426000D01*
X134340115Y-106206629D01*
X134283120Y-105993924D01*
X134221433Y-105861635D01*
X134192382Y-105799334D01*
X134192379Y-105799329D01*
X134190056Y-105794347D01*
X134182442Y-105783473D01*
X134066908Y-105618473D01*
X134066906Y-105618470D01*
X134063749Y-105613962D01*
X133908038Y-105458251D01*
X133902295Y-105454229D01*
X133783760Y-105371230D01*
X133727654Y-105331944D01*
X133528076Y-105238880D01*
X133315371Y-105181885D01*
X133096000Y-105162693D01*
X132876629Y-105181885D01*
X132871314Y-105183309D01*
X132871315Y-105183309D01*
X132845283Y-105190284D01*
X132774306Y-105188594D01*
X132723577Y-105157672D01*
X127797405Y-100231500D01*
X127763379Y-100169188D01*
X127760500Y-100142405D01*
X127760500Y-99622568D01*
X132168382Y-99622568D01*
X132168963Y-99627588D01*
X132168963Y-99627592D01*
X132177109Y-99697996D01*
X132197208Y-99871699D01*
X132198587Y-99876573D01*
X132198588Y-99876577D01*
X132260535Y-100095492D01*
X132265494Y-100113017D01*
X132267628Y-100117592D01*
X132267630Y-100117599D01*
X132369347Y-100335731D01*
X132371484Y-100340313D01*
X132374326Y-100344494D01*
X132374326Y-100344495D01*
X132509605Y-100543552D01*
X132509608Y-100543556D01*
X132512451Y-100547739D01*
X132515928Y-100551416D01*
X132515929Y-100551417D01*
X132616238Y-100657491D01*
X132684767Y-100729959D01*
X132688793Y-100733037D01*
X132688794Y-100733038D01*
X132879981Y-100879212D01*
X132879985Y-100879215D01*
X132884001Y-100882285D01*
X133105026Y-101000797D01*
X133109807Y-101002443D01*
X133109811Y-101002445D01*
X133333516Y-101079473D01*
X133342156Y-101082448D01*
X133441028Y-101099526D01*
X133585380Y-101124460D01*
X133585386Y-101124461D01*
X133589290Y-101125135D01*
X133593251Y-101125315D01*
X133593252Y-101125315D01*
X133617931Y-101126436D01*
X133617950Y-101126436D01*
X133619350Y-101126500D01*
X133794015Y-101126500D01*
X133796523Y-101126298D01*
X133796528Y-101126298D01*
X133975944Y-101111863D01*
X133975949Y-101111862D01*
X133980985Y-101111457D01*
X133985893Y-101110252D01*
X133985896Y-101110251D01*
X134219625Y-101052841D01*
X134224539Y-101051634D01*
X134229191Y-101049659D01*
X134229195Y-101049658D01*
X134450741Y-100955617D01*
X134450742Y-100955617D01*
X134455396Y-100953641D01*
X134635890Y-100839978D01*
X134663334Y-100822696D01*
X134663335Y-100822695D01*
X134667615Y-100820000D01*
X134855738Y-100654147D01*
X135014924Y-100460351D01*
X135141078Y-100243596D01*
X135151098Y-100217495D01*
X135217619Y-100044203D01*
X135230955Y-100009461D01*
X135234896Y-99990599D01*
X135281206Y-99768921D01*
X135282241Y-99763967D01*
X135282895Y-99749577D01*
X135288662Y-99622568D01*
X135293618Y-99513432D01*
X135292133Y-99500592D01*
X135272798Y-99333492D01*
X135264792Y-99264301D01*
X135243034Y-99187407D01*
X135197884Y-99027852D01*
X135197883Y-99027850D01*
X135196506Y-99022983D01*
X135194372Y-99018408D01*
X135194370Y-99018401D01*
X135092653Y-98800269D01*
X135092651Y-98800265D01*
X135090516Y-98795687D01*
X135036528Y-98716246D01*
X134952395Y-98592448D01*
X134952392Y-98592444D01*
X134949549Y-98588261D01*
X134848925Y-98481853D01*
X134780713Y-98409721D01*
X134777233Y-98406041D01*
X134766398Y-98397757D01*
X134582019Y-98256788D01*
X134582015Y-98256785D01*
X134577999Y-98253715D01*
X134457306Y-98189000D01*
X134377138Y-98146015D01*
X134356974Y-98135203D01*
X134352193Y-98133557D01*
X134352189Y-98133555D01*
X134124633Y-98055201D01*
X134119844Y-98053552D01*
X134016311Y-98035669D01*
X133876620Y-98011540D01*
X133876614Y-98011539D01*
X133872710Y-98010865D01*
X133868749Y-98010685D01*
X133868748Y-98010685D01*
X133844069Y-98009564D01*
X133844050Y-98009564D01*
X133842650Y-98009500D01*
X133667985Y-98009500D01*
X133665477Y-98009702D01*
X133665472Y-98009702D01*
X133486056Y-98024137D01*
X133486051Y-98024138D01*
X133481015Y-98024543D01*
X133476107Y-98025748D01*
X133476104Y-98025749D01*
X133344571Y-98058057D01*
X133237461Y-98084366D01*
X133232809Y-98086341D01*
X133232805Y-98086342D01*
X133117543Y-98135268D01*
X133006604Y-98182359D01*
X132794385Y-98316000D01*
X132606262Y-98481853D01*
X132447076Y-98675649D01*
X132320922Y-98892404D01*
X132319109Y-98897127D01*
X132319108Y-98897129D01*
X132310001Y-98920854D01*
X132231045Y-99126539D01*
X132230012Y-99131485D01*
X132230010Y-99131491D01*
X132196131Y-99293662D01*
X132179759Y-99372033D01*
X132179530Y-99377082D01*
X132179529Y-99377088D01*
X132178437Y-99401144D01*
X132168382Y-99622568D01*
X127760500Y-99622568D01*
X127760500Y-99190621D01*
X127780502Y-99122500D01*
X127805931Y-99093747D01*
X127850758Y-99056465D01*
X127939041Y-98983041D01*
X128073426Y-98821460D01*
X128176115Y-98638096D01*
X128177971Y-98632629D01*
X128177973Y-98632624D01*
X128241813Y-98444557D01*
X128241814Y-98444552D01*
X128243669Y-98439088D01*
X128273825Y-98231103D01*
X128275399Y-98171000D01*
X128256169Y-97961721D01*
X128246716Y-97928201D01*
X128207321Y-97788519D01*
X128199123Y-97759451D01*
X128106171Y-97570963D01*
X128094595Y-97555460D01*
X127983880Y-97407195D01*
X127983879Y-97407194D01*
X127980427Y-97402571D01*
X127952428Y-97376689D01*
X127830341Y-97263833D01*
X127830338Y-97263831D01*
X127826101Y-97259914D01*
X127648362Y-97147769D01*
X127453163Y-97069892D01*
X127447506Y-97068767D01*
X127447500Y-97068765D01*
X127252707Y-97030019D01*
X127252705Y-97030019D01*
X127247040Y-97028892D01*
X127241265Y-97028816D01*
X127241261Y-97028816D01*
X127136001Y-97027438D01*
X127036898Y-97026141D01*
X127031201Y-97027120D01*
X127031200Y-97027120D01*
X126835469Y-97060753D01*
X126829772Y-97061732D01*
X126787109Y-97077471D01*
X126716276Y-97082282D01*
X126654086Y-97048034D01*
X126620284Y-96985600D01*
X126617500Y-96959258D01*
X126617500Y-92660530D01*
X129445830Y-92660530D01*
X129455710Y-92673017D01*
X129495472Y-92699585D01*
X129505575Y-92705071D01*
X129687973Y-92783435D01*
X129698916Y-92786990D01*
X129892533Y-92830802D01*
X129903942Y-92832304D01*
X130102308Y-92840097D01*
X130113790Y-92839495D01*
X130310250Y-92811011D01*
X130321445Y-92808323D01*
X130450342Y-92764568D01*
X133438382Y-92764568D01*
X133438963Y-92769588D01*
X133438963Y-92769592D01*
X133448694Y-92853690D01*
X133467208Y-93013699D01*
X133468587Y-93018573D01*
X133468588Y-93018577D01*
X133524508Y-93216195D01*
X133535494Y-93255017D01*
X133537628Y-93259592D01*
X133537630Y-93259599D01*
X133639347Y-93477731D01*
X133641484Y-93482313D01*
X133644326Y-93486494D01*
X133644326Y-93486495D01*
X133779605Y-93685552D01*
X133779608Y-93685556D01*
X133782451Y-93689739D01*
X133785928Y-93693416D01*
X133785929Y-93693417D01*
X133815034Y-93724195D01*
X133954767Y-93871959D01*
X133958793Y-93875037D01*
X133958794Y-93875038D01*
X134149981Y-94021212D01*
X134149985Y-94021215D01*
X134154001Y-94024285D01*
X134158459Y-94026675D01*
X134158460Y-94026676D01*
X134277904Y-94090721D01*
X134375026Y-94142797D01*
X134379807Y-94144443D01*
X134379811Y-94144445D01*
X134605538Y-94222169D01*
X134612156Y-94224448D01*
X134714838Y-94242184D01*
X134855380Y-94266460D01*
X134855386Y-94266461D01*
X134859290Y-94267135D01*
X134863251Y-94267315D01*
X134863252Y-94267315D01*
X134887931Y-94268436D01*
X134887950Y-94268436D01*
X134889350Y-94268500D01*
X135064015Y-94268500D01*
X135066523Y-94268298D01*
X135066528Y-94268298D01*
X135245944Y-94253863D01*
X135245949Y-94253862D01*
X135250985Y-94253457D01*
X135255893Y-94252252D01*
X135255896Y-94252251D01*
X135489625Y-94194841D01*
X135494539Y-94193634D01*
X135499191Y-94191659D01*
X135499195Y-94191658D01*
X135720735Y-94097620D01*
X135720740Y-94097617D01*
X135725396Y-94095641D01*
X135729684Y-94092940D01*
X135733929Y-94090721D01*
X135803564Y-94076884D01*
X135869626Y-94102890D01*
X135911141Y-94160484D01*
X135914927Y-94231380D01*
X135912644Y-94239739D01*
X135909696Y-94249234D01*
X135909017Y-94254969D01*
X135909017Y-94254970D01*
X135907577Y-94267135D01*
X135884995Y-94457938D01*
X135898740Y-94667649D01*
X135950471Y-94871343D01*
X135952890Y-94876590D01*
X136036038Y-95056953D01*
X136036041Y-95056958D01*
X136038457Y-95062199D01*
X136041788Y-95066912D01*
X136041789Y-95066914D01*
X136153159Y-95224497D01*
X136159751Y-95233825D01*
X136310289Y-95380474D01*
X136315085Y-95383679D01*
X136315088Y-95383681D01*
X136457106Y-95478574D01*
X136485031Y-95497233D01*
X136490339Y-95499514D01*
X136490340Y-95499514D01*
X136672822Y-95577914D01*
X136672825Y-95577915D01*
X136678125Y-95580192D01*
X136683754Y-95581466D01*
X136683755Y-95581466D01*
X136877467Y-95625299D01*
X136877473Y-95625300D01*
X136883104Y-95626574D01*
X136888875Y-95626801D01*
X136888877Y-95626801D01*
X136957356Y-95629491D01*
X137093103Y-95634825D01*
X137197248Y-95619725D01*
X137267533Y-95629745D01*
X137304422Y-95655326D01*
X139029595Y-97380499D01*
X139063621Y-97442811D01*
X139066500Y-97469594D01*
X139066500Y-102782856D01*
X139081526Y-102901797D01*
X139140448Y-103050617D01*
X139234528Y-103180107D01*
X139357856Y-103282133D01*
X139365023Y-103285506D01*
X139365027Y-103285508D01*
X139427121Y-103314726D01*
X139502682Y-103350283D01*
X139659906Y-103380275D01*
X139748400Y-103374708D01*
X139811738Y-103370723D01*
X139811740Y-103370723D01*
X139819650Y-103370225D01*
X139827186Y-103367776D01*
X139827188Y-103367776D01*
X139964333Y-103323215D01*
X139964336Y-103323214D01*
X139971875Y-103320764D01*
X140107018Y-103235000D01*
X140216586Y-103118321D01*
X140293695Y-102978060D01*
X140333500Y-102823030D01*
X140333500Y-97233768D01*
X140334027Y-97222585D01*
X140335702Y-97215092D01*
X140333562Y-97147001D01*
X140333500Y-97143044D01*
X140333500Y-97115144D01*
X140332996Y-97111153D01*
X140332063Y-97099311D01*
X140331716Y-97088252D01*
X140330674Y-97055111D01*
X140325021Y-97035652D01*
X140321012Y-97016293D01*
X140320846Y-97014983D01*
X140318474Y-96996203D01*
X140315558Y-96988837D01*
X140315556Y-96988831D01*
X140302200Y-96955098D01*
X140298355Y-96943868D01*
X140288230Y-96909017D01*
X140288230Y-96909016D01*
X140286019Y-96901407D01*
X140275705Y-96883966D01*
X140267008Y-96866213D01*
X140262472Y-96854758D01*
X140259552Y-96847383D01*
X140233563Y-96811612D01*
X140227047Y-96801692D01*
X140204542Y-96763638D01*
X140190221Y-96749317D01*
X140177380Y-96734283D01*
X140170131Y-96724306D01*
X140165472Y-96717893D01*
X140131395Y-96689702D01*
X140122616Y-96681712D01*
X138200326Y-94759421D01*
X138166300Y-94697109D01*
X138164725Y-94652246D01*
X138167240Y-94634906D01*
X138179825Y-94548103D01*
X138181399Y-94488000D01*
X138162169Y-94278721D01*
X138159287Y-94268500D01*
X138113739Y-94107000D01*
X138105123Y-94076451D01*
X138012171Y-93887963D01*
X138002520Y-93875038D01*
X137889880Y-93724195D01*
X137889879Y-93724194D01*
X137886427Y-93719571D01*
X137854155Y-93689739D01*
X137736341Y-93580833D01*
X137736338Y-93580831D01*
X137732101Y-93576914D01*
X137554362Y-93464769D01*
X137359163Y-93386892D01*
X137353506Y-93385767D01*
X137353500Y-93385765D01*
X137158707Y-93347019D01*
X137158705Y-93347019D01*
X137153040Y-93345892D01*
X137147265Y-93345816D01*
X137147261Y-93345816D01*
X137042001Y-93344438D01*
X136942898Y-93343141D01*
X136937201Y-93344120D01*
X136937200Y-93344120D01*
X136755535Y-93375336D01*
X136735772Y-93378732D01*
X136661986Y-93405953D01*
X136621481Y-93420896D01*
X136550647Y-93425708D01*
X136488457Y-93391461D01*
X136454655Y-93329027D01*
X136460239Y-93257529D01*
X136499143Y-93156181D01*
X136500955Y-93151461D01*
X136502185Y-93145577D01*
X136551206Y-92910921D01*
X136552241Y-92905967D01*
X136553051Y-92888145D01*
X136558388Y-92770594D01*
X136563618Y-92655432D01*
X136534792Y-92406301D01*
X136532310Y-92397527D01*
X136467884Y-92169852D01*
X136467883Y-92169850D01*
X136466506Y-92164983D01*
X136464372Y-92160408D01*
X136464370Y-92160401D01*
X136362653Y-91942269D01*
X136362651Y-91942265D01*
X136360516Y-91937687D01*
X136354653Y-91929060D01*
X136222395Y-91734448D01*
X136222392Y-91734444D01*
X136219549Y-91730261D01*
X136197375Y-91706812D01*
X136050713Y-91551721D01*
X136047233Y-91548041D01*
X136021728Y-91528541D01*
X135852019Y-91398788D01*
X135852015Y-91398785D01*
X135847999Y-91395715D01*
X135792044Y-91365712D01*
X135641167Y-91284813D01*
X135626974Y-91277203D01*
X135622193Y-91275557D01*
X135622189Y-91275555D01*
X135394633Y-91197201D01*
X135389844Y-91195552D01*
X135286311Y-91177669D01*
X135146620Y-91153540D01*
X135146614Y-91153539D01*
X135142710Y-91152865D01*
X135138749Y-91152685D01*
X135138748Y-91152685D01*
X135114069Y-91151564D01*
X135114050Y-91151564D01*
X135112650Y-91151500D01*
X134937985Y-91151500D01*
X134935477Y-91151702D01*
X134935472Y-91151702D01*
X134756056Y-91166137D01*
X134756051Y-91166138D01*
X134751015Y-91166543D01*
X134746107Y-91167748D01*
X134746104Y-91167749D01*
X134529417Y-91220973D01*
X134507461Y-91226366D01*
X134502809Y-91228341D01*
X134502805Y-91228342D01*
X134318013Y-91306782D01*
X134276604Y-91324359D01*
X134177268Y-91386914D01*
X134086895Y-91443825D01*
X134064385Y-91458000D01*
X133876262Y-91623853D01*
X133717076Y-91817649D01*
X133590922Y-92034404D01*
X133589109Y-92039127D01*
X133589108Y-92039129D01*
X133551599Y-92136842D01*
X133501045Y-92268539D01*
X133500012Y-92273485D01*
X133500010Y-92273491D01*
X133468633Y-92423688D01*
X133449759Y-92514033D01*
X133449530Y-92519082D01*
X133449529Y-92519088D01*
X133448356Y-92544924D01*
X133438382Y-92764568D01*
X130450342Y-92764568D01*
X130509424Y-92744512D01*
X130519931Y-92739834D01*
X130641745Y-92671614D01*
X130651610Y-92661536D01*
X130648654Y-92653864D01*
X130060812Y-92066022D01*
X130046868Y-92058408D01*
X130045035Y-92058539D01*
X130038420Y-92062790D01*
X129452027Y-92649183D01*
X129445830Y-92660530D01*
X126617500Y-92660530D01*
X126617500Y-91669718D01*
X128900874Y-91669718D01*
X128913858Y-91867803D01*
X128915659Y-91879173D01*
X128964523Y-92071576D01*
X128968364Y-92082423D01*
X129051475Y-92262705D01*
X129057223Y-92272661D01*
X129068675Y-92288867D01*
X129079263Y-92297254D01*
X129092564Y-92290226D01*
X129675978Y-91706812D01*
X129682356Y-91695132D01*
X130412408Y-91695132D01*
X130412539Y-91696965D01*
X130416790Y-91703580D01*
X131003950Y-92290740D01*
X131016330Y-92297500D01*
X131022910Y-92292574D01*
X131093834Y-92165931D01*
X131098512Y-92155424D01*
X131162323Y-91967445D01*
X131165011Y-91956250D01*
X131193791Y-91757750D01*
X131194421Y-91750367D01*
X131195800Y-91697704D01*
X131195557Y-91690305D01*
X131177204Y-91490566D01*
X131175107Y-91479251D01*
X131121222Y-91288190D01*
X131117100Y-91277451D01*
X131029299Y-91099409D01*
X131027192Y-91095970D01*
X131017876Y-91088980D01*
X131005459Y-91095751D01*
X130420022Y-91681188D01*
X130412408Y-91695132D01*
X129682356Y-91695132D01*
X129683592Y-91692868D01*
X129683461Y-91691035D01*
X129679210Y-91684420D01*
X129090626Y-91095836D01*
X129078246Y-91089076D01*
X129072280Y-91093542D01*
X128990173Y-91249602D01*
X128985768Y-91260236D01*
X128926900Y-91449822D01*
X128924508Y-91461076D01*
X128901175Y-91658217D01*
X128900874Y-91669718D01*
X126617500Y-91669718D01*
X126617500Y-90727139D01*
X129445251Y-90727139D01*
X129448738Y-90735528D01*
X130035188Y-91321978D01*
X130049132Y-91329592D01*
X130050965Y-91329461D01*
X130057580Y-91325210D01*
X130643657Y-90739133D01*
X130650417Y-90726753D01*
X130644387Y-90718698D01*
X130574020Y-90674299D01*
X130563769Y-90669076D01*
X130379389Y-90595516D01*
X130368352Y-90592247D01*
X130173654Y-90553518D01*
X130162210Y-90552315D01*
X129963719Y-90549718D01*
X129952239Y-90550621D01*
X129756599Y-90584238D01*
X129745479Y-90587218D01*
X129559234Y-90655927D01*
X129548856Y-90660877D01*
X129454849Y-90716806D01*
X129445251Y-90727139D01*
X126617500Y-90727139D01*
X126617500Y-89341594D01*
X126637502Y-89273473D01*
X126654405Y-89252499D01*
X127163966Y-88742938D01*
X128772995Y-88742938D01*
X128786740Y-88952649D01*
X128838471Y-89156343D01*
X128846377Y-89173493D01*
X128924038Y-89341953D01*
X128924041Y-89341958D01*
X128926457Y-89347199D01*
X128929788Y-89351912D01*
X128929789Y-89351914D01*
X128968152Y-89406195D01*
X129047751Y-89518825D01*
X129198289Y-89665474D01*
X129203085Y-89668679D01*
X129203088Y-89668681D01*
X129303909Y-89736047D01*
X129373031Y-89782233D01*
X129378339Y-89784514D01*
X129378340Y-89784514D01*
X129560822Y-89862914D01*
X129560825Y-89862915D01*
X129566125Y-89865192D01*
X129571754Y-89866466D01*
X129571755Y-89866466D01*
X129765467Y-89910299D01*
X129765473Y-89910300D01*
X129771104Y-89911574D01*
X129776875Y-89911801D01*
X129776877Y-89911801D01*
X129840433Y-89914298D01*
X129981103Y-89919825D01*
X130189088Y-89889669D01*
X130194552Y-89887814D01*
X130194557Y-89887813D01*
X130382624Y-89823973D01*
X130382629Y-89823971D01*
X130388096Y-89822115D01*
X130431932Y-89797565D01*
X130493497Y-89781500D01*
X138214075Y-89781500D01*
X138282196Y-89801502D01*
X138303170Y-89818405D01*
X140940595Y-92455829D01*
X140974621Y-92518141D01*
X140977500Y-92544924D01*
X140977500Y-104613000D01*
X140957498Y-104681121D01*
X140903842Y-104727614D01*
X140851500Y-104739000D01*
X134783357Y-104739000D01*
X134783357Y-108621000D01*
X135486786Y-108621000D01*
X135554907Y-108641002D01*
X135601400Y-108694658D01*
X135612786Y-108747000D01*
X135612786Y-111288000D01*
X141501215Y-111288000D01*
X141501215Y-110577000D01*
X141521217Y-110508879D01*
X141574873Y-110462386D01*
X141627215Y-110451000D01*
X141713885Y-110451000D01*
X141729124Y-110446525D01*
X141730329Y-110445135D01*
X141732000Y-110437452D01*
X141732000Y-110432884D01*
X142240000Y-110432884D01*
X142244475Y-110448123D01*
X142245865Y-110449328D01*
X142253548Y-110450999D01*
X142880669Y-110450999D01*
X142887490Y-110450629D01*
X142938352Y-110445105D01*
X142953604Y-110441479D01*
X143074054Y-110396324D01*
X143089649Y-110387786D01*
X143191724Y-110311285D01*
X143204285Y-110298724D01*
X143280786Y-110196649D01*
X143289324Y-110181054D01*
X143334478Y-110060606D01*
X143338105Y-110045351D01*
X143343631Y-109994486D01*
X143344000Y-109987672D01*
X143344000Y-109365115D01*
X143339525Y-109349876D01*
X143338135Y-109348671D01*
X143330452Y-109347000D01*
X142258115Y-109347000D01*
X142242876Y-109351475D01*
X142241671Y-109352865D01*
X142240000Y-109360548D01*
X142240000Y-110432884D01*
X141732000Y-110432884D01*
X141732000Y-108965000D01*
X141752002Y-108896879D01*
X141805658Y-108850386D01*
X141858000Y-108839000D01*
X143325884Y-108839000D01*
X143341123Y-108834525D01*
X143342328Y-108833135D01*
X143343999Y-108825452D01*
X143343999Y-108198331D01*
X143343629Y-108191510D01*
X143338105Y-108140648D01*
X143334479Y-108125396D01*
X143289324Y-108004946D01*
X143280786Y-107989351D01*
X143204285Y-107887276D01*
X143191724Y-107874715D01*
X143089649Y-107798214D01*
X143074054Y-107789676D01*
X142963813Y-107748348D01*
X142907049Y-107705706D01*
X142882349Y-107639145D01*
X142897557Y-107569796D01*
X142919104Y-107541115D01*
X143020430Y-107440144D01*
X143020440Y-107440132D01*
X143024096Y-107436489D01*
X143038271Y-107416763D01*
X143151435Y-107259277D01*
X143154453Y-107255077D01*
X143189259Y-107184653D01*
X143251136Y-107059453D01*
X143251137Y-107059451D01*
X143253430Y-107054811D01*
X143300379Y-106900283D01*
X143316865Y-106846023D01*
X143316865Y-106846021D01*
X143318370Y-106841069D01*
X143347529Y-106619590D01*
X143349156Y-106553000D01*
X143330852Y-106330361D01*
X143276431Y-106113702D01*
X143187354Y-105908840D01*
X143066014Y-105721277D01*
X143057801Y-105712251D01*
X143027306Y-105678737D01*
X142996254Y-105614891D01*
X142994500Y-105593938D01*
X142994500Y-92136842D01*
X142995237Y-92123235D01*
X142998659Y-92091737D01*
X142998659Y-92091732D01*
X142999324Y-92085611D01*
X142997493Y-92064687D01*
X142994950Y-92035609D01*
X142994621Y-92030784D01*
X142994500Y-92028313D01*
X142994500Y-92025231D01*
X142990309Y-91982489D01*
X142990187Y-91981174D01*
X142986235Y-91936001D01*
X142982087Y-91888587D01*
X142980600Y-91883468D01*
X142980080Y-91878167D01*
X142953218Y-91789194D01*
X142952862Y-91787994D01*
X142948805Y-91774030D01*
X142926909Y-91698663D01*
X142924455Y-91693929D01*
X142922916Y-91688831D01*
X142918852Y-91681188D01*
X142879316Y-91606831D01*
X142878702Y-91605663D01*
X142838726Y-91528541D01*
X142838725Y-91528540D01*
X142835892Y-91523074D01*
X142832569Y-91518911D01*
X142830066Y-91514204D01*
X142771245Y-91442082D01*
X142770554Y-91441226D01*
X142739262Y-91402027D01*
X142736758Y-91399523D01*
X142736116Y-91398805D01*
X142732415Y-91394472D01*
X142705065Y-91360938D01*
X142669737Y-91331712D01*
X142660958Y-91323723D01*
X139440855Y-88103621D01*
X139431753Y-88093478D01*
X139411897Y-88068782D01*
X139408032Y-88063975D01*
X139369578Y-88031708D01*
X139365931Y-88028528D01*
X139364119Y-88026885D01*
X139361925Y-88024691D01*
X139328651Y-87997358D01*
X139327853Y-87996696D01*
X139256526Y-87936846D01*
X139251856Y-87934278D01*
X139247739Y-87930897D01*
X139165914Y-87887023D01*
X139164755Y-87886394D01*
X139088619Y-87844538D01*
X139088611Y-87844535D01*
X139083213Y-87841567D01*
X139078131Y-87839955D01*
X139073437Y-87837438D01*
X138984469Y-87810238D01*
X138983441Y-87809918D01*
X138894694Y-87781765D01*
X138889398Y-87781171D01*
X138884302Y-87779613D01*
X138791743Y-87770210D01*
X138790607Y-87770089D01*
X138756992Y-87766319D01*
X138744270Y-87764892D01*
X138744266Y-87764892D01*
X138740773Y-87764500D01*
X138737246Y-87764500D01*
X138736261Y-87764445D01*
X138730588Y-87763999D01*
X138702551Y-87761151D01*
X138636801Y-87734365D01*
X138595970Y-87676284D01*
X138593022Y-87605349D01*
X138606389Y-87572416D01*
X138667990Y-87466574D01*
X138697078Y-87416596D01*
X138713054Y-87374979D01*
X138785143Y-87187181D01*
X138786955Y-87182461D01*
X138790192Y-87166970D01*
X138837206Y-86941921D01*
X138838241Y-86936967D01*
X138838494Y-86931410D01*
X138844883Y-86790699D01*
X138849618Y-86686432D01*
X138820792Y-86437301D01*
X138798408Y-86358195D01*
X138753884Y-86200852D01*
X138753883Y-86200850D01*
X138752506Y-86195983D01*
X138750372Y-86191408D01*
X138750370Y-86191401D01*
X138648653Y-85973269D01*
X138648651Y-85973265D01*
X138646516Y-85968687D01*
X138625254Y-85937401D01*
X138508395Y-85765448D01*
X138508392Y-85765444D01*
X138505549Y-85761261D01*
X138501122Y-85756579D01*
X138336713Y-85582721D01*
X138333233Y-85579041D01*
X138329206Y-85575962D01*
X138138019Y-85429788D01*
X138138015Y-85429785D01*
X138133999Y-85426715D01*
X137912974Y-85308203D01*
X137908193Y-85306557D01*
X137908189Y-85306555D01*
X137680633Y-85228201D01*
X137675844Y-85226552D01*
X137572311Y-85208669D01*
X137432620Y-85184540D01*
X137432614Y-85184539D01*
X137428710Y-85183865D01*
X137424749Y-85183685D01*
X137424748Y-85183685D01*
X137400069Y-85182564D01*
X137400050Y-85182564D01*
X137398650Y-85182500D01*
X137223985Y-85182500D01*
X137221477Y-85182702D01*
X137221472Y-85182702D01*
X137042056Y-85197137D01*
X137042051Y-85197138D01*
X137037015Y-85197543D01*
X137032107Y-85198748D01*
X137032104Y-85198749D01*
X136884518Y-85235000D01*
X136793461Y-85257366D01*
X136788809Y-85259341D01*
X136788805Y-85259342D01*
X136625359Y-85328721D01*
X136562604Y-85355359D01*
X136350385Y-85489000D01*
X136162262Y-85654853D01*
X136003076Y-85848649D01*
X135876922Y-86065404D01*
X135875109Y-86070127D01*
X135875108Y-86070129D01*
X135833538Y-86178423D01*
X135787045Y-86299539D01*
X135786012Y-86304485D01*
X135786010Y-86304491D01*
X135746007Y-86495978D01*
X135735759Y-86545033D01*
X135735530Y-86550082D01*
X135735529Y-86550088D01*
X135733918Y-86585563D01*
X135724382Y-86795568D01*
X135753208Y-87044699D01*
X135754587Y-87049573D01*
X135754588Y-87049577D01*
X135815123Y-87263502D01*
X135821494Y-87286017D01*
X135823628Y-87290592D01*
X135823630Y-87290599D01*
X135925347Y-87508731D01*
X135927484Y-87513313D01*
X135930326Y-87517494D01*
X135930326Y-87517495D01*
X135964430Y-87567677D01*
X135986176Y-87635261D01*
X135967932Y-87703874D01*
X135915489Y-87751730D01*
X135860218Y-87764500D01*
X130500358Y-87764500D01*
X130444427Y-87751072D01*
X130442362Y-87749769D01*
X130433873Y-87746382D01*
X130343187Y-87710202D01*
X130247163Y-87671892D01*
X130241506Y-87670767D01*
X130241500Y-87670765D01*
X130046707Y-87632019D01*
X130046705Y-87632019D01*
X130041040Y-87630892D01*
X130035265Y-87630816D01*
X130035261Y-87630816D01*
X129930001Y-87629438D01*
X129830898Y-87628141D01*
X129825201Y-87629120D01*
X129825200Y-87629120D01*
X129681799Y-87653761D01*
X129623772Y-87663732D01*
X129426601Y-87736472D01*
X129421640Y-87739424D01*
X129421639Y-87739424D01*
X129252663Y-87839955D01*
X129245988Y-87843926D01*
X129087981Y-87982494D01*
X129084410Y-87987024D01*
X128973256Y-88128023D01*
X128957872Y-88147537D01*
X128955181Y-88152653D01*
X128955179Y-88152655D01*
X128864372Y-88325252D01*
X128860018Y-88333527D01*
X128797696Y-88534234D01*
X128772995Y-88742938D01*
X127163966Y-88742938D01*
X127360316Y-88546588D01*
X127422628Y-88512562D01*
X127473714Y-88512774D01*
X127473744Y-88512545D01*
X127475544Y-88512782D01*
X127477215Y-88512789D01*
X127485104Y-88514574D01*
X127490875Y-88514801D01*
X127490877Y-88514801D01*
X127554433Y-88517298D01*
X127695103Y-88522825D01*
X127903088Y-88492669D01*
X127908552Y-88490814D01*
X127908557Y-88490813D01*
X128096624Y-88426973D01*
X128096629Y-88426971D01*
X128102096Y-88425115D01*
X128155101Y-88395431D01*
X128179042Y-88382023D01*
X128285460Y-88322426D01*
X128447041Y-88188041D01*
X128581426Y-88026460D01*
X128659867Y-87886394D01*
X128681291Y-87848139D01*
X128681292Y-87848137D01*
X128684115Y-87843096D01*
X128685971Y-87837629D01*
X128685973Y-87837624D01*
X128749813Y-87649557D01*
X128749814Y-87649552D01*
X128751669Y-87644088D01*
X128781825Y-87436103D01*
X128783399Y-87376000D01*
X128764169Y-87166721D01*
X128757041Y-87141445D01*
X128727471Y-87036599D01*
X128707123Y-86964451D01*
X128614171Y-86775963D01*
X128496210Y-86617993D01*
X128491880Y-86612195D01*
X128491879Y-86612194D01*
X128488427Y-86607571D01*
X128417025Y-86541568D01*
X128338341Y-86468833D01*
X128338338Y-86468831D01*
X128334101Y-86464914D01*
X128156362Y-86352769D01*
X127961163Y-86274892D01*
X127955506Y-86273767D01*
X127955500Y-86273765D01*
X127760707Y-86235019D01*
X127760705Y-86235019D01*
X127755040Y-86233892D01*
X127749265Y-86233816D01*
X127749261Y-86233816D01*
X127644001Y-86232438D01*
X127544898Y-86231141D01*
X127539201Y-86232120D01*
X127539200Y-86232120D01*
X127343469Y-86265753D01*
X127337772Y-86266732D01*
X127140601Y-86339472D01*
X127135640Y-86342424D01*
X127135639Y-86342424D01*
X126992795Y-86427408D01*
X126959988Y-86446926D01*
X126801981Y-86585494D01*
X126671872Y-86750537D01*
X126669181Y-86755653D01*
X126669179Y-86755655D01*
X126578262Y-86928461D01*
X126574018Y-86936527D01*
X126572304Y-86942047D01*
X126549356Y-87015951D01*
X126510053Y-87075076D01*
X126445024Y-87103566D01*
X126374915Y-87092376D01*
X126321985Y-87045059D01*
X126307755Y-87012787D01*
X126295692Y-86970015D01*
X126294123Y-86964451D01*
X126201171Y-86775963D01*
X126083210Y-86617993D01*
X126078880Y-86612195D01*
X126078879Y-86612194D01*
X126075427Y-86607571D01*
X126004025Y-86541568D01*
X125925341Y-86468833D01*
X125925338Y-86468831D01*
X125921101Y-86464914D01*
X125743362Y-86352769D01*
X125548163Y-86274892D01*
X125542506Y-86273767D01*
X125542500Y-86273765D01*
X125347707Y-86235019D01*
X125347705Y-86235019D01*
X125342040Y-86233892D01*
X125336265Y-86233816D01*
X125336261Y-86233816D01*
X125231001Y-86232438D01*
X125131898Y-86231141D01*
X125126201Y-86232120D01*
X125126200Y-86232120D01*
X124930469Y-86265753D01*
X124924772Y-86266732D01*
X124727601Y-86339472D01*
X124722640Y-86342424D01*
X124722639Y-86342424D01*
X124579795Y-86427408D01*
X124546988Y-86446926D01*
X124388981Y-86585494D01*
X124258872Y-86750537D01*
X124256181Y-86755653D01*
X124256179Y-86755655D01*
X124165262Y-86928461D01*
X124161018Y-86936527D01*
X124098696Y-87137234D01*
X124098017Y-87142969D01*
X124098017Y-87142970D01*
X124087432Y-87232408D01*
X124073995Y-87345938D01*
X124087740Y-87555649D01*
X124139471Y-87759343D01*
X124145192Y-87771753D01*
X124225038Y-87944953D01*
X124225041Y-87944958D01*
X124227457Y-87950199D01*
X124230788Y-87954912D01*
X124230789Y-87954914D01*
X124335886Y-88103621D01*
X124348751Y-88121825D01*
X124499289Y-88268474D01*
X124504089Y-88271681D01*
X124504093Y-88271684D01*
X124532501Y-88290666D01*
X124578029Y-88345142D01*
X124588500Y-88395431D01*
X124588500Y-92355567D01*
X124568498Y-92423688D01*
X124514842Y-92470181D01*
X124437919Y-92479146D01*
X124359397Y-92463527D01*
X124331707Y-92458019D01*
X124331705Y-92458019D01*
X124326040Y-92456892D01*
X124320265Y-92456816D01*
X124320261Y-92456816D01*
X124215001Y-92455438D01*
X124115898Y-92454141D01*
X124110201Y-92455120D01*
X124110200Y-92455120D01*
X124061275Y-92463527D01*
X123908772Y-92489732D01*
X123711601Y-92562472D01*
X123706640Y-92565424D01*
X123706639Y-92565424D01*
X123557986Y-92653864D01*
X123530988Y-92669926D01*
X123372981Y-92808494D01*
X123330125Y-92862857D01*
X123248799Y-92966019D01*
X123242872Y-92973537D01*
X123240181Y-92978653D01*
X123240179Y-92978655D01*
X123186002Y-93081629D01*
X123145018Y-93159527D01*
X123082696Y-93360234D01*
X123082017Y-93365969D01*
X123082017Y-93365970D01*
X123079541Y-93386892D01*
X123057995Y-93568938D01*
X123071740Y-93778649D01*
X123123471Y-93982343D01*
X123125890Y-93987590D01*
X123209038Y-94167953D01*
X123209041Y-94167958D01*
X123211457Y-94173199D01*
X123214788Y-94177912D01*
X123214789Y-94177914D01*
X123328263Y-94338474D01*
X123332751Y-94344825D01*
X123483289Y-94491474D01*
X123488093Y-94494684D01*
X123516501Y-94513666D01*
X123562029Y-94568142D01*
X123572500Y-94618431D01*
X123572500Y-100396406D01*
X123552498Y-100464527D01*
X123535595Y-100485501D01*
X118733747Y-105287348D01*
X118725461Y-105294888D01*
X118718982Y-105299000D01*
X118713557Y-105304777D01*
X118672357Y-105348651D01*
X118669602Y-105351493D01*
X118649865Y-105371230D01*
X118647385Y-105374427D01*
X118639682Y-105383447D01*
X118609414Y-105415679D01*
X118605595Y-105422625D01*
X118605593Y-105422628D01*
X118599652Y-105433434D01*
X118588801Y-105449953D01*
X118576386Y-105465959D01*
X118573241Y-105473228D01*
X118573238Y-105473232D01*
X118558826Y-105506537D01*
X118553609Y-105517187D01*
X118532305Y-105555940D01*
X118530334Y-105563615D01*
X118530334Y-105563616D01*
X118527267Y-105575562D01*
X118520863Y-105594266D01*
X118512819Y-105612855D01*
X118511580Y-105620678D01*
X118511577Y-105620688D01*
X118505901Y-105656524D01*
X118503495Y-105668144D01*
X118500521Y-105679729D01*
X118492500Y-105710970D01*
X118492500Y-105731224D01*
X118490949Y-105750934D01*
X118487780Y-105770943D01*
X118488526Y-105778835D01*
X118491941Y-105814961D01*
X118492500Y-105826819D01*
X118492500Y-111363646D01*
X118472498Y-111431767D01*
X118438772Y-111466858D01*
X118419839Y-111480115D01*
X118318473Y-111551092D01*
X118318470Y-111551094D01*
X118313962Y-111554251D01*
X118158251Y-111709962D01*
X118155094Y-111714470D01*
X118155092Y-111714473D01*
X118042689Y-111875001D01*
X118031944Y-111890347D01*
X118029621Y-111895329D01*
X118029618Y-111895334D01*
X118003769Y-111950768D01*
X117938880Y-112089924D01*
X117881885Y-112302629D01*
X117862693Y-112522000D01*
X89281500Y-112522000D01*
X89281500Y-96568463D01*
X90098260Y-96568463D01*
X90102129Y-96609387D01*
X90102421Y-96612481D01*
X90102980Y-96624339D01*
X90102980Y-102214713D01*
X90102453Y-102225896D01*
X90100778Y-102233389D01*
X90101027Y-102241315D01*
X90101027Y-102241316D01*
X90102918Y-102301466D01*
X90102980Y-102305425D01*
X90102980Y-102333336D01*
X90103477Y-102337270D01*
X90103477Y-102337271D01*
X90103485Y-102337336D01*
X90104418Y-102349173D01*
X90105807Y-102393369D01*
X90111458Y-102412819D01*
X90115467Y-102432180D01*
X90118006Y-102452277D01*
X90120925Y-102459648D01*
X90120925Y-102459650D01*
X90134284Y-102493392D01*
X90138129Y-102504622D01*
X90150462Y-102547073D01*
X90154495Y-102553892D01*
X90154497Y-102553897D01*
X90160773Y-102564508D01*
X90169468Y-102582256D01*
X90176928Y-102601097D01*
X90181590Y-102607513D01*
X90181590Y-102607514D01*
X90202916Y-102636867D01*
X90209432Y-102646787D01*
X90224104Y-102671595D01*
X90231938Y-102684842D01*
X90246259Y-102699163D01*
X90259099Y-102714196D01*
X90271008Y-102730587D01*
X90277114Y-102735638D01*
X90305085Y-102758778D01*
X90313864Y-102766768D01*
X92536329Y-104989233D01*
X92570355Y-105051545D01*
X92565290Y-105122360D01*
X92522743Y-105179196D01*
X92456223Y-105204007D01*
X92395985Y-105193435D01*
X92363319Y-105178891D01*
X92363318Y-105178891D01*
X92357288Y-105176206D01*
X92261756Y-105155900D01*
X92176944Y-105137872D01*
X92176939Y-105137872D01*
X92170487Y-105136500D01*
X91979513Y-105136500D01*
X91973061Y-105137872D01*
X91973056Y-105137872D01*
X91888244Y-105155900D01*
X91792712Y-105176206D01*
X91786682Y-105178891D01*
X91786681Y-105178891D01*
X91624278Y-105251197D01*
X91624276Y-105251198D01*
X91618248Y-105253882D01*
X91612907Y-105257762D01*
X91612906Y-105257763D01*
X91572186Y-105287348D01*
X91463747Y-105366134D01*
X91459326Y-105371044D01*
X91459325Y-105371045D01*
X91367316Y-105473232D01*
X91335960Y-105508056D01*
X91291391Y-105585251D01*
X91246856Y-105662389D01*
X91240473Y-105673444D01*
X91181458Y-105855072D01*
X91180768Y-105861633D01*
X91180768Y-105861635D01*
X91172736Y-105938057D01*
X91161496Y-106045000D01*
X91162186Y-106051565D01*
X91179060Y-106212108D01*
X91181458Y-106234928D01*
X91240473Y-106416556D01*
X91243776Y-106422278D01*
X91243777Y-106422279D01*
X91262853Y-106455319D01*
X91335960Y-106581944D01*
X91340378Y-106586851D01*
X91340379Y-106586852D01*
X91439130Y-106696526D01*
X91463747Y-106723866D01*
X91618248Y-106836118D01*
X91624276Y-106838802D01*
X91624278Y-106838803D01*
X91786681Y-106911109D01*
X91792712Y-106913794D01*
X91886113Y-106933647D01*
X91973056Y-106952128D01*
X91973061Y-106952128D01*
X91979513Y-106953500D01*
X92125405Y-106953500D01*
X92193526Y-106973502D01*
X92240019Y-107027158D01*
X92250123Y-107097432D01*
X92220629Y-107162012D01*
X92214500Y-107168595D01*
X92124500Y-107258595D01*
X92062188Y-107292621D01*
X92035405Y-107295500D01*
X91979513Y-107295500D01*
X91973061Y-107296872D01*
X91973056Y-107296872D01*
X91886113Y-107315353D01*
X91792712Y-107335206D01*
X91786682Y-107337891D01*
X91786681Y-107337891D01*
X91624278Y-107410197D01*
X91624276Y-107410198D01*
X91618248Y-107412882D01*
X91612907Y-107416762D01*
X91612906Y-107416763D01*
X91585756Y-107436489D01*
X91463747Y-107525134D01*
X91459326Y-107530044D01*
X91459325Y-107530045D01*
X91351875Y-107649381D01*
X91335960Y-107667056D01*
X91303143Y-107723896D01*
X91245591Y-107823580D01*
X91240473Y-107832444D01*
X91181458Y-108014072D01*
X91180768Y-108020633D01*
X91180768Y-108020635D01*
X91168683Y-108135615D01*
X91161496Y-108204000D01*
X91181458Y-108393928D01*
X91240473Y-108575556D01*
X91243776Y-108581278D01*
X91243777Y-108581279D01*
X91247858Y-108588347D01*
X91335960Y-108740944D01*
X91340378Y-108745851D01*
X91340379Y-108745852D01*
X91424250Y-108839000D01*
X91463747Y-108882866D01*
X91618248Y-108995118D01*
X91624276Y-108997802D01*
X91624278Y-108997803D01*
X91739000Y-109048880D01*
X91792712Y-109072794D01*
X91862016Y-109087525D01*
X91973056Y-109111128D01*
X91973061Y-109111128D01*
X91979513Y-109112500D01*
X92170487Y-109112500D01*
X92176939Y-109111128D01*
X92176944Y-109111128D01*
X92287984Y-109087525D01*
X92357288Y-109072794D01*
X92411000Y-109048880D01*
X92525722Y-108997803D01*
X92525724Y-108997802D01*
X92531752Y-108995118D01*
X92686253Y-108882866D01*
X92725750Y-108839000D01*
X92809621Y-108745852D01*
X92809622Y-108745851D01*
X92814040Y-108740944D01*
X92902142Y-108588347D01*
X92906223Y-108581279D01*
X92906224Y-108581278D01*
X92909527Y-108575556D01*
X92968542Y-108393928D01*
X92983503Y-108251578D01*
X93010516Y-108185922D01*
X93068737Y-108145292D01*
X93139683Y-108142589D01*
X93153042Y-108146767D01*
X93259684Y-108186745D01*
X93321866Y-108193500D01*
X95818134Y-108193500D01*
X95880316Y-108186745D01*
X96016705Y-108135615D01*
X96133261Y-108048261D01*
X96220615Y-107931705D01*
X96271745Y-107795316D01*
X96278500Y-107733134D01*
X96278500Y-106896866D01*
X96271745Y-106834684D01*
X96268973Y-106827288D01*
X96268971Y-106827282D01*
X96230338Y-106724229D01*
X96225155Y-106653422D01*
X96230338Y-106635771D01*
X96268971Y-106532718D01*
X96268973Y-106532712D01*
X96271745Y-106525316D01*
X96278500Y-106463134D01*
X96278500Y-105626866D01*
X96271745Y-105564684D01*
X96268973Y-105557288D01*
X96268971Y-105557282D01*
X96230338Y-105454229D01*
X96225155Y-105383422D01*
X96230338Y-105365771D01*
X96268971Y-105262718D01*
X96268973Y-105262712D01*
X96271745Y-105255316D01*
X96278500Y-105193134D01*
X96278500Y-104356866D01*
X96271745Y-104294684D01*
X96268973Y-104287288D01*
X96268971Y-104287282D01*
X96230338Y-104184229D01*
X96225155Y-104113422D01*
X96230338Y-104095771D01*
X96268971Y-103992718D01*
X96268973Y-103992712D01*
X96271745Y-103985316D01*
X96278500Y-103923134D01*
X96278500Y-103086866D01*
X96271745Y-103024684D01*
X96268973Y-103017288D01*
X96268971Y-103017282D01*
X96230338Y-102914229D01*
X96225155Y-102843422D01*
X96230338Y-102825771D01*
X96268971Y-102722718D01*
X96268973Y-102722712D01*
X96271745Y-102715316D01*
X96278500Y-102653134D01*
X96278500Y-101816866D01*
X96271745Y-101754684D01*
X96220615Y-101618295D01*
X96133261Y-101501739D01*
X96016705Y-101414385D01*
X95880316Y-101363255D01*
X95818134Y-101356500D01*
X93321866Y-101356500D01*
X93318469Y-101356869D01*
X93267534Y-101362402D01*
X93267532Y-101362402D01*
X93259684Y-101363255D01*
X93252210Y-101366057D01*
X93230526Y-101374186D01*
X93159719Y-101379368D01*
X93097202Y-101345298D01*
X92863768Y-101111863D01*
X92618404Y-100866499D01*
X92584379Y-100804187D01*
X92581500Y-100777404D01*
X92581500Y-97596594D01*
X92601502Y-97528473D01*
X92618405Y-97507499D01*
X97285801Y-92840104D01*
X97348113Y-92806078D01*
X97418928Y-92811143D01*
X97475764Y-92853690D01*
X97500060Y-92914715D01*
X97526208Y-93140699D01*
X97527587Y-93145573D01*
X97527588Y-93145577D01*
X97586768Y-93354715D01*
X97594494Y-93382017D01*
X97596628Y-93386592D01*
X97596630Y-93386599D01*
X97698347Y-93604731D01*
X97700484Y-93609313D01*
X97703326Y-93613494D01*
X97703326Y-93613495D01*
X97838605Y-93812552D01*
X97838608Y-93812556D01*
X97841451Y-93816739D01*
X98013767Y-93998959D01*
X98017793Y-94002037D01*
X98017794Y-94002038D01*
X98208981Y-94148212D01*
X98208985Y-94148215D01*
X98213001Y-94151285D01*
X98217459Y-94153675D01*
X98217460Y-94153676D01*
X98262664Y-94177914D01*
X98434026Y-94269797D01*
X98438807Y-94271443D01*
X98438811Y-94271445D01*
X98663623Y-94348854D01*
X98671156Y-94351448D01*
X98774689Y-94369331D01*
X98914380Y-94393460D01*
X98914386Y-94393461D01*
X98918290Y-94394135D01*
X98922251Y-94394315D01*
X98922252Y-94394315D01*
X98946931Y-94395436D01*
X98946950Y-94395436D01*
X98948350Y-94395500D01*
X98968405Y-94395500D01*
X99036526Y-94415502D01*
X99083019Y-94469158D01*
X99093123Y-94539432D01*
X99063629Y-94604012D01*
X99057500Y-94610595D01*
X98794747Y-94873348D01*
X98786461Y-94880888D01*
X98779982Y-94885000D01*
X98774557Y-94890777D01*
X98733357Y-94934651D01*
X98730602Y-94937493D01*
X98710865Y-94957230D01*
X98708385Y-94960427D01*
X98700682Y-94969447D01*
X98670414Y-95001679D01*
X98666595Y-95008625D01*
X98666593Y-95008628D01*
X98660652Y-95019434D01*
X98649801Y-95035953D01*
X98637386Y-95051959D01*
X98634241Y-95059228D01*
X98634238Y-95059232D01*
X98619826Y-95092537D01*
X98614609Y-95103187D01*
X98593305Y-95141940D01*
X98591334Y-95149615D01*
X98591334Y-95149616D01*
X98588267Y-95161562D01*
X98581863Y-95180266D01*
X98573819Y-95198855D01*
X98572580Y-95206678D01*
X98572577Y-95206688D01*
X98566901Y-95242524D01*
X98564495Y-95254144D01*
X98553500Y-95296970D01*
X98553500Y-95317224D01*
X98551949Y-95336934D01*
X98548780Y-95356943D01*
X98549526Y-95364835D01*
X98552941Y-95400961D01*
X98553500Y-95412819D01*
X98553500Y-96187233D01*
X98552973Y-96198416D01*
X98551298Y-96205909D01*
X98551547Y-96213835D01*
X98551547Y-96213836D01*
X98553438Y-96273986D01*
X98553500Y-96277945D01*
X98553500Y-96305856D01*
X98553997Y-96309790D01*
X98553997Y-96309791D01*
X98554005Y-96309856D01*
X98554938Y-96321693D01*
X98556327Y-96365889D01*
X98561207Y-96382686D01*
X98561978Y-96385339D01*
X98565987Y-96404700D01*
X98568526Y-96424797D01*
X98571445Y-96432168D01*
X98571445Y-96432170D01*
X98584804Y-96465912D01*
X98588649Y-96477142D01*
X98593691Y-96494497D01*
X98600982Y-96519593D01*
X98605015Y-96526412D01*
X98605017Y-96526417D01*
X98611293Y-96537028D01*
X98619988Y-96554776D01*
X98627448Y-96573617D01*
X98632110Y-96580033D01*
X98632110Y-96580034D01*
X98653436Y-96609387D01*
X98659952Y-96619307D01*
X98682458Y-96657362D01*
X98696779Y-96671683D01*
X98709619Y-96686716D01*
X98721528Y-96703107D01*
X98727632Y-96708157D01*
X98727637Y-96708162D01*
X98755598Y-96731293D01*
X98764379Y-96739283D01*
X99659596Y-97634501D01*
X99693621Y-97696813D01*
X99696500Y-97723596D01*
X99696500Y-101031405D01*
X99676498Y-101099526D01*
X99659595Y-101120501D01*
X99460499Y-101319596D01*
X99398187Y-101353621D01*
X99371404Y-101356500D01*
X97221866Y-101356500D01*
X97159684Y-101363255D01*
X97023295Y-101414385D01*
X96906739Y-101501739D01*
X96819385Y-101618295D01*
X96768255Y-101754684D01*
X96761500Y-101816866D01*
X96761500Y-102653134D01*
X96768255Y-102715316D01*
X96771027Y-102722712D01*
X96771029Y-102722718D01*
X96809662Y-102825771D01*
X96814845Y-102896578D01*
X96809662Y-102914229D01*
X96771029Y-103017282D01*
X96771027Y-103017288D01*
X96768255Y-103024684D01*
X96761500Y-103086866D01*
X96761500Y-103923134D01*
X96768255Y-103985316D01*
X96771027Y-103992712D01*
X96771029Y-103992718D01*
X96809662Y-104095771D01*
X96814845Y-104166578D01*
X96809662Y-104184229D01*
X96771029Y-104287282D01*
X96771027Y-104287288D01*
X96768255Y-104294684D01*
X96761500Y-104356866D01*
X96761500Y-105193134D01*
X96768255Y-105255316D01*
X96771027Y-105262712D01*
X96771029Y-105262718D01*
X96809662Y-105365771D01*
X96814845Y-105436578D01*
X96809662Y-105454229D01*
X96771029Y-105557282D01*
X96771027Y-105557288D01*
X96768255Y-105564684D01*
X96761500Y-105626866D01*
X96761500Y-106463134D01*
X96768255Y-106525316D01*
X96771027Y-106532712D01*
X96771029Y-106532718D01*
X96809662Y-106635771D01*
X96814845Y-106706578D01*
X96809662Y-106724229D01*
X96771029Y-106827282D01*
X96771027Y-106827288D01*
X96768255Y-106834684D01*
X96761500Y-106896866D01*
X96761500Y-107733134D01*
X96768255Y-107795316D01*
X96819385Y-107931705D01*
X96906739Y-108048261D01*
X97023295Y-108135615D01*
X97159684Y-108186745D01*
X97221866Y-108193500D01*
X99718134Y-108193500D01*
X99780316Y-108186745D01*
X99916705Y-108135615D01*
X100033261Y-108048261D01*
X100063590Y-108007794D01*
X100070229Y-107998935D01*
X100127088Y-107956420D01*
X100171055Y-107948500D01*
X100886233Y-107948500D01*
X100897416Y-107949027D01*
X100904909Y-107950702D01*
X100912835Y-107950453D01*
X100912836Y-107950453D01*
X100972986Y-107948562D01*
X100976945Y-107948500D01*
X101004856Y-107948500D01*
X101008791Y-107948003D01*
X101008856Y-107947995D01*
X101020693Y-107947062D01*
X101052951Y-107946048D01*
X101056970Y-107945922D01*
X101064889Y-107945673D01*
X101084343Y-107940021D01*
X101103700Y-107936013D01*
X101115930Y-107934468D01*
X101115931Y-107934468D01*
X101123797Y-107933474D01*
X101131168Y-107930555D01*
X101131170Y-107930555D01*
X101164912Y-107917196D01*
X101176142Y-107913351D01*
X101210983Y-107903229D01*
X101210984Y-107903229D01*
X101218593Y-107901018D01*
X101225412Y-107896985D01*
X101225417Y-107896983D01*
X101236028Y-107890707D01*
X101253776Y-107882012D01*
X101272617Y-107874552D01*
X101282847Y-107867120D01*
X101308387Y-107848564D01*
X101318307Y-107842048D01*
X101349535Y-107823580D01*
X101349538Y-107823578D01*
X101356362Y-107819542D01*
X101370683Y-107805221D01*
X101385717Y-107792380D01*
X101395694Y-107785131D01*
X101402107Y-107780472D01*
X101430298Y-107746395D01*
X101438288Y-107737616D01*
X102754247Y-106421657D01*
X102762537Y-106414113D01*
X102769018Y-106410000D01*
X102815659Y-106360332D01*
X102818413Y-106357491D01*
X102838134Y-106337770D01*
X102840612Y-106334575D01*
X102848318Y-106325553D01*
X102873158Y-106299101D01*
X102878586Y-106293321D01*
X102888346Y-106275568D01*
X102899199Y-106259045D01*
X102900356Y-106257553D01*
X102911613Y-106243041D01*
X102929176Y-106202457D01*
X102934383Y-106191827D01*
X102955695Y-106153060D01*
X102957666Y-106145383D01*
X102957668Y-106145378D01*
X102960732Y-106133442D01*
X102967138Y-106114730D01*
X102972034Y-106103417D01*
X102975181Y-106096145D01*
X102982097Y-106052481D01*
X102984504Y-106040860D01*
X102993528Y-106005711D01*
X102993528Y-106005710D01*
X102995500Y-105998030D01*
X102995500Y-105977769D01*
X102997051Y-105958058D01*
X102998979Y-105945885D01*
X103000219Y-105938057D01*
X102996059Y-105894046D01*
X102995500Y-105882189D01*
X102995500Y-99187090D01*
X103015502Y-99118969D01*
X103069158Y-99072476D01*
X103139432Y-99062372D01*
X103191503Y-99082326D01*
X103196503Y-99085667D01*
X103242030Y-99140144D01*
X103252500Y-99190431D01*
X103252500Y-109141233D01*
X103251973Y-109152416D01*
X103250298Y-109159909D01*
X103250547Y-109167835D01*
X103250547Y-109167836D01*
X103252438Y-109227986D01*
X103252500Y-109231945D01*
X103252500Y-109259856D01*
X103252997Y-109263790D01*
X103252997Y-109263791D01*
X103253005Y-109263856D01*
X103253938Y-109275693D01*
X103255327Y-109319889D01*
X103260978Y-109339339D01*
X103264987Y-109358700D01*
X103267526Y-109378797D01*
X103270445Y-109386168D01*
X103270445Y-109386170D01*
X103283804Y-109419912D01*
X103287649Y-109431142D01*
X103297771Y-109465983D01*
X103299982Y-109473593D01*
X103304015Y-109480412D01*
X103304017Y-109480417D01*
X103310293Y-109491028D01*
X103318988Y-109508776D01*
X103326448Y-109527617D01*
X103331110Y-109534033D01*
X103331110Y-109534034D01*
X103352436Y-109563387D01*
X103358952Y-109573307D01*
X103374643Y-109599838D01*
X103381458Y-109611362D01*
X103395779Y-109625683D01*
X103408619Y-109640716D01*
X103420528Y-109657107D01*
X103426632Y-109662157D01*
X103426637Y-109662162D01*
X103454598Y-109685293D01*
X103463379Y-109693283D01*
X103633673Y-109863578D01*
X103667698Y-109925890D01*
X103666284Y-109985284D01*
X103657885Y-110016629D01*
X103638693Y-110236000D01*
X103657885Y-110455371D01*
X103714880Y-110668076D01*
X103717205Y-110673061D01*
X103805618Y-110862666D01*
X103805621Y-110862671D01*
X103807944Y-110867653D01*
X103811100Y-110872160D01*
X103811101Y-110872162D01*
X103900028Y-110999162D01*
X103934251Y-111048038D01*
X104089962Y-111203749D01*
X104270346Y-111330056D01*
X104469924Y-111423120D01*
X104682629Y-111480115D01*
X104902000Y-111499307D01*
X105121371Y-111480115D01*
X105334076Y-111423120D01*
X105533654Y-111330056D01*
X105714038Y-111203749D01*
X105869749Y-111048038D01*
X105903973Y-110999162D01*
X105992899Y-110872162D01*
X105992900Y-110872160D01*
X105996056Y-110867653D01*
X105998379Y-110862671D01*
X105998382Y-110862666D01*
X106086795Y-110673061D01*
X106089120Y-110668076D01*
X106146115Y-110455371D01*
X106165307Y-110236000D01*
X106146115Y-110016629D01*
X106089120Y-109803924D01*
X106045585Y-109710562D01*
X105998382Y-109609334D01*
X105998379Y-109609329D01*
X105996056Y-109604347D01*
X105970740Y-109568192D01*
X105872908Y-109428473D01*
X105872906Y-109428470D01*
X105869749Y-109423962D01*
X105714038Y-109268251D01*
X105707762Y-109263856D01*
X105570631Y-109167836D01*
X105533654Y-109141944D01*
X105334076Y-109048880D01*
X105121371Y-108991885D01*
X104902000Y-108972693D01*
X104682629Y-108991885D01*
X104677315Y-108993309D01*
X104671898Y-108994264D01*
X104671665Y-108992940D01*
X104607145Y-108991409D01*
X104548346Y-108951620D01*
X104520392Y-108886358D01*
X104519500Y-108871389D01*
X104519500Y-99190621D01*
X104539502Y-99122500D01*
X104564931Y-99093747D01*
X104609758Y-99056465D01*
X104698041Y-98983041D01*
X104832426Y-98821460D01*
X104855068Y-98781030D01*
X104905804Y-98731370D01*
X104975336Y-98717023D01*
X105041586Y-98742545D01*
X105067898Y-98769878D01*
X105168415Y-98912106D01*
X105168420Y-98912112D01*
X105171751Y-98916825D01*
X105322289Y-99063474D01*
X105327085Y-99066679D01*
X105327088Y-99066681D01*
X105440311Y-99142334D01*
X105497031Y-99180233D01*
X105502339Y-99182514D01*
X105502340Y-99182514D01*
X105684822Y-99260914D01*
X105684825Y-99260915D01*
X105690125Y-99263192D01*
X105695754Y-99264466D01*
X105695755Y-99264466D01*
X105889467Y-99308299D01*
X105889473Y-99308300D01*
X105895104Y-99309574D01*
X105900875Y-99309801D01*
X105900877Y-99309801D01*
X105960259Y-99312134D01*
X106105103Y-99317825D01*
X106209247Y-99302725D01*
X106279532Y-99312745D01*
X106316421Y-99338326D01*
X107406595Y-100428500D01*
X107440621Y-100490812D01*
X107443500Y-100517595D01*
X107443500Y-109204646D01*
X107423498Y-109272767D01*
X107389772Y-109307858D01*
X107333871Y-109347000D01*
X107269473Y-109392092D01*
X107269470Y-109392094D01*
X107264962Y-109395251D01*
X107109251Y-109550962D01*
X107106094Y-109555470D01*
X107106092Y-109555473D01*
X106991123Y-109719666D01*
X106982944Y-109731347D01*
X106980621Y-109736329D01*
X106980618Y-109736334D01*
X106951425Y-109798939D01*
X106889880Y-109930924D01*
X106832885Y-110143629D01*
X106813693Y-110363000D01*
X106832885Y-110582371D01*
X106889880Y-110795076D01*
X106892205Y-110800061D01*
X106980618Y-110989666D01*
X106980621Y-110989671D01*
X106982944Y-110994653D01*
X106986100Y-110999160D01*
X106986101Y-110999162D01*
X107020325Y-111048038D01*
X107109251Y-111175038D01*
X107264962Y-111330749D01*
X107269471Y-111333906D01*
X107269473Y-111333908D01*
X107321869Y-111370596D01*
X107445346Y-111457056D01*
X107644924Y-111550120D01*
X107857629Y-111607115D01*
X108077000Y-111626307D01*
X108296371Y-111607115D01*
X108509076Y-111550120D01*
X108708654Y-111457056D01*
X108832131Y-111370596D01*
X108884527Y-111333908D01*
X108884529Y-111333906D01*
X108889038Y-111330749D01*
X109044749Y-111175038D01*
X109133676Y-111048038D01*
X109167899Y-110999162D01*
X109167900Y-110999160D01*
X109171056Y-110994653D01*
X109173379Y-110989671D01*
X109173382Y-110989666D01*
X109261795Y-110800061D01*
X109264120Y-110795076D01*
X109321115Y-110582371D01*
X109340307Y-110363000D01*
X109321115Y-110143629D01*
X109264120Y-109930924D01*
X109202575Y-109798939D01*
X109173382Y-109736334D01*
X109173379Y-109736329D01*
X109171056Y-109731347D01*
X109162877Y-109719666D01*
X109047908Y-109555473D01*
X109047906Y-109555470D01*
X109044749Y-109550962D01*
X108889038Y-109395251D01*
X108884530Y-109392094D01*
X108884527Y-109392092D01*
X108820129Y-109347000D01*
X108764228Y-109307858D01*
X108719901Y-109252402D01*
X108713523Y-109220000D01*
X114814693Y-109220000D01*
X114833885Y-109439371D01*
X114890880Y-109652076D01*
X114908134Y-109689077D01*
X114981618Y-109846666D01*
X114981621Y-109846671D01*
X114983944Y-109851653D01*
X114987100Y-109856160D01*
X114987101Y-109856162D01*
X115103297Y-110022106D01*
X115110251Y-110032038D01*
X115265962Y-110187749D01*
X115446346Y-110314056D01*
X115645924Y-110407120D01*
X115858629Y-110464115D01*
X116078000Y-110483307D01*
X116297371Y-110464115D01*
X116510076Y-110407120D01*
X116709654Y-110314056D01*
X116890038Y-110187749D01*
X117045749Y-110032038D01*
X117052704Y-110022106D01*
X117168899Y-109856162D01*
X117168900Y-109856160D01*
X117172056Y-109851653D01*
X117174379Y-109846671D01*
X117174382Y-109846666D01*
X117247866Y-109689077D01*
X117265120Y-109652076D01*
X117322115Y-109439371D01*
X117341307Y-109220000D01*
X117322115Y-109000629D01*
X117265120Y-108787924D01*
X117203575Y-108655939D01*
X117174382Y-108593334D01*
X117174379Y-108593329D01*
X117172056Y-108588347D01*
X117083130Y-108461347D01*
X117048908Y-108412473D01*
X117048906Y-108412470D01*
X117045749Y-108407962D01*
X116890038Y-108252251D01*
X116885530Y-108249094D01*
X116885527Y-108249092D01*
X116796486Y-108186745D01*
X116765228Y-108164858D01*
X116720901Y-108109402D01*
X116711500Y-108061646D01*
X116711500Y-105851594D01*
X116731502Y-105783473D01*
X116748405Y-105762499D01*
X120661253Y-101849652D01*
X120669539Y-101842112D01*
X120676018Y-101838000D01*
X120722644Y-101788348D01*
X120725398Y-101785507D01*
X120745135Y-101765770D01*
X120747615Y-101762573D01*
X120755320Y-101753551D01*
X120780159Y-101727100D01*
X120785586Y-101721321D01*
X120789405Y-101714375D01*
X120789407Y-101714372D01*
X120795348Y-101703566D01*
X120806199Y-101687047D01*
X120813758Y-101677301D01*
X120818614Y-101671041D01*
X120821759Y-101663772D01*
X120821762Y-101663768D01*
X120836174Y-101630463D01*
X120841391Y-101619813D01*
X120862695Y-101581060D01*
X120867733Y-101561437D01*
X120874137Y-101542734D01*
X120879033Y-101531420D01*
X120879033Y-101531419D01*
X120882181Y-101524145D01*
X120883420Y-101516322D01*
X120883423Y-101516312D01*
X120889099Y-101480476D01*
X120891505Y-101468856D01*
X120900528Y-101433711D01*
X120900528Y-101433710D01*
X120902500Y-101426030D01*
X120902500Y-101405776D01*
X120904051Y-101386065D01*
X120905980Y-101373886D01*
X120907220Y-101366057D01*
X120903059Y-101322038D01*
X120902500Y-101310181D01*
X120902500Y-97042950D01*
X120922502Y-96974829D01*
X120976158Y-96928336D01*
X121046432Y-96918232D01*
X121111012Y-96947726D01*
X121116420Y-96952694D01*
X121197289Y-97031474D01*
X121202085Y-97034679D01*
X121202088Y-97034681D01*
X121257988Y-97072032D01*
X121372031Y-97148233D01*
X121377339Y-97150514D01*
X121377340Y-97150514D01*
X121559822Y-97228914D01*
X121559825Y-97228915D01*
X121565125Y-97231192D01*
X121570754Y-97232466D01*
X121570755Y-97232466D01*
X121764467Y-97276299D01*
X121764473Y-97276300D01*
X121770104Y-97277574D01*
X121775875Y-97277801D01*
X121775877Y-97277801D01*
X121839433Y-97280298D01*
X121980103Y-97285825D01*
X122188088Y-97255669D01*
X122193552Y-97253814D01*
X122193557Y-97253813D01*
X122381624Y-97189973D01*
X122381629Y-97189971D01*
X122387096Y-97188115D01*
X122570460Y-97085426D01*
X122732041Y-96951041D01*
X122866426Y-96789460D01*
X122944228Y-96650535D01*
X122966291Y-96611139D01*
X122966292Y-96611137D01*
X122969115Y-96606096D01*
X122970971Y-96600629D01*
X122970973Y-96600624D01*
X123034813Y-96412557D01*
X123034814Y-96412552D01*
X123036669Y-96407088D01*
X123066825Y-96199103D01*
X123068399Y-96139000D01*
X123049169Y-95929721D01*
X123047165Y-95922613D01*
X122993692Y-95733015D01*
X122992123Y-95727451D01*
X122899171Y-95538963D01*
X122800537Y-95406875D01*
X122776880Y-95375195D01*
X122776879Y-95375194D01*
X122773427Y-95370571D01*
X122767222Y-95364835D01*
X122623341Y-95231833D01*
X122623338Y-95231831D01*
X122619101Y-95227914D01*
X122441362Y-95115769D01*
X122246163Y-95037892D01*
X122240506Y-95036767D01*
X122240500Y-95036765D01*
X122045707Y-94998019D01*
X122045705Y-94998019D01*
X122040040Y-94996892D01*
X122034265Y-94996816D01*
X122034261Y-94996816D01*
X121929001Y-94995438D01*
X121829898Y-94994141D01*
X121824201Y-94995120D01*
X121824200Y-94995120D01*
X121628469Y-95028753D01*
X121622772Y-95029732D01*
X121425601Y-95102472D01*
X121420640Y-95105424D01*
X121420639Y-95105424D01*
X121250431Y-95206688D01*
X121244988Y-95209926D01*
X121182318Y-95264886D01*
X121111577Y-95326924D01*
X121047173Y-95356801D01*
X120976840Y-95347115D01*
X120922909Y-95300942D01*
X120902500Y-95232192D01*
X120902500Y-92770594D01*
X120922502Y-92702473D01*
X120939405Y-92681499D01*
X122280316Y-91340588D01*
X122342628Y-91306562D01*
X122393714Y-91306774D01*
X122393744Y-91306545D01*
X122395544Y-91306782D01*
X122397215Y-91306789D01*
X122405104Y-91308574D01*
X122410875Y-91308801D01*
X122410877Y-91308801D01*
X122474433Y-91311298D01*
X122615103Y-91316825D01*
X122823088Y-91286669D01*
X122828552Y-91284814D01*
X122828557Y-91284813D01*
X123016624Y-91220973D01*
X123016629Y-91220971D01*
X123022096Y-91219115D01*
X123075101Y-91189431D01*
X123139188Y-91153540D01*
X123205460Y-91116426D01*
X123367041Y-90982041D01*
X123501426Y-90820460D01*
X123576957Y-90685590D01*
X123601291Y-90642139D01*
X123601292Y-90642137D01*
X123604115Y-90637096D01*
X123605971Y-90631629D01*
X123605973Y-90631624D01*
X123669813Y-90443557D01*
X123669814Y-90443552D01*
X123671669Y-90438088D01*
X123701825Y-90230103D01*
X123703399Y-90170000D01*
X123684169Y-89960721D01*
X123627123Y-89758451D01*
X123534171Y-89569963D01*
X123514339Y-89543404D01*
X123411880Y-89406195D01*
X123411879Y-89406194D01*
X123408427Y-89401571D01*
X123363205Y-89359768D01*
X123258341Y-89262833D01*
X123258338Y-89262831D01*
X123254101Y-89258914D01*
X123076362Y-89146769D01*
X122881163Y-89068892D01*
X122875506Y-89067767D01*
X122875500Y-89067765D01*
X122680707Y-89029019D01*
X122680705Y-89029019D01*
X122675040Y-89027892D01*
X122669265Y-89027816D01*
X122669261Y-89027816D01*
X122564001Y-89026438D01*
X122464898Y-89025141D01*
X122459201Y-89026120D01*
X122459200Y-89026120D01*
X122407423Y-89035017D01*
X122257772Y-89060732D01*
X122060601Y-89133472D01*
X122055640Y-89136424D01*
X122055639Y-89136424D01*
X122022159Y-89156343D01*
X121879988Y-89240926D01*
X121721981Y-89379494D01*
X121718410Y-89384024D01*
X121612142Y-89518825D01*
X121591872Y-89544537D01*
X121589181Y-89549653D01*
X121589179Y-89549655D01*
X121528244Y-89665474D01*
X121494018Y-89730527D01*
X121431696Y-89931234D01*
X121406995Y-90139938D01*
X121407373Y-90145704D01*
X121420617Y-90347777D01*
X121405113Y-90417061D01*
X121383982Y-90445113D01*
X119876747Y-91952348D01*
X119868461Y-91959888D01*
X119861982Y-91964000D01*
X119856557Y-91969777D01*
X119815357Y-92013651D01*
X119812602Y-92016493D01*
X119792865Y-92036230D01*
X119790385Y-92039427D01*
X119782682Y-92048447D01*
X119752414Y-92080679D01*
X119748595Y-92087625D01*
X119748593Y-92087628D01*
X119742652Y-92098434D01*
X119731801Y-92114953D01*
X119719386Y-92130959D01*
X119716241Y-92138228D01*
X119716238Y-92138232D01*
X119701826Y-92171537D01*
X119696609Y-92182187D01*
X119675305Y-92220940D01*
X119673334Y-92228615D01*
X119673334Y-92228616D01*
X119670267Y-92240562D01*
X119663863Y-92259266D01*
X119655819Y-92277855D01*
X119654580Y-92285678D01*
X119654577Y-92285688D01*
X119648901Y-92321524D01*
X119646495Y-92333144D01*
X119635500Y-92375970D01*
X119635500Y-92396224D01*
X119633949Y-92415934D01*
X119630780Y-92435943D01*
X119631526Y-92443835D01*
X119634941Y-92479961D01*
X119635500Y-92491819D01*
X119635500Y-101031406D01*
X119615498Y-101099527D01*
X119598595Y-101120501D01*
X115685747Y-105033348D01*
X115677461Y-105040888D01*
X115670982Y-105045000D01*
X115665557Y-105050777D01*
X115624357Y-105094651D01*
X115621602Y-105097493D01*
X115601865Y-105117230D01*
X115599385Y-105120427D01*
X115591682Y-105129447D01*
X115561414Y-105161679D01*
X115557595Y-105168625D01*
X115557593Y-105168628D01*
X115551652Y-105179434D01*
X115540801Y-105195953D01*
X115528386Y-105211959D01*
X115525241Y-105219228D01*
X115525238Y-105219232D01*
X115510826Y-105252537D01*
X115505609Y-105263187D01*
X115484305Y-105301940D01*
X115482334Y-105309615D01*
X115482334Y-105309616D01*
X115479267Y-105321562D01*
X115472863Y-105340266D01*
X115469235Y-105348651D01*
X115464819Y-105358855D01*
X115463580Y-105366678D01*
X115463577Y-105366688D01*
X115457901Y-105402524D01*
X115455495Y-105414144D01*
X115448313Y-105442117D01*
X115444500Y-105456970D01*
X115444500Y-105477224D01*
X115442949Y-105496934D01*
X115439780Y-105516943D01*
X115440526Y-105524835D01*
X115443941Y-105560961D01*
X115444500Y-105572819D01*
X115444500Y-108061646D01*
X115424498Y-108129767D01*
X115390772Y-108164858D01*
X115359514Y-108186745D01*
X115270473Y-108249092D01*
X115270470Y-108249094D01*
X115265962Y-108252251D01*
X115110251Y-108407962D01*
X115107094Y-108412470D01*
X115107092Y-108412473D01*
X115072870Y-108461347D01*
X114983944Y-108588347D01*
X114981621Y-108593329D01*
X114981618Y-108593334D01*
X114952425Y-108655939D01*
X114890880Y-108787924D01*
X114833885Y-109000629D01*
X114814693Y-109220000D01*
X108713523Y-109220000D01*
X108710500Y-109204646D01*
X108710500Y-100281767D01*
X108711027Y-100270584D01*
X108712702Y-100263091D01*
X108710562Y-100195000D01*
X108710500Y-100191043D01*
X108710500Y-100163144D01*
X108709996Y-100159153D01*
X108709063Y-100147311D01*
X108707923Y-100111036D01*
X108707674Y-100103111D01*
X108705462Y-100095497D01*
X108705461Y-100095492D01*
X108702023Y-100083659D01*
X108698012Y-100064295D01*
X108696467Y-100052064D01*
X108695474Y-100044203D01*
X108692557Y-100036836D01*
X108692556Y-100036831D01*
X108679198Y-100003092D01*
X108675354Y-99991865D01*
X108665230Y-99957022D01*
X108663018Y-99949407D01*
X108652707Y-99931972D01*
X108644012Y-99914224D01*
X108636552Y-99895383D01*
X108610564Y-99859613D01*
X108604048Y-99849693D01*
X108585580Y-99818465D01*
X108585578Y-99818462D01*
X108581542Y-99811638D01*
X108567221Y-99797317D01*
X108554380Y-99782283D01*
X108547131Y-99772306D01*
X108542472Y-99765893D01*
X108508395Y-99737702D01*
X108499616Y-99729712D01*
X107291843Y-98521938D01*
X110738995Y-98521938D01*
X110752740Y-98731649D01*
X110804471Y-98935343D01*
X110806890Y-98940590D01*
X110890038Y-99120953D01*
X110890041Y-99120958D01*
X110892457Y-99126199D01*
X110895788Y-99130912D01*
X110895789Y-99130914D01*
X110989275Y-99263192D01*
X111013751Y-99297825D01*
X111164289Y-99444474D01*
X111169085Y-99447679D01*
X111169088Y-99447681D01*
X111240756Y-99495568D01*
X111339031Y-99561233D01*
X111344339Y-99563514D01*
X111344340Y-99563514D01*
X111526822Y-99641914D01*
X111526825Y-99641915D01*
X111532125Y-99644192D01*
X111537754Y-99645466D01*
X111537755Y-99645466D01*
X111731467Y-99689299D01*
X111731473Y-99689300D01*
X111737104Y-99690574D01*
X111742875Y-99690801D01*
X111742877Y-99690801D01*
X111806433Y-99693298D01*
X111947103Y-99698825D01*
X111966846Y-99695963D01*
X111998421Y-99691385D01*
X112068707Y-99701406D01*
X112122418Y-99747835D01*
X112142500Y-99816081D01*
X112142500Y-105521646D01*
X112122498Y-105589767D01*
X112088772Y-105624858D01*
X112063314Y-105642684D01*
X111968473Y-105709092D01*
X111968470Y-105709094D01*
X111963962Y-105712251D01*
X111808251Y-105867962D01*
X111805094Y-105872470D01*
X111805092Y-105872473D01*
X111711798Y-106005711D01*
X111681944Y-106048347D01*
X111679621Y-106053329D01*
X111679618Y-106053334D01*
X111648101Y-106120924D01*
X111588880Y-106247924D01*
X111531885Y-106460629D01*
X111512693Y-106680000D01*
X111531885Y-106899371D01*
X111588880Y-107112076D01*
X111615235Y-107168595D01*
X111679618Y-107306666D01*
X111679621Y-107306671D01*
X111681944Y-107311653D01*
X111685100Y-107316160D01*
X111685101Y-107316162D01*
X111736700Y-107389852D01*
X111808251Y-107492038D01*
X111963962Y-107647749D01*
X111968471Y-107650906D01*
X111968473Y-107650908D01*
X112043241Y-107703261D01*
X112144346Y-107774056D01*
X112343924Y-107867120D01*
X112556629Y-107924115D01*
X112776000Y-107943307D01*
X112995371Y-107924115D01*
X113208076Y-107867120D01*
X113407654Y-107774056D01*
X113508759Y-107703261D01*
X113583527Y-107650908D01*
X113583529Y-107650906D01*
X113588038Y-107647749D01*
X113743749Y-107492038D01*
X113815301Y-107389852D01*
X113866899Y-107316162D01*
X113866900Y-107316160D01*
X113870056Y-107311653D01*
X113872379Y-107306671D01*
X113872382Y-107306666D01*
X113936765Y-107168595D01*
X113963120Y-107112076D01*
X114020115Y-106899371D01*
X114039307Y-106680000D01*
X114020115Y-106460629D01*
X113963120Y-106247924D01*
X113903899Y-106120924D01*
X113872382Y-106053334D01*
X113872379Y-106053329D01*
X113870056Y-106048347D01*
X113840202Y-106005711D01*
X113746908Y-105872473D01*
X113746906Y-105872470D01*
X113743749Y-105867962D01*
X113588038Y-105712251D01*
X113583530Y-105709094D01*
X113583527Y-105709092D01*
X113488686Y-105642684D01*
X113463228Y-105624858D01*
X113418901Y-105569402D01*
X113409500Y-105521646D01*
X113409500Y-99519767D01*
X113410027Y-99508584D01*
X113411702Y-99501091D01*
X113411528Y-99495568D01*
X115912382Y-99495568D01*
X115912963Y-99500588D01*
X115912963Y-99500592D01*
X115915182Y-99519767D01*
X115941208Y-99744699D01*
X115942587Y-99749573D01*
X115942588Y-99749577D01*
X115994201Y-99931972D01*
X116009494Y-99986017D01*
X116011628Y-99990592D01*
X116011630Y-99990599D01*
X116106945Y-100195001D01*
X116115484Y-100213313D01*
X116118326Y-100217494D01*
X116118326Y-100217495D01*
X116253605Y-100416552D01*
X116253608Y-100416556D01*
X116256451Y-100420739D01*
X116259928Y-100424416D01*
X116259929Y-100424417D01*
X116360238Y-100530491D01*
X116428767Y-100602959D01*
X116432793Y-100606037D01*
X116432794Y-100606038D01*
X116623981Y-100752212D01*
X116623985Y-100752215D01*
X116628001Y-100755285D01*
X116632459Y-100757675D01*
X116632460Y-100757676D01*
X116753723Y-100822696D01*
X116849026Y-100873797D01*
X116853807Y-100875443D01*
X116853811Y-100875445D01*
X117000857Y-100926077D01*
X117086156Y-100955448D01*
X117189689Y-100973331D01*
X117329380Y-100997460D01*
X117329386Y-100997461D01*
X117333290Y-100998135D01*
X117337251Y-100998315D01*
X117337252Y-100998315D01*
X117361931Y-100999436D01*
X117361950Y-100999436D01*
X117363350Y-100999500D01*
X117538015Y-100999500D01*
X117540523Y-100999298D01*
X117540528Y-100999298D01*
X117719944Y-100984863D01*
X117719949Y-100984862D01*
X117724985Y-100984457D01*
X117729893Y-100983252D01*
X117729896Y-100983251D01*
X117963625Y-100925841D01*
X117968539Y-100924634D01*
X117973191Y-100922659D01*
X117973195Y-100922658D01*
X118194741Y-100828617D01*
X118194742Y-100828617D01*
X118199396Y-100826641D01*
X118411615Y-100693000D01*
X118599738Y-100527147D01*
X118758924Y-100333351D01*
X118885078Y-100116596D01*
X118887213Y-100111036D01*
X118973143Y-99887181D01*
X118974955Y-99882461D01*
X118976185Y-99876577D01*
X119025206Y-99641921D01*
X119026241Y-99636967D01*
X119027125Y-99617514D01*
X119032771Y-99493164D01*
X119037618Y-99386432D01*
X119030124Y-99321659D01*
X119020684Y-99240079D01*
X119008792Y-99137301D01*
X119005868Y-99126966D01*
X118941884Y-98900852D01*
X118941883Y-98900850D01*
X118940506Y-98895983D01*
X118938372Y-98891408D01*
X118938370Y-98891401D01*
X118836653Y-98673269D01*
X118836651Y-98673265D01*
X118834516Y-98668687D01*
X118798558Y-98615777D01*
X118696395Y-98465448D01*
X118696392Y-98465444D01*
X118693549Y-98461261D01*
X118592925Y-98354853D01*
X118524713Y-98282721D01*
X118521233Y-98279041D01*
X118517206Y-98275962D01*
X118326019Y-98129788D01*
X118326015Y-98129785D01*
X118321999Y-98126715D01*
X118295539Y-98112527D01*
X118130691Y-98024137D01*
X118100974Y-98008203D01*
X118096193Y-98006557D01*
X118096189Y-98006555D01*
X117868633Y-97928201D01*
X117863844Y-97926552D01*
X117760311Y-97908669D01*
X117620620Y-97884540D01*
X117620614Y-97884539D01*
X117616710Y-97883865D01*
X117612749Y-97883685D01*
X117612748Y-97883685D01*
X117588069Y-97882564D01*
X117588050Y-97882564D01*
X117586650Y-97882500D01*
X117411985Y-97882500D01*
X117409477Y-97882702D01*
X117409472Y-97882702D01*
X117230056Y-97897137D01*
X117230051Y-97897138D01*
X117225015Y-97897543D01*
X117220107Y-97898748D01*
X117220104Y-97898749D01*
X117003458Y-97951963D01*
X116981461Y-97957366D01*
X116976809Y-97959341D01*
X116976805Y-97959342D01*
X116756892Y-98052690D01*
X116750604Y-98055359D01*
X116651057Y-98118047D01*
X116552069Y-98180383D01*
X116538385Y-98189000D01*
X116350262Y-98354853D01*
X116191076Y-98548649D01*
X116064922Y-98765404D01*
X116063109Y-98770127D01*
X116063108Y-98770129D01*
X116053297Y-98795687D01*
X115975045Y-98999539D01*
X115974012Y-99004485D01*
X115974010Y-99004491D01*
X115947479Y-99131491D01*
X115923759Y-99245033D01*
X115923530Y-99250082D01*
X115923529Y-99250088D01*
X115921139Y-99302725D01*
X115912382Y-99495568D01*
X113411528Y-99495568D01*
X113409562Y-99433000D01*
X113409500Y-99429043D01*
X113409500Y-99401144D01*
X113408996Y-99397153D01*
X113408063Y-99385311D01*
X113407941Y-99381408D01*
X113406674Y-99341111D01*
X113404462Y-99333497D01*
X113404461Y-99333492D01*
X113401023Y-99321659D01*
X113397012Y-99302295D01*
X113395922Y-99293662D01*
X113394474Y-99282203D01*
X113391557Y-99274836D01*
X113391556Y-99274831D01*
X113378198Y-99241092D01*
X113374354Y-99229865D01*
X113364230Y-99195022D01*
X113362018Y-99187407D01*
X113351707Y-99169972D01*
X113343012Y-99152224D01*
X113335552Y-99133383D01*
X113327151Y-99121819D01*
X113309564Y-99097613D01*
X113303048Y-99087693D01*
X113284580Y-99056465D01*
X113284578Y-99056462D01*
X113280542Y-99049638D01*
X113266221Y-99035317D01*
X113253380Y-99020283D01*
X113246131Y-99010306D01*
X113241472Y-99003893D01*
X113235367Y-98998842D01*
X113235362Y-98998837D01*
X113207396Y-98975701D01*
X113198618Y-98967713D01*
X113054326Y-98823421D01*
X113020300Y-98761109D01*
X113018725Y-98716246D01*
X113023978Y-98680021D01*
X113033825Y-98612103D01*
X113035399Y-98552000D01*
X113016169Y-98342721D01*
X112959123Y-98140451D01*
X112866171Y-97951963D01*
X112814452Y-97882702D01*
X112743880Y-97788195D01*
X112743879Y-97788194D01*
X112740427Y-97783571D01*
X112684126Y-97731527D01*
X112590341Y-97644833D01*
X112590338Y-97644831D01*
X112586101Y-97640914D01*
X112408362Y-97528769D01*
X112213163Y-97450892D01*
X112207506Y-97449767D01*
X112207500Y-97449765D01*
X112012707Y-97411019D01*
X112012705Y-97411019D01*
X112007040Y-97409892D01*
X112001265Y-97409816D01*
X112001261Y-97409816D01*
X111896001Y-97408438D01*
X111796898Y-97407141D01*
X111791201Y-97408120D01*
X111791200Y-97408120D01*
X111737171Y-97417404D01*
X111589772Y-97442732D01*
X111392601Y-97515472D01*
X111387640Y-97518424D01*
X111387639Y-97518424D01*
X111255018Y-97597326D01*
X111211988Y-97622926D01*
X111053981Y-97761494D01*
X111050410Y-97766024D01*
X110958429Y-97882702D01*
X110923872Y-97926537D01*
X110921181Y-97931653D01*
X110921179Y-97931655D01*
X110828710Y-98107410D01*
X110826018Y-98112527D01*
X110763696Y-98313234D01*
X110738995Y-98521938D01*
X107291843Y-98521938D01*
X107212326Y-98442421D01*
X107178300Y-98380109D01*
X107176725Y-98335246D01*
X107179031Y-98319345D01*
X107191825Y-98231103D01*
X107193399Y-98171000D01*
X107174169Y-97961721D01*
X107164716Y-97928201D01*
X107125321Y-97788519D01*
X107117123Y-97759451D01*
X107024171Y-97570963D01*
X107012595Y-97555460D01*
X106901880Y-97407195D01*
X106901879Y-97407194D01*
X106898427Y-97402571D01*
X106870428Y-97376689D01*
X106748341Y-97263833D01*
X106748338Y-97263831D01*
X106744101Y-97259914D01*
X106566362Y-97147769D01*
X106371163Y-97069892D01*
X106365506Y-97068767D01*
X106365500Y-97068765D01*
X106170707Y-97030019D01*
X106170705Y-97030019D01*
X106165040Y-97028892D01*
X106159265Y-97028816D01*
X106159261Y-97028816D01*
X106054001Y-97027438D01*
X105954898Y-97026141D01*
X105949201Y-97027120D01*
X105949200Y-97027120D01*
X105753469Y-97060753D01*
X105747772Y-97061732D01*
X105550601Y-97134472D01*
X105545640Y-97137424D01*
X105545639Y-97137424D01*
X105415092Y-97215092D01*
X105369988Y-97241926D01*
X105211981Y-97380494D01*
X105188806Y-97409892D01*
X105111859Y-97507499D01*
X105081872Y-97545537D01*
X105079179Y-97550656D01*
X105077434Y-97553972D01*
X105076197Y-97555248D01*
X105076039Y-97555491D01*
X105075991Y-97555460D01*
X105028014Y-97604944D01*
X104958881Y-97621106D01*
X104891986Y-97597326D01*
X104864969Y-97570692D01*
X104742880Y-97407195D01*
X104742879Y-97407194D01*
X104739427Y-97402571D01*
X104711428Y-97376689D01*
X104589341Y-97263833D01*
X104589338Y-97263831D01*
X104585101Y-97259914D01*
X104407362Y-97147769D01*
X104212163Y-97069892D01*
X104206506Y-97068767D01*
X104206500Y-97068765D01*
X104011707Y-97030019D01*
X104011705Y-97030019D01*
X104006040Y-97028892D01*
X104000265Y-97028816D01*
X104000261Y-97028816D01*
X103895001Y-97027438D01*
X103795898Y-97026141D01*
X103790201Y-97027120D01*
X103790200Y-97027120D01*
X103594469Y-97060753D01*
X103588772Y-97061732D01*
X103391601Y-97134472D01*
X103386640Y-97137424D01*
X103386639Y-97137424D01*
X103256092Y-97215092D01*
X103210988Y-97241926D01*
X103206648Y-97245732D01*
X103206644Y-97245735D01*
X103204575Y-97247550D01*
X103203390Y-97248100D01*
X103201972Y-97249130D01*
X103201770Y-97248851D01*
X103140170Y-97277425D01*
X103069838Y-97267738D01*
X103015907Y-97221563D01*
X102995500Y-97152816D01*
X102995500Y-96344767D01*
X102996027Y-96333584D01*
X102997702Y-96326091D01*
X102997010Y-96304057D01*
X102995562Y-96258001D01*
X102995500Y-96254043D01*
X102995500Y-96226144D01*
X102994996Y-96222153D01*
X102994063Y-96210311D01*
X102993973Y-96207420D01*
X102992674Y-96166111D01*
X102990462Y-96158497D01*
X102990461Y-96158492D01*
X102987023Y-96146659D01*
X102983012Y-96127295D01*
X102981467Y-96115064D01*
X102980474Y-96107203D01*
X102977557Y-96099836D01*
X102977556Y-96099831D01*
X102964198Y-96066092D01*
X102960354Y-96054865D01*
X102953683Y-96031906D01*
X102948018Y-96012407D01*
X102937707Y-95994972D01*
X102929012Y-95977224D01*
X102921552Y-95958383D01*
X102895564Y-95922613D01*
X102889048Y-95912693D01*
X102870580Y-95881465D01*
X102870578Y-95881462D01*
X102866542Y-95874638D01*
X102852221Y-95860317D01*
X102839380Y-95845283D01*
X102832131Y-95835306D01*
X102827472Y-95828893D01*
X102821367Y-95823842D01*
X102821362Y-95823837D01*
X102793396Y-95800701D01*
X102784618Y-95792713D01*
X102640326Y-95648421D01*
X102606300Y-95586109D01*
X102604725Y-95541246D01*
X102611107Y-95497233D01*
X102619825Y-95437103D01*
X102621399Y-95377000D01*
X102622583Y-95377031D01*
X102639105Y-95313107D01*
X102691214Y-95264886D01*
X102752218Y-95251826D01*
X102767826Y-95252439D01*
X102803103Y-95253825D01*
X103011088Y-95223669D01*
X103016552Y-95221814D01*
X103016557Y-95221813D01*
X103204624Y-95157973D01*
X103204629Y-95157971D01*
X103210096Y-95156115D01*
X103231783Y-95143970D01*
X103313887Y-95097989D01*
X103393460Y-95053426D01*
X103555041Y-94919041D01*
X103689426Y-94757460D01*
X103792115Y-94574096D01*
X103793971Y-94568629D01*
X103793973Y-94568624D01*
X103857813Y-94380557D01*
X103857814Y-94380552D01*
X103859669Y-94375088D01*
X103889825Y-94167103D01*
X103891399Y-94107000D01*
X103872169Y-93897721D01*
X103864904Y-93871959D01*
X103837975Y-93776478D01*
X103815123Y-93695451D01*
X103722171Y-93506963D01*
X103700343Y-93477731D01*
X103599880Y-93343195D01*
X103599879Y-93343194D01*
X103596427Y-93338571D01*
X103592191Y-93334655D01*
X103446341Y-93199833D01*
X103446338Y-93199831D01*
X103442101Y-93195914D01*
X103264362Y-93083769D01*
X103069163Y-93005892D01*
X103063506Y-93004767D01*
X103063500Y-93004765D01*
X102868707Y-92966019D01*
X102868705Y-92966019D01*
X102863040Y-92964892D01*
X102857265Y-92964816D01*
X102857261Y-92964816D01*
X102752001Y-92963438D01*
X102652898Y-92962141D01*
X102647201Y-92963120D01*
X102647200Y-92963120D01*
X102625406Y-92966865D01*
X102554882Y-92958688D01*
X102499974Y-92913681D01*
X102478115Y-92846133D01*
X102482026Y-92811352D01*
X102485528Y-92797711D01*
X102485528Y-92797710D01*
X102487500Y-92790030D01*
X102487500Y-92769776D01*
X102489051Y-92750065D01*
X102490980Y-92737886D01*
X102492220Y-92730057D01*
X102488059Y-92686038D01*
X102487500Y-92674181D01*
X102487500Y-91189621D01*
X102507502Y-91121500D01*
X102532931Y-91092747D01*
X102661603Y-90985732D01*
X102666041Y-90982041D01*
X102800426Y-90820460D01*
X102875957Y-90685590D01*
X102900291Y-90642139D01*
X102900292Y-90642137D01*
X102903115Y-90637096D01*
X102904971Y-90631629D01*
X102904973Y-90631624D01*
X102968813Y-90443557D01*
X102968814Y-90443552D01*
X102970669Y-90438088D01*
X103000825Y-90230103D01*
X103002399Y-90170000D01*
X102983169Y-89960721D01*
X102979497Y-89947701D01*
X102980257Y-89876709D01*
X103019278Y-89817397D01*
X103084171Y-89788598D01*
X103100766Y-89787500D01*
X103952405Y-89787500D01*
X104020526Y-89807502D01*
X104041501Y-89824405D01*
X104242279Y-90025184D01*
X104276304Y-90087496D01*
X104278310Y-90129088D01*
X104273905Y-90166305D01*
X104261995Y-90266938D01*
X104275740Y-90476649D01*
X104327471Y-90680343D01*
X104329890Y-90685590D01*
X104413038Y-90865953D01*
X104413041Y-90865958D01*
X104415457Y-90871199D01*
X104418788Y-90875912D01*
X104418789Y-90875914D01*
X104493793Y-90982041D01*
X104536751Y-91042825D01*
X104687289Y-91189474D01*
X104692085Y-91192679D01*
X104692088Y-91192681D01*
X104823579Y-91280540D01*
X104862031Y-91306233D01*
X104867339Y-91308514D01*
X104867340Y-91308514D01*
X105049822Y-91386914D01*
X105049825Y-91386915D01*
X105055125Y-91389192D01*
X105060754Y-91390466D01*
X105060755Y-91390466D01*
X105254467Y-91434299D01*
X105254473Y-91434300D01*
X105260104Y-91435574D01*
X105265875Y-91435801D01*
X105265877Y-91435801D01*
X105405369Y-91441282D01*
X105472652Y-91463943D01*
X105517002Y-91519383D01*
X105524339Y-91590000D01*
X105492333Y-91653373D01*
X105431146Y-91689382D01*
X105398775Y-91693174D01*
X105319898Y-91692141D01*
X105314201Y-91693120D01*
X105314200Y-91693120D01*
X105118469Y-91726753D01*
X105112772Y-91727732D01*
X104915601Y-91800472D01*
X104910640Y-91803424D01*
X104910639Y-91803424D01*
X104774910Y-91884175D01*
X104734988Y-91907926D01*
X104576981Y-92046494D01*
X104559027Y-92069269D01*
X104467004Y-92186000D01*
X104446872Y-92211537D01*
X104444181Y-92216653D01*
X104444179Y-92216655D01*
X104356188Y-92383899D01*
X104349018Y-92397527D01*
X104286696Y-92598234D01*
X104286017Y-92603969D01*
X104286017Y-92603970D01*
X104280666Y-92649183D01*
X104261995Y-92806938D01*
X104275740Y-93016649D01*
X104327471Y-93220343D01*
X104329890Y-93225590D01*
X104413038Y-93405953D01*
X104413041Y-93405958D01*
X104415457Y-93411199D01*
X104418788Y-93415912D01*
X104418789Y-93415914D01*
X104531012Y-93574704D01*
X104536751Y-93582825D01*
X104687289Y-93729474D01*
X104692085Y-93732679D01*
X104692088Y-93732681D01*
X104769268Y-93784251D01*
X104862031Y-93846233D01*
X104867339Y-93848514D01*
X104867340Y-93848514D01*
X105049822Y-93926914D01*
X105049825Y-93926915D01*
X105055125Y-93929192D01*
X105060754Y-93930466D01*
X105060755Y-93930466D01*
X105254467Y-93974299D01*
X105254473Y-93974300D01*
X105260104Y-93975574D01*
X105265875Y-93975801D01*
X105265877Y-93975801D01*
X105405369Y-93981282D01*
X105472652Y-94003943D01*
X105517002Y-94059383D01*
X105524339Y-94130000D01*
X105492333Y-94193373D01*
X105431146Y-94229382D01*
X105398775Y-94233174D01*
X105319898Y-94232141D01*
X105314201Y-94233120D01*
X105314200Y-94233120D01*
X105118469Y-94266753D01*
X105112772Y-94267732D01*
X104915601Y-94340472D01*
X104910640Y-94343424D01*
X104910639Y-94343424D01*
X104745581Y-94441624D01*
X104734988Y-94447926D01*
X104576981Y-94586494D01*
X104573410Y-94591024D01*
X104508588Y-94673251D01*
X104446872Y-94751537D01*
X104444181Y-94756653D01*
X104444179Y-94756655D01*
X104353372Y-94929252D01*
X104349018Y-94937527D01*
X104286696Y-95138234D01*
X104286017Y-95143969D01*
X104286017Y-95143970D01*
X104279521Y-95198855D01*
X104261995Y-95346938D01*
X104275740Y-95556649D01*
X104327471Y-95760343D01*
X104329890Y-95765590D01*
X104413038Y-95945953D01*
X104413041Y-95945958D01*
X104415457Y-95951199D01*
X104418788Y-95955912D01*
X104418789Y-95955914D01*
X104515572Y-96092857D01*
X104536751Y-96122825D01*
X104687289Y-96269474D01*
X104692085Y-96272679D01*
X104692088Y-96272681D01*
X104762499Y-96319728D01*
X104862031Y-96386233D01*
X104867339Y-96388514D01*
X104867340Y-96388514D01*
X105049822Y-96466914D01*
X105049825Y-96466915D01*
X105055125Y-96469192D01*
X105060754Y-96470466D01*
X105060755Y-96470466D01*
X105254467Y-96514299D01*
X105254473Y-96514300D01*
X105260104Y-96515574D01*
X105265875Y-96515801D01*
X105265877Y-96515801D01*
X105329433Y-96518298D01*
X105470103Y-96523825D01*
X105678088Y-96493669D01*
X105683552Y-96491814D01*
X105683557Y-96491813D01*
X105871624Y-96427973D01*
X105871629Y-96427971D01*
X105877096Y-96426115D01*
X105901306Y-96412557D01*
X105998777Y-96357970D01*
X106060460Y-96323426D01*
X106222041Y-96189041D01*
X106356426Y-96027460D01*
X106459115Y-95844096D01*
X106460971Y-95838629D01*
X106460973Y-95838624D01*
X106524813Y-95650557D01*
X106524814Y-95650552D01*
X106526669Y-95645088D01*
X106556825Y-95437103D01*
X106558399Y-95377000D01*
X106547816Y-95261826D01*
X106561501Y-95192161D01*
X106610677Y-95140954D01*
X106678234Y-95124394D01*
X106740103Y-95126825D01*
X106948088Y-95096669D01*
X106953552Y-95094814D01*
X106953557Y-95094813D01*
X107141624Y-95030973D01*
X107141629Y-95030971D01*
X107147096Y-95029115D01*
X107330460Y-94926426D01*
X107492041Y-94792041D01*
X107626426Y-94630460D01*
X107723043Y-94457938D01*
X107726291Y-94452139D01*
X107726292Y-94452137D01*
X107729115Y-94447096D01*
X107730971Y-94441629D01*
X107730973Y-94441624D01*
X107794813Y-94253557D01*
X107794814Y-94253552D01*
X107796669Y-94248088D01*
X107826825Y-94040103D01*
X107828399Y-93980000D01*
X107809169Y-93770721D01*
X107796401Y-93725447D01*
X107754510Y-93576914D01*
X107752123Y-93568451D01*
X107659171Y-93379963D01*
X107640318Y-93354715D01*
X107536880Y-93216195D01*
X107536879Y-93216194D01*
X107533427Y-93211571D01*
X107523086Y-93202012D01*
X107486638Y-93141085D01*
X107488916Y-93070125D01*
X107519516Y-93020388D01*
X107889497Y-92650408D01*
X108342258Y-92197647D01*
X108350537Y-92190113D01*
X108357018Y-92186000D01*
X108403644Y-92136348D01*
X108406398Y-92133507D01*
X108426135Y-92113770D01*
X108428615Y-92110573D01*
X108436320Y-92101551D01*
X108445536Y-92091737D01*
X108466586Y-92069321D01*
X108470405Y-92062375D01*
X108470407Y-92062372D01*
X108476348Y-92051566D01*
X108487199Y-92035047D01*
X108488456Y-92033426D01*
X108499614Y-92019041D01*
X108502759Y-92011772D01*
X108502762Y-92011768D01*
X108517174Y-91978463D01*
X108522391Y-91967813D01*
X108543695Y-91929060D01*
X108548733Y-91909437D01*
X108555137Y-91890734D01*
X108560033Y-91879420D01*
X108560033Y-91879419D01*
X108563181Y-91872145D01*
X108564420Y-91864322D01*
X108564423Y-91864312D01*
X108570099Y-91828476D01*
X108572505Y-91816856D01*
X108581528Y-91781711D01*
X108581528Y-91781710D01*
X108583500Y-91774030D01*
X108583500Y-91753776D01*
X108585051Y-91734065D01*
X108586980Y-91721886D01*
X108588220Y-91714057D01*
X108584059Y-91670038D01*
X108583500Y-91658181D01*
X108583500Y-89359768D01*
X108584027Y-89348585D01*
X108585702Y-89341092D01*
X108583562Y-89273001D01*
X108583500Y-89269044D01*
X108583500Y-89241144D01*
X108582996Y-89237153D01*
X108582063Y-89225311D01*
X108580923Y-89189036D01*
X108580674Y-89181111D01*
X108575021Y-89161652D01*
X108571012Y-89142293D01*
X108570846Y-89140983D01*
X108568474Y-89122203D01*
X108565558Y-89114837D01*
X108565556Y-89114831D01*
X108552200Y-89081098D01*
X108548355Y-89069868D01*
X108538230Y-89035017D01*
X108538230Y-89035016D01*
X108536019Y-89027407D01*
X108525705Y-89009966D01*
X108517008Y-88992213D01*
X108512472Y-88980758D01*
X108509552Y-88973383D01*
X108483563Y-88937612D01*
X108477047Y-88927692D01*
X108458578Y-88896463D01*
X108454542Y-88889638D01*
X108440221Y-88875317D01*
X108427380Y-88860283D01*
X108420131Y-88850306D01*
X108415472Y-88843893D01*
X108409368Y-88838843D01*
X108409363Y-88838838D01*
X108381402Y-88815707D01*
X108372621Y-88807717D01*
X107427607Y-87862702D01*
X107420073Y-87854423D01*
X107415960Y-87847942D01*
X107366308Y-87801316D01*
X107363467Y-87798562D01*
X107343730Y-87778825D01*
X107340533Y-87776345D01*
X107331511Y-87768640D01*
X107327198Y-87764590D01*
X107299281Y-87738374D01*
X107292335Y-87734555D01*
X107292332Y-87734553D01*
X107281526Y-87728612D01*
X107265007Y-87717761D01*
X107264543Y-87717401D01*
X107249001Y-87705346D01*
X107241732Y-87702201D01*
X107241728Y-87702198D01*
X107208423Y-87687786D01*
X107197773Y-87682569D01*
X107159020Y-87661265D01*
X107139397Y-87656227D01*
X107120694Y-87649823D01*
X107109380Y-87644927D01*
X107109379Y-87644927D01*
X107102105Y-87641779D01*
X107094282Y-87640540D01*
X107094272Y-87640537D01*
X107058436Y-87634861D01*
X107046816Y-87632455D01*
X107011671Y-87623432D01*
X107011670Y-87623432D01*
X107003990Y-87621460D01*
X106983736Y-87621460D01*
X106964025Y-87619909D01*
X106951846Y-87617980D01*
X106944017Y-87616740D01*
X106914746Y-87619507D01*
X106899999Y-87620901D01*
X106888141Y-87621460D01*
X103713608Y-87621460D01*
X103645487Y-87601458D01*
X103598994Y-87547802D01*
X103588890Y-87477528D01*
X103616244Y-87415484D01*
X103642712Y-87383261D01*
X103645924Y-87379351D01*
X103772078Y-87162596D01*
X103799201Y-87091938D01*
X113024995Y-87091938D01*
X113038740Y-87301649D01*
X113090471Y-87505343D01*
X113092890Y-87510590D01*
X113176038Y-87690953D01*
X113176041Y-87690958D01*
X113178457Y-87696199D01*
X113181788Y-87700912D01*
X113181789Y-87700914D01*
X113289927Y-87853924D01*
X113299751Y-87867825D01*
X113450289Y-88014474D01*
X113455085Y-88017679D01*
X113455088Y-88017681D01*
X113535263Y-88071252D01*
X113625031Y-88131233D01*
X113630339Y-88133514D01*
X113630340Y-88133514D01*
X113812822Y-88211914D01*
X113812825Y-88211915D01*
X113818125Y-88214192D01*
X113823754Y-88215466D01*
X113823755Y-88215466D01*
X114017467Y-88259299D01*
X114017473Y-88259300D01*
X114023104Y-88260574D01*
X114028875Y-88260801D01*
X114028877Y-88260801D01*
X114092433Y-88263298D01*
X114233103Y-88268825D01*
X114441088Y-88238669D01*
X114446552Y-88236814D01*
X114446557Y-88236813D01*
X114634624Y-88172973D01*
X114634629Y-88172971D01*
X114640096Y-88171115D01*
X114682198Y-88147537D01*
X114769241Y-88098790D01*
X114823460Y-88068426D01*
X114985041Y-87934041D01*
X114997581Y-87918963D01*
X115056517Y-87879379D01*
X115127499Y-87877942D01*
X115187990Y-87915109D01*
X115204592Y-87940277D01*
X115205152Y-87939953D01*
X115208039Y-87944953D01*
X115210457Y-87950199D01*
X115213788Y-87954912D01*
X115213789Y-87954914D01*
X115318886Y-88103621D01*
X115331751Y-88121825D01*
X115482289Y-88268474D01*
X115487085Y-88271679D01*
X115487088Y-88271681D01*
X115587909Y-88339047D01*
X115657031Y-88385233D01*
X115662339Y-88387514D01*
X115662340Y-88387514D01*
X115844822Y-88465914D01*
X115844825Y-88465915D01*
X115850125Y-88468192D01*
X115855754Y-88469466D01*
X115855755Y-88469466D01*
X116049467Y-88513299D01*
X116049473Y-88513300D01*
X116055104Y-88514574D01*
X116060875Y-88514801D01*
X116060877Y-88514801D01*
X116124433Y-88517298D01*
X116265103Y-88522825D01*
X116473088Y-88492669D01*
X116478552Y-88490814D01*
X116478557Y-88490813D01*
X116666624Y-88426973D01*
X116666629Y-88426971D01*
X116672096Y-88425115D01*
X116725101Y-88395431D01*
X116749042Y-88382023D01*
X116855460Y-88322426D01*
X117017041Y-88188041D01*
X117151426Y-88026460D01*
X117229867Y-87886394D01*
X117251291Y-87848139D01*
X117251292Y-87848137D01*
X117254115Y-87843096D01*
X117255971Y-87837629D01*
X117255973Y-87837624D01*
X117257023Y-87834530D01*
X118015830Y-87834530D01*
X118025710Y-87847017D01*
X118065472Y-87873585D01*
X118075575Y-87879071D01*
X118257973Y-87957435D01*
X118268916Y-87960990D01*
X118462533Y-88004802D01*
X118473942Y-88006304D01*
X118672308Y-88014097D01*
X118683790Y-88013495D01*
X118880250Y-87985011D01*
X118891445Y-87982323D01*
X119079424Y-87918512D01*
X119089931Y-87913834D01*
X119211745Y-87845614D01*
X119221610Y-87835536D01*
X119218654Y-87827864D01*
X118630812Y-87240022D01*
X118616868Y-87232408D01*
X118615035Y-87232539D01*
X118608420Y-87236790D01*
X118022027Y-87823183D01*
X118015830Y-87834530D01*
X117257023Y-87834530D01*
X117319813Y-87649557D01*
X117319814Y-87649552D01*
X117321669Y-87644088D01*
X117351825Y-87436103D01*
X117352158Y-87423393D01*
X117373938Y-87355819D01*
X117428793Y-87310748D01*
X117499307Y-87302488D01*
X117563093Y-87333662D01*
X117592541Y-87373942D01*
X117621475Y-87436705D01*
X117627223Y-87446661D01*
X117638675Y-87462867D01*
X117649263Y-87471254D01*
X117662564Y-87464226D01*
X118245978Y-86880812D01*
X118252356Y-86869132D01*
X118982408Y-86869132D01*
X118982539Y-86870965D01*
X118986790Y-86877580D01*
X119573950Y-87464740D01*
X119586330Y-87471500D01*
X119592910Y-87466574D01*
X119663834Y-87339931D01*
X119668512Y-87329424D01*
X119732323Y-87141445D01*
X119735011Y-87130250D01*
X119763791Y-86931750D01*
X119764421Y-86924367D01*
X119765800Y-86871704D01*
X119765557Y-86864305D01*
X119747204Y-86664566D01*
X119745107Y-86653251D01*
X119691222Y-86462190D01*
X119687100Y-86451451D01*
X119599299Y-86273409D01*
X119597192Y-86269970D01*
X119587876Y-86262980D01*
X119575459Y-86269751D01*
X118990022Y-86855188D01*
X118982408Y-86869132D01*
X118252356Y-86869132D01*
X118253592Y-86866868D01*
X118253461Y-86865035D01*
X118249210Y-86858420D01*
X117660626Y-86269836D01*
X117648246Y-86263076D01*
X117642280Y-86267542D01*
X117560173Y-86423602D01*
X117555768Y-86434236D01*
X117496900Y-86623822D01*
X117494508Y-86635076D01*
X117470991Y-86833772D01*
X117443121Y-86899069D01*
X117384372Y-86938933D01*
X117313398Y-86940707D01*
X117252731Y-86903828D01*
X117232858Y-86874691D01*
X117212679Y-86833772D01*
X117184171Y-86775963D01*
X117066210Y-86617993D01*
X117061880Y-86612195D01*
X117061879Y-86612194D01*
X117058427Y-86607571D01*
X116987025Y-86541568D01*
X116908341Y-86468833D01*
X116908338Y-86468831D01*
X116904101Y-86464914D01*
X116726362Y-86352769D01*
X116531163Y-86274892D01*
X116525506Y-86273767D01*
X116525500Y-86273765D01*
X116330707Y-86235019D01*
X116330705Y-86235019D01*
X116325040Y-86233892D01*
X116319265Y-86233816D01*
X116319261Y-86233816D01*
X116214001Y-86232438D01*
X116114898Y-86231141D01*
X116109201Y-86232120D01*
X116109200Y-86232120D01*
X115913469Y-86265753D01*
X115907772Y-86266732D01*
X115710601Y-86339472D01*
X115705640Y-86342424D01*
X115705639Y-86342424D01*
X115562795Y-86427408D01*
X115529988Y-86446926D01*
X115371981Y-86585494D01*
X115371321Y-86586331D01*
X115311242Y-86621205D01*
X115240318Y-86617993D01*
X115182390Y-86576947D01*
X115168245Y-86554557D01*
X115154726Y-86527144D01*
X115152171Y-86521963D01*
X115107537Y-86462190D01*
X115029880Y-86358195D01*
X115029879Y-86358194D01*
X115026427Y-86353571D01*
X115022191Y-86349655D01*
X114876341Y-86214833D01*
X114876338Y-86214831D01*
X114872101Y-86210914D01*
X114694362Y-86098769D01*
X114499163Y-86020892D01*
X114493506Y-86019767D01*
X114493500Y-86019765D01*
X114298707Y-85981019D01*
X114298705Y-85981019D01*
X114293040Y-85979892D01*
X114287265Y-85979816D01*
X114287261Y-85979816D01*
X114182001Y-85978438D01*
X114082898Y-85977141D01*
X114077201Y-85978120D01*
X114077200Y-85978120D01*
X113881469Y-86011753D01*
X113875772Y-86012732D01*
X113678601Y-86085472D01*
X113497988Y-86192926D01*
X113339981Y-86331494D01*
X113209872Y-86496537D01*
X113207181Y-86501653D01*
X113207179Y-86501655D01*
X113151454Y-86607571D01*
X113112018Y-86682527D01*
X113049696Y-86883234D01*
X113049017Y-86888969D01*
X113049017Y-86888970D01*
X113043336Y-86936967D01*
X113024995Y-87091938D01*
X103799201Y-87091938D01*
X103861955Y-86928461D01*
X103867102Y-86903828D01*
X103912206Y-86687921D01*
X103913241Y-86682967D01*
X103913494Y-86677410D01*
X103919730Y-86540079D01*
X103924618Y-86432432D01*
X103923597Y-86423602D01*
X103901776Y-86235019D01*
X103895792Y-86183301D01*
X103871267Y-86096629D01*
X103828884Y-85946852D01*
X103828883Y-85946850D01*
X103827506Y-85941983D01*
X103825372Y-85937408D01*
X103825370Y-85937401D01*
X103723653Y-85719269D01*
X103723651Y-85719265D01*
X103721516Y-85714687D01*
X103678188Y-85650932D01*
X103583395Y-85511448D01*
X103583392Y-85511444D01*
X103580549Y-85507261D01*
X103576071Y-85502525D01*
X103411713Y-85328721D01*
X103408233Y-85325041D01*
X103404206Y-85321962D01*
X103213019Y-85175788D01*
X103213015Y-85175785D01*
X103208999Y-85172715D01*
X102987974Y-85054203D01*
X102983193Y-85052557D01*
X102983189Y-85052555D01*
X102755633Y-84974201D01*
X102750844Y-84972552D01*
X102647311Y-84954669D01*
X102507620Y-84930540D01*
X102507614Y-84930539D01*
X102503710Y-84929865D01*
X102499749Y-84929685D01*
X102499748Y-84929685D01*
X102475069Y-84928564D01*
X102475050Y-84928564D01*
X102473650Y-84928500D01*
X102298985Y-84928500D01*
X102296477Y-84928702D01*
X102296472Y-84928702D01*
X102117056Y-84943137D01*
X102117051Y-84943138D01*
X102112015Y-84943543D01*
X102107107Y-84944748D01*
X102107104Y-84944749D01*
X101875326Y-85001680D01*
X101868461Y-85003366D01*
X101863809Y-85005341D01*
X101863805Y-85005342D01*
X101743061Y-85056595D01*
X101637604Y-85101359D01*
X101633320Y-85104057D01*
X101436182Y-85228201D01*
X101425385Y-85235000D01*
X101237262Y-85400853D01*
X101078076Y-85594649D01*
X100951922Y-85811404D01*
X100950109Y-85816127D01*
X100950108Y-85816129D01*
X100914255Y-85909528D01*
X100862045Y-86045539D01*
X100861012Y-86050485D01*
X100861010Y-86050491D01*
X100829599Y-86200852D01*
X100810759Y-86291033D01*
X100810530Y-86296082D01*
X100810529Y-86296088D01*
X100807709Y-86358195D01*
X100799382Y-86541568D01*
X100799963Y-86546588D01*
X100799963Y-86546592D01*
X100806566Y-86603655D01*
X100828208Y-86790699D01*
X100829586Y-86795568D01*
X100829588Y-86795577D01*
X100870154Y-86938933D01*
X100896494Y-87032017D01*
X100898628Y-87036592D01*
X100898630Y-87036599D01*
X100961992Y-87172478D01*
X101002484Y-87259313D01*
X101005326Y-87263494D01*
X101005330Y-87263502D01*
X101114838Y-87424638D01*
X101136584Y-87492222D01*
X101118340Y-87560834D01*
X101065897Y-87608691D01*
X101010626Y-87621460D01*
X99148808Y-87621460D01*
X99137625Y-87620933D01*
X99130132Y-87619258D01*
X99122206Y-87619507D01*
X99122205Y-87619507D01*
X99062042Y-87621398D01*
X99058084Y-87621460D01*
X99030184Y-87621460D01*
X99026194Y-87621964D01*
X99014360Y-87622896D01*
X98970151Y-87624286D01*
X98962535Y-87626499D01*
X98962533Y-87626499D01*
X98950692Y-87629939D01*
X98931333Y-87633948D01*
X98930023Y-87634114D01*
X98911243Y-87636486D01*
X98903877Y-87639402D01*
X98903871Y-87639404D01*
X98870138Y-87652760D01*
X98858908Y-87656605D01*
X98829733Y-87665081D01*
X98816447Y-87668941D01*
X98809624Y-87672976D01*
X98799006Y-87679255D01*
X98781253Y-87687952D01*
X98773674Y-87690953D01*
X98762423Y-87695408D01*
X98750771Y-87703874D01*
X98726652Y-87721397D01*
X98716735Y-87727911D01*
X98678678Y-87750418D01*
X98664357Y-87764739D01*
X98649324Y-87777579D01*
X98632933Y-87789488D01*
X98624257Y-87799976D01*
X98604742Y-87823565D01*
X98596752Y-87832344D01*
X90344227Y-96084868D01*
X90335941Y-96092408D01*
X90329462Y-96096520D01*
X90324037Y-96102297D01*
X90282837Y-96146171D01*
X90280082Y-96149013D01*
X90260345Y-96168750D01*
X90257865Y-96171947D01*
X90250162Y-96180967D01*
X90219894Y-96213199D01*
X90216075Y-96220145D01*
X90216073Y-96220148D01*
X90210132Y-96230954D01*
X90199281Y-96247473D01*
X90186866Y-96263479D01*
X90183721Y-96270748D01*
X90183718Y-96270752D01*
X90169306Y-96304057D01*
X90164089Y-96314707D01*
X90142785Y-96353460D01*
X90140814Y-96361135D01*
X90140814Y-96361136D01*
X90137747Y-96373082D01*
X90131343Y-96391786D01*
X90123299Y-96410375D01*
X90122060Y-96418198D01*
X90122057Y-96418208D01*
X90116381Y-96454044D01*
X90113975Y-96465664D01*
X90111028Y-96477142D01*
X90102980Y-96508490D01*
X90102980Y-96528744D01*
X90101429Y-96548454D01*
X90098260Y-96568463D01*
X89281500Y-96568463D01*
X89281500Y-83774646D01*
X89301502Y-83706525D01*
X89355158Y-83660032D01*
X89425432Y-83649928D01*
X89490012Y-83679422D01*
X89521695Y-83721396D01*
X89572484Y-83830313D01*
X89575326Y-83834494D01*
X89575326Y-83834495D01*
X89710605Y-84033552D01*
X89710608Y-84033556D01*
X89713451Y-84037739D01*
X89716928Y-84041416D01*
X89716929Y-84041417D01*
X89817238Y-84147491D01*
X89885767Y-84219959D01*
X89889793Y-84223037D01*
X89889794Y-84223038D01*
X90080981Y-84369212D01*
X90080985Y-84369215D01*
X90085001Y-84372285D01*
X90306026Y-84490797D01*
X90310807Y-84492443D01*
X90310811Y-84492445D01*
X90536538Y-84570169D01*
X90543156Y-84572448D01*
X90646689Y-84590331D01*
X90786380Y-84614460D01*
X90786386Y-84614461D01*
X90790290Y-84615135D01*
X90794251Y-84615315D01*
X90794252Y-84615315D01*
X90818931Y-84616436D01*
X90818950Y-84616436D01*
X90820350Y-84616500D01*
X90995015Y-84616500D01*
X90997523Y-84616298D01*
X90997528Y-84616298D01*
X91176944Y-84601863D01*
X91176949Y-84601862D01*
X91181985Y-84601457D01*
X91186893Y-84600252D01*
X91186896Y-84600251D01*
X91420625Y-84542841D01*
X91425539Y-84541634D01*
X91430191Y-84539659D01*
X91430195Y-84539658D01*
X91651741Y-84445617D01*
X91651742Y-84445617D01*
X91656396Y-84443641D01*
X91794812Y-84356476D01*
X91864334Y-84312696D01*
X91864335Y-84312695D01*
X91868615Y-84310000D01*
X92056738Y-84144147D01*
X92215924Y-83950351D01*
X92342078Y-83733596D01*
X92352098Y-83707495D01*
X92430143Y-83504181D01*
X92431955Y-83499461D01*
X92435896Y-83480599D01*
X92482206Y-83258921D01*
X92483241Y-83253967D01*
X92483895Y-83239577D01*
X92494388Y-83008486D01*
X92494618Y-83003432D01*
X92493133Y-82990592D01*
X92466374Y-82759334D01*
X92465792Y-82754301D01*
X92426810Y-82616539D01*
X92398884Y-82517852D01*
X92398883Y-82517850D01*
X92397506Y-82512983D01*
X92395372Y-82508408D01*
X92395370Y-82508401D01*
X92293653Y-82290269D01*
X92293651Y-82290265D01*
X92291516Y-82285687D01*
X92259107Y-82237999D01*
X92153395Y-82082448D01*
X92153392Y-82082444D01*
X92150549Y-82078261D01*
X92049925Y-81971853D01*
X91981713Y-81899721D01*
X91978233Y-81896041D01*
X91801077Y-81760595D01*
X91759110Y-81703332D01*
X91754765Y-81632468D01*
X91789421Y-81570504D01*
X91852075Y-81537114D01*
X91877607Y-81534500D01*
X105519786Y-81534500D01*
X105587907Y-81554502D01*
G37*
%TD.AperFunction*%
%TD*%
M02*
