G04 #@! TF.GenerationSoftware,KiCad,Pcbnew,7.0.7*
G04 #@! TF.CreationDate,2024-03-13T12:15:20+01:00*
G04 #@! TF.ProjectId,dictofun,64696374-6f66-4756-9e2e-6b696361645f,rev?*
G04 #@! TF.SameCoordinates,Original*
G04 #@! TF.FileFunction,Legend,Bot*
G04 #@! TF.FilePolarity,Positive*
%FSLAX45Y45*%
G04 Gerber Fmt 4.5, Leading zero omitted, Abs format (unit mm)*
G04 Created by KiCad (PCBNEW 7.0.7) date 2024-03-13 12:15:20*
%MOMM*%
%LPD*%
G01*
G04 APERTURE LIST*
%ADD10C,0.120000*%
%ADD11C,0.127000*%
%ADD12C,0.300000*%
%ADD13C,0.254000*%
G04 APERTURE END LIST*
D10*
X13160220Y-9898460D02*
G75*
G03*
X13160220Y-9898460I-482498J0D01*
G01*
X13166240Y-10764520D02*
G75*
G03*
X13166240Y-10764520I-70000J0D01*
G01*
X14045080Y-9017000D02*
G75*
G03*
X14045080Y-9017000I-70000J0D01*
G01*
X14139060Y-10614660D02*
G75*
G03*
X14139060Y-10614660I-70000J0D01*
G01*
X12955420Y-10601960D02*
G75*
G03*
X12955420Y-10601960I-70000J0D01*
G01*
X14083180Y-10416540D02*
G75*
G03*
X14083180Y-10416540I-70000J0D01*
G01*
X11990220Y-10007600D02*
G75*
G03*
X11990220Y-10007600I-70000J0D01*
G01*
X14360040Y-9474200D02*
G75*
G03*
X14360040Y-9474200I-70000J0D01*
G01*
X12505840Y-9260840D02*
G75*
G03*
X12505840Y-9260840I-70000J0D01*
G01*
X15325240Y-10553700D02*
G75*
G03*
X15325240Y-10553700I-70000J0D01*
G01*
X15294760Y-9192260D02*
G75*
G03*
X15294760Y-9192260I-70000J0D01*
G01*
X13140840Y-10525760D02*
G75*
G03*
X13140840Y-10525760I-70000J0D01*
G01*
X12640460Y-10728960D02*
G75*
G03*
X12640460Y-10728960I-70000J0D01*
G01*
X11985140Y-9740900D02*
G75*
G03*
X11985140Y-9740900I-70000J0D01*
G01*
X12947800Y-9286240D02*
G75*
G03*
X12947800Y-9286240I-70000J0D01*
G01*
X14342260Y-10599420D02*
G75*
G03*
X14342260Y-10599420I-70000J0D01*
G01*
X11936880Y-9433560D02*
G75*
G03*
X11936880Y-9433560I-70000J0D01*
G01*
X13232280Y-8973820D02*
G75*
G03*
X13232280Y-8973820I-70000J0D01*
G01*
X14073020Y-9964420D02*
G75*
G03*
X14073020Y-9964420I-70000J0D01*
G01*
X13829180Y-9077960D02*
G75*
G03*
X13829180Y-9077960I-70000J0D01*
G01*
X14728340Y-10805160D02*
G75*
G03*
X14728340Y-10805160I-70000J0D01*
G01*
X15490000Y-9510000D02*
X15465000Y-9510000D01*
X15235000Y-9510000D02*
X15050000Y-9510000D01*
X15050000Y-9510000D02*
X15050000Y-9555000D01*
X14995000Y-9730000D02*
X15040000Y-9730000D01*
X14995000Y-9730000D02*
X14995000Y-9775000D01*
X15490000Y-10290000D02*
X15465000Y-10290000D01*
X15235000Y-10290000D02*
X15050000Y-10290000D01*
X15050000Y-10290000D02*
X15050000Y-10245000D01*
D11*
X14550000Y-9505000D02*
X14550000Y-9277500D01*
X14638500Y-9505000D02*
X14550000Y-9505000D01*
X14670000Y-9080000D02*
X14930000Y-9080000D01*
X15050000Y-9277500D02*
X15050000Y-9505000D01*
X15050000Y-9505000D02*
X14961500Y-9505000D01*
D12*
X14630000Y-9577500D02*
G75*
G03*
X14630000Y-9577500I-10000J0D01*
G01*
G36*
X12251243Y-9816717D02*
G01*
X12255417Y-9818216D01*
X12259817Y-9820986D01*
X12263931Y-9824733D01*
X12264806Y-9825731D01*
X12268985Y-9831812D01*
X12272755Y-9839507D01*
X12276017Y-9848555D01*
X12278674Y-9858690D01*
X12280628Y-9869650D01*
X12280916Y-9872232D01*
X12281291Y-9877813D01*
X12281544Y-9884696D01*
X12281679Y-9892478D01*
X12281697Y-9900755D01*
X12281603Y-9909126D01*
X12281399Y-9917186D01*
X12281087Y-9924533D01*
X12280672Y-9930763D01*
X12280155Y-9935473D01*
X12279159Y-9941303D01*
X12276770Y-9951397D01*
X12273737Y-9960525D01*
X12270153Y-9968490D01*
X12266114Y-9975096D01*
X12261713Y-9980148D01*
X12257045Y-9983450D01*
X12255922Y-9983957D01*
X12252535Y-9985075D01*
X12249648Y-9985521D01*
X12245736Y-9984943D01*
X12240860Y-9982564D01*
X12236237Y-9978465D01*
X12231946Y-9972773D01*
X12228067Y-9965619D01*
X12224677Y-9957132D01*
X12221858Y-9947441D01*
X12219689Y-9936675D01*
X12219504Y-9935363D01*
X12219068Y-9930678D01*
X12218714Y-9924556D01*
X12218447Y-9917371D01*
X12218267Y-9909498D01*
X12218178Y-9901311D01*
X12218183Y-9893186D01*
X12218284Y-9885495D01*
X12218484Y-9878614D01*
X12218786Y-9872917D01*
X12219192Y-9868779D01*
X12219660Y-9865760D01*
X12221664Y-9856097D01*
X12224314Y-9846855D01*
X12227474Y-9838415D01*
X12231005Y-9831161D01*
X12234770Y-9825476D01*
X12235859Y-9824253D01*
X12239142Y-9821402D01*
X12242922Y-9818924D01*
X12246599Y-9817182D01*
X12249575Y-9816535D01*
X12251243Y-9816717D01*
G37*
G36*
X13118748Y-9803521D02*
G01*
X13123609Y-9805878D01*
X13128204Y-9809909D01*
X13132466Y-9815528D01*
X13136325Y-9822651D01*
X13139715Y-9831189D01*
X13142566Y-9841058D01*
X13144810Y-9852172D01*
X13145113Y-9854814D01*
X13145423Y-9859462D01*
X13145689Y-9865543D01*
X13145907Y-9872776D01*
X13146078Y-9880882D01*
X13146200Y-9889581D01*
X13146271Y-9898592D01*
X13146290Y-9907637D01*
X13146257Y-9916436D01*
X13146169Y-9924708D01*
X13146025Y-9932173D01*
X13145825Y-9938552D01*
X13145566Y-9943566D01*
X13145248Y-9946933D01*
X13144408Y-9952152D01*
X13142147Y-9962406D01*
X13139261Y-9971719D01*
X13135838Y-9979922D01*
X13131966Y-9986846D01*
X13127732Y-9992325D01*
X13123223Y-9996189D01*
X13118528Y-9998270D01*
X13116007Y-9998668D01*
X13114184Y-9998608D01*
X13112881Y-9998372D01*
X13110462Y-9998222D01*
X13109297Y-9997980D01*
X13106406Y-9996312D01*
X13102652Y-9993124D01*
X13098812Y-9988872D01*
X13093996Y-9981289D01*
X13089959Y-9971927D01*
X13086706Y-9960798D01*
X13084240Y-9947910D01*
X13083869Y-9944414D01*
X13083539Y-9939174D01*
X13083261Y-9932568D01*
X13083039Y-9924892D01*
X13082873Y-9916445D01*
X13082765Y-9907524D01*
X13082717Y-9898426D01*
X13082729Y-9889449D01*
X13082805Y-9880891D01*
X13082944Y-9873049D01*
X13083150Y-9866221D01*
X13083423Y-9860704D01*
X13083765Y-9856797D01*
X13083890Y-9855822D01*
X13085662Y-9845556D01*
X13088121Y-9835912D01*
X13091168Y-9827110D01*
X13094702Y-9819373D01*
X13098623Y-9812922D01*
X13102831Y-9807980D01*
X13107227Y-9804768D01*
X13108501Y-9804174D01*
X13113689Y-9802924D01*
X13118748Y-9803521D01*
G37*
G36*
X12331640Y-9761083D02*
G01*
X12335165Y-9762293D01*
X12338656Y-9764733D01*
X12342568Y-9768661D01*
X12345399Y-9772186D01*
X12349483Y-9778970D01*
X12353001Y-9787216D01*
X12356012Y-9797075D01*
X12358577Y-9808698D01*
X12358754Y-9809674D01*
X12359024Y-9811396D01*
X12359262Y-9813321D01*
X12359469Y-9815574D01*
X12359647Y-9818280D01*
X12359799Y-9821565D01*
X12359927Y-9825552D01*
X12360033Y-9830368D01*
X12360118Y-9836137D01*
X12360185Y-9842984D01*
X12360236Y-9851035D01*
X12360273Y-9860414D01*
X12360298Y-9871247D01*
X12360314Y-9883658D01*
X12360322Y-9897774D01*
X12360324Y-9913718D01*
X12360324Y-10009456D01*
X12357774Y-10021179D01*
X12356164Y-10027830D01*
X12353127Y-10037573D01*
X12349599Y-10046060D01*
X12345667Y-10053117D01*
X12341420Y-10058572D01*
X12336945Y-10062251D01*
X12334138Y-10063601D01*
X12328867Y-10064593D01*
X12323551Y-10063797D01*
X12318482Y-10061281D01*
X12313955Y-10057110D01*
X12309941Y-10051347D01*
X12305963Y-10043384D01*
X12302547Y-10033988D01*
X12299786Y-10023408D01*
X12297768Y-10011898D01*
X12297537Y-10009480D01*
X12297284Y-10004942D01*
X12297057Y-9998794D01*
X12296858Y-9991214D01*
X12296685Y-9982381D01*
X12296539Y-9972473D01*
X12296420Y-9961668D01*
X12296327Y-9950143D01*
X12296261Y-9938078D01*
X12296222Y-9925651D01*
X12296209Y-9913039D01*
X12296223Y-9900421D01*
X12296263Y-9887975D01*
X12296330Y-9875878D01*
X12296423Y-9864311D01*
X12296543Y-9853449D01*
X12296689Y-9843473D01*
X12296861Y-9834559D01*
X12297060Y-9826886D01*
X12297284Y-9820632D01*
X12297535Y-9815976D01*
X12297812Y-9813095D01*
X12299524Y-9803470D01*
X12302217Y-9792656D01*
X12305477Y-9783278D01*
X12309257Y-9775418D01*
X12313506Y-9769160D01*
X12318176Y-9764587D01*
X12323218Y-9761783D01*
X12328583Y-9760829D01*
X12331640Y-9761083D01*
G37*
G36*
X12806719Y-9773079D02*
G01*
X12808144Y-9773842D01*
X12812828Y-9777637D01*
X12817222Y-9783169D01*
X12821244Y-9790277D01*
X12824811Y-9798799D01*
X12827842Y-9808575D01*
X12830256Y-9819445D01*
X12830548Y-9821182D01*
X12830857Y-9823478D01*
X12831124Y-9826151D01*
X12831354Y-9829360D01*
X12831552Y-9833260D01*
X12831721Y-9838011D01*
X12831867Y-9843771D01*
X12831995Y-9850695D01*
X12832108Y-9858943D01*
X12832211Y-9868672D01*
X12832310Y-9880039D01*
X12832408Y-9893202D01*
X12832436Y-9897353D01*
X12832524Y-9913299D01*
X12832559Y-9927466D01*
X12832537Y-9939994D01*
X12832452Y-9951026D01*
X12832298Y-9960700D01*
X12832070Y-9969159D01*
X12831762Y-9976541D01*
X12831368Y-9982989D01*
X12830884Y-9988642D01*
X12830303Y-9993641D01*
X12829620Y-9998127D01*
X12828829Y-10002240D01*
X12827925Y-10006121D01*
X12827713Y-10006946D01*
X12824778Y-10016570D01*
X12821334Y-10024922D01*
X12817469Y-10031867D01*
X12813269Y-10037267D01*
X12808824Y-10040987D01*
X12804221Y-10042891D01*
X12799122Y-10043401D01*
X12794662Y-10042540D01*
X12790453Y-10040140D01*
X12786070Y-10036041D01*
X12783709Y-10033128D01*
X12779832Y-10026724D01*
X12776333Y-10018880D01*
X12773328Y-10009918D01*
X12770934Y-10000157D01*
X12769267Y-9989918D01*
X12769081Y-9987548D01*
X12768896Y-9983249D01*
X12768732Y-9977373D01*
X12768589Y-9970116D01*
X12768467Y-9961674D01*
X12768366Y-9952244D01*
X12768286Y-9942021D01*
X12768228Y-9931201D01*
X12768190Y-9919982D01*
X12768175Y-9908558D01*
X12768180Y-9897127D01*
X12768207Y-9885884D01*
X12768256Y-9875025D01*
X12768326Y-9864747D01*
X12768419Y-9855246D01*
X12768532Y-9846718D01*
X12768668Y-9839359D01*
X12768826Y-9833365D01*
X12769006Y-9828932D01*
X12769208Y-9826257D01*
X12770524Y-9817592D01*
X12772826Y-9807269D01*
X12775736Y-9798039D01*
X12779176Y-9790010D01*
X12783071Y-9783289D01*
X12787346Y-9777985D01*
X12791924Y-9774204D01*
X12796729Y-9772054D01*
X12801686Y-9771643D01*
X12806719Y-9773079D01*
G37*
G36*
X13041047Y-9735369D02*
G01*
X13046059Y-9738121D01*
X13050724Y-9742603D01*
X13054981Y-9748706D01*
X13058766Y-9756326D01*
X13062017Y-9765353D01*
X13064673Y-9775683D01*
X13066669Y-9787206D01*
X13066922Y-9790029D01*
X13067161Y-9794707D01*
X13067376Y-9800998D01*
X13067566Y-9808733D01*
X13067732Y-9817742D01*
X13067874Y-9827855D01*
X13067991Y-9838903D01*
X13068084Y-9850714D01*
X13068153Y-9863120D01*
X13068198Y-9875950D01*
X13068219Y-9889035D01*
X13068216Y-9902205D01*
X13068189Y-9915290D01*
X13068139Y-9928119D01*
X13068064Y-9940524D01*
X13067965Y-9952334D01*
X13067843Y-9963380D01*
X13067697Y-9973491D01*
X13067527Y-9982497D01*
X13067334Y-9990230D01*
X13067117Y-9996518D01*
X13066876Y-10001193D01*
X13066612Y-10004083D01*
X13065195Y-10012476D01*
X13062498Y-10023614D01*
X13059098Y-10033375D01*
X13055052Y-10041629D01*
X13050415Y-10048247D01*
X13045245Y-10053099D01*
X13043056Y-10054435D01*
X13038149Y-10055910D01*
X13033050Y-10055615D01*
X13027996Y-10053625D01*
X13023222Y-10050013D01*
X13018964Y-10044853D01*
X13017782Y-10042996D01*
X13013041Y-10033606D01*
X13009249Y-10022555D01*
X13006419Y-10009890D01*
X13004565Y-9995656D01*
X13004483Y-9994600D01*
X13004287Y-9990424D01*
X13004124Y-9984295D01*
X13003994Y-9976216D01*
X13003896Y-9966188D01*
X13003831Y-9954212D01*
X13003799Y-9940289D01*
X13003800Y-9924420D01*
X13003834Y-9906608D01*
X13003900Y-9886852D01*
X13003913Y-9883724D01*
X13003979Y-9867919D01*
X13004046Y-9853925D01*
X13004114Y-9841618D01*
X13004187Y-9830878D01*
X13004266Y-9821583D01*
X13004355Y-9813611D01*
X13004455Y-9806841D01*
X13004569Y-9801151D01*
X13004699Y-9796419D01*
X13004847Y-9792524D01*
X13005017Y-9789345D01*
X13005209Y-9786758D01*
X13005427Y-9784644D01*
X13005674Y-9782880D01*
X13005950Y-9781345D01*
X13007406Y-9774653D01*
X13010296Y-9764191D01*
X13013628Y-9755411D01*
X13017465Y-9748160D01*
X13021872Y-9742284D01*
X13024965Y-9739094D01*
X13028509Y-9736344D01*
X13031987Y-9734883D01*
X13035857Y-9734452D01*
X13041047Y-9735369D01*
G37*
G36*
X12728753Y-9735067D02*
G01*
X12732247Y-9737323D01*
X12736555Y-9741809D01*
X12740578Y-9747906D01*
X12744226Y-9755423D01*
X12747409Y-9764169D01*
X12750037Y-9773954D01*
X12752021Y-9784585D01*
X12752098Y-9785188D01*
X12752361Y-9788542D01*
X12752600Y-9793643D01*
X12752816Y-9800332D01*
X12753008Y-9808446D01*
X12753178Y-9817825D01*
X12753325Y-9828308D01*
X12753449Y-9839735D01*
X12753549Y-9851943D01*
X12753627Y-9864773D01*
X12753681Y-9878063D01*
X12753713Y-9891653D01*
X12753721Y-9905381D01*
X12753706Y-9919086D01*
X12753668Y-9932608D01*
X12753607Y-9945786D01*
X12753524Y-9958458D01*
X12753416Y-9970464D01*
X12753286Y-9981643D01*
X12753133Y-9991834D01*
X12752957Y-10000876D01*
X12752758Y-10008608D01*
X12752535Y-10014869D01*
X12752290Y-10019498D01*
X12752021Y-10022335D01*
X12750619Y-10030269D01*
X12748149Y-10040290D01*
X12745099Y-10049330D01*
X12741560Y-10057197D01*
X12737623Y-10063695D01*
X12733379Y-10068631D01*
X12728916Y-10071812D01*
X12727767Y-10072327D01*
X12722487Y-10073476D01*
X12717156Y-10072750D01*
X12711953Y-10070198D01*
X12707058Y-10065868D01*
X12706890Y-10065679D01*
X12703660Y-10061106D01*
X12700477Y-10054956D01*
X12697471Y-10047582D01*
X12694773Y-10039340D01*
X12692514Y-10030583D01*
X12690822Y-10021668D01*
X12690649Y-10019891D01*
X12690447Y-10016030D01*
X12690263Y-10010499D01*
X12690098Y-10003456D01*
X12689951Y-9995058D01*
X12689823Y-9985463D01*
X12689712Y-9974829D01*
X12689620Y-9963313D01*
X12689546Y-9951072D01*
X12689490Y-9938264D01*
X12689453Y-9925048D01*
X12689433Y-9911579D01*
X12689432Y-9898016D01*
X12689449Y-9884516D01*
X12689484Y-9871237D01*
X12689538Y-9858337D01*
X12689609Y-9845972D01*
X12689699Y-9834301D01*
X12689806Y-9823481D01*
X12689932Y-9813669D01*
X12690076Y-9805023D01*
X12690239Y-9797701D01*
X12690419Y-9791861D01*
X12690617Y-9787658D01*
X12690834Y-9785252D01*
X12691478Y-9781383D01*
X12693879Y-9770259D01*
X12696857Y-9760441D01*
X12700352Y-9752010D01*
X12704303Y-9745047D01*
X12708647Y-9739631D01*
X12713326Y-9735845D01*
X12718277Y-9733769D01*
X12723440Y-9733483D01*
X12728753Y-9735067D01*
G37*
G36*
X12886037Y-9735067D02*
G01*
X12887306Y-9735753D01*
X12891570Y-9739284D01*
X12895647Y-9744481D01*
X12899439Y-9751123D01*
X12902844Y-9758986D01*
X12905762Y-9767851D01*
X12908095Y-9777494D01*
X12909741Y-9787695D01*
X12909825Y-9788610D01*
X12909993Y-9791917D01*
X12910146Y-9796944D01*
X12910284Y-9803529D01*
X12910407Y-9811514D01*
X12910516Y-9820740D01*
X12910609Y-9831045D01*
X12910687Y-9842271D01*
X12910751Y-9854258D01*
X12910800Y-9866846D01*
X12910833Y-9879876D01*
X12910852Y-9893187D01*
X12910856Y-9906621D01*
X12910845Y-9920017D01*
X12910819Y-9933216D01*
X12910779Y-9946058D01*
X12910723Y-9958383D01*
X12910652Y-9970032D01*
X12910567Y-9980845D01*
X12910467Y-9990663D01*
X12910351Y-9999325D01*
X12910221Y-10006672D01*
X12910076Y-10012544D01*
X12909916Y-10016782D01*
X12909741Y-10019225D01*
X12909707Y-10019503D01*
X12908001Y-10029946D01*
X12905600Y-10039745D01*
X12902601Y-10048683D01*
X12899101Y-10056542D01*
X12895197Y-10063104D01*
X12890985Y-10068151D01*
X12886561Y-10071465D01*
X12885577Y-10071941D01*
X12880493Y-10073266D01*
X12875277Y-10073030D01*
X12870595Y-10071242D01*
X12869887Y-10070787D01*
X12865104Y-10066539D01*
X12860717Y-10060572D01*
X12856799Y-10053071D01*
X12853421Y-10044220D01*
X12850655Y-10034204D01*
X12848572Y-10023206D01*
X12847245Y-10011410D01*
X12847080Y-10008419D01*
X12846910Y-10003080D01*
X12846769Y-9995826D01*
X12846657Y-9986678D01*
X12846574Y-9975658D01*
X12846521Y-9962786D01*
X12846497Y-9948083D01*
X12846503Y-9931571D01*
X12846538Y-9913270D01*
X12846604Y-9893202D01*
X12846661Y-9878779D01*
X12846726Y-9863596D01*
X12846792Y-9850151D01*
X12846861Y-9838326D01*
X12846934Y-9828005D01*
X12847014Y-9819072D01*
X12847104Y-9811409D01*
X12847205Y-9804900D01*
X12847319Y-9799429D01*
X12847448Y-9794878D01*
X12847596Y-9791131D01*
X12847763Y-9788071D01*
X12847952Y-9785581D01*
X12848165Y-9783545D01*
X12848404Y-9781846D01*
X12848672Y-9780368D01*
X12850699Y-9771503D01*
X12853807Y-9761224D01*
X12857394Y-9752454D01*
X12861406Y-9745257D01*
X12865792Y-9739696D01*
X12870500Y-9735833D01*
X12875478Y-9733732D01*
X12880674Y-9733456D01*
X12886037Y-9735067D01*
G37*
G36*
X12959376Y-9707441D02*
G01*
X12962568Y-9708540D01*
X12966560Y-9710826D01*
X12967836Y-9711715D01*
X12972316Y-9716122D01*
X12976467Y-9722213D01*
X12980198Y-9729785D01*
X12983421Y-9738636D01*
X12986045Y-9748563D01*
X12987982Y-9759364D01*
X12988020Y-9759671D01*
X12988183Y-9761856D01*
X12988327Y-9765367D01*
X12988452Y-9770254D01*
X12988559Y-9776570D01*
X12988647Y-9784368D01*
X12988717Y-9793700D01*
X12988769Y-9804619D01*
X12988804Y-9817178D01*
X12988822Y-9831427D01*
X12988823Y-9847421D01*
X12988807Y-9865211D01*
X12988774Y-9884850D01*
X12988726Y-9906391D01*
X12988704Y-9915209D01*
X12988660Y-9933839D01*
X12988620Y-9950663D01*
X12988580Y-9965785D01*
X12988536Y-9979306D01*
X12988484Y-9991331D01*
X12988420Y-10001962D01*
X12988341Y-10011302D01*
X12988242Y-10019454D01*
X12988119Y-10026520D01*
X12987968Y-10032604D01*
X12987785Y-10037809D01*
X12987567Y-10042236D01*
X12987309Y-10045990D01*
X12987008Y-10049173D01*
X12986659Y-10051889D01*
X12986258Y-10054239D01*
X12985802Y-10056327D01*
X12985287Y-10058255D01*
X12984708Y-10060127D01*
X12984061Y-10062046D01*
X12983343Y-10064114D01*
X12982550Y-10066434D01*
X12980663Y-10071520D01*
X12977091Y-10079054D01*
X12973072Y-10085357D01*
X12968770Y-10090188D01*
X12964349Y-10093307D01*
X12962112Y-10094223D01*
X12957058Y-10094947D01*
X12952117Y-10093859D01*
X12947366Y-10091059D01*
X12942876Y-10086644D01*
X12938725Y-10080715D01*
X12934986Y-10073370D01*
X12931733Y-10064708D01*
X12929043Y-10054827D01*
X12926988Y-10043827D01*
X12926943Y-10043488D01*
X12926708Y-10040528D01*
X12926491Y-10035786D01*
X12926292Y-10029406D01*
X12926111Y-10021531D01*
X12925948Y-10012305D01*
X12925803Y-10001873D01*
X12925676Y-9990377D01*
X12925568Y-9977961D01*
X12925477Y-9964769D01*
X12925404Y-9950944D01*
X12925350Y-9936631D01*
X12925313Y-9921972D01*
X12925295Y-9907113D01*
X12925295Y-9892195D01*
X12925313Y-9877363D01*
X12925350Y-9862761D01*
X12925404Y-9848533D01*
X12925477Y-9834821D01*
X12925568Y-9821770D01*
X12925677Y-9809523D01*
X12925805Y-9798225D01*
X12925951Y-9788018D01*
X12926115Y-9779046D01*
X12926298Y-9771454D01*
X12926498Y-9765384D01*
X12926718Y-9760980D01*
X12926955Y-9758387D01*
X12928882Y-9748008D01*
X12931666Y-9737655D01*
X12935072Y-9728611D01*
X12939033Y-9721002D01*
X12943484Y-9714951D01*
X12948359Y-9710584D01*
X12953593Y-9708023D01*
X12956349Y-9707391D01*
X12959376Y-9707441D01*
G37*
G36*
X12647194Y-9645480D02*
G01*
X12651015Y-9647209D01*
X12655749Y-9651078D01*
X12660155Y-9656658D01*
X12664164Y-9663818D01*
X12667702Y-9672426D01*
X12670701Y-9682352D01*
X12673089Y-9693464D01*
X12673290Y-9694656D01*
X12673488Y-9696022D01*
X12673669Y-9697558D01*
X12673835Y-9699348D01*
X12673984Y-9701477D01*
X12674119Y-9704030D01*
X12674240Y-9707092D01*
X12674348Y-9710749D01*
X12674443Y-9715084D01*
X12674526Y-9720183D01*
X12674599Y-9726131D01*
X12674661Y-9733013D01*
X12674714Y-9740915D01*
X12674758Y-9749920D01*
X12674795Y-9760114D01*
X12674824Y-9771582D01*
X12674847Y-9784409D01*
X12674864Y-9798680D01*
X12674877Y-9814480D01*
X12674885Y-9831893D01*
X12674890Y-9851006D01*
X12674892Y-9871902D01*
X12674893Y-9894668D01*
X12674892Y-9916202D01*
X12674890Y-9937200D01*
X12674885Y-9956410D01*
X12674877Y-9973916D01*
X12674865Y-9989803D01*
X12674848Y-10004157D01*
X12674826Y-10017062D01*
X12674797Y-10028604D01*
X12674761Y-10038867D01*
X12674717Y-10047937D01*
X12674665Y-10055898D01*
X12674603Y-10062836D01*
X12674531Y-10068835D01*
X12674448Y-10073981D01*
X12674354Y-10078358D01*
X12674247Y-10082052D01*
X12674127Y-10085147D01*
X12673993Y-10087729D01*
X12673844Y-10089883D01*
X12673680Y-10091693D01*
X12673499Y-10093245D01*
X12673302Y-10094624D01*
X12673086Y-10095914D01*
X12672537Y-10098875D01*
X12669981Y-10109774D01*
X12666835Y-10119456D01*
X12663170Y-10127778D01*
X12659059Y-10134594D01*
X12654571Y-10139759D01*
X12649780Y-10143130D01*
X12645539Y-10144523D01*
X12640587Y-10144449D01*
X12635752Y-10142629D01*
X12631115Y-10139179D01*
X12626756Y-10134209D01*
X12622757Y-10127835D01*
X12619198Y-10120168D01*
X12616162Y-10111321D01*
X12613730Y-10101408D01*
X12611982Y-10090541D01*
X12611881Y-10089336D01*
X12611743Y-10086290D01*
X12611616Y-10081692D01*
X12611500Y-10075510D01*
X12611396Y-10067714D01*
X12611302Y-10058273D01*
X12611219Y-10047156D01*
X12611147Y-10034332D01*
X12611085Y-10019770D01*
X12611034Y-10003440D01*
X12610993Y-9985310D01*
X12610961Y-9965350D01*
X12610940Y-9943529D01*
X12610928Y-9919816D01*
X12610925Y-9894179D01*
X12610927Y-9878807D01*
X12610933Y-9856976D01*
X12610944Y-9836964D01*
X12610959Y-9818692D01*
X12610980Y-9802077D01*
X12611007Y-9787040D01*
X12611040Y-9773499D01*
X12611081Y-9761374D01*
X12611129Y-9750583D01*
X12611186Y-9741046D01*
X12611252Y-9732682D01*
X12611327Y-9725410D01*
X12611412Y-9719149D01*
X12611508Y-9713818D01*
X12611615Y-9709337D01*
X12611734Y-9705624D01*
X12611865Y-9702599D01*
X12612009Y-9700181D01*
X12612167Y-9698288D01*
X12612339Y-9696841D01*
X12614309Y-9685997D01*
X12616945Y-9676117D01*
X12620159Y-9667382D01*
X12623873Y-9659907D01*
X12628008Y-9653807D01*
X12632486Y-9649199D01*
X12637229Y-9646199D01*
X12642158Y-9644920D01*
X12647194Y-9645480D01*
G37*
G36*
X12410869Y-9707440D02*
G01*
X12414480Y-9708531D01*
X12416604Y-9709870D01*
X12420780Y-9713837D01*
X12424814Y-9719337D01*
X12428540Y-9726093D01*
X12431797Y-9733829D01*
X12434418Y-9742268D01*
X12434907Y-9744166D01*
X12435477Y-9746456D01*
X12435992Y-9748703D01*
X12436455Y-9751009D01*
X12436869Y-9753472D01*
X12437236Y-9756193D01*
X12437558Y-9759270D01*
X12437838Y-9762805D01*
X12438078Y-9766897D01*
X12438282Y-9771645D01*
X12438450Y-9777150D01*
X12438587Y-9783510D01*
X12438693Y-9790827D01*
X12438773Y-9799199D01*
X12438827Y-9808727D01*
X12438860Y-9819511D01*
X12438872Y-9831649D01*
X12438867Y-9845242D01*
X12438847Y-9860390D01*
X12438815Y-9877193D01*
X12438773Y-9895749D01*
X12438723Y-9916160D01*
X12438720Y-9917490D01*
X12438670Y-9937264D01*
X12438620Y-9955186D01*
X12438571Y-9971353D01*
X12438520Y-9985859D01*
X12438466Y-9998802D01*
X12438408Y-10010277D01*
X12438345Y-10020379D01*
X12438275Y-10029206D01*
X12438197Y-10036852D01*
X12438111Y-10043414D01*
X12438014Y-10048987D01*
X12437906Y-10053669D01*
X12437785Y-10057553D01*
X12437649Y-10060738D01*
X12437499Y-10063317D01*
X12437332Y-10065388D01*
X12437147Y-10067047D01*
X12436943Y-10068388D01*
X12436719Y-10069509D01*
X12434264Y-10079001D01*
X12430972Y-10088660D01*
X12427237Y-10096893D01*
X12423127Y-10103569D01*
X12418712Y-10108558D01*
X12414063Y-10111731D01*
X12409352Y-10113182D01*
X12404159Y-10113033D01*
X12399144Y-10111072D01*
X12394380Y-10107377D01*
X12389943Y-10102023D01*
X12385909Y-10095085D01*
X12382352Y-10086640D01*
X12379348Y-10076762D01*
X12379098Y-10075778D01*
X12378599Y-10073744D01*
X12378147Y-10071723D01*
X12377740Y-10069616D01*
X12377376Y-10067325D01*
X12377053Y-10064751D01*
X12376768Y-10061797D01*
X12376520Y-10058363D01*
X12376306Y-10054352D01*
X12376125Y-10049665D01*
X12375974Y-10044204D01*
X12375851Y-10037871D01*
X12375754Y-10030567D01*
X12375682Y-10022193D01*
X12375632Y-10012653D01*
X12375601Y-10001847D01*
X12375589Y-9989677D01*
X12375592Y-9976044D01*
X12375609Y-9960851D01*
X12375638Y-9943999D01*
X12375676Y-9925390D01*
X12375722Y-9904925D01*
X12375725Y-9903623D01*
X12375769Y-9883628D01*
X12375808Y-9865481D01*
X12375846Y-9849084D01*
X12375885Y-9834338D01*
X12375930Y-9821144D01*
X12375983Y-9809404D01*
X12376049Y-9799018D01*
X12376129Y-9789888D01*
X12376229Y-9781915D01*
X12376350Y-9775000D01*
X12376498Y-9769045D01*
X12376674Y-9763949D01*
X12376882Y-9759615D01*
X12377126Y-9755944D01*
X12377409Y-9752836D01*
X12377734Y-9750193D01*
X12378105Y-9747916D01*
X12378526Y-9745907D01*
X12378999Y-9744065D01*
X12379528Y-9742293D01*
X12380116Y-9740492D01*
X12380767Y-9738563D01*
X12381484Y-9736406D01*
X12384035Y-9729634D01*
X12387585Y-9722457D01*
X12391566Y-9716344D01*
X12395780Y-9711590D01*
X12400034Y-9708489D01*
X12402243Y-9707695D01*
X12406469Y-9707160D01*
X12410869Y-9707440D01*
G37*
G36*
X12489401Y-9630490D02*
G01*
X12494098Y-9632781D01*
X12498642Y-9636638D01*
X12502918Y-9641953D01*
X12506815Y-9648619D01*
X12510217Y-9656530D01*
X12513014Y-9665579D01*
X12513304Y-9666702D01*
X12513801Y-9668610D01*
X12514258Y-9670407D01*
X12514677Y-9672177D01*
X12515060Y-9674002D01*
X12515407Y-9675964D01*
X12515722Y-9678147D01*
X12516006Y-9680632D01*
X12516259Y-9683502D01*
X12516484Y-9686840D01*
X12516683Y-9690729D01*
X12516857Y-9695250D01*
X12517008Y-9700487D01*
X12517137Y-9706521D01*
X12517247Y-9713437D01*
X12517338Y-9721315D01*
X12517412Y-9730239D01*
X12517472Y-9740292D01*
X12517518Y-9751555D01*
X12517553Y-9764111D01*
X12517577Y-9778044D01*
X12517594Y-9793435D01*
X12517603Y-9810367D01*
X12517608Y-9828922D01*
X12517609Y-9849184D01*
X12517609Y-9871234D01*
X12517608Y-9895156D01*
X12517608Y-9917602D01*
X12517606Y-9939571D01*
X12517602Y-9959744D01*
X12517594Y-9978202D01*
X12517584Y-9995028D01*
X12517569Y-10010301D01*
X12517549Y-10024104D01*
X12517523Y-10036518D01*
X12517491Y-10047623D01*
X12517453Y-10057502D01*
X12517406Y-10066235D01*
X12517352Y-10073904D01*
X12517288Y-10080590D01*
X12517215Y-10086375D01*
X12517131Y-10091339D01*
X12517036Y-10095564D01*
X12516930Y-10099132D01*
X12516811Y-10102124D01*
X12516680Y-10104620D01*
X12516534Y-10106703D01*
X12516374Y-10108453D01*
X12516199Y-10109952D01*
X12516009Y-10111281D01*
X12515802Y-10112522D01*
X12513672Y-10122703D01*
X12510749Y-10132820D01*
X12507304Y-10141549D01*
X12503396Y-10148778D01*
X12499087Y-10154398D01*
X12494438Y-10158297D01*
X12489509Y-10160365D01*
X12484629Y-10160682D01*
X12479428Y-10159272D01*
X12474515Y-10156104D01*
X12469955Y-10151276D01*
X12465809Y-10144888D01*
X12462142Y-10137038D01*
X12459015Y-10127825D01*
X12456493Y-10117349D01*
X12454639Y-10105709D01*
X12454617Y-10105506D01*
X12454480Y-10103062D01*
X12454353Y-10098667D01*
X12454236Y-10092324D01*
X12454130Y-10084035D01*
X12454033Y-10073803D01*
X12453947Y-10061630D01*
X12453871Y-10047519D01*
X12453806Y-10031473D01*
X12453750Y-10013494D01*
X12453705Y-9993584D01*
X12453670Y-9971747D01*
X12453645Y-9947984D01*
X12453630Y-9922299D01*
X12453626Y-9894693D01*
X12453626Y-9889867D01*
X12453629Y-9866410D01*
X12453635Y-9844812D01*
X12453644Y-9824994D01*
X12453658Y-9806876D01*
X12453677Y-9790379D01*
X12453702Y-9775424D01*
X12453732Y-9761931D01*
X12453769Y-9749822D01*
X12453813Y-9739016D01*
X12453865Y-9729435D01*
X12453925Y-9721000D01*
X12453994Y-9713630D01*
X12454072Y-9707247D01*
X12454160Y-9701771D01*
X12454258Y-9697124D01*
X12454367Y-9693225D01*
X12454488Y-9689996D01*
X12454621Y-9687356D01*
X12454766Y-9685228D01*
X12454925Y-9683531D01*
X12455097Y-9682187D01*
X12456446Y-9674301D01*
X12459274Y-9662404D01*
X12462801Y-9652290D01*
X12467042Y-9643924D01*
X12472011Y-9637276D01*
X12477723Y-9632313D01*
X12479999Y-9631029D01*
X12484664Y-9629870D01*
X12489401Y-9630490D01*
G37*
G36*
X12567194Y-9620507D02*
G01*
X12572177Y-9622461D01*
X12575075Y-9624524D01*
X12579687Y-9629386D01*
X12583935Y-9635854D01*
X12587688Y-9643717D01*
X12590817Y-9652764D01*
X12590965Y-9653273D01*
X12591553Y-9655272D01*
X12592096Y-9657133D01*
X12592595Y-9658938D01*
X12593053Y-9660766D01*
X12593471Y-9662699D01*
X12593851Y-9664815D01*
X12594195Y-9667197D01*
X12594504Y-9669924D01*
X12594781Y-9673076D01*
X12595027Y-9676735D01*
X12595244Y-9680980D01*
X12595433Y-9685892D01*
X12595598Y-9691552D01*
X12595739Y-9698039D01*
X12595858Y-9705435D01*
X12595957Y-9713820D01*
X12596038Y-9723273D01*
X12596102Y-9733876D01*
X12596153Y-9745709D01*
X12596190Y-9758853D01*
X12596217Y-9773387D01*
X12596234Y-9789393D01*
X12596244Y-9806950D01*
X12596249Y-9826139D01*
X12596250Y-9847041D01*
X12596249Y-9869736D01*
X12596248Y-9894305D01*
X12596245Y-9916600D01*
X12596234Y-9942225D01*
X12596216Y-9965953D01*
X12596189Y-9987814D01*
X12596154Y-10007841D01*
X12596110Y-10026064D01*
X12596058Y-10042514D01*
X12595996Y-10057223D01*
X12595926Y-10070221D01*
X12595847Y-10081541D01*
X12595759Y-10091212D01*
X12595661Y-10099267D01*
X12595554Y-10105736D01*
X12595437Y-10110650D01*
X12595310Y-10114042D01*
X12595173Y-10115941D01*
X12594979Y-10117461D01*
X12593057Y-10128422D01*
X12590357Y-10138609D01*
X12586984Y-10147736D01*
X12583041Y-10155517D01*
X12578631Y-10161664D01*
X12576703Y-10163770D01*
X12573698Y-10166491D01*
X12570803Y-10168161D01*
X12567432Y-10169171D01*
X12567146Y-10169227D01*
X12562809Y-10169276D01*
X12558136Y-10168177D01*
X12554099Y-10166150D01*
X12552543Y-10164845D01*
X12549234Y-10161004D01*
X12545859Y-10155868D01*
X12542649Y-10149844D01*
X12539833Y-10143344D01*
X12537639Y-10136777D01*
X12537477Y-10136199D01*
X12536952Y-10134351D01*
X12536468Y-10132624D01*
X12536022Y-10130939D01*
X12535613Y-10129215D01*
X12535240Y-10127374D01*
X12534901Y-10125335D01*
X12534594Y-10123019D01*
X12534318Y-10120345D01*
X12534071Y-10117234D01*
X12533851Y-10113605D01*
X12533658Y-10109380D01*
X12533488Y-10104479D01*
X12533341Y-10098820D01*
X12533215Y-10092326D01*
X12533109Y-10084915D01*
X12533020Y-10076508D01*
X12532948Y-10067026D01*
X12532890Y-10056388D01*
X12532844Y-10044514D01*
X12532811Y-10031325D01*
X12532786Y-10016741D01*
X12532770Y-10000683D01*
X12532761Y-9983069D01*
X12532756Y-9963821D01*
X12532755Y-9942858D01*
X12532755Y-9920102D01*
X12532755Y-9895471D01*
X12532755Y-9883198D01*
X12532763Y-9856192D01*
X12532778Y-9831112D01*
X12532803Y-9807939D01*
X12532835Y-9786652D01*
X12532877Y-9767232D01*
X12532928Y-9749659D01*
X12532987Y-9733914D01*
X12533055Y-9719978D01*
X12533133Y-9707830D01*
X12533220Y-9697451D01*
X12533316Y-9688822D01*
X12533421Y-9681923D01*
X12533536Y-9676734D01*
X12533660Y-9673236D01*
X12533794Y-9671408D01*
X12535270Y-9662753D01*
X12537730Y-9652812D01*
X12540790Y-9643996D01*
X12544368Y-9636407D01*
X12548384Y-9630150D01*
X12552756Y-9625328D01*
X12557402Y-9622044D01*
X12562242Y-9620403D01*
X12567194Y-9620507D01*
G37*
D13*
X14975000Y-10610000D02*
X14753700Y-10610000D01*
X14975000Y-10610000D02*
X14975000Y-10524500D01*
X14550000Y-10486700D02*
X14550000Y-10337800D01*
X14975000Y-10210000D02*
X14975000Y-10300000D01*
X14975000Y-10210000D02*
X14740300Y-10210000D01*
M02*
