G04 #@! TF.GenerationSoftware,KiCad,Pcbnew,7.0.7*
G04 #@! TF.CreationDate,2024-03-13T12:15:20+01:00*
G04 #@! TF.ProjectId,dictofun,64696374-6f66-4756-9e2e-6b696361645f,rev?*
G04 #@! TF.SameCoordinates,Original*
G04 #@! TF.FileFunction,Copper,L3,Inr*
G04 #@! TF.FilePolarity,Positive*
%FSLAX45Y45*%
G04 Gerber Fmt 4.5, Leading zero omitted, Abs format (unit mm)*
G04 Created by KiCad (PCBNEW 7.0.7) date 2024-03-13 12:15:20*
%MOMM*%
%LPD*%
G01*
G04 APERTURE LIST*
G04 #@! TA.AperFunction,ComponentPad*
%ADD10C,0.500000*%
G04 #@! TD*
G04 #@! TA.AperFunction,ComponentPad*
%ADD11R,0.850000X0.850000*%
G04 #@! TD*
G04 #@! TA.AperFunction,ComponentPad*
%ADD12O,1.900000X1.200000*%
G04 #@! TD*
G04 #@! TA.AperFunction,ComponentPad*
%ADD13C,1.450000*%
G04 #@! TD*
G04 #@! TA.AperFunction,ViaPad*
%ADD14C,0.300000*%
G04 #@! TD*
G04 #@! TA.AperFunction,ViaPad*
%ADD15C,0.600000*%
G04 #@! TD*
G04 #@! TA.AperFunction,Conductor*
%ADD16C,0.127000*%
G04 #@! TD*
G04 #@! TA.AperFunction,Conductor*
%ADD17C,0.254000*%
G04 #@! TD*
G04 #@! TA.AperFunction,Conductor*
%ADD18C,0.500000*%
G04 #@! TD*
G04 #@! TA.AperFunction,Conductor*
%ADD19C,0.400000*%
G04 #@! TD*
G04 APERTURE END LIST*
D10*
X14806500Y-10581500D03*
X14901500Y-10581500D03*
X14806500Y-10486500D03*
X14901500Y-10486500D03*
D11*
X13347700Y-10767060D03*
D12*
X15350000Y-9550000D03*
D13*
X15080000Y-9650000D03*
X15080000Y-10150000D03*
D12*
X15350000Y-10250000D03*
D14*
X13464540Y-10271760D03*
X15199360Y-9517380D03*
X12969240Y-10149840D03*
X15341600Y-10477500D03*
X15306040Y-10353040D03*
X15199360Y-10246360D03*
D15*
X13388340Y-9839960D03*
X13281660Y-9834880D03*
X13174980Y-9832340D03*
X13279120Y-9740900D03*
X13177520Y-9738360D03*
X13281660Y-9634220D03*
X13385800Y-9748520D03*
X13385800Y-9634220D03*
X13177520Y-9636760D03*
D14*
X13870940Y-8989060D03*
X15397480Y-10358120D03*
X13784580Y-9141460D03*
X14284960Y-9466580D03*
X14150340Y-10012680D03*
X14005560Y-9964420D03*
X14571980Y-10833100D03*
X14264640Y-10619740D03*
X13896340Y-10680700D03*
X13108940Y-10350500D03*
X11988800Y-10457180D03*
X12999720Y-9999980D03*
X12570460Y-10728960D03*
X12740640Y-10769600D03*
X12943840Y-10767060D03*
X13093700Y-10772140D03*
X12989560Y-10447020D03*
X13058140Y-10406380D03*
X14678660Y-10345420D03*
X14018260Y-9507220D03*
X13967460Y-9507220D03*
X13924280Y-9535160D03*
X13881100Y-9578340D03*
X13997940Y-9621520D03*
X14132560Y-9519920D03*
X14196060Y-9375140D03*
X14010640Y-9408160D03*
X13263880Y-9171940D03*
X13202920Y-9110980D03*
X13934440Y-9758680D03*
X13728700Y-10652760D03*
X12509500Y-9380220D03*
X12669520Y-9512300D03*
X12425680Y-10253980D03*
X11805920Y-9512300D03*
X15125700Y-9537700D03*
X14371320Y-10454640D03*
X14239240Y-10431780D03*
D15*
X14315440Y-9131300D03*
X14132560Y-9237980D03*
D14*
X14678660Y-9077960D03*
X14610080Y-9011920D03*
X14727500Y-9000000D03*
X12448540Y-8956040D03*
X12585700Y-8976360D03*
X12646660Y-9189720D03*
X12148820Y-9512300D03*
X13055600Y-8989060D03*
X12809220Y-9489440D03*
X14406880Y-9560560D03*
X14726920Y-9944100D03*
X14467840Y-10104120D03*
X14131000Y-10345420D03*
X13764260Y-10363200D03*
X13876020Y-9961880D03*
X14978380Y-9585960D03*
X15255240Y-9900920D03*
X14978380Y-10068560D03*
X14907260Y-9728200D03*
X14645640Y-9550400D03*
X14831060Y-9382760D03*
X14386560Y-9019540D03*
X15118080Y-9281160D03*
X14958060Y-9268460D03*
X15026640Y-9017000D03*
X14884400Y-9077960D03*
X14810740Y-9240520D03*
X14559280Y-9484360D03*
X14424660Y-10576560D03*
X14592580Y-10368000D03*
X14551660Y-10447020D03*
X14653260Y-10419080D03*
X14828520Y-10774680D03*
X15041880Y-10657840D03*
X14993620Y-10363200D03*
X15176500Y-10358120D03*
X15077440Y-10535920D03*
X14762480Y-10289540D03*
X14869160Y-10297160D03*
X15118080Y-9352280D03*
X14269720Y-10820400D03*
X13957300Y-10535920D03*
X13733780Y-10807700D03*
X14762480Y-10172700D03*
X14927580Y-9796780D03*
X14919960Y-10020300D03*
X14904720Y-9941560D03*
X11783060Y-10121900D03*
X12204700Y-9900920D03*
X12435840Y-9728200D03*
X12247880Y-9753600D03*
X12512040Y-9451340D03*
X12336780Y-9446260D03*
X12407900Y-9441180D03*
X12727940Y-9997440D03*
X12659360Y-9949180D03*
X12793980Y-10048240D03*
X12687300Y-9705340D03*
X12745720Y-9766300D03*
X12606020Y-9715500D03*
X12021820Y-9883140D03*
X12169140Y-9702800D03*
X11948160Y-9555480D03*
X11699240Y-9456420D03*
X13210540Y-10380980D03*
X13185140Y-10632440D03*
X12877800Y-10114280D03*
X13119100Y-9055100D03*
X13045440Y-9105900D03*
X12984480Y-9151620D03*
X12867640Y-10294620D03*
X12108180Y-9227820D03*
X12827000Y-9037320D03*
X12326620Y-9370060D03*
X12329160Y-9100820D03*
X12204700Y-9085580D03*
X12743180Y-10154920D03*
X12931140Y-9202420D03*
X13388580Y-8973160D03*
X13563600Y-10810240D03*
X11836400Y-10195560D03*
X13646080Y-9116060D03*
X12666980Y-10236200D03*
X11976100Y-10360660D03*
X13276580Y-10025300D03*
X11973560Y-10236200D03*
X12814300Y-10368280D03*
X12893040Y-9474200D03*
X12893040Y-9598660D03*
X12999720Y-10213340D03*
X12847320Y-9652000D03*
X12910820Y-9822180D03*
X13314680Y-10289540D03*
X13261340Y-10241280D03*
X13454380Y-10121900D03*
X13789660Y-9334500D03*
X13837920Y-9507220D03*
X13042900Y-9222740D03*
X11833860Y-10424160D03*
X13731240Y-10033000D03*
X13634720Y-9377680D03*
X12822204Y-9789160D03*
D16*
X12603480Y-10695940D02*
X12603480Y-10467340D01*
X12570460Y-10728960D02*
X12603480Y-10695940D01*
D17*
X14919960Y-10020300D02*
X14973120Y-9967140D01*
X14973120Y-9967140D02*
X14973120Y-9908360D01*
X14973120Y-9908360D02*
X14930120Y-9865360D01*
X14930120Y-9865360D02*
X14930120Y-9799320D01*
X14592580Y-10368000D02*
X14592580Y-10352728D01*
X14592580Y-10352728D02*
X14676088Y-10269220D01*
X14676088Y-10269220D02*
X14678660Y-10269220D01*
X14678660Y-10269220D02*
X14714040Y-10233840D01*
X14714040Y-10233840D02*
X14805840Y-10233840D01*
X14805840Y-10233840D02*
X14869160Y-10297160D01*
D18*
X14568170Y-10494010D02*
X14495780Y-10421620D01*
X14495780Y-10421620D02*
X14495780Y-10297160D01*
X14559280Y-10233660D02*
X14559280Y-9484360D01*
X14495780Y-10297160D02*
X14559280Y-10233660D01*
D17*
X14726740Y-9133660D02*
X14970580Y-9133660D01*
X14672800Y-9000000D02*
X14678660Y-9005860D01*
X14678660Y-9085580D02*
X14726740Y-9133660D01*
X14678660Y-9005860D02*
X14678660Y-9085580D01*
X14727500Y-9000000D02*
X14672800Y-9000000D01*
X14970580Y-9133660D02*
X15118080Y-9281160D01*
X14727500Y-9000000D02*
X14718120Y-9009380D01*
X14718120Y-9009380D02*
X14640560Y-9009380D01*
D19*
X12822204Y-9905931D02*
X12822204Y-9913709D01*
X12822204Y-9913709D02*
X13065955Y-10157460D01*
X13065955Y-10157460D02*
X13073733Y-10157460D01*
D18*
X13083540Y-10325100D02*
X13083540Y-10248900D01*
X13083540Y-10248900D02*
X13174980Y-10157460D01*
X12822204Y-9789160D02*
X12822204Y-9905931D01*
X13073733Y-10157460D02*
X13322653Y-10157460D01*
X13555980Y-10030460D02*
X13629640Y-9956800D01*
X13322653Y-10157460D02*
X13449653Y-10030460D01*
X13449653Y-10030460D02*
X13555980Y-10030460D01*
X13083540Y-10325100D02*
X13070260Y-10338380D01*
X13070260Y-10338380D02*
X13002033Y-10338380D01*
X13002033Y-10338380D02*
X12873073Y-10467340D01*
X12873073Y-10467340D02*
X12603480Y-10467340D01*
D16*
X13083540Y-10325100D02*
X13108940Y-10350500D01*
X12938760Y-10053320D02*
X12941300Y-10053320D01*
D18*
X14559280Y-9484360D02*
X14579600Y-9464040D01*
X14579600Y-9464040D02*
X15102487Y-9464040D01*
X15026640Y-9034780D02*
X15026640Y-9017000D01*
X15102487Y-9464040D02*
X15186080Y-9380447D01*
X15186080Y-9380447D02*
X15186080Y-9194220D01*
X15186080Y-9194220D02*
X15026640Y-9034780D01*
D16*
X15397480Y-10358120D02*
X15357930Y-10397670D01*
X15357930Y-10400210D02*
X15350670Y-10407470D01*
X15350670Y-10407470D02*
X15037890Y-10407470D01*
X15357930Y-10397670D02*
X15357930Y-10400210D01*
X15037890Y-10407470D02*
X14993620Y-10363200D01*
X15306040Y-10353040D02*
X15295923Y-10353040D01*
X15295923Y-10353040D02*
X15247663Y-10304780D01*
X15247663Y-10304780D02*
X15023131Y-10304780D01*
X15023131Y-10304780D02*
X15014061Y-10313850D01*
X15014061Y-10313850D02*
X14931210Y-10313850D01*
X14931210Y-10313850D02*
X14897100Y-10347960D01*
X14681200Y-10347960D02*
X14678660Y-10345420D01*
X14897100Y-10347960D02*
X14681200Y-10347960D01*
D18*
X14157960Y-9083040D02*
X13822327Y-9083040D01*
X13822327Y-9083040D02*
X13782267Y-9042980D01*
X13782267Y-9042980D02*
X13221280Y-9042980D01*
X13221280Y-9042980D02*
X13147620Y-8969320D01*
X14559280Y-9484360D02*
X14157960Y-9083040D01*
X13147620Y-8969320D02*
X12636500Y-8969320D01*
X13982347Y-9237980D02*
X14003020Y-9237980D01*
X14003020Y-9237980D02*
X14132560Y-9237980D01*
D16*
X13784580Y-9141460D02*
X13906500Y-9141460D01*
X13906500Y-9141460D02*
X14003020Y-9237980D01*
D18*
X12603480Y-10467340D02*
X12085320Y-10467340D01*
X13629640Y-9956800D02*
X13655040Y-9956800D01*
X13655040Y-9956800D02*
X13731240Y-10033000D01*
D16*
X11948160Y-9555480D02*
X11965940Y-9537700D01*
X11965940Y-9537700D02*
X12059920Y-9537700D01*
D18*
X14828520Y-10774680D02*
X14752320Y-10774680D01*
X14752320Y-10774680D02*
X14717340Y-10739700D01*
X14717340Y-10739700D02*
X14112820Y-10739700D01*
X13957300Y-10584180D02*
X13957300Y-10535920D01*
X14112820Y-10739700D02*
X13957300Y-10584180D01*
D16*
X12204700Y-9850120D02*
X12110720Y-9756140D01*
X12204700Y-9900920D02*
X12204700Y-9850120D01*
X12110720Y-9618980D02*
X12125960Y-9603740D01*
X12110720Y-9756140D02*
X12110720Y-9618980D01*
D18*
X12951460Y-9278620D02*
X12981940Y-9309100D01*
X12981940Y-9309100D02*
X13108940Y-9436100D01*
D16*
X13042900Y-9222740D02*
X13042900Y-9248140D01*
X13042900Y-9248140D02*
X12981940Y-9309100D01*
X13634720Y-9377680D02*
X13634720Y-9431020D01*
X13634720Y-9431020D02*
X13629640Y-9436100D01*
D18*
X13629640Y-9956800D02*
X13629640Y-9436100D01*
X11945620Y-10535920D02*
X11833860Y-10424160D01*
X12085320Y-10467340D02*
X12016740Y-10535920D01*
X12016740Y-10535920D02*
X11945620Y-10535920D01*
X13629640Y-9436100D02*
X13700760Y-9436100D01*
X13134340Y-9436100D02*
X13629640Y-9436100D01*
X14315440Y-9131300D02*
X14409420Y-9131300D01*
X14409420Y-9131300D02*
X14531340Y-9009380D01*
X14531340Y-9009380D02*
X14640560Y-9009380D01*
X14132560Y-9237980D02*
X14135100Y-9237980D01*
X13774067Y-9446260D02*
X13982347Y-9237980D01*
X13710920Y-9446260D02*
X13774067Y-9446260D01*
X12204700Y-9146540D02*
X12204700Y-9212580D01*
X12202160Y-9215120D02*
X12202160Y-9230007D01*
X12059920Y-9537700D02*
X12125960Y-9603740D01*
X12151360Y-9603740D02*
X12153547Y-9603740D01*
X12196727Y-9560560D02*
X12501880Y-9560560D01*
X13108940Y-9436100D02*
X13134340Y-9436100D01*
X12153547Y-9603740D02*
X12196727Y-9560560D01*
X12204700Y-9212580D02*
X12202160Y-9215120D01*
X12059920Y-9372247D02*
X12059920Y-9537700D01*
X12783820Y-9278620D02*
X12951460Y-9278620D01*
X12202160Y-9230007D02*
X12059920Y-9372247D01*
X12501880Y-9560560D02*
X12783820Y-9278620D01*
X12125960Y-9603740D02*
X12151360Y-9603740D01*
X13700760Y-9436100D02*
X13710920Y-9446260D01*
X12204700Y-9085580D02*
X12204700Y-9146540D01*
X12636500Y-8969320D02*
X12592740Y-8969320D01*
D16*
X12646660Y-9189720D02*
X12646660Y-8979480D01*
X12646660Y-8979480D02*
X12636500Y-8969320D01*
D18*
X12592740Y-8969320D02*
X12148820Y-9413240D01*
X12148820Y-9413240D02*
X12148820Y-9512300D01*
X14559280Y-9484360D02*
X14556740Y-9481820D01*
X14828520Y-10754360D02*
X14568170Y-10494010D01*
X14568170Y-10494010D02*
X14551660Y-10477500D01*
X14828520Y-10774680D02*
X14828520Y-10754360D01*
X14551660Y-10477500D02*
X14551660Y-10447020D01*
G04 #@! TA.AperFunction,Conductor*
G36*
X12407013Y-8946969D02*
G01*
X12411588Y-8952249D01*
X12412556Y-8955460D01*
X12414405Y-8967131D01*
X12419503Y-8977137D01*
X12427443Y-8985077D01*
X12437449Y-8990175D01*
X12448540Y-8991932D01*
X12448540Y-8991932D01*
X12448540Y-8991932D01*
X12459631Y-8990175D01*
X12459631Y-8990175D01*
X12459631Y-8990175D01*
X12469637Y-8985077D01*
X12477577Y-8977137D01*
X12482675Y-8967131D01*
X12482675Y-8967131D01*
X12482675Y-8967131D01*
X12484524Y-8955460D01*
X12487517Y-8949147D01*
X12493448Y-8945454D01*
X12496771Y-8945000D01*
X12523413Y-8945000D01*
X12530117Y-8946969D01*
X12534693Y-8952249D01*
X12535687Y-8959165D01*
X12532785Y-8965520D01*
X12532181Y-8966168D01*
X12385925Y-9112424D01*
X12379793Y-9115773D01*
X12372824Y-9115274D01*
X12367230Y-9111087D01*
X12364789Y-9104541D01*
X12364910Y-9101716D01*
X12365052Y-9100820D01*
X12365052Y-9100820D01*
X12363295Y-9089729D01*
X12358197Y-9079723D01*
X12350256Y-9071783D01*
X12340251Y-9066685D01*
X12329160Y-9064928D01*
X12329160Y-9064928D01*
X12318069Y-9066685D01*
X12308063Y-9071783D01*
X12300123Y-9079723D01*
X12295025Y-9089729D01*
X12293268Y-9100820D01*
X12293268Y-9100820D01*
X12295025Y-9111911D01*
X12300123Y-9121917D01*
X12308063Y-9129857D01*
X12318069Y-9134955D01*
X12329160Y-9136712D01*
X12329160Y-9136712D01*
X12329160Y-9136712D01*
X12329160Y-9136712D01*
X12330056Y-9136570D01*
X12336985Y-9137465D01*
X12342330Y-9141965D01*
X12344395Y-9148640D01*
X12342522Y-9155371D01*
X12340764Y-9157585D01*
X12119000Y-9379349D01*
X12118482Y-9379813D01*
X12115423Y-9382252D01*
X12115423Y-9382252D01*
X12112072Y-9387167D01*
X12108541Y-9391952D01*
X12108142Y-9392707D01*
X12107773Y-9393473D01*
X12106019Y-9399158D01*
X12104055Y-9404770D01*
X12103897Y-9405606D01*
X12103770Y-9406450D01*
X12103770Y-9412397D01*
X12103547Y-9418341D01*
X12103652Y-9419264D01*
X12103568Y-9419274D01*
X12103770Y-9420804D01*
X12103770Y-9515677D01*
X12105285Y-9525729D01*
X12111177Y-9537964D01*
X12111177Y-9537964D01*
X12120414Y-9547919D01*
X12120415Y-9547920D01*
X12121654Y-9548635D01*
X12132175Y-9554710D01*
X12145415Y-9557732D01*
X12158958Y-9556717D01*
X12171599Y-9551755D01*
X12182217Y-9543288D01*
X12189867Y-9532067D01*
X12193870Y-9519090D01*
X12193870Y-9512300D01*
X12633628Y-9512300D01*
X12635385Y-9523391D01*
X12640483Y-9533397D01*
X12648423Y-9541337D01*
X12658429Y-9546435D01*
X12669520Y-9548192D01*
X12669520Y-9548192D01*
X12669520Y-9548192D01*
X12680611Y-9546435D01*
X12680611Y-9546435D01*
X12680611Y-9546435D01*
X12690617Y-9541337D01*
X12698557Y-9533397D01*
X12703655Y-9523391D01*
X12703655Y-9523391D01*
X12703655Y-9523391D01*
X12705412Y-9512300D01*
X12705412Y-9512300D01*
X12703655Y-9501209D01*
X12698557Y-9491203D01*
X12696794Y-9489440D01*
X12773328Y-9489440D01*
X12775085Y-9500531D01*
X12780183Y-9510537D01*
X12788123Y-9518477D01*
X12798129Y-9523575D01*
X12809220Y-9525332D01*
X12809220Y-9525332D01*
X12809220Y-9525332D01*
X12820311Y-9523575D01*
X12820311Y-9523575D01*
X12820311Y-9523575D01*
X12830317Y-9518477D01*
X12838257Y-9510537D01*
X12843355Y-9500531D01*
X12843355Y-9500530D01*
X12843449Y-9500241D01*
X12843660Y-9499933D01*
X12843798Y-9499662D01*
X12843833Y-9499680D01*
X12847393Y-9494473D01*
X12853829Y-9491754D01*
X12860714Y-9492945D01*
X12864011Y-9495305D01*
X12871943Y-9503237D01*
X12881949Y-9508335D01*
X12893040Y-9510092D01*
X12893040Y-9510092D01*
X12893040Y-9510092D01*
X12904131Y-9508335D01*
X12904131Y-9508335D01*
X12904131Y-9508335D01*
X12906319Y-9507220D01*
X13802028Y-9507220D01*
X13803785Y-9518311D01*
X13808883Y-9528317D01*
X13816823Y-9536257D01*
X13826829Y-9541355D01*
X13837920Y-9543112D01*
X13838896Y-9543112D01*
X13838896Y-9543474D01*
X13844027Y-9544136D01*
X13849373Y-9548635D01*
X13851438Y-9555310D01*
X13850088Y-9561118D01*
X13846965Y-9567249D01*
X13845208Y-9578340D01*
X13845208Y-9578340D01*
X13846965Y-9589431D01*
X13852063Y-9599437D01*
X13860003Y-9607377D01*
X13870009Y-9612475D01*
X13881100Y-9614232D01*
X13881100Y-9614232D01*
X13881100Y-9614232D01*
X13892191Y-9612475D01*
X13892191Y-9612475D01*
X13892191Y-9612475D01*
X13902197Y-9607377D01*
X13910137Y-9599437D01*
X13915235Y-9589431D01*
X13916579Y-9580946D01*
X13919572Y-9574633D01*
X13925503Y-9570940D01*
X13926884Y-9570639D01*
X13935371Y-9569295D01*
X13945377Y-9564197D01*
X13949014Y-9560560D01*
X14370988Y-9560560D01*
X14372745Y-9571651D01*
X14377843Y-9581657D01*
X14385783Y-9589597D01*
X14395789Y-9594695D01*
X14406880Y-9596452D01*
X14406880Y-9596452D01*
X14406880Y-9596452D01*
X14417971Y-9594695D01*
X14417971Y-9594695D01*
X14417971Y-9594695D01*
X14427977Y-9589597D01*
X14435917Y-9581657D01*
X14441015Y-9571651D01*
X14441015Y-9571651D01*
X14441015Y-9571651D01*
X14442772Y-9560560D01*
X14442772Y-9560560D01*
X14441015Y-9549469D01*
X14435917Y-9539463D01*
X14427976Y-9531523D01*
X14417971Y-9526425D01*
X14406880Y-9524668D01*
X14406880Y-9524668D01*
X14395789Y-9526425D01*
X14385783Y-9531523D01*
X14377843Y-9539463D01*
X14372745Y-9549469D01*
X14370988Y-9560560D01*
X14370988Y-9560560D01*
X13949014Y-9560560D01*
X13953317Y-9556257D01*
X13954838Y-9553272D01*
X13956565Y-9549883D01*
X13961362Y-9544803D01*
X13966519Y-9543408D01*
X13966496Y-9543265D01*
X13978551Y-9541355D01*
X13978551Y-9541355D01*
X13978551Y-9541355D01*
X13985726Y-9537700D01*
X13987231Y-9536933D01*
X13994097Y-9535643D01*
X13998489Y-9536933D01*
X14007169Y-9541355D01*
X14018260Y-9543112D01*
X14018260Y-9543112D01*
X14018260Y-9543112D01*
X14029351Y-9541355D01*
X14029351Y-9541355D01*
X14029351Y-9541355D01*
X14039357Y-9536257D01*
X14047297Y-9528317D01*
X14051575Y-9519920D01*
X14096668Y-9519920D01*
X14098425Y-9531011D01*
X14103523Y-9541017D01*
X14111463Y-9548957D01*
X14121469Y-9554055D01*
X14132560Y-9555812D01*
X14132560Y-9555812D01*
X14132560Y-9555812D01*
X14143651Y-9554055D01*
X14143651Y-9554055D01*
X14143651Y-9554055D01*
X14153657Y-9548957D01*
X14161597Y-9541017D01*
X14166695Y-9531011D01*
X14166695Y-9531011D01*
X14166695Y-9531011D01*
X14168452Y-9519920D01*
X14168452Y-9519920D01*
X14166695Y-9508829D01*
X14161597Y-9498823D01*
X14153656Y-9490883D01*
X14143651Y-9485785D01*
X14132560Y-9484028D01*
X14132560Y-9484028D01*
X14121469Y-9485785D01*
X14111463Y-9490883D01*
X14103523Y-9498823D01*
X14098425Y-9508829D01*
X14096668Y-9519920D01*
X14096668Y-9519920D01*
X14051575Y-9519920D01*
X14052395Y-9518311D01*
X14052395Y-9518311D01*
X14052395Y-9518311D01*
X14054152Y-9507220D01*
X14054152Y-9507220D01*
X14052395Y-9496129D01*
X14047297Y-9486123D01*
X14039356Y-9478183D01*
X14029351Y-9473085D01*
X14018260Y-9471328D01*
X14018260Y-9471328D01*
X14007169Y-9473085D01*
X13998489Y-9477507D01*
X13991622Y-9478797D01*
X13987231Y-9477507D01*
X13978551Y-9473085D01*
X13967460Y-9471328D01*
X13967460Y-9471328D01*
X13956369Y-9473085D01*
X13946363Y-9478183D01*
X13938423Y-9486123D01*
X13935175Y-9492498D01*
X13930378Y-9497577D01*
X13925221Y-9498972D01*
X13925244Y-9499115D01*
X13913189Y-9501025D01*
X13903184Y-9506123D01*
X13894886Y-9514420D01*
X13888754Y-9517768D01*
X13881785Y-9517270D01*
X13876191Y-9513083D01*
X13873871Y-9507592D01*
X13873812Y-9507220D01*
X13873812Y-9507220D01*
X13872055Y-9496129D01*
X13867413Y-9487018D01*
X13866957Y-9486123D01*
X13859016Y-9478183D01*
X13849011Y-9473085D01*
X13837920Y-9471328D01*
X13837920Y-9471328D01*
X13826829Y-9473085D01*
X13816823Y-9478183D01*
X13808883Y-9486123D01*
X13803785Y-9496129D01*
X13802028Y-9507220D01*
X13802028Y-9507220D01*
X12906319Y-9507220D01*
X12914137Y-9503237D01*
X12922077Y-9495297D01*
X12927175Y-9485291D01*
X12927175Y-9485291D01*
X12927175Y-9485291D01*
X12928932Y-9474200D01*
X12928932Y-9474200D01*
X12927725Y-9466580D01*
X14249068Y-9466580D01*
X14250825Y-9477671D01*
X14255923Y-9487677D01*
X14263863Y-9495617D01*
X14273869Y-9500715D01*
X14284960Y-9502472D01*
X14284960Y-9502472D01*
X14284960Y-9502472D01*
X14296051Y-9500715D01*
X14296051Y-9500715D01*
X14296051Y-9500715D01*
X14306057Y-9495617D01*
X14313997Y-9487677D01*
X14319095Y-9477671D01*
X14319095Y-9477671D01*
X14319095Y-9477671D01*
X14320852Y-9466580D01*
X14320852Y-9466580D01*
X14319095Y-9455489D01*
X14313997Y-9445483D01*
X14306056Y-9437543D01*
X14296051Y-9432445D01*
X14284960Y-9430688D01*
X14284960Y-9430688D01*
X14273869Y-9432445D01*
X14263863Y-9437543D01*
X14255923Y-9445483D01*
X14250825Y-9455489D01*
X14249068Y-9466580D01*
X14249068Y-9466580D01*
X12927725Y-9466580D01*
X12927175Y-9463109D01*
X12922077Y-9453103D01*
X12914136Y-9445163D01*
X12904131Y-9440065D01*
X12893040Y-9438308D01*
X12893040Y-9438308D01*
X12881949Y-9440065D01*
X12871943Y-9445163D01*
X12864003Y-9453103D01*
X12858905Y-9463109D01*
X12858810Y-9463400D01*
X12858599Y-9463708D01*
X12858462Y-9463978D01*
X12858427Y-9463960D01*
X12854866Y-9469167D01*
X12848429Y-9471887D01*
X12841545Y-9470694D01*
X12838249Y-9468335D01*
X12830316Y-9460403D01*
X12820311Y-9455305D01*
X12809220Y-9453548D01*
X12809220Y-9453548D01*
X12798129Y-9455305D01*
X12788123Y-9460403D01*
X12780183Y-9468343D01*
X12775085Y-9478349D01*
X12773328Y-9489440D01*
X12773328Y-9489440D01*
X12696794Y-9489440D01*
X12690616Y-9483263D01*
X12680611Y-9478165D01*
X12669520Y-9476408D01*
X12669520Y-9476408D01*
X12658429Y-9478165D01*
X12648423Y-9483263D01*
X12640483Y-9491203D01*
X12635385Y-9501209D01*
X12633628Y-9512300D01*
X12633628Y-9512300D01*
X12193870Y-9512300D01*
X12193870Y-9437036D01*
X12195838Y-9430333D01*
X12197501Y-9428269D01*
X12270333Y-9355437D01*
X12276465Y-9352089D01*
X12283434Y-9352587D01*
X12289027Y-9356775D01*
X12291469Y-9363321D01*
X12291348Y-9366145D01*
X12290876Y-9369129D01*
X12290728Y-9370060D01*
X12290728Y-9370060D01*
X12290728Y-9370060D01*
X12292485Y-9381151D01*
X12297583Y-9391157D01*
X12305523Y-9399097D01*
X12309054Y-9400896D01*
X12314134Y-9405694D01*
X12315813Y-9412476D01*
X12313560Y-9419089D01*
X12312193Y-9420713D01*
X12307743Y-9425163D01*
X12302645Y-9435169D01*
X12300888Y-9446260D01*
X12300888Y-9446260D01*
X12302645Y-9457351D01*
X12307743Y-9467357D01*
X12315683Y-9475297D01*
X12325689Y-9480395D01*
X12336780Y-9482152D01*
X12336780Y-9482152D01*
X12336780Y-9482152D01*
X12347871Y-9480395D01*
X12347871Y-9480395D01*
X12347871Y-9480395D01*
X12357877Y-9475297D01*
X12365817Y-9467357D01*
X12365817Y-9467357D01*
X12366112Y-9467062D01*
X12372244Y-9463714D01*
X12379213Y-9464212D01*
X12383648Y-9467062D01*
X12386803Y-9470217D01*
X12396809Y-9475315D01*
X12407900Y-9477072D01*
X12407900Y-9477072D01*
X12407900Y-9477072D01*
X12418991Y-9475315D01*
X12418991Y-9475315D01*
X12418991Y-9475315D01*
X12428997Y-9470217D01*
X12436937Y-9462277D01*
X12442035Y-9452271D01*
X12442035Y-9452271D01*
X12442035Y-9452271D01*
X12443792Y-9441180D01*
X12443792Y-9441180D01*
X12442035Y-9430089D01*
X12436937Y-9420083D01*
X12428996Y-9412143D01*
X12418991Y-9407045D01*
X12407900Y-9405288D01*
X12407900Y-9405288D01*
X12396809Y-9407045D01*
X12386803Y-9412143D01*
X12378568Y-9420378D01*
X12372436Y-9423727D01*
X12365467Y-9423228D01*
X12361032Y-9420378D01*
X12357876Y-9417222D01*
X12354345Y-9415423D01*
X12349266Y-9410626D01*
X12347586Y-9403844D01*
X12349840Y-9397230D01*
X12351206Y-9395607D01*
X12355657Y-9391157D01*
X12360755Y-9381151D01*
X12360755Y-9381151D01*
X12360755Y-9381151D01*
X12360903Y-9380220D01*
X12473608Y-9380220D01*
X12475365Y-9391311D01*
X12480463Y-9401317D01*
X12487428Y-9408282D01*
X12490776Y-9414414D01*
X12490278Y-9421383D01*
X12487428Y-9425818D01*
X12483003Y-9430243D01*
X12477905Y-9440249D01*
X12476148Y-9451340D01*
X12476148Y-9451340D01*
X12477905Y-9462431D01*
X12483003Y-9472437D01*
X12490943Y-9480377D01*
X12500949Y-9485475D01*
X12512040Y-9487232D01*
X12512040Y-9487232D01*
X12512040Y-9487232D01*
X12523131Y-9485475D01*
X12523131Y-9485475D01*
X12523131Y-9485475D01*
X12533137Y-9480377D01*
X12541077Y-9472437D01*
X12546175Y-9462431D01*
X12546175Y-9462431D01*
X12546175Y-9462431D01*
X12547932Y-9451340D01*
X12547932Y-9451340D01*
X12546175Y-9440249D01*
X12541077Y-9430244D01*
X12541077Y-9430244D01*
X12541077Y-9430243D01*
X12534112Y-9423278D01*
X12530763Y-9417146D01*
X12531262Y-9410177D01*
X12532558Y-9408160D01*
X13974748Y-9408160D01*
X13976505Y-9419251D01*
X13981603Y-9429257D01*
X13989543Y-9437197D01*
X13999549Y-9442295D01*
X14010640Y-9444052D01*
X14010640Y-9444052D01*
X14010640Y-9444052D01*
X14021731Y-9442295D01*
X14021731Y-9442295D01*
X14021731Y-9442295D01*
X14031737Y-9437197D01*
X14039677Y-9429257D01*
X14044775Y-9419251D01*
X14044775Y-9419251D01*
X14044775Y-9419251D01*
X14046532Y-9408160D01*
X14046532Y-9408160D01*
X14044775Y-9397069D01*
X14039677Y-9387063D01*
X14031736Y-9379123D01*
X14023920Y-9375140D01*
X14160168Y-9375140D01*
X14161925Y-9386231D01*
X14167023Y-9396237D01*
X14174963Y-9404177D01*
X14184969Y-9409275D01*
X14196060Y-9411032D01*
X14196060Y-9411032D01*
X14196060Y-9411032D01*
X14207151Y-9409275D01*
X14207151Y-9409275D01*
X14207151Y-9409275D01*
X14217157Y-9404177D01*
X14225097Y-9396237D01*
X14230195Y-9386231D01*
X14230195Y-9386231D01*
X14230195Y-9386231D01*
X14231952Y-9375140D01*
X14231952Y-9375140D01*
X14230195Y-9364049D01*
X14225097Y-9354043D01*
X14217156Y-9346103D01*
X14207151Y-9341005D01*
X14196060Y-9339248D01*
X14196060Y-9339248D01*
X14184969Y-9341005D01*
X14174963Y-9346103D01*
X14167023Y-9354043D01*
X14161925Y-9364049D01*
X14160168Y-9375140D01*
X14160168Y-9375140D01*
X14023920Y-9375140D01*
X14021731Y-9374025D01*
X14010640Y-9372268D01*
X14010640Y-9372268D01*
X13999549Y-9374025D01*
X13989543Y-9379123D01*
X13981603Y-9387063D01*
X13976505Y-9397069D01*
X13974748Y-9408160D01*
X13974748Y-9408160D01*
X12532558Y-9408160D01*
X12534112Y-9405742D01*
X12538537Y-9401317D01*
X12543635Y-9391311D01*
X12543635Y-9391311D01*
X12543635Y-9391311D01*
X12545392Y-9380220D01*
X12545392Y-9380220D01*
X12543635Y-9369129D01*
X12538537Y-9359123D01*
X12530596Y-9351183D01*
X12520591Y-9346085D01*
X12509500Y-9344328D01*
X12509500Y-9344328D01*
X12498409Y-9346085D01*
X12488403Y-9351183D01*
X12480463Y-9359123D01*
X12475365Y-9369129D01*
X12473608Y-9380220D01*
X12473608Y-9380220D01*
X12360903Y-9380220D01*
X12362512Y-9370060D01*
X12362512Y-9370060D01*
X12360755Y-9358969D01*
X12355657Y-9348963D01*
X12347716Y-9341023D01*
X12337711Y-9335925D01*
X12328717Y-9334500D01*
X13753768Y-9334500D01*
X13755525Y-9345591D01*
X13760623Y-9355597D01*
X13768563Y-9363537D01*
X13778569Y-9368635D01*
X13789660Y-9370392D01*
X13789660Y-9370392D01*
X13789660Y-9370392D01*
X13800751Y-9368635D01*
X13800751Y-9368635D01*
X13800751Y-9368635D01*
X13810757Y-9363537D01*
X13818697Y-9355597D01*
X13823795Y-9345591D01*
X13823795Y-9345591D01*
X13823795Y-9345591D01*
X13825552Y-9334500D01*
X13825552Y-9334500D01*
X13823795Y-9323409D01*
X13818697Y-9313403D01*
X13810756Y-9305463D01*
X13800751Y-9300365D01*
X13789660Y-9298608D01*
X13789660Y-9298608D01*
X13778569Y-9300365D01*
X13768563Y-9305463D01*
X13760623Y-9313403D01*
X13755525Y-9323409D01*
X13753768Y-9334500D01*
X13753768Y-9334500D01*
X12328717Y-9334500D01*
X12326620Y-9334168D01*
X12326620Y-9334168D01*
X12326620Y-9334168D01*
X12325716Y-9334311D01*
X12322705Y-9334788D01*
X12315776Y-9333893D01*
X12310431Y-9329393D01*
X12308367Y-9322718D01*
X12310239Y-9315986D01*
X12311997Y-9313773D01*
X12599092Y-9026678D01*
X12605224Y-9023330D01*
X12612193Y-9023828D01*
X12617787Y-9028015D01*
X12620228Y-9034562D01*
X12620260Y-9035446D01*
X12620260Y-9160965D01*
X12618291Y-9167668D01*
X12617892Y-9168253D01*
X12617622Y-9168624D01*
X12612525Y-9178629D01*
X12610768Y-9189720D01*
X12610768Y-9189720D01*
X12612525Y-9200811D01*
X12617623Y-9210817D01*
X12625563Y-9218757D01*
X12635569Y-9223855D01*
X12646660Y-9225612D01*
X12646660Y-9225612D01*
X12646660Y-9225612D01*
X12657751Y-9223855D01*
X12657751Y-9223855D01*
X12657751Y-9223855D01*
X12667757Y-9218757D01*
X12675697Y-9210817D01*
X12680795Y-9200811D01*
X12680795Y-9200811D01*
X12680795Y-9200811D01*
X12682552Y-9189720D01*
X12682552Y-9189720D01*
X12680795Y-9178629D01*
X12675697Y-9168624D01*
X12675428Y-9168253D01*
X12673080Y-9161673D01*
X12673060Y-9160965D01*
X12673060Y-9026770D01*
X12675028Y-9020066D01*
X12680309Y-9015491D01*
X12685460Y-9014370D01*
X12780224Y-9014370D01*
X12786928Y-9016339D01*
X12791504Y-9021619D01*
X12792498Y-9028535D01*
X12792472Y-9028710D01*
X12791108Y-9037320D01*
X12791108Y-9037320D01*
X12792865Y-9048411D01*
X12797963Y-9058417D01*
X12805903Y-9066357D01*
X12815909Y-9071455D01*
X12827000Y-9073212D01*
X12827000Y-9073212D01*
X12827000Y-9073212D01*
X12838091Y-9071455D01*
X12838091Y-9071455D01*
X12838091Y-9071455D01*
X12848097Y-9066357D01*
X12856037Y-9058417D01*
X12861135Y-9048411D01*
X12861135Y-9048411D01*
X12861135Y-9048411D01*
X12862892Y-9037320D01*
X12862892Y-9037320D01*
X12861528Y-9028710D01*
X12862424Y-9021781D01*
X12866923Y-9016435D01*
X12873598Y-9014371D01*
X12873775Y-9014370D01*
X13025640Y-9014370D01*
X13032344Y-9016339D01*
X13034408Y-9018002D01*
X13034503Y-9018097D01*
X13044509Y-9023195D01*
X13055600Y-9024952D01*
X13055600Y-9024952D01*
X13055600Y-9024952D01*
X13066691Y-9023195D01*
X13066691Y-9023195D01*
X13066691Y-9023195D01*
X13071693Y-9020647D01*
X13078559Y-9019357D01*
X13085033Y-9021985D01*
X13089059Y-9027696D01*
X13089358Y-9034676D01*
X13088370Y-9037325D01*
X13084965Y-9044009D01*
X13083210Y-9055087D01*
X13083208Y-9055100D01*
X13083487Y-9056863D01*
X13084614Y-9063977D01*
X13083718Y-9070906D01*
X13079219Y-9076251D01*
X13072544Y-9078315D01*
X13066737Y-9076965D01*
X13056531Y-9071765D01*
X13045440Y-9070008D01*
X13045440Y-9070008D01*
X13034349Y-9071765D01*
X13024343Y-9076863D01*
X13016403Y-9084803D01*
X13011305Y-9094809D01*
X13009395Y-9106864D01*
X13009069Y-9106812D01*
X13007580Y-9111884D01*
X13002299Y-9116459D01*
X12995383Y-9117454D01*
X12995208Y-9117427D01*
X12984480Y-9115728D01*
X12984480Y-9115728D01*
X12973389Y-9117485D01*
X12963383Y-9122583D01*
X12955443Y-9130523D01*
X12950345Y-9140529D01*
X12948588Y-9151620D01*
X12948588Y-9151620D01*
X12948789Y-9152889D01*
X12947894Y-9159819D01*
X12943394Y-9165164D01*
X12936719Y-9167228D01*
X12934602Y-9167076D01*
X12931140Y-9166528D01*
X12931140Y-9166528D01*
X12920049Y-9168285D01*
X12910043Y-9173383D01*
X12902103Y-9181323D01*
X12897005Y-9191329D01*
X12895248Y-9202420D01*
X12895248Y-9202420D01*
X12897005Y-9213511D01*
X12902103Y-9223517D01*
X12910043Y-9231457D01*
X12920049Y-9236555D01*
X12931140Y-9238312D01*
X12931140Y-9238312D01*
X12931140Y-9238312D01*
X12942231Y-9236555D01*
X12942231Y-9236555D01*
X12942231Y-9236555D01*
X12952237Y-9231457D01*
X12960177Y-9223517D01*
X12965275Y-9213511D01*
X12965275Y-9213511D01*
X12965275Y-9213511D01*
X12966404Y-9206385D01*
X12967032Y-9202420D01*
X12966831Y-9201151D01*
X12967726Y-9194222D01*
X12972225Y-9188876D01*
X12978900Y-9186812D01*
X12981018Y-9186964D01*
X12984480Y-9187512D01*
X12984480Y-9187512D01*
X12984480Y-9187512D01*
X12995571Y-9185755D01*
X12995571Y-9185755D01*
X12995571Y-9185755D01*
X13005577Y-9180657D01*
X13013517Y-9172717D01*
X13018615Y-9162711D01*
X13018615Y-9162711D01*
X13018615Y-9162711D01*
X13020525Y-9150656D01*
X13020851Y-9150708D01*
X13022340Y-9145636D01*
X13027621Y-9141061D01*
X13034537Y-9140066D01*
X13034712Y-9140093D01*
X13045440Y-9141792D01*
X13045440Y-9141792D01*
X13045440Y-9141792D01*
X13056531Y-9140035D01*
X13056531Y-9140035D01*
X13056531Y-9140035D01*
X13066537Y-9134937D01*
X13074477Y-9126997D01*
X13079575Y-9116991D01*
X13079575Y-9116991D01*
X13079575Y-9116991D01*
X13081332Y-9105900D01*
X13081332Y-9105900D01*
X13080527Y-9100820D01*
X13079926Y-9097023D01*
X13080821Y-9090094D01*
X13085321Y-9084749D01*
X13091996Y-9082685D01*
X13097803Y-9084035D01*
X13108009Y-9089235D01*
X13119100Y-9090992D01*
X13119100Y-9090992D01*
X13119100Y-9090992D01*
X13130191Y-9089235D01*
X13130191Y-9089235D01*
X13130191Y-9089235D01*
X13140197Y-9084137D01*
X13148137Y-9076197D01*
X13153235Y-9066191D01*
X13153235Y-9066191D01*
X13153537Y-9065263D01*
X13153727Y-9065324D01*
X13156187Y-9060135D01*
X13162118Y-9056442D01*
X13169105Y-9056542D01*
X13174210Y-9059620D01*
X13180410Y-9065820D01*
X13183758Y-9071952D01*
X13183260Y-9078922D01*
X13180410Y-9083356D01*
X13173883Y-9089883D01*
X13168785Y-9099889D01*
X13167028Y-9110980D01*
X13167028Y-9110980D01*
X13168785Y-9122071D01*
X13173883Y-9132077D01*
X13181823Y-9140017D01*
X13191829Y-9145115D01*
X13202920Y-9146872D01*
X13202920Y-9146872D01*
X13202920Y-9146872D01*
X13214010Y-9145115D01*
X13214010Y-9145115D01*
X13214011Y-9145115D01*
X13214012Y-9145115D01*
X13214171Y-9145063D01*
X13214377Y-9145057D01*
X13214975Y-9144963D01*
X13214987Y-9145040D01*
X13221155Y-9144863D01*
X13227139Y-9148470D01*
X13230222Y-9154740D01*
X13229855Y-9159878D01*
X13229897Y-9159885D01*
X13229819Y-9160379D01*
X13229797Y-9160688D01*
X13229745Y-9160849D01*
X13227988Y-9171940D01*
X13227988Y-9171940D01*
X13229745Y-9183031D01*
X13234843Y-9193037D01*
X13242783Y-9200977D01*
X13252789Y-9206075D01*
X13263880Y-9207832D01*
X13263880Y-9207832D01*
X13263880Y-9207832D01*
X13274971Y-9206075D01*
X13274971Y-9206075D01*
X13274971Y-9206075D01*
X13284977Y-9200977D01*
X13292917Y-9193037D01*
X13298015Y-9183031D01*
X13298015Y-9183031D01*
X13298015Y-9183031D01*
X13299772Y-9171940D01*
X13299772Y-9171940D01*
X13298015Y-9160849D01*
X13292917Y-9150843D01*
X13284976Y-9142903D01*
X13274971Y-9137805D01*
X13263880Y-9136048D01*
X13263880Y-9136048D01*
X13252789Y-9137805D01*
X13252628Y-9137857D01*
X13252421Y-9137863D01*
X13251825Y-9137957D01*
X13251813Y-9137880D01*
X13245644Y-9138057D01*
X13239660Y-9134449D01*
X13236577Y-9128178D01*
X13236945Y-9123042D01*
X13236903Y-9123035D01*
X13236981Y-9122539D01*
X13237003Y-9122231D01*
X13237055Y-9122072D01*
X13237055Y-9122071D01*
X13237417Y-9119788D01*
X13238812Y-9110980D01*
X13238812Y-9110980D01*
X13237448Y-9102370D01*
X13238344Y-9095441D01*
X13242843Y-9090095D01*
X13249518Y-9088031D01*
X13249695Y-9088030D01*
X13600381Y-9088030D01*
X13607085Y-9089999D01*
X13611661Y-9095279D01*
X13612655Y-9102195D01*
X13612174Y-9104263D01*
X13611945Y-9104969D01*
X13610188Y-9116060D01*
X13610188Y-9116060D01*
X13611945Y-9127151D01*
X13617043Y-9137157D01*
X13624983Y-9145097D01*
X13634989Y-9150195D01*
X13646080Y-9151952D01*
X13646080Y-9151952D01*
X13646080Y-9151952D01*
X13657171Y-9150195D01*
X13657171Y-9150195D01*
X13657171Y-9150195D01*
X13667177Y-9145097D01*
X13675117Y-9137157D01*
X13680215Y-9127151D01*
X13680215Y-9127151D01*
X13680215Y-9127151D01*
X13681972Y-9116060D01*
X13681972Y-9116060D01*
X13680215Y-9104969D01*
X13679986Y-9104263D01*
X13679786Y-9097279D01*
X13683393Y-9091295D01*
X13689663Y-9088212D01*
X13691778Y-9088030D01*
X13758470Y-9088030D01*
X13765174Y-9089999D01*
X13767238Y-9091662D01*
X13788436Y-9112860D01*
X13788899Y-9113378D01*
X13791339Y-9116437D01*
X13791339Y-9116437D01*
X13796254Y-9119788D01*
X13801038Y-9123319D01*
X13801792Y-9123718D01*
X13802558Y-9124087D01*
X13802559Y-9124087D01*
X13808244Y-9125841D01*
X13808244Y-9125841D01*
X13813856Y-9127805D01*
X13813856Y-9127805D01*
X13813857Y-9127805D01*
X13813857Y-9127805D01*
X13814694Y-9127963D01*
X13815536Y-9128090D01*
X13815536Y-9128090D01*
X13821484Y-9128090D01*
X13827427Y-9128312D01*
X13827427Y-9128312D01*
X13827428Y-9128312D01*
X13827428Y-9128312D01*
X13828351Y-9128208D01*
X13828360Y-9128291D01*
X13829890Y-9128090D01*
X14134163Y-9128090D01*
X14140867Y-9130059D01*
X14142931Y-9131722D01*
X14510598Y-9499388D01*
X14513947Y-9505521D01*
X14514230Y-9508157D01*
X14514230Y-10070440D01*
X14512261Y-10077144D01*
X14506981Y-10081719D01*
X14500065Y-10082714D01*
X14493710Y-10079811D01*
X14493062Y-10079208D01*
X14488936Y-10075083D01*
X14478931Y-10069985D01*
X14467840Y-10068228D01*
X14467840Y-10068228D01*
X14456749Y-10069985D01*
X14446743Y-10075083D01*
X14438803Y-10083023D01*
X14433705Y-10093029D01*
X14431948Y-10104120D01*
X14431948Y-10104120D01*
X14433705Y-10115211D01*
X14438803Y-10125217D01*
X14446743Y-10133157D01*
X14456749Y-10138255D01*
X14467840Y-10140012D01*
X14467840Y-10140012D01*
X14467840Y-10140012D01*
X14478931Y-10138255D01*
X14478931Y-10138255D01*
X14478931Y-10138255D01*
X14488937Y-10133157D01*
X14493062Y-10129032D01*
X14499194Y-10125683D01*
X14506163Y-10126182D01*
X14511757Y-10130369D01*
X14514198Y-10136915D01*
X14514230Y-10137800D01*
X14514230Y-10209863D01*
X14512261Y-10216567D01*
X14510598Y-10218632D01*
X14465960Y-10263269D01*
X14465442Y-10263733D01*
X14462383Y-10266172D01*
X14462383Y-10266172D01*
X14459032Y-10271087D01*
X14455501Y-10275872D01*
X14455102Y-10276627D01*
X14454733Y-10277393D01*
X14452979Y-10283078D01*
X14451015Y-10288690D01*
X14450857Y-10289526D01*
X14450730Y-10290370D01*
X14450730Y-10296317D01*
X14450507Y-10302261D01*
X14450612Y-10303184D01*
X14450528Y-10303194D01*
X14450730Y-10304724D01*
X14450730Y-10418742D01*
X14450691Y-10419436D01*
X14450571Y-10420505D01*
X14450253Y-10423323D01*
X14451359Y-10429168D01*
X14452245Y-10435049D01*
X14452496Y-10435863D01*
X14452778Y-10436668D01*
X14455558Y-10441927D01*
X14458138Y-10447284D01*
X14458616Y-10447987D01*
X14459123Y-10448673D01*
X14459123Y-10448674D01*
X14463329Y-10452880D01*
X14466539Y-10456339D01*
X14467375Y-10457240D01*
X14468101Y-10457819D01*
X14468049Y-10457884D01*
X14469273Y-10458823D01*
X14514296Y-10503847D01*
X14514297Y-10503847D01*
X14515003Y-10504554D01*
X14515003Y-10504554D01*
X14519209Y-10508760D01*
X14523254Y-10513119D01*
X14523255Y-10513120D01*
X14523981Y-10513699D01*
X14523929Y-10513764D01*
X14525153Y-10514704D01*
X14527405Y-10516955D01*
X14531513Y-10521063D01*
X14531513Y-10521064D01*
X14531513Y-10521064D01*
X14617842Y-10607393D01*
X14683932Y-10673482D01*
X14687280Y-10679614D01*
X14686782Y-10686583D01*
X14682594Y-10692177D01*
X14676048Y-10694618D01*
X14675163Y-10694650D01*
X14136617Y-10694650D01*
X14129913Y-10692682D01*
X14127848Y-10691018D01*
X14056571Y-10619740D01*
X14228748Y-10619740D01*
X14230505Y-10630831D01*
X14235603Y-10640837D01*
X14243543Y-10648777D01*
X14253549Y-10653875D01*
X14264640Y-10655632D01*
X14264640Y-10655632D01*
X14264640Y-10655632D01*
X14275731Y-10653875D01*
X14275731Y-10653875D01*
X14275731Y-10653875D01*
X14285737Y-10648777D01*
X14293677Y-10640837D01*
X14298775Y-10630831D01*
X14298775Y-10630831D01*
X14298775Y-10630831D01*
X14300532Y-10619740D01*
X14300532Y-10619740D01*
X14298775Y-10608649D01*
X14293677Y-10598643D01*
X14285736Y-10590703D01*
X14275731Y-10585605D01*
X14264640Y-10583848D01*
X14264640Y-10583848D01*
X14253549Y-10585605D01*
X14243543Y-10590703D01*
X14235603Y-10598643D01*
X14230505Y-10608649D01*
X14228748Y-10619740D01*
X14228748Y-10619740D01*
X14056571Y-10619740D01*
X14013391Y-10576560D01*
X14388768Y-10576560D01*
X14390525Y-10587651D01*
X14395623Y-10597657D01*
X14403563Y-10605597D01*
X14413569Y-10610695D01*
X14424660Y-10612452D01*
X14424660Y-10612452D01*
X14424660Y-10612452D01*
X14435751Y-10610695D01*
X14435751Y-10610695D01*
X14435751Y-10610695D01*
X14445757Y-10605597D01*
X14453697Y-10597657D01*
X14458795Y-10587651D01*
X14458795Y-10587651D01*
X14458795Y-10587651D01*
X14460552Y-10576560D01*
X14460552Y-10576560D01*
X14458795Y-10565469D01*
X14453697Y-10555463D01*
X14445756Y-10547523D01*
X14435751Y-10542425D01*
X14424660Y-10540668D01*
X14424660Y-10540668D01*
X14413569Y-10542425D01*
X14403563Y-10547523D01*
X14395623Y-10555463D01*
X14390525Y-10565469D01*
X14388768Y-10576560D01*
X14388768Y-10576560D01*
X14013391Y-10576560D01*
X14005982Y-10569152D01*
X14002633Y-10563019D01*
X14002350Y-10560383D01*
X14002350Y-10532544D01*
X14002350Y-10532543D01*
X14000835Y-10522491D01*
X13994942Y-10510256D01*
X13991813Y-10506883D01*
X13985705Y-10500301D01*
X13985705Y-10500301D01*
X13985705Y-10500300D01*
X13978717Y-10496266D01*
X13973944Y-10493510D01*
X13973944Y-10493510D01*
X13973944Y-10493510D01*
X13960704Y-10490488D01*
X13947162Y-10491503D01*
X13934520Y-10496465D01*
X13923903Y-10504932D01*
X13923903Y-10504932D01*
X13916253Y-10516152D01*
X13916253Y-10516153D01*
X13912250Y-10529130D01*
X13912250Y-10581302D01*
X13912211Y-10581996D01*
X13912072Y-10583225D01*
X13911773Y-10585883D01*
X13912879Y-10591728D01*
X13913765Y-10597609D01*
X13914016Y-10598423D01*
X13914298Y-10599228D01*
X13917078Y-10604487D01*
X13919658Y-10609844D01*
X13920136Y-10610547D01*
X13920643Y-10611233D01*
X13920643Y-10611234D01*
X13924849Y-10615440D01*
X13926953Y-10617707D01*
X13928895Y-10619800D01*
X13929621Y-10620379D01*
X13929569Y-10620444D01*
X13930793Y-10621383D01*
X14078929Y-10769519D01*
X14079393Y-10770038D01*
X14081832Y-10773097D01*
X14081832Y-10773097D01*
X14086747Y-10776448D01*
X14091532Y-10779979D01*
X14092285Y-10780378D01*
X14093052Y-10780747D01*
X14093053Y-10780747D01*
X14098738Y-10782501D01*
X14104350Y-10784465D01*
X14104350Y-10784465D01*
X14104350Y-10784465D01*
X14104350Y-10784465D01*
X14105188Y-10784623D01*
X14106030Y-10784750D01*
X14106030Y-10784750D01*
X14111977Y-10784750D01*
X14117921Y-10784972D01*
X14117921Y-10784972D01*
X14117921Y-10784972D01*
X14117921Y-10784972D01*
X14118844Y-10784868D01*
X14118854Y-10784951D01*
X14120384Y-10784750D01*
X14227863Y-10784750D01*
X14234567Y-10786719D01*
X14239142Y-10791999D01*
X14240137Y-10798915D01*
X14238912Y-10802779D01*
X14235585Y-10809309D01*
X14233828Y-10820400D01*
X14233828Y-10820400D01*
X14235585Y-10831491D01*
X14240683Y-10841497D01*
X14247968Y-10848782D01*
X14251316Y-10854914D01*
X14250818Y-10861883D01*
X14246631Y-10867477D01*
X14240084Y-10869918D01*
X14239200Y-10869950D01*
X13570775Y-10869950D01*
X13564071Y-10867982D01*
X13563572Y-10867405D01*
X13558014Y-10869848D01*
X13556425Y-10869950D01*
X13427322Y-10869950D01*
X13420618Y-10867982D01*
X13416043Y-10862701D01*
X13415048Y-10855785D01*
X13417951Y-10849430D01*
X13419576Y-10847867D01*
X13429273Y-10840109D01*
X13466610Y-10810240D01*
X13527708Y-10810240D01*
X13529465Y-10821331D01*
X13534563Y-10831337D01*
X13542503Y-10839277D01*
X13552509Y-10844375D01*
X13558364Y-10845303D01*
X13563809Y-10847884D01*
X13567282Y-10845652D01*
X13568836Y-10845303D01*
X13574691Y-10844375D01*
X13574691Y-10844375D01*
X13574691Y-10844375D01*
X13584697Y-10839277D01*
X13592637Y-10831337D01*
X13597735Y-10821331D01*
X13597735Y-10821331D01*
X13597735Y-10821331D01*
X13599492Y-10810240D01*
X13599492Y-10810240D01*
X13599090Y-10807700D01*
X13697888Y-10807700D01*
X13699645Y-10818791D01*
X13704743Y-10828797D01*
X13712683Y-10836737D01*
X13722689Y-10841835D01*
X13733780Y-10843592D01*
X13733780Y-10843592D01*
X13733780Y-10843592D01*
X13744871Y-10841835D01*
X13744871Y-10841835D01*
X13744871Y-10841835D01*
X13754877Y-10836737D01*
X13762817Y-10828797D01*
X13767915Y-10818791D01*
X13767915Y-10818791D01*
X13767915Y-10818791D01*
X13769672Y-10807700D01*
X13769672Y-10807700D01*
X13767915Y-10796609D01*
X13762817Y-10786603D01*
X13754876Y-10778663D01*
X13744871Y-10773565D01*
X13733780Y-10771808D01*
X13733780Y-10771808D01*
X13722689Y-10773565D01*
X13712683Y-10778663D01*
X13704743Y-10786603D01*
X13699645Y-10796609D01*
X13697888Y-10807700D01*
X13697888Y-10807700D01*
X13599090Y-10807700D01*
X13597735Y-10799149D01*
X13592637Y-10789143D01*
X13584696Y-10781203D01*
X13574691Y-10776105D01*
X13563600Y-10774348D01*
X13563600Y-10774348D01*
X13552509Y-10776105D01*
X13542503Y-10781203D01*
X13534563Y-10789143D01*
X13529465Y-10799149D01*
X13527708Y-10810240D01*
X13527708Y-10810240D01*
X13466610Y-10810240D01*
X13484860Y-10795640D01*
X13484860Y-10652760D01*
X13692808Y-10652760D01*
X13694565Y-10663851D01*
X13699663Y-10673857D01*
X13707603Y-10681797D01*
X13717609Y-10686895D01*
X13728700Y-10688652D01*
X13728700Y-10688652D01*
X13728700Y-10688652D01*
X13739791Y-10686895D01*
X13739791Y-10686895D01*
X13739791Y-10686895D01*
X13749797Y-10681797D01*
X13750894Y-10680700D01*
X13860448Y-10680700D01*
X13862205Y-10691791D01*
X13867303Y-10701797D01*
X13875243Y-10709737D01*
X13885249Y-10714835D01*
X13896340Y-10716592D01*
X13896340Y-10716592D01*
X13896340Y-10716592D01*
X13907431Y-10714835D01*
X13907431Y-10714835D01*
X13907431Y-10714835D01*
X13917437Y-10709737D01*
X13925377Y-10701797D01*
X13930475Y-10691791D01*
X13930475Y-10691791D01*
X13930475Y-10691791D01*
X13932232Y-10680700D01*
X13932232Y-10680700D01*
X13930475Y-10669609D01*
X13925377Y-10659603D01*
X13917436Y-10651663D01*
X13907431Y-10646565D01*
X13896340Y-10644808D01*
X13896340Y-10644808D01*
X13885249Y-10646565D01*
X13875243Y-10651663D01*
X13867303Y-10659603D01*
X13862205Y-10669609D01*
X13860448Y-10680700D01*
X13860448Y-10680700D01*
X13750894Y-10680700D01*
X13757737Y-10673857D01*
X13762835Y-10663851D01*
X13762835Y-10663851D01*
X13762835Y-10663851D01*
X13764592Y-10652760D01*
X13764592Y-10652760D01*
X13762835Y-10641669D01*
X13757737Y-10631663D01*
X13749796Y-10623723D01*
X13739791Y-10618625D01*
X13728700Y-10616868D01*
X13728700Y-10616868D01*
X13717609Y-10618625D01*
X13707603Y-10623723D01*
X13699663Y-10631663D01*
X13694565Y-10641669D01*
X13692808Y-10652760D01*
X13692808Y-10652760D01*
X13484860Y-10652760D01*
X13484860Y-10431780D01*
X14203348Y-10431780D01*
X14205105Y-10442871D01*
X14210203Y-10452877D01*
X14218143Y-10460817D01*
X14228149Y-10465915D01*
X14239240Y-10467672D01*
X14239240Y-10467672D01*
X14239240Y-10467672D01*
X14250331Y-10465915D01*
X14250331Y-10465915D01*
X14250331Y-10465915D01*
X14260337Y-10460817D01*
X14266514Y-10454640D01*
X14335428Y-10454640D01*
X14337185Y-10465731D01*
X14342283Y-10475737D01*
X14350223Y-10483677D01*
X14360229Y-10488775D01*
X14371320Y-10490532D01*
X14371320Y-10490532D01*
X14371320Y-10490532D01*
X14382411Y-10488775D01*
X14382411Y-10488775D01*
X14382411Y-10488775D01*
X14392417Y-10483677D01*
X14400357Y-10475737D01*
X14405455Y-10465731D01*
X14405455Y-10465731D01*
X14405455Y-10465731D01*
X14407212Y-10454640D01*
X14407212Y-10454640D01*
X14405455Y-10443549D01*
X14400357Y-10433543D01*
X14392416Y-10425603D01*
X14382411Y-10420505D01*
X14371320Y-10418748D01*
X14371320Y-10418748D01*
X14360229Y-10420505D01*
X14350223Y-10425603D01*
X14342283Y-10433543D01*
X14337185Y-10443549D01*
X14335428Y-10454640D01*
X14335428Y-10454640D01*
X14266514Y-10454640D01*
X14268277Y-10452877D01*
X14273375Y-10442871D01*
X14273375Y-10442871D01*
X14273375Y-10442871D01*
X14275132Y-10431780D01*
X14275132Y-10431780D01*
X14273375Y-10420689D01*
X14268277Y-10410683D01*
X14260336Y-10402743D01*
X14250331Y-10397645D01*
X14239240Y-10395888D01*
X14239240Y-10395888D01*
X14228149Y-10397645D01*
X14218143Y-10402743D01*
X14210203Y-10410683D01*
X14205105Y-10420689D01*
X14203348Y-10431780D01*
X14203348Y-10431780D01*
X13484860Y-10431780D01*
X13484860Y-10363200D01*
X13728368Y-10363200D01*
X13730125Y-10374291D01*
X13735223Y-10384297D01*
X13743163Y-10392237D01*
X13753169Y-10397335D01*
X13764260Y-10399092D01*
X13764260Y-10399092D01*
X13764260Y-10399092D01*
X13775351Y-10397335D01*
X13775351Y-10397335D01*
X13775351Y-10397335D01*
X13785357Y-10392237D01*
X13793297Y-10384297D01*
X13798395Y-10374291D01*
X13798395Y-10374291D01*
X13798395Y-10374291D01*
X13800152Y-10363200D01*
X13800152Y-10363200D01*
X13798395Y-10352109D01*
X13794987Y-10345420D01*
X14095108Y-10345420D01*
X14096865Y-10356511D01*
X14101963Y-10366517D01*
X14109903Y-10374457D01*
X14119909Y-10379555D01*
X14131000Y-10381312D01*
X14131000Y-10381312D01*
X14131000Y-10381312D01*
X14142091Y-10379555D01*
X14142091Y-10379555D01*
X14142091Y-10379555D01*
X14152097Y-10374457D01*
X14160037Y-10366517D01*
X14165135Y-10356511D01*
X14165135Y-10356511D01*
X14165135Y-10356511D01*
X14166892Y-10345420D01*
X14166892Y-10345420D01*
X14165135Y-10334329D01*
X14160037Y-10324323D01*
X14152096Y-10316383D01*
X14142091Y-10311285D01*
X14131000Y-10309528D01*
X14131000Y-10309528D01*
X14119909Y-10311285D01*
X14109903Y-10316383D01*
X14101963Y-10324323D01*
X14096865Y-10334329D01*
X14095108Y-10345420D01*
X14095108Y-10345420D01*
X13794987Y-10345420D01*
X13793297Y-10342103D01*
X13785356Y-10334163D01*
X13775351Y-10329065D01*
X13764260Y-10327308D01*
X13764260Y-10327308D01*
X13753169Y-10329065D01*
X13743163Y-10334163D01*
X13735223Y-10342103D01*
X13730125Y-10352109D01*
X13728368Y-10363200D01*
X13728368Y-10363200D01*
X13484860Y-10363200D01*
X13484860Y-10350640D01*
X13483550Y-10349733D01*
X13468860Y-10339563D01*
X13455076Y-10330021D01*
X13450685Y-10324586D01*
X13449929Y-10317640D01*
X13453048Y-10311388D01*
X13459052Y-10307815D01*
X13464074Y-10307578D01*
X13464540Y-10307652D01*
X13464540Y-10307652D01*
X13464540Y-10307652D01*
X13475631Y-10305895D01*
X13475631Y-10305895D01*
X13475631Y-10305895D01*
X13485637Y-10300797D01*
X13493577Y-10292857D01*
X13498675Y-10282851D01*
X13498675Y-10282851D01*
X13498675Y-10282851D01*
X13500432Y-10271760D01*
X13500432Y-10271760D01*
X13498675Y-10260669D01*
X13493577Y-10250663D01*
X13485636Y-10242723D01*
X13475631Y-10237625D01*
X13464540Y-10235868D01*
X13464540Y-10235868D01*
X13453449Y-10237625D01*
X13443443Y-10242723D01*
X13435503Y-10250663D01*
X13430405Y-10260669D01*
X13428648Y-10271760D01*
X13428648Y-10271760D01*
X13430405Y-10282851D01*
X13431766Y-10285523D01*
X13433055Y-10292389D01*
X13430428Y-10298863D01*
X13424717Y-10302889D01*
X13417737Y-10303188D01*
X13413659Y-10301347D01*
X13360202Y-10264338D01*
X13355810Y-10258904D01*
X13354860Y-10254143D01*
X13354860Y-10121900D01*
X13418488Y-10121900D01*
X13420245Y-10132991D01*
X13425343Y-10142997D01*
X13433283Y-10150937D01*
X13443289Y-10156035D01*
X13454380Y-10157792D01*
X13454380Y-10157792D01*
X13454380Y-10157792D01*
X13465471Y-10156035D01*
X13465471Y-10156035D01*
X13465471Y-10156035D01*
X13475477Y-10150937D01*
X13483417Y-10142997D01*
X13488515Y-10132991D01*
X13488515Y-10132991D01*
X13488515Y-10132991D01*
X13490272Y-10121900D01*
X13490272Y-10121900D01*
X13488515Y-10110809D01*
X13483417Y-10100803D01*
X13475476Y-10092863D01*
X13465471Y-10087765D01*
X13454380Y-10086008D01*
X13454380Y-10086008D01*
X13443289Y-10087765D01*
X13433283Y-10092863D01*
X13425343Y-10100803D01*
X13420245Y-10110809D01*
X13418488Y-10121900D01*
X13418488Y-10121900D01*
X13354860Y-10121900D01*
X13354860Y-10070640D01*
X13353386Y-10069985D01*
X13316586Y-10053629D01*
X13311259Y-10049108D01*
X13309223Y-10042424D01*
X13310421Y-10037321D01*
X13310414Y-10037319D01*
X13310440Y-10037236D01*
X13310574Y-10036669D01*
X13310715Y-10036391D01*
X13311883Y-10029017D01*
X13312472Y-10025300D01*
X13312472Y-10025300D01*
X13310715Y-10014209D01*
X13309936Y-10012680D01*
X14114448Y-10012680D01*
X14116205Y-10023771D01*
X14121303Y-10033777D01*
X14129243Y-10041717D01*
X14139249Y-10046815D01*
X14150340Y-10048572D01*
X14150340Y-10048572D01*
X14150340Y-10048572D01*
X14161431Y-10046815D01*
X14161431Y-10046815D01*
X14161431Y-10046815D01*
X14171437Y-10041717D01*
X14179377Y-10033777D01*
X14184475Y-10023771D01*
X14184475Y-10023771D01*
X14184475Y-10023771D01*
X14186232Y-10012680D01*
X14186232Y-10012680D01*
X14184475Y-10001589D01*
X14179377Y-9991583D01*
X14171436Y-9983643D01*
X14161431Y-9978545D01*
X14150340Y-9976788D01*
X14150340Y-9976788D01*
X14139249Y-9978545D01*
X14129243Y-9983643D01*
X14121303Y-9991583D01*
X14116205Y-10001589D01*
X14114448Y-10012680D01*
X14114448Y-10012680D01*
X13309936Y-10012680D01*
X13305617Y-10004203D01*
X13297676Y-9996263D01*
X13287671Y-9991165D01*
X13276580Y-9989408D01*
X13276580Y-9989408D01*
X13265489Y-9991165D01*
X13255483Y-9996263D01*
X13247543Y-10004203D01*
X13242445Y-10014209D01*
X13240688Y-10025300D01*
X13240688Y-10025300D01*
X13242445Y-10036391D01*
X13247543Y-10046397D01*
X13256173Y-10055027D01*
X13255901Y-10055299D01*
X13259013Y-10059331D01*
X13259860Y-10063835D01*
X13259860Y-10195032D01*
X13257891Y-10201736D01*
X13252611Y-10206311D01*
X13251148Y-10206752D01*
X13251177Y-10206843D01*
X13250249Y-10207145D01*
X13240243Y-10212243D01*
X13232303Y-10220183D01*
X13227205Y-10230189D01*
X13225448Y-10241280D01*
X13225448Y-10241280D01*
X13227205Y-10252371D01*
X13232303Y-10262377D01*
X13234899Y-10264973D01*
X13238247Y-10271105D01*
X13237749Y-10278074D01*
X13235217Y-10282178D01*
X13194860Y-10325640D01*
X13194860Y-10341689D01*
X13192891Y-10348393D01*
X13189749Y-10351721D01*
X13189443Y-10351943D01*
X13181502Y-10359884D01*
X13176405Y-10369889D01*
X13174648Y-10380980D01*
X13174648Y-10380980D01*
X13176405Y-10392071D01*
X13181503Y-10402077D01*
X13181503Y-10402077D01*
X13189443Y-10410017D01*
X13189443Y-10410017D01*
X13189749Y-10410239D01*
X13190030Y-10410604D01*
X13190133Y-10410707D01*
X13190120Y-10410721D01*
X13194015Y-10415772D01*
X13194860Y-10420271D01*
X13194860Y-10584418D01*
X13192891Y-10591122D01*
X13187611Y-10595697D01*
X13184400Y-10596665D01*
X13174049Y-10598305D01*
X13164043Y-10603403D01*
X13156103Y-10611343D01*
X13151005Y-10621349D01*
X13149248Y-10632440D01*
X13149248Y-10632440D01*
X13151005Y-10643531D01*
X13156103Y-10653537D01*
X13164043Y-10661477D01*
X13168702Y-10663851D01*
X13174049Y-10666575D01*
X13184400Y-10668215D01*
X13190713Y-10671207D01*
X13194406Y-10677139D01*
X13194860Y-10680462D01*
X13194860Y-10765640D01*
X13278002Y-10848782D01*
X13281350Y-10854914D01*
X13280852Y-10861883D01*
X13276665Y-10867477D01*
X13270118Y-10869918D01*
X13269234Y-10869950D01*
X12500000Y-10869950D01*
X12439291Y-10868042D01*
X12438902Y-10868018D01*
X12378626Y-10862320D01*
X12378239Y-10862271D01*
X12348341Y-10857536D01*
X12318441Y-10852800D01*
X12318060Y-10852727D01*
X12258972Y-10839519D01*
X12258595Y-10839423D01*
X12200457Y-10822532D01*
X12200086Y-10822411D01*
X12143121Y-10801903D01*
X12142759Y-10801759D01*
X12095036Y-10781108D01*
X12093388Y-10780243D01*
X12076360Y-10769600D01*
X12704748Y-10769600D01*
X12706505Y-10780691D01*
X12711603Y-10790697D01*
X12719543Y-10798637D01*
X12729549Y-10803735D01*
X12740640Y-10805492D01*
X12740640Y-10805492D01*
X12740640Y-10805492D01*
X12751731Y-10803735D01*
X12751731Y-10803735D01*
X12751731Y-10803735D01*
X12761737Y-10798637D01*
X12769677Y-10790697D01*
X12774775Y-10780691D01*
X12774775Y-10780691D01*
X12774775Y-10780691D01*
X12776532Y-10769600D01*
X12776532Y-10769600D01*
X12776130Y-10767060D01*
X12907948Y-10767060D01*
X12909705Y-10778151D01*
X12914803Y-10788157D01*
X12922743Y-10796097D01*
X12932749Y-10801195D01*
X12943840Y-10802952D01*
X12943840Y-10802952D01*
X12943840Y-10802952D01*
X12954931Y-10801195D01*
X12954931Y-10801195D01*
X12954931Y-10801195D01*
X12964937Y-10796097D01*
X12972877Y-10788157D01*
X12977975Y-10778151D01*
X12977975Y-10778151D01*
X12977975Y-10778151D01*
X12978927Y-10772140D01*
X13057808Y-10772140D01*
X13059565Y-10783231D01*
X13064663Y-10793237D01*
X13072603Y-10801177D01*
X13082609Y-10806275D01*
X13093700Y-10808032D01*
X13093700Y-10808032D01*
X13093700Y-10808032D01*
X13104791Y-10806275D01*
X13104791Y-10806275D01*
X13104791Y-10806275D01*
X13114797Y-10801177D01*
X13122737Y-10793237D01*
X13127835Y-10783231D01*
X13127835Y-10783231D01*
X13127835Y-10783231D01*
X13129592Y-10772140D01*
X13129592Y-10772140D01*
X13127835Y-10761049D01*
X13122737Y-10751043D01*
X13114796Y-10743103D01*
X13104791Y-10738005D01*
X13093700Y-10736248D01*
X13093700Y-10736248D01*
X13082609Y-10738005D01*
X13072603Y-10743103D01*
X13064663Y-10751043D01*
X13059565Y-10761049D01*
X13057808Y-10772140D01*
X13057808Y-10772140D01*
X12978927Y-10772140D01*
X12979732Y-10767060D01*
X12979732Y-10767060D01*
X12977975Y-10755969D01*
X12972877Y-10745963D01*
X12964936Y-10738023D01*
X12954931Y-10732925D01*
X12943840Y-10731168D01*
X12943840Y-10731168D01*
X12932749Y-10732925D01*
X12922743Y-10738023D01*
X12914803Y-10745963D01*
X12909705Y-10755969D01*
X12907948Y-10767060D01*
X12907948Y-10767060D01*
X12776130Y-10767060D01*
X12774775Y-10758509D01*
X12769677Y-10748503D01*
X12761736Y-10740563D01*
X12751731Y-10735465D01*
X12740640Y-10733708D01*
X12740640Y-10733708D01*
X12729549Y-10735465D01*
X12719543Y-10740563D01*
X12711603Y-10748503D01*
X12706505Y-10758509D01*
X12704748Y-10769600D01*
X12704748Y-10769600D01*
X12076360Y-10769600D01*
X11885961Y-10650601D01*
X11885447Y-10650242D01*
X11881885Y-10647479D01*
X11881584Y-10647230D01*
X11836169Y-10607191D01*
X11835886Y-10606926D01*
X11793074Y-10564113D01*
X11792809Y-10563831D01*
X11752769Y-10518414D01*
X11752520Y-10518114D01*
X11747084Y-10511106D01*
X11715412Y-10470275D01*
X11715185Y-10469963D01*
X11706498Y-10457180D01*
X11952908Y-10457180D01*
X11954665Y-10468271D01*
X11959763Y-10478277D01*
X11967703Y-10486217D01*
X11977709Y-10491315D01*
X11988800Y-10493072D01*
X11988800Y-10493072D01*
X11988800Y-10493072D01*
X11999891Y-10491315D01*
X11999891Y-10491315D01*
X11999891Y-10491315D01*
X12009897Y-10486217D01*
X12017837Y-10478277D01*
X12022935Y-10468271D01*
X12022935Y-10468271D01*
X12022935Y-10468271D01*
X12024692Y-10457180D01*
X12024692Y-10457180D01*
X12023083Y-10447020D01*
X12953668Y-10447020D01*
X12955425Y-10458111D01*
X12960523Y-10468117D01*
X12968463Y-10476057D01*
X12978469Y-10481155D01*
X12989560Y-10482912D01*
X12989560Y-10482912D01*
X12989560Y-10482912D01*
X13000651Y-10481155D01*
X13000651Y-10481155D01*
X13000651Y-10481155D01*
X13010657Y-10476057D01*
X13018597Y-10468117D01*
X13023695Y-10458111D01*
X13023695Y-10458111D01*
X13023695Y-10458111D01*
X13025348Y-10447676D01*
X13028341Y-10441362D01*
X13034272Y-10437669D01*
X13041258Y-10437769D01*
X13043225Y-10438567D01*
X13046384Y-10440177D01*
X13047049Y-10440515D01*
X13058140Y-10442272D01*
X13058140Y-10442272D01*
X13058140Y-10442272D01*
X13069231Y-10440515D01*
X13069231Y-10440515D01*
X13069231Y-10440515D01*
X13079237Y-10435417D01*
X13087177Y-10427477D01*
X13092275Y-10417471D01*
X13092275Y-10417471D01*
X13092275Y-10417471D01*
X13094032Y-10406380D01*
X13094032Y-10406380D01*
X13092275Y-10395289D01*
X13087177Y-10385283D01*
X13079236Y-10377343D01*
X13069231Y-10372245D01*
X13058140Y-10370488D01*
X13058140Y-10370488D01*
X13047049Y-10372245D01*
X13037043Y-10377343D01*
X13029103Y-10385283D01*
X13024005Y-10395289D01*
X13022352Y-10405725D01*
X13019359Y-10412038D01*
X13013428Y-10415731D01*
X13006441Y-10415631D01*
X13004475Y-10414833D01*
X13000651Y-10412885D01*
X12989560Y-10411128D01*
X12989560Y-10411128D01*
X12978469Y-10412885D01*
X12968463Y-10417983D01*
X12960523Y-10425923D01*
X12955425Y-10435929D01*
X12953668Y-10447020D01*
X12953668Y-10447020D01*
X12023083Y-10447020D01*
X12022935Y-10446089D01*
X12017837Y-10436083D01*
X12009896Y-10428143D01*
X11999891Y-10423045D01*
X11988800Y-10421288D01*
X11988800Y-10421288D01*
X11977709Y-10423045D01*
X11967703Y-10428143D01*
X11959763Y-10436083D01*
X11954665Y-10446089D01*
X11952908Y-10457180D01*
X11952908Y-10457180D01*
X11706498Y-10457180D01*
X11681153Y-10419886D01*
X11680945Y-10419558D01*
X11658165Y-10381038D01*
X11650125Y-10367445D01*
X11649938Y-10367104D01*
X11646655Y-10360660D01*
X11940208Y-10360660D01*
X11941965Y-10371751D01*
X11947063Y-10381757D01*
X11955003Y-10389697D01*
X11965009Y-10394795D01*
X11976100Y-10396552D01*
X11976100Y-10396552D01*
X11976100Y-10396552D01*
X11987191Y-10394795D01*
X11987191Y-10394795D01*
X11987191Y-10394795D01*
X11997197Y-10389697D01*
X12005137Y-10381757D01*
X12010235Y-10371751D01*
X12010235Y-10371751D01*
X12010235Y-10371751D01*
X12010785Y-10368280D01*
X12778408Y-10368280D01*
X12780165Y-10379371D01*
X12785263Y-10389377D01*
X12793203Y-10397317D01*
X12803209Y-10402415D01*
X12814300Y-10404172D01*
X12814300Y-10404172D01*
X12814300Y-10404172D01*
X12825391Y-10402415D01*
X12825391Y-10402415D01*
X12825391Y-10402415D01*
X12835397Y-10397317D01*
X12843337Y-10389377D01*
X12848435Y-10379371D01*
X12848435Y-10379371D01*
X12848435Y-10379371D01*
X12850192Y-10368280D01*
X12850192Y-10368280D01*
X12848435Y-10357189D01*
X12843012Y-10346545D01*
X12841722Y-10339678D01*
X12844350Y-10333204D01*
X12850061Y-10329179D01*
X12856000Y-10328668D01*
X12867640Y-10330512D01*
X12867640Y-10330512D01*
X12867640Y-10330512D01*
X12878731Y-10328755D01*
X12878731Y-10328755D01*
X12878731Y-10328755D01*
X12888737Y-10323657D01*
X12896677Y-10315717D01*
X12901775Y-10305711D01*
X12901775Y-10305711D01*
X12901775Y-10305711D01*
X12903532Y-10294620D01*
X12903532Y-10294620D01*
X12901775Y-10283529D01*
X12896677Y-10273523D01*
X12888736Y-10265583D01*
X12878731Y-10260485D01*
X12867640Y-10258728D01*
X12867640Y-10258728D01*
X12856549Y-10260485D01*
X12846543Y-10265583D01*
X12838603Y-10273523D01*
X12833505Y-10283529D01*
X12831748Y-10294620D01*
X12831748Y-10294620D01*
X12833505Y-10305711D01*
X12838928Y-10316355D01*
X12840217Y-10323222D01*
X12837590Y-10329696D01*
X12831879Y-10333721D01*
X12825940Y-10334232D01*
X12814300Y-10332388D01*
X12814300Y-10332388D01*
X12803209Y-10334145D01*
X12793203Y-10339243D01*
X12785263Y-10347183D01*
X12780165Y-10357189D01*
X12778408Y-10368280D01*
X12778408Y-10368280D01*
X12010785Y-10368280D01*
X12011992Y-10360660D01*
X12011992Y-10360660D01*
X12010235Y-10349569D01*
X12005137Y-10339563D01*
X11997196Y-10331623D01*
X11987191Y-10326525D01*
X11976100Y-10324768D01*
X11976100Y-10324768D01*
X11965009Y-10326525D01*
X11955003Y-10331623D01*
X11947063Y-10339563D01*
X11941965Y-10349569D01*
X11940208Y-10360660D01*
X11940208Y-10360660D01*
X11646655Y-10360660D01*
X11622451Y-10313158D01*
X11622286Y-10312806D01*
X11598240Y-10257241D01*
X11598097Y-10256879D01*
X11590652Y-10236200D01*
X11937668Y-10236200D01*
X11939425Y-10247291D01*
X11944523Y-10257297D01*
X11952463Y-10265237D01*
X11962469Y-10270335D01*
X11973560Y-10272092D01*
X11973560Y-10272092D01*
X11973560Y-10272092D01*
X11984651Y-10270335D01*
X11984651Y-10270335D01*
X11984651Y-10270335D01*
X11994657Y-10265237D01*
X12002597Y-10257297D01*
X12004287Y-10253980D01*
X12389788Y-10253980D01*
X12391545Y-10265071D01*
X12396643Y-10275077D01*
X12404583Y-10283017D01*
X12414589Y-10288115D01*
X12425680Y-10289872D01*
X12425680Y-10289872D01*
X12425680Y-10289872D01*
X12436771Y-10288115D01*
X12436771Y-10288115D01*
X12436771Y-10288115D01*
X12446777Y-10283017D01*
X12454717Y-10275077D01*
X12459815Y-10265071D01*
X12459815Y-10265071D01*
X12459815Y-10265071D01*
X12461572Y-10253980D01*
X12461572Y-10253980D01*
X12459815Y-10242889D01*
X12456407Y-10236200D01*
X12631088Y-10236200D01*
X12632845Y-10247291D01*
X12637943Y-10257297D01*
X12645883Y-10265237D01*
X12655889Y-10270335D01*
X12666980Y-10272092D01*
X12666980Y-10272092D01*
X12666980Y-10272092D01*
X12678071Y-10270335D01*
X12678071Y-10270335D01*
X12678071Y-10270335D01*
X12688077Y-10265237D01*
X12696017Y-10257297D01*
X12701115Y-10247291D01*
X12701115Y-10247291D01*
X12701115Y-10247291D01*
X12702872Y-10236200D01*
X12702872Y-10236200D01*
X12701115Y-10225109D01*
X12696017Y-10215103D01*
X12688076Y-10207163D01*
X12678071Y-10202065D01*
X12666980Y-10200308D01*
X12666980Y-10200308D01*
X12655889Y-10202065D01*
X12645883Y-10207163D01*
X12637943Y-10215103D01*
X12632845Y-10225109D01*
X12631088Y-10236200D01*
X12631088Y-10236200D01*
X12456407Y-10236200D01*
X12454717Y-10232883D01*
X12446776Y-10224943D01*
X12436771Y-10219845D01*
X12425680Y-10218088D01*
X12425680Y-10218088D01*
X12414589Y-10219845D01*
X12404583Y-10224943D01*
X12396643Y-10232883D01*
X12391545Y-10242889D01*
X12389788Y-10253980D01*
X12389788Y-10253980D01*
X12004287Y-10253980D01*
X12007695Y-10247291D01*
X12007695Y-10247291D01*
X12007695Y-10247291D01*
X12009452Y-10236200D01*
X12009452Y-10236200D01*
X12007695Y-10225109D01*
X12002597Y-10215103D01*
X11994656Y-10207163D01*
X11984651Y-10202065D01*
X11973560Y-10200308D01*
X11973560Y-10200308D01*
X11962469Y-10202065D01*
X11952463Y-10207163D01*
X11944523Y-10215103D01*
X11939425Y-10225109D01*
X11937668Y-10236200D01*
X11937668Y-10236200D01*
X11590652Y-10236200D01*
X11584764Y-10219845D01*
X11577588Y-10199913D01*
X11577468Y-10199543D01*
X11560577Y-10141403D01*
X11560480Y-10141028D01*
X11556205Y-10121900D01*
X11747168Y-10121900D01*
X11748925Y-10132991D01*
X11754023Y-10142997D01*
X11761963Y-10150937D01*
X11771969Y-10156035D01*
X11783060Y-10157792D01*
X11783060Y-10157792D01*
X11783060Y-10157792D01*
X11794699Y-10155948D01*
X11801629Y-10156844D01*
X11806974Y-10161344D01*
X11809038Y-10168019D01*
X11807688Y-10173825D01*
X11802265Y-10184469D01*
X11800508Y-10195560D01*
X11800508Y-10195560D01*
X11802265Y-10206651D01*
X11807363Y-10216657D01*
X11815303Y-10224597D01*
X11825309Y-10229695D01*
X11836400Y-10231452D01*
X11836400Y-10231452D01*
X11836400Y-10231452D01*
X11847491Y-10229695D01*
X11847491Y-10229695D01*
X11847491Y-10229695D01*
X11857497Y-10224597D01*
X11865437Y-10216657D01*
X11870535Y-10206651D01*
X11870535Y-10206651D01*
X11870535Y-10206651D01*
X11872292Y-10195560D01*
X11872292Y-10195560D01*
X11870535Y-10184469D01*
X11865437Y-10174463D01*
X11857496Y-10166523D01*
X11847491Y-10161425D01*
X11836400Y-10159668D01*
X11836400Y-10159668D01*
X11832949Y-10160215D01*
X11824760Y-10161512D01*
X11817831Y-10160616D01*
X11812486Y-10156116D01*
X11812116Y-10154920D01*
X12707288Y-10154920D01*
X12709045Y-10166011D01*
X12714143Y-10176017D01*
X12722083Y-10183957D01*
X12732089Y-10189055D01*
X12743180Y-10190812D01*
X12743180Y-10190812D01*
X12743180Y-10190812D01*
X12754271Y-10189055D01*
X12754271Y-10189055D01*
X12754271Y-10189055D01*
X12764277Y-10183957D01*
X12772217Y-10176017D01*
X12777315Y-10166011D01*
X12777315Y-10166011D01*
X12777315Y-10166011D01*
X12779072Y-10154920D01*
X12779072Y-10154920D01*
X12777315Y-10143829D01*
X12772217Y-10133823D01*
X12764276Y-10125883D01*
X12754271Y-10120785D01*
X12743180Y-10119028D01*
X12743180Y-10119028D01*
X12732089Y-10120785D01*
X12722083Y-10125883D01*
X12714143Y-10133823D01*
X12709045Y-10143829D01*
X12707288Y-10154920D01*
X12707288Y-10154920D01*
X11812116Y-10154920D01*
X11810422Y-10149441D01*
X11811772Y-10143635D01*
X11815980Y-10135377D01*
X11817195Y-10132991D01*
X11817195Y-10132991D01*
X11817195Y-10132991D01*
X11818952Y-10121900D01*
X11818952Y-10121900D01*
X11817745Y-10114280D01*
X12841908Y-10114280D01*
X12843665Y-10125371D01*
X12848763Y-10135377D01*
X12856703Y-10143317D01*
X12866709Y-10148415D01*
X12877800Y-10150172D01*
X12877800Y-10150172D01*
X12877800Y-10150172D01*
X12879894Y-10149840D01*
X12933348Y-10149840D01*
X12935105Y-10160931D01*
X12940203Y-10170937D01*
X12948143Y-10178877D01*
X12953051Y-10181378D01*
X12958149Y-10183975D01*
X12958149Y-10183975D01*
X12958709Y-10184157D01*
X12964477Y-10188101D01*
X12967196Y-10194537D01*
X12966005Y-10201422D01*
X12965926Y-10201580D01*
X12965585Y-10202249D01*
X12963828Y-10213340D01*
X12963828Y-10213340D01*
X12965585Y-10224431D01*
X12970683Y-10234437D01*
X12978623Y-10242377D01*
X12988629Y-10247475D01*
X12999720Y-10249232D01*
X12999720Y-10249232D01*
X12999720Y-10249232D01*
X13010811Y-10247475D01*
X13010811Y-10247475D01*
X13010811Y-10247475D01*
X13020817Y-10242377D01*
X13028757Y-10234437D01*
X13033855Y-10224431D01*
X13033855Y-10224431D01*
X13033855Y-10224431D01*
X13035612Y-10213340D01*
X13035612Y-10213340D01*
X13033855Y-10202249D01*
X13028757Y-10192243D01*
X13020816Y-10184303D01*
X13014231Y-10180947D01*
X13010811Y-10179205D01*
X13010811Y-10179205D01*
X13010250Y-10179023D01*
X13004483Y-10175078D01*
X13001763Y-10168642D01*
X13002955Y-10161758D01*
X13003030Y-10161609D01*
X13003375Y-10160931D01*
X13004138Y-10156116D01*
X13005132Y-10149840D01*
X13005132Y-10149840D01*
X13003375Y-10138749D01*
X12998277Y-10128743D01*
X12990336Y-10120803D01*
X12980331Y-10115705D01*
X12969240Y-10113948D01*
X12969240Y-10113948D01*
X12958149Y-10115705D01*
X12948143Y-10120803D01*
X12940203Y-10128743D01*
X12935105Y-10138749D01*
X12933348Y-10149840D01*
X12933348Y-10149840D01*
X12879894Y-10149840D01*
X12888891Y-10148415D01*
X12888891Y-10148415D01*
X12888891Y-10148415D01*
X12898897Y-10143317D01*
X12906837Y-10135377D01*
X12911935Y-10125371D01*
X12911935Y-10125371D01*
X12911935Y-10125371D01*
X12913692Y-10114280D01*
X12913692Y-10114280D01*
X12911935Y-10103189D01*
X12906837Y-10093183D01*
X12898896Y-10085243D01*
X12888891Y-10080145D01*
X12877800Y-10078388D01*
X12877800Y-10078388D01*
X12866709Y-10080145D01*
X12856703Y-10085243D01*
X12848763Y-10093183D01*
X12843665Y-10103189D01*
X12841908Y-10114280D01*
X12841908Y-10114280D01*
X11817745Y-10114280D01*
X11817195Y-10110809D01*
X11812097Y-10100803D01*
X11804156Y-10092863D01*
X11794151Y-10087765D01*
X11783060Y-10086008D01*
X11783060Y-10086008D01*
X11771969Y-10087765D01*
X11761963Y-10092863D01*
X11754023Y-10100803D01*
X11748925Y-10110809D01*
X11747168Y-10121900D01*
X11747168Y-10121900D01*
X11556205Y-10121900D01*
X11555342Y-10118038D01*
X11555800Y-10111066D01*
X11559955Y-10105449D01*
X11566488Y-10102970D01*
X11567354Y-10102934D01*
X11699000Y-10102000D01*
X11699395Y-9949180D01*
X12623468Y-9949180D01*
X12625225Y-9960271D01*
X12630323Y-9970277D01*
X12638263Y-9978217D01*
X12648269Y-9983315D01*
X12659360Y-9985072D01*
X12659360Y-9985072D01*
X12659360Y-9985072D01*
X12670451Y-9983315D01*
X12670451Y-9983315D01*
X12670451Y-9983315D01*
X12674694Y-9981153D01*
X12681560Y-9979864D01*
X12688035Y-9982492D01*
X12692060Y-9988202D01*
X12692570Y-9994142D01*
X12692048Y-9997440D01*
X12692048Y-9997440D01*
X12692048Y-9997440D01*
X12693805Y-10008531D01*
X12698903Y-10018537D01*
X12706843Y-10026477D01*
X12716849Y-10031575D01*
X12727940Y-10033332D01*
X12727940Y-10033332D01*
X12727940Y-10033332D01*
X12739031Y-10031575D01*
X12739031Y-10031575D01*
X12739031Y-10031575D01*
X12740948Y-10030598D01*
X12747815Y-10029309D01*
X12754289Y-10031936D01*
X12758315Y-10037647D01*
X12758825Y-10043586D01*
X12758226Y-10047371D01*
X12758088Y-10048240D01*
X12758088Y-10048240D01*
X12758088Y-10048240D01*
X12759845Y-10059331D01*
X12764943Y-10069337D01*
X12772883Y-10077277D01*
X12782889Y-10082375D01*
X12793980Y-10084132D01*
X12793980Y-10084132D01*
X12793980Y-10084132D01*
X12805071Y-10082375D01*
X12805071Y-10082375D01*
X12805071Y-10082375D01*
X12815077Y-10077277D01*
X12823017Y-10069337D01*
X12828115Y-10059331D01*
X12828115Y-10059331D01*
X12828115Y-10059331D01*
X12829872Y-10048240D01*
X12829872Y-10048240D01*
X12828115Y-10037149D01*
X12823017Y-10027143D01*
X12815076Y-10019203D01*
X12805071Y-10014105D01*
X12793980Y-10012348D01*
X12793980Y-10012348D01*
X12782889Y-10014105D01*
X12780971Y-10015082D01*
X12774104Y-10016371D01*
X12767630Y-10013743D01*
X12763605Y-10008033D01*
X12763095Y-10002093D01*
X12763377Y-10000312D01*
X12763429Y-9999980D01*
X12963828Y-9999980D01*
X12965585Y-10011071D01*
X12970683Y-10021077D01*
X12978623Y-10029017D01*
X12988629Y-10034115D01*
X12999720Y-10035872D01*
X12999720Y-10035872D01*
X12999720Y-10035872D01*
X13010811Y-10034115D01*
X13010811Y-10034115D01*
X13010811Y-10034115D01*
X13020817Y-10029017D01*
X13028757Y-10021077D01*
X13033855Y-10011071D01*
X13033855Y-10011071D01*
X13033855Y-10011071D01*
X13035612Y-9999980D01*
X13035612Y-9999980D01*
X13033855Y-9988889D01*
X13028757Y-9978883D01*
X13020816Y-9970943D01*
X13010811Y-9965845D01*
X12999720Y-9964088D01*
X12999720Y-9964088D01*
X12988629Y-9965845D01*
X12978623Y-9970943D01*
X12970683Y-9978883D01*
X12965585Y-9988889D01*
X12963828Y-9999980D01*
X12963828Y-9999980D01*
X12763429Y-9999980D01*
X12763832Y-9997440D01*
X12763832Y-9997440D01*
X12762075Y-9986349D01*
X12756977Y-9976343D01*
X12749036Y-9968403D01*
X12739031Y-9963305D01*
X12730037Y-9961880D01*
X13840128Y-9961880D01*
X13841885Y-9972971D01*
X13846983Y-9982977D01*
X13854923Y-9990917D01*
X13864929Y-9996015D01*
X13876020Y-9997772D01*
X13876020Y-9997772D01*
X13876020Y-9997772D01*
X13887111Y-9996015D01*
X13887111Y-9996015D01*
X13887111Y-9996015D01*
X13897117Y-9990917D01*
X13905057Y-9982977D01*
X13910155Y-9972971D01*
X13910155Y-9972971D01*
X13910155Y-9972971D01*
X13911510Y-9964420D01*
X13969668Y-9964420D01*
X13971425Y-9975511D01*
X13976523Y-9985517D01*
X13984463Y-9993457D01*
X13994469Y-9998555D01*
X14005560Y-10000312D01*
X14005560Y-10000312D01*
X14005560Y-10000312D01*
X14016651Y-9998555D01*
X14016651Y-9998555D01*
X14016651Y-9998555D01*
X14026657Y-9993457D01*
X14034597Y-9985517D01*
X14039695Y-9975511D01*
X14039695Y-9975511D01*
X14039695Y-9975511D01*
X14041452Y-9964420D01*
X14041452Y-9964420D01*
X14039695Y-9953329D01*
X14034597Y-9943323D01*
X14026656Y-9935383D01*
X14016651Y-9930285D01*
X14005560Y-9928528D01*
X14005560Y-9928528D01*
X13994469Y-9930285D01*
X13984463Y-9935383D01*
X13976523Y-9943323D01*
X13971425Y-9953329D01*
X13969668Y-9964420D01*
X13969668Y-9964420D01*
X13911510Y-9964420D01*
X13911912Y-9961880D01*
X13911912Y-9961880D01*
X13910155Y-9950789D01*
X13905057Y-9940783D01*
X13897116Y-9932843D01*
X13887111Y-9927745D01*
X13876020Y-9925988D01*
X13876020Y-9925988D01*
X13864929Y-9927745D01*
X13854923Y-9932843D01*
X13846983Y-9940783D01*
X13841885Y-9950789D01*
X13840128Y-9961880D01*
X13840128Y-9961880D01*
X12730037Y-9961880D01*
X12727940Y-9961548D01*
X12727940Y-9961548D01*
X12716849Y-9963305D01*
X12712606Y-9965467D01*
X12705739Y-9966756D01*
X12699265Y-9964128D01*
X12695239Y-9958418D01*
X12694729Y-9952478D01*
X12695252Y-9949180D01*
X12695252Y-9949180D01*
X12693495Y-9938089D01*
X12688397Y-9928083D01*
X12680456Y-9920143D01*
X12670451Y-9915045D01*
X12659360Y-9913288D01*
X12659360Y-9913288D01*
X12648269Y-9915045D01*
X12638263Y-9920143D01*
X12630323Y-9928083D01*
X12625225Y-9938089D01*
X12623468Y-9949180D01*
X12623468Y-9949180D01*
X11699395Y-9949180D01*
X11699565Y-9883140D01*
X11985928Y-9883140D01*
X11987685Y-9894231D01*
X11992783Y-9904237D01*
X12000723Y-9912177D01*
X12010729Y-9917275D01*
X12021820Y-9919032D01*
X12021820Y-9919032D01*
X12021820Y-9919032D01*
X12032911Y-9917275D01*
X12032911Y-9917275D01*
X12032911Y-9917275D01*
X12042917Y-9912177D01*
X12050857Y-9904237D01*
X12055955Y-9894231D01*
X12055955Y-9894231D01*
X12055955Y-9894231D01*
X12057712Y-9883140D01*
X12057712Y-9883140D01*
X12055955Y-9872049D01*
X12050857Y-9862043D01*
X12042916Y-9854103D01*
X12032911Y-9849005D01*
X12021820Y-9847248D01*
X12021820Y-9847248D01*
X12010729Y-9849005D01*
X12000723Y-9854103D01*
X11992783Y-9862043D01*
X11987685Y-9872049D01*
X11985928Y-9883140D01*
X11985928Y-9883140D01*
X11699565Y-9883140D01*
X11699723Y-9822180D01*
X12874928Y-9822180D01*
X12876685Y-9833271D01*
X12881783Y-9843277D01*
X12889723Y-9851217D01*
X12899729Y-9856315D01*
X12910820Y-9858072D01*
X12910820Y-9858072D01*
X12910820Y-9858072D01*
X12921911Y-9856315D01*
X12921911Y-9856315D01*
X12921911Y-9856315D01*
X12931917Y-9851217D01*
X12939857Y-9843277D01*
X12944955Y-9833271D01*
X12944955Y-9833271D01*
X12944955Y-9833271D01*
X12945103Y-9832340D01*
X13124415Y-9832340D01*
X13126463Y-9846586D01*
X13132136Y-9859007D01*
X13132442Y-9859677D01*
X13141867Y-9870554D01*
X13153975Y-9878335D01*
X13153975Y-9878335D01*
X13153975Y-9878335D01*
X13167784Y-9882390D01*
X13167784Y-9882390D01*
X13167784Y-9882390D01*
X13182176Y-9882390D01*
X13182176Y-9882390D01*
X13195985Y-9878335D01*
X13208093Y-9870554D01*
X13217518Y-9859677D01*
X13217518Y-9859677D01*
X13218098Y-9859007D01*
X13218324Y-9859203D01*
X13222471Y-9855609D01*
X13229387Y-9854614D01*
X13235743Y-9857516D01*
X13238903Y-9861737D01*
X13239122Y-9862217D01*
X13248547Y-9873094D01*
X13260655Y-9880875D01*
X13260655Y-9880875D01*
X13260655Y-9880875D01*
X13274464Y-9884930D01*
X13274464Y-9884930D01*
X13274464Y-9884930D01*
X13288856Y-9884930D01*
X13288856Y-9884930D01*
X13302665Y-9880875D01*
X13314773Y-9873094D01*
X13324191Y-9862225D01*
X13330069Y-9858448D01*
X13337056Y-9858448D01*
X13342933Y-9862225D01*
X13344842Y-9865194D01*
X13345802Y-9867297D01*
X13355227Y-9878174D01*
X13367335Y-9885955D01*
X13367335Y-9885955D01*
X13367335Y-9885955D01*
X13378051Y-9889102D01*
X13379506Y-9889529D01*
X13381144Y-9890010D01*
X13381144Y-9890010D01*
X13381144Y-9890010D01*
X13395536Y-9890010D01*
X13395536Y-9890010D01*
X13406252Y-9886864D01*
X13409345Y-9885955D01*
X13409345Y-9885955D01*
X13409345Y-9885955D01*
X13421453Y-9878174D01*
X13430878Y-9867297D01*
X13436856Y-9854206D01*
X13438905Y-9839960D01*
X13436856Y-9825714D01*
X13430878Y-9812623D01*
X13421453Y-9801746D01*
X13421453Y-9801746D01*
X13420872Y-9801076D01*
X13421108Y-9800871D01*
X13418166Y-9796293D01*
X13418167Y-9789306D01*
X13420693Y-9784680D01*
X13426106Y-9778433D01*
X13428337Y-9775858D01*
X13428337Y-9775858D01*
X13428338Y-9775857D01*
X13434316Y-9762766D01*
X13434904Y-9758680D01*
X13898548Y-9758680D01*
X13900305Y-9769771D01*
X13905403Y-9779777D01*
X13913343Y-9787717D01*
X13923349Y-9792815D01*
X13934440Y-9794572D01*
X13934440Y-9794572D01*
X13934440Y-9794572D01*
X13945531Y-9792815D01*
X13945531Y-9792815D01*
X13945531Y-9792815D01*
X13955537Y-9787717D01*
X13963477Y-9779777D01*
X13968575Y-9769771D01*
X13968575Y-9769771D01*
X13968575Y-9769771D01*
X13970332Y-9758680D01*
X13970332Y-9758680D01*
X13968575Y-9747589D01*
X13963477Y-9737583D01*
X13955536Y-9729643D01*
X13945531Y-9724545D01*
X13934440Y-9722788D01*
X13934440Y-9722788D01*
X13923349Y-9724545D01*
X13913343Y-9729643D01*
X13905403Y-9737583D01*
X13900305Y-9747589D01*
X13898548Y-9758680D01*
X13898548Y-9758680D01*
X13434904Y-9758680D01*
X13436365Y-9748520D01*
X13434316Y-9734274D01*
X13428338Y-9721183D01*
X13418913Y-9710306D01*
X13406805Y-9702525D01*
X13406805Y-9702525D01*
X13406059Y-9702045D01*
X13406174Y-9701866D01*
X13401798Y-9698075D01*
X13399829Y-9691371D01*
X13401798Y-9684667D01*
X13406174Y-9680874D01*
X13406059Y-9680695D01*
X13407750Y-9679608D01*
X13418913Y-9672434D01*
X13428338Y-9661557D01*
X13434316Y-9648466D01*
X13436365Y-9634220D01*
X13434539Y-9621520D01*
X13962048Y-9621520D01*
X13963805Y-9632611D01*
X13968903Y-9642617D01*
X13976843Y-9650557D01*
X13986849Y-9655655D01*
X13997940Y-9657412D01*
X13997940Y-9657412D01*
X13997940Y-9657412D01*
X14009031Y-9655655D01*
X14009031Y-9655655D01*
X14009031Y-9655655D01*
X14019037Y-9650557D01*
X14026977Y-9642617D01*
X14032075Y-9632611D01*
X14032075Y-9632611D01*
X14032075Y-9632611D01*
X14033832Y-9621520D01*
X14033832Y-9621520D01*
X14032075Y-9610429D01*
X14026977Y-9600423D01*
X14019036Y-9592483D01*
X14009031Y-9587385D01*
X13997940Y-9585628D01*
X13997940Y-9585628D01*
X13986849Y-9587385D01*
X13976843Y-9592483D01*
X13968903Y-9600423D01*
X13963805Y-9610429D01*
X13962048Y-9621520D01*
X13962048Y-9621520D01*
X13434539Y-9621520D01*
X13434316Y-9619974D01*
X13428338Y-9606883D01*
X13418913Y-9596006D01*
X13406805Y-9588225D01*
X13406805Y-9588225D01*
X13406805Y-9588225D01*
X13406805Y-9588225D01*
X13392996Y-9584170D01*
X13392996Y-9584170D01*
X13378604Y-9584170D01*
X13378604Y-9584170D01*
X13364795Y-9588225D01*
X13352687Y-9596006D01*
X13343101Y-9607069D01*
X13337223Y-9610846D01*
X13330236Y-9610846D01*
X13324359Y-9607068D01*
X13314773Y-9596006D01*
X13314773Y-9596006D01*
X13302665Y-9588225D01*
X13302665Y-9588225D01*
X13302665Y-9588225D01*
X13302665Y-9588225D01*
X13288856Y-9584170D01*
X13288856Y-9584170D01*
X13274464Y-9584170D01*
X13274464Y-9584170D01*
X13260655Y-9588225D01*
X13248547Y-9596006D01*
X13239122Y-9606883D01*
X13239022Y-9607039D01*
X13238882Y-9607160D01*
X13238541Y-9607553D01*
X13238485Y-9607504D01*
X13233741Y-9611614D01*
X13226826Y-9612609D01*
X13220470Y-9609706D01*
X13219219Y-9608455D01*
X13218438Y-9607553D01*
X13210633Y-9598546D01*
X13198525Y-9590765D01*
X13198525Y-9590765D01*
X13198525Y-9590765D01*
X13198525Y-9590765D01*
X13184716Y-9586710D01*
X13184716Y-9586710D01*
X13170324Y-9586710D01*
X13170324Y-9586710D01*
X13156515Y-9590765D01*
X13144407Y-9598546D01*
X13134982Y-9609423D01*
X13134982Y-9609423D01*
X13129003Y-9622514D01*
X13126955Y-9636760D01*
X13129003Y-9651006D01*
X13134982Y-9664097D01*
X13134982Y-9664097D01*
X13144407Y-9674974D01*
X13144407Y-9674974D01*
X13147759Y-9677129D01*
X13152335Y-9682409D01*
X13153329Y-9689325D01*
X13150426Y-9695680D01*
X13147759Y-9697992D01*
X13144407Y-9700146D01*
X13134982Y-9711023D01*
X13134982Y-9711023D01*
X13129003Y-9724114D01*
X13126955Y-9738360D01*
X13129003Y-9752606D01*
X13134982Y-9765697D01*
X13134982Y-9765698D01*
X13143896Y-9775984D01*
X13146798Y-9782340D01*
X13145804Y-9789256D01*
X13142313Y-9793286D01*
X13142538Y-9793545D01*
X13141867Y-9794126D01*
X13141867Y-9794126D01*
X13141867Y-9794126D01*
X13140817Y-9795337D01*
X13132442Y-9805003D01*
X13132442Y-9805003D01*
X13126463Y-9818094D01*
X13124415Y-9832340D01*
X12945103Y-9832340D01*
X12946712Y-9822180D01*
X12946712Y-9822180D01*
X12944955Y-9811089D01*
X12939857Y-9801083D01*
X12931916Y-9793143D01*
X12921911Y-9788045D01*
X12910820Y-9786288D01*
X12910820Y-9786288D01*
X12899729Y-9788045D01*
X12889723Y-9793143D01*
X12881783Y-9801083D01*
X12876685Y-9811089D01*
X12874928Y-9822180D01*
X12874928Y-9822180D01*
X11699723Y-9822180D01*
X11699900Y-9753600D01*
X12211988Y-9753600D01*
X12213745Y-9764691D01*
X12218843Y-9774697D01*
X12226783Y-9782637D01*
X12236789Y-9787735D01*
X12247880Y-9789492D01*
X12247880Y-9789492D01*
X12247880Y-9789492D01*
X12258971Y-9787735D01*
X12258971Y-9787735D01*
X12258971Y-9787735D01*
X12268977Y-9782637D01*
X12276917Y-9774697D01*
X12282015Y-9764691D01*
X12282015Y-9764691D01*
X12282015Y-9764691D01*
X12283772Y-9753600D01*
X12283772Y-9753600D01*
X12282015Y-9742509D01*
X12276917Y-9732503D01*
X12272614Y-9728200D01*
X12399948Y-9728200D01*
X12401705Y-9739291D01*
X12406803Y-9749297D01*
X12414743Y-9757237D01*
X12424749Y-9762335D01*
X12435840Y-9764092D01*
X12435840Y-9764092D01*
X12435840Y-9764092D01*
X12446931Y-9762335D01*
X12446931Y-9762335D01*
X12446931Y-9762335D01*
X12456937Y-9757237D01*
X12464877Y-9749297D01*
X12469975Y-9739291D01*
X12469975Y-9739291D01*
X12469975Y-9739291D01*
X12471732Y-9728200D01*
X12471732Y-9728200D01*
X12469975Y-9717109D01*
X12469156Y-9715500D01*
X12570128Y-9715500D01*
X12571885Y-9726591D01*
X12576983Y-9736597D01*
X12584923Y-9744537D01*
X12594929Y-9749635D01*
X12606020Y-9751392D01*
X12606020Y-9751392D01*
X12606020Y-9751392D01*
X12617111Y-9749635D01*
X12617111Y-9749635D01*
X12617111Y-9749635D01*
X12627117Y-9744537D01*
X12635057Y-9736597D01*
X12638571Y-9729700D01*
X12643368Y-9724621D01*
X12650150Y-9722941D01*
X12656764Y-9725195D01*
X12658388Y-9726562D01*
X12666203Y-9734377D01*
X12676209Y-9739475D01*
X12687300Y-9741232D01*
X12687300Y-9741232D01*
X12687300Y-9741232D01*
X12692051Y-9740479D01*
X12697704Y-9739584D01*
X12704633Y-9740479D01*
X12709979Y-9744979D01*
X12712043Y-9751654D01*
X12711653Y-9754232D01*
X12711737Y-9754245D01*
X12709828Y-9766300D01*
X12709828Y-9766300D01*
X12711585Y-9777391D01*
X12716683Y-9787397D01*
X12724623Y-9795337D01*
X12734629Y-9800435D01*
X12745720Y-9802192D01*
X12745720Y-9802192D01*
X12745720Y-9802192D01*
X12756811Y-9800435D01*
X12756811Y-9800435D01*
X12756811Y-9800435D01*
X12766817Y-9795337D01*
X12774757Y-9787397D01*
X12779855Y-9777391D01*
X12779855Y-9777391D01*
X12779855Y-9777391D01*
X12781612Y-9766300D01*
X12781612Y-9766300D01*
X12779855Y-9755209D01*
X12774757Y-9745203D01*
X12766816Y-9737263D01*
X12756811Y-9732165D01*
X12745720Y-9730408D01*
X12745720Y-9730408D01*
X12735316Y-9732056D01*
X12728386Y-9731160D01*
X12723041Y-9726661D01*
X12720977Y-9719986D01*
X12721367Y-9717408D01*
X12721283Y-9717395D01*
X12723192Y-9705340D01*
X12723192Y-9705340D01*
X12721435Y-9694249D01*
X12716337Y-9684243D01*
X12708396Y-9676303D01*
X12698391Y-9671205D01*
X12687300Y-9669448D01*
X12687300Y-9669448D01*
X12676209Y-9671205D01*
X12666203Y-9676303D01*
X12658263Y-9684243D01*
X12654749Y-9691140D01*
X12649951Y-9696219D01*
X12643169Y-9697899D01*
X12636556Y-9695645D01*
X12634932Y-9694278D01*
X12627116Y-9686463D01*
X12617111Y-9681365D01*
X12606020Y-9679608D01*
X12606020Y-9679608D01*
X12594929Y-9681365D01*
X12584923Y-9686463D01*
X12576983Y-9694403D01*
X12571885Y-9704409D01*
X12570128Y-9715500D01*
X12570128Y-9715500D01*
X12469156Y-9715500D01*
X12464877Y-9707103D01*
X12456936Y-9699163D01*
X12446931Y-9694065D01*
X12435840Y-9692308D01*
X12435840Y-9692308D01*
X12424749Y-9694065D01*
X12414743Y-9699163D01*
X12406803Y-9707103D01*
X12401705Y-9717109D01*
X12399948Y-9728200D01*
X12399948Y-9728200D01*
X12272614Y-9728200D01*
X12268976Y-9724563D01*
X12258971Y-9719465D01*
X12247880Y-9717708D01*
X12247880Y-9717708D01*
X12236789Y-9719465D01*
X12226783Y-9724563D01*
X12223127Y-9728219D01*
X12216995Y-9731567D01*
X12213251Y-9731299D01*
X12215029Y-9736065D01*
X12213920Y-9741540D01*
X12214046Y-9741581D01*
X12213745Y-9742509D01*
X12211988Y-9753600D01*
X12211988Y-9753600D01*
X11699900Y-9753600D01*
X11700000Y-9715000D01*
X11570008Y-9715000D01*
X11563304Y-9713032D01*
X11558729Y-9707751D01*
X11558017Y-9702800D01*
X12133248Y-9702800D01*
X12135005Y-9713891D01*
X12140103Y-9723897D01*
X12148043Y-9731837D01*
X12158049Y-9736935D01*
X12169140Y-9738692D01*
X12169140Y-9738692D01*
X12169140Y-9738692D01*
X12180231Y-9736935D01*
X12180231Y-9736935D01*
X12180231Y-9736935D01*
X12190237Y-9731837D01*
X12193893Y-9728181D01*
X12200025Y-9724833D01*
X12203768Y-9725101D01*
X12201991Y-9720335D01*
X12203100Y-9714860D01*
X12202974Y-9714819D01*
X12203275Y-9713892D01*
X12203275Y-9713891D01*
X12204630Y-9705340D01*
X12205032Y-9702800D01*
X12205032Y-9702800D01*
X12203275Y-9691709D01*
X12198177Y-9681703D01*
X12190236Y-9673763D01*
X12180231Y-9668665D01*
X12169140Y-9666908D01*
X12169140Y-9666908D01*
X12158049Y-9668665D01*
X12148043Y-9673763D01*
X12140103Y-9681703D01*
X12135005Y-9691709D01*
X12133248Y-9702800D01*
X12133248Y-9702800D01*
X11558017Y-9702800D01*
X11557735Y-9700835D01*
X11557793Y-9700466D01*
X11566275Y-9652000D01*
X12811428Y-9652000D01*
X12813185Y-9663091D01*
X12818283Y-9673097D01*
X12826223Y-9681037D01*
X12836229Y-9686135D01*
X12847320Y-9687892D01*
X12847320Y-9687892D01*
X12847320Y-9687892D01*
X12858411Y-9686135D01*
X12858411Y-9686135D01*
X12858411Y-9686135D01*
X12868417Y-9681037D01*
X12876357Y-9673097D01*
X12881455Y-9663091D01*
X12881455Y-9663091D01*
X12881455Y-9663091D01*
X12883212Y-9652000D01*
X12883212Y-9652000D01*
X12882696Y-9648745D01*
X12883592Y-9641816D01*
X12888091Y-9636470D01*
X12893004Y-9634558D01*
X12893040Y-9634552D01*
X12893040Y-9634552D01*
X12895818Y-9634112D01*
X12904131Y-9632795D01*
X12904131Y-9632795D01*
X12904131Y-9632795D01*
X12914137Y-9627697D01*
X12922077Y-9619757D01*
X12927175Y-9609751D01*
X12927175Y-9609751D01*
X12927175Y-9609751D01*
X12928932Y-9598660D01*
X12928932Y-9598660D01*
X12927175Y-9587569D01*
X12922077Y-9577563D01*
X12914136Y-9569623D01*
X12904131Y-9564525D01*
X12893040Y-9562768D01*
X12893040Y-9562768D01*
X12881949Y-9564525D01*
X12871943Y-9569623D01*
X12864003Y-9577563D01*
X12858905Y-9587569D01*
X12857166Y-9598546D01*
X12857148Y-9598660D01*
X12857427Y-9600423D01*
X12857664Y-9601915D01*
X12856768Y-9608845D01*
X12852268Y-9614190D01*
X12847356Y-9616102D01*
X12836229Y-9617865D01*
X12826223Y-9622963D01*
X12818283Y-9630903D01*
X12813185Y-9640909D01*
X12811428Y-9652000D01*
X12811428Y-9652000D01*
X11566275Y-9652000D01*
X11571945Y-9619600D01*
X11572097Y-9618944D01*
X11577469Y-9600454D01*
X11577588Y-9600086D01*
X11577620Y-9600000D01*
X11598097Y-9543121D01*
X11598240Y-9542759D01*
X11598659Y-9541791D01*
X11611421Y-9512300D01*
X11770028Y-9512300D01*
X11771785Y-9523391D01*
X11776883Y-9533397D01*
X11784823Y-9541337D01*
X11794829Y-9546435D01*
X11805920Y-9548192D01*
X11805920Y-9548192D01*
X11805920Y-9548192D01*
X11817011Y-9546435D01*
X11817011Y-9546435D01*
X11817011Y-9546435D01*
X11827017Y-9541337D01*
X11834957Y-9533397D01*
X11840055Y-9523391D01*
X11840055Y-9523391D01*
X11840055Y-9523391D01*
X11841812Y-9512300D01*
X11841812Y-9512300D01*
X11840055Y-9501209D01*
X11834957Y-9491203D01*
X11827016Y-9483263D01*
X11817011Y-9478165D01*
X11805920Y-9476408D01*
X11805920Y-9476408D01*
X11794829Y-9478165D01*
X11784823Y-9483263D01*
X11776883Y-9491203D01*
X11771785Y-9501209D01*
X11770028Y-9512300D01*
X11770028Y-9512300D01*
X11611421Y-9512300D01*
X11622286Y-9487193D01*
X11622450Y-9486844D01*
X11626571Y-9478757D01*
X11626840Y-9478282D01*
X11641174Y-9455424D01*
X11646403Y-9450791D01*
X11653308Y-9449720D01*
X11659695Y-9452552D01*
X11663538Y-9458388D01*
X11663927Y-9460073D01*
X11665105Y-9467511D01*
X11670203Y-9477517D01*
X11678143Y-9485457D01*
X11688149Y-9490555D01*
X11699240Y-9492312D01*
X11699240Y-9492312D01*
X11699240Y-9492312D01*
X11710331Y-9490555D01*
X11710331Y-9490555D01*
X11710331Y-9490555D01*
X11720337Y-9485457D01*
X11728277Y-9477517D01*
X11733375Y-9467511D01*
X11733375Y-9467511D01*
X11733375Y-9467511D01*
X11735132Y-9456420D01*
X11735132Y-9456420D01*
X11733375Y-9445329D01*
X11728277Y-9435323D01*
X11720336Y-9427383D01*
X11710331Y-9422285D01*
X11699240Y-9420528D01*
X11699240Y-9420528D01*
X11688149Y-9422285D01*
X11687737Y-9422419D01*
X11687208Y-9422434D01*
X11687185Y-9422437D01*
X11687184Y-9422434D01*
X11680753Y-9422618D01*
X11674770Y-9419010D01*
X11671687Y-9412740D01*
X11672483Y-9405798D01*
X11673399Y-9404039D01*
X11739218Y-9299084D01*
X11739569Y-9298582D01*
X11752522Y-9281883D01*
X11752767Y-9281587D01*
X11792809Y-9236168D01*
X11793073Y-9235887D01*
X11801140Y-9227820D01*
X12072288Y-9227820D01*
X12074045Y-9238911D01*
X12079143Y-9248917D01*
X12087083Y-9256857D01*
X12097089Y-9261955D01*
X12108180Y-9263712D01*
X12108180Y-9263712D01*
X12108180Y-9263712D01*
X12119271Y-9261955D01*
X12119271Y-9261955D01*
X12119271Y-9261955D01*
X12129277Y-9256857D01*
X12137217Y-9248917D01*
X12142315Y-9238911D01*
X12142315Y-9238911D01*
X12142315Y-9238911D01*
X12144072Y-9227820D01*
X12144072Y-9227820D01*
X12142315Y-9216729D01*
X12137217Y-9206723D01*
X12129276Y-9198783D01*
X12119271Y-9193685D01*
X12108180Y-9191928D01*
X12108180Y-9191928D01*
X12097089Y-9193685D01*
X12087083Y-9198783D01*
X12079143Y-9206723D01*
X12074045Y-9216729D01*
X12072288Y-9227820D01*
X12072288Y-9227820D01*
X11801140Y-9227820D01*
X11804566Y-9224395D01*
X11805923Y-9223221D01*
X12033972Y-9053221D01*
X12043328Y-9046246D01*
X12046987Y-9044369D01*
X12358169Y-8945581D01*
X12361921Y-8945000D01*
X12400309Y-8945000D01*
X12407013Y-8946969D01*
G37*
G04 #@! TD.AperFunction*
G04 #@! TA.AperFunction,Conductor*
G36*
X14826434Y-8945346D02*
G01*
X14976630Y-8981600D01*
X14982684Y-8985087D01*
X14985893Y-8991293D01*
X14985569Y-8997309D01*
X14984758Y-8999939D01*
X14981590Y-9010210D01*
X14981590Y-9010210D01*
X14981590Y-9010210D01*
X14981590Y-9031902D01*
X14981551Y-9032596D01*
X14981412Y-9033825D01*
X14981113Y-9036483D01*
X14982219Y-9042328D01*
X14983105Y-9048209D01*
X14983356Y-9049023D01*
X14983638Y-9049828D01*
X14986418Y-9055087D01*
X14988998Y-9060444D01*
X14989476Y-9061147D01*
X14989983Y-9061833D01*
X14989983Y-9061834D01*
X14989984Y-9061834D01*
X14994189Y-9066040D01*
X14998235Y-9070400D01*
X14998961Y-9070979D01*
X14998909Y-9071044D01*
X15000133Y-9071983D01*
X15069941Y-9141792D01*
X15137398Y-9209248D01*
X15140747Y-9215381D01*
X15141030Y-9218017D01*
X15141030Y-9305504D01*
X15139061Y-9312208D01*
X15133781Y-9316784D01*
X15126865Y-9317778D01*
X15126690Y-9317752D01*
X15121953Y-9317002D01*
X15118080Y-9316388D01*
X15118080Y-9316388D01*
X15118080Y-9316388D01*
X15106989Y-9318145D01*
X15096983Y-9323243D01*
X15089043Y-9331183D01*
X15083945Y-9341189D01*
X15082188Y-9352280D01*
X15082188Y-9352280D01*
X15083945Y-9363371D01*
X15089043Y-9373377D01*
X15096983Y-9381317D01*
X15098017Y-9381844D01*
X15103096Y-9386641D01*
X15104776Y-9393423D01*
X15102522Y-9400037D01*
X15101156Y-9401661D01*
X15097528Y-9405288D01*
X15087458Y-9415358D01*
X15081326Y-9418707D01*
X15078690Y-9418990D01*
X14872621Y-9418990D01*
X14865917Y-9417022D01*
X14861342Y-9411741D01*
X14860348Y-9404825D01*
X14861573Y-9400961D01*
X14863473Y-9397230D01*
X14865195Y-9393851D01*
X14865255Y-9393473D01*
X14866952Y-9382760D01*
X14866952Y-9382760D01*
X14865195Y-9371669D01*
X14860097Y-9361663D01*
X14852156Y-9353723D01*
X14842151Y-9348625D01*
X14831060Y-9346868D01*
X14831060Y-9346868D01*
X14819969Y-9348625D01*
X14809963Y-9353723D01*
X14802023Y-9361663D01*
X14796925Y-9371669D01*
X14795168Y-9382760D01*
X14795168Y-9382760D01*
X14796925Y-9393851D01*
X14800547Y-9400961D01*
X14801837Y-9407828D01*
X14799209Y-9414302D01*
X14793498Y-9418327D01*
X14789499Y-9418990D01*
X14582478Y-9418990D01*
X14581784Y-9418951D01*
X14580357Y-9418790D01*
X14577896Y-9418513D01*
X14572854Y-9419467D01*
X14572052Y-9419619D01*
X14566247Y-9420494D01*
X14559325Y-9419547D01*
X14555631Y-9417000D01*
X14379151Y-9240520D01*
X14774848Y-9240520D01*
X14776605Y-9251611D01*
X14781703Y-9261617D01*
X14789643Y-9269557D01*
X14799649Y-9274655D01*
X14810740Y-9276412D01*
X14810740Y-9276412D01*
X14810740Y-9276412D01*
X14821831Y-9274655D01*
X14821831Y-9274655D01*
X14821831Y-9274655D01*
X14831837Y-9269557D01*
X14832934Y-9268460D01*
X14922168Y-9268460D01*
X14923925Y-9279551D01*
X14929023Y-9289557D01*
X14936963Y-9297497D01*
X14946969Y-9302595D01*
X14958060Y-9304352D01*
X14958060Y-9304352D01*
X14958060Y-9304352D01*
X14969151Y-9302595D01*
X14969151Y-9302595D01*
X14969151Y-9302595D01*
X14979157Y-9297497D01*
X14987097Y-9289557D01*
X14992195Y-9279551D01*
X14992195Y-9279551D01*
X14992195Y-9279551D01*
X14993952Y-9268460D01*
X14993952Y-9268460D01*
X14992195Y-9257369D01*
X14987097Y-9247363D01*
X14979156Y-9239423D01*
X14969151Y-9234325D01*
X14958060Y-9232568D01*
X14958060Y-9232568D01*
X14946969Y-9234325D01*
X14936963Y-9239423D01*
X14929023Y-9247363D01*
X14923925Y-9257369D01*
X14922168Y-9268460D01*
X14922168Y-9268460D01*
X14832934Y-9268460D01*
X14839777Y-9261617D01*
X14844875Y-9251611D01*
X14844875Y-9251611D01*
X14844875Y-9251611D01*
X14846632Y-9240520D01*
X14846632Y-9240520D01*
X14844875Y-9229429D01*
X14839777Y-9219423D01*
X14831836Y-9211483D01*
X14821831Y-9206385D01*
X14810740Y-9204628D01*
X14810740Y-9204628D01*
X14799649Y-9206385D01*
X14789643Y-9211483D01*
X14781703Y-9219423D01*
X14776605Y-9229429D01*
X14774848Y-9240520D01*
X14774848Y-9240520D01*
X14379151Y-9240520D01*
X14216590Y-9077960D01*
X14848508Y-9077960D01*
X14850265Y-9089051D01*
X14855363Y-9099057D01*
X14863303Y-9106997D01*
X14873309Y-9112095D01*
X14884400Y-9113852D01*
X14884400Y-9113852D01*
X14884400Y-9113852D01*
X14895491Y-9112095D01*
X14895491Y-9112095D01*
X14895491Y-9112095D01*
X14905497Y-9106997D01*
X14913437Y-9099057D01*
X14918535Y-9089051D01*
X14918535Y-9089051D01*
X14918535Y-9089051D01*
X14920292Y-9077960D01*
X14920292Y-9077960D01*
X14918535Y-9066869D01*
X14913437Y-9056863D01*
X14905496Y-9048923D01*
X14895491Y-9043825D01*
X14884400Y-9042068D01*
X14884400Y-9042068D01*
X14873309Y-9043825D01*
X14863303Y-9048923D01*
X14855363Y-9056863D01*
X14850265Y-9066869D01*
X14848508Y-9077960D01*
X14848508Y-9077960D01*
X14216590Y-9077960D01*
X14191851Y-9053221D01*
X14191387Y-9052702D01*
X14189253Y-9050026D01*
X14188948Y-9049643D01*
X14187385Y-9048577D01*
X14184033Y-9046292D01*
X14179248Y-9042761D01*
X14178490Y-9042360D01*
X14177728Y-9041993D01*
X14175276Y-9041237D01*
X14172042Y-9040239D01*
X14169975Y-9039516D01*
X14166429Y-9038275D01*
X14165593Y-9038117D01*
X14164750Y-9037990D01*
X14164750Y-9037990D01*
X14158803Y-9037990D01*
X14152859Y-9037768D01*
X14151936Y-9037872D01*
X14151926Y-9037789D01*
X14150396Y-9037990D01*
X13902080Y-9037990D01*
X13895376Y-9036022D01*
X13890801Y-9030741D01*
X13889806Y-9023825D01*
X13891763Y-9019540D01*
X14350668Y-9019540D01*
X14352425Y-9030631D01*
X14357523Y-9040637D01*
X14365463Y-9048577D01*
X14375469Y-9053675D01*
X14386560Y-9055432D01*
X14386560Y-9055432D01*
X14386560Y-9055432D01*
X14397651Y-9053675D01*
X14397651Y-9053675D01*
X14397651Y-9053675D01*
X14407657Y-9048577D01*
X14415597Y-9040637D01*
X14420695Y-9030631D01*
X14420695Y-9030631D01*
X14420695Y-9030631D01*
X14422452Y-9019540D01*
X14422452Y-9019540D01*
X14420695Y-9008449D01*
X14415597Y-8998443D01*
X14407656Y-8990503D01*
X14397651Y-8985405D01*
X14386560Y-8983648D01*
X14386560Y-8983648D01*
X14375469Y-8985405D01*
X14365463Y-8990503D01*
X14357523Y-8998443D01*
X14352425Y-9008449D01*
X14350668Y-9019540D01*
X14350668Y-9019540D01*
X13891763Y-9019540D01*
X13892709Y-9017470D01*
X13893312Y-9016822D01*
X13896510Y-9013624D01*
X13899977Y-9010157D01*
X13905075Y-9000151D01*
X13905075Y-9000151D01*
X13905075Y-9000151D01*
X13906832Y-8989060D01*
X13906832Y-8989060D01*
X13905075Y-8977969D01*
X13899977Y-8967963D01*
X13898182Y-8966168D01*
X13894833Y-8960036D01*
X13895332Y-8953067D01*
X13899519Y-8947473D01*
X13906065Y-8945032D01*
X13906950Y-8945000D01*
X14823525Y-8945000D01*
X14826434Y-8945346D01*
G37*
G04 #@! TD.AperFunction*
G04 #@! TA.AperFunction,NonConductor*
G36*
X13349628Y-8946969D02*
G01*
X13354203Y-8952249D01*
X13355197Y-8959165D01*
X13354717Y-8961232D01*
X13354445Y-8962069D01*
X13352688Y-8973160D01*
X13352688Y-8973160D01*
X13354340Y-8983590D01*
X13353444Y-8990520D01*
X13348945Y-8995865D01*
X13342270Y-8997929D01*
X13342093Y-8997930D01*
X13245076Y-8997930D01*
X13238373Y-8995962D01*
X13236308Y-8994298D01*
X13208178Y-8966168D01*
X13204830Y-8960036D01*
X13205328Y-8953067D01*
X13209515Y-8947473D01*
X13216062Y-8945032D01*
X13216946Y-8945000D01*
X13342924Y-8945000D01*
X13349628Y-8946969D01*
G37*
G04 #@! TD.AperFunction*
G04 #@! TA.AperFunction,NonConductor*
G36*
X13841634Y-8946969D02*
G01*
X13846209Y-8952249D01*
X13847204Y-8959165D01*
X13844301Y-8965520D01*
X13843698Y-8966168D01*
X13841903Y-8967963D01*
X13836805Y-8977969D01*
X13835048Y-8989060D01*
X13835048Y-8989060D01*
X13836805Y-9000151D01*
X13837043Y-9000885D01*
X13837243Y-9007869D01*
X13833635Y-9013853D01*
X13827365Y-9016936D01*
X13820423Y-9016139D01*
X13816482Y-9013485D01*
X13816157Y-9013161D01*
X13815694Y-9012642D01*
X13813754Y-9010210D01*
X13813254Y-9009583D01*
X13811591Y-9008449D01*
X13808339Y-9006232D01*
X13803555Y-9002701D01*
X13802796Y-9002300D01*
X13802034Y-9001933D01*
X13798638Y-9000885D01*
X13796349Y-9000179D01*
X13794282Y-8999456D01*
X13790736Y-8998215D01*
X13789899Y-8998057D01*
X13789057Y-8997930D01*
X13789057Y-8997930D01*
X13783109Y-8997930D01*
X13777166Y-8997708D01*
X13776242Y-8997812D01*
X13776233Y-8997729D01*
X13774703Y-8997930D01*
X13435067Y-8997930D01*
X13428363Y-8995962D01*
X13423788Y-8990681D01*
X13422793Y-8983765D01*
X13422820Y-8983590D01*
X13424472Y-8973160D01*
X13424472Y-8973160D01*
X13422715Y-8962069D01*
X13422443Y-8961232D01*
X13422243Y-8954248D01*
X13425851Y-8948265D01*
X13432121Y-8945182D01*
X13434236Y-8945000D01*
X13834930Y-8945000D01*
X13841634Y-8946969D01*
G37*
G04 #@! TD.AperFunction*
G04 #@! TA.AperFunction,NonConductor*
G36*
X15099274Y-9011204D02*
G01*
X15112381Y-9014368D01*
X15117120Y-9016662D01*
X15254180Y-9124087D01*
X15255245Y-9124922D01*
X15259307Y-9130607D01*
X15259996Y-9134644D01*
X15261000Y-9469000D01*
X15263134Y-9471139D01*
X15266477Y-9477274D01*
X15265972Y-9484243D01*
X15263126Y-9488666D01*
X15252018Y-9499774D01*
X15251583Y-9500467D01*
X15246349Y-9505096D01*
X15239444Y-9506160D01*
X15233059Y-9503322D01*
X15230035Y-9499498D01*
X15228397Y-9496283D01*
X15220456Y-9488343D01*
X15210451Y-9483245D01*
X15199360Y-9481488D01*
X15199360Y-9481488D01*
X15188269Y-9483245D01*
X15178263Y-9488343D01*
X15170323Y-9496283D01*
X15165951Y-9504862D01*
X15161154Y-9509942D01*
X15154372Y-9511622D01*
X15147758Y-9509368D01*
X15147592Y-9509228D01*
X15147586Y-9509236D01*
X15146797Y-9508663D01*
X15145295Y-9507897D01*
X15140215Y-9503100D01*
X15138535Y-9496318D01*
X15140789Y-9489704D01*
X15142155Y-9488081D01*
X15215900Y-9414336D01*
X15216417Y-9413874D01*
X15219477Y-9411435D01*
X15222828Y-9406519D01*
X15226359Y-9401735D01*
X15226359Y-9401735D01*
X15226758Y-9400981D01*
X15227127Y-9400213D01*
X15228881Y-9394529D01*
X15230844Y-9388917D01*
X15230845Y-9388917D01*
X15230845Y-9388916D01*
X15231003Y-9388080D01*
X15231130Y-9387237D01*
X15231130Y-9381289D01*
X15231352Y-9375346D01*
X15231248Y-9374423D01*
X15231331Y-9374413D01*
X15231130Y-9372883D01*
X15231130Y-9197098D01*
X15231169Y-9196404D01*
X15231607Y-9192517D01*
X15230501Y-9186672D01*
X15229615Y-9180791D01*
X15229615Y-9180791D01*
X15229364Y-9179977D01*
X15229082Y-9179173D01*
X15229082Y-9179173D01*
X15226303Y-9173914D01*
X15223722Y-9168556D01*
X15223722Y-9168556D01*
X15223722Y-9168555D01*
X15223244Y-9167854D01*
X15222737Y-9167167D01*
X15222736Y-9167166D01*
X15218532Y-9162961D01*
X15214485Y-9158601D01*
X15213759Y-9158021D01*
X15213811Y-9157956D01*
X15212587Y-9157016D01*
X15087596Y-9032026D01*
X15084248Y-9025894D01*
X15084746Y-9018924D01*
X15088933Y-9013331D01*
X15095480Y-9010889D01*
X15099274Y-9011204D01*
G37*
G04 #@! TD.AperFunction*
G04 #@! TA.AperFunction,NonConductor*
G36*
X14719482Y-10284964D02*
G01*
X14725076Y-10289152D01*
X14727396Y-10294643D01*
X14728345Y-10300631D01*
X14728345Y-10300631D01*
X14728345Y-10300631D01*
X14729598Y-10303091D01*
X14729822Y-10303531D01*
X14731112Y-10310398D01*
X14728484Y-10316872D01*
X14722773Y-10320897D01*
X14718774Y-10321560D01*
X14710070Y-10321560D01*
X14703366Y-10319592D01*
X14701302Y-10317928D01*
X14699756Y-10316383D01*
X14698967Y-10315809D01*
X14699142Y-10315567D01*
X14695219Y-10311861D01*
X14693540Y-10305079D01*
X14695795Y-10298465D01*
X14699729Y-10294872D01*
X14700036Y-10294695D01*
X14702655Y-10291573D01*
X14703020Y-10291175D01*
X14706381Y-10287815D01*
X14712513Y-10284466D01*
X14719482Y-10284964D01*
G37*
G04 #@! TD.AperFunction*
G04 #@! TA.AperFunction,NonConductor*
G36*
X15086960Y-9511059D02*
G01*
X15091536Y-9516339D01*
X15092530Y-9523255D01*
X15091770Y-9525650D01*
X15091866Y-9525681D01*
X15091565Y-9526609D01*
X15089808Y-9537700D01*
X15089808Y-9537700D01*
X15090665Y-9543110D01*
X15089770Y-9550040D01*
X15085270Y-9555385D01*
X15078595Y-9557449D01*
X15078418Y-9557450D01*
X15070273Y-9557450D01*
X15051243Y-9561495D01*
X15033470Y-9569408D01*
X15027892Y-9573461D01*
X15021311Y-9575809D01*
X15014505Y-9574226D01*
X15009636Y-9569216D01*
X15009554Y-9569058D01*
X15008977Y-9567926D01*
X15007417Y-9564863D01*
X14999477Y-9556923D01*
X14999476Y-9556923D01*
X14989471Y-9551825D01*
X14978380Y-9550068D01*
X14978380Y-9550068D01*
X14967289Y-9551825D01*
X14957283Y-9556923D01*
X14949343Y-9564863D01*
X14944245Y-9574869D01*
X14942488Y-9585960D01*
X14942488Y-9585960D01*
X14944245Y-9597051D01*
X14949343Y-9607057D01*
X14957283Y-9614997D01*
X14962099Y-9617451D01*
X14967289Y-9620095D01*
X14967289Y-9620095D01*
X14967289Y-9620095D01*
X14967289Y-9620095D01*
X14978088Y-9621806D01*
X14984401Y-9624799D01*
X14988094Y-9630730D01*
X14988480Y-9635349D01*
X14986940Y-9650000D01*
X14988974Y-9669348D01*
X14994986Y-9687851D01*
X14994986Y-9687851D01*
X15001517Y-9699163D01*
X15004713Y-9704699D01*
X15009248Y-9709735D01*
X15017730Y-9719156D01*
X15017730Y-9719157D01*
X15017731Y-9719157D01*
X15026041Y-9725195D01*
X15033470Y-9730592D01*
X15040293Y-9733630D01*
X15051243Y-9738505D01*
X15070273Y-9742550D01*
X15089727Y-9742550D01*
X15108757Y-9738505D01*
X15126530Y-9730592D01*
X15142269Y-9719157D01*
X15143086Y-9718250D01*
X15146138Y-9714860D01*
X15155287Y-9704699D01*
X15165014Y-9687851D01*
X15171026Y-9669348D01*
X15173060Y-9650000D01*
X15171026Y-9630652D01*
X15165014Y-9612149D01*
X15165014Y-9612149D01*
X15165014Y-9612149D01*
X15165014Y-9612149D01*
X15161379Y-9605852D01*
X15155287Y-9595301D01*
X15146876Y-9585960D01*
X15145596Y-9584538D01*
X15142573Y-9578239D01*
X15143436Y-9571306D01*
X15146353Y-9567673D01*
X15146107Y-9567427D01*
X15149337Y-9564197D01*
X15154737Y-9558797D01*
X15159108Y-9550218D01*
X15163906Y-9545138D01*
X15170688Y-9543458D01*
X15177301Y-9545712D01*
X15177468Y-9545852D01*
X15177474Y-9545844D01*
X15178263Y-9546417D01*
X15188269Y-9551515D01*
X15199360Y-9553272D01*
X15199360Y-9553272D01*
X15199360Y-9553272D01*
X15210451Y-9551515D01*
X15210451Y-9551515D01*
X15210451Y-9551515D01*
X15217355Y-9547998D01*
X15224222Y-9546708D01*
X15230696Y-9549336D01*
X15234721Y-9555046D01*
X15235306Y-9557658D01*
X15236463Y-9567925D01*
X15236463Y-9567925D01*
X15242421Y-9584952D01*
X15248924Y-9595301D01*
X15252018Y-9600226D01*
X15264774Y-9612982D01*
X15272545Y-9617865D01*
X15279945Y-9622514D01*
X15280048Y-9622579D01*
X15297074Y-9628537D01*
X15297074Y-9628537D01*
X15297075Y-9628537D01*
X15306125Y-9629557D01*
X15310504Y-9630050D01*
X15310504Y-9630050D01*
X15310505Y-9630050D01*
X15389496Y-9630050D01*
X15389496Y-9630050D01*
X15396210Y-9629293D01*
X15402925Y-9628537D01*
X15402925Y-9628537D01*
X15402925Y-9628537D01*
X15419952Y-9622579D01*
X15435226Y-9612982D01*
X15447982Y-9600226D01*
X15447982Y-9600226D01*
X15448474Y-9599734D01*
X15448601Y-9599861D01*
X15453574Y-9596371D01*
X15460555Y-9596086D01*
X15466582Y-9599620D01*
X15469742Y-9605852D01*
X15469950Y-9608116D01*
X15469950Y-10191884D01*
X15467981Y-10198588D01*
X15462701Y-10203164D01*
X15455785Y-10204158D01*
X15449430Y-10201255D01*
X15448477Y-10200263D01*
X15448474Y-10200266D01*
X15435226Y-10187018D01*
X15419952Y-10177421D01*
X15402925Y-10171463D01*
X15402925Y-10171463D01*
X15389496Y-10169950D01*
X15389495Y-10169950D01*
X15310505Y-10169950D01*
X15310504Y-10169950D01*
X15297075Y-10171463D01*
X15297074Y-10171463D01*
X15280048Y-10177421D01*
X15264774Y-10187018D01*
X15252018Y-10199774D01*
X15242421Y-10215048D01*
X15242125Y-10215663D01*
X15237442Y-10220849D01*
X15230699Y-10222680D01*
X15224037Y-10220575D01*
X15222185Y-10219051D01*
X15220456Y-10217323D01*
X15210451Y-10212225D01*
X15199360Y-10210468D01*
X15199360Y-10210468D01*
X15188269Y-10212225D01*
X15178263Y-10217323D01*
X15170323Y-10225263D01*
X15165225Y-10235269D01*
X15163468Y-10246360D01*
X15163468Y-10246360D01*
X15165225Y-10257451D01*
X15166702Y-10260351D01*
X15167992Y-10267218D01*
X15165364Y-10273692D01*
X15159653Y-10277717D01*
X15155654Y-10278380D01*
X15026953Y-10278380D01*
X15024534Y-10278142D01*
X15024193Y-10278074D01*
X15023131Y-10277863D01*
X15023131Y-10277863D01*
X15023131Y-10277863D01*
X15020939Y-10278299D01*
X15020939Y-10278299D01*
X15012830Y-10279912D01*
X15004677Y-10285360D01*
X14998009Y-10287448D01*
X14997788Y-10287450D01*
X14935031Y-10287450D01*
X14932612Y-10287212D01*
X14931210Y-10286933D01*
X14931210Y-10286933D01*
X14931210Y-10286933D01*
X14929018Y-10287369D01*
X14929017Y-10287369D01*
X14920909Y-10288982D01*
X14920479Y-10289269D01*
X14913811Y-10291357D01*
X14907073Y-10289509D01*
X14902541Y-10284589D01*
X14898197Y-10276064D01*
X14898197Y-10276064D01*
X14898197Y-10276063D01*
X14890257Y-10268123D01*
X14888650Y-10267304D01*
X14884221Y-10265047D01*
X14881082Y-10262767D01*
X14855940Y-10237625D01*
X14830200Y-10211884D01*
X14829835Y-10211486D01*
X14827216Y-10208365D01*
X14827216Y-10208365D01*
X14823688Y-10206328D01*
X14823231Y-10206037D01*
X14819894Y-10203701D01*
X14819436Y-10203487D01*
X14817689Y-10202763D01*
X14817214Y-10202590D01*
X14813202Y-10201883D01*
X14812673Y-10201766D01*
X14808738Y-10200711D01*
X14807658Y-10200617D01*
X14807681Y-10200347D01*
X14802413Y-10199288D01*
X14797396Y-10194425D01*
X14795803Y-10187622D01*
X14796391Y-10184479D01*
X14796615Y-10183792D01*
X14796615Y-10183791D01*
X14797620Y-10177448D01*
X14798372Y-10172700D01*
X14798372Y-10172700D01*
X14796615Y-10161609D01*
X14791517Y-10151603D01*
X14783576Y-10143663D01*
X14773571Y-10138565D01*
X14762480Y-10136808D01*
X14762480Y-10136808D01*
X14751389Y-10138565D01*
X14741383Y-10143663D01*
X14733443Y-10151603D01*
X14728345Y-10161609D01*
X14726588Y-10172700D01*
X14726588Y-10172700D01*
X14728345Y-10183791D01*
X14728646Y-10184719D01*
X14728304Y-10184830D01*
X14729262Y-10189926D01*
X14726636Y-10196400D01*
X14720926Y-10200427D01*
X14716924Y-10201090D01*
X14715740Y-10201090D01*
X14715200Y-10201066D01*
X14714604Y-10201014D01*
X14711141Y-10200711D01*
X14707206Y-10201766D01*
X14706677Y-10201883D01*
X14702666Y-10202590D01*
X14702193Y-10202762D01*
X14700440Y-10203489D01*
X14699986Y-10203700D01*
X14696649Y-10206037D01*
X14696192Y-10206328D01*
X14692664Y-10208365D01*
X14692664Y-10208365D01*
X14690045Y-10211486D01*
X14689680Y-10211885D01*
X14664302Y-10237262D01*
X14662646Y-10238652D01*
X14658697Y-10241417D01*
X14658241Y-10241708D01*
X14654712Y-10243745D01*
X14654712Y-10243745D01*
X14652094Y-10246866D01*
X14651728Y-10247265D01*
X14570625Y-10328368D01*
X14570226Y-10328733D01*
X14567105Y-10331352D01*
X14567105Y-10331352D01*
X14565068Y-10334881D01*
X14564777Y-10335337D01*
X14563388Y-10337321D01*
X14557930Y-10341684D01*
X14550980Y-10342404D01*
X14544745Y-10339252D01*
X14541203Y-10333229D01*
X14540830Y-10330209D01*
X14540830Y-10320956D01*
X14542798Y-10314253D01*
X14544461Y-10312189D01*
X14589100Y-10267550D01*
X14589617Y-10267088D01*
X14592677Y-10264648D01*
X14596028Y-10259733D01*
X14599559Y-10254948D01*
X14599559Y-10254948D01*
X14599959Y-10254192D01*
X14600327Y-10253428D01*
X14600327Y-10253428D01*
X14600327Y-10253427D01*
X14602081Y-10247742D01*
X14604045Y-10242130D01*
X14604045Y-10242130D01*
X14604203Y-10241294D01*
X14604330Y-10240450D01*
X14604330Y-10234504D01*
X14604552Y-10228559D01*
X14604448Y-10227636D01*
X14604531Y-10227626D01*
X14604330Y-10226096D01*
X14604330Y-9944100D01*
X14691028Y-9944100D01*
X14692785Y-9955191D01*
X14697883Y-9965197D01*
X14705823Y-9973137D01*
X14715829Y-9978235D01*
X14726920Y-9979992D01*
X14726920Y-9979992D01*
X14726920Y-9979992D01*
X14738011Y-9978235D01*
X14738011Y-9978235D01*
X14738011Y-9978235D01*
X14748017Y-9973137D01*
X14755957Y-9965197D01*
X14761055Y-9955191D01*
X14761055Y-9955191D01*
X14761055Y-9955191D01*
X14762812Y-9944100D01*
X14762812Y-9944100D01*
X14762410Y-9941560D01*
X14868828Y-9941560D01*
X14870585Y-9952651D01*
X14875683Y-9962657D01*
X14875683Y-9962657D01*
X14875683Y-9962657D01*
X14883623Y-9970597D01*
X14892202Y-9974968D01*
X14897282Y-9979766D01*
X14898961Y-9986548D01*
X14896708Y-9993161D01*
X14895341Y-9994785D01*
X14890922Y-9999204D01*
X14885825Y-10009209D01*
X14884068Y-10020300D01*
X14884068Y-10020300D01*
X14885825Y-10031391D01*
X14890923Y-10041397D01*
X14898863Y-10049337D01*
X14908869Y-10054435D01*
X14919960Y-10056192D01*
X14919960Y-10056192D01*
X14919960Y-10056192D01*
X14922567Y-10055779D01*
X14928220Y-10054884D01*
X14935149Y-10055779D01*
X14940494Y-10060279D01*
X14942558Y-10066954D01*
X14942488Y-10067940D01*
X14942488Y-10068560D01*
X14944245Y-10079651D01*
X14949343Y-10089657D01*
X14957283Y-10097597D01*
X14967289Y-10102695D01*
X14978380Y-10104452D01*
X14978380Y-10104452D01*
X14978380Y-10104452D01*
X14978537Y-10104427D01*
X14978730Y-10104452D01*
X14979356Y-10104452D01*
X14979356Y-10104533D01*
X14985467Y-10105322D01*
X14990812Y-10109822D01*
X14992876Y-10116497D01*
X14992270Y-10120506D01*
X14989500Y-10129032D01*
X14988974Y-10130652D01*
X14987863Y-10141217D01*
X14986940Y-10150000D01*
X14988974Y-10169348D01*
X14994986Y-10187851D01*
X14994986Y-10187851D01*
X15002000Y-10200000D01*
X15004713Y-10204699D01*
X15008014Y-10208365D01*
X15017730Y-10219156D01*
X15017730Y-10219157D01*
X15017731Y-10219157D01*
X15026135Y-10225263D01*
X15033470Y-10230592D01*
X15040293Y-10233630D01*
X15051243Y-10238505D01*
X15070273Y-10242550D01*
X15089727Y-10242550D01*
X15108757Y-10238505D01*
X15126530Y-10230592D01*
X15142269Y-10219157D01*
X15142365Y-10219051D01*
X15145919Y-10215103D01*
X15155287Y-10204699D01*
X15165014Y-10187851D01*
X15171026Y-10169348D01*
X15173060Y-10150000D01*
X15171026Y-10130652D01*
X15165014Y-10112149D01*
X15165014Y-10112149D01*
X15165014Y-10112149D01*
X15165014Y-10112149D01*
X15160379Y-10104120D01*
X15155287Y-10095301D01*
X15149939Y-10089361D01*
X15142270Y-10080844D01*
X15142269Y-10080843D01*
X15142269Y-10080843D01*
X15142269Y-10080843D01*
X15127324Y-10069985D01*
X15126530Y-10069408D01*
X15112885Y-10063333D01*
X15108757Y-10061495D01*
X15108757Y-10061495D01*
X15089727Y-10057450D01*
X15070273Y-10057450D01*
X15051243Y-10061495D01*
X15033470Y-10069408D01*
X15033470Y-10069408D01*
X15032744Y-10069936D01*
X15026163Y-10072283D01*
X15019358Y-10070701D01*
X15014488Y-10065690D01*
X15013208Y-10061843D01*
X15012515Y-10057469D01*
X15007417Y-10047463D01*
X14999476Y-10039523D01*
X14992311Y-10035872D01*
X14989471Y-10034425D01*
X14989471Y-10034425D01*
X14989471Y-10034425D01*
X14981290Y-10033129D01*
X14974977Y-10030136D01*
X14971283Y-10024205D01*
X14971383Y-10017219D01*
X14974462Y-10012114D01*
X14995076Y-9991499D01*
X14995472Y-9991136D01*
X14998595Y-9988516D01*
X15000633Y-9984985D01*
X15000922Y-9984533D01*
X15003259Y-9981194D01*
X15003259Y-9981194D01*
X15003475Y-9980732D01*
X15004195Y-9978993D01*
X15004369Y-9978514D01*
X15004370Y-9978514D01*
X15005078Y-9974499D01*
X15005193Y-9973977D01*
X15006249Y-9970038D01*
X15005893Y-9965980D01*
X15005870Y-9965439D01*
X15005870Y-9910060D01*
X15005894Y-9909520D01*
X15006249Y-9905462D01*
X15005193Y-9901524D01*
X15005077Y-9901001D01*
X15005063Y-9900920D01*
X15219348Y-9900920D01*
X15221105Y-9912011D01*
X15226203Y-9922017D01*
X15234143Y-9929957D01*
X15244149Y-9935055D01*
X15255240Y-9936812D01*
X15255240Y-9936812D01*
X15255240Y-9936812D01*
X15266331Y-9935055D01*
X15266331Y-9935055D01*
X15266331Y-9935055D01*
X15276337Y-9929957D01*
X15284277Y-9922017D01*
X15289375Y-9912011D01*
X15289375Y-9912011D01*
X15289375Y-9912011D01*
X15291132Y-9900920D01*
X15291132Y-9900920D01*
X15289375Y-9889829D01*
X15284277Y-9879823D01*
X15276336Y-9871883D01*
X15266331Y-9866785D01*
X15255240Y-9865028D01*
X15255240Y-9865028D01*
X15244149Y-9866785D01*
X15234143Y-9871883D01*
X15226203Y-9879823D01*
X15221105Y-9889829D01*
X15219348Y-9900920D01*
X15219348Y-9900920D01*
X15005063Y-9900920D01*
X15004370Y-9896986D01*
X15004370Y-9896986D01*
X15004196Y-9896509D01*
X15003475Y-9894767D01*
X15003259Y-9894306D01*
X15000923Y-9890969D01*
X15000632Y-9890512D01*
X14998595Y-9886984D01*
X14998595Y-9886984D01*
X14998595Y-9886984D01*
X14997369Y-9885955D01*
X14995473Y-9884365D01*
X14995076Y-9884000D01*
X14974735Y-9863659D01*
X14966502Y-9855426D01*
X14963153Y-9849294D01*
X14962870Y-9846658D01*
X14962870Y-9801556D01*
X14963023Y-9799616D01*
X14963472Y-9796780D01*
X14963472Y-9796780D01*
X14961715Y-9785689D01*
X14956617Y-9775683D01*
X14948676Y-9767743D01*
X14942436Y-9764563D01*
X14937356Y-9759765D01*
X14935676Y-9752983D01*
X14937016Y-9747885D01*
X14938383Y-9745203D01*
X14941395Y-9739291D01*
X14941395Y-9739291D01*
X14941395Y-9739291D01*
X14943152Y-9728200D01*
X14943152Y-9728200D01*
X14941395Y-9717109D01*
X14936297Y-9707103D01*
X14928356Y-9699163D01*
X14918351Y-9694065D01*
X14907260Y-9692308D01*
X14907260Y-9692308D01*
X14896169Y-9694065D01*
X14886163Y-9699163D01*
X14878223Y-9707103D01*
X14873125Y-9717109D01*
X14871368Y-9728200D01*
X14871368Y-9728200D01*
X14873125Y-9739291D01*
X14878223Y-9749297D01*
X14878223Y-9749297D01*
X14878223Y-9749297D01*
X14886163Y-9757237D01*
X14892404Y-9760417D01*
X14897484Y-9765214D01*
X14899163Y-9771997D01*
X14897823Y-9777095D01*
X14893445Y-9785689D01*
X14891688Y-9796780D01*
X14891688Y-9796780D01*
X14893445Y-9807871D01*
X14893445Y-9807871D01*
X14893445Y-9807871D01*
X14896018Y-9812923D01*
X14897370Y-9818552D01*
X14897370Y-9863659D01*
X14897346Y-9864200D01*
X14896991Y-9868258D01*
X14898046Y-9872194D01*
X14898163Y-9872722D01*
X14898870Y-9876734D01*
X14899043Y-9877209D01*
X14899767Y-9878956D01*
X14899981Y-9879414D01*
X14902317Y-9882751D01*
X14902608Y-9883208D01*
X14905187Y-9887676D01*
X14905061Y-9887749D01*
X14907389Y-9893069D01*
X14906285Y-9899968D01*
X14901627Y-9905175D01*
X14897029Y-9906886D01*
X14893629Y-9907425D01*
X14883623Y-9912523D01*
X14875683Y-9920463D01*
X14870585Y-9930469D01*
X14868828Y-9941560D01*
X14868828Y-9941560D01*
X14762410Y-9941560D01*
X14761055Y-9933009D01*
X14755957Y-9923003D01*
X14748016Y-9915063D01*
X14738011Y-9909965D01*
X14726920Y-9908208D01*
X14726920Y-9908208D01*
X14715829Y-9909965D01*
X14705823Y-9915063D01*
X14697883Y-9923003D01*
X14692785Y-9933009D01*
X14691028Y-9944100D01*
X14691028Y-9944100D01*
X14604330Y-9944100D01*
X14604330Y-9589088D01*
X14606298Y-9582384D01*
X14611579Y-9577808D01*
X14618495Y-9576814D01*
X14624019Y-9579056D01*
X14624544Y-9579437D01*
X14634549Y-9584535D01*
X14645640Y-9586292D01*
X14645640Y-9586292D01*
X14645640Y-9586292D01*
X14656731Y-9584535D01*
X14656731Y-9584535D01*
X14656731Y-9584535D01*
X14666737Y-9579437D01*
X14674677Y-9571497D01*
X14679775Y-9561491D01*
X14679775Y-9561491D01*
X14679775Y-9561491D01*
X14681532Y-9550400D01*
X14681532Y-9550400D01*
X14679775Y-9539309D01*
X14674677Y-9529304D01*
X14674296Y-9528779D01*
X14671948Y-9522199D01*
X14673530Y-9515393D01*
X14678540Y-9510523D01*
X14684328Y-9509090D01*
X15080256Y-9509090D01*
X15086960Y-9511059D01*
G37*
G04 #@! TD.AperFunction*
G04 #@! TA.AperFunction,NonConductor*
G36*
X15450436Y-10308023D02*
G01*
X15456029Y-10312210D01*
X15458471Y-10318757D01*
X15458286Y-10321947D01*
X15456864Y-10329464D01*
X15456703Y-10330117D01*
X15453052Y-10342115D01*
X15449216Y-10347956D01*
X15442833Y-10350796D01*
X15435927Y-10349733D01*
X15430692Y-10345106D01*
X15430140Y-10344134D01*
X15426517Y-10337023D01*
X15426108Y-10336614D01*
X15422760Y-10330482D01*
X15423258Y-10323513D01*
X15427445Y-10317919D01*
X15428278Y-10317347D01*
X15435226Y-10312982D01*
X15437335Y-10310873D01*
X15443467Y-10307525D01*
X15450436Y-10308023D01*
G37*
G04 #@! TD.AperFunction*
G04 #@! TA.AperFunction,NonConductor*
G36*
X15238295Y-10333149D02*
G01*
X15240359Y-10334812D01*
X15265449Y-10359902D01*
X15268798Y-10366034D01*
X15268299Y-10373003D01*
X15264112Y-10378597D01*
X15257566Y-10381038D01*
X15256681Y-10381070D01*
X15223275Y-10381070D01*
X15216572Y-10379102D01*
X15211996Y-10373821D01*
X15211002Y-10366905D01*
X15211028Y-10366730D01*
X15212392Y-10358120D01*
X15212392Y-10358120D01*
X15210483Y-10346065D01*
X15210720Y-10346027D01*
X15210560Y-10340427D01*
X15214168Y-10334444D01*
X15220439Y-10331362D01*
X15222553Y-10331180D01*
X15231591Y-10331180D01*
X15238295Y-10333149D01*
G37*
G04 #@! TD.AperFunction*
G04 #@! TA.AperFunction,NonConductor*
G36*
X15137151Y-10333149D02*
G01*
X15141727Y-10338429D01*
X15142721Y-10345345D01*
X15142440Y-10346552D01*
X15140608Y-10358120D01*
X15140608Y-10358120D01*
X15141972Y-10366730D01*
X15141076Y-10373660D01*
X15136577Y-10379005D01*
X15129902Y-10381069D01*
X15129724Y-10381070D01*
X15053961Y-10381070D01*
X15047257Y-10379102D01*
X15045193Y-10377438D01*
X15032089Y-10364334D01*
X15028741Y-10358202D01*
X15028610Y-10357509D01*
X15027755Y-10352109D01*
X15026806Y-10350246D01*
X15025516Y-10343379D01*
X15028144Y-10336905D01*
X15030965Y-10334306D01*
X15032517Y-10333269D01*
X15039185Y-10331182D01*
X15039405Y-10331180D01*
X15130447Y-10331180D01*
X15137151Y-10333149D01*
G37*
G04 #@! TD.AperFunction*
G04 #@! TA.AperFunction,NonConductor*
G36*
X14863371Y-10511290D02*
G01*
X14871695Y-10520897D01*
X14874176Y-10522491D01*
X14875852Y-10523568D01*
X14880428Y-10528849D01*
X14881422Y-10535765D01*
X14878520Y-10542120D01*
X14875852Y-10544432D01*
X14871695Y-10547103D01*
X14863371Y-10556710D01*
X14857494Y-10560487D01*
X14850507Y-10560487D01*
X14844629Y-10556710D01*
X14844629Y-10556710D01*
X14836305Y-10547103D01*
X14832148Y-10544432D01*
X14827572Y-10539151D01*
X14826578Y-10532236D01*
X14829480Y-10525880D01*
X14832148Y-10523568D01*
X14833824Y-10522491D01*
X14836305Y-10520897D01*
X14844629Y-10511290D01*
X14850506Y-10507513D01*
X14857493Y-10507513D01*
X14863371Y-10511290D01*
G37*
G04 #@! TD.AperFunction*
G04 #@! TA.AperFunction,NonConductor*
G36*
X14951096Y-10341551D02*
G01*
X14956689Y-10345738D01*
X14959131Y-10352285D01*
X14959010Y-10355109D01*
X14958533Y-10358120D01*
X14957728Y-10363200D01*
X14957728Y-10363200D01*
X14959485Y-10374291D01*
X14964583Y-10384297D01*
X14972523Y-10392237D01*
X14982528Y-10397335D01*
X14982529Y-10397335D01*
X14982529Y-10397335D01*
X14987926Y-10398190D01*
X14994239Y-10401183D01*
X14994754Y-10401669D01*
X15016520Y-10423435D01*
X15018062Y-10425314D01*
X15018857Y-10426503D01*
X15018857Y-10426503D01*
X15027589Y-10432338D01*
X15035290Y-10433870D01*
X15035290Y-10433870D01*
X15035887Y-10433989D01*
X15035887Y-10433989D01*
X15037890Y-10434387D01*
X15039292Y-10434108D01*
X15041711Y-10433870D01*
X15305160Y-10433870D01*
X15311864Y-10435839D01*
X15316439Y-10441119D01*
X15317434Y-10448035D01*
X15314531Y-10454390D01*
X15313928Y-10455038D01*
X15312563Y-10456403D01*
X15307465Y-10466409D01*
X15305708Y-10477500D01*
X15305708Y-10477500D01*
X15307465Y-10488591D01*
X15312563Y-10498597D01*
X15320503Y-10506537D01*
X15330509Y-10511635D01*
X15341600Y-10513392D01*
X15341600Y-10513392D01*
X15341600Y-10513392D01*
X15352691Y-10511635D01*
X15352691Y-10511635D01*
X15352691Y-10511635D01*
X15362697Y-10506537D01*
X15370637Y-10498597D01*
X15375735Y-10488591D01*
X15375735Y-10488591D01*
X15375735Y-10488591D01*
X15377492Y-10477500D01*
X15377492Y-10477500D01*
X15375735Y-10466409D01*
X15370637Y-10456403D01*
X15363023Y-10448790D01*
X15359675Y-10442657D01*
X15360173Y-10435688D01*
X15364360Y-10430095D01*
X15364902Y-10429711D01*
X15367499Y-10427976D01*
X15368141Y-10427547D01*
X15368579Y-10427254D01*
X15369703Y-10426503D01*
X15370497Y-10425315D01*
X15372039Y-10423436D01*
X15373895Y-10421580D01*
X15375775Y-10420038D01*
X15376001Y-10419887D01*
X15376963Y-10419243D01*
X15382798Y-10410511D01*
X15382798Y-10410511D01*
X15382873Y-10410399D01*
X15384415Y-10408520D01*
X15396346Y-10396589D01*
X15402478Y-10393241D01*
X15403170Y-10393111D01*
X15408571Y-10392255D01*
X15417172Y-10387873D01*
X15424039Y-10386583D01*
X15430513Y-10389211D01*
X15434538Y-10394922D01*
X15434838Y-10401902D01*
X15434664Y-10402532D01*
X15417703Y-10458261D01*
X15417454Y-10458935D01*
X15403697Y-10490468D01*
X15403496Y-10490886D01*
X15384430Y-10526959D01*
X15383361Y-10528640D01*
X15276090Y-10670615D01*
X15275527Y-10671263D01*
X15255846Y-10690944D01*
X15255506Y-10691259D01*
X15217883Y-10723636D01*
X15217520Y-10723926D01*
X15177583Y-10753401D01*
X15177200Y-10753662D01*
X15135171Y-10780071D01*
X15134769Y-10780303D01*
X15090886Y-10803495D01*
X15090469Y-10803696D01*
X15044973Y-10823546D01*
X15044541Y-10823715D01*
X14997690Y-10840109D01*
X14997247Y-10840246D01*
X14949301Y-10853093D01*
X14948849Y-10853196D01*
X14900079Y-10862424D01*
X14899620Y-10862493D01*
X14897775Y-10862701D01*
X14850296Y-10868051D01*
X14849834Y-10868085D01*
X14800000Y-10869950D01*
X14613225Y-10869950D01*
X14606522Y-10867982D01*
X14601946Y-10862701D01*
X14600952Y-10855785D01*
X14602177Y-10851921D01*
X14603127Y-10850055D01*
X14606115Y-10844191D01*
X14606210Y-10843592D01*
X14607872Y-10833100D01*
X14607872Y-10833100D01*
X14606115Y-10822009D01*
X14601017Y-10812003D01*
X14594932Y-10805918D01*
X14591583Y-10799786D01*
X14592082Y-10792817D01*
X14596269Y-10787223D01*
X14602815Y-10784782D01*
X14603700Y-10784750D01*
X14693543Y-10784750D01*
X14700247Y-10786719D01*
X14702311Y-10788381D01*
X14718430Y-10804500D01*
X14718893Y-10805018D01*
X14721332Y-10808077D01*
X14721332Y-10808077D01*
X14726247Y-10811428D01*
X14731032Y-10814959D01*
X14731785Y-10815358D01*
X14732552Y-10815727D01*
X14732553Y-10815727D01*
X14738238Y-10817481D01*
X14743850Y-10819445D01*
X14743850Y-10819445D01*
X14743850Y-10819445D01*
X14743850Y-10819445D01*
X14744688Y-10819603D01*
X14745530Y-10819730D01*
X14745530Y-10819730D01*
X14751477Y-10819730D01*
X14757421Y-10819952D01*
X14757421Y-10819952D01*
X14757421Y-10819952D01*
X14757421Y-10819952D01*
X14758344Y-10819848D01*
X14758354Y-10819931D01*
X14759884Y-10819730D01*
X14822047Y-10819730D01*
X14824806Y-10820041D01*
X14825115Y-10820112D01*
X14829976Y-10819747D01*
X14830438Y-10819730D01*
X14831896Y-10819730D01*
X14831896Y-10819730D01*
X14833342Y-10819512D01*
X14833796Y-10819461D01*
X14838658Y-10819097D01*
X14838953Y-10818981D01*
X14841636Y-10818262D01*
X14841949Y-10818215D01*
X14846340Y-10816100D01*
X14846761Y-10815916D01*
X14851299Y-10814135D01*
X14851547Y-10813938D01*
X14853899Y-10812460D01*
X14854184Y-10812323D01*
X14857757Y-10809007D01*
X14858106Y-10808707D01*
X14861917Y-10805668D01*
X14862095Y-10805406D01*
X14863907Y-10803301D01*
X14864139Y-10803086D01*
X14866576Y-10798864D01*
X14866820Y-10798477D01*
X14869567Y-10794447D01*
X14869661Y-10794144D01*
X14870771Y-10791599D01*
X14870930Y-10791325D01*
X14872014Y-10786573D01*
X14872134Y-10786126D01*
X14873570Y-10781470D01*
X14873570Y-10781153D01*
X14873881Y-10778394D01*
X14873936Y-10778151D01*
X14873951Y-10778085D01*
X14873587Y-10773224D01*
X14873570Y-10772762D01*
X14873570Y-10757238D01*
X14873609Y-10756544D01*
X14874047Y-10752657D01*
X14872941Y-10746812D01*
X14872055Y-10740931D01*
X14872055Y-10740931D01*
X14871803Y-10740116D01*
X14871522Y-10739312D01*
X14869063Y-10734660D01*
X14868742Y-10734053D01*
X14866162Y-10728696D01*
X14866162Y-10728696D01*
X14865682Y-10727992D01*
X14865177Y-10727307D01*
X14865177Y-10727306D01*
X14860970Y-10723100D01*
X14856925Y-10718741D01*
X14856925Y-10718741D01*
X14856925Y-10718740D01*
X14856199Y-10718161D01*
X14856251Y-10718096D01*
X14855027Y-10717157D01*
X14819668Y-10681797D01*
X14795711Y-10657840D01*
X15005988Y-10657840D01*
X15007745Y-10668931D01*
X15012843Y-10678937D01*
X15020783Y-10686877D01*
X15030789Y-10691975D01*
X15041880Y-10693732D01*
X15041880Y-10693732D01*
X15041880Y-10693732D01*
X15052971Y-10691975D01*
X15052971Y-10691975D01*
X15052971Y-10691975D01*
X15062977Y-10686877D01*
X15070917Y-10678937D01*
X15076015Y-10668931D01*
X15076015Y-10668931D01*
X15076015Y-10668931D01*
X15077772Y-10657840D01*
X15077772Y-10657840D01*
X15076015Y-10646749D01*
X15070917Y-10636743D01*
X15062976Y-10628803D01*
X15052971Y-10623705D01*
X15041880Y-10621948D01*
X15041880Y-10621948D01*
X15030789Y-10623705D01*
X15020783Y-10628803D01*
X15012843Y-10636743D01*
X15007745Y-10646749D01*
X15005988Y-10657840D01*
X15005988Y-10657840D01*
X14795711Y-10657840D01*
X14783974Y-10646104D01*
X14780626Y-10639972D01*
X14781124Y-10633003D01*
X14785311Y-10627409D01*
X14791858Y-10624967D01*
X14796236Y-10625438D01*
X14800022Y-10626550D01*
X14800023Y-10626550D01*
X14800023Y-10626550D01*
X14812977Y-10626550D01*
X14812977Y-10626550D01*
X14825407Y-10622900D01*
X14836305Y-10615897D01*
X14844629Y-10606290D01*
X14850506Y-10602513D01*
X14857493Y-10602513D01*
X14863371Y-10606290D01*
X14871695Y-10615897D01*
X14882593Y-10622900D01*
X14895022Y-10626550D01*
X14895023Y-10626550D01*
X14895023Y-10626550D01*
X14907977Y-10626550D01*
X14907977Y-10626550D01*
X14920407Y-10622900D01*
X14931305Y-10615897D01*
X14939788Y-10606106D01*
X14945170Y-10594323D01*
X14947013Y-10581500D01*
X14945170Y-10568677D01*
X14939788Y-10556894D01*
X14931305Y-10547103D01*
X14931305Y-10547103D01*
X14927148Y-10544432D01*
X14922572Y-10539151D01*
X14922107Y-10535920D01*
X15041548Y-10535920D01*
X15043305Y-10547011D01*
X15048403Y-10557017D01*
X15056343Y-10564957D01*
X15066349Y-10570055D01*
X15077440Y-10571812D01*
X15077440Y-10571812D01*
X15077440Y-10571812D01*
X15088531Y-10570055D01*
X15088531Y-10570055D01*
X15088531Y-10570055D01*
X15098537Y-10564957D01*
X15106477Y-10557017D01*
X15111575Y-10547011D01*
X15111575Y-10547011D01*
X15111575Y-10547011D01*
X15113332Y-10535920D01*
X15113332Y-10535920D01*
X15111575Y-10524829D01*
X15106477Y-10514823D01*
X15098536Y-10506883D01*
X15088531Y-10501785D01*
X15077440Y-10500028D01*
X15077440Y-10500028D01*
X15066349Y-10501785D01*
X15056343Y-10506883D01*
X15048403Y-10514823D01*
X15043305Y-10524829D01*
X15041548Y-10535920D01*
X15041548Y-10535920D01*
X14922107Y-10535920D01*
X14921578Y-10532236D01*
X14924480Y-10525880D01*
X14927148Y-10523568D01*
X14928824Y-10522491D01*
X14931305Y-10520897D01*
X14939788Y-10511106D01*
X14945170Y-10499323D01*
X14947013Y-10486500D01*
X14945170Y-10473677D01*
X14939788Y-10461894D01*
X14931305Y-10452103D01*
X14920407Y-10445100D01*
X14920406Y-10445099D01*
X14920406Y-10445099D01*
X14907977Y-10441450D01*
X14907977Y-10441450D01*
X14895023Y-10441450D01*
X14895023Y-10441450D01*
X14882593Y-10445099D01*
X14882593Y-10445100D01*
X14882593Y-10445100D01*
X14881054Y-10446089D01*
X14871695Y-10452103D01*
X14863371Y-10461710D01*
X14857494Y-10465487D01*
X14850507Y-10465487D01*
X14844629Y-10461710D01*
X14844629Y-10461710D01*
X14836305Y-10452103D01*
X14836305Y-10452103D01*
X14825407Y-10445100D01*
X14825406Y-10445099D01*
X14825406Y-10445099D01*
X14812977Y-10441450D01*
X14812977Y-10441450D01*
X14800023Y-10441450D01*
X14800023Y-10441450D01*
X14787593Y-10445099D01*
X14787593Y-10445100D01*
X14787593Y-10445100D01*
X14786054Y-10446089D01*
X14776695Y-10452103D01*
X14768212Y-10461894D01*
X14768212Y-10461894D01*
X14762830Y-10473677D01*
X14760987Y-10486500D01*
X14762830Y-10499323D01*
X14766571Y-10507513D01*
X14768212Y-10511106D01*
X14776695Y-10520897D01*
X14779176Y-10522491D01*
X14780852Y-10523568D01*
X14785428Y-10528849D01*
X14786422Y-10535765D01*
X14783520Y-10542120D01*
X14780852Y-10544432D01*
X14776695Y-10547103D01*
X14768212Y-10556894D01*
X14768212Y-10556894D01*
X14762830Y-10568677D01*
X14760987Y-10581500D01*
X14762673Y-10593228D01*
X14761678Y-10600144D01*
X14757103Y-10605424D01*
X14750399Y-10607393D01*
X14743695Y-10605424D01*
X14741631Y-10603761D01*
X14672845Y-10534975D01*
X14600342Y-10462472D01*
X14596993Y-10456339D01*
X14596710Y-10453703D01*
X14596710Y-10443644D01*
X14596710Y-10443644D01*
X14595803Y-10437625D01*
X14596219Y-10434580D01*
X14595035Y-10433260D01*
X14593801Y-10430697D01*
X14589302Y-10421356D01*
X14589302Y-10421356D01*
X14588954Y-10420632D01*
X14587818Y-10413737D01*
X14590591Y-10407324D01*
X14596390Y-10403427D01*
X14598186Y-10403004D01*
X14603616Y-10402144D01*
X14610546Y-10403039D01*
X14615891Y-10407539D01*
X14617955Y-10414214D01*
X14617803Y-10416331D01*
X14617623Y-10417471D01*
X14617368Y-10419080D01*
X14617368Y-10419080D01*
X14617368Y-10419080D01*
X14618455Y-10425940D01*
X14618060Y-10428992D01*
X14619113Y-10430148D01*
X14624223Y-10440177D01*
X14632163Y-10448117D01*
X14642169Y-10453215D01*
X14653260Y-10454972D01*
X14653260Y-10454972D01*
X14653260Y-10454972D01*
X14664351Y-10453215D01*
X14664351Y-10453215D01*
X14664351Y-10453215D01*
X14674357Y-10448117D01*
X14682297Y-10440177D01*
X14687395Y-10430171D01*
X14687395Y-10430171D01*
X14687395Y-10430171D01*
X14689152Y-10419080D01*
X14689152Y-10419080D01*
X14687395Y-10407989D01*
X14681891Y-10397187D01*
X14680602Y-10390320D01*
X14683229Y-10383846D01*
X14688940Y-10379820D01*
X14689108Y-10379764D01*
X14689750Y-10379555D01*
X14689751Y-10379555D01*
X14697295Y-10375711D01*
X14702924Y-10374360D01*
X14893279Y-10374360D01*
X14895698Y-10374598D01*
X14897100Y-10374877D01*
X14907401Y-10372828D01*
X14913929Y-10368466D01*
X14913929Y-10368466D01*
X14915457Y-10367445D01*
X14916133Y-10366993D01*
X14916927Y-10365805D01*
X14918469Y-10363926D01*
X14937994Y-10344401D01*
X14944126Y-10341053D01*
X14951096Y-10341551D01*
G37*
G04 #@! TD.AperFunction*
G04 #@! TA.AperFunction,NonConductor*
G36*
X14546964Y-10786719D02*
G01*
X14551539Y-10791999D01*
X14552534Y-10798915D01*
X14549631Y-10805270D01*
X14549028Y-10805918D01*
X14542943Y-10812003D01*
X14537845Y-10822009D01*
X14536088Y-10833100D01*
X14536088Y-10833100D01*
X14537845Y-10844191D01*
X14541783Y-10851921D01*
X14543073Y-10858788D01*
X14540445Y-10865262D01*
X14534734Y-10869287D01*
X14530734Y-10869950D01*
X14300240Y-10869950D01*
X14293536Y-10867982D01*
X14288961Y-10862701D01*
X14287966Y-10855785D01*
X14290869Y-10849430D01*
X14291472Y-10848782D01*
X14294951Y-10845303D01*
X14298757Y-10841497D01*
X14303855Y-10831491D01*
X14303855Y-10831491D01*
X14303855Y-10831491D01*
X14305612Y-10820400D01*
X14305612Y-10820400D01*
X14303855Y-10809309D01*
X14303855Y-10809309D01*
X14303855Y-10809309D01*
X14300528Y-10802779D01*
X14299239Y-10795912D01*
X14301866Y-10789438D01*
X14307577Y-10785413D01*
X14311577Y-10784750D01*
X14540260Y-10784750D01*
X14546964Y-10786719D01*
G37*
G04 #@! TD.AperFunction*
G04 #@! TA.AperFunction,NonConductor*
G36*
X13238709Y-9661273D02*
G01*
X13239961Y-9662525D01*
X13241599Y-9664415D01*
X13248547Y-9672434D01*
X13254581Y-9676312D01*
X13259157Y-9681593D01*
X13260151Y-9688509D01*
X13257249Y-9694864D01*
X13254581Y-9697175D01*
X13246007Y-9702686D01*
X13246007Y-9702686D01*
X13238792Y-9711013D01*
X13232914Y-9714790D01*
X13225927Y-9714790D01*
X13220049Y-9711013D01*
X13219436Y-9710306D01*
X13210633Y-9700146D01*
X13207281Y-9697992D01*
X13202705Y-9692711D01*
X13201711Y-9685795D01*
X13204613Y-9679440D01*
X13207281Y-9677128D01*
X13210633Y-9674974D01*
X13220058Y-9664097D01*
X13220058Y-9664096D01*
X13220157Y-9663942D01*
X13220297Y-9663821D01*
X13220638Y-9663427D01*
X13220695Y-9663476D01*
X13225437Y-9659366D01*
X13232353Y-9658371D01*
X13238709Y-9661273D01*
G37*
G04 #@! TD.AperFunction*
G04 #@! TA.AperFunction,NonConductor*
G36*
X13343101Y-9661371D02*
G01*
X13343101Y-9661371D01*
X13343262Y-9661557D01*
X13352687Y-9672434D01*
X13361261Y-9677945D01*
X13365541Y-9680695D01*
X13365425Y-9680874D01*
X13369802Y-9684666D01*
X13371770Y-9691370D01*
X13369802Y-9698074D01*
X13365425Y-9701866D01*
X13365541Y-9702045D01*
X13364795Y-9702525D01*
X13364795Y-9702525D01*
X13352687Y-9710306D01*
X13352687Y-9710306D01*
X13352687Y-9710306D01*
X13344028Y-9720298D01*
X13338151Y-9724076D01*
X13331164Y-9724076D01*
X13325286Y-9720298D01*
X13323378Y-9717329D01*
X13321658Y-9713563D01*
X13321658Y-9713563D01*
X13321197Y-9713032D01*
X13312233Y-9702686D01*
X13312232Y-9702686D01*
X13312232Y-9702685D01*
X13306198Y-9698808D01*
X13301623Y-9693527D01*
X13300629Y-9686611D01*
X13303531Y-9680256D01*
X13306198Y-9677945D01*
X13314773Y-9672434D01*
X13324198Y-9661557D01*
X13324198Y-9661557D01*
X13324358Y-9661372D01*
X13330236Y-9657594D01*
X13337223Y-9657594D01*
X13343101Y-9661371D01*
G37*
G04 #@! TD.AperFunction*
G04 #@! TA.AperFunction,NonConductor*
G36*
X13236591Y-9768247D02*
G01*
X13236591Y-9768247D01*
X13246007Y-9779114D01*
X13246007Y-9779114D01*
X13246678Y-9779695D01*
X13246452Y-9779955D01*
X13249943Y-9783983D01*
X13250939Y-9790898D01*
X13248037Y-9797254D01*
X13248036Y-9797256D01*
X13238542Y-9808213D01*
X13238316Y-9808018D01*
X13234163Y-9811613D01*
X13227247Y-9812605D01*
X13220892Y-9809700D01*
X13217737Y-9805483D01*
X13217518Y-9805003D01*
X13217517Y-9805002D01*
X13217517Y-9805002D01*
X13208604Y-9794716D01*
X13205701Y-9788360D01*
X13206696Y-9781444D01*
X13210187Y-9777415D01*
X13209962Y-9777155D01*
X13210632Y-9776575D01*
X13210633Y-9776574D01*
X13217848Y-9768247D01*
X13223726Y-9764470D01*
X13230713Y-9764470D01*
X13236591Y-9768247D01*
G37*
G04 #@! TD.AperFunction*
G04 #@! TA.AperFunction,NonConductor*
G36*
X13339634Y-9769122D02*
G01*
X13341542Y-9772091D01*
X13343183Y-9775683D01*
X13343262Y-9775857D01*
X13352687Y-9786734D01*
X13352687Y-9786734D01*
X13353268Y-9787405D01*
X13353032Y-9787609D01*
X13355973Y-9792186D01*
X13355973Y-9799173D01*
X13353447Y-9803800D01*
X13345809Y-9812615D01*
X13339931Y-9816392D01*
X13332944Y-9816392D01*
X13327066Y-9812615D01*
X13325158Y-9809646D01*
X13324198Y-9807543D01*
X13324198Y-9807543D01*
X13322413Y-9805483D01*
X13314773Y-9796666D01*
X13314772Y-9796666D01*
X13314102Y-9796085D01*
X13314327Y-9795825D01*
X13310835Y-9791795D01*
X13309842Y-9784879D01*
X13312744Y-9778524D01*
X13320891Y-9769122D01*
X13326769Y-9765344D01*
X13333756Y-9765344D01*
X13339634Y-9769122D01*
G37*
G04 #@! TD.AperFunction*
M02*
