G04 #@! TF.GenerationSoftware,KiCad,Pcbnew,7.0.7*
G04 #@! TF.CreationDate,2024-03-13T12:15:20+01:00*
G04 #@! TF.ProjectId,dictofun,64696374-6f66-4756-9e2e-6b696361645f,rev?*
G04 #@! TF.SameCoordinates,Original*
G04 #@! TF.FileFunction,Paste,Top*
G04 #@! TF.FilePolarity,Positive*
%FSLAX45Y45*%
G04 Gerber Fmt 4.5, Leading zero omitted, Abs format (unit mm)*
G04 Created by KiCad (PCBNEW 7.0.7) date 2024-03-13 12:15:20*
%MOMM*%
%LPD*%
G01*
G04 APERTURE LIST*
G04 Aperture macros list*
%AMRoundRect*
0 Rectangle with rounded corners*
0 $1 Rounding radius*
0 $2 $3 $4 $5 $6 $7 $8 $9 X,Y pos of 4 corners*
0 Add a 4 corners polygon primitive as box body*
4,1,4,$2,$3,$4,$5,$6,$7,$8,$9,$2,$3,0*
0 Add four circle primitives for the rounded corners*
1,1,$1+$1,$2,$3*
1,1,$1+$1,$4,$5*
1,1,$1+$1,$6,$7*
1,1,$1+$1,$8,$9*
0 Add four rect primitives between the rounded corners*
20,1,$1+$1,$2,$3,$4,$5,0*
20,1,$1+$1,$4,$5,$6,$7,0*
20,1,$1+$1,$6,$7,$8,$9,0*
20,1,$1+$1,$8,$9,$2,$3,0*%
%AMHorizOval*
0 Thick line with rounded ends*
0 $1 width*
0 $2 $3 position (X,Y) of the first rounded end (center of the circle)*
0 $4 $5 position (X,Y) of the second rounded end (center of the circle)*
0 Add line between two ends*
20,1,$1,$2,$3,$4,$5,0*
0 Add two circle primitives to create the rounded ends*
1,1,$1,$2,$3*
1,1,$1,$4,$5*%
G04 Aperture macros list end*
%ADD10C,0.010000*%
%ADD11RoundRect,0.147500X-0.172500X0.147500X-0.172500X-0.147500X0.172500X-0.147500X0.172500X0.147500X0*%
%ADD12RoundRect,0.140000X0.140000X0.170000X-0.140000X0.170000X-0.140000X-0.170000X0.140000X-0.170000X0*%
%ADD13RoundRect,0.140000X0.170000X-0.140000X0.170000X0.140000X-0.170000X0.140000X-0.170000X-0.140000X0*%
%ADD14RoundRect,0.062500X-0.375000X0.062500X-0.375000X-0.062500X0.375000X-0.062500X0.375000X0.062500X0*%
%ADD15RoundRect,0.062500X-0.062500X0.375000X-0.062500X-0.375000X0.062500X-0.375000X0.062500X0.375000X0*%
%ADD16RoundRect,0.157500X-0.157500X0.157500X-0.157500X-0.157500X0.157500X-0.157500X0.157500X0.157500X0*%
%ADD17RoundRect,0.135000X0.135000X0.185000X-0.135000X0.185000X-0.135000X-0.185000X0.135000X-0.185000X0*%
%ADD18RoundRect,0.135000X-0.185000X0.135000X-0.185000X-0.135000X0.185000X-0.135000X0.185000X0.135000X0*%
%ADD19RoundRect,0.218750X0.218750X0.256250X-0.218750X0.256250X-0.218750X-0.256250X0.218750X-0.256250X0*%
%ADD20RoundRect,0.135000X-0.135000X-0.185000X0.135000X-0.185000X0.135000X0.185000X-0.135000X0.185000X0*%
%ADD21RoundRect,0.140000X-0.140000X-0.170000X0.140000X-0.170000X0.140000X0.170000X-0.140000X0.170000X0*%
%ADD22R,0.850000X0.950000*%
%ADD23R,0.500000X0.800000*%
%ADD24RoundRect,0.140000X-0.170000X0.140000X-0.170000X-0.140000X0.170000X-0.140000X0.170000X0.140000X0*%
%ADD25RoundRect,0.135000X0.185000X-0.135000X0.185000X0.135000X-0.185000X0.135000X-0.185000X-0.135000X0*%
%ADD26RoundRect,0.225000X0.225000X0.250000X-0.225000X0.250000X-0.225000X-0.250000X0.225000X-0.250000X0*%
%ADD27RoundRect,0.225000X0.250000X-0.225000X0.250000X0.225000X-0.250000X0.225000X-0.250000X-0.225000X0*%
%ADD28RoundRect,0.150000X0.150000X-0.587500X0.150000X0.587500X-0.150000X0.587500X-0.150000X-0.587500X0*%
%ADD29RoundRect,0.150000X0.150000X-0.512500X0.150000X0.512500X-0.150000X0.512500X-0.150000X-0.512500X0*%
%ADD30RoundRect,0.147500X-0.147500X-0.172500X0.147500X-0.172500X0.147500X0.172500X-0.147500X0.172500X0*%
%ADD31RoundRect,0.250000X-0.850000X0.375000X-0.850000X-0.375000X0.850000X-0.375000X0.850000X0.375000X0*%
%ADD32RoundRect,0.200000X0.200000X0.275000X-0.200000X0.275000X-0.200000X-0.275000X0.200000X-0.275000X0*%
%ADD33R,0.400000X0.500000*%
%ADD34R,0.300000X0.500000*%
%ADD35RoundRect,0.225000X-0.225000X-0.250000X0.225000X-0.250000X0.225000X0.250000X-0.225000X0.250000X0*%
%ADD36R,0.600000X1.200000*%
%ADD37R,1.000000X0.900000*%
%ADD38R,0.550000X1.700000*%
%ADD39RoundRect,0.250000X-0.300000X0.300000X-0.300000X-0.300000X0.300000X-0.300000X0.300000X0.300000X0*%
%ADD40RoundRect,0.147500X0.172500X-0.147500X0.172500X0.147500X-0.172500X0.147500X-0.172500X-0.147500X0*%
%ADD41RoundRect,0.012500X0.287500X0.112500X-0.287500X0.112500X-0.287500X-0.112500X0.287500X-0.112500X0*%
%ADD42RoundRect,0.012500X0.437500X0.112500X-0.437500X0.112500X-0.437500X-0.112500X0.437500X-0.112500X0*%
%ADD43R,1.000000X0.800000*%
%ADD44RoundRect,0.147500X0.147500X0.172500X-0.147500X0.172500X-0.147500X-0.172500X0.147500X-0.172500X0*%
%ADD45C,0.910000*%
%ADD46HorizOval,0.910000X-0.100000X0.100000X0.100000X-0.100000X0*%
%ADD47RoundRect,0.250000X0.435000X0.615000X-0.435000X0.615000X-0.435000X-0.615000X0.435000X-0.615000X0*%
%ADD48RoundRect,0.125000X0.250000X0.125000X-0.250000X0.125000X-0.250000X-0.125000X0.250000X-0.125000X0*%
%ADD49R,2.000000X2.000000*%
%ADD50C,0.250000*%
%ADD51R,0.600000X0.700000*%
%ADD52R,1.000000X0.700000*%
G04 APERTURE END LIST*
D10*
X14810800Y-9227600D02*
X14811000Y-9227600D01*
X14811300Y-9227700D01*
X14811500Y-9227700D01*
X14811800Y-9227800D01*
X14812000Y-9227900D01*
X14812300Y-9228000D01*
X14812500Y-9228200D01*
X14812700Y-9228300D01*
X14812900Y-9228500D01*
X14813100Y-9228600D01*
X14813300Y-9228800D01*
X14813500Y-9229000D01*
X14813700Y-9229200D01*
X14813900Y-9229400D01*
X14814000Y-9229600D01*
X14814200Y-9229800D01*
X14814300Y-9230000D01*
X14814500Y-9230200D01*
X14814600Y-9230500D01*
X14814700Y-9230700D01*
X14814800Y-9231000D01*
X14814800Y-9231200D01*
X14814900Y-9231500D01*
X14814900Y-9231700D01*
X14815000Y-9232000D01*
X14815000Y-9232200D01*
X14815000Y-9232500D01*
X14815000Y-9247500D01*
X14815000Y-9247800D01*
X14815000Y-9248000D01*
X14814900Y-9248300D01*
X14814900Y-9248500D01*
X14814800Y-9248800D01*
X14814800Y-9249000D01*
X14814700Y-9249300D01*
X14814600Y-9249500D01*
X14814500Y-9249800D01*
X14814300Y-9250000D01*
X14814200Y-9250200D01*
X14814000Y-9250400D01*
X14813900Y-9250600D01*
X14813700Y-9250800D01*
X14813500Y-9251000D01*
X14813300Y-9251200D01*
X14813100Y-9251400D01*
X14812900Y-9251500D01*
X14812700Y-9251700D01*
X14812500Y-9251800D01*
X14812300Y-9252000D01*
X14812000Y-9252100D01*
X14811800Y-9252200D01*
X14811500Y-9252300D01*
X14811300Y-9252300D01*
X14811000Y-9252400D01*
X14810800Y-9252400D01*
X14810500Y-9252500D01*
X14810300Y-9252500D01*
X14810000Y-9252500D01*
X14765000Y-9252500D01*
X14764700Y-9252500D01*
X14764500Y-9252500D01*
X14764200Y-9252400D01*
X14764000Y-9252400D01*
X14763700Y-9252300D01*
X14763500Y-9252300D01*
X14763200Y-9252200D01*
X14763000Y-9252100D01*
X14762700Y-9252000D01*
X14762500Y-9251800D01*
X14762300Y-9251700D01*
X14762100Y-9251500D01*
X14761900Y-9251400D01*
X14761700Y-9251200D01*
X14761500Y-9251000D01*
X14761300Y-9250800D01*
X14761100Y-9250600D01*
X14761000Y-9250400D01*
X14760800Y-9250200D01*
X14760700Y-9250000D01*
X14760500Y-9249800D01*
X14760400Y-9249500D01*
X14760300Y-9249300D01*
X14760200Y-9249000D01*
X14760200Y-9248800D01*
X14760100Y-9248500D01*
X14760100Y-9248300D01*
X14760000Y-9248000D01*
X14760000Y-9247800D01*
X14760000Y-9247500D01*
X14760000Y-9232500D01*
X14760000Y-9232200D01*
X14760000Y-9232000D01*
X14760100Y-9231700D01*
X14760100Y-9231500D01*
X14760200Y-9231200D01*
X14760200Y-9231000D01*
X14760300Y-9230700D01*
X14760400Y-9230500D01*
X14760500Y-9230200D01*
X14760700Y-9230000D01*
X14760800Y-9229800D01*
X14761000Y-9229600D01*
X14761100Y-9229400D01*
X14761300Y-9229200D01*
X14761500Y-9229000D01*
X14761700Y-9228800D01*
X14761900Y-9228600D01*
X14762100Y-9228500D01*
X14762300Y-9228300D01*
X14762500Y-9228200D01*
X14762700Y-9228000D01*
X14763000Y-9227900D01*
X14763200Y-9227800D01*
X14763500Y-9227700D01*
X14763700Y-9227700D01*
X14764000Y-9227600D01*
X14764200Y-9227600D01*
X14764500Y-9227500D01*
X14764700Y-9227500D01*
X14765000Y-9227500D01*
X14810000Y-9227500D01*
X14810300Y-9227500D01*
X14810500Y-9227500D01*
X14810800Y-9227600D01*
G36*
X14810800Y-9227600D02*
G01*
X14811000Y-9227600D01*
X14811300Y-9227700D01*
X14811500Y-9227700D01*
X14811800Y-9227800D01*
X14812000Y-9227900D01*
X14812300Y-9228000D01*
X14812500Y-9228200D01*
X14812700Y-9228300D01*
X14812900Y-9228500D01*
X14813100Y-9228600D01*
X14813300Y-9228800D01*
X14813500Y-9229000D01*
X14813700Y-9229200D01*
X14813900Y-9229400D01*
X14814000Y-9229600D01*
X14814200Y-9229800D01*
X14814300Y-9230000D01*
X14814500Y-9230200D01*
X14814600Y-9230500D01*
X14814700Y-9230700D01*
X14814800Y-9231000D01*
X14814800Y-9231200D01*
X14814900Y-9231500D01*
X14814900Y-9231700D01*
X14815000Y-9232000D01*
X14815000Y-9232200D01*
X14815000Y-9232500D01*
X14815000Y-9247500D01*
X14815000Y-9247800D01*
X14815000Y-9248000D01*
X14814900Y-9248300D01*
X14814900Y-9248500D01*
X14814800Y-9248800D01*
X14814800Y-9249000D01*
X14814700Y-9249300D01*
X14814600Y-9249500D01*
X14814500Y-9249800D01*
X14814300Y-9250000D01*
X14814200Y-9250200D01*
X14814000Y-9250400D01*
X14813900Y-9250600D01*
X14813700Y-9250800D01*
X14813500Y-9251000D01*
X14813300Y-9251200D01*
X14813100Y-9251400D01*
X14812900Y-9251500D01*
X14812700Y-9251700D01*
X14812500Y-9251800D01*
X14812300Y-9252000D01*
X14812000Y-9252100D01*
X14811800Y-9252200D01*
X14811500Y-9252300D01*
X14811300Y-9252300D01*
X14811000Y-9252400D01*
X14810800Y-9252400D01*
X14810500Y-9252500D01*
X14810300Y-9252500D01*
X14810000Y-9252500D01*
X14765000Y-9252500D01*
X14764700Y-9252500D01*
X14764500Y-9252500D01*
X14764200Y-9252400D01*
X14764000Y-9252400D01*
X14763700Y-9252300D01*
X14763500Y-9252300D01*
X14763200Y-9252200D01*
X14763000Y-9252100D01*
X14762700Y-9252000D01*
X14762500Y-9251800D01*
X14762300Y-9251700D01*
X14762100Y-9251500D01*
X14761900Y-9251400D01*
X14761700Y-9251200D01*
X14761500Y-9251000D01*
X14761300Y-9250800D01*
X14761100Y-9250600D01*
X14761000Y-9250400D01*
X14760800Y-9250200D01*
X14760700Y-9250000D01*
X14760500Y-9249800D01*
X14760400Y-9249500D01*
X14760300Y-9249300D01*
X14760200Y-9249000D01*
X14760200Y-9248800D01*
X14760100Y-9248500D01*
X14760100Y-9248300D01*
X14760000Y-9248000D01*
X14760000Y-9247800D01*
X14760000Y-9247500D01*
X14760000Y-9232500D01*
X14760000Y-9232200D01*
X14760000Y-9232000D01*
X14760100Y-9231700D01*
X14760100Y-9231500D01*
X14760200Y-9231200D01*
X14760200Y-9231000D01*
X14760300Y-9230700D01*
X14760400Y-9230500D01*
X14760500Y-9230200D01*
X14760700Y-9230000D01*
X14760800Y-9229800D01*
X14761000Y-9229600D01*
X14761100Y-9229400D01*
X14761300Y-9229200D01*
X14761500Y-9229000D01*
X14761700Y-9228800D01*
X14761900Y-9228600D01*
X14762100Y-9228500D01*
X14762300Y-9228300D01*
X14762500Y-9228200D01*
X14762700Y-9228000D01*
X14763000Y-9227900D01*
X14763200Y-9227800D01*
X14763500Y-9227700D01*
X14763700Y-9227700D01*
X14764000Y-9227600D01*
X14764200Y-9227600D01*
X14764500Y-9227500D01*
X14764700Y-9227500D01*
X14765000Y-9227500D01*
X14810000Y-9227500D01*
X14810300Y-9227500D01*
X14810500Y-9227500D01*
X14810800Y-9227600D01*
G37*
X14735800Y-9227600D02*
X14736000Y-9227600D01*
X14736300Y-9227700D01*
X14736500Y-9227700D01*
X14736800Y-9227800D01*
X14737000Y-9227900D01*
X14737300Y-9228000D01*
X14737500Y-9228200D01*
X14737700Y-9228300D01*
X14737900Y-9228500D01*
X14738100Y-9228600D01*
X14738300Y-9228800D01*
X14738500Y-9229000D01*
X14738700Y-9229200D01*
X14738900Y-9229400D01*
X14739000Y-9229600D01*
X14739200Y-9229800D01*
X14739300Y-9230000D01*
X14739500Y-9230200D01*
X14739600Y-9230500D01*
X14739700Y-9230700D01*
X14739800Y-9231000D01*
X14739800Y-9231200D01*
X14739900Y-9231500D01*
X14739900Y-9231700D01*
X14740000Y-9232000D01*
X14740000Y-9232200D01*
X14740000Y-9232500D01*
X14740000Y-9247500D01*
X14740000Y-9247800D01*
X14740000Y-9248000D01*
X14739900Y-9248300D01*
X14739900Y-9248500D01*
X14739800Y-9248800D01*
X14739800Y-9249000D01*
X14739700Y-9249300D01*
X14739600Y-9249500D01*
X14739500Y-9249800D01*
X14739300Y-9250000D01*
X14739200Y-9250200D01*
X14739000Y-9250400D01*
X14738900Y-9250600D01*
X14738700Y-9250800D01*
X14738500Y-9251000D01*
X14738300Y-9251200D01*
X14738100Y-9251400D01*
X14737900Y-9251500D01*
X14737700Y-9251700D01*
X14737500Y-9251800D01*
X14737300Y-9252000D01*
X14737000Y-9252100D01*
X14736800Y-9252200D01*
X14736500Y-9252300D01*
X14736300Y-9252300D01*
X14736000Y-9252400D01*
X14735800Y-9252400D01*
X14735500Y-9252500D01*
X14735300Y-9252500D01*
X14735000Y-9252500D01*
X14690000Y-9252500D01*
X14689700Y-9252500D01*
X14689500Y-9252500D01*
X14689200Y-9252400D01*
X14689000Y-9252400D01*
X14688700Y-9252300D01*
X14688500Y-9252300D01*
X14688200Y-9252200D01*
X14688000Y-9252100D01*
X14687700Y-9252000D01*
X14687500Y-9251800D01*
X14687300Y-9251700D01*
X14687100Y-9251500D01*
X14686900Y-9251400D01*
X14686700Y-9251200D01*
X14686500Y-9251000D01*
X14686300Y-9250800D01*
X14686100Y-9250600D01*
X14686000Y-9250400D01*
X14685800Y-9250200D01*
X14685700Y-9250000D01*
X14685500Y-9249800D01*
X14685400Y-9249500D01*
X14685300Y-9249300D01*
X14685200Y-9249000D01*
X14685200Y-9248800D01*
X14685100Y-9248500D01*
X14685100Y-9248300D01*
X14685000Y-9248000D01*
X14685000Y-9247800D01*
X14685000Y-9247500D01*
X14685000Y-9232500D01*
X14685000Y-9232200D01*
X14685000Y-9232000D01*
X14685100Y-9231700D01*
X14685100Y-9231500D01*
X14685200Y-9231200D01*
X14685200Y-9231000D01*
X14685300Y-9230700D01*
X14685400Y-9230500D01*
X14685500Y-9230200D01*
X14685700Y-9230000D01*
X14685800Y-9229800D01*
X14686000Y-9229600D01*
X14686100Y-9229400D01*
X14686300Y-9229200D01*
X14686500Y-9229000D01*
X14686700Y-9228800D01*
X14686900Y-9228600D01*
X14687100Y-9228500D01*
X14687300Y-9228300D01*
X14687500Y-9228200D01*
X14687700Y-9228000D01*
X14688000Y-9227900D01*
X14688200Y-9227800D01*
X14688500Y-9227700D01*
X14688700Y-9227700D01*
X14689000Y-9227600D01*
X14689200Y-9227600D01*
X14689500Y-9227500D01*
X14689700Y-9227500D01*
X14690000Y-9227500D01*
X14735000Y-9227500D01*
X14735300Y-9227500D01*
X14735500Y-9227500D01*
X14735800Y-9227600D01*
G36*
X14735800Y-9227600D02*
G01*
X14736000Y-9227600D01*
X14736300Y-9227700D01*
X14736500Y-9227700D01*
X14736800Y-9227800D01*
X14737000Y-9227900D01*
X14737300Y-9228000D01*
X14737500Y-9228200D01*
X14737700Y-9228300D01*
X14737900Y-9228500D01*
X14738100Y-9228600D01*
X14738300Y-9228800D01*
X14738500Y-9229000D01*
X14738700Y-9229200D01*
X14738900Y-9229400D01*
X14739000Y-9229600D01*
X14739200Y-9229800D01*
X14739300Y-9230000D01*
X14739500Y-9230200D01*
X14739600Y-9230500D01*
X14739700Y-9230700D01*
X14739800Y-9231000D01*
X14739800Y-9231200D01*
X14739900Y-9231500D01*
X14739900Y-9231700D01*
X14740000Y-9232000D01*
X14740000Y-9232200D01*
X14740000Y-9232500D01*
X14740000Y-9247500D01*
X14740000Y-9247800D01*
X14740000Y-9248000D01*
X14739900Y-9248300D01*
X14739900Y-9248500D01*
X14739800Y-9248800D01*
X14739800Y-9249000D01*
X14739700Y-9249300D01*
X14739600Y-9249500D01*
X14739500Y-9249800D01*
X14739300Y-9250000D01*
X14739200Y-9250200D01*
X14739000Y-9250400D01*
X14738900Y-9250600D01*
X14738700Y-9250800D01*
X14738500Y-9251000D01*
X14738300Y-9251200D01*
X14738100Y-9251400D01*
X14737900Y-9251500D01*
X14737700Y-9251700D01*
X14737500Y-9251800D01*
X14737300Y-9252000D01*
X14737000Y-9252100D01*
X14736800Y-9252200D01*
X14736500Y-9252300D01*
X14736300Y-9252300D01*
X14736000Y-9252400D01*
X14735800Y-9252400D01*
X14735500Y-9252500D01*
X14735300Y-9252500D01*
X14735000Y-9252500D01*
X14690000Y-9252500D01*
X14689700Y-9252500D01*
X14689500Y-9252500D01*
X14689200Y-9252400D01*
X14689000Y-9252400D01*
X14688700Y-9252300D01*
X14688500Y-9252300D01*
X14688200Y-9252200D01*
X14688000Y-9252100D01*
X14687700Y-9252000D01*
X14687500Y-9251800D01*
X14687300Y-9251700D01*
X14687100Y-9251500D01*
X14686900Y-9251400D01*
X14686700Y-9251200D01*
X14686500Y-9251000D01*
X14686300Y-9250800D01*
X14686100Y-9250600D01*
X14686000Y-9250400D01*
X14685800Y-9250200D01*
X14685700Y-9250000D01*
X14685500Y-9249800D01*
X14685400Y-9249500D01*
X14685300Y-9249300D01*
X14685200Y-9249000D01*
X14685200Y-9248800D01*
X14685100Y-9248500D01*
X14685100Y-9248300D01*
X14685000Y-9248000D01*
X14685000Y-9247800D01*
X14685000Y-9247500D01*
X14685000Y-9232500D01*
X14685000Y-9232200D01*
X14685000Y-9232000D01*
X14685100Y-9231700D01*
X14685100Y-9231500D01*
X14685200Y-9231200D01*
X14685200Y-9231000D01*
X14685300Y-9230700D01*
X14685400Y-9230500D01*
X14685500Y-9230200D01*
X14685700Y-9230000D01*
X14685800Y-9229800D01*
X14686000Y-9229600D01*
X14686100Y-9229400D01*
X14686300Y-9229200D01*
X14686500Y-9229000D01*
X14686700Y-9228800D01*
X14686900Y-9228600D01*
X14687100Y-9228500D01*
X14687300Y-9228300D01*
X14687500Y-9228200D01*
X14687700Y-9228000D01*
X14688000Y-9227900D01*
X14688200Y-9227800D01*
X14688500Y-9227700D01*
X14688700Y-9227700D01*
X14689000Y-9227600D01*
X14689200Y-9227600D01*
X14689500Y-9227500D01*
X14689700Y-9227500D01*
X14690000Y-9227500D01*
X14735000Y-9227500D01*
X14735300Y-9227500D01*
X14735500Y-9227500D01*
X14735800Y-9227600D01*
G37*
D11*
X13347700Y-10464560D03*
X13347700Y-10561560D03*
D12*
X13347440Y-10373360D03*
X13251440Y-10373360D03*
X13347440Y-10652760D03*
X13251440Y-10652760D03*
D13*
X14698980Y-9583680D03*
X14698980Y-9679680D03*
X11784740Y-10355320D03*
X11784740Y-10259320D03*
X11889740Y-10355320D03*
X11889740Y-10259320D03*
D14*
X14997750Y-10459000D03*
X14997750Y-10509000D03*
X14997750Y-10559000D03*
X14997750Y-10609000D03*
D15*
X14929000Y-10677750D03*
X14879000Y-10677750D03*
X14829000Y-10677750D03*
X14779000Y-10677750D03*
D14*
X14710250Y-10609000D03*
X14710250Y-10559000D03*
X14710250Y-10509000D03*
X14710250Y-10459000D03*
D15*
X14779000Y-10390250D03*
X14829000Y-10390250D03*
X14879000Y-10390250D03*
X14929000Y-10390250D03*
D16*
X14818000Y-10570000D03*
X14890000Y-10570000D03*
X14818000Y-10498000D03*
X14890000Y-10498000D03*
D17*
X15260520Y-10426700D03*
X15158520Y-10426700D03*
D12*
X15082260Y-10274300D03*
X14986260Y-10274300D03*
D18*
X14594000Y-10499000D03*
X14594000Y-10601000D03*
D17*
X14341000Y-10368000D03*
X14239000Y-10368000D03*
X14542000Y-10368000D03*
X14440000Y-10368000D03*
D19*
X14612630Y-10751820D03*
X14455130Y-10751820D03*
D12*
X15254980Y-10520680D03*
X15158980Y-10520680D03*
D20*
X15155980Y-10617200D03*
X15257980Y-10617200D03*
D17*
X15161000Y-9130000D03*
X15059000Y-9130000D03*
D21*
X13708640Y-9968160D03*
X13804640Y-9968160D03*
D11*
X13843000Y-9217420D03*
X13843000Y-9314420D03*
D18*
X15410000Y-9979000D03*
X15410000Y-10081000D03*
D22*
X13667740Y-10564080D03*
X13667740Y-10419080D03*
X13552740Y-10419080D03*
X13552740Y-10564080D03*
D18*
X12212320Y-9153960D03*
X12212320Y-9255960D03*
D23*
X12321160Y-9292130D03*
X12411160Y-9292130D03*
X12501160Y-9292130D03*
X12591160Y-9292130D03*
X12591160Y-9172130D03*
X12501160Y-9172130D03*
X12411160Y-9172130D03*
X12321160Y-9172130D03*
D24*
X13445800Y-9026760D03*
X13445800Y-9122760D03*
D25*
X12217400Y-9479480D03*
X12217400Y-9377480D03*
D13*
X15410000Y-9848000D03*
X15410000Y-9752000D03*
D12*
X13893540Y-10830000D03*
X13797540Y-10830000D03*
D17*
X15113200Y-9989820D03*
X15011200Y-9989820D03*
D12*
X13918940Y-10320020D03*
X13822940Y-10320020D03*
D13*
X14919960Y-9677140D03*
X14919960Y-9581140D03*
D21*
X13836980Y-9433560D03*
X13932980Y-9433560D03*
D26*
X12823220Y-9852660D03*
X12668220Y-9852660D03*
D27*
X12818180Y-9391680D03*
X12818180Y-9236680D03*
D12*
X13047720Y-9286240D03*
X12951720Y-9286240D03*
X12563460Y-9038860D03*
X12467460Y-9038860D03*
X13664940Y-10698480D03*
X13568940Y-10698480D03*
D17*
X13919400Y-10416540D03*
X13817400Y-10416540D03*
D21*
X13624820Y-10281920D03*
X13720820Y-10281920D03*
D20*
X12257260Y-9039860D03*
X12359260Y-9039860D03*
D12*
X14563000Y-9010000D03*
X14467000Y-9010000D03*
D18*
X14333220Y-10517940D03*
X14333220Y-10619940D03*
D13*
X14808200Y-9677140D03*
X14808200Y-9581140D03*
D24*
X13416280Y-10174160D03*
X13416280Y-10270160D03*
D13*
X13553440Y-9311380D03*
X13553440Y-9215380D03*
D20*
X11885000Y-9600000D03*
X11987000Y-9600000D03*
D28*
X11898880Y-9400310D03*
X12088880Y-9400310D03*
X11993880Y-9212810D03*
D29*
X14019780Y-10786830D03*
X14114780Y-10786830D03*
X14209780Y-10786830D03*
X14209780Y-10559330D03*
X14019780Y-10559330D03*
D12*
X12887700Y-10187940D03*
X12791700Y-10187940D03*
D30*
X15004500Y-9800000D03*
X15101500Y-9800000D03*
D31*
X14515000Y-9132500D03*
X14515000Y-9347500D03*
D32*
X15212500Y-9270000D03*
X15047500Y-9270000D03*
D24*
X12588240Y-9405880D03*
X12588240Y-9501880D03*
D33*
X12468060Y-9630080D03*
D34*
X12418060Y-9630080D03*
X12368060Y-9630080D03*
D33*
X12318060Y-9630080D03*
X12318060Y-9530080D03*
D34*
X12368060Y-9530080D03*
X12418060Y-9530080D03*
D33*
X12468060Y-9530080D03*
D35*
X14727500Y-9000000D03*
X14882500Y-9000000D03*
X14717500Y-9460000D03*
X14872500Y-9460000D03*
D18*
X14660880Y-10180120D03*
X14660880Y-10282120D03*
D17*
X13896540Y-10632440D03*
X13794540Y-10632440D03*
D26*
X12759720Y-9618980D03*
X12604720Y-9618980D03*
D36*
X13327380Y-9257640D03*
X13447380Y-9257640D03*
D21*
X13708640Y-9866560D03*
X13804640Y-9866560D03*
D24*
X14484000Y-10502000D03*
X14484000Y-10598000D03*
D32*
X15212500Y-9420000D03*
X15047500Y-9420000D03*
D37*
X14222500Y-10105000D03*
X14382500Y-10105000D03*
X14382500Y-9695000D03*
X14222500Y-9695000D03*
D38*
X14160000Y-9900000D03*
D24*
X13510260Y-10175500D03*
X13510260Y-10271500D03*
D13*
X13647420Y-9311380D03*
X13647420Y-9215380D03*
D39*
X15250000Y-9780000D03*
X15250000Y-10060000D03*
D20*
X12090000Y-9602000D03*
X12192000Y-9602000D03*
D13*
X13745140Y-9311380D03*
X13745140Y-9215380D03*
D17*
X12982860Y-9039860D03*
X12880860Y-9039860D03*
D40*
X13947140Y-9316960D03*
X13947140Y-9219960D03*
D41*
X14895000Y-9340000D03*
X14895000Y-9290000D03*
X14895000Y-9240000D03*
X14895000Y-9190000D03*
X14895000Y-9140000D03*
D42*
X14730000Y-9140000D03*
X14730000Y-9190000D03*
X14730000Y-9290000D03*
X14730000Y-9340000D03*
D12*
X13893540Y-10535000D03*
X13797540Y-10535000D03*
D43*
X12335000Y-9845000D03*
X12485000Y-9845000D03*
X12485000Y-9955000D03*
X12335000Y-9955000D03*
D30*
X14827500Y-10179000D03*
X14924500Y-10179000D03*
D44*
X14854500Y-9777000D03*
X14757500Y-9777000D03*
D24*
X13190220Y-10188200D03*
X13190220Y-10284200D03*
D12*
X15102580Y-9893300D03*
X15006580Y-9893300D03*
D45*
X11755000Y-10017000D03*
X11920000Y-10017000D03*
X12085000Y-10017000D03*
X12085000Y-9783000D03*
X11920000Y-9783000D03*
D46*
X11765000Y-9793000D03*
D20*
X14029000Y-10410000D03*
X14131000Y-10410000D03*
D47*
X12403240Y-10534200D03*
X12403240Y-10319200D03*
X12233240Y-10534200D03*
X12233240Y-10319200D03*
D48*
X12588240Y-10617200D03*
X12588240Y-10490200D03*
X12588240Y-10363200D03*
X12588240Y-10236200D03*
X12048240Y-10236200D03*
X12048240Y-10363200D03*
X12048240Y-10490200D03*
X12048240Y-10617200D03*
D24*
X13331500Y-9026760D03*
X13331500Y-9122760D03*
D17*
X13895540Y-10730000D03*
X13793540Y-10730000D03*
D18*
X14333220Y-10716000D03*
X14333220Y-10818000D03*
D49*
X13401040Y-9624060D03*
X13158540Y-9624060D03*
X13401040Y-9866560D03*
X13158540Y-9866560D03*
D50*
X13604790Y-9620310D03*
X13604790Y-9670310D03*
X13604790Y-9720310D03*
X13604790Y-9770310D03*
X13604790Y-9820310D03*
X13604790Y-9870310D03*
X13604790Y-9920310D03*
X13604790Y-9970310D03*
X13604790Y-10020310D03*
X13054790Y-10070310D03*
X13029790Y-9470310D03*
X13004790Y-9545310D03*
X13004790Y-9645310D03*
X13004790Y-9695310D03*
X13004790Y-9745310D03*
X13004790Y-9795310D03*
X13004790Y-9845310D03*
X13004790Y-9895310D03*
X13004790Y-9945310D03*
X13004790Y-10070310D03*
X12954790Y-9470310D03*
X12954790Y-9520310D03*
X12954790Y-9570310D03*
X12954790Y-9620310D03*
X12954790Y-9670310D03*
X12954790Y-9720310D03*
X12954790Y-9770310D03*
X12954790Y-9820310D03*
X12954790Y-9870310D03*
X12954790Y-9920310D03*
X12954790Y-9970310D03*
X12954790Y-10020310D03*
X13554790Y-9420310D03*
X13554790Y-9495310D03*
X13554790Y-9545310D03*
X13554790Y-9595310D03*
X13554790Y-9645310D03*
X13554790Y-9695310D03*
X13554790Y-9745310D03*
X13554790Y-9795310D03*
X13554790Y-9845310D03*
X13554790Y-9895310D03*
X13554790Y-10070310D03*
X13504790Y-9420310D03*
X13479790Y-9470310D03*
X13479790Y-10020310D03*
X13454790Y-10070310D03*
X13429790Y-9470310D03*
X13429790Y-10020310D03*
X13404790Y-9420310D03*
X13379790Y-9470310D03*
X13379790Y-10020310D03*
X13354790Y-9420310D03*
X13354790Y-10070310D03*
X13329790Y-9470310D03*
X13304790Y-9420310D03*
X13304790Y-10070310D03*
X13279790Y-9470310D03*
X13254790Y-9420310D03*
X13254790Y-10070310D03*
X13229790Y-9470310D03*
X13229790Y-10020310D03*
X13204790Y-9420310D03*
X13204790Y-10070310D03*
X13179790Y-9470310D03*
X13179790Y-10020310D03*
X13154790Y-9420310D03*
X13154790Y-10070310D03*
X13129790Y-10020310D03*
X13104790Y-9420310D03*
X13104790Y-10070310D03*
X13079790Y-9470310D03*
X13079790Y-10020310D03*
D17*
X12773660Y-9039860D03*
X12671660Y-9039860D03*
D12*
X11783000Y-9600000D03*
X11687000Y-9600000D03*
D51*
X14702020Y-9881000D03*
X14892020Y-9881000D03*
X14892020Y-10081000D03*
D52*
X14722020Y-10081000D03*
M02*
