G04 #@! TF.GenerationSoftware,KiCad,Pcbnew,7.0.7*
G04 #@! TF.CreationDate,2024-03-13T12:15:20+01:00*
G04 #@! TF.ProjectId,dictofun,64696374-6f66-4756-9e2e-6b696361645f,rev?*
G04 #@! TF.SameCoordinates,Original*
G04 #@! TF.FileFunction,Soldermask,Top*
G04 #@! TF.FilePolarity,Negative*
%FSLAX45Y45*%
G04 Gerber Fmt 4.5, Leading zero omitted, Abs format (unit mm)*
G04 Created by KiCad (PCBNEW 7.0.7) date 2024-03-13 12:15:20*
%MOMM*%
%LPD*%
G01*
G04 APERTURE LIST*
G04 Aperture macros list*
%AMRoundRect*
0 Rectangle with rounded corners*
0 $1 Rounding radius*
0 $2 $3 $4 $5 $6 $7 $8 $9 X,Y pos of 4 corners*
0 Add a 4 corners polygon primitive as box body*
4,1,4,$2,$3,$4,$5,$6,$7,$8,$9,$2,$3,0*
0 Add four circle primitives for the rounded corners*
1,1,$1+$1,$2,$3*
1,1,$1+$1,$4,$5*
1,1,$1+$1,$6,$7*
1,1,$1+$1,$8,$9*
0 Add four rect primitives between the rounded corners*
20,1,$1+$1,$2,$3,$4,$5,0*
20,1,$1+$1,$4,$5,$6,$7,0*
20,1,$1+$1,$6,$7,$8,$9,0*
20,1,$1+$1,$8,$9,$2,$3,0*%
%AMHorizOval*
0 Thick line with rounded ends*
0 $1 width*
0 $2 $3 position (X,Y) of the first rounded end (center of the circle)*
0 $4 $5 position (X,Y) of the second rounded end (center of the circle)*
0 Add line between two ends*
20,1,$1,$2,$3,$4,$5,0*
0 Add two circle primitives to create the rounded ends*
1,1,$1,$2,$3*
1,1,$1,$4,$5*%
G04 Aperture macros list end*
%ADD10C,0.010000*%
%ADD11RoundRect,0.147500X-0.172500X0.147500X-0.172500X-0.147500X0.172500X-0.147500X0.172500X0.147500X0*%
%ADD12RoundRect,0.140000X0.140000X0.170000X-0.140000X0.170000X-0.140000X-0.170000X0.140000X-0.170000X0*%
%ADD13RoundRect,0.140000X0.170000X-0.140000X0.170000X0.140000X-0.170000X0.140000X-0.170000X-0.140000X0*%
%ADD14R,1.450000X1.450000*%
%ADD15RoundRect,0.062500X-0.375000X0.062500X-0.375000X-0.062500X0.375000X-0.062500X0.375000X0.062500X0*%
%ADD16RoundRect,0.062500X-0.062500X0.375000X-0.062500X-0.375000X0.062500X-0.375000X0.062500X0.375000X0*%
%ADD17RoundRect,0.135000X0.135000X0.185000X-0.135000X0.185000X-0.135000X-0.185000X0.135000X-0.185000X0*%
%ADD18RoundRect,0.135000X-0.185000X0.135000X-0.185000X-0.135000X0.185000X-0.135000X0.185000X0.135000X0*%
%ADD19RoundRect,0.218750X0.218750X0.256250X-0.218750X0.256250X-0.218750X-0.256250X0.218750X-0.256250X0*%
%ADD20RoundRect,0.135000X-0.135000X-0.185000X0.135000X-0.185000X0.135000X0.185000X-0.135000X0.185000X0*%
%ADD21RoundRect,0.140000X-0.140000X-0.170000X0.140000X-0.170000X0.140000X0.170000X-0.140000X0.170000X0*%
%ADD22RoundRect,0.101600X0.425000X-0.475000X0.425000X0.475000X-0.425000X0.475000X-0.425000X-0.475000X0*%
%ADD23C,1.000000*%
%ADD24R,0.500000X0.800000*%
%ADD25RoundRect,0.140000X-0.170000X0.140000X-0.170000X-0.140000X0.170000X-0.140000X0.170000X0.140000X0*%
%ADD26RoundRect,0.135000X0.185000X-0.135000X0.185000X0.135000X-0.185000X0.135000X-0.185000X-0.135000X0*%
%ADD27RoundRect,0.225000X0.225000X0.250000X-0.225000X0.250000X-0.225000X-0.250000X0.225000X-0.250000X0*%
%ADD28RoundRect,0.225000X0.250000X-0.225000X0.250000X0.225000X-0.250000X0.225000X-0.250000X-0.225000X0*%
%ADD29RoundRect,0.150000X0.150000X-0.587500X0.150000X0.587500X-0.150000X0.587500X-0.150000X-0.587500X0*%
%ADD30RoundRect,0.150000X0.150000X-0.512500X0.150000X0.512500X-0.150000X0.512500X-0.150000X-0.512500X0*%
%ADD31RoundRect,0.147500X-0.147500X-0.172500X0.147500X-0.172500X0.147500X0.172500X-0.147500X0.172500X0*%
%ADD32RoundRect,0.250000X-0.850000X0.375000X-0.850000X-0.375000X0.850000X-0.375000X0.850000X0.375000X0*%
%ADD33RoundRect,0.200000X0.200000X0.275000X-0.200000X0.275000X-0.200000X-0.275000X0.200000X-0.275000X0*%
%ADD34R,0.400000X0.500000*%
%ADD35R,0.300000X0.500000*%
%ADD36RoundRect,0.225000X-0.225000X-0.250000X0.225000X-0.250000X0.225000X0.250000X-0.225000X0.250000X0*%
%ADD37R,0.600000X1.200000*%
%ADD38R,1.000000X0.900000*%
%ADD39R,0.550000X1.700000*%
%ADD40RoundRect,0.250000X-0.300000X0.300000X-0.300000X-0.300000X0.300000X-0.300000X0.300000X0.300000X0*%
%ADD41RoundRect,0.147500X0.172500X-0.147500X0.172500X0.147500X-0.172500X0.147500X-0.172500X-0.147500X0*%
%ADD42R,1.000000X0.800000*%
%ADD43RoundRect,0.147500X0.147500X0.172500X-0.147500X0.172500X-0.147500X-0.172500X0.147500X-0.172500X0*%
%ADD44C,0.910000*%
%ADD45HorizOval,0.910000X-0.100000X0.100000X0.100000X-0.100000X0*%
%ADD46RoundRect,0.125000X0.250000X0.125000X-0.250000X0.125000X-0.250000X-0.125000X0.250000X-0.125000X0*%
%ADD47R,3.400000X4.300000*%
%ADD48R,0.850000X0.850000*%
%ADD49C,0.250000*%
%ADD50R,4.850000X4.850000*%
%ADD51R,0.600000X0.700000*%
%ADD52R,1.000000X0.700000*%
%ADD53O,1.900000X1.200000*%
%ADD54C,1.450000*%
G04 APERTURE END LIST*
D10*
X14921300Y-9320600D02*
X14921900Y-9320600D01*
X14922500Y-9320800D01*
X14923100Y-9320900D01*
X14923700Y-9321100D01*
X14924300Y-9321300D01*
X14924900Y-9321500D01*
X14925400Y-9321800D01*
X14926000Y-9322100D01*
X14926500Y-9322400D01*
X14927100Y-9322800D01*
X14927600Y-9323200D01*
X14928000Y-9323600D01*
X14928500Y-9324000D01*
X14928900Y-9324500D01*
X14929300Y-9324900D01*
X14929700Y-9325400D01*
X14930100Y-9326000D01*
X14930400Y-9326500D01*
X14930700Y-9327100D01*
X14931000Y-9327600D01*
X14931200Y-9328200D01*
X14931400Y-9328800D01*
X14931600Y-9329400D01*
X14931700Y-9330000D01*
X14931900Y-9330600D01*
X14931900Y-9331200D01*
X14932000Y-9331900D01*
X14932000Y-9332500D01*
X14932000Y-9347500D01*
X14932000Y-9348100D01*
X14931900Y-9348800D01*
X14931900Y-9349400D01*
X14931700Y-9350000D01*
X14931600Y-9350600D01*
X14931400Y-9351200D01*
X14931200Y-9351800D01*
X14931000Y-9352400D01*
X14930700Y-9352900D01*
X14930400Y-9353500D01*
X14930100Y-9354000D01*
X14929700Y-9354600D01*
X14929300Y-9355100D01*
X14928900Y-9355500D01*
X14928500Y-9356000D01*
X14928000Y-9356400D01*
X14927600Y-9356800D01*
X14927100Y-9357200D01*
X14926500Y-9357600D01*
X14926000Y-9357900D01*
X14925400Y-9358200D01*
X14924900Y-9358500D01*
X14924300Y-9358700D01*
X14923700Y-9358900D01*
X14923100Y-9359100D01*
X14922500Y-9359200D01*
X14921900Y-9359400D01*
X14921300Y-9359400D01*
X14920600Y-9359500D01*
X14920000Y-9359500D01*
X14870000Y-9359500D01*
X14869400Y-9359500D01*
X14868700Y-9359400D01*
X14868100Y-9359400D01*
X14867500Y-9359200D01*
X14866900Y-9359100D01*
X14866300Y-9358900D01*
X14865700Y-9358700D01*
X14865100Y-9358500D01*
X14864600Y-9358200D01*
X14864000Y-9357900D01*
X14863500Y-9357600D01*
X14862900Y-9357200D01*
X14862400Y-9356800D01*
X14862000Y-9356400D01*
X14861500Y-9356000D01*
X14861100Y-9355500D01*
X14860700Y-9355100D01*
X14860300Y-9354600D01*
X14859900Y-9354000D01*
X14859600Y-9353500D01*
X14859300Y-9352900D01*
X14859000Y-9352400D01*
X14858800Y-9351800D01*
X14858600Y-9351200D01*
X14858400Y-9350600D01*
X14858300Y-9350000D01*
X14858100Y-9349400D01*
X14858100Y-9348800D01*
X14858000Y-9348100D01*
X14858000Y-9347500D01*
X14858000Y-9332500D01*
X14858000Y-9331900D01*
X14858100Y-9331200D01*
X14858100Y-9330600D01*
X14858300Y-9330000D01*
X14858400Y-9329400D01*
X14858600Y-9328800D01*
X14858800Y-9328200D01*
X14859000Y-9327600D01*
X14859300Y-9327100D01*
X14859600Y-9326500D01*
X14859900Y-9326000D01*
X14860300Y-9325400D01*
X14860700Y-9324900D01*
X14861100Y-9324500D01*
X14861500Y-9324000D01*
X14862000Y-9323600D01*
X14862400Y-9323200D01*
X14862900Y-9322800D01*
X14863500Y-9322400D01*
X14864000Y-9322100D01*
X14864600Y-9321800D01*
X14865100Y-9321500D01*
X14865700Y-9321300D01*
X14866300Y-9321100D01*
X14866900Y-9320900D01*
X14867500Y-9320800D01*
X14868100Y-9320600D01*
X14868700Y-9320600D01*
X14869400Y-9320500D01*
X14870000Y-9320500D01*
X14920000Y-9320500D01*
X14920600Y-9320500D01*
X14921300Y-9320600D01*
G36*
X14921300Y-9320600D02*
G01*
X14921900Y-9320600D01*
X14922500Y-9320800D01*
X14923100Y-9320900D01*
X14923700Y-9321100D01*
X14924300Y-9321300D01*
X14924900Y-9321500D01*
X14925400Y-9321800D01*
X14926000Y-9322100D01*
X14926500Y-9322400D01*
X14927100Y-9322800D01*
X14927600Y-9323200D01*
X14928000Y-9323600D01*
X14928500Y-9324000D01*
X14928900Y-9324500D01*
X14929300Y-9324900D01*
X14929700Y-9325400D01*
X14930100Y-9326000D01*
X14930400Y-9326500D01*
X14930700Y-9327100D01*
X14931000Y-9327600D01*
X14931200Y-9328200D01*
X14931400Y-9328800D01*
X14931600Y-9329400D01*
X14931700Y-9330000D01*
X14931900Y-9330600D01*
X14931900Y-9331200D01*
X14932000Y-9331900D01*
X14932000Y-9332500D01*
X14932000Y-9347500D01*
X14932000Y-9348100D01*
X14931900Y-9348800D01*
X14931900Y-9349400D01*
X14931700Y-9350000D01*
X14931600Y-9350600D01*
X14931400Y-9351200D01*
X14931200Y-9351800D01*
X14931000Y-9352400D01*
X14930700Y-9352900D01*
X14930400Y-9353500D01*
X14930100Y-9354000D01*
X14929700Y-9354600D01*
X14929300Y-9355100D01*
X14928900Y-9355500D01*
X14928500Y-9356000D01*
X14928000Y-9356400D01*
X14927600Y-9356800D01*
X14927100Y-9357200D01*
X14926500Y-9357600D01*
X14926000Y-9357900D01*
X14925400Y-9358200D01*
X14924900Y-9358500D01*
X14924300Y-9358700D01*
X14923700Y-9358900D01*
X14923100Y-9359100D01*
X14922500Y-9359200D01*
X14921900Y-9359400D01*
X14921300Y-9359400D01*
X14920600Y-9359500D01*
X14920000Y-9359500D01*
X14870000Y-9359500D01*
X14869400Y-9359500D01*
X14868700Y-9359400D01*
X14868100Y-9359400D01*
X14867500Y-9359200D01*
X14866900Y-9359100D01*
X14866300Y-9358900D01*
X14865700Y-9358700D01*
X14865100Y-9358500D01*
X14864600Y-9358200D01*
X14864000Y-9357900D01*
X14863500Y-9357600D01*
X14862900Y-9357200D01*
X14862400Y-9356800D01*
X14862000Y-9356400D01*
X14861500Y-9356000D01*
X14861100Y-9355500D01*
X14860700Y-9355100D01*
X14860300Y-9354600D01*
X14859900Y-9354000D01*
X14859600Y-9353500D01*
X14859300Y-9352900D01*
X14859000Y-9352400D01*
X14858800Y-9351800D01*
X14858600Y-9351200D01*
X14858400Y-9350600D01*
X14858300Y-9350000D01*
X14858100Y-9349400D01*
X14858100Y-9348800D01*
X14858000Y-9348100D01*
X14858000Y-9347500D01*
X14858000Y-9332500D01*
X14858000Y-9331900D01*
X14858100Y-9331200D01*
X14858100Y-9330600D01*
X14858300Y-9330000D01*
X14858400Y-9329400D01*
X14858600Y-9328800D01*
X14858800Y-9328200D01*
X14859000Y-9327600D01*
X14859300Y-9327100D01*
X14859600Y-9326500D01*
X14859900Y-9326000D01*
X14860300Y-9325400D01*
X14860700Y-9324900D01*
X14861100Y-9324500D01*
X14861500Y-9324000D01*
X14862000Y-9323600D01*
X14862400Y-9323200D01*
X14862900Y-9322800D01*
X14863500Y-9322400D01*
X14864000Y-9322100D01*
X14864600Y-9321800D01*
X14865100Y-9321500D01*
X14865700Y-9321300D01*
X14866300Y-9321100D01*
X14866900Y-9320900D01*
X14867500Y-9320800D01*
X14868100Y-9320600D01*
X14868700Y-9320600D01*
X14869400Y-9320500D01*
X14870000Y-9320500D01*
X14920000Y-9320500D01*
X14920600Y-9320500D01*
X14921300Y-9320600D01*
G37*
X14921300Y-9270600D02*
X14921900Y-9270600D01*
X14922500Y-9270800D01*
X14923100Y-9270900D01*
X14923700Y-9271100D01*
X14924300Y-9271300D01*
X14924900Y-9271500D01*
X14925400Y-9271800D01*
X14926000Y-9272100D01*
X14926500Y-9272400D01*
X14927100Y-9272800D01*
X14927600Y-9273200D01*
X14928000Y-9273600D01*
X14928500Y-9274000D01*
X14928900Y-9274500D01*
X14929300Y-9274900D01*
X14929700Y-9275400D01*
X14930100Y-9276000D01*
X14930400Y-9276500D01*
X14930700Y-9277100D01*
X14931000Y-9277600D01*
X14931200Y-9278200D01*
X14931400Y-9278800D01*
X14931600Y-9279400D01*
X14931700Y-9280000D01*
X14931900Y-9280600D01*
X14931900Y-9281200D01*
X14932000Y-9281900D01*
X14932000Y-9282500D01*
X14932000Y-9297500D01*
X14932000Y-9298100D01*
X14931900Y-9298800D01*
X14931900Y-9299400D01*
X14931700Y-9300000D01*
X14931600Y-9300600D01*
X14931400Y-9301200D01*
X14931200Y-9301800D01*
X14931000Y-9302400D01*
X14930700Y-9302900D01*
X14930400Y-9303500D01*
X14930100Y-9304000D01*
X14929700Y-9304600D01*
X14929300Y-9305100D01*
X14928900Y-9305500D01*
X14928500Y-9306000D01*
X14928000Y-9306400D01*
X14927600Y-9306800D01*
X14927100Y-9307200D01*
X14926500Y-9307600D01*
X14926000Y-9307900D01*
X14925400Y-9308200D01*
X14924900Y-9308500D01*
X14924300Y-9308700D01*
X14923700Y-9308900D01*
X14923100Y-9309100D01*
X14922500Y-9309200D01*
X14921900Y-9309400D01*
X14921300Y-9309400D01*
X14920600Y-9309500D01*
X14920000Y-9309500D01*
X14870000Y-9309500D01*
X14869400Y-9309500D01*
X14868700Y-9309400D01*
X14868100Y-9309400D01*
X14867500Y-9309200D01*
X14866900Y-9309100D01*
X14866300Y-9308900D01*
X14865700Y-9308700D01*
X14865100Y-9308500D01*
X14864600Y-9308200D01*
X14864000Y-9307900D01*
X14863500Y-9307600D01*
X14862900Y-9307200D01*
X14862400Y-9306800D01*
X14862000Y-9306400D01*
X14861500Y-9306000D01*
X14861100Y-9305500D01*
X14860700Y-9305100D01*
X14860300Y-9304600D01*
X14859900Y-9304000D01*
X14859600Y-9303500D01*
X14859300Y-9302900D01*
X14859000Y-9302400D01*
X14858800Y-9301800D01*
X14858600Y-9301200D01*
X14858400Y-9300600D01*
X14858300Y-9300000D01*
X14858100Y-9299400D01*
X14858100Y-9298800D01*
X14858000Y-9298100D01*
X14858000Y-9297500D01*
X14858000Y-9282500D01*
X14858000Y-9281900D01*
X14858100Y-9281200D01*
X14858100Y-9280600D01*
X14858300Y-9280000D01*
X14858400Y-9279400D01*
X14858600Y-9278800D01*
X14858800Y-9278200D01*
X14859000Y-9277600D01*
X14859300Y-9277100D01*
X14859600Y-9276500D01*
X14859900Y-9276000D01*
X14860300Y-9275400D01*
X14860700Y-9274900D01*
X14861100Y-9274500D01*
X14861500Y-9274000D01*
X14862000Y-9273600D01*
X14862400Y-9273200D01*
X14862900Y-9272800D01*
X14863500Y-9272400D01*
X14864000Y-9272100D01*
X14864600Y-9271800D01*
X14865100Y-9271500D01*
X14865700Y-9271300D01*
X14866300Y-9271100D01*
X14866900Y-9270900D01*
X14867500Y-9270800D01*
X14868100Y-9270600D01*
X14868700Y-9270600D01*
X14869400Y-9270500D01*
X14870000Y-9270500D01*
X14920000Y-9270500D01*
X14920600Y-9270500D01*
X14921300Y-9270600D01*
G36*
X14921300Y-9270600D02*
G01*
X14921900Y-9270600D01*
X14922500Y-9270800D01*
X14923100Y-9270900D01*
X14923700Y-9271100D01*
X14924300Y-9271300D01*
X14924900Y-9271500D01*
X14925400Y-9271800D01*
X14926000Y-9272100D01*
X14926500Y-9272400D01*
X14927100Y-9272800D01*
X14927600Y-9273200D01*
X14928000Y-9273600D01*
X14928500Y-9274000D01*
X14928900Y-9274500D01*
X14929300Y-9274900D01*
X14929700Y-9275400D01*
X14930100Y-9276000D01*
X14930400Y-9276500D01*
X14930700Y-9277100D01*
X14931000Y-9277600D01*
X14931200Y-9278200D01*
X14931400Y-9278800D01*
X14931600Y-9279400D01*
X14931700Y-9280000D01*
X14931900Y-9280600D01*
X14931900Y-9281200D01*
X14932000Y-9281900D01*
X14932000Y-9282500D01*
X14932000Y-9297500D01*
X14932000Y-9298100D01*
X14931900Y-9298800D01*
X14931900Y-9299400D01*
X14931700Y-9300000D01*
X14931600Y-9300600D01*
X14931400Y-9301200D01*
X14931200Y-9301800D01*
X14931000Y-9302400D01*
X14930700Y-9302900D01*
X14930400Y-9303500D01*
X14930100Y-9304000D01*
X14929700Y-9304600D01*
X14929300Y-9305100D01*
X14928900Y-9305500D01*
X14928500Y-9306000D01*
X14928000Y-9306400D01*
X14927600Y-9306800D01*
X14927100Y-9307200D01*
X14926500Y-9307600D01*
X14926000Y-9307900D01*
X14925400Y-9308200D01*
X14924900Y-9308500D01*
X14924300Y-9308700D01*
X14923700Y-9308900D01*
X14923100Y-9309100D01*
X14922500Y-9309200D01*
X14921900Y-9309400D01*
X14921300Y-9309400D01*
X14920600Y-9309500D01*
X14920000Y-9309500D01*
X14870000Y-9309500D01*
X14869400Y-9309500D01*
X14868700Y-9309400D01*
X14868100Y-9309400D01*
X14867500Y-9309200D01*
X14866900Y-9309100D01*
X14866300Y-9308900D01*
X14865700Y-9308700D01*
X14865100Y-9308500D01*
X14864600Y-9308200D01*
X14864000Y-9307900D01*
X14863500Y-9307600D01*
X14862900Y-9307200D01*
X14862400Y-9306800D01*
X14862000Y-9306400D01*
X14861500Y-9306000D01*
X14861100Y-9305500D01*
X14860700Y-9305100D01*
X14860300Y-9304600D01*
X14859900Y-9304000D01*
X14859600Y-9303500D01*
X14859300Y-9302900D01*
X14859000Y-9302400D01*
X14858800Y-9301800D01*
X14858600Y-9301200D01*
X14858400Y-9300600D01*
X14858300Y-9300000D01*
X14858100Y-9299400D01*
X14858100Y-9298800D01*
X14858000Y-9298100D01*
X14858000Y-9297500D01*
X14858000Y-9282500D01*
X14858000Y-9281900D01*
X14858100Y-9281200D01*
X14858100Y-9280600D01*
X14858300Y-9280000D01*
X14858400Y-9279400D01*
X14858600Y-9278800D01*
X14858800Y-9278200D01*
X14859000Y-9277600D01*
X14859300Y-9277100D01*
X14859600Y-9276500D01*
X14859900Y-9276000D01*
X14860300Y-9275400D01*
X14860700Y-9274900D01*
X14861100Y-9274500D01*
X14861500Y-9274000D01*
X14862000Y-9273600D01*
X14862400Y-9273200D01*
X14862900Y-9272800D01*
X14863500Y-9272400D01*
X14864000Y-9272100D01*
X14864600Y-9271800D01*
X14865100Y-9271500D01*
X14865700Y-9271300D01*
X14866300Y-9271100D01*
X14866900Y-9270900D01*
X14867500Y-9270800D01*
X14868100Y-9270600D01*
X14868700Y-9270600D01*
X14869400Y-9270500D01*
X14870000Y-9270500D01*
X14920000Y-9270500D01*
X14920600Y-9270500D01*
X14921300Y-9270600D01*
G37*
X14921300Y-9220600D02*
X14921900Y-9220600D01*
X14922500Y-9220800D01*
X14923100Y-9220900D01*
X14923700Y-9221100D01*
X14924300Y-9221300D01*
X14924900Y-9221500D01*
X14925400Y-9221800D01*
X14926000Y-9222100D01*
X14926500Y-9222400D01*
X14927100Y-9222800D01*
X14927600Y-9223200D01*
X14928000Y-9223600D01*
X14928500Y-9224000D01*
X14928900Y-9224500D01*
X14929300Y-9224900D01*
X14929700Y-9225400D01*
X14930100Y-9226000D01*
X14930400Y-9226500D01*
X14930700Y-9227100D01*
X14931000Y-9227600D01*
X14931200Y-9228200D01*
X14931400Y-9228800D01*
X14931600Y-9229400D01*
X14931700Y-9230000D01*
X14931900Y-9230600D01*
X14931900Y-9231200D01*
X14932000Y-9231900D01*
X14932000Y-9232500D01*
X14932000Y-9247500D01*
X14932000Y-9248100D01*
X14931900Y-9248800D01*
X14931900Y-9249400D01*
X14931700Y-9250000D01*
X14931600Y-9250600D01*
X14931400Y-9251200D01*
X14931200Y-9251800D01*
X14931000Y-9252400D01*
X14930700Y-9252900D01*
X14930400Y-9253500D01*
X14930100Y-9254000D01*
X14929700Y-9254600D01*
X14929300Y-9255100D01*
X14928900Y-9255500D01*
X14928500Y-9256000D01*
X14928000Y-9256400D01*
X14927600Y-9256800D01*
X14927100Y-9257200D01*
X14926500Y-9257600D01*
X14926000Y-9257900D01*
X14925400Y-9258200D01*
X14924900Y-9258500D01*
X14924300Y-9258700D01*
X14923700Y-9258900D01*
X14923100Y-9259100D01*
X14922500Y-9259200D01*
X14921900Y-9259400D01*
X14921300Y-9259400D01*
X14920600Y-9259500D01*
X14920000Y-9259500D01*
X14870000Y-9259500D01*
X14869400Y-9259500D01*
X14868700Y-9259400D01*
X14868100Y-9259400D01*
X14867500Y-9259200D01*
X14866900Y-9259100D01*
X14866300Y-9258900D01*
X14865700Y-9258700D01*
X14865100Y-9258500D01*
X14864600Y-9258200D01*
X14864000Y-9257900D01*
X14863500Y-9257600D01*
X14862900Y-9257200D01*
X14862400Y-9256800D01*
X14862000Y-9256400D01*
X14861500Y-9256000D01*
X14861100Y-9255500D01*
X14860700Y-9255100D01*
X14860300Y-9254600D01*
X14859900Y-9254000D01*
X14859600Y-9253500D01*
X14859300Y-9252900D01*
X14859000Y-9252400D01*
X14858800Y-9251800D01*
X14858600Y-9251200D01*
X14858400Y-9250600D01*
X14858300Y-9250000D01*
X14858100Y-9249400D01*
X14858100Y-9248800D01*
X14858000Y-9248100D01*
X14858000Y-9247500D01*
X14858000Y-9232500D01*
X14858000Y-9231900D01*
X14858100Y-9231200D01*
X14858100Y-9230600D01*
X14858300Y-9230000D01*
X14858400Y-9229400D01*
X14858600Y-9228800D01*
X14858800Y-9228200D01*
X14859000Y-9227600D01*
X14859300Y-9227100D01*
X14859600Y-9226500D01*
X14859900Y-9226000D01*
X14860300Y-9225400D01*
X14860700Y-9224900D01*
X14861100Y-9224500D01*
X14861500Y-9224000D01*
X14862000Y-9223600D01*
X14862400Y-9223200D01*
X14862900Y-9222800D01*
X14863500Y-9222400D01*
X14864000Y-9222100D01*
X14864600Y-9221800D01*
X14865100Y-9221500D01*
X14865700Y-9221300D01*
X14866300Y-9221100D01*
X14866900Y-9220900D01*
X14867500Y-9220800D01*
X14868100Y-9220600D01*
X14868700Y-9220600D01*
X14869400Y-9220500D01*
X14870000Y-9220500D01*
X14920000Y-9220500D01*
X14920600Y-9220500D01*
X14921300Y-9220600D01*
G36*
X14921300Y-9220600D02*
G01*
X14921900Y-9220600D01*
X14922500Y-9220800D01*
X14923100Y-9220900D01*
X14923700Y-9221100D01*
X14924300Y-9221300D01*
X14924900Y-9221500D01*
X14925400Y-9221800D01*
X14926000Y-9222100D01*
X14926500Y-9222400D01*
X14927100Y-9222800D01*
X14927600Y-9223200D01*
X14928000Y-9223600D01*
X14928500Y-9224000D01*
X14928900Y-9224500D01*
X14929300Y-9224900D01*
X14929700Y-9225400D01*
X14930100Y-9226000D01*
X14930400Y-9226500D01*
X14930700Y-9227100D01*
X14931000Y-9227600D01*
X14931200Y-9228200D01*
X14931400Y-9228800D01*
X14931600Y-9229400D01*
X14931700Y-9230000D01*
X14931900Y-9230600D01*
X14931900Y-9231200D01*
X14932000Y-9231900D01*
X14932000Y-9232500D01*
X14932000Y-9247500D01*
X14932000Y-9248100D01*
X14931900Y-9248800D01*
X14931900Y-9249400D01*
X14931700Y-9250000D01*
X14931600Y-9250600D01*
X14931400Y-9251200D01*
X14931200Y-9251800D01*
X14931000Y-9252400D01*
X14930700Y-9252900D01*
X14930400Y-9253500D01*
X14930100Y-9254000D01*
X14929700Y-9254600D01*
X14929300Y-9255100D01*
X14928900Y-9255500D01*
X14928500Y-9256000D01*
X14928000Y-9256400D01*
X14927600Y-9256800D01*
X14927100Y-9257200D01*
X14926500Y-9257600D01*
X14926000Y-9257900D01*
X14925400Y-9258200D01*
X14924900Y-9258500D01*
X14924300Y-9258700D01*
X14923700Y-9258900D01*
X14923100Y-9259100D01*
X14922500Y-9259200D01*
X14921900Y-9259400D01*
X14921300Y-9259400D01*
X14920600Y-9259500D01*
X14920000Y-9259500D01*
X14870000Y-9259500D01*
X14869400Y-9259500D01*
X14868700Y-9259400D01*
X14868100Y-9259400D01*
X14867500Y-9259200D01*
X14866900Y-9259100D01*
X14866300Y-9258900D01*
X14865700Y-9258700D01*
X14865100Y-9258500D01*
X14864600Y-9258200D01*
X14864000Y-9257900D01*
X14863500Y-9257600D01*
X14862900Y-9257200D01*
X14862400Y-9256800D01*
X14862000Y-9256400D01*
X14861500Y-9256000D01*
X14861100Y-9255500D01*
X14860700Y-9255100D01*
X14860300Y-9254600D01*
X14859900Y-9254000D01*
X14859600Y-9253500D01*
X14859300Y-9252900D01*
X14859000Y-9252400D01*
X14858800Y-9251800D01*
X14858600Y-9251200D01*
X14858400Y-9250600D01*
X14858300Y-9250000D01*
X14858100Y-9249400D01*
X14858100Y-9248800D01*
X14858000Y-9248100D01*
X14858000Y-9247500D01*
X14858000Y-9232500D01*
X14858000Y-9231900D01*
X14858100Y-9231200D01*
X14858100Y-9230600D01*
X14858300Y-9230000D01*
X14858400Y-9229400D01*
X14858600Y-9228800D01*
X14858800Y-9228200D01*
X14859000Y-9227600D01*
X14859300Y-9227100D01*
X14859600Y-9226500D01*
X14859900Y-9226000D01*
X14860300Y-9225400D01*
X14860700Y-9224900D01*
X14861100Y-9224500D01*
X14861500Y-9224000D01*
X14862000Y-9223600D01*
X14862400Y-9223200D01*
X14862900Y-9222800D01*
X14863500Y-9222400D01*
X14864000Y-9222100D01*
X14864600Y-9221800D01*
X14865100Y-9221500D01*
X14865700Y-9221300D01*
X14866300Y-9221100D01*
X14866900Y-9220900D01*
X14867500Y-9220800D01*
X14868100Y-9220600D01*
X14868700Y-9220600D01*
X14869400Y-9220500D01*
X14870000Y-9220500D01*
X14920000Y-9220500D01*
X14920600Y-9220500D01*
X14921300Y-9220600D01*
G37*
X14921300Y-9170600D02*
X14921900Y-9170600D01*
X14922500Y-9170800D01*
X14923100Y-9170900D01*
X14923700Y-9171100D01*
X14924300Y-9171300D01*
X14924900Y-9171500D01*
X14925400Y-9171800D01*
X14926000Y-9172100D01*
X14926500Y-9172400D01*
X14927100Y-9172800D01*
X14927600Y-9173200D01*
X14928000Y-9173600D01*
X14928500Y-9174000D01*
X14928900Y-9174500D01*
X14929300Y-9174900D01*
X14929700Y-9175400D01*
X14930100Y-9176000D01*
X14930400Y-9176500D01*
X14930700Y-9177100D01*
X14931000Y-9177600D01*
X14931200Y-9178200D01*
X14931400Y-9178800D01*
X14931600Y-9179400D01*
X14931700Y-9180000D01*
X14931900Y-9180600D01*
X14931900Y-9181200D01*
X14932000Y-9181900D01*
X14932000Y-9182500D01*
X14932000Y-9197500D01*
X14932000Y-9198100D01*
X14931900Y-9198800D01*
X14931900Y-9199400D01*
X14931700Y-9200000D01*
X14931600Y-9200600D01*
X14931400Y-9201200D01*
X14931200Y-9201800D01*
X14931000Y-9202400D01*
X14930700Y-9202900D01*
X14930400Y-9203500D01*
X14930100Y-9204000D01*
X14929700Y-9204600D01*
X14929300Y-9205100D01*
X14928900Y-9205500D01*
X14928500Y-9206000D01*
X14928000Y-9206400D01*
X14927600Y-9206800D01*
X14927100Y-9207200D01*
X14926500Y-9207600D01*
X14926000Y-9207900D01*
X14925400Y-9208200D01*
X14924900Y-9208500D01*
X14924300Y-9208700D01*
X14923700Y-9208900D01*
X14923100Y-9209100D01*
X14922500Y-9209200D01*
X14921900Y-9209400D01*
X14921300Y-9209400D01*
X14920600Y-9209500D01*
X14920000Y-9209500D01*
X14870000Y-9209500D01*
X14869400Y-9209500D01*
X14868700Y-9209400D01*
X14868100Y-9209400D01*
X14867500Y-9209200D01*
X14866900Y-9209100D01*
X14866300Y-9208900D01*
X14865700Y-9208700D01*
X14865100Y-9208500D01*
X14864600Y-9208200D01*
X14864000Y-9207900D01*
X14863500Y-9207600D01*
X14862900Y-9207200D01*
X14862400Y-9206800D01*
X14862000Y-9206400D01*
X14861500Y-9206000D01*
X14861100Y-9205500D01*
X14860700Y-9205100D01*
X14860300Y-9204600D01*
X14859900Y-9204000D01*
X14859600Y-9203500D01*
X14859300Y-9202900D01*
X14859000Y-9202400D01*
X14858800Y-9201800D01*
X14858600Y-9201200D01*
X14858400Y-9200600D01*
X14858300Y-9200000D01*
X14858100Y-9199400D01*
X14858100Y-9198800D01*
X14858000Y-9198100D01*
X14858000Y-9197500D01*
X14858000Y-9182500D01*
X14858000Y-9181900D01*
X14858100Y-9181200D01*
X14858100Y-9180600D01*
X14858300Y-9180000D01*
X14858400Y-9179400D01*
X14858600Y-9178800D01*
X14858800Y-9178200D01*
X14859000Y-9177600D01*
X14859300Y-9177100D01*
X14859600Y-9176500D01*
X14859900Y-9176000D01*
X14860300Y-9175400D01*
X14860700Y-9174900D01*
X14861100Y-9174500D01*
X14861500Y-9174000D01*
X14862000Y-9173600D01*
X14862400Y-9173200D01*
X14862900Y-9172800D01*
X14863500Y-9172400D01*
X14864000Y-9172100D01*
X14864600Y-9171800D01*
X14865100Y-9171500D01*
X14865700Y-9171300D01*
X14866300Y-9171100D01*
X14866900Y-9170900D01*
X14867500Y-9170800D01*
X14868100Y-9170600D01*
X14868700Y-9170600D01*
X14869400Y-9170500D01*
X14870000Y-9170500D01*
X14920000Y-9170500D01*
X14920600Y-9170500D01*
X14921300Y-9170600D01*
G36*
X14921300Y-9170600D02*
G01*
X14921900Y-9170600D01*
X14922500Y-9170800D01*
X14923100Y-9170900D01*
X14923700Y-9171100D01*
X14924300Y-9171300D01*
X14924900Y-9171500D01*
X14925400Y-9171800D01*
X14926000Y-9172100D01*
X14926500Y-9172400D01*
X14927100Y-9172800D01*
X14927600Y-9173200D01*
X14928000Y-9173600D01*
X14928500Y-9174000D01*
X14928900Y-9174500D01*
X14929300Y-9174900D01*
X14929700Y-9175400D01*
X14930100Y-9176000D01*
X14930400Y-9176500D01*
X14930700Y-9177100D01*
X14931000Y-9177600D01*
X14931200Y-9178200D01*
X14931400Y-9178800D01*
X14931600Y-9179400D01*
X14931700Y-9180000D01*
X14931900Y-9180600D01*
X14931900Y-9181200D01*
X14932000Y-9181900D01*
X14932000Y-9182500D01*
X14932000Y-9197500D01*
X14932000Y-9198100D01*
X14931900Y-9198800D01*
X14931900Y-9199400D01*
X14931700Y-9200000D01*
X14931600Y-9200600D01*
X14931400Y-9201200D01*
X14931200Y-9201800D01*
X14931000Y-9202400D01*
X14930700Y-9202900D01*
X14930400Y-9203500D01*
X14930100Y-9204000D01*
X14929700Y-9204600D01*
X14929300Y-9205100D01*
X14928900Y-9205500D01*
X14928500Y-9206000D01*
X14928000Y-9206400D01*
X14927600Y-9206800D01*
X14927100Y-9207200D01*
X14926500Y-9207600D01*
X14926000Y-9207900D01*
X14925400Y-9208200D01*
X14924900Y-9208500D01*
X14924300Y-9208700D01*
X14923700Y-9208900D01*
X14923100Y-9209100D01*
X14922500Y-9209200D01*
X14921900Y-9209400D01*
X14921300Y-9209400D01*
X14920600Y-9209500D01*
X14920000Y-9209500D01*
X14870000Y-9209500D01*
X14869400Y-9209500D01*
X14868700Y-9209400D01*
X14868100Y-9209400D01*
X14867500Y-9209200D01*
X14866900Y-9209100D01*
X14866300Y-9208900D01*
X14865700Y-9208700D01*
X14865100Y-9208500D01*
X14864600Y-9208200D01*
X14864000Y-9207900D01*
X14863500Y-9207600D01*
X14862900Y-9207200D01*
X14862400Y-9206800D01*
X14862000Y-9206400D01*
X14861500Y-9206000D01*
X14861100Y-9205500D01*
X14860700Y-9205100D01*
X14860300Y-9204600D01*
X14859900Y-9204000D01*
X14859600Y-9203500D01*
X14859300Y-9202900D01*
X14859000Y-9202400D01*
X14858800Y-9201800D01*
X14858600Y-9201200D01*
X14858400Y-9200600D01*
X14858300Y-9200000D01*
X14858100Y-9199400D01*
X14858100Y-9198800D01*
X14858000Y-9198100D01*
X14858000Y-9197500D01*
X14858000Y-9182500D01*
X14858000Y-9181900D01*
X14858100Y-9181200D01*
X14858100Y-9180600D01*
X14858300Y-9180000D01*
X14858400Y-9179400D01*
X14858600Y-9178800D01*
X14858800Y-9178200D01*
X14859000Y-9177600D01*
X14859300Y-9177100D01*
X14859600Y-9176500D01*
X14859900Y-9176000D01*
X14860300Y-9175400D01*
X14860700Y-9174900D01*
X14861100Y-9174500D01*
X14861500Y-9174000D01*
X14862000Y-9173600D01*
X14862400Y-9173200D01*
X14862900Y-9172800D01*
X14863500Y-9172400D01*
X14864000Y-9172100D01*
X14864600Y-9171800D01*
X14865100Y-9171500D01*
X14865700Y-9171300D01*
X14866300Y-9171100D01*
X14866900Y-9170900D01*
X14867500Y-9170800D01*
X14868100Y-9170600D01*
X14868700Y-9170600D01*
X14869400Y-9170500D01*
X14870000Y-9170500D01*
X14920000Y-9170500D01*
X14920600Y-9170500D01*
X14921300Y-9170600D01*
G37*
X14921300Y-9120600D02*
X14921900Y-9120600D01*
X14922500Y-9120800D01*
X14923100Y-9120900D01*
X14923700Y-9121100D01*
X14924300Y-9121300D01*
X14924900Y-9121500D01*
X14925400Y-9121800D01*
X14926000Y-9122100D01*
X14926500Y-9122400D01*
X14927100Y-9122800D01*
X14927600Y-9123200D01*
X14928000Y-9123600D01*
X14928500Y-9124000D01*
X14928900Y-9124500D01*
X14929300Y-9124900D01*
X14929700Y-9125400D01*
X14930100Y-9126000D01*
X14930400Y-9126500D01*
X14930700Y-9127100D01*
X14931000Y-9127600D01*
X14931200Y-9128200D01*
X14931400Y-9128800D01*
X14931600Y-9129400D01*
X14931700Y-9130000D01*
X14931900Y-9130600D01*
X14931900Y-9131200D01*
X14932000Y-9131900D01*
X14932000Y-9132500D01*
X14932000Y-9147500D01*
X14932000Y-9148100D01*
X14931900Y-9148800D01*
X14931900Y-9149400D01*
X14931700Y-9150000D01*
X14931600Y-9150600D01*
X14931400Y-9151200D01*
X14931200Y-9151800D01*
X14931000Y-9152400D01*
X14930700Y-9152900D01*
X14930400Y-9153500D01*
X14930100Y-9154000D01*
X14929700Y-9154600D01*
X14929300Y-9155100D01*
X14928900Y-9155500D01*
X14928500Y-9156000D01*
X14928000Y-9156400D01*
X14927600Y-9156800D01*
X14927100Y-9157200D01*
X14926500Y-9157600D01*
X14926000Y-9157900D01*
X14925400Y-9158200D01*
X14924900Y-9158500D01*
X14924300Y-9158700D01*
X14923700Y-9158900D01*
X14923100Y-9159100D01*
X14922500Y-9159200D01*
X14921900Y-9159400D01*
X14921300Y-9159400D01*
X14920600Y-9159500D01*
X14920000Y-9159500D01*
X14870000Y-9159500D01*
X14869400Y-9159500D01*
X14868700Y-9159400D01*
X14868100Y-9159400D01*
X14867500Y-9159200D01*
X14866900Y-9159100D01*
X14866300Y-9158900D01*
X14865700Y-9158700D01*
X14865100Y-9158500D01*
X14864600Y-9158200D01*
X14864000Y-9157900D01*
X14863500Y-9157600D01*
X14862900Y-9157200D01*
X14862400Y-9156800D01*
X14862000Y-9156400D01*
X14861500Y-9156000D01*
X14861100Y-9155500D01*
X14860700Y-9155100D01*
X14860300Y-9154600D01*
X14859900Y-9154000D01*
X14859600Y-9153500D01*
X14859300Y-9152900D01*
X14859000Y-9152400D01*
X14858800Y-9151800D01*
X14858600Y-9151200D01*
X14858400Y-9150600D01*
X14858300Y-9150000D01*
X14858100Y-9149400D01*
X14858100Y-9148800D01*
X14858000Y-9148100D01*
X14858000Y-9147500D01*
X14858000Y-9132500D01*
X14858000Y-9131900D01*
X14858100Y-9131200D01*
X14858100Y-9130600D01*
X14858300Y-9130000D01*
X14858400Y-9129400D01*
X14858600Y-9128800D01*
X14858800Y-9128200D01*
X14859000Y-9127600D01*
X14859300Y-9127100D01*
X14859600Y-9126500D01*
X14859900Y-9126000D01*
X14860300Y-9125400D01*
X14860700Y-9124900D01*
X14861100Y-9124500D01*
X14861500Y-9124000D01*
X14862000Y-9123600D01*
X14862400Y-9123200D01*
X14862900Y-9122800D01*
X14863500Y-9122400D01*
X14864000Y-9122100D01*
X14864600Y-9121800D01*
X14865100Y-9121500D01*
X14865700Y-9121300D01*
X14866300Y-9121100D01*
X14866900Y-9120900D01*
X14867500Y-9120800D01*
X14868100Y-9120600D01*
X14868700Y-9120600D01*
X14869400Y-9120500D01*
X14870000Y-9120500D01*
X14920000Y-9120500D01*
X14920600Y-9120500D01*
X14921300Y-9120600D01*
G36*
X14921300Y-9120600D02*
G01*
X14921900Y-9120600D01*
X14922500Y-9120800D01*
X14923100Y-9120900D01*
X14923700Y-9121100D01*
X14924300Y-9121300D01*
X14924900Y-9121500D01*
X14925400Y-9121800D01*
X14926000Y-9122100D01*
X14926500Y-9122400D01*
X14927100Y-9122800D01*
X14927600Y-9123200D01*
X14928000Y-9123600D01*
X14928500Y-9124000D01*
X14928900Y-9124500D01*
X14929300Y-9124900D01*
X14929700Y-9125400D01*
X14930100Y-9126000D01*
X14930400Y-9126500D01*
X14930700Y-9127100D01*
X14931000Y-9127600D01*
X14931200Y-9128200D01*
X14931400Y-9128800D01*
X14931600Y-9129400D01*
X14931700Y-9130000D01*
X14931900Y-9130600D01*
X14931900Y-9131200D01*
X14932000Y-9131900D01*
X14932000Y-9132500D01*
X14932000Y-9147500D01*
X14932000Y-9148100D01*
X14931900Y-9148800D01*
X14931900Y-9149400D01*
X14931700Y-9150000D01*
X14931600Y-9150600D01*
X14931400Y-9151200D01*
X14931200Y-9151800D01*
X14931000Y-9152400D01*
X14930700Y-9152900D01*
X14930400Y-9153500D01*
X14930100Y-9154000D01*
X14929700Y-9154600D01*
X14929300Y-9155100D01*
X14928900Y-9155500D01*
X14928500Y-9156000D01*
X14928000Y-9156400D01*
X14927600Y-9156800D01*
X14927100Y-9157200D01*
X14926500Y-9157600D01*
X14926000Y-9157900D01*
X14925400Y-9158200D01*
X14924900Y-9158500D01*
X14924300Y-9158700D01*
X14923700Y-9158900D01*
X14923100Y-9159100D01*
X14922500Y-9159200D01*
X14921900Y-9159400D01*
X14921300Y-9159400D01*
X14920600Y-9159500D01*
X14920000Y-9159500D01*
X14870000Y-9159500D01*
X14869400Y-9159500D01*
X14868700Y-9159400D01*
X14868100Y-9159400D01*
X14867500Y-9159200D01*
X14866900Y-9159100D01*
X14866300Y-9158900D01*
X14865700Y-9158700D01*
X14865100Y-9158500D01*
X14864600Y-9158200D01*
X14864000Y-9157900D01*
X14863500Y-9157600D01*
X14862900Y-9157200D01*
X14862400Y-9156800D01*
X14862000Y-9156400D01*
X14861500Y-9156000D01*
X14861100Y-9155500D01*
X14860700Y-9155100D01*
X14860300Y-9154600D01*
X14859900Y-9154000D01*
X14859600Y-9153500D01*
X14859300Y-9152900D01*
X14859000Y-9152400D01*
X14858800Y-9151800D01*
X14858600Y-9151200D01*
X14858400Y-9150600D01*
X14858300Y-9150000D01*
X14858100Y-9149400D01*
X14858100Y-9148800D01*
X14858000Y-9148100D01*
X14858000Y-9147500D01*
X14858000Y-9132500D01*
X14858000Y-9131900D01*
X14858100Y-9131200D01*
X14858100Y-9130600D01*
X14858300Y-9130000D01*
X14858400Y-9129400D01*
X14858600Y-9128800D01*
X14858800Y-9128200D01*
X14859000Y-9127600D01*
X14859300Y-9127100D01*
X14859600Y-9126500D01*
X14859900Y-9126000D01*
X14860300Y-9125400D01*
X14860700Y-9124900D01*
X14861100Y-9124500D01*
X14861500Y-9124000D01*
X14862000Y-9123600D01*
X14862400Y-9123200D01*
X14862900Y-9122800D01*
X14863500Y-9122400D01*
X14864000Y-9122100D01*
X14864600Y-9121800D01*
X14865100Y-9121500D01*
X14865700Y-9121300D01*
X14866300Y-9121100D01*
X14866900Y-9120900D01*
X14867500Y-9120800D01*
X14868100Y-9120600D01*
X14868700Y-9120600D01*
X14869400Y-9120500D01*
X14870000Y-9120500D01*
X14920000Y-9120500D01*
X14920600Y-9120500D01*
X14921300Y-9120600D01*
G37*
X14771300Y-9320600D02*
X14771900Y-9320600D01*
X14772500Y-9320800D01*
X14773100Y-9320900D01*
X14773700Y-9321100D01*
X14774300Y-9321300D01*
X14774900Y-9321500D01*
X14775400Y-9321800D01*
X14776000Y-9322100D01*
X14776500Y-9322400D01*
X14777100Y-9322800D01*
X14777600Y-9323200D01*
X14778000Y-9323600D01*
X14778500Y-9324000D01*
X14778900Y-9324500D01*
X14779300Y-9324900D01*
X14779700Y-9325400D01*
X14780100Y-9326000D01*
X14780400Y-9326500D01*
X14780700Y-9327100D01*
X14781000Y-9327600D01*
X14781200Y-9328200D01*
X14781400Y-9328800D01*
X14781600Y-9329400D01*
X14781700Y-9330000D01*
X14781900Y-9330600D01*
X14781900Y-9331200D01*
X14782000Y-9331900D01*
X14782000Y-9332500D01*
X14782000Y-9347500D01*
X14782000Y-9348100D01*
X14781900Y-9348800D01*
X14781900Y-9349400D01*
X14781700Y-9350000D01*
X14781600Y-9350600D01*
X14781400Y-9351200D01*
X14781200Y-9351800D01*
X14781000Y-9352400D01*
X14780700Y-9352900D01*
X14780400Y-9353500D01*
X14780100Y-9354000D01*
X14779700Y-9354600D01*
X14779300Y-9355100D01*
X14778900Y-9355500D01*
X14778500Y-9356000D01*
X14778000Y-9356400D01*
X14777600Y-9356800D01*
X14777100Y-9357200D01*
X14776500Y-9357600D01*
X14776000Y-9357900D01*
X14775400Y-9358200D01*
X14774900Y-9358500D01*
X14774300Y-9358700D01*
X14773700Y-9358900D01*
X14773100Y-9359100D01*
X14772500Y-9359200D01*
X14771900Y-9359400D01*
X14771300Y-9359400D01*
X14770600Y-9359500D01*
X14770000Y-9359500D01*
X14690000Y-9359500D01*
X14689400Y-9359500D01*
X14688700Y-9359400D01*
X14688100Y-9359400D01*
X14687500Y-9359200D01*
X14686900Y-9359100D01*
X14686300Y-9358900D01*
X14685700Y-9358700D01*
X14685100Y-9358500D01*
X14684600Y-9358200D01*
X14684000Y-9357900D01*
X14683500Y-9357600D01*
X14682900Y-9357200D01*
X14682400Y-9356800D01*
X14682000Y-9356400D01*
X14681500Y-9356000D01*
X14681100Y-9355500D01*
X14680700Y-9355100D01*
X14680300Y-9354600D01*
X14679900Y-9354000D01*
X14679600Y-9353500D01*
X14679300Y-9352900D01*
X14679000Y-9352400D01*
X14678800Y-9351800D01*
X14678600Y-9351200D01*
X14678400Y-9350600D01*
X14678300Y-9350000D01*
X14678100Y-9349400D01*
X14678100Y-9348800D01*
X14678000Y-9348100D01*
X14678000Y-9347500D01*
X14678000Y-9332500D01*
X14678000Y-9331900D01*
X14678100Y-9331200D01*
X14678100Y-9330600D01*
X14678300Y-9330000D01*
X14678400Y-9329400D01*
X14678600Y-9328800D01*
X14678800Y-9328200D01*
X14679000Y-9327600D01*
X14679300Y-9327100D01*
X14679600Y-9326500D01*
X14679900Y-9326000D01*
X14680300Y-9325400D01*
X14680700Y-9324900D01*
X14681100Y-9324500D01*
X14681500Y-9324000D01*
X14682000Y-9323600D01*
X14682400Y-9323200D01*
X14682900Y-9322800D01*
X14683500Y-9322400D01*
X14684000Y-9322100D01*
X14684600Y-9321800D01*
X14685100Y-9321500D01*
X14685700Y-9321300D01*
X14686300Y-9321100D01*
X14686900Y-9320900D01*
X14687500Y-9320800D01*
X14688100Y-9320600D01*
X14688700Y-9320600D01*
X14689400Y-9320500D01*
X14690000Y-9320500D01*
X14770000Y-9320500D01*
X14770600Y-9320500D01*
X14771300Y-9320600D01*
G36*
X14771300Y-9320600D02*
G01*
X14771900Y-9320600D01*
X14772500Y-9320800D01*
X14773100Y-9320900D01*
X14773700Y-9321100D01*
X14774300Y-9321300D01*
X14774900Y-9321500D01*
X14775400Y-9321800D01*
X14776000Y-9322100D01*
X14776500Y-9322400D01*
X14777100Y-9322800D01*
X14777600Y-9323200D01*
X14778000Y-9323600D01*
X14778500Y-9324000D01*
X14778900Y-9324500D01*
X14779300Y-9324900D01*
X14779700Y-9325400D01*
X14780100Y-9326000D01*
X14780400Y-9326500D01*
X14780700Y-9327100D01*
X14781000Y-9327600D01*
X14781200Y-9328200D01*
X14781400Y-9328800D01*
X14781600Y-9329400D01*
X14781700Y-9330000D01*
X14781900Y-9330600D01*
X14781900Y-9331200D01*
X14782000Y-9331900D01*
X14782000Y-9332500D01*
X14782000Y-9347500D01*
X14782000Y-9348100D01*
X14781900Y-9348800D01*
X14781900Y-9349400D01*
X14781700Y-9350000D01*
X14781600Y-9350600D01*
X14781400Y-9351200D01*
X14781200Y-9351800D01*
X14781000Y-9352400D01*
X14780700Y-9352900D01*
X14780400Y-9353500D01*
X14780100Y-9354000D01*
X14779700Y-9354600D01*
X14779300Y-9355100D01*
X14778900Y-9355500D01*
X14778500Y-9356000D01*
X14778000Y-9356400D01*
X14777600Y-9356800D01*
X14777100Y-9357200D01*
X14776500Y-9357600D01*
X14776000Y-9357900D01*
X14775400Y-9358200D01*
X14774900Y-9358500D01*
X14774300Y-9358700D01*
X14773700Y-9358900D01*
X14773100Y-9359100D01*
X14772500Y-9359200D01*
X14771900Y-9359400D01*
X14771300Y-9359400D01*
X14770600Y-9359500D01*
X14770000Y-9359500D01*
X14690000Y-9359500D01*
X14689400Y-9359500D01*
X14688700Y-9359400D01*
X14688100Y-9359400D01*
X14687500Y-9359200D01*
X14686900Y-9359100D01*
X14686300Y-9358900D01*
X14685700Y-9358700D01*
X14685100Y-9358500D01*
X14684600Y-9358200D01*
X14684000Y-9357900D01*
X14683500Y-9357600D01*
X14682900Y-9357200D01*
X14682400Y-9356800D01*
X14682000Y-9356400D01*
X14681500Y-9356000D01*
X14681100Y-9355500D01*
X14680700Y-9355100D01*
X14680300Y-9354600D01*
X14679900Y-9354000D01*
X14679600Y-9353500D01*
X14679300Y-9352900D01*
X14679000Y-9352400D01*
X14678800Y-9351800D01*
X14678600Y-9351200D01*
X14678400Y-9350600D01*
X14678300Y-9350000D01*
X14678100Y-9349400D01*
X14678100Y-9348800D01*
X14678000Y-9348100D01*
X14678000Y-9347500D01*
X14678000Y-9332500D01*
X14678000Y-9331900D01*
X14678100Y-9331200D01*
X14678100Y-9330600D01*
X14678300Y-9330000D01*
X14678400Y-9329400D01*
X14678600Y-9328800D01*
X14678800Y-9328200D01*
X14679000Y-9327600D01*
X14679300Y-9327100D01*
X14679600Y-9326500D01*
X14679900Y-9326000D01*
X14680300Y-9325400D01*
X14680700Y-9324900D01*
X14681100Y-9324500D01*
X14681500Y-9324000D01*
X14682000Y-9323600D01*
X14682400Y-9323200D01*
X14682900Y-9322800D01*
X14683500Y-9322400D01*
X14684000Y-9322100D01*
X14684600Y-9321800D01*
X14685100Y-9321500D01*
X14685700Y-9321300D01*
X14686300Y-9321100D01*
X14686900Y-9320900D01*
X14687500Y-9320800D01*
X14688100Y-9320600D01*
X14688700Y-9320600D01*
X14689400Y-9320500D01*
X14690000Y-9320500D01*
X14770000Y-9320500D01*
X14770600Y-9320500D01*
X14771300Y-9320600D01*
G37*
X14771300Y-9270600D02*
X14771900Y-9270600D01*
X14772500Y-9270800D01*
X14773100Y-9270900D01*
X14773700Y-9271100D01*
X14774300Y-9271300D01*
X14774900Y-9271500D01*
X14775400Y-9271800D01*
X14776000Y-9272100D01*
X14776500Y-9272400D01*
X14777100Y-9272800D01*
X14777600Y-9273200D01*
X14778000Y-9273600D01*
X14778500Y-9274000D01*
X14778900Y-9274500D01*
X14779300Y-9274900D01*
X14779700Y-9275400D01*
X14780100Y-9276000D01*
X14780400Y-9276500D01*
X14780700Y-9277100D01*
X14781000Y-9277600D01*
X14781200Y-9278200D01*
X14781400Y-9278800D01*
X14781600Y-9279400D01*
X14781700Y-9280000D01*
X14781900Y-9280600D01*
X14781900Y-9281200D01*
X14782000Y-9281900D01*
X14782000Y-9282500D01*
X14782000Y-9297500D01*
X14782000Y-9298100D01*
X14781900Y-9298800D01*
X14781900Y-9299400D01*
X14781700Y-9300000D01*
X14781600Y-9300600D01*
X14781400Y-9301200D01*
X14781200Y-9301800D01*
X14781000Y-9302400D01*
X14780700Y-9302900D01*
X14780400Y-9303500D01*
X14780100Y-9304000D01*
X14779700Y-9304600D01*
X14779300Y-9305100D01*
X14778900Y-9305500D01*
X14778500Y-9306000D01*
X14778000Y-9306400D01*
X14777600Y-9306800D01*
X14777100Y-9307200D01*
X14776500Y-9307600D01*
X14776000Y-9307900D01*
X14775400Y-9308200D01*
X14774900Y-9308500D01*
X14774300Y-9308700D01*
X14773700Y-9308900D01*
X14773100Y-9309100D01*
X14772500Y-9309200D01*
X14771900Y-9309400D01*
X14771300Y-9309400D01*
X14770600Y-9309500D01*
X14770000Y-9309500D01*
X14690000Y-9309500D01*
X14689400Y-9309500D01*
X14688700Y-9309400D01*
X14688100Y-9309400D01*
X14687500Y-9309200D01*
X14686900Y-9309100D01*
X14686300Y-9308900D01*
X14685700Y-9308700D01*
X14685100Y-9308500D01*
X14684600Y-9308200D01*
X14684000Y-9307900D01*
X14683500Y-9307600D01*
X14682900Y-9307200D01*
X14682400Y-9306800D01*
X14682000Y-9306400D01*
X14681500Y-9306000D01*
X14681100Y-9305500D01*
X14680700Y-9305100D01*
X14680300Y-9304600D01*
X14679900Y-9304000D01*
X14679600Y-9303500D01*
X14679300Y-9302900D01*
X14679000Y-9302400D01*
X14678800Y-9301800D01*
X14678600Y-9301200D01*
X14678400Y-9300600D01*
X14678300Y-9300000D01*
X14678100Y-9299400D01*
X14678100Y-9298800D01*
X14678000Y-9298100D01*
X14678000Y-9297500D01*
X14678000Y-9282500D01*
X14678000Y-9281900D01*
X14678100Y-9281200D01*
X14678100Y-9280600D01*
X14678300Y-9280000D01*
X14678400Y-9279400D01*
X14678600Y-9278800D01*
X14678800Y-9278200D01*
X14679000Y-9277600D01*
X14679300Y-9277100D01*
X14679600Y-9276500D01*
X14679900Y-9276000D01*
X14680300Y-9275400D01*
X14680700Y-9274900D01*
X14681100Y-9274500D01*
X14681500Y-9274000D01*
X14682000Y-9273600D01*
X14682400Y-9273200D01*
X14682900Y-9272800D01*
X14683500Y-9272400D01*
X14684000Y-9272100D01*
X14684600Y-9271800D01*
X14685100Y-9271500D01*
X14685700Y-9271300D01*
X14686300Y-9271100D01*
X14686900Y-9270900D01*
X14687500Y-9270800D01*
X14688100Y-9270600D01*
X14688700Y-9270600D01*
X14689400Y-9270500D01*
X14690000Y-9270500D01*
X14770000Y-9270500D01*
X14770600Y-9270500D01*
X14771300Y-9270600D01*
G36*
X14771300Y-9270600D02*
G01*
X14771900Y-9270600D01*
X14772500Y-9270800D01*
X14773100Y-9270900D01*
X14773700Y-9271100D01*
X14774300Y-9271300D01*
X14774900Y-9271500D01*
X14775400Y-9271800D01*
X14776000Y-9272100D01*
X14776500Y-9272400D01*
X14777100Y-9272800D01*
X14777600Y-9273200D01*
X14778000Y-9273600D01*
X14778500Y-9274000D01*
X14778900Y-9274500D01*
X14779300Y-9274900D01*
X14779700Y-9275400D01*
X14780100Y-9276000D01*
X14780400Y-9276500D01*
X14780700Y-9277100D01*
X14781000Y-9277600D01*
X14781200Y-9278200D01*
X14781400Y-9278800D01*
X14781600Y-9279400D01*
X14781700Y-9280000D01*
X14781900Y-9280600D01*
X14781900Y-9281200D01*
X14782000Y-9281900D01*
X14782000Y-9282500D01*
X14782000Y-9297500D01*
X14782000Y-9298100D01*
X14781900Y-9298800D01*
X14781900Y-9299400D01*
X14781700Y-9300000D01*
X14781600Y-9300600D01*
X14781400Y-9301200D01*
X14781200Y-9301800D01*
X14781000Y-9302400D01*
X14780700Y-9302900D01*
X14780400Y-9303500D01*
X14780100Y-9304000D01*
X14779700Y-9304600D01*
X14779300Y-9305100D01*
X14778900Y-9305500D01*
X14778500Y-9306000D01*
X14778000Y-9306400D01*
X14777600Y-9306800D01*
X14777100Y-9307200D01*
X14776500Y-9307600D01*
X14776000Y-9307900D01*
X14775400Y-9308200D01*
X14774900Y-9308500D01*
X14774300Y-9308700D01*
X14773700Y-9308900D01*
X14773100Y-9309100D01*
X14772500Y-9309200D01*
X14771900Y-9309400D01*
X14771300Y-9309400D01*
X14770600Y-9309500D01*
X14770000Y-9309500D01*
X14690000Y-9309500D01*
X14689400Y-9309500D01*
X14688700Y-9309400D01*
X14688100Y-9309400D01*
X14687500Y-9309200D01*
X14686900Y-9309100D01*
X14686300Y-9308900D01*
X14685700Y-9308700D01*
X14685100Y-9308500D01*
X14684600Y-9308200D01*
X14684000Y-9307900D01*
X14683500Y-9307600D01*
X14682900Y-9307200D01*
X14682400Y-9306800D01*
X14682000Y-9306400D01*
X14681500Y-9306000D01*
X14681100Y-9305500D01*
X14680700Y-9305100D01*
X14680300Y-9304600D01*
X14679900Y-9304000D01*
X14679600Y-9303500D01*
X14679300Y-9302900D01*
X14679000Y-9302400D01*
X14678800Y-9301800D01*
X14678600Y-9301200D01*
X14678400Y-9300600D01*
X14678300Y-9300000D01*
X14678100Y-9299400D01*
X14678100Y-9298800D01*
X14678000Y-9298100D01*
X14678000Y-9297500D01*
X14678000Y-9282500D01*
X14678000Y-9281900D01*
X14678100Y-9281200D01*
X14678100Y-9280600D01*
X14678300Y-9280000D01*
X14678400Y-9279400D01*
X14678600Y-9278800D01*
X14678800Y-9278200D01*
X14679000Y-9277600D01*
X14679300Y-9277100D01*
X14679600Y-9276500D01*
X14679900Y-9276000D01*
X14680300Y-9275400D01*
X14680700Y-9274900D01*
X14681100Y-9274500D01*
X14681500Y-9274000D01*
X14682000Y-9273600D01*
X14682400Y-9273200D01*
X14682900Y-9272800D01*
X14683500Y-9272400D01*
X14684000Y-9272100D01*
X14684600Y-9271800D01*
X14685100Y-9271500D01*
X14685700Y-9271300D01*
X14686300Y-9271100D01*
X14686900Y-9270900D01*
X14687500Y-9270800D01*
X14688100Y-9270600D01*
X14688700Y-9270600D01*
X14689400Y-9270500D01*
X14690000Y-9270500D01*
X14770000Y-9270500D01*
X14770600Y-9270500D01*
X14771300Y-9270600D01*
G37*
X14811300Y-9220600D02*
X14811900Y-9220600D01*
X14812500Y-9220800D01*
X14813100Y-9220900D01*
X14813700Y-9221100D01*
X14814300Y-9221300D01*
X14814900Y-9221500D01*
X14815400Y-9221800D01*
X14816000Y-9222100D01*
X14816500Y-9222400D01*
X14817100Y-9222800D01*
X14817600Y-9223200D01*
X14818000Y-9223600D01*
X14818500Y-9224000D01*
X14818900Y-9224500D01*
X14819300Y-9224900D01*
X14819700Y-9225400D01*
X14820100Y-9226000D01*
X14820400Y-9226500D01*
X14820700Y-9227100D01*
X14821000Y-9227600D01*
X14821200Y-9228200D01*
X14821400Y-9228800D01*
X14821600Y-9229400D01*
X14821700Y-9230000D01*
X14821900Y-9230600D01*
X14821900Y-9231200D01*
X14822000Y-9231900D01*
X14822000Y-9232500D01*
X14822000Y-9247500D01*
X14822000Y-9248100D01*
X14821900Y-9248800D01*
X14821900Y-9249400D01*
X14821700Y-9250000D01*
X14821600Y-9250600D01*
X14821400Y-9251200D01*
X14821200Y-9251800D01*
X14821000Y-9252400D01*
X14820700Y-9252900D01*
X14820400Y-9253500D01*
X14820100Y-9254000D01*
X14819700Y-9254600D01*
X14819300Y-9255100D01*
X14818900Y-9255500D01*
X14818500Y-9256000D01*
X14818000Y-9256400D01*
X14817600Y-9256800D01*
X14817100Y-9257200D01*
X14816500Y-9257600D01*
X14816000Y-9257900D01*
X14815400Y-9258200D01*
X14814900Y-9258500D01*
X14814300Y-9258700D01*
X14813700Y-9258900D01*
X14813100Y-9259100D01*
X14812500Y-9259200D01*
X14811900Y-9259400D01*
X14811300Y-9259400D01*
X14810600Y-9259500D01*
X14810000Y-9259500D01*
X14690000Y-9259500D01*
X14689400Y-9259500D01*
X14688700Y-9259400D01*
X14688100Y-9259400D01*
X14687500Y-9259200D01*
X14686900Y-9259100D01*
X14686300Y-9258900D01*
X14685700Y-9258700D01*
X14685100Y-9258500D01*
X14684600Y-9258200D01*
X14684000Y-9257900D01*
X14683500Y-9257600D01*
X14682900Y-9257200D01*
X14682400Y-9256800D01*
X14682000Y-9256400D01*
X14681500Y-9256000D01*
X14681100Y-9255500D01*
X14680700Y-9255100D01*
X14680300Y-9254600D01*
X14679900Y-9254000D01*
X14679600Y-9253500D01*
X14679300Y-9252900D01*
X14679000Y-9252400D01*
X14678800Y-9251800D01*
X14678600Y-9251200D01*
X14678400Y-9250600D01*
X14678300Y-9250000D01*
X14678100Y-9249400D01*
X14678100Y-9248800D01*
X14678000Y-9248100D01*
X14678000Y-9247500D01*
X14678000Y-9232500D01*
X14678000Y-9231900D01*
X14678100Y-9231200D01*
X14678100Y-9230600D01*
X14678300Y-9230000D01*
X14678400Y-9229400D01*
X14678600Y-9228800D01*
X14678800Y-9228200D01*
X14679000Y-9227600D01*
X14679300Y-9227100D01*
X14679600Y-9226500D01*
X14679900Y-9226000D01*
X14680300Y-9225400D01*
X14680700Y-9224900D01*
X14681100Y-9224500D01*
X14681500Y-9224000D01*
X14682000Y-9223600D01*
X14682400Y-9223200D01*
X14682900Y-9222800D01*
X14683500Y-9222400D01*
X14684000Y-9222100D01*
X14684600Y-9221800D01*
X14685100Y-9221500D01*
X14685700Y-9221300D01*
X14686300Y-9221100D01*
X14686900Y-9220900D01*
X14687500Y-9220800D01*
X14688100Y-9220600D01*
X14688700Y-9220600D01*
X14689400Y-9220500D01*
X14690000Y-9220500D01*
X14810000Y-9220500D01*
X14810600Y-9220500D01*
X14811300Y-9220600D01*
G36*
X14811300Y-9220600D02*
G01*
X14811900Y-9220600D01*
X14812500Y-9220800D01*
X14813100Y-9220900D01*
X14813700Y-9221100D01*
X14814300Y-9221300D01*
X14814900Y-9221500D01*
X14815400Y-9221800D01*
X14816000Y-9222100D01*
X14816500Y-9222400D01*
X14817100Y-9222800D01*
X14817600Y-9223200D01*
X14818000Y-9223600D01*
X14818500Y-9224000D01*
X14818900Y-9224500D01*
X14819300Y-9224900D01*
X14819700Y-9225400D01*
X14820100Y-9226000D01*
X14820400Y-9226500D01*
X14820700Y-9227100D01*
X14821000Y-9227600D01*
X14821200Y-9228200D01*
X14821400Y-9228800D01*
X14821600Y-9229400D01*
X14821700Y-9230000D01*
X14821900Y-9230600D01*
X14821900Y-9231200D01*
X14822000Y-9231900D01*
X14822000Y-9232500D01*
X14822000Y-9247500D01*
X14822000Y-9248100D01*
X14821900Y-9248800D01*
X14821900Y-9249400D01*
X14821700Y-9250000D01*
X14821600Y-9250600D01*
X14821400Y-9251200D01*
X14821200Y-9251800D01*
X14821000Y-9252400D01*
X14820700Y-9252900D01*
X14820400Y-9253500D01*
X14820100Y-9254000D01*
X14819700Y-9254600D01*
X14819300Y-9255100D01*
X14818900Y-9255500D01*
X14818500Y-9256000D01*
X14818000Y-9256400D01*
X14817600Y-9256800D01*
X14817100Y-9257200D01*
X14816500Y-9257600D01*
X14816000Y-9257900D01*
X14815400Y-9258200D01*
X14814900Y-9258500D01*
X14814300Y-9258700D01*
X14813700Y-9258900D01*
X14813100Y-9259100D01*
X14812500Y-9259200D01*
X14811900Y-9259400D01*
X14811300Y-9259400D01*
X14810600Y-9259500D01*
X14810000Y-9259500D01*
X14690000Y-9259500D01*
X14689400Y-9259500D01*
X14688700Y-9259400D01*
X14688100Y-9259400D01*
X14687500Y-9259200D01*
X14686900Y-9259100D01*
X14686300Y-9258900D01*
X14685700Y-9258700D01*
X14685100Y-9258500D01*
X14684600Y-9258200D01*
X14684000Y-9257900D01*
X14683500Y-9257600D01*
X14682900Y-9257200D01*
X14682400Y-9256800D01*
X14682000Y-9256400D01*
X14681500Y-9256000D01*
X14681100Y-9255500D01*
X14680700Y-9255100D01*
X14680300Y-9254600D01*
X14679900Y-9254000D01*
X14679600Y-9253500D01*
X14679300Y-9252900D01*
X14679000Y-9252400D01*
X14678800Y-9251800D01*
X14678600Y-9251200D01*
X14678400Y-9250600D01*
X14678300Y-9250000D01*
X14678100Y-9249400D01*
X14678100Y-9248800D01*
X14678000Y-9248100D01*
X14678000Y-9247500D01*
X14678000Y-9232500D01*
X14678000Y-9231900D01*
X14678100Y-9231200D01*
X14678100Y-9230600D01*
X14678300Y-9230000D01*
X14678400Y-9229400D01*
X14678600Y-9228800D01*
X14678800Y-9228200D01*
X14679000Y-9227600D01*
X14679300Y-9227100D01*
X14679600Y-9226500D01*
X14679900Y-9226000D01*
X14680300Y-9225400D01*
X14680700Y-9224900D01*
X14681100Y-9224500D01*
X14681500Y-9224000D01*
X14682000Y-9223600D01*
X14682400Y-9223200D01*
X14682900Y-9222800D01*
X14683500Y-9222400D01*
X14684000Y-9222100D01*
X14684600Y-9221800D01*
X14685100Y-9221500D01*
X14685700Y-9221300D01*
X14686300Y-9221100D01*
X14686900Y-9220900D01*
X14687500Y-9220800D01*
X14688100Y-9220600D01*
X14688700Y-9220600D01*
X14689400Y-9220500D01*
X14690000Y-9220500D01*
X14810000Y-9220500D01*
X14810600Y-9220500D01*
X14811300Y-9220600D01*
G37*
X14771300Y-9170600D02*
X14771900Y-9170600D01*
X14772500Y-9170800D01*
X14773100Y-9170900D01*
X14773700Y-9171100D01*
X14774300Y-9171300D01*
X14774900Y-9171500D01*
X14775400Y-9171800D01*
X14776000Y-9172100D01*
X14776500Y-9172400D01*
X14777100Y-9172800D01*
X14777600Y-9173200D01*
X14778000Y-9173600D01*
X14778500Y-9174000D01*
X14778900Y-9174500D01*
X14779300Y-9174900D01*
X14779700Y-9175400D01*
X14780100Y-9176000D01*
X14780400Y-9176500D01*
X14780700Y-9177100D01*
X14781000Y-9177600D01*
X14781200Y-9178200D01*
X14781400Y-9178800D01*
X14781600Y-9179400D01*
X14781700Y-9180000D01*
X14781900Y-9180600D01*
X14781900Y-9181200D01*
X14782000Y-9181900D01*
X14782000Y-9182500D01*
X14782000Y-9197500D01*
X14782000Y-9198100D01*
X14781900Y-9198800D01*
X14781900Y-9199400D01*
X14781700Y-9200000D01*
X14781600Y-9200600D01*
X14781400Y-9201200D01*
X14781200Y-9201800D01*
X14781000Y-9202400D01*
X14780700Y-9202900D01*
X14780400Y-9203500D01*
X14780100Y-9204000D01*
X14779700Y-9204600D01*
X14779300Y-9205100D01*
X14778900Y-9205500D01*
X14778500Y-9206000D01*
X14778000Y-9206400D01*
X14777600Y-9206800D01*
X14777100Y-9207200D01*
X14776500Y-9207600D01*
X14776000Y-9207900D01*
X14775400Y-9208200D01*
X14774900Y-9208500D01*
X14774300Y-9208700D01*
X14773700Y-9208900D01*
X14773100Y-9209100D01*
X14772500Y-9209200D01*
X14771900Y-9209400D01*
X14771300Y-9209400D01*
X14770600Y-9209500D01*
X14770000Y-9209500D01*
X14690000Y-9209500D01*
X14689400Y-9209500D01*
X14688700Y-9209400D01*
X14688100Y-9209400D01*
X14687500Y-9209200D01*
X14686900Y-9209100D01*
X14686300Y-9208900D01*
X14685700Y-9208700D01*
X14685100Y-9208500D01*
X14684600Y-9208200D01*
X14684000Y-9207900D01*
X14683500Y-9207600D01*
X14682900Y-9207200D01*
X14682400Y-9206800D01*
X14682000Y-9206400D01*
X14681500Y-9206000D01*
X14681100Y-9205500D01*
X14680700Y-9205100D01*
X14680300Y-9204600D01*
X14679900Y-9204000D01*
X14679600Y-9203500D01*
X14679300Y-9202900D01*
X14679000Y-9202400D01*
X14678800Y-9201800D01*
X14678600Y-9201200D01*
X14678400Y-9200600D01*
X14678300Y-9200000D01*
X14678100Y-9199400D01*
X14678100Y-9198800D01*
X14678000Y-9198100D01*
X14678000Y-9197500D01*
X14678000Y-9182500D01*
X14678000Y-9181900D01*
X14678100Y-9181200D01*
X14678100Y-9180600D01*
X14678300Y-9180000D01*
X14678400Y-9179400D01*
X14678600Y-9178800D01*
X14678800Y-9178200D01*
X14679000Y-9177600D01*
X14679300Y-9177100D01*
X14679600Y-9176500D01*
X14679900Y-9176000D01*
X14680300Y-9175400D01*
X14680700Y-9174900D01*
X14681100Y-9174500D01*
X14681500Y-9174000D01*
X14682000Y-9173600D01*
X14682400Y-9173200D01*
X14682900Y-9172800D01*
X14683500Y-9172400D01*
X14684000Y-9172100D01*
X14684600Y-9171800D01*
X14685100Y-9171500D01*
X14685700Y-9171300D01*
X14686300Y-9171100D01*
X14686900Y-9170900D01*
X14687500Y-9170800D01*
X14688100Y-9170600D01*
X14688700Y-9170600D01*
X14689400Y-9170500D01*
X14690000Y-9170500D01*
X14770000Y-9170500D01*
X14770600Y-9170500D01*
X14771300Y-9170600D01*
G36*
X14771300Y-9170600D02*
G01*
X14771900Y-9170600D01*
X14772500Y-9170800D01*
X14773100Y-9170900D01*
X14773700Y-9171100D01*
X14774300Y-9171300D01*
X14774900Y-9171500D01*
X14775400Y-9171800D01*
X14776000Y-9172100D01*
X14776500Y-9172400D01*
X14777100Y-9172800D01*
X14777600Y-9173200D01*
X14778000Y-9173600D01*
X14778500Y-9174000D01*
X14778900Y-9174500D01*
X14779300Y-9174900D01*
X14779700Y-9175400D01*
X14780100Y-9176000D01*
X14780400Y-9176500D01*
X14780700Y-9177100D01*
X14781000Y-9177600D01*
X14781200Y-9178200D01*
X14781400Y-9178800D01*
X14781600Y-9179400D01*
X14781700Y-9180000D01*
X14781900Y-9180600D01*
X14781900Y-9181200D01*
X14782000Y-9181900D01*
X14782000Y-9182500D01*
X14782000Y-9197500D01*
X14782000Y-9198100D01*
X14781900Y-9198800D01*
X14781900Y-9199400D01*
X14781700Y-9200000D01*
X14781600Y-9200600D01*
X14781400Y-9201200D01*
X14781200Y-9201800D01*
X14781000Y-9202400D01*
X14780700Y-9202900D01*
X14780400Y-9203500D01*
X14780100Y-9204000D01*
X14779700Y-9204600D01*
X14779300Y-9205100D01*
X14778900Y-9205500D01*
X14778500Y-9206000D01*
X14778000Y-9206400D01*
X14777600Y-9206800D01*
X14777100Y-9207200D01*
X14776500Y-9207600D01*
X14776000Y-9207900D01*
X14775400Y-9208200D01*
X14774900Y-9208500D01*
X14774300Y-9208700D01*
X14773700Y-9208900D01*
X14773100Y-9209100D01*
X14772500Y-9209200D01*
X14771900Y-9209400D01*
X14771300Y-9209400D01*
X14770600Y-9209500D01*
X14770000Y-9209500D01*
X14690000Y-9209500D01*
X14689400Y-9209500D01*
X14688700Y-9209400D01*
X14688100Y-9209400D01*
X14687500Y-9209200D01*
X14686900Y-9209100D01*
X14686300Y-9208900D01*
X14685700Y-9208700D01*
X14685100Y-9208500D01*
X14684600Y-9208200D01*
X14684000Y-9207900D01*
X14683500Y-9207600D01*
X14682900Y-9207200D01*
X14682400Y-9206800D01*
X14682000Y-9206400D01*
X14681500Y-9206000D01*
X14681100Y-9205500D01*
X14680700Y-9205100D01*
X14680300Y-9204600D01*
X14679900Y-9204000D01*
X14679600Y-9203500D01*
X14679300Y-9202900D01*
X14679000Y-9202400D01*
X14678800Y-9201800D01*
X14678600Y-9201200D01*
X14678400Y-9200600D01*
X14678300Y-9200000D01*
X14678100Y-9199400D01*
X14678100Y-9198800D01*
X14678000Y-9198100D01*
X14678000Y-9197500D01*
X14678000Y-9182500D01*
X14678000Y-9181900D01*
X14678100Y-9181200D01*
X14678100Y-9180600D01*
X14678300Y-9180000D01*
X14678400Y-9179400D01*
X14678600Y-9178800D01*
X14678800Y-9178200D01*
X14679000Y-9177600D01*
X14679300Y-9177100D01*
X14679600Y-9176500D01*
X14679900Y-9176000D01*
X14680300Y-9175400D01*
X14680700Y-9174900D01*
X14681100Y-9174500D01*
X14681500Y-9174000D01*
X14682000Y-9173600D01*
X14682400Y-9173200D01*
X14682900Y-9172800D01*
X14683500Y-9172400D01*
X14684000Y-9172100D01*
X14684600Y-9171800D01*
X14685100Y-9171500D01*
X14685700Y-9171300D01*
X14686300Y-9171100D01*
X14686900Y-9170900D01*
X14687500Y-9170800D01*
X14688100Y-9170600D01*
X14688700Y-9170600D01*
X14689400Y-9170500D01*
X14690000Y-9170500D01*
X14770000Y-9170500D01*
X14770600Y-9170500D01*
X14771300Y-9170600D01*
G37*
X14771300Y-9120600D02*
X14771900Y-9120600D01*
X14772500Y-9120800D01*
X14773100Y-9120900D01*
X14773700Y-9121100D01*
X14774300Y-9121300D01*
X14774900Y-9121500D01*
X14775400Y-9121800D01*
X14776000Y-9122100D01*
X14776500Y-9122400D01*
X14777100Y-9122800D01*
X14777600Y-9123200D01*
X14778000Y-9123600D01*
X14778500Y-9124000D01*
X14778900Y-9124500D01*
X14779300Y-9124900D01*
X14779700Y-9125400D01*
X14780100Y-9126000D01*
X14780400Y-9126500D01*
X14780700Y-9127100D01*
X14781000Y-9127600D01*
X14781200Y-9128200D01*
X14781400Y-9128800D01*
X14781600Y-9129400D01*
X14781700Y-9130000D01*
X14781900Y-9130600D01*
X14781900Y-9131200D01*
X14782000Y-9131900D01*
X14782000Y-9132500D01*
X14782000Y-9147500D01*
X14782000Y-9148100D01*
X14781900Y-9148800D01*
X14781900Y-9149400D01*
X14781700Y-9150000D01*
X14781600Y-9150600D01*
X14781400Y-9151200D01*
X14781200Y-9151800D01*
X14781000Y-9152400D01*
X14780700Y-9152900D01*
X14780400Y-9153500D01*
X14780100Y-9154000D01*
X14779700Y-9154600D01*
X14779300Y-9155100D01*
X14778900Y-9155500D01*
X14778500Y-9156000D01*
X14778000Y-9156400D01*
X14777600Y-9156800D01*
X14777100Y-9157200D01*
X14776500Y-9157600D01*
X14776000Y-9157900D01*
X14775400Y-9158200D01*
X14774900Y-9158500D01*
X14774300Y-9158700D01*
X14773700Y-9158900D01*
X14773100Y-9159100D01*
X14772500Y-9159200D01*
X14771900Y-9159400D01*
X14771300Y-9159400D01*
X14770600Y-9159500D01*
X14770000Y-9159500D01*
X14690000Y-9159500D01*
X14689400Y-9159500D01*
X14688700Y-9159400D01*
X14688100Y-9159400D01*
X14687500Y-9159200D01*
X14686900Y-9159100D01*
X14686300Y-9158900D01*
X14685700Y-9158700D01*
X14685100Y-9158500D01*
X14684600Y-9158200D01*
X14684000Y-9157900D01*
X14683500Y-9157600D01*
X14682900Y-9157200D01*
X14682400Y-9156800D01*
X14682000Y-9156400D01*
X14681500Y-9156000D01*
X14681100Y-9155500D01*
X14680700Y-9155100D01*
X14680300Y-9154600D01*
X14679900Y-9154000D01*
X14679600Y-9153500D01*
X14679300Y-9152900D01*
X14679000Y-9152400D01*
X14678800Y-9151800D01*
X14678600Y-9151200D01*
X14678400Y-9150600D01*
X14678300Y-9150000D01*
X14678100Y-9149400D01*
X14678100Y-9148800D01*
X14678000Y-9148100D01*
X14678000Y-9147500D01*
X14678000Y-9132500D01*
X14678000Y-9131900D01*
X14678100Y-9131200D01*
X14678100Y-9130600D01*
X14678300Y-9130000D01*
X14678400Y-9129400D01*
X14678600Y-9128800D01*
X14678800Y-9128200D01*
X14679000Y-9127600D01*
X14679300Y-9127100D01*
X14679600Y-9126500D01*
X14679900Y-9126000D01*
X14680300Y-9125400D01*
X14680700Y-9124900D01*
X14681100Y-9124500D01*
X14681500Y-9124000D01*
X14682000Y-9123600D01*
X14682400Y-9123200D01*
X14682900Y-9122800D01*
X14683500Y-9122400D01*
X14684000Y-9122100D01*
X14684600Y-9121800D01*
X14685100Y-9121500D01*
X14685700Y-9121300D01*
X14686300Y-9121100D01*
X14686900Y-9120900D01*
X14687500Y-9120800D01*
X14688100Y-9120600D01*
X14688700Y-9120600D01*
X14689400Y-9120500D01*
X14690000Y-9120500D01*
X14770000Y-9120500D01*
X14770600Y-9120500D01*
X14771300Y-9120600D01*
G36*
X14771300Y-9120600D02*
G01*
X14771900Y-9120600D01*
X14772500Y-9120800D01*
X14773100Y-9120900D01*
X14773700Y-9121100D01*
X14774300Y-9121300D01*
X14774900Y-9121500D01*
X14775400Y-9121800D01*
X14776000Y-9122100D01*
X14776500Y-9122400D01*
X14777100Y-9122800D01*
X14777600Y-9123200D01*
X14778000Y-9123600D01*
X14778500Y-9124000D01*
X14778900Y-9124500D01*
X14779300Y-9124900D01*
X14779700Y-9125400D01*
X14780100Y-9126000D01*
X14780400Y-9126500D01*
X14780700Y-9127100D01*
X14781000Y-9127600D01*
X14781200Y-9128200D01*
X14781400Y-9128800D01*
X14781600Y-9129400D01*
X14781700Y-9130000D01*
X14781900Y-9130600D01*
X14781900Y-9131200D01*
X14782000Y-9131900D01*
X14782000Y-9132500D01*
X14782000Y-9147500D01*
X14782000Y-9148100D01*
X14781900Y-9148800D01*
X14781900Y-9149400D01*
X14781700Y-9150000D01*
X14781600Y-9150600D01*
X14781400Y-9151200D01*
X14781200Y-9151800D01*
X14781000Y-9152400D01*
X14780700Y-9152900D01*
X14780400Y-9153500D01*
X14780100Y-9154000D01*
X14779700Y-9154600D01*
X14779300Y-9155100D01*
X14778900Y-9155500D01*
X14778500Y-9156000D01*
X14778000Y-9156400D01*
X14777600Y-9156800D01*
X14777100Y-9157200D01*
X14776500Y-9157600D01*
X14776000Y-9157900D01*
X14775400Y-9158200D01*
X14774900Y-9158500D01*
X14774300Y-9158700D01*
X14773700Y-9158900D01*
X14773100Y-9159100D01*
X14772500Y-9159200D01*
X14771900Y-9159400D01*
X14771300Y-9159400D01*
X14770600Y-9159500D01*
X14770000Y-9159500D01*
X14690000Y-9159500D01*
X14689400Y-9159500D01*
X14688700Y-9159400D01*
X14688100Y-9159400D01*
X14687500Y-9159200D01*
X14686900Y-9159100D01*
X14686300Y-9158900D01*
X14685700Y-9158700D01*
X14685100Y-9158500D01*
X14684600Y-9158200D01*
X14684000Y-9157900D01*
X14683500Y-9157600D01*
X14682900Y-9157200D01*
X14682400Y-9156800D01*
X14682000Y-9156400D01*
X14681500Y-9156000D01*
X14681100Y-9155500D01*
X14680700Y-9155100D01*
X14680300Y-9154600D01*
X14679900Y-9154000D01*
X14679600Y-9153500D01*
X14679300Y-9152900D01*
X14679000Y-9152400D01*
X14678800Y-9151800D01*
X14678600Y-9151200D01*
X14678400Y-9150600D01*
X14678300Y-9150000D01*
X14678100Y-9149400D01*
X14678100Y-9148800D01*
X14678000Y-9148100D01*
X14678000Y-9147500D01*
X14678000Y-9132500D01*
X14678000Y-9131900D01*
X14678100Y-9131200D01*
X14678100Y-9130600D01*
X14678300Y-9130000D01*
X14678400Y-9129400D01*
X14678600Y-9128800D01*
X14678800Y-9128200D01*
X14679000Y-9127600D01*
X14679300Y-9127100D01*
X14679600Y-9126500D01*
X14679900Y-9126000D01*
X14680300Y-9125400D01*
X14680700Y-9124900D01*
X14681100Y-9124500D01*
X14681500Y-9124000D01*
X14682000Y-9123600D01*
X14682400Y-9123200D01*
X14682900Y-9122800D01*
X14683500Y-9122400D01*
X14684000Y-9122100D01*
X14684600Y-9121800D01*
X14685100Y-9121500D01*
X14685700Y-9121300D01*
X14686300Y-9121100D01*
X14686900Y-9120900D01*
X14687500Y-9120800D01*
X14688100Y-9120600D01*
X14688700Y-9120600D01*
X14689400Y-9120500D01*
X14690000Y-9120500D01*
X14770000Y-9120500D01*
X14770600Y-9120500D01*
X14771300Y-9120600D01*
G37*
D11*
X13347700Y-10464560D03*
X13347700Y-10561560D03*
D12*
X13347440Y-10373360D03*
X13251440Y-10373360D03*
X13347440Y-10652760D03*
X13251440Y-10652760D03*
D13*
X14698980Y-9583680D03*
X14698980Y-9679680D03*
X11784740Y-10355320D03*
X11784740Y-10259320D03*
X11889740Y-10355320D03*
X11889740Y-10259320D03*
D14*
X14854000Y-10534000D03*
D15*
X14997750Y-10459000D03*
X14997750Y-10509000D03*
X14997750Y-10559000D03*
X14997750Y-10609000D03*
D16*
X14929000Y-10677750D03*
X14879000Y-10677750D03*
X14829000Y-10677750D03*
X14779000Y-10677750D03*
D15*
X14710250Y-10609000D03*
X14710250Y-10559000D03*
X14710250Y-10509000D03*
X14710250Y-10459000D03*
D16*
X14779000Y-10390250D03*
X14829000Y-10390250D03*
X14879000Y-10390250D03*
X14929000Y-10390250D03*
D17*
X15260520Y-10426700D03*
X15158520Y-10426700D03*
D12*
X15082260Y-10274300D03*
X14986260Y-10274300D03*
D18*
X14594000Y-10499000D03*
X14594000Y-10601000D03*
D17*
X14341000Y-10368000D03*
X14239000Y-10368000D03*
X14542000Y-10368000D03*
X14440000Y-10368000D03*
D19*
X14612630Y-10751820D03*
X14455130Y-10751820D03*
D12*
X15254980Y-10520680D03*
X15158980Y-10520680D03*
D20*
X15155980Y-10617200D03*
X15257980Y-10617200D03*
D17*
X15161000Y-9130000D03*
X15059000Y-9130000D03*
D21*
X13708640Y-9968160D03*
X13804640Y-9968160D03*
D11*
X13843000Y-9217420D03*
X13843000Y-9314420D03*
D18*
X15410000Y-9979000D03*
X15410000Y-10081000D03*
D22*
X13667740Y-10564080D03*
X13667740Y-10419080D03*
X13552740Y-10419080D03*
X13552740Y-10564080D03*
D18*
X12212320Y-9153960D03*
X12212320Y-9255960D03*
D23*
X11596000Y-9911000D03*
D24*
X12321160Y-9292130D03*
X12411160Y-9292130D03*
X12501160Y-9292130D03*
X12591160Y-9292130D03*
X12591160Y-9172130D03*
X12501160Y-9172130D03*
X12411160Y-9172130D03*
X12321160Y-9172130D03*
D25*
X13445800Y-9026760D03*
X13445800Y-9122760D03*
D23*
X13073380Y-10561320D03*
D26*
X12217400Y-9479480D03*
X12217400Y-9377480D03*
D13*
X15410000Y-9848000D03*
X15410000Y-9752000D03*
D12*
X13893540Y-10830000D03*
X13797540Y-10830000D03*
D17*
X15113200Y-9989820D03*
X15011200Y-9989820D03*
D12*
X13918940Y-10320020D03*
X13822940Y-10320020D03*
D13*
X14919960Y-9677140D03*
X14919960Y-9581140D03*
D21*
X13836980Y-9433560D03*
X13932980Y-9433560D03*
D27*
X12823220Y-9852660D03*
X12668220Y-9852660D03*
D28*
X12818180Y-9391680D03*
X12818180Y-9236680D03*
D12*
X13047720Y-9286240D03*
X12951720Y-9286240D03*
X12563460Y-9038860D03*
X12467460Y-9038860D03*
X13664940Y-10698480D03*
X13568940Y-10698480D03*
D17*
X13919400Y-10416540D03*
X13817400Y-10416540D03*
D21*
X13624820Y-10281920D03*
X13720820Y-10281920D03*
D23*
X13997940Y-9621520D03*
D20*
X12257260Y-9039860D03*
X12359260Y-9039860D03*
D12*
X14563000Y-9010000D03*
X14467000Y-9010000D03*
D18*
X14333220Y-10517940D03*
X14333220Y-10619940D03*
D13*
X14808200Y-9677140D03*
X14808200Y-9581140D03*
D25*
X13416280Y-10174160D03*
X13416280Y-10270160D03*
D13*
X13553440Y-9311380D03*
X13553440Y-9215380D03*
D20*
X11885000Y-9600000D03*
X11987000Y-9600000D03*
D29*
X11898880Y-9400310D03*
X12088880Y-9400310D03*
X11993880Y-9212810D03*
D30*
X14019780Y-10786830D03*
X14114780Y-10786830D03*
X14209780Y-10786830D03*
X14209780Y-10559330D03*
X14019780Y-10559330D03*
D12*
X12887700Y-10187940D03*
X12791700Y-10187940D03*
D31*
X15004500Y-9800000D03*
X15101500Y-9800000D03*
D32*
X14515000Y-9132500D03*
X14515000Y-9347500D03*
D23*
X15340000Y-9374000D03*
D33*
X15212500Y-9270000D03*
X15047500Y-9270000D03*
D25*
X12588240Y-9405880D03*
X12588240Y-9501880D03*
D23*
X14270000Y-9020000D03*
D34*
X12468060Y-9630080D03*
D35*
X12418060Y-9630080D03*
X12368060Y-9630080D03*
D34*
X12318060Y-9630080D03*
X12318060Y-9530080D03*
D35*
X12368060Y-9530080D03*
X12418060Y-9530080D03*
D34*
X12468060Y-9530080D03*
D36*
X14727500Y-9000000D03*
X14882500Y-9000000D03*
X14717500Y-9460000D03*
X14872500Y-9460000D03*
D18*
X14660880Y-10180120D03*
X14660880Y-10282120D03*
D17*
X13896540Y-10632440D03*
X13794540Y-10632440D03*
D27*
X12759720Y-9618980D03*
X12604720Y-9618980D03*
D37*
X13327380Y-9257640D03*
X13447380Y-9257640D03*
D21*
X13708640Y-9866560D03*
X13804640Y-9866560D03*
D25*
X14484000Y-10502000D03*
X14484000Y-10598000D03*
D23*
X13129260Y-10756900D03*
D33*
X15212500Y-9420000D03*
X15047500Y-9420000D03*
D23*
X14132560Y-9517380D03*
D38*
X14222500Y-10105000D03*
X14382500Y-10105000D03*
X14382500Y-9695000D03*
X14222500Y-9695000D03*
D39*
X14160000Y-9900000D03*
D25*
X13510260Y-10175500D03*
X13510260Y-10271500D03*
D23*
X14195000Y-9375000D03*
D13*
X13647420Y-9311380D03*
X13647420Y-9215380D03*
D40*
X15250000Y-9780000D03*
X15250000Y-10060000D03*
D20*
X12090000Y-9602000D03*
X12192000Y-9602000D03*
D23*
X13975080Y-9017000D03*
D13*
X13745140Y-9311380D03*
X13745140Y-9215380D03*
D17*
X12982860Y-9039860D03*
X12880860Y-9039860D03*
D41*
X13947140Y-9316960D03*
X13947140Y-9219960D03*
D12*
X13893540Y-10535000D03*
X13797540Y-10535000D03*
D42*
X12335000Y-9845000D03*
X12485000Y-9845000D03*
X12485000Y-9955000D03*
X12335000Y-9955000D03*
D31*
X14827500Y-10179000D03*
X14924500Y-10179000D03*
D43*
X14854500Y-9777000D03*
X14757500Y-9777000D03*
D25*
X13190220Y-10188200D03*
X13190220Y-10284200D03*
D23*
X12722860Y-10774680D03*
D12*
X15102580Y-9893300D03*
X15006580Y-9893300D03*
D44*
X11755000Y-10017000D03*
X11920000Y-10017000D03*
X12085000Y-10017000D03*
X12085000Y-9783000D03*
X11920000Y-9783000D03*
D45*
X11765000Y-9793000D03*
D20*
X14029000Y-10410000D03*
X14131000Y-10410000D03*
D46*
X12588240Y-10617200D03*
X12588240Y-10490200D03*
X12588240Y-10363200D03*
X12588240Y-10236200D03*
X12048240Y-10236200D03*
X12048240Y-10363200D03*
X12048240Y-10490200D03*
X12048240Y-10617200D03*
D47*
X12318240Y-10426700D03*
D23*
X12923520Y-10772140D03*
D25*
X13331500Y-9026760D03*
X13331500Y-9122760D03*
D48*
X13347700Y-10767060D03*
D17*
X13895540Y-10730000D03*
X13793540Y-10730000D03*
D18*
X14333220Y-10716000D03*
X14333220Y-10818000D03*
D49*
X13604790Y-9620310D03*
X13604790Y-9670310D03*
X13604790Y-9720310D03*
X13604790Y-9770310D03*
X13604790Y-9820310D03*
X13604790Y-9870310D03*
X13604790Y-9920310D03*
X13604790Y-9970310D03*
X13604790Y-10020310D03*
X13054790Y-10070310D03*
X13029790Y-9470310D03*
X13004790Y-9545310D03*
X13004790Y-9645310D03*
X13004790Y-9695310D03*
X13004790Y-9745310D03*
X13004790Y-9795310D03*
X13004790Y-9845310D03*
X13004790Y-9895310D03*
X13004790Y-9945310D03*
X13004790Y-10070310D03*
X12954790Y-9470310D03*
X12954790Y-9520310D03*
X12954790Y-9570310D03*
X12954790Y-9620310D03*
X12954790Y-9670310D03*
X12954790Y-9720310D03*
X12954790Y-9770310D03*
X12954790Y-9820310D03*
X12954790Y-9870310D03*
X12954790Y-9920310D03*
X12954790Y-9970310D03*
X12954790Y-10020310D03*
X13554790Y-9420310D03*
X13554790Y-9495310D03*
X13554790Y-9545310D03*
X13554790Y-9595310D03*
X13554790Y-9645310D03*
X13554790Y-9695310D03*
X13554790Y-9745310D03*
X13554790Y-9795310D03*
X13554790Y-9845310D03*
X13554790Y-9895310D03*
X13554790Y-10070310D03*
X13504790Y-9420310D03*
X13479790Y-9470310D03*
X13479790Y-10020310D03*
X13454790Y-10070310D03*
D50*
X13279790Y-9745310D03*
D49*
X13429790Y-9470310D03*
X13429790Y-10020310D03*
X13404790Y-9420310D03*
X13379790Y-9470310D03*
X13379790Y-10020310D03*
X13354790Y-9420310D03*
X13354790Y-10070310D03*
X13329790Y-9470310D03*
X13304790Y-9420310D03*
X13304790Y-10070310D03*
X13279790Y-9470310D03*
X13254790Y-9420310D03*
X13254790Y-10070310D03*
X13229790Y-9470310D03*
X13229790Y-10020310D03*
X13204790Y-9420310D03*
X13204790Y-10070310D03*
X13179790Y-9470310D03*
X13179790Y-10020310D03*
X13154790Y-9420310D03*
X13154790Y-10070310D03*
X13129790Y-10020310D03*
X13104790Y-9420310D03*
X13104790Y-10070310D03*
X13079790Y-9470310D03*
X13079790Y-10020310D03*
D17*
X12773660Y-9039860D03*
X12671660Y-9039860D03*
D12*
X11783000Y-9600000D03*
X11687000Y-9600000D03*
D51*
X14702020Y-9881000D03*
X14892020Y-9881000D03*
X14892020Y-10081000D03*
D52*
X14722020Y-10081000D03*
D53*
X15350000Y-9550000D03*
D54*
X15080000Y-9650000D03*
X15080000Y-10150000D03*
D53*
X15350000Y-10250000D03*
M02*
