G04 #@! TF.GenerationSoftware,KiCad,Pcbnew,7.0.7*
G04 #@! TF.CreationDate,2024-03-13T12:15:20+01:00*
G04 #@! TF.ProjectId,dictofun,64696374-6f66-4756-9e2e-6b696361645f,rev?*
G04 #@! TF.SameCoordinates,Original*
G04 #@! TF.FileFunction,Copper,L2,Inr*
G04 #@! TF.FilePolarity,Positive*
%FSLAX45Y45*%
G04 Gerber Fmt 4.5, Leading zero omitted, Abs format (unit mm)*
G04 Created by KiCad (PCBNEW 7.0.7) date 2024-03-13 12:15:20*
%MOMM*%
%LPD*%
G01*
G04 APERTURE LIST*
G04 #@! TA.AperFunction,ComponentPad*
%ADD10C,0.500000*%
G04 #@! TD*
G04 #@! TA.AperFunction,ComponentPad*
%ADD11R,0.850000X0.850000*%
G04 #@! TD*
G04 #@! TA.AperFunction,ComponentPad*
%ADD12O,1.900000X1.200000*%
G04 #@! TD*
G04 #@! TA.AperFunction,ComponentPad*
%ADD13C,1.450000*%
G04 #@! TD*
G04 #@! TA.AperFunction,ViaPad*
%ADD14C,0.300000*%
G04 #@! TD*
G04 #@! TA.AperFunction,ViaPad*
%ADD15C,0.600000*%
G04 #@! TD*
G04 #@! TA.AperFunction,Conductor*
%ADD16C,0.254000*%
G04 #@! TD*
G04 #@! TA.AperFunction,Conductor*
%ADD17C,0.127000*%
G04 #@! TD*
G04 #@! TA.AperFunction,Conductor*
%ADD18C,0.400000*%
G04 #@! TD*
G04 #@! TA.AperFunction,Conductor*
%ADD19C,0.500000*%
G04 #@! TD*
G04 #@! TA.AperFunction,Conductor*
%ADD20C,0.200000*%
G04 #@! TD*
G04 APERTURE END LIST*
D10*
X14806500Y-10581500D03*
X14901500Y-10581500D03*
X14806500Y-10486500D03*
X14901500Y-10486500D03*
D11*
X13347700Y-10767060D03*
D12*
X15350000Y-9550000D03*
D13*
X15080000Y-9650000D03*
X15080000Y-10150000D03*
D12*
X15350000Y-10250000D03*
D14*
X13464540Y-10271760D03*
X15199360Y-9517380D03*
X12969240Y-10149840D03*
X15341600Y-10477500D03*
X15306040Y-10353040D03*
X15199360Y-10246360D03*
D15*
X13388340Y-9839960D03*
X13281660Y-9834880D03*
X13174980Y-9832340D03*
X13279120Y-9740900D03*
X13177520Y-9738360D03*
X13281660Y-9634220D03*
X13385800Y-9748520D03*
X13385800Y-9634220D03*
X13177520Y-9636760D03*
D14*
X13870940Y-8989060D03*
X15397480Y-10358120D03*
X13784580Y-9141460D03*
X14284960Y-9466580D03*
X14150340Y-10012680D03*
X14005560Y-9964420D03*
X14571980Y-10833100D03*
X14264640Y-10619740D03*
X13896340Y-10680700D03*
X13108940Y-10350500D03*
X11988800Y-10457180D03*
X12999720Y-9999980D03*
X12570460Y-10728960D03*
X12740640Y-10769600D03*
X12943840Y-10767060D03*
X13093700Y-10772140D03*
X12989560Y-10447020D03*
X13058140Y-10406380D03*
X14678660Y-10345420D03*
X14018260Y-9507220D03*
X13967460Y-9507220D03*
X13924280Y-9535160D03*
X13881100Y-9578340D03*
X13997940Y-9621520D03*
X14132560Y-9519920D03*
X14196060Y-9375140D03*
X14010640Y-9408160D03*
X13263880Y-9171940D03*
X13202920Y-9110980D03*
X13934440Y-9758680D03*
X13728700Y-10652760D03*
X12509500Y-9380220D03*
X12669520Y-9512300D03*
X12425680Y-10253980D03*
X11805920Y-9512300D03*
X15125700Y-9537700D03*
X14371320Y-10454640D03*
X14239240Y-10431780D03*
D15*
X14315440Y-9131300D03*
X14132560Y-9237980D03*
D14*
X14678660Y-9077960D03*
X14610080Y-9011920D03*
X14727500Y-9000000D03*
X12448540Y-8956040D03*
X12585700Y-8976360D03*
X12646660Y-9189720D03*
X12148820Y-9512300D03*
X13055600Y-8989060D03*
X12809220Y-9489440D03*
X14406880Y-9560560D03*
X14726920Y-9944100D03*
X14467840Y-10104120D03*
X14131000Y-10345420D03*
X13764260Y-10363200D03*
X13876020Y-9961880D03*
X14978380Y-9585960D03*
X15255240Y-9900920D03*
X14978380Y-10068560D03*
X14907260Y-9728200D03*
X14645640Y-9550400D03*
X14831060Y-9382760D03*
X14386560Y-9019540D03*
X15118080Y-9281160D03*
X14958060Y-9268460D03*
X15026640Y-9017000D03*
X14884400Y-9077960D03*
X14810740Y-9240520D03*
X14559280Y-9484360D03*
X14424660Y-10576560D03*
X14592580Y-10368000D03*
X14551660Y-10447020D03*
X14653260Y-10419080D03*
X14828520Y-10774680D03*
X15041880Y-10657840D03*
X14993620Y-10363200D03*
X15176500Y-10358120D03*
X15077440Y-10535920D03*
X14762480Y-10289540D03*
X14869160Y-10297160D03*
X15118080Y-9352280D03*
X14269720Y-10820400D03*
X13957300Y-10535920D03*
X13733780Y-10807700D03*
X14762480Y-10172700D03*
X14927580Y-9796780D03*
X14919960Y-10020300D03*
X14904720Y-9941560D03*
X11783060Y-10121900D03*
X12204700Y-9900920D03*
X12435840Y-9728200D03*
X12247880Y-9753600D03*
X12512040Y-9451340D03*
X12336780Y-9446260D03*
X12407900Y-9441180D03*
X12727940Y-9997440D03*
X12659360Y-9949180D03*
X12793980Y-10048240D03*
X12687300Y-9705340D03*
X12745720Y-9766300D03*
X12606020Y-9715500D03*
X12021820Y-9883140D03*
X12169140Y-9702800D03*
X11948160Y-9555480D03*
X11699240Y-9456420D03*
X13210540Y-10380980D03*
X13185140Y-10632440D03*
X12877800Y-10114280D03*
X13119100Y-9055100D03*
X13045440Y-9105900D03*
X12984480Y-9151620D03*
X12867640Y-10294620D03*
X12108180Y-9227820D03*
X12827000Y-9037320D03*
X12326620Y-9370060D03*
X12329160Y-9100820D03*
X12204700Y-9085580D03*
X12743180Y-10154920D03*
X12931140Y-9202420D03*
X13388580Y-8973160D03*
X13563600Y-10810240D03*
X11836400Y-10195560D03*
X13646080Y-9116060D03*
X12666980Y-10236200D03*
X11976100Y-10360660D03*
X13276580Y-10025300D03*
X11973560Y-10236200D03*
X12814300Y-10368280D03*
X12893040Y-9474200D03*
X12893040Y-9598660D03*
X12999720Y-10213340D03*
X12847320Y-9652000D03*
X12910820Y-9822180D03*
X13314680Y-10289540D03*
X13261340Y-10241280D03*
X13454380Y-10121900D03*
X13789660Y-9334500D03*
X13837920Y-9507220D03*
X13042900Y-9222740D03*
X11833860Y-10424160D03*
X13731240Y-10033000D03*
X13634720Y-9377680D03*
X12822204Y-9789160D03*
D16*
X13210540Y-10380980D02*
X13355320Y-10380980D01*
X13355320Y-10380980D02*
X13464540Y-10271760D01*
X13464540Y-10271760D02*
X13411232Y-10271760D01*
X13223272Y-10083800D02*
X12964160Y-10083800D01*
X13411232Y-10271760D02*
X13223272Y-10083800D01*
X12964160Y-10083800D02*
X12931140Y-10050780D01*
D17*
X13185140Y-10632440D02*
X13097540Y-10632440D01*
X13097540Y-10632440D02*
X13095000Y-10634980D01*
D18*
X13147140Y-10772140D02*
X13147140Y-10792560D01*
X13772200Y-10850000D02*
X13781480Y-10840720D01*
X13147140Y-10792560D02*
X13204580Y-10850000D01*
X13204580Y-10850000D02*
X13772200Y-10850000D01*
D19*
X13093700Y-10772140D02*
X13147140Y-10772140D01*
X13781480Y-10840720D02*
X13792200Y-10830000D01*
X13434960Y-9019540D02*
X13434960Y-9120240D01*
X13235940Y-9319260D02*
X13161927Y-9319260D01*
X13434960Y-9120240D02*
X13235940Y-9319260D01*
X13161927Y-9319260D02*
X13161927Y-9621167D01*
X13161927Y-9621167D02*
X13177520Y-9636760D01*
D16*
X15199360Y-9517380D02*
X15204440Y-9522460D01*
X15204440Y-9522460D02*
X15204440Y-9588500D01*
X15204440Y-9588500D02*
X15206980Y-9591040D01*
D19*
X15143480Y-9867900D02*
X15206980Y-9804400D01*
X15206980Y-9804400D02*
X15206980Y-9591040D01*
D17*
X12962890Y-10267950D02*
X12962890Y-10328963D01*
X12969240Y-10149840D02*
X12935130Y-10183950D01*
X12935130Y-10240190D02*
X12962890Y-10267950D01*
X12935130Y-10183950D02*
X12935130Y-10240190D01*
X12989560Y-10355633D02*
X12989560Y-10447020D01*
X12962890Y-10328963D02*
X12989560Y-10355633D01*
X12999720Y-10213340D02*
X12999720Y-10335260D01*
X12999720Y-10335260D02*
X13058140Y-10393680D01*
X13058140Y-10393680D02*
X13058140Y-10406380D01*
D19*
X13792200Y-10830000D02*
X13802360Y-10819840D01*
X13802360Y-10819840D02*
X13802360Y-10401300D01*
X13802360Y-10401300D02*
X13764260Y-10363200D01*
D17*
X13934440Y-9758680D02*
X13906500Y-9758680D01*
X13573760Y-10162540D02*
X13649960Y-10238740D01*
X13934440Y-9758680D02*
X13726160Y-9758680D01*
X13726160Y-9758680D02*
X13573760Y-9911080D01*
X13573760Y-9911080D02*
X13573760Y-10162540D01*
X13649960Y-10574020D02*
X13728700Y-10652760D01*
X13649960Y-10238740D02*
X13649960Y-10574020D01*
D19*
X14754860Y-10360660D02*
X14754860Y-10386060D01*
X14754860Y-10386060D02*
X14721840Y-10419080D01*
X14721840Y-10419080D02*
X14653260Y-10419080D01*
D16*
X15077440Y-10535920D02*
X15081520Y-10540000D01*
X15081520Y-10540000D02*
X15279100Y-10540000D01*
X15279100Y-10540000D02*
X15341600Y-10477500D01*
D19*
X15176500Y-10358120D02*
X15176500Y-10396220D01*
X15176500Y-10396220D02*
X15039340Y-10533380D01*
X12720000Y-10555000D02*
X11944380Y-10555000D01*
X11944380Y-10555000D02*
X11905560Y-10516180D01*
X11905560Y-10516180D02*
X11905560Y-10300560D01*
X11905560Y-10300560D02*
X11785000Y-10180000D01*
X14033500Y-9019540D02*
X13992860Y-9060180D01*
X13693140Y-9060180D02*
X13652500Y-9019540D01*
X13992860Y-9060180D02*
X13693140Y-9060180D01*
D17*
X14284960Y-9466580D02*
X14196060Y-9377680D01*
X14196060Y-9377680D02*
X14196060Y-9375140D01*
X14150340Y-10012680D02*
X14124940Y-10038080D01*
X14124940Y-10038080D02*
X13952220Y-10038080D01*
X13952220Y-10038080D02*
X13876020Y-9961880D01*
D19*
X14360000Y-10830000D02*
X14463170Y-10726830D01*
D17*
X14465710Y-10726830D02*
X14463170Y-10726830D01*
D19*
X14463170Y-10726830D02*
X14533020Y-10656980D01*
D17*
X14571980Y-10833100D02*
X14465710Y-10726830D01*
D19*
X13093700Y-10718700D02*
X13093700Y-10772140D01*
D16*
X14678660Y-10345420D02*
X14676120Y-10345420D01*
X14676120Y-10238740D02*
X14678660Y-10345420D01*
X14673580Y-10236200D02*
X14676120Y-10238740D01*
X14467840Y-10104120D02*
X14541500Y-10104120D01*
X14541500Y-10104120D02*
X14673580Y-10236200D01*
X14831060Y-9382760D02*
X14828520Y-9380220D01*
D19*
X14828520Y-9385300D02*
X14831060Y-9382760D01*
X14828520Y-9491980D02*
X14828520Y-9385300D01*
D16*
X14828520Y-9380220D02*
X14828520Y-9258300D01*
D19*
X14831060Y-9382760D02*
X14820900Y-9382760D01*
X14820900Y-9382760D02*
X14457680Y-9019540D01*
D20*
X14196060Y-9373940D02*
X14380000Y-9190000D01*
X14196060Y-9375140D02*
X14196060Y-9373940D01*
X14194860Y-9375140D02*
X14196060Y-9375140D01*
D19*
X15039340Y-10533380D02*
X15074900Y-10533380D01*
X14901500Y-10533380D02*
X15039340Y-10533380D01*
X14901500Y-10533380D02*
X14901500Y-10507300D01*
X14901500Y-10581500D02*
X14901500Y-10533380D01*
X15074900Y-10533380D02*
X15077440Y-10535920D01*
X15143480Y-9867900D02*
X15143480Y-9994900D01*
X15199360Y-10055860D02*
X15199360Y-10246360D01*
X15143480Y-9994900D02*
X15201900Y-10053320D01*
X15201900Y-10053320D02*
X15199360Y-10055860D01*
X14828520Y-9984740D02*
X14828520Y-9867900D01*
X14828520Y-9867900D02*
X14828520Y-9573260D01*
X14828520Y-9867900D02*
X15143480Y-9867900D01*
X14828520Y-9573260D02*
X14668500Y-9573260D01*
X14668500Y-9573260D02*
X14645640Y-9550400D01*
X14828520Y-9573260D02*
X14828520Y-9491980D01*
X14828520Y-9573260D02*
X14965680Y-9573260D01*
X14965680Y-9573260D02*
X14978380Y-9585960D01*
D16*
X12931140Y-10050780D02*
X12606020Y-9725660D01*
X12931140Y-10050780D02*
X12931140Y-10043128D01*
D19*
X13652500Y-9019540D02*
X13434960Y-9019540D01*
X13652500Y-9019540D02*
X13652500Y-9109640D01*
X13652500Y-9109640D02*
X13646080Y-9116060D01*
X14457680Y-9019540D02*
X14033500Y-9019540D01*
X14033500Y-9019540D02*
X14033500Y-9385300D01*
X14033500Y-9385300D02*
X14010640Y-9408160D01*
X14904720Y-9268460D02*
X14988540Y-9268460D01*
X14828520Y-9192260D02*
X14904720Y-9268460D01*
X14904720Y-9268460D02*
X14958060Y-9268460D01*
X14828520Y-9491980D02*
X14828520Y-9192260D01*
X14828520Y-9192260D02*
X14828520Y-9133840D01*
X14828520Y-9192260D02*
X14828520Y-9232900D01*
X14828520Y-9133840D02*
X14884400Y-9077960D01*
X13161927Y-9319260D02*
X13002260Y-9319260D01*
X12931140Y-9248140D02*
X12931140Y-9202420D01*
X13002260Y-9319260D02*
X12931140Y-9248140D01*
X13434960Y-9019540D02*
X13388580Y-8973160D01*
X14457680Y-9019540D02*
X14386560Y-9019540D01*
X14901500Y-10507300D02*
X14754860Y-10360660D01*
X14754860Y-10058400D02*
X14828520Y-9984740D01*
X14754860Y-10360660D02*
X14754860Y-10058400D01*
D16*
X14424660Y-10576560D02*
X14384020Y-10576560D01*
X14384020Y-10576560D02*
X14239240Y-10431780D01*
D19*
X14533020Y-10656980D02*
X14608500Y-10581500D01*
X14452600Y-10576560D02*
X14424660Y-10576560D01*
X14533020Y-10656980D02*
X14452600Y-10576560D01*
X13624560Y-10114280D02*
X13624560Y-9926320D01*
X13764260Y-10363200D02*
X13764260Y-10253980D01*
X13764260Y-10253980D02*
X13624560Y-10114280D01*
X13624560Y-9926320D02*
X13840460Y-9926320D01*
X13840460Y-9926320D02*
X13876020Y-9961880D01*
X13792200Y-10830000D02*
X14360000Y-10830000D01*
D16*
X12669520Y-9512300D02*
X12669520Y-9364980D01*
X12669520Y-9364980D02*
X12832080Y-9202420D01*
X12832080Y-9202420D02*
X12931140Y-9202420D01*
X12509500Y-9380220D02*
X12448540Y-9319260D01*
X12448540Y-9319260D02*
X12448540Y-8956040D01*
X12509500Y-9380220D02*
X12506960Y-9382760D01*
X12539980Y-9382760D02*
X12509500Y-9380220D01*
X12669520Y-9512300D02*
X12539980Y-9382760D01*
X12669520Y-9512300D02*
X12606020Y-9575800D01*
X12606020Y-9575800D02*
X12606020Y-9715500D01*
X12606020Y-9725660D02*
X12606020Y-9715500D01*
D19*
X13095000Y-10555000D02*
X13095000Y-10634980D01*
X13095000Y-10634980D02*
X13095000Y-10720000D01*
X13095000Y-10555000D02*
X13095000Y-10496520D01*
X13095000Y-10496520D02*
X13210540Y-10380980D01*
D16*
X12425680Y-10253980D02*
X12423140Y-10251440D01*
X12536700Y-10365000D02*
X12425680Y-10253980D01*
X12730000Y-10365000D02*
X12536700Y-10365000D01*
D19*
X12743180Y-10231120D02*
X12743180Y-10154920D01*
X12672060Y-10231120D02*
X12666980Y-10236200D01*
X12743180Y-10496580D02*
X12743180Y-10231120D01*
X12743180Y-10231120D02*
X12672060Y-10231120D01*
X12801600Y-10555000D02*
X13095000Y-10555000D01*
X12720000Y-10555000D02*
X12801600Y-10555000D01*
X12801600Y-10555000D02*
X12743180Y-10496580D01*
D17*
X12336780Y-9446260D02*
X12381050Y-9490530D01*
X12426717Y-9490530D02*
X12512040Y-9575853D01*
X12381050Y-9490530D02*
X12426717Y-9490530D01*
X12512040Y-9575853D02*
X12512040Y-9771380D01*
X12512040Y-9771380D02*
X12659360Y-9918700D01*
X12659360Y-9918700D02*
X12659360Y-9949180D01*
D16*
X11948160Y-9555480D02*
X11948160Y-9601200D01*
X11948160Y-9601200D02*
X12204700Y-9857740D01*
X12204700Y-9857740D02*
X12204700Y-9900920D01*
D19*
X12905740Y-10068560D02*
X12877220Y-10097080D01*
D16*
X15118080Y-9352280D02*
X15072360Y-9352280D01*
X14988540Y-9268460D02*
X14958060Y-9268460D01*
D19*
X15072360Y-9352280D02*
X14988540Y-9268460D01*
D20*
X14390460Y-9019540D02*
X14390000Y-9020000D01*
X14386560Y-9019540D02*
X14390460Y-9019540D01*
X14386560Y-9023440D02*
X14386560Y-9019540D01*
X14884400Y-9077960D02*
X14880000Y-9082360D01*
X14880000Y-9073560D02*
X14884400Y-9077960D01*
D16*
X15073360Y-10540000D02*
X15070000Y-10540000D01*
X15077440Y-10535920D02*
X15073360Y-10540000D01*
X14930120Y-9799320D02*
X14927580Y-9796780D01*
D19*
X11785000Y-10180000D02*
X11778000Y-10173000D01*
X11778000Y-10173000D02*
X11778000Y-9721000D01*
X11778000Y-9721000D02*
X11699240Y-9642240D01*
X11699240Y-9642240D02*
X11699240Y-9456420D01*
D17*
X12247880Y-9753600D02*
X12273280Y-9728200D01*
X12273280Y-9728200D02*
X12435840Y-9728200D01*
X12727940Y-9997440D02*
X12727940Y-9947969D01*
X12727940Y-9947969D02*
X12533630Y-9753659D01*
X12533630Y-9753659D02*
X12533630Y-9566910D01*
X12533630Y-9566910D02*
X12407900Y-9441180D01*
X12793980Y-10048240D02*
X12793980Y-9969500D01*
X12592108Y-9771380D02*
X12555220Y-9734492D01*
X12793980Y-9969500D02*
X12595860Y-9771380D01*
X12595860Y-9771380D02*
X12592108Y-9771380D01*
X12555220Y-9734492D02*
X12555220Y-9497060D01*
X12555220Y-9497060D02*
X12509500Y-9451340D01*
X12512040Y-9448800D02*
X12509500Y-9451340D01*
X12512040Y-9451340D02*
X12512040Y-9448800D01*
X12509500Y-9451340D02*
X12512040Y-9451340D01*
X12407900Y-9441180D02*
X12405360Y-9446260D01*
D19*
X13095000Y-10720000D02*
X13093700Y-10718700D01*
D16*
X12730000Y-10275000D02*
X12730000Y-10345000D01*
X14430000Y-9240000D02*
X14380000Y-9190000D01*
X12730000Y-10545000D02*
X12720000Y-10555000D01*
X12730000Y-10345000D02*
X12730000Y-10365000D01*
X14810000Y-9240000D02*
X14430000Y-9240000D01*
D20*
X14380000Y-9030000D02*
X14386560Y-9023440D01*
X14195000Y-9375000D02*
X14194860Y-9375140D01*
D19*
X14608500Y-10581500D02*
X14901500Y-10581500D01*
D16*
X12730000Y-10365000D02*
X12730000Y-10545000D01*
D19*
X11785000Y-10180000D02*
X11755000Y-10180000D01*
D20*
X14380000Y-9190000D02*
X14380000Y-9030000D01*
D17*
X13454380Y-10121900D02*
X13528040Y-10048240D01*
X13837920Y-9507220D02*
X13837920Y-9431020D01*
X13837920Y-9382760D02*
X13789660Y-9334500D01*
X13660120Y-9550400D02*
X13723620Y-9550400D01*
X13528040Y-9682480D02*
X13660120Y-9550400D01*
X13837920Y-9431020D02*
X13837920Y-9382760D01*
X13723620Y-9550400D02*
X13837920Y-9436100D01*
X13528040Y-10048240D02*
X13528040Y-9682480D01*
G04 #@! TA.AperFunction,Conductor*
G36*
X12550909Y-8941969D02*
G01*
X12555484Y-8947249D01*
X12556479Y-8954165D01*
X12555253Y-8958029D01*
X12551565Y-8965269D01*
X12549808Y-8976360D01*
X12549808Y-8976360D01*
X12551565Y-8987451D01*
X12556663Y-8997457D01*
X12564603Y-9005397D01*
X12574609Y-9010495D01*
X12585700Y-9012252D01*
X12585700Y-9012252D01*
X12585700Y-9012252D01*
X12596791Y-9010495D01*
X12596791Y-9010495D01*
X12596791Y-9010495D01*
X12606797Y-9005397D01*
X12614737Y-8997457D01*
X12619835Y-8987451D01*
X12619835Y-8987451D01*
X12619835Y-8987451D01*
X12621592Y-8976360D01*
X12621592Y-8976360D01*
X12619835Y-8965269D01*
X12616147Y-8958029D01*
X12614857Y-8951163D01*
X12617485Y-8944688D01*
X12623195Y-8940663D01*
X12627195Y-8940000D01*
X13024590Y-8940000D01*
X13031294Y-8941969D01*
X13035869Y-8947249D01*
X13036864Y-8954165D01*
X13033961Y-8960520D01*
X13033358Y-8961168D01*
X13026563Y-8967963D01*
X13021465Y-8977969D01*
X13019708Y-8989060D01*
X13019708Y-8989060D01*
X13021465Y-9000151D01*
X13026563Y-9010157D01*
X13034503Y-9018097D01*
X13044509Y-9023195D01*
X13055600Y-9024952D01*
X13055600Y-9024952D01*
X13055600Y-9024952D01*
X13066691Y-9023195D01*
X13066691Y-9023195D01*
X13066691Y-9023195D01*
X13071693Y-9020647D01*
X13078559Y-9019357D01*
X13085033Y-9021985D01*
X13089059Y-9027696D01*
X13089358Y-9034676D01*
X13088370Y-9037325D01*
X13084965Y-9044009D01*
X13083558Y-9052892D01*
X13083208Y-9055100D01*
X13083487Y-9056863D01*
X13084614Y-9063977D01*
X13083718Y-9070906D01*
X13079219Y-9076251D01*
X13072544Y-9078315D01*
X13066737Y-9076965D01*
X13056531Y-9071765D01*
X13045440Y-9070008D01*
X13045440Y-9070008D01*
X13034349Y-9071765D01*
X13024343Y-9076863D01*
X13016403Y-9084803D01*
X13011305Y-9094809D01*
X13009395Y-9106864D01*
X13009069Y-9106812D01*
X13007580Y-9111884D01*
X13002299Y-9116459D01*
X12995383Y-9117454D01*
X12995208Y-9117427D01*
X12984480Y-9115728D01*
X12984480Y-9115728D01*
X12973389Y-9117485D01*
X12963383Y-9122583D01*
X12955443Y-9130523D01*
X12950345Y-9140529D01*
X12948588Y-9151620D01*
X12948588Y-9151620D01*
X12950345Y-9162711D01*
X12955443Y-9172717D01*
X12963383Y-9180657D01*
X12973389Y-9185755D01*
X12984480Y-9187512D01*
X12984480Y-9187512D01*
X12984480Y-9187512D01*
X12995571Y-9185755D01*
X12995571Y-9185755D01*
X12995571Y-9185755D01*
X12997207Y-9184922D01*
X13004074Y-9183632D01*
X13010548Y-9186260D01*
X13014574Y-9191970D01*
X13014873Y-9198951D01*
X13013885Y-9201599D01*
X13008765Y-9211649D01*
X13007008Y-9222740D01*
X13007008Y-9222740D01*
X13008765Y-9233831D01*
X13013863Y-9243837D01*
X13021803Y-9251777D01*
X13031809Y-9256875D01*
X13042900Y-9258632D01*
X13042900Y-9258632D01*
X13042900Y-9258632D01*
X13053991Y-9256875D01*
X13053991Y-9256875D01*
X13053991Y-9256875D01*
X13063997Y-9251777D01*
X13071937Y-9243837D01*
X13074921Y-9237980D01*
X14081995Y-9237980D01*
X14084043Y-9252226D01*
X14088487Y-9261955D01*
X14090022Y-9265317D01*
X14099447Y-9276194D01*
X14111555Y-9283975D01*
X14111555Y-9283975D01*
X14111555Y-9283975D01*
X14125364Y-9288030D01*
X14125364Y-9288030D01*
X14125364Y-9288030D01*
X14139756Y-9288030D01*
X14139756Y-9288030D01*
X14153565Y-9283975D01*
X14157946Y-9281160D01*
X15082188Y-9281160D01*
X15083945Y-9292251D01*
X15089043Y-9302257D01*
X15096983Y-9310197D01*
X15106989Y-9315295D01*
X15118080Y-9317052D01*
X15118080Y-9317052D01*
X15118080Y-9317052D01*
X15129171Y-9315295D01*
X15129171Y-9315295D01*
X15129171Y-9315295D01*
X15139177Y-9310197D01*
X15147117Y-9302257D01*
X15152215Y-9292251D01*
X15152215Y-9292251D01*
X15152215Y-9292251D01*
X15153972Y-9281160D01*
X15153972Y-9281160D01*
X15152215Y-9270069D01*
X15147117Y-9260063D01*
X15139176Y-9252123D01*
X15129171Y-9247025D01*
X15118080Y-9245268D01*
X15118080Y-9245268D01*
X15106989Y-9247025D01*
X15096983Y-9252123D01*
X15089043Y-9260063D01*
X15083945Y-9270069D01*
X15082188Y-9281160D01*
X15082188Y-9281160D01*
X14157946Y-9281160D01*
X14165673Y-9276194D01*
X14175098Y-9265317D01*
X14181076Y-9252226D01*
X14183125Y-9237980D01*
X14181076Y-9223734D01*
X14175098Y-9210643D01*
X14165673Y-9199766D01*
X14153565Y-9191985D01*
X14153565Y-9191985D01*
X14153565Y-9191985D01*
X14153565Y-9191985D01*
X14139756Y-9187930D01*
X14139756Y-9187930D01*
X14125364Y-9187930D01*
X14125364Y-9187930D01*
X14111555Y-9191985D01*
X14099447Y-9199766D01*
X14090022Y-9210643D01*
X14090022Y-9210643D01*
X14084043Y-9223734D01*
X14081995Y-9237980D01*
X13074921Y-9237980D01*
X13077035Y-9233831D01*
X13077035Y-9233831D01*
X13077035Y-9233831D01*
X13078792Y-9222740D01*
X13078792Y-9222740D01*
X13077035Y-9211649D01*
X13071937Y-9201643D01*
X13063996Y-9193703D01*
X13053991Y-9188605D01*
X13042900Y-9186848D01*
X13042900Y-9186848D01*
X13031809Y-9188605D01*
X13030172Y-9189439D01*
X13023305Y-9190728D01*
X13016832Y-9188100D01*
X13012806Y-9182389D01*
X13012507Y-9175409D01*
X13013495Y-9172760D01*
X13014648Y-9170497D01*
X13018615Y-9162711D01*
X13018615Y-9162711D01*
X13018615Y-9162711D01*
X13020525Y-9150656D01*
X13020851Y-9150708D01*
X13022340Y-9145636D01*
X13027621Y-9141061D01*
X13034537Y-9140066D01*
X13034712Y-9140093D01*
X13045440Y-9141792D01*
X13045440Y-9141792D01*
X13045440Y-9141792D01*
X13056531Y-9140035D01*
X13056531Y-9140035D01*
X13056531Y-9140035D01*
X13066537Y-9134937D01*
X13074477Y-9126997D01*
X13079575Y-9116991D01*
X13079575Y-9116991D01*
X13079575Y-9116991D01*
X13080527Y-9110980D01*
X13167028Y-9110980D01*
X13168785Y-9122071D01*
X13173883Y-9132077D01*
X13181823Y-9140017D01*
X13191829Y-9145115D01*
X13202920Y-9146872D01*
X13202920Y-9146872D01*
X13202920Y-9146872D01*
X13214010Y-9145115D01*
X13214010Y-9145115D01*
X13214011Y-9145115D01*
X13214012Y-9145115D01*
X13214171Y-9145063D01*
X13214377Y-9145057D01*
X13214975Y-9144963D01*
X13214987Y-9145040D01*
X13221155Y-9144863D01*
X13227139Y-9148470D01*
X13230222Y-9154740D01*
X13229855Y-9159878D01*
X13229897Y-9159885D01*
X13229819Y-9160379D01*
X13229797Y-9160688D01*
X13229745Y-9160849D01*
X13227988Y-9171940D01*
X13227988Y-9171940D01*
X13229745Y-9183031D01*
X13234843Y-9193037D01*
X13242783Y-9200977D01*
X13252789Y-9206075D01*
X13263880Y-9207832D01*
X13263880Y-9207832D01*
X13263880Y-9207832D01*
X13274971Y-9206075D01*
X13274971Y-9206075D01*
X13274971Y-9206075D01*
X13284977Y-9200977D01*
X13292917Y-9193037D01*
X13298015Y-9183031D01*
X13298015Y-9183031D01*
X13298015Y-9183031D01*
X13299772Y-9171940D01*
X13299772Y-9171940D01*
X13298015Y-9160849D01*
X13292917Y-9150843D01*
X13284976Y-9142903D01*
X13282146Y-9141460D01*
X13748688Y-9141460D01*
X13750445Y-9152551D01*
X13755543Y-9162557D01*
X13763483Y-9170497D01*
X13773489Y-9175595D01*
X13784580Y-9177352D01*
X13784580Y-9177352D01*
X13784580Y-9177352D01*
X13795671Y-9175595D01*
X13795671Y-9175595D01*
X13795671Y-9175595D01*
X13805677Y-9170497D01*
X13813617Y-9162557D01*
X13818715Y-9152551D01*
X13818715Y-9152551D01*
X13818715Y-9152551D01*
X13820472Y-9141460D01*
X13820472Y-9141460D01*
X13818863Y-9131300D01*
X14264875Y-9131300D01*
X14266923Y-9145546D01*
X14272902Y-9158637D01*
X14272902Y-9158637D01*
X14282327Y-9169514D01*
X14294435Y-9177295D01*
X14294435Y-9177295D01*
X14294435Y-9177295D01*
X14308244Y-9181350D01*
X14308244Y-9181350D01*
X14308244Y-9181350D01*
X14322636Y-9181350D01*
X14322636Y-9181350D01*
X14333352Y-9178204D01*
X14336445Y-9177295D01*
X14336445Y-9177295D01*
X14336445Y-9177295D01*
X14348553Y-9169514D01*
X14357978Y-9158637D01*
X14363956Y-9145546D01*
X14366005Y-9131300D01*
X14363956Y-9117054D01*
X14357978Y-9103963D01*
X14348553Y-9093086D01*
X14336445Y-9085305D01*
X14336445Y-9085305D01*
X14336445Y-9085305D01*
X14336445Y-9085305D01*
X14322636Y-9081250D01*
X14322636Y-9081250D01*
X14308244Y-9081250D01*
X14308244Y-9081250D01*
X14294435Y-9085305D01*
X14282327Y-9093086D01*
X14272902Y-9103963D01*
X14272902Y-9103963D01*
X14266923Y-9117054D01*
X14264875Y-9131300D01*
X13818863Y-9131300D01*
X13818715Y-9130369D01*
X13813617Y-9120363D01*
X13805676Y-9112423D01*
X13795671Y-9107325D01*
X13784580Y-9105568D01*
X13784580Y-9105568D01*
X13773489Y-9107325D01*
X13763483Y-9112423D01*
X13755543Y-9120363D01*
X13750445Y-9130369D01*
X13748688Y-9141460D01*
X13748688Y-9141460D01*
X13282146Y-9141460D01*
X13274971Y-9137805D01*
X13263880Y-9136048D01*
X13263880Y-9136048D01*
X13252789Y-9137805D01*
X13252628Y-9137857D01*
X13252421Y-9137863D01*
X13251825Y-9137957D01*
X13251813Y-9137880D01*
X13245644Y-9138057D01*
X13239660Y-9134449D01*
X13236577Y-9128178D01*
X13236945Y-9123042D01*
X13236903Y-9123035D01*
X13236981Y-9122539D01*
X13237003Y-9122231D01*
X13237055Y-9122072D01*
X13237055Y-9122071D01*
X13237150Y-9121472D01*
X13238812Y-9110980D01*
X13238812Y-9110980D01*
X13237055Y-9099889D01*
X13231957Y-9089883D01*
X13224016Y-9081943D01*
X13216200Y-9077960D01*
X14642768Y-9077960D01*
X14644525Y-9089051D01*
X14649623Y-9099057D01*
X14657563Y-9106997D01*
X14667569Y-9112095D01*
X14678660Y-9113852D01*
X14678660Y-9113852D01*
X14678660Y-9113852D01*
X14689751Y-9112095D01*
X14689751Y-9112095D01*
X14689751Y-9112095D01*
X14699757Y-9106997D01*
X14707697Y-9099057D01*
X14712795Y-9089051D01*
X14712795Y-9089051D01*
X14712795Y-9089051D01*
X14714552Y-9077960D01*
X14714552Y-9077960D01*
X14712795Y-9066869D01*
X14707697Y-9056863D01*
X14706038Y-9055204D01*
X14702689Y-9049072D01*
X14703188Y-9042103D01*
X14707375Y-9036509D01*
X14713921Y-9034068D01*
X14716746Y-9034189D01*
X14727500Y-9035892D01*
X14727500Y-9035892D01*
X14727500Y-9035892D01*
X14738591Y-9034135D01*
X14738591Y-9034135D01*
X14738591Y-9034135D01*
X14748597Y-9029037D01*
X14756537Y-9021097D01*
X14761635Y-9011091D01*
X14761635Y-9011091D01*
X14761635Y-9011091D01*
X14763392Y-9000000D01*
X14763392Y-9000000D01*
X14761635Y-8988909D01*
X14756537Y-8978903D01*
X14748596Y-8970963D01*
X14738591Y-8965865D01*
X14730905Y-8964647D01*
X14727567Y-8963065D01*
X14725649Y-8964298D01*
X14724095Y-8964647D01*
X14716409Y-8965865D01*
X14706403Y-8970963D01*
X14698463Y-8978903D01*
X14693365Y-8988909D01*
X14691608Y-9000000D01*
X14691608Y-9000000D01*
X14693365Y-9011091D01*
X14698463Y-9021097D01*
X14700122Y-9022756D01*
X14703470Y-9028888D01*
X14702972Y-9035857D01*
X14698785Y-9041451D01*
X14692238Y-9043892D01*
X14689414Y-9043771D01*
X14678660Y-9042068D01*
X14678660Y-9042068D01*
X14667569Y-9043825D01*
X14657563Y-9048923D01*
X14657192Y-9049193D01*
X14651107Y-9051364D01*
X14651191Y-9051780D01*
X14649885Y-9056349D01*
X14644525Y-9066869D01*
X14642768Y-9077960D01*
X14642768Y-9077960D01*
X13216200Y-9077960D01*
X13214011Y-9076845D01*
X13202920Y-9075088D01*
X13202920Y-9075088D01*
X13191829Y-9076845D01*
X13181823Y-9081943D01*
X13173883Y-9089883D01*
X13168785Y-9099889D01*
X13167028Y-9110980D01*
X13167028Y-9110980D01*
X13080527Y-9110980D01*
X13081332Y-9105900D01*
X13081332Y-9105900D01*
X13080527Y-9100820D01*
X13079926Y-9097023D01*
X13080821Y-9090094D01*
X13085321Y-9084749D01*
X13091996Y-9082685D01*
X13097803Y-9084035D01*
X13108009Y-9089235D01*
X13119100Y-9090992D01*
X13119100Y-9090992D01*
X13119100Y-9090992D01*
X13130191Y-9089235D01*
X13130191Y-9089235D01*
X13130191Y-9089235D01*
X13140197Y-9084137D01*
X13148137Y-9076197D01*
X13153235Y-9066191D01*
X13153235Y-9066191D01*
X13153235Y-9066191D01*
X13154992Y-9055100D01*
X13154992Y-9055100D01*
X13153235Y-9044009D01*
X13148137Y-9034003D01*
X13140196Y-9026063D01*
X13130191Y-9020965D01*
X13119100Y-9019208D01*
X13119100Y-9019208D01*
X13108009Y-9020965D01*
X13103007Y-9023513D01*
X13096140Y-9024803D01*
X13089666Y-9022175D01*
X13085641Y-9016464D01*
X13085342Y-9009484D01*
X13086330Y-9006835D01*
X13087062Y-9005397D01*
X13089735Y-9000151D01*
X13089735Y-9000151D01*
X13089735Y-9000151D01*
X13091492Y-8989060D01*
X13091492Y-8989060D01*
X13089735Y-8977969D01*
X13084637Y-8967963D01*
X13077842Y-8961168D01*
X13074493Y-8955036D01*
X13074992Y-8948067D01*
X13079179Y-8942473D01*
X13085725Y-8940032D01*
X13086610Y-8940000D01*
X13839930Y-8940000D01*
X13846634Y-8941969D01*
X13851209Y-8947249D01*
X13852204Y-8954165D01*
X13849301Y-8960520D01*
X13848698Y-8961168D01*
X13841903Y-8967963D01*
X13836805Y-8977969D01*
X13835048Y-8989060D01*
X13835048Y-8989060D01*
X13836805Y-9000151D01*
X13841903Y-9010157D01*
X13849843Y-9018097D01*
X13859849Y-9023195D01*
X13870940Y-9024952D01*
X13870940Y-9024952D01*
X13870940Y-9024952D01*
X13882031Y-9023195D01*
X13882031Y-9023195D01*
X13882031Y-9023195D01*
X13892037Y-9018097D01*
X13898214Y-9011920D01*
X14574188Y-9011920D01*
X14575945Y-9023011D01*
X14581043Y-9033017D01*
X14588983Y-9040957D01*
X14598989Y-9046055D01*
X14610080Y-9047812D01*
X14610080Y-9047812D01*
X14610080Y-9047812D01*
X14621171Y-9046055D01*
X14621171Y-9046055D01*
X14621171Y-9046055D01*
X14631177Y-9040957D01*
X14631177Y-9040957D01*
X14631547Y-9040688D01*
X14637633Y-9038516D01*
X14637549Y-9038099D01*
X14638855Y-9033531D01*
X14639117Y-9033017D01*
X14639117Y-9033017D01*
X14644215Y-9023011D01*
X14644215Y-9023011D01*
X14645972Y-9011920D01*
X14645972Y-9011920D01*
X14644215Y-9000829D01*
X14639117Y-8990823D01*
X14631176Y-8982883D01*
X14621171Y-8977785D01*
X14610080Y-8976028D01*
X14610080Y-8976028D01*
X14598989Y-8977785D01*
X14588983Y-8982883D01*
X14581043Y-8990823D01*
X14575945Y-9000829D01*
X14574188Y-9011920D01*
X14574188Y-9011920D01*
X13898214Y-9011920D01*
X13899977Y-9010157D01*
X13905075Y-9000151D01*
X13905075Y-9000151D01*
X13905075Y-9000151D01*
X13906832Y-8989060D01*
X13906832Y-8989060D01*
X13905075Y-8977969D01*
X13899977Y-8967963D01*
X13893182Y-8961168D01*
X13889833Y-8955036D01*
X13890332Y-8948067D01*
X13894519Y-8942473D01*
X13901065Y-8940032D01*
X13901950Y-8940000D01*
X14722156Y-8940000D01*
X14727750Y-8941643D01*
X14731255Y-8940102D01*
X14732844Y-8940000D01*
X14828525Y-8940000D01*
X14831434Y-8940346D01*
X14989341Y-8978462D01*
X14995396Y-8981948D01*
X14998604Y-8988155D01*
X14997948Y-8995111D01*
X14997480Y-8996145D01*
X14992505Y-9005909D01*
X14990748Y-9017000D01*
X14990748Y-9017000D01*
X14992505Y-9028091D01*
X14997603Y-9038097D01*
X15005543Y-9046037D01*
X15015549Y-9051135D01*
X15026640Y-9052892D01*
X15026640Y-9052892D01*
X15026640Y-9052892D01*
X15037731Y-9051135D01*
X15037731Y-9051135D01*
X15037731Y-9051135D01*
X15047737Y-9046037D01*
X15055677Y-9038097D01*
X15060775Y-9028091D01*
X15060775Y-9028091D01*
X15060775Y-9028091D01*
X15062532Y-9017000D01*
X15062532Y-9017000D01*
X15062532Y-9017000D01*
X15062002Y-9013652D01*
X15062897Y-9006723D01*
X15067397Y-9001378D01*
X15074072Y-8999314D01*
X15077157Y-8999659D01*
X15111902Y-9008045D01*
X15114785Y-9009136D01*
X15126430Y-9015290D01*
X15128284Y-9016493D01*
X15254894Y-9115728D01*
X15258108Y-9118247D01*
X15262171Y-9123932D01*
X15262514Y-9130911D01*
X15259998Y-9135408D01*
X15261000Y-9469000D01*
X15263134Y-9471139D01*
X15266477Y-9477274D01*
X15265972Y-9484243D01*
X15263126Y-9488666D01*
X15252018Y-9499774D01*
X15242421Y-9515048D01*
X15236463Y-9532075D01*
X15236463Y-9532075D01*
X15234443Y-9550000D01*
X15234443Y-9550000D01*
X15236463Y-9567925D01*
X15236463Y-9567925D01*
X15242421Y-9584952D01*
X15248924Y-9595301D01*
X15252018Y-9600226D01*
X15264774Y-9612982D01*
X15272545Y-9617865D01*
X15280043Y-9622576D01*
X15280048Y-9622579D01*
X15297074Y-9628537D01*
X15297074Y-9628537D01*
X15297075Y-9628537D01*
X15306125Y-9629557D01*
X15310504Y-9630050D01*
X15310504Y-9630050D01*
X15310505Y-9630050D01*
X15389496Y-9630050D01*
X15389496Y-9630050D01*
X15396210Y-9629293D01*
X15402925Y-9628537D01*
X15402925Y-9628537D01*
X15402925Y-9628537D01*
X15419952Y-9622579D01*
X15435226Y-9612982D01*
X15447982Y-9600226D01*
X15447982Y-9600226D01*
X15448474Y-9599734D01*
X15448601Y-9599861D01*
X15453574Y-9596371D01*
X15460555Y-9596086D01*
X15466582Y-9599620D01*
X15469742Y-9605852D01*
X15469950Y-9608116D01*
X15469950Y-10191884D01*
X15467981Y-10198588D01*
X15462701Y-10203164D01*
X15455785Y-10204158D01*
X15449430Y-10201255D01*
X15448477Y-10200263D01*
X15448474Y-10200266D01*
X15435226Y-10187018D01*
X15419952Y-10177421D01*
X15402925Y-10171463D01*
X15402925Y-10171463D01*
X15389496Y-10169950D01*
X15389495Y-10169950D01*
X15310505Y-10169950D01*
X15310504Y-10169950D01*
X15297075Y-10171463D01*
X15297074Y-10171463D01*
X15280048Y-10177421D01*
X15264774Y-10187018D01*
X15252018Y-10199774D01*
X15242421Y-10215048D01*
X15236463Y-10232075D01*
X15236463Y-10232075D01*
X15234443Y-10250000D01*
X15234443Y-10250000D01*
X15236463Y-10267925D01*
X15236463Y-10267925D01*
X15242421Y-10284952D01*
X15243123Y-10286069D01*
X15252018Y-10300226D01*
X15264774Y-10312982D01*
X15271759Y-10317371D01*
X15276388Y-10322604D01*
X15277452Y-10329509D01*
X15276210Y-10333499D01*
X15271905Y-10341949D01*
X15270148Y-10353040D01*
X15270148Y-10353040D01*
X15271905Y-10364131D01*
X15277003Y-10374137D01*
X15284943Y-10382077D01*
X15294949Y-10387175D01*
X15306040Y-10388932D01*
X15306040Y-10388932D01*
X15306040Y-10388932D01*
X15317131Y-10387175D01*
X15317131Y-10387175D01*
X15317131Y-10387175D01*
X15327137Y-10382077D01*
X15335077Y-10374137D01*
X15339911Y-10364650D01*
X15344708Y-10359570D01*
X15351490Y-10357891D01*
X15358104Y-10360144D01*
X15362449Y-10365616D01*
X15363207Y-10368339D01*
X15363345Y-10369211D01*
X15368443Y-10379217D01*
X15376383Y-10387157D01*
X15386389Y-10392255D01*
X15397480Y-10394012D01*
X15397480Y-10394012D01*
X15397480Y-10394012D01*
X15408571Y-10392255D01*
X15408571Y-10392255D01*
X15408571Y-10392255D01*
X15418577Y-10387157D01*
X15418577Y-10387157D01*
X15419366Y-10386584D01*
X15419492Y-10386758D01*
X15424487Y-10384029D01*
X15431456Y-10384527D01*
X15437050Y-10388714D01*
X15439493Y-10395260D01*
X15438987Y-10399756D01*
X15436321Y-10408517D01*
X15423716Y-10444541D01*
X15423546Y-10444973D01*
X15403696Y-10490469D01*
X15403495Y-10490887D01*
X15381585Y-10532342D01*
X15380516Y-10534023D01*
X15281090Y-10665615D01*
X15280527Y-10666263D01*
X15255846Y-10690944D01*
X15255506Y-10691259D01*
X15217883Y-10723636D01*
X15217520Y-10723926D01*
X15177583Y-10753401D01*
X15177200Y-10753662D01*
X15135171Y-10780071D01*
X15134769Y-10780303D01*
X15090886Y-10803495D01*
X15090469Y-10803696D01*
X15044973Y-10823546D01*
X15044541Y-10823715D01*
X14997690Y-10840109D01*
X14997247Y-10840246D01*
X14949301Y-10853093D01*
X14948849Y-10853196D01*
X14900079Y-10862424D01*
X14899620Y-10862493D01*
X14897775Y-10862701D01*
X14850296Y-10868051D01*
X14849834Y-10868085D01*
X14800000Y-10869950D01*
X13427322Y-10869950D01*
X13420618Y-10867982D01*
X13416043Y-10862701D01*
X13415048Y-10855785D01*
X13417951Y-10849430D01*
X13419576Y-10847867D01*
X13432614Y-10837437D01*
X13484860Y-10795640D01*
X13484860Y-10774680D01*
X14792628Y-10774680D01*
X14794385Y-10785771D01*
X14799483Y-10795777D01*
X14807423Y-10803717D01*
X14817429Y-10808815D01*
X14828520Y-10810572D01*
X14828520Y-10810572D01*
X14828520Y-10810572D01*
X14839611Y-10808815D01*
X14839611Y-10808815D01*
X14839611Y-10808815D01*
X14849617Y-10803717D01*
X14857557Y-10795777D01*
X14862655Y-10785771D01*
X14862655Y-10785771D01*
X14862655Y-10785771D01*
X14864412Y-10774680D01*
X14864412Y-10774680D01*
X14862655Y-10763589D01*
X14857557Y-10753583D01*
X14849616Y-10745643D01*
X14839611Y-10740545D01*
X14828520Y-10738788D01*
X14828520Y-10738788D01*
X14817429Y-10740545D01*
X14807423Y-10745643D01*
X14799483Y-10753583D01*
X14794385Y-10763589D01*
X14792628Y-10774680D01*
X14792628Y-10774680D01*
X13484860Y-10774680D01*
X13484860Y-10350640D01*
X13484658Y-10350500D01*
X13360202Y-10264338D01*
X13355810Y-10258904D01*
X13354860Y-10254143D01*
X13354860Y-10121900D01*
X13418488Y-10121900D01*
X13420245Y-10132991D01*
X13425343Y-10142997D01*
X13433283Y-10150937D01*
X13443289Y-10156035D01*
X13454380Y-10157792D01*
X13454380Y-10157792D01*
X13454380Y-10157792D01*
X13465471Y-10156035D01*
X13465471Y-10156035D01*
X13465471Y-10156035D01*
X13475477Y-10150937D01*
X13483417Y-10142997D01*
X13488515Y-10132991D01*
X13489370Y-10127594D01*
X13492363Y-10121281D01*
X13492847Y-10120768D01*
X13526192Y-10087423D01*
X13532324Y-10084075D01*
X13539293Y-10084573D01*
X13544887Y-10088760D01*
X13547328Y-10095307D01*
X13547360Y-10096191D01*
X13547360Y-10158718D01*
X13547122Y-10161137D01*
X13546843Y-10162540D01*
X13546843Y-10162540D01*
X13547360Y-10165140D01*
X13548892Y-10172841D01*
X13554727Y-10181573D01*
X13555915Y-10182368D01*
X13557794Y-10183910D01*
X13619928Y-10246043D01*
X13623277Y-10252176D01*
X13623560Y-10254811D01*
X13623560Y-10570198D01*
X13623322Y-10572617D01*
X13623043Y-10574020D01*
X13623043Y-10574020D01*
X13623560Y-10576620D01*
X13625092Y-10584321D01*
X13630927Y-10593053D01*
X13632115Y-10593848D01*
X13633994Y-10595390D01*
X13690231Y-10651626D01*
X13693579Y-10657758D01*
X13693710Y-10658454D01*
X13694565Y-10663851D01*
X13694565Y-10663851D01*
X13694565Y-10663851D01*
X13695793Y-10666263D01*
X13699663Y-10673857D01*
X13707603Y-10681797D01*
X13717609Y-10686895D01*
X13728700Y-10688652D01*
X13728700Y-10688652D01*
X13728700Y-10688652D01*
X13739791Y-10686895D01*
X13739791Y-10686895D01*
X13739791Y-10686895D01*
X13749797Y-10681797D01*
X13750894Y-10680700D01*
X13860448Y-10680700D01*
X13862205Y-10691791D01*
X13867303Y-10701797D01*
X13875243Y-10709737D01*
X13885249Y-10714835D01*
X13896340Y-10716592D01*
X13896340Y-10716592D01*
X13896340Y-10716592D01*
X13907431Y-10714835D01*
X13907431Y-10714835D01*
X13907431Y-10714835D01*
X13917437Y-10709737D01*
X13925377Y-10701797D01*
X13930475Y-10691791D01*
X13930475Y-10691791D01*
X13930475Y-10691791D01*
X13932232Y-10680700D01*
X13932232Y-10680700D01*
X13930475Y-10669609D01*
X13925377Y-10659603D01*
X13923614Y-10657840D01*
X15005988Y-10657840D01*
X15007745Y-10668931D01*
X15012843Y-10678937D01*
X15020783Y-10686877D01*
X15030789Y-10691975D01*
X15041880Y-10693732D01*
X15041880Y-10693732D01*
X15041880Y-10693732D01*
X15052971Y-10691975D01*
X15052971Y-10691975D01*
X15052971Y-10691975D01*
X15062977Y-10686877D01*
X15070917Y-10678937D01*
X15076015Y-10668931D01*
X15076015Y-10668931D01*
X15076015Y-10668931D01*
X15077772Y-10657840D01*
X15077772Y-10657840D01*
X15076015Y-10646749D01*
X15070917Y-10636743D01*
X15062976Y-10628803D01*
X15052971Y-10623705D01*
X15041880Y-10621948D01*
X15041880Y-10621948D01*
X15030789Y-10623705D01*
X15020783Y-10628803D01*
X15012843Y-10636743D01*
X15007745Y-10646749D01*
X15005988Y-10657840D01*
X15005988Y-10657840D01*
X13923614Y-10657840D01*
X13917436Y-10651663D01*
X13907431Y-10646565D01*
X13896340Y-10644808D01*
X13896340Y-10644808D01*
X13885249Y-10646565D01*
X13875243Y-10651663D01*
X13867303Y-10659603D01*
X13862205Y-10669609D01*
X13860448Y-10680700D01*
X13860448Y-10680700D01*
X13750894Y-10680700D01*
X13757737Y-10673857D01*
X13762835Y-10663851D01*
X13762835Y-10663851D01*
X13762835Y-10663851D01*
X13764592Y-10652760D01*
X13764592Y-10652760D01*
X13762835Y-10641669D01*
X13757737Y-10631663D01*
X13749796Y-10623723D01*
X13741980Y-10619740D01*
X14228748Y-10619740D01*
X14230505Y-10630831D01*
X14235603Y-10640837D01*
X14243543Y-10648777D01*
X14253549Y-10653875D01*
X14264640Y-10655632D01*
X14264640Y-10655632D01*
X14264640Y-10655632D01*
X14275731Y-10653875D01*
X14275731Y-10653875D01*
X14275731Y-10653875D01*
X14284266Y-10649527D01*
X14773828Y-10649527D01*
X14789706Y-10655082D01*
X14806500Y-10656975D01*
X14806500Y-10656975D01*
X14823294Y-10655082D01*
X14839171Y-10649527D01*
X14839171Y-10649527D01*
X14868828Y-10649527D01*
X14884706Y-10655082D01*
X14901500Y-10656975D01*
X14901500Y-10656975D01*
X14918294Y-10655082D01*
X14934171Y-10649527D01*
X14934171Y-10649527D01*
X14901500Y-10616855D01*
X14901500Y-10616855D01*
X14868828Y-10649527D01*
X14839171Y-10649527D01*
X14806500Y-10616855D01*
X14806500Y-10616855D01*
X14773828Y-10649527D01*
X14284266Y-10649527D01*
X14285737Y-10648777D01*
X14293677Y-10640837D01*
X14298775Y-10630831D01*
X14298775Y-10630831D01*
X14298775Y-10630831D01*
X14300532Y-10619740D01*
X14300532Y-10619740D01*
X14298775Y-10608649D01*
X14293677Y-10598643D01*
X14285736Y-10590703D01*
X14275731Y-10585605D01*
X14264640Y-10583848D01*
X14264640Y-10583848D01*
X14253549Y-10585605D01*
X14243543Y-10590703D01*
X14235603Y-10598643D01*
X14230505Y-10608649D01*
X14228748Y-10619740D01*
X14228748Y-10619740D01*
X13741980Y-10619740D01*
X13741979Y-10619740D01*
X13739791Y-10618625D01*
X13739791Y-10618625D01*
X13739791Y-10618625D01*
X13734394Y-10617770D01*
X13728081Y-10614777D01*
X13727566Y-10614291D01*
X13694776Y-10581500D01*
X14731025Y-10581500D01*
X14732917Y-10598294D01*
X14732918Y-10598294D01*
X14738473Y-10614171D01*
X14767895Y-10584749D01*
X14796500Y-10584749D01*
X14800320Y-10590007D01*
X14804916Y-10591500D01*
X14804916Y-10591500D01*
X14808084Y-10591500D01*
X14808084Y-10591500D01*
X14812680Y-10590007D01*
X14816500Y-10584749D01*
X14816500Y-10581500D01*
X14841855Y-10581500D01*
X14854000Y-10593645D01*
X14862895Y-10584749D01*
X14891500Y-10584749D01*
X14895320Y-10590007D01*
X14899916Y-10591500D01*
X14899916Y-10591500D01*
X14903084Y-10591500D01*
X14903084Y-10591500D01*
X14907680Y-10590007D01*
X14911500Y-10584749D01*
X14911500Y-10581500D01*
X14936855Y-10581500D01*
X14969526Y-10614171D01*
X14969527Y-10614171D01*
X14975082Y-10598294D01*
X14976975Y-10581500D01*
X14976975Y-10581500D01*
X14975082Y-10564706D01*
X14969527Y-10548829D01*
X14936855Y-10581500D01*
X14936855Y-10581500D01*
X14911500Y-10581500D01*
X14911500Y-10578251D01*
X14907680Y-10572994D01*
X14906522Y-10572617D01*
X14903084Y-10571500D01*
X14903084Y-10571500D01*
X14899916Y-10571500D01*
X14899916Y-10571500D01*
X14895320Y-10572994D01*
X14892685Y-10576620D01*
X14891500Y-10578251D01*
X14891500Y-10584749D01*
X14862895Y-10584749D01*
X14866145Y-10581500D01*
X14854000Y-10569355D01*
X14841855Y-10581500D01*
X14816500Y-10581500D01*
X14816500Y-10578251D01*
X14812680Y-10572994D01*
X14811522Y-10572617D01*
X14808084Y-10571500D01*
X14808084Y-10571500D01*
X14804916Y-10571500D01*
X14804916Y-10571500D01*
X14800320Y-10572994D01*
X14797685Y-10576620D01*
X14796500Y-10578251D01*
X14796500Y-10584749D01*
X14767895Y-10584749D01*
X14771145Y-10581500D01*
X14738473Y-10548829D01*
X14732918Y-10564705D01*
X14732917Y-10564706D01*
X14731025Y-10581500D01*
X14731025Y-10581500D01*
X13694776Y-10581500D01*
X13679992Y-10566717D01*
X13676643Y-10560584D01*
X13676360Y-10557949D01*
X13676360Y-10535920D01*
X13921408Y-10535920D01*
X13923165Y-10547011D01*
X13928263Y-10557017D01*
X13936203Y-10564957D01*
X13946209Y-10570055D01*
X13957300Y-10571812D01*
X13957300Y-10571812D01*
X13957300Y-10571812D01*
X13968391Y-10570055D01*
X13968391Y-10570055D01*
X13968391Y-10570055D01*
X13978397Y-10564957D01*
X13986337Y-10557017D01*
X13991435Y-10547011D01*
X13991435Y-10547011D01*
X13991435Y-10547011D01*
X13993192Y-10535920D01*
X13993192Y-10535920D01*
X13992888Y-10534000D01*
X14794355Y-10534000D01*
X14806500Y-10546145D01*
X14818645Y-10534000D01*
X14889355Y-10534000D01*
X14901500Y-10546145D01*
X14913645Y-10534000D01*
X14901500Y-10521855D01*
X14889355Y-10534000D01*
X14818645Y-10534000D01*
X14806500Y-10521855D01*
X14794355Y-10534000D01*
X13992888Y-10534000D01*
X13991435Y-10524829D01*
X13986337Y-10514823D01*
X13978396Y-10506883D01*
X13968391Y-10501785D01*
X13957300Y-10500028D01*
X13957300Y-10500028D01*
X13946209Y-10501785D01*
X13936203Y-10506883D01*
X13928263Y-10514823D01*
X13923165Y-10524829D01*
X13921408Y-10535920D01*
X13921408Y-10535920D01*
X13676360Y-10535920D01*
X13676360Y-10454640D01*
X14335428Y-10454640D01*
X14337185Y-10465731D01*
X14342283Y-10475737D01*
X14350223Y-10483677D01*
X14360229Y-10488775D01*
X14371320Y-10490532D01*
X14371320Y-10490532D01*
X14371320Y-10490532D01*
X14382411Y-10488775D01*
X14382411Y-10488775D01*
X14382411Y-10488775D01*
X14386876Y-10486500D01*
X14731025Y-10486500D01*
X14732917Y-10503294D01*
X14732918Y-10503294D01*
X14738473Y-10519171D01*
X14738473Y-10519171D01*
X14767895Y-10489749D01*
X14796500Y-10489749D01*
X14800320Y-10495007D01*
X14804916Y-10496500D01*
X14804916Y-10496500D01*
X14808084Y-10496500D01*
X14808084Y-10496500D01*
X14812680Y-10495007D01*
X14816500Y-10489749D01*
X14816500Y-10486500D01*
X14841855Y-10486500D01*
X14854000Y-10498645D01*
X14862895Y-10489749D01*
X14891500Y-10489749D01*
X14895320Y-10495007D01*
X14899916Y-10496500D01*
X14899916Y-10496500D01*
X14903084Y-10496500D01*
X14903084Y-10496500D01*
X14907680Y-10495007D01*
X14911500Y-10489749D01*
X14911500Y-10486500D01*
X14936855Y-10486500D01*
X14969526Y-10519171D01*
X14969527Y-10519171D01*
X14975082Y-10503294D01*
X14976975Y-10486500D01*
X14976975Y-10486500D01*
X14975082Y-10469706D01*
X14969527Y-10453829D01*
X14936855Y-10486500D01*
X14936855Y-10486500D01*
X14911500Y-10486500D01*
X14911500Y-10483251D01*
X14907680Y-10477994D01*
X14907680Y-10477993D01*
X14903084Y-10476500D01*
X14903084Y-10476500D01*
X14899916Y-10476500D01*
X14899916Y-10476500D01*
X14895320Y-10477994D01*
X14891746Y-10482912D01*
X14891500Y-10483251D01*
X14891500Y-10489749D01*
X14862895Y-10489749D01*
X14866145Y-10486500D01*
X14854000Y-10474355D01*
X14841855Y-10486500D01*
X14816500Y-10486500D01*
X14816500Y-10483251D01*
X14812680Y-10477994D01*
X14812680Y-10477993D01*
X14808084Y-10476500D01*
X14808084Y-10476500D01*
X14804916Y-10476500D01*
X14804916Y-10476500D01*
X14800320Y-10477994D01*
X14796746Y-10482912D01*
X14796500Y-10483251D01*
X14796500Y-10489749D01*
X14767895Y-10489749D01*
X14771145Y-10486500D01*
X14771145Y-10486500D01*
X14738473Y-10453829D01*
X14732918Y-10469705D01*
X14732917Y-10469706D01*
X14731025Y-10486500D01*
X14731025Y-10486500D01*
X14386876Y-10486500D01*
X14392417Y-10483677D01*
X14400357Y-10475737D01*
X14405455Y-10465731D01*
X14405455Y-10465731D01*
X14405455Y-10465731D01*
X14407212Y-10454640D01*
X14407212Y-10454640D01*
X14405455Y-10443549D01*
X14400357Y-10433543D01*
X14392416Y-10425603D01*
X14382411Y-10420505D01*
X14371320Y-10418748D01*
X14371320Y-10418748D01*
X14360229Y-10420505D01*
X14350223Y-10425603D01*
X14342283Y-10433543D01*
X14337185Y-10443549D01*
X14335428Y-10454640D01*
X14335428Y-10454640D01*
X13676360Y-10454640D01*
X13676360Y-10345420D01*
X14095108Y-10345420D01*
X14096865Y-10356511D01*
X14101963Y-10366517D01*
X14109903Y-10374457D01*
X14119909Y-10379555D01*
X14131000Y-10381312D01*
X14131000Y-10381312D01*
X14131000Y-10381312D01*
X14142091Y-10379555D01*
X14142091Y-10379555D01*
X14142091Y-10379555D01*
X14152097Y-10374457D01*
X14160037Y-10366517D01*
X14165135Y-10356511D01*
X14165135Y-10356511D01*
X14165135Y-10356511D01*
X14166892Y-10345420D01*
X14166892Y-10345420D01*
X14165135Y-10334329D01*
X14160037Y-10324323D01*
X14152096Y-10316383D01*
X14142091Y-10311285D01*
X14131000Y-10309528D01*
X14131000Y-10309528D01*
X14119909Y-10311285D01*
X14109903Y-10316383D01*
X14101963Y-10324323D01*
X14096865Y-10334329D01*
X14095108Y-10345420D01*
X14095108Y-10345420D01*
X13676360Y-10345420D01*
X13676360Y-10242561D01*
X13676598Y-10240142D01*
X13676868Y-10238787D01*
X13676877Y-10238740D01*
X13674828Y-10228439D01*
X13670466Y-10221911D01*
X13670466Y-10221911D01*
X13670311Y-10221679D01*
X13670310Y-10221678D01*
X13668993Y-10219707D01*
X13668993Y-10219707D01*
X13668993Y-10219706D01*
X13667804Y-10218912D01*
X13665925Y-10217370D01*
X13603792Y-10155237D01*
X13600443Y-10149104D01*
X13600160Y-10146469D01*
X13600160Y-10104120D01*
X14431948Y-10104120D01*
X14433705Y-10115211D01*
X14438803Y-10125217D01*
X14446743Y-10133157D01*
X14456749Y-10138255D01*
X14467840Y-10140012D01*
X14467840Y-10140012D01*
X14467840Y-10140012D01*
X14478931Y-10138255D01*
X14478931Y-10138255D01*
X14478931Y-10138255D01*
X14478982Y-10138229D01*
X14478997Y-10138222D01*
X14479141Y-10138187D01*
X14479859Y-10137954D01*
X14479877Y-10138010D01*
X14484627Y-10136870D01*
X14522798Y-10136870D01*
X14529502Y-10138839D01*
X14531566Y-10140502D01*
X14640181Y-10249117D01*
X14643529Y-10255249D01*
X14643809Y-10257589D01*
X14645512Y-10329111D01*
X14644557Y-10333313D01*
X14644826Y-10333401D01*
X14644525Y-10334329D01*
X14644110Y-10336945D01*
X14643516Y-10339245D01*
X14643370Y-10339645D01*
X14643182Y-10340714D01*
X14642804Y-10340647D01*
X14641401Y-10345424D01*
X14636121Y-10349999D01*
X14629205Y-10350994D01*
X14622850Y-10348091D01*
X14622202Y-10347488D01*
X14613676Y-10338963D01*
X14603671Y-10333865D01*
X14592580Y-10332108D01*
X14592580Y-10332108D01*
X14581489Y-10333865D01*
X14571483Y-10338963D01*
X14563543Y-10346903D01*
X14558445Y-10356909D01*
X14556688Y-10368000D01*
X14556688Y-10368000D01*
X14558445Y-10379091D01*
X14563543Y-10389097D01*
X14564971Y-10390525D01*
X14568319Y-10396657D01*
X14567821Y-10403626D01*
X14563634Y-10409220D01*
X14557087Y-10411661D01*
X14554263Y-10411540D01*
X14552591Y-10411276D01*
X14551660Y-10411128D01*
X14551660Y-10411128D01*
X14551660Y-10411128D01*
X14540569Y-10412885D01*
X14530563Y-10417983D01*
X14522623Y-10425923D01*
X14517525Y-10435929D01*
X14515768Y-10447020D01*
X14515768Y-10447020D01*
X14517525Y-10458111D01*
X14522623Y-10468117D01*
X14530563Y-10476057D01*
X14540569Y-10481155D01*
X14551660Y-10482912D01*
X14551660Y-10482912D01*
X14551660Y-10482912D01*
X14562751Y-10481155D01*
X14562751Y-10481155D01*
X14562751Y-10481155D01*
X14572757Y-10476057D01*
X14580697Y-10468117D01*
X14585795Y-10458111D01*
X14585795Y-10458111D01*
X14585795Y-10458111D01*
X14587552Y-10447020D01*
X14587552Y-10447020D01*
X14585795Y-10435929D01*
X14580697Y-10425923D01*
X14579269Y-10424495D01*
X14575981Y-10418473D01*
X14773828Y-10418473D01*
X14806500Y-10451145D01*
X14806500Y-10451145D01*
X14839171Y-10418473D01*
X14868828Y-10418473D01*
X14901500Y-10451145D01*
X14901500Y-10451145D01*
X14934171Y-10418473D01*
X14918294Y-10412918D01*
X14918294Y-10412918D01*
X14901500Y-10411025D01*
X14901500Y-10411025D01*
X14884706Y-10412918D01*
X14884705Y-10412918D01*
X14868828Y-10418473D01*
X14839171Y-10418473D01*
X14823294Y-10412918D01*
X14823294Y-10412918D01*
X14806500Y-10411025D01*
X14806500Y-10411025D01*
X14789706Y-10412918D01*
X14789705Y-10412918D01*
X14773828Y-10418473D01*
X14773828Y-10418473D01*
X14575981Y-10418473D01*
X14575920Y-10418363D01*
X14576419Y-10411394D01*
X14580606Y-10405800D01*
X14587152Y-10403359D01*
X14589977Y-10403480D01*
X14592580Y-10403892D01*
X14592580Y-10403892D01*
X14592580Y-10403892D01*
X14603671Y-10402135D01*
X14603671Y-10402135D01*
X14603671Y-10402135D01*
X14613677Y-10397037D01*
X14621617Y-10389097D01*
X14626715Y-10379091D01*
X14627767Y-10372448D01*
X14630760Y-10366135D01*
X14636691Y-10362442D01*
X14643677Y-10362542D01*
X14648813Y-10365946D01*
X14648933Y-10365827D01*
X14657563Y-10374457D01*
X14667569Y-10379555D01*
X14678660Y-10381312D01*
X14678660Y-10381312D01*
X14678660Y-10381312D01*
X14689751Y-10379555D01*
X14689751Y-10379555D01*
X14689751Y-10379555D01*
X14699757Y-10374457D01*
X14707697Y-10366517D01*
X14709387Y-10363200D01*
X14957728Y-10363200D01*
X14959485Y-10374291D01*
X14964583Y-10384297D01*
X14972523Y-10392237D01*
X14982529Y-10397335D01*
X14993620Y-10399092D01*
X14993620Y-10399092D01*
X14993620Y-10399092D01*
X15004711Y-10397335D01*
X15004711Y-10397335D01*
X15004711Y-10397335D01*
X15014717Y-10392237D01*
X15022657Y-10384297D01*
X15027755Y-10374291D01*
X15027755Y-10374291D01*
X15027755Y-10374291D01*
X15029512Y-10363200D01*
X15029512Y-10363200D01*
X15027755Y-10352109D01*
X15022657Y-10342103D01*
X15014716Y-10334163D01*
X15004711Y-10329065D01*
X14993620Y-10327308D01*
X14993620Y-10327308D01*
X14982529Y-10329065D01*
X14972523Y-10334163D01*
X14964583Y-10342103D01*
X14959485Y-10352109D01*
X14957728Y-10363200D01*
X14957728Y-10363200D01*
X14709387Y-10363200D01*
X14712795Y-10356511D01*
X14712795Y-10356511D01*
X14712795Y-10356511D01*
X14714552Y-10345420D01*
X14714552Y-10345420D01*
X14712795Y-10334329D01*
X14712795Y-10334329D01*
X14712795Y-10334329D01*
X14712355Y-10333466D01*
X14711007Y-10328132D01*
X14711003Y-10327957D01*
X14710270Y-10297160D01*
X14833268Y-10297160D01*
X14835025Y-10308251D01*
X14840123Y-10318257D01*
X14848063Y-10326197D01*
X14858069Y-10331295D01*
X14869160Y-10333052D01*
X14869160Y-10333052D01*
X14869160Y-10333052D01*
X14880251Y-10331295D01*
X14880251Y-10331295D01*
X14880251Y-10331295D01*
X14890257Y-10326197D01*
X14898197Y-10318257D01*
X14903295Y-10308251D01*
X14903295Y-10308251D01*
X14903295Y-10308251D01*
X14905052Y-10297160D01*
X14905052Y-10297160D01*
X14903295Y-10286069D01*
X14898197Y-10276063D01*
X14890256Y-10268123D01*
X14880251Y-10263025D01*
X14869160Y-10261268D01*
X14869160Y-10261268D01*
X14858069Y-10263025D01*
X14848063Y-10268123D01*
X14840123Y-10276063D01*
X14835025Y-10286069D01*
X14833268Y-10297160D01*
X14833268Y-10297160D01*
X14710270Y-10297160D01*
X14708912Y-10240125D01*
X14708934Y-10239437D01*
X14709249Y-10235842D01*
X14708074Y-10231458D01*
X14707984Y-10231075D01*
X14707806Y-10230189D01*
X14707090Y-10226626D01*
X14707090Y-10226625D01*
X14706705Y-10225642D01*
X14706259Y-10224686D01*
X14706259Y-10224686D01*
X14706259Y-10224686D01*
X14703656Y-10220968D01*
X14703442Y-10220641D01*
X14701449Y-10217370D01*
X14701079Y-10216764D01*
X14698259Y-10214510D01*
X14697746Y-10214051D01*
X14665269Y-10181573D01*
X14565860Y-10082164D01*
X14565495Y-10081766D01*
X14562876Y-10078645D01*
X14562876Y-10078645D01*
X14559348Y-10076608D01*
X14558891Y-10076317D01*
X14555554Y-10073981D01*
X14555096Y-10073767D01*
X14553349Y-10073043D01*
X14552874Y-10072870D01*
X14548862Y-10072163D01*
X14548333Y-10072046D01*
X14544398Y-10070991D01*
X14540789Y-10071307D01*
X14540340Y-10071346D01*
X14539799Y-10071370D01*
X14484627Y-10071370D01*
X14479877Y-10070230D01*
X14479859Y-10070286D01*
X14479141Y-10070053D01*
X14478997Y-10070019D01*
X14478931Y-10069985D01*
X14478931Y-10069985D01*
X14467840Y-10068228D01*
X14467840Y-10068228D01*
X14456749Y-10069985D01*
X14446743Y-10075083D01*
X14438803Y-10083023D01*
X14433705Y-10093029D01*
X14431948Y-10104120D01*
X14431948Y-10104120D01*
X13600160Y-10104120D01*
X13600160Y-10033000D01*
X13695348Y-10033000D01*
X13697105Y-10044091D01*
X13702203Y-10054097D01*
X13710143Y-10062037D01*
X13720149Y-10067135D01*
X13731240Y-10068892D01*
X13731240Y-10068892D01*
X13731240Y-10068892D01*
X13742331Y-10067135D01*
X13742331Y-10067135D01*
X13742331Y-10067135D01*
X13752337Y-10062037D01*
X13760277Y-10054097D01*
X13765375Y-10044091D01*
X13765375Y-10044091D01*
X13765375Y-10044091D01*
X13767132Y-10033000D01*
X13767132Y-10033000D01*
X13765375Y-10021909D01*
X13760277Y-10011903D01*
X13752336Y-10003963D01*
X13742331Y-9998865D01*
X13731240Y-9997108D01*
X13731240Y-9997108D01*
X13720149Y-9998865D01*
X13710143Y-10003963D01*
X13702203Y-10011903D01*
X13697105Y-10021909D01*
X13695348Y-10033000D01*
X13695348Y-10033000D01*
X13600160Y-10033000D01*
X13600160Y-9964420D01*
X13969668Y-9964420D01*
X13971425Y-9975511D01*
X13976523Y-9985517D01*
X13984463Y-9993457D01*
X13994469Y-9998555D01*
X14005560Y-10000312D01*
X14005560Y-10000312D01*
X14005560Y-10000312D01*
X14016651Y-9998555D01*
X14016651Y-9998555D01*
X14016651Y-9998555D01*
X14026657Y-9993457D01*
X14034597Y-9985517D01*
X14039695Y-9975511D01*
X14039695Y-9975511D01*
X14039695Y-9975511D01*
X14041452Y-9964420D01*
X14041452Y-9964420D01*
X14039695Y-9953329D01*
X14034993Y-9944100D01*
X14691028Y-9944100D01*
X14692785Y-9955191D01*
X14697883Y-9965197D01*
X14705823Y-9973137D01*
X14715829Y-9978235D01*
X14726920Y-9979992D01*
X14726920Y-9979992D01*
X14726920Y-9979992D01*
X14738011Y-9978235D01*
X14738011Y-9978235D01*
X14738011Y-9978235D01*
X14748017Y-9973137D01*
X14755957Y-9965197D01*
X14761055Y-9955191D01*
X14761055Y-9955191D01*
X14761055Y-9955191D01*
X14762812Y-9944100D01*
X14762812Y-9944100D01*
X14762410Y-9941560D01*
X14868828Y-9941560D01*
X14870585Y-9952651D01*
X14875683Y-9962657D01*
X14883623Y-9970597D01*
X14892202Y-9974968D01*
X14897282Y-9979766D01*
X14898961Y-9986548D01*
X14896708Y-9993161D01*
X14895341Y-9994785D01*
X14890923Y-9999203D01*
X14885825Y-10009209D01*
X14884068Y-10020300D01*
X14884068Y-10020300D01*
X14885825Y-10031391D01*
X14890923Y-10041397D01*
X14898863Y-10049337D01*
X14908869Y-10054435D01*
X14919960Y-10056192D01*
X14919960Y-10056192D01*
X14919960Y-10056192D01*
X14922567Y-10055779D01*
X14928220Y-10054884D01*
X14935149Y-10055779D01*
X14940494Y-10060279D01*
X14942558Y-10066954D01*
X14942488Y-10067940D01*
X14942488Y-10068560D01*
X14944245Y-10079651D01*
X14949343Y-10089657D01*
X14957283Y-10097597D01*
X14967289Y-10102695D01*
X14978380Y-10104452D01*
X14978380Y-10104452D01*
X14978380Y-10104452D01*
X14978537Y-10104427D01*
X14978730Y-10104452D01*
X14979356Y-10104452D01*
X14979356Y-10104533D01*
X14985467Y-10105322D01*
X14990812Y-10109822D01*
X14992876Y-10116497D01*
X14992270Y-10120506D01*
X14988974Y-10130651D01*
X14988974Y-10130652D01*
X14987990Y-10140012D01*
X14986940Y-10150000D01*
X14988974Y-10169348D01*
X14994986Y-10187851D01*
X14994986Y-10187851D01*
X14999252Y-10195241D01*
X15004713Y-10204699D01*
X15009248Y-10209735D01*
X15017730Y-10219156D01*
X15017730Y-10219157D01*
X15017731Y-10219157D01*
X15026656Y-10225642D01*
X15033470Y-10230592D01*
X15036799Y-10232075D01*
X15051243Y-10238505D01*
X15070273Y-10242550D01*
X15089727Y-10242550D01*
X15108757Y-10238505D01*
X15126530Y-10230592D01*
X15142269Y-10219157D01*
X15142490Y-10218912D01*
X15145919Y-10215103D01*
X15155287Y-10204699D01*
X15165014Y-10187851D01*
X15171026Y-10169348D01*
X15173060Y-10150000D01*
X15171026Y-10130652D01*
X15165014Y-10112149D01*
X15165014Y-10112149D01*
X15165014Y-10112149D01*
X15165014Y-10112149D01*
X15160379Y-10104120D01*
X15155287Y-10095301D01*
X15149398Y-10088760D01*
X15142270Y-10080844D01*
X15142269Y-10080843D01*
X15142269Y-10080843D01*
X15142269Y-10080843D01*
X15132824Y-10073981D01*
X15126530Y-10069408D01*
X15112885Y-10063333D01*
X15108757Y-10061495D01*
X15108757Y-10061495D01*
X15089727Y-10057450D01*
X15070273Y-10057450D01*
X15051243Y-10061495D01*
X15033470Y-10069408D01*
X15033470Y-10069408D01*
X15032744Y-10069936D01*
X15026163Y-10072283D01*
X15019358Y-10070701D01*
X15014488Y-10065690D01*
X15013208Y-10061843D01*
X15012515Y-10057469D01*
X15007417Y-10047463D01*
X14999476Y-10039523D01*
X14989471Y-10034425D01*
X14978380Y-10032668D01*
X14978380Y-10032668D01*
X14970120Y-10033976D01*
X14963190Y-10033081D01*
X14957845Y-10028581D01*
X14955781Y-10021906D01*
X14955852Y-10020921D01*
X14955852Y-10020300D01*
X14954095Y-10009209D01*
X14948997Y-9999203D01*
X14941056Y-9991263D01*
X14932478Y-9986892D01*
X14927398Y-9982094D01*
X14925718Y-9975312D01*
X14927972Y-9968699D01*
X14929338Y-9967075D01*
X14933757Y-9962657D01*
X14938855Y-9952651D01*
X14938855Y-9952651D01*
X14938855Y-9952651D01*
X14940612Y-9941560D01*
X14940612Y-9941560D01*
X14938855Y-9930469D01*
X14933757Y-9920463D01*
X14925816Y-9912523D01*
X14915811Y-9907425D01*
X14904720Y-9905668D01*
X14904720Y-9905668D01*
X14893629Y-9907425D01*
X14883623Y-9912523D01*
X14875683Y-9920463D01*
X14870585Y-9930469D01*
X14868828Y-9941560D01*
X14868828Y-9941560D01*
X14762410Y-9941560D01*
X14761055Y-9933009D01*
X14755957Y-9923003D01*
X14748016Y-9915063D01*
X14738011Y-9909965D01*
X14726920Y-9908208D01*
X14726920Y-9908208D01*
X14715829Y-9909965D01*
X14705823Y-9915063D01*
X14697883Y-9923003D01*
X14692785Y-9933009D01*
X14691028Y-9944100D01*
X14691028Y-9944100D01*
X14034993Y-9944100D01*
X14034597Y-9943323D01*
X14026656Y-9935383D01*
X14016651Y-9930285D01*
X14005560Y-9928528D01*
X14005560Y-9928528D01*
X13994469Y-9930285D01*
X13984463Y-9935383D01*
X13976523Y-9943323D01*
X13971425Y-9953329D01*
X13969668Y-9964420D01*
X13969668Y-9964420D01*
X13600160Y-9964420D01*
X13600160Y-9927151D01*
X13602128Y-9920447D01*
X13603791Y-9918384D01*
X13621255Y-9900920D01*
X15219348Y-9900920D01*
X15221105Y-9912011D01*
X15226203Y-9922017D01*
X15234143Y-9929957D01*
X15244149Y-9935055D01*
X15255240Y-9936812D01*
X15255240Y-9936812D01*
X15255240Y-9936812D01*
X15266331Y-9935055D01*
X15266331Y-9935055D01*
X15266331Y-9935055D01*
X15276337Y-9929957D01*
X15284277Y-9922017D01*
X15289375Y-9912011D01*
X15289375Y-9912011D01*
X15289375Y-9912011D01*
X15291132Y-9900920D01*
X15291132Y-9900920D01*
X15289375Y-9889829D01*
X15284277Y-9879823D01*
X15276336Y-9871883D01*
X15266331Y-9866785D01*
X15255240Y-9865028D01*
X15255240Y-9865028D01*
X15244149Y-9866785D01*
X15234143Y-9871883D01*
X15226203Y-9879823D01*
X15221105Y-9889829D01*
X15219348Y-9900920D01*
X15219348Y-9900920D01*
X13621255Y-9900920D01*
X13733463Y-9788712D01*
X13739596Y-9785363D01*
X13742231Y-9785080D01*
X13903900Y-9785080D01*
X13905684Y-9785080D01*
X13912388Y-9787049D01*
X13912973Y-9787448D01*
X13913344Y-9787718D01*
X13923349Y-9792815D01*
X13934440Y-9794572D01*
X13934440Y-9794572D01*
X13934440Y-9794572D01*
X13945531Y-9792815D01*
X13945531Y-9792815D01*
X13945531Y-9792815D01*
X13955537Y-9787717D01*
X13963477Y-9779777D01*
X13968575Y-9769771D01*
X13968575Y-9769771D01*
X13968575Y-9769771D01*
X13970332Y-9758680D01*
X13970332Y-9758680D01*
X13968575Y-9747589D01*
X13963477Y-9737583D01*
X13955536Y-9729643D01*
X13952706Y-9728200D01*
X14871368Y-9728200D01*
X14873125Y-9739291D01*
X14878223Y-9749297D01*
X14878223Y-9749297D01*
X14878223Y-9749297D01*
X14886163Y-9757237D01*
X14892404Y-9760417D01*
X14897484Y-9765214D01*
X14899163Y-9771997D01*
X14897823Y-9777095D01*
X14893445Y-9785689D01*
X14891688Y-9796780D01*
X14891688Y-9796780D01*
X14893445Y-9807871D01*
X14898543Y-9817877D01*
X14906483Y-9825817D01*
X14916489Y-9830915D01*
X14922761Y-9831909D01*
X14927580Y-9832672D01*
X14930960Y-9832137D01*
X14931383Y-9832085D01*
X14938727Y-9831442D01*
X14949194Y-9826561D01*
X14957361Y-9818394D01*
X14962242Y-9807927D01*
X14962884Y-9800583D01*
X14962936Y-9800160D01*
X14963472Y-9796780D01*
X14962265Y-9789160D01*
X14961715Y-9785689D01*
X14956617Y-9775683D01*
X14948676Y-9767743D01*
X14942436Y-9764563D01*
X14937356Y-9759765D01*
X14935676Y-9752983D01*
X14937016Y-9747885D01*
X14937716Y-9746512D01*
X14941395Y-9739291D01*
X14941395Y-9739291D01*
X14941395Y-9739291D01*
X14943152Y-9728200D01*
X14943152Y-9728200D01*
X14941395Y-9717109D01*
X14936297Y-9707103D01*
X14928356Y-9699163D01*
X14918351Y-9694065D01*
X14907260Y-9692308D01*
X14907260Y-9692308D01*
X14896169Y-9694065D01*
X14886163Y-9699163D01*
X14878223Y-9707103D01*
X14873125Y-9717109D01*
X14871368Y-9728200D01*
X14871368Y-9728200D01*
X13952706Y-9728200D01*
X13945531Y-9724545D01*
X13934440Y-9722788D01*
X13934440Y-9722788D01*
X13923349Y-9724545D01*
X13913344Y-9729642D01*
X13912973Y-9729912D01*
X13906393Y-9732260D01*
X13905684Y-9732280D01*
X13729981Y-9732280D01*
X13727562Y-9732042D01*
X13726160Y-9731763D01*
X13726160Y-9731763D01*
X13726160Y-9731763D01*
X13723968Y-9732199D01*
X13723967Y-9732199D01*
X13715859Y-9733812D01*
X13707127Y-9739647D01*
X13707126Y-9739647D01*
X13706332Y-9740836D01*
X13704790Y-9742714D01*
X13575608Y-9871897D01*
X13569476Y-9875245D01*
X13562507Y-9874747D01*
X13556913Y-9870560D01*
X13554472Y-9864013D01*
X13554440Y-9863129D01*
X13554440Y-9698551D01*
X13556408Y-9691848D01*
X13558072Y-9689783D01*
X13626335Y-9621520D01*
X13962048Y-9621520D01*
X13963805Y-9632611D01*
X13968903Y-9642617D01*
X13976843Y-9650557D01*
X13986849Y-9655655D01*
X13997940Y-9657412D01*
X13997940Y-9657412D01*
X13997940Y-9657412D01*
X14009031Y-9655655D01*
X14009031Y-9655655D01*
X14009031Y-9655655D01*
X14019037Y-9650557D01*
X14019594Y-9650000D01*
X14986940Y-9650000D01*
X14988974Y-9669348D01*
X14994986Y-9687851D01*
X14994986Y-9687851D01*
X15002267Y-9700463D01*
X15004713Y-9704699D01*
X15008735Y-9709167D01*
X15017730Y-9719156D01*
X15017730Y-9719157D01*
X15017731Y-9719157D01*
X15027750Y-9726437D01*
X15033470Y-9730592D01*
X15037762Y-9732503D01*
X15051243Y-9738505D01*
X15070273Y-9742550D01*
X15089727Y-9742550D01*
X15108757Y-9738505D01*
X15126530Y-9730592D01*
X15142269Y-9719157D01*
X15142762Y-9718610D01*
X15146138Y-9714860D01*
X15155287Y-9704699D01*
X15165014Y-9687851D01*
X15171026Y-9669348D01*
X15173060Y-9650000D01*
X15171026Y-9630652D01*
X15165014Y-9612149D01*
X15165014Y-9612149D01*
X15165014Y-9612149D01*
X15165014Y-9612149D01*
X15160366Y-9604098D01*
X15155287Y-9595301D01*
X15147622Y-9586788D01*
X15145596Y-9584538D01*
X15142573Y-9578239D01*
X15143436Y-9571306D01*
X15146353Y-9567673D01*
X15146107Y-9567427D01*
X15149337Y-9564197D01*
X15154737Y-9558797D01*
X15159835Y-9548791D01*
X15159835Y-9548791D01*
X15159835Y-9548791D01*
X15161592Y-9537700D01*
X15161592Y-9537700D01*
X15159835Y-9526609D01*
X15154737Y-9516603D01*
X15146796Y-9508663D01*
X15136791Y-9503565D01*
X15125700Y-9501808D01*
X15125700Y-9501808D01*
X15114609Y-9503565D01*
X15104603Y-9508663D01*
X15096663Y-9516603D01*
X15091565Y-9526609D01*
X15089808Y-9537700D01*
X15089808Y-9537700D01*
X15090665Y-9543110D01*
X15089770Y-9550040D01*
X15085270Y-9555385D01*
X15078595Y-9557449D01*
X15078418Y-9557450D01*
X15070273Y-9557450D01*
X15051243Y-9561495D01*
X15033470Y-9569408D01*
X15017730Y-9580843D01*
X15017730Y-9580844D01*
X15004713Y-9595301D01*
X14994986Y-9612149D01*
X14994986Y-9612149D01*
X14988974Y-9630652D01*
X14986940Y-9650000D01*
X14019594Y-9650000D01*
X14026977Y-9642617D01*
X14032075Y-9632611D01*
X14032075Y-9632611D01*
X14032075Y-9632611D01*
X14033832Y-9621520D01*
X14033832Y-9621520D01*
X14032075Y-9610429D01*
X14026977Y-9600423D01*
X14019036Y-9592483D01*
X14009031Y-9587385D01*
X13997940Y-9585628D01*
X13997940Y-9585628D01*
X13986849Y-9587385D01*
X13976843Y-9592483D01*
X13968903Y-9600423D01*
X13963805Y-9610429D01*
X13962048Y-9621520D01*
X13962048Y-9621520D01*
X13626335Y-9621520D01*
X13667423Y-9580432D01*
X13673556Y-9577083D01*
X13676191Y-9576800D01*
X13719799Y-9576800D01*
X13722218Y-9577038D01*
X13723620Y-9577317D01*
X13733921Y-9575268D01*
X13740449Y-9570906D01*
X13741092Y-9570476D01*
X13741538Y-9570179D01*
X13742653Y-9569433D01*
X13743447Y-9568245D01*
X13744989Y-9566366D01*
X13788091Y-9523264D01*
X13794223Y-9519916D01*
X13801192Y-9520414D01*
X13806786Y-9524601D01*
X13807907Y-9526403D01*
X13808883Y-9528317D01*
X13816823Y-9536257D01*
X13826829Y-9541355D01*
X13837920Y-9543112D01*
X13838896Y-9543112D01*
X13838896Y-9543474D01*
X13844027Y-9544136D01*
X13849373Y-9548635D01*
X13851438Y-9555310D01*
X13850088Y-9561118D01*
X13846965Y-9567249D01*
X13845208Y-9578340D01*
X13845208Y-9578340D01*
X13846965Y-9589431D01*
X13852063Y-9599437D01*
X13860003Y-9607377D01*
X13870009Y-9612475D01*
X13881100Y-9614232D01*
X13881100Y-9614232D01*
X13881100Y-9614232D01*
X13892191Y-9612475D01*
X13892191Y-9612475D01*
X13892191Y-9612475D01*
X13902197Y-9607377D01*
X13910137Y-9599437D01*
X13915235Y-9589431D01*
X13916579Y-9580946D01*
X13919572Y-9574633D01*
X13925503Y-9570940D01*
X13926884Y-9570639D01*
X13935371Y-9569295D01*
X13945377Y-9564197D01*
X13949014Y-9560560D01*
X14370988Y-9560560D01*
X14372745Y-9571651D01*
X14377843Y-9581657D01*
X14385783Y-9589597D01*
X14395789Y-9594695D01*
X14406880Y-9596452D01*
X14406880Y-9596452D01*
X14406880Y-9596452D01*
X14417971Y-9594695D01*
X14417971Y-9594695D01*
X14417971Y-9594695D01*
X14427977Y-9589597D01*
X14435917Y-9581657D01*
X14441015Y-9571651D01*
X14441015Y-9571651D01*
X14441015Y-9571651D01*
X14442772Y-9560560D01*
X14442772Y-9560560D01*
X14441015Y-9549469D01*
X14435917Y-9539463D01*
X14427976Y-9531523D01*
X14417971Y-9526425D01*
X14406880Y-9524668D01*
X14406880Y-9524668D01*
X14395789Y-9526425D01*
X14385783Y-9531523D01*
X14377843Y-9539463D01*
X14372745Y-9549469D01*
X14370988Y-9560560D01*
X14370988Y-9560560D01*
X13949014Y-9560560D01*
X13953317Y-9556257D01*
X13956505Y-9550000D01*
X13956565Y-9549883D01*
X13961362Y-9544803D01*
X13966519Y-9543408D01*
X13966496Y-9543265D01*
X13978551Y-9541355D01*
X13978551Y-9541355D01*
X13978551Y-9541355D01*
X13985726Y-9537700D01*
X13987231Y-9536933D01*
X13994097Y-9535643D01*
X13998489Y-9536933D01*
X14007169Y-9541355D01*
X14018260Y-9543112D01*
X14018260Y-9543112D01*
X14018260Y-9543112D01*
X14029351Y-9541355D01*
X14029351Y-9541355D01*
X14029351Y-9541355D01*
X14039357Y-9536257D01*
X14047297Y-9528317D01*
X14051575Y-9519920D01*
X14096668Y-9519920D01*
X14098425Y-9531011D01*
X14103523Y-9541017D01*
X14111463Y-9548957D01*
X14121469Y-9554055D01*
X14132560Y-9555812D01*
X14132560Y-9555812D01*
X14132560Y-9555812D01*
X14143651Y-9554055D01*
X14143651Y-9554055D01*
X14143651Y-9554055D01*
X14153657Y-9548957D01*
X14161597Y-9541017D01*
X14166695Y-9531011D01*
X14166695Y-9531011D01*
X14166695Y-9531011D01*
X14168452Y-9519920D01*
X14168452Y-9519920D01*
X14166695Y-9508829D01*
X14161597Y-9498823D01*
X14153656Y-9490883D01*
X14143651Y-9485785D01*
X14134657Y-9484360D01*
X14523388Y-9484360D01*
X14525145Y-9495451D01*
X14530243Y-9505457D01*
X14538183Y-9513397D01*
X14548189Y-9518495D01*
X14559280Y-9520252D01*
X14559280Y-9520252D01*
X14559280Y-9520252D01*
X14570371Y-9518495D01*
X14570371Y-9518495D01*
X14570371Y-9518495D01*
X14580377Y-9513397D01*
X14588317Y-9505457D01*
X14593415Y-9495451D01*
X14593415Y-9495451D01*
X14593415Y-9495451D01*
X14595172Y-9484360D01*
X14595172Y-9484360D01*
X14593415Y-9473269D01*
X14588317Y-9463263D01*
X14580376Y-9455323D01*
X14570371Y-9450225D01*
X14559280Y-9448468D01*
X14559280Y-9448468D01*
X14548189Y-9450225D01*
X14538183Y-9455323D01*
X14530243Y-9463263D01*
X14525145Y-9473269D01*
X14523388Y-9484360D01*
X14523388Y-9484360D01*
X14134657Y-9484360D01*
X14132560Y-9484028D01*
X14132560Y-9484028D01*
X14121469Y-9485785D01*
X14111463Y-9490883D01*
X14103523Y-9498823D01*
X14098425Y-9508829D01*
X14096668Y-9519920D01*
X14096668Y-9519920D01*
X14051575Y-9519920D01*
X14052395Y-9518311D01*
X14052395Y-9518311D01*
X14052395Y-9518311D01*
X14054152Y-9507220D01*
X14054152Y-9507220D01*
X14052395Y-9496129D01*
X14047297Y-9486123D01*
X14039356Y-9478183D01*
X14029351Y-9473085D01*
X14018260Y-9471328D01*
X14018260Y-9471328D01*
X14007169Y-9473085D01*
X13998489Y-9477507D01*
X13991622Y-9478797D01*
X13987231Y-9477507D01*
X13978551Y-9473085D01*
X13967460Y-9471328D01*
X13967460Y-9471328D01*
X13956369Y-9473085D01*
X13946363Y-9478183D01*
X13938423Y-9486123D01*
X13935175Y-9492498D01*
X13930378Y-9497577D01*
X13925221Y-9498972D01*
X13925244Y-9499115D01*
X13913189Y-9501025D01*
X13903184Y-9506123D01*
X13894886Y-9514420D01*
X13888754Y-9517768D01*
X13881785Y-9517270D01*
X13876191Y-9513083D01*
X13873871Y-9507592D01*
X13873812Y-9507220D01*
X13873812Y-9507220D01*
X13872055Y-9496129D01*
X13869272Y-9490666D01*
X13866957Y-9486124D01*
X13866688Y-9485753D01*
X13864340Y-9479173D01*
X13864320Y-9478465D01*
X13864320Y-9439921D01*
X13864558Y-9437502D01*
X13864837Y-9436100D01*
X13864558Y-9434698D01*
X13864320Y-9432279D01*
X13864320Y-9386581D01*
X13864558Y-9384162D01*
X13864837Y-9382760D01*
X13864320Y-9380160D01*
X13864320Y-9380160D01*
X13862788Y-9372459D01*
X13856953Y-9363727D01*
X13856953Y-9363727D01*
X13855764Y-9362932D01*
X13853885Y-9361390D01*
X13828129Y-9335634D01*
X13824781Y-9329502D01*
X13824650Y-9328809D01*
X13823795Y-9323409D01*
X13823795Y-9323409D01*
X13823795Y-9323408D01*
X13818697Y-9313403D01*
X13810756Y-9305463D01*
X13800751Y-9300365D01*
X13789660Y-9298608D01*
X13789660Y-9298608D01*
X13778569Y-9300365D01*
X13768563Y-9305463D01*
X13760623Y-9313403D01*
X13755525Y-9323409D01*
X13753768Y-9334500D01*
X13753768Y-9334500D01*
X13755525Y-9345591D01*
X13760623Y-9355597D01*
X13768563Y-9363537D01*
X13778568Y-9368635D01*
X13778569Y-9368635D01*
X13778569Y-9368635D01*
X13783966Y-9369490D01*
X13790279Y-9372483D01*
X13790794Y-9372969D01*
X13807888Y-9390063D01*
X13811237Y-9396196D01*
X13811520Y-9398831D01*
X13811520Y-9420029D01*
X13809551Y-9426732D01*
X13807888Y-9428797D01*
X13716317Y-9520368D01*
X13710184Y-9523717D01*
X13707549Y-9524000D01*
X13663941Y-9524000D01*
X13661522Y-9523762D01*
X13660120Y-9523483D01*
X13660120Y-9523483D01*
X13660120Y-9523483D01*
X13657928Y-9523919D01*
X13657927Y-9523919D01*
X13649819Y-9525532D01*
X13641087Y-9531367D01*
X13641086Y-9531367D01*
X13640292Y-9532556D01*
X13638750Y-9534434D01*
X13512074Y-9661110D01*
X13510196Y-9662652D01*
X13509007Y-9663447D01*
X13506728Y-9666856D01*
X13506728Y-9666857D01*
X13503172Y-9672179D01*
X13501123Y-9682480D01*
X13501402Y-9683882D01*
X13501640Y-9686301D01*
X13501640Y-10032169D01*
X13499671Y-10038872D01*
X13498008Y-10040937D01*
X13455514Y-10083431D01*
X13449382Y-10086779D01*
X13448686Y-10086910D01*
X13443289Y-10087765D01*
X13433283Y-10092863D01*
X13425343Y-10100803D01*
X13420245Y-10110809D01*
X13418488Y-10121900D01*
X13418488Y-10121900D01*
X13354860Y-10121900D01*
X13354860Y-10070640D01*
X13353386Y-10069985D01*
X13316586Y-10053629D01*
X13311259Y-10049108D01*
X13309223Y-10042424D01*
X13310421Y-10037321D01*
X13310414Y-10037319D01*
X13310440Y-10037236D01*
X13310574Y-10036669D01*
X13310715Y-10036391D01*
X13311883Y-10029017D01*
X13312472Y-10025300D01*
X13312472Y-10025300D01*
X13310715Y-10014209D01*
X13305617Y-10004203D01*
X13297676Y-9996263D01*
X13287671Y-9991165D01*
X13276580Y-9989408D01*
X13276580Y-9989408D01*
X13265489Y-9991165D01*
X13255483Y-9996263D01*
X13247543Y-10004203D01*
X13242445Y-10014209D01*
X13240688Y-10025300D01*
X13240688Y-10025300D01*
X13242445Y-10036391D01*
X13247543Y-10046397D01*
X13256173Y-10055027D01*
X13255901Y-10055299D01*
X13259013Y-10059331D01*
X13259860Y-10063835D01*
X13259860Y-10195032D01*
X13257891Y-10201736D01*
X13252611Y-10206311D01*
X13251148Y-10206752D01*
X13251177Y-10206843D01*
X13250249Y-10207145D01*
X13240243Y-10212243D01*
X13232303Y-10220183D01*
X13227205Y-10230189D01*
X13225448Y-10241280D01*
X13225448Y-10241280D01*
X13227205Y-10252371D01*
X13232303Y-10262377D01*
X13234899Y-10264973D01*
X13238247Y-10271105D01*
X13237749Y-10278074D01*
X13235217Y-10282178D01*
X13194860Y-10325640D01*
X13194860Y-10765640D01*
X13278002Y-10848782D01*
X13281350Y-10854914D01*
X13280852Y-10861883D01*
X13276665Y-10867477D01*
X13270118Y-10869918D01*
X13269234Y-10869950D01*
X12500000Y-10869950D01*
X12439291Y-10868042D01*
X12438902Y-10868018D01*
X12378626Y-10862320D01*
X12378239Y-10862271D01*
X12339889Y-10856197D01*
X12339566Y-10856137D01*
X12251818Y-10837437D01*
X12251381Y-10837327D01*
X12200457Y-10822532D01*
X12200086Y-10822411D01*
X12143121Y-10801903D01*
X12142758Y-10801759D01*
X12137296Y-10799395D01*
X12135649Y-10798530D01*
X12089360Y-10769600D01*
X12704748Y-10769600D01*
X12706505Y-10780691D01*
X12711603Y-10790697D01*
X12719543Y-10798637D01*
X12729549Y-10803735D01*
X12740640Y-10805492D01*
X12740640Y-10805492D01*
X12740640Y-10805492D01*
X12751731Y-10803735D01*
X12751731Y-10803735D01*
X12751731Y-10803735D01*
X12761737Y-10798637D01*
X12769677Y-10790697D01*
X12774775Y-10780691D01*
X12774775Y-10780691D01*
X12774775Y-10780691D01*
X12776532Y-10769600D01*
X12776532Y-10769600D01*
X12776130Y-10767060D01*
X12907948Y-10767060D01*
X12909705Y-10778151D01*
X12914803Y-10788157D01*
X12922743Y-10796097D01*
X12932749Y-10801195D01*
X12943840Y-10802952D01*
X12943840Y-10802952D01*
X12943840Y-10802952D01*
X12954931Y-10801195D01*
X12954931Y-10801195D01*
X12954931Y-10801195D01*
X12964937Y-10796097D01*
X12972877Y-10788157D01*
X12977975Y-10778151D01*
X12977975Y-10778151D01*
X12977975Y-10778151D01*
X12979732Y-10767060D01*
X12979732Y-10767060D01*
X12977975Y-10755969D01*
X12972877Y-10745963D01*
X12964936Y-10738023D01*
X12954931Y-10732925D01*
X12943840Y-10731168D01*
X12943840Y-10731168D01*
X12932749Y-10732925D01*
X12922743Y-10738023D01*
X12914803Y-10745963D01*
X12909705Y-10755969D01*
X12907948Y-10767060D01*
X12907948Y-10767060D01*
X12776130Y-10767060D01*
X12774775Y-10758509D01*
X12769677Y-10748503D01*
X12761736Y-10740563D01*
X12751731Y-10735465D01*
X12740640Y-10733708D01*
X12740640Y-10733708D01*
X12729549Y-10735465D01*
X12719543Y-10740563D01*
X12711603Y-10748503D01*
X12706505Y-10758509D01*
X12704748Y-10769600D01*
X12704748Y-10769600D01*
X12089360Y-10769600D01*
X12024336Y-10728960D01*
X12534568Y-10728960D01*
X12536325Y-10740051D01*
X12541423Y-10750057D01*
X12549363Y-10757997D01*
X12559369Y-10763095D01*
X12570460Y-10764852D01*
X12570460Y-10764852D01*
X12570460Y-10764852D01*
X12581551Y-10763095D01*
X12581551Y-10763095D01*
X12581551Y-10763095D01*
X12591557Y-10757997D01*
X12599497Y-10750057D01*
X12604595Y-10740051D01*
X12604595Y-10740051D01*
X12604595Y-10740051D01*
X12606352Y-10728960D01*
X12606352Y-10728960D01*
X12604595Y-10717869D01*
X12599497Y-10707863D01*
X12591556Y-10699923D01*
X12581551Y-10694825D01*
X12570460Y-10693068D01*
X12570460Y-10693068D01*
X12559369Y-10694825D01*
X12549363Y-10699923D01*
X12541423Y-10707863D01*
X12536325Y-10717869D01*
X12534568Y-10728960D01*
X12534568Y-10728960D01*
X12024336Y-10728960D01*
X11853260Y-10622038D01*
X11851632Y-10620824D01*
X11836169Y-10607191D01*
X11835886Y-10606926D01*
X11793074Y-10564113D01*
X11792809Y-10563831D01*
X11779582Y-10548829D01*
X11767071Y-10534638D01*
X11766671Y-10534133D01*
X11766576Y-10534000D01*
X11688385Y-10424160D01*
X11797968Y-10424160D01*
X11799725Y-10435251D01*
X11804823Y-10445257D01*
X11812763Y-10453197D01*
X11822769Y-10458295D01*
X11833860Y-10460052D01*
X11833860Y-10460052D01*
X11833860Y-10460052D01*
X11844951Y-10458295D01*
X11844951Y-10458295D01*
X11844951Y-10458295D01*
X11847139Y-10457180D01*
X11952908Y-10457180D01*
X11954665Y-10468271D01*
X11959763Y-10478277D01*
X11967703Y-10486217D01*
X11977709Y-10491315D01*
X11988800Y-10493072D01*
X11988800Y-10493072D01*
X11988800Y-10493072D01*
X11999891Y-10491315D01*
X11999891Y-10491315D01*
X11999891Y-10491315D01*
X12009897Y-10486217D01*
X12017837Y-10478277D01*
X12022935Y-10468271D01*
X12022935Y-10468271D01*
X12022935Y-10468271D01*
X12024692Y-10457180D01*
X12024692Y-10457180D01*
X12022935Y-10446089D01*
X12017837Y-10436083D01*
X12009896Y-10428143D01*
X11999891Y-10423045D01*
X11988800Y-10421288D01*
X11988800Y-10421288D01*
X11977709Y-10423045D01*
X11967703Y-10428143D01*
X11959763Y-10436083D01*
X11954665Y-10446089D01*
X11952908Y-10457180D01*
X11952908Y-10457180D01*
X11847139Y-10457180D01*
X11854957Y-10453197D01*
X11862897Y-10445257D01*
X11867995Y-10435251D01*
X11867995Y-10435251D01*
X11867995Y-10435251D01*
X11869752Y-10424160D01*
X11869752Y-10424160D01*
X11867995Y-10413069D01*
X11862897Y-10403063D01*
X11854956Y-10395123D01*
X11844951Y-10390025D01*
X11833860Y-10388268D01*
X11833860Y-10388268D01*
X11822769Y-10390025D01*
X11812763Y-10395123D01*
X11804823Y-10403063D01*
X11799725Y-10413069D01*
X11797968Y-10424160D01*
X11797968Y-10424160D01*
X11688385Y-10424160D01*
X11660655Y-10385206D01*
X11660370Y-10384768D01*
X11650125Y-10367445D01*
X11649938Y-10367104D01*
X11646655Y-10360660D01*
X11940208Y-10360660D01*
X11941965Y-10371751D01*
X11947063Y-10381757D01*
X11955003Y-10389697D01*
X11965009Y-10394795D01*
X11976100Y-10396552D01*
X11976100Y-10396552D01*
X11976100Y-10396552D01*
X11987191Y-10394795D01*
X11987191Y-10394795D01*
X11987191Y-10394795D01*
X11997197Y-10389697D01*
X12005137Y-10381757D01*
X12010235Y-10371751D01*
X12010235Y-10371751D01*
X12010235Y-10371751D01*
X12010785Y-10368280D01*
X12778408Y-10368280D01*
X12780165Y-10379371D01*
X12785263Y-10389377D01*
X12793203Y-10397317D01*
X12803209Y-10402415D01*
X12814300Y-10404172D01*
X12814300Y-10404172D01*
X12814300Y-10404172D01*
X12825391Y-10402415D01*
X12825391Y-10402415D01*
X12825391Y-10402415D01*
X12835397Y-10397317D01*
X12843337Y-10389377D01*
X12848435Y-10379371D01*
X12848435Y-10379371D01*
X12848435Y-10379371D01*
X12850192Y-10368280D01*
X12850192Y-10368280D01*
X12848435Y-10357189D01*
X12843012Y-10346545D01*
X12841722Y-10339678D01*
X12844350Y-10333204D01*
X12850061Y-10329179D01*
X12856000Y-10328668D01*
X12867640Y-10330512D01*
X12867640Y-10330512D01*
X12867640Y-10330512D01*
X12878731Y-10328755D01*
X12878731Y-10328755D01*
X12878731Y-10328755D01*
X12888737Y-10323657D01*
X12896677Y-10315717D01*
X12901775Y-10305711D01*
X12901775Y-10305711D01*
X12901775Y-10305711D01*
X12903532Y-10294620D01*
X12903532Y-10294620D01*
X12901775Y-10283529D01*
X12897179Y-10274508D01*
X12896905Y-10273051D01*
X12895789Y-10272565D01*
X12894972Y-10271819D01*
X12888736Y-10265583D01*
X12878731Y-10260485D01*
X12867640Y-10258728D01*
X12867640Y-10258728D01*
X12856549Y-10260485D01*
X12846543Y-10265583D01*
X12838603Y-10273523D01*
X12833505Y-10283529D01*
X12831748Y-10294620D01*
X12831748Y-10294620D01*
X12833505Y-10305711D01*
X12838928Y-10316355D01*
X12840217Y-10323222D01*
X12837590Y-10329696D01*
X12831879Y-10333721D01*
X12825940Y-10334232D01*
X12814300Y-10332388D01*
X12814300Y-10332388D01*
X12803209Y-10334145D01*
X12793203Y-10339243D01*
X12785263Y-10347183D01*
X12780165Y-10357189D01*
X12778408Y-10368280D01*
X12778408Y-10368280D01*
X12010785Y-10368280D01*
X12011992Y-10360660D01*
X12011992Y-10360660D01*
X12010235Y-10349569D01*
X12005137Y-10339563D01*
X11997196Y-10331623D01*
X11987191Y-10326525D01*
X11976100Y-10324768D01*
X11976100Y-10324768D01*
X11965009Y-10326525D01*
X11955003Y-10331623D01*
X11947063Y-10339563D01*
X11941965Y-10349569D01*
X11940208Y-10360660D01*
X11940208Y-10360660D01*
X11646655Y-10360660D01*
X11622451Y-10313158D01*
X11622286Y-10312806D01*
X11598240Y-10257241D01*
X11598097Y-10256879D01*
X11590652Y-10236200D01*
X11937668Y-10236200D01*
X11939425Y-10247291D01*
X11944523Y-10257297D01*
X11952463Y-10265237D01*
X11962469Y-10270335D01*
X11973560Y-10272092D01*
X11973560Y-10272092D01*
X11973560Y-10272092D01*
X11984651Y-10270335D01*
X11984651Y-10270335D01*
X11984651Y-10270335D01*
X11994657Y-10265237D01*
X12002597Y-10257297D01*
X12007695Y-10247291D01*
X12007695Y-10247291D01*
X12007695Y-10247291D01*
X12008820Y-10240190D01*
X12908213Y-10240190D01*
X12908730Y-10242790D01*
X12910262Y-10250491D01*
X12914051Y-10256161D01*
X12914754Y-10258408D01*
X12915116Y-10258568D01*
X12916097Y-10259223D01*
X12916097Y-10259223D01*
X12917285Y-10260018D01*
X12919164Y-10261560D01*
X12932858Y-10275253D01*
X12936207Y-10281386D01*
X12936490Y-10284021D01*
X12936490Y-10325141D01*
X12936252Y-10327560D01*
X12935973Y-10328963D01*
X12935973Y-10328963D01*
X12936490Y-10331563D01*
X12938022Y-10339264D01*
X12943517Y-10347488D01*
X12943857Y-10347996D01*
X12945045Y-10348790D01*
X12946924Y-10350333D01*
X12959528Y-10362936D01*
X12962877Y-10369068D01*
X12963160Y-10371704D01*
X12963160Y-10418265D01*
X12961191Y-10424968D01*
X12960792Y-10425553D01*
X12960522Y-10425924D01*
X12955425Y-10435929D01*
X12953668Y-10447020D01*
X12953668Y-10447020D01*
X12955425Y-10458111D01*
X12960523Y-10468117D01*
X12968463Y-10476057D01*
X12978469Y-10481155D01*
X12989560Y-10482912D01*
X12989560Y-10482912D01*
X12989560Y-10482912D01*
X13000651Y-10481155D01*
X13000651Y-10481155D01*
X13000651Y-10481155D01*
X13010657Y-10476057D01*
X13018597Y-10468117D01*
X13023695Y-10458111D01*
X13023695Y-10458111D01*
X13023695Y-10458111D01*
X13025348Y-10447676D01*
X13028341Y-10441362D01*
X13034272Y-10437669D01*
X13041258Y-10437769D01*
X13043225Y-10438567D01*
X13047049Y-10440515D01*
X13058140Y-10442272D01*
X13058140Y-10442272D01*
X13058140Y-10442272D01*
X13069231Y-10440515D01*
X13069231Y-10440515D01*
X13069231Y-10440515D01*
X13079237Y-10435417D01*
X13087177Y-10427477D01*
X13092275Y-10417471D01*
X13092275Y-10417471D01*
X13092275Y-10417471D01*
X13094032Y-10406380D01*
X13094032Y-10406380D01*
X13094032Y-10406380D01*
X13093071Y-10400313D01*
X13093966Y-10393383D01*
X13098466Y-10388038D01*
X13105141Y-10385974D01*
X13107258Y-10386125D01*
X13108940Y-10386392D01*
X13108940Y-10386392D01*
X13120031Y-10384635D01*
X13120031Y-10384635D01*
X13120031Y-10384635D01*
X13130037Y-10379537D01*
X13137977Y-10371597D01*
X13143075Y-10361591D01*
X13143075Y-10361591D01*
X13143075Y-10361591D01*
X13144832Y-10350500D01*
X13144832Y-10350500D01*
X13143075Y-10339409D01*
X13137977Y-10329403D01*
X13130036Y-10321463D01*
X13120031Y-10316365D01*
X13108940Y-10314608D01*
X13108940Y-10314608D01*
X13097849Y-10316365D01*
X13087843Y-10321463D01*
X13079903Y-10329403D01*
X13074805Y-10339409D01*
X13074017Y-10344379D01*
X13071024Y-10350692D01*
X13065093Y-10354385D01*
X13058107Y-10354285D01*
X13053002Y-10351207D01*
X13041440Y-10339645D01*
X13029752Y-10327957D01*
X13026403Y-10321824D01*
X13026120Y-10319188D01*
X13026120Y-10281386D01*
X13026120Y-10242095D01*
X13028088Y-10235392D01*
X13028488Y-10234807D01*
X13028756Y-10234438D01*
X13028757Y-10234437D01*
X13033855Y-10224431D01*
X13033855Y-10224431D01*
X13033855Y-10224431D01*
X13035612Y-10213340D01*
X13035612Y-10213340D01*
X13033855Y-10202249D01*
X13028757Y-10192243D01*
X13020816Y-10184303D01*
X13014231Y-10180947D01*
X13010811Y-10179205D01*
X13010811Y-10179205D01*
X13010250Y-10179023D01*
X13004483Y-10175078D01*
X13001763Y-10168642D01*
X13002955Y-10161758D01*
X13003027Y-10161614D01*
X13003375Y-10160931D01*
X13003375Y-10160931D01*
X13005132Y-10149840D01*
X13005132Y-10149840D01*
X13003375Y-10138749D01*
X12998277Y-10128743D01*
X12990336Y-10120803D01*
X12980331Y-10115705D01*
X12969240Y-10113948D01*
X12969240Y-10113948D01*
X12958149Y-10115705D01*
X12948143Y-10120803D01*
X12940203Y-10128743D01*
X12935105Y-10138749D01*
X12934250Y-10144146D01*
X12931257Y-10150459D01*
X12930771Y-10150974D01*
X12919164Y-10162580D01*
X12917286Y-10164122D01*
X12916097Y-10164917D01*
X12913818Y-10168326D01*
X12913818Y-10168327D01*
X12910262Y-10173649D01*
X12908213Y-10183950D01*
X12908492Y-10185352D01*
X12908730Y-10187771D01*
X12908730Y-10236368D01*
X12908492Y-10238787D01*
X12908213Y-10240190D01*
X12908213Y-10240190D01*
X12008820Y-10240190D01*
X12009452Y-10236200D01*
X12009452Y-10236200D01*
X12007695Y-10225109D01*
X12002597Y-10215103D01*
X11994656Y-10207163D01*
X11984651Y-10202065D01*
X11973560Y-10200308D01*
X11973560Y-10200308D01*
X11962469Y-10202065D01*
X11952463Y-10207163D01*
X11944523Y-10215103D01*
X11939425Y-10225109D01*
X11937668Y-10236200D01*
X11937668Y-10236200D01*
X11590652Y-10236200D01*
X11586851Y-10225642D01*
X11578166Y-10201519D01*
X11577947Y-10200763D01*
X11577464Y-10198588D01*
X11559554Y-10117993D01*
X11560021Y-10111022D01*
X11564183Y-10105410D01*
X11570719Y-10102939D01*
X11571569Y-10102904D01*
X11699000Y-10102000D01*
X11699565Y-9883140D01*
X11985928Y-9883140D01*
X11987685Y-9894231D01*
X11992783Y-9904237D01*
X12000723Y-9912177D01*
X12010729Y-9917275D01*
X12021820Y-9919032D01*
X12021820Y-9919032D01*
X12021820Y-9919032D01*
X12032911Y-9917275D01*
X12032911Y-9917275D01*
X12032911Y-9917275D01*
X12042917Y-9912177D01*
X12050857Y-9904237D01*
X12055955Y-9894231D01*
X12055955Y-9894231D01*
X12055955Y-9894231D01*
X12057712Y-9883140D01*
X12057712Y-9883140D01*
X12055955Y-9872049D01*
X12055878Y-9871897D01*
X12051861Y-9864013D01*
X12050857Y-9862043D01*
X12042916Y-9854103D01*
X12032911Y-9849005D01*
X12021820Y-9847248D01*
X12021820Y-9847248D01*
X12010729Y-9849005D01*
X12000723Y-9854103D01*
X11992783Y-9862043D01*
X11987685Y-9872049D01*
X11985928Y-9883140D01*
X11985928Y-9883140D01*
X11699565Y-9883140D01*
X11700000Y-9715000D01*
X11574133Y-9715000D01*
X11567430Y-9713032D01*
X11562854Y-9707751D01*
X11561860Y-9700835D01*
X11561919Y-9700463D01*
X11567791Y-9666908D01*
X11581094Y-9590889D01*
X11581641Y-9588831D01*
X11593648Y-9555480D01*
X11912268Y-9555480D01*
X11914025Y-9566571D01*
X11914058Y-9566637D01*
X11914093Y-9566780D01*
X11914326Y-9567499D01*
X11914270Y-9567517D01*
X11915410Y-9572267D01*
X11915410Y-9599499D01*
X11915386Y-9600040D01*
X11915031Y-9604098D01*
X11916086Y-9608034D01*
X11916203Y-9608562D01*
X11916910Y-9612574D01*
X11917083Y-9613049D01*
X11917807Y-9614796D01*
X11918021Y-9615254D01*
X11920357Y-9618591D01*
X11920648Y-9619048D01*
X11922685Y-9622576D01*
X11922685Y-9622576D01*
X11925806Y-9625195D01*
X11926204Y-9625560D01*
X12107825Y-9807180D01*
X12168318Y-9867674D01*
X12171666Y-9873806D01*
X12171950Y-9876442D01*
X12171950Y-9884133D01*
X12170810Y-9888883D01*
X12170866Y-9888901D01*
X12170633Y-9889617D01*
X12170599Y-9889762D01*
X12170565Y-9889828D01*
X12170565Y-9889829D01*
X12168808Y-9900920D01*
X12168808Y-9900920D01*
X12170565Y-9912011D01*
X12175663Y-9922017D01*
X12183603Y-9929957D01*
X12193609Y-9935055D01*
X12204700Y-9936812D01*
X12204700Y-9936812D01*
X12204700Y-9936812D01*
X12215791Y-9935055D01*
X12215791Y-9935055D01*
X12215791Y-9935055D01*
X12225797Y-9929957D01*
X12233737Y-9922017D01*
X12238835Y-9912011D01*
X12238835Y-9912011D01*
X12238835Y-9912011D01*
X12240592Y-9900920D01*
X12240592Y-9900920D01*
X12238835Y-9889829D01*
X12238835Y-9889828D01*
X12238801Y-9889762D01*
X12238767Y-9889619D01*
X12238534Y-9888901D01*
X12238590Y-9888882D01*
X12237450Y-9884133D01*
X12237450Y-9873806D01*
X12237450Y-9859437D01*
X12237473Y-9858902D01*
X12237829Y-9854842D01*
X12237828Y-9854841D01*
X12237829Y-9854841D01*
X12236774Y-9850906D01*
X12236657Y-9850380D01*
X12235950Y-9846366D01*
X12235949Y-9846366D01*
X12235776Y-9845888D01*
X12235054Y-9844146D01*
X12234839Y-9843686D01*
X12232503Y-9840349D01*
X12232212Y-9839893D01*
X12230175Y-9836364D01*
X12230175Y-9836364D01*
X12227053Y-9833745D01*
X12226655Y-9833379D01*
X12151957Y-9758682D01*
X12149182Y-9753600D01*
X12211988Y-9753600D01*
X12213745Y-9764691D01*
X12218843Y-9774697D01*
X12226783Y-9782637D01*
X12236789Y-9787735D01*
X12247880Y-9789492D01*
X12247880Y-9789492D01*
X12247880Y-9789492D01*
X12258971Y-9787735D01*
X12258971Y-9787735D01*
X12258971Y-9787735D01*
X12268977Y-9782637D01*
X12276917Y-9774697D01*
X12280297Y-9768063D01*
X12282015Y-9764691D01*
X12282317Y-9763763D01*
X12282537Y-9763835D01*
X12284950Y-9758747D01*
X12290881Y-9755054D01*
X12294204Y-9754600D01*
X12407084Y-9754600D01*
X12413788Y-9756569D01*
X12414373Y-9756968D01*
X12414744Y-9757238D01*
X12424749Y-9762335D01*
X12435840Y-9764092D01*
X12435840Y-9764092D01*
X12435840Y-9764092D01*
X12446931Y-9762335D01*
X12446931Y-9762335D01*
X12446931Y-9762335D01*
X12456937Y-9757237D01*
X12464472Y-9749702D01*
X12470604Y-9746353D01*
X12477573Y-9746852D01*
X12483167Y-9751039D01*
X12485608Y-9757585D01*
X12485640Y-9758470D01*
X12485640Y-9767558D01*
X12485402Y-9769977D01*
X12485123Y-9771380D01*
X12485123Y-9771380D01*
X12485640Y-9773980D01*
X12487172Y-9781681D01*
X12493007Y-9790413D01*
X12494195Y-9791208D01*
X12496074Y-9792750D01*
X12624319Y-9920994D01*
X12627667Y-9927126D01*
X12627169Y-9934095D01*
X12626599Y-9935391D01*
X12625225Y-9938089D01*
X12623468Y-9949180D01*
X12623468Y-9949180D01*
X12625225Y-9960271D01*
X12630323Y-9970277D01*
X12638263Y-9978217D01*
X12648269Y-9983315D01*
X12659360Y-9985072D01*
X12659360Y-9985072D01*
X12659360Y-9985072D01*
X12670451Y-9983315D01*
X12670451Y-9983315D01*
X12670451Y-9983315D01*
X12674694Y-9981153D01*
X12681560Y-9979864D01*
X12688035Y-9982492D01*
X12692060Y-9988202D01*
X12692570Y-9994142D01*
X12692048Y-9997440D01*
X12692048Y-9997440D01*
X12693805Y-10008531D01*
X12698903Y-10018537D01*
X12706843Y-10026477D01*
X12716849Y-10031575D01*
X12727940Y-10033332D01*
X12727940Y-10033332D01*
X12727940Y-10033332D01*
X12739031Y-10031575D01*
X12739031Y-10031575D01*
X12739031Y-10031575D01*
X12740948Y-10030598D01*
X12747815Y-10029309D01*
X12754289Y-10031936D01*
X12758315Y-10037647D01*
X12758825Y-10043586D01*
X12758226Y-10047371D01*
X12758088Y-10048240D01*
X12758088Y-10048240D01*
X12758088Y-10048240D01*
X12759845Y-10059331D01*
X12764943Y-10069337D01*
X12772883Y-10077277D01*
X12782889Y-10082375D01*
X12793980Y-10084132D01*
X12793980Y-10084132D01*
X12793980Y-10084132D01*
X12805071Y-10082375D01*
X12805071Y-10082375D01*
X12805071Y-10082375D01*
X12815077Y-10077277D01*
X12823017Y-10069337D01*
X12828115Y-10059331D01*
X12828115Y-10059331D01*
X12828115Y-10059331D01*
X12829872Y-10048240D01*
X12829872Y-10048240D01*
X12828115Y-10037149D01*
X12823017Y-10027144D01*
X12822748Y-10026773D01*
X12820400Y-10020193D01*
X12820380Y-10019485D01*
X12820380Y-9999980D01*
X12963828Y-9999980D01*
X12965585Y-10011071D01*
X12970683Y-10021077D01*
X12978623Y-10029017D01*
X12988629Y-10034115D01*
X12999720Y-10035872D01*
X12999720Y-10035872D01*
X12999720Y-10035872D01*
X13010811Y-10034115D01*
X13010811Y-10034115D01*
X13010811Y-10034115D01*
X13020817Y-10029017D01*
X13028757Y-10021077D01*
X13033855Y-10011071D01*
X13033855Y-10011071D01*
X13033855Y-10011071D01*
X13035612Y-9999980D01*
X13035612Y-9999980D01*
X13033855Y-9988889D01*
X13028757Y-9978883D01*
X13020816Y-9970943D01*
X13010811Y-9965845D01*
X12999720Y-9964088D01*
X12999720Y-9964088D01*
X12988629Y-9965845D01*
X12978623Y-9970943D01*
X12970683Y-9978883D01*
X12965585Y-9988889D01*
X12963828Y-9999980D01*
X12963828Y-9999980D01*
X12820380Y-9999980D01*
X12820380Y-9973321D01*
X12820618Y-9970902D01*
X12820679Y-9970597D01*
X12820897Y-9969500D01*
X12818848Y-9959199D01*
X12818848Y-9959199D01*
X12818848Y-9959199D01*
X12814148Y-9952165D01*
X12814148Y-9952165D01*
X12813013Y-9950467D01*
X12813013Y-9950467D01*
X12813013Y-9950467D01*
X12811824Y-9949672D01*
X12809945Y-9948130D01*
X12617230Y-9755415D01*
X12615688Y-9753536D01*
X12614893Y-9752347D01*
X12614893Y-9752347D01*
X12606161Y-9746512D01*
X12605733Y-9746335D01*
X12601710Y-9743647D01*
X12585252Y-9727188D01*
X12581903Y-9721056D01*
X12581620Y-9718420D01*
X12581620Y-9705340D01*
X12651408Y-9705340D01*
X12653165Y-9716431D01*
X12658263Y-9726437D01*
X12666203Y-9734377D01*
X12676209Y-9739475D01*
X12687300Y-9741232D01*
X12687300Y-9741232D01*
X12687300Y-9741232D01*
X12692051Y-9740479D01*
X12697704Y-9739584D01*
X12704633Y-9740479D01*
X12709979Y-9744979D01*
X12712043Y-9751654D01*
X12711653Y-9754232D01*
X12711737Y-9754245D01*
X12709828Y-9766300D01*
X12709828Y-9766300D01*
X12711585Y-9777391D01*
X12716683Y-9787397D01*
X12724623Y-9795337D01*
X12734629Y-9800435D01*
X12745720Y-9802192D01*
X12745720Y-9802192D01*
X12745720Y-9802192D01*
X12756811Y-9800435D01*
X12756811Y-9800435D01*
X12756811Y-9800435D01*
X12762202Y-9797689D01*
X12766816Y-9795338D01*
X12766816Y-9795337D01*
X12766817Y-9795337D01*
X12767344Y-9794810D01*
X12773476Y-9791462D01*
X12780445Y-9791960D01*
X12786038Y-9796147D01*
X12787905Y-9799746D01*
X12788069Y-9800251D01*
X12793167Y-9810257D01*
X12801108Y-9818197D01*
X12811113Y-9823295D01*
X12822204Y-9825052D01*
X12822204Y-9825052D01*
X12822205Y-9825052D01*
X12833295Y-9823295D01*
X12833295Y-9823295D01*
X12833296Y-9823295D01*
X12835485Y-9822180D01*
X12874928Y-9822180D01*
X12874928Y-9822180D01*
X12876685Y-9833271D01*
X12881783Y-9843277D01*
X12889723Y-9851217D01*
X12899729Y-9856315D01*
X12910820Y-9858072D01*
X12910820Y-9858072D01*
X12910820Y-9858072D01*
X12921911Y-9856315D01*
X12921911Y-9856315D01*
X12921911Y-9856315D01*
X12931917Y-9851217D01*
X12939857Y-9843277D01*
X12944955Y-9833271D01*
X12944955Y-9833271D01*
X12944955Y-9833271D01*
X12946712Y-9822180D01*
X12946712Y-9822180D01*
X12944955Y-9811089D01*
X12939857Y-9801083D01*
X12931916Y-9793143D01*
X12921911Y-9788045D01*
X12910820Y-9786288D01*
X12910820Y-9786288D01*
X12899729Y-9788045D01*
X12889723Y-9793143D01*
X12881783Y-9801083D01*
X12880215Y-9804160D01*
X12875467Y-9809188D01*
X12876105Y-9814749D01*
X12874928Y-9822180D01*
X12835485Y-9822180D01*
X12843301Y-9818197D01*
X12851242Y-9810257D01*
X12852809Y-9807180D01*
X12857557Y-9802152D01*
X12856919Y-9796590D01*
X12857118Y-9795338D01*
X12858096Y-9789160D01*
X12858096Y-9789160D01*
X12856340Y-9778069D01*
X12851242Y-9768063D01*
X12843301Y-9760123D01*
X12833295Y-9755025D01*
X12822205Y-9753268D01*
X12822204Y-9753268D01*
X12811113Y-9755025D01*
X12801108Y-9760123D01*
X12800580Y-9760650D01*
X12794448Y-9763999D01*
X12787478Y-9763500D01*
X12781885Y-9759313D01*
X12780019Y-9755714D01*
X12779855Y-9755209D01*
X12779855Y-9755209D01*
X12775973Y-9747589D01*
X12774757Y-9745203D01*
X12766816Y-9737263D01*
X12756811Y-9732165D01*
X12745720Y-9730408D01*
X12745720Y-9730408D01*
X12735316Y-9732056D01*
X12728386Y-9731160D01*
X12723041Y-9726661D01*
X12720977Y-9719986D01*
X12721367Y-9717408D01*
X12721283Y-9717395D01*
X12723192Y-9705340D01*
X12723192Y-9705340D01*
X12721435Y-9694249D01*
X12716337Y-9684243D01*
X12708396Y-9676303D01*
X12698391Y-9671205D01*
X12687300Y-9669448D01*
X12687300Y-9669448D01*
X12676209Y-9671205D01*
X12666203Y-9676303D01*
X12658263Y-9684243D01*
X12653165Y-9694249D01*
X12651408Y-9705340D01*
X12651408Y-9705340D01*
X12581620Y-9705340D01*
X12581620Y-9652000D01*
X12811428Y-9652000D01*
X12813185Y-9663091D01*
X12818283Y-9673097D01*
X12826223Y-9681037D01*
X12836229Y-9686135D01*
X12847320Y-9687892D01*
X12847320Y-9687892D01*
X12847320Y-9687892D01*
X12858411Y-9686135D01*
X12858411Y-9686135D01*
X12858411Y-9686135D01*
X12868417Y-9681037D01*
X12876357Y-9673097D01*
X12881455Y-9663091D01*
X12881455Y-9663091D01*
X12881455Y-9663091D01*
X12883212Y-9652000D01*
X12883212Y-9652000D01*
X12882696Y-9648745D01*
X12883592Y-9641816D01*
X12888091Y-9636470D01*
X12893004Y-9634558D01*
X12893040Y-9634552D01*
X12893040Y-9634552D01*
X12895818Y-9634112D01*
X12904131Y-9632795D01*
X12904131Y-9632795D01*
X12904131Y-9632795D01*
X12914137Y-9627697D01*
X12922077Y-9619757D01*
X12927175Y-9609751D01*
X12927175Y-9609751D01*
X12927175Y-9609751D01*
X12928932Y-9598660D01*
X12928932Y-9598660D01*
X12927175Y-9587569D01*
X12922077Y-9577563D01*
X12914136Y-9569623D01*
X12904131Y-9564525D01*
X12893040Y-9562768D01*
X12893040Y-9562768D01*
X12881949Y-9564525D01*
X12871943Y-9569623D01*
X12864003Y-9577563D01*
X12858905Y-9587569D01*
X12857148Y-9598660D01*
X12857148Y-9598660D01*
X12857427Y-9600423D01*
X12857664Y-9601915D01*
X12856768Y-9608845D01*
X12852268Y-9614190D01*
X12847356Y-9616102D01*
X12836229Y-9617865D01*
X12826223Y-9622963D01*
X12818283Y-9630903D01*
X12813185Y-9640909D01*
X12811428Y-9652000D01*
X12811428Y-9652000D01*
X12581620Y-9652000D01*
X12581620Y-9500881D01*
X12581858Y-9498462D01*
X12582034Y-9497577D01*
X12582137Y-9497060D01*
X12581620Y-9494460D01*
X12581620Y-9494460D01*
X12580622Y-9489440D01*
X12773328Y-9489440D01*
X12775085Y-9500531D01*
X12780183Y-9510537D01*
X12788123Y-9518477D01*
X12797518Y-9523264D01*
X12797948Y-9523483D01*
X12798129Y-9523575D01*
X12809220Y-9525332D01*
X12809220Y-9525332D01*
X12809220Y-9525332D01*
X12820311Y-9523575D01*
X12820311Y-9523575D01*
X12820311Y-9523575D01*
X12830317Y-9518477D01*
X12838257Y-9510537D01*
X12843355Y-9500531D01*
X12843355Y-9500530D01*
X12843449Y-9500241D01*
X12843660Y-9499933D01*
X12843798Y-9499662D01*
X12843833Y-9499680D01*
X12847393Y-9494473D01*
X12853829Y-9491754D01*
X12860714Y-9492945D01*
X12864011Y-9495305D01*
X12871943Y-9503237D01*
X12881949Y-9508335D01*
X12893040Y-9510092D01*
X12893040Y-9510092D01*
X12893040Y-9510092D01*
X12904131Y-9508335D01*
X12904131Y-9508335D01*
X12904131Y-9508335D01*
X12914137Y-9503237D01*
X12922077Y-9495297D01*
X12927175Y-9485291D01*
X12927175Y-9485291D01*
X12927175Y-9485291D01*
X12928932Y-9474200D01*
X12928932Y-9474200D01*
X12927175Y-9463109D01*
X12922077Y-9453103D01*
X12914136Y-9445163D01*
X12904131Y-9440065D01*
X12893040Y-9438308D01*
X12893040Y-9438308D01*
X12881949Y-9440065D01*
X12871943Y-9445163D01*
X12864003Y-9453103D01*
X12858905Y-9463109D01*
X12858810Y-9463400D01*
X12858599Y-9463708D01*
X12858462Y-9463978D01*
X12858427Y-9463960D01*
X12854866Y-9469167D01*
X12848429Y-9471887D01*
X12841545Y-9470694D01*
X12838249Y-9468335D01*
X12830316Y-9460403D01*
X12820311Y-9455305D01*
X12809220Y-9453548D01*
X12809220Y-9453548D01*
X12798129Y-9455305D01*
X12788123Y-9460403D01*
X12780183Y-9468343D01*
X12775085Y-9478349D01*
X12773328Y-9489440D01*
X12773328Y-9489440D01*
X12580622Y-9489440D01*
X12580088Y-9486759D01*
X12574253Y-9478027D01*
X12573347Y-9477421D01*
X12573064Y-9477232D01*
X12571185Y-9475690D01*
X12550987Y-9455492D01*
X12547639Y-9449360D01*
X12547508Y-9448664D01*
X12546175Y-9440249D01*
X12541077Y-9430243D01*
X12533136Y-9422303D01*
X12523131Y-9417205D01*
X12512040Y-9415448D01*
X12512040Y-9415448D01*
X12500949Y-9417205D01*
X12490943Y-9422303D01*
X12483003Y-9430243D01*
X12477905Y-9440249D01*
X12477117Y-9445219D01*
X12474124Y-9451532D01*
X12468193Y-9455225D01*
X12461207Y-9455125D01*
X12456102Y-9452047D01*
X12446369Y-9442314D01*
X12443021Y-9436182D01*
X12442890Y-9435489D01*
X12442035Y-9430089D01*
X12442035Y-9430089D01*
X12442035Y-9430088D01*
X12436937Y-9420083D01*
X12428996Y-9412143D01*
X12418991Y-9407045D01*
X12407900Y-9405288D01*
X12407900Y-9405288D01*
X12396809Y-9407045D01*
X12386803Y-9412143D01*
X12378568Y-9420378D01*
X12372436Y-9423727D01*
X12365467Y-9423228D01*
X12361032Y-9420378D01*
X12357876Y-9417222D01*
X12354345Y-9415423D01*
X12349266Y-9410626D01*
X12347586Y-9403844D01*
X12349840Y-9397230D01*
X12351206Y-9395607D01*
X12355657Y-9391157D01*
X12360755Y-9381151D01*
X12360755Y-9381151D01*
X12360755Y-9381151D01*
X12361305Y-9377680D01*
X13598828Y-9377680D01*
X13600585Y-9388771D01*
X13605683Y-9398777D01*
X13613623Y-9406717D01*
X13623629Y-9411815D01*
X13634720Y-9413572D01*
X13634720Y-9413572D01*
X13634720Y-9413572D01*
X13645811Y-9411815D01*
X13645811Y-9411815D01*
X13645811Y-9411815D01*
X13655817Y-9406717D01*
X13663757Y-9398777D01*
X13668855Y-9388771D01*
X13668855Y-9388771D01*
X13668855Y-9388771D01*
X13670612Y-9377680D01*
X13670612Y-9377680D01*
X13668855Y-9366589D01*
X13663757Y-9356583D01*
X13655816Y-9348643D01*
X13645811Y-9343545D01*
X13634720Y-9341788D01*
X13634720Y-9341788D01*
X13623629Y-9343545D01*
X13613623Y-9348643D01*
X13605683Y-9356583D01*
X13600585Y-9366589D01*
X13598828Y-9377680D01*
X13598828Y-9377680D01*
X12361305Y-9377680D01*
X12362512Y-9370060D01*
X12362512Y-9370060D01*
X12360755Y-9358969D01*
X12355657Y-9348963D01*
X12347716Y-9341023D01*
X12337711Y-9335925D01*
X12326620Y-9334168D01*
X12326620Y-9334168D01*
X12315529Y-9335925D01*
X12305523Y-9341023D01*
X12297583Y-9348963D01*
X12292485Y-9358969D01*
X12290728Y-9370060D01*
X12290728Y-9370060D01*
X12292485Y-9381151D01*
X12297583Y-9391157D01*
X12305523Y-9399097D01*
X12309054Y-9400896D01*
X12314134Y-9405694D01*
X12315813Y-9412476D01*
X12313560Y-9419089D01*
X12312193Y-9420713D01*
X12307743Y-9425163D01*
X12302645Y-9435169D01*
X12300888Y-9446260D01*
X12300888Y-9446260D01*
X12302645Y-9457351D01*
X12307743Y-9467357D01*
X12315683Y-9475297D01*
X12325688Y-9480395D01*
X12325689Y-9480395D01*
X12325689Y-9480395D01*
X12331086Y-9481250D01*
X12337399Y-9484243D01*
X12337914Y-9484729D01*
X12359680Y-9506495D01*
X12361222Y-9508374D01*
X12361526Y-9508829D01*
X12362017Y-9509563D01*
X12370749Y-9515398D01*
X12378450Y-9516930D01*
X12378450Y-9516930D01*
X12379047Y-9517049D01*
X12379047Y-9517049D01*
X12381050Y-9517447D01*
X12382452Y-9517168D01*
X12384871Y-9516930D01*
X12410646Y-9516930D01*
X12417350Y-9518899D01*
X12419414Y-9520562D01*
X12482008Y-9583156D01*
X12485357Y-9589288D01*
X12485640Y-9591924D01*
X12485640Y-9697930D01*
X12483671Y-9704634D01*
X12478391Y-9709209D01*
X12471475Y-9710204D01*
X12465120Y-9707301D01*
X12464472Y-9706698D01*
X12456936Y-9699163D01*
X12446931Y-9694065D01*
X12435840Y-9692308D01*
X12435840Y-9692308D01*
X12424749Y-9694065D01*
X12414744Y-9699162D01*
X12414373Y-9699432D01*
X12407793Y-9701780D01*
X12407084Y-9701800D01*
X12277101Y-9701800D01*
X12274682Y-9701562D01*
X12273280Y-9701283D01*
X12273280Y-9701283D01*
X12273280Y-9701283D01*
X12271088Y-9701719D01*
X12271087Y-9701719D01*
X12262979Y-9703332D01*
X12254247Y-9709167D01*
X12254246Y-9709167D01*
X12253452Y-9710356D01*
X12251910Y-9712234D01*
X12249014Y-9715131D01*
X12242882Y-9718479D01*
X12242186Y-9718610D01*
X12236789Y-9719465D01*
X12226783Y-9724563D01*
X12223127Y-9728219D01*
X12216995Y-9731567D01*
X12213251Y-9731299D01*
X12215029Y-9736065D01*
X12213920Y-9741540D01*
X12214046Y-9741581D01*
X12213745Y-9742509D01*
X12211988Y-9753600D01*
X12211988Y-9753600D01*
X12149182Y-9753600D01*
X12148609Y-9752550D01*
X12149107Y-9745580D01*
X12153294Y-9739987D01*
X12159841Y-9737545D01*
X12162665Y-9737666D01*
X12169140Y-9738692D01*
X12169140Y-9738692D01*
X12169140Y-9738692D01*
X12180231Y-9736935D01*
X12180231Y-9736935D01*
X12180231Y-9736935D01*
X12190237Y-9731837D01*
X12193893Y-9728181D01*
X12200025Y-9724833D01*
X12203768Y-9725101D01*
X12201991Y-9720335D01*
X12203100Y-9714860D01*
X12202974Y-9714819D01*
X12203275Y-9713892D01*
X12203275Y-9713891D01*
X12204630Y-9705340D01*
X12205032Y-9702800D01*
X12205032Y-9702800D01*
X12203275Y-9691709D01*
X12198177Y-9681703D01*
X12190236Y-9673763D01*
X12180231Y-9668665D01*
X12169140Y-9666908D01*
X12169140Y-9666908D01*
X12158049Y-9668665D01*
X12148043Y-9673763D01*
X12140103Y-9681703D01*
X12135005Y-9691709D01*
X12133248Y-9702800D01*
X12133248Y-9702800D01*
X12133865Y-9706698D01*
X12134274Y-9709275D01*
X12133378Y-9716204D01*
X12128878Y-9721549D01*
X12122203Y-9723613D01*
X12115472Y-9721741D01*
X12113258Y-9719983D01*
X11984542Y-9591266D01*
X11981193Y-9585134D01*
X11980910Y-9582498D01*
X11980910Y-9572267D01*
X11982050Y-9567517D01*
X11981994Y-9567499D01*
X11982227Y-9566780D01*
X11982262Y-9566637D01*
X11982295Y-9566571D01*
X11982295Y-9566571D01*
X11982295Y-9566571D01*
X11984052Y-9555480D01*
X11984052Y-9555480D01*
X11982295Y-9544389D01*
X11977197Y-9534383D01*
X11969256Y-9526443D01*
X11959251Y-9521345D01*
X11948160Y-9519588D01*
X11948160Y-9519588D01*
X11937069Y-9521345D01*
X11927063Y-9526443D01*
X11919123Y-9534383D01*
X11914025Y-9544389D01*
X11912268Y-9555480D01*
X11912268Y-9555480D01*
X11593648Y-9555480D01*
X11598098Y-9543120D01*
X11598240Y-9542759D01*
X11598375Y-9542448D01*
X11611421Y-9512300D01*
X11770028Y-9512300D01*
X11771785Y-9523391D01*
X11776883Y-9533397D01*
X11784823Y-9541337D01*
X11794829Y-9546435D01*
X11805920Y-9548192D01*
X11805920Y-9548192D01*
X11805920Y-9548192D01*
X11817011Y-9546435D01*
X11817011Y-9546435D01*
X11817011Y-9546435D01*
X11827017Y-9541337D01*
X11834957Y-9533397D01*
X11840055Y-9523391D01*
X11840055Y-9523391D01*
X11840055Y-9523391D01*
X11841812Y-9512300D01*
X12112928Y-9512300D01*
X12114685Y-9523391D01*
X12119783Y-9533397D01*
X12127723Y-9541337D01*
X12137729Y-9546435D01*
X12148820Y-9548192D01*
X12148820Y-9548192D01*
X12148820Y-9548192D01*
X12159911Y-9546435D01*
X12159911Y-9546435D01*
X12159911Y-9546435D01*
X12169917Y-9541337D01*
X12177857Y-9533397D01*
X12182955Y-9523391D01*
X12182955Y-9523391D01*
X12182955Y-9523391D01*
X12184712Y-9512300D01*
X12184712Y-9512300D01*
X12182955Y-9501209D01*
X12177857Y-9491203D01*
X12169916Y-9483263D01*
X12159911Y-9478165D01*
X12148820Y-9476408D01*
X12148820Y-9476408D01*
X12137729Y-9478165D01*
X12127723Y-9483263D01*
X12119783Y-9491203D01*
X12114685Y-9501209D01*
X12112928Y-9512300D01*
X12112928Y-9512300D01*
X11841812Y-9512300D01*
X11841812Y-9512300D01*
X11840055Y-9501209D01*
X11834957Y-9491203D01*
X11827016Y-9483263D01*
X11817011Y-9478165D01*
X11805920Y-9476408D01*
X11805920Y-9476408D01*
X11794829Y-9478165D01*
X11784823Y-9483263D01*
X11776883Y-9491203D01*
X11771785Y-9501209D01*
X11770028Y-9512300D01*
X11770028Y-9512300D01*
X11611421Y-9512300D01*
X11620064Y-9492327D01*
X11620938Y-9490666D01*
X11748953Y-9286534D01*
X11749304Y-9286033D01*
X11752521Y-9281885D01*
X11752769Y-9281585D01*
X11768526Y-9263712D01*
X11792810Y-9236167D01*
X11793072Y-9235888D01*
X11801140Y-9227820D01*
X12072288Y-9227820D01*
X12074045Y-9238911D01*
X12079143Y-9248917D01*
X12087083Y-9256857D01*
X12097089Y-9261955D01*
X12108180Y-9263712D01*
X12108180Y-9263712D01*
X12108180Y-9263712D01*
X12119271Y-9261955D01*
X12119271Y-9261955D01*
X12119271Y-9261955D01*
X12129277Y-9256857D01*
X12137217Y-9248917D01*
X12142315Y-9238911D01*
X12142315Y-9238911D01*
X12142315Y-9238911D01*
X12144072Y-9227820D01*
X12144072Y-9227820D01*
X12142315Y-9216729D01*
X12137217Y-9206723D01*
X12129276Y-9198783D01*
X12119271Y-9193685D01*
X12108180Y-9191928D01*
X12108180Y-9191928D01*
X12097089Y-9193685D01*
X12087083Y-9198783D01*
X12079143Y-9206723D01*
X12074045Y-9216729D01*
X12072288Y-9227820D01*
X12072288Y-9227820D01*
X11801140Y-9227820D01*
X11809568Y-9219393D01*
X11810921Y-9218222D01*
X11849156Y-9189720D01*
X12610768Y-9189720D01*
X12612525Y-9200811D01*
X12617623Y-9210817D01*
X12625563Y-9218757D01*
X12635569Y-9223855D01*
X12646660Y-9225612D01*
X12646660Y-9225612D01*
X12646660Y-9225612D01*
X12657751Y-9223855D01*
X12657751Y-9223855D01*
X12657751Y-9223855D01*
X12667757Y-9218757D01*
X12675697Y-9210817D01*
X12680795Y-9200811D01*
X12680795Y-9200811D01*
X12680795Y-9200811D01*
X12682552Y-9189720D01*
X12682552Y-9189720D01*
X12680795Y-9178629D01*
X12675697Y-9168623D01*
X12667756Y-9160683D01*
X12657751Y-9155585D01*
X12646660Y-9153828D01*
X12646660Y-9153828D01*
X12635569Y-9155585D01*
X12625563Y-9160683D01*
X12617623Y-9168623D01*
X12612525Y-9178629D01*
X12610768Y-9189720D01*
X12610768Y-9189720D01*
X11849156Y-9189720D01*
X11988856Y-9085580D01*
X12168808Y-9085580D01*
X12170565Y-9096671D01*
X12175663Y-9106677D01*
X12183603Y-9114617D01*
X12193609Y-9119715D01*
X12204700Y-9121472D01*
X12204700Y-9121472D01*
X12204700Y-9121472D01*
X12215791Y-9119715D01*
X12215791Y-9119715D01*
X12215791Y-9119715D01*
X12225797Y-9114617D01*
X12233737Y-9106677D01*
X12236721Y-9100820D01*
X12293268Y-9100820D01*
X12295025Y-9111911D01*
X12300123Y-9121917D01*
X12308063Y-9129857D01*
X12318069Y-9134955D01*
X12329160Y-9136712D01*
X12329160Y-9136712D01*
X12329160Y-9136712D01*
X12340251Y-9134955D01*
X12340251Y-9134955D01*
X12340251Y-9134955D01*
X12350257Y-9129857D01*
X12358197Y-9121917D01*
X12363295Y-9111911D01*
X12363295Y-9111911D01*
X12363295Y-9111911D01*
X12365052Y-9100820D01*
X12365052Y-9100820D01*
X12363295Y-9089729D01*
X12358197Y-9079723D01*
X12350256Y-9071783D01*
X12340251Y-9066685D01*
X12329160Y-9064928D01*
X12329160Y-9064928D01*
X12318069Y-9066685D01*
X12308063Y-9071783D01*
X12300123Y-9079723D01*
X12295025Y-9089729D01*
X12293268Y-9100820D01*
X12293268Y-9100820D01*
X12236721Y-9100820D01*
X12238835Y-9096671D01*
X12238835Y-9096671D01*
X12238835Y-9096671D01*
X12240592Y-9085580D01*
X12240592Y-9085580D01*
X12238835Y-9074489D01*
X12233737Y-9064483D01*
X12225796Y-9056543D01*
X12215791Y-9051445D01*
X12204700Y-9049688D01*
X12204700Y-9049688D01*
X12193609Y-9051445D01*
X12183603Y-9056543D01*
X12175663Y-9064483D01*
X12170565Y-9074489D01*
X12168808Y-9085580D01*
X12168808Y-9085580D01*
X11988856Y-9085580D01*
X12043972Y-9044494D01*
X12045751Y-9043388D01*
X12055463Y-9038440D01*
X12057338Y-9037670D01*
X12058441Y-9037320D01*
X12791108Y-9037320D01*
X12792865Y-9048411D01*
X12797963Y-9058417D01*
X12805903Y-9066357D01*
X12815909Y-9071455D01*
X12827000Y-9073212D01*
X12827000Y-9073212D01*
X12827000Y-9073212D01*
X12838091Y-9071455D01*
X12838091Y-9071455D01*
X12838091Y-9071455D01*
X12848097Y-9066357D01*
X12856037Y-9058417D01*
X12861135Y-9048411D01*
X12861135Y-9048411D01*
X12861135Y-9048411D01*
X12862892Y-9037320D01*
X12862892Y-9037320D01*
X12861135Y-9026229D01*
X12856037Y-9016223D01*
X12848096Y-9008283D01*
X12838091Y-9003185D01*
X12827000Y-9001428D01*
X12827000Y-9001428D01*
X12815909Y-9003185D01*
X12805903Y-9008283D01*
X12797963Y-9016223D01*
X12792865Y-9026229D01*
X12791108Y-9037320D01*
X12791108Y-9037320D01*
X12058441Y-9037320D01*
X12363169Y-8940581D01*
X12366921Y-8940000D01*
X12544205Y-8940000D01*
X12550909Y-8941969D01*
G37*
G04 #@! TD.AperFunction*
G04 #@! TA.AperFunction,NonConductor*
G36*
X15450436Y-10308023D02*
G01*
X15456029Y-10312210D01*
X15458471Y-10318757D01*
X15458286Y-10321947D01*
X15454353Y-10342735D01*
X15451173Y-10348956D01*
X15445134Y-10352470D01*
X15438154Y-10352161D01*
X15432448Y-10348128D01*
X15431121Y-10346059D01*
X15426517Y-10337024D01*
X15426108Y-10336614D01*
X15422760Y-10330482D01*
X15423258Y-10323513D01*
X15427445Y-10317919D01*
X15428278Y-10317347D01*
X15435226Y-10312982D01*
X15437335Y-10310873D01*
X15443467Y-10307525D01*
X15450436Y-10308023D01*
G37*
G04 #@! TD.AperFunction*
M02*
