M48
; DRILL file {KiCad 7.0.10-7.0.10~ubuntu22.04.1} date Mo 01 Apr 2024 08:20:14 CEST
; FORMAT={-:-/ absolute / inch / decimal}
; #@! TF.CreationDate,2024-04-01T08:20:14+02:00
; #@! TF.GenerationSoftware,Kicad,Pcbnew,7.0.10-7.0.10~ubuntu22.04.1
; #@! TF.FileFunction,Plated,1,4,PTH
FMAT,2
INCH
; #@! TA.AperFunction,Plated,PTH,ViaDrill
T1C0.0079
; #@! TA.AperFunction,Plated,PTH,ComponentDrill
T2C0.0079
; #@! TA.AperFunction,Plated,PTH,ViaDrill
T3C0.0118
; #@! TA.AperFunction,Plated,PTH,ComponentDrill
T4C0.0197
; #@! TA.AperFunction,Plated,PTH,ComponentDrill
T5C0.0236
; #@! TA.AperFunction,Plated,PTH,ComponentDrill
T6C0.0335
%
G90
G05
T1
X4.606Y-3.723
X4.639Y-3.985
X4.648Y-3.745
X4.659Y-4.104
X4.66Y-4.014
X4.704Y-3.762
X4.714Y-4.03
X4.715Y-4.079
X4.72Y-4.117
X4.733Y-3.891
X4.767Y-3.633
X4.783Y-3.745
X4.791Y-3.82
X4.805Y-3.577
X4.805Y-3.898
X4.822Y-3.84
X4.853Y-3.689
X4.854Y-3.583
X4.857Y-3.719
X4.885Y-3.717
X4.892Y-4.037
X4.896Y-3.83
X4.901Y-3.526
X4.925Y-3.693
X4.926Y-3.721
X4.949Y-4.224
X4.955Y-3.534
X4.963Y-3.825
X4.979Y-3.618
X4.984Y-3.917
X4.987Y-4.03
X4.988Y-3.745
X4.995Y-3.821
X5.011Y-3.936
X5.016Y-4.24
X5.017Y-3.998
X5.018Y-3.845
X5.037Y-3.956
X5.043Y-3.736
X5.045Y-4.082
X5.0481Y-3.854
X5.05Y-3.558
X5.058Y-3.8
X5.066Y-4.053
X5.07Y-3.982
X5.076Y-3.73
X5.076Y-3.779
X5.083Y-3.867
X5.091Y-3.623
X5.096Y-4.239
X5.106Y-3.996
X5.112Y-3.603
X5.114Y-4.113
X5.118Y-3.937
X5.118Y-4.021
X5.135Y-3.631
X5.136Y-3.585
X5.14Y-3.539
X5.141Y-4.097
X5.155Y-4.241
X5.161Y-4.075
X5.165Y-3.565
X5.191Y-4.186
X5.198Y-3.587
X5.201Y-4.087
X5.221Y-4.032
X5.222Y-3.611
X5.227Y-3.947
X5.242Y-4.051
X5.2711Y-3.5327
X5.297Y-3.985
X5.301Y-4.044
X5.34Y-4.256
X5.368Y-3.692
X5.3725Y-3.589
X5.405Y-4.194
X5.406Y-3.95
X5.407Y-4.255
X5.419Y-4.08
X5.427Y-3.599
X5.429Y-3.675
X5.448Y-3.743
X5.461Y-3.539
X5.463Y-3.922
X5.465Y-3.771
X5.471Y-4.205
X5.482Y-3.754
X5.486Y-3.842
X5.495Y-4.148
X5.499Y-3.743
X5.511Y-3.788
X5.514Y-3.923
X5.516Y-3.704
X5.519Y-3.743
X5.5634Y-4.073
X5.564Y-3.748
X5.571Y-3.942
X5.589Y-3.691
X5.606Y-4.107
X5.616Y-4.181
X5.618Y-4.26
X5.624Y-3.727
X5.658Y-4.116
X5.664Y-3.551
X5.672Y-3.764
X5.679Y-4.164
X5.696Y-3.978
X5.729Y-4.113
X5.732Y-3.734
X5.737Y-4.265
X5.7451Y-4.0819
X5.752Y-3.548
X5.766Y-3.76
X5.769Y-4.102
X5.779Y-3.574
X5.779Y-4.073
X5.798Y-3.915
X5.7982Y-3.5433
X5.812Y-4.005
X5.812Y-4.051
X5.831Y-3.638
X5.838Y-4.242
X5.839Y-3.694
X5.854Y-4.054
X5.86Y-3.574
X5.868Y-3.914
X5.869Y-3.83
X5.874Y-3.945
X5.877Y-3.857
X5.889Y-3.649
X5.897Y-3.774
X5.897Y-3.964
X5.903Y-4.08
X5.916Y-3.55
X5.922Y-4.196
X5.936Y-4.148
X5.952Y-3.654
X5.952Y-3.682
X5.955Y-3.755
X5.975Y-4.078
X5.984Y-3.747
X5.984Y-4.034
X6.006Y-3.898
X6.026Y-4.076
X6.04Y-4.125
X6.062Y-4.078
T2
X5.8293Y-4.1285
X5.8293Y-4.1659
X5.8667Y-4.1285
X5.8667Y-4.1659
T3
X5.187Y-3.871
X5.188Y-3.794
X5.188Y-3.834
X5.228Y-3.835
X5.229Y-3.793
X5.229Y-3.872
X5.27Y-3.793
X5.27Y-3.838
X5.271Y-3.874
X5.564Y-3.637
X5.636Y-3.595
T4
X5.255Y-4.239
T6
X5.937Y-3.7992
X5.937Y-3.9961
T5
G00X6.0295Y-3.7598
M15
G01X6.0571Y-3.7598
M16
G05
G00X6.0571Y-4.0354
M15
G01X6.0295Y-4.0354
M16
G05
M30
