G04 #@! TF.GenerationSoftware,KiCad,Pcbnew,7.0.7*
G04 #@! TF.CreationDate,2024-03-13T12:15:20+01:00*
G04 #@! TF.ProjectId,dictofun,64696374-6f66-4756-9e2e-6b696361645f,rev?*
G04 #@! TF.SameCoordinates,Original*
G04 #@! TF.FileFunction,Legend,Top*
G04 #@! TF.FilePolarity,Positive*
%FSLAX45Y45*%
G04 Gerber Fmt 4.5, Leading zero omitted, Abs format (unit mm)*
G04 Created by KiCad (PCBNEW 7.0.7) date 2024-03-13 12:15:20*
%MOMM*%
%LPD*%
G01*
G04 APERTURE LIST*
%ADD10C,0.120000*%
%ADD11C,0.200000*%
%ADD12C,0.127000*%
G04 APERTURE END LIST*
D10*
X13310224Y-10337360D02*
X13288656Y-10337360D01*
X13310224Y-10409360D02*
X13288656Y-10409360D01*
X13310224Y-10616760D02*
X13288656Y-10616760D01*
X13310224Y-10688760D02*
X13288656Y-10688760D01*
X14734980Y-9642464D02*
X14734980Y-9620896D01*
X14662980Y-9642464D02*
X14662980Y-9620896D01*
X11748740Y-10318104D02*
X11748740Y-10296536D01*
X11820740Y-10318104D02*
X11820740Y-10296536D01*
X11853740Y-10318104D02*
X11853740Y-10296536D01*
X11925740Y-10318104D02*
X11925740Y-10296536D01*
X14693000Y-10695000D02*
X14740500Y-10695000D01*
X15015000Y-10695000D02*
X14967500Y-10695000D01*
X14693000Y-10647500D02*
X14693000Y-10695000D01*
X15015000Y-10647500D02*
X15015000Y-10695000D01*
X14693000Y-10420500D02*
X14693000Y-10373000D01*
X15015000Y-10420500D02*
X15015000Y-10373000D01*
X14693000Y-10373000D02*
X14740500Y-10373000D01*
X15224884Y-10464700D02*
X15194156Y-10464700D01*
X15224884Y-10388700D02*
X15194156Y-10388700D01*
X15045044Y-10310300D02*
X15023476Y-10310300D01*
X15045044Y-10238300D02*
X15023476Y-10238300D01*
X14632000Y-10534636D02*
X14632000Y-10565364D01*
X14556000Y-10534636D02*
X14556000Y-10565364D01*
X14305364Y-10406000D02*
X14274636Y-10406000D01*
X14305364Y-10330000D02*
X14274636Y-10330000D01*
X14506364Y-10406000D02*
X14475636Y-10406000D01*
X14506364Y-10330000D02*
X14475636Y-10330000D01*
X14682380Y-10825320D02*
X14682380Y-10678320D01*
X14682380Y-10678320D02*
X14453880Y-10678320D01*
X14453880Y-10825320D02*
X14682380Y-10825320D01*
X15217764Y-10556680D02*
X15196196Y-10556680D01*
X15217764Y-10484680D02*
X15196196Y-10484680D01*
X15191616Y-10579200D02*
X15222344Y-10579200D01*
X15191616Y-10655200D02*
X15222344Y-10655200D01*
X15125364Y-9168000D02*
X15094636Y-9168000D01*
X15125364Y-9092000D02*
X15094636Y-9092000D01*
X13745856Y-9932160D02*
X13767424Y-9932160D01*
X13745856Y-10004160D02*
X13767424Y-10004160D01*
X15448000Y-10014636D02*
X15448000Y-10045364D01*
X15372000Y-10014636D02*
X15372000Y-10045364D01*
D11*
X13740240Y-10641580D02*
G75*
G03*
X13740240Y-10641580I-10000J0D01*
G01*
D10*
X12250320Y-9189596D02*
X12250320Y-9220324D01*
X12174320Y-9189596D02*
X12174320Y-9220324D01*
D11*
X12331160Y-9402130D02*
G75*
G03*
X12331160Y-9402130I-10000J0D01*
G01*
D10*
X13481800Y-9063976D02*
X13481800Y-9085544D01*
X13409800Y-9063976D02*
X13409800Y-9085544D01*
X13143380Y-10561320D02*
G75*
G03*
X13143380Y-10561320I-70000J0D01*
G01*
X12179400Y-9443844D02*
X12179400Y-9413116D01*
X12255400Y-9443844D02*
X12255400Y-9413116D01*
X15374000Y-9810784D02*
X15374000Y-9789216D01*
X15446000Y-9810784D02*
X15446000Y-9789216D01*
X13856324Y-10866000D02*
X13834756Y-10866000D01*
X13856324Y-10794000D02*
X13834756Y-10794000D01*
X15077564Y-10027820D02*
X15046836Y-10027820D01*
X15077564Y-9951820D02*
X15046836Y-9951820D01*
X13881724Y-10356020D02*
X13860156Y-10356020D01*
X13881724Y-10284020D02*
X13860156Y-10284020D01*
X14883960Y-9639924D02*
X14883960Y-9618356D01*
X14955960Y-9639924D02*
X14955960Y-9618356D01*
X13874196Y-9397560D02*
X13895764Y-9397560D01*
X13874196Y-9469560D02*
X13895764Y-9469560D01*
X12759778Y-9903660D02*
X12731662Y-9903660D01*
X12759778Y-9801660D02*
X12731662Y-9801660D01*
X12767180Y-9328238D02*
X12767180Y-9300122D01*
X12869180Y-9328238D02*
X12869180Y-9300122D01*
X13010504Y-9322240D02*
X12988936Y-9322240D01*
X13010504Y-9250240D02*
X12988936Y-9250240D01*
X12526244Y-9074860D02*
X12504676Y-9074860D01*
X12526244Y-9002860D02*
X12504676Y-9002860D01*
X13627724Y-10734480D02*
X13606156Y-10734480D01*
X13627724Y-10662480D02*
X13606156Y-10662480D01*
X13883764Y-10454540D02*
X13853036Y-10454540D01*
X13883764Y-10378540D02*
X13853036Y-10378540D01*
X13662036Y-10245920D02*
X13683604Y-10245920D01*
X13662036Y-10317920D02*
X13683604Y-10317920D01*
X14067940Y-9621520D02*
G75*
G03*
X14067940Y-9621520I-70000J0D01*
G01*
X12292896Y-9001860D02*
X12323624Y-9001860D01*
X12292896Y-9077860D02*
X12323624Y-9077860D01*
X14525784Y-9046000D02*
X14504216Y-9046000D01*
X14525784Y-8974000D02*
X14504216Y-8974000D01*
X14371220Y-10553576D02*
X14371220Y-10584304D01*
X14295220Y-10553576D02*
X14295220Y-10584304D01*
X14772200Y-9639924D02*
X14772200Y-9618356D01*
X14844200Y-9639924D02*
X14844200Y-9618356D01*
X13452280Y-10211376D02*
X13452280Y-10232944D01*
X13380280Y-10211376D02*
X13380280Y-10232944D01*
X13517440Y-9274164D02*
X13517440Y-9252596D01*
X13589440Y-9274164D02*
X13589440Y-9252596D01*
X11920636Y-9562000D02*
X11951364Y-9562000D01*
X11920636Y-9638000D02*
X11951364Y-9638000D01*
X11837880Y-9306560D02*
X11837880Y-9474060D01*
X11837880Y-9306560D02*
X11837880Y-9241560D01*
X12149880Y-9306560D02*
X12149880Y-9371560D01*
X12149880Y-9306560D02*
X12149880Y-9241560D01*
X13958780Y-10673080D02*
X13958780Y-10853080D01*
X13958780Y-10673080D02*
X13958780Y-10593080D01*
X14270780Y-10673080D02*
X14270780Y-10753080D01*
X14270780Y-10673080D02*
X14270780Y-10593080D01*
X12850484Y-10223940D02*
X12828916Y-10223940D01*
X12850484Y-10151940D02*
X12828916Y-10151940D01*
X14626000Y-9213875D02*
X14626000Y-9266125D01*
X14404000Y-9213875D02*
X14404000Y-9266125D01*
X15153726Y-9322250D02*
X15106274Y-9322250D01*
X15153726Y-9217750D02*
X15106274Y-9217750D01*
X12624240Y-9443096D02*
X12624240Y-9464664D01*
X12552240Y-9443096D02*
X12552240Y-9464664D01*
X14340000Y-9020000D02*
G75*
G03*
X14340000Y-9020000I-70000J0D01*
G01*
X12275060Y-9605080D02*
X12275060Y-9555080D01*
X12511060Y-9605080D02*
X12511060Y-9555080D01*
X14790942Y-8949000D02*
X14819058Y-8949000D01*
X14790942Y-9051000D02*
X14819058Y-9051000D01*
X14780942Y-9409000D02*
X14809058Y-9409000D01*
X14780942Y-9511000D02*
X14809058Y-9511000D01*
X14698880Y-10215756D02*
X14698880Y-10246484D01*
X14622880Y-10215756D02*
X14622880Y-10246484D01*
X13860904Y-10670440D02*
X13830176Y-10670440D01*
X13860904Y-10594440D02*
X13830176Y-10594440D01*
X12696278Y-9669980D02*
X12668162Y-9669980D01*
X12696278Y-9567980D02*
X12668162Y-9567980D01*
X13277380Y-9197640D02*
X13277380Y-9317640D01*
X13377380Y-9187640D02*
X13397380Y-9187640D01*
X13377380Y-9327640D02*
X13397380Y-9327640D01*
X13745856Y-9830560D02*
X13767424Y-9830560D01*
X13745856Y-9902560D02*
X13767424Y-9902560D01*
X14520000Y-10539216D02*
X14520000Y-10560784D01*
X14448000Y-10539216D02*
X14448000Y-10560784D01*
X13199260Y-10756900D02*
G75*
G03*
X13199260Y-10756900I-70000J0D01*
G01*
X15153726Y-9472250D02*
X15106274Y-9472250D01*
X15153726Y-9367750D02*
X15106274Y-9367750D01*
X14202560Y-9517380D02*
G75*
G03*
X14202560Y-9517380I-70000J0D01*
G01*
D11*
X14442500Y-10020000D02*
X14442500Y-9780000D01*
D10*
X13546260Y-10212716D02*
X13546260Y-10234284D01*
X13474260Y-10212716D02*
X13474260Y-10234284D01*
X14265000Y-9375000D02*
G75*
G03*
X14265000Y-9375000I-70000J0D01*
G01*
X13611420Y-9274164D02*
X13611420Y-9252596D01*
X13683420Y-9274164D02*
X13683420Y-9252596D01*
X15350000Y-9699000D02*
X15150000Y-9699000D01*
X15350000Y-9699000D02*
X15350000Y-10085000D01*
X15150000Y-9699000D02*
X15150000Y-10085000D01*
X12125636Y-9564000D02*
X12156364Y-9564000D01*
X12125636Y-9640000D02*
X12156364Y-9640000D01*
X14045080Y-9017000D02*
G75*
G03*
X14045080Y-9017000I-70000J0D01*
G01*
X13709140Y-9274164D02*
X13709140Y-9252596D01*
X13781140Y-9274164D02*
X13781140Y-9252596D01*
X12947224Y-9077860D02*
X12916496Y-9077860D01*
X12947224Y-9001860D02*
X12916496Y-9001860D01*
D12*
X14905000Y-9390000D02*
X14705000Y-9390000D01*
X14905000Y-9090000D02*
X14705000Y-9090000D01*
D11*
X14990000Y-9365000D02*
G75*
G03*
X14990000Y-9365000I-10000J0D01*
G01*
D10*
X13856324Y-10571000D02*
X13834756Y-10571000D01*
X13856324Y-10499000D02*
X13834756Y-10499000D01*
X12265000Y-9785000D02*
X12555000Y-9785000D01*
X12265000Y-9845000D02*
X12265000Y-9785000D01*
X12265000Y-10015000D02*
X12555000Y-10015000D01*
X13226220Y-10225416D02*
X13226220Y-10246984D01*
X13154220Y-10225416D02*
X13154220Y-10246984D01*
X12792860Y-10774680D02*
G75*
G03*
X12792860Y-10774680I-70000J0D01*
G01*
X15065364Y-9929300D02*
X15043796Y-9929300D01*
X15065364Y-9857300D02*
X15043796Y-9857300D01*
X12170000Y-10100000D02*
X11770000Y-10100000D01*
X11670000Y-10000000D02*
X11670000Y-9700000D01*
X11670000Y-9700000D02*
X12170000Y-9700000D01*
X12170000Y-9700000D02*
X12170000Y-10100000D01*
X14064636Y-10372000D02*
X14095364Y-10372000D01*
X14064636Y-10448000D02*
X14095364Y-10448000D01*
X12618240Y-10165700D02*
X12018240Y-10165700D01*
X12318240Y-10687700D02*
X12018240Y-10687700D01*
X12993520Y-10772140D02*
G75*
G03*
X12993520Y-10772140I-70000J0D01*
G01*
X13367500Y-9063976D02*
X13367500Y-9085544D01*
X13295500Y-9063976D02*
X13295500Y-9085544D01*
X13278200Y-10698560D02*
X13347700Y-10698560D01*
X13278200Y-10767060D02*
X13278200Y-10698560D01*
X13278200Y-10835560D02*
X13278200Y-10823060D01*
X13278200Y-10835560D02*
X13286872Y-10835560D01*
X13278200Y-10835560D02*
X13417200Y-10835560D01*
X13408528Y-10835560D02*
X13417200Y-10835560D01*
X13417200Y-10835560D02*
X13417200Y-10823060D01*
X13859904Y-10768000D02*
X13829176Y-10768000D01*
X13859904Y-10692000D02*
X13829176Y-10692000D01*
X14371220Y-10751636D02*
X14371220Y-10782364D01*
X14295220Y-10751636D02*
X14295220Y-10782364D01*
X13640790Y-9384310D02*
X13640790Y-9440310D01*
X12918790Y-9384310D02*
X12974790Y-9384310D01*
X12918790Y-9384310D02*
X12918790Y-9440310D01*
X13640790Y-10106310D02*
X13640790Y-10050310D01*
X13640790Y-10106310D02*
X13584790Y-10106310D01*
X12918790Y-10106310D02*
X12918790Y-10050310D01*
X12918790Y-10106310D02*
X12974790Y-10106310D01*
X12738024Y-9077860D02*
X12707296Y-9077860D01*
X12738024Y-9001860D02*
X12707296Y-9001860D01*
X11745784Y-9636000D02*
X11724216Y-9636000D01*
X11745784Y-9564000D02*
X11724216Y-9564000D01*
X14641020Y-9916000D02*
X14641020Y-10116000D01*
X14953020Y-10046000D02*
X14953020Y-9916000D01*
M02*
