G04 #@! TF.GenerationSoftware,KiCad,Pcbnew,7.0.7*
G04 #@! TF.CreationDate,2024-03-13T12:15:20+01:00*
G04 #@! TF.ProjectId,dictofun,64696374-6f66-4756-9e2e-6b696361645f,rev?*
G04 #@! TF.SameCoordinates,Original*
G04 #@! TF.FileFunction,Copper,L4,Bot*
G04 #@! TF.FilePolarity,Positive*
%FSLAX45Y45*%
G04 Gerber Fmt 4.5, Leading zero omitted, Abs format (unit mm)*
G04 Created by KiCad (PCBNEW 7.0.7) date 2024-03-13 12:15:20*
%MOMM*%
%LPD*%
G01*
G04 APERTURE LIST*
G04 #@! TA.AperFunction,ComponentPad*
%ADD10C,0.500000*%
G04 #@! TD*
G04 #@! TA.AperFunction,SMDPad,CuDef*
%ADD11C,1.000000*%
G04 #@! TD*
G04 #@! TA.AperFunction,ComponentPad*
%ADD12R,0.850000X0.850000*%
G04 #@! TD*
G04 #@! TA.AperFunction,SMDPad,CuDef*
%ADD13R,1.350000X0.400000*%
G04 #@! TD*
G04 #@! TA.AperFunction,ComponentPad*
%ADD14O,1.900000X1.200000*%
G04 #@! TD*
G04 #@! TA.AperFunction,SMDPad,CuDef*
%ADD15R,1.900000X1.200000*%
G04 #@! TD*
G04 #@! TA.AperFunction,ComponentPad*
%ADD16C,1.450000*%
G04 #@! TD*
G04 #@! TA.AperFunction,SMDPad,CuDef*
%ADD17R,1.900000X1.500000*%
G04 #@! TD*
G04 #@! TA.AperFunction,SMDPad,CuDef*
%ADD18R,0.600000X1.550000*%
G04 #@! TD*
G04 #@! TA.AperFunction,SMDPad,CuDef*
%ADD19R,1.200000X1.800000*%
G04 #@! TD*
G04 #@! TA.AperFunction,SMDPad,CuDef*
%ADD20R,1.550000X0.600000*%
G04 #@! TD*
G04 #@! TA.AperFunction,SMDPad,CuDef*
%ADD21R,1.800000X1.200000*%
G04 #@! TD*
G04 #@! TA.AperFunction,ViaPad*
%ADD22C,0.300000*%
G04 #@! TD*
G04 #@! TA.AperFunction,ViaPad*
%ADD23C,0.600000*%
G04 #@! TD*
G04 #@! TA.AperFunction,Conductor*
%ADD24C,0.127000*%
G04 #@! TD*
G04 #@! TA.AperFunction,Conductor*
%ADD25C,0.254000*%
G04 #@! TD*
G04 APERTURE END LIST*
D10*
X14806500Y-10581500D03*
X14901500Y-10581500D03*
X14806500Y-10486500D03*
X14901500Y-10486500D03*
D11*
X13096240Y-10764520D03*
X13975080Y-9017000D03*
X14069060Y-10614660D03*
X12885420Y-10601960D03*
X14013180Y-10416540D03*
X11920220Y-10007600D03*
X14290040Y-9474200D03*
X12435840Y-9260840D03*
X15255240Y-10553700D03*
X15224760Y-9192260D03*
X13070840Y-10525760D03*
X12570460Y-10728960D03*
X11915140Y-9740900D03*
X12877800Y-9286240D03*
X14272260Y-10599420D03*
X11866880Y-9433560D03*
X13162280Y-8973820D03*
D12*
X13347700Y-10767060D03*
D11*
X14003020Y-9964420D03*
X13759180Y-9077960D03*
X14658340Y-10805160D03*
D13*
X15080000Y-9770000D03*
X15080000Y-9835000D03*
X15080000Y-9900000D03*
X15080000Y-9965000D03*
X15080000Y-10030000D03*
D14*
X15350000Y-9550000D03*
D15*
X15350000Y-9610000D03*
D16*
X15080000Y-9650000D03*
D17*
X15350000Y-9800000D03*
X15350000Y-10000000D03*
D16*
X15080000Y-10150000D03*
D15*
X15350000Y-10190000D03*
D14*
X15350000Y-10250000D03*
D18*
X14700000Y-9537500D03*
X14800000Y-9537500D03*
X14900000Y-9537500D03*
D19*
X14570000Y-9150000D03*
X15030000Y-9150000D03*
D20*
X15007500Y-10460000D03*
X15007500Y-10360000D03*
D21*
X14620000Y-10590000D03*
X14620000Y-10230000D03*
D22*
X13464540Y-10271760D03*
X15199360Y-9517380D03*
X12969240Y-10149840D03*
X15341600Y-10477500D03*
X15306040Y-10353040D03*
X15199360Y-10246360D03*
D23*
X13388340Y-9839960D03*
X13281660Y-9834880D03*
X13174980Y-9832340D03*
X13279120Y-9740900D03*
X13177520Y-9738360D03*
X13281660Y-9634220D03*
X13385800Y-9748520D03*
X13385800Y-9634220D03*
X13177520Y-9636760D03*
D22*
X13870940Y-8989060D03*
X15397480Y-10358120D03*
X13784580Y-9141460D03*
X14284960Y-9466580D03*
X14150340Y-10012680D03*
X14005560Y-9964420D03*
X14571980Y-10833100D03*
X14264640Y-10619740D03*
X13896340Y-10680700D03*
X13108940Y-10350500D03*
X11988800Y-10457180D03*
X12999720Y-9999980D03*
X12570460Y-10728960D03*
X12740640Y-10769600D03*
X12943840Y-10767060D03*
X13093700Y-10772140D03*
X12989560Y-10447020D03*
X13058140Y-10406380D03*
X14678660Y-10345420D03*
X14018260Y-9507220D03*
X13967460Y-9507220D03*
X13924280Y-9535160D03*
X13881100Y-9578340D03*
X13997940Y-9621520D03*
X14132560Y-9519920D03*
X14196060Y-9375140D03*
X14010640Y-9408160D03*
X13263880Y-9171940D03*
X13202920Y-9110980D03*
X13934440Y-9758680D03*
X13728700Y-10652760D03*
X12509500Y-9380220D03*
X12669520Y-9512300D03*
X12425680Y-10253980D03*
X11805920Y-9512300D03*
X15125700Y-9537700D03*
X14371320Y-10454640D03*
X14239240Y-10431780D03*
D23*
X14315440Y-9131300D03*
X14132560Y-9237980D03*
D22*
X14678660Y-9077960D03*
X14610080Y-9011920D03*
X14727500Y-9000000D03*
X12448540Y-8956040D03*
X12585700Y-8976360D03*
X12646660Y-9189720D03*
X12148820Y-9512300D03*
X13055600Y-8989060D03*
X12809220Y-9489440D03*
X14406880Y-9560560D03*
X14726920Y-9944100D03*
X14467840Y-10104120D03*
X14131000Y-10345420D03*
X13764260Y-10363200D03*
X13876020Y-9961880D03*
X14978380Y-9585960D03*
X15255240Y-9900920D03*
X14978380Y-10068560D03*
X14907260Y-9728200D03*
X14645640Y-9550400D03*
X14831060Y-9382760D03*
X14386560Y-9019540D03*
X15118080Y-9281160D03*
X14958060Y-9268460D03*
X15026640Y-9017000D03*
X14884400Y-9077960D03*
X14810740Y-9240520D03*
X14559280Y-9484360D03*
X14424660Y-10576560D03*
X14592580Y-10368000D03*
X14551660Y-10447020D03*
X14653260Y-10419080D03*
X14828520Y-10774680D03*
X15041880Y-10657840D03*
X14993620Y-10363200D03*
X15176500Y-10358120D03*
X15077440Y-10535920D03*
X14762480Y-10289540D03*
X14869160Y-10297160D03*
X15118080Y-9352280D03*
X14269720Y-10820400D03*
X13957300Y-10535920D03*
X13733780Y-10807700D03*
X14762480Y-10172700D03*
X14927580Y-9796780D03*
X14919960Y-10020300D03*
X14904720Y-9941560D03*
X11783060Y-10121900D03*
X12204700Y-9900920D03*
X12435840Y-9728200D03*
X12247880Y-9753600D03*
X12512040Y-9451340D03*
X12336780Y-9446260D03*
X12407900Y-9441180D03*
X12727940Y-9997440D03*
X12659360Y-9949180D03*
X12793980Y-10048240D03*
X12687300Y-9705340D03*
X12745720Y-9766300D03*
X12606020Y-9715500D03*
X12021820Y-9883140D03*
X12169140Y-9702800D03*
X11948160Y-9555480D03*
X11699240Y-9456420D03*
X13210540Y-10380980D03*
X13185140Y-10632440D03*
X12877800Y-10114280D03*
X13119100Y-9055100D03*
X13045440Y-9105900D03*
X12984480Y-9151620D03*
X12867640Y-10294620D03*
X12108180Y-9227820D03*
X12827000Y-9037320D03*
X12326620Y-9370060D03*
X12329160Y-9100820D03*
X12204700Y-9085580D03*
X12743180Y-10154920D03*
X12931140Y-9202420D03*
X13388580Y-8973160D03*
X13563600Y-10810240D03*
X11836400Y-10195560D03*
X13646080Y-9116060D03*
X12666980Y-10236200D03*
X11976100Y-10360660D03*
X13276580Y-10025300D03*
X11973560Y-10236200D03*
X12814300Y-10368280D03*
X12893040Y-9474200D03*
X12893040Y-9598660D03*
X12999720Y-10213340D03*
X12847320Y-9652000D03*
X12910820Y-9822180D03*
X13314680Y-10289540D03*
X13261340Y-10241280D03*
X13454380Y-10121900D03*
X13789660Y-9334500D03*
X13837920Y-9507220D03*
X13042900Y-9222740D03*
X11833860Y-10424160D03*
X13731240Y-10033000D03*
X13634720Y-9377680D03*
X12822204Y-9789160D03*
D24*
X14370230Y-10758350D02*
X13521510Y-10758350D01*
X14447760Y-10683000D02*
X14371320Y-10759440D01*
X14371320Y-10759440D02*
X14370230Y-10758350D01*
X12319320Y-10845800D02*
X12217720Y-10744200D01*
X13521510Y-10758350D02*
X13434060Y-10845800D01*
X14536420Y-10683000D02*
X14447760Y-10683000D01*
X12084108Y-10744200D02*
X11701780Y-10361872D01*
X11701780Y-9613900D02*
X11803380Y-9512300D01*
X13434060Y-10845800D02*
X12319320Y-10845800D01*
X12217720Y-10744200D02*
X12084108Y-10744200D01*
X11701780Y-10361872D02*
X11701780Y-9613900D01*
X13114020Y-9050020D02*
X12839700Y-9050020D01*
X13119100Y-9055100D02*
X13114020Y-9050020D01*
X12839700Y-9050020D02*
X12827000Y-9037320D01*
X12705080Y-9806940D02*
X12098020Y-9806940D01*
X12745720Y-9766300D02*
X12705080Y-9806940D01*
X12098020Y-9806940D02*
X12021820Y-9883140D01*
X14917420Y-9928860D02*
X14917420Y-9886350D01*
X14904720Y-9941560D02*
X14917420Y-9928860D01*
X13263880Y-9171940D02*
X13202680Y-9233140D01*
X13202680Y-9233140D02*
X13202680Y-9385060D01*
X13202680Y-9385060D02*
X13251180Y-9433560D01*
X13251180Y-9433560D02*
X13543280Y-9433560D01*
X13543280Y-9433560D02*
X13710920Y-9601200D01*
X13710920Y-9601200D02*
X13834168Y-9601200D01*
X13834168Y-9601200D02*
X13860658Y-9627690D01*
X13860658Y-9627690D02*
X13874570Y-9627690D01*
X13874570Y-9627690D02*
X14036040Y-9789160D01*
X13263880Y-9171940D02*
X13258800Y-9166860D01*
X15120620Y-10251440D02*
X15120620Y-10509309D01*
X15180490Y-9592490D02*
X15180490Y-10191570D01*
X15168880Y-10557569D02*
X15168880Y-10634980D01*
X14572220Y-10718800D02*
X14536420Y-10683000D01*
X15168880Y-10634980D02*
X15085060Y-10718800D01*
X15180490Y-10191570D02*
X15120620Y-10251440D01*
X15125700Y-9537700D02*
X15180490Y-9592490D01*
X15085060Y-10718800D02*
X14572220Y-10718800D01*
X15120620Y-10509309D02*
X15168880Y-10557569D01*
X13261340Y-10241280D02*
X13261340Y-10154920D01*
X13325930Y-10090330D02*
X13325930Y-9999859D01*
X13218160Y-10008929D02*
X13218160Y-10078720D01*
X13261340Y-10154920D02*
X13325930Y-10090330D01*
X13325930Y-9999859D02*
X13297021Y-9970950D01*
X13297021Y-9970950D02*
X13256138Y-9970950D01*
X13256138Y-9970950D02*
X13218160Y-10008929D01*
X13218160Y-10078720D02*
X13002260Y-10294620D01*
X13002260Y-10294620D02*
X12867640Y-10294620D01*
X12946380Y-10053320D02*
X12867640Y-10053320D01*
X12632391Y-10340580D02*
X12149060Y-10340580D01*
X11907520Y-10378440D02*
X11986260Y-10457180D01*
X12867640Y-10053320D02*
X12792530Y-10128430D01*
X12792530Y-10128430D02*
X12792530Y-10180442D01*
X11995330Y-10186850D02*
X11949250Y-10186850D01*
X12999720Y-9999980D02*
X12946380Y-10053320D01*
X12792530Y-10180442D02*
X12632391Y-10340580D01*
X12149060Y-10340580D02*
X11995330Y-10186850D01*
X11949250Y-10186850D02*
X11907520Y-10228580D01*
X11907520Y-10228580D02*
X11907520Y-10378440D01*
X15041880Y-10657840D02*
X15031720Y-10655300D01*
X14807680Y-10655300D02*
X14755150Y-10602770D01*
X14755150Y-10426410D02*
X14811830Y-10369730D01*
X14755150Y-10602770D02*
X14755150Y-10426410D01*
X14811830Y-10029010D02*
X14726920Y-9944100D01*
X14811830Y-10369730D02*
X14811830Y-10029010D01*
X15031720Y-10655300D02*
X14807680Y-10655300D01*
X13162280Y-8973820D02*
X13088620Y-9047480D01*
X14036040Y-9789160D02*
X13997940Y-9751060D01*
X13997940Y-9751060D02*
X13997940Y-9621520D01*
X14038580Y-9789160D02*
X14036040Y-9789160D01*
D25*
X14990420Y-10360000D02*
X14993620Y-10363200D01*
X14869160Y-10297160D02*
X14932000Y-10360000D01*
X14932000Y-10360000D02*
X14990420Y-10360000D01*
D24*
X15397480Y-10358120D02*
X15346680Y-10408920D01*
X15346680Y-10408920D02*
X15255240Y-10408920D01*
X15255240Y-10408920D02*
X15255240Y-10553700D01*
D25*
X15016940Y-10030000D02*
X14978380Y-10068560D01*
X15016940Y-10030000D02*
X15080000Y-10030000D01*
D24*
X13845540Y-8963660D02*
X13474700Y-8963660D01*
X13415850Y-9022510D02*
X13365050Y-9022510D01*
X12941906Y-9331354D02*
X12806680Y-9466580D01*
X13474700Y-8963660D02*
X13415850Y-9022510D01*
X13365050Y-9022510D02*
X13325930Y-9061630D01*
X13325930Y-9061630D02*
X13182478Y-9061630D01*
X13182478Y-9061630D02*
X13140026Y-9104083D01*
X13140026Y-9104083D02*
X13140026Y-9331354D01*
X13140026Y-9331354D02*
X12941906Y-9331354D01*
X12806680Y-9466580D02*
X12809220Y-9489440D01*
X13972540Y-8963660D02*
X13845540Y-8963660D01*
X13853160Y-8971280D02*
X13870940Y-8989060D01*
X13853160Y-8971280D02*
X13845540Y-8963660D01*
X13784580Y-9141460D02*
X13782040Y-9138920D01*
X13759180Y-9116060D02*
X13784580Y-9141460D01*
X13759180Y-9077960D02*
X13759180Y-9116060D01*
X15224760Y-9192260D02*
X15224760Y-9152060D01*
X15224760Y-9152060D02*
X15089700Y-9017000D01*
X15089700Y-9017000D02*
X15026640Y-9017000D01*
X14013180Y-10416540D02*
X14084300Y-10345420D01*
X14084300Y-10345420D02*
X14131000Y-10345420D01*
X14569440Y-10833100D02*
X14571980Y-10830560D01*
X14571980Y-10833100D02*
X14569440Y-10833100D01*
X14571980Y-10830560D02*
X14571980Y-10833100D01*
X14597380Y-10805160D02*
X14571980Y-10830560D01*
X14658340Y-10805160D02*
X14597380Y-10805160D01*
X14069060Y-10614660D02*
X13962380Y-10614660D01*
X13962380Y-10614660D02*
X13896340Y-10680700D01*
X11988800Y-10459720D02*
X11986260Y-10457180D01*
X11988800Y-10457180D02*
X11988800Y-10459720D01*
X11986260Y-10457180D02*
X11988800Y-10457180D01*
X11920220Y-10007600D02*
X11920220Y-9933940D01*
X11971020Y-9883140D02*
X12021820Y-9883140D01*
X11920220Y-9933940D02*
X11971020Y-9883140D01*
X11915140Y-9740900D02*
X12131040Y-9740900D01*
X12131040Y-9740900D02*
X12169140Y-9702800D01*
X11866880Y-9433560D02*
X11866880Y-9451340D01*
X11866880Y-9451340D02*
X11805920Y-9512300D01*
X12943840Y-10767060D02*
X13009880Y-10701020D01*
X13009880Y-10701020D02*
X13009880Y-10586720D01*
X13009880Y-10586720D02*
X13070840Y-10525760D01*
X12885420Y-10601960D02*
X12740640Y-10746740D01*
X12740640Y-10746740D02*
X12740640Y-10769600D01*
X12989560Y-10447020D02*
X12987020Y-10447020D01*
X12966700Y-10447020D02*
X12989560Y-10447020D01*
X12898120Y-10515600D02*
X12966700Y-10447020D01*
X12885420Y-10601960D02*
X12885420Y-10528300D01*
X12885420Y-10528300D02*
X12898120Y-10515600D01*
X13058140Y-10403840D02*
X13058140Y-10403840D01*
X13058140Y-10406380D02*
X13058140Y-10403840D01*
X13060680Y-10406380D02*
X13058140Y-10406380D01*
X13070840Y-10416540D02*
X13060680Y-10406380D01*
X13070840Y-10525760D02*
X13070840Y-10416540D01*
X12877800Y-9286240D02*
X13050520Y-9286240D01*
X13050520Y-9286240D02*
X13093700Y-9243060D01*
X13093700Y-9243060D02*
X13093700Y-9156700D01*
X13093700Y-9156700D02*
X13045440Y-9108440D01*
X13045440Y-9108440D02*
X13045440Y-9105900D01*
X14406880Y-9560560D02*
X14406880Y-9398000D01*
X14406880Y-9398000D02*
X13972540Y-8963660D01*
X12363450Y-9196070D02*
X12431000Y-9128520D01*
X12326620Y-9232900D02*
X12363450Y-9196070D01*
X12363450Y-9196070D02*
X12371070Y-9196070D01*
X12371070Y-9196070D02*
X12435840Y-9260840D01*
X14124940Y-9789160D02*
X14038580Y-9789160D01*
X14132560Y-9519920D02*
X14130020Y-9517380D01*
X14135100Y-9522460D02*
X14132560Y-9519920D01*
X14135100Y-9649460D02*
X14135100Y-9522460D01*
X14135100Y-9695180D02*
X14135100Y-9649460D01*
X14559280Y-9753600D02*
X14193520Y-9753600D01*
X14193520Y-9753600D02*
X14135100Y-9695180D01*
X14900000Y-9537500D02*
X14900000Y-9472020D01*
X14610080Y-9489440D02*
X14610080Y-9516169D01*
X14860450Y-9432110D02*
X14667410Y-9432110D01*
X14596290Y-9716590D02*
X14559280Y-9753600D01*
X14900000Y-9472020D02*
X14860450Y-9432470D01*
X14860450Y-9432470D02*
X14860450Y-9432110D01*
X14667410Y-9432110D02*
X14610080Y-9489440D01*
X14610080Y-9516169D02*
X14596290Y-9529959D01*
X14596290Y-9529959D02*
X14596290Y-9716590D01*
X14729460Y-9789160D02*
X14124940Y-9789160D01*
X13202920Y-9118600D02*
X13202920Y-9110980D01*
X13185140Y-9136380D02*
X13202920Y-9118600D01*
X14800000Y-9537500D02*
X14800000Y-9718620D01*
X14800000Y-9718620D02*
X14729460Y-9789160D01*
X13174980Y-9319260D02*
X13174980Y-9146540D01*
X13517880Y-9469120D02*
X13246100Y-9469120D01*
X13723620Y-9674860D02*
X13517880Y-9469120D01*
X13246100Y-9469120D02*
X13174980Y-9398000D01*
X13174980Y-9146540D02*
X13185140Y-9136380D01*
X13174980Y-9398000D02*
X13174980Y-9319260D01*
X13868400Y-9819640D02*
X13723620Y-9674860D01*
X14900000Y-9661800D02*
X14831060Y-9730740D01*
X14831060Y-9730740D02*
X14742160Y-9819640D01*
X14444980Y-9819640D02*
X13868400Y-9819640D01*
X14742160Y-9819640D02*
X14444980Y-9819640D01*
X14900000Y-9537500D02*
X14900000Y-9661800D01*
X14131000Y-10345420D02*
X14374840Y-10101580D01*
X14374840Y-10101580D02*
X14467840Y-10101580D01*
X11805920Y-9509760D02*
X11803380Y-9512300D01*
X11805920Y-9512300D02*
X11805920Y-9509760D01*
X11803380Y-9512300D02*
X11805920Y-9512300D01*
X14520300Y-10683000D02*
X14536420Y-10683000D01*
X14498320Y-10661020D02*
X14520300Y-10683000D01*
D25*
X15255240Y-9972040D02*
X15283200Y-10000000D01*
X15255240Y-9900920D02*
X15255240Y-9972040D01*
X15283200Y-10000000D02*
X15350000Y-10000000D01*
X15255240Y-9900920D02*
X15255240Y-9894760D01*
X15255240Y-9894760D02*
X15350000Y-9800000D01*
D24*
X14406880Y-10454640D02*
X14498320Y-10546080D01*
X14498320Y-10546080D02*
X14498320Y-10661020D01*
X14371320Y-10454640D02*
X14406880Y-10454640D01*
X12809220Y-9489440D02*
X12806680Y-9489440D01*
X14724380Y-9944100D02*
X14724380Y-9944100D01*
X14726920Y-9944100D02*
X14724380Y-9944100D01*
D25*
X15350000Y-9800000D02*
X15350000Y-10000000D01*
X15350000Y-9800000D02*
X15350000Y-9610000D01*
X15350000Y-10000000D02*
X15350000Y-10190000D01*
X14937772Y-9728200D02*
X14907260Y-9728200D01*
X14979572Y-9770000D02*
X14937772Y-9728200D01*
X15080000Y-9770000D02*
X14979572Y-9770000D01*
X14645640Y-9550400D02*
X14687100Y-9550400D01*
X14687100Y-9550400D02*
X14700000Y-9537500D01*
X14996820Y-10360000D02*
X14993620Y-10363200D01*
X14901500Y-10486500D02*
X14981000Y-10486500D01*
X14981000Y-10486500D02*
X15007500Y-10460000D01*
X15007500Y-10360000D02*
X14996820Y-10360000D01*
D24*
X14914880Y-9848650D02*
X14914880Y-9809480D01*
X14914880Y-9809480D02*
X14927580Y-9796780D01*
X13827548Y-9848650D02*
X14914880Y-9848650D01*
X14914880Y-9848650D02*
X14965100Y-9848650D01*
X13811932Y-9886350D02*
X14917420Y-9886350D01*
X14917420Y-9886350D02*
X14965100Y-9886350D01*
X12936420Y-9555280D02*
X13480862Y-9555280D01*
X12893040Y-9474200D02*
X12936420Y-9517580D01*
X12893040Y-9598660D02*
X12936420Y-9555280D01*
X14965100Y-9886350D02*
X14978750Y-9900000D01*
X14965100Y-9848650D02*
X14978750Y-9835000D01*
X12936420Y-9517580D02*
X13496478Y-9517580D01*
X13480862Y-9555280D02*
X13811932Y-9886350D01*
X13496478Y-9517580D02*
X13827548Y-9848650D01*
X14978750Y-9900000D02*
X15080000Y-9900000D01*
X14978750Y-9835000D02*
X15080000Y-9835000D01*
X12169140Y-9702800D02*
X12255500Y-9616440D01*
X12255500Y-9616440D02*
X12420600Y-9616440D01*
X12420600Y-9616440D02*
X12569010Y-9764850D01*
X12569010Y-9764850D02*
X12627790Y-9764850D01*
X12627790Y-9764850D02*
X12687300Y-9705340D01*
X12108180Y-9227820D02*
X12108180Y-9112309D01*
X12184258Y-9036230D02*
X12241710Y-9036230D01*
X12108180Y-9112309D02*
X12184258Y-9036230D01*
X12241710Y-9036230D02*
X12242800Y-9037320D01*
X12242800Y-9037320D02*
X12827000Y-9037320D01*
X13276580Y-10020300D02*
X13276580Y-10063480D01*
X13276580Y-10063480D02*
X12905740Y-10434320D01*
X12905740Y-10434320D02*
X12057380Y-10434320D01*
X12057380Y-10434320D02*
X11983720Y-10360660D01*
X11983720Y-10360660D02*
X11976100Y-10360660D01*
X12326620Y-9370060D02*
X12326620Y-9232900D01*
X12431000Y-9128520D02*
X12961380Y-9128520D01*
X12961380Y-9128520D02*
X12984480Y-9151620D01*
X12329160Y-9100820D02*
X13040360Y-9100820D01*
X13040360Y-9100820D02*
X13045440Y-9105900D01*
X11976100Y-10353040D02*
X11981180Y-10358120D01*
X11976100Y-10360660D02*
X11976100Y-10353040D01*
X11973560Y-10236200D02*
X12105640Y-10368280D01*
X12105640Y-10368280D02*
X12814300Y-10368280D01*
G04 #@! TA.AperFunction,Conductor*
G36*
X14518898Y-10709638D02*
G01*
X14520300Y-10709917D01*
X14520300Y-10709917D01*
X14520300Y-10709917D01*
X14520866Y-10709917D01*
X14527570Y-10711886D01*
X14529634Y-10713549D01*
X14550850Y-10734765D01*
X14552392Y-10736644D01*
X14553187Y-10737833D01*
X14553187Y-10737833D01*
X14561919Y-10743668D01*
X14561920Y-10743668D01*
X14562297Y-10743825D01*
X14567737Y-10748209D01*
X14569944Y-10754838D01*
X14568488Y-10761126D01*
X14565505Y-10766706D01*
X14559787Y-10785557D01*
X14557856Y-10805160D01*
X14559787Y-10824763D01*
X14565505Y-10843614D01*
X14569830Y-10851705D01*
X14571254Y-10858545D01*
X14568754Y-10865069D01*
X14563123Y-10869206D01*
X14558894Y-10869950D01*
X13477181Y-10869950D01*
X13470477Y-10867982D01*
X13465902Y-10862701D01*
X13464907Y-10855785D01*
X13467810Y-10849430D01*
X13468413Y-10848782D01*
X13476949Y-10840246D01*
X13528813Y-10788382D01*
X13534946Y-10785033D01*
X13537581Y-10784750D01*
X14362018Y-10784750D01*
X14364437Y-10784988D01*
X14371320Y-10786357D01*
X14381621Y-10784308D01*
X14390353Y-10778473D01*
X14391148Y-10777284D01*
X14392689Y-10775406D01*
X14455063Y-10713032D01*
X14461196Y-10709683D01*
X14463831Y-10709400D01*
X14516479Y-10709400D01*
X14518898Y-10709638D01*
G37*
G04 #@! TD.AperFunction*
G04 #@! TA.AperFunction,Conductor*
G36*
X12143593Y-9022893D02*
G01*
X12146634Y-9029184D01*
X12145790Y-9036120D01*
X12143169Y-9039984D01*
X12092214Y-9090939D01*
X12090336Y-9092480D01*
X12089147Y-9093275D01*
X12086868Y-9096685D01*
X12086868Y-9096685D01*
X12083312Y-9102008D01*
X12082319Y-9106997D01*
X12081346Y-9111890D01*
X12081263Y-9112309D01*
X12081542Y-9113711D01*
X12081780Y-9116130D01*
X12081780Y-9199065D01*
X12079811Y-9205769D01*
X12079412Y-9206352D01*
X12079143Y-9206723D01*
X12074045Y-9216729D01*
X12072288Y-9227820D01*
X12072288Y-9227820D01*
X12074045Y-9238911D01*
X12079143Y-9248917D01*
X12087083Y-9256857D01*
X12097089Y-9261955D01*
X12108180Y-9263712D01*
X12108180Y-9263712D01*
X12108180Y-9263712D01*
X12119271Y-9261955D01*
X12119271Y-9261955D01*
X12119271Y-9261955D01*
X12129277Y-9256857D01*
X12137217Y-9248917D01*
X12142315Y-9238911D01*
X12142315Y-9238911D01*
X12142315Y-9238911D01*
X12144072Y-9227820D01*
X12144072Y-9227820D01*
X12142315Y-9216729D01*
X12137217Y-9206724D01*
X12136948Y-9206353D01*
X12134600Y-9199773D01*
X12134580Y-9199065D01*
X12134580Y-9128380D01*
X12136548Y-9121676D01*
X12138212Y-9119612D01*
X12146694Y-9111130D01*
X12155319Y-9102504D01*
X12161452Y-9099156D01*
X12168421Y-9099654D01*
X12174014Y-9103841D01*
X12175136Y-9105643D01*
X12175662Y-9106676D01*
X12183603Y-9114617D01*
X12193609Y-9119715D01*
X12204700Y-9121472D01*
X12204700Y-9121472D01*
X12204700Y-9121472D01*
X12215791Y-9119715D01*
X12215791Y-9119715D01*
X12215791Y-9119715D01*
X12225797Y-9114617D01*
X12233737Y-9106677D01*
X12238835Y-9096671D01*
X12238835Y-9096671D01*
X12238835Y-9096671D01*
X12240592Y-9085580D01*
X12240592Y-9085580D01*
X12240548Y-9085305D01*
X12240307Y-9083780D01*
X12239401Y-9078060D01*
X12240296Y-9071130D01*
X12244796Y-9065785D01*
X12251471Y-9063721D01*
X12251648Y-9063720D01*
X12288042Y-9063720D01*
X12294746Y-9065689D01*
X12299321Y-9070969D01*
X12300316Y-9077885D01*
X12299090Y-9081749D01*
X12295025Y-9089729D01*
X12293268Y-9100820D01*
X12293268Y-9100820D01*
X12295025Y-9111911D01*
X12300123Y-9121917D01*
X12308063Y-9129857D01*
X12318069Y-9134955D01*
X12329160Y-9136712D01*
X12329160Y-9136712D01*
X12329160Y-9136712D01*
X12340251Y-9134955D01*
X12340251Y-9134955D01*
X12340251Y-9134955D01*
X12347425Y-9131300D01*
X12350256Y-9129858D01*
X12350256Y-9129857D01*
X12350257Y-9129857D01*
X12350257Y-9129857D01*
X12350627Y-9129588D01*
X12357207Y-9127240D01*
X12357915Y-9127220D01*
X12365029Y-9127220D01*
X12371732Y-9129189D01*
X12376308Y-9134469D01*
X12377302Y-9141385D01*
X12374400Y-9147740D01*
X12373799Y-9148386D01*
X12353561Y-9168623D01*
X12347484Y-9174700D01*
X12345606Y-9176242D01*
X12344417Y-9177037D01*
X12343622Y-9178226D01*
X12342080Y-9180105D01*
X12310654Y-9211530D01*
X12308776Y-9213072D01*
X12307587Y-9213867D01*
X12305308Y-9217276D01*
X12305308Y-9217277D01*
X12301752Y-9222599D01*
X12301751Y-9222599D01*
X12299703Y-9232900D01*
X12299703Y-9232900D01*
X12299703Y-9232900D01*
X12299803Y-9233406D01*
X12299982Y-9234302D01*
X12300220Y-9236721D01*
X12300220Y-9341305D01*
X12298251Y-9348008D01*
X12297852Y-9348593D01*
X12297583Y-9348963D01*
X12292485Y-9358969D01*
X12290728Y-9370060D01*
X12290728Y-9370060D01*
X12292485Y-9381151D01*
X12297583Y-9391157D01*
X12305523Y-9399097D01*
X12309054Y-9400896D01*
X12314134Y-9405694D01*
X12315813Y-9412476D01*
X12313560Y-9419089D01*
X12312193Y-9420713D01*
X12307743Y-9425163D01*
X12302645Y-9435169D01*
X12300888Y-9446260D01*
X12300888Y-9446260D01*
X12302645Y-9457351D01*
X12307743Y-9467357D01*
X12315683Y-9475297D01*
X12325689Y-9480395D01*
X12336780Y-9482152D01*
X12336780Y-9482152D01*
X12336780Y-9482152D01*
X12347871Y-9480395D01*
X12347871Y-9480395D01*
X12347871Y-9480395D01*
X12357877Y-9475297D01*
X12365817Y-9467357D01*
X12365817Y-9467357D01*
X12366112Y-9467062D01*
X12372244Y-9463714D01*
X12379213Y-9464212D01*
X12383648Y-9467062D01*
X12386803Y-9470217D01*
X12396809Y-9475315D01*
X12407900Y-9477072D01*
X12407900Y-9477072D01*
X12407900Y-9477072D01*
X12418991Y-9475315D01*
X12418991Y-9475315D01*
X12418991Y-9475315D01*
X12428997Y-9470217D01*
X12436937Y-9462277D01*
X12442035Y-9452271D01*
X12442035Y-9452271D01*
X12442035Y-9452271D01*
X12442183Y-9451340D01*
X12476148Y-9451340D01*
X12477905Y-9462431D01*
X12483003Y-9472437D01*
X12490943Y-9480377D01*
X12500949Y-9485475D01*
X12512040Y-9487232D01*
X12512040Y-9487232D01*
X12512040Y-9487232D01*
X12523131Y-9485475D01*
X12523131Y-9485475D01*
X12523131Y-9485475D01*
X12533137Y-9480377D01*
X12541077Y-9472437D01*
X12546175Y-9462431D01*
X12546175Y-9462431D01*
X12546175Y-9462431D01*
X12547932Y-9451340D01*
X12547932Y-9451340D01*
X12546175Y-9440249D01*
X12541077Y-9430243D01*
X12533136Y-9422303D01*
X12523131Y-9417205D01*
X12512040Y-9415448D01*
X12512040Y-9415448D01*
X12500949Y-9417205D01*
X12490943Y-9422303D01*
X12483003Y-9430243D01*
X12477905Y-9440249D01*
X12476148Y-9451340D01*
X12476148Y-9451340D01*
X12442183Y-9451340D01*
X12443792Y-9441180D01*
X12443792Y-9441180D01*
X12442035Y-9430089D01*
X12436937Y-9420083D01*
X12428996Y-9412143D01*
X12418991Y-9407045D01*
X12407900Y-9405288D01*
X12407900Y-9405288D01*
X12396809Y-9407045D01*
X12386803Y-9412143D01*
X12378568Y-9420378D01*
X12372436Y-9423727D01*
X12365467Y-9423228D01*
X12361032Y-9420378D01*
X12357876Y-9417222D01*
X12354345Y-9415423D01*
X12349266Y-9410626D01*
X12347586Y-9403844D01*
X12349840Y-9397230D01*
X12351206Y-9395607D01*
X12355657Y-9391157D01*
X12360755Y-9381151D01*
X12360755Y-9381151D01*
X12360755Y-9381151D01*
X12362512Y-9370060D01*
X12362512Y-9370060D01*
X12360755Y-9358969D01*
X12355657Y-9348964D01*
X12355657Y-9348963D01*
X12355657Y-9348963D01*
X12355389Y-9348594D01*
X12353040Y-9342014D01*
X12353020Y-9341308D01*
X12353020Y-9303961D01*
X12354988Y-9297257D01*
X12360269Y-9292682D01*
X12367185Y-9291687D01*
X12373540Y-9294590D01*
X12375625Y-9296917D01*
X12383022Y-9307633D01*
X12389535Y-9313403D01*
X12395755Y-9318914D01*
X12410817Y-9326819D01*
X12410817Y-9326819D01*
X12427334Y-9330890D01*
X12444346Y-9330890D01*
X12460862Y-9326819D01*
X12473009Y-9320444D01*
X12475925Y-9318914D01*
X12475925Y-9318913D01*
X12475925Y-9318913D01*
X12488658Y-9307633D01*
X12498322Y-9293633D01*
X12504354Y-9277727D01*
X12506404Y-9260840D01*
X12504354Y-9243953D01*
X12498322Y-9228047D01*
X12497765Y-9227240D01*
X12491909Y-9218757D01*
X12488658Y-9214047D01*
X12475925Y-9202767D01*
X12475925Y-9202766D01*
X12460863Y-9194861D01*
X12444346Y-9190790D01*
X12436001Y-9190790D01*
X12429297Y-9188822D01*
X12424722Y-9183541D01*
X12423728Y-9176625D01*
X12426630Y-9170270D01*
X12427233Y-9169622D01*
X12438303Y-9158552D01*
X12444436Y-9155203D01*
X12447071Y-9154920D01*
X12604370Y-9154920D01*
X12611074Y-9156889D01*
X12615649Y-9162169D01*
X12616644Y-9169085D01*
X12615419Y-9172949D01*
X12612525Y-9178629D01*
X12610768Y-9189720D01*
X12610768Y-9189720D01*
X12612525Y-9200811D01*
X12617623Y-9210817D01*
X12625563Y-9218757D01*
X12635569Y-9223855D01*
X12646660Y-9225612D01*
X12646660Y-9225612D01*
X12646660Y-9225612D01*
X12657751Y-9223855D01*
X12657751Y-9223855D01*
X12657751Y-9223855D01*
X12667757Y-9218757D01*
X12675697Y-9210817D01*
X12680795Y-9200811D01*
X12680795Y-9200811D01*
X12680795Y-9200811D01*
X12682552Y-9189720D01*
X12682552Y-9189720D01*
X12680795Y-9178629D01*
X12680795Y-9178629D01*
X12680795Y-9178629D01*
X12677901Y-9172949D01*
X12676612Y-9166082D01*
X12679240Y-9159608D01*
X12684950Y-9155583D01*
X12688950Y-9154920D01*
X12938804Y-9154920D01*
X12945508Y-9156889D01*
X12949831Y-9161878D01*
X12949902Y-9161842D01*
X12950047Y-9162127D01*
X12950084Y-9162169D01*
X12950132Y-9162295D01*
X12955443Y-9172717D01*
X12963383Y-9180657D01*
X12973389Y-9185755D01*
X12984480Y-9187512D01*
X12984480Y-9187512D01*
X12984480Y-9187512D01*
X12995571Y-9185755D01*
X12995571Y-9185755D01*
X12995571Y-9185755D01*
X12997207Y-9184922D01*
X13004074Y-9183632D01*
X13010548Y-9186260D01*
X13014574Y-9191970D01*
X13014873Y-9198951D01*
X13013885Y-9201599D01*
X13008765Y-9211649D01*
X13007008Y-9222740D01*
X13007008Y-9222740D01*
X13008765Y-9233831D01*
X13012830Y-9241811D01*
X13014120Y-9248678D01*
X13011492Y-9255152D01*
X13005782Y-9259177D01*
X13001782Y-9259840D01*
X12951133Y-9259840D01*
X12944429Y-9257872D01*
X12940852Y-9253965D01*
X12940708Y-9254064D01*
X12939129Y-9251777D01*
X12930618Y-9239447D01*
X12917885Y-9228167D01*
X12917885Y-9228166D01*
X12902823Y-9220261D01*
X12886306Y-9216190D01*
X12869294Y-9216190D01*
X12852777Y-9220261D01*
X12837715Y-9228166D01*
X12826638Y-9237980D01*
X12825587Y-9238911D01*
X12824982Y-9239447D01*
X12815318Y-9253447D01*
X12809286Y-9269353D01*
X12809286Y-9269353D01*
X12807852Y-9281160D01*
X12807235Y-9286240D01*
X12807564Y-9288948D01*
X12809286Y-9303127D01*
X12809286Y-9303127D01*
X12815318Y-9319033D01*
X12820692Y-9326819D01*
X12824982Y-9333033D01*
X12834864Y-9341788D01*
X12837715Y-9344314D01*
X12852777Y-9352219D01*
X12852777Y-9352219D01*
X12855378Y-9352860D01*
X12856243Y-9353073D01*
X12862281Y-9356589D01*
X12865460Y-9362811D01*
X12864770Y-9369764D01*
X12862044Y-9373881D01*
X12789001Y-9446923D01*
X12788610Y-9447282D01*
X12785661Y-9449765D01*
X12785661Y-9449765D01*
X12784075Y-9452823D01*
X12783726Y-9453414D01*
X12781812Y-9456279D01*
X12781563Y-9456880D01*
X12781008Y-9458462D01*
X12780826Y-9459089D01*
X12780531Y-9462522D01*
X12780435Y-9463201D01*
X12779525Y-9467778D01*
X12779388Y-9467750D01*
X12778411Y-9471820D01*
X12775085Y-9478349D01*
X12775085Y-9478349D01*
X12773328Y-9489440D01*
X12773328Y-9489440D01*
X12775085Y-9500531D01*
X12780183Y-9510537D01*
X12788123Y-9518477D01*
X12798129Y-9523575D01*
X12809220Y-9525332D01*
X12809220Y-9525332D01*
X12809220Y-9525332D01*
X12820311Y-9523575D01*
X12820311Y-9523575D01*
X12820311Y-9523575D01*
X12830317Y-9518477D01*
X12838257Y-9510537D01*
X12843355Y-9500531D01*
X12843355Y-9500530D01*
X12843449Y-9500241D01*
X12843660Y-9499933D01*
X12843798Y-9499662D01*
X12843833Y-9499680D01*
X12847393Y-9494473D01*
X12853829Y-9491754D01*
X12860714Y-9492945D01*
X12864011Y-9495305D01*
X12871943Y-9503237D01*
X12881948Y-9508335D01*
X12881949Y-9508335D01*
X12881949Y-9508335D01*
X12887346Y-9509190D01*
X12893659Y-9512183D01*
X12894174Y-9512669D01*
X12909167Y-9527662D01*
X12912515Y-9533794D01*
X12912017Y-9540763D01*
X12909167Y-9545198D01*
X12894174Y-9560191D01*
X12888042Y-9563539D01*
X12887346Y-9563670D01*
X12881949Y-9564525D01*
X12871943Y-9569623D01*
X12864003Y-9577563D01*
X12858905Y-9587569D01*
X12857158Y-9598596D01*
X12857148Y-9598660D01*
X12857420Y-9600375D01*
X12857664Y-9601915D01*
X12856768Y-9608845D01*
X12852268Y-9614190D01*
X12847356Y-9616102D01*
X12836229Y-9617865D01*
X12826223Y-9622963D01*
X12818283Y-9630903D01*
X12813185Y-9640909D01*
X12811428Y-9652000D01*
X12811428Y-9652000D01*
X12813185Y-9663091D01*
X12818283Y-9673097D01*
X12826223Y-9681037D01*
X12836229Y-9686135D01*
X12847320Y-9687892D01*
X12847320Y-9687892D01*
X12847320Y-9687892D01*
X12858411Y-9686135D01*
X12858411Y-9686135D01*
X12858411Y-9686135D01*
X12868417Y-9681037D01*
X12876357Y-9673097D01*
X12881455Y-9663091D01*
X12881455Y-9663091D01*
X12881455Y-9663091D01*
X12883212Y-9652000D01*
X12883212Y-9652000D01*
X12882696Y-9648745D01*
X12883592Y-9641816D01*
X12888091Y-9636470D01*
X12893004Y-9634558D01*
X12893040Y-9634552D01*
X12893040Y-9634552D01*
X12896065Y-9634073D01*
X12904131Y-9632795D01*
X12904131Y-9632795D01*
X12904131Y-9632795D01*
X12914137Y-9627697D01*
X12922077Y-9619757D01*
X12926830Y-9610429D01*
X12927175Y-9609751D01*
X12927175Y-9609751D01*
X12927175Y-9609751D01*
X12928030Y-9604354D01*
X12931023Y-9598041D01*
X12931505Y-9597530D01*
X12943723Y-9585312D01*
X12949856Y-9581964D01*
X12952491Y-9581680D01*
X13464791Y-9581680D01*
X13471495Y-9583649D01*
X13473559Y-9585312D01*
X13790562Y-9902315D01*
X13792104Y-9904194D01*
X13792899Y-9905383D01*
X13792899Y-9905383D01*
X13801631Y-9911218D01*
X13809332Y-9912750D01*
X13809332Y-9912750D01*
X13809929Y-9912869D01*
X13809929Y-9912869D01*
X13811932Y-9913267D01*
X13813334Y-9912988D01*
X13815753Y-9912750D01*
X13929942Y-9912750D01*
X13936646Y-9914719D01*
X13941221Y-9919999D01*
X13942216Y-9926915D01*
X13940674Y-9930851D01*
X13940887Y-9930963D01*
X13940538Y-9931627D01*
X13934506Y-9947533D01*
X13934506Y-9947533D01*
X13932455Y-9964420D01*
X13934506Y-9981307D01*
X13934506Y-9981307D01*
X13940538Y-9997213D01*
X13946767Y-10006238D01*
X13950202Y-10011213D01*
X13959220Y-10019203D01*
X13962935Y-10022494D01*
X13975351Y-10029010D01*
X13977997Y-10030399D01*
X13994514Y-10034470D01*
X14011526Y-10034470D01*
X14028042Y-10030399D01*
X14039306Y-10024487D01*
X14043105Y-10022494D01*
X14043105Y-10022493D01*
X14043105Y-10022493D01*
X14055838Y-10011213D01*
X14065502Y-9997213D01*
X14071534Y-9981307D01*
X14073584Y-9964420D01*
X14071534Y-9947533D01*
X14070835Y-9945689D01*
X14066379Y-9933940D01*
X14065502Y-9931627D01*
X14065502Y-9931627D01*
X14065153Y-9930963D01*
X14065437Y-9930813D01*
X14063705Y-9925555D01*
X14065453Y-9918791D01*
X14070581Y-9914045D01*
X14076098Y-9912750D01*
X14682872Y-9912750D01*
X14689576Y-9914719D01*
X14694152Y-9919999D01*
X14695146Y-9926915D01*
X14693921Y-9930779D01*
X14693827Y-9930963D01*
X14692785Y-9933009D01*
X14691028Y-9944100D01*
X14691028Y-9944100D01*
X14692785Y-9955191D01*
X14697883Y-9965197D01*
X14705823Y-9973137D01*
X14715828Y-9978235D01*
X14715829Y-9978235D01*
X14715829Y-9978235D01*
X14721226Y-9979090D01*
X14727539Y-9982083D01*
X14728054Y-9982569D01*
X14781798Y-10036313D01*
X14785147Y-10042446D01*
X14785430Y-10045081D01*
X14785430Y-10353659D01*
X14783461Y-10360362D01*
X14781798Y-10362427D01*
X14739184Y-10405040D01*
X14737306Y-10406582D01*
X14736117Y-10407377D01*
X14733838Y-10410786D01*
X14733838Y-10410787D01*
X14730282Y-10416109D01*
X14729470Y-10420191D01*
X14728260Y-10426272D01*
X14728233Y-10426410D01*
X14728512Y-10427812D01*
X14728750Y-10430231D01*
X14728750Y-10498177D01*
X14726781Y-10504881D01*
X14721501Y-10509457D01*
X14714585Y-10510451D01*
X14713931Y-10510339D01*
X14711975Y-10509950D01*
X14528025Y-10509950D01*
X14528025Y-10509950D01*
X14522177Y-10511113D01*
X14522177Y-10511113D01*
X14517757Y-10514067D01*
X14511089Y-10516154D01*
X14504351Y-10514306D01*
X14502100Y-10512525D01*
X14428250Y-10438675D01*
X14426708Y-10436796D01*
X14426470Y-10436441D01*
X14425913Y-10435607D01*
X14425841Y-10435558D01*
X14417181Y-10429772D01*
X14409480Y-10428240D01*
X14406880Y-10427723D01*
X14406880Y-10427723D01*
X14406431Y-10427812D01*
X14405478Y-10428002D01*
X14403059Y-10428240D01*
X14400075Y-10428240D01*
X14393372Y-10426272D01*
X14392787Y-10425872D01*
X14392416Y-10425602D01*
X14382411Y-10420505D01*
X14371320Y-10418748D01*
X14371320Y-10418748D01*
X14360229Y-10420505D01*
X14350223Y-10425603D01*
X14342283Y-10433543D01*
X14337185Y-10443549D01*
X14335428Y-10454640D01*
X14335428Y-10454640D01*
X14337185Y-10465731D01*
X14342283Y-10475737D01*
X14350223Y-10483677D01*
X14360229Y-10488775D01*
X14371320Y-10490532D01*
X14371320Y-10490532D01*
X14371320Y-10490532D01*
X14382411Y-10488775D01*
X14382411Y-10488775D01*
X14382411Y-10488775D01*
X14388474Y-10485686D01*
X14395341Y-10484397D01*
X14401815Y-10487024D01*
X14402871Y-10487967D01*
X14468288Y-10553383D01*
X14471637Y-10559516D01*
X14471920Y-10562151D01*
X14471920Y-10644200D01*
X14469951Y-10650904D01*
X14464671Y-10655479D01*
X14459520Y-10656600D01*
X14451581Y-10656600D01*
X14449162Y-10656362D01*
X14448651Y-10656260D01*
X14447760Y-10656083D01*
X14447760Y-10656083D01*
X14445160Y-10656600D01*
X14437459Y-10658132D01*
X14428727Y-10663967D01*
X14428726Y-10663967D01*
X14427932Y-10665156D01*
X14426390Y-10667034D01*
X14365107Y-10728318D01*
X14358974Y-10731667D01*
X14356339Y-10731950D01*
X13925027Y-10731950D01*
X13918323Y-10729982D01*
X13913747Y-10724701D01*
X13912753Y-10717785D01*
X13915655Y-10711430D01*
X13916747Y-10710428D01*
X13916747Y-10710427D01*
X13919336Y-10707838D01*
X13925377Y-10701797D01*
X13930181Y-10692368D01*
X13930475Y-10691791D01*
X13930475Y-10691791D01*
X13930475Y-10691791D01*
X13931330Y-10686394D01*
X13934323Y-10680081D01*
X13934805Y-10679570D01*
X13969683Y-10644692D01*
X13975816Y-10641343D01*
X13978451Y-10641060D01*
X13995727Y-10641060D01*
X14002431Y-10643029D01*
X14006008Y-10646935D01*
X14006152Y-10646836D01*
X14006578Y-10647453D01*
X14016242Y-10661453D01*
X14025448Y-10669609D01*
X14028975Y-10672734D01*
X14044037Y-10680639D01*
X14044037Y-10680639D01*
X14060554Y-10684710D01*
X14077566Y-10684710D01*
X14094082Y-10680639D01*
X14102029Y-10676468D01*
X14109145Y-10672734D01*
X14109145Y-10672733D01*
X14109145Y-10672733D01*
X14121878Y-10661453D01*
X14131542Y-10647453D01*
X14137574Y-10631547D01*
X14139624Y-10614660D01*
X14137774Y-10599420D01*
X14201695Y-10599420D01*
X14203746Y-10616307D01*
X14203746Y-10616307D01*
X14209778Y-10632213D01*
X14214611Y-10639215D01*
X14219442Y-10646213D01*
X14228247Y-10654013D01*
X14232175Y-10657494D01*
X14246775Y-10665156D01*
X14247237Y-10665399D01*
X14263754Y-10669470D01*
X14280766Y-10669470D01*
X14297282Y-10665399D01*
X14308325Y-10659603D01*
X14312345Y-10657494D01*
X14312345Y-10657493D01*
X14312345Y-10657493D01*
X14325078Y-10646213D01*
X14334742Y-10632213D01*
X14340774Y-10616307D01*
X14342824Y-10599420D01*
X14340774Y-10582533D01*
X14339918Y-10580276D01*
X14336708Y-10571812D01*
X14334742Y-10566627D01*
X14333415Y-10564706D01*
X14329222Y-10558630D01*
X14325078Y-10552627D01*
X14313813Y-10542647D01*
X14312345Y-10541346D01*
X14297283Y-10533441D01*
X14280766Y-10529370D01*
X14263754Y-10529370D01*
X14247237Y-10533441D01*
X14232175Y-10541346D01*
X14223896Y-10548681D01*
X14219609Y-10552479D01*
X14219442Y-10552627D01*
X14209778Y-10566627D01*
X14203746Y-10582533D01*
X14203746Y-10582533D01*
X14201695Y-10599420D01*
X14137774Y-10599420D01*
X14137574Y-10597773D01*
X14135831Y-10593176D01*
X14135322Y-10591835D01*
X14131542Y-10581867D01*
X14121878Y-10567867D01*
X14109145Y-10556587D01*
X14109145Y-10556586D01*
X14094083Y-10548681D01*
X14077566Y-10544610D01*
X14060554Y-10544610D01*
X14044037Y-10548681D01*
X14028975Y-10556586D01*
X14016242Y-10567867D01*
X14006152Y-10582484D01*
X14005985Y-10582369D01*
X14001847Y-10586644D01*
X13995727Y-10588260D01*
X13984312Y-10588260D01*
X13977608Y-10586292D01*
X13973033Y-10581011D01*
X13972038Y-10574095D01*
X13974941Y-10567740D01*
X13977663Y-10565609D01*
X13977607Y-10565531D01*
X13978396Y-10564957D01*
X13978396Y-10564957D01*
X13978397Y-10564957D01*
X13986337Y-10557017D01*
X13991435Y-10547011D01*
X13991435Y-10547011D01*
X13991435Y-10547011D01*
X13993192Y-10535920D01*
X13993192Y-10535920D01*
X13991435Y-10524829D01*
X13986337Y-10514823D01*
X13978396Y-10506883D01*
X13968391Y-10501785D01*
X13957300Y-10500028D01*
X13957300Y-10500028D01*
X13946209Y-10501785D01*
X13936203Y-10506883D01*
X13928263Y-10514823D01*
X13923165Y-10524829D01*
X13921408Y-10535920D01*
X13921408Y-10535920D01*
X13923165Y-10547011D01*
X13928263Y-10557017D01*
X13936203Y-10564957D01*
X13942333Y-10568080D01*
X13945886Y-10569891D01*
X13947078Y-10570498D01*
X13946954Y-10570741D01*
X13951486Y-10573840D01*
X13954206Y-10580276D01*
X13953014Y-10587160D01*
X13948776Y-10591999D01*
X13945550Y-10594154D01*
X13943347Y-10595627D01*
X13942552Y-10596816D01*
X13941010Y-10598694D01*
X13897474Y-10642231D01*
X13891342Y-10645579D01*
X13890646Y-10645710D01*
X13885249Y-10646565D01*
X13875243Y-10651663D01*
X13867303Y-10659603D01*
X13862205Y-10669609D01*
X13860448Y-10680700D01*
X13860448Y-10680700D01*
X13862205Y-10691791D01*
X13867303Y-10701797D01*
X13875933Y-10710427D01*
X13875769Y-10710591D01*
X13879209Y-10715052D01*
X13879806Y-10722013D01*
X13876545Y-10728193D01*
X13870461Y-10731628D01*
X13867653Y-10731950D01*
X13525331Y-10731950D01*
X13522912Y-10731712D01*
X13522401Y-10731610D01*
X13521510Y-10731433D01*
X13521510Y-10731433D01*
X13518964Y-10731939D01*
X13511209Y-10733482D01*
X13507995Y-10735629D01*
X13504697Y-10737833D01*
X13504680Y-10737844D01*
X13504149Y-10738200D01*
X13497481Y-10740287D01*
X13490743Y-10738438D01*
X13486074Y-10733240D01*
X13484860Y-10727889D01*
X13484860Y-10652760D01*
X13692808Y-10652760D01*
X13694565Y-10663851D01*
X13699663Y-10673857D01*
X13707603Y-10681797D01*
X13717609Y-10686895D01*
X13728700Y-10688652D01*
X13728700Y-10688652D01*
X13728700Y-10688652D01*
X13739791Y-10686895D01*
X13739791Y-10686895D01*
X13739791Y-10686895D01*
X13749797Y-10681797D01*
X13757737Y-10673857D01*
X13762835Y-10663851D01*
X13762835Y-10663851D01*
X13762835Y-10663851D01*
X13764592Y-10652760D01*
X13764592Y-10652760D01*
X13762835Y-10641669D01*
X13757737Y-10631663D01*
X13749796Y-10623723D01*
X13739791Y-10618625D01*
X13728700Y-10616868D01*
X13728700Y-10616868D01*
X13717609Y-10618625D01*
X13707603Y-10623723D01*
X13699663Y-10631663D01*
X13694565Y-10641669D01*
X13692808Y-10652760D01*
X13692808Y-10652760D01*
X13484860Y-10652760D01*
X13484860Y-10416540D01*
X13942615Y-10416540D01*
X13944666Y-10433427D01*
X13944666Y-10433427D01*
X13950698Y-10449333D01*
X13955030Y-10455608D01*
X13960362Y-10463333D01*
X13966431Y-10468710D01*
X13973095Y-10474614D01*
X13985861Y-10481314D01*
X13988157Y-10482519D01*
X14004674Y-10486590D01*
X14021686Y-10486590D01*
X14038202Y-10482519D01*
X14046825Y-10477994D01*
X14053265Y-10474614D01*
X14053265Y-10474613D01*
X14053265Y-10474613D01*
X14065998Y-10463333D01*
X14075662Y-10449333D01*
X14081694Y-10433427D01*
X14083744Y-10416540D01*
X14081694Y-10399653D01*
X14080886Y-10397523D01*
X14080607Y-10396787D01*
X14080070Y-10389821D01*
X14083385Y-10383670D01*
X14083412Y-10383643D01*
X14091603Y-10375452D01*
X14097736Y-10372103D01*
X14100371Y-10371820D01*
X14102244Y-10371820D01*
X14108948Y-10373789D01*
X14109533Y-10374188D01*
X14109904Y-10374458D01*
X14119909Y-10379555D01*
X14131000Y-10381312D01*
X14131000Y-10381312D01*
X14131000Y-10381312D01*
X14142091Y-10379555D01*
X14142091Y-10379555D01*
X14142091Y-10379555D01*
X14152097Y-10374457D01*
X14160037Y-10366517D01*
X14164790Y-10357189D01*
X14165135Y-10356511D01*
X14165135Y-10356511D01*
X14165135Y-10356511D01*
X14165990Y-10351114D01*
X14168983Y-10344801D01*
X14169467Y-10344288D01*
X14221780Y-10291975D01*
X14509950Y-10291975D01*
X14511113Y-10297823D01*
X14511113Y-10297823D01*
X14515545Y-10304455D01*
X14522177Y-10308887D01*
X14522177Y-10308887D01*
X14528025Y-10310050D01*
X14528025Y-10310050D01*
X14528025Y-10310050D01*
X14576578Y-10310050D01*
X14583282Y-10312019D01*
X14587858Y-10317299D01*
X14588852Y-10324215D01*
X14585950Y-10330570D01*
X14582208Y-10333499D01*
X14581489Y-10333865D01*
X14581489Y-10333865D01*
X14577734Y-10335778D01*
X14571483Y-10338963D01*
X14563543Y-10346903D01*
X14558445Y-10356909D01*
X14556688Y-10368000D01*
X14556688Y-10368000D01*
X14558445Y-10379091D01*
X14563543Y-10389097D01*
X14564971Y-10390525D01*
X14568319Y-10396657D01*
X14567821Y-10403626D01*
X14563634Y-10409220D01*
X14557087Y-10411661D01*
X14554263Y-10411540D01*
X14552591Y-10411276D01*
X14551660Y-10411128D01*
X14551660Y-10411128D01*
X14551660Y-10411128D01*
X14540569Y-10412885D01*
X14530563Y-10417983D01*
X14522623Y-10425923D01*
X14517525Y-10435929D01*
X14515768Y-10447020D01*
X14515768Y-10447020D01*
X14517525Y-10458111D01*
X14522623Y-10468117D01*
X14530563Y-10476057D01*
X14540569Y-10481155D01*
X14551660Y-10482912D01*
X14551660Y-10482912D01*
X14551660Y-10482912D01*
X14562751Y-10481155D01*
X14562751Y-10481155D01*
X14562751Y-10481155D01*
X14572757Y-10476057D01*
X14580697Y-10468117D01*
X14585795Y-10458111D01*
X14585795Y-10458111D01*
X14585795Y-10458111D01*
X14587552Y-10447020D01*
X14587552Y-10447020D01*
X14585795Y-10435929D01*
X14580697Y-10425923D01*
X14579269Y-10424495D01*
X14575920Y-10418363D01*
X14576419Y-10411394D01*
X14580606Y-10405800D01*
X14587152Y-10403359D01*
X14589977Y-10403480D01*
X14592580Y-10403892D01*
X14592580Y-10403892D01*
X14592580Y-10403892D01*
X14603671Y-10402135D01*
X14603671Y-10402135D01*
X14603671Y-10402135D01*
X14613677Y-10397037D01*
X14621617Y-10389097D01*
X14626715Y-10379091D01*
X14627767Y-10372448D01*
X14630760Y-10366135D01*
X14636691Y-10362442D01*
X14643677Y-10362542D01*
X14648813Y-10365946D01*
X14648933Y-10365827D01*
X14657563Y-10374457D01*
X14667569Y-10379555D01*
X14678660Y-10381312D01*
X14678660Y-10381312D01*
X14678660Y-10381312D01*
X14689751Y-10379555D01*
X14689751Y-10379555D01*
X14689751Y-10379555D01*
X14699757Y-10374457D01*
X14707697Y-10366517D01*
X14712795Y-10356511D01*
X14712795Y-10356511D01*
X14712795Y-10356511D01*
X14714552Y-10345420D01*
X14714552Y-10345420D01*
X14712795Y-10334329D01*
X14708924Y-10326731D01*
X14707635Y-10319864D01*
X14710262Y-10313390D01*
X14715973Y-10309365D01*
X14717553Y-10308940D01*
X14717823Y-10308887D01*
X14724455Y-10304455D01*
X14728887Y-10297823D01*
X14728887Y-10297823D01*
X14728887Y-10297823D01*
X14730050Y-10291975D01*
X14730050Y-10291975D01*
X14730050Y-10168025D01*
X14730050Y-10168025D01*
X14728887Y-10162177D01*
X14728887Y-10162177D01*
X14724455Y-10155545D01*
X14717823Y-10151113D01*
X14717823Y-10151113D01*
X14711975Y-10149950D01*
X14711975Y-10149950D01*
X14528025Y-10149950D01*
X14528025Y-10149950D01*
X14522177Y-10151113D01*
X14522177Y-10151113D01*
X14515545Y-10155545D01*
X14511113Y-10162177D01*
X14511113Y-10162177D01*
X14509950Y-10168025D01*
X14509950Y-10291975D01*
X14221780Y-10291975D01*
X14382143Y-10131612D01*
X14388276Y-10128263D01*
X14390911Y-10127980D01*
X14436430Y-10127980D01*
X14443134Y-10129949D01*
X14445198Y-10131612D01*
X14446743Y-10133157D01*
X14456749Y-10138255D01*
X14467840Y-10140012D01*
X14467840Y-10140012D01*
X14467840Y-10140012D01*
X14478931Y-10138255D01*
X14478931Y-10138255D01*
X14478931Y-10138255D01*
X14488937Y-10133157D01*
X14496877Y-10125217D01*
X14501975Y-10115211D01*
X14501975Y-10115211D01*
X14501975Y-10115211D01*
X14503732Y-10104120D01*
X14503732Y-10104120D01*
X14501975Y-10093029D01*
X14496877Y-10083023D01*
X14488936Y-10075083D01*
X14478931Y-10069985D01*
X14467840Y-10068228D01*
X14467840Y-10068228D01*
X14456749Y-10069985D01*
X14449205Y-10073829D01*
X14443575Y-10075180D01*
X14378661Y-10075180D01*
X14376242Y-10074942D01*
X14374840Y-10074663D01*
X14374840Y-10074663D01*
X14374840Y-10074663D01*
X14372648Y-10075099D01*
X14372647Y-10075099D01*
X14364539Y-10076712D01*
X14355807Y-10082547D01*
X14355806Y-10082547D01*
X14355012Y-10083736D01*
X14353470Y-10085614D01*
X14132134Y-10306951D01*
X14126002Y-10310299D01*
X14125306Y-10310430D01*
X14119909Y-10311285D01*
X14109904Y-10316382D01*
X14109533Y-10316652D01*
X14102953Y-10319000D01*
X14102244Y-10319020D01*
X14088121Y-10319020D01*
X14085702Y-10318782D01*
X14085191Y-10318680D01*
X14084300Y-10318503D01*
X14084300Y-10318503D01*
X14079149Y-10319527D01*
X14073999Y-10320552D01*
X14072636Y-10321463D01*
X14067471Y-10324914D01*
X14067471Y-10324914D01*
X14066575Y-10325512D01*
X14065267Y-10326387D01*
X14064472Y-10327576D01*
X14062930Y-10329454D01*
X14046053Y-10346332D01*
X14039920Y-10349680D01*
X14034317Y-10349603D01*
X14021686Y-10346490D01*
X14021686Y-10346490D01*
X14004674Y-10346490D01*
X13988157Y-10350561D01*
X13973095Y-10358466D01*
X13960362Y-10369747D01*
X13950698Y-10383747D01*
X13944666Y-10399653D01*
X13944666Y-10399653D01*
X13942615Y-10416540D01*
X13484860Y-10416540D01*
X13484860Y-10350640D01*
X13484860Y-10350640D01*
X13360202Y-10264338D01*
X13355810Y-10258904D01*
X13354860Y-10254143D01*
X13354860Y-10121900D01*
X13418488Y-10121900D01*
X13420245Y-10132991D01*
X13425343Y-10142997D01*
X13433283Y-10150937D01*
X13443289Y-10156035D01*
X13454380Y-10157792D01*
X13454380Y-10157792D01*
X13454380Y-10157792D01*
X13465471Y-10156035D01*
X13465471Y-10156035D01*
X13465471Y-10156035D01*
X13475477Y-10150937D01*
X13483417Y-10142997D01*
X13488515Y-10132991D01*
X13488515Y-10132991D01*
X13488515Y-10132991D01*
X13490272Y-10121900D01*
X13490272Y-10121900D01*
X13488515Y-10110809D01*
X13483417Y-10100803D01*
X13475476Y-10092863D01*
X13465471Y-10087765D01*
X13454380Y-10086008D01*
X13454380Y-10086008D01*
X13443289Y-10087765D01*
X13433283Y-10092863D01*
X13425343Y-10100803D01*
X13420245Y-10110809D01*
X13418488Y-10121900D01*
X13418488Y-10121900D01*
X13354860Y-10121900D01*
X13354860Y-10070640D01*
X13354333Y-10069828D01*
X13352330Y-10063135D01*
X13352330Y-10063072D01*
X13352330Y-10033000D01*
X13695348Y-10033000D01*
X13697105Y-10044091D01*
X13702203Y-10054097D01*
X13710143Y-10062037D01*
X13720149Y-10067135D01*
X13731240Y-10068892D01*
X13731240Y-10068892D01*
X13731240Y-10068892D01*
X13742331Y-10067135D01*
X13742331Y-10067135D01*
X13742331Y-10067135D01*
X13752337Y-10062037D01*
X13760277Y-10054097D01*
X13765375Y-10044091D01*
X13765375Y-10044091D01*
X13765375Y-10044091D01*
X13767132Y-10033000D01*
X13767132Y-10033000D01*
X13765375Y-10021909D01*
X13760277Y-10011903D01*
X13752336Y-10003963D01*
X13742331Y-9998865D01*
X13731240Y-9997108D01*
X13731240Y-9997108D01*
X13720149Y-9998865D01*
X13710143Y-10003963D01*
X13702203Y-10011903D01*
X13697105Y-10021909D01*
X13695348Y-10033000D01*
X13695348Y-10033000D01*
X13352330Y-10033000D01*
X13352330Y-10003680D01*
X13352568Y-10001261D01*
X13352700Y-10000599D01*
X13352847Y-9999859D01*
X13350798Y-9989558D01*
X13350798Y-9989558D01*
X13350798Y-9989557D01*
X13346098Y-9982524D01*
X13346098Y-9982523D01*
X13344963Y-9980825D01*
X13344963Y-9980825D01*
X13344963Y-9980825D01*
X13343774Y-9980030D01*
X13341895Y-9978489D01*
X13318391Y-9954985D01*
X13316849Y-9953106D01*
X13316055Y-9951917D01*
X13312659Y-9949648D01*
X13307322Y-9946082D01*
X13307322Y-9946082D01*
X13305348Y-9945689D01*
X13298403Y-9944308D01*
X13297021Y-9944033D01*
X13297021Y-9944033D01*
X13296683Y-9944100D01*
X13295619Y-9944312D01*
X13293200Y-9944550D01*
X13259960Y-9944550D01*
X13257541Y-9944312D01*
X13257540Y-9944312D01*
X13256138Y-9944033D01*
X13256138Y-9944033D01*
X13256138Y-9944033D01*
X13253946Y-9944469D01*
X13253946Y-9944469D01*
X13245837Y-9946082D01*
X13237105Y-9951917D01*
X13237105Y-9951917D01*
X13236310Y-9953106D01*
X13234769Y-9954984D01*
X13202194Y-9987559D01*
X13200316Y-9989100D01*
X13199127Y-9989895D01*
X13196848Y-9993305D01*
X13196848Y-9993305D01*
X13193292Y-9998628D01*
X13192230Y-10003963D01*
X13191507Y-10007600D01*
X13191243Y-10008929D01*
X13191522Y-10010331D01*
X13191760Y-10012750D01*
X13191760Y-10062649D01*
X13189791Y-10069352D01*
X13188128Y-10071417D01*
X13053836Y-10205709D01*
X13047703Y-10209058D01*
X13040734Y-10208559D01*
X13035141Y-10204372D01*
X13034019Y-10202570D01*
X13033662Y-10201871D01*
X13032572Y-10199731D01*
X13028757Y-10192243D01*
X13020816Y-10184303D01*
X13013238Y-10180441D01*
X13010811Y-10179205D01*
X13010811Y-10179205D01*
X13010250Y-10179023D01*
X13004483Y-10175078D01*
X13001763Y-10168642D01*
X13002955Y-10161758D01*
X13003027Y-10161614D01*
X13003375Y-10160931D01*
X13003375Y-10160931D01*
X13005132Y-10149840D01*
X13005132Y-10149840D01*
X13003375Y-10138749D01*
X12998277Y-10128743D01*
X12990336Y-10120803D01*
X12980331Y-10115705D01*
X12969240Y-10113948D01*
X12969240Y-10113948D01*
X12958149Y-10115705D01*
X12948143Y-10120803D01*
X12940203Y-10128743D01*
X12935105Y-10138749D01*
X12933348Y-10149840D01*
X12933348Y-10149840D01*
X12935105Y-10160931D01*
X12940203Y-10170937D01*
X12948143Y-10178877D01*
X12951213Y-10180441D01*
X12958149Y-10183975D01*
X12958149Y-10183975D01*
X12958709Y-10184157D01*
X12964477Y-10188101D01*
X12967196Y-10194537D01*
X12966005Y-10201422D01*
X12965926Y-10201580D01*
X12965585Y-10202249D01*
X12963828Y-10213340D01*
X12963828Y-10213340D01*
X12965585Y-10224431D01*
X12970683Y-10234437D01*
X12970683Y-10234437D01*
X12978623Y-10242377D01*
X12983322Y-10244771D01*
X12988402Y-10249569D01*
X12990082Y-10256351D01*
X12987828Y-10262964D01*
X12982356Y-10267310D01*
X12977693Y-10268220D01*
X12896395Y-10268220D01*
X12889692Y-10266252D01*
X12889107Y-10265852D01*
X12888736Y-10265582D01*
X12878731Y-10260485D01*
X12867640Y-10258728D01*
X12867640Y-10258728D01*
X12856549Y-10260485D01*
X12846543Y-10265583D01*
X12838603Y-10273523D01*
X12833505Y-10283529D01*
X12831748Y-10294620D01*
X12831748Y-10294620D01*
X12833505Y-10305711D01*
X12838928Y-10316355D01*
X12840217Y-10323222D01*
X12837590Y-10329696D01*
X12831879Y-10333721D01*
X12825940Y-10334232D01*
X12814300Y-10332388D01*
X12814300Y-10332388D01*
X12803209Y-10334145D01*
X12793204Y-10339242D01*
X12792833Y-10339512D01*
X12786253Y-10341860D01*
X12785544Y-10341880D01*
X12698363Y-10341880D01*
X12691659Y-10339912D01*
X12687083Y-10334631D01*
X12686089Y-10327715D01*
X12688992Y-10321360D01*
X12689595Y-10320712D01*
X12718332Y-10291975D01*
X12808495Y-10201811D01*
X12810375Y-10200269D01*
X12810777Y-10200000D01*
X12811563Y-10199475D01*
X12817398Y-10190742D01*
X12818930Y-10183042D01*
X12818930Y-10183042D01*
X12819198Y-10181695D01*
X12819198Y-10181695D01*
X12819198Y-10181694D01*
X12819447Y-10180442D01*
X12819168Y-10179039D01*
X12818930Y-10176621D01*
X12818930Y-10144501D01*
X12820898Y-10137797D01*
X12822562Y-10135733D01*
X12874943Y-10083352D01*
X12881076Y-10080003D01*
X12883711Y-10079720D01*
X12942559Y-10079720D01*
X12944978Y-10079958D01*
X12946380Y-10080237D01*
X12956681Y-10078188D01*
X12963209Y-10073826D01*
X12963209Y-10073826D01*
X12964307Y-10073092D01*
X12965413Y-10072353D01*
X12966207Y-10071165D01*
X12967749Y-10069286D01*
X12998586Y-10038449D01*
X13004718Y-10035101D01*
X13005411Y-10034971D01*
X13010811Y-10034115D01*
X13010893Y-10034074D01*
X13020816Y-10029017D01*
X13020816Y-10029017D01*
X13020817Y-10029017D01*
X13028757Y-10021077D01*
X13033855Y-10011071D01*
X13033855Y-10011071D01*
X13033855Y-10011071D01*
X13035612Y-9999980D01*
X13035612Y-9999980D01*
X13033855Y-9988889D01*
X13028757Y-9978883D01*
X13020816Y-9970943D01*
X13010811Y-9965845D01*
X12999720Y-9964088D01*
X12999720Y-9964088D01*
X12988629Y-9965845D01*
X12978623Y-9970943D01*
X12970683Y-9978883D01*
X12965585Y-9988889D01*
X12964730Y-9994286D01*
X12961737Y-10000599D01*
X12961251Y-10001114D01*
X12939077Y-10023288D01*
X12932944Y-10026637D01*
X12930308Y-10026920D01*
X12871461Y-10026920D01*
X12869042Y-10026682D01*
X12868531Y-10026580D01*
X12867640Y-10026403D01*
X12867640Y-10026403D01*
X12863917Y-10027143D01*
X12857339Y-10028452D01*
X12856493Y-10029017D01*
X12850811Y-10032814D01*
X12850811Y-10032814D01*
X12850532Y-10033000D01*
X12848606Y-10034287D01*
X12847907Y-10035334D01*
X12842545Y-10039814D01*
X12835613Y-10040685D01*
X12829310Y-10037669D01*
X12826548Y-10034074D01*
X12823017Y-10027143D01*
X12815077Y-10019203D01*
X12815076Y-10019203D01*
X12805071Y-10014105D01*
X12793980Y-10012348D01*
X12793980Y-10012348D01*
X12782889Y-10014105D01*
X12780971Y-10015082D01*
X12774104Y-10016371D01*
X12767630Y-10013743D01*
X12763605Y-10008033D01*
X12763095Y-10002093D01*
X12763250Y-10001114D01*
X12763832Y-9997440D01*
X12763796Y-9997213D01*
X12762075Y-9986349D01*
X12756977Y-9976343D01*
X12749036Y-9968403D01*
X12739031Y-9963305D01*
X12727940Y-9961548D01*
X12727940Y-9961548D01*
X12716849Y-9963305D01*
X12712606Y-9965467D01*
X12705739Y-9966756D01*
X12699265Y-9964128D01*
X12695239Y-9958418D01*
X12694729Y-9952478D01*
X12695252Y-9949180D01*
X12695252Y-9949180D01*
X12693495Y-9938089D01*
X12688397Y-9928083D01*
X12680456Y-9920143D01*
X12670451Y-9915045D01*
X12659360Y-9913288D01*
X12659360Y-9913288D01*
X12648269Y-9915045D01*
X12638263Y-9920143D01*
X12630323Y-9928083D01*
X12625225Y-9938089D01*
X12623468Y-9949180D01*
X12623468Y-9949180D01*
X12625225Y-9960271D01*
X12630323Y-9970277D01*
X12638263Y-9978217D01*
X12648269Y-9983315D01*
X12659360Y-9985072D01*
X12659360Y-9985072D01*
X12659360Y-9985072D01*
X12670451Y-9983315D01*
X12670451Y-9983315D01*
X12670451Y-9983315D01*
X12674694Y-9981153D01*
X12681560Y-9979864D01*
X12688035Y-9982492D01*
X12692060Y-9988202D01*
X12692570Y-9994142D01*
X12692048Y-9997440D01*
X12692048Y-9997440D01*
X12692048Y-9997440D01*
X12693805Y-10008531D01*
X12698903Y-10018537D01*
X12706843Y-10026477D01*
X12716849Y-10031575D01*
X12727940Y-10033332D01*
X12727940Y-10033332D01*
X12727940Y-10033332D01*
X12739031Y-10031575D01*
X12739031Y-10031575D01*
X12739031Y-10031575D01*
X12740948Y-10030598D01*
X12747815Y-10029309D01*
X12754289Y-10031936D01*
X12758315Y-10037647D01*
X12758825Y-10043586D01*
X12758088Y-10048240D01*
X12758088Y-10048240D01*
X12759845Y-10059331D01*
X12764943Y-10069337D01*
X12764943Y-10069337D01*
X12772883Y-10077277D01*
X12779845Y-10080824D01*
X12784925Y-10085622D01*
X12786604Y-10092404D01*
X12784351Y-10099017D01*
X12782984Y-10100641D01*
X12776564Y-10107060D01*
X12774686Y-10108602D01*
X12773497Y-10109397D01*
X12771218Y-10112806D01*
X12771218Y-10112807D01*
X12767662Y-10118129D01*
X12767662Y-10118129D01*
X12767662Y-10118129D01*
X12765646Y-10128263D01*
X12765613Y-10128430D01*
X12765892Y-10129833D01*
X12766130Y-10132251D01*
X12766130Y-10164370D01*
X12764161Y-10171074D01*
X12762498Y-10173138D01*
X12625088Y-10310548D01*
X12618956Y-10313897D01*
X12616320Y-10314180D01*
X12165131Y-10314180D01*
X12158428Y-10312212D01*
X12156363Y-10310548D01*
X12016700Y-10170885D01*
X12015158Y-10169006D01*
X12014502Y-10168025D01*
X12014363Y-10167817D01*
X12014363Y-10167817D01*
X12005631Y-10161982D01*
X11997930Y-10160450D01*
X11995330Y-10159933D01*
X11995330Y-10159933D01*
X11994439Y-10160110D01*
X11993928Y-10160212D01*
X11991509Y-10160450D01*
X11953071Y-10160450D01*
X11950652Y-10160212D01*
X11950652Y-10160212D01*
X11949250Y-10159933D01*
X11949250Y-10159933D01*
X11949250Y-10159933D01*
X11947058Y-10160369D01*
X11947057Y-10160369D01*
X11938949Y-10161982D01*
X11930217Y-10167817D01*
X11930216Y-10167817D01*
X11929422Y-10169006D01*
X11927880Y-10170884D01*
X11891554Y-10207210D01*
X11889676Y-10208752D01*
X11888487Y-10209547D01*
X11886208Y-10212956D01*
X11886208Y-10212957D01*
X11882652Y-10218279D01*
X11880603Y-10228580D01*
X11880882Y-10229982D01*
X11881120Y-10232401D01*
X11881120Y-10374618D01*
X11880882Y-10377037D01*
X11880724Y-10377832D01*
X11880603Y-10378440D01*
X11881768Y-10384297D01*
X11882558Y-10388268D01*
X11882652Y-10388741D01*
X11882892Y-10389320D01*
X11883044Y-10390734D01*
X11884241Y-10391433D01*
X11885536Y-10393058D01*
X11888195Y-10397037D01*
X11888487Y-10397473D01*
X11889675Y-10398268D01*
X11891554Y-10399810D01*
X11950809Y-10459064D01*
X11954157Y-10465196D01*
X11954288Y-10465892D01*
X11954665Y-10468271D01*
X11959763Y-10478277D01*
X11967703Y-10486217D01*
X11977709Y-10491315D01*
X11988800Y-10493072D01*
X11988800Y-10493072D01*
X11988800Y-10493072D01*
X11999891Y-10491315D01*
X11999891Y-10491315D01*
X11999891Y-10491315D01*
X12009897Y-10486217D01*
X12017837Y-10478277D01*
X12022935Y-10468271D01*
X12023516Y-10464601D01*
X12026509Y-10458288D01*
X12032440Y-10454595D01*
X12039427Y-10454694D01*
X12042653Y-10456231D01*
X12047079Y-10459188D01*
X12057380Y-10461237D01*
X12058782Y-10460958D01*
X12061201Y-10460720D01*
X12885728Y-10460720D01*
X12892432Y-10462689D01*
X12897008Y-10467969D01*
X12898002Y-10474885D01*
X12895100Y-10481240D01*
X12894497Y-10481888D01*
X12881291Y-10495094D01*
X12881291Y-10495094D01*
X12869454Y-10506930D01*
X12867576Y-10508472D01*
X12866387Y-10509267D01*
X12864108Y-10512676D01*
X12864108Y-10512677D01*
X12860552Y-10517999D01*
X12859850Y-10521524D01*
X12859008Y-10525760D01*
X12858503Y-10528300D01*
X12858503Y-10529479D01*
X12856534Y-10536183D01*
X12851866Y-10540459D01*
X12845335Y-10543886D01*
X12845335Y-10543887D01*
X12841087Y-10547650D01*
X12832602Y-10555167D01*
X12822938Y-10569167D01*
X12816906Y-10585073D01*
X12816906Y-10585073D01*
X12814855Y-10601960D01*
X12816906Y-10618847D01*
X12816906Y-10618847D01*
X12817993Y-10621713D01*
X12818529Y-10628679D01*
X12815214Y-10634830D01*
X12815167Y-10634878D01*
X12724674Y-10725370D01*
X12722796Y-10726912D01*
X12721607Y-10727707D01*
X12719328Y-10731116D01*
X12719328Y-10731117D01*
X12715772Y-10736439D01*
X12715772Y-10736439D01*
X12714545Y-10742606D01*
X12711956Y-10747554D01*
X12712176Y-10747714D01*
X12711603Y-10748503D01*
X12706505Y-10758509D01*
X12704748Y-10769600D01*
X12704748Y-10769600D01*
X12706505Y-10780691D01*
X12711603Y-10790697D01*
X12719138Y-10798232D01*
X12722486Y-10804364D01*
X12721988Y-10811333D01*
X12717801Y-10816927D01*
X12711254Y-10819368D01*
X12710370Y-10819400D01*
X12598364Y-10819400D01*
X12591660Y-10817432D01*
X12587084Y-10812151D01*
X12586090Y-10805235D01*
X12588992Y-10798880D01*
X12594870Y-10795102D01*
X12595396Y-10794960D01*
X12595482Y-10794939D01*
X12610545Y-10787034D01*
X12610545Y-10787033D01*
X12610545Y-10787033D01*
X12623278Y-10775753D01*
X12632942Y-10761753D01*
X12638974Y-10745847D01*
X12641024Y-10728960D01*
X12638974Y-10712073D01*
X12632942Y-10696167D01*
X12623278Y-10682167D01*
X12613414Y-10673428D01*
X12610545Y-10670886D01*
X12595483Y-10662981D01*
X12578966Y-10658910D01*
X12561954Y-10658910D01*
X12545437Y-10662981D01*
X12530375Y-10670886D01*
X12519996Y-10680081D01*
X12518169Y-10681700D01*
X12517642Y-10682167D01*
X12507978Y-10696167D01*
X12501946Y-10712073D01*
X12501946Y-10712073D01*
X12499895Y-10728960D01*
X12501946Y-10745847D01*
X12501946Y-10745847D01*
X12507978Y-10761753D01*
X12511641Y-10767060D01*
X12517642Y-10775753D01*
X12526457Y-10783563D01*
X12530375Y-10787034D01*
X12545437Y-10794939D01*
X12545437Y-10794939D01*
X12545524Y-10794960D01*
X12545580Y-10794993D01*
X12546139Y-10795205D01*
X12546104Y-10795298D01*
X12551562Y-10798476D01*
X12554741Y-10804698D01*
X12554051Y-10811651D01*
X12549712Y-10817127D01*
X12543101Y-10819388D01*
X12542556Y-10819400D01*
X12335392Y-10819400D01*
X12328688Y-10817432D01*
X12326624Y-10815768D01*
X12239090Y-10728235D01*
X12237548Y-10726356D01*
X12236753Y-10725167D01*
X12228021Y-10719332D01*
X12228021Y-10719332D01*
X12220666Y-10717869D01*
X12217720Y-10717283D01*
X12217720Y-10717283D01*
X12216829Y-10717460D01*
X12216318Y-10717562D01*
X12213899Y-10717800D01*
X12100180Y-10717800D01*
X12093476Y-10715832D01*
X12091412Y-10714168D01*
X11850784Y-10473541D01*
X11847436Y-10467408D01*
X11847934Y-10460439D01*
X11852121Y-10454846D01*
X11853923Y-10453724D01*
X11854957Y-10453197D01*
X11862897Y-10445257D01*
X11867995Y-10435251D01*
X11867995Y-10435251D01*
X11867995Y-10435251D01*
X11869752Y-10424160D01*
X11869752Y-10424160D01*
X11867995Y-10413069D01*
X11864178Y-10405577D01*
X11863793Y-10403529D01*
X11862667Y-10402834D01*
X11854956Y-10395123D01*
X11844951Y-10390025D01*
X11833860Y-10388268D01*
X11833860Y-10388268D01*
X11822769Y-10390025D01*
X11812763Y-10395123D01*
X11804823Y-10403063D01*
X11804296Y-10404097D01*
X11799498Y-10409177D01*
X11792716Y-10410856D01*
X11786103Y-10408602D01*
X11784479Y-10407236D01*
X11731812Y-10354568D01*
X11728463Y-10348436D01*
X11728180Y-10345800D01*
X11728180Y-9740900D01*
X11844575Y-9740900D01*
X11846626Y-9757787D01*
X11846626Y-9757787D01*
X11852658Y-9773693D01*
X11858442Y-9782072D01*
X11862322Y-9787693D01*
X11870355Y-9794810D01*
X11875055Y-9798974D01*
X11890117Y-9806879D01*
X11890117Y-9806879D01*
X11906634Y-9810950D01*
X11923646Y-9810950D01*
X11940162Y-9806879D01*
X11950812Y-9801290D01*
X11955225Y-9798974D01*
X11955225Y-9798973D01*
X11955225Y-9798973D01*
X11967958Y-9787693D01*
X11977622Y-9773693D01*
X11977622Y-9773693D01*
X11978048Y-9773076D01*
X11978215Y-9773191D01*
X11982352Y-9768916D01*
X11988473Y-9767300D01*
X12069657Y-9767300D01*
X12076361Y-9769269D01*
X12080936Y-9774549D01*
X12081931Y-9781465D01*
X12079502Y-9786783D01*
X12079665Y-9786892D01*
X12078192Y-9789096D01*
X12076650Y-9790974D01*
X12022954Y-9844671D01*
X12016822Y-9848019D01*
X12016126Y-9848150D01*
X12010729Y-9849005D01*
X12000724Y-9854102D01*
X12000353Y-9854372D01*
X11993773Y-9856720D01*
X11993064Y-9856740D01*
X11974841Y-9856740D01*
X11972422Y-9856502D01*
X11971020Y-9856223D01*
X11971020Y-9856223D01*
X11971020Y-9856223D01*
X11968828Y-9856659D01*
X11968827Y-9856659D01*
X11960719Y-9858272D01*
X11951987Y-9864107D01*
X11951986Y-9864107D01*
X11951192Y-9865296D01*
X11949650Y-9867174D01*
X11904254Y-9912570D01*
X11902376Y-9914112D01*
X11901187Y-9914907D01*
X11898908Y-9918316D01*
X11898908Y-9918317D01*
X11895352Y-9923639D01*
X11893303Y-9933941D01*
X11893303Y-9935120D01*
X11891334Y-9941824D01*
X11886665Y-9946099D01*
X11880135Y-9949526D01*
X11880135Y-9949527D01*
X11868007Y-9960271D01*
X11867402Y-9960807D01*
X11857738Y-9974807D01*
X11851706Y-9990713D01*
X11851706Y-9990713D01*
X11849655Y-10007600D01*
X11851706Y-10024487D01*
X11851706Y-10024487D01*
X11857738Y-10040393D01*
X11860291Y-10044091D01*
X11867402Y-10054393D01*
X11876030Y-10062037D01*
X11880135Y-10065674D01*
X11892862Y-10072353D01*
X11895197Y-10073579D01*
X11911714Y-10077650D01*
X11928726Y-10077650D01*
X11945242Y-10073579D01*
X11953424Y-10069285D01*
X11960305Y-10065674D01*
X11960305Y-10065673D01*
X11960305Y-10065673D01*
X11973038Y-10054393D01*
X11982702Y-10040393D01*
X11988734Y-10024487D01*
X11990784Y-10007600D01*
X11988734Y-9990713D01*
X11987079Y-9986349D01*
X11985167Y-9981307D01*
X11982702Y-9974807D01*
X11973038Y-9960807D01*
X11970341Y-9958418D01*
X11960442Y-9949648D01*
X11956729Y-9943729D01*
X11956806Y-9936743D01*
X11959897Y-9931598D01*
X11965235Y-9926260D01*
X11978323Y-9913172D01*
X11984456Y-9909823D01*
X11987091Y-9909540D01*
X11993064Y-9909540D01*
X11999768Y-9911509D01*
X12000353Y-9911908D01*
X12000724Y-9912178D01*
X12010729Y-9917275D01*
X12021820Y-9919032D01*
X12021820Y-9919032D01*
X12021820Y-9919032D01*
X12032911Y-9917275D01*
X12032911Y-9917275D01*
X12032911Y-9917275D01*
X12042917Y-9912177D01*
X12050857Y-9904237D01*
X12052547Y-9900920D01*
X12168808Y-9900920D01*
X12170565Y-9912011D01*
X12175663Y-9922017D01*
X12183603Y-9929957D01*
X12193609Y-9935055D01*
X12204700Y-9936812D01*
X12204700Y-9936812D01*
X12204700Y-9936812D01*
X12215791Y-9935055D01*
X12215791Y-9935055D01*
X12215791Y-9935055D01*
X12225797Y-9929957D01*
X12233737Y-9922017D01*
X12238835Y-9912011D01*
X12238835Y-9912011D01*
X12238835Y-9912011D01*
X12240592Y-9900920D01*
X12240592Y-9900920D01*
X12238835Y-9889829D01*
X12233737Y-9879823D01*
X12225796Y-9871883D01*
X12215791Y-9866785D01*
X12204700Y-9865028D01*
X12204700Y-9865028D01*
X12193609Y-9866785D01*
X12183603Y-9871883D01*
X12175663Y-9879823D01*
X12170565Y-9889829D01*
X12168808Y-9900920D01*
X12168808Y-9900920D01*
X12052547Y-9900920D01*
X12055955Y-9894231D01*
X12056810Y-9888834D01*
X12059803Y-9882521D01*
X12060285Y-9882010D01*
X12105323Y-9836972D01*
X12111456Y-9833623D01*
X12114091Y-9833340D01*
X12701259Y-9833340D01*
X12703678Y-9833578D01*
X12705080Y-9833857D01*
X12715381Y-9831808D01*
X12721909Y-9827446D01*
X12721909Y-9827446D01*
X12723007Y-9826712D01*
X12724113Y-9825973D01*
X12724907Y-9824785D01*
X12726449Y-9822906D01*
X12744586Y-9804769D01*
X12750718Y-9801421D01*
X12751410Y-9801291D01*
X12756811Y-9800435D01*
X12757172Y-9800251D01*
X12766816Y-9795338D01*
X12766816Y-9795337D01*
X12766817Y-9795337D01*
X12767344Y-9794810D01*
X12773476Y-9791462D01*
X12780445Y-9791960D01*
X12786038Y-9796147D01*
X12787905Y-9799746D01*
X12788069Y-9800251D01*
X12793167Y-9810257D01*
X12801108Y-9818197D01*
X12811113Y-9823295D01*
X12822204Y-9825052D01*
X12822204Y-9825052D01*
X12822205Y-9825052D01*
X12833295Y-9823295D01*
X12833295Y-9823295D01*
X12833296Y-9823295D01*
X12835485Y-9822180D01*
X12874928Y-9822180D01*
X12874928Y-9822180D01*
X12876685Y-9833271D01*
X12881783Y-9843277D01*
X12889723Y-9851217D01*
X12895914Y-9854372D01*
X12899548Y-9856223D01*
X12899729Y-9856315D01*
X12910820Y-9858072D01*
X12910820Y-9858072D01*
X12910820Y-9858072D01*
X12921911Y-9856315D01*
X12921911Y-9856315D01*
X12921911Y-9856315D01*
X12931917Y-9851217D01*
X12939857Y-9843277D01*
X12944955Y-9833271D01*
X12944955Y-9833271D01*
X12944955Y-9833271D01*
X12946712Y-9822180D01*
X12946712Y-9822180D01*
X12944955Y-9811089D01*
X12939857Y-9801083D01*
X12931916Y-9793143D01*
X12921911Y-9788045D01*
X12910820Y-9786288D01*
X12910820Y-9786288D01*
X12899729Y-9788045D01*
X12889723Y-9793143D01*
X12881783Y-9801083D01*
X12880215Y-9804160D01*
X12875467Y-9809188D01*
X12876105Y-9814749D01*
X12874928Y-9822180D01*
X12835485Y-9822180D01*
X12843301Y-9818197D01*
X12851242Y-9810257D01*
X12852809Y-9807180D01*
X12857557Y-9802152D01*
X12856919Y-9796590D01*
X12857118Y-9795338D01*
X12858096Y-9789160D01*
X12858086Y-9789096D01*
X12856340Y-9778069D01*
X12851242Y-9768063D01*
X12843301Y-9760123D01*
X12833295Y-9755025D01*
X12822205Y-9753268D01*
X12822204Y-9753268D01*
X12811113Y-9755025D01*
X12801108Y-9760123D01*
X12800580Y-9760650D01*
X12794448Y-9763999D01*
X12787478Y-9763500D01*
X12781885Y-9759313D01*
X12780019Y-9755714D01*
X12779855Y-9755209D01*
X12779855Y-9755209D01*
X12776435Y-9748496D01*
X12774757Y-9745203D01*
X12766816Y-9737263D01*
X12756811Y-9732165D01*
X12745720Y-9730408D01*
X12745720Y-9730408D01*
X12735316Y-9732056D01*
X12728386Y-9731160D01*
X12723041Y-9726661D01*
X12720977Y-9719986D01*
X12721367Y-9717408D01*
X12721283Y-9717395D01*
X12723192Y-9705340D01*
X12723192Y-9705340D01*
X12721435Y-9694249D01*
X12716337Y-9684243D01*
X12708396Y-9676303D01*
X12698391Y-9671205D01*
X12687300Y-9669448D01*
X12687300Y-9669448D01*
X12676209Y-9671205D01*
X12666203Y-9676303D01*
X12658263Y-9684243D01*
X12653165Y-9694249D01*
X12652310Y-9699646D01*
X12649317Y-9705959D01*
X12648831Y-9706474D01*
X12620486Y-9734818D01*
X12614354Y-9738167D01*
X12611719Y-9738450D01*
X12585081Y-9738450D01*
X12578377Y-9736482D01*
X12576313Y-9734818D01*
X12441970Y-9600475D01*
X12440428Y-9598596D01*
X12440057Y-9598041D01*
X12439633Y-9597407D01*
X12439633Y-9597407D01*
X12430901Y-9591572D01*
X12423200Y-9590040D01*
X12420600Y-9589523D01*
X12420600Y-9589523D01*
X12419709Y-9589700D01*
X12419198Y-9589802D01*
X12416779Y-9590040D01*
X12259321Y-9590040D01*
X12256902Y-9589802D01*
X12256391Y-9589700D01*
X12255500Y-9589523D01*
X12255500Y-9589523D01*
X12252900Y-9590040D01*
X12245199Y-9591572D01*
X12236467Y-9597407D01*
X12236466Y-9597407D01*
X12235672Y-9598596D01*
X12234130Y-9600474D01*
X12170274Y-9664331D01*
X12164142Y-9667679D01*
X12163446Y-9667810D01*
X12158049Y-9668665D01*
X12148043Y-9673763D01*
X12140103Y-9681703D01*
X12135005Y-9691709D01*
X12134150Y-9697106D01*
X12131157Y-9703419D01*
X12130671Y-9703934D01*
X12123737Y-9710868D01*
X12117604Y-9714217D01*
X12114968Y-9714500D01*
X11988473Y-9714500D01*
X11981769Y-9712532D01*
X11978192Y-9708625D01*
X11978048Y-9708724D01*
X11976020Y-9705786D01*
X11967958Y-9694107D01*
X11956826Y-9684245D01*
X11955225Y-9682826D01*
X11940163Y-9674921D01*
X11923646Y-9670850D01*
X11906634Y-9670850D01*
X11890117Y-9674921D01*
X11875055Y-9682826D01*
X11863404Y-9693148D01*
X11862369Y-9694065D01*
X11862322Y-9694107D01*
X11852658Y-9708107D01*
X11846626Y-9724013D01*
X11846626Y-9724013D01*
X11844575Y-9740900D01*
X11728180Y-9740900D01*
X11728180Y-9629971D01*
X11730148Y-9623267D01*
X11731811Y-9621204D01*
X11797535Y-9555480D01*
X11912268Y-9555480D01*
X11914025Y-9566571D01*
X11919123Y-9576577D01*
X11927063Y-9584517D01*
X11937069Y-9589615D01*
X11948160Y-9591372D01*
X11948160Y-9591372D01*
X11948160Y-9591372D01*
X11959251Y-9589615D01*
X11959251Y-9589615D01*
X11959251Y-9589615D01*
X11969257Y-9584517D01*
X11977197Y-9576577D01*
X11982295Y-9566571D01*
X11982295Y-9566571D01*
X11982295Y-9566571D01*
X11984052Y-9555480D01*
X11984052Y-9555480D01*
X11982295Y-9544389D01*
X11977197Y-9534383D01*
X11969256Y-9526443D01*
X11959251Y-9521345D01*
X11948160Y-9519588D01*
X11948160Y-9519588D01*
X11937069Y-9521345D01*
X11927063Y-9526443D01*
X11919123Y-9534383D01*
X11914025Y-9544389D01*
X11912268Y-9555480D01*
X11912268Y-9555480D01*
X11797535Y-9555480D01*
X11801768Y-9551247D01*
X11807900Y-9547899D01*
X11808592Y-9547769D01*
X11817011Y-9546435D01*
X11827017Y-9541337D01*
X11834957Y-9533397D01*
X11838487Y-9526469D01*
X11840055Y-9523391D01*
X11840055Y-9523391D01*
X11840055Y-9523391D01*
X11840910Y-9517994D01*
X11843609Y-9512300D01*
X12112928Y-9512300D01*
X12114685Y-9523391D01*
X12119783Y-9533397D01*
X12127723Y-9541337D01*
X12137729Y-9546435D01*
X12148820Y-9548192D01*
X12148820Y-9548192D01*
X12148820Y-9548192D01*
X12159911Y-9546435D01*
X12159911Y-9546435D01*
X12159911Y-9546435D01*
X12169917Y-9541337D01*
X12177857Y-9533397D01*
X12182955Y-9523391D01*
X12182955Y-9523391D01*
X12182955Y-9523391D01*
X12184712Y-9512300D01*
X12184712Y-9512300D01*
X12182955Y-9501209D01*
X12177857Y-9491203D01*
X12169916Y-9483263D01*
X12159911Y-9478165D01*
X12148820Y-9476408D01*
X12148820Y-9476408D01*
X12137729Y-9478165D01*
X12127723Y-9483263D01*
X12119783Y-9491203D01*
X12114685Y-9501209D01*
X12112928Y-9512300D01*
X12112928Y-9512300D01*
X11843609Y-9512300D01*
X11843903Y-9511681D01*
X11844389Y-9511166D01*
X11848372Y-9507183D01*
X11854504Y-9503835D01*
X11857624Y-9503689D01*
X11857624Y-9503610D01*
X11875386Y-9503610D01*
X11891902Y-9499539D01*
X11901554Y-9494473D01*
X11906965Y-9491634D01*
X11906965Y-9491633D01*
X11906965Y-9491633D01*
X11919698Y-9480353D01*
X11929362Y-9466353D01*
X11935394Y-9450447D01*
X11937444Y-9433560D01*
X11935394Y-9416673D01*
X11935031Y-9415716D01*
X11933003Y-9410368D01*
X11929362Y-9400767D01*
X11928420Y-9399402D01*
X11920544Y-9387992D01*
X11919698Y-9386767D01*
X11909441Y-9377680D01*
X11906965Y-9375486D01*
X11891903Y-9367581D01*
X11875386Y-9363510D01*
X11858374Y-9363510D01*
X11841857Y-9367581D01*
X11826795Y-9375486D01*
X11814062Y-9386767D01*
X11804398Y-9400767D01*
X11798366Y-9416673D01*
X11798366Y-9416673D01*
X11796315Y-9433560D01*
X11798366Y-9450447D01*
X11798366Y-9450448D01*
X11802722Y-9461932D01*
X11803258Y-9468899D01*
X11799943Y-9475049D01*
X11795677Y-9477680D01*
X11795698Y-9477722D01*
X11795186Y-9477983D01*
X11794960Y-9478122D01*
X11794829Y-9478165D01*
X11784823Y-9483263D01*
X11776883Y-9491203D01*
X11771785Y-9501209D01*
X11771408Y-9503588D01*
X11768415Y-9509901D01*
X11767929Y-9510416D01*
X11685814Y-9592530D01*
X11683936Y-9594072D01*
X11682747Y-9594867D01*
X11680468Y-9598276D01*
X11680468Y-9598277D01*
X11676912Y-9603599D01*
X11676160Y-9607377D01*
X11675211Y-9612149D01*
X11674863Y-9613900D01*
X11675142Y-9615302D01*
X11675380Y-9617721D01*
X11675380Y-9702600D01*
X11673411Y-9709304D01*
X11668131Y-9713879D01*
X11662980Y-9715000D01*
X11575008Y-9715000D01*
X11568305Y-9713032D01*
X11563729Y-9707751D01*
X11562735Y-9700835D01*
X11562794Y-9700463D01*
X11566531Y-9679109D01*
X11582797Y-9586160D01*
X11583343Y-9584102D01*
X11598098Y-9543120D01*
X11598240Y-9542759D01*
X11598856Y-9541337D01*
X11613084Y-9508458D01*
X11613957Y-9506798D01*
X11760628Y-9272917D01*
X11761831Y-9271307D01*
X11790527Y-9238757D01*
X11792414Y-9237018D01*
X12048329Y-9046246D01*
X12051987Y-9044369D01*
X12130649Y-9019397D01*
X12137634Y-9019245D01*
X12143593Y-9022893D01*
G37*
G04 #@! TD.AperFunction*
G04 #@! TA.AperFunction,Conductor*
G36*
X13226873Y-10160773D02*
G01*
X13232467Y-10164960D01*
X13234908Y-10171507D01*
X13234940Y-10172391D01*
X13234940Y-10212525D01*
X13232971Y-10219228D01*
X13232572Y-10219813D01*
X13232302Y-10220184D01*
X13227205Y-10230189D01*
X13225448Y-10241280D01*
X13225448Y-10241280D01*
X13227205Y-10252371D01*
X13232303Y-10262377D01*
X13234899Y-10264973D01*
X13238247Y-10271105D01*
X13237749Y-10278074D01*
X13235217Y-10282178D01*
X13194860Y-10325640D01*
X13194860Y-10701134D01*
X13192891Y-10707838D01*
X13187611Y-10712413D01*
X13183046Y-10713070D01*
X13105008Y-10791107D01*
X13098876Y-10794456D01*
X13091907Y-10793957D01*
X13087472Y-10791107D01*
X13069653Y-10773288D01*
X13066304Y-10767156D01*
X13066803Y-10760187D01*
X13069653Y-10755752D01*
X13147092Y-10678312D01*
X13147092Y-10678312D01*
X13134694Y-10671685D01*
X13115843Y-10665967D01*
X13096240Y-10664036D01*
X13076637Y-10665967D01*
X13057786Y-10671685D01*
X13054525Y-10673428D01*
X13047685Y-10674852D01*
X13041160Y-10672352D01*
X13037023Y-10666722D01*
X13036280Y-10662492D01*
X13036280Y-10605216D01*
X13038248Y-10598512D01*
X13043529Y-10593936D01*
X13050445Y-10592942D01*
X13051646Y-10593176D01*
X13062334Y-10595810D01*
X13079346Y-10595810D01*
X13095862Y-10591739D01*
X13105858Y-10586493D01*
X13110925Y-10583834D01*
X13110925Y-10583833D01*
X13110925Y-10583833D01*
X13123658Y-10572553D01*
X13133322Y-10558553D01*
X13139354Y-10542647D01*
X13141404Y-10525760D01*
X13139354Y-10508873D01*
X13133322Y-10492967D01*
X13132182Y-10491315D01*
X13128296Y-10485686D01*
X13123658Y-10478967D01*
X13110925Y-10467687D01*
X13103877Y-10463987D01*
X13098856Y-10459129D01*
X13097240Y-10453008D01*
X13097240Y-10420361D01*
X13097478Y-10417942D01*
X13097757Y-10416540D01*
X13097240Y-10413940D01*
X13097240Y-10413940D01*
X13095708Y-10406239D01*
X13095061Y-10405271D01*
X13092973Y-10398603D01*
X13094821Y-10391865D01*
X13100019Y-10387196D01*
X13106916Y-10386078D01*
X13107311Y-10386134D01*
X13108940Y-10386392D01*
X13108940Y-10386392D01*
X13108940Y-10386392D01*
X13120031Y-10384635D01*
X13120031Y-10384635D01*
X13120031Y-10384635D01*
X13130037Y-10379537D01*
X13137977Y-10371597D01*
X13143075Y-10361591D01*
X13143075Y-10361591D01*
X13143075Y-10361591D01*
X13144832Y-10350500D01*
X13144832Y-10350500D01*
X13143075Y-10339409D01*
X13137977Y-10329403D01*
X13130036Y-10321463D01*
X13120031Y-10316365D01*
X13108940Y-10314608D01*
X13108940Y-10314608D01*
X13097849Y-10316365D01*
X13092539Y-10319070D01*
X13085672Y-10320360D01*
X13079198Y-10317732D01*
X13075172Y-10312021D01*
X13074873Y-10305041D01*
X13078141Y-10299254D01*
X13213772Y-10163623D01*
X13219904Y-10160275D01*
X13226873Y-10160773D01*
G37*
G04 #@! TD.AperFunction*
G04 #@! TA.AperFunction,Conductor*
G36*
X15026804Y-10436969D02*
G01*
X15031379Y-10442249D01*
X15032500Y-10447400D01*
X15032500Y-10540000D01*
X15089783Y-10540000D01*
X15089784Y-10540000D01*
X15095737Y-10539360D01*
X15095737Y-10539360D01*
X15101089Y-10537364D01*
X15108058Y-10536865D01*
X15114190Y-10540214D01*
X15114190Y-10540214D01*
X15138848Y-10564872D01*
X15142197Y-10571004D01*
X15142480Y-10573640D01*
X15142480Y-10618909D01*
X15140511Y-10625612D01*
X15138848Y-10627677D01*
X15098940Y-10667585D01*
X15092807Y-10670933D01*
X15085838Y-10670435D01*
X15080245Y-10666248D01*
X15077803Y-10659701D01*
X15077869Y-10658816D01*
X15077772Y-10658816D01*
X15077772Y-10657840D01*
X15076015Y-10646749D01*
X15070917Y-10636743D01*
X15062976Y-10628803D01*
X15052971Y-10623705D01*
X15041880Y-10621948D01*
X15041880Y-10621948D01*
X15030789Y-10623705D01*
X15023245Y-10627549D01*
X15017615Y-10628900D01*
X14981849Y-10628900D01*
X14975145Y-10626932D01*
X14970570Y-10621651D01*
X14969575Y-10614735D01*
X14970145Y-10612405D01*
X14975082Y-10598295D01*
X14975082Y-10598294D01*
X14976975Y-10581500D01*
X14976975Y-10581500D01*
X14975082Y-10564706D01*
X14972209Y-10556496D01*
X14971853Y-10549518D01*
X14975326Y-10543455D01*
X14981525Y-10540232D01*
X14982348Y-10540152D01*
X14982500Y-10540000D01*
X14982500Y-10447400D01*
X14984468Y-10440696D01*
X14989749Y-10436121D01*
X14994900Y-10435000D01*
X15020100Y-10435000D01*
X15026804Y-10436969D01*
G37*
G04 #@! TD.AperFunction*
G04 #@! TA.AperFunction,Conductor*
G36*
X14858750Y-10333110D02*
G01*
X14859398Y-10333714D01*
X14898851Y-10373166D01*
X14902199Y-10379299D01*
X14901701Y-10386268D01*
X14897514Y-10391861D01*
X14894281Y-10394281D01*
X14885665Y-10405791D01*
X14884784Y-10408152D01*
X14880597Y-10413745D01*
X14877262Y-10415522D01*
X14868828Y-10418473D01*
X14868828Y-10418473D01*
X14901500Y-10451145D01*
X14905963Y-10455608D01*
X14909312Y-10461741D01*
X14908814Y-10468710D01*
X14904626Y-10474303D01*
X14900760Y-10475937D01*
X14900844Y-10476198D01*
X14895320Y-10477994D01*
X14892032Y-10482519D01*
X14891500Y-10483251D01*
X14891500Y-10489749D01*
X14893838Y-10492967D01*
X14894963Y-10494516D01*
X14895320Y-10495007D01*
X14899916Y-10496500D01*
X14899916Y-10496500D01*
X14903084Y-10496500D01*
X14903084Y-10496500D01*
X14907680Y-10495007D01*
X14911500Y-10489749D01*
X14911500Y-10489749D01*
X14912107Y-10487881D01*
X14912410Y-10487980D01*
X14913468Y-10484377D01*
X14918749Y-10479802D01*
X14925665Y-10478807D01*
X14932020Y-10481710D01*
X14932668Y-10482313D01*
X14966271Y-10515916D01*
X14969619Y-10522048D01*
X14969121Y-10529017D01*
X14966271Y-10533452D01*
X14965723Y-10534000D01*
X14966271Y-10534548D01*
X14969619Y-10540680D01*
X14969121Y-10547650D01*
X14966271Y-10552084D01*
X14932668Y-10585687D01*
X14926536Y-10589036D01*
X14919567Y-10588537D01*
X14913973Y-10584350D01*
X14912364Y-10580035D01*
X14912107Y-10580119D01*
X14911500Y-10578251D01*
X14907680Y-10572994D01*
X14903084Y-10571500D01*
X14903084Y-10571500D01*
X14899916Y-10571500D01*
X14899916Y-10571500D01*
X14895320Y-10572994D01*
X14892327Y-10577112D01*
X14891500Y-10578251D01*
X14891500Y-10584749D01*
X14895320Y-10590007D01*
X14899916Y-10591500D01*
X14900844Y-10591802D01*
X14900736Y-10592136D01*
X14905445Y-10594366D01*
X14909141Y-10600296D01*
X14909043Y-10607282D01*
X14905964Y-10612392D01*
X14901500Y-10616855D01*
X14893087Y-10625268D01*
X14886955Y-10628617D01*
X14884319Y-10628900D01*
X14823752Y-10628900D01*
X14817048Y-10626932D01*
X14814983Y-10625268D01*
X14802097Y-10612382D01*
X14798749Y-10606250D01*
X14799247Y-10599281D01*
X14803435Y-10593687D01*
X14807245Y-10592077D01*
X14807156Y-10591802D01*
X14808084Y-10591500D01*
X14812680Y-10590007D01*
X14816500Y-10584749D01*
X14816500Y-10581500D01*
X14841855Y-10581500D01*
X14854000Y-10593645D01*
X14866145Y-10581500D01*
X14854000Y-10569355D01*
X14841855Y-10581500D01*
X14816500Y-10581500D01*
X14816500Y-10578251D01*
X14812680Y-10572994D01*
X14811324Y-10572553D01*
X14808084Y-10571500D01*
X14808084Y-10571500D01*
X14804916Y-10571500D01*
X14804916Y-10571500D01*
X14798452Y-10573600D01*
X14798370Y-10573349D01*
X14794657Y-10574674D01*
X14787852Y-10573091D01*
X14782983Y-10568080D01*
X14781550Y-10562294D01*
X14781550Y-10551131D01*
X14783518Y-10544427D01*
X14788799Y-10539851D01*
X14795715Y-10538857D01*
X14802070Y-10541760D01*
X14802718Y-10542363D01*
X14806500Y-10546145D01*
X14818645Y-10534000D01*
X14889355Y-10534000D01*
X14901500Y-10546145D01*
X14913645Y-10534000D01*
X14901500Y-10521855D01*
X14889355Y-10534000D01*
X14818645Y-10534000D01*
X14806500Y-10521855D01*
X14802718Y-10525637D01*
X14796586Y-10528986D01*
X14789617Y-10528487D01*
X14784023Y-10524300D01*
X14781582Y-10517754D01*
X14781550Y-10516869D01*
X14781550Y-10505706D01*
X14783518Y-10499002D01*
X14788799Y-10494426D01*
X14795715Y-10493432D01*
X14798411Y-10494526D01*
X14798452Y-10494400D01*
X14800320Y-10495006D01*
X14800320Y-10495007D01*
X14804916Y-10496500D01*
X14804916Y-10496500D01*
X14808084Y-10496500D01*
X14808084Y-10496500D01*
X14812680Y-10495007D01*
X14816500Y-10489749D01*
X14816500Y-10486500D01*
X14841855Y-10486500D01*
X14854000Y-10498645D01*
X14866145Y-10486500D01*
X14854000Y-10474355D01*
X14841855Y-10486500D01*
X14816500Y-10486500D01*
X14816500Y-10483251D01*
X14812680Y-10477994D01*
X14808084Y-10476500D01*
X14807156Y-10476198D01*
X14807264Y-10475865D01*
X14802550Y-10473630D01*
X14798858Y-10467699D01*
X14798958Y-10460712D01*
X14802036Y-10455608D01*
X14839171Y-10418473D01*
X14839171Y-10418473D01*
X14829093Y-10414947D01*
X14823416Y-10410875D01*
X14820841Y-10404379D01*
X14822186Y-10397523D01*
X14824420Y-10394475D01*
X14827795Y-10391100D01*
X14829675Y-10389558D01*
X14830030Y-10389320D01*
X14830863Y-10388763D01*
X14836698Y-10380031D01*
X14838230Y-10372330D01*
X14838230Y-10372330D01*
X14838247Y-10372245D01*
X14838349Y-10371733D01*
X14838349Y-10371732D01*
X14838747Y-10369730D01*
X14838747Y-10369730D01*
X14838468Y-10368328D01*
X14838230Y-10365909D01*
X14838230Y-10342482D01*
X14840198Y-10335778D01*
X14845479Y-10331202D01*
X14852395Y-10330208D01*
X14858750Y-10333110D01*
G37*
G04 #@! TD.AperFunction*
G04 #@! TA.AperFunction,Conductor*
G36*
X15432054Y-10383930D02*
G01*
X15437648Y-10388117D01*
X15440090Y-10394663D01*
X15439426Y-10399644D01*
X15423715Y-10444541D01*
X15423546Y-10444973D01*
X15403696Y-10490469D01*
X15403495Y-10490887D01*
X15380302Y-10534769D01*
X15380071Y-10535171D01*
X15363638Y-10561324D01*
X15363335Y-10561763D01*
X15342767Y-10588985D01*
X15337155Y-10593147D01*
X15330184Y-10593614D01*
X15324066Y-10590239D01*
X15320745Y-10584091D01*
X15321275Y-10577125D01*
X15323754Y-10570587D01*
X15325804Y-10553700D01*
X15323754Y-10536813D01*
X15323131Y-10535171D01*
X15320973Y-10529479D01*
X15317722Y-10520907D01*
X15316001Y-10518415D01*
X15313522Y-10514823D01*
X15308058Y-10506907D01*
X15295325Y-10495627D01*
X15288277Y-10491927D01*
X15283256Y-10487069D01*
X15281640Y-10480948D01*
X15281640Y-10447720D01*
X15283608Y-10441016D01*
X15288889Y-10436441D01*
X15294040Y-10435320D01*
X15342859Y-10435320D01*
X15345278Y-10435558D01*
X15346680Y-10435837D01*
X15356981Y-10433788D01*
X15363509Y-10429426D01*
X15363509Y-10429426D01*
X15364607Y-10428692D01*
X15365713Y-10427953D01*
X15366507Y-10426765D01*
X15368049Y-10424886D01*
X15396346Y-10396589D01*
X15402478Y-10393241D01*
X15403170Y-10393111D01*
X15408571Y-10392255D01*
X15410185Y-10391433D01*
X15418576Y-10387157D01*
X15418576Y-10387157D01*
X15418577Y-10387157D01*
X15418953Y-10386781D01*
X15425085Y-10383432D01*
X15432054Y-10383930D01*
G37*
G04 #@! TD.AperFunction*
G04 #@! TA.AperFunction,Conductor*
G36*
X15227410Y-9990701D02*
G01*
X15229007Y-9992636D01*
X15229068Y-9992585D01*
X15229765Y-9993416D01*
X15230521Y-9994050D01*
X15234391Y-9999867D01*
X15234950Y-10003549D01*
X15234950Y-10076975D01*
X15236113Y-10082823D01*
X15236113Y-10082823D01*
X15240545Y-10089455D01*
X15244637Y-10092190D01*
X15249118Y-10097551D01*
X15249988Y-10104484D01*
X15246973Y-10110786D01*
X15244637Y-10112810D01*
X15240545Y-10115545D01*
X15236113Y-10122177D01*
X15236113Y-10122177D01*
X15234950Y-10128025D01*
X15234950Y-10245156D01*
X15234911Y-10245850D01*
X15234875Y-10246168D01*
X15234443Y-10250000D01*
X15234443Y-10250000D01*
X15236463Y-10267925D01*
X15236463Y-10267925D01*
X15242421Y-10284952D01*
X15246834Y-10291975D01*
X15252018Y-10300226D01*
X15264774Y-10312982D01*
X15271759Y-10317371D01*
X15276388Y-10322604D01*
X15277452Y-10329509D01*
X15276210Y-10333499D01*
X15271905Y-10341949D01*
X15270148Y-10353040D01*
X15270148Y-10353040D01*
X15271905Y-10364131D01*
X15272088Y-10364491D01*
X15272179Y-10364975D01*
X15272206Y-10365059D01*
X15272195Y-10365062D01*
X15273377Y-10371358D01*
X15270750Y-10377832D01*
X15265039Y-10381857D01*
X15261039Y-10382520D01*
X15259061Y-10382520D01*
X15256642Y-10382282D01*
X15255964Y-10382147D01*
X15255240Y-10382003D01*
X15255240Y-10382003D01*
X15252640Y-10382520D01*
X15244939Y-10384052D01*
X15236207Y-10389887D01*
X15230372Y-10398619D01*
X15230372Y-10398619D01*
X15230372Y-10398619D01*
X15228856Y-10406239D01*
X15228323Y-10408920D01*
X15228602Y-10410322D01*
X15228840Y-10412741D01*
X15228840Y-10480948D01*
X15226871Y-10487652D01*
X15222203Y-10491928D01*
X15215155Y-10495627D01*
X15202422Y-10506907D01*
X15192758Y-10520907D01*
X15192603Y-10521203D01*
X15192432Y-10521380D01*
X15192332Y-10521524D01*
X15192308Y-10521508D01*
X15187744Y-10526224D01*
X15180942Y-10527822D01*
X15174356Y-10525488D01*
X15172855Y-10524208D01*
X15150652Y-10502005D01*
X15147303Y-10495873D01*
X15147020Y-10493237D01*
X15147020Y-10267511D01*
X15148988Y-10260808D01*
X15150652Y-10258743D01*
X15173195Y-10236200D01*
X15196456Y-10212939D01*
X15198334Y-10211398D01*
X15199523Y-10210603D01*
X15200412Y-10209273D01*
X15200412Y-10209273D01*
X15200996Y-10208399D01*
X15200996Y-10208399D01*
X15205358Y-10201871D01*
X15207407Y-10191570D01*
X15207128Y-10190167D01*
X15206890Y-10187748D01*
X15206890Y-10000073D01*
X15208858Y-9993369D01*
X15214139Y-9988793D01*
X15221055Y-9987799D01*
X15227410Y-9990701D01*
G37*
G04 #@! TD.AperFunction*
G04 #@! TA.AperFunction,Conductor*
G36*
X14712412Y-8946969D02*
G01*
X14716988Y-8952249D01*
X14717982Y-8959165D01*
X14715080Y-8965520D01*
X14711338Y-8968449D01*
X14706403Y-8970963D01*
X14698463Y-8978903D01*
X14693365Y-8988909D01*
X14691608Y-9000000D01*
X14691608Y-9000000D01*
X14693365Y-9011091D01*
X14698463Y-9021097D01*
X14700122Y-9022756D01*
X14703470Y-9028888D01*
X14702972Y-9035857D01*
X14698785Y-9041451D01*
X14692238Y-9043892D01*
X14689414Y-9043771D01*
X14678660Y-9042068D01*
X14678660Y-9042068D01*
X14667569Y-9043825D01*
X14659144Y-9048117D01*
X14652278Y-9049407D01*
X14645804Y-9046779D01*
X14644747Y-9045837D01*
X14643592Y-9044681D01*
X14643769Y-9044503D01*
X14640392Y-9040463D01*
X14639521Y-9033531D01*
X14640713Y-9029885D01*
X14644215Y-9023011D01*
X14644234Y-9022893D01*
X14645972Y-9011920D01*
X14645972Y-9011920D01*
X14644215Y-9000829D01*
X14639117Y-8990823D01*
X14631176Y-8982883D01*
X14621171Y-8977785D01*
X14610080Y-8976028D01*
X14610080Y-8976028D01*
X14598989Y-8977785D01*
X14588983Y-8982883D01*
X14581043Y-8990823D01*
X14575945Y-9000829D01*
X14574188Y-9011920D01*
X14574188Y-9011920D01*
X14575945Y-9023011D01*
X14576174Y-9023717D01*
X14576374Y-9030702D01*
X14572767Y-9036685D01*
X14566497Y-9039768D01*
X14564381Y-9039950D01*
X14508025Y-9039950D01*
X14502177Y-9041113D01*
X14502177Y-9041113D01*
X14495545Y-9045545D01*
X14491113Y-9052177D01*
X14491113Y-9052177D01*
X14489950Y-9058025D01*
X14489950Y-9241975D01*
X14491113Y-9247823D01*
X14491113Y-9247823D01*
X14495545Y-9254455D01*
X14502177Y-9258887D01*
X14502177Y-9258887D01*
X14508025Y-9260050D01*
X14508025Y-9260050D01*
X14508025Y-9260050D01*
X14631975Y-9260050D01*
X14631975Y-9260050D01*
X14633659Y-9259715D01*
X14637823Y-9258887D01*
X14637823Y-9258887D01*
X14637823Y-9258887D01*
X14644455Y-9254455D01*
X14648887Y-9247823D01*
X14648887Y-9247823D01*
X14648887Y-9247823D01*
X14649914Y-9242660D01*
X14650050Y-9241975D01*
X14650050Y-9123404D01*
X14652018Y-9116700D01*
X14657299Y-9112124D01*
X14664215Y-9111130D01*
X14666610Y-9111890D01*
X14666641Y-9111794D01*
X14667569Y-9112095D01*
X14667569Y-9112095D01*
X14671266Y-9112681D01*
X14678660Y-9113852D01*
X14678660Y-9113852D01*
X14678660Y-9113852D01*
X14689751Y-9112095D01*
X14689751Y-9112095D01*
X14689751Y-9112095D01*
X14699757Y-9106997D01*
X14707697Y-9099057D01*
X14712795Y-9089051D01*
X14712795Y-9089051D01*
X14712795Y-9089051D01*
X14714552Y-9077960D01*
X14714552Y-9077960D01*
X14712795Y-9066869D01*
X14707697Y-9056863D01*
X14706038Y-9055204D01*
X14702689Y-9049072D01*
X14703188Y-9042103D01*
X14707375Y-9036509D01*
X14713921Y-9034068D01*
X14716746Y-9034189D01*
X14727500Y-9035892D01*
X14727500Y-9035892D01*
X14727500Y-9035892D01*
X14738591Y-9034135D01*
X14738591Y-9034135D01*
X14738591Y-9034135D01*
X14748597Y-9029037D01*
X14756537Y-9021097D01*
X14761635Y-9011091D01*
X14761635Y-9011091D01*
X14761635Y-9011091D01*
X14763392Y-9000000D01*
X14763392Y-9000000D01*
X14761635Y-8988909D01*
X14756537Y-8978903D01*
X14748596Y-8970963D01*
X14743662Y-8968449D01*
X14738582Y-8963651D01*
X14736903Y-8956869D01*
X14739156Y-8950256D01*
X14744628Y-8945910D01*
X14749291Y-8945000D01*
X14828525Y-8945000D01*
X14831434Y-8945346D01*
X14987072Y-8982914D01*
X14993127Y-8986400D01*
X14996336Y-8992607D01*
X14995680Y-8999563D01*
X14995211Y-9000597D01*
X14992505Y-9005909D01*
X14990748Y-9017000D01*
X14990748Y-9017000D01*
X14992112Y-9025610D01*
X14991216Y-9032540D01*
X14986717Y-9037885D01*
X14980042Y-9039949D01*
X14979864Y-9039950D01*
X14968025Y-9039950D01*
X14962177Y-9041113D01*
X14962177Y-9041113D01*
X14955545Y-9045545D01*
X14951113Y-9052177D01*
X14951113Y-9052177D01*
X14949950Y-9058025D01*
X14949950Y-9241975D01*
X14951113Y-9247823D01*
X14951113Y-9247823D01*
X14955545Y-9254455D01*
X14962177Y-9258887D01*
X14962177Y-9258887D01*
X14968025Y-9260050D01*
X14968025Y-9260050D01*
X14968025Y-9260050D01*
X15071013Y-9260050D01*
X15077717Y-9262019D01*
X15082292Y-9267299D01*
X15083287Y-9274215D01*
X15083260Y-9274390D01*
X15082188Y-9281160D01*
X15082188Y-9281160D01*
X15083945Y-9292251D01*
X15089043Y-9302257D01*
X15096983Y-9310197D01*
X15106989Y-9315295D01*
X15118080Y-9317052D01*
X15118080Y-9317052D01*
X15118080Y-9317052D01*
X15129171Y-9315295D01*
X15129171Y-9315295D01*
X15129171Y-9315295D01*
X15139177Y-9310197D01*
X15147117Y-9302257D01*
X15152215Y-9292251D01*
X15152215Y-9292251D01*
X15152215Y-9292251D01*
X15153972Y-9281160D01*
X15153972Y-9281160D01*
X15152215Y-9270069D01*
X15147117Y-9260063D01*
X15139176Y-9252123D01*
X15132415Y-9248678D01*
X15129171Y-9247025D01*
X15129171Y-9247025D01*
X15129171Y-9247025D01*
X15120510Y-9245653D01*
X15114197Y-9242660D01*
X15110504Y-9236729D01*
X15110050Y-9233406D01*
X15110050Y-9104621D01*
X15112018Y-9097918D01*
X15117299Y-9093342D01*
X15124215Y-9092348D01*
X15130570Y-9095250D01*
X15131218Y-9095853D01*
X15168265Y-9132900D01*
X15171613Y-9139032D01*
X15171115Y-9146002D01*
X15169702Y-9148712D01*
X15162278Y-9159467D01*
X15162278Y-9159467D01*
X15156246Y-9175373D01*
X15156246Y-9175373D01*
X15154195Y-9192260D01*
X15156246Y-9209147D01*
X15156246Y-9209147D01*
X15162278Y-9225053D01*
X15167695Y-9232900D01*
X15171942Y-9239053D01*
X15182510Y-9248416D01*
X15184675Y-9250334D01*
X15197105Y-9256857D01*
X15199737Y-9258239D01*
X15216254Y-9262310D01*
X15233266Y-9262310D01*
X15243287Y-9259840D01*
X15245039Y-9259408D01*
X15252019Y-9259715D01*
X15257726Y-9263747D01*
X15260346Y-9270224D01*
X15260407Y-9271411D01*
X15261000Y-9469000D01*
X15263134Y-9471139D01*
X15266477Y-9477274D01*
X15265972Y-9484243D01*
X15263126Y-9488666D01*
X15252018Y-9499774D01*
X15242421Y-9515048D01*
X15236463Y-9532075D01*
X15236463Y-9532075D01*
X15234443Y-9550000D01*
X15234443Y-9550000D01*
X15234911Y-9554150D01*
X15234950Y-9554844D01*
X15234950Y-9671975D01*
X15236113Y-9677823D01*
X15236113Y-9677823D01*
X15240545Y-9684455D01*
X15244637Y-9687190D01*
X15249118Y-9692551D01*
X15249988Y-9699484D01*
X15246973Y-9705786D01*
X15244637Y-9707810D01*
X15240545Y-9710545D01*
X15236113Y-9717177D01*
X15236113Y-9717177D01*
X15234950Y-9723025D01*
X15234950Y-9723025D01*
X15234950Y-9863251D01*
X15232981Y-9869955D01*
X15230521Y-9872750D01*
X15229765Y-9873384D01*
X15229068Y-9874215D01*
X15228861Y-9874041D01*
X15224971Y-9877749D01*
X15218110Y-9879071D01*
X15211624Y-9876474D01*
X15207572Y-9870782D01*
X15206890Y-9866727D01*
X15206890Y-9596311D01*
X15207128Y-9593892D01*
X15207227Y-9593394D01*
X15207407Y-9592490D01*
X15205358Y-9582189D01*
X15200996Y-9575661D01*
X15200996Y-9575661D01*
X15200841Y-9575429D01*
X15200840Y-9575428D01*
X15199523Y-9573457D01*
X15199523Y-9573457D01*
X15199523Y-9573456D01*
X15198334Y-9572662D01*
X15196455Y-9571120D01*
X15180645Y-9555310D01*
X15164169Y-9538834D01*
X15160821Y-9532702D01*
X15160690Y-9532009D01*
X15159835Y-9526609D01*
X15159835Y-9526609D01*
X15159835Y-9526608D01*
X15154737Y-9516603D01*
X15146796Y-9508663D01*
X15136791Y-9503565D01*
X15125700Y-9501808D01*
X15125700Y-9501808D01*
X15114609Y-9503565D01*
X15104603Y-9508663D01*
X15096663Y-9516603D01*
X15091565Y-9526609D01*
X15089808Y-9537700D01*
X15089808Y-9537700D01*
X15089927Y-9538451D01*
X15090665Y-9543110D01*
X15089770Y-9550040D01*
X15085270Y-9555385D01*
X15078595Y-9557449D01*
X15078418Y-9557450D01*
X15070273Y-9557450D01*
X15051243Y-9561495D01*
X15033470Y-9569408D01*
X15017730Y-9580843D01*
X15017730Y-9580844D01*
X15004713Y-9595301D01*
X14994986Y-9612149D01*
X14994986Y-9612149D01*
X14988974Y-9630652D01*
X14986940Y-9650000D01*
X14988974Y-9669348D01*
X14994986Y-9687851D01*
X14994986Y-9687851D01*
X15001517Y-9699163D01*
X15004713Y-9704699D01*
X15007514Y-9707810D01*
X15010287Y-9710890D01*
X15013310Y-9717189D01*
X15012448Y-9724123D01*
X15007974Y-9729489D01*
X15005716Y-9730430D01*
X15005805Y-9730646D01*
X15004677Y-9731113D01*
X15002542Y-9732540D01*
X14995874Y-9734628D01*
X14989136Y-9732779D01*
X14986885Y-9730998D01*
X14980720Y-9724833D01*
X14962131Y-9706244D01*
X14961767Y-9705846D01*
X14959148Y-9702725D01*
X14959147Y-9702725D01*
X14955619Y-9700688D01*
X14955163Y-9700397D01*
X14951826Y-9698061D01*
X14951368Y-9697847D01*
X14949621Y-9697123D01*
X14949146Y-9696950D01*
X14945133Y-9696243D01*
X14944605Y-9696126D01*
X14940670Y-9695071D01*
X14937061Y-9695387D01*
X14936611Y-9695426D01*
X14936071Y-9695450D01*
X14932466Y-9695450D01*
X14925762Y-9693482D01*
X14921186Y-9688201D01*
X14920192Y-9681285D01*
X14922155Y-9676161D01*
X14922984Y-9674921D01*
X14924868Y-9672101D01*
X14926917Y-9661800D01*
X14926638Y-9660397D01*
X14926400Y-9657978D01*
X14926400Y-9646335D01*
X14928368Y-9639631D01*
X14933649Y-9635056D01*
X14936381Y-9634174D01*
X14937823Y-9633887D01*
X14944455Y-9629455D01*
X14948887Y-9622823D01*
X14948887Y-9622823D01*
X14948887Y-9622823D01*
X14950050Y-9616975D01*
X14950050Y-9616975D01*
X14950050Y-9458025D01*
X14950050Y-9458025D01*
X14948887Y-9452177D01*
X14948887Y-9452177D01*
X14944455Y-9445545D01*
X14937823Y-9441113D01*
X14937823Y-9441113D01*
X14931975Y-9439950D01*
X14931975Y-9439950D01*
X14910401Y-9439950D01*
X14903697Y-9437982D01*
X14901633Y-9436318D01*
X14882545Y-9417230D01*
X14881003Y-9415351D01*
X14879483Y-9413077D01*
X14879483Y-9413077D01*
X14870751Y-9407242D01*
X14866466Y-9406390D01*
X14861647Y-9405431D01*
X14860450Y-9405193D01*
X14860450Y-9405193D01*
X14859559Y-9405370D01*
X14859048Y-9405472D01*
X14856629Y-9405710D01*
X14671231Y-9405710D01*
X14668812Y-9405472D01*
X14668301Y-9405370D01*
X14667410Y-9405193D01*
X14667410Y-9405193D01*
X14662259Y-9406217D01*
X14657109Y-9407242D01*
X14654939Y-9408692D01*
X14650581Y-9411604D01*
X14650581Y-9411604D01*
X14650264Y-9411815D01*
X14648377Y-9413077D01*
X14647513Y-9413940D01*
X14647470Y-9413897D01*
X14645805Y-9415654D01*
X14634281Y-9424281D01*
X14625664Y-9435792D01*
X14625642Y-9435833D01*
X14623527Y-9438657D01*
X14602387Y-9459797D01*
X14596255Y-9463146D01*
X14589286Y-9462647D01*
X14584851Y-9459797D01*
X14580376Y-9455323D01*
X14570371Y-9450225D01*
X14559280Y-9448468D01*
X14559280Y-9448468D01*
X14548189Y-9450225D01*
X14538183Y-9455323D01*
X14530243Y-9463263D01*
X14525145Y-9473269D01*
X14523388Y-9484360D01*
X14523388Y-9484360D01*
X14525145Y-9495451D01*
X14530243Y-9505457D01*
X14538183Y-9513397D01*
X14541422Y-9515048D01*
X14548189Y-9518495D01*
X14548189Y-9518495D01*
X14548189Y-9518495D01*
X14548189Y-9518495D01*
X14556104Y-9519749D01*
X14559171Y-9520235D01*
X14565485Y-9523228D01*
X14569178Y-9529159D01*
X14569393Y-9530062D01*
X14569652Y-9531360D01*
X14569890Y-9533780D01*
X14569890Y-9700519D01*
X14567921Y-9707223D01*
X14566258Y-9709287D01*
X14551977Y-9723568D01*
X14545844Y-9726917D01*
X14543209Y-9727200D01*
X14209591Y-9727200D01*
X14202888Y-9725232D01*
X14200823Y-9723568D01*
X14165132Y-9687877D01*
X14161783Y-9681744D01*
X14161500Y-9679109D01*
X14161500Y-9544184D01*
X14162851Y-9538555D01*
X14166695Y-9531011D01*
X14166695Y-9531011D01*
X14166695Y-9531011D01*
X14168452Y-9519920D01*
X14168452Y-9519920D01*
X14166695Y-9508829D01*
X14161597Y-9498823D01*
X14153656Y-9490883D01*
X14143651Y-9485785D01*
X14132560Y-9484028D01*
X14132560Y-9484028D01*
X14121469Y-9485785D01*
X14111463Y-9490883D01*
X14103523Y-9498823D01*
X14098425Y-9508829D01*
X14096668Y-9519920D01*
X14096668Y-9519920D01*
X14098425Y-9531011D01*
X14103523Y-9541017D01*
X14105068Y-9542562D01*
X14108417Y-9548694D01*
X14108700Y-9551330D01*
X14108700Y-9691358D01*
X14108462Y-9693777D01*
X14108183Y-9695180D01*
X14108183Y-9695180D01*
X14108700Y-9697780D01*
X14110232Y-9705481D01*
X14116067Y-9714213D01*
X14116067Y-9714213D01*
X14116496Y-9714500D01*
X14117255Y-9715008D01*
X14119134Y-9716550D01*
X14144177Y-9741592D01*
X14147525Y-9747724D01*
X14147027Y-9754693D01*
X14142839Y-9760287D01*
X14136293Y-9762728D01*
X14135408Y-9762760D01*
X14052111Y-9762760D01*
X14045408Y-9760792D01*
X14043343Y-9759128D01*
X14027972Y-9743757D01*
X14024623Y-9737624D01*
X14024340Y-9734989D01*
X14024340Y-9650275D01*
X14026308Y-9643572D01*
X14026709Y-9642986D01*
X14026977Y-9642617D01*
X14026977Y-9642617D01*
X14027385Y-9641816D01*
X14029680Y-9637311D01*
X14032075Y-9632611D01*
X14032075Y-9632611D01*
X14032075Y-9632611D01*
X14033832Y-9621520D01*
X14033832Y-9621520D01*
X14032075Y-9610429D01*
X14026977Y-9600423D01*
X14019036Y-9592483D01*
X14009031Y-9587385D01*
X13997940Y-9585628D01*
X13997940Y-9585628D01*
X13986849Y-9587385D01*
X13976843Y-9592483D01*
X13968903Y-9600423D01*
X13963805Y-9610429D01*
X13962048Y-9621520D01*
X13962048Y-9621520D01*
X13963805Y-9632611D01*
X13968902Y-9642616D01*
X13969171Y-9642986D01*
X13971520Y-9649567D01*
X13971540Y-9650275D01*
X13971540Y-9657389D01*
X13969571Y-9664092D01*
X13964291Y-9668668D01*
X13957375Y-9669662D01*
X13951020Y-9666760D01*
X13950372Y-9666157D01*
X13905663Y-9621447D01*
X13902314Y-9615315D01*
X13902812Y-9608346D01*
X13905662Y-9603911D01*
X13910137Y-9599437D01*
X13915235Y-9589431D01*
X13916579Y-9580946D01*
X13919572Y-9574633D01*
X13925503Y-9570940D01*
X13926884Y-9570639D01*
X13935371Y-9569295D01*
X13945377Y-9564197D01*
X13953317Y-9556257D01*
X13955827Y-9551330D01*
X13956565Y-9549883D01*
X13961362Y-9544803D01*
X13966519Y-9543408D01*
X13966496Y-9543265D01*
X13978551Y-9541355D01*
X13978551Y-9541355D01*
X13978551Y-9541355D01*
X13985726Y-9537700D01*
X13987231Y-9536933D01*
X13994097Y-9535643D01*
X13998489Y-9536933D01*
X14007169Y-9541355D01*
X14018260Y-9543112D01*
X14018260Y-9543112D01*
X14018260Y-9543112D01*
X14029351Y-9541355D01*
X14029351Y-9541355D01*
X14029351Y-9541355D01*
X14039357Y-9536257D01*
X14047297Y-9528317D01*
X14052395Y-9518311D01*
X14052395Y-9518311D01*
X14052395Y-9518311D01*
X14054152Y-9507220D01*
X14054152Y-9507220D01*
X14052395Y-9496129D01*
X14047297Y-9486123D01*
X14039356Y-9478183D01*
X14031540Y-9474200D01*
X14189556Y-9474200D01*
X14191487Y-9493803D01*
X14197205Y-9512654D01*
X14203832Y-9525052D01*
X14254685Y-9474200D01*
X14254685Y-9474200D01*
X14203832Y-9423348D01*
X14203832Y-9423348D01*
X14197205Y-9435746D01*
X14191487Y-9454597D01*
X14189556Y-9474200D01*
X14031540Y-9474200D01*
X14029351Y-9473085D01*
X14018260Y-9471328D01*
X14018260Y-9471328D01*
X14007169Y-9473085D01*
X13998489Y-9477507D01*
X13991622Y-9478797D01*
X13987231Y-9477507D01*
X13978551Y-9473085D01*
X13967460Y-9471328D01*
X13967460Y-9471328D01*
X13956369Y-9473085D01*
X13946363Y-9478183D01*
X13938423Y-9486123D01*
X13935175Y-9492498D01*
X13930378Y-9497577D01*
X13925221Y-9498972D01*
X13925244Y-9499115D01*
X13913189Y-9501025D01*
X13903184Y-9506123D01*
X13894886Y-9514420D01*
X13888754Y-9517768D01*
X13881785Y-9517270D01*
X13876191Y-9513083D01*
X13873871Y-9507592D01*
X13873812Y-9507220D01*
X13873812Y-9507220D01*
X13872055Y-9496129D01*
X13869382Y-9490883D01*
X13866957Y-9486123D01*
X13859016Y-9478183D01*
X13849011Y-9473085D01*
X13837920Y-9471328D01*
X13837920Y-9471328D01*
X13826829Y-9473085D01*
X13816823Y-9478183D01*
X13808883Y-9486123D01*
X13803785Y-9496129D01*
X13802028Y-9507220D01*
X13802028Y-9507220D01*
X13803785Y-9518311D01*
X13808883Y-9528317D01*
X13816823Y-9536257D01*
X13826829Y-9541355D01*
X13837920Y-9543112D01*
X13838896Y-9543112D01*
X13838896Y-9543474D01*
X13844027Y-9544136D01*
X13849373Y-9548635D01*
X13851438Y-9555310D01*
X13850088Y-9561118D01*
X13848520Y-9564197D01*
X13847074Y-9567035D01*
X13846795Y-9567583D01*
X13841997Y-9572663D01*
X13835215Y-9574342D01*
X13834720Y-9574283D01*
X13834168Y-9574283D01*
X13833277Y-9574460D01*
X13832766Y-9574562D01*
X13830347Y-9574800D01*
X13726991Y-9574800D01*
X13720288Y-9572832D01*
X13718223Y-9571168D01*
X13564650Y-9417595D01*
X13563108Y-9415716D01*
X13562313Y-9414527D01*
X13560143Y-9413077D01*
X13553581Y-9408692D01*
X13547238Y-9407430D01*
X13543280Y-9406643D01*
X13543280Y-9406643D01*
X13542389Y-9406820D01*
X13541878Y-9406922D01*
X13539459Y-9407160D01*
X13267251Y-9407160D01*
X13260548Y-9405192D01*
X13258483Y-9403528D01*
X13232712Y-9377757D01*
X13232670Y-9377680D01*
X13598828Y-9377680D01*
X13600585Y-9388771D01*
X13605683Y-9398777D01*
X13613623Y-9406717D01*
X13623629Y-9411815D01*
X13634720Y-9413572D01*
X13634720Y-9413572D01*
X13634720Y-9413572D01*
X13645811Y-9411815D01*
X13645811Y-9411815D01*
X13645811Y-9411815D01*
X13655817Y-9406717D01*
X13663757Y-9398777D01*
X13668855Y-9388771D01*
X13668855Y-9388771D01*
X13668855Y-9388771D01*
X13670612Y-9377680D01*
X13670612Y-9377680D01*
X13668855Y-9366589D01*
X13663757Y-9356583D01*
X13655816Y-9348643D01*
X13645811Y-9343545D01*
X13634720Y-9341788D01*
X13634720Y-9341788D01*
X13623629Y-9343545D01*
X13613623Y-9348643D01*
X13605683Y-9356583D01*
X13600585Y-9366589D01*
X13598828Y-9377680D01*
X13598828Y-9377680D01*
X13232670Y-9377680D01*
X13229363Y-9371624D01*
X13229080Y-9368989D01*
X13229080Y-9334500D01*
X13753768Y-9334500D01*
X13755525Y-9345591D01*
X13760623Y-9355597D01*
X13768563Y-9363537D01*
X13778569Y-9368635D01*
X13789660Y-9370392D01*
X13789660Y-9370392D01*
X13789660Y-9370392D01*
X13800751Y-9368635D01*
X13800751Y-9368635D01*
X13800751Y-9368635D01*
X13810757Y-9363537D01*
X13818697Y-9355597D01*
X13823795Y-9345591D01*
X13823795Y-9345591D01*
X13823795Y-9345591D01*
X13825552Y-9334500D01*
X13825552Y-9334500D01*
X13823795Y-9323409D01*
X13818697Y-9313403D01*
X13810756Y-9305463D01*
X13800751Y-9300365D01*
X13789660Y-9298608D01*
X13789660Y-9298608D01*
X13778569Y-9300365D01*
X13768563Y-9305463D01*
X13760623Y-9313403D01*
X13755525Y-9323409D01*
X13753768Y-9334500D01*
X13753768Y-9334500D01*
X13229080Y-9334500D01*
X13229080Y-9249211D01*
X13231048Y-9242507D01*
X13232711Y-9240444D01*
X13262746Y-9210409D01*
X13268878Y-9207061D01*
X13269571Y-9206931D01*
X13274971Y-9206075D01*
X13284977Y-9200977D01*
X13292917Y-9193037D01*
X13298015Y-9183031D01*
X13298015Y-9183031D01*
X13298015Y-9183031D01*
X13299772Y-9171940D01*
X13299772Y-9171940D01*
X13298015Y-9160849D01*
X13292917Y-9150843D01*
X13284976Y-9142903D01*
X13274971Y-9137805D01*
X13263880Y-9136048D01*
X13263880Y-9136048D01*
X13252789Y-9137805D01*
X13252628Y-9137857D01*
X13252421Y-9137863D01*
X13251825Y-9137957D01*
X13251813Y-9137880D01*
X13245644Y-9138057D01*
X13239660Y-9134449D01*
X13236577Y-9128178D01*
X13236945Y-9123042D01*
X13236903Y-9123035D01*
X13236981Y-9122539D01*
X13237003Y-9122231D01*
X13237055Y-9122072D01*
X13237055Y-9122071D01*
X13237118Y-9121676D01*
X13238812Y-9110980D01*
X13238812Y-9110980D01*
X13237448Y-9102370D01*
X13238344Y-9095441D01*
X13242843Y-9090095D01*
X13249518Y-9088031D01*
X13249695Y-9088030D01*
X13322109Y-9088030D01*
X13324528Y-9088268D01*
X13325930Y-9088547D01*
X13336231Y-9086498D01*
X13342759Y-9082136D01*
X13342759Y-9082136D01*
X13344085Y-9081250D01*
X13344963Y-9080663D01*
X13345757Y-9079475D01*
X13347299Y-9077596D01*
X13372353Y-9052542D01*
X13378486Y-9049193D01*
X13381121Y-9048910D01*
X13412029Y-9048910D01*
X13414448Y-9049148D01*
X13415850Y-9049427D01*
X13426151Y-9047378D01*
X13432679Y-9043016D01*
X13432679Y-9043016D01*
X13433777Y-9042282D01*
X13434883Y-9041543D01*
X13435677Y-9040355D01*
X13437219Y-9038476D01*
X13482003Y-8993692D01*
X13488136Y-8990343D01*
X13490771Y-8990060D01*
X13725616Y-8990060D01*
X13732320Y-8992029D01*
X13736895Y-8997309D01*
X13737889Y-9004225D01*
X13734987Y-9010580D01*
X13731378Y-9013440D01*
X13719095Y-9019886D01*
X13706362Y-9031167D01*
X13696698Y-9045167D01*
X13690666Y-9061073D01*
X13690666Y-9061073D01*
X13688615Y-9077960D01*
X13690666Y-9094847D01*
X13690666Y-9094847D01*
X13696698Y-9110753D01*
X13702813Y-9119612D01*
X13706362Y-9124753D01*
X13719095Y-9136033D01*
X13734157Y-9143939D01*
X13742259Y-9145936D01*
X13748297Y-9149451D01*
X13750340Y-9152346D01*
X13755543Y-9162557D01*
X13763483Y-9170497D01*
X13773489Y-9175595D01*
X13784580Y-9177352D01*
X13784580Y-9177352D01*
X13784580Y-9177352D01*
X13795671Y-9175595D01*
X13795671Y-9175595D01*
X13795671Y-9175595D01*
X13805677Y-9170497D01*
X13813617Y-9162557D01*
X13818715Y-9152551D01*
X13818715Y-9152551D01*
X13818715Y-9152551D01*
X13820472Y-9141460D01*
X13820472Y-9141460D01*
X13818715Y-9130369D01*
X13817573Y-9128128D01*
X13816284Y-9121261D01*
X13818417Y-9115454D01*
X13821662Y-9110753D01*
X13827694Y-9094847D01*
X13829744Y-9077960D01*
X13827694Y-9061073D01*
X13821662Y-9045167D01*
X13821204Y-9044503D01*
X13818060Y-9039949D01*
X13811998Y-9031167D01*
X13801257Y-9021652D01*
X13799265Y-9019886D01*
X13786982Y-9013440D01*
X13781960Y-9008581D01*
X13780363Y-9001779D01*
X13782696Y-8995194D01*
X13788220Y-8990915D01*
X13792744Y-8990060D01*
X13824616Y-8990060D01*
X13831320Y-8992029D01*
X13835895Y-8997309D01*
X13836475Y-8999232D01*
X13836503Y-8999223D01*
X13836805Y-9000151D01*
X13841903Y-9010157D01*
X13849843Y-9018097D01*
X13859849Y-9023195D01*
X13870940Y-9024952D01*
X13870940Y-9024952D01*
X13870940Y-9024952D01*
X13882031Y-9023195D01*
X13882031Y-9023195D01*
X13882031Y-9023195D01*
X13888113Y-9020097D01*
X13894979Y-9018807D01*
X13901453Y-9021435D01*
X13905479Y-9027145D01*
X13906051Y-9029650D01*
X13906566Y-9033887D01*
X13906566Y-9033887D01*
X13912598Y-9049793D01*
X13917366Y-9056700D01*
X13922262Y-9063793D01*
X13930362Y-9070969D01*
X13934995Y-9075074D01*
X13950057Y-9082979D01*
X13950057Y-9082979D01*
X13966574Y-9087050D01*
X13983586Y-9087050D01*
X14000102Y-9082979D01*
X14015165Y-9075073D01*
X14023106Y-9068038D01*
X14029429Y-9065066D01*
X14036355Y-9065985D01*
X14040097Y-9068552D01*
X14138307Y-9166762D01*
X14141655Y-9172894D01*
X14141157Y-9179863D01*
X14136970Y-9185457D01*
X14130423Y-9187898D01*
X14129539Y-9187930D01*
X14125364Y-9187930D01*
X14111555Y-9191985D01*
X14099447Y-9199766D01*
X14099447Y-9199766D01*
X14099447Y-9199766D01*
X14098541Y-9200811D01*
X14090022Y-9210643D01*
X14090022Y-9210643D01*
X14084043Y-9223734D01*
X14081995Y-9237980D01*
X14081995Y-9237980D01*
X14082290Y-9240028D01*
X14084043Y-9252226D01*
X14089889Y-9265025D01*
X14090022Y-9265317D01*
X14099447Y-9276194D01*
X14111555Y-9283975D01*
X14111555Y-9283975D01*
X14111555Y-9283975D01*
X14125364Y-9288030D01*
X14125364Y-9288030D01*
X14125364Y-9288030D01*
X14139756Y-9288030D01*
X14139756Y-9288030D01*
X14153565Y-9283975D01*
X14165673Y-9276194D01*
X14175098Y-9265317D01*
X14181076Y-9252226D01*
X14182918Y-9239418D01*
X14185820Y-9233063D01*
X14191698Y-9229285D01*
X14198685Y-9229285D01*
X14203960Y-9232415D01*
X14328537Y-9356992D01*
X14331886Y-9363125D01*
X14331387Y-9370094D01*
X14327200Y-9375687D01*
X14320654Y-9378129D01*
X14316170Y-9377627D01*
X14309643Y-9375647D01*
X14309643Y-9375647D01*
X14290040Y-9373716D01*
X14270437Y-9375647D01*
X14251586Y-9381365D01*
X14239188Y-9387992D01*
X14290040Y-9438845D01*
X14316627Y-9465432D01*
X14319976Y-9471564D01*
X14319477Y-9478533D01*
X14316627Y-9482968D01*
X14239188Y-9560408D01*
X14251587Y-9567035D01*
X14270437Y-9572753D01*
X14270436Y-9572753D01*
X14290040Y-9574684D01*
X14309643Y-9572753D01*
X14328494Y-9567035D01*
X14345865Y-9557750D01*
X14345866Y-9557749D01*
X14350976Y-9553556D01*
X14357407Y-9550824D01*
X14364293Y-9552004D01*
X14369449Y-9556719D01*
X14371090Y-9561201D01*
X14372745Y-9571651D01*
X14377843Y-9581657D01*
X14385783Y-9589597D01*
X14395789Y-9594695D01*
X14406880Y-9596452D01*
X14406880Y-9596452D01*
X14406880Y-9596452D01*
X14417971Y-9594695D01*
X14417971Y-9594695D01*
X14417971Y-9594695D01*
X14427977Y-9589597D01*
X14435917Y-9581657D01*
X14441015Y-9571651D01*
X14441015Y-9571651D01*
X14441015Y-9571651D01*
X14442772Y-9560560D01*
X14442772Y-9560560D01*
X14441015Y-9549469D01*
X14435917Y-9539463D01*
X14435648Y-9539093D01*
X14433300Y-9532512D01*
X14433280Y-9531805D01*
X14433280Y-9401821D01*
X14433518Y-9399402D01*
X14433579Y-9399097D01*
X14433797Y-9398000D01*
X14433280Y-9395400D01*
X14433280Y-9395400D01*
X14431748Y-9387699D01*
X14425913Y-9378967D01*
X14425913Y-9378967D01*
X14424724Y-9378172D01*
X14422845Y-9376630D01*
X14177515Y-9131300D01*
X14264875Y-9131300D01*
X14266923Y-9145546D01*
X14272104Y-9156889D01*
X14272902Y-9158637D01*
X14282327Y-9169514D01*
X14294435Y-9177295D01*
X14294435Y-9177295D01*
X14294435Y-9177295D01*
X14308244Y-9181350D01*
X14308244Y-9181350D01*
X14308244Y-9181350D01*
X14322636Y-9181350D01*
X14322636Y-9181350D01*
X14333352Y-9178204D01*
X14336445Y-9177295D01*
X14336445Y-9177295D01*
X14336445Y-9177295D01*
X14348553Y-9169514D01*
X14357978Y-9158637D01*
X14363956Y-9145546D01*
X14366005Y-9131300D01*
X14363956Y-9117054D01*
X14357978Y-9103963D01*
X14348553Y-9093086D01*
X14336445Y-9085305D01*
X14336445Y-9085305D01*
X14336445Y-9085305D01*
X14336445Y-9085305D01*
X14322636Y-9081250D01*
X14322636Y-9081250D01*
X14308244Y-9081250D01*
X14308244Y-9081250D01*
X14294435Y-9085305D01*
X14282327Y-9093086D01*
X14272902Y-9103963D01*
X14272902Y-9103963D01*
X14266923Y-9117054D01*
X14264875Y-9131300D01*
X14177515Y-9131300D01*
X14043806Y-8997591D01*
X14040980Y-8993220D01*
X14037562Y-8984207D01*
X14027898Y-8970207D01*
X14027898Y-8970207D01*
X14023919Y-8966682D01*
X14020206Y-8960763D01*
X14020283Y-8953776D01*
X14024125Y-8947940D01*
X14030512Y-8945108D01*
X14032141Y-8945000D01*
X14705708Y-8945000D01*
X14712412Y-8946969D01*
G37*
G04 #@! TD.AperFunction*
G04 #@! TA.AperFunction,Conductor*
G36*
X14719304Y-9514469D02*
G01*
X14723879Y-9519749D01*
X14725000Y-9524900D01*
X14725000Y-9665000D01*
X14734783Y-9665000D01*
X14734784Y-9665000D01*
X14740737Y-9664360D01*
X14740738Y-9664360D01*
X14754209Y-9659335D01*
X14754987Y-9658910D01*
X14755123Y-9659160D01*
X14760314Y-9657223D01*
X14767141Y-9658707D01*
X14772082Y-9663647D01*
X14773600Y-9669591D01*
X14773600Y-9702549D01*
X14771631Y-9709253D01*
X14769968Y-9711317D01*
X14722157Y-9759128D01*
X14716024Y-9762477D01*
X14713389Y-9762760D01*
X14617391Y-9762760D01*
X14610687Y-9760792D01*
X14606112Y-9755511D01*
X14605117Y-9748595D01*
X14608020Y-9742240D01*
X14608623Y-9741592D01*
X14610090Y-9740125D01*
X14612255Y-9737960D01*
X14614135Y-9736418D01*
X14615323Y-9735623D01*
X14621158Y-9726891D01*
X14622690Y-9719190D01*
X14622690Y-9719190D01*
X14622809Y-9718593D01*
X14622809Y-9718592D01*
X14623207Y-9716590D01*
X14623207Y-9716590D01*
X14622928Y-9715188D01*
X14622690Y-9712769D01*
X14622690Y-9666814D01*
X14624658Y-9660110D01*
X14629939Y-9655535D01*
X14636855Y-9654540D01*
X14642521Y-9656887D01*
X14645791Y-9659335D01*
X14645791Y-9659335D01*
X14659262Y-9664360D01*
X14659263Y-9664360D01*
X14665215Y-9665000D01*
X14665217Y-9665000D01*
X14675000Y-9665000D01*
X14675000Y-9524900D01*
X14676968Y-9518196D01*
X14682249Y-9513621D01*
X14687400Y-9512500D01*
X14712600Y-9512500D01*
X14719304Y-9514469D01*
G37*
G04 #@! TD.AperFunction*
G04 #@! TA.AperFunction,Conductor*
G36*
X13432792Y-8946969D02*
G01*
X13437368Y-8952249D01*
X13438362Y-8959165D01*
X13435460Y-8965520D01*
X13434857Y-8966168D01*
X13416818Y-8984207D01*
X13408547Y-8992478D01*
X13402414Y-8995827D01*
X13399779Y-8996110D01*
X13368871Y-8996110D01*
X13366452Y-8995872D01*
X13365050Y-8995593D01*
X13365050Y-8995593D01*
X13365050Y-8995593D01*
X13362858Y-8996029D01*
X13362857Y-8996029D01*
X13354749Y-8997642D01*
X13346017Y-9003477D01*
X13346016Y-9003477D01*
X13345222Y-9004666D01*
X13343680Y-9006544D01*
X13318626Y-9031598D01*
X13312494Y-9034947D01*
X13309859Y-9035230D01*
X13228635Y-9035230D01*
X13221931Y-9033262D01*
X13217356Y-9027981D01*
X13216361Y-9021065D01*
X13218430Y-9015786D01*
X13221803Y-9010900D01*
X13224762Y-9006613D01*
X13230794Y-8990707D01*
X13232844Y-8973820D01*
X13231032Y-8958895D01*
X13232178Y-8952002D01*
X13236869Y-8946824D01*
X13243342Y-8945000D01*
X13426088Y-8945000D01*
X13432792Y-8946969D01*
G37*
G04 #@! TD.AperFunction*
G04 #@! TA.AperFunction,Conductor*
G36*
X12548361Y-8946969D02*
G01*
X12552937Y-8952249D01*
X12553931Y-8959165D01*
X12552706Y-8963029D01*
X12551565Y-8965269D01*
X12549808Y-8976360D01*
X12549808Y-8976360D01*
X12551565Y-8987451D01*
X12554336Y-8992891D01*
X12555626Y-8999758D01*
X12552998Y-9006232D01*
X12547288Y-9010257D01*
X12543288Y-9010920D01*
X12251012Y-9010920D01*
X12248592Y-9010682D01*
X12247654Y-9010495D01*
X12242476Y-9009465D01*
X12241710Y-9009313D01*
X12241710Y-9009313D01*
X12240512Y-9009075D01*
X12240575Y-9008761D01*
X12235752Y-9007344D01*
X12231176Y-9002064D01*
X12230182Y-8995148D01*
X12233084Y-8988793D01*
X12238704Y-8985094D01*
X12363169Y-8945581D01*
X12366921Y-8945000D01*
X12541657Y-8945000D01*
X12548361Y-8946969D01*
G37*
G04 #@! TD.AperFunction*
G04 #@! TA.AperFunction,NonConductor*
G36*
X13026294Y-8946969D02*
G01*
X13030869Y-8952249D01*
X13031864Y-8959165D01*
X13028961Y-8965520D01*
X13028358Y-8966168D01*
X13026563Y-8967963D01*
X13021465Y-8977969D01*
X13019708Y-8989060D01*
X13019708Y-8989060D01*
X13021465Y-9000151D01*
X13023159Y-9003477D01*
X13024138Y-9005397D01*
X13024236Y-9005591D01*
X13025526Y-9012458D01*
X13022898Y-9018932D01*
X13017188Y-9022957D01*
X13013188Y-9023620D01*
X12867405Y-9023620D01*
X12860701Y-9021652D01*
X12856356Y-9016850D01*
X12856037Y-9016223D01*
X12848097Y-9008283D01*
X12848096Y-9008283D01*
X12848096Y-9008283D01*
X12838091Y-9003185D01*
X12827000Y-9001428D01*
X12827000Y-9001428D01*
X12815909Y-9003185D01*
X12805904Y-9008282D01*
X12805533Y-9008552D01*
X12798953Y-9010900D01*
X12798244Y-9010920D01*
X12628112Y-9010920D01*
X12621408Y-9008952D01*
X12616833Y-9003671D01*
X12615838Y-8996755D01*
X12617064Y-8992891D01*
X12618176Y-8990707D01*
X12619835Y-8987451D01*
X12619835Y-8987451D01*
X12619835Y-8987451D01*
X12621592Y-8976360D01*
X12621592Y-8976360D01*
X12619835Y-8965269D01*
X12619835Y-8965269D01*
X12619835Y-8965269D01*
X12618694Y-8963029D01*
X12617405Y-8956162D01*
X12620032Y-8949688D01*
X12625743Y-8945663D01*
X12629743Y-8945000D01*
X13019590Y-8945000D01*
X13026294Y-8946969D01*
G37*
G04 #@! TD.AperFunction*
G04 #@! TA.AperFunction,NonConductor*
G36*
X13097803Y-9084035D02*
G01*
X13098003Y-9084137D01*
X13098003Y-9084137D01*
X13106957Y-9088699D01*
X13112037Y-9093497D01*
X13113716Y-9100279D01*
X13113490Y-9102167D01*
X13113108Y-9104083D01*
X13113387Y-9105485D01*
X13113626Y-9107904D01*
X13113626Y-9109354D01*
X13111657Y-9116058D01*
X13106377Y-9120634D01*
X13099461Y-9121628D01*
X13093105Y-9118726D01*
X13092457Y-9118122D01*
X13084387Y-9110052D01*
X13081039Y-9103920D01*
X13080908Y-9103224D01*
X13079926Y-9097023D01*
X13080821Y-9090094D01*
X13085321Y-9084749D01*
X13091996Y-9082685D01*
X13097803Y-9084035D01*
G37*
G04 #@! TD.AperFunction*
G04 #@! TA.AperFunction,NonConductor*
G36*
X13034712Y-9140093D02*
G01*
X13036727Y-9140412D01*
X13043041Y-9143405D01*
X13043556Y-9143891D01*
X13063668Y-9164003D01*
X13067017Y-9170136D01*
X13067300Y-9172771D01*
X13067300Y-9176194D01*
X13065331Y-9182898D01*
X13060051Y-9187474D01*
X13053135Y-9188468D01*
X13052960Y-9188441D01*
X13042900Y-9186848D01*
X13042900Y-9186848D01*
X13031809Y-9188605D01*
X13030172Y-9189439D01*
X13023305Y-9190728D01*
X13016832Y-9188100D01*
X13012806Y-9182389D01*
X13012507Y-9175409D01*
X13013495Y-9172760D01*
X13014648Y-9170497D01*
X13018615Y-9162711D01*
X13018615Y-9162711D01*
X13018615Y-9162711D01*
X13020525Y-9150656D01*
X13020851Y-9150708D01*
X13022340Y-9145636D01*
X13027621Y-9141061D01*
X13034537Y-9140066D01*
X13034712Y-9140093D01*
G37*
G04 #@! TD.AperFunction*
G04 #@! TA.AperFunction,NonConductor*
G36*
X13142884Y-9359723D02*
G01*
X13147459Y-9365003D01*
X13148580Y-9370154D01*
X13148580Y-9394178D01*
X13148342Y-9396597D01*
X13148063Y-9398000D01*
X13148063Y-9398000D01*
X13149274Y-9404088D01*
X13150112Y-9408301D01*
X13155501Y-9416366D01*
X13155947Y-9417033D01*
X13156240Y-9417230D01*
X13157135Y-9417828D01*
X13159014Y-9419370D01*
X13209656Y-9470012D01*
X13213005Y-9476144D01*
X13212507Y-9483113D01*
X13208319Y-9488707D01*
X13201773Y-9491148D01*
X13200888Y-9491180D01*
X12952491Y-9491180D01*
X12945787Y-9489211D01*
X12943723Y-9487548D01*
X12931509Y-9475334D01*
X12928161Y-9469202D01*
X12928030Y-9468509D01*
X12927175Y-9463109D01*
X12927175Y-9463109D01*
X12927175Y-9463108D01*
X12922077Y-9453103D01*
X12914136Y-9445163D01*
X12906189Y-9441113D01*
X12904131Y-9440065D01*
X12904131Y-9440065D01*
X12904131Y-9440065D01*
X12899161Y-9439278D01*
X12892848Y-9436285D01*
X12889155Y-9430353D01*
X12889254Y-9423367D01*
X12892333Y-9418262D01*
X12949209Y-9361386D01*
X12955341Y-9358038D01*
X12957977Y-9357754D01*
X13136180Y-9357754D01*
X13142884Y-9359723D01*
G37*
G04 #@! TD.AperFunction*
G04 #@! TA.AperFunction,NonConductor*
G36*
X14856516Y-9630114D02*
G01*
X14856889Y-9630353D01*
X14862177Y-9633887D01*
X14863113Y-9634073D01*
X14869304Y-9637311D01*
X14872761Y-9643383D01*
X14872388Y-9650360D01*
X14869462Y-9655003D01*
X14847568Y-9676897D01*
X14841436Y-9680245D01*
X14834467Y-9679747D01*
X14828873Y-9675560D01*
X14826432Y-9669013D01*
X14826400Y-9668129D01*
X14826400Y-9646335D01*
X14828368Y-9639631D01*
X14833649Y-9635056D01*
X14836381Y-9634174D01*
X14837823Y-9633887D01*
X14843111Y-9630353D01*
X14849778Y-9628266D01*
X14856516Y-9630114D01*
G37*
G04 #@! TD.AperFunction*
G04 #@! TA.AperFunction,NonConductor*
G36*
X13824801Y-9629569D02*
G01*
X13826865Y-9631232D01*
X13839288Y-9643655D01*
X13840830Y-9645534D01*
X13841366Y-9646335D01*
X13841625Y-9646723D01*
X13850358Y-9652558D01*
X13858058Y-9654090D01*
X13858058Y-9654090D01*
X13858655Y-9654209D01*
X13858656Y-9654209D01*
X13860658Y-9654607D01*
X13860659Y-9654607D01*
X13861330Y-9654741D01*
X13867521Y-9657979D01*
X13867679Y-9658134D01*
X13918396Y-9708851D01*
X13921744Y-9714983D01*
X13921246Y-9721953D01*
X13917059Y-9727546D01*
X13915257Y-9728668D01*
X13913343Y-9729643D01*
X13905403Y-9737583D01*
X13900305Y-9747589D01*
X13898548Y-9758680D01*
X13898548Y-9758680D01*
X13900305Y-9769771D01*
X13902303Y-9773693D01*
X13902814Y-9774697D01*
X13903076Y-9775211D01*
X13904366Y-9782078D01*
X13901738Y-9788552D01*
X13896028Y-9792577D01*
X13892028Y-9793240D01*
X13884471Y-9793240D01*
X13877767Y-9791272D01*
X13875703Y-9789608D01*
X13734863Y-9648768D01*
X13731515Y-9642636D01*
X13732013Y-9635667D01*
X13736200Y-9630073D01*
X13742747Y-9627632D01*
X13743631Y-9627600D01*
X13818097Y-9627600D01*
X13824801Y-9629569D01*
G37*
G04 #@! TD.AperFunction*
G04 #@! TA.AperFunction,NonConductor*
G36*
X14869675Y-9739711D02*
G01*
X14875268Y-9743899D01*
X14876390Y-9745700D01*
X14878223Y-9749297D01*
X14878223Y-9749297D01*
X14886163Y-9757237D01*
X14892404Y-9760417D01*
X14897484Y-9765214D01*
X14899163Y-9771997D01*
X14897823Y-9777095D01*
X14897071Y-9778572D01*
X14893445Y-9785689D01*
X14893445Y-9785689D01*
X14893445Y-9785689D01*
X14892136Y-9793949D01*
X14890200Y-9798897D01*
X14890012Y-9799179D01*
X14890012Y-9799179D01*
X14887963Y-9809480D01*
X14887963Y-9809850D01*
X14887734Y-9810627D01*
X14887724Y-9810678D01*
X14887720Y-9810677D01*
X14885994Y-9816554D01*
X14880714Y-9821129D01*
X14875563Y-9822250D01*
X14806821Y-9822250D01*
X14800117Y-9820282D01*
X14795542Y-9815001D01*
X14794548Y-9808085D01*
X14797450Y-9801730D01*
X14798053Y-9801082D01*
X14856574Y-9742562D01*
X14862706Y-9739213D01*
X14869675Y-9739711D01*
G37*
G04 #@! TD.AperFunction*
G04 #@! TA.AperFunction,NonConductor*
G36*
X14960533Y-9920042D02*
G01*
X14963297Y-9921426D01*
X14968449Y-9924868D01*
X14968449Y-9924868D01*
X14968449Y-9924868D01*
X14976150Y-9926400D01*
X14976150Y-9926400D01*
X14976747Y-9926519D01*
X14976747Y-9926519D01*
X14978750Y-9926917D01*
X14978750Y-9926917D01*
X14978750Y-9926917D01*
X14979971Y-9926917D01*
X14979971Y-9927200D01*
X14985108Y-9927659D01*
X14990626Y-9931945D01*
X14992950Y-9938534D01*
X14992730Y-9941617D01*
X14992450Y-9943025D01*
X14992450Y-9986975D01*
X14993851Y-9994021D01*
X14993724Y-9994046D01*
X14994332Y-9999702D01*
X14993630Y-10002091D01*
X14993147Y-10004523D01*
X14989908Y-10010714D01*
X14989753Y-10010871D01*
X14976406Y-10024218D01*
X14970274Y-10027567D01*
X14963305Y-10027068D01*
X14957712Y-10022881D01*
X14955391Y-10017390D01*
X14954095Y-10009209D01*
X14948997Y-9999203D01*
X14941056Y-9991263D01*
X14932478Y-9986892D01*
X14927398Y-9982094D01*
X14925718Y-9975312D01*
X14927972Y-9968699D01*
X14929338Y-9967075D01*
X14933757Y-9962657D01*
X14938855Y-9952651D01*
X14940163Y-9944390D01*
X14942101Y-9939441D01*
X14942288Y-9939161D01*
X14943820Y-9931460D01*
X14943820Y-9931460D01*
X14943939Y-9930863D01*
X14943939Y-9930862D01*
X14943941Y-9930851D01*
X14944246Y-9929317D01*
X14947484Y-9923126D01*
X14953556Y-9919668D01*
X14960533Y-9920042D01*
G37*
G04 #@! TD.AperFunction*
G04 #@! TA.AperFunction,NonConductor*
G36*
X14866082Y-9914719D02*
G01*
X14870657Y-9919999D01*
X14871652Y-9926915D01*
X14870825Y-9929521D01*
X14870886Y-9929541D01*
X14870585Y-9930469D01*
X14868828Y-9941560D01*
X14868828Y-9941560D01*
X14870585Y-9952651D01*
X14875683Y-9962657D01*
X14883623Y-9970597D01*
X14892202Y-9974968D01*
X14897282Y-9979766D01*
X14898961Y-9986548D01*
X14896708Y-9993161D01*
X14895341Y-9994785D01*
X14890923Y-9999203D01*
X14885825Y-10009209D01*
X14884068Y-10020300D01*
X14884068Y-10020300D01*
X14885825Y-10031391D01*
X14890923Y-10041397D01*
X14898863Y-10049337D01*
X14908869Y-10054435D01*
X14919960Y-10056192D01*
X14919960Y-10056192D01*
X14919960Y-10056192D01*
X14922567Y-10055779D01*
X14928220Y-10054884D01*
X14935149Y-10055779D01*
X14940494Y-10060279D01*
X14942558Y-10066954D01*
X14942488Y-10067940D01*
X14942488Y-10068560D01*
X14944245Y-10079651D01*
X14949343Y-10089657D01*
X14957283Y-10097597D01*
X14967289Y-10102695D01*
X14978380Y-10104452D01*
X14978380Y-10104452D01*
X14978380Y-10104452D01*
X14978537Y-10104427D01*
X14978730Y-10104452D01*
X14979356Y-10104452D01*
X14979356Y-10104533D01*
X14985467Y-10105322D01*
X14990812Y-10109822D01*
X14992876Y-10116497D01*
X14992270Y-10120506D01*
X14989240Y-10129833D01*
X14988974Y-10130652D01*
X14988058Y-10139365D01*
X14986940Y-10150000D01*
X14988974Y-10169348D01*
X14994986Y-10187851D01*
X14994986Y-10187851D01*
X15002000Y-10200000D01*
X15004713Y-10204699D01*
X15008831Y-10209273D01*
X15017730Y-10219156D01*
X15017730Y-10219157D01*
X15017731Y-10219157D01*
X15027251Y-10226074D01*
X15033470Y-10230592D01*
X15037533Y-10232401D01*
X15051243Y-10238505D01*
X15070273Y-10242550D01*
X15081758Y-10242550D01*
X15088462Y-10244519D01*
X15093037Y-10249799D01*
X15093920Y-10252531D01*
X15093982Y-10252843D01*
X15094220Y-10255261D01*
X15094220Y-10297550D01*
X15092251Y-10304254D01*
X15086971Y-10308829D01*
X15081820Y-10309950D01*
X14933402Y-10309950D01*
X14926698Y-10307982D01*
X14924634Y-10306318D01*
X14903553Y-10285237D01*
X14901272Y-10282099D01*
X14898197Y-10276063D01*
X14890257Y-10268123D01*
X14890256Y-10268123D01*
X14890256Y-10268123D01*
X14880251Y-10263025D01*
X14869160Y-10261268D01*
X14869160Y-10261268D01*
X14858069Y-10263025D01*
X14856259Y-10263947D01*
X14849392Y-10265236D01*
X14842918Y-10262609D01*
X14838893Y-10256898D01*
X14838230Y-10252898D01*
X14838230Y-10032831D01*
X14838468Y-10030412D01*
X14838471Y-10030399D01*
X14838747Y-10029010D01*
X14836698Y-10018709D01*
X14832336Y-10012181D01*
X14832336Y-10012181D01*
X14832181Y-10011949D01*
X14832180Y-10011948D01*
X14830863Y-10009977D01*
X14830863Y-10009977D01*
X14830863Y-10009976D01*
X14829674Y-10009182D01*
X14827795Y-10007640D01*
X14797607Y-9977452D01*
X14765389Y-9945234D01*
X14762041Y-9939102D01*
X14761910Y-9938409D01*
X14761055Y-9933009D01*
X14761055Y-9933009D01*
X14761055Y-9933009D01*
X14759919Y-9930779D01*
X14758630Y-9923912D01*
X14761258Y-9917438D01*
X14766968Y-9913413D01*
X14770968Y-9912750D01*
X14859378Y-9912750D01*
X14866082Y-9914719D01*
G37*
G04 #@! TD.AperFunction*
G04 #@! TA.AperFunction,NonConductor*
G36*
X15450436Y-10308023D02*
G01*
X15456029Y-10312210D01*
X15458471Y-10318757D01*
X15458286Y-10321947D01*
X15454353Y-10342735D01*
X15451173Y-10348956D01*
X15445134Y-10352470D01*
X15438154Y-10352161D01*
X15432448Y-10348128D01*
X15431121Y-10346059D01*
X15426517Y-10337024D01*
X15426108Y-10336614D01*
X15422760Y-10330482D01*
X15423258Y-10323513D01*
X15427445Y-10317919D01*
X15428278Y-10317347D01*
X15435226Y-10312982D01*
X15437335Y-10310873D01*
X15443467Y-10307525D01*
X15450436Y-10308023D01*
G37*
G04 #@! TD.AperFunction*
G04 #@! TA.AperFunction,NonConductor*
G36*
X11669610Y-10104177D02*
G01*
X11674223Y-10109425D01*
X11675380Y-10114656D01*
X11675380Y-10358050D01*
X11675142Y-10360469D01*
X11674863Y-10361871D01*
X11674863Y-10361872D01*
X11674880Y-10361961D01*
X11674863Y-10362157D01*
X11674863Y-10363093D01*
X11674779Y-10363093D01*
X11674257Y-10368920D01*
X11669971Y-10374437D01*
X11663382Y-10376761D01*
X11656582Y-10375154D01*
X11652045Y-10370691D01*
X11650126Y-10367445D01*
X11649938Y-10367104D01*
X11622451Y-10313158D01*
X11622286Y-10312806D01*
X11598240Y-10257241D01*
X11598097Y-10256879D01*
X11584516Y-10219157D01*
X11577588Y-10199913D01*
X11577468Y-10199543D01*
X11577448Y-10199475D01*
X11573682Y-10186511D01*
X11573584Y-10186129D01*
X11558445Y-10118001D01*
X11558912Y-10111030D01*
X11563074Y-10105418D01*
X11569609Y-10102947D01*
X11570458Y-10102912D01*
X11662892Y-10102256D01*
X11669610Y-10104177D01*
G37*
G04 #@! TD.AperFunction*
G04 #@! TA.AperFunction,NonConductor*
G36*
X12958472Y-10322989D02*
G01*
X12963048Y-10328269D01*
X12964042Y-10335185D01*
X12961140Y-10341540D01*
X12960537Y-10342188D01*
X12898437Y-10404288D01*
X12892304Y-10407637D01*
X12889669Y-10407920D01*
X12854124Y-10407920D01*
X12847420Y-10405952D01*
X12842844Y-10400671D01*
X12841850Y-10393755D01*
X12843075Y-10389891D01*
X12845926Y-10384297D01*
X12848435Y-10379371D01*
X12848435Y-10379371D01*
X12848435Y-10379371D01*
X12850192Y-10368280D01*
X12850192Y-10368280D01*
X12848435Y-10357189D01*
X12843012Y-10346545D01*
X12841722Y-10339678D01*
X12844350Y-10333204D01*
X12850061Y-10329179D01*
X12856000Y-10328668D01*
X12867640Y-10330512D01*
X12867640Y-10330512D01*
X12867640Y-10330512D01*
X12878731Y-10328755D01*
X12878731Y-10328755D01*
X12878731Y-10328755D01*
X12886271Y-10324914D01*
X12888736Y-10323658D01*
X12888736Y-10323657D01*
X12888737Y-10323657D01*
X12888737Y-10323657D01*
X12889107Y-10323388D01*
X12895687Y-10321040D01*
X12896395Y-10321020D01*
X12951769Y-10321020D01*
X12958472Y-10322989D01*
G37*
G04 #@! TD.AperFunction*
G04 #@! TA.AperFunction,NonConductor*
G36*
X11951949Y-10264975D02*
G01*
X11962468Y-10270335D01*
X11962469Y-10270335D01*
X11962469Y-10270335D01*
X11967866Y-10271190D01*
X11974179Y-10274183D01*
X11974694Y-10274669D01*
X12012077Y-10312052D01*
X12015425Y-10318184D01*
X12015183Y-10321575D01*
X12018921Y-10321415D01*
X12024708Y-10324683D01*
X12084270Y-10384245D01*
X12085812Y-10386124D01*
X12087285Y-10388329D01*
X12087007Y-10388514D01*
X12089394Y-10392884D01*
X12088895Y-10399853D01*
X12084708Y-10405447D01*
X12078162Y-10407888D01*
X12077277Y-10407920D01*
X12073451Y-10407920D01*
X12066748Y-10405952D01*
X12064683Y-10404288D01*
X12011906Y-10351511D01*
X12009625Y-10348372D01*
X12004891Y-10339081D01*
X12003769Y-10333102D01*
X11997679Y-10331869D01*
X11987191Y-10326525D01*
X11976100Y-10324768D01*
X11976100Y-10324768D01*
X11965009Y-10326525D01*
X11955003Y-10331623D01*
X11954214Y-10332196D01*
X11954120Y-10332067D01*
X11948955Y-10334887D01*
X11941986Y-10334388D01*
X11936393Y-10330200D01*
X11933951Y-10323654D01*
X11933920Y-10322770D01*
X11933920Y-10304254D01*
X11933920Y-10276024D01*
X11935888Y-10269320D01*
X11941169Y-10264745D01*
X11948085Y-10263750D01*
X11951949Y-10264975D01*
G37*
G04 #@! TD.AperFunction*
G04 #@! TA.AperFunction,NonConductor*
G36*
X13070795Y-10316851D02*
G01*
X13076388Y-10321039D01*
X13078830Y-10327585D01*
X13077510Y-10334099D01*
X13074805Y-10339409D01*
X13073048Y-10350500D01*
X13073048Y-10350500D01*
X13074009Y-10356567D01*
X13073113Y-10363497D01*
X13068614Y-10368842D01*
X13061939Y-10370906D01*
X13059822Y-10370755D01*
X13058140Y-10370488D01*
X13058140Y-10370488D01*
X13047049Y-10372245D01*
X13037043Y-10377343D01*
X13029103Y-10385283D01*
X13024005Y-10395289D01*
X13022352Y-10405725D01*
X13019359Y-10412038D01*
X13013428Y-10415731D01*
X13006441Y-10415631D01*
X13004475Y-10414833D01*
X13000651Y-10412885D01*
X12993488Y-10411750D01*
X12987175Y-10408757D01*
X12983482Y-10402826D01*
X12983582Y-10395840D01*
X12986660Y-10390735D01*
X13057694Y-10319701D01*
X13063826Y-10316353D01*
X13070795Y-10316851D01*
G37*
G04 #@! TD.AperFunction*
G04 #@! TA.AperFunction,NonConductor*
G36*
X14750570Y-10635570D02*
G01*
X14751218Y-10636173D01*
X14769058Y-10654013D01*
X14786277Y-10671232D01*
X14789625Y-10677364D01*
X14789127Y-10684333D01*
X14784940Y-10689927D01*
X14778393Y-10692368D01*
X14777509Y-10692400D01*
X14723396Y-10692400D01*
X14716692Y-10690432D01*
X14712117Y-10685151D01*
X14711122Y-10678235D01*
X14714025Y-10671880D01*
X14716946Y-10669773D01*
X14716808Y-10669565D01*
X14724455Y-10664455D01*
X14725440Y-10662981D01*
X14728887Y-10657823D01*
X14728887Y-10657823D01*
X14728887Y-10657823D01*
X14730050Y-10651975D01*
X14730050Y-10651975D01*
X14730050Y-10644941D01*
X14732018Y-10638237D01*
X14737299Y-10633662D01*
X14744215Y-10632668D01*
X14750570Y-10635570D01*
G37*
G04 #@! TD.AperFunction*
G04 #@! TA.AperFunction,NonConductor*
G36*
X11690435Y-10387872D02*
G01*
X11690740Y-10388167D01*
X11979873Y-10677300D01*
X11983222Y-10683432D01*
X11982723Y-10690401D01*
X11978536Y-10695995D01*
X11971990Y-10698436D01*
X11965162Y-10696951D01*
X11964533Y-10696583D01*
X11908324Y-10661453D01*
X11872744Y-10639215D01*
X11871117Y-10638002D01*
X11836169Y-10607191D01*
X11835886Y-10606926D01*
X11793074Y-10564113D01*
X11792809Y-10563831D01*
X11791328Y-10562151D01*
X11783877Y-10553700D01*
X11752769Y-10518415D01*
X11752522Y-10518116D01*
X11742651Y-10505391D01*
X11740241Y-10502005D01*
X11678129Y-10414753D01*
X11677844Y-10414314D01*
X11677107Y-10413069D01*
X11671299Y-10403247D01*
X11669581Y-10396475D01*
X11671797Y-10389849D01*
X11677243Y-10385472D01*
X11684191Y-10384735D01*
X11690435Y-10387872D01*
G37*
G04 #@! TD.AperFunction*
G04 #@! TA.AperFunction,NonConductor*
G36*
X13210223Y-10782054D02*
G01*
X13213739Y-10784519D01*
X13227452Y-10798232D01*
X13230800Y-10804364D01*
X13230302Y-10811333D01*
X13226115Y-10816927D01*
X13219568Y-10819368D01*
X13218684Y-10819400D01*
X13200811Y-10819400D01*
X13194108Y-10817432D01*
X13189532Y-10812151D01*
X13188538Y-10805235D01*
X13188945Y-10803400D01*
X13193105Y-10789688D01*
X13196935Y-10783844D01*
X13203316Y-10780998D01*
X13210223Y-10782054D01*
G37*
G04 #@! TD.AperFunction*
G04 #@! TA.AperFunction,NonConductor*
G36*
X12993411Y-10779057D02*
G01*
X12997756Y-10784529D01*
X12998133Y-10785593D01*
X13003535Y-10803401D01*
X13003597Y-10810387D01*
X12999872Y-10816298D01*
X12993543Y-10819258D01*
X12991668Y-10819400D01*
X12970852Y-10819400D01*
X12964148Y-10817432D01*
X12959573Y-10812151D01*
X12958578Y-10805235D01*
X12961481Y-10798880D01*
X12964203Y-10796749D01*
X12964147Y-10796671D01*
X12964936Y-10796097D01*
X12964936Y-10796097D01*
X12964937Y-10796097D01*
X12972877Y-10788157D01*
X12972943Y-10788028D01*
X12975218Y-10783563D01*
X12980015Y-10778483D01*
X12986797Y-10776804D01*
X12993411Y-10779057D01*
G37*
G04 #@! TD.AperFunction*
G04 #@! TA.AperFunction,NonConductor*
G36*
X12989560Y-10482912D02*
G01*
X12989560Y-10482912D01*
X12989560Y-10482912D01*
X12989560Y-10482912D01*
X12992502Y-10482446D01*
X12999431Y-10483341D01*
X13004776Y-10487841D01*
X13006840Y-10494516D01*
X13006036Y-10499090D01*
X13002326Y-10508872D01*
X13002326Y-10508873D01*
X13000275Y-10525760D01*
X13002326Y-10542647D01*
X13002326Y-10542647D01*
X13002326Y-10542647D01*
X13003413Y-10545513D01*
X13003949Y-10552479D01*
X13000634Y-10558630D01*
X13000587Y-10558678D01*
X12993914Y-10565350D01*
X12992035Y-10566892D01*
X12990847Y-10567687D01*
X12988568Y-10571096D01*
X12988568Y-10571097D01*
X12985012Y-10576419D01*
X12984245Y-10580276D01*
X12983486Y-10584091D01*
X12982963Y-10586720D01*
X12983242Y-10588122D01*
X12983480Y-10590541D01*
X12983480Y-10684949D01*
X12981511Y-10691652D01*
X12979848Y-10693717D01*
X12944974Y-10728591D01*
X12938842Y-10731939D01*
X12938146Y-10732070D01*
X12932749Y-10732925D01*
X12922743Y-10738023D01*
X12914803Y-10745963D01*
X12909705Y-10755969D01*
X12907948Y-10767060D01*
X12907948Y-10767060D01*
X12909705Y-10778151D01*
X12914803Y-10788157D01*
X12922743Y-10796097D01*
X12923533Y-10796671D01*
X12923405Y-10796847D01*
X12927537Y-10800749D01*
X12929216Y-10807531D01*
X12926963Y-10814144D01*
X12921491Y-10818490D01*
X12916828Y-10819400D01*
X12770910Y-10819400D01*
X12764206Y-10817432D01*
X12759631Y-10812151D01*
X12758636Y-10805235D01*
X12761539Y-10798880D01*
X12762142Y-10798232D01*
X12765435Y-10794939D01*
X12769677Y-10790697D01*
X12774775Y-10780691D01*
X12774775Y-10780691D01*
X12774775Y-10780691D01*
X12776532Y-10769600D01*
X12776532Y-10769600D01*
X12774623Y-10757545D01*
X12774971Y-10757490D01*
X12774822Y-10752285D01*
X12778047Y-10746668D01*
X12852547Y-10672168D01*
X12858679Y-10668820D01*
X12864282Y-10668896D01*
X12876914Y-10672010D01*
X12893926Y-10672010D01*
X12910442Y-10667939D01*
X12922801Y-10661453D01*
X12925505Y-10660034D01*
X12925505Y-10660033D01*
X12925505Y-10660033D01*
X12938238Y-10648753D01*
X12947902Y-10634753D01*
X12953934Y-10618847D01*
X12955984Y-10601960D01*
X12953934Y-10585073D01*
X12953811Y-10584749D01*
X12949488Y-10573349D01*
X12947902Y-10569167D01*
X12947152Y-10568080D01*
X12942488Y-10561324D01*
X12938238Y-10555167D01*
X12925642Y-10544008D01*
X12921929Y-10538089D01*
X12922006Y-10531103D01*
X12925096Y-10525959D01*
X12966628Y-10484427D01*
X12972760Y-10481078D01*
X12977455Y-10481314D01*
X12977505Y-10481003D01*
X12989560Y-10482912D01*
G37*
G04 #@! TD.AperFunction*
G04 #@! TA.AperFunction,NonConductor*
G36*
X12704634Y-9740480D02*
G01*
X12709979Y-9744979D01*
X12712043Y-9751655D01*
X12711653Y-9754232D01*
X12711737Y-9754245D01*
X12710730Y-9760606D01*
X12707737Y-9766919D01*
X12707251Y-9767434D01*
X12697777Y-9776908D01*
X12691644Y-9780257D01*
X12689008Y-9780540D01*
X12679371Y-9780540D01*
X12672667Y-9778572D01*
X12668092Y-9773291D01*
X12667097Y-9766375D01*
X12670000Y-9760020D01*
X12670601Y-9759374D01*
X12686166Y-9743809D01*
X12692298Y-9740461D01*
X12692990Y-9740331D01*
X12697705Y-9739584D01*
X12704634Y-9740480D01*
G37*
G04 #@! TD.AperFunction*
G04 #@! TA.AperFunction,NonConductor*
G36*
X12487020Y-9722222D02*
G01*
X12492125Y-9725300D01*
X12526197Y-9759372D01*
X12529545Y-9765504D01*
X12529047Y-9772473D01*
X12524860Y-9778067D01*
X12518313Y-9780508D01*
X12517429Y-9780540D01*
X12462852Y-9780540D01*
X12456148Y-9778572D01*
X12451573Y-9773291D01*
X12450578Y-9766375D01*
X12453481Y-9760020D01*
X12456203Y-9757889D01*
X12456147Y-9757811D01*
X12456936Y-9757237D01*
X12456936Y-9757237D01*
X12456937Y-9757237D01*
X12464877Y-9749297D01*
X12469975Y-9739291D01*
X12469975Y-9739291D01*
X12469975Y-9739291D01*
X12471110Y-9732129D01*
X12474103Y-9725815D01*
X12480034Y-9722122D01*
X12487020Y-9722222D01*
G37*
G04 #@! TD.AperFunction*
G04 #@! TA.AperFunction,NonConductor*
G36*
X12411232Y-9644809D02*
G01*
X12413297Y-9646472D01*
X12438740Y-9671915D01*
X12442088Y-9678047D01*
X12441590Y-9685016D01*
X12437402Y-9690610D01*
X12431911Y-9692930D01*
X12424749Y-9694065D01*
X12414743Y-9699163D01*
X12406803Y-9707103D01*
X12401705Y-9717109D01*
X12399948Y-9728200D01*
X12399948Y-9728200D01*
X12401705Y-9739291D01*
X12406803Y-9749297D01*
X12414743Y-9757237D01*
X12415533Y-9757811D01*
X12415405Y-9757987D01*
X12419537Y-9761889D01*
X12421216Y-9768671D01*
X12418963Y-9775284D01*
X12413491Y-9779630D01*
X12408828Y-9780540D01*
X12293933Y-9780540D01*
X12287229Y-9778572D01*
X12282653Y-9773291D01*
X12281659Y-9766375D01*
X12281940Y-9765168D01*
X12283772Y-9753600D01*
X12283772Y-9753600D01*
X12282015Y-9742509D01*
X12276917Y-9732503D01*
X12268976Y-9724563D01*
X12258971Y-9719465D01*
X12247880Y-9717708D01*
X12247880Y-9717708D01*
X12236789Y-9719465D01*
X12226783Y-9724563D01*
X12223127Y-9728219D01*
X12216995Y-9731567D01*
X12213251Y-9731299D01*
X12215029Y-9736065D01*
X12213920Y-9741540D01*
X12214046Y-9741581D01*
X12213745Y-9742509D01*
X12211988Y-9753600D01*
X12211988Y-9753600D01*
X12213897Y-9765655D01*
X12213660Y-9765693D01*
X12213820Y-9771293D01*
X12210212Y-9777276D01*
X12203941Y-9780358D01*
X12201827Y-9780540D01*
X12159403Y-9780540D01*
X12152699Y-9778572D01*
X12148123Y-9773291D01*
X12147129Y-9766375D01*
X12149557Y-9761058D01*
X12149395Y-9760949D01*
X12150868Y-9758745D01*
X12152409Y-9756866D01*
X12168006Y-9741269D01*
X12174138Y-9737921D01*
X12174830Y-9737791D01*
X12180231Y-9736935D01*
X12190237Y-9731837D01*
X12193893Y-9728181D01*
X12200025Y-9724833D01*
X12203768Y-9725101D01*
X12201991Y-9720335D01*
X12203100Y-9714861D01*
X12202974Y-9714820D01*
X12203275Y-9713892D01*
X12203275Y-9713891D01*
X12203275Y-9713891D01*
X12204130Y-9708494D01*
X12207123Y-9702181D01*
X12207607Y-9701668D01*
X12262803Y-9646472D01*
X12268936Y-9643123D01*
X12271571Y-9642840D01*
X12404529Y-9642840D01*
X12411232Y-9644809D01*
G37*
G04 #@! TD.AperFunction*
G04 #@! TA.AperFunction,NonConductor*
G36*
X14643364Y-10312019D02*
G01*
X14647940Y-10317299D01*
X14648934Y-10324215D01*
X14647709Y-10328079D01*
X14644838Y-10333714D01*
X14644525Y-10334329D01*
X14643473Y-10340972D01*
X14640480Y-10347285D01*
X14634548Y-10350978D01*
X14627562Y-10350878D01*
X14622427Y-10347474D01*
X14622307Y-10347593D01*
X14613677Y-10338963D01*
X14609870Y-10337023D01*
X14603671Y-10333865D01*
X14603671Y-10333865D01*
X14602952Y-10333499D01*
X14597873Y-10328701D01*
X14596193Y-10321919D01*
X14598447Y-10315306D01*
X14603918Y-10310960D01*
X14608582Y-10310050D01*
X14636660Y-10310050D01*
X14643364Y-10312019D01*
G37*
G04 #@! TD.AperFunction*
G04 #@! TA.AperFunction,NonConductor*
G36*
X12208353Y-10772569D02*
G01*
X12210417Y-10774232D01*
X12248425Y-10812240D01*
X12251773Y-10818372D01*
X12251275Y-10825341D01*
X12247088Y-10830934D01*
X12240541Y-10833376D01*
X12236197Y-10832915D01*
X12200457Y-10822532D01*
X12200086Y-10822411D01*
X12143121Y-10801903D01*
X12142759Y-10801759D01*
X12125707Y-10794380D01*
X12120336Y-10789911D01*
X12118234Y-10783248D01*
X12120068Y-10776506D01*
X12125256Y-10771826D01*
X12130631Y-10770600D01*
X12201649Y-10770600D01*
X12208353Y-10772569D01*
G37*
G04 #@! TD.AperFunction*
G04 #@! TA.AperFunction,NonConductor*
G36*
X15214724Y-10611476D02*
G01*
X15215154Y-10611773D01*
X15215155Y-10611773D01*
X15217627Y-10613071D01*
X15228749Y-10618909D01*
X15230217Y-10619679D01*
X15246734Y-10623750D01*
X15263746Y-10623750D01*
X15280262Y-10619679D01*
X15289221Y-10614977D01*
X15295989Y-10611425D01*
X15296072Y-10611582D01*
X15301808Y-10609689D01*
X15308574Y-10611435D01*
X15313321Y-10616561D01*
X15314544Y-10623441D01*
X15312112Y-10629558D01*
X15301599Y-10643472D01*
X15301352Y-10643778D01*
X15291259Y-10655506D01*
X15290944Y-10655846D01*
X15255846Y-10690944D01*
X15255506Y-10691259D01*
X15217883Y-10723636D01*
X15217520Y-10723926D01*
X15177583Y-10753401D01*
X15177200Y-10753662D01*
X15135171Y-10780071D01*
X15134769Y-10780303D01*
X15090886Y-10803495D01*
X15090469Y-10803696D01*
X15044973Y-10823546D01*
X15044541Y-10823715D01*
X14997690Y-10840109D01*
X14997247Y-10840246D01*
X14949301Y-10853093D01*
X14948849Y-10853196D01*
X14900079Y-10862424D01*
X14899620Y-10862493D01*
X14898415Y-10862629D01*
X14850296Y-10868051D01*
X14849834Y-10868085D01*
X14800000Y-10869950D01*
X14757786Y-10869950D01*
X14751082Y-10867982D01*
X14746507Y-10862701D01*
X14745512Y-10855785D01*
X14746850Y-10851705D01*
X14751175Y-10843614D01*
X14756893Y-10824763D01*
X14758824Y-10805160D01*
X14756893Y-10785557D01*
X14751175Y-10766706D01*
X14749432Y-10763445D01*
X14748008Y-10756605D01*
X14750508Y-10750081D01*
X14756138Y-10745944D01*
X14760368Y-10745200D01*
X14783519Y-10745200D01*
X14790223Y-10747169D01*
X14794799Y-10752449D01*
X14795793Y-10759365D01*
X14794568Y-10763229D01*
X14794503Y-10763356D01*
X14794385Y-10763589D01*
X14792628Y-10774680D01*
X14792628Y-10774680D01*
X14794385Y-10785771D01*
X14799483Y-10795777D01*
X14807423Y-10803717D01*
X14817429Y-10808815D01*
X14828520Y-10810572D01*
X14828520Y-10810572D01*
X14828520Y-10810572D01*
X14839611Y-10808815D01*
X14839611Y-10808815D01*
X14839611Y-10808815D01*
X14849617Y-10803717D01*
X14857557Y-10795777D01*
X14862655Y-10785771D01*
X14862655Y-10785771D01*
X14862655Y-10785771D01*
X14864412Y-10774680D01*
X14864412Y-10774680D01*
X14862655Y-10763589D01*
X14862655Y-10763589D01*
X14862655Y-10763589D01*
X14862472Y-10763229D01*
X14862381Y-10762745D01*
X14862354Y-10762661D01*
X14862365Y-10762658D01*
X14861182Y-10756362D01*
X14863810Y-10749888D01*
X14869521Y-10745863D01*
X14873521Y-10745200D01*
X15081239Y-10745200D01*
X15083658Y-10745438D01*
X15085060Y-10745717D01*
X15095361Y-10743668D01*
X15101889Y-10739306D01*
X15101889Y-10739306D01*
X15103545Y-10738200D01*
X15104093Y-10737833D01*
X15104887Y-10736645D01*
X15106429Y-10734766D01*
X15184846Y-10656349D01*
X15186724Y-10654808D01*
X15187913Y-10654013D01*
X15188802Y-10652683D01*
X15188802Y-10652683D01*
X15189386Y-10651809D01*
X15189386Y-10651809D01*
X15193748Y-10645281D01*
X15195797Y-10634980D01*
X15195624Y-10634111D01*
X15195518Y-10633577D01*
X15195280Y-10631158D01*
X15195280Y-10621681D01*
X15197248Y-10614977D01*
X15202529Y-10610402D01*
X15209445Y-10609407D01*
X15214724Y-10611476D01*
G37*
G04 #@! TD.AperFunction*
M02*
