M48
; DRILL file {KiCad 7.0.10-7.0.10~ubuntu22.04.1} date Sat Mar 30 17:15:18 2024
; FORMAT={-:-/ absolute / inch / decimal}
; #@! TF.CreationDate,2024-03-30T17:15:18+01:00
; #@! TF.GenerationSoftware,Kicad,Pcbnew,7.0.10-7.0.10~ubuntu22.04.1
; #@! TF.FileFunction,Plated,1,4,PTH
FMAT,2
INCH
; #@! TA.AperFunction,Plated,PTH,ViaDrill
T1C0.0118
; #@! TA.AperFunction,Plated,PTH,ComponentDrill
T2C0.0236
%
G90
G05
T1
X3.4772Y-4.485
X3.4803Y-4.3984
X3.4811Y-4.2925
X3.4827Y-4.1862
X3.5047Y-3.8693
X3.576Y-3.1626
X3.5945Y-4.1866
X3.5945Y-4.2945
X3.5957Y-4.3957
X3.5961Y-3.4236
X3.5969Y-4.4906
X3.6264Y-3.3358
X3.6906Y-4.1874
X3.6937Y-4.2933
X3.6941Y-4.3972
X3.6961Y-4.4843
X3.8642Y-4.5783
X3.8831Y-5.5071
X3.948Y-4.4508
X3.9492Y-4.2531
X3.9504Y-4.3835
X3.9516Y-4.322
X3.9685Y-3.9276
X3.9846Y-5.5157
X4.0098Y-3.7224
X4.0126Y-3.9752
X4.0591Y-4.4516
X4.0693Y-4.3189
X4.0795Y-5.5213
X4.0807Y-4.7543
X4.0843Y-4.3984
X4.0913Y-4.4378
X4.1094Y-4.3244
X4.1161Y-4.5776
X4.1723Y-5.5205
X4.1744Y-3.9921
X4.2626Y-3.9941
X4.2807Y-4.6315
X4.2984Y-4.4933
X4.3Y-5.0157
X4.3571Y-3.9913
X4.385Y-5.5067
X4.3925Y-5.0969
X4.3996Y-4.2362
X4.478Y-3.9933
X4.4872Y-4.7607
X4.4894Y-5.5185
X4.5776Y-5.5102
X4.6764Y-5.5008
X4.6945Y-3.7728
X4.713Y-4.5391
X4.7209Y-4.2331
X4.7551Y-4.1106
X4.8744Y-4.1394
X4.9114Y-4.0736
X4.9528Y-4.0295
X4.974Y-3.5492
X4.9803Y-3.9984
X4.9866Y-4.8689
X5.0126Y-4.2043
X5.0201Y-3.4831
X5.0551Y-4.1276
X5.0551Y-4.6114
X5.06Y-3.9043
X5.0795Y-4.7642
X5.0823Y-5.522
X5.1201Y-3.9988
X5.1646Y-4.0335
X5.1807Y-4.8606
X5.1819Y-3.7783
X5.1839Y-4.1354
X5.1945Y-3.9909
X5.1949Y-3.8488
X5.2091Y-4.152
X5.2306Y-4.1772
X5.2508Y-4.1999
X5.2555Y-4.0181
X5.2728Y-4.8815
X5.2748Y-4.1701
X5.2807Y-5.485
X5.2846Y-3.9902
X5.3402Y-3.9209
X5.3449Y-4.1626
X5.3618Y-3.8224
X5.3626Y-4.2433
X5.365Y-4.2071
X5.3843Y-4.0236
X5.3878Y-3.8827
X5.4012Y-4.1118
X5.4051Y-4.2403
X5.4091Y-4.0815
X5.4177Y-4.0256
X5.4197Y-4.0551
X5.4244Y-4.3425
X5.4413Y-4.2417
X5.4669Y-4.026
X5.4677Y-3.9917
X5.478Y-3.5839
X5.4787Y-5.4807
X5.4854Y-4.1906
X5.4957Y-3.322
X5.5437Y-3.9189
X5.5551Y-4.1917
X5.5602Y-4.2539
X5.5606Y-4.2201
X5.572Y-3.5909
X5.5728Y-4.1535
X5.5748Y-4.0228
X5.5756Y-5.5094
X5.5803Y-4.4406
X5.5827Y-3.7921
X5.5862Y-4.7571
X5.5886Y-4.115
X5.6024Y-4.0543
X5.6033Y-4.2556
X5.6307Y-4.2524
X5.6551Y-3.5579
X5.663Y-4.026
X5.6685Y-4.2319
X5.6744Y-4.187
X5.6783Y-3.9972
X5.6783Y-4.9854
X5.6961Y-4.3949
X5.7083Y-3.8528
X5.7366Y-4.3394
X5.7437Y-3.9264
X5.7453Y-4.8795
X5.7602Y-4.2264
X5.763Y-5.1398
X5.7661Y-4.1846
X5.7835Y-4.0358
X5.8461Y-4.1268
X5.8465Y-3.9921
X5.8551Y-4.0457
X5.8551Y-4.0827
X5.8882Y-4.4575
X5.9476Y-4.3035
X5.9492Y-3.8035
X5.9516Y-4.1055
X5.9528Y-4.2075
X5.9539Y-4.6079
T2
X4.6193Y-3.0141
X4.6723Y-3.5911
X4.7933Y-3.0241
X4.7963Y-3.5421
X4.8703Y-3.5111
X4.8793Y-3.6061
X5.1393Y-2.9411
X5.2373Y-3.2921
X5.2402Y-3.4693
X5.2613Y-3.5481
X5.3423Y-3.5411
X5.3493Y-3.0981
X5.5503Y-3.0981
X5.5913Y-3.1451
X5.6063Y-3.4441
X5.6553Y-3.4891
M30
