%TF.GenerationSoftware,KiCad,Pcbnew,7.0.10-7.0.10~ubuntu22.04.1*%
%TF.CreationDate,2024-03-30T17:15:14+01:00*%
%TF.ProjectId,test_fixture,74657374-5f66-4697-9874-7572652e6b69,rev?*%
%TF.SameCoordinates,Original*%
%TF.FileFunction,Copper,L4,Bot*%
%TF.FilePolarity,Positive*%
%FSLAX46Y46*%
G04 Gerber Fmt 4.6, Leading zero omitted, Abs format (unit mm)*
G04 Created by KiCad (PCBNEW 7.0.10-7.0.10~ubuntu22.04.1) date 2024-03-30 17:15:14*
%MOMM*%
%LPD*%
G01*
G04 APERTURE LIST*
%TA.AperFunction,ComponentPad*%
%ADD10C,1.200000*%
%TD*%
%TA.AperFunction,ViaPad*%
%ADD11C,0.500000*%
%TD*%
%TA.AperFunction,Conductor*%
%ADD12C,0.254000*%
%TD*%
%TA.AperFunction,Conductor*%
%ADD13C,0.127000*%
%TD*%
G04 APERTURE END LIST*
D10*
%TO.P,POGO12,1,Pin_1*%
%TO.N,/I2C_DATA_1.8*%
X117330886Y-76558500D03*
%TD*%
%TO.P,POGO21,1,Pin_1*%
%TO.N,SWDCLK_1.8*%
X123706286Y-89182300D03*
%TD*%
%TO.P,POGO14,1,Pin_1*%
%TO.N,GND*%
X123934886Y-91595300D03*
%TD*%
%TO.P,POGO11,1,Pin_1*%
%TO.N,I2C_CLK_1.8*%
X121750486Y-76812500D03*
%TD*%
%TO.P,POGO3,1,Pin_1*%
%TO.N,GND*%
X135872886Y-78692100D03*
%TD*%
%TO.P,POGO7,1,Pin_1*%
%TO.N,/BUTTON*%
X133100000Y-88120000D03*
%TD*%
%TO.P,POGO22,1,Pin_1*%
%TO.N,SWDIO_1.8*%
X121826686Y-89969700D03*
%TD*%
%TO.P,POGO10,1,Pin_1*%
%TO.N,FF_CLK_1.8*%
X133028086Y-83619700D03*
%TD*%
%TO.P,POGO1,1,Pin_1*%
%TO.N,UART_RX_1.8*%
X140978286Y-78692100D03*
%TD*%
%TO.P,POGO19,1,Pin_1*%
%TO.N,VDD*%
X142400686Y-87480500D03*
%TD*%
%TO.P,POGO5,1,Pin_1*%
%TO.N,/UART_TX_TO_MCU_1.8*%
X142019686Y-79885900D03*
%TD*%
%TO.P,POGO2,1,Pin_1*%
%TO.N,VREF_IN_1.8*%
X118677086Y-91214300D03*
%TD*%
%TO.P,POGO16,1,Pin_1*%
%TO.N,+1.8V*%
X130538886Y-74704300D03*
%TD*%
%TO.P,POGO15,1,Pin_1*%
%TO.N,FF_Q_1.8*%
X135695086Y-89944300D03*
%TD*%
%TO.P,POGO8,1,Pin_1*%
%TO.N,FF_D_1.8*%
X133637686Y-90122100D03*
%TD*%
%TO.P,POGO6,1,Pin_1*%
%TO.N,GND*%
X143645286Y-88623500D03*
%TD*%
D11*
%TO.N,GND*%
X91360000Y-114060000D03*
X135640000Y-99590000D03*
X93880000Y-113900000D03*
X128400000Y-104840000D03*
X90830000Y-80330000D03*
X88400000Y-111720000D03*
X88460000Y-106330000D03*
X91330000Y-111650000D03*
X100800000Y-99760000D03*
X119709859Y-115292045D03*
X89020000Y-98280000D03*
X143840000Y-102260000D03*
X143640000Y-90370000D03*
X144130000Y-106350000D03*
X131940000Y-101370000D03*
X93820000Y-109050000D03*
X141100000Y-106470000D03*
X88320000Y-113920000D03*
X103650000Y-120760000D03*
X141890000Y-120830000D03*
X100370000Y-109780000D03*
X104380000Y-109840000D03*
X129020000Y-121010000D03*
X104550000Y-116270000D03*
X135760000Y-105730000D03*
X146460000Y-106290000D03*
X91340000Y-86960000D03*
X88420000Y-109030000D03*
X93740000Y-106360000D03*
X103360000Y-109700000D03*
X145890000Y-99730000D03*
X138880000Y-101390000D03*
X140810000Y-99540000D03*
X101920000Y-100970000D03*
X141620000Y-139940000D03*
X91300000Y-109080000D03*
X116270000Y-139960000D03*
X101850000Y-94550000D03*
X91300000Y-106340000D03*
X103620000Y-140240000D03*
X93830000Y-111690000D03*
X129090000Y-140260000D03*
X149560000Y-113220000D03*
X139330000Y-106440000D03*
X144680000Y-111630000D03*
X127320000Y-106790000D03*
X133490000Y-102060000D03*
X146380000Y-130550000D03*
X128523099Y-99170337D03*
%TO.N,+3.3V*%
X145710000Y-110220000D03*
X138860000Y-102260000D03*
X144230000Y-101530000D03*
X108730000Y-117640000D03*
X134230000Y-101350000D03*
X133980000Y-105920000D03*
X126500000Y-101560000D03*
%TO.N,+5V*%
X100280000Y-113050000D03*
X103740000Y-111720000D03*
X98150000Y-116290000D03*
X103100000Y-113070000D03*
X103920000Y-112720000D03*
X100340000Y-111340000D03*
%TO.N,VDD*%
X108270000Y-101450000D03*
X110670000Y-101380000D03*
X106030000Y-101400000D03*
X119910000Y-107520000D03*
X151070000Y-109310000D03*
X100310000Y-108030000D03*
X113740000Y-101430000D03*
%TO.N,+1.8V*%
X146900000Y-102510000D03*
X141600000Y-102180000D03*
X136760000Y-102200000D03*
X130050000Y-101570000D03*
%TO.N,BUTTON_CTRL*%
X118780000Y-139720000D03*
X128400000Y-117130000D03*
%TO.N,SENSE_3.3V*%
X131950000Y-97760000D03*
X113974533Y-120921558D03*
X120780000Y-104410000D03*
%TO.N,BUTTON_DIVIDED*%
X142300000Y-102980000D03*
X141740000Y-112790000D03*
%TO.N,/RP2040 and Shifters/OE_CTRL*%
X146310000Y-107350000D03*
X136270000Y-106860000D03*
X141240000Y-107190000D03*
%TO.N,Net-(U1-GP13)*%
X137780000Y-110300000D03*
X139160000Y-139210000D03*
%TO.N,/RP2040 and Shifters/BUTTON_INPUT_SENSED*%
X114030000Y-140170000D03*
X136210000Y-107780000D03*
%TO.N,/UART_TX_TO_MCU_1.8*%
X123810000Y-105140000D03*
X136190000Y-97090000D03*
X109180000Y-114130000D03*
%TO.N,FF_CLK_1.8*%
X141950000Y-104520000D03*
X139590000Y-84380000D03*
X151200000Y-106870000D03*
%TO.N,FF_D_1.8*%
X141550000Y-105500000D03*
X139140000Y-91030000D03*
X151230000Y-117040000D03*
%TO.N,I2C_CLK_1.8*%
X151110000Y-96610000D03*
X148490000Y-104820000D03*
X151171745Y-104279824D03*
%TO.N,SWDIO_1.8*%
X131180000Y-102450000D03*
%TO.N,SWDCLK_1.8*%
X137610000Y-102250000D03*
%TO.N,UART_RX_1.8*%
X137660000Y-103000000D03*
%TO.N,UART_TX_1.8*%
X111750000Y-107600000D03*
X137390000Y-103670000D03*
%TO.N,/RP2040 and Shifters/UART_RX*%
X132310000Y-105460000D03*
X98630000Y-139880000D03*
X119240000Y-95830000D03*
X125800000Y-102350000D03*
%TO.N,/RP2040 and Shifters/UART_TX*%
X136850000Y-98620000D03*
X132856500Y-106100000D03*
X127510000Y-88470000D03*
X101210000Y-140100000D03*
%TO.N,/RP2040 and Shifters/RESET*%
X133370000Y-106676500D03*
X105976904Y-140220043D03*
%TO.N,/RP2040 and Shifters/SWDCLK*%
X131670000Y-105040000D03*
X111570000Y-129460000D03*
%TO.N,/RP2040 and Shifters/PDM_CLK*%
X143020000Y-108010000D03*
X134130000Y-139320000D03*
%TO.N,/RP2040 and Shifters/FF_Q*%
X141230000Y-108050000D03*
X126660000Y-123670000D03*
%TO.N,/RP2040 and Shifters/FF_D*%
X131590000Y-123460000D03*
X138210000Y-107740000D03*
%TO.N,/RP2040 and Shifters/FF_CLK*%
X137290000Y-107703500D03*
X133930000Y-123990000D03*
%TO.N,/RP2040 and Shifters/I2C_CLK*%
X144230000Y-126630000D03*
X143980000Y-107490000D03*
%TO.N,/RP2040 and Shifters/VREF_IN*%
X145930000Y-123940000D03*
X142324935Y-108092993D03*
%TO.N,RESET_1.8*%
X137189719Y-104440016D03*
%TO.N,PDM_CLK_1.8*%
X148720000Y-103700000D03*
%TO.N,VREF_IN_1.8*%
X141800000Y-96320000D03*
X126340000Y-90150000D03*
X92110000Y-84730000D03*
X148720000Y-102760000D03*
X131620000Y-95970000D03*
%TO.N,FF_Q_1.8*%
X141530000Y-91210000D03*
X148500000Y-101400000D03*
X144990000Y-97860000D03*
%TO.N,/RP2040 and Shifters/SWDIO*%
X111380000Y-139870000D03*
X109220000Y-127400000D03*
X124750000Y-103470000D03*
%TD*%
D12*
%TO.N,GND*%
X91340000Y-86960000D02*
X120127962Y-86960000D01*
X123934886Y-90766924D02*
X123934886Y-91595300D01*
X120127962Y-86960000D02*
X123934886Y-90766924D01*
D13*
%TO.N,BUTTON_CTRL*%
X128400000Y-117130000D02*
X128010000Y-117130000D01*
X118780000Y-126360000D02*
X118780000Y-139720000D01*
X128010000Y-117130000D02*
X118780000Y-126360000D01*
%TO.N,SENSE_3.3V*%
X132950000Y-98760000D02*
X132950000Y-100940000D01*
X124950000Y-102250000D02*
X122940000Y-102250000D01*
X122940000Y-102250000D02*
X120780000Y-104410000D01*
X132950000Y-100940000D02*
X132950000Y-102000000D01*
X131710000Y-103240000D02*
X130570000Y-103240000D01*
X131950000Y-97760000D02*
X132950000Y-98760000D01*
X131950000Y-103000000D02*
X131710000Y-103240000D01*
X126233801Y-103510000D02*
X124973801Y-102250000D01*
X130570000Y-103240000D02*
X130300000Y-103510000D01*
X124973801Y-102250000D02*
X124950000Y-102250000D01*
X132950000Y-102000000D02*
X131950000Y-103000000D01*
X130300000Y-103510000D02*
X126540000Y-103510000D01*
X126540000Y-103510000D02*
X126233801Y-103510000D01*
%TO.N,/RP2040 and Shifters/OE_CTRL*%
X136600000Y-107190000D02*
X141240000Y-107190000D01*
X141550000Y-106880000D02*
X145840000Y-106880000D01*
X145840000Y-106880000D02*
X146310000Y-107350000D01*
X136270000Y-106860000D02*
X136600000Y-107190000D01*
X141240000Y-107190000D02*
X141550000Y-106880000D01*
%TO.N,Net-(U1-GP13)*%
X137780000Y-110300000D02*
X137780000Y-133660000D01*
X137780000Y-133660000D02*
X133330000Y-138110000D01*
X134040000Y-140320000D02*
X138050000Y-140320000D01*
X133330000Y-139610000D02*
X134040000Y-140320000D01*
X138050000Y-140320000D02*
X139160000Y-139210000D01*
X133330000Y-138110000D02*
X133330000Y-139610000D01*
%TO.N,/RP2040 and Shifters/BUTTON_INPUT_SENSED*%
X114080000Y-137280000D02*
X114080000Y-137300000D01*
X114080000Y-137300000D02*
X114030000Y-137350000D01*
X117040000Y-126950000D02*
X117040000Y-134320000D01*
X114030000Y-137350000D02*
X114030000Y-140170000D01*
X136210000Y-107780000D02*
X117040000Y-126950000D01*
X117040000Y-134320000D02*
X114080000Y-137280000D01*
D12*
%TO.N,/UART_TX_TO_MCU_1.8*%
X123810000Y-105140000D02*
X123380000Y-105570000D01*
X142870000Y-79035586D02*
X142870000Y-78800000D01*
X112140000Y-106650000D02*
X112327000Y-106837000D01*
X112327000Y-106837000D02*
X112327000Y-108333000D01*
X137650000Y-95630000D02*
X136190000Y-97090000D01*
X141650000Y-77580000D02*
X140210000Y-77580000D01*
X123380000Y-105570000D02*
X113790000Y-105570000D01*
X113220000Y-105570000D02*
X112140000Y-106650000D01*
X109180000Y-114130000D02*
X109190000Y-114110000D01*
X142870000Y-78800000D02*
X141650000Y-77580000D01*
X137650000Y-82250000D02*
X137650000Y-95630000D01*
X110250000Y-110410000D02*
X109190000Y-111470000D01*
X109190000Y-111470000D02*
X109180000Y-114130000D01*
X112327000Y-108333000D02*
X110250000Y-110410000D01*
X142019686Y-79885900D02*
X142870000Y-79035586D01*
X137650000Y-80140000D02*
X137650000Y-82250000D01*
X140210000Y-77580000D02*
X137650000Y-80140000D01*
X113790000Y-105570000D02*
X113220000Y-105570000D01*
D13*
%TO.N,FF_CLK_1.8*%
X140296500Y-102126500D02*
X140296500Y-85136500D01*
X140296500Y-85136500D02*
X139590000Y-84430000D01*
X139590000Y-84430000D02*
X139590000Y-84380000D01*
X146110000Y-104520000D02*
X147980000Y-106390000D01*
X141950000Y-104520000D02*
X146110000Y-104520000D01*
X147980000Y-106390000D02*
X148460000Y-106870000D01*
X140550000Y-102380000D02*
X140296500Y-102126500D01*
X141950000Y-104520000D02*
X141950000Y-103780000D01*
X139590000Y-84380000D02*
X139540000Y-84380000D01*
X148460000Y-106870000D02*
X151200000Y-106870000D01*
X141950000Y-103780000D02*
X140550000Y-102380000D01*
X139540000Y-84380000D02*
X139520000Y-84360000D01*
%TO.N,FF_D_1.8*%
X147660000Y-111560000D02*
X147660000Y-114570000D01*
X139969500Y-101620000D02*
X139969500Y-91879500D01*
X139969500Y-103919500D02*
X139969500Y-101620000D01*
X147047552Y-105920000D02*
X147660000Y-106532448D01*
X147660000Y-106532448D02*
X147660000Y-111560000D01*
X139140000Y-91050000D02*
X139140000Y-91030000D01*
X150100000Y-117010000D02*
X151230000Y-117040000D01*
X139969500Y-91879500D02*
X139140000Y-91050000D01*
X139120000Y-91030000D02*
X139110000Y-91020000D01*
X141550000Y-105500000D02*
X146627552Y-105500000D01*
X146627552Y-105500000D02*
X147047552Y-105920000D01*
X149910000Y-116820000D02*
X150100000Y-117010000D01*
X141550000Y-105500000D02*
X139969500Y-103919500D01*
X147660000Y-114570000D02*
X149910000Y-116820000D01*
X151230000Y-117040000D02*
X151230000Y-117010000D01*
X139140000Y-91030000D02*
X139120000Y-91030000D01*
%TO.N,SWDIO_1.8*%
X131180000Y-101610000D02*
X129710000Y-100140000D01*
X121826686Y-92816686D02*
X121826686Y-89969700D01*
X129710000Y-97980000D02*
X125640000Y-93910000D01*
X125640000Y-93910000D02*
X122920000Y-93910000D01*
X129710000Y-100140000D02*
X129710000Y-97980000D01*
X131180000Y-102450000D02*
X131180000Y-101610000D01*
X122920000Y-93910000D02*
X121826686Y-92816686D01*
%TO.N,SWDCLK_1.8*%
X137610000Y-100390000D02*
X134380000Y-97160000D01*
X125520000Y-92930000D02*
X125520000Y-90330000D01*
X125520000Y-90330000D02*
X124853986Y-90330000D01*
X124853986Y-90330000D02*
X123706286Y-89182300D01*
X137610000Y-102250000D02*
X137610000Y-100390000D01*
X129750000Y-97160000D02*
X125520000Y-92930000D01*
X134380000Y-97160000D02*
X129750000Y-97160000D01*
%TO.N,UART_RX_1.8*%
X138150000Y-81520386D02*
X140978286Y-78692100D01*
X137660000Y-103000000D02*
X138150000Y-102510000D01*
X138150000Y-102510000D02*
X138150000Y-81520386D01*
%TO.N,UART_TX_1.8*%
X124470000Y-102930000D02*
X122350000Y-105050000D01*
X124936199Y-102930000D02*
X124470000Y-102930000D01*
X129060000Y-105700000D02*
X127442448Y-105700000D01*
X111750000Y-106020000D02*
X111750000Y-107600000D01*
X131090000Y-103670000D02*
X129060000Y-105700000D01*
X122350000Y-105050000D02*
X112720000Y-105050000D01*
X127442448Y-105700000D02*
X126811224Y-105068776D01*
X137390000Y-103670000D02*
X131090000Y-103670000D01*
X112720000Y-105050000D02*
X111750000Y-106020000D01*
X126811224Y-105068776D02*
X126811224Y-104805025D01*
X126811224Y-104805025D02*
X124936199Y-102930000D01*
%TO.N,/RP2040 and Shifters/UART_RX*%
X132310000Y-105460000D02*
X132310000Y-104740000D01*
X131880000Y-104310000D02*
X131160000Y-104310000D01*
D12*
X125760000Y-102350000D02*
X125800000Y-102350000D01*
D13*
X132310000Y-104740000D02*
X131880000Y-104310000D01*
X128650000Y-111170000D02*
X111630000Y-128190000D01*
X131160000Y-104310000D02*
X128650000Y-106820000D01*
D12*
X119240000Y-95830000D02*
X125760000Y-102350000D01*
D13*
X111630000Y-128190000D02*
X110320000Y-128190000D01*
X128650000Y-106820000D02*
X128650000Y-111170000D01*
X110320000Y-128190000D02*
X98630000Y-139880000D01*
%TO.N,/RP2040 and Shifters/UART_TX*%
X105670000Y-136710000D02*
X103830000Y-136710000D01*
D12*
X127510000Y-89226002D02*
X136850000Y-98566002D01*
X136903998Y-98620000D02*
X136910000Y-98626002D01*
X127510000Y-88470000D02*
X127510000Y-89226002D01*
X136910000Y-98626002D02*
X136910000Y-98690000D01*
X136850000Y-98566002D02*
X136850000Y-98620000D01*
D13*
X132856500Y-106100000D02*
X132856500Y-106363500D01*
X132856500Y-106363500D02*
X130260000Y-108960000D01*
X103830000Y-136710000D02*
X101210000Y-139330000D01*
D12*
X136850000Y-98620000D02*
X136903998Y-98620000D01*
D13*
X130260000Y-108960000D02*
X130260000Y-112100000D01*
X130260000Y-112100000D02*
X125930000Y-116430000D01*
X125930000Y-116430000D02*
X125930000Y-116450000D01*
X125930000Y-116450000D02*
X105670000Y-136710000D01*
X101210000Y-139330000D02*
X101210000Y-140100000D01*
%TO.N,/RP2040 and Shifters/RESET*%
X130830000Y-112630000D02*
X114580000Y-128880000D01*
X105976904Y-139433096D02*
X105976904Y-140220043D01*
X133370000Y-106676500D02*
X130830000Y-109216500D01*
X114590000Y-130820000D02*
X105976904Y-139433096D01*
X114590000Y-128960000D02*
X114580000Y-128880000D01*
X114590000Y-128960000D02*
X114590000Y-130820000D01*
X130830000Y-109216500D02*
X130830000Y-112630000D01*
D12*
%TO.N,/RP2040 and Shifters/SWDCLK*%
X111620000Y-129460000D02*
X111570000Y-129460000D01*
X111570000Y-129460000D02*
X111570000Y-129510000D01*
X111630000Y-129450000D02*
X111620000Y-129460000D01*
X129540000Y-111540000D02*
X129540000Y-107170000D01*
X111570000Y-129510000D02*
X129540000Y-111540000D01*
X129540000Y-107170000D02*
X131670000Y-105040000D01*
D13*
%TO.N,/RP2040 and Shifters/PDM_CLK*%
X143020000Y-129350000D02*
X134130000Y-138240000D01*
X143020000Y-108010000D02*
X143020000Y-129350000D01*
X134130000Y-138240000D02*
X134130000Y-139320000D01*
%TO.N,/RP2040 and Shifters/FF_Q*%
X141026500Y-108253500D02*
X138526500Y-108253500D01*
X141230000Y-108050000D02*
X141026500Y-108253500D01*
X136110000Y-110670000D02*
X136110000Y-123762448D01*
X138526500Y-108253500D02*
X136110000Y-110670000D01*
X134182448Y-125690000D02*
X133490000Y-125690000D01*
X128780000Y-125690000D02*
X126770000Y-123680000D01*
X136110000Y-123762448D02*
X134182448Y-125690000D01*
X133490000Y-125690000D02*
X128780000Y-125690000D01*
%TO.N,/RP2040 and Shifters/FF_D*%
X135020000Y-123626199D02*
X134940000Y-123706199D01*
X134540000Y-124870000D02*
X132780000Y-124870000D01*
X138210000Y-107740000D02*
X135020000Y-110930000D01*
X134940000Y-123706199D02*
X134940000Y-124470000D01*
X135020000Y-119540000D02*
X135020000Y-123626199D01*
X135020000Y-110930000D02*
X135020000Y-119540000D01*
X134940000Y-124470000D02*
X134540000Y-124870000D01*
X131590000Y-123680000D02*
X131590000Y-123460000D01*
X132780000Y-124870000D02*
X131590000Y-123680000D01*
%TO.N,/RP2040 and Shifters/FF_CLK*%
X133930000Y-123990000D02*
X133920000Y-123980000D01*
X133920000Y-111073500D02*
X133930000Y-123990000D01*
X137290000Y-107703500D02*
X133920000Y-111073500D01*
D12*
%TO.N,/RP2040 and Shifters/I2C_CLK*%
X144700000Y-126550000D02*
X144230000Y-126630000D01*
X146500000Y-110010000D02*
X146500000Y-118140000D01*
X146500000Y-118140000D02*
X147750000Y-119390000D01*
X143980000Y-107490000D02*
X146500000Y-110010000D01*
X147750000Y-119390000D02*
X147750000Y-119950000D01*
X147750000Y-123500000D02*
X145040000Y-126210000D01*
X144230000Y-126630000D02*
X144230000Y-126550000D01*
X145040000Y-126210000D02*
X144700000Y-126550000D01*
X147750000Y-119950000D02*
X147750000Y-123500000D01*
D13*
%TO.N,/RP2040 and Shifters/VREF_IN*%
X143700000Y-107963801D02*
X143700000Y-123380000D01*
X142324935Y-108092993D02*
X142324935Y-107815065D01*
X144260000Y-123940000D02*
X145930000Y-123940000D01*
X145930000Y-123940000D02*
X145850000Y-123940000D01*
X142820000Y-107320000D02*
X143056199Y-107320000D01*
X143056199Y-107320000D02*
X143700000Y-107963801D01*
X142324935Y-107815065D02*
X142820000Y-107320000D01*
X143700000Y-123380000D02*
X144260000Y-123940000D01*
%TO.N,VREF_IN_1.8*%
X131620000Y-95970000D02*
X126340000Y-90690000D01*
D12*
X92110000Y-84730000D02*
X90763000Y-86077000D01*
D13*
X146490000Y-100530000D02*
X145380000Y-100530000D01*
X141790000Y-96940000D02*
X141800000Y-96320000D01*
D12*
X90763000Y-86077000D02*
X90763000Y-87199002D01*
D13*
X148720000Y-102760000D02*
X146490000Y-100530000D01*
X145380000Y-100530000D02*
X141790000Y-96940000D01*
D12*
X92163998Y-88600000D02*
X116062786Y-88600000D01*
X90763000Y-87199002D02*
X92163998Y-88600000D01*
D13*
X126340000Y-90690000D02*
X126340000Y-90150000D01*
D12*
X116062786Y-88600000D02*
X118677086Y-91214300D01*
D13*
X141800000Y-96320000D02*
X141790000Y-96310000D01*
%TO.N,FF_Q_1.8*%
X148500000Y-101400000D02*
X141530000Y-94430000D01*
X141530000Y-94430000D02*
X141530000Y-91210000D01*
X141530000Y-91210000D02*
X141460000Y-91160000D01*
%TO.N,/RP2040 and Shifters/SWDIO*%
X109220000Y-127400000D02*
X109190000Y-127370000D01*
X127833500Y-106553500D02*
X127833500Y-109786500D01*
X127833500Y-109786500D02*
X110250000Y-127370000D01*
X109190000Y-127370000D02*
X109080000Y-127370000D01*
X109250000Y-127370000D02*
X109220000Y-127400000D01*
X110250000Y-127370000D02*
X109250000Y-127370000D01*
X124750000Y-103470000D02*
X127833500Y-106553500D01*
%TD*%
%TA.AperFunction,Conductor*%
%TO.N,GND*%
G36*
X141818550Y-108662983D02*
G01*
X141838445Y-108679183D01*
X141849026Y-108689764D01*
X141993752Y-108780702D01*
X142155085Y-108837155D01*
X142155084Y-108837155D01*
X142222535Y-108844754D01*
X142324935Y-108856292D01*
X142324935Y-108856291D01*
X142331966Y-108857084D01*
X142331733Y-108859149D01*
X142390121Y-108876294D01*
X142436614Y-108929950D01*
X142448000Y-108982292D01*
X142448000Y-112121129D01*
X142427998Y-112189250D01*
X142374342Y-112235743D01*
X142304068Y-112245847D01*
X142239488Y-112216353D01*
X142232905Y-112210224D01*
X142215912Y-112193231D01*
X142209576Y-112189250D01*
X142181719Y-112171746D01*
X142071182Y-112102290D01*
X141966292Y-112065588D01*
X141909850Y-112045838D01*
X141909848Y-112045837D01*
X141909850Y-112045837D01*
X141740000Y-112026701D01*
X141570151Y-112045837D01*
X141408817Y-112102290D01*
X141264087Y-112193231D01*
X141143231Y-112314087D01*
X141052290Y-112458817D01*
X140995837Y-112620151D01*
X140976701Y-112790000D01*
X140995837Y-112959848D01*
X141052290Y-113121182D01*
X141143231Y-113265912D01*
X141264087Y-113386768D01*
X141264089Y-113386769D01*
X141264091Y-113386771D01*
X141408817Y-113477709D01*
X141570150Y-113534162D01*
X141570149Y-113534162D01*
X141587348Y-113536099D01*
X141740000Y-113553299D01*
X141909850Y-113534162D01*
X142071183Y-113477709D01*
X142215909Y-113386771D01*
X142221498Y-113381182D01*
X142232905Y-113369776D01*
X142295217Y-113335750D01*
X142366032Y-113340815D01*
X142422868Y-113383362D01*
X142447679Y-113449882D01*
X142448000Y-113458871D01*
X142448000Y-129060880D01*
X142427998Y-129129001D01*
X142411095Y-129149975D01*
X138567095Y-132993975D01*
X138504783Y-133028001D01*
X138433968Y-133022936D01*
X138377132Y-132980389D01*
X138352321Y-132913869D01*
X138352000Y-132904880D01*
X138352000Y-110851060D01*
X138372002Y-110782939D01*
X138374836Y-110778986D01*
X138376766Y-110775913D01*
X138376771Y-110775909D01*
X138467709Y-110631183D01*
X138524162Y-110469850D01*
X138543299Y-110300000D01*
X138524162Y-110130150D01*
X138467709Y-109968817D01*
X138376771Y-109824091D01*
X138376769Y-109824089D01*
X138376768Y-109824087D01*
X138255912Y-109703231D01*
X138162336Y-109644433D01*
X138115299Y-109591254D01*
X138104479Y-109521087D01*
X138133312Y-109456209D01*
X138140264Y-109448664D01*
X138726526Y-108862404D01*
X138788838Y-108828379D01*
X138815621Y-108825500D01*
X140980756Y-108825500D01*
X140997202Y-108826578D01*
X141026500Y-108830435D01*
X141063986Y-108825500D01*
X141063992Y-108825500D01*
X141175230Y-108810854D01*
X141205773Y-108810569D01*
X141230000Y-108813299D01*
X141399850Y-108794162D01*
X141561183Y-108737709D01*
X141682317Y-108661594D01*
X141750637Y-108642288D01*
X141818550Y-108662983D01*
G37*
%TD.AperFunction*%
%TA.AperFunction,Conductor*%
G36*
X144480512Y-108889698D02*
G01*
X144487095Y-108895827D01*
X145135198Y-109543930D01*
X145169224Y-109606242D01*
X145164159Y-109677057D01*
X145135200Y-109722119D01*
X145113230Y-109744088D01*
X145022290Y-109888817D01*
X144965837Y-110050151D01*
X144946701Y-110220000D01*
X144965837Y-110389848D01*
X145022290Y-110551182D01*
X145050349Y-110595837D01*
X145104700Y-110682336D01*
X145113231Y-110695912D01*
X145234087Y-110816768D01*
X145234089Y-110816769D01*
X145234091Y-110816771D01*
X145378817Y-110907709D01*
X145540150Y-110964162D01*
X145540149Y-110964162D01*
X145555496Y-110965891D01*
X145710000Y-110983299D01*
X145724393Y-110981677D01*
X145794324Y-110993926D01*
X145846532Y-111042039D01*
X145864500Y-111106885D01*
X145864500Y-118055931D01*
X145862748Y-118071801D01*
X145863038Y-118071829D01*
X145862292Y-118079720D01*
X145864438Y-118148011D01*
X145864500Y-118151969D01*
X145864500Y-118179987D01*
X145865011Y-118184038D01*
X145865940Y-118195847D01*
X145867334Y-118240202D01*
X145867335Y-118240207D01*
X145873014Y-118259756D01*
X145877021Y-118279107D01*
X145879572Y-118299295D01*
X145879572Y-118299296D01*
X145895906Y-118340553D01*
X145899749Y-118351779D01*
X145912129Y-118394390D01*
X145912131Y-118394395D01*
X145922492Y-118411914D01*
X145931189Y-118429666D01*
X145938681Y-118448588D01*
X145964765Y-118484490D01*
X145971281Y-118494410D01*
X145993865Y-118532597D01*
X145993868Y-118532601D01*
X146008250Y-118546983D01*
X146021090Y-118562016D01*
X146033054Y-118578483D01*
X146033057Y-118578486D01*
X146067254Y-118606776D01*
X146076034Y-118614766D01*
X147077595Y-119616327D01*
X147111621Y-119678639D01*
X147114500Y-119705422D01*
X147114500Y-123184577D01*
X147094498Y-123252698D01*
X147077599Y-123273667D01*
X146911890Y-123439377D01*
X146777565Y-123573702D01*
X146715253Y-123607727D01*
X146644437Y-123602662D01*
X146587602Y-123560115D01*
X146581783Y-123551642D01*
X146526771Y-123464091D01*
X146526770Y-123464090D01*
X146526767Y-123464086D01*
X146405912Y-123343231D01*
X146261182Y-123252290D01*
X146161270Y-123217330D01*
X146099850Y-123195838D01*
X146099848Y-123195837D01*
X146099850Y-123195837D01*
X145930000Y-123176701D01*
X145760151Y-123195837D01*
X145598817Y-123252290D01*
X145503380Y-123312257D01*
X145454091Y-123343229D01*
X145454089Y-123343230D01*
X145448100Y-123346994D01*
X145446777Y-123344888D01*
X145391768Y-123367345D01*
X145378940Y-123368000D01*
X144549120Y-123368000D01*
X144480999Y-123347998D01*
X144460025Y-123331095D01*
X144308905Y-123179975D01*
X144274879Y-123117663D01*
X144272000Y-123090880D01*
X144272000Y-108984922D01*
X144292002Y-108916801D01*
X144345658Y-108870308D01*
X144415932Y-108860204D01*
X144480512Y-108889698D01*
G37*
%TD.AperFunction*%
%TA.AperFunction,Conductor*%
G36*
X139340696Y-102940752D02*
G01*
X139386640Y-102994878D01*
X139397500Y-103046051D01*
X139397500Y-103873756D01*
X139396422Y-103890202D01*
X139392565Y-103919499D01*
X139392565Y-103919501D01*
X139396961Y-103952896D01*
X139396962Y-103952903D01*
X139397500Y-103956986D01*
X139397500Y-103956992D01*
X139398255Y-103962723D01*
X139403318Y-104001183D01*
X139412223Y-104068822D01*
X139469857Y-104207967D01*
X139520591Y-104274084D01*
X139520592Y-104274085D01*
X139561545Y-104327455D01*
X139579971Y-104341593D01*
X139584999Y-104345452D01*
X139597389Y-104356319D01*
X140761318Y-105520248D01*
X140795344Y-105582560D01*
X140797431Y-105595236D01*
X140805837Y-105669848D01*
X140862290Y-105831182D01*
X140953231Y-105975912D01*
X141074087Y-106096768D01*
X141074089Y-106096769D01*
X141074091Y-106096771D01*
X141218817Y-106187709D01*
X141224809Y-106191474D01*
X141223476Y-106193594D01*
X141267530Y-106233361D01*
X141286145Y-106301874D01*
X141264764Y-106369574D01*
X141236872Y-106399280D01*
X141222236Y-106410510D01*
X141159644Y-106435754D01*
X141115103Y-106440773D01*
X141070150Y-106445838D01*
X141070147Y-106445838D01*
X141070146Y-106445839D01*
X140908817Y-106502290D01*
X140814877Y-106561318D01*
X140764091Y-106593229D01*
X140764089Y-106593230D01*
X140758100Y-106596994D01*
X140756777Y-106594888D01*
X140701768Y-106617345D01*
X140688940Y-106618000D01*
X137078317Y-106618000D01*
X137010196Y-106597998D01*
X136963703Y-106544342D01*
X136959387Y-106533612D01*
X136957709Y-106528818D01*
X136957709Y-106528817D01*
X136866771Y-106384091D01*
X136866769Y-106384089D01*
X136866768Y-106384087D01*
X136745912Y-106263231D01*
X136601182Y-106172290D01*
X136468425Y-106125837D01*
X136439850Y-106115838D01*
X136439848Y-106115837D01*
X136439850Y-106115837D01*
X136270000Y-106096701D01*
X136100151Y-106115837D01*
X135938817Y-106172290D01*
X135794087Y-106263231D01*
X135673231Y-106384087D01*
X135582290Y-106528817D01*
X135525837Y-106690151D01*
X135506701Y-106860000D01*
X135525837Y-107029848D01*
X135582290Y-107191182D01*
X135591110Y-107205218D01*
X135610416Y-107273539D01*
X135591110Y-107339291D01*
X135522292Y-107448813D01*
X135522291Y-107448816D01*
X135465837Y-107610151D01*
X135457431Y-107684762D01*
X135429927Y-107750215D01*
X135421318Y-107759750D01*
X131617095Y-111563974D01*
X131554783Y-111598000D01*
X131483968Y-111592935D01*
X131427132Y-111550388D01*
X131402321Y-111483868D01*
X131402000Y-111474879D01*
X131402000Y-109505620D01*
X131422002Y-109437499D01*
X131438905Y-109416525D01*
X132399174Y-108456256D01*
X133390250Y-107465179D01*
X133452560Y-107431156D01*
X133465234Y-107429068D01*
X133506547Y-107424413D01*
X133539842Y-107420663D01*
X133539842Y-107420662D01*
X133539850Y-107420662D01*
X133701183Y-107364209D01*
X133845909Y-107273271D01*
X133966771Y-107152409D01*
X134057709Y-107007683D01*
X134114162Y-106846350D01*
X134125203Y-106748355D01*
X134152705Y-106682905D01*
X134208790Y-106643537D01*
X134311183Y-106607709D01*
X134455909Y-106516771D01*
X134576771Y-106395909D01*
X134667709Y-106251183D01*
X134724162Y-106089850D01*
X134743299Y-105920000D01*
X134724162Y-105750150D01*
X134667709Y-105588817D01*
X134576771Y-105444091D01*
X134576769Y-105444089D01*
X134576768Y-105444087D01*
X134455912Y-105323231D01*
X134311182Y-105232290D01*
X134173684Y-105184178D01*
X134149850Y-105175838D01*
X134149848Y-105175837D01*
X134149850Y-105175837D01*
X133980000Y-105156701D01*
X133810151Y-105175837D01*
X133648817Y-105232290D01*
X133504089Y-105323230D01*
X133398351Y-105428968D01*
X133336039Y-105462993D01*
X133265223Y-105457927D01*
X133242222Y-105446560D01*
X133194808Y-105416768D01*
X133187682Y-105412290D01*
X133137737Y-105394814D01*
X133080045Y-105353436D01*
X133056919Y-105296786D01*
X133055738Y-105297056D01*
X133054162Y-105290157D01*
X133054162Y-105290150D01*
X132997709Y-105128817D01*
X132906771Y-104984091D01*
X132906769Y-104984089D01*
X132903006Y-104978100D01*
X132905106Y-104976779D01*
X132882652Y-104921739D01*
X132882000Y-104908939D01*
X132882000Y-104785750D01*
X132883078Y-104769303D01*
X132884864Y-104755736D01*
X132886936Y-104740000D01*
X132880333Y-104689850D01*
X132875106Y-104650150D01*
X132867277Y-104590679D01*
X132866206Y-104588092D01*
X132809641Y-104451532D01*
X132804401Y-104444703D01*
X132778801Y-104378485D01*
X132793065Y-104308936D01*
X132842666Y-104258139D01*
X132904364Y-104242000D01*
X136307737Y-104242000D01*
X136375858Y-104262002D01*
X136422351Y-104315658D01*
X136432944Y-104382106D01*
X136428247Y-104423798D01*
X136426420Y-104440016D01*
X136445556Y-104609864D01*
X136502009Y-104771198D01*
X136592950Y-104915928D01*
X136713806Y-105036784D01*
X136713808Y-105036785D01*
X136713810Y-105036787D01*
X136858536Y-105127725D01*
X137019869Y-105184178D01*
X137019868Y-105184178D01*
X137037067Y-105186115D01*
X137189719Y-105203315D01*
X137359569Y-105184178D01*
X137520902Y-105127725D01*
X137665628Y-105036787D01*
X137786490Y-104915925D01*
X137877428Y-104771199D01*
X137933881Y-104609866D01*
X137953018Y-104440016D01*
X137933881Y-104270166D01*
X137933879Y-104270161D01*
X137933447Y-104266323D01*
X137945696Y-104196391D01*
X137969562Y-104163118D01*
X137986768Y-104145912D01*
X137986768Y-104145911D01*
X137986771Y-104145909D01*
X138077709Y-104001183D01*
X138134162Y-103839850D01*
X138153299Y-103670000D01*
X138150916Y-103648853D01*
X138163165Y-103578922D01*
X138187029Y-103545650D01*
X138197018Y-103535661D01*
X138256771Y-103475909D01*
X138347709Y-103331183D01*
X138404162Y-103169850D01*
X138412568Y-103095235D01*
X138440070Y-103029783D01*
X138448671Y-103020257D01*
X138467208Y-103001720D01*
X138529518Y-102967696D01*
X138597916Y-102971888D01*
X138690150Y-103004162D01*
X138690149Y-103004162D01*
X138707348Y-103006099D01*
X138860000Y-103023299D01*
X139029850Y-103004162D01*
X139191183Y-102947709D01*
X139204462Y-102939364D01*
X139272782Y-102920058D01*
X139340696Y-102940752D01*
G37*
%TD.AperFunction*%
%TA.AperFunction,Conductor*%
G36*
X146406553Y-106092002D02*
G01*
X146427527Y-106108905D01*
X146773424Y-106454802D01*
X146807450Y-106517114D01*
X146802385Y-106587929D01*
X146759838Y-106644765D01*
X146693318Y-106669576D01*
X146642714Y-106662826D01*
X146479847Y-106605837D01*
X146479849Y-106605837D01*
X146405236Y-106597431D01*
X146339783Y-106569928D01*
X146330248Y-106561318D01*
X146276819Y-106507889D01*
X146265952Y-106495499D01*
X146247953Y-106472043D01*
X146180294Y-106420126D01*
X146180293Y-106420126D01*
X146128470Y-106380360D01*
X146102430Y-106369574D01*
X145989322Y-106322723D01*
X145989321Y-106322722D01*
X145989317Y-106322721D01*
X145981344Y-106320585D01*
X145981789Y-106318921D01*
X145925906Y-106294200D01*
X145886814Y-106234935D01*
X145885969Y-106163944D01*
X145923639Y-106103765D01*
X145987864Y-106073505D01*
X146007279Y-106072000D01*
X146338432Y-106072000D01*
X146406553Y-106092002D01*
G37*
%TD.AperFunction*%
%TA.AperFunction,Conductor*%
G36*
X141077012Y-96600826D02*
G01*
X141107465Y-96645658D01*
X141109223Y-96644812D01*
X141112289Y-96651181D01*
X141140483Y-96696050D01*
X141199923Y-96790648D01*
X141219229Y-96858967D01*
X141219220Y-96859717D01*
X141218720Y-96890692D01*
X141217659Y-96905101D01*
X141213065Y-96940003D01*
X141222150Y-97009021D01*
X141222399Y-97011033D01*
X141230388Y-97080325D01*
X141231052Y-97082973D01*
X141231129Y-97083378D01*
X141231256Y-97083850D01*
X141231750Y-97085753D01*
X141231885Y-97086293D01*
X141232018Y-97086695D01*
X141232720Y-97089317D01*
X141259390Y-97153703D01*
X141260152Y-97155586D01*
X141285771Y-97220372D01*
X141287092Y-97222747D01*
X141287276Y-97223128D01*
X141287534Y-97223575D01*
X141288522Y-97225319D01*
X141288766Y-97225758D01*
X141289002Y-97226117D01*
X141290361Y-97228471D01*
X141332809Y-97283791D01*
X141334032Y-97285412D01*
X141375516Y-97341320D01*
X141375521Y-97341325D01*
X141403100Y-97363202D01*
X141413890Y-97372820D01*
X144666425Y-100625355D01*
X144700451Y-100687667D01*
X144695386Y-100758482D01*
X144652839Y-100815318D01*
X144586319Y-100840129D01*
X144535715Y-100833379D01*
X144399847Y-100785837D01*
X144399850Y-100785837D01*
X144230000Y-100766701D01*
X144060151Y-100785837D01*
X143898817Y-100842290D01*
X143754087Y-100933231D01*
X143633231Y-101054087D01*
X143542290Y-101198817D01*
X143485837Y-101360151D01*
X143466701Y-101530000D01*
X143485837Y-101699848D01*
X143542290Y-101861182D01*
X143633231Y-102005912D01*
X143754087Y-102126768D01*
X143754089Y-102126769D01*
X143754091Y-102126771D01*
X143898817Y-102217709D01*
X144060150Y-102274162D01*
X144060149Y-102274162D01*
X144077348Y-102276099D01*
X144230000Y-102293299D01*
X144399850Y-102274162D01*
X144561183Y-102217709D01*
X144705909Y-102126771D01*
X144826771Y-102005909D01*
X144917709Y-101861183D01*
X144974162Y-101699850D01*
X144993299Y-101530000D01*
X144974162Y-101360150D01*
X144917709Y-101198817D01*
X144917708Y-101198815D01*
X144915152Y-101193506D01*
X144903621Y-101123452D01*
X144931794Y-101058285D01*
X144990727Y-101018694D01*
X145061709Y-101017250D01*
X145083899Y-101026486D01*
X145083902Y-101026480D01*
X145091530Y-101029639D01*
X145091532Y-101029641D01*
X145230678Y-101087277D01*
X145380000Y-101106936D01*
X145409304Y-101103078D01*
X145425751Y-101102000D01*
X146200880Y-101102000D01*
X146269001Y-101122002D01*
X146289975Y-101138905D01*
X146726703Y-101575633D01*
X146760729Y-101637945D01*
X146755664Y-101708760D01*
X146713117Y-101765596D01*
X146679224Y-101783657D01*
X146568816Y-101822291D01*
X146424087Y-101913231D01*
X146303231Y-102034087D01*
X146212290Y-102178817D01*
X146155837Y-102340151D01*
X146136701Y-102510000D01*
X146155837Y-102679848D01*
X146212290Y-102841182D01*
X146303231Y-102985912D01*
X146424087Y-103106768D01*
X146424089Y-103106769D01*
X146424091Y-103106771D01*
X146568817Y-103197709D01*
X146730150Y-103254162D01*
X146730149Y-103254162D01*
X146747348Y-103256099D01*
X146900000Y-103273299D01*
X147069850Y-103254162D01*
X147231183Y-103197709D01*
X147375909Y-103106771D01*
X147496771Y-102985909D01*
X147587709Y-102841183D01*
X147626342Y-102730775D01*
X147667720Y-102673084D01*
X147733720Y-102646922D01*
X147803388Y-102660595D01*
X147834366Y-102683296D01*
X147931318Y-102780248D01*
X147965344Y-102842560D01*
X147967431Y-102855236D01*
X147975837Y-102929848D01*
X148032291Y-103091183D01*
X148032292Y-103091186D01*
X148077393Y-103162964D01*
X148096699Y-103231286D01*
X148077393Y-103297036D01*
X148032292Y-103368813D01*
X148032291Y-103368816D01*
X147975837Y-103530151D01*
X147956701Y-103700000D01*
X147975837Y-103869848D01*
X148032291Y-104031183D01*
X148046696Y-104054108D01*
X148066003Y-104122429D01*
X148045309Y-104190343D01*
X148018573Y-104219654D01*
X148014088Y-104223230D01*
X147893231Y-104344087D01*
X147802290Y-104488817D01*
X147745837Y-104650151D01*
X147726701Y-104820000D01*
X147745837Y-104989848D01*
X147755701Y-105018037D01*
X147759320Y-105088942D01*
X147724031Y-105150547D01*
X147661038Y-105183293D01*
X147590340Y-105176785D01*
X147547677Y-105148747D01*
X146546819Y-104147889D01*
X146535952Y-104135499D01*
X146533660Y-104132512D01*
X146517955Y-104112045D01*
X146485231Y-104086935D01*
X146478800Y-104082000D01*
X146398474Y-104020363D01*
X146398466Y-104020358D01*
X146259320Y-103962722D01*
X146179865Y-103952262D01*
X146147492Y-103948000D01*
X146147490Y-103948000D01*
X146143403Y-103947462D01*
X146143403Y-103947461D01*
X146143396Y-103947461D01*
X146110002Y-103943065D01*
X146110000Y-103943065D01*
X146080702Y-103946922D01*
X146064256Y-103948000D01*
X142648494Y-103948000D01*
X142580373Y-103927998D01*
X142533880Y-103874342D01*
X142523572Y-103805557D01*
X142527278Y-103777402D01*
X142555999Y-103712474D01*
X142610584Y-103674916D01*
X142631183Y-103667709D01*
X142775909Y-103576771D01*
X142896771Y-103455909D01*
X142987709Y-103311183D01*
X143044162Y-103149850D01*
X143063299Y-102980000D01*
X143044162Y-102810150D01*
X142987709Y-102648817D01*
X142896771Y-102504091D01*
X142896769Y-102504089D01*
X142896768Y-102504087D01*
X142775912Y-102383231D01*
X142631182Y-102292290D01*
X142469852Y-102235838D01*
X142469847Y-102235837D01*
X142468146Y-102235646D01*
X142467122Y-102235215D01*
X142462952Y-102234264D01*
X142463118Y-102233533D01*
X142402695Y-102208140D01*
X142362504Y-102149615D01*
X142357051Y-102124546D01*
X142346859Y-102034087D01*
X142344162Y-102010150D01*
X142287709Y-101848817D01*
X142196771Y-101704091D01*
X142196769Y-101704089D01*
X142196768Y-101704087D01*
X142075912Y-101583231D01*
X142074761Y-101582508D01*
X141975043Y-101519850D01*
X141931182Y-101492290D01*
X141831270Y-101457330D01*
X141769850Y-101435838D01*
X141769848Y-101435837D01*
X141769850Y-101435837D01*
X141600000Y-101416701D01*
X141430151Y-101435837D01*
X141268817Y-101492290D01*
X141124087Y-101583231D01*
X141124086Y-101583232D01*
X141083595Y-101623724D01*
X141021283Y-101657750D01*
X140950468Y-101652685D01*
X140893632Y-101610138D01*
X140868821Y-101543618D01*
X140868500Y-101534629D01*
X140868500Y-96696050D01*
X140888502Y-96627929D01*
X140942158Y-96581436D01*
X141012432Y-96571332D01*
X141077012Y-96600826D01*
G37*
%TD.AperFunction*%
%TA.AperFunction,Conductor*%
G36*
X129633001Y-104102002D02*
G01*
X129679494Y-104155658D01*
X129689598Y-104225932D01*
X129660104Y-104290512D01*
X129653975Y-104297095D01*
X128859975Y-105091095D01*
X128797663Y-105125121D01*
X128770880Y-105128000D01*
X127731568Y-105128000D01*
X127663447Y-105107998D01*
X127642473Y-105091095D01*
X127423219Y-104871841D01*
X127389193Y-104809529D01*
X127387392Y-104799193D01*
X127384535Y-104777491D01*
X127368501Y-104655703D01*
X127310865Y-104516557D01*
X127242200Y-104427071D01*
X127242198Y-104427069D01*
X127239689Y-104423799D01*
X127239689Y-104423798D01*
X127239688Y-104423797D01*
X127219181Y-104397072D01*
X127219179Y-104397071D01*
X127219179Y-104397070D01*
X127195721Y-104379070D01*
X127183337Y-104368208D01*
X127112224Y-104297095D01*
X127078198Y-104234783D01*
X127083263Y-104163968D01*
X127125810Y-104107132D01*
X127192330Y-104082321D01*
X127201319Y-104082000D01*
X129564880Y-104082000D01*
X129633001Y-104102002D01*
G37*
%TD.AperFunction*%
%TA.AperFunction,Conductor*%
G36*
X134159001Y-97752002D02*
G01*
X134179975Y-97768905D01*
X137001095Y-100590025D01*
X137035121Y-100652337D01*
X137038000Y-100679120D01*
X137038000Y-101327029D01*
X137017998Y-101395150D01*
X136964342Y-101441643D01*
X136897893Y-101452237D01*
X136760000Y-101436701D01*
X136590151Y-101455837D01*
X136428817Y-101512290D01*
X136284087Y-101603231D01*
X136163231Y-101724087D01*
X136072290Y-101868817D01*
X136015837Y-102030151D01*
X135996701Y-102199999D01*
X136015837Y-102369848D01*
X136072290Y-102531182D01*
X136163231Y-102675912D01*
X136284086Y-102796767D01*
X136284090Y-102796770D01*
X136284091Y-102796771D01*
X136354770Y-102841182D01*
X136393174Y-102865313D01*
X136440212Y-102918492D01*
X136451032Y-102988659D01*
X136422199Y-103053537D01*
X136362867Y-103092528D01*
X136326138Y-103098000D01*
X132965121Y-103098000D01*
X132897000Y-103077998D01*
X132850507Y-103024342D01*
X132840403Y-102954068D01*
X132869897Y-102889488D01*
X132876025Y-102882905D01*
X133179237Y-102579692D01*
X133322122Y-102436806D01*
X133334510Y-102425944D01*
X133357955Y-102407955D01*
X133402325Y-102350131D01*
X133449641Y-102288468D01*
X133471441Y-102235838D01*
X133507278Y-102149322D01*
X133526205Y-102005551D01*
X133554927Y-101940625D01*
X133614192Y-101901533D01*
X133685184Y-101900688D01*
X133740222Y-101932903D01*
X133754087Y-101946768D01*
X133754089Y-101946769D01*
X133754091Y-101946771D01*
X133898817Y-102037709D01*
X134060150Y-102094162D01*
X134060149Y-102094162D01*
X134077348Y-102096099D01*
X134230000Y-102113299D01*
X134399850Y-102094162D01*
X134561183Y-102037709D01*
X134705909Y-101946771D01*
X134826771Y-101825909D01*
X134917709Y-101681183D01*
X134974162Y-101519850D01*
X134993299Y-101350000D01*
X134974162Y-101180150D01*
X134917709Y-101018817D01*
X134826771Y-100874091D01*
X134826769Y-100874089D01*
X134826768Y-100874087D01*
X134705912Y-100753231D01*
X134561182Y-100662290D01*
X134455626Y-100625355D01*
X134399850Y-100605838D01*
X134399848Y-100605837D01*
X134399850Y-100605837D01*
X134230000Y-100586701D01*
X134060151Y-100605837D01*
X133898817Y-100662290D01*
X133754087Y-100753231D01*
X133754086Y-100753232D01*
X133737095Y-100770224D01*
X133674783Y-100804250D01*
X133603968Y-100799185D01*
X133547132Y-100756638D01*
X133522321Y-100690118D01*
X133522000Y-100681129D01*
X133522000Y-98805750D01*
X133523078Y-98789303D01*
X133526936Y-98759999D01*
X133524649Y-98742627D01*
X133507278Y-98610678D01*
X133463157Y-98504163D01*
X133449641Y-98471533D01*
X133449641Y-98471532D01*
X133449636Y-98471525D01*
X133357957Y-98352047D01*
X133357955Y-98352046D01*
X133357955Y-98352045D01*
X133334497Y-98334045D01*
X133322113Y-98323183D01*
X132946025Y-97947095D01*
X132911999Y-97884783D01*
X132917064Y-97813968D01*
X132959611Y-97757132D01*
X133026131Y-97732321D01*
X133035120Y-97732000D01*
X134090880Y-97732000D01*
X134159001Y-97752002D01*
G37*
%TD.AperFunction*%
%TA.AperFunction,Conductor*%
G36*
X131139066Y-97752002D02*
G01*
X131185559Y-97805658D01*
X131196153Y-97843893D01*
X131205837Y-97929848D01*
X131262290Y-98091182D01*
X131353231Y-98235912D01*
X131474087Y-98356768D01*
X131474089Y-98356769D01*
X131474091Y-98356771D01*
X131618817Y-98447709D01*
X131780150Y-98504162D01*
X131780155Y-98504162D01*
X131780157Y-98504163D01*
X131854762Y-98512568D01*
X131920215Y-98540071D01*
X131929751Y-98548681D01*
X132341095Y-98960025D01*
X132375121Y-99022337D01*
X132378000Y-99049120D01*
X132378000Y-101710878D01*
X132357998Y-101778999D01*
X132341095Y-101799974D01*
X132039065Y-102102003D01*
X131976753Y-102136028D01*
X131905937Y-102130963D01*
X131849102Y-102088416D01*
X131843283Y-102079944D01*
X131776771Y-101974091D01*
X131776769Y-101974089D01*
X131773006Y-101968100D01*
X131775106Y-101966779D01*
X131752652Y-101911739D01*
X131752000Y-101898939D01*
X131752000Y-101655750D01*
X131753078Y-101639303D01*
X131756936Y-101609999D01*
X131737277Y-101460679D01*
X131735272Y-101455837D01*
X131679641Y-101321532D01*
X131610976Y-101232046D01*
X131610974Y-101232044D01*
X131608465Y-101228774D01*
X131608465Y-101228773D01*
X131608464Y-101228772D01*
X131587957Y-101202047D01*
X131587955Y-101202046D01*
X131587955Y-101202045D01*
X131564497Y-101184045D01*
X131552113Y-101173183D01*
X130318905Y-99939975D01*
X130284879Y-99877663D01*
X130282000Y-99850880D01*
X130282000Y-98025743D01*
X130283078Y-98009297D01*
X130286935Y-97980000D01*
X130286935Y-97979999D01*
X130282403Y-97945576D01*
X130282000Y-97942513D01*
X130282000Y-97942508D01*
X130273039Y-97874445D01*
X130283979Y-97804297D01*
X130331107Y-97751199D01*
X130397961Y-97732000D01*
X131070945Y-97732000D01*
X131139066Y-97752002D01*
G37*
%TD.AperFunction*%
%TA.AperFunction,Conductor*%
G36*
X138889607Y-91745978D02*
G01*
X138970150Y-91774162D01*
X138970155Y-91774162D01*
X138970157Y-91774163D01*
X139022223Y-91780029D01*
X139087677Y-91807532D01*
X139097212Y-91816142D01*
X139360595Y-92079525D01*
X139394621Y-92141837D01*
X139397500Y-92168620D01*
X139397500Y-101473948D01*
X139377498Y-101542069D01*
X139323842Y-101588562D01*
X139253568Y-101598666D01*
X139204466Y-101580636D01*
X139191188Y-101572293D01*
X139191183Y-101572291D01*
X139127050Y-101549850D01*
X139029850Y-101515838D01*
X139029848Y-101515837D01*
X139029850Y-101515837D01*
X138877198Y-101498638D01*
X138860000Y-101496701D01*
X138859999Y-101496701D01*
X138852924Y-101496701D01*
X138852924Y-101494858D01*
X138792157Y-101484205D01*
X138739957Y-101436083D01*
X138722000Y-101371255D01*
X138722000Y-91864910D01*
X138742002Y-91796789D01*
X138795658Y-91750296D01*
X138865932Y-91740192D01*
X138889607Y-91745978D01*
G37*
%TD.AperFunction*%
%TA.AperFunction,Conductor*%
G36*
X142716347Y-96433554D02*
G01*
X142747326Y-96456256D01*
X144205127Y-97914057D01*
X144239153Y-97976369D01*
X144241239Y-97989042D01*
X144245837Y-98029845D01*
X144245838Y-98029852D01*
X144302290Y-98191182D01*
X144302291Y-98191183D01*
X144388903Y-98329025D01*
X144393231Y-98335912D01*
X144514087Y-98456768D01*
X144514089Y-98456769D01*
X144514091Y-98456771D01*
X144658817Y-98547709D01*
X144820150Y-98604162D01*
X144820155Y-98604162D01*
X144820157Y-98604163D01*
X144860953Y-98608759D01*
X144926406Y-98636261D01*
X144935942Y-98644872D01*
X146033975Y-99742905D01*
X146068001Y-99805217D01*
X146062936Y-99876032D01*
X146020389Y-99932868D01*
X145953869Y-99957679D01*
X145944880Y-99958000D01*
X145669120Y-99958000D01*
X145600999Y-99937998D01*
X145580025Y-99921095D01*
X142490229Y-96831299D01*
X142456203Y-96768987D01*
X142461268Y-96698172D01*
X142472635Y-96675171D01*
X142487709Y-96651183D01*
X142539304Y-96503732D01*
X142580680Y-96446045D01*
X142646680Y-96419882D01*
X142716347Y-96433554D01*
G37*
%TD.AperFunction*%
%TA.AperFunction,Conductor*%
G36*
X123090078Y-90105882D02*
G01*
X123105031Y-90113803D01*
X123210068Y-90178840D01*
X123401631Y-90253051D01*
X123594173Y-90289043D01*
X123657457Y-90321222D01*
X123693299Y-90382507D01*
X123690318Y-90453441D01*
X123649460Y-90511503D01*
X123616536Y-90530389D01*
X123438890Y-90599210D01*
X123438886Y-90599212D01*
X123351879Y-90653083D01*
X123934886Y-91236089D01*
X123934886Y-91236090D01*
X123996075Y-91297279D01*
X123990966Y-91295300D01*
X123907084Y-91295300D01*
X123824636Y-91310712D01*
X123729276Y-91369757D01*
X123661685Y-91459262D01*
X123630991Y-91567140D01*
X123641340Y-91678821D01*
X123691334Y-91779222D01*
X123774220Y-91854784D01*
X123878806Y-91895300D01*
X123962688Y-91895300D01*
X124045136Y-91879888D01*
X124140496Y-91820843D01*
X124208087Y-91731338D01*
X124238781Y-91623460D01*
X124230255Y-91531459D01*
X124911095Y-92212299D01*
X124945121Y-92274611D01*
X124948000Y-92301394D01*
X124948000Y-92884256D01*
X124946922Y-92900702D01*
X124943065Y-92929999D01*
X124943065Y-92930001D01*
X124947461Y-92963396D01*
X124947462Y-92963403D01*
X124962722Y-93079320D01*
X124962723Y-93079322D01*
X124997708Y-93163784D01*
X125005297Y-93234372D01*
X124973518Y-93297859D01*
X124912460Y-93334086D01*
X124881299Y-93338000D01*
X123209121Y-93338000D01*
X123141000Y-93317998D01*
X123120026Y-93301095D01*
X122435591Y-92616660D01*
X122401565Y-92554348D01*
X122399755Y-92537514D01*
X123351880Y-92537514D01*
X123438893Y-92591390D01*
X123438900Y-92591393D01*
X123630360Y-92665566D01*
X123630363Y-92665567D01*
X123832217Y-92703300D01*
X124037555Y-92703300D01*
X124239408Y-92665567D01*
X124239411Y-92665566D01*
X124430874Y-92591392D01*
X124430883Y-92591387D01*
X124517891Y-92537514D01*
X123934887Y-91954510D01*
X123934886Y-91954510D01*
X123351880Y-92537514D01*
X122399755Y-92537514D01*
X122398686Y-92527565D01*
X122398686Y-91595304D01*
X122822139Y-91595304D01*
X122841085Y-91799761D01*
X122841085Y-91799765D01*
X122897277Y-91997262D01*
X122897280Y-91997270D01*
X122988808Y-92181085D01*
X122988811Y-92181089D01*
X122989273Y-92181700D01*
X122989274Y-92181700D01*
X123575676Y-91595299D01*
X122989275Y-91008898D01*
X122989273Y-91008898D01*
X122988809Y-91009513D01*
X122897280Y-91193329D01*
X122897277Y-91193337D01*
X122841085Y-91390834D01*
X122841085Y-91390838D01*
X122822139Y-91595295D01*
X122822139Y-91595304D01*
X122398686Y-91595304D01*
X122398686Y-90989498D01*
X122418688Y-90921377D01*
X122458355Y-90882370D01*
X122497568Y-90858092D01*
X122649387Y-90719691D01*
X122773189Y-90555750D01*
X122773190Y-90555746D01*
X122773192Y-90555745D01*
X122864756Y-90371860D01*
X122864755Y-90371860D01*
X122864760Y-90371852D01*
X122917511Y-90186448D01*
X122955391Y-90126403D01*
X123019722Y-90096369D01*
X123090078Y-90105882D01*
G37*
%TD.AperFunction*%
%TA.AperFunction,Conductor*%
G36*
X111553544Y-69311202D02*
G01*
X111600037Y-69364858D01*
X111610141Y-69435132D01*
X111580647Y-69499712D01*
X111574518Y-69506295D01*
X111499957Y-69580855D01*
X111499948Y-69580865D01*
X111369433Y-69767262D01*
X111273262Y-69973501D01*
X111273260Y-69973506D01*
X111214365Y-70193304D01*
X111194532Y-70420000D01*
X111214365Y-70646695D01*
X111273260Y-70866493D01*
X111273262Y-70866498D01*
X111369433Y-71072737D01*
X111499948Y-71259134D01*
X111499957Y-71259144D01*
X111660855Y-71420042D01*
X111660865Y-71420051D01*
X111847262Y-71550566D01*
X111847261Y-71550566D01*
X111920580Y-71584755D01*
X112053504Y-71646739D01*
X112273308Y-71705635D01*
X112443216Y-71720500D01*
X112443223Y-71720500D01*
X112556777Y-71720500D01*
X112556784Y-71720500D01*
X112726692Y-71705635D01*
X112946496Y-71646739D01*
X113152734Y-71550568D01*
X113239175Y-71490042D01*
X113339134Y-71420051D01*
X113339136Y-71420048D01*
X113339139Y-71420047D01*
X113500047Y-71259139D01*
X113630568Y-71072734D01*
X113726739Y-70866496D01*
X113785635Y-70646692D01*
X113805468Y-70420000D01*
X113785635Y-70193308D01*
X113726739Y-69973504D01*
X113630568Y-69767266D01*
X113630567Y-69767265D01*
X113630566Y-69767262D01*
X113500051Y-69580865D01*
X113500042Y-69580855D01*
X113425482Y-69506295D01*
X113391456Y-69443983D01*
X113396521Y-69373168D01*
X113439068Y-69316332D01*
X113505588Y-69291521D01*
X113514577Y-69291200D01*
X138455423Y-69291200D01*
X138523544Y-69311202D01*
X138570037Y-69364858D01*
X138580141Y-69435132D01*
X138550647Y-69499712D01*
X138544518Y-69506295D01*
X138399957Y-69650855D01*
X138399948Y-69650865D01*
X138269433Y-69837262D01*
X138173262Y-70043501D01*
X138173260Y-70043506D01*
X138114365Y-70263304D01*
X138094532Y-70490000D01*
X138114365Y-70716695D01*
X138173260Y-70936493D01*
X138173262Y-70936498D01*
X138269433Y-71142737D01*
X138399948Y-71329134D01*
X138399957Y-71329144D01*
X138560855Y-71490042D01*
X138560865Y-71490051D01*
X138747262Y-71620566D01*
X138747261Y-71620566D01*
X138813582Y-71651492D01*
X138953504Y-71716739D01*
X139173308Y-71775635D01*
X139343216Y-71790500D01*
X139343223Y-71790500D01*
X139456777Y-71790500D01*
X139456784Y-71790500D01*
X139626692Y-71775635D01*
X139846496Y-71716739D01*
X140052734Y-71620568D01*
X140052737Y-71620566D01*
X140239134Y-71490051D01*
X140239136Y-71490048D01*
X140239139Y-71490047D01*
X140400047Y-71329139D01*
X140530568Y-71142734D01*
X140626739Y-70936496D01*
X140685635Y-70716692D01*
X140705468Y-70490000D01*
X140685635Y-70263308D01*
X140626739Y-70043504D01*
X140530568Y-69837266D01*
X140530567Y-69837265D01*
X140530566Y-69837262D01*
X140400051Y-69650865D01*
X140400042Y-69650855D01*
X140255482Y-69506295D01*
X140221456Y-69443983D01*
X140226521Y-69373168D01*
X140269068Y-69316332D01*
X140335588Y-69291521D01*
X140344577Y-69291200D01*
X152248732Y-69291200D01*
X152316853Y-69311202D01*
X152363346Y-69364858D01*
X152374732Y-69417068D01*
X152375983Y-70609691D01*
X152356052Y-70677833D01*
X152302445Y-70724382D01*
X152232182Y-70734559D01*
X152167570Y-70705134D01*
X152146770Y-70682093D01*
X152079251Y-70585665D01*
X152079242Y-70585655D01*
X151918344Y-70424757D01*
X151918334Y-70424748D01*
X151731937Y-70294233D01*
X151731938Y-70294233D01*
X151525698Y-70198062D01*
X151525693Y-70198060D01*
X151305895Y-70139165D01*
X151254919Y-70134705D01*
X151135984Y-70124300D01*
X151022416Y-70124300D01*
X150914292Y-70133759D01*
X150852504Y-70139165D01*
X150632706Y-70198060D01*
X150632701Y-70198062D01*
X150426462Y-70294233D01*
X150240065Y-70424748D01*
X150240055Y-70424757D01*
X150079157Y-70585655D01*
X150079148Y-70585665D01*
X149948633Y-70772062D01*
X149852462Y-70978301D01*
X149852460Y-70978306D01*
X149793565Y-71198104D01*
X149773732Y-71424800D01*
X149793565Y-71651495D01*
X149852460Y-71871293D01*
X149852462Y-71871298D01*
X149948633Y-72077537D01*
X150079148Y-72263934D01*
X150079157Y-72263944D01*
X150240055Y-72424842D01*
X150240065Y-72424851D01*
X150426462Y-72555366D01*
X150426461Y-72555366D01*
X150499780Y-72589555D01*
X150632704Y-72651539D01*
X150852508Y-72710435D01*
X151022416Y-72725300D01*
X151022423Y-72725300D01*
X151135977Y-72725300D01*
X151135984Y-72725300D01*
X151305892Y-72710435D01*
X151525696Y-72651539D01*
X151731934Y-72555368D01*
X151857321Y-72467572D01*
X151918334Y-72424851D01*
X151918336Y-72424848D01*
X151918339Y-72424847D01*
X152079247Y-72263939D01*
X152148477Y-72165067D01*
X152203932Y-72120740D01*
X152274551Y-72113431D01*
X152337912Y-72145461D01*
X152373897Y-72206662D01*
X152377689Y-72237207D01*
X152448260Y-139514751D01*
X152428329Y-139582893D01*
X152374722Y-139629442D01*
X152304459Y-139639619D01*
X152239847Y-139610194D01*
X152233165Y-139603978D01*
X152089144Y-139459957D01*
X152089134Y-139459948D01*
X151902737Y-139329433D01*
X151902738Y-139329433D01*
X151696498Y-139233262D01*
X151696493Y-139233260D01*
X151476695Y-139174365D01*
X151414672Y-139168939D01*
X151306784Y-139159500D01*
X151193216Y-139159500D01*
X151085328Y-139168939D01*
X151023304Y-139174365D01*
X150803506Y-139233260D01*
X150803501Y-139233262D01*
X150597262Y-139329433D01*
X150410865Y-139459948D01*
X150410855Y-139459957D01*
X150249957Y-139620855D01*
X150249948Y-139620865D01*
X150119433Y-139807262D01*
X150023262Y-140013501D01*
X150023260Y-140013506D01*
X149964365Y-140233304D01*
X149944532Y-140460000D01*
X149964365Y-140686695D01*
X150023260Y-140906493D01*
X150023262Y-140906498D01*
X150119433Y-141112737D01*
X150249948Y-141299134D01*
X150249957Y-141299144D01*
X150410855Y-141460042D01*
X150410865Y-141460051D01*
X150597262Y-141590566D01*
X150597261Y-141590566D01*
X150690872Y-141634217D01*
X150803504Y-141686739D01*
X150803506Y-141686739D01*
X150803507Y-141686740D01*
X150808251Y-141688467D01*
X150865423Y-141730560D01*
X150890763Y-141796881D01*
X150876223Y-141866373D01*
X150826422Y-141916973D01*
X150764985Y-141932869D01*
X97458626Y-141859173D01*
X97390533Y-141839077D01*
X97344114Y-141785357D01*
X97332800Y-141733173D01*
X97332800Y-139880000D01*
X97866701Y-139880000D01*
X97885837Y-140049848D01*
X97942290Y-140211182D01*
X97956193Y-140233308D01*
X98026947Y-140345912D01*
X98033231Y-140355912D01*
X98154087Y-140476768D01*
X98154089Y-140476769D01*
X98154091Y-140476771D01*
X98298817Y-140567709D01*
X98460150Y-140624162D01*
X98460149Y-140624162D01*
X98477348Y-140626099D01*
X98630000Y-140643299D01*
X98799850Y-140624162D01*
X98961183Y-140567709D01*
X99105909Y-140476771D01*
X99226771Y-140355909D01*
X99317709Y-140211183D01*
X99374162Y-140049850D01*
X99382568Y-139975235D01*
X99410070Y-139909783D01*
X99418671Y-139900257D01*
X110520025Y-128798905D01*
X110582337Y-128764879D01*
X110609120Y-128762000D01*
X110891129Y-128762000D01*
X110959250Y-128782002D01*
X111005743Y-128835658D01*
X111015847Y-128905932D01*
X110986353Y-128970512D01*
X110980224Y-128977095D01*
X110973232Y-128984086D01*
X110973231Y-128984087D01*
X110882290Y-129128817D01*
X110825837Y-129290151D01*
X110806701Y-129460000D01*
X110825837Y-129629848D01*
X110882290Y-129791182D01*
X110973231Y-129935912D01*
X111094087Y-130056768D01*
X111094089Y-130056769D01*
X111094091Y-130056771D01*
X111207442Y-130127994D01*
X111218368Y-130134860D01*
X111265405Y-130188039D01*
X111276225Y-130258206D01*
X111247392Y-130323085D01*
X111240426Y-130330642D01*
X105469975Y-136101095D01*
X105407663Y-136135121D01*
X105380880Y-136138000D01*
X103875752Y-136138000D01*
X103859306Y-136136922D01*
X103830001Y-136133064D01*
X103830000Y-136133064D01*
X103680679Y-136152721D01*
X103582286Y-136193477D01*
X103541532Y-136210359D01*
X103541530Y-136210360D01*
X103541528Y-136210361D01*
X103458273Y-136274246D01*
X103422045Y-136302045D01*
X103422044Y-136302046D01*
X103422043Y-136302047D01*
X103422040Y-136302049D01*
X103404046Y-136325499D01*
X103393182Y-136337886D01*
X100837886Y-138893182D01*
X100825499Y-138904046D01*
X100802049Y-138922040D01*
X100802044Y-138922046D01*
X100710363Y-139041525D01*
X100710358Y-139041533D01*
X100652722Y-139180679D01*
X100645800Y-139233260D01*
X100638000Y-139292508D01*
X100638000Y-139292513D01*
X100638000Y-139292514D01*
X100633065Y-139329999D01*
X100633065Y-139330000D01*
X100636922Y-139359297D01*
X100638000Y-139375743D01*
X100638000Y-139548939D01*
X100617998Y-139617060D01*
X100615164Y-139621012D01*
X100613229Y-139624090D01*
X100613229Y-139624091D01*
X100608099Y-139632255D01*
X100522290Y-139768817D01*
X100465837Y-139930151D01*
X100446701Y-140100000D01*
X100465837Y-140269848D01*
X100522290Y-140431182D01*
X100613231Y-140575912D01*
X100734087Y-140696768D01*
X100734089Y-140696769D01*
X100734091Y-140696771D01*
X100878817Y-140787709D01*
X101040150Y-140844162D01*
X101040149Y-140844162D01*
X101057348Y-140846099D01*
X101210000Y-140863299D01*
X101379850Y-140844162D01*
X101541183Y-140787709D01*
X101685909Y-140696771D01*
X101806771Y-140575909D01*
X101897709Y-140431183D01*
X101954162Y-140269850D01*
X101973299Y-140100000D01*
X101954162Y-139930150D01*
X101897709Y-139768817D01*
X101828613Y-139658852D01*
X101809308Y-139590534D01*
X101830003Y-139522620D01*
X101846201Y-139502728D01*
X104030025Y-137318905D01*
X104092337Y-137284879D01*
X104119120Y-137282000D01*
X105624256Y-137282000D01*
X105640702Y-137283078D01*
X105670000Y-137286935D01*
X105707486Y-137282000D01*
X105707492Y-137282000D01*
X105819322Y-137267277D01*
X105958468Y-137209641D01*
X106077955Y-137117955D01*
X106095954Y-137094497D01*
X106106811Y-137082118D01*
X113802905Y-129386025D01*
X113865217Y-129351999D01*
X113936032Y-129357064D01*
X113992868Y-129399611D01*
X114017679Y-129466131D01*
X114018000Y-129475120D01*
X114018000Y-130530879D01*
X113997998Y-130599000D01*
X113981095Y-130619974D01*
X105604790Y-138996278D01*
X105592403Y-139007142D01*
X105568948Y-139025140D01*
X105542312Y-139059852D01*
X105542265Y-139059915D01*
X105503560Y-139110357D01*
X105503558Y-139110359D01*
X105477265Y-139144622D01*
X105419626Y-139283775D01*
X105413616Y-139329432D01*
X105404904Y-139395604D01*
X105404904Y-139395609D01*
X105404904Y-139395610D01*
X105399969Y-139433095D01*
X105399969Y-139433096D01*
X105403826Y-139462393D01*
X105404904Y-139478839D01*
X105404904Y-139668982D01*
X105384902Y-139737103D01*
X105382068Y-139741055D01*
X105380133Y-139744133D01*
X105380133Y-139744134D01*
X105364830Y-139768489D01*
X105289194Y-139888860D01*
X105232741Y-140050194D01*
X105213605Y-140220043D01*
X105232741Y-140389891D01*
X105289194Y-140551225D01*
X105380135Y-140695955D01*
X105500991Y-140816811D01*
X105500993Y-140816812D01*
X105500995Y-140816814D01*
X105645721Y-140907752D01*
X105807054Y-140964205D01*
X105807053Y-140964205D01*
X105824252Y-140966142D01*
X105976904Y-140983342D01*
X106146754Y-140964205D01*
X106308087Y-140907752D01*
X106452813Y-140816814D01*
X106573675Y-140695952D01*
X106664613Y-140551226D01*
X106721066Y-140389893D01*
X106740203Y-140220043D01*
X106721066Y-140050193D01*
X106664613Y-139888860D01*
X106652762Y-139870000D01*
X110616701Y-139870000D01*
X110635837Y-140039848D01*
X110692290Y-140201182D01*
X110783231Y-140345912D01*
X110904087Y-140466768D01*
X110904089Y-140466769D01*
X110904091Y-140466771D01*
X111048817Y-140557709D01*
X111210150Y-140614162D01*
X111210149Y-140614162D01*
X111227348Y-140616099D01*
X111380000Y-140633299D01*
X111549850Y-140614162D01*
X111711183Y-140557709D01*
X111855909Y-140466771D01*
X111976771Y-140345909D01*
X112067709Y-140201183D01*
X112124162Y-140039850D01*
X112143299Y-139870000D01*
X112124162Y-139700150D01*
X112067709Y-139538817D01*
X111976771Y-139394091D01*
X111976769Y-139394089D01*
X111976768Y-139394087D01*
X111855912Y-139273231D01*
X111711182Y-139182290D01*
X111611270Y-139147330D01*
X111549850Y-139125838D01*
X111549848Y-139125837D01*
X111549850Y-139125837D01*
X111380000Y-139106701D01*
X111210151Y-139125837D01*
X111048817Y-139182290D01*
X110904087Y-139273231D01*
X110783231Y-139394087D01*
X110692290Y-139538817D01*
X110635837Y-139700151D01*
X110616701Y-139870000D01*
X106652762Y-139870000D01*
X106613344Y-139807266D01*
X106588979Y-139768489D01*
X106569673Y-139700168D01*
X106590368Y-139632255D01*
X106606566Y-139612363D01*
X114962119Y-131256809D01*
X114974493Y-131245957D01*
X114997955Y-131227955D01*
X115089641Y-131108468D01*
X115147277Y-130969322D01*
X115162000Y-130857492D01*
X115162000Y-130857486D01*
X115166935Y-130820000D01*
X115163077Y-130790701D01*
X115162000Y-130774256D01*
X115162000Y-129159120D01*
X115182002Y-129090999D01*
X115198905Y-129070025D01*
X116252905Y-128016025D01*
X116315217Y-127981999D01*
X116386032Y-127987064D01*
X116442868Y-128029611D01*
X116467679Y-128096131D01*
X116468000Y-128105120D01*
X116468000Y-134030879D01*
X116447998Y-134099000D01*
X116431095Y-134119974D01*
X113707886Y-136843182D01*
X113695499Y-136854046D01*
X113672049Y-136872040D01*
X113672044Y-136872046D01*
X113580356Y-136991534D01*
X113576228Y-136998685D01*
X113575641Y-136998346D01*
X113565910Y-137015198D01*
X113530361Y-137061528D01*
X113530357Y-137061534D01*
X113472722Y-137200679D01*
X113465012Y-137259240D01*
X113458000Y-137312508D01*
X113458000Y-137312513D01*
X113458000Y-137312514D01*
X113453065Y-137349999D01*
X113453065Y-137350000D01*
X113456922Y-137379297D01*
X113458000Y-137395743D01*
X113458000Y-139618939D01*
X113437998Y-139687060D01*
X113435164Y-139691012D01*
X113433229Y-139694090D01*
X113433229Y-139694091D01*
X113416949Y-139720000D01*
X113342290Y-139838817D01*
X113285837Y-140000151D01*
X113266701Y-140170000D01*
X113285837Y-140339848D01*
X113342290Y-140501182D01*
X113433231Y-140645912D01*
X113554087Y-140766768D01*
X113554089Y-140766769D01*
X113554091Y-140766771D01*
X113698817Y-140857709D01*
X113860150Y-140914162D01*
X113860149Y-140914162D01*
X113877348Y-140916099D01*
X114030000Y-140933299D01*
X114199850Y-140914162D01*
X114361183Y-140857709D01*
X114505909Y-140766771D01*
X114626771Y-140645909D01*
X114717709Y-140501183D01*
X114774162Y-140339850D01*
X114793299Y-140170000D01*
X114774162Y-140000150D01*
X114717709Y-139838817D01*
X114626771Y-139694091D01*
X114626769Y-139694089D01*
X114623006Y-139688100D01*
X114625106Y-139686779D01*
X114602652Y-139631739D01*
X114602000Y-139618939D01*
X114602000Y-137619119D01*
X114622002Y-137550998D01*
X114638900Y-137530029D01*
X117412119Y-134756809D01*
X117424493Y-134745957D01*
X117447955Y-134727955D01*
X117539641Y-134608468D01*
X117597277Y-134469322D01*
X117612000Y-134357492D01*
X117612000Y-134357486D01*
X117616935Y-134320000D01*
X117613077Y-134290701D01*
X117612000Y-134274256D01*
X117612000Y-127239120D01*
X117632002Y-127170999D01*
X117648905Y-127150025D01*
X117992905Y-126806025D01*
X118055217Y-126771999D01*
X118126032Y-126777064D01*
X118182868Y-126819611D01*
X118207679Y-126886131D01*
X118208000Y-126895120D01*
X118208000Y-139168939D01*
X118187998Y-139237060D01*
X118185164Y-139241012D01*
X118092290Y-139388817D01*
X118035837Y-139550151D01*
X118016701Y-139720000D01*
X118035837Y-139889848D01*
X118092290Y-140051182D01*
X118183231Y-140195912D01*
X118304087Y-140316768D01*
X118304089Y-140316769D01*
X118304091Y-140316771D01*
X118448817Y-140407709D01*
X118610150Y-140464162D01*
X118610149Y-140464162D01*
X118627348Y-140466099D01*
X118780000Y-140483299D01*
X118949850Y-140464162D01*
X119111183Y-140407709D01*
X119255909Y-140316771D01*
X119376771Y-140195909D01*
X119467709Y-140051183D01*
X119524162Y-139889850D01*
X119543299Y-139720000D01*
X119524162Y-139550150D01*
X119467709Y-139388817D01*
X119376771Y-139244091D01*
X119376769Y-139244089D01*
X119373006Y-139238100D01*
X119375106Y-139236779D01*
X119352652Y-139181739D01*
X119352000Y-139168939D01*
X119352000Y-126649119D01*
X119372002Y-126580998D01*
X119388900Y-126560029D01*
X128059063Y-117889865D01*
X128121373Y-117855841D01*
X128189771Y-117860033D01*
X128230144Y-117874160D01*
X128230150Y-117874162D01*
X128400000Y-117893299D01*
X128569850Y-117874162D01*
X128731183Y-117817709D01*
X128875909Y-117726771D01*
X128996771Y-117605909D01*
X129087709Y-117461183D01*
X129144162Y-117299850D01*
X129163299Y-117130000D01*
X129144162Y-116960150D01*
X129087709Y-116798817D01*
X128996771Y-116654091D01*
X128996769Y-116654089D01*
X128996768Y-116654087D01*
X128875912Y-116533231D01*
X128731182Y-116442290D01*
X128665856Y-116419432D01*
X128642997Y-116411433D01*
X128585306Y-116370056D01*
X128559144Y-116304056D01*
X128572816Y-116234388D01*
X128595515Y-116203413D01*
X133133433Y-111665495D01*
X133195743Y-111631471D01*
X133266558Y-111636536D01*
X133323394Y-111679083D01*
X133348205Y-111745603D01*
X133348526Y-111754494D01*
X133357573Y-123439377D01*
X133337624Y-123507514D01*
X133335491Y-123510489D01*
X133242292Y-123658814D01*
X133242291Y-123658816D01*
X133185837Y-123820151D01*
X133166701Y-123990000D01*
X133184511Y-124148076D01*
X133172261Y-124218008D01*
X133124148Y-124270216D01*
X133055447Y-124288124D01*
X132987970Y-124266047D01*
X132970208Y-124251278D01*
X132378548Y-123659618D01*
X132344522Y-123597306D01*
X132342435Y-123556419D01*
X132353299Y-123460000D01*
X132334162Y-123290150D01*
X132277709Y-123128817D01*
X132186771Y-122984091D01*
X132186769Y-122984089D01*
X132186768Y-122984087D01*
X132065912Y-122863231D01*
X131921182Y-122772290D01*
X131821270Y-122737330D01*
X131759850Y-122715838D01*
X131759848Y-122715837D01*
X131759850Y-122715837D01*
X131590000Y-122696701D01*
X131420151Y-122715837D01*
X131258817Y-122772290D01*
X131114087Y-122863231D01*
X130993231Y-122984087D01*
X130902290Y-123128817D01*
X130845837Y-123290151D01*
X130826701Y-123460000D01*
X130845837Y-123629848D01*
X130902290Y-123791182D01*
X130993231Y-123935912D01*
X131114086Y-124056767D01*
X131114090Y-124056770D01*
X131114091Y-124056771D01*
X131152540Y-124080930D01*
X131219788Y-124123185D01*
X131241847Y-124140777D01*
X132003975Y-124902905D01*
X132038001Y-124965217D01*
X132032936Y-125036032D01*
X131990389Y-125092868D01*
X131923869Y-125117679D01*
X131914880Y-125118000D01*
X129069120Y-125118000D01*
X129000999Y-125097998D01*
X128980025Y-125081095D01*
X127427234Y-123528304D01*
X127397400Y-123480825D01*
X127389282Y-123457626D01*
X127347709Y-123338817D01*
X127256771Y-123194091D01*
X127256769Y-123194089D01*
X127256768Y-123194087D01*
X127135912Y-123073231D01*
X126991182Y-122982290D01*
X126891270Y-122947330D01*
X126829850Y-122925838D01*
X126829848Y-122925837D01*
X126829850Y-122925837D01*
X126660000Y-122906701D01*
X126490151Y-122925837D01*
X126328817Y-122982290D01*
X126184087Y-123073231D01*
X126063231Y-123194087D01*
X125972290Y-123338817D01*
X125915837Y-123500151D01*
X125896701Y-123670000D01*
X125915837Y-123839848D01*
X125972290Y-124001182D01*
X126007217Y-124056767D01*
X126059089Y-124139321D01*
X126063231Y-124145912D01*
X126184087Y-124266768D01*
X126184089Y-124266769D01*
X126184091Y-124266771D01*
X126328817Y-124357709D01*
X126490150Y-124414162D01*
X126490149Y-124414162D01*
X126546766Y-124420541D01*
X126660000Y-124433299D01*
X126660000Y-124433298D01*
X126660002Y-124433299D01*
X126662179Y-124433299D01*
X126663534Y-124433696D01*
X126667032Y-124434091D01*
X126666962Y-124434703D01*
X126730300Y-124453301D01*
X126751274Y-124470204D01*
X128343183Y-126062113D01*
X128354045Y-126074497D01*
X128372045Y-126097955D01*
X128372047Y-126097957D01*
X128398772Y-126118464D01*
X128398774Y-126118466D01*
X128470487Y-126173494D01*
X128470490Y-126173495D01*
X128491524Y-126189635D01*
X128491532Y-126189641D01*
X128630678Y-126247277D01*
X128742508Y-126262000D01*
X128742514Y-126262000D01*
X128780000Y-126266935D01*
X128809298Y-126263078D01*
X128825744Y-126262000D01*
X133452508Y-126262000D01*
X134136704Y-126262000D01*
X134153150Y-126263078D01*
X134182448Y-126266935D01*
X134219934Y-126262000D01*
X134219940Y-126262000D01*
X134331770Y-126247277D01*
X134470916Y-126189641D01*
X134491959Y-126173494D01*
X134560402Y-126120976D01*
X134560403Y-126120974D01*
X134590403Y-126097955D01*
X134608405Y-126074493D01*
X134619257Y-126062119D01*
X136482119Y-124199257D01*
X136494495Y-124188403D01*
X136517955Y-124170403D01*
X136536748Y-124145912D01*
X136541806Y-124139321D01*
X136554187Y-124123185D01*
X136609641Y-124050916D01*
X136667277Y-123911770D01*
X136668843Y-123899873D01*
X136682000Y-123799940D01*
X136682000Y-123799934D01*
X136686935Y-123762448D01*
X136683077Y-123733149D01*
X136682000Y-123716704D01*
X136682000Y-110959120D01*
X136702002Y-110890999D01*
X136718900Y-110870029D01*
X136928652Y-110660276D01*
X136990962Y-110626253D01*
X137061778Y-110631317D01*
X137118614Y-110673864D01*
X137124430Y-110682332D01*
X137183229Y-110775909D01*
X137183230Y-110775910D01*
X137186994Y-110781900D01*
X137184888Y-110783222D01*
X137207345Y-110838232D01*
X137208000Y-110851060D01*
X137208000Y-133370879D01*
X137187998Y-133439000D01*
X137171095Y-133459974D01*
X132957886Y-137673182D01*
X132945499Y-137684046D01*
X132922044Y-137702044D01*
X132895362Y-137736817D01*
X132895358Y-137736820D01*
X132895359Y-137736821D01*
X132862502Y-137779639D01*
X132862503Y-137779640D01*
X132830363Y-137821525D01*
X132830358Y-137821533D01*
X132772722Y-137960679D01*
X132765012Y-138019240D01*
X132758000Y-138072508D01*
X132758000Y-138072513D01*
X132758000Y-138072514D01*
X132753065Y-138109999D01*
X132753065Y-138110000D01*
X132756922Y-138139297D01*
X132758000Y-138155743D01*
X132758000Y-139564256D01*
X132756922Y-139580702D01*
X132753065Y-139609999D01*
X132753065Y-139610001D01*
X132757461Y-139643396D01*
X132757462Y-139643404D01*
X132771231Y-139747994D01*
X132772722Y-139759320D01*
X132772723Y-139759324D01*
X132830357Y-139898465D01*
X132830358Y-139898467D01*
X132830359Y-139898468D01*
X132873094Y-139954162D01*
X132922045Y-140017955D01*
X132940471Y-140032093D01*
X132945499Y-140035952D01*
X132957889Y-140046819D01*
X133603183Y-140692113D01*
X133614045Y-140704497D01*
X133632045Y-140727955D01*
X133632047Y-140727957D01*
X133751532Y-140819642D01*
X133843436Y-140857709D01*
X133843437Y-140857709D01*
X133890678Y-140877277D01*
X134040000Y-140896936D01*
X134069304Y-140893078D01*
X134085751Y-140892000D01*
X138004256Y-140892000D01*
X138020702Y-140893078D01*
X138050000Y-140896935D01*
X138087486Y-140892000D01*
X138087492Y-140892000D01*
X138199322Y-140877277D01*
X138338468Y-140819641D01*
X138376797Y-140790230D01*
X138427954Y-140750976D01*
X138427954Y-140750974D01*
X138439313Y-140742259D01*
X138439318Y-140742255D01*
X138457952Y-140727957D01*
X138457951Y-140727957D01*
X138457955Y-140727955D01*
X138475957Y-140704493D01*
X138486809Y-140692119D01*
X139180249Y-139998679D01*
X139242559Y-139964655D01*
X139255232Y-139962568D01*
X139329850Y-139954162D01*
X139491183Y-139897709D01*
X139635909Y-139806771D01*
X139756771Y-139685909D01*
X139847709Y-139541183D01*
X139904162Y-139379850D01*
X139923299Y-139210000D01*
X139904162Y-139040150D01*
X139847709Y-138878817D01*
X139756771Y-138734091D01*
X139756769Y-138734089D01*
X139756768Y-138734087D01*
X139635912Y-138613231D01*
X139491182Y-138522290D01*
X139391270Y-138487330D01*
X139329850Y-138465838D01*
X139329848Y-138465837D01*
X139329850Y-138465837D01*
X139160000Y-138446701D01*
X138990151Y-138465837D01*
X138828817Y-138522290D01*
X138684087Y-138613231D01*
X138563231Y-138734087D01*
X138472290Y-138878817D01*
X138415837Y-139040151D01*
X138407431Y-139114762D01*
X138379927Y-139180214D01*
X138371319Y-139189749D01*
X137849975Y-139711095D01*
X137787662Y-139745120D01*
X137760879Y-139748000D01*
X134961411Y-139748000D01*
X134893290Y-139727998D01*
X134846797Y-139674342D01*
X134836693Y-139604068D01*
X134842480Y-139580390D01*
X134874162Y-139489850D01*
X134893299Y-139320000D01*
X134890201Y-139292508D01*
X134874162Y-139150151D01*
X134872229Y-139144628D01*
X134817709Y-138988817D01*
X134726771Y-138844091D01*
X134726769Y-138844089D01*
X134723006Y-138838100D01*
X134725106Y-138836779D01*
X134702652Y-138781739D01*
X134702000Y-138768939D01*
X134702000Y-138529119D01*
X134722002Y-138460998D01*
X134738900Y-138440029D01*
X143392119Y-129786809D01*
X143404493Y-129775957D01*
X143427955Y-129757955D01*
X143519641Y-129638468D01*
X143556293Y-129549983D01*
X143577278Y-129499322D01*
X143596936Y-129350000D01*
X143593078Y-129320694D01*
X143592000Y-129304248D01*
X143592000Y-127352902D01*
X143612002Y-127284781D01*
X143665658Y-127238288D01*
X143735932Y-127228184D01*
X143785033Y-127246213D01*
X143898817Y-127317709D01*
X144060150Y-127374162D01*
X144060149Y-127374162D01*
X144077348Y-127376099D01*
X144230000Y-127393299D01*
X144399850Y-127374162D01*
X144561183Y-127317709D01*
X144705909Y-127226771D01*
X144713108Y-127219571D01*
X144775418Y-127185545D01*
X144798250Y-127182726D01*
X144800205Y-127182665D01*
X144835518Y-127172404D01*
X144842243Y-127170863D01*
X144842202Y-127170687D01*
X144846040Y-127169782D01*
X144846053Y-127169780D01*
X144880162Y-127159441D01*
X144881320Y-127159097D01*
X144954393Y-127137869D01*
X144954401Y-127137864D01*
X144954876Y-127137659D01*
X144955367Y-127137479D01*
X144957108Y-127136702D01*
X144958491Y-127136094D01*
X144960211Y-127135349D01*
X144960663Y-127135116D01*
X144961139Y-127134902D01*
X144961148Y-127134900D01*
X145026265Y-127095368D01*
X145027135Y-127094847D01*
X145092598Y-127056134D01*
X145092604Y-127056127D01*
X145093003Y-127055819D01*
X145093431Y-127055524D01*
X145094949Y-127054319D01*
X145096120Y-127053400D01*
X145097611Y-127052243D01*
X145097997Y-127051899D01*
X145098391Y-127051585D01*
X145098402Y-127051579D01*
X145151548Y-126997193D01*
X145152395Y-126996336D01*
X145517639Y-126631094D01*
X145517640Y-126631091D01*
X145523096Y-126625636D01*
X145523104Y-126625626D01*
X148139919Y-124008812D01*
X148152378Y-123998833D01*
X148152192Y-123998608D01*
X148158298Y-123993555D01*
X148158303Y-123993553D01*
X148205103Y-123943714D01*
X148207794Y-123940937D01*
X148227639Y-123921094D01*
X148230131Y-123917880D01*
X148237839Y-123908853D01*
X148268217Y-123876506D01*
X148278017Y-123858677D01*
X148288876Y-123842147D01*
X148290658Y-123839850D01*
X148301350Y-123826067D01*
X148318980Y-123785324D01*
X148324190Y-123774689D01*
X148345569Y-123735803D01*
X148350629Y-123716094D01*
X148357036Y-123697382D01*
X148365115Y-123678713D01*
X148365115Y-123678712D01*
X148365117Y-123678708D01*
X148372057Y-123634883D01*
X148374466Y-123623254D01*
X148385499Y-123580288D01*
X148385500Y-123580281D01*
X148385500Y-123559934D01*
X148387051Y-123540223D01*
X148390235Y-123520121D01*
X148386059Y-123475944D01*
X148385500Y-123464086D01*
X148385500Y-119474075D01*
X148387252Y-119458202D01*
X148386963Y-119458175D01*
X148387709Y-119450282D01*
X148385562Y-119381968D01*
X148385500Y-119378010D01*
X148385500Y-119350020D01*
X148385500Y-119350017D01*
X148384991Y-119345994D01*
X148384058Y-119334148D01*
X148382665Y-119289795D01*
X148376984Y-119270243D01*
X148372977Y-119250895D01*
X148370427Y-119230701D01*
X148354084Y-119189425D01*
X148350251Y-119178227D01*
X148337869Y-119135607D01*
X148327507Y-119118087D01*
X148318809Y-119100331D01*
X148311319Y-119081412D01*
X148285230Y-119045504D01*
X148278717Y-119035588D01*
X148256134Y-118997402D01*
X148256131Y-118997398D01*
X148241749Y-118983016D01*
X148228908Y-118967983D01*
X148227973Y-118966697D01*
X148216942Y-118951513D01*
X148182744Y-118923222D01*
X148173964Y-118915232D01*
X147172405Y-117913672D01*
X147138379Y-117851360D01*
X147135500Y-117824577D01*
X147135500Y-115158620D01*
X147155502Y-115090499D01*
X147209158Y-115044006D01*
X147279432Y-115033902D01*
X147344012Y-115063396D01*
X147350595Y-115069525D01*
X149656599Y-117375529D01*
X149669467Y-117390600D01*
X149681361Y-117406984D01*
X149711542Y-117431442D01*
X149721307Y-117440238D01*
X149722032Y-117440963D01*
X149722043Y-117440973D01*
X149722046Y-117440976D01*
X149742410Y-117456601D01*
X149744464Y-117458177D01*
X149747075Y-117460236D01*
X149798373Y-117501809D01*
X149798376Y-117501810D01*
X149804858Y-117505786D01*
X149811529Y-117509638D01*
X149811533Y-117509641D01*
X149872582Y-117534928D01*
X149875572Y-117536213D01*
X149935941Y-117563118D01*
X149935945Y-117563118D01*
X149943293Y-117565298D01*
X149950672Y-117567275D01*
X149950678Y-117567278D01*
X150003167Y-117574187D01*
X150016145Y-117575896D01*
X150019460Y-117576377D01*
X150029415Y-117577957D01*
X150047341Y-117580804D01*
X150048390Y-117580831D01*
X150061478Y-117581864D01*
X150100000Y-117586936D01*
X150100000Y-117586935D01*
X150100001Y-117586936D01*
X150100002Y-117586936D01*
X150110592Y-117585541D01*
X150120066Y-117584293D01*
X150139849Y-117583259D01*
X150665649Y-117597218D01*
X150733213Y-117619021D01*
X150751398Y-117634079D01*
X150754087Y-117636768D01*
X150754089Y-117636769D01*
X150754091Y-117636771D01*
X150898817Y-117727709D01*
X151060150Y-117784162D01*
X151060149Y-117784162D01*
X151077348Y-117786099D01*
X151230000Y-117803299D01*
X151399850Y-117784162D01*
X151561183Y-117727709D01*
X151705909Y-117636771D01*
X151826771Y-117515909D01*
X151917709Y-117371183D01*
X151974162Y-117209850D01*
X151993299Y-117040000D01*
X151974162Y-116870150D01*
X151917709Y-116708817D01*
X151826771Y-116564091D01*
X151826769Y-116564089D01*
X151826768Y-116564087D01*
X151705912Y-116443231D01*
X151704414Y-116442290D01*
X151619643Y-116389024D01*
X151561182Y-116352290D01*
X151461270Y-116317330D01*
X151399850Y-116295838D01*
X151399848Y-116295837D01*
X151399850Y-116295837D01*
X151230000Y-116276701D01*
X151060151Y-116295837D01*
X150898816Y-116352291D01*
X150898814Y-116352292D01*
X150768144Y-116434398D01*
X150699823Y-116453704D01*
X150697764Y-116453667D01*
X150393407Y-116445587D01*
X150325841Y-116423784D01*
X150307656Y-116408726D01*
X148268905Y-114369975D01*
X148234879Y-114307663D01*
X148232000Y-114280880D01*
X148232000Y-109310000D01*
X150306701Y-109310000D01*
X150325837Y-109479848D01*
X150382290Y-109641182D01*
X150473231Y-109785912D01*
X150594087Y-109906768D01*
X150594089Y-109906769D01*
X150594091Y-109906771D01*
X150738817Y-109997709D01*
X150900150Y-110054162D01*
X150900149Y-110054162D01*
X150917348Y-110056099D01*
X151070000Y-110073299D01*
X151239850Y-110054162D01*
X151401183Y-109997709D01*
X151545909Y-109906771D01*
X151666771Y-109785909D01*
X151757709Y-109641183D01*
X151814162Y-109479850D01*
X151833299Y-109310000D01*
X151814162Y-109140150D01*
X151757709Y-108978817D01*
X151666771Y-108834091D01*
X151666769Y-108834089D01*
X151666768Y-108834087D01*
X151545912Y-108713231D01*
X151401182Y-108622290D01*
X151301270Y-108587330D01*
X151239850Y-108565838D01*
X151239848Y-108565837D01*
X151239850Y-108565837D01*
X151070000Y-108546701D01*
X150900151Y-108565837D01*
X150738817Y-108622290D01*
X150594087Y-108713231D01*
X150473231Y-108834087D01*
X150382290Y-108978817D01*
X150325837Y-109140151D01*
X150306701Y-109310000D01*
X148232000Y-109310000D01*
X148232000Y-107560594D01*
X148252002Y-107492473D01*
X148305658Y-107445980D01*
X148374443Y-107435672D01*
X148460000Y-107446936D01*
X148487430Y-107443324D01*
X148489306Y-107443078D01*
X148505752Y-107442000D01*
X150648940Y-107442000D01*
X150717061Y-107462002D01*
X150721013Y-107464836D01*
X150724088Y-107466768D01*
X150724091Y-107466771D01*
X150868817Y-107557709D01*
X151030150Y-107614162D01*
X151030149Y-107614162D01*
X151047348Y-107616099D01*
X151200000Y-107633299D01*
X151369850Y-107614162D01*
X151531183Y-107557709D01*
X151675909Y-107466771D01*
X151796771Y-107345909D01*
X151887709Y-107201183D01*
X151944162Y-107039850D01*
X151963299Y-106870000D01*
X151944162Y-106700150D01*
X151887709Y-106538817D01*
X151796771Y-106394091D01*
X151796769Y-106394089D01*
X151796768Y-106394087D01*
X151675912Y-106273231D01*
X151531182Y-106182290D01*
X151431270Y-106147330D01*
X151369850Y-106125838D01*
X151369848Y-106125837D01*
X151369850Y-106125837D01*
X151200000Y-106106701D01*
X151030151Y-106125837D01*
X150868817Y-106182290D01*
X150827298Y-106208379D01*
X150724091Y-106273229D01*
X150724089Y-106273230D01*
X150718100Y-106276994D01*
X150716777Y-106274888D01*
X150661768Y-106297345D01*
X150648940Y-106298000D01*
X148749120Y-106298000D01*
X148680999Y-106277998D01*
X148660025Y-106261095D01*
X148161252Y-105762322D01*
X148127226Y-105700010D01*
X148132291Y-105629195D01*
X148174838Y-105572359D01*
X148241358Y-105547548D01*
X148291958Y-105554297D01*
X148320150Y-105564162D01*
X148490000Y-105583299D01*
X148659850Y-105564162D01*
X148821183Y-105507709D01*
X148965909Y-105416771D01*
X149086771Y-105295909D01*
X149177709Y-105151183D01*
X149234162Y-104989850D01*
X149253299Y-104820000D01*
X149234162Y-104650150D01*
X149177709Y-104488817D01*
X149177707Y-104488814D01*
X149177707Y-104488813D01*
X149163303Y-104465889D01*
X149143997Y-104397568D01*
X149164692Y-104329655D01*
X149191433Y-104300340D01*
X149195901Y-104296775D01*
X149195909Y-104296771D01*
X149212856Y-104279824D01*
X150408446Y-104279824D01*
X150427582Y-104449672D01*
X150484035Y-104611006D01*
X150574976Y-104755736D01*
X150695832Y-104876592D01*
X150695834Y-104876593D01*
X150695836Y-104876595D01*
X150840562Y-104967533D01*
X151001895Y-105023986D01*
X151001894Y-105023986D01*
X151019093Y-105025923D01*
X151171745Y-105043123D01*
X151341595Y-105023986D01*
X151502928Y-104967533D01*
X151647654Y-104876595D01*
X151768516Y-104755733D01*
X151859454Y-104611007D01*
X151915907Y-104449674D01*
X151935044Y-104279824D01*
X151915907Y-104109974D01*
X151859454Y-103948641D01*
X151768516Y-103803915D01*
X151768514Y-103803913D01*
X151768513Y-103803911D01*
X151647657Y-103683055D01*
X151634702Y-103674915D01*
X151549404Y-103621318D01*
X151502927Y-103592114D01*
X151403015Y-103557154D01*
X151341595Y-103535662D01*
X151341593Y-103535661D01*
X151341595Y-103535661D01*
X151171745Y-103516525D01*
X151001896Y-103535661D01*
X150840562Y-103592114D01*
X150695832Y-103683055D01*
X150574976Y-103803911D01*
X150484035Y-103948641D01*
X150427582Y-104109975D01*
X150408446Y-104279824D01*
X149212856Y-104279824D01*
X149316771Y-104175909D01*
X149407709Y-104031183D01*
X149464162Y-103869850D01*
X149483299Y-103700000D01*
X149464162Y-103530150D01*
X149407709Y-103368817D01*
X149362605Y-103297036D01*
X149343299Y-103228717D01*
X149362606Y-103162962D01*
X149370845Y-103149850D01*
X149407709Y-103091183D01*
X149464162Y-102929850D01*
X149483299Y-102760000D01*
X149464162Y-102590150D01*
X149407709Y-102428817D01*
X149316771Y-102284091D01*
X149316769Y-102284089D01*
X149316768Y-102284087D01*
X149195913Y-102163232D01*
X149195909Y-102163229D01*
X149092358Y-102098163D01*
X149045320Y-102044984D01*
X149034500Y-101974817D01*
X149063333Y-101909939D01*
X149070288Y-101902391D01*
X149096771Y-101875909D01*
X149187709Y-101731183D01*
X149244162Y-101569850D01*
X149263299Y-101400000D01*
X149244162Y-101230150D01*
X149187709Y-101068817D01*
X149096771Y-100924091D01*
X149096769Y-100924089D01*
X149096768Y-100924087D01*
X148975912Y-100803231D01*
X148831182Y-100712290D01*
X148731270Y-100677330D01*
X148669850Y-100655838D01*
X148669848Y-100655837D01*
X148669849Y-100655837D01*
X148595236Y-100647431D01*
X148529783Y-100619928D01*
X148520248Y-100611318D01*
X145782490Y-97873560D01*
X145748464Y-97811248D01*
X145746379Y-97798583D01*
X145734162Y-97690150D01*
X145677709Y-97528817D01*
X145586771Y-97384091D01*
X145586769Y-97384089D01*
X145586768Y-97384087D01*
X145465912Y-97263231D01*
X145321182Y-97172290D01*
X145159853Y-97115839D01*
X145159852Y-97115838D01*
X145159850Y-97115838D01*
X145072151Y-97105956D01*
X145051424Y-97103621D01*
X144985972Y-97076117D01*
X144976438Y-97067508D01*
X144518930Y-96610000D01*
X150346701Y-96610000D01*
X150365837Y-96779848D01*
X150422290Y-96941182D01*
X150513231Y-97085912D01*
X150634087Y-97206768D01*
X150634089Y-97206769D01*
X150634091Y-97206771D01*
X150778817Y-97297709D01*
X150940150Y-97354162D01*
X150940149Y-97354162D01*
X150957348Y-97356099D01*
X151110000Y-97373299D01*
X151279850Y-97354162D01*
X151441183Y-97297709D01*
X151585909Y-97206771D01*
X151706771Y-97085909D01*
X151797709Y-96941183D01*
X151854162Y-96779850D01*
X151873299Y-96610000D01*
X151854162Y-96440150D01*
X151797709Y-96278817D01*
X151706771Y-96134091D01*
X151706769Y-96134089D01*
X151706768Y-96134087D01*
X151585912Y-96013231D01*
X151575314Y-96006572D01*
X151517111Y-95970000D01*
X151441182Y-95922290D01*
X151341270Y-95887330D01*
X151279850Y-95865838D01*
X151279848Y-95865837D01*
X151279850Y-95865837D01*
X151110000Y-95846701D01*
X150940151Y-95865837D01*
X150778817Y-95922290D01*
X150634087Y-96013231D01*
X150513231Y-96134087D01*
X150422290Y-96278817D01*
X150365837Y-96440151D01*
X150346701Y-96610000D01*
X144518930Y-96610000D01*
X142138905Y-94229975D01*
X142106155Y-94170000D01*
X145504532Y-94170000D01*
X145524365Y-94396695D01*
X145583260Y-94616493D01*
X145583262Y-94616498D01*
X145679433Y-94822737D01*
X145809948Y-95009134D01*
X145809957Y-95009144D01*
X145970855Y-95170042D01*
X145970865Y-95170051D01*
X146157262Y-95300566D01*
X146157261Y-95300566D01*
X146230580Y-95334755D01*
X146363504Y-95396739D01*
X146583308Y-95455635D01*
X146753216Y-95470500D01*
X146753223Y-95470500D01*
X146866777Y-95470500D01*
X146866784Y-95470500D01*
X147036692Y-95455635D01*
X147256496Y-95396739D01*
X147462734Y-95300568D01*
X147462737Y-95300566D01*
X147649134Y-95170051D01*
X147649136Y-95170048D01*
X147649139Y-95170047D01*
X147810047Y-95009139D01*
X147865428Y-94930047D01*
X147940566Y-94822737D01*
X147940566Y-94822736D01*
X147940568Y-94822734D01*
X148036739Y-94616496D01*
X148095635Y-94396692D01*
X148115468Y-94170000D01*
X148095635Y-93943308D01*
X148036739Y-93723504D01*
X147940568Y-93517266D01*
X147940567Y-93517265D01*
X147940566Y-93517262D01*
X147810051Y-93330865D01*
X147810042Y-93330855D01*
X147649144Y-93169957D01*
X147649134Y-93169948D01*
X147462737Y-93039433D01*
X147462738Y-93039433D01*
X147256498Y-92943262D01*
X147256493Y-92943260D01*
X147036695Y-92884365D01*
X146985719Y-92879905D01*
X146866784Y-92869500D01*
X146753216Y-92869500D01*
X146645092Y-92878959D01*
X146583304Y-92884365D01*
X146363506Y-92943260D01*
X146363501Y-92943262D01*
X146157262Y-93039433D01*
X145970865Y-93169948D01*
X145970855Y-93169957D01*
X145809957Y-93330855D01*
X145809948Y-93330865D01*
X145679433Y-93517262D01*
X145583262Y-93723501D01*
X145583260Y-93723506D01*
X145524365Y-93943304D01*
X145504532Y-94170000D01*
X142106155Y-94170000D01*
X142104879Y-94167663D01*
X142102000Y-94140880D01*
X142102000Y-91761060D01*
X142122002Y-91692939D01*
X142124836Y-91688986D01*
X142126766Y-91685913D01*
X142126771Y-91685909D01*
X142217709Y-91541183D01*
X142274162Y-91379850D01*
X142293299Y-91210000D01*
X142274162Y-91040150D01*
X142217709Y-90878817D01*
X142126771Y-90734091D01*
X142126769Y-90734089D01*
X142126768Y-90734087D01*
X142005912Y-90613231D01*
X141861182Y-90522290D01*
X141743703Y-90481183D01*
X141699850Y-90465838D01*
X141699848Y-90465837D01*
X141699850Y-90465837D01*
X141530000Y-90446701D01*
X141360151Y-90465837D01*
X141198816Y-90522291D01*
X141198814Y-90522292D01*
X141061536Y-90608550D01*
X140993215Y-90627856D01*
X140925302Y-90607161D01*
X140879359Y-90553034D01*
X140868500Y-90501863D01*
X140868500Y-89565714D01*
X143062280Y-89565714D01*
X143149293Y-89619590D01*
X143149300Y-89619593D01*
X143340760Y-89693766D01*
X143340763Y-89693767D01*
X143542617Y-89731500D01*
X143747955Y-89731500D01*
X143949808Y-89693767D01*
X143949811Y-89693766D01*
X144141274Y-89619592D01*
X144141283Y-89619587D01*
X144228291Y-89565714D01*
X143645287Y-88982710D01*
X143645286Y-88982710D01*
X143062280Y-89565714D01*
X140868500Y-89565714D01*
X140868500Y-87480500D01*
X141287437Y-87480500D01*
X141306392Y-87685062D01*
X141362609Y-87882644D01*
X141362615Y-87882660D01*
X141454179Y-88066545D01*
X141454183Y-88066550D01*
X141577983Y-88230490D01*
X141729802Y-88368891D01*
X141729804Y-88368892D01*
X141904468Y-88477040D01*
X142096031Y-88551251D01*
X142297968Y-88589000D01*
X142297971Y-88589000D01*
X142414478Y-88589000D01*
X142482599Y-88609002D01*
X142529092Y-88662658D01*
X142539940Y-88703374D01*
X142551485Y-88827961D01*
X142551485Y-88827965D01*
X142607677Y-89025462D01*
X142607680Y-89025470D01*
X142699208Y-89209285D01*
X142699211Y-89209289D01*
X142699673Y-89209900D01*
X142699674Y-89209901D01*
X143352190Y-88557384D01*
X143341391Y-88595340D01*
X143351740Y-88707021D01*
X143401734Y-88807422D01*
X143484620Y-88882984D01*
X143589206Y-88923500D01*
X143673088Y-88923500D01*
X143755536Y-88908088D01*
X143850896Y-88849043D01*
X143918487Y-88759538D01*
X143949181Y-88651660D01*
X143946572Y-88623501D01*
X144004496Y-88623501D01*
X144590895Y-89209900D01*
X144590898Y-89209900D01*
X144591360Y-89209290D01*
X144682891Y-89025470D01*
X144682894Y-89025462D01*
X144739086Y-88827965D01*
X144739086Y-88827961D01*
X144758033Y-88623504D01*
X144758033Y-88623495D01*
X144739086Y-88419038D01*
X144739086Y-88419034D01*
X144682894Y-88221537D01*
X144682891Y-88221529D01*
X144591360Y-88037710D01*
X144590897Y-88037098D01*
X144004496Y-88623499D01*
X144004496Y-88623501D01*
X143946572Y-88623501D01*
X143938832Y-88539979D01*
X143888838Y-88439578D01*
X143805952Y-88364016D01*
X143701366Y-88323500D01*
X143617484Y-88323500D01*
X143578853Y-88330721D01*
X144228291Y-87681284D01*
X144141285Y-87627413D01*
X144141273Y-87627407D01*
X143949811Y-87553233D01*
X143949808Y-87553232D01*
X143747955Y-87515500D01*
X143632042Y-87515500D01*
X143563921Y-87495498D01*
X143517428Y-87441842D01*
X143506580Y-87401130D01*
X143494980Y-87275941D01*
X143476494Y-87210971D01*
X143438762Y-87078355D01*
X143438761Y-87078354D01*
X143438760Y-87078348D01*
X143438756Y-87078339D01*
X143347192Y-86894454D01*
X143347188Y-86894449D01*
X143338979Y-86883579D01*
X143322838Y-86862204D01*
X143223388Y-86730509D01*
X143071569Y-86592108D01*
X142896909Y-86483963D01*
X142896908Y-86483962D01*
X142896904Y-86483960D01*
X142779553Y-86438498D01*
X142705342Y-86409749D01*
X142654856Y-86400311D01*
X142503404Y-86372000D01*
X142297968Y-86372000D01*
X142188721Y-86392422D01*
X142096029Y-86409749D01*
X141947607Y-86467248D01*
X141904468Y-86483960D01*
X141904467Y-86483960D01*
X141904466Y-86483961D01*
X141904462Y-86483963D01*
X141729802Y-86592108D01*
X141577983Y-86730509D01*
X141454183Y-86894449D01*
X141454179Y-86894454D01*
X141362615Y-87078339D01*
X141362609Y-87078355D01*
X141306392Y-87275937D01*
X141287437Y-87480500D01*
X140868500Y-87480500D01*
X140868500Y-85182250D01*
X140869578Y-85165803D01*
X140873436Y-85136499D01*
X140853777Y-84987179D01*
X140817605Y-84899850D01*
X140796141Y-84848032D01*
X140727476Y-84758546D01*
X140727474Y-84758544D01*
X140724965Y-84755274D01*
X140724965Y-84755273D01*
X140724964Y-84755272D01*
X140704457Y-84728547D01*
X140704455Y-84728546D01*
X140704455Y-84728545D01*
X140680997Y-84710545D01*
X140668613Y-84699683D01*
X140385030Y-84416100D01*
X140351004Y-84353788D01*
X140348917Y-84341111D01*
X140334162Y-84210151D01*
X140332620Y-84205745D01*
X140277709Y-84048817D01*
X140186771Y-83904091D01*
X140186769Y-83904089D01*
X140186768Y-83904087D01*
X140065912Y-83783231D01*
X139921182Y-83692290D01*
X139821270Y-83657330D01*
X139759850Y-83635838D01*
X139759848Y-83635837D01*
X139759850Y-83635837D01*
X139590000Y-83616701D01*
X139420151Y-83635837D01*
X139258817Y-83692290D01*
X139114087Y-83783231D01*
X138993231Y-83904087D01*
X138954687Y-83965430D01*
X138901508Y-84012467D01*
X138831340Y-84023287D01*
X138766462Y-83994453D01*
X138727472Y-83935122D01*
X138722000Y-83898393D01*
X138722000Y-81809506D01*
X138742002Y-81741385D01*
X138758905Y-81720411D01*
X139705025Y-80774291D01*
X140662757Y-79816558D01*
X140725067Y-79782535D01*
X140775004Y-79781801D01*
X140805408Y-79787485D01*
X140868693Y-79819664D01*
X140904534Y-79880950D01*
X140907716Y-79899713D01*
X140925391Y-80090457D01*
X140981609Y-80288044D01*
X140981615Y-80288060D01*
X141073179Y-80471945D01*
X141073183Y-80471950D01*
X141196983Y-80635890D01*
X141348802Y-80774291D01*
X141348804Y-80774292D01*
X141523468Y-80882440D01*
X141715031Y-80956651D01*
X141916968Y-80994400D01*
X141916971Y-80994400D01*
X142122401Y-80994400D01*
X142122404Y-80994400D01*
X142324341Y-80956651D01*
X142515904Y-80882440D01*
X142690568Y-80774292D01*
X142842387Y-80635891D01*
X142966189Y-80471950D01*
X142966190Y-80471946D01*
X142966192Y-80471945D01*
X143057756Y-80288060D01*
X143057755Y-80288060D01*
X143057760Y-80288052D01*
X143113980Y-80090459D01*
X143132935Y-79885900D01*
X143120200Y-79748468D01*
X143133832Y-79678794D01*
X143156565Y-79647752D01*
X143259919Y-79544398D01*
X143272378Y-79534419D01*
X143272192Y-79534194D01*
X143278298Y-79529141D01*
X143278303Y-79529139D01*
X143325103Y-79479300D01*
X143327794Y-79476523D01*
X143347639Y-79456680D01*
X143350131Y-79453466D01*
X143357839Y-79444439D01*
X143388217Y-79412092D01*
X143398025Y-79394249D01*
X143408873Y-79377736D01*
X143421350Y-79361652D01*
X143438975Y-79320920D01*
X143444192Y-79310272D01*
X143465569Y-79271389D01*
X143470630Y-79251673D01*
X143477031Y-79232977D01*
X143485117Y-79214294D01*
X143492057Y-79170469D01*
X143494466Y-79158840D01*
X143505499Y-79115874D01*
X143505500Y-79115867D01*
X143505500Y-79095519D01*
X143507051Y-79075808D01*
X143510235Y-79055706D01*
X143506059Y-79011529D01*
X143505500Y-78999671D01*
X143505500Y-78884075D01*
X143507252Y-78868202D01*
X143506963Y-78868175D01*
X143507709Y-78860282D01*
X143505562Y-78791969D01*
X143505500Y-78788011D01*
X143505500Y-78760021D01*
X143505500Y-78760017D01*
X143504989Y-78755979D01*
X143504058Y-78744143D01*
X143502665Y-78699796D01*
X143496984Y-78680244D01*
X143492977Y-78660894D01*
X143490427Y-78640701D01*
X143474087Y-78599434D01*
X143470247Y-78588216D01*
X143460906Y-78556062D01*
X143457869Y-78545607D01*
X143447508Y-78528088D01*
X143438812Y-78510336D01*
X143431320Y-78491415D01*
X143431319Y-78491412D01*
X143405233Y-78455508D01*
X143398720Y-78445593D01*
X143391046Y-78432616D01*
X143376135Y-78407402D01*
X143376133Y-78407400D01*
X143376133Y-78407399D01*
X143361746Y-78393012D01*
X143348905Y-78377978D01*
X143336942Y-78361513D01*
X143336941Y-78361511D01*
X143302750Y-78333227D01*
X143293969Y-78325236D01*
X142158815Y-77190082D01*
X142148831Y-77177620D01*
X142148607Y-77177806D01*
X142143554Y-77171698D01*
X142093734Y-77124914D01*
X142090890Y-77122157D01*
X142071099Y-77102365D01*
X142071096Y-77102363D01*
X142071094Y-77102361D01*
X142067875Y-77099864D01*
X142058851Y-77092157D01*
X142026506Y-77061783D01*
X142026499Y-77061778D01*
X142008673Y-77051978D01*
X141992147Y-77041123D01*
X141976066Y-77028649D01*
X141935337Y-77011024D01*
X141924678Y-77005802D01*
X141885805Y-76984432D01*
X141885803Y-76984431D01*
X141866085Y-76979368D01*
X141847382Y-76972964D01*
X141828706Y-76964882D01*
X141784874Y-76957940D01*
X141773249Y-76955532D01*
X141730287Y-76944501D01*
X141730284Y-76944500D01*
X141730282Y-76944500D01*
X141730279Y-76944500D01*
X141709934Y-76944500D01*
X141690224Y-76942949D01*
X141670121Y-76939765D01*
X141670120Y-76939765D01*
X141643410Y-76942290D01*
X141625943Y-76943941D01*
X141614087Y-76944500D01*
X140294075Y-76944500D01*
X140278202Y-76942747D01*
X140278175Y-76943037D01*
X140270282Y-76942290D01*
X140201970Y-76944438D01*
X140198012Y-76944500D01*
X140170012Y-76944500D01*
X140165971Y-76945010D01*
X140154154Y-76945940D01*
X140109798Y-76947334D01*
X140109790Y-76947336D01*
X140090243Y-76953014D01*
X140070893Y-76957021D01*
X140050704Y-76959572D01*
X140050701Y-76959572D01*
X140050701Y-76959573D01*
X140037545Y-76964781D01*
X140009440Y-76975908D01*
X139998218Y-76979750D01*
X139955607Y-76992131D01*
X139938080Y-77002495D01*
X139920339Y-77011186D01*
X139901411Y-77018681D01*
X139865511Y-77044763D01*
X139855595Y-77051277D01*
X139817401Y-77073865D01*
X139803005Y-77088261D01*
X139787978Y-77101095D01*
X139771512Y-77113058D01*
X139743220Y-77147256D01*
X139735233Y-77156032D01*
X137260077Y-79631188D01*
X137247616Y-79641173D01*
X137247801Y-79641397D01*
X137241700Y-79646443D01*
X137194927Y-79696251D01*
X137192179Y-79699086D01*
X137172359Y-79718907D01*
X137172356Y-79718911D01*
X137169848Y-79722144D01*
X137162158Y-79731145D01*
X137131785Y-79763490D01*
X137131784Y-79763492D01*
X137121976Y-79781332D01*
X137111124Y-79797850D01*
X137098654Y-79813925D01*
X137098651Y-79813931D01*
X137081022Y-79854665D01*
X137075804Y-79865315D01*
X137054433Y-79904191D01*
X137054430Y-79904199D01*
X137049370Y-79923907D01*
X137042968Y-79942607D01*
X137034882Y-79961293D01*
X137034881Y-79961297D01*
X137027940Y-80005119D01*
X137025534Y-80016740D01*
X137014500Y-80059717D01*
X137014500Y-80080065D01*
X137012949Y-80099775D01*
X137009765Y-80119878D01*
X137013941Y-80164054D01*
X137014500Y-80175912D01*
X137014500Y-89627691D01*
X136994498Y-89695812D01*
X136940842Y-89742305D01*
X136870568Y-89752409D01*
X136805988Y-89722915D01*
X136767604Y-89663189D01*
X136767310Y-89662172D01*
X136733162Y-89542155D01*
X136733161Y-89542154D01*
X136733160Y-89542148D01*
X136730126Y-89536054D01*
X136641592Y-89358254D01*
X136641588Y-89358249D01*
X136517788Y-89194309D01*
X136365969Y-89055908D01*
X136191309Y-88947763D01*
X136191308Y-88947762D01*
X136191304Y-88947760D01*
X136065307Y-88898949D01*
X135999742Y-88873549D01*
X135933680Y-88861200D01*
X135797804Y-88835800D01*
X135592368Y-88835800D01*
X135471205Y-88858449D01*
X135390429Y-88873549D01*
X135301274Y-88908088D01*
X135198868Y-88947760D01*
X135198867Y-88947760D01*
X135198866Y-88947761D01*
X135198862Y-88947763D01*
X135024202Y-89055908D01*
X134872383Y-89194309D01*
X134748583Y-89358248D01*
X134720610Y-89414425D01*
X134672339Y-89466488D01*
X134603585Y-89484189D01*
X134536175Y-89461908D01*
X134507269Y-89434191D01*
X134460387Y-89372108D01*
X134308569Y-89233708D01*
X134133909Y-89125563D01*
X134133908Y-89125562D01*
X134133904Y-89125560D01*
X133976772Y-89064687D01*
X133920478Y-89021428D01*
X133896507Y-88954601D01*
X133912471Y-88885422D01*
X133921739Y-88871264D01*
X133922698Y-88869992D01*
X133922701Y-88869991D01*
X134046503Y-88706050D01*
X134046506Y-88706045D01*
X134138070Y-88522160D01*
X134138069Y-88522160D01*
X134138074Y-88522152D01*
X134194294Y-88324559D01*
X134213249Y-88120000D01*
X134194294Y-87915441D01*
X134184962Y-87882644D01*
X134138076Y-87717855D01*
X134138075Y-87717854D01*
X134138074Y-87717848D01*
X134138070Y-87717839D01*
X134046506Y-87533954D01*
X134046502Y-87533949D01*
X133922702Y-87370009D01*
X133770883Y-87231608D01*
X133596223Y-87123463D01*
X133596222Y-87123462D01*
X133596218Y-87123460D01*
X133478867Y-87077998D01*
X133404656Y-87049249D01*
X133354170Y-87039811D01*
X133202718Y-87011500D01*
X132997282Y-87011500D01*
X132876119Y-87034149D01*
X132795343Y-87049249D01*
X132646921Y-87106748D01*
X132603782Y-87123460D01*
X132603781Y-87123460D01*
X132603780Y-87123461D01*
X132603776Y-87123463D01*
X132429116Y-87231608D01*
X132277297Y-87370009D01*
X132153497Y-87533949D01*
X132153493Y-87533954D01*
X132061929Y-87717839D01*
X132061923Y-87717855D01*
X132005706Y-87915437D01*
X131986751Y-88120000D01*
X132005706Y-88324562D01*
X132061923Y-88522144D01*
X132061929Y-88522160D01*
X132153493Y-88706045D01*
X132153497Y-88706050D01*
X132277297Y-88869990D01*
X132429116Y-89008391D01*
X132504552Y-89055099D01*
X132603782Y-89116540D01*
X132760913Y-89177412D01*
X132817207Y-89220670D01*
X132841178Y-89287498D01*
X132825214Y-89356676D01*
X132815947Y-89370834D01*
X132691182Y-89536051D01*
X132691179Y-89536054D01*
X132599615Y-89719939D01*
X132599609Y-89719955D01*
X132543392Y-89917537D01*
X132524437Y-90122100D01*
X132543392Y-90326662D01*
X132599609Y-90524244D01*
X132599615Y-90524260D01*
X132691179Y-90708145D01*
X132691183Y-90708150D01*
X132814983Y-90872090D01*
X132966802Y-91010491D01*
X133035133Y-91052800D01*
X133141468Y-91118640D01*
X133333031Y-91192851D01*
X133534968Y-91230600D01*
X133534971Y-91230600D01*
X133740401Y-91230600D01*
X133740404Y-91230600D01*
X133942341Y-91192851D01*
X134133904Y-91118640D01*
X134308568Y-91010492D01*
X134460387Y-90872091D01*
X134584189Y-90708150D01*
X134612161Y-90651974D01*
X134660429Y-90599913D01*
X134729184Y-90582210D01*
X134796594Y-90604489D01*
X134825501Y-90632207D01*
X134872383Y-90694290D01*
X135024202Y-90832691D01*
X135065226Y-90858092D01*
X135198868Y-90940840D01*
X135390431Y-91015051D01*
X135592368Y-91052800D01*
X135592371Y-91052800D01*
X135797801Y-91052800D01*
X135797804Y-91052800D01*
X135999741Y-91015051D01*
X136191304Y-90940840D01*
X136365968Y-90832692D01*
X136517787Y-90694291D01*
X136641589Y-90530350D01*
X136641590Y-90530346D01*
X136641592Y-90530345D01*
X136733156Y-90346460D01*
X136733155Y-90346460D01*
X136733160Y-90346452D01*
X136767310Y-90226426D01*
X136805190Y-90166380D01*
X136869521Y-90136346D01*
X136939877Y-90145859D01*
X136993922Y-90191899D01*
X137014496Y-90259849D01*
X137014500Y-90260908D01*
X137014500Y-95314575D01*
X136994498Y-95382696D01*
X136977595Y-95403671D01*
X136063986Y-96317279D01*
X136016507Y-96347112D01*
X135858814Y-96402292D01*
X135775753Y-96454483D01*
X135707432Y-96473789D01*
X135639519Y-96453094D01*
X135619622Y-96436891D01*
X128186261Y-89003530D01*
X128152235Y-88941218D01*
X128157300Y-88870403D01*
X128168670Y-88847397D01*
X128175957Y-88835800D01*
X128197709Y-88801183D01*
X128254162Y-88639850D01*
X128273299Y-88470000D01*
X128254162Y-88300150D01*
X128197709Y-88138817D01*
X128106771Y-87994091D01*
X128106769Y-87994089D01*
X128106768Y-87994087D01*
X127985912Y-87873231D01*
X127841182Y-87782290D01*
X127741270Y-87747330D01*
X127679850Y-87725838D01*
X127679848Y-87725837D01*
X127679850Y-87725837D01*
X127510000Y-87706701D01*
X127340151Y-87725837D01*
X127178817Y-87782290D01*
X127034087Y-87873231D01*
X126913231Y-87994087D01*
X126822290Y-88138817D01*
X126765837Y-88300151D01*
X126746701Y-88470000D01*
X126765837Y-88639848D01*
X126822291Y-88801183D01*
X126822293Y-88801187D01*
X126855186Y-88853535D01*
X126874500Y-88920572D01*
X126874500Y-89141933D01*
X126872748Y-89157803D01*
X126873038Y-89157831D01*
X126872292Y-89165720D01*
X126872292Y-89165721D01*
X126874091Y-89222987D01*
X126874438Y-89234013D01*
X126874500Y-89237971D01*
X126874500Y-89265989D01*
X126875011Y-89270040D01*
X126875940Y-89281849D01*
X126877334Y-89326204D01*
X126877335Y-89326208D01*
X126879336Y-89333095D01*
X126879131Y-89404091D01*
X126840576Y-89463707D01*
X126775911Y-89493014D01*
X126705666Y-89482708D01*
X126691302Y-89474932D01*
X126671185Y-89462292D01*
X126671183Y-89462291D01*
X126635386Y-89449765D01*
X126509850Y-89405838D01*
X126509848Y-89405837D01*
X126509850Y-89405837D01*
X126340000Y-89386701D01*
X126170151Y-89405837D01*
X126008817Y-89462290D01*
X125864087Y-89553231D01*
X125743229Y-89674089D01*
X125723342Y-89705740D01*
X125670163Y-89752777D01*
X125600209Y-89763623D01*
X125557492Y-89758000D01*
X125520000Y-89753064D01*
X125490696Y-89756922D01*
X125474249Y-89758000D01*
X125143106Y-89758000D01*
X125074985Y-89737998D01*
X125054011Y-89721095D01*
X124834817Y-89501901D01*
X124800791Y-89439589D01*
X124800102Y-89392665D01*
X124800042Y-89392660D01*
X124800093Y-89392099D01*
X124800058Y-89389649D01*
X124800577Y-89386867D01*
X124800580Y-89386859D01*
X124819535Y-89182300D01*
X124800580Y-88977741D01*
X124799277Y-88973163D01*
X124744362Y-88780155D01*
X124744361Y-88780152D01*
X124744360Y-88780148D01*
X124744356Y-88780139D01*
X124652792Y-88596254D01*
X124652788Y-88596249D01*
X124528988Y-88432309D01*
X124377169Y-88293908D01*
X124202509Y-88185763D01*
X124202508Y-88185762D01*
X124202504Y-88185760D01*
X124038861Y-88122365D01*
X124010942Y-88111549D01*
X123960456Y-88102111D01*
X123809004Y-88073800D01*
X123603568Y-88073800D01*
X123482405Y-88096449D01*
X123401629Y-88111549D01*
X123253207Y-88169048D01*
X123210068Y-88185760D01*
X123210067Y-88185760D01*
X123210066Y-88185761D01*
X123210062Y-88185763D01*
X123035402Y-88293908D01*
X122883583Y-88432309D01*
X122759783Y-88596249D01*
X122759779Y-88596254D01*
X122668215Y-88780139D01*
X122668210Y-88780152D01*
X122615460Y-88965550D01*
X122577579Y-89025596D01*
X122513248Y-89055631D01*
X122442892Y-89046117D01*
X122427939Y-89038195D01*
X122322909Y-88973163D01*
X122322908Y-88973162D01*
X122322904Y-88973160D01*
X122154932Y-88908088D01*
X122131342Y-88898949D01*
X122080856Y-88889511D01*
X121929404Y-88861200D01*
X121723968Y-88861200D01*
X121607435Y-88882984D01*
X121522029Y-88898949D01*
X121396031Y-88947761D01*
X121330468Y-88973160D01*
X121330467Y-88973160D01*
X121330466Y-88973161D01*
X121330462Y-88973163D01*
X121155802Y-89081308D01*
X121003983Y-89219709D01*
X120880183Y-89383649D01*
X120880179Y-89383654D01*
X120788615Y-89567539D01*
X120788609Y-89567555D01*
X120732392Y-89765137D01*
X120713437Y-89969700D01*
X120732392Y-90174262D01*
X120788609Y-90371844D01*
X120788615Y-90371860D01*
X120880179Y-90555745D01*
X120880183Y-90555750D01*
X121003983Y-90719690D01*
X121105413Y-90812155D01*
X121155804Y-90858092D01*
X121195015Y-90882370D01*
X121242403Y-90935236D01*
X121254686Y-90989498D01*
X121254686Y-92770942D01*
X121253608Y-92787388D01*
X121249751Y-92816685D01*
X121249751Y-92816687D01*
X121254147Y-92850082D01*
X121254148Y-92850089D01*
X121269408Y-92966006D01*
X121327044Y-93105152D01*
X121327049Y-93105160D01*
X121418730Y-93224641D01*
X121442183Y-93242637D01*
X121454574Y-93253504D01*
X122483186Y-94282117D01*
X122494048Y-94294501D01*
X122512045Y-94317955D01*
X122512046Y-94317956D01*
X122538755Y-94338450D01*
X122538790Y-94338478D01*
X122631533Y-94409642D01*
X122680683Y-94430000D01*
X122770678Y-94467277D01*
X122882508Y-94482000D01*
X122882514Y-94482000D01*
X122920000Y-94486935D01*
X122949298Y-94483078D01*
X122965744Y-94482000D01*
X125350880Y-94482000D01*
X125419001Y-94502002D01*
X125439975Y-94518905D01*
X129101095Y-98180025D01*
X129135121Y-98242337D01*
X129138000Y-98269120D01*
X129138000Y-100094256D01*
X129136922Y-100110702D01*
X129133065Y-100139999D01*
X129133065Y-100140001D01*
X129137461Y-100173396D01*
X129137462Y-100173403D01*
X129152722Y-100289320D01*
X129210358Y-100428466D01*
X129210363Y-100428474D01*
X129302043Y-100547953D01*
X129302045Y-100547955D01*
X129319900Y-100561655D01*
X129325499Y-100565952D01*
X129337889Y-100576819D01*
X129565099Y-100804029D01*
X129599125Y-100866341D01*
X129594060Y-100937156D01*
X129565100Y-100982219D01*
X129453230Y-101094089D01*
X129362290Y-101238817D01*
X129305837Y-101400151D01*
X129286701Y-101570000D01*
X129305837Y-101739848D01*
X129362290Y-101901182D01*
X129409786Y-101976771D01*
X129446947Y-102035912D01*
X129453231Y-102045912D01*
X129574087Y-102166768D01*
X129574089Y-102166769D01*
X129574091Y-102166771D01*
X129718817Y-102257709D01*
X129880150Y-102314162D01*
X129880149Y-102314162D01*
X129897348Y-102316099D01*
X130050000Y-102333299D01*
X130219850Y-102314162D01*
X130251440Y-102303107D01*
X130322342Y-102299488D01*
X130383947Y-102334777D01*
X130416695Y-102397770D01*
X130418262Y-102436142D01*
X130416701Y-102449998D01*
X130431313Y-102579692D01*
X130419063Y-102649624D01*
X130370950Y-102701832D01*
X130354327Y-102710206D01*
X130281532Y-102740359D01*
X130281531Y-102740360D01*
X130281525Y-102740363D01*
X130205805Y-102798466D01*
X130205805Y-102798467D01*
X130162042Y-102832046D01*
X130144049Y-102855495D01*
X130133188Y-102867880D01*
X130118164Y-102882905D01*
X130105412Y-102895658D01*
X130099977Y-102901093D01*
X130037666Y-102935120D01*
X130010879Y-102938000D01*
X126554320Y-102938000D01*
X126486199Y-102917998D01*
X126439706Y-102864342D01*
X126429602Y-102794068D01*
X126447633Y-102744964D01*
X126486741Y-102682723D01*
X126487709Y-102681183D01*
X126544162Y-102519850D01*
X126555909Y-102415581D01*
X126583412Y-102350131D01*
X126641935Y-102309937D01*
X126667013Y-102304482D01*
X126668480Y-102304316D01*
X126669850Y-102304162D01*
X126831183Y-102247709D01*
X126975909Y-102156771D01*
X127096771Y-102035909D01*
X127187709Y-101891183D01*
X127244162Y-101729850D01*
X127263299Y-101560000D01*
X127244162Y-101390150D01*
X127187709Y-101228817D01*
X127096771Y-101084091D01*
X127096769Y-101084089D01*
X127096768Y-101084087D01*
X126975912Y-100963231D01*
X126831182Y-100872290D01*
X126719550Y-100833229D01*
X126669850Y-100815838D01*
X126669848Y-100815837D01*
X126669850Y-100815837D01*
X126500000Y-100796701D01*
X126330151Y-100815837D01*
X126168817Y-100872290D01*
X126024087Y-100963231D01*
X125903231Y-101084087D01*
X125812290Y-101228818D01*
X125807303Y-101243070D01*
X125765923Y-101300761D01*
X125699922Y-101326922D01*
X125630255Y-101313247D01*
X125599280Y-101290547D01*
X120012721Y-95703988D01*
X119982888Y-95656510D01*
X119927709Y-95498817D01*
X119836771Y-95354091D01*
X119836769Y-95354089D01*
X119836768Y-95354087D01*
X119715912Y-95233231D01*
X119687908Y-95215635D01*
X119681719Y-95211746D01*
X119571182Y-95142290D01*
X119471270Y-95107330D01*
X119409850Y-95085838D01*
X119409848Y-95085837D01*
X119409850Y-95085837D01*
X119240000Y-95066701D01*
X119070151Y-95085837D01*
X118908817Y-95142290D01*
X118764087Y-95233231D01*
X118643231Y-95354087D01*
X118552290Y-95498817D01*
X118495837Y-95660151D01*
X118476701Y-95830000D01*
X118495837Y-95999848D01*
X118552290Y-96161182D01*
X118552291Y-96161183D01*
X118640259Y-96301183D01*
X118643231Y-96305912D01*
X118764087Y-96426768D01*
X118764089Y-96426769D01*
X118764091Y-96426771D01*
X118908817Y-96517709D01*
X119066511Y-96572888D01*
X119113990Y-96602722D01*
X123974173Y-101462905D01*
X124008199Y-101525217D01*
X124003134Y-101596032D01*
X123960587Y-101652868D01*
X123894067Y-101677679D01*
X123885078Y-101678000D01*
X122985744Y-101678000D01*
X122969298Y-101676922D01*
X122940000Y-101673065D01*
X122939997Y-101673065D01*
X122906661Y-101677453D01*
X122906597Y-101677462D01*
X122902510Y-101678000D01*
X122902508Y-101678000D01*
X122874113Y-101681738D01*
X122790679Y-101692722D01*
X122651533Y-101750358D01*
X122651525Y-101750363D01*
X122582845Y-101803064D01*
X122532044Y-101842044D01*
X122514046Y-101865499D01*
X122503182Y-101877886D01*
X120759750Y-103621318D01*
X120697438Y-103655344D01*
X120684762Y-103657431D01*
X120610151Y-103665837D01*
X120448817Y-103722290D01*
X120304087Y-103813231D01*
X120183231Y-103934087D01*
X120092290Y-104078817D01*
X120035837Y-104240151D01*
X120021646Y-104366107D01*
X119994143Y-104431560D01*
X119935619Y-104471753D01*
X119896438Y-104478000D01*
X112765744Y-104478000D01*
X112749298Y-104476922D01*
X112720000Y-104473065D01*
X112719997Y-104473065D01*
X112686661Y-104477453D01*
X112686597Y-104477462D01*
X112682510Y-104478000D01*
X112682508Y-104478000D01*
X112654113Y-104481738D01*
X112570679Y-104492722D01*
X112431533Y-104550358D01*
X112431530Y-104550360D01*
X112382358Y-104588092D01*
X112382357Y-104588091D01*
X112312044Y-104642044D01*
X112294046Y-104665499D01*
X112283182Y-104677886D01*
X111377886Y-105583182D01*
X111365499Y-105594046D01*
X111342046Y-105612043D01*
X111319023Y-105642045D01*
X111319024Y-105642046D01*
X111250360Y-105731530D01*
X111250358Y-105731533D01*
X111192722Y-105870679D01*
X111185012Y-105929240D01*
X111178000Y-105982508D01*
X111178000Y-105982513D01*
X111178000Y-105982514D01*
X111173065Y-106019999D01*
X111173065Y-106020000D01*
X111176922Y-106049297D01*
X111178000Y-106065743D01*
X111178000Y-107048939D01*
X111157998Y-107117060D01*
X111155164Y-107121012D01*
X111153229Y-107124090D01*
X111153229Y-107124091D01*
X111135434Y-107152412D01*
X111062290Y-107268817D01*
X111005837Y-107430151D01*
X110986701Y-107600000D01*
X111005837Y-107769848D01*
X111062290Y-107931182D01*
X111153231Y-108075912D01*
X111274086Y-108196767D01*
X111274090Y-108196770D01*
X111274091Y-108196771D01*
X111318653Y-108224771D01*
X111365691Y-108277949D01*
X111376511Y-108348116D01*
X111347678Y-108412995D01*
X111340712Y-108420553D01*
X109857401Y-109903866D01*
X109018037Y-110743229D01*
X108801104Y-110960162D01*
X108789381Y-110969521D01*
X108789681Y-110969886D01*
X108783554Y-110974916D01*
X108735580Y-111025618D01*
X108733156Y-111028110D01*
X108712351Y-111048916D01*
X108712346Y-111048921D01*
X108710725Y-111051011D01*
X108702719Y-111060347D01*
X108673208Y-111091539D01*
X108673198Y-111091553D01*
X108662629Y-111110607D01*
X108652009Y-111126708D01*
X108638650Y-111143931D01*
X108638648Y-111143934D01*
X108621592Y-111183346D01*
X108616146Y-111194411D01*
X108595323Y-111231955D01*
X108595319Y-111231966D01*
X108589821Y-111253049D01*
X108583539Y-111271286D01*
X108574883Y-111291289D01*
X108568165Y-111333700D01*
X108565641Y-111345775D01*
X108554805Y-111387330D01*
X108554723Y-111409125D01*
X108553174Y-111428352D01*
X108549764Y-111449881D01*
X108549764Y-111449882D01*
X108553805Y-111492626D01*
X108554363Y-111504956D01*
X108546197Y-113677197D01*
X108526886Y-113743758D01*
X108492291Y-113798816D01*
X108435837Y-113960151D01*
X108416701Y-114130000D01*
X108435837Y-114299848D01*
X108492290Y-114461182D01*
X108583231Y-114605912D01*
X108704087Y-114726768D01*
X108704089Y-114726769D01*
X108704091Y-114726771D01*
X108848817Y-114817709D01*
X109010150Y-114874162D01*
X109010149Y-114874162D01*
X109027348Y-114876099D01*
X109180000Y-114893299D01*
X109349850Y-114874162D01*
X109511183Y-114817709D01*
X109655909Y-114726771D01*
X109776771Y-114605909D01*
X109867709Y-114461183D01*
X109924162Y-114299850D01*
X109943299Y-114130000D01*
X109924162Y-113960150D01*
X109867709Y-113798817D01*
X109836500Y-113749150D01*
X109817189Y-113681640D01*
X109817245Y-113666768D01*
X109824315Y-111786130D01*
X109844573Y-111718088D01*
X109861214Y-111697516D01*
X110727638Y-110831094D01*
X110727637Y-110831094D01*
X110787151Y-110771580D01*
X110787150Y-110771580D01*
X112716919Y-108841812D01*
X112729378Y-108831833D01*
X112729192Y-108831608D01*
X112735298Y-108826555D01*
X112735303Y-108826553D01*
X112782103Y-108776714D01*
X112784794Y-108773937D01*
X112804639Y-108754094D01*
X112807131Y-108750880D01*
X112814839Y-108741853D01*
X112845217Y-108709506D01*
X112855025Y-108691663D01*
X112865868Y-108675156D01*
X112878350Y-108659066D01*
X112895977Y-108618329D01*
X112901188Y-108607693D01*
X112922569Y-108568803D01*
X112927631Y-108549084D01*
X112934029Y-108530393D01*
X112942117Y-108511707D01*
X112949057Y-108467885D01*
X112951465Y-108456256D01*
X112962500Y-108413282D01*
X112962500Y-108392933D01*
X112964051Y-108373222D01*
X112967235Y-108353120D01*
X112963059Y-108308943D01*
X112962500Y-108297085D01*
X112962500Y-107520000D01*
X119146701Y-107520000D01*
X119165837Y-107689848D01*
X119222290Y-107851182D01*
X119313231Y-107995912D01*
X119434087Y-108116768D01*
X119434089Y-108116769D01*
X119434091Y-108116771D01*
X119578817Y-108207709D01*
X119740150Y-108264162D01*
X119740149Y-108264162D01*
X119757348Y-108266099D01*
X119910000Y-108283299D01*
X120079850Y-108264162D01*
X120241183Y-108207709D01*
X120385909Y-108116771D01*
X120506771Y-107995909D01*
X120597709Y-107851183D01*
X120654162Y-107689850D01*
X120673299Y-107520000D01*
X120654162Y-107350150D01*
X120597709Y-107188817D01*
X120506771Y-107044091D01*
X120506769Y-107044089D01*
X120506768Y-107044087D01*
X120385912Y-106923231D01*
X120241182Y-106832290D01*
X120134529Y-106794971D01*
X120079850Y-106775838D01*
X120079848Y-106775837D01*
X120079850Y-106775837D01*
X119910000Y-106756701D01*
X119740151Y-106775837D01*
X119578817Y-106832290D01*
X119434087Y-106923231D01*
X119313231Y-107044087D01*
X119222290Y-107188817D01*
X119165837Y-107350151D01*
X119146701Y-107520000D01*
X112962500Y-107520000D01*
X112962500Y-106921075D01*
X112964252Y-106905202D01*
X112963963Y-106905175D01*
X112964709Y-106897282D01*
X112962562Y-106828968D01*
X112962500Y-106825010D01*
X112962500Y-106797022D01*
X112962500Y-106797017D01*
X112962298Y-106795422D01*
X112962371Y-106794971D01*
X112962251Y-106793066D01*
X112962682Y-106793038D01*
X112973597Y-106725334D01*
X112998205Y-106690526D01*
X113446329Y-106242404D01*
X113508641Y-106208379D01*
X113535424Y-106205500D01*
X113709718Y-106205500D01*
X123295930Y-106205500D01*
X123311798Y-106207252D01*
X123311826Y-106206962D01*
X123319718Y-106207708D01*
X123319718Y-106207707D01*
X123319719Y-106207708D01*
X123388012Y-106205562D01*
X123391969Y-106205500D01*
X123419983Y-106205500D01*
X123424013Y-106204990D01*
X123435851Y-106204058D01*
X123480205Y-106202665D01*
X123499751Y-106196985D01*
X123519102Y-106192978D01*
X123539299Y-106190427D01*
X123580555Y-106174092D01*
X123591778Y-106170249D01*
X123634393Y-106157869D01*
X123651907Y-106147510D01*
X123669656Y-106138814D01*
X123688588Y-106131319D01*
X123724494Y-106105230D01*
X123734394Y-106098727D01*
X123772598Y-106076134D01*
X123786984Y-106061747D01*
X123802018Y-106048906D01*
X123818487Y-106036942D01*
X123846783Y-106002736D01*
X123854762Y-105993969D01*
X123889707Y-105959024D01*
X123936012Y-105912719D01*
X123983483Y-105882890D01*
X124141183Y-105827709D01*
X124285909Y-105736771D01*
X124406771Y-105615909D01*
X124497709Y-105471183D01*
X124554162Y-105309850D01*
X124573299Y-105140000D01*
X124554162Y-104970150D01*
X124497709Y-104808817D01*
X124406771Y-104664091D01*
X124406769Y-104664089D01*
X124406768Y-104664087D01*
X124285912Y-104543231D01*
X124141182Y-104452290D01*
X124045592Y-104418842D01*
X123987900Y-104377464D01*
X123961738Y-104311463D01*
X123975411Y-104241796D01*
X123998111Y-104210818D01*
X124018586Y-104190343D01*
X124122019Y-104086909D01*
X124184328Y-104052887D01*
X124255144Y-104057951D01*
X124278142Y-104069316D01*
X124418817Y-104157709D01*
X124580150Y-104214162D01*
X124580155Y-104214162D01*
X124580157Y-104214163D01*
X124654762Y-104222568D01*
X124720215Y-104250071D01*
X124729751Y-104258681D01*
X127224595Y-106753525D01*
X127258621Y-106815837D01*
X127261500Y-106842620D01*
X127261500Y-109497380D01*
X127241498Y-109565501D01*
X127224595Y-109586475D01*
X110049975Y-126761095D01*
X109987663Y-126795121D01*
X109960880Y-126798000D01*
X109723887Y-126798000D01*
X109656851Y-126778687D01*
X109596665Y-126740869D01*
X109551182Y-126712290D01*
X109451270Y-126677330D01*
X109389850Y-126655838D01*
X109389848Y-126655837D01*
X109389850Y-126655837D01*
X109220000Y-126636701D01*
X109050151Y-126655837D01*
X108888817Y-126712290D01*
X108744087Y-126803231D01*
X108623231Y-126924087D01*
X108532290Y-127068817D01*
X108475837Y-127230151D01*
X108456701Y-127400000D01*
X108475837Y-127569848D01*
X108532290Y-127731182D01*
X108623231Y-127875912D01*
X108744087Y-127996768D01*
X108744089Y-127996769D01*
X108744091Y-127996771D01*
X108888817Y-128087709D01*
X109050150Y-128144162D01*
X109050149Y-128144162D01*
X109071715Y-128146591D01*
X109220000Y-128163299D01*
X109220298Y-128163265D01*
X109220491Y-128163299D01*
X109227076Y-128163299D01*
X109227076Y-128164452D01*
X109290229Y-128175514D01*
X109342438Y-128223626D01*
X109360347Y-128292326D01*
X109338271Y-128359803D01*
X109323501Y-128377568D01*
X98609750Y-139091318D01*
X98547438Y-139125344D01*
X98534762Y-139127431D01*
X98460151Y-139135837D01*
X98298817Y-139192290D01*
X98154087Y-139283231D01*
X98033231Y-139404087D01*
X97942290Y-139548817D01*
X97885837Y-139710151D01*
X97866701Y-139880000D01*
X97332800Y-139880000D01*
X97332800Y-120921558D01*
X113211234Y-120921558D01*
X113230370Y-121091406D01*
X113286823Y-121252740D01*
X113377764Y-121397470D01*
X113498620Y-121518326D01*
X113498622Y-121518327D01*
X113498624Y-121518329D01*
X113643350Y-121609267D01*
X113804683Y-121665720D01*
X113804682Y-121665720D01*
X113821881Y-121667657D01*
X113974533Y-121684857D01*
X114144383Y-121665720D01*
X114305716Y-121609267D01*
X114450442Y-121518329D01*
X114571304Y-121397467D01*
X114662242Y-121252741D01*
X114718695Y-121091408D01*
X114737832Y-120921558D01*
X114718695Y-120751708D01*
X114662242Y-120590375D01*
X114571304Y-120445649D01*
X114571302Y-120445647D01*
X114571301Y-120445645D01*
X114450445Y-120324789D01*
X114305715Y-120233848D01*
X114205803Y-120198888D01*
X114144383Y-120177396D01*
X114144381Y-120177395D01*
X114144383Y-120177395D01*
X113974533Y-120158259D01*
X113804684Y-120177395D01*
X113643350Y-120233848D01*
X113498620Y-120324789D01*
X113377764Y-120445645D01*
X113286823Y-120590375D01*
X113230370Y-120751709D01*
X113211234Y-120921558D01*
X97332800Y-120921558D01*
X97332800Y-118617999D01*
X85455252Y-118555044D01*
X85387238Y-118534681D01*
X85341031Y-118480780D01*
X85331299Y-118410454D01*
X85352705Y-118356779D01*
X85460568Y-118202734D01*
X85556739Y-117996496D01*
X85615635Y-117776692D01*
X85627594Y-117640000D01*
X107966701Y-117640000D01*
X107985837Y-117809848D01*
X108042290Y-117971182D01*
X108133231Y-118115912D01*
X108254087Y-118236768D01*
X108254089Y-118236769D01*
X108254091Y-118236771D01*
X108398817Y-118327709D01*
X108560150Y-118384162D01*
X108560149Y-118384162D01*
X108577348Y-118386099D01*
X108730000Y-118403299D01*
X108899850Y-118384162D01*
X109061183Y-118327709D01*
X109205909Y-118236771D01*
X109326771Y-118115909D01*
X109417709Y-117971183D01*
X109474162Y-117809850D01*
X109493299Y-117640000D01*
X109474162Y-117470150D01*
X109417709Y-117308817D01*
X109326771Y-117164091D01*
X109326769Y-117164089D01*
X109326768Y-117164087D01*
X109205912Y-117043231D01*
X109061182Y-116952290D01*
X108961270Y-116917330D01*
X108899850Y-116895838D01*
X108899848Y-116895837D01*
X108899850Y-116895837D01*
X108730000Y-116876701D01*
X108560151Y-116895837D01*
X108398817Y-116952290D01*
X108254087Y-117043231D01*
X108133231Y-117164087D01*
X108042290Y-117308817D01*
X107985837Y-117470151D01*
X107966701Y-117640000D01*
X85627594Y-117640000D01*
X85635468Y-117550000D01*
X85615635Y-117323308D01*
X85556739Y-117103504D01*
X85460568Y-116897266D01*
X85460567Y-116897265D01*
X85460566Y-116897262D01*
X85330051Y-116710865D01*
X85330042Y-116710855D01*
X85169144Y-116549957D01*
X85169134Y-116549948D01*
X84982737Y-116419433D01*
X84982738Y-116419433D01*
X84776498Y-116323262D01*
X84776493Y-116323260D01*
X84652366Y-116290000D01*
X97386701Y-116290000D01*
X97405837Y-116459848D01*
X97462290Y-116621182D01*
X97553231Y-116765912D01*
X97674087Y-116886768D01*
X97674089Y-116886769D01*
X97674091Y-116886771D01*
X97818817Y-116977709D01*
X97980150Y-117034162D01*
X97980149Y-117034162D01*
X97997348Y-117036099D01*
X98150000Y-117053299D01*
X98319850Y-117034162D01*
X98481183Y-116977709D01*
X98625909Y-116886771D01*
X98746771Y-116765909D01*
X98837709Y-116621183D01*
X98894162Y-116459850D01*
X98913299Y-116290000D01*
X98894162Y-116120150D01*
X98837709Y-115958817D01*
X98746771Y-115814091D01*
X98746769Y-115814089D01*
X98746768Y-115814087D01*
X98625912Y-115693231D01*
X98481182Y-115602290D01*
X98381270Y-115567330D01*
X98319850Y-115545838D01*
X98319848Y-115545837D01*
X98319850Y-115545837D01*
X98150000Y-115526701D01*
X97980151Y-115545837D01*
X97818817Y-115602290D01*
X97674087Y-115693231D01*
X97553231Y-115814087D01*
X97462290Y-115958817D01*
X97405837Y-116120151D01*
X97386701Y-116290000D01*
X84652366Y-116290000D01*
X84556695Y-116264365D01*
X84505719Y-116259905D01*
X84386784Y-116249500D01*
X84273216Y-116249500D01*
X84165092Y-116258959D01*
X84103304Y-116264365D01*
X83883506Y-116323260D01*
X83883501Y-116323262D01*
X83677262Y-116419433D01*
X83490865Y-116549948D01*
X83490855Y-116549957D01*
X83329957Y-116710855D01*
X83329948Y-116710865D01*
X83199431Y-116897265D01*
X83196783Y-116901852D01*
X83145397Y-116950841D01*
X83075682Y-116964272D01*
X83009773Y-116937880D01*
X82968596Y-116880044D01*
X82961670Y-116838457D01*
X82973393Y-113050000D01*
X99516701Y-113050000D01*
X99535837Y-113219848D01*
X99592290Y-113381182D01*
X99683231Y-113525912D01*
X99804087Y-113646768D01*
X99804089Y-113646769D01*
X99804091Y-113646771D01*
X99948817Y-113737709D01*
X100110150Y-113794162D01*
X100110149Y-113794162D01*
X100127348Y-113796099D01*
X100280000Y-113813299D01*
X100449850Y-113794162D01*
X100611183Y-113737709D01*
X100755909Y-113646771D01*
X100876771Y-113525909D01*
X100967709Y-113381183D01*
X101024162Y-113219850D01*
X101041046Y-113070000D01*
X102336701Y-113070000D01*
X102355837Y-113239848D01*
X102412290Y-113401182D01*
X102503231Y-113545912D01*
X102624087Y-113666768D01*
X102624089Y-113666769D01*
X102624091Y-113666771D01*
X102768817Y-113757709D01*
X102930150Y-113814162D01*
X102930149Y-113814162D01*
X102947348Y-113816099D01*
X103100000Y-113833299D01*
X103269850Y-113814162D01*
X103431183Y-113757709D01*
X103575909Y-113666771D01*
X103696771Y-113545909D01*
X103706146Y-113530987D01*
X103759318Y-113483950D01*
X103826937Y-113472813D01*
X103920000Y-113483299D01*
X104089850Y-113464162D01*
X104251183Y-113407709D01*
X104395909Y-113316771D01*
X104516771Y-113195909D01*
X104607709Y-113051183D01*
X104664162Y-112889850D01*
X104683299Y-112720000D01*
X104664162Y-112550150D01*
X104607709Y-112388817D01*
X104516771Y-112244091D01*
X104516769Y-112244089D01*
X104516768Y-112244087D01*
X104456773Y-112184092D01*
X104422747Y-112121780D01*
X104426939Y-112053381D01*
X104427706Y-112051186D01*
X104427709Y-112051183D01*
X104484162Y-111889850D01*
X104503299Y-111720000D01*
X104484162Y-111550150D01*
X104427709Y-111388817D01*
X104336771Y-111244091D01*
X104336769Y-111244089D01*
X104336768Y-111244087D01*
X104215912Y-111123231D01*
X104071182Y-111032290D01*
X103931169Y-110983298D01*
X103909850Y-110975838D01*
X103909848Y-110975837D01*
X103909850Y-110975837D01*
X103740000Y-110956701D01*
X103570151Y-110975837D01*
X103408817Y-111032290D01*
X103264087Y-111123231D01*
X103143231Y-111244087D01*
X103052290Y-111388817D01*
X102995837Y-111550151D01*
X102976701Y-111720000D01*
X102995837Y-111889848D01*
X103052290Y-112051182D01*
X103052291Y-112051183D01*
X103098695Y-112125034D01*
X103118001Y-112193354D01*
X103097306Y-112261267D01*
X103043180Y-112307211D01*
X103006116Y-112317278D01*
X102930151Y-112325837D01*
X102768817Y-112382290D01*
X102624087Y-112473231D01*
X102503231Y-112594087D01*
X102412290Y-112738817D01*
X102355837Y-112900151D01*
X102336701Y-113070000D01*
X101041046Y-113070000D01*
X101043299Y-113050000D01*
X101024162Y-112880150D01*
X100967709Y-112718817D01*
X100876771Y-112574091D01*
X100876769Y-112574089D01*
X100876768Y-112574087D01*
X100755912Y-112453231D01*
X100611183Y-112362291D01*
X100502929Y-112324411D01*
X100445238Y-112283032D01*
X100419075Y-112217032D01*
X100432749Y-112147365D01*
X100481917Y-112096149D01*
X100503601Y-112087730D01*
X100503171Y-112086499D01*
X100562931Y-112065588D01*
X100671183Y-112027709D01*
X100815909Y-111936771D01*
X100936771Y-111815909D01*
X101027709Y-111671183D01*
X101084162Y-111509850D01*
X101103299Y-111340000D01*
X101084162Y-111170150D01*
X101027709Y-111008817D01*
X100936771Y-110864091D01*
X100936769Y-110864089D01*
X100936768Y-110864087D01*
X100815912Y-110743231D01*
X100671182Y-110652290D01*
X100571270Y-110617330D01*
X100509850Y-110595838D01*
X100509848Y-110595837D01*
X100509850Y-110595837D01*
X100340000Y-110576701D01*
X100170151Y-110595837D01*
X100008817Y-110652290D01*
X99864087Y-110743231D01*
X99743231Y-110864087D01*
X99652290Y-111008817D01*
X99595837Y-111170151D01*
X99576701Y-111340000D01*
X99595837Y-111509848D01*
X99652290Y-111671182D01*
X99743231Y-111815912D01*
X99864087Y-111936768D01*
X99864089Y-111936769D01*
X99864091Y-111936771D01*
X100007213Y-112026701D01*
X100008817Y-112027709D01*
X100117069Y-112065588D01*
X100174761Y-112106966D01*
X100200923Y-112172966D01*
X100187250Y-112242634D01*
X100138083Y-112293850D01*
X100116416Y-112302321D01*
X100116829Y-112303501D01*
X99948817Y-112362290D01*
X99804087Y-112453231D01*
X99683231Y-112574087D01*
X99592290Y-112718817D01*
X99535837Y-112880151D01*
X99516701Y-113050000D01*
X82973393Y-113050000D01*
X82988927Y-108030000D01*
X99546701Y-108030000D01*
X99565837Y-108199848D01*
X99622290Y-108361182D01*
X99713231Y-108505912D01*
X99834087Y-108626768D01*
X99834089Y-108626769D01*
X99834091Y-108626771D01*
X99978817Y-108717709D01*
X100140150Y-108774162D01*
X100140149Y-108774162D01*
X100157348Y-108776099D01*
X100310000Y-108793299D01*
X100479850Y-108774162D01*
X100641183Y-108717709D01*
X100785909Y-108626771D01*
X100906771Y-108505909D01*
X100997709Y-108361183D01*
X101054162Y-108199850D01*
X101073299Y-108030000D01*
X101054162Y-107860150D01*
X100997709Y-107698817D01*
X100906771Y-107554091D01*
X100906769Y-107554089D01*
X100906768Y-107554087D01*
X100785912Y-107433231D01*
X100641182Y-107342290D01*
X100532014Y-107304091D01*
X100479850Y-107285838D01*
X100479848Y-107285837D01*
X100479850Y-107285837D01*
X100310000Y-107266701D01*
X100140151Y-107285837D01*
X99978817Y-107342290D01*
X99834087Y-107433231D01*
X99713231Y-107554087D01*
X99622290Y-107698817D01*
X99565837Y-107860151D01*
X99546701Y-108030000D01*
X82988927Y-108030000D01*
X83009443Y-101400000D01*
X105266701Y-101400000D01*
X105285837Y-101569848D01*
X105342290Y-101731182D01*
X105387457Y-101803064D01*
X105430800Y-101872044D01*
X105433231Y-101875912D01*
X105554087Y-101996768D01*
X105554089Y-101996769D01*
X105554091Y-101996771D01*
X105698817Y-102087709D01*
X105860150Y-102144162D01*
X105860149Y-102144162D01*
X105877348Y-102146099D01*
X106030000Y-102163299D01*
X106199850Y-102144162D01*
X106361183Y-102087709D01*
X106505909Y-101996771D01*
X106626771Y-101875909D01*
X106717709Y-101731183D01*
X106774162Y-101569850D01*
X106787665Y-101450000D01*
X107506701Y-101450000D01*
X107525837Y-101619848D01*
X107582290Y-101781182D01*
X107629245Y-101855909D01*
X107657381Y-101900688D01*
X107673231Y-101925912D01*
X107794087Y-102046768D01*
X107794089Y-102046769D01*
X107794091Y-102046771D01*
X107938817Y-102137709D01*
X108100150Y-102194162D01*
X108100149Y-102194162D01*
X108117348Y-102196099D01*
X108270000Y-102213299D01*
X108439850Y-102194162D01*
X108601183Y-102137709D01*
X108745909Y-102046771D01*
X108866771Y-101925909D01*
X108957709Y-101781183D01*
X109014162Y-101619850D01*
X109033299Y-101450000D01*
X109025412Y-101380000D01*
X109906701Y-101380000D01*
X109925837Y-101549848D01*
X109982290Y-101711182D01*
X110073231Y-101855912D01*
X110194087Y-101976768D01*
X110194089Y-101976769D01*
X110194091Y-101976771D01*
X110338817Y-102067709D01*
X110500150Y-102124162D01*
X110500149Y-102124162D01*
X110517348Y-102126099D01*
X110670000Y-102143299D01*
X110839850Y-102124162D01*
X111001183Y-102067709D01*
X111145909Y-101976771D01*
X111266771Y-101855909D01*
X111357709Y-101711183D01*
X111414162Y-101549850D01*
X111427665Y-101430000D01*
X112976701Y-101430000D01*
X112995837Y-101599848D01*
X113052290Y-101761182D01*
X113064857Y-101781182D01*
X113140259Y-101901183D01*
X113143231Y-101905912D01*
X113264087Y-102026768D01*
X113264089Y-102026769D01*
X113264091Y-102026771D01*
X113408817Y-102117709D01*
X113570150Y-102174162D01*
X113570149Y-102174162D01*
X113587348Y-102176099D01*
X113740000Y-102193299D01*
X113909850Y-102174162D01*
X114071183Y-102117709D01*
X114215909Y-102026771D01*
X114336771Y-101905909D01*
X114427709Y-101761183D01*
X114484162Y-101599850D01*
X114503299Y-101430000D01*
X114484162Y-101260150D01*
X114427709Y-101098817D01*
X114336771Y-100954091D01*
X114336769Y-100954089D01*
X114336768Y-100954087D01*
X114215912Y-100833231D01*
X114071182Y-100742290D01*
X113971270Y-100707330D01*
X113909850Y-100685838D01*
X113909848Y-100685837D01*
X113909850Y-100685837D01*
X113740000Y-100666701D01*
X113570151Y-100685837D01*
X113408817Y-100742290D01*
X113264087Y-100833231D01*
X113143231Y-100954087D01*
X113052290Y-101098817D01*
X112995837Y-101260151D01*
X112976701Y-101430000D01*
X111427665Y-101430000D01*
X111433299Y-101380000D01*
X111414162Y-101210150D01*
X111357709Y-101048817D01*
X111266771Y-100904091D01*
X111266769Y-100904089D01*
X111266768Y-100904087D01*
X111145912Y-100783231D01*
X111001182Y-100692290D01*
X110901270Y-100657330D01*
X110839850Y-100635838D01*
X110839848Y-100635837D01*
X110839850Y-100635837D01*
X110670000Y-100616701D01*
X110500151Y-100635837D01*
X110338817Y-100692290D01*
X110194087Y-100783231D01*
X110073231Y-100904087D01*
X109982290Y-101048817D01*
X109925837Y-101210151D01*
X109906701Y-101380000D01*
X109025412Y-101380000D01*
X109014162Y-101280150D01*
X108957709Y-101118817D01*
X108866771Y-100974091D01*
X108866769Y-100974089D01*
X108866768Y-100974087D01*
X108745912Y-100853231D01*
X108601182Y-100762290D01*
X108501270Y-100727330D01*
X108439850Y-100705838D01*
X108439848Y-100705837D01*
X108439850Y-100705837D01*
X108270000Y-100686701D01*
X108100151Y-100705837D01*
X107938817Y-100762290D01*
X107794087Y-100853231D01*
X107673231Y-100974087D01*
X107582290Y-101118817D01*
X107525837Y-101280151D01*
X107506701Y-101450000D01*
X106787665Y-101450000D01*
X106793299Y-101400000D01*
X106774162Y-101230150D01*
X106717709Y-101068817D01*
X106626771Y-100924091D01*
X106626769Y-100924089D01*
X106626768Y-100924087D01*
X106505912Y-100803231D01*
X106361182Y-100712290D01*
X106261270Y-100677330D01*
X106199850Y-100655838D01*
X106199848Y-100655837D01*
X106199850Y-100655837D01*
X106030000Y-100636701D01*
X105860151Y-100655837D01*
X105698817Y-100712290D01*
X105554087Y-100803231D01*
X105433231Y-100924087D01*
X105342290Y-101068817D01*
X105285837Y-101230151D01*
X105266701Y-101400000D01*
X83009443Y-101400000D01*
X83032558Y-93930000D01*
X109824532Y-93930000D01*
X109844365Y-94156695D01*
X109903260Y-94376493D01*
X109903262Y-94376498D01*
X109999433Y-94582737D01*
X110129948Y-94769134D01*
X110129957Y-94769144D01*
X110290855Y-94930042D01*
X110290865Y-94930051D01*
X110477262Y-95060566D01*
X110477261Y-95060566D01*
X110490418Y-95066701D01*
X110683504Y-95156739D01*
X110903308Y-95215635D01*
X111073216Y-95230500D01*
X111073223Y-95230500D01*
X111186777Y-95230500D01*
X111186784Y-95230500D01*
X111356692Y-95215635D01*
X111576496Y-95156739D01*
X111782734Y-95060568D01*
X111856190Y-95009134D01*
X111969134Y-94930051D01*
X111969136Y-94930048D01*
X111969139Y-94930047D01*
X112130047Y-94769139D01*
X112236927Y-94616498D01*
X112260566Y-94582737D01*
X112260566Y-94582736D01*
X112260568Y-94582734D01*
X112356739Y-94376496D01*
X112415635Y-94156692D01*
X112435468Y-93930000D01*
X112415635Y-93703308D01*
X112356739Y-93483504D01*
X112260568Y-93277266D01*
X112260567Y-93277265D01*
X112260566Y-93277262D01*
X112130051Y-93090865D01*
X112130042Y-93090855D01*
X111969144Y-92929957D01*
X111969134Y-92929948D01*
X111782737Y-92799433D01*
X111782738Y-92799433D01*
X111591398Y-92710210D01*
X111576496Y-92703261D01*
X111576494Y-92703260D01*
X111576493Y-92703260D01*
X111356695Y-92644365D01*
X111305719Y-92639905D01*
X111186784Y-92629500D01*
X111073216Y-92629500D01*
X110965092Y-92638959D01*
X110903304Y-92644365D01*
X110683506Y-92703260D01*
X110683501Y-92703262D01*
X110477262Y-92799433D01*
X110290865Y-92929948D01*
X110290855Y-92929957D01*
X110129957Y-93090855D01*
X110129948Y-93090865D01*
X109999433Y-93277262D01*
X109903262Y-93483501D01*
X109903260Y-93483506D01*
X109844365Y-93703304D01*
X109824532Y-93930000D01*
X83032558Y-93930000D01*
X83056920Y-86056878D01*
X90122765Y-86056878D01*
X90126941Y-86101054D01*
X90127500Y-86112912D01*
X90127500Y-87114933D01*
X90125748Y-87130803D01*
X90126038Y-87130831D01*
X90125292Y-87138722D01*
X90127438Y-87207013D01*
X90127500Y-87210971D01*
X90127500Y-87238989D01*
X90128011Y-87243040D01*
X90128940Y-87254849D01*
X90130334Y-87299204D01*
X90130335Y-87299209D01*
X90136014Y-87318758D01*
X90140021Y-87338109D01*
X90142572Y-87358297D01*
X90142572Y-87358298D01*
X90158906Y-87399555D01*
X90162749Y-87410781D01*
X90175129Y-87453392D01*
X90175131Y-87453397D01*
X90185492Y-87470916D01*
X90194189Y-87488668D01*
X90201681Y-87507590D01*
X90227765Y-87543492D01*
X90234281Y-87553412D01*
X90256865Y-87591599D01*
X90256868Y-87591603D01*
X90271250Y-87605985D01*
X90284090Y-87621018D01*
X90296054Y-87637485D01*
X90296057Y-87637488D01*
X90330255Y-87665779D01*
X90339035Y-87673769D01*
X91655180Y-88989914D01*
X91665167Y-89002379D01*
X91665391Y-89002194D01*
X91670444Y-89008302D01*
X91720278Y-89055099D01*
X91723122Y-89057856D01*
X91742898Y-89077633D01*
X91742906Y-89077640D01*
X91746117Y-89080131D01*
X91755137Y-89087834D01*
X91787492Y-89118217D01*
X91805333Y-89128025D01*
X91821852Y-89138877D01*
X91837930Y-89151349D01*
X91878648Y-89168969D01*
X91889307Y-89174191D01*
X91928191Y-89195567D01*
X91928192Y-89195567D01*
X91928195Y-89195569D01*
X91947916Y-89200632D01*
X91966618Y-89207037D01*
X91985287Y-89215116D01*
X91985288Y-89215116D01*
X91985290Y-89215117D01*
X92029112Y-89222057D01*
X92040740Y-89224465D01*
X92083716Y-89235500D01*
X92104064Y-89235500D01*
X92123773Y-89237050D01*
X92143877Y-89240235D01*
X92188054Y-89236058D01*
X92199911Y-89235500D01*
X115747364Y-89235500D01*
X115815485Y-89255502D01*
X115836459Y-89272405D01*
X117540203Y-90976150D01*
X117574229Y-91038462D01*
X117576571Y-91076870D01*
X117563837Y-91214299D01*
X117582792Y-91418862D01*
X117639009Y-91616444D01*
X117639015Y-91616460D01*
X117730579Y-91800345D01*
X117730583Y-91800350D01*
X117854383Y-91964290D01*
X118006202Y-92102691D01*
X118069425Y-92141837D01*
X118180868Y-92210840D01*
X118372431Y-92285051D01*
X118574368Y-92322800D01*
X118574371Y-92322800D01*
X118779801Y-92322800D01*
X118779804Y-92322800D01*
X118981741Y-92285051D01*
X119173304Y-92210840D01*
X119347968Y-92102692D01*
X119499787Y-91964291D01*
X119623589Y-91800350D01*
X119623590Y-91800346D01*
X119623592Y-91800345D01*
X119715156Y-91616460D01*
X119715155Y-91616460D01*
X119715160Y-91616452D01*
X119771380Y-91418859D01*
X119790335Y-91214300D01*
X119771380Y-91009741D01*
X119765620Y-90989498D01*
X119715162Y-90812155D01*
X119715161Y-90812154D01*
X119715160Y-90812148D01*
X119715156Y-90812139D01*
X119623592Y-90628254D01*
X119623588Y-90628249D01*
X119603807Y-90602055D01*
X119566789Y-90553034D01*
X119499788Y-90464309D01*
X119347969Y-90325908D01*
X119173309Y-90217763D01*
X119173308Y-90217762D01*
X119173304Y-90217760D01*
X119055953Y-90172298D01*
X118981742Y-90143549D01*
X118931256Y-90134111D01*
X118779804Y-90105800D01*
X118574368Y-90105800D01*
X118569346Y-90106738D01*
X118549456Y-90110456D01*
X118478820Y-90103308D01*
X118437214Y-90075695D01*
X116571601Y-88210082D01*
X116561617Y-88197620D01*
X116561393Y-88197806D01*
X116556340Y-88191698D01*
X116506520Y-88144914D01*
X116503676Y-88142157D01*
X116483885Y-88122365D01*
X116483882Y-88122363D01*
X116483880Y-88122361D01*
X116480661Y-88119864D01*
X116471637Y-88112157D01*
X116439292Y-88081783D01*
X116439285Y-88081778D01*
X116421459Y-88071978D01*
X116404933Y-88061123D01*
X116388852Y-88048649D01*
X116348123Y-88031024D01*
X116337464Y-88025802D01*
X116298591Y-88004432D01*
X116298589Y-88004431D01*
X116278871Y-87999368D01*
X116260168Y-87992964D01*
X116241492Y-87984882D01*
X116197660Y-87977940D01*
X116186035Y-87975532D01*
X116143073Y-87964501D01*
X116143070Y-87964500D01*
X116143068Y-87964500D01*
X116143065Y-87964500D01*
X116122720Y-87964500D01*
X116103010Y-87962949D01*
X116082907Y-87959765D01*
X116082906Y-87959765D01*
X116053915Y-87962505D01*
X116038729Y-87963941D01*
X116026873Y-87964500D01*
X92479421Y-87964500D01*
X92411300Y-87944498D01*
X92390326Y-87927595D01*
X91435405Y-86972674D01*
X91401379Y-86910362D01*
X91398500Y-86883579D01*
X91398500Y-86392422D01*
X91418502Y-86324301D01*
X91435399Y-86303332D01*
X92236013Y-85502718D01*
X92283486Y-85472889D01*
X92441183Y-85417709D01*
X92585909Y-85326771D01*
X92706771Y-85205909D01*
X92797709Y-85061183D01*
X92854162Y-84899850D01*
X92873299Y-84730000D01*
X92854162Y-84560150D01*
X92797709Y-84398817D01*
X92706771Y-84254091D01*
X92706769Y-84254089D01*
X92706768Y-84254087D01*
X92585912Y-84133231D01*
X92441182Y-84042290D01*
X92304470Y-83994453D01*
X92279850Y-83985838D01*
X92279848Y-83985837D01*
X92279850Y-83985837D01*
X92110000Y-83966701D01*
X91940151Y-83985837D01*
X91778817Y-84042290D01*
X91634087Y-84133231D01*
X91513231Y-84254087D01*
X91422291Y-84398816D01*
X91367111Y-84556509D01*
X91337277Y-84603988D01*
X90373077Y-85568188D01*
X90360616Y-85578173D01*
X90360801Y-85578397D01*
X90354700Y-85583443D01*
X90307927Y-85633251D01*
X90305179Y-85636086D01*
X90285359Y-85655907D01*
X90285356Y-85655911D01*
X90282848Y-85659144D01*
X90275158Y-85668145D01*
X90244785Y-85700490D01*
X90244784Y-85700492D01*
X90234976Y-85718332D01*
X90224124Y-85734850D01*
X90211654Y-85750925D01*
X90211651Y-85750931D01*
X90194022Y-85791665D01*
X90188804Y-85802315D01*
X90167433Y-85841191D01*
X90167430Y-85841199D01*
X90162370Y-85860907D01*
X90155968Y-85879607D01*
X90147882Y-85898293D01*
X90147881Y-85898297D01*
X90140940Y-85942119D01*
X90138534Y-85953740D01*
X90127500Y-85996717D01*
X90127500Y-86017065D01*
X90125949Y-86036775D01*
X90122765Y-86056878D01*
X83056920Y-86056878D01*
X83064462Y-83619700D01*
X131914837Y-83619700D01*
X131933792Y-83824262D01*
X131990009Y-84021844D01*
X131990015Y-84021860D01*
X132081579Y-84205745D01*
X132081583Y-84205750D01*
X132205383Y-84369690D01*
X132357202Y-84508091D01*
X132357204Y-84508092D01*
X132531868Y-84616240D01*
X132723431Y-84690451D01*
X132925368Y-84728200D01*
X132925371Y-84728200D01*
X133130801Y-84728200D01*
X133130804Y-84728200D01*
X133332741Y-84690451D01*
X133524304Y-84616240D01*
X133698968Y-84508092D01*
X133850787Y-84369691D01*
X133974589Y-84205750D01*
X133974590Y-84205746D01*
X133974592Y-84205745D01*
X134066156Y-84021860D01*
X134066155Y-84021860D01*
X134066160Y-84021852D01*
X134122380Y-83824259D01*
X134141335Y-83619700D01*
X134122380Y-83415141D01*
X134066160Y-83217548D01*
X134066156Y-83217539D01*
X133974592Y-83033654D01*
X133974588Y-83033649D01*
X133850788Y-82869709D01*
X133698969Y-82731308D01*
X133524309Y-82623163D01*
X133524308Y-82623162D01*
X133524304Y-82623160D01*
X133406953Y-82577698D01*
X133332742Y-82548949D01*
X133282256Y-82539511D01*
X133130804Y-82511200D01*
X132925368Y-82511200D01*
X132804205Y-82533849D01*
X132723429Y-82548949D01*
X132575007Y-82606448D01*
X132531868Y-82623160D01*
X132531867Y-82623160D01*
X132531866Y-82623161D01*
X132531862Y-82623163D01*
X132357202Y-82731308D01*
X132205383Y-82869709D01*
X132081583Y-83033649D01*
X132081579Y-83033654D01*
X131990015Y-83217539D01*
X131990009Y-83217555D01*
X131933792Y-83415137D01*
X131914837Y-83619700D01*
X83064462Y-83619700D01*
X83076794Y-79634314D01*
X135289880Y-79634314D01*
X135376893Y-79688190D01*
X135376900Y-79688193D01*
X135568360Y-79762366D01*
X135568363Y-79762367D01*
X135770217Y-79800100D01*
X135975555Y-79800100D01*
X136177408Y-79762367D01*
X136177411Y-79762366D01*
X136368874Y-79688192D01*
X136368883Y-79688187D01*
X136455891Y-79634314D01*
X135872887Y-79051310D01*
X135872886Y-79051310D01*
X135289880Y-79634314D01*
X83076794Y-79634314D01*
X83079710Y-78692104D01*
X134760139Y-78692104D01*
X134779085Y-78896561D01*
X134779085Y-78896565D01*
X134835277Y-79094062D01*
X134835280Y-79094070D01*
X134926808Y-79277885D01*
X134926811Y-79277889D01*
X134927273Y-79278500D01*
X134927274Y-79278500D01*
X135513676Y-78692099D01*
X135485517Y-78663940D01*
X135568991Y-78663940D01*
X135579340Y-78775621D01*
X135629334Y-78876022D01*
X135712220Y-78951584D01*
X135816806Y-78992100D01*
X135900688Y-78992100D01*
X135983136Y-78976688D01*
X136078496Y-78917643D01*
X136146087Y-78828138D01*
X136176781Y-78720260D01*
X136174172Y-78692101D01*
X136232096Y-78692101D01*
X136818495Y-79278500D01*
X136818498Y-79278500D01*
X136818960Y-79277890D01*
X136910491Y-79094070D01*
X136910494Y-79094062D01*
X136966686Y-78896565D01*
X136966686Y-78896561D01*
X136985633Y-78692104D01*
X136985633Y-78692095D01*
X136966686Y-78487638D01*
X136966686Y-78487634D01*
X136910494Y-78290137D01*
X136910491Y-78290129D01*
X136818960Y-78106310D01*
X136818497Y-78105698D01*
X136232096Y-78692099D01*
X136232096Y-78692101D01*
X136174172Y-78692101D01*
X136166432Y-78608579D01*
X136116438Y-78508178D01*
X136033552Y-78432616D01*
X135928966Y-78392100D01*
X135845084Y-78392100D01*
X135762636Y-78407512D01*
X135667276Y-78466557D01*
X135599685Y-78556062D01*
X135568991Y-78663940D01*
X135485517Y-78663940D01*
X134927275Y-78105698D01*
X134927273Y-78105698D01*
X134926809Y-78106313D01*
X134835280Y-78290129D01*
X134835277Y-78290137D01*
X134779085Y-78487634D01*
X134779085Y-78487638D01*
X134760139Y-78692095D01*
X134760139Y-78692104D01*
X83079710Y-78692104D01*
X83086312Y-76558500D01*
X116217637Y-76558500D01*
X116236592Y-76763062D01*
X116292809Y-76960644D01*
X116292815Y-76960660D01*
X116384379Y-77144545D01*
X116384383Y-77144550D01*
X116508183Y-77308490D01*
X116660002Y-77446891D01*
X116660004Y-77446892D01*
X116834668Y-77555040D01*
X117026231Y-77629251D01*
X117228168Y-77667000D01*
X117228171Y-77667000D01*
X117433601Y-77667000D01*
X117433604Y-77667000D01*
X117635541Y-77629251D01*
X117827104Y-77555040D01*
X118001768Y-77446892D01*
X118153587Y-77308491D01*
X118277389Y-77144550D01*
X118277390Y-77144546D01*
X118277392Y-77144545D01*
X118368956Y-76960660D01*
X118368955Y-76960660D01*
X118368960Y-76960652D01*
X118411113Y-76812500D01*
X120637237Y-76812500D01*
X120656192Y-77017062D01*
X120712409Y-77214644D01*
X120712415Y-77214660D01*
X120803979Y-77398545D01*
X120803983Y-77398550D01*
X120927783Y-77562490D01*
X121079602Y-77700891D01*
X121079604Y-77700892D01*
X121254268Y-77809040D01*
X121445831Y-77883251D01*
X121647768Y-77921000D01*
X121647771Y-77921000D01*
X121853201Y-77921000D01*
X121853204Y-77921000D01*
X122055141Y-77883251D01*
X122246704Y-77809040D01*
X122342244Y-77749884D01*
X135289879Y-77749884D01*
X135872885Y-78332890D01*
X135872886Y-78332890D01*
X136455891Y-77749883D01*
X136368885Y-77696013D01*
X136368873Y-77696007D01*
X136177411Y-77621833D01*
X136177408Y-77621832D01*
X135975555Y-77584100D01*
X135770217Y-77584100D01*
X135568363Y-77621832D01*
X135568360Y-77621833D01*
X135376890Y-77696010D01*
X135376886Y-77696012D01*
X135289879Y-77749883D01*
X135289879Y-77749884D01*
X122342244Y-77749884D01*
X122421368Y-77700892D01*
X122573187Y-77562491D01*
X122696989Y-77398550D01*
X122696990Y-77398546D01*
X122696992Y-77398545D01*
X122788556Y-77214660D01*
X122788555Y-77214660D01*
X122788560Y-77214652D01*
X122844780Y-77017059D01*
X122863735Y-76812500D01*
X122844780Y-76607941D01*
X122788560Y-76410348D01*
X122788556Y-76410339D01*
X122696992Y-76226454D01*
X122696988Y-76226449D01*
X122573188Y-76062509D01*
X122421369Y-75924108D01*
X122246709Y-75815963D01*
X122246708Y-75815962D01*
X122246704Y-75815960D01*
X122129353Y-75770498D01*
X122055142Y-75741749D01*
X122004656Y-75732311D01*
X121853204Y-75704000D01*
X121647768Y-75704000D01*
X121526605Y-75726649D01*
X121445829Y-75741749D01*
X121297407Y-75799248D01*
X121254268Y-75815960D01*
X121254267Y-75815960D01*
X121254266Y-75815961D01*
X121254262Y-75815963D01*
X121079602Y-75924108D01*
X120927783Y-76062509D01*
X120803983Y-76226449D01*
X120803979Y-76226454D01*
X120712415Y-76410339D01*
X120712409Y-76410355D01*
X120656192Y-76607937D01*
X120637237Y-76812500D01*
X118411113Y-76812500D01*
X118425180Y-76763059D01*
X118444135Y-76558500D01*
X118425180Y-76353941D01*
X118368960Y-76156348D01*
X118368956Y-76156339D01*
X118277392Y-75972454D01*
X118277388Y-75972449D01*
X118153588Y-75808509D01*
X118001769Y-75670108D01*
X117827109Y-75561963D01*
X117827108Y-75561962D01*
X117827104Y-75561960D01*
X117709753Y-75516498D01*
X117635542Y-75487749D01*
X117585056Y-75478311D01*
X117433604Y-75450000D01*
X117228168Y-75450000D01*
X117107005Y-75472649D01*
X117026229Y-75487749D01*
X116877807Y-75545248D01*
X116834668Y-75561960D01*
X116834667Y-75561960D01*
X116834666Y-75561961D01*
X116834662Y-75561963D01*
X116660002Y-75670108D01*
X116508183Y-75808509D01*
X116384383Y-75972449D01*
X116384379Y-75972454D01*
X116292815Y-76156339D01*
X116292809Y-76156355D01*
X116236592Y-76353937D01*
X116217637Y-76558500D01*
X83086312Y-76558500D01*
X83092049Y-74704300D01*
X129425637Y-74704300D01*
X129444592Y-74908862D01*
X129500809Y-75106444D01*
X129500815Y-75106460D01*
X129592379Y-75290345D01*
X129592383Y-75290350D01*
X129716183Y-75454290D01*
X129868002Y-75592691D01*
X129868004Y-75592692D01*
X130042668Y-75700840D01*
X130234231Y-75775051D01*
X130436168Y-75812800D01*
X130436171Y-75812800D01*
X130641601Y-75812800D01*
X130641604Y-75812800D01*
X130843541Y-75775051D01*
X131035104Y-75700840D01*
X131209768Y-75592692D01*
X131361587Y-75454291D01*
X131364828Y-75450000D01*
X131385937Y-75422045D01*
X131485389Y-75290350D01*
X131485390Y-75290346D01*
X131485392Y-75290345D01*
X131576956Y-75106460D01*
X131576955Y-75106460D01*
X131576960Y-75106452D01*
X131633180Y-74908859D01*
X131652135Y-74704300D01*
X131633180Y-74499741D01*
X131576960Y-74302148D01*
X131576956Y-74302139D01*
X131485392Y-74118254D01*
X131485388Y-74118249D01*
X131361588Y-73954309D01*
X131209769Y-73815908D01*
X131035109Y-73707763D01*
X131035108Y-73707762D01*
X131035104Y-73707760D01*
X130917753Y-73662298D01*
X130843542Y-73633549D01*
X130793056Y-73624111D01*
X130641604Y-73595800D01*
X130436168Y-73595800D01*
X130315005Y-73618449D01*
X130234229Y-73633549D01*
X130085807Y-73691048D01*
X130042668Y-73707760D01*
X130042667Y-73707760D01*
X130042666Y-73707761D01*
X130042662Y-73707763D01*
X129868002Y-73815908D01*
X129716183Y-73954309D01*
X129592383Y-74118249D01*
X129592379Y-74118254D01*
X129500815Y-74302139D01*
X129500809Y-74302155D01*
X129444592Y-74499737D01*
X129425637Y-74704300D01*
X83092049Y-74704300D01*
X83098760Y-72535624D01*
X83118971Y-72467572D01*
X83172771Y-72421245D01*
X83243076Y-72411359D01*
X83297028Y-72432807D01*
X83472062Y-72555366D01*
X83472061Y-72555366D01*
X83545380Y-72589555D01*
X83678304Y-72651539D01*
X83898108Y-72710435D01*
X84068016Y-72725300D01*
X84068023Y-72725300D01*
X84181577Y-72725300D01*
X84181584Y-72725300D01*
X84351492Y-72710435D01*
X84571296Y-72651539D01*
X84777534Y-72555368D01*
X84902921Y-72467572D01*
X84963934Y-72424851D01*
X84963936Y-72424848D01*
X84963939Y-72424847D01*
X85124847Y-72263939D01*
X85164953Y-72206662D01*
X85255366Y-72077537D01*
X85255366Y-72077536D01*
X85255368Y-72077534D01*
X85351539Y-71871296D01*
X85410435Y-71651492D01*
X85430268Y-71424800D01*
X85410435Y-71198108D01*
X85351539Y-70978304D01*
X85255368Y-70772066D01*
X85255367Y-70772065D01*
X85255366Y-70772062D01*
X85124851Y-70585665D01*
X85124842Y-70585655D01*
X84963944Y-70424757D01*
X84963934Y-70424748D01*
X84777537Y-70294233D01*
X84777538Y-70294233D01*
X84571298Y-70198062D01*
X84571293Y-70198060D01*
X84351495Y-70139165D01*
X84300519Y-70134705D01*
X84181584Y-70124300D01*
X84068016Y-70124300D01*
X83959892Y-70133759D01*
X83898104Y-70139165D01*
X83678306Y-70198060D01*
X83678301Y-70198062D01*
X83472066Y-70294231D01*
X83303920Y-70411967D01*
X83236646Y-70434654D01*
X83167785Y-70417368D01*
X83119202Y-70365598D01*
X83105652Y-70308369D01*
X83108411Y-69416808D01*
X83128623Y-69348751D01*
X83182423Y-69302425D01*
X83234410Y-69291200D01*
X111485423Y-69291200D01*
X111553544Y-69311202D01*
G37*
%TD.AperFunction*%
%TD*%
M02*
