%TF.GenerationSoftware,KiCad,Pcbnew,7.0.10-7.0.10~ubuntu22.04.1*%
%TF.CreationDate,2024-03-30T17:15:14+01:00*%
%TF.ProjectId,test_fixture,74657374-5f66-4697-9874-7572652e6b69,rev?*%
%TF.SameCoordinates,Original*%
%TF.FileFunction,Soldermask,Top*%
%TF.FilePolarity,Negative*%
%FSLAX46Y46*%
G04 Gerber Fmt 4.6, Leading zero omitted, Abs format (unit mm)*
G04 Created by KiCad (PCBNEW 7.0.10-7.0.10~ubuntu22.04.1) date 2024-03-30 17:15:14*
%MOMM*%
%LPD*%
G01*
G04 APERTURE LIST*
G04 Aperture macros list*
%AMRoundRect*
0 Rectangle with rounded corners*
0 $1 Rounding radius*
0 $2 $3 $4 $5 $6 $7 $8 $9 X,Y pos of 4 corners*
0 Add a 4 corners polygon primitive as box body*
4,1,4,$2,$3,$4,$5,$6,$7,$8,$9,$2,$3,0*
0 Add four circle primitives for the rounded corners*
1,1,$1+$1,$2,$3*
1,1,$1+$1,$4,$5*
1,1,$1+$1,$6,$7*
1,1,$1+$1,$8,$9*
0 Add four rect primitives between the rounded corners*
20,1,$1+$1,$2,$3,$4,$5,0*
20,1,$1+$1,$4,$5,$6,$7,0*
20,1,$1+$1,$6,$7,$8,$9,0*
20,1,$1+$1,$8,$9,$2,$3,0*%
G04 Aperture macros list end*
%ADD10C,0.300000*%
%ADD11C,0.010000*%
%ADD12RoundRect,0.450000X0.300000X-0.300000X0.300000X0.300000X-0.300000X0.300000X-0.300000X-0.300000X0*%
%ADD13O,1.800000X1.100000*%
%ADD14O,1.450000X1.050000*%
%ADD15C,1.200000*%
%ADD16C,1.500000*%
%ADD17RoundRect,0.200000X-0.200000X-0.275000X0.200000X-0.275000X0.200000X0.275000X-0.200000X0.275000X0*%
%ADD18RoundRect,0.140000X0.170000X-0.140000X0.170000X0.140000X-0.170000X0.140000X-0.170000X-0.140000X0*%
%ADD19C,2.100000*%
%ADD20RoundRect,0.004240X-0.552760X-0.207760X0.552760X-0.207760X0.552760X0.207760X-0.552760X0.207760X0*%
%ADD21RoundRect,0.004240X-0.502760X-0.207760X0.502760X-0.207760X0.502760X0.207760X-0.502760X0.207760X0*%
%ADD22RoundRect,0.004240X0.207760X-0.502760X0.207760X0.502760X-0.207760X0.502760X-0.207760X-0.502760X0*%
%ADD23RoundRect,0.004240X0.502760X0.207760X-0.502760X0.207760X-0.502760X-0.207760X0.502760X-0.207760X0*%
%ADD24RoundRect,0.004240X-0.207760X0.502760X-0.207760X-0.502760X0.207760X-0.502760X0.207760X0.502760X0*%
%ADD25RoundRect,0.200000X0.200000X0.275000X-0.200000X0.275000X-0.200000X-0.275000X0.200000X-0.275000X0*%
%ADD26R,0.280000X0.850000*%
%ADD27R,0.850000X0.280000*%
%ADD28R,2.050000X2.050000*%
%ADD29R,2.400000X0.740000*%
%ADD30RoundRect,0.200000X0.275000X-0.200000X0.275000X0.200000X-0.275000X0.200000X-0.275000X-0.200000X0*%
%ADD31RoundRect,0.200000X-0.275000X0.200000X-0.275000X-0.200000X0.275000X-0.200000X0.275000X0.200000X0*%
%ADD32RoundRect,0.250000X2.050000X0.300000X-2.050000X0.300000X-2.050000X-0.300000X2.050000X-0.300000X0*%
%ADD33RoundRect,0.250002X4.449998X5.149998X-4.449998X5.149998X-4.449998X-5.149998X4.449998X-5.149998X0*%
%ADD34RoundRect,0.102000X-0.775000X-0.300000X0.775000X-0.300000X0.775000X0.300000X-0.775000X0.300000X0*%
%ADD35RoundRect,0.102000X0.900000X-0.600000X0.900000X0.600000X-0.900000X0.600000X-0.900000X-0.600000X0*%
%ADD36RoundRect,0.150000X-0.587500X-0.150000X0.587500X-0.150000X0.587500X0.150000X-0.587500X0.150000X0*%
%ADD37RoundRect,0.250000X0.250000X-1.000000X0.250000X1.000000X-0.250000X1.000000X-0.250000X-1.000000X0*%
%ADD38RoundRect,0.250000X0.325000X0.650000X-0.325000X0.650000X-0.325000X-0.650000X0.325000X-0.650000X0*%
%ADD39RoundRect,0.250000X-0.312500X-0.625000X0.312500X-0.625000X0.312500X0.625000X-0.312500X0.625000X0*%
G04 APERTURE END LIST*
D10*
X85427142Y-75599638D02*
X85427142Y-73599638D01*
X85427142Y-73599638D02*
X85784285Y-73599638D01*
X85784285Y-73599638D02*
X85998571Y-73694876D01*
X85998571Y-73694876D02*
X86141428Y-73885352D01*
X86141428Y-73885352D02*
X86212857Y-74075828D01*
X86212857Y-74075828D02*
X86284285Y-74456780D01*
X86284285Y-74456780D02*
X86284285Y-74742495D01*
X86284285Y-74742495D02*
X86212857Y-75123447D01*
X86212857Y-75123447D02*
X86141428Y-75313923D01*
X86141428Y-75313923D02*
X85998571Y-75504400D01*
X85998571Y-75504400D02*
X85784285Y-75599638D01*
X85784285Y-75599638D02*
X85427142Y-75599638D01*
X86927142Y-75599638D02*
X86927142Y-74266304D01*
X86927142Y-73599638D02*
X86855714Y-73694876D01*
X86855714Y-73694876D02*
X86927142Y-73790114D01*
X86927142Y-73790114D02*
X86998571Y-73694876D01*
X86998571Y-73694876D02*
X86927142Y-73599638D01*
X86927142Y-73599638D02*
X86927142Y-73790114D01*
X88284286Y-75504400D02*
X88141428Y-75599638D01*
X88141428Y-75599638D02*
X87855714Y-75599638D01*
X87855714Y-75599638D02*
X87712857Y-75504400D01*
X87712857Y-75504400D02*
X87641428Y-75409161D01*
X87641428Y-75409161D02*
X87570000Y-75218685D01*
X87570000Y-75218685D02*
X87570000Y-74647257D01*
X87570000Y-74647257D02*
X87641428Y-74456780D01*
X87641428Y-74456780D02*
X87712857Y-74361542D01*
X87712857Y-74361542D02*
X87855714Y-74266304D01*
X87855714Y-74266304D02*
X88141428Y-74266304D01*
X88141428Y-74266304D02*
X88284286Y-74361542D01*
X88712857Y-74266304D02*
X89284285Y-74266304D01*
X88927142Y-73599638D02*
X88927142Y-75313923D01*
X88927142Y-75313923D02*
X88998571Y-75504400D01*
X88998571Y-75504400D02*
X89141428Y-75599638D01*
X89141428Y-75599638D02*
X89284285Y-75599638D01*
X89998571Y-75599638D02*
X89855714Y-75504400D01*
X89855714Y-75504400D02*
X89784285Y-75409161D01*
X89784285Y-75409161D02*
X89712857Y-75218685D01*
X89712857Y-75218685D02*
X89712857Y-74647257D01*
X89712857Y-74647257D02*
X89784285Y-74456780D01*
X89784285Y-74456780D02*
X89855714Y-74361542D01*
X89855714Y-74361542D02*
X89998571Y-74266304D01*
X89998571Y-74266304D02*
X90212857Y-74266304D01*
X90212857Y-74266304D02*
X90355714Y-74361542D01*
X90355714Y-74361542D02*
X90427143Y-74456780D01*
X90427143Y-74456780D02*
X90498571Y-74647257D01*
X90498571Y-74647257D02*
X90498571Y-75218685D01*
X90498571Y-75218685D02*
X90427143Y-75409161D01*
X90427143Y-75409161D02*
X90355714Y-75504400D01*
X90355714Y-75504400D02*
X90212857Y-75599638D01*
X90212857Y-75599638D02*
X89998571Y-75599638D01*
X90927143Y-74266304D02*
X91498571Y-74266304D01*
X91141428Y-75599638D02*
X91141428Y-73885352D01*
X91141428Y-73885352D02*
X91212857Y-73694876D01*
X91212857Y-73694876D02*
X91355714Y-73599638D01*
X91355714Y-73599638D02*
X91498571Y-73599638D01*
X92641429Y-74266304D02*
X92641429Y-75599638D01*
X91998571Y-74266304D02*
X91998571Y-75313923D01*
X91998571Y-75313923D02*
X92070000Y-75504400D01*
X92070000Y-75504400D02*
X92212857Y-75599638D01*
X92212857Y-75599638D02*
X92427143Y-75599638D01*
X92427143Y-75599638D02*
X92570000Y-75504400D01*
X92570000Y-75504400D02*
X92641429Y-75409161D01*
X93355714Y-74266304D02*
X93355714Y-75599638D01*
X93355714Y-74456780D02*
X93427143Y-74361542D01*
X93427143Y-74361542D02*
X93570000Y-74266304D01*
X93570000Y-74266304D02*
X93784286Y-74266304D01*
X93784286Y-74266304D02*
X93927143Y-74361542D01*
X93927143Y-74361542D02*
X93998572Y-74552019D01*
X93998572Y-74552019D02*
X93998572Y-75599638D01*
X94712857Y-74837733D02*
X95855715Y-74837733D01*
X97070000Y-74552019D02*
X96570000Y-74552019D01*
X96570000Y-75599638D02*
X96570000Y-73599638D01*
X96570000Y-73599638D02*
X97284286Y-73599638D01*
X97855714Y-75599638D02*
X97855714Y-74266304D01*
X97855714Y-73599638D02*
X97784286Y-73694876D01*
X97784286Y-73694876D02*
X97855714Y-73790114D01*
X97855714Y-73790114D02*
X97927143Y-73694876D01*
X97927143Y-73694876D02*
X97855714Y-73599638D01*
X97855714Y-73599638D02*
X97855714Y-73790114D01*
X98427143Y-75599638D02*
X99212858Y-74266304D01*
X98427143Y-74266304D02*
X99212858Y-75599638D01*
X99570001Y-74266304D02*
X100141429Y-74266304D01*
X99784286Y-73599638D02*
X99784286Y-75313923D01*
X99784286Y-75313923D02*
X99855715Y-75504400D01*
X99855715Y-75504400D02*
X99998572Y-75599638D01*
X99998572Y-75599638D02*
X100141429Y-75599638D01*
X101284287Y-74266304D02*
X101284287Y-75599638D01*
X100641429Y-74266304D02*
X100641429Y-75313923D01*
X100641429Y-75313923D02*
X100712858Y-75504400D01*
X100712858Y-75504400D02*
X100855715Y-75599638D01*
X100855715Y-75599638D02*
X101070001Y-75599638D01*
X101070001Y-75599638D02*
X101212858Y-75504400D01*
X101212858Y-75504400D02*
X101284287Y-75409161D01*
X101998572Y-75599638D02*
X101998572Y-74266304D01*
X101998572Y-74647257D02*
X102070001Y-74456780D01*
X102070001Y-74456780D02*
X102141430Y-74361542D01*
X102141430Y-74361542D02*
X102284287Y-74266304D01*
X102284287Y-74266304D02*
X102427144Y-74266304D01*
X103498572Y-75504400D02*
X103355715Y-75599638D01*
X103355715Y-75599638D02*
X103070001Y-75599638D01*
X103070001Y-75599638D02*
X102927143Y-75504400D01*
X102927143Y-75504400D02*
X102855715Y-75313923D01*
X102855715Y-75313923D02*
X102855715Y-74552019D01*
X102855715Y-74552019D02*
X102927143Y-74361542D01*
X102927143Y-74361542D02*
X103070001Y-74266304D01*
X103070001Y-74266304D02*
X103355715Y-74266304D01*
X103355715Y-74266304D02*
X103498572Y-74361542D01*
X103498572Y-74361542D02*
X103570001Y-74552019D01*
X103570001Y-74552019D02*
X103570001Y-74742495D01*
X103570001Y-74742495D02*
X102855715Y-74932971D01*
X106141429Y-75599638D02*
X105284286Y-75599638D01*
X105712857Y-75599638D02*
X105712857Y-73599638D01*
X105712857Y-73599638D02*
X105570000Y-73885352D01*
X105570000Y-73885352D02*
X105427143Y-74075828D01*
X105427143Y-74075828D02*
X105284286Y-74171066D01*
X106784285Y-75409161D02*
X106855714Y-75504400D01*
X106855714Y-75504400D02*
X106784285Y-75599638D01*
X106784285Y-75599638D02*
X106712857Y-75504400D01*
X106712857Y-75504400D02*
X106784285Y-75409161D01*
X106784285Y-75409161D02*
X106784285Y-75599638D01*
X108141429Y-74266304D02*
X108141429Y-75599638D01*
X107784286Y-73504400D02*
X107427143Y-74932971D01*
X107427143Y-74932971D02*
X108355714Y-74932971D01*
%TO.C,U1*%
D11*
X98599000Y-138521600D02*
X98646000Y-138525600D01*
X98693000Y-138531600D01*
X98739000Y-138540600D01*
X98785000Y-138551600D01*
X98830000Y-138564600D01*
X98875000Y-138580600D01*
X98918000Y-138598600D01*
X98961000Y-138618600D01*
X99002000Y-138641600D01*
X99042000Y-138665600D01*
X99081000Y-138692600D01*
X99118000Y-138721600D01*
X99154000Y-138751600D01*
X99188000Y-138784600D01*
X99221000Y-138818600D01*
X99251000Y-138854600D01*
X99280000Y-138891600D01*
X99307000Y-138930600D01*
X99331000Y-138970600D01*
X99354000Y-139011600D01*
X99374000Y-139054600D01*
X99392000Y-139097600D01*
X99408000Y-139142600D01*
X99421000Y-139187600D01*
X99432000Y-139233600D01*
X99441000Y-139279600D01*
X99447000Y-139326600D01*
X99451000Y-139373600D01*
X99452000Y-139420600D01*
X99452000Y-141920600D01*
X97652000Y-141920600D01*
X97652000Y-139420600D01*
X97653000Y-139373600D01*
X97657000Y-139326600D01*
X97663000Y-139279600D01*
X97672000Y-139233600D01*
X97683000Y-139187600D01*
X97696000Y-139142600D01*
X97712000Y-139097600D01*
X97730000Y-139054600D01*
X97750000Y-139011600D01*
X97773000Y-138970600D01*
X97797000Y-138930600D01*
X97824000Y-138891600D01*
X97853000Y-138854600D01*
X97883000Y-138818600D01*
X97916000Y-138784600D01*
X97950000Y-138751600D01*
X97986000Y-138721600D01*
X98023000Y-138692600D01*
X98062000Y-138665600D01*
X98102000Y-138641600D01*
X98143000Y-138618600D01*
X98186000Y-138598600D01*
X98229000Y-138580600D01*
X98274000Y-138564600D01*
X98319000Y-138551600D01*
X98365000Y-138540600D01*
X98411000Y-138531600D01*
X98458000Y-138525600D01*
X98505000Y-138521600D01*
X98552000Y-138520600D01*
X98599000Y-138521600D01*
G36*
X98599000Y-138521600D02*
G01*
X98646000Y-138525600D01*
X98693000Y-138531600D01*
X98739000Y-138540600D01*
X98785000Y-138551600D01*
X98830000Y-138564600D01*
X98875000Y-138580600D01*
X98918000Y-138598600D01*
X98961000Y-138618600D01*
X99002000Y-138641600D01*
X99042000Y-138665600D01*
X99081000Y-138692600D01*
X99118000Y-138721600D01*
X99154000Y-138751600D01*
X99188000Y-138784600D01*
X99221000Y-138818600D01*
X99251000Y-138854600D01*
X99280000Y-138891600D01*
X99307000Y-138930600D01*
X99331000Y-138970600D01*
X99354000Y-139011600D01*
X99374000Y-139054600D01*
X99392000Y-139097600D01*
X99408000Y-139142600D01*
X99421000Y-139187600D01*
X99432000Y-139233600D01*
X99441000Y-139279600D01*
X99447000Y-139326600D01*
X99451000Y-139373600D01*
X99452000Y-139420600D01*
X99452000Y-141920600D01*
X97652000Y-141920600D01*
X97652000Y-139420600D01*
X97653000Y-139373600D01*
X97657000Y-139326600D01*
X97663000Y-139279600D01*
X97672000Y-139233600D01*
X97683000Y-139187600D01*
X97696000Y-139142600D01*
X97712000Y-139097600D01*
X97730000Y-139054600D01*
X97750000Y-139011600D01*
X97773000Y-138970600D01*
X97797000Y-138930600D01*
X97824000Y-138891600D01*
X97853000Y-138854600D01*
X97883000Y-138818600D01*
X97916000Y-138784600D01*
X97950000Y-138751600D01*
X97986000Y-138721600D01*
X98023000Y-138692600D01*
X98062000Y-138665600D01*
X98102000Y-138641600D01*
X98143000Y-138618600D01*
X98186000Y-138598600D01*
X98229000Y-138580600D01*
X98274000Y-138564600D01*
X98319000Y-138551600D01*
X98365000Y-138540600D01*
X98411000Y-138531600D01*
X98458000Y-138525600D01*
X98505000Y-138521600D01*
X98552000Y-138520600D01*
X98599000Y-138521600D01*
G37*
X99452000Y-121640600D02*
X99451000Y-121687600D01*
X99447000Y-121734600D01*
X99441000Y-121781600D01*
X99432000Y-121827600D01*
X99421000Y-121873600D01*
X99408000Y-121918600D01*
X99392000Y-121963600D01*
X99374000Y-122006600D01*
X99354000Y-122049600D01*
X99331000Y-122090600D01*
X99307000Y-122130600D01*
X99280000Y-122169600D01*
X99251000Y-122206600D01*
X99221000Y-122242600D01*
X99188000Y-122276600D01*
X99154000Y-122309600D01*
X99118000Y-122339600D01*
X99081000Y-122368600D01*
X99042000Y-122395600D01*
X99002000Y-122419600D01*
X98961000Y-122442600D01*
X98918000Y-122462600D01*
X98875000Y-122480600D01*
X98830000Y-122496600D01*
X98785000Y-122509600D01*
X98739000Y-122520600D01*
X98693000Y-122529600D01*
X98646000Y-122535600D01*
X98599000Y-122539600D01*
X98552000Y-122540600D01*
X98505000Y-122539600D01*
X98458000Y-122535600D01*
X98411000Y-122529600D01*
X98365000Y-122520600D01*
X98319000Y-122509600D01*
X98274000Y-122496600D01*
X98229000Y-122480600D01*
X98186000Y-122462600D01*
X98143000Y-122442600D01*
X98102000Y-122419600D01*
X98062000Y-122395600D01*
X98023000Y-122368600D01*
X97986000Y-122339600D01*
X97950000Y-122309600D01*
X97916000Y-122276600D01*
X97883000Y-122242600D01*
X97853000Y-122206600D01*
X97824000Y-122169600D01*
X97797000Y-122130600D01*
X97773000Y-122090600D01*
X97750000Y-122049600D01*
X97730000Y-122006600D01*
X97712000Y-121963600D01*
X97696000Y-121918600D01*
X97683000Y-121873600D01*
X97672000Y-121827600D01*
X97663000Y-121781600D01*
X97657000Y-121734600D01*
X97653000Y-121687600D01*
X97652000Y-121640600D01*
X97652000Y-119140600D01*
X99452000Y-119140600D01*
X99452000Y-121640600D01*
G36*
X99452000Y-121640600D02*
G01*
X99451000Y-121687600D01*
X99447000Y-121734600D01*
X99441000Y-121781600D01*
X99432000Y-121827600D01*
X99421000Y-121873600D01*
X99408000Y-121918600D01*
X99392000Y-121963600D01*
X99374000Y-122006600D01*
X99354000Y-122049600D01*
X99331000Y-122090600D01*
X99307000Y-122130600D01*
X99280000Y-122169600D01*
X99251000Y-122206600D01*
X99221000Y-122242600D01*
X99188000Y-122276600D01*
X99154000Y-122309600D01*
X99118000Y-122339600D01*
X99081000Y-122368600D01*
X99042000Y-122395600D01*
X99002000Y-122419600D01*
X98961000Y-122442600D01*
X98918000Y-122462600D01*
X98875000Y-122480600D01*
X98830000Y-122496600D01*
X98785000Y-122509600D01*
X98739000Y-122520600D01*
X98693000Y-122529600D01*
X98646000Y-122535600D01*
X98599000Y-122539600D01*
X98552000Y-122540600D01*
X98505000Y-122539600D01*
X98458000Y-122535600D01*
X98411000Y-122529600D01*
X98365000Y-122520600D01*
X98319000Y-122509600D01*
X98274000Y-122496600D01*
X98229000Y-122480600D01*
X98186000Y-122462600D01*
X98143000Y-122442600D01*
X98102000Y-122419600D01*
X98062000Y-122395600D01*
X98023000Y-122368600D01*
X97986000Y-122339600D01*
X97950000Y-122309600D01*
X97916000Y-122276600D01*
X97883000Y-122242600D01*
X97853000Y-122206600D01*
X97824000Y-122169600D01*
X97797000Y-122130600D01*
X97773000Y-122090600D01*
X97750000Y-122049600D01*
X97730000Y-122006600D01*
X97712000Y-121963600D01*
X97696000Y-121918600D01*
X97683000Y-121873600D01*
X97672000Y-121827600D01*
X97663000Y-121781600D01*
X97657000Y-121734600D01*
X97653000Y-121687600D01*
X97652000Y-121640600D01*
X97652000Y-119140600D01*
X99452000Y-119140600D01*
X99452000Y-121640600D01*
G37*
X104263000Y-138522600D02*
X104279000Y-138524600D01*
X104294000Y-138527600D01*
X104310000Y-138530600D01*
X104325000Y-138535600D01*
X104340000Y-138540600D01*
X104354000Y-138546600D01*
X104368000Y-138553600D01*
X104382000Y-138560600D01*
X104395000Y-138568600D01*
X104408000Y-138577600D01*
X104421000Y-138587600D01*
X104433000Y-138597600D01*
X104444000Y-138608600D01*
X104455000Y-138619600D01*
X104465000Y-138631600D01*
X104475000Y-138644600D01*
X104484000Y-138657600D01*
X104492000Y-138670600D01*
X104499000Y-138684600D01*
X104506000Y-138698600D01*
X104512000Y-138712600D01*
X104517000Y-138727600D01*
X104522000Y-138742600D01*
X104525000Y-138758600D01*
X104528000Y-138773600D01*
X104530000Y-138789600D01*
X104532000Y-138804600D01*
X104532000Y-138820600D01*
X104532000Y-141920600D01*
X102732000Y-141920600D01*
X102732000Y-138820600D01*
X102732000Y-138804600D01*
X102734000Y-138789600D01*
X102736000Y-138773600D01*
X102739000Y-138758600D01*
X102742000Y-138742600D01*
X102747000Y-138727600D01*
X102752000Y-138712600D01*
X102758000Y-138698600D01*
X102765000Y-138684600D01*
X102772000Y-138670600D01*
X102780000Y-138657600D01*
X102789000Y-138644600D01*
X102799000Y-138631600D01*
X102809000Y-138619600D01*
X102820000Y-138608600D01*
X102831000Y-138597600D01*
X102843000Y-138587600D01*
X102856000Y-138577600D01*
X102869000Y-138568600D01*
X102882000Y-138560600D01*
X102896000Y-138553600D01*
X102910000Y-138546600D01*
X102924000Y-138540600D01*
X102939000Y-138535600D01*
X102954000Y-138530600D01*
X102970000Y-138527600D01*
X102985000Y-138524600D01*
X103001000Y-138522600D01*
X103016000Y-138520600D01*
X103032000Y-138520600D01*
X104232000Y-138520600D01*
X104248000Y-138520600D01*
X104263000Y-138522600D01*
G36*
X104263000Y-138522600D02*
G01*
X104279000Y-138524600D01*
X104294000Y-138527600D01*
X104310000Y-138530600D01*
X104325000Y-138535600D01*
X104340000Y-138540600D01*
X104354000Y-138546600D01*
X104368000Y-138553600D01*
X104382000Y-138560600D01*
X104395000Y-138568600D01*
X104408000Y-138577600D01*
X104421000Y-138587600D01*
X104433000Y-138597600D01*
X104444000Y-138608600D01*
X104455000Y-138619600D01*
X104465000Y-138631600D01*
X104475000Y-138644600D01*
X104484000Y-138657600D01*
X104492000Y-138670600D01*
X104499000Y-138684600D01*
X104506000Y-138698600D01*
X104512000Y-138712600D01*
X104517000Y-138727600D01*
X104522000Y-138742600D01*
X104525000Y-138758600D01*
X104528000Y-138773600D01*
X104530000Y-138789600D01*
X104532000Y-138804600D01*
X104532000Y-138820600D01*
X104532000Y-141920600D01*
X102732000Y-141920600D01*
X102732000Y-138820600D01*
X102732000Y-138804600D01*
X102734000Y-138789600D01*
X102736000Y-138773600D01*
X102739000Y-138758600D01*
X102742000Y-138742600D01*
X102747000Y-138727600D01*
X102752000Y-138712600D01*
X102758000Y-138698600D01*
X102765000Y-138684600D01*
X102772000Y-138670600D01*
X102780000Y-138657600D01*
X102789000Y-138644600D01*
X102799000Y-138631600D01*
X102809000Y-138619600D01*
X102820000Y-138608600D01*
X102831000Y-138597600D01*
X102843000Y-138587600D01*
X102856000Y-138577600D01*
X102869000Y-138568600D01*
X102882000Y-138560600D01*
X102896000Y-138553600D01*
X102910000Y-138546600D01*
X102924000Y-138540600D01*
X102939000Y-138535600D01*
X102954000Y-138530600D01*
X102970000Y-138527600D01*
X102985000Y-138524600D01*
X103001000Y-138522600D01*
X103016000Y-138520600D01*
X103032000Y-138520600D01*
X104232000Y-138520600D01*
X104248000Y-138520600D01*
X104263000Y-138522600D01*
G37*
X104532000Y-122240600D02*
X104532000Y-122256600D01*
X104530000Y-122271600D01*
X104528000Y-122287600D01*
X104525000Y-122302600D01*
X104522000Y-122318600D01*
X104517000Y-122333600D01*
X104512000Y-122348600D01*
X104506000Y-122362600D01*
X104499000Y-122376600D01*
X104492000Y-122390600D01*
X104484000Y-122403600D01*
X104475000Y-122416600D01*
X104465000Y-122429600D01*
X104455000Y-122441600D01*
X104444000Y-122452600D01*
X104433000Y-122463600D01*
X104421000Y-122473600D01*
X104408000Y-122483600D01*
X104395000Y-122492600D01*
X104382000Y-122500600D01*
X104368000Y-122507600D01*
X104354000Y-122514600D01*
X104340000Y-122520600D01*
X104325000Y-122525600D01*
X104310000Y-122530600D01*
X104294000Y-122533600D01*
X104279000Y-122536600D01*
X104263000Y-122538600D01*
X104248000Y-122540600D01*
X104232000Y-122540600D01*
X103032000Y-122540600D01*
X103016000Y-122540600D01*
X103001000Y-122538600D01*
X102985000Y-122536600D01*
X102970000Y-122533600D01*
X102954000Y-122530600D01*
X102939000Y-122525600D01*
X102924000Y-122520600D01*
X102910000Y-122514600D01*
X102896000Y-122507600D01*
X102882000Y-122500600D01*
X102869000Y-122492600D01*
X102856000Y-122483600D01*
X102843000Y-122473600D01*
X102831000Y-122463600D01*
X102820000Y-122452600D01*
X102809000Y-122441600D01*
X102799000Y-122429600D01*
X102789000Y-122416600D01*
X102780000Y-122403600D01*
X102772000Y-122390600D01*
X102765000Y-122376600D01*
X102758000Y-122362600D01*
X102752000Y-122348600D01*
X102747000Y-122333600D01*
X102742000Y-122318600D01*
X102739000Y-122302600D01*
X102736000Y-122287600D01*
X102734000Y-122271600D01*
X102732000Y-122256600D01*
X102732000Y-122240600D01*
X102732000Y-119140600D01*
X104532000Y-119140600D01*
X104532000Y-122240600D01*
G36*
X104532000Y-122240600D02*
G01*
X104532000Y-122256600D01*
X104530000Y-122271600D01*
X104528000Y-122287600D01*
X104525000Y-122302600D01*
X104522000Y-122318600D01*
X104517000Y-122333600D01*
X104512000Y-122348600D01*
X104506000Y-122362600D01*
X104499000Y-122376600D01*
X104492000Y-122390600D01*
X104484000Y-122403600D01*
X104475000Y-122416600D01*
X104465000Y-122429600D01*
X104455000Y-122441600D01*
X104444000Y-122452600D01*
X104433000Y-122463600D01*
X104421000Y-122473600D01*
X104408000Y-122483600D01*
X104395000Y-122492600D01*
X104382000Y-122500600D01*
X104368000Y-122507600D01*
X104354000Y-122514600D01*
X104340000Y-122520600D01*
X104325000Y-122525600D01*
X104310000Y-122530600D01*
X104294000Y-122533600D01*
X104279000Y-122536600D01*
X104263000Y-122538600D01*
X104248000Y-122540600D01*
X104232000Y-122540600D01*
X103032000Y-122540600D01*
X103016000Y-122540600D01*
X103001000Y-122538600D01*
X102985000Y-122536600D01*
X102970000Y-122533600D01*
X102954000Y-122530600D01*
X102939000Y-122525600D01*
X102924000Y-122520600D01*
X102910000Y-122514600D01*
X102896000Y-122507600D01*
X102882000Y-122500600D01*
X102869000Y-122492600D01*
X102856000Y-122483600D01*
X102843000Y-122473600D01*
X102831000Y-122463600D01*
X102820000Y-122452600D01*
X102809000Y-122441600D01*
X102799000Y-122429600D01*
X102789000Y-122416600D01*
X102780000Y-122403600D01*
X102772000Y-122390600D01*
X102765000Y-122376600D01*
X102758000Y-122362600D01*
X102752000Y-122348600D01*
X102747000Y-122333600D01*
X102742000Y-122318600D01*
X102739000Y-122302600D01*
X102736000Y-122287600D01*
X102734000Y-122271600D01*
X102732000Y-122256600D01*
X102732000Y-122240600D01*
X102732000Y-119140600D01*
X104532000Y-119140600D01*
X104532000Y-122240600D01*
G37*
X149082000Y-133970600D02*
X146582000Y-133970600D01*
X146535000Y-133969600D01*
X146488000Y-133965600D01*
X146441000Y-133959600D01*
X146395000Y-133950600D01*
X146349000Y-133939600D01*
X146304000Y-133926600D01*
X146259000Y-133910600D01*
X146216000Y-133892600D01*
X146173000Y-133872600D01*
X146132000Y-133849600D01*
X146092000Y-133825600D01*
X146053000Y-133798600D01*
X146016000Y-133769600D01*
X145980000Y-133739600D01*
X145946000Y-133706600D01*
X145913000Y-133672600D01*
X145883000Y-133636600D01*
X145854000Y-133599600D01*
X145827000Y-133560600D01*
X145803000Y-133520600D01*
X145780000Y-133479600D01*
X145760000Y-133436600D01*
X145742000Y-133393600D01*
X145726000Y-133348600D01*
X145713000Y-133303600D01*
X145702000Y-133257600D01*
X145693000Y-133211600D01*
X145687000Y-133164600D01*
X145683000Y-133117600D01*
X145682000Y-133070600D01*
X145683000Y-133023600D01*
X145687000Y-132976600D01*
X145693000Y-132929600D01*
X145702000Y-132883600D01*
X145713000Y-132837600D01*
X145726000Y-132792600D01*
X145742000Y-132747600D01*
X145760000Y-132704600D01*
X145780000Y-132661600D01*
X145803000Y-132620600D01*
X145827000Y-132580600D01*
X145854000Y-132541600D01*
X145883000Y-132504600D01*
X145913000Y-132468600D01*
X145946000Y-132434600D01*
X145980000Y-132401600D01*
X146016000Y-132371600D01*
X146053000Y-132342600D01*
X146092000Y-132315600D01*
X146132000Y-132291600D01*
X146173000Y-132268600D01*
X146216000Y-132248600D01*
X146259000Y-132230600D01*
X146304000Y-132214600D01*
X146349000Y-132201600D01*
X146395000Y-132190600D01*
X146441000Y-132181600D01*
X146488000Y-132175600D01*
X146535000Y-132171600D01*
X146582000Y-132170600D01*
X149082000Y-132170600D01*
X149082000Y-133970600D01*
G36*
X149082000Y-133970600D02*
G01*
X146582000Y-133970600D01*
X146535000Y-133969600D01*
X146488000Y-133965600D01*
X146441000Y-133959600D01*
X146395000Y-133950600D01*
X146349000Y-133939600D01*
X146304000Y-133926600D01*
X146259000Y-133910600D01*
X146216000Y-133892600D01*
X146173000Y-133872600D01*
X146132000Y-133849600D01*
X146092000Y-133825600D01*
X146053000Y-133798600D01*
X146016000Y-133769600D01*
X145980000Y-133739600D01*
X145946000Y-133706600D01*
X145913000Y-133672600D01*
X145883000Y-133636600D01*
X145854000Y-133599600D01*
X145827000Y-133560600D01*
X145803000Y-133520600D01*
X145780000Y-133479600D01*
X145760000Y-133436600D01*
X145742000Y-133393600D01*
X145726000Y-133348600D01*
X145713000Y-133303600D01*
X145702000Y-133257600D01*
X145693000Y-133211600D01*
X145687000Y-133164600D01*
X145683000Y-133117600D01*
X145682000Y-133070600D01*
X145683000Y-133023600D01*
X145687000Y-132976600D01*
X145693000Y-132929600D01*
X145702000Y-132883600D01*
X145713000Y-132837600D01*
X145726000Y-132792600D01*
X145742000Y-132747600D01*
X145760000Y-132704600D01*
X145780000Y-132661600D01*
X145803000Y-132620600D01*
X145827000Y-132580600D01*
X145854000Y-132541600D01*
X145883000Y-132504600D01*
X145913000Y-132468600D01*
X145946000Y-132434600D01*
X145980000Y-132401600D01*
X146016000Y-132371600D01*
X146053000Y-132342600D01*
X146092000Y-132315600D01*
X146132000Y-132291600D01*
X146173000Y-132268600D01*
X146216000Y-132248600D01*
X146259000Y-132230600D01*
X146304000Y-132214600D01*
X146349000Y-132201600D01*
X146395000Y-132190600D01*
X146441000Y-132181600D01*
X146488000Y-132175600D01*
X146535000Y-132171600D01*
X146582000Y-132170600D01*
X149082000Y-132170600D01*
X149082000Y-133970600D01*
G37*
X149082000Y-131430600D02*
X145982000Y-131430600D01*
X145966000Y-131430600D01*
X145951000Y-131428600D01*
X145935000Y-131426600D01*
X145920000Y-131423600D01*
X145904000Y-131420600D01*
X145889000Y-131415600D01*
X145874000Y-131410600D01*
X145860000Y-131404600D01*
X145846000Y-131397600D01*
X145832000Y-131390600D01*
X145819000Y-131382600D01*
X145806000Y-131373600D01*
X145793000Y-131363600D01*
X145781000Y-131353600D01*
X145770000Y-131342600D01*
X145759000Y-131331600D01*
X145749000Y-131319600D01*
X145739000Y-131306600D01*
X145730000Y-131293600D01*
X145722000Y-131280600D01*
X145715000Y-131266600D01*
X145708000Y-131252600D01*
X145702000Y-131238600D01*
X145697000Y-131223600D01*
X145692000Y-131208600D01*
X145689000Y-131192600D01*
X145686000Y-131177600D01*
X145684000Y-131161600D01*
X145682000Y-131146600D01*
X145682000Y-131130600D01*
X145682000Y-129930600D01*
X145682000Y-129914600D01*
X145684000Y-129899600D01*
X145686000Y-129883600D01*
X145689000Y-129868600D01*
X145692000Y-129852600D01*
X145697000Y-129837600D01*
X145702000Y-129822600D01*
X145708000Y-129808600D01*
X145715000Y-129794600D01*
X145722000Y-129780600D01*
X145730000Y-129767600D01*
X145739000Y-129754600D01*
X145749000Y-129741600D01*
X145759000Y-129729600D01*
X145770000Y-129718600D01*
X145781000Y-129707600D01*
X145793000Y-129697600D01*
X145806000Y-129687600D01*
X145819000Y-129678600D01*
X145832000Y-129670600D01*
X145846000Y-129663600D01*
X145860000Y-129656600D01*
X145874000Y-129650600D01*
X145889000Y-129645600D01*
X145904000Y-129640600D01*
X145920000Y-129637600D01*
X145935000Y-129634600D01*
X145951000Y-129632600D01*
X145966000Y-129630600D01*
X145982000Y-129630600D01*
X149082000Y-129630600D01*
X149082000Y-131430600D01*
G36*
X149082000Y-131430600D02*
G01*
X145982000Y-131430600D01*
X145966000Y-131430600D01*
X145951000Y-131428600D01*
X145935000Y-131426600D01*
X145920000Y-131423600D01*
X145904000Y-131420600D01*
X145889000Y-131415600D01*
X145874000Y-131410600D01*
X145860000Y-131404600D01*
X145846000Y-131397600D01*
X145832000Y-131390600D01*
X145819000Y-131382600D01*
X145806000Y-131373600D01*
X145793000Y-131363600D01*
X145781000Y-131353600D01*
X145770000Y-131342600D01*
X145759000Y-131331600D01*
X145749000Y-131319600D01*
X145739000Y-131306600D01*
X145730000Y-131293600D01*
X145722000Y-131280600D01*
X145715000Y-131266600D01*
X145708000Y-131252600D01*
X145702000Y-131238600D01*
X145697000Y-131223600D01*
X145692000Y-131208600D01*
X145689000Y-131192600D01*
X145686000Y-131177600D01*
X145684000Y-131161600D01*
X145682000Y-131146600D01*
X145682000Y-131130600D01*
X145682000Y-129930600D01*
X145682000Y-129914600D01*
X145684000Y-129899600D01*
X145686000Y-129883600D01*
X145689000Y-129868600D01*
X145692000Y-129852600D01*
X145697000Y-129837600D01*
X145702000Y-129822600D01*
X145708000Y-129808600D01*
X145715000Y-129794600D01*
X145722000Y-129780600D01*
X145730000Y-129767600D01*
X145739000Y-129754600D01*
X145749000Y-129741600D01*
X145759000Y-129729600D01*
X145770000Y-129718600D01*
X145781000Y-129707600D01*
X145793000Y-129697600D01*
X145806000Y-129687600D01*
X145819000Y-129678600D01*
X145832000Y-129670600D01*
X145846000Y-129663600D01*
X145860000Y-129656600D01*
X145874000Y-129650600D01*
X145889000Y-129645600D01*
X145904000Y-129640600D01*
X145920000Y-129637600D01*
X145935000Y-129634600D01*
X145951000Y-129632600D01*
X145966000Y-129630600D01*
X145982000Y-129630600D01*
X149082000Y-129630600D01*
X149082000Y-131430600D01*
G37*
X101139000Y-138521600D02*
X101186000Y-138525600D01*
X101233000Y-138531600D01*
X101279000Y-138540600D01*
X101325000Y-138551600D01*
X101370000Y-138564600D01*
X101415000Y-138580600D01*
X101458000Y-138598600D01*
X101501000Y-138618600D01*
X101542000Y-138641600D01*
X101582000Y-138665600D01*
X101621000Y-138692600D01*
X101658000Y-138721600D01*
X101694000Y-138751600D01*
X101728000Y-138784600D01*
X101761000Y-138818600D01*
X101791000Y-138854600D01*
X101820000Y-138891600D01*
X101847000Y-138930600D01*
X101871000Y-138970600D01*
X101894000Y-139011600D01*
X101914000Y-139054600D01*
X101932000Y-139097600D01*
X101948000Y-139142600D01*
X101961000Y-139187600D01*
X101972000Y-139233600D01*
X101981000Y-139279600D01*
X101987000Y-139326600D01*
X101991000Y-139373600D01*
X101992000Y-139420600D01*
X101992000Y-141920600D01*
X100192000Y-141920600D01*
X100192000Y-139420600D01*
X100193000Y-139373600D01*
X100197000Y-139326600D01*
X100203000Y-139279600D01*
X100212000Y-139233600D01*
X100223000Y-139187600D01*
X100236000Y-139142600D01*
X100252000Y-139097600D01*
X100270000Y-139054600D01*
X100290000Y-139011600D01*
X100313000Y-138970600D01*
X100337000Y-138930600D01*
X100364000Y-138891600D01*
X100393000Y-138854600D01*
X100423000Y-138818600D01*
X100456000Y-138784600D01*
X100490000Y-138751600D01*
X100526000Y-138721600D01*
X100563000Y-138692600D01*
X100602000Y-138665600D01*
X100642000Y-138641600D01*
X100683000Y-138618600D01*
X100726000Y-138598600D01*
X100769000Y-138580600D01*
X100814000Y-138564600D01*
X100859000Y-138551600D01*
X100905000Y-138540600D01*
X100951000Y-138531600D01*
X100998000Y-138525600D01*
X101045000Y-138521600D01*
X101092000Y-138520600D01*
X101139000Y-138521600D01*
G36*
X101139000Y-138521600D02*
G01*
X101186000Y-138525600D01*
X101233000Y-138531600D01*
X101279000Y-138540600D01*
X101325000Y-138551600D01*
X101370000Y-138564600D01*
X101415000Y-138580600D01*
X101458000Y-138598600D01*
X101501000Y-138618600D01*
X101542000Y-138641600D01*
X101582000Y-138665600D01*
X101621000Y-138692600D01*
X101658000Y-138721600D01*
X101694000Y-138751600D01*
X101728000Y-138784600D01*
X101761000Y-138818600D01*
X101791000Y-138854600D01*
X101820000Y-138891600D01*
X101847000Y-138930600D01*
X101871000Y-138970600D01*
X101894000Y-139011600D01*
X101914000Y-139054600D01*
X101932000Y-139097600D01*
X101948000Y-139142600D01*
X101961000Y-139187600D01*
X101972000Y-139233600D01*
X101981000Y-139279600D01*
X101987000Y-139326600D01*
X101991000Y-139373600D01*
X101992000Y-139420600D01*
X101992000Y-141920600D01*
X100192000Y-141920600D01*
X100192000Y-139420600D01*
X100193000Y-139373600D01*
X100197000Y-139326600D01*
X100203000Y-139279600D01*
X100212000Y-139233600D01*
X100223000Y-139187600D01*
X100236000Y-139142600D01*
X100252000Y-139097600D01*
X100270000Y-139054600D01*
X100290000Y-139011600D01*
X100313000Y-138970600D01*
X100337000Y-138930600D01*
X100364000Y-138891600D01*
X100393000Y-138854600D01*
X100423000Y-138818600D01*
X100456000Y-138784600D01*
X100490000Y-138751600D01*
X100526000Y-138721600D01*
X100563000Y-138692600D01*
X100602000Y-138665600D01*
X100642000Y-138641600D01*
X100683000Y-138618600D01*
X100726000Y-138598600D01*
X100769000Y-138580600D01*
X100814000Y-138564600D01*
X100859000Y-138551600D01*
X100905000Y-138540600D01*
X100951000Y-138531600D01*
X100998000Y-138525600D01*
X101045000Y-138521600D01*
X101092000Y-138520600D01*
X101139000Y-138521600D01*
G37*
X106219000Y-138521600D02*
X106266000Y-138525600D01*
X106313000Y-138531600D01*
X106359000Y-138540600D01*
X106405000Y-138551600D01*
X106450000Y-138564600D01*
X106495000Y-138580600D01*
X106538000Y-138598600D01*
X106581000Y-138618600D01*
X106622000Y-138641600D01*
X106662000Y-138665600D01*
X106701000Y-138692600D01*
X106738000Y-138721600D01*
X106774000Y-138751600D01*
X106808000Y-138784600D01*
X106841000Y-138818600D01*
X106871000Y-138854600D01*
X106900000Y-138891600D01*
X106927000Y-138930600D01*
X106951000Y-138970600D01*
X106974000Y-139011600D01*
X106994000Y-139054600D01*
X107012000Y-139097600D01*
X107028000Y-139142600D01*
X107041000Y-139187600D01*
X107052000Y-139233600D01*
X107061000Y-139279600D01*
X107067000Y-139326600D01*
X107071000Y-139373600D01*
X107072000Y-139420600D01*
X107072000Y-141920600D01*
X105272000Y-141920600D01*
X105272000Y-139420600D01*
X105273000Y-139373600D01*
X105277000Y-139326600D01*
X105283000Y-139279600D01*
X105292000Y-139233600D01*
X105303000Y-139187600D01*
X105316000Y-139142600D01*
X105332000Y-139097600D01*
X105350000Y-139054600D01*
X105370000Y-139011600D01*
X105393000Y-138970600D01*
X105417000Y-138930600D01*
X105444000Y-138891600D01*
X105473000Y-138854600D01*
X105503000Y-138818600D01*
X105536000Y-138784600D01*
X105570000Y-138751600D01*
X105606000Y-138721600D01*
X105643000Y-138692600D01*
X105682000Y-138665600D01*
X105722000Y-138641600D01*
X105763000Y-138618600D01*
X105806000Y-138598600D01*
X105849000Y-138580600D01*
X105894000Y-138564600D01*
X105939000Y-138551600D01*
X105985000Y-138540600D01*
X106031000Y-138531600D01*
X106078000Y-138525600D01*
X106125000Y-138521600D01*
X106172000Y-138520600D01*
X106219000Y-138521600D01*
G36*
X106219000Y-138521600D02*
G01*
X106266000Y-138525600D01*
X106313000Y-138531600D01*
X106359000Y-138540600D01*
X106405000Y-138551600D01*
X106450000Y-138564600D01*
X106495000Y-138580600D01*
X106538000Y-138598600D01*
X106581000Y-138618600D01*
X106622000Y-138641600D01*
X106662000Y-138665600D01*
X106701000Y-138692600D01*
X106738000Y-138721600D01*
X106774000Y-138751600D01*
X106808000Y-138784600D01*
X106841000Y-138818600D01*
X106871000Y-138854600D01*
X106900000Y-138891600D01*
X106927000Y-138930600D01*
X106951000Y-138970600D01*
X106974000Y-139011600D01*
X106994000Y-139054600D01*
X107012000Y-139097600D01*
X107028000Y-139142600D01*
X107041000Y-139187600D01*
X107052000Y-139233600D01*
X107061000Y-139279600D01*
X107067000Y-139326600D01*
X107071000Y-139373600D01*
X107072000Y-139420600D01*
X107072000Y-141920600D01*
X105272000Y-141920600D01*
X105272000Y-139420600D01*
X105273000Y-139373600D01*
X105277000Y-139326600D01*
X105283000Y-139279600D01*
X105292000Y-139233600D01*
X105303000Y-139187600D01*
X105316000Y-139142600D01*
X105332000Y-139097600D01*
X105350000Y-139054600D01*
X105370000Y-139011600D01*
X105393000Y-138970600D01*
X105417000Y-138930600D01*
X105444000Y-138891600D01*
X105473000Y-138854600D01*
X105503000Y-138818600D01*
X105536000Y-138784600D01*
X105570000Y-138751600D01*
X105606000Y-138721600D01*
X105643000Y-138692600D01*
X105682000Y-138665600D01*
X105722000Y-138641600D01*
X105763000Y-138618600D01*
X105806000Y-138598600D01*
X105849000Y-138580600D01*
X105894000Y-138564600D01*
X105939000Y-138551600D01*
X105985000Y-138540600D01*
X106031000Y-138531600D01*
X106078000Y-138525600D01*
X106125000Y-138521600D01*
X106172000Y-138520600D01*
X106219000Y-138521600D01*
G37*
X108759000Y-138521600D02*
X108806000Y-138525600D01*
X108853000Y-138531600D01*
X108899000Y-138540600D01*
X108945000Y-138551600D01*
X108990000Y-138564600D01*
X109035000Y-138580600D01*
X109078000Y-138598600D01*
X109121000Y-138618600D01*
X109162000Y-138641600D01*
X109202000Y-138665600D01*
X109241000Y-138692600D01*
X109278000Y-138721600D01*
X109314000Y-138751600D01*
X109348000Y-138784600D01*
X109381000Y-138818600D01*
X109411000Y-138854600D01*
X109440000Y-138891600D01*
X109467000Y-138930600D01*
X109491000Y-138970600D01*
X109514000Y-139011600D01*
X109534000Y-139054600D01*
X109552000Y-139097600D01*
X109568000Y-139142600D01*
X109581000Y-139187600D01*
X109592000Y-139233600D01*
X109601000Y-139279600D01*
X109607000Y-139326600D01*
X109611000Y-139373600D01*
X109612000Y-139420600D01*
X109612000Y-141920600D01*
X107812000Y-141920600D01*
X107812000Y-139420600D01*
X107813000Y-139373600D01*
X107817000Y-139326600D01*
X107823000Y-139279600D01*
X107832000Y-139233600D01*
X107843000Y-139187600D01*
X107856000Y-139142600D01*
X107872000Y-139097600D01*
X107890000Y-139054600D01*
X107910000Y-139011600D01*
X107933000Y-138970600D01*
X107957000Y-138930600D01*
X107984000Y-138891600D01*
X108013000Y-138854600D01*
X108043000Y-138818600D01*
X108076000Y-138784600D01*
X108110000Y-138751600D01*
X108146000Y-138721600D01*
X108183000Y-138692600D01*
X108222000Y-138665600D01*
X108262000Y-138641600D01*
X108303000Y-138618600D01*
X108346000Y-138598600D01*
X108389000Y-138580600D01*
X108434000Y-138564600D01*
X108479000Y-138551600D01*
X108525000Y-138540600D01*
X108571000Y-138531600D01*
X108618000Y-138525600D01*
X108665000Y-138521600D01*
X108712000Y-138520600D01*
X108759000Y-138521600D01*
G36*
X108759000Y-138521600D02*
G01*
X108806000Y-138525600D01*
X108853000Y-138531600D01*
X108899000Y-138540600D01*
X108945000Y-138551600D01*
X108990000Y-138564600D01*
X109035000Y-138580600D01*
X109078000Y-138598600D01*
X109121000Y-138618600D01*
X109162000Y-138641600D01*
X109202000Y-138665600D01*
X109241000Y-138692600D01*
X109278000Y-138721600D01*
X109314000Y-138751600D01*
X109348000Y-138784600D01*
X109381000Y-138818600D01*
X109411000Y-138854600D01*
X109440000Y-138891600D01*
X109467000Y-138930600D01*
X109491000Y-138970600D01*
X109514000Y-139011600D01*
X109534000Y-139054600D01*
X109552000Y-139097600D01*
X109568000Y-139142600D01*
X109581000Y-139187600D01*
X109592000Y-139233600D01*
X109601000Y-139279600D01*
X109607000Y-139326600D01*
X109611000Y-139373600D01*
X109612000Y-139420600D01*
X109612000Y-141920600D01*
X107812000Y-141920600D01*
X107812000Y-139420600D01*
X107813000Y-139373600D01*
X107817000Y-139326600D01*
X107823000Y-139279600D01*
X107832000Y-139233600D01*
X107843000Y-139187600D01*
X107856000Y-139142600D01*
X107872000Y-139097600D01*
X107890000Y-139054600D01*
X107910000Y-139011600D01*
X107933000Y-138970600D01*
X107957000Y-138930600D01*
X107984000Y-138891600D01*
X108013000Y-138854600D01*
X108043000Y-138818600D01*
X108076000Y-138784600D01*
X108110000Y-138751600D01*
X108146000Y-138721600D01*
X108183000Y-138692600D01*
X108222000Y-138665600D01*
X108262000Y-138641600D01*
X108303000Y-138618600D01*
X108346000Y-138598600D01*
X108389000Y-138580600D01*
X108434000Y-138564600D01*
X108479000Y-138551600D01*
X108525000Y-138540600D01*
X108571000Y-138531600D01*
X108618000Y-138525600D01*
X108665000Y-138521600D01*
X108712000Y-138520600D01*
X108759000Y-138521600D01*
G37*
X111299000Y-138521600D02*
X111346000Y-138525600D01*
X111393000Y-138531600D01*
X111439000Y-138540600D01*
X111485000Y-138551600D01*
X111530000Y-138564600D01*
X111575000Y-138580600D01*
X111618000Y-138598600D01*
X111661000Y-138618600D01*
X111702000Y-138641600D01*
X111742000Y-138665600D01*
X111781000Y-138692600D01*
X111818000Y-138721600D01*
X111854000Y-138751600D01*
X111888000Y-138784600D01*
X111921000Y-138818600D01*
X111951000Y-138854600D01*
X111980000Y-138891600D01*
X112007000Y-138930600D01*
X112031000Y-138970600D01*
X112054000Y-139011600D01*
X112074000Y-139054600D01*
X112092000Y-139097600D01*
X112108000Y-139142600D01*
X112121000Y-139187600D01*
X112132000Y-139233600D01*
X112141000Y-139279600D01*
X112147000Y-139326600D01*
X112151000Y-139373600D01*
X112152000Y-139420600D01*
X112152000Y-141920600D01*
X110352000Y-141920600D01*
X110352000Y-139420600D01*
X110353000Y-139373600D01*
X110357000Y-139326600D01*
X110363000Y-139279600D01*
X110372000Y-139233600D01*
X110383000Y-139187600D01*
X110396000Y-139142600D01*
X110412000Y-139097600D01*
X110430000Y-139054600D01*
X110450000Y-139011600D01*
X110473000Y-138970600D01*
X110497000Y-138930600D01*
X110524000Y-138891600D01*
X110553000Y-138854600D01*
X110583000Y-138818600D01*
X110616000Y-138784600D01*
X110650000Y-138751600D01*
X110686000Y-138721600D01*
X110723000Y-138692600D01*
X110762000Y-138665600D01*
X110802000Y-138641600D01*
X110843000Y-138618600D01*
X110886000Y-138598600D01*
X110929000Y-138580600D01*
X110974000Y-138564600D01*
X111019000Y-138551600D01*
X111065000Y-138540600D01*
X111111000Y-138531600D01*
X111158000Y-138525600D01*
X111205000Y-138521600D01*
X111252000Y-138520600D01*
X111299000Y-138521600D01*
G36*
X111299000Y-138521600D02*
G01*
X111346000Y-138525600D01*
X111393000Y-138531600D01*
X111439000Y-138540600D01*
X111485000Y-138551600D01*
X111530000Y-138564600D01*
X111575000Y-138580600D01*
X111618000Y-138598600D01*
X111661000Y-138618600D01*
X111702000Y-138641600D01*
X111742000Y-138665600D01*
X111781000Y-138692600D01*
X111818000Y-138721600D01*
X111854000Y-138751600D01*
X111888000Y-138784600D01*
X111921000Y-138818600D01*
X111951000Y-138854600D01*
X111980000Y-138891600D01*
X112007000Y-138930600D01*
X112031000Y-138970600D01*
X112054000Y-139011600D01*
X112074000Y-139054600D01*
X112092000Y-139097600D01*
X112108000Y-139142600D01*
X112121000Y-139187600D01*
X112132000Y-139233600D01*
X112141000Y-139279600D01*
X112147000Y-139326600D01*
X112151000Y-139373600D01*
X112152000Y-139420600D01*
X112152000Y-141920600D01*
X110352000Y-141920600D01*
X110352000Y-139420600D01*
X110353000Y-139373600D01*
X110357000Y-139326600D01*
X110363000Y-139279600D01*
X110372000Y-139233600D01*
X110383000Y-139187600D01*
X110396000Y-139142600D01*
X110412000Y-139097600D01*
X110430000Y-139054600D01*
X110450000Y-139011600D01*
X110473000Y-138970600D01*
X110497000Y-138930600D01*
X110524000Y-138891600D01*
X110553000Y-138854600D01*
X110583000Y-138818600D01*
X110616000Y-138784600D01*
X110650000Y-138751600D01*
X110686000Y-138721600D01*
X110723000Y-138692600D01*
X110762000Y-138665600D01*
X110802000Y-138641600D01*
X110843000Y-138618600D01*
X110886000Y-138598600D01*
X110929000Y-138580600D01*
X110974000Y-138564600D01*
X111019000Y-138551600D01*
X111065000Y-138540600D01*
X111111000Y-138531600D01*
X111158000Y-138525600D01*
X111205000Y-138521600D01*
X111252000Y-138520600D01*
X111299000Y-138521600D01*
G37*
X113839000Y-138521600D02*
X113886000Y-138525600D01*
X113933000Y-138531600D01*
X113979000Y-138540600D01*
X114025000Y-138551600D01*
X114070000Y-138564600D01*
X114115000Y-138580600D01*
X114158000Y-138598600D01*
X114201000Y-138618600D01*
X114242000Y-138641600D01*
X114282000Y-138665600D01*
X114321000Y-138692600D01*
X114358000Y-138721600D01*
X114394000Y-138751600D01*
X114428000Y-138784600D01*
X114461000Y-138818600D01*
X114491000Y-138854600D01*
X114520000Y-138891600D01*
X114547000Y-138930600D01*
X114571000Y-138970600D01*
X114594000Y-139011600D01*
X114614000Y-139054600D01*
X114632000Y-139097600D01*
X114648000Y-139142600D01*
X114661000Y-139187600D01*
X114672000Y-139233600D01*
X114681000Y-139279600D01*
X114687000Y-139326600D01*
X114691000Y-139373600D01*
X114692000Y-139420600D01*
X114692000Y-141920600D01*
X112892000Y-141920600D01*
X112892000Y-139420600D01*
X112893000Y-139373600D01*
X112897000Y-139326600D01*
X112903000Y-139279600D01*
X112912000Y-139233600D01*
X112923000Y-139187600D01*
X112936000Y-139142600D01*
X112952000Y-139097600D01*
X112970000Y-139054600D01*
X112990000Y-139011600D01*
X113013000Y-138970600D01*
X113037000Y-138930600D01*
X113064000Y-138891600D01*
X113093000Y-138854600D01*
X113123000Y-138818600D01*
X113156000Y-138784600D01*
X113190000Y-138751600D01*
X113226000Y-138721600D01*
X113263000Y-138692600D01*
X113302000Y-138665600D01*
X113342000Y-138641600D01*
X113383000Y-138618600D01*
X113426000Y-138598600D01*
X113469000Y-138580600D01*
X113514000Y-138564600D01*
X113559000Y-138551600D01*
X113605000Y-138540600D01*
X113651000Y-138531600D01*
X113698000Y-138525600D01*
X113745000Y-138521600D01*
X113792000Y-138520600D01*
X113839000Y-138521600D01*
G36*
X113839000Y-138521600D02*
G01*
X113886000Y-138525600D01*
X113933000Y-138531600D01*
X113979000Y-138540600D01*
X114025000Y-138551600D01*
X114070000Y-138564600D01*
X114115000Y-138580600D01*
X114158000Y-138598600D01*
X114201000Y-138618600D01*
X114242000Y-138641600D01*
X114282000Y-138665600D01*
X114321000Y-138692600D01*
X114358000Y-138721600D01*
X114394000Y-138751600D01*
X114428000Y-138784600D01*
X114461000Y-138818600D01*
X114491000Y-138854600D01*
X114520000Y-138891600D01*
X114547000Y-138930600D01*
X114571000Y-138970600D01*
X114594000Y-139011600D01*
X114614000Y-139054600D01*
X114632000Y-139097600D01*
X114648000Y-139142600D01*
X114661000Y-139187600D01*
X114672000Y-139233600D01*
X114681000Y-139279600D01*
X114687000Y-139326600D01*
X114691000Y-139373600D01*
X114692000Y-139420600D01*
X114692000Y-141920600D01*
X112892000Y-141920600D01*
X112892000Y-139420600D01*
X112893000Y-139373600D01*
X112897000Y-139326600D01*
X112903000Y-139279600D01*
X112912000Y-139233600D01*
X112923000Y-139187600D01*
X112936000Y-139142600D01*
X112952000Y-139097600D01*
X112970000Y-139054600D01*
X112990000Y-139011600D01*
X113013000Y-138970600D01*
X113037000Y-138930600D01*
X113064000Y-138891600D01*
X113093000Y-138854600D01*
X113123000Y-138818600D01*
X113156000Y-138784600D01*
X113190000Y-138751600D01*
X113226000Y-138721600D01*
X113263000Y-138692600D01*
X113302000Y-138665600D01*
X113342000Y-138641600D01*
X113383000Y-138618600D01*
X113426000Y-138598600D01*
X113469000Y-138580600D01*
X113514000Y-138564600D01*
X113559000Y-138551600D01*
X113605000Y-138540600D01*
X113651000Y-138531600D01*
X113698000Y-138525600D01*
X113745000Y-138521600D01*
X113792000Y-138520600D01*
X113839000Y-138521600D01*
G37*
X118919000Y-138521600D02*
X118966000Y-138525600D01*
X119013000Y-138531600D01*
X119059000Y-138540600D01*
X119105000Y-138551600D01*
X119150000Y-138564600D01*
X119195000Y-138580600D01*
X119238000Y-138598600D01*
X119281000Y-138618600D01*
X119322000Y-138641600D01*
X119362000Y-138665600D01*
X119401000Y-138692600D01*
X119438000Y-138721600D01*
X119474000Y-138751600D01*
X119508000Y-138784600D01*
X119541000Y-138818600D01*
X119571000Y-138854600D01*
X119600000Y-138891600D01*
X119627000Y-138930600D01*
X119651000Y-138970600D01*
X119674000Y-139011600D01*
X119694000Y-139054600D01*
X119712000Y-139097600D01*
X119728000Y-139142600D01*
X119741000Y-139187600D01*
X119752000Y-139233600D01*
X119761000Y-139279600D01*
X119767000Y-139326600D01*
X119771000Y-139373600D01*
X119772000Y-139420600D01*
X119772000Y-141920600D01*
X117972000Y-141920600D01*
X117972000Y-139420600D01*
X117973000Y-139373600D01*
X117977000Y-139326600D01*
X117983000Y-139279600D01*
X117992000Y-139233600D01*
X118003000Y-139187600D01*
X118016000Y-139142600D01*
X118032000Y-139097600D01*
X118050000Y-139054600D01*
X118070000Y-139011600D01*
X118093000Y-138970600D01*
X118117000Y-138930600D01*
X118144000Y-138891600D01*
X118173000Y-138854600D01*
X118203000Y-138818600D01*
X118236000Y-138784600D01*
X118270000Y-138751600D01*
X118306000Y-138721600D01*
X118343000Y-138692600D01*
X118382000Y-138665600D01*
X118422000Y-138641600D01*
X118463000Y-138618600D01*
X118506000Y-138598600D01*
X118549000Y-138580600D01*
X118594000Y-138564600D01*
X118639000Y-138551600D01*
X118685000Y-138540600D01*
X118731000Y-138531600D01*
X118778000Y-138525600D01*
X118825000Y-138521600D01*
X118872000Y-138520600D01*
X118919000Y-138521600D01*
G36*
X118919000Y-138521600D02*
G01*
X118966000Y-138525600D01*
X119013000Y-138531600D01*
X119059000Y-138540600D01*
X119105000Y-138551600D01*
X119150000Y-138564600D01*
X119195000Y-138580600D01*
X119238000Y-138598600D01*
X119281000Y-138618600D01*
X119322000Y-138641600D01*
X119362000Y-138665600D01*
X119401000Y-138692600D01*
X119438000Y-138721600D01*
X119474000Y-138751600D01*
X119508000Y-138784600D01*
X119541000Y-138818600D01*
X119571000Y-138854600D01*
X119600000Y-138891600D01*
X119627000Y-138930600D01*
X119651000Y-138970600D01*
X119674000Y-139011600D01*
X119694000Y-139054600D01*
X119712000Y-139097600D01*
X119728000Y-139142600D01*
X119741000Y-139187600D01*
X119752000Y-139233600D01*
X119761000Y-139279600D01*
X119767000Y-139326600D01*
X119771000Y-139373600D01*
X119772000Y-139420600D01*
X119772000Y-141920600D01*
X117972000Y-141920600D01*
X117972000Y-139420600D01*
X117973000Y-139373600D01*
X117977000Y-139326600D01*
X117983000Y-139279600D01*
X117992000Y-139233600D01*
X118003000Y-139187600D01*
X118016000Y-139142600D01*
X118032000Y-139097600D01*
X118050000Y-139054600D01*
X118070000Y-139011600D01*
X118093000Y-138970600D01*
X118117000Y-138930600D01*
X118144000Y-138891600D01*
X118173000Y-138854600D01*
X118203000Y-138818600D01*
X118236000Y-138784600D01*
X118270000Y-138751600D01*
X118306000Y-138721600D01*
X118343000Y-138692600D01*
X118382000Y-138665600D01*
X118422000Y-138641600D01*
X118463000Y-138618600D01*
X118506000Y-138598600D01*
X118549000Y-138580600D01*
X118594000Y-138564600D01*
X118639000Y-138551600D01*
X118685000Y-138540600D01*
X118731000Y-138531600D01*
X118778000Y-138525600D01*
X118825000Y-138521600D01*
X118872000Y-138520600D01*
X118919000Y-138521600D01*
G37*
X121459000Y-138521600D02*
X121506000Y-138525600D01*
X121553000Y-138531600D01*
X121599000Y-138540600D01*
X121645000Y-138551600D01*
X121690000Y-138564600D01*
X121735000Y-138580600D01*
X121778000Y-138598600D01*
X121821000Y-138618600D01*
X121862000Y-138641600D01*
X121902000Y-138665600D01*
X121941000Y-138692600D01*
X121978000Y-138721600D01*
X122014000Y-138751600D01*
X122048000Y-138784600D01*
X122081000Y-138818600D01*
X122111000Y-138854600D01*
X122140000Y-138891600D01*
X122167000Y-138930600D01*
X122191000Y-138970600D01*
X122214000Y-139011600D01*
X122234000Y-139054600D01*
X122252000Y-139097600D01*
X122268000Y-139142600D01*
X122281000Y-139187600D01*
X122292000Y-139233600D01*
X122301000Y-139279600D01*
X122307000Y-139326600D01*
X122311000Y-139373600D01*
X122312000Y-139420600D01*
X122312000Y-141920600D01*
X120512000Y-141920600D01*
X120512000Y-139420600D01*
X120513000Y-139373600D01*
X120517000Y-139326600D01*
X120523000Y-139279600D01*
X120532000Y-139233600D01*
X120543000Y-139187600D01*
X120556000Y-139142600D01*
X120572000Y-139097600D01*
X120590000Y-139054600D01*
X120610000Y-139011600D01*
X120633000Y-138970600D01*
X120657000Y-138930600D01*
X120684000Y-138891600D01*
X120713000Y-138854600D01*
X120743000Y-138818600D01*
X120776000Y-138784600D01*
X120810000Y-138751600D01*
X120846000Y-138721600D01*
X120883000Y-138692600D01*
X120922000Y-138665600D01*
X120962000Y-138641600D01*
X121003000Y-138618600D01*
X121046000Y-138598600D01*
X121089000Y-138580600D01*
X121134000Y-138564600D01*
X121179000Y-138551600D01*
X121225000Y-138540600D01*
X121271000Y-138531600D01*
X121318000Y-138525600D01*
X121365000Y-138521600D01*
X121412000Y-138520600D01*
X121459000Y-138521600D01*
G36*
X121459000Y-138521600D02*
G01*
X121506000Y-138525600D01*
X121553000Y-138531600D01*
X121599000Y-138540600D01*
X121645000Y-138551600D01*
X121690000Y-138564600D01*
X121735000Y-138580600D01*
X121778000Y-138598600D01*
X121821000Y-138618600D01*
X121862000Y-138641600D01*
X121902000Y-138665600D01*
X121941000Y-138692600D01*
X121978000Y-138721600D01*
X122014000Y-138751600D01*
X122048000Y-138784600D01*
X122081000Y-138818600D01*
X122111000Y-138854600D01*
X122140000Y-138891600D01*
X122167000Y-138930600D01*
X122191000Y-138970600D01*
X122214000Y-139011600D01*
X122234000Y-139054600D01*
X122252000Y-139097600D01*
X122268000Y-139142600D01*
X122281000Y-139187600D01*
X122292000Y-139233600D01*
X122301000Y-139279600D01*
X122307000Y-139326600D01*
X122311000Y-139373600D01*
X122312000Y-139420600D01*
X122312000Y-141920600D01*
X120512000Y-141920600D01*
X120512000Y-139420600D01*
X120513000Y-139373600D01*
X120517000Y-139326600D01*
X120523000Y-139279600D01*
X120532000Y-139233600D01*
X120543000Y-139187600D01*
X120556000Y-139142600D01*
X120572000Y-139097600D01*
X120590000Y-139054600D01*
X120610000Y-139011600D01*
X120633000Y-138970600D01*
X120657000Y-138930600D01*
X120684000Y-138891600D01*
X120713000Y-138854600D01*
X120743000Y-138818600D01*
X120776000Y-138784600D01*
X120810000Y-138751600D01*
X120846000Y-138721600D01*
X120883000Y-138692600D01*
X120922000Y-138665600D01*
X120962000Y-138641600D01*
X121003000Y-138618600D01*
X121046000Y-138598600D01*
X121089000Y-138580600D01*
X121134000Y-138564600D01*
X121179000Y-138551600D01*
X121225000Y-138540600D01*
X121271000Y-138531600D01*
X121318000Y-138525600D01*
X121365000Y-138521600D01*
X121412000Y-138520600D01*
X121459000Y-138521600D01*
G37*
X123999000Y-138521600D02*
X124046000Y-138525600D01*
X124093000Y-138531600D01*
X124139000Y-138540600D01*
X124185000Y-138551600D01*
X124230000Y-138564600D01*
X124275000Y-138580600D01*
X124318000Y-138598600D01*
X124361000Y-138618600D01*
X124402000Y-138641600D01*
X124442000Y-138665600D01*
X124481000Y-138692600D01*
X124518000Y-138721600D01*
X124554000Y-138751600D01*
X124588000Y-138784600D01*
X124621000Y-138818600D01*
X124651000Y-138854600D01*
X124680000Y-138891600D01*
X124707000Y-138930600D01*
X124731000Y-138970600D01*
X124754000Y-139011600D01*
X124774000Y-139054600D01*
X124792000Y-139097600D01*
X124808000Y-139142600D01*
X124821000Y-139187600D01*
X124832000Y-139233600D01*
X124841000Y-139279600D01*
X124847000Y-139326600D01*
X124851000Y-139373600D01*
X124852000Y-139420600D01*
X124852000Y-141920600D01*
X123052000Y-141920600D01*
X123052000Y-139420600D01*
X123053000Y-139373600D01*
X123057000Y-139326600D01*
X123063000Y-139279600D01*
X123072000Y-139233600D01*
X123083000Y-139187600D01*
X123096000Y-139142600D01*
X123112000Y-139097600D01*
X123130000Y-139054600D01*
X123150000Y-139011600D01*
X123173000Y-138970600D01*
X123197000Y-138930600D01*
X123224000Y-138891600D01*
X123253000Y-138854600D01*
X123283000Y-138818600D01*
X123316000Y-138784600D01*
X123350000Y-138751600D01*
X123386000Y-138721600D01*
X123423000Y-138692600D01*
X123462000Y-138665600D01*
X123502000Y-138641600D01*
X123543000Y-138618600D01*
X123586000Y-138598600D01*
X123629000Y-138580600D01*
X123674000Y-138564600D01*
X123719000Y-138551600D01*
X123765000Y-138540600D01*
X123811000Y-138531600D01*
X123858000Y-138525600D01*
X123905000Y-138521600D01*
X123952000Y-138520600D01*
X123999000Y-138521600D01*
G36*
X123999000Y-138521600D02*
G01*
X124046000Y-138525600D01*
X124093000Y-138531600D01*
X124139000Y-138540600D01*
X124185000Y-138551600D01*
X124230000Y-138564600D01*
X124275000Y-138580600D01*
X124318000Y-138598600D01*
X124361000Y-138618600D01*
X124402000Y-138641600D01*
X124442000Y-138665600D01*
X124481000Y-138692600D01*
X124518000Y-138721600D01*
X124554000Y-138751600D01*
X124588000Y-138784600D01*
X124621000Y-138818600D01*
X124651000Y-138854600D01*
X124680000Y-138891600D01*
X124707000Y-138930600D01*
X124731000Y-138970600D01*
X124754000Y-139011600D01*
X124774000Y-139054600D01*
X124792000Y-139097600D01*
X124808000Y-139142600D01*
X124821000Y-139187600D01*
X124832000Y-139233600D01*
X124841000Y-139279600D01*
X124847000Y-139326600D01*
X124851000Y-139373600D01*
X124852000Y-139420600D01*
X124852000Y-141920600D01*
X123052000Y-141920600D01*
X123052000Y-139420600D01*
X123053000Y-139373600D01*
X123057000Y-139326600D01*
X123063000Y-139279600D01*
X123072000Y-139233600D01*
X123083000Y-139187600D01*
X123096000Y-139142600D01*
X123112000Y-139097600D01*
X123130000Y-139054600D01*
X123150000Y-139011600D01*
X123173000Y-138970600D01*
X123197000Y-138930600D01*
X123224000Y-138891600D01*
X123253000Y-138854600D01*
X123283000Y-138818600D01*
X123316000Y-138784600D01*
X123350000Y-138751600D01*
X123386000Y-138721600D01*
X123423000Y-138692600D01*
X123462000Y-138665600D01*
X123502000Y-138641600D01*
X123543000Y-138618600D01*
X123586000Y-138598600D01*
X123629000Y-138580600D01*
X123674000Y-138564600D01*
X123719000Y-138551600D01*
X123765000Y-138540600D01*
X123811000Y-138531600D01*
X123858000Y-138525600D01*
X123905000Y-138521600D01*
X123952000Y-138520600D01*
X123999000Y-138521600D01*
G37*
X126539000Y-138521600D02*
X126586000Y-138525600D01*
X126633000Y-138531600D01*
X126679000Y-138540600D01*
X126725000Y-138551600D01*
X126770000Y-138564600D01*
X126815000Y-138580600D01*
X126858000Y-138598600D01*
X126901000Y-138618600D01*
X126942000Y-138641600D01*
X126982000Y-138665600D01*
X127021000Y-138692600D01*
X127058000Y-138721600D01*
X127094000Y-138751600D01*
X127128000Y-138784600D01*
X127161000Y-138818600D01*
X127191000Y-138854600D01*
X127220000Y-138891600D01*
X127247000Y-138930600D01*
X127271000Y-138970600D01*
X127294000Y-139011600D01*
X127314000Y-139054600D01*
X127332000Y-139097600D01*
X127348000Y-139142600D01*
X127361000Y-139187600D01*
X127372000Y-139233600D01*
X127381000Y-139279600D01*
X127387000Y-139326600D01*
X127391000Y-139373600D01*
X127392000Y-139420600D01*
X127392000Y-141920600D01*
X125592000Y-141920600D01*
X125592000Y-139420600D01*
X125593000Y-139373600D01*
X125597000Y-139326600D01*
X125603000Y-139279600D01*
X125612000Y-139233600D01*
X125623000Y-139187600D01*
X125636000Y-139142600D01*
X125652000Y-139097600D01*
X125670000Y-139054600D01*
X125690000Y-139011600D01*
X125713000Y-138970600D01*
X125737000Y-138930600D01*
X125764000Y-138891600D01*
X125793000Y-138854600D01*
X125823000Y-138818600D01*
X125856000Y-138784600D01*
X125890000Y-138751600D01*
X125926000Y-138721600D01*
X125963000Y-138692600D01*
X126002000Y-138665600D01*
X126042000Y-138641600D01*
X126083000Y-138618600D01*
X126126000Y-138598600D01*
X126169000Y-138580600D01*
X126214000Y-138564600D01*
X126259000Y-138551600D01*
X126305000Y-138540600D01*
X126351000Y-138531600D01*
X126398000Y-138525600D01*
X126445000Y-138521600D01*
X126492000Y-138520600D01*
X126539000Y-138521600D01*
G36*
X126539000Y-138521600D02*
G01*
X126586000Y-138525600D01*
X126633000Y-138531600D01*
X126679000Y-138540600D01*
X126725000Y-138551600D01*
X126770000Y-138564600D01*
X126815000Y-138580600D01*
X126858000Y-138598600D01*
X126901000Y-138618600D01*
X126942000Y-138641600D01*
X126982000Y-138665600D01*
X127021000Y-138692600D01*
X127058000Y-138721600D01*
X127094000Y-138751600D01*
X127128000Y-138784600D01*
X127161000Y-138818600D01*
X127191000Y-138854600D01*
X127220000Y-138891600D01*
X127247000Y-138930600D01*
X127271000Y-138970600D01*
X127294000Y-139011600D01*
X127314000Y-139054600D01*
X127332000Y-139097600D01*
X127348000Y-139142600D01*
X127361000Y-139187600D01*
X127372000Y-139233600D01*
X127381000Y-139279600D01*
X127387000Y-139326600D01*
X127391000Y-139373600D01*
X127392000Y-139420600D01*
X127392000Y-141920600D01*
X125592000Y-141920600D01*
X125592000Y-139420600D01*
X125593000Y-139373600D01*
X125597000Y-139326600D01*
X125603000Y-139279600D01*
X125612000Y-139233600D01*
X125623000Y-139187600D01*
X125636000Y-139142600D01*
X125652000Y-139097600D01*
X125670000Y-139054600D01*
X125690000Y-139011600D01*
X125713000Y-138970600D01*
X125737000Y-138930600D01*
X125764000Y-138891600D01*
X125793000Y-138854600D01*
X125823000Y-138818600D01*
X125856000Y-138784600D01*
X125890000Y-138751600D01*
X125926000Y-138721600D01*
X125963000Y-138692600D01*
X126002000Y-138665600D01*
X126042000Y-138641600D01*
X126083000Y-138618600D01*
X126126000Y-138598600D01*
X126169000Y-138580600D01*
X126214000Y-138564600D01*
X126259000Y-138551600D01*
X126305000Y-138540600D01*
X126351000Y-138531600D01*
X126398000Y-138525600D01*
X126445000Y-138521600D01*
X126492000Y-138520600D01*
X126539000Y-138521600D01*
G37*
X131619000Y-138521600D02*
X131666000Y-138525600D01*
X131713000Y-138531600D01*
X131759000Y-138540600D01*
X131805000Y-138551600D01*
X131850000Y-138564600D01*
X131895000Y-138580600D01*
X131938000Y-138598600D01*
X131981000Y-138618600D01*
X132022000Y-138641600D01*
X132062000Y-138665600D01*
X132101000Y-138692600D01*
X132138000Y-138721600D01*
X132174000Y-138751600D01*
X132208000Y-138784600D01*
X132241000Y-138818600D01*
X132271000Y-138854600D01*
X132300000Y-138891600D01*
X132327000Y-138930600D01*
X132351000Y-138970600D01*
X132374000Y-139011600D01*
X132394000Y-139054600D01*
X132412000Y-139097600D01*
X132428000Y-139142600D01*
X132441000Y-139187600D01*
X132452000Y-139233600D01*
X132461000Y-139279600D01*
X132467000Y-139326600D01*
X132471000Y-139373600D01*
X132472000Y-139420600D01*
X132472000Y-141920600D01*
X130672000Y-141920600D01*
X130672000Y-139420600D01*
X130673000Y-139373600D01*
X130677000Y-139326600D01*
X130683000Y-139279600D01*
X130692000Y-139233600D01*
X130703000Y-139187600D01*
X130716000Y-139142600D01*
X130732000Y-139097600D01*
X130750000Y-139054600D01*
X130770000Y-139011600D01*
X130793000Y-138970600D01*
X130817000Y-138930600D01*
X130844000Y-138891600D01*
X130873000Y-138854600D01*
X130903000Y-138818600D01*
X130936000Y-138784600D01*
X130970000Y-138751600D01*
X131006000Y-138721600D01*
X131043000Y-138692600D01*
X131082000Y-138665600D01*
X131122000Y-138641600D01*
X131163000Y-138618600D01*
X131206000Y-138598600D01*
X131249000Y-138580600D01*
X131294000Y-138564600D01*
X131339000Y-138551600D01*
X131385000Y-138540600D01*
X131431000Y-138531600D01*
X131478000Y-138525600D01*
X131525000Y-138521600D01*
X131572000Y-138520600D01*
X131619000Y-138521600D01*
G36*
X131619000Y-138521600D02*
G01*
X131666000Y-138525600D01*
X131713000Y-138531600D01*
X131759000Y-138540600D01*
X131805000Y-138551600D01*
X131850000Y-138564600D01*
X131895000Y-138580600D01*
X131938000Y-138598600D01*
X131981000Y-138618600D01*
X132022000Y-138641600D01*
X132062000Y-138665600D01*
X132101000Y-138692600D01*
X132138000Y-138721600D01*
X132174000Y-138751600D01*
X132208000Y-138784600D01*
X132241000Y-138818600D01*
X132271000Y-138854600D01*
X132300000Y-138891600D01*
X132327000Y-138930600D01*
X132351000Y-138970600D01*
X132374000Y-139011600D01*
X132394000Y-139054600D01*
X132412000Y-139097600D01*
X132428000Y-139142600D01*
X132441000Y-139187600D01*
X132452000Y-139233600D01*
X132461000Y-139279600D01*
X132467000Y-139326600D01*
X132471000Y-139373600D01*
X132472000Y-139420600D01*
X132472000Y-141920600D01*
X130672000Y-141920600D01*
X130672000Y-139420600D01*
X130673000Y-139373600D01*
X130677000Y-139326600D01*
X130683000Y-139279600D01*
X130692000Y-139233600D01*
X130703000Y-139187600D01*
X130716000Y-139142600D01*
X130732000Y-139097600D01*
X130750000Y-139054600D01*
X130770000Y-139011600D01*
X130793000Y-138970600D01*
X130817000Y-138930600D01*
X130844000Y-138891600D01*
X130873000Y-138854600D01*
X130903000Y-138818600D01*
X130936000Y-138784600D01*
X130970000Y-138751600D01*
X131006000Y-138721600D01*
X131043000Y-138692600D01*
X131082000Y-138665600D01*
X131122000Y-138641600D01*
X131163000Y-138618600D01*
X131206000Y-138598600D01*
X131249000Y-138580600D01*
X131294000Y-138564600D01*
X131339000Y-138551600D01*
X131385000Y-138540600D01*
X131431000Y-138531600D01*
X131478000Y-138525600D01*
X131525000Y-138521600D01*
X131572000Y-138520600D01*
X131619000Y-138521600D01*
G37*
X134159000Y-138521600D02*
X134206000Y-138525600D01*
X134253000Y-138531600D01*
X134299000Y-138540600D01*
X134345000Y-138551600D01*
X134390000Y-138564600D01*
X134435000Y-138580600D01*
X134478000Y-138598600D01*
X134521000Y-138618600D01*
X134562000Y-138641600D01*
X134602000Y-138665600D01*
X134641000Y-138692600D01*
X134678000Y-138721600D01*
X134714000Y-138751600D01*
X134748000Y-138784600D01*
X134781000Y-138818600D01*
X134811000Y-138854600D01*
X134840000Y-138891600D01*
X134867000Y-138930600D01*
X134891000Y-138970600D01*
X134914000Y-139011600D01*
X134934000Y-139054600D01*
X134952000Y-139097600D01*
X134968000Y-139142600D01*
X134981000Y-139187600D01*
X134992000Y-139233600D01*
X135001000Y-139279600D01*
X135007000Y-139326600D01*
X135011000Y-139373600D01*
X135012000Y-139420600D01*
X135012000Y-141920600D01*
X133212000Y-141920600D01*
X133212000Y-139420600D01*
X133213000Y-139373600D01*
X133217000Y-139326600D01*
X133223000Y-139279600D01*
X133232000Y-139233600D01*
X133243000Y-139187600D01*
X133256000Y-139142600D01*
X133272000Y-139097600D01*
X133290000Y-139054600D01*
X133310000Y-139011600D01*
X133333000Y-138970600D01*
X133357000Y-138930600D01*
X133384000Y-138891600D01*
X133413000Y-138854600D01*
X133443000Y-138818600D01*
X133476000Y-138784600D01*
X133510000Y-138751600D01*
X133546000Y-138721600D01*
X133583000Y-138692600D01*
X133622000Y-138665600D01*
X133662000Y-138641600D01*
X133703000Y-138618600D01*
X133746000Y-138598600D01*
X133789000Y-138580600D01*
X133834000Y-138564600D01*
X133879000Y-138551600D01*
X133925000Y-138540600D01*
X133971000Y-138531600D01*
X134018000Y-138525600D01*
X134065000Y-138521600D01*
X134112000Y-138520600D01*
X134159000Y-138521600D01*
G36*
X134159000Y-138521600D02*
G01*
X134206000Y-138525600D01*
X134253000Y-138531600D01*
X134299000Y-138540600D01*
X134345000Y-138551600D01*
X134390000Y-138564600D01*
X134435000Y-138580600D01*
X134478000Y-138598600D01*
X134521000Y-138618600D01*
X134562000Y-138641600D01*
X134602000Y-138665600D01*
X134641000Y-138692600D01*
X134678000Y-138721600D01*
X134714000Y-138751600D01*
X134748000Y-138784600D01*
X134781000Y-138818600D01*
X134811000Y-138854600D01*
X134840000Y-138891600D01*
X134867000Y-138930600D01*
X134891000Y-138970600D01*
X134914000Y-139011600D01*
X134934000Y-139054600D01*
X134952000Y-139097600D01*
X134968000Y-139142600D01*
X134981000Y-139187600D01*
X134992000Y-139233600D01*
X135001000Y-139279600D01*
X135007000Y-139326600D01*
X135011000Y-139373600D01*
X135012000Y-139420600D01*
X135012000Y-141920600D01*
X133212000Y-141920600D01*
X133212000Y-139420600D01*
X133213000Y-139373600D01*
X133217000Y-139326600D01*
X133223000Y-139279600D01*
X133232000Y-139233600D01*
X133243000Y-139187600D01*
X133256000Y-139142600D01*
X133272000Y-139097600D01*
X133290000Y-139054600D01*
X133310000Y-139011600D01*
X133333000Y-138970600D01*
X133357000Y-138930600D01*
X133384000Y-138891600D01*
X133413000Y-138854600D01*
X133443000Y-138818600D01*
X133476000Y-138784600D01*
X133510000Y-138751600D01*
X133546000Y-138721600D01*
X133583000Y-138692600D01*
X133622000Y-138665600D01*
X133662000Y-138641600D01*
X133703000Y-138618600D01*
X133746000Y-138598600D01*
X133789000Y-138580600D01*
X133834000Y-138564600D01*
X133879000Y-138551600D01*
X133925000Y-138540600D01*
X133971000Y-138531600D01*
X134018000Y-138525600D01*
X134065000Y-138521600D01*
X134112000Y-138520600D01*
X134159000Y-138521600D01*
G37*
X136699000Y-138521600D02*
X136746000Y-138525600D01*
X136793000Y-138531600D01*
X136839000Y-138540600D01*
X136885000Y-138551600D01*
X136930000Y-138564600D01*
X136975000Y-138580600D01*
X137018000Y-138598600D01*
X137061000Y-138618600D01*
X137102000Y-138641600D01*
X137142000Y-138665600D01*
X137181000Y-138692600D01*
X137218000Y-138721600D01*
X137254000Y-138751600D01*
X137288000Y-138784600D01*
X137321000Y-138818600D01*
X137351000Y-138854600D01*
X137380000Y-138891600D01*
X137407000Y-138930600D01*
X137431000Y-138970600D01*
X137454000Y-139011600D01*
X137474000Y-139054600D01*
X137492000Y-139097600D01*
X137508000Y-139142600D01*
X137521000Y-139187600D01*
X137532000Y-139233600D01*
X137541000Y-139279600D01*
X137547000Y-139326600D01*
X137551000Y-139373600D01*
X137552000Y-139420600D01*
X137552000Y-141920600D01*
X135752000Y-141920600D01*
X135752000Y-139420600D01*
X135753000Y-139373600D01*
X135757000Y-139326600D01*
X135763000Y-139279600D01*
X135772000Y-139233600D01*
X135783000Y-139187600D01*
X135796000Y-139142600D01*
X135812000Y-139097600D01*
X135830000Y-139054600D01*
X135850000Y-139011600D01*
X135873000Y-138970600D01*
X135897000Y-138930600D01*
X135924000Y-138891600D01*
X135953000Y-138854600D01*
X135983000Y-138818600D01*
X136016000Y-138784600D01*
X136050000Y-138751600D01*
X136086000Y-138721600D01*
X136123000Y-138692600D01*
X136162000Y-138665600D01*
X136202000Y-138641600D01*
X136243000Y-138618600D01*
X136286000Y-138598600D01*
X136329000Y-138580600D01*
X136374000Y-138564600D01*
X136419000Y-138551600D01*
X136465000Y-138540600D01*
X136511000Y-138531600D01*
X136558000Y-138525600D01*
X136605000Y-138521600D01*
X136652000Y-138520600D01*
X136699000Y-138521600D01*
G36*
X136699000Y-138521600D02*
G01*
X136746000Y-138525600D01*
X136793000Y-138531600D01*
X136839000Y-138540600D01*
X136885000Y-138551600D01*
X136930000Y-138564600D01*
X136975000Y-138580600D01*
X137018000Y-138598600D01*
X137061000Y-138618600D01*
X137102000Y-138641600D01*
X137142000Y-138665600D01*
X137181000Y-138692600D01*
X137218000Y-138721600D01*
X137254000Y-138751600D01*
X137288000Y-138784600D01*
X137321000Y-138818600D01*
X137351000Y-138854600D01*
X137380000Y-138891600D01*
X137407000Y-138930600D01*
X137431000Y-138970600D01*
X137454000Y-139011600D01*
X137474000Y-139054600D01*
X137492000Y-139097600D01*
X137508000Y-139142600D01*
X137521000Y-139187600D01*
X137532000Y-139233600D01*
X137541000Y-139279600D01*
X137547000Y-139326600D01*
X137551000Y-139373600D01*
X137552000Y-139420600D01*
X137552000Y-141920600D01*
X135752000Y-141920600D01*
X135752000Y-139420600D01*
X135753000Y-139373600D01*
X135757000Y-139326600D01*
X135763000Y-139279600D01*
X135772000Y-139233600D01*
X135783000Y-139187600D01*
X135796000Y-139142600D01*
X135812000Y-139097600D01*
X135830000Y-139054600D01*
X135850000Y-139011600D01*
X135873000Y-138970600D01*
X135897000Y-138930600D01*
X135924000Y-138891600D01*
X135953000Y-138854600D01*
X135983000Y-138818600D01*
X136016000Y-138784600D01*
X136050000Y-138751600D01*
X136086000Y-138721600D01*
X136123000Y-138692600D01*
X136162000Y-138665600D01*
X136202000Y-138641600D01*
X136243000Y-138618600D01*
X136286000Y-138598600D01*
X136329000Y-138580600D01*
X136374000Y-138564600D01*
X136419000Y-138551600D01*
X136465000Y-138540600D01*
X136511000Y-138531600D01*
X136558000Y-138525600D01*
X136605000Y-138521600D01*
X136652000Y-138520600D01*
X136699000Y-138521600D01*
G37*
X139239000Y-138521600D02*
X139286000Y-138525600D01*
X139333000Y-138531600D01*
X139379000Y-138540600D01*
X139425000Y-138551600D01*
X139470000Y-138564600D01*
X139515000Y-138580600D01*
X139558000Y-138598600D01*
X139601000Y-138618600D01*
X139642000Y-138641600D01*
X139682000Y-138665600D01*
X139721000Y-138692600D01*
X139758000Y-138721600D01*
X139794000Y-138751600D01*
X139828000Y-138784600D01*
X139861000Y-138818600D01*
X139891000Y-138854600D01*
X139920000Y-138891600D01*
X139947000Y-138930600D01*
X139971000Y-138970600D01*
X139994000Y-139011600D01*
X140014000Y-139054600D01*
X140032000Y-139097600D01*
X140048000Y-139142600D01*
X140061000Y-139187600D01*
X140072000Y-139233600D01*
X140081000Y-139279600D01*
X140087000Y-139326600D01*
X140091000Y-139373600D01*
X140092000Y-139420600D01*
X140092000Y-141920600D01*
X138292000Y-141920600D01*
X138292000Y-139420600D01*
X138293000Y-139373600D01*
X138297000Y-139326600D01*
X138303000Y-139279600D01*
X138312000Y-139233600D01*
X138323000Y-139187600D01*
X138336000Y-139142600D01*
X138352000Y-139097600D01*
X138370000Y-139054600D01*
X138390000Y-139011600D01*
X138413000Y-138970600D01*
X138437000Y-138930600D01*
X138464000Y-138891600D01*
X138493000Y-138854600D01*
X138523000Y-138818600D01*
X138556000Y-138784600D01*
X138590000Y-138751600D01*
X138626000Y-138721600D01*
X138663000Y-138692600D01*
X138702000Y-138665600D01*
X138742000Y-138641600D01*
X138783000Y-138618600D01*
X138826000Y-138598600D01*
X138869000Y-138580600D01*
X138914000Y-138564600D01*
X138959000Y-138551600D01*
X139005000Y-138540600D01*
X139051000Y-138531600D01*
X139098000Y-138525600D01*
X139145000Y-138521600D01*
X139192000Y-138520600D01*
X139239000Y-138521600D01*
G36*
X139239000Y-138521600D02*
G01*
X139286000Y-138525600D01*
X139333000Y-138531600D01*
X139379000Y-138540600D01*
X139425000Y-138551600D01*
X139470000Y-138564600D01*
X139515000Y-138580600D01*
X139558000Y-138598600D01*
X139601000Y-138618600D01*
X139642000Y-138641600D01*
X139682000Y-138665600D01*
X139721000Y-138692600D01*
X139758000Y-138721600D01*
X139794000Y-138751600D01*
X139828000Y-138784600D01*
X139861000Y-138818600D01*
X139891000Y-138854600D01*
X139920000Y-138891600D01*
X139947000Y-138930600D01*
X139971000Y-138970600D01*
X139994000Y-139011600D01*
X140014000Y-139054600D01*
X140032000Y-139097600D01*
X140048000Y-139142600D01*
X140061000Y-139187600D01*
X140072000Y-139233600D01*
X140081000Y-139279600D01*
X140087000Y-139326600D01*
X140091000Y-139373600D01*
X140092000Y-139420600D01*
X140092000Y-141920600D01*
X138292000Y-141920600D01*
X138292000Y-139420600D01*
X138293000Y-139373600D01*
X138297000Y-139326600D01*
X138303000Y-139279600D01*
X138312000Y-139233600D01*
X138323000Y-139187600D01*
X138336000Y-139142600D01*
X138352000Y-139097600D01*
X138370000Y-139054600D01*
X138390000Y-139011600D01*
X138413000Y-138970600D01*
X138437000Y-138930600D01*
X138464000Y-138891600D01*
X138493000Y-138854600D01*
X138523000Y-138818600D01*
X138556000Y-138784600D01*
X138590000Y-138751600D01*
X138626000Y-138721600D01*
X138663000Y-138692600D01*
X138702000Y-138665600D01*
X138742000Y-138641600D01*
X138783000Y-138618600D01*
X138826000Y-138598600D01*
X138869000Y-138580600D01*
X138914000Y-138564600D01*
X138959000Y-138551600D01*
X139005000Y-138540600D01*
X139051000Y-138531600D01*
X139098000Y-138525600D01*
X139145000Y-138521600D01*
X139192000Y-138520600D01*
X139239000Y-138521600D01*
G37*
X144319000Y-138521600D02*
X144366000Y-138525600D01*
X144413000Y-138531600D01*
X144459000Y-138540600D01*
X144505000Y-138551600D01*
X144550000Y-138564600D01*
X144595000Y-138580600D01*
X144638000Y-138598600D01*
X144681000Y-138618600D01*
X144722000Y-138641600D01*
X144762000Y-138665600D01*
X144801000Y-138692600D01*
X144838000Y-138721600D01*
X144874000Y-138751600D01*
X144908000Y-138784600D01*
X144941000Y-138818600D01*
X144971000Y-138854600D01*
X145000000Y-138891600D01*
X145027000Y-138930600D01*
X145051000Y-138970600D01*
X145074000Y-139011600D01*
X145094000Y-139054600D01*
X145112000Y-139097600D01*
X145128000Y-139142600D01*
X145141000Y-139187600D01*
X145152000Y-139233600D01*
X145161000Y-139279600D01*
X145167000Y-139326600D01*
X145171000Y-139373600D01*
X145172000Y-139420600D01*
X145172000Y-141920600D01*
X143372000Y-141920600D01*
X143372000Y-139420600D01*
X143373000Y-139373600D01*
X143377000Y-139326600D01*
X143383000Y-139279600D01*
X143392000Y-139233600D01*
X143403000Y-139187600D01*
X143416000Y-139142600D01*
X143432000Y-139097600D01*
X143450000Y-139054600D01*
X143470000Y-139011600D01*
X143493000Y-138970600D01*
X143517000Y-138930600D01*
X143544000Y-138891600D01*
X143573000Y-138854600D01*
X143603000Y-138818600D01*
X143636000Y-138784600D01*
X143670000Y-138751600D01*
X143706000Y-138721600D01*
X143743000Y-138692600D01*
X143782000Y-138665600D01*
X143822000Y-138641600D01*
X143863000Y-138618600D01*
X143906000Y-138598600D01*
X143949000Y-138580600D01*
X143994000Y-138564600D01*
X144039000Y-138551600D01*
X144085000Y-138540600D01*
X144131000Y-138531600D01*
X144178000Y-138525600D01*
X144225000Y-138521600D01*
X144272000Y-138520600D01*
X144319000Y-138521600D01*
G36*
X144319000Y-138521600D02*
G01*
X144366000Y-138525600D01*
X144413000Y-138531600D01*
X144459000Y-138540600D01*
X144505000Y-138551600D01*
X144550000Y-138564600D01*
X144595000Y-138580600D01*
X144638000Y-138598600D01*
X144681000Y-138618600D01*
X144722000Y-138641600D01*
X144762000Y-138665600D01*
X144801000Y-138692600D01*
X144838000Y-138721600D01*
X144874000Y-138751600D01*
X144908000Y-138784600D01*
X144941000Y-138818600D01*
X144971000Y-138854600D01*
X145000000Y-138891600D01*
X145027000Y-138930600D01*
X145051000Y-138970600D01*
X145074000Y-139011600D01*
X145094000Y-139054600D01*
X145112000Y-139097600D01*
X145128000Y-139142600D01*
X145141000Y-139187600D01*
X145152000Y-139233600D01*
X145161000Y-139279600D01*
X145167000Y-139326600D01*
X145171000Y-139373600D01*
X145172000Y-139420600D01*
X145172000Y-141920600D01*
X143372000Y-141920600D01*
X143372000Y-139420600D01*
X143373000Y-139373600D01*
X143377000Y-139326600D01*
X143383000Y-139279600D01*
X143392000Y-139233600D01*
X143403000Y-139187600D01*
X143416000Y-139142600D01*
X143432000Y-139097600D01*
X143450000Y-139054600D01*
X143470000Y-139011600D01*
X143493000Y-138970600D01*
X143517000Y-138930600D01*
X143544000Y-138891600D01*
X143573000Y-138854600D01*
X143603000Y-138818600D01*
X143636000Y-138784600D01*
X143670000Y-138751600D01*
X143706000Y-138721600D01*
X143743000Y-138692600D01*
X143782000Y-138665600D01*
X143822000Y-138641600D01*
X143863000Y-138618600D01*
X143906000Y-138598600D01*
X143949000Y-138580600D01*
X143994000Y-138564600D01*
X144039000Y-138551600D01*
X144085000Y-138540600D01*
X144131000Y-138531600D01*
X144178000Y-138525600D01*
X144225000Y-138521600D01*
X144272000Y-138520600D01*
X144319000Y-138521600D01*
G37*
X146859000Y-138521600D02*
X146906000Y-138525600D01*
X146953000Y-138531600D01*
X146999000Y-138540600D01*
X147045000Y-138551600D01*
X147090000Y-138564600D01*
X147135000Y-138580600D01*
X147178000Y-138598600D01*
X147221000Y-138618600D01*
X147262000Y-138641600D01*
X147302000Y-138665600D01*
X147341000Y-138692600D01*
X147378000Y-138721600D01*
X147414000Y-138751600D01*
X147448000Y-138784600D01*
X147481000Y-138818600D01*
X147511000Y-138854600D01*
X147540000Y-138891600D01*
X147567000Y-138930600D01*
X147591000Y-138970600D01*
X147614000Y-139011600D01*
X147634000Y-139054600D01*
X147652000Y-139097600D01*
X147668000Y-139142600D01*
X147681000Y-139187600D01*
X147692000Y-139233600D01*
X147701000Y-139279600D01*
X147707000Y-139326600D01*
X147711000Y-139373600D01*
X147712000Y-139420600D01*
X147712000Y-141920600D01*
X145912000Y-141920600D01*
X145912000Y-139420600D01*
X145913000Y-139373600D01*
X145917000Y-139326600D01*
X145923000Y-139279600D01*
X145932000Y-139233600D01*
X145943000Y-139187600D01*
X145956000Y-139142600D01*
X145972000Y-139097600D01*
X145990000Y-139054600D01*
X146010000Y-139011600D01*
X146033000Y-138970600D01*
X146057000Y-138930600D01*
X146084000Y-138891600D01*
X146113000Y-138854600D01*
X146143000Y-138818600D01*
X146176000Y-138784600D01*
X146210000Y-138751600D01*
X146246000Y-138721600D01*
X146283000Y-138692600D01*
X146322000Y-138665600D01*
X146362000Y-138641600D01*
X146403000Y-138618600D01*
X146446000Y-138598600D01*
X146489000Y-138580600D01*
X146534000Y-138564600D01*
X146579000Y-138551600D01*
X146625000Y-138540600D01*
X146671000Y-138531600D01*
X146718000Y-138525600D01*
X146765000Y-138521600D01*
X146812000Y-138520600D01*
X146859000Y-138521600D01*
G36*
X146859000Y-138521600D02*
G01*
X146906000Y-138525600D01*
X146953000Y-138531600D01*
X146999000Y-138540600D01*
X147045000Y-138551600D01*
X147090000Y-138564600D01*
X147135000Y-138580600D01*
X147178000Y-138598600D01*
X147221000Y-138618600D01*
X147262000Y-138641600D01*
X147302000Y-138665600D01*
X147341000Y-138692600D01*
X147378000Y-138721600D01*
X147414000Y-138751600D01*
X147448000Y-138784600D01*
X147481000Y-138818600D01*
X147511000Y-138854600D01*
X147540000Y-138891600D01*
X147567000Y-138930600D01*
X147591000Y-138970600D01*
X147614000Y-139011600D01*
X147634000Y-139054600D01*
X147652000Y-139097600D01*
X147668000Y-139142600D01*
X147681000Y-139187600D01*
X147692000Y-139233600D01*
X147701000Y-139279600D01*
X147707000Y-139326600D01*
X147711000Y-139373600D01*
X147712000Y-139420600D01*
X147712000Y-141920600D01*
X145912000Y-141920600D01*
X145912000Y-139420600D01*
X145913000Y-139373600D01*
X145917000Y-139326600D01*
X145923000Y-139279600D01*
X145932000Y-139233600D01*
X145943000Y-139187600D01*
X145956000Y-139142600D01*
X145972000Y-139097600D01*
X145990000Y-139054600D01*
X146010000Y-139011600D01*
X146033000Y-138970600D01*
X146057000Y-138930600D01*
X146084000Y-138891600D01*
X146113000Y-138854600D01*
X146143000Y-138818600D01*
X146176000Y-138784600D01*
X146210000Y-138751600D01*
X146246000Y-138721600D01*
X146283000Y-138692600D01*
X146322000Y-138665600D01*
X146362000Y-138641600D01*
X146403000Y-138618600D01*
X146446000Y-138598600D01*
X146489000Y-138580600D01*
X146534000Y-138564600D01*
X146579000Y-138551600D01*
X146625000Y-138540600D01*
X146671000Y-138531600D01*
X146718000Y-138525600D01*
X146765000Y-138521600D01*
X146812000Y-138520600D01*
X146859000Y-138521600D01*
G37*
X116963000Y-138522600D02*
X116979000Y-138524600D01*
X116994000Y-138527600D01*
X117010000Y-138530600D01*
X117025000Y-138535600D01*
X117040000Y-138540600D01*
X117054000Y-138546600D01*
X117068000Y-138553600D01*
X117082000Y-138560600D01*
X117095000Y-138568600D01*
X117108000Y-138577600D01*
X117121000Y-138587600D01*
X117133000Y-138597600D01*
X117144000Y-138608600D01*
X117155000Y-138619600D01*
X117165000Y-138631600D01*
X117175000Y-138644600D01*
X117184000Y-138657600D01*
X117192000Y-138670600D01*
X117199000Y-138684600D01*
X117206000Y-138698600D01*
X117212000Y-138712600D01*
X117217000Y-138727600D01*
X117222000Y-138742600D01*
X117225000Y-138758600D01*
X117228000Y-138773600D01*
X117230000Y-138789600D01*
X117232000Y-138804600D01*
X117232000Y-138820600D01*
X117232000Y-141920600D01*
X115432000Y-141920600D01*
X115432000Y-138820600D01*
X115432000Y-138804600D01*
X115434000Y-138789600D01*
X115436000Y-138773600D01*
X115439000Y-138758600D01*
X115442000Y-138742600D01*
X115447000Y-138727600D01*
X115452000Y-138712600D01*
X115458000Y-138698600D01*
X115465000Y-138684600D01*
X115472000Y-138670600D01*
X115480000Y-138657600D01*
X115489000Y-138644600D01*
X115499000Y-138631600D01*
X115509000Y-138619600D01*
X115520000Y-138608600D01*
X115531000Y-138597600D01*
X115543000Y-138587600D01*
X115556000Y-138577600D01*
X115569000Y-138568600D01*
X115582000Y-138560600D01*
X115596000Y-138553600D01*
X115610000Y-138546600D01*
X115624000Y-138540600D01*
X115639000Y-138535600D01*
X115654000Y-138530600D01*
X115670000Y-138527600D01*
X115685000Y-138524600D01*
X115701000Y-138522600D01*
X115716000Y-138520600D01*
X115732000Y-138520600D01*
X116932000Y-138520600D01*
X116948000Y-138520600D01*
X116963000Y-138522600D01*
G36*
X116963000Y-138522600D02*
G01*
X116979000Y-138524600D01*
X116994000Y-138527600D01*
X117010000Y-138530600D01*
X117025000Y-138535600D01*
X117040000Y-138540600D01*
X117054000Y-138546600D01*
X117068000Y-138553600D01*
X117082000Y-138560600D01*
X117095000Y-138568600D01*
X117108000Y-138577600D01*
X117121000Y-138587600D01*
X117133000Y-138597600D01*
X117144000Y-138608600D01*
X117155000Y-138619600D01*
X117165000Y-138631600D01*
X117175000Y-138644600D01*
X117184000Y-138657600D01*
X117192000Y-138670600D01*
X117199000Y-138684600D01*
X117206000Y-138698600D01*
X117212000Y-138712600D01*
X117217000Y-138727600D01*
X117222000Y-138742600D01*
X117225000Y-138758600D01*
X117228000Y-138773600D01*
X117230000Y-138789600D01*
X117232000Y-138804600D01*
X117232000Y-138820600D01*
X117232000Y-141920600D01*
X115432000Y-141920600D01*
X115432000Y-138820600D01*
X115432000Y-138804600D01*
X115434000Y-138789600D01*
X115436000Y-138773600D01*
X115439000Y-138758600D01*
X115442000Y-138742600D01*
X115447000Y-138727600D01*
X115452000Y-138712600D01*
X115458000Y-138698600D01*
X115465000Y-138684600D01*
X115472000Y-138670600D01*
X115480000Y-138657600D01*
X115489000Y-138644600D01*
X115499000Y-138631600D01*
X115509000Y-138619600D01*
X115520000Y-138608600D01*
X115531000Y-138597600D01*
X115543000Y-138587600D01*
X115556000Y-138577600D01*
X115569000Y-138568600D01*
X115582000Y-138560600D01*
X115596000Y-138553600D01*
X115610000Y-138546600D01*
X115624000Y-138540600D01*
X115639000Y-138535600D01*
X115654000Y-138530600D01*
X115670000Y-138527600D01*
X115685000Y-138524600D01*
X115701000Y-138522600D01*
X115716000Y-138520600D01*
X115732000Y-138520600D01*
X116932000Y-138520600D01*
X116948000Y-138520600D01*
X116963000Y-138522600D01*
G37*
X129663000Y-138522600D02*
X129679000Y-138524600D01*
X129694000Y-138527600D01*
X129710000Y-138530600D01*
X129725000Y-138535600D01*
X129740000Y-138540600D01*
X129754000Y-138546600D01*
X129768000Y-138553600D01*
X129782000Y-138560600D01*
X129795000Y-138568600D01*
X129808000Y-138577600D01*
X129821000Y-138587600D01*
X129833000Y-138597600D01*
X129844000Y-138608600D01*
X129855000Y-138619600D01*
X129865000Y-138631600D01*
X129875000Y-138644600D01*
X129884000Y-138657600D01*
X129892000Y-138670600D01*
X129899000Y-138684600D01*
X129906000Y-138698600D01*
X129912000Y-138712600D01*
X129917000Y-138727600D01*
X129922000Y-138742600D01*
X129925000Y-138758600D01*
X129928000Y-138773600D01*
X129930000Y-138789600D01*
X129932000Y-138804600D01*
X129932000Y-138820600D01*
X129932000Y-141920600D01*
X128132000Y-141920600D01*
X128132000Y-138820600D01*
X128132000Y-138804600D01*
X128134000Y-138789600D01*
X128136000Y-138773600D01*
X128139000Y-138758600D01*
X128142000Y-138742600D01*
X128147000Y-138727600D01*
X128152000Y-138712600D01*
X128158000Y-138698600D01*
X128165000Y-138684600D01*
X128172000Y-138670600D01*
X128180000Y-138657600D01*
X128189000Y-138644600D01*
X128199000Y-138631600D01*
X128209000Y-138619600D01*
X128220000Y-138608600D01*
X128231000Y-138597600D01*
X128243000Y-138587600D01*
X128256000Y-138577600D01*
X128269000Y-138568600D01*
X128282000Y-138560600D01*
X128296000Y-138553600D01*
X128310000Y-138546600D01*
X128324000Y-138540600D01*
X128339000Y-138535600D01*
X128354000Y-138530600D01*
X128370000Y-138527600D01*
X128385000Y-138524600D01*
X128401000Y-138522600D01*
X128416000Y-138520600D01*
X128432000Y-138520600D01*
X129632000Y-138520600D01*
X129648000Y-138520600D01*
X129663000Y-138522600D01*
G36*
X129663000Y-138522600D02*
G01*
X129679000Y-138524600D01*
X129694000Y-138527600D01*
X129710000Y-138530600D01*
X129725000Y-138535600D01*
X129740000Y-138540600D01*
X129754000Y-138546600D01*
X129768000Y-138553600D01*
X129782000Y-138560600D01*
X129795000Y-138568600D01*
X129808000Y-138577600D01*
X129821000Y-138587600D01*
X129833000Y-138597600D01*
X129844000Y-138608600D01*
X129855000Y-138619600D01*
X129865000Y-138631600D01*
X129875000Y-138644600D01*
X129884000Y-138657600D01*
X129892000Y-138670600D01*
X129899000Y-138684600D01*
X129906000Y-138698600D01*
X129912000Y-138712600D01*
X129917000Y-138727600D01*
X129922000Y-138742600D01*
X129925000Y-138758600D01*
X129928000Y-138773600D01*
X129930000Y-138789600D01*
X129932000Y-138804600D01*
X129932000Y-138820600D01*
X129932000Y-141920600D01*
X128132000Y-141920600D01*
X128132000Y-138820600D01*
X128132000Y-138804600D01*
X128134000Y-138789600D01*
X128136000Y-138773600D01*
X128139000Y-138758600D01*
X128142000Y-138742600D01*
X128147000Y-138727600D01*
X128152000Y-138712600D01*
X128158000Y-138698600D01*
X128165000Y-138684600D01*
X128172000Y-138670600D01*
X128180000Y-138657600D01*
X128189000Y-138644600D01*
X128199000Y-138631600D01*
X128209000Y-138619600D01*
X128220000Y-138608600D01*
X128231000Y-138597600D01*
X128243000Y-138587600D01*
X128256000Y-138577600D01*
X128269000Y-138568600D01*
X128282000Y-138560600D01*
X128296000Y-138553600D01*
X128310000Y-138546600D01*
X128324000Y-138540600D01*
X128339000Y-138535600D01*
X128354000Y-138530600D01*
X128370000Y-138527600D01*
X128385000Y-138524600D01*
X128401000Y-138522600D01*
X128416000Y-138520600D01*
X128432000Y-138520600D01*
X129632000Y-138520600D01*
X129648000Y-138520600D01*
X129663000Y-138522600D01*
G37*
X142363000Y-138522600D02*
X142379000Y-138524600D01*
X142394000Y-138527600D01*
X142410000Y-138530600D01*
X142425000Y-138535600D01*
X142440000Y-138540600D01*
X142454000Y-138546600D01*
X142468000Y-138553600D01*
X142482000Y-138560600D01*
X142495000Y-138568600D01*
X142508000Y-138577600D01*
X142521000Y-138587600D01*
X142533000Y-138597600D01*
X142544000Y-138608600D01*
X142555000Y-138619600D01*
X142565000Y-138631600D01*
X142575000Y-138644600D01*
X142584000Y-138657600D01*
X142592000Y-138670600D01*
X142599000Y-138684600D01*
X142606000Y-138698600D01*
X142612000Y-138712600D01*
X142617000Y-138727600D01*
X142622000Y-138742600D01*
X142625000Y-138758600D01*
X142628000Y-138773600D01*
X142630000Y-138789600D01*
X142632000Y-138804600D01*
X142632000Y-138820600D01*
X142632000Y-141920600D01*
X140832000Y-141920600D01*
X140832000Y-138820600D01*
X140832000Y-138804600D01*
X140834000Y-138789600D01*
X140836000Y-138773600D01*
X140839000Y-138758600D01*
X140842000Y-138742600D01*
X140847000Y-138727600D01*
X140852000Y-138712600D01*
X140858000Y-138698600D01*
X140865000Y-138684600D01*
X140872000Y-138670600D01*
X140880000Y-138657600D01*
X140889000Y-138644600D01*
X140899000Y-138631600D01*
X140909000Y-138619600D01*
X140920000Y-138608600D01*
X140931000Y-138597600D01*
X140943000Y-138587600D01*
X140956000Y-138577600D01*
X140969000Y-138568600D01*
X140982000Y-138560600D01*
X140996000Y-138553600D01*
X141010000Y-138546600D01*
X141024000Y-138540600D01*
X141039000Y-138535600D01*
X141054000Y-138530600D01*
X141070000Y-138527600D01*
X141085000Y-138524600D01*
X141101000Y-138522600D01*
X141116000Y-138520600D01*
X141132000Y-138520600D01*
X142332000Y-138520600D01*
X142348000Y-138520600D01*
X142363000Y-138522600D01*
G36*
X142363000Y-138522600D02*
G01*
X142379000Y-138524600D01*
X142394000Y-138527600D01*
X142410000Y-138530600D01*
X142425000Y-138535600D01*
X142440000Y-138540600D01*
X142454000Y-138546600D01*
X142468000Y-138553600D01*
X142482000Y-138560600D01*
X142495000Y-138568600D01*
X142508000Y-138577600D01*
X142521000Y-138587600D01*
X142533000Y-138597600D01*
X142544000Y-138608600D01*
X142555000Y-138619600D01*
X142565000Y-138631600D01*
X142575000Y-138644600D01*
X142584000Y-138657600D01*
X142592000Y-138670600D01*
X142599000Y-138684600D01*
X142606000Y-138698600D01*
X142612000Y-138712600D01*
X142617000Y-138727600D01*
X142622000Y-138742600D01*
X142625000Y-138758600D01*
X142628000Y-138773600D01*
X142630000Y-138789600D01*
X142632000Y-138804600D01*
X142632000Y-138820600D01*
X142632000Y-141920600D01*
X140832000Y-141920600D01*
X140832000Y-138820600D01*
X140832000Y-138804600D01*
X140834000Y-138789600D01*
X140836000Y-138773600D01*
X140839000Y-138758600D01*
X140842000Y-138742600D01*
X140847000Y-138727600D01*
X140852000Y-138712600D01*
X140858000Y-138698600D01*
X140865000Y-138684600D01*
X140872000Y-138670600D01*
X140880000Y-138657600D01*
X140889000Y-138644600D01*
X140899000Y-138631600D01*
X140909000Y-138619600D01*
X140920000Y-138608600D01*
X140931000Y-138597600D01*
X140943000Y-138587600D01*
X140956000Y-138577600D01*
X140969000Y-138568600D01*
X140982000Y-138560600D01*
X140996000Y-138553600D01*
X141010000Y-138546600D01*
X141024000Y-138540600D01*
X141039000Y-138535600D01*
X141054000Y-138530600D01*
X141070000Y-138527600D01*
X141085000Y-138524600D01*
X141101000Y-138522600D01*
X141116000Y-138520600D01*
X141132000Y-138520600D01*
X142332000Y-138520600D01*
X142348000Y-138520600D01*
X142363000Y-138522600D01*
G37*
X101992000Y-121640600D02*
X101991000Y-121687600D01*
X101987000Y-121734600D01*
X101981000Y-121781600D01*
X101972000Y-121827600D01*
X101961000Y-121873600D01*
X101948000Y-121918600D01*
X101932000Y-121963600D01*
X101914000Y-122006600D01*
X101894000Y-122049600D01*
X101871000Y-122090600D01*
X101847000Y-122130600D01*
X101820000Y-122169600D01*
X101791000Y-122206600D01*
X101761000Y-122242600D01*
X101728000Y-122276600D01*
X101694000Y-122309600D01*
X101658000Y-122339600D01*
X101621000Y-122368600D01*
X101582000Y-122395600D01*
X101542000Y-122419600D01*
X101501000Y-122442600D01*
X101458000Y-122462600D01*
X101415000Y-122480600D01*
X101370000Y-122496600D01*
X101325000Y-122509600D01*
X101279000Y-122520600D01*
X101233000Y-122529600D01*
X101186000Y-122535600D01*
X101139000Y-122539600D01*
X101092000Y-122540600D01*
X101045000Y-122539600D01*
X100998000Y-122535600D01*
X100951000Y-122529600D01*
X100905000Y-122520600D01*
X100859000Y-122509600D01*
X100814000Y-122496600D01*
X100769000Y-122480600D01*
X100726000Y-122462600D01*
X100683000Y-122442600D01*
X100642000Y-122419600D01*
X100602000Y-122395600D01*
X100563000Y-122368600D01*
X100526000Y-122339600D01*
X100490000Y-122309600D01*
X100456000Y-122276600D01*
X100423000Y-122242600D01*
X100393000Y-122206600D01*
X100364000Y-122169600D01*
X100337000Y-122130600D01*
X100313000Y-122090600D01*
X100290000Y-122049600D01*
X100270000Y-122006600D01*
X100252000Y-121963600D01*
X100236000Y-121918600D01*
X100223000Y-121873600D01*
X100212000Y-121827600D01*
X100203000Y-121781600D01*
X100197000Y-121734600D01*
X100193000Y-121687600D01*
X100192000Y-121640600D01*
X100192000Y-119140600D01*
X101992000Y-119140600D01*
X101992000Y-121640600D01*
G36*
X101992000Y-121640600D02*
G01*
X101991000Y-121687600D01*
X101987000Y-121734600D01*
X101981000Y-121781600D01*
X101972000Y-121827600D01*
X101961000Y-121873600D01*
X101948000Y-121918600D01*
X101932000Y-121963600D01*
X101914000Y-122006600D01*
X101894000Y-122049600D01*
X101871000Y-122090600D01*
X101847000Y-122130600D01*
X101820000Y-122169600D01*
X101791000Y-122206600D01*
X101761000Y-122242600D01*
X101728000Y-122276600D01*
X101694000Y-122309600D01*
X101658000Y-122339600D01*
X101621000Y-122368600D01*
X101582000Y-122395600D01*
X101542000Y-122419600D01*
X101501000Y-122442600D01*
X101458000Y-122462600D01*
X101415000Y-122480600D01*
X101370000Y-122496600D01*
X101325000Y-122509600D01*
X101279000Y-122520600D01*
X101233000Y-122529600D01*
X101186000Y-122535600D01*
X101139000Y-122539600D01*
X101092000Y-122540600D01*
X101045000Y-122539600D01*
X100998000Y-122535600D01*
X100951000Y-122529600D01*
X100905000Y-122520600D01*
X100859000Y-122509600D01*
X100814000Y-122496600D01*
X100769000Y-122480600D01*
X100726000Y-122462600D01*
X100683000Y-122442600D01*
X100642000Y-122419600D01*
X100602000Y-122395600D01*
X100563000Y-122368600D01*
X100526000Y-122339600D01*
X100490000Y-122309600D01*
X100456000Y-122276600D01*
X100423000Y-122242600D01*
X100393000Y-122206600D01*
X100364000Y-122169600D01*
X100337000Y-122130600D01*
X100313000Y-122090600D01*
X100290000Y-122049600D01*
X100270000Y-122006600D01*
X100252000Y-121963600D01*
X100236000Y-121918600D01*
X100223000Y-121873600D01*
X100212000Y-121827600D01*
X100203000Y-121781600D01*
X100197000Y-121734600D01*
X100193000Y-121687600D01*
X100192000Y-121640600D01*
X100192000Y-119140600D01*
X101992000Y-119140600D01*
X101992000Y-121640600D01*
G37*
X107072000Y-121640600D02*
X107071000Y-121687600D01*
X107067000Y-121734600D01*
X107061000Y-121781600D01*
X107052000Y-121827600D01*
X107041000Y-121873600D01*
X107028000Y-121918600D01*
X107012000Y-121963600D01*
X106994000Y-122006600D01*
X106974000Y-122049600D01*
X106951000Y-122090600D01*
X106927000Y-122130600D01*
X106900000Y-122169600D01*
X106871000Y-122206600D01*
X106841000Y-122242600D01*
X106808000Y-122276600D01*
X106774000Y-122309600D01*
X106738000Y-122339600D01*
X106701000Y-122368600D01*
X106662000Y-122395600D01*
X106622000Y-122419600D01*
X106581000Y-122442600D01*
X106538000Y-122462600D01*
X106495000Y-122480600D01*
X106450000Y-122496600D01*
X106405000Y-122509600D01*
X106359000Y-122520600D01*
X106313000Y-122529600D01*
X106266000Y-122535600D01*
X106219000Y-122539600D01*
X106172000Y-122540600D01*
X106125000Y-122539600D01*
X106078000Y-122535600D01*
X106031000Y-122529600D01*
X105985000Y-122520600D01*
X105939000Y-122509600D01*
X105894000Y-122496600D01*
X105849000Y-122480600D01*
X105806000Y-122462600D01*
X105763000Y-122442600D01*
X105722000Y-122419600D01*
X105682000Y-122395600D01*
X105643000Y-122368600D01*
X105606000Y-122339600D01*
X105570000Y-122309600D01*
X105536000Y-122276600D01*
X105503000Y-122242600D01*
X105473000Y-122206600D01*
X105444000Y-122169600D01*
X105417000Y-122130600D01*
X105393000Y-122090600D01*
X105370000Y-122049600D01*
X105350000Y-122006600D01*
X105332000Y-121963600D01*
X105316000Y-121918600D01*
X105303000Y-121873600D01*
X105292000Y-121827600D01*
X105283000Y-121781600D01*
X105277000Y-121734600D01*
X105273000Y-121687600D01*
X105272000Y-121640600D01*
X105272000Y-119140600D01*
X107072000Y-119140600D01*
X107072000Y-121640600D01*
G36*
X107072000Y-121640600D02*
G01*
X107071000Y-121687600D01*
X107067000Y-121734600D01*
X107061000Y-121781600D01*
X107052000Y-121827600D01*
X107041000Y-121873600D01*
X107028000Y-121918600D01*
X107012000Y-121963600D01*
X106994000Y-122006600D01*
X106974000Y-122049600D01*
X106951000Y-122090600D01*
X106927000Y-122130600D01*
X106900000Y-122169600D01*
X106871000Y-122206600D01*
X106841000Y-122242600D01*
X106808000Y-122276600D01*
X106774000Y-122309600D01*
X106738000Y-122339600D01*
X106701000Y-122368600D01*
X106662000Y-122395600D01*
X106622000Y-122419600D01*
X106581000Y-122442600D01*
X106538000Y-122462600D01*
X106495000Y-122480600D01*
X106450000Y-122496600D01*
X106405000Y-122509600D01*
X106359000Y-122520600D01*
X106313000Y-122529600D01*
X106266000Y-122535600D01*
X106219000Y-122539600D01*
X106172000Y-122540600D01*
X106125000Y-122539600D01*
X106078000Y-122535600D01*
X106031000Y-122529600D01*
X105985000Y-122520600D01*
X105939000Y-122509600D01*
X105894000Y-122496600D01*
X105849000Y-122480600D01*
X105806000Y-122462600D01*
X105763000Y-122442600D01*
X105722000Y-122419600D01*
X105682000Y-122395600D01*
X105643000Y-122368600D01*
X105606000Y-122339600D01*
X105570000Y-122309600D01*
X105536000Y-122276600D01*
X105503000Y-122242600D01*
X105473000Y-122206600D01*
X105444000Y-122169600D01*
X105417000Y-122130600D01*
X105393000Y-122090600D01*
X105370000Y-122049600D01*
X105350000Y-122006600D01*
X105332000Y-121963600D01*
X105316000Y-121918600D01*
X105303000Y-121873600D01*
X105292000Y-121827600D01*
X105283000Y-121781600D01*
X105277000Y-121734600D01*
X105273000Y-121687600D01*
X105272000Y-121640600D01*
X105272000Y-119140600D01*
X107072000Y-119140600D01*
X107072000Y-121640600D01*
G37*
X109612000Y-121640600D02*
X109611000Y-121687600D01*
X109607000Y-121734600D01*
X109601000Y-121781600D01*
X109592000Y-121827600D01*
X109581000Y-121873600D01*
X109568000Y-121918600D01*
X109552000Y-121963600D01*
X109534000Y-122006600D01*
X109514000Y-122049600D01*
X109491000Y-122090600D01*
X109467000Y-122130600D01*
X109440000Y-122169600D01*
X109411000Y-122206600D01*
X109381000Y-122242600D01*
X109348000Y-122276600D01*
X109314000Y-122309600D01*
X109278000Y-122339600D01*
X109241000Y-122368600D01*
X109202000Y-122395600D01*
X109162000Y-122419600D01*
X109121000Y-122442600D01*
X109078000Y-122462600D01*
X109035000Y-122480600D01*
X108990000Y-122496600D01*
X108945000Y-122509600D01*
X108899000Y-122520600D01*
X108853000Y-122529600D01*
X108806000Y-122535600D01*
X108759000Y-122539600D01*
X108712000Y-122540600D01*
X108665000Y-122539600D01*
X108618000Y-122535600D01*
X108571000Y-122529600D01*
X108525000Y-122520600D01*
X108479000Y-122509600D01*
X108434000Y-122496600D01*
X108389000Y-122480600D01*
X108346000Y-122462600D01*
X108303000Y-122442600D01*
X108262000Y-122419600D01*
X108222000Y-122395600D01*
X108183000Y-122368600D01*
X108146000Y-122339600D01*
X108110000Y-122309600D01*
X108076000Y-122276600D01*
X108043000Y-122242600D01*
X108013000Y-122206600D01*
X107984000Y-122169600D01*
X107957000Y-122130600D01*
X107933000Y-122090600D01*
X107910000Y-122049600D01*
X107890000Y-122006600D01*
X107872000Y-121963600D01*
X107856000Y-121918600D01*
X107843000Y-121873600D01*
X107832000Y-121827600D01*
X107823000Y-121781600D01*
X107817000Y-121734600D01*
X107813000Y-121687600D01*
X107812000Y-121640600D01*
X107812000Y-119140600D01*
X109612000Y-119140600D01*
X109612000Y-121640600D01*
G36*
X109612000Y-121640600D02*
G01*
X109611000Y-121687600D01*
X109607000Y-121734600D01*
X109601000Y-121781600D01*
X109592000Y-121827600D01*
X109581000Y-121873600D01*
X109568000Y-121918600D01*
X109552000Y-121963600D01*
X109534000Y-122006600D01*
X109514000Y-122049600D01*
X109491000Y-122090600D01*
X109467000Y-122130600D01*
X109440000Y-122169600D01*
X109411000Y-122206600D01*
X109381000Y-122242600D01*
X109348000Y-122276600D01*
X109314000Y-122309600D01*
X109278000Y-122339600D01*
X109241000Y-122368600D01*
X109202000Y-122395600D01*
X109162000Y-122419600D01*
X109121000Y-122442600D01*
X109078000Y-122462600D01*
X109035000Y-122480600D01*
X108990000Y-122496600D01*
X108945000Y-122509600D01*
X108899000Y-122520600D01*
X108853000Y-122529600D01*
X108806000Y-122535600D01*
X108759000Y-122539600D01*
X108712000Y-122540600D01*
X108665000Y-122539600D01*
X108618000Y-122535600D01*
X108571000Y-122529600D01*
X108525000Y-122520600D01*
X108479000Y-122509600D01*
X108434000Y-122496600D01*
X108389000Y-122480600D01*
X108346000Y-122462600D01*
X108303000Y-122442600D01*
X108262000Y-122419600D01*
X108222000Y-122395600D01*
X108183000Y-122368600D01*
X108146000Y-122339600D01*
X108110000Y-122309600D01*
X108076000Y-122276600D01*
X108043000Y-122242600D01*
X108013000Y-122206600D01*
X107984000Y-122169600D01*
X107957000Y-122130600D01*
X107933000Y-122090600D01*
X107910000Y-122049600D01*
X107890000Y-122006600D01*
X107872000Y-121963600D01*
X107856000Y-121918600D01*
X107843000Y-121873600D01*
X107832000Y-121827600D01*
X107823000Y-121781600D01*
X107817000Y-121734600D01*
X107813000Y-121687600D01*
X107812000Y-121640600D01*
X107812000Y-119140600D01*
X109612000Y-119140600D01*
X109612000Y-121640600D01*
G37*
X112152000Y-121640600D02*
X112151000Y-121687600D01*
X112147000Y-121734600D01*
X112141000Y-121781600D01*
X112132000Y-121827600D01*
X112121000Y-121873600D01*
X112108000Y-121918600D01*
X112092000Y-121963600D01*
X112074000Y-122006600D01*
X112054000Y-122049600D01*
X112031000Y-122090600D01*
X112007000Y-122130600D01*
X111980000Y-122169600D01*
X111951000Y-122206600D01*
X111921000Y-122242600D01*
X111888000Y-122276600D01*
X111854000Y-122309600D01*
X111818000Y-122339600D01*
X111781000Y-122368600D01*
X111742000Y-122395600D01*
X111702000Y-122419600D01*
X111661000Y-122442600D01*
X111618000Y-122462600D01*
X111575000Y-122480600D01*
X111530000Y-122496600D01*
X111485000Y-122509600D01*
X111439000Y-122520600D01*
X111393000Y-122529600D01*
X111346000Y-122535600D01*
X111299000Y-122539600D01*
X111252000Y-122540600D01*
X111205000Y-122539600D01*
X111158000Y-122535600D01*
X111111000Y-122529600D01*
X111065000Y-122520600D01*
X111019000Y-122509600D01*
X110974000Y-122496600D01*
X110929000Y-122480600D01*
X110886000Y-122462600D01*
X110843000Y-122442600D01*
X110802000Y-122419600D01*
X110762000Y-122395600D01*
X110723000Y-122368600D01*
X110686000Y-122339600D01*
X110650000Y-122309600D01*
X110616000Y-122276600D01*
X110583000Y-122242600D01*
X110553000Y-122206600D01*
X110524000Y-122169600D01*
X110497000Y-122130600D01*
X110473000Y-122090600D01*
X110450000Y-122049600D01*
X110430000Y-122006600D01*
X110412000Y-121963600D01*
X110396000Y-121918600D01*
X110383000Y-121873600D01*
X110372000Y-121827600D01*
X110363000Y-121781600D01*
X110357000Y-121734600D01*
X110353000Y-121687600D01*
X110352000Y-121640600D01*
X110352000Y-119140600D01*
X112152000Y-119140600D01*
X112152000Y-121640600D01*
G36*
X112152000Y-121640600D02*
G01*
X112151000Y-121687600D01*
X112147000Y-121734600D01*
X112141000Y-121781600D01*
X112132000Y-121827600D01*
X112121000Y-121873600D01*
X112108000Y-121918600D01*
X112092000Y-121963600D01*
X112074000Y-122006600D01*
X112054000Y-122049600D01*
X112031000Y-122090600D01*
X112007000Y-122130600D01*
X111980000Y-122169600D01*
X111951000Y-122206600D01*
X111921000Y-122242600D01*
X111888000Y-122276600D01*
X111854000Y-122309600D01*
X111818000Y-122339600D01*
X111781000Y-122368600D01*
X111742000Y-122395600D01*
X111702000Y-122419600D01*
X111661000Y-122442600D01*
X111618000Y-122462600D01*
X111575000Y-122480600D01*
X111530000Y-122496600D01*
X111485000Y-122509600D01*
X111439000Y-122520600D01*
X111393000Y-122529600D01*
X111346000Y-122535600D01*
X111299000Y-122539600D01*
X111252000Y-122540600D01*
X111205000Y-122539600D01*
X111158000Y-122535600D01*
X111111000Y-122529600D01*
X111065000Y-122520600D01*
X111019000Y-122509600D01*
X110974000Y-122496600D01*
X110929000Y-122480600D01*
X110886000Y-122462600D01*
X110843000Y-122442600D01*
X110802000Y-122419600D01*
X110762000Y-122395600D01*
X110723000Y-122368600D01*
X110686000Y-122339600D01*
X110650000Y-122309600D01*
X110616000Y-122276600D01*
X110583000Y-122242600D01*
X110553000Y-122206600D01*
X110524000Y-122169600D01*
X110497000Y-122130600D01*
X110473000Y-122090600D01*
X110450000Y-122049600D01*
X110430000Y-122006600D01*
X110412000Y-121963600D01*
X110396000Y-121918600D01*
X110383000Y-121873600D01*
X110372000Y-121827600D01*
X110363000Y-121781600D01*
X110357000Y-121734600D01*
X110353000Y-121687600D01*
X110352000Y-121640600D01*
X110352000Y-119140600D01*
X112152000Y-119140600D01*
X112152000Y-121640600D01*
G37*
X114692000Y-121640600D02*
X114691000Y-121687600D01*
X114687000Y-121734600D01*
X114681000Y-121781600D01*
X114672000Y-121827600D01*
X114661000Y-121873600D01*
X114648000Y-121918600D01*
X114632000Y-121963600D01*
X114614000Y-122006600D01*
X114594000Y-122049600D01*
X114571000Y-122090600D01*
X114547000Y-122130600D01*
X114520000Y-122169600D01*
X114491000Y-122206600D01*
X114461000Y-122242600D01*
X114428000Y-122276600D01*
X114394000Y-122309600D01*
X114358000Y-122339600D01*
X114321000Y-122368600D01*
X114282000Y-122395600D01*
X114242000Y-122419600D01*
X114201000Y-122442600D01*
X114158000Y-122462600D01*
X114115000Y-122480600D01*
X114070000Y-122496600D01*
X114025000Y-122509600D01*
X113979000Y-122520600D01*
X113933000Y-122529600D01*
X113886000Y-122535600D01*
X113839000Y-122539600D01*
X113792000Y-122540600D01*
X113745000Y-122539600D01*
X113698000Y-122535600D01*
X113651000Y-122529600D01*
X113605000Y-122520600D01*
X113559000Y-122509600D01*
X113514000Y-122496600D01*
X113469000Y-122480600D01*
X113426000Y-122462600D01*
X113383000Y-122442600D01*
X113342000Y-122419600D01*
X113302000Y-122395600D01*
X113263000Y-122368600D01*
X113226000Y-122339600D01*
X113190000Y-122309600D01*
X113156000Y-122276600D01*
X113123000Y-122242600D01*
X113093000Y-122206600D01*
X113064000Y-122169600D01*
X113037000Y-122130600D01*
X113013000Y-122090600D01*
X112990000Y-122049600D01*
X112970000Y-122006600D01*
X112952000Y-121963600D01*
X112936000Y-121918600D01*
X112923000Y-121873600D01*
X112912000Y-121827600D01*
X112903000Y-121781600D01*
X112897000Y-121734600D01*
X112893000Y-121687600D01*
X112892000Y-121640600D01*
X112892000Y-119140600D01*
X114692000Y-119140600D01*
X114692000Y-121640600D01*
G36*
X114692000Y-121640600D02*
G01*
X114691000Y-121687600D01*
X114687000Y-121734600D01*
X114681000Y-121781600D01*
X114672000Y-121827600D01*
X114661000Y-121873600D01*
X114648000Y-121918600D01*
X114632000Y-121963600D01*
X114614000Y-122006600D01*
X114594000Y-122049600D01*
X114571000Y-122090600D01*
X114547000Y-122130600D01*
X114520000Y-122169600D01*
X114491000Y-122206600D01*
X114461000Y-122242600D01*
X114428000Y-122276600D01*
X114394000Y-122309600D01*
X114358000Y-122339600D01*
X114321000Y-122368600D01*
X114282000Y-122395600D01*
X114242000Y-122419600D01*
X114201000Y-122442600D01*
X114158000Y-122462600D01*
X114115000Y-122480600D01*
X114070000Y-122496600D01*
X114025000Y-122509600D01*
X113979000Y-122520600D01*
X113933000Y-122529600D01*
X113886000Y-122535600D01*
X113839000Y-122539600D01*
X113792000Y-122540600D01*
X113745000Y-122539600D01*
X113698000Y-122535600D01*
X113651000Y-122529600D01*
X113605000Y-122520600D01*
X113559000Y-122509600D01*
X113514000Y-122496600D01*
X113469000Y-122480600D01*
X113426000Y-122462600D01*
X113383000Y-122442600D01*
X113342000Y-122419600D01*
X113302000Y-122395600D01*
X113263000Y-122368600D01*
X113226000Y-122339600D01*
X113190000Y-122309600D01*
X113156000Y-122276600D01*
X113123000Y-122242600D01*
X113093000Y-122206600D01*
X113064000Y-122169600D01*
X113037000Y-122130600D01*
X113013000Y-122090600D01*
X112990000Y-122049600D01*
X112970000Y-122006600D01*
X112952000Y-121963600D01*
X112936000Y-121918600D01*
X112923000Y-121873600D01*
X112912000Y-121827600D01*
X112903000Y-121781600D01*
X112897000Y-121734600D01*
X112893000Y-121687600D01*
X112892000Y-121640600D01*
X112892000Y-119140600D01*
X114692000Y-119140600D01*
X114692000Y-121640600D01*
G37*
X119772000Y-121640600D02*
X119771000Y-121687600D01*
X119767000Y-121734600D01*
X119761000Y-121781600D01*
X119752000Y-121827600D01*
X119741000Y-121873600D01*
X119728000Y-121918600D01*
X119712000Y-121963600D01*
X119694000Y-122006600D01*
X119674000Y-122049600D01*
X119651000Y-122090600D01*
X119627000Y-122130600D01*
X119600000Y-122169600D01*
X119571000Y-122206600D01*
X119541000Y-122242600D01*
X119508000Y-122276600D01*
X119474000Y-122309600D01*
X119438000Y-122339600D01*
X119401000Y-122368600D01*
X119362000Y-122395600D01*
X119322000Y-122419600D01*
X119281000Y-122442600D01*
X119238000Y-122462600D01*
X119195000Y-122480600D01*
X119150000Y-122496600D01*
X119105000Y-122509600D01*
X119059000Y-122520600D01*
X119013000Y-122529600D01*
X118966000Y-122535600D01*
X118919000Y-122539600D01*
X118872000Y-122540600D01*
X118825000Y-122539600D01*
X118778000Y-122535600D01*
X118731000Y-122529600D01*
X118685000Y-122520600D01*
X118639000Y-122509600D01*
X118594000Y-122496600D01*
X118549000Y-122480600D01*
X118506000Y-122462600D01*
X118463000Y-122442600D01*
X118422000Y-122419600D01*
X118382000Y-122395600D01*
X118343000Y-122368600D01*
X118306000Y-122339600D01*
X118270000Y-122309600D01*
X118236000Y-122276600D01*
X118203000Y-122242600D01*
X118173000Y-122206600D01*
X118144000Y-122169600D01*
X118117000Y-122130600D01*
X118093000Y-122090600D01*
X118070000Y-122049600D01*
X118050000Y-122006600D01*
X118032000Y-121963600D01*
X118016000Y-121918600D01*
X118003000Y-121873600D01*
X117992000Y-121827600D01*
X117983000Y-121781600D01*
X117977000Y-121734600D01*
X117973000Y-121687600D01*
X117972000Y-121640600D01*
X117972000Y-119140600D01*
X119772000Y-119140600D01*
X119772000Y-121640600D01*
G36*
X119772000Y-121640600D02*
G01*
X119771000Y-121687600D01*
X119767000Y-121734600D01*
X119761000Y-121781600D01*
X119752000Y-121827600D01*
X119741000Y-121873600D01*
X119728000Y-121918600D01*
X119712000Y-121963600D01*
X119694000Y-122006600D01*
X119674000Y-122049600D01*
X119651000Y-122090600D01*
X119627000Y-122130600D01*
X119600000Y-122169600D01*
X119571000Y-122206600D01*
X119541000Y-122242600D01*
X119508000Y-122276600D01*
X119474000Y-122309600D01*
X119438000Y-122339600D01*
X119401000Y-122368600D01*
X119362000Y-122395600D01*
X119322000Y-122419600D01*
X119281000Y-122442600D01*
X119238000Y-122462600D01*
X119195000Y-122480600D01*
X119150000Y-122496600D01*
X119105000Y-122509600D01*
X119059000Y-122520600D01*
X119013000Y-122529600D01*
X118966000Y-122535600D01*
X118919000Y-122539600D01*
X118872000Y-122540600D01*
X118825000Y-122539600D01*
X118778000Y-122535600D01*
X118731000Y-122529600D01*
X118685000Y-122520600D01*
X118639000Y-122509600D01*
X118594000Y-122496600D01*
X118549000Y-122480600D01*
X118506000Y-122462600D01*
X118463000Y-122442600D01*
X118422000Y-122419600D01*
X118382000Y-122395600D01*
X118343000Y-122368600D01*
X118306000Y-122339600D01*
X118270000Y-122309600D01*
X118236000Y-122276600D01*
X118203000Y-122242600D01*
X118173000Y-122206600D01*
X118144000Y-122169600D01*
X118117000Y-122130600D01*
X118093000Y-122090600D01*
X118070000Y-122049600D01*
X118050000Y-122006600D01*
X118032000Y-121963600D01*
X118016000Y-121918600D01*
X118003000Y-121873600D01*
X117992000Y-121827600D01*
X117983000Y-121781600D01*
X117977000Y-121734600D01*
X117973000Y-121687600D01*
X117972000Y-121640600D01*
X117972000Y-119140600D01*
X119772000Y-119140600D01*
X119772000Y-121640600D01*
G37*
X122312000Y-121640600D02*
X122311000Y-121687600D01*
X122307000Y-121734600D01*
X122301000Y-121781600D01*
X122292000Y-121827600D01*
X122281000Y-121873600D01*
X122268000Y-121918600D01*
X122252000Y-121963600D01*
X122234000Y-122006600D01*
X122214000Y-122049600D01*
X122191000Y-122090600D01*
X122167000Y-122130600D01*
X122140000Y-122169600D01*
X122111000Y-122206600D01*
X122081000Y-122242600D01*
X122048000Y-122276600D01*
X122014000Y-122309600D01*
X121978000Y-122339600D01*
X121941000Y-122368600D01*
X121902000Y-122395600D01*
X121862000Y-122419600D01*
X121821000Y-122442600D01*
X121778000Y-122462600D01*
X121735000Y-122480600D01*
X121690000Y-122496600D01*
X121645000Y-122509600D01*
X121599000Y-122520600D01*
X121553000Y-122529600D01*
X121506000Y-122535600D01*
X121459000Y-122539600D01*
X121412000Y-122540600D01*
X121365000Y-122539600D01*
X121318000Y-122535600D01*
X121271000Y-122529600D01*
X121225000Y-122520600D01*
X121179000Y-122509600D01*
X121134000Y-122496600D01*
X121089000Y-122480600D01*
X121046000Y-122462600D01*
X121003000Y-122442600D01*
X120962000Y-122419600D01*
X120922000Y-122395600D01*
X120883000Y-122368600D01*
X120846000Y-122339600D01*
X120810000Y-122309600D01*
X120776000Y-122276600D01*
X120743000Y-122242600D01*
X120713000Y-122206600D01*
X120684000Y-122169600D01*
X120657000Y-122130600D01*
X120633000Y-122090600D01*
X120610000Y-122049600D01*
X120590000Y-122006600D01*
X120572000Y-121963600D01*
X120556000Y-121918600D01*
X120543000Y-121873600D01*
X120532000Y-121827600D01*
X120523000Y-121781600D01*
X120517000Y-121734600D01*
X120513000Y-121687600D01*
X120512000Y-121640600D01*
X120512000Y-119140600D01*
X122312000Y-119140600D01*
X122312000Y-121640600D01*
G36*
X122312000Y-121640600D02*
G01*
X122311000Y-121687600D01*
X122307000Y-121734600D01*
X122301000Y-121781600D01*
X122292000Y-121827600D01*
X122281000Y-121873600D01*
X122268000Y-121918600D01*
X122252000Y-121963600D01*
X122234000Y-122006600D01*
X122214000Y-122049600D01*
X122191000Y-122090600D01*
X122167000Y-122130600D01*
X122140000Y-122169600D01*
X122111000Y-122206600D01*
X122081000Y-122242600D01*
X122048000Y-122276600D01*
X122014000Y-122309600D01*
X121978000Y-122339600D01*
X121941000Y-122368600D01*
X121902000Y-122395600D01*
X121862000Y-122419600D01*
X121821000Y-122442600D01*
X121778000Y-122462600D01*
X121735000Y-122480600D01*
X121690000Y-122496600D01*
X121645000Y-122509600D01*
X121599000Y-122520600D01*
X121553000Y-122529600D01*
X121506000Y-122535600D01*
X121459000Y-122539600D01*
X121412000Y-122540600D01*
X121365000Y-122539600D01*
X121318000Y-122535600D01*
X121271000Y-122529600D01*
X121225000Y-122520600D01*
X121179000Y-122509600D01*
X121134000Y-122496600D01*
X121089000Y-122480600D01*
X121046000Y-122462600D01*
X121003000Y-122442600D01*
X120962000Y-122419600D01*
X120922000Y-122395600D01*
X120883000Y-122368600D01*
X120846000Y-122339600D01*
X120810000Y-122309600D01*
X120776000Y-122276600D01*
X120743000Y-122242600D01*
X120713000Y-122206600D01*
X120684000Y-122169600D01*
X120657000Y-122130600D01*
X120633000Y-122090600D01*
X120610000Y-122049600D01*
X120590000Y-122006600D01*
X120572000Y-121963600D01*
X120556000Y-121918600D01*
X120543000Y-121873600D01*
X120532000Y-121827600D01*
X120523000Y-121781600D01*
X120517000Y-121734600D01*
X120513000Y-121687600D01*
X120512000Y-121640600D01*
X120512000Y-119140600D01*
X122312000Y-119140600D01*
X122312000Y-121640600D01*
G37*
X124852000Y-121640600D02*
X124851000Y-121687600D01*
X124847000Y-121734600D01*
X124841000Y-121781600D01*
X124832000Y-121827600D01*
X124821000Y-121873600D01*
X124808000Y-121918600D01*
X124792000Y-121963600D01*
X124774000Y-122006600D01*
X124754000Y-122049600D01*
X124731000Y-122090600D01*
X124707000Y-122130600D01*
X124680000Y-122169600D01*
X124651000Y-122206600D01*
X124621000Y-122242600D01*
X124588000Y-122276600D01*
X124554000Y-122309600D01*
X124518000Y-122339600D01*
X124481000Y-122368600D01*
X124442000Y-122395600D01*
X124402000Y-122419600D01*
X124361000Y-122442600D01*
X124318000Y-122462600D01*
X124275000Y-122480600D01*
X124230000Y-122496600D01*
X124185000Y-122509600D01*
X124139000Y-122520600D01*
X124093000Y-122529600D01*
X124046000Y-122535600D01*
X123999000Y-122539600D01*
X123952000Y-122540600D01*
X123905000Y-122539600D01*
X123858000Y-122535600D01*
X123811000Y-122529600D01*
X123765000Y-122520600D01*
X123719000Y-122509600D01*
X123674000Y-122496600D01*
X123629000Y-122480600D01*
X123586000Y-122462600D01*
X123543000Y-122442600D01*
X123502000Y-122419600D01*
X123462000Y-122395600D01*
X123423000Y-122368600D01*
X123386000Y-122339600D01*
X123350000Y-122309600D01*
X123316000Y-122276600D01*
X123283000Y-122242600D01*
X123253000Y-122206600D01*
X123224000Y-122169600D01*
X123197000Y-122130600D01*
X123173000Y-122090600D01*
X123150000Y-122049600D01*
X123130000Y-122006600D01*
X123112000Y-121963600D01*
X123096000Y-121918600D01*
X123083000Y-121873600D01*
X123072000Y-121827600D01*
X123063000Y-121781600D01*
X123057000Y-121734600D01*
X123053000Y-121687600D01*
X123052000Y-121640600D01*
X123052000Y-119140600D01*
X124852000Y-119140600D01*
X124852000Y-121640600D01*
G36*
X124852000Y-121640600D02*
G01*
X124851000Y-121687600D01*
X124847000Y-121734600D01*
X124841000Y-121781600D01*
X124832000Y-121827600D01*
X124821000Y-121873600D01*
X124808000Y-121918600D01*
X124792000Y-121963600D01*
X124774000Y-122006600D01*
X124754000Y-122049600D01*
X124731000Y-122090600D01*
X124707000Y-122130600D01*
X124680000Y-122169600D01*
X124651000Y-122206600D01*
X124621000Y-122242600D01*
X124588000Y-122276600D01*
X124554000Y-122309600D01*
X124518000Y-122339600D01*
X124481000Y-122368600D01*
X124442000Y-122395600D01*
X124402000Y-122419600D01*
X124361000Y-122442600D01*
X124318000Y-122462600D01*
X124275000Y-122480600D01*
X124230000Y-122496600D01*
X124185000Y-122509600D01*
X124139000Y-122520600D01*
X124093000Y-122529600D01*
X124046000Y-122535600D01*
X123999000Y-122539600D01*
X123952000Y-122540600D01*
X123905000Y-122539600D01*
X123858000Y-122535600D01*
X123811000Y-122529600D01*
X123765000Y-122520600D01*
X123719000Y-122509600D01*
X123674000Y-122496600D01*
X123629000Y-122480600D01*
X123586000Y-122462600D01*
X123543000Y-122442600D01*
X123502000Y-122419600D01*
X123462000Y-122395600D01*
X123423000Y-122368600D01*
X123386000Y-122339600D01*
X123350000Y-122309600D01*
X123316000Y-122276600D01*
X123283000Y-122242600D01*
X123253000Y-122206600D01*
X123224000Y-122169600D01*
X123197000Y-122130600D01*
X123173000Y-122090600D01*
X123150000Y-122049600D01*
X123130000Y-122006600D01*
X123112000Y-121963600D01*
X123096000Y-121918600D01*
X123083000Y-121873600D01*
X123072000Y-121827600D01*
X123063000Y-121781600D01*
X123057000Y-121734600D01*
X123053000Y-121687600D01*
X123052000Y-121640600D01*
X123052000Y-119140600D01*
X124852000Y-119140600D01*
X124852000Y-121640600D01*
G37*
X127392000Y-121640600D02*
X127391000Y-121687600D01*
X127387000Y-121734600D01*
X127381000Y-121781600D01*
X127372000Y-121827600D01*
X127361000Y-121873600D01*
X127348000Y-121918600D01*
X127332000Y-121963600D01*
X127314000Y-122006600D01*
X127294000Y-122049600D01*
X127271000Y-122090600D01*
X127247000Y-122130600D01*
X127220000Y-122169600D01*
X127191000Y-122206600D01*
X127161000Y-122242600D01*
X127128000Y-122276600D01*
X127094000Y-122309600D01*
X127058000Y-122339600D01*
X127021000Y-122368600D01*
X126982000Y-122395600D01*
X126942000Y-122419600D01*
X126901000Y-122442600D01*
X126858000Y-122462600D01*
X126815000Y-122480600D01*
X126770000Y-122496600D01*
X126725000Y-122509600D01*
X126679000Y-122520600D01*
X126633000Y-122529600D01*
X126586000Y-122535600D01*
X126539000Y-122539600D01*
X126492000Y-122540600D01*
X126445000Y-122539600D01*
X126398000Y-122535600D01*
X126351000Y-122529600D01*
X126305000Y-122520600D01*
X126259000Y-122509600D01*
X126214000Y-122496600D01*
X126169000Y-122480600D01*
X126126000Y-122462600D01*
X126083000Y-122442600D01*
X126042000Y-122419600D01*
X126002000Y-122395600D01*
X125963000Y-122368600D01*
X125926000Y-122339600D01*
X125890000Y-122309600D01*
X125856000Y-122276600D01*
X125823000Y-122242600D01*
X125793000Y-122206600D01*
X125764000Y-122169600D01*
X125737000Y-122130600D01*
X125713000Y-122090600D01*
X125690000Y-122049600D01*
X125670000Y-122006600D01*
X125652000Y-121963600D01*
X125636000Y-121918600D01*
X125623000Y-121873600D01*
X125612000Y-121827600D01*
X125603000Y-121781600D01*
X125597000Y-121734600D01*
X125593000Y-121687600D01*
X125592000Y-121640600D01*
X125592000Y-119140600D01*
X127392000Y-119140600D01*
X127392000Y-121640600D01*
G36*
X127392000Y-121640600D02*
G01*
X127391000Y-121687600D01*
X127387000Y-121734600D01*
X127381000Y-121781600D01*
X127372000Y-121827600D01*
X127361000Y-121873600D01*
X127348000Y-121918600D01*
X127332000Y-121963600D01*
X127314000Y-122006600D01*
X127294000Y-122049600D01*
X127271000Y-122090600D01*
X127247000Y-122130600D01*
X127220000Y-122169600D01*
X127191000Y-122206600D01*
X127161000Y-122242600D01*
X127128000Y-122276600D01*
X127094000Y-122309600D01*
X127058000Y-122339600D01*
X127021000Y-122368600D01*
X126982000Y-122395600D01*
X126942000Y-122419600D01*
X126901000Y-122442600D01*
X126858000Y-122462600D01*
X126815000Y-122480600D01*
X126770000Y-122496600D01*
X126725000Y-122509600D01*
X126679000Y-122520600D01*
X126633000Y-122529600D01*
X126586000Y-122535600D01*
X126539000Y-122539600D01*
X126492000Y-122540600D01*
X126445000Y-122539600D01*
X126398000Y-122535600D01*
X126351000Y-122529600D01*
X126305000Y-122520600D01*
X126259000Y-122509600D01*
X126214000Y-122496600D01*
X126169000Y-122480600D01*
X126126000Y-122462600D01*
X126083000Y-122442600D01*
X126042000Y-122419600D01*
X126002000Y-122395600D01*
X125963000Y-122368600D01*
X125926000Y-122339600D01*
X125890000Y-122309600D01*
X125856000Y-122276600D01*
X125823000Y-122242600D01*
X125793000Y-122206600D01*
X125764000Y-122169600D01*
X125737000Y-122130600D01*
X125713000Y-122090600D01*
X125690000Y-122049600D01*
X125670000Y-122006600D01*
X125652000Y-121963600D01*
X125636000Y-121918600D01*
X125623000Y-121873600D01*
X125612000Y-121827600D01*
X125603000Y-121781600D01*
X125597000Y-121734600D01*
X125593000Y-121687600D01*
X125592000Y-121640600D01*
X125592000Y-119140600D01*
X127392000Y-119140600D01*
X127392000Y-121640600D01*
G37*
X132472000Y-121640600D02*
X132471000Y-121687600D01*
X132467000Y-121734600D01*
X132461000Y-121781600D01*
X132452000Y-121827600D01*
X132441000Y-121873600D01*
X132428000Y-121918600D01*
X132412000Y-121963600D01*
X132394000Y-122006600D01*
X132374000Y-122049600D01*
X132351000Y-122090600D01*
X132327000Y-122130600D01*
X132300000Y-122169600D01*
X132271000Y-122206600D01*
X132241000Y-122242600D01*
X132208000Y-122276600D01*
X132174000Y-122309600D01*
X132138000Y-122339600D01*
X132101000Y-122368600D01*
X132062000Y-122395600D01*
X132022000Y-122419600D01*
X131981000Y-122442600D01*
X131938000Y-122462600D01*
X131895000Y-122480600D01*
X131850000Y-122496600D01*
X131805000Y-122509600D01*
X131759000Y-122520600D01*
X131713000Y-122529600D01*
X131666000Y-122535600D01*
X131619000Y-122539600D01*
X131572000Y-122540600D01*
X131525000Y-122539600D01*
X131478000Y-122535600D01*
X131431000Y-122529600D01*
X131385000Y-122520600D01*
X131339000Y-122509600D01*
X131294000Y-122496600D01*
X131249000Y-122480600D01*
X131206000Y-122462600D01*
X131163000Y-122442600D01*
X131122000Y-122419600D01*
X131082000Y-122395600D01*
X131043000Y-122368600D01*
X131006000Y-122339600D01*
X130970000Y-122309600D01*
X130936000Y-122276600D01*
X130903000Y-122242600D01*
X130873000Y-122206600D01*
X130844000Y-122169600D01*
X130817000Y-122130600D01*
X130793000Y-122090600D01*
X130770000Y-122049600D01*
X130750000Y-122006600D01*
X130732000Y-121963600D01*
X130716000Y-121918600D01*
X130703000Y-121873600D01*
X130692000Y-121827600D01*
X130683000Y-121781600D01*
X130677000Y-121734600D01*
X130673000Y-121687600D01*
X130672000Y-121640600D01*
X130672000Y-119140600D01*
X132472000Y-119140600D01*
X132472000Y-121640600D01*
G36*
X132472000Y-121640600D02*
G01*
X132471000Y-121687600D01*
X132467000Y-121734600D01*
X132461000Y-121781600D01*
X132452000Y-121827600D01*
X132441000Y-121873600D01*
X132428000Y-121918600D01*
X132412000Y-121963600D01*
X132394000Y-122006600D01*
X132374000Y-122049600D01*
X132351000Y-122090600D01*
X132327000Y-122130600D01*
X132300000Y-122169600D01*
X132271000Y-122206600D01*
X132241000Y-122242600D01*
X132208000Y-122276600D01*
X132174000Y-122309600D01*
X132138000Y-122339600D01*
X132101000Y-122368600D01*
X132062000Y-122395600D01*
X132022000Y-122419600D01*
X131981000Y-122442600D01*
X131938000Y-122462600D01*
X131895000Y-122480600D01*
X131850000Y-122496600D01*
X131805000Y-122509600D01*
X131759000Y-122520600D01*
X131713000Y-122529600D01*
X131666000Y-122535600D01*
X131619000Y-122539600D01*
X131572000Y-122540600D01*
X131525000Y-122539600D01*
X131478000Y-122535600D01*
X131431000Y-122529600D01*
X131385000Y-122520600D01*
X131339000Y-122509600D01*
X131294000Y-122496600D01*
X131249000Y-122480600D01*
X131206000Y-122462600D01*
X131163000Y-122442600D01*
X131122000Y-122419600D01*
X131082000Y-122395600D01*
X131043000Y-122368600D01*
X131006000Y-122339600D01*
X130970000Y-122309600D01*
X130936000Y-122276600D01*
X130903000Y-122242600D01*
X130873000Y-122206600D01*
X130844000Y-122169600D01*
X130817000Y-122130600D01*
X130793000Y-122090600D01*
X130770000Y-122049600D01*
X130750000Y-122006600D01*
X130732000Y-121963600D01*
X130716000Y-121918600D01*
X130703000Y-121873600D01*
X130692000Y-121827600D01*
X130683000Y-121781600D01*
X130677000Y-121734600D01*
X130673000Y-121687600D01*
X130672000Y-121640600D01*
X130672000Y-119140600D01*
X132472000Y-119140600D01*
X132472000Y-121640600D01*
G37*
X135012000Y-121640600D02*
X135011000Y-121687600D01*
X135007000Y-121734600D01*
X135001000Y-121781600D01*
X134992000Y-121827600D01*
X134981000Y-121873600D01*
X134968000Y-121918600D01*
X134952000Y-121963600D01*
X134934000Y-122006600D01*
X134914000Y-122049600D01*
X134891000Y-122090600D01*
X134867000Y-122130600D01*
X134840000Y-122169600D01*
X134811000Y-122206600D01*
X134781000Y-122242600D01*
X134748000Y-122276600D01*
X134714000Y-122309600D01*
X134678000Y-122339600D01*
X134641000Y-122368600D01*
X134602000Y-122395600D01*
X134562000Y-122419600D01*
X134521000Y-122442600D01*
X134478000Y-122462600D01*
X134435000Y-122480600D01*
X134390000Y-122496600D01*
X134345000Y-122509600D01*
X134299000Y-122520600D01*
X134253000Y-122529600D01*
X134206000Y-122535600D01*
X134159000Y-122539600D01*
X134112000Y-122540600D01*
X134065000Y-122539600D01*
X134018000Y-122535600D01*
X133971000Y-122529600D01*
X133925000Y-122520600D01*
X133879000Y-122509600D01*
X133834000Y-122496600D01*
X133789000Y-122480600D01*
X133746000Y-122462600D01*
X133703000Y-122442600D01*
X133662000Y-122419600D01*
X133622000Y-122395600D01*
X133583000Y-122368600D01*
X133546000Y-122339600D01*
X133510000Y-122309600D01*
X133476000Y-122276600D01*
X133443000Y-122242600D01*
X133413000Y-122206600D01*
X133384000Y-122169600D01*
X133357000Y-122130600D01*
X133333000Y-122090600D01*
X133310000Y-122049600D01*
X133290000Y-122006600D01*
X133272000Y-121963600D01*
X133256000Y-121918600D01*
X133243000Y-121873600D01*
X133232000Y-121827600D01*
X133223000Y-121781600D01*
X133217000Y-121734600D01*
X133213000Y-121687600D01*
X133212000Y-121640600D01*
X133212000Y-119140600D01*
X135012000Y-119140600D01*
X135012000Y-121640600D01*
G36*
X135012000Y-121640600D02*
G01*
X135011000Y-121687600D01*
X135007000Y-121734600D01*
X135001000Y-121781600D01*
X134992000Y-121827600D01*
X134981000Y-121873600D01*
X134968000Y-121918600D01*
X134952000Y-121963600D01*
X134934000Y-122006600D01*
X134914000Y-122049600D01*
X134891000Y-122090600D01*
X134867000Y-122130600D01*
X134840000Y-122169600D01*
X134811000Y-122206600D01*
X134781000Y-122242600D01*
X134748000Y-122276600D01*
X134714000Y-122309600D01*
X134678000Y-122339600D01*
X134641000Y-122368600D01*
X134602000Y-122395600D01*
X134562000Y-122419600D01*
X134521000Y-122442600D01*
X134478000Y-122462600D01*
X134435000Y-122480600D01*
X134390000Y-122496600D01*
X134345000Y-122509600D01*
X134299000Y-122520600D01*
X134253000Y-122529600D01*
X134206000Y-122535600D01*
X134159000Y-122539600D01*
X134112000Y-122540600D01*
X134065000Y-122539600D01*
X134018000Y-122535600D01*
X133971000Y-122529600D01*
X133925000Y-122520600D01*
X133879000Y-122509600D01*
X133834000Y-122496600D01*
X133789000Y-122480600D01*
X133746000Y-122462600D01*
X133703000Y-122442600D01*
X133662000Y-122419600D01*
X133622000Y-122395600D01*
X133583000Y-122368600D01*
X133546000Y-122339600D01*
X133510000Y-122309600D01*
X133476000Y-122276600D01*
X133443000Y-122242600D01*
X133413000Y-122206600D01*
X133384000Y-122169600D01*
X133357000Y-122130600D01*
X133333000Y-122090600D01*
X133310000Y-122049600D01*
X133290000Y-122006600D01*
X133272000Y-121963600D01*
X133256000Y-121918600D01*
X133243000Y-121873600D01*
X133232000Y-121827600D01*
X133223000Y-121781600D01*
X133217000Y-121734600D01*
X133213000Y-121687600D01*
X133212000Y-121640600D01*
X133212000Y-119140600D01*
X135012000Y-119140600D01*
X135012000Y-121640600D01*
G37*
X137552000Y-121640600D02*
X137551000Y-121687600D01*
X137547000Y-121734600D01*
X137541000Y-121781600D01*
X137532000Y-121827600D01*
X137521000Y-121873600D01*
X137508000Y-121918600D01*
X137492000Y-121963600D01*
X137474000Y-122006600D01*
X137454000Y-122049600D01*
X137431000Y-122090600D01*
X137407000Y-122130600D01*
X137380000Y-122169600D01*
X137351000Y-122206600D01*
X137321000Y-122242600D01*
X137288000Y-122276600D01*
X137254000Y-122309600D01*
X137218000Y-122339600D01*
X137181000Y-122368600D01*
X137142000Y-122395600D01*
X137102000Y-122419600D01*
X137061000Y-122442600D01*
X137018000Y-122462600D01*
X136975000Y-122480600D01*
X136930000Y-122496600D01*
X136885000Y-122509600D01*
X136839000Y-122520600D01*
X136793000Y-122529600D01*
X136746000Y-122535600D01*
X136699000Y-122539600D01*
X136652000Y-122540600D01*
X136605000Y-122539600D01*
X136558000Y-122535600D01*
X136511000Y-122529600D01*
X136465000Y-122520600D01*
X136419000Y-122509600D01*
X136374000Y-122496600D01*
X136329000Y-122480600D01*
X136286000Y-122462600D01*
X136243000Y-122442600D01*
X136202000Y-122419600D01*
X136162000Y-122395600D01*
X136123000Y-122368600D01*
X136086000Y-122339600D01*
X136050000Y-122309600D01*
X136016000Y-122276600D01*
X135983000Y-122242600D01*
X135953000Y-122206600D01*
X135924000Y-122169600D01*
X135897000Y-122130600D01*
X135873000Y-122090600D01*
X135850000Y-122049600D01*
X135830000Y-122006600D01*
X135812000Y-121963600D01*
X135796000Y-121918600D01*
X135783000Y-121873600D01*
X135772000Y-121827600D01*
X135763000Y-121781600D01*
X135757000Y-121734600D01*
X135753000Y-121687600D01*
X135752000Y-121640600D01*
X135752000Y-119140600D01*
X137552000Y-119140600D01*
X137552000Y-121640600D01*
G36*
X137552000Y-121640600D02*
G01*
X137551000Y-121687600D01*
X137547000Y-121734600D01*
X137541000Y-121781600D01*
X137532000Y-121827600D01*
X137521000Y-121873600D01*
X137508000Y-121918600D01*
X137492000Y-121963600D01*
X137474000Y-122006600D01*
X137454000Y-122049600D01*
X137431000Y-122090600D01*
X137407000Y-122130600D01*
X137380000Y-122169600D01*
X137351000Y-122206600D01*
X137321000Y-122242600D01*
X137288000Y-122276600D01*
X137254000Y-122309600D01*
X137218000Y-122339600D01*
X137181000Y-122368600D01*
X137142000Y-122395600D01*
X137102000Y-122419600D01*
X137061000Y-122442600D01*
X137018000Y-122462600D01*
X136975000Y-122480600D01*
X136930000Y-122496600D01*
X136885000Y-122509600D01*
X136839000Y-122520600D01*
X136793000Y-122529600D01*
X136746000Y-122535600D01*
X136699000Y-122539600D01*
X136652000Y-122540600D01*
X136605000Y-122539600D01*
X136558000Y-122535600D01*
X136511000Y-122529600D01*
X136465000Y-122520600D01*
X136419000Y-122509600D01*
X136374000Y-122496600D01*
X136329000Y-122480600D01*
X136286000Y-122462600D01*
X136243000Y-122442600D01*
X136202000Y-122419600D01*
X136162000Y-122395600D01*
X136123000Y-122368600D01*
X136086000Y-122339600D01*
X136050000Y-122309600D01*
X136016000Y-122276600D01*
X135983000Y-122242600D01*
X135953000Y-122206600D01*
X135924000Y-122169600D01*
X135897000Y-122130600D01*
X135873000Y-122090600D01*
X135850000Y-122049600D01*
X135830000Y-122006600D01*
X135812000Y-121963600D01*
X135796000Y-121918600D01*
X135783000Y-121873600D01*
X135772000Y-121827600D01*
X135763000Y-121781600D01*
X135757000Y-121734600D01*
X135753000Y-121687600D01*
X135752000Y-121640600D01*
X135752000Y-119140600D01*
X137552000Y-119140600D01*
X137552000Y-121640600D01*
G37*
X140092000Y-121640600D02*
X140091000Y-121687600D01*
X140087000Y-121734600D01*
X140081000Y-121781600D01*
X140072000Y-121827600D01*
X140061000Y-121873600D01*
X140048000Y-121918600D01*
X140032000Y-121963600D01*
X140014000Y-122006600D01*
X139994000Y-122049600D01*
X139971000Y-122090600D01*
X139947000Y-122130600D01*
X139920000Y-122169600D01*
X139891000Y-122206600D01*
X139861000Y-122242600D01*
X139828000Y-122276600D01*
X139794000Y-122309600D01*
X139758000Y-122339600D01*
X139721000Y-122368600D01*
X139682000Y-122395600D01*
X139642000Y-122419600D01*
X139601000Y-122442600D01*
X139558000Y-122462600D01*
X139515000Y-122480600D01*
X139470000Y-122496600D01*
X139425000Y-122509600D01*
X139379000Y-122520600D01*
X139333000Y-122529600D01*
X139286000Y-122535600D01*
X139239000Y-122539600D01*
X139192000Y-122540600D01*
X139145000Y-122539600D01*
X139098000Y-122535600D01*
X139051000Y-122529600D01*
X139005000Y-122520600D01*
X138959000Y-122509600D01*
X138914000Y-122496600D01*
X138869000Y-122480600D01*
X138826000Y-122462600D01*
X138783000Y-122442600D01*
X138742000Y-122419600D01*
X138702000Y-122395600D01*
X138663000Y-122368600D01*
X138626000Y-122339600D01*
X138590000Y-122309600D01*
X138556000Y-122276600D01*
X138523000Y-122242600D01*
X138493000Y-122206600D01*
X138464000Y-122169600D01*
X138437000Y-122130600D01*
X138413000Y-122090600D01*
X138390000Y-122049600D01*
X138370000Y-122006600D01*
X138352000Y-121963600D01*
X138336000Y-121918600D01*
X138323000Y-121873600D01*
X138312000Y-121827600D01*
X138303000Y-121781600D01*
X138297000Y-121734600D01*
X138293000Y-121687600D01*
X138292000Y-121640600D01*
X138292000Y-119140600D01*
X140092000Y-119140600D01*
X140092000Y-121640600D01*
G36*
X140092000Y-121640600D02*
G01*
X140091000Y-121687600D01*
X140087000Y-121734600D01*
X140081000Y-121781600D01*
X140072000Y-121827600D01*
X140061000Y-121873600D01*
X140048000Y-121918600D01*
X140032000Y-121963600D01*
X140014000Y-122006600D01*
X139994000Y-122049600D01*
X139971000Y-122090600D01*
X139947000Y-122130600D01*
X139920000Y-122169600D01*
X139891000Y-122206600D01*
X139861000Y-122242600D01*
X139828000Y-122276600D01*
X139794000Y-122309600D01*
X139758000Y-122339600D01*
X139721000Y-122368600D01*
X139682000Y-122395600D01*
X139642000Y-122419600D01*
X139601000Y-122442600D01*
X139558000Y-122462600D01*
X139515000Y-122480600D01*
X139470000Y-122496600D01*
X139425000Y-122509600D01*
X139379000Y-122520600D01*
X139333000Y-122529600D01*
X139286000Y-122535600D01*
X139239000Y-122539600D01*
X139192000Y-122540600D01*
X139145000Y-122539600D01*
X139098000Y-122535600D01*
X139051000Y-122529600D01*
X139005000Y-122520600D01*
X138959000Y-122509600D01*
X138914000Y-122496600D01*
X138869000Y-122480600D01*
X138826000Y-122462600D01*
X138783000Y-122442600D01*
X138742000Y-122419600D01*
X138702000Y-122395600D01*
X138663000Y-122368600D01*
X138626000Y-122339600D01*
X138590000Y-122309600D01*
X138556000Y-122276600D01*
X138523000Y-122242600D01*
X138493000Y-122206600D01*
X138464000Y-122169600D01*
X138437000Y-122130600D01*
X138413000Y-122090600D01*
X138390000Y-122049600D01*
X138370000Y-122006600D01*
X138352000Y-121963600D01*
X138336000Y-121918600D01*
X138323000Y-121873600D01*
X138312000Y-121827600D01*
X138303000Y-121781600D01*
X138297000Y-121734600D01*
X138293000Y-121687600D01*
X138292000Y-121640600D01*
X138292000Y-119140600D01*
X140092000Y-119140600D01*
X140092000Y-121640600D01*
G37*
X145172000Y-121640600D02*
X145171000Y-121687600D01*
X145167000Y-121734600D01*
X145161000Y-121781600D01*
X145152000Y-121827600D01*
X145141000Y-121873600D01*
X145128000Y-121918600D01*
X145112000Y-121963600D01*
X145094000Y-122006600D01*
X145074000Y-122049600D01*
X145051000Y-122090600D01*
X145027000Y-122130600D01*
X145000000Y-122169600D01*
X144971000Y-122206600D01*
X144941000Y-122242600D01*
X144908000Y-122276600D01*
X144874000Y-122309600D01*
X144838000Y-122339600D01*
X144801000Y-122368600D01*
X144762000Y-122395600D01*
X144722000Y-122419600D01*
X144681000Y-122442600D01*
X144638000Y-122462600D01*
X144595000Y-122480600D01*
X144550000Y-122496600D01*
X144505000Y-122509600D01*
X144459000Y-122520600D01*
X144413000Y-122529600D01*
X144366000Y-122535600D01*
X144319000Y-122539600D01*
X144272000Y-122540600D01*
X144225000Y-122539600D01*
X144178000Y-122535600D01*
X144131000Y-122529600D01*
X144085000Y-122520600D01*
X144039000Y-122509600D01*
X143994000Y-122496600D01*
X143949000Y-122480600D01*
X143906000Y-122462600D01*
X143863000Y-122442600D01*
X143822000Y-122419600D01*
X143782000Y-122395600D01*
X143743000Y-122368600D01*
X143706000Y-122339600D01*
X143670000Y-122309600D01*
X143636000Y-122276600D01*
X143603000Y-122242600D01*
X143573000Y-122206600D01*
X143544000Y-122169600D01*
X143517000Y-122130600D01*
X143493000Y-122090600D01*
X143470000Y-122049600D01*
X143450000Y-122006600D01*
X143432000Y-121963600D01*
X143416000Y-121918600D01*
X143403000Y-121873600D01*
X143392000Y-121827600D01*
X143383000Y-121781600D01*
X143377000Y-121734600D01*
X143373000Y-121687600D01*
X143372000Y-121640600D01*
X143372000Y-119140600D01*
X145172000Y-119140600D01*
X145172000Y-121640600D01*
G36*
X145172000Y-121640600D02*
G01*
X145171000Y-121687600D01*
X145167000Y-121734600D01*
X145161000Y-121781600D01*
X145152000Y-121827600D01*
X145141000Y-121873600D01*
X145128000Y-121918600D01*
X145112000Y-121963600D01*
X145094000Y-122006600D01*
X145074000Y-122049600D01*
X145051000Y-122090600D01*
X145027000Y-122130600D01*
X145000000Y-122169600D01*
X144971000Y-122206600D01*
X144941000Y-122242600D01*
X144908000Y-122276600D01*
X144874000Y-122309600D01*
X144838000Y-122339600D01*
X144801000Y-122368600D01*
X144762000Y-122395600D01*
X144722000Y-122419600D01*
X144681000Y-122442600D01*
X144638000Y-122462600D01*
X144595000Y-122480600D01*
X144550000Y-122496600D01*
X144505000Y-122509600D01*
X144459000Y-122520600D01*
X144413000Y-122529600D01*
X144366000Y-122535600D01*
X144319000Y-122539600D01*
X144272000Y-122540600D01*
X144225000Y-122539600D01*
X144178000Y-122535600D01*
X144131000Y-122529600D01*
X144085000Y-122520600D01*
X144039000Y-122509600D01*
X143994000Y-122496600D01*
X143949000Y-122480600D01*
X143906000Y-122462600D01*
X143863000Y-122442600D01*
X143822000Y-122419600D01*
X143782000Y-122395600D01*
X143743000Y-122368600D01*
X143706000Y-122339600D01*
X143670000Y-122309600D01*
X143636000Y-122276600D01*
X143603000Y-122242600D01*
X143573000Y-122206600D01*
X143544000Y-122169600D01*
X143517000Y-122130600D01*
X143493000Y-122090600D01*
X143470000Y-122049600D01*
X143450000Y-122006600D01*
X143432000Y-121963600D01*
X143416000Y-121918600D01*
X143403000Y-121873600D01*
X143392000Y-121827600D01*
X143383000Y-121781600D01*
X143377000Y-121734600D01*
X143373000Y-121687600D01*
X143372000Y-121640600D01*
X143372000Y-119140600D01*
X145172000Y-119140600D01*
X145172000Y-121640600D01*
G37*
X147712000Y-121640600D02*
X147711000Y-121687600D01*
X147707000Y-121734600D01*
X147701000Y-121781600D01*
X147692000Y-121827600D01*
X147681000Y-121873600D01*
X147668000Y-121918600D01*
X147652000Y-121963600D01*
X147634000Y-122006600D01*
X147614000Y-122049600D01*
X147591000Y-122090600D01*
X147567000Y-122130600D01*
X147540000Y-122169600D01*
X147511000Y-122206600D01*
X147481000Y-122242600D01*
X147448000Y-122276600D01*
X147414000Y-122309600D01*
X147378000Y-122339600D01*
X147341000Y-122368600D01*
X147302000Y-122395600D01*
X147262000Y-122419600D01*
X147221000Y-122442600D01*
X147178000Y-122462600D01*
X147135000Y-122480600D01*
X147090000Y-122496600D01*
X147045000Y-122509600D01*
X146999000Y-122520600D01*
X146953000Y-122529600D01*
X146906000Y-122535600D01*
X146859000Y-122539600D01*
X146812000Y-122540600D01*
X146765000Y-122539600D01*
X146718000Y-122535600D01*
X146671000Y-122529600D01*
X146625000Y-122520600D01*
X146579000Y-122509600D01*
X146534000Y-122496600D01*
X146489000Y-122480600D01*
X146446000Y-122462600D01*
X146403000Y-122442600D01*
X146362000Y-122419600D01*
X146322000Y-122395600D01*
X146283000Y-122368600D01*
X146246000Y-122339600D01*
X146210000Y-122309600D01*
X146176000Y-122276600D01*
X146143000Y-122242600D01*
X146113000Y-122206600D01*
X146084000Y-122169600D01*
X146057000Y-122130600D01*
X146033000Y-122090600D01*
X146010000Y-122049600D01*
X145990000Y-122006600D01*
X145972000Y-121963600D01*
X145956000Y-121918600D01*
X145943000Y-121873600D01*
X145932000Y-121827600D01*
X145923000Y-121781600D01*
X145917000Y-121734600D01*
X145913000Y-121687600D01*
X145912000Y-121640600D01*
X145912000Y-119140600D01*
X147712000Y-119140600D01*
X147712000Y-121640600D01*
G36*
X147712000Y-121640600D02*
G01*
X147711000Y-121687600D01*
X147707000Y-121734600D01*
X147701000Y-121781600D01*
X147692000Y-121827600D01*
X147681000Y-121873600D01*
X147668000Y-121918600D01*
X147652000Y-121963600D01*
X147634000Y-122006600D01*
X147614000Y-122049600D01*
X147591000Y-122090600D01*
X147567000Y-122130600D01*
X147540000Y-122169600D01*
X147511000Y-122206600D01*
X147481000Y-122242600D01*
X147448000Y-122276600D01*
X147414000Y-122309600D01*
X147378000Y-122339600D01*
X147341000Y-122368600D01*
X147302000Y-122395600D01*
X147262000Y-122419600D01*
X147221000Y-122442600D01*
X147178000Y-122462600D01*
X147135000Y-122480600D01*
X147090000Y-122496600D01*
X147045000Y-122509600D01*
X146999000Y-122520600D01*
X146953000Y-122529600D01*
X146906000Y-122535600D01*
X146859000Y-122539600D01*
X146812000Y-122540600D01*
X146765000Y-122539600D01*
X146718000Y-122535600D01*
X146671000Y-122529600D01*
X146625000Y-122520600D01*
X146579000Y-122509600D01*
X146534000Y-122496600D01*
X146489000Y-122480600D01*
X146446000Y-122462600D01*
X146403000Y-122442600D01*
X146362000Y-122419600D01*
X146322000Y-122395600D01*
X146283000Y-122368600D01*
X146246000Y-122339600D01*
X146210000Y-122309600D01*
X146176000Y-122276600D01*
X146143000Y-122242600D01*
X146113000Y-122206600D01*
X146084000Y-122169600D01*
X146057000Y-122130600D01*
X146033000Y-122090600D01*
X146010000Y-122049600D01*
X145990000Y-122006600D01*
X145972000Y-121963600D01*
X145956000Y-121918600D01*
X145943000Y-121873600D01*
X145932000Y-121827600D01*
X145923000Y-121781600D01*
X145917000Y-121734600D01*
X145913000Y-121687600D01*
X145912000Y-121640600D01*
X145912000Y-119140600D01*
X147712000Y-119140600D01*
X147712000Y-121640600D01*
G37*
X117232000Y-122240600D02*
X117232000Y-122256600D01*
X117230000Y-122271600D01*
X117228000Y-122287600D01*
X117225000Y-122302600D01*
X117222000Y-122318600D01*
X117217000Y-122333600D01*
X117212000Y-122348600D01*
X117206000Y-122362600D01*
X117199000Y-122376600D01*
X117192000Y-122390600D01*
X117184000Y-122403600D01*
X117175000Y-122416600D01*
X117165000Y-122429600D01*
X117155000Y-122441600D01*
X117144000Y-122452600D01*
X117133000Y-122463600D01*
X117121000Y-122473600D01*
X117108000Y-122483600D01*
X117095000Y-122492600D01*
X117082000Y-122500600D01*
X117068000Y-122507600D01*
X117054000Y-122514600D01*
X117040000Y-122520600D01*
X117025000Y-122525600D01*
X117010000Y-122530600D01*
X116994000Y-122533600D01*
X116979000Y-122536600D01*
X116963000Y-122538600D01*
X116948000Y-122540600D01*
X116932000Y-122540600D01*
X115732000Y-122540600D01*
X115716000Y-122540600D01*
X115701000Y-122538600D01*
X115685000Y-122536600D01*
X115670000Y-122533600D01*
X115654000Y-122530600D01*
X115639000Y-122525600D01*
X115624000Y-122520600D01*
X115610000Y-122514600D01*
X115596000Y-122507600D01*
X115582000Y-122500600D01*
X115569000Y-122492600D01*
X115556000Y-122483600D01*
X115543000Y-122473600D01*
X115531000Y-122463600D01*
X115520000Y-122452600D01*
X115509000Y-122441600D01*
X115499000Y-122429600D01*
X115489000Y-122416600D01*
X115480000Y-122403600D01*
X115472000Y-122390600D01*
X115465000Y-122376600D01*
X115458000Y-122362600D01*
X115452000Y-122348600D01*
X115447000Y-122333600D01*
X115442000Y-122318600D01*
X115439000Y-122302600D01*
X115436000Y-122287600D01*
X115434000Y-122271600D01*
X115432000Y-122256600D01*
X115432000Y-122240600D01*
X115432000Y-119140600D01*
X117232000Y-119140600D01*
X117232000Y-122240600D01*
G36*
X117232000Y-122240600D02*
G01*
X117232000Y-122256600D01*
X117230000Y-122271600D01*
X117228000Y-122287600D01*
X117225000Y-122302600D01*
X117222000Y-122318600D01*
X117217000Y-122333600D01*
X117212000Y-122348600D01*
X117206000Y-122362600D01*
X117199000Y-122376600D01*
X117192000Y-122390600D01*
X117184000Y-122403600D01*
X117175000Y-122416600D01*
X117165000Y-122429600D01*
X117155000Y-122441600D01*
X117144000Y-122452600D01*
X117133000Y-122463600D01*
X117121000Y-122473600D01*
X117108000Y-122483600D01*
X117095000Y-122492600D01*
X117082000Y-122500600D01*
X117068000Y-122507600D01*
X117054000Y-122514600D01*
X117040000Y-122520600D01*
X117025000Y-122525600D01*
X117010000Y-122530600D01*
X116994000Y-122533600D01*
X116979000Y-122536600D01*
X116963000Y-122538600D01*
X116948000Y-122540600D01*
X116932000Y-122540600D01*
X115732000Y-122540600D01*
X115716000Y-122540600D01*
X115701000Y-122538600D01*
X115685000Y-122536600D01*
X115670000Y-122533600D01*
X115654000Y-122530600D01*
X115639000Y-122525600D01*
X115624000Y-122520600D01*
X115610000Y-122514600D01*
X115596000Y-122507600D01*
X115582000Y-122500600D01*
X115569000Y-122492600D01*
X115556000Y-122483600D01*
X115543000Y-122473600D01*
X115531000Y-122463600D01*
X115520000Y-122452600D01*
X115509000Y-122441600D01*
X115499000Y-122429600D01*
X115489000Y-122416600D01*
X115480000Y-122403600D01*
X115472000Y-122390600D01*
X115465000Y-122376600D01*
X115458000Y-122362600D01*
X115452000Y-122348600D01*
X115447000Y-122333600D01*
X115442000Y-122318600D01*
X115439000Y-122302600D01*
X115436000Y-122287600D01*
X115434000Y-122271600D01*
X115432000Y-122256600D01*
X115432000Y-122240600D01*
X115432000Y-119140600D01*
X117232000Y-119140600D01*
X117232000Y-122240600D01*
G37*
X129932000Y-122240600D02*
X129932000Y-122256600D01*
X129930000Y-122271600D01*
X129928000Y-122287600D01*
X129925000Y-122302600D01*
X129922000Y-122318600D01*
X129917000Y-122333600D01*
X129912000Y-122348600D01*
X129906000Y-122362600D01*
X129899000Y-122376600D01*
X129892000Y-122390600D01*
X129884000Y-122403600D01*
X129875000Y-122416600D01*
X129865000Y-122429600D01*
X129855000Y-122441600D01*
X129844000Y-122452600D01*
X129833000Y-122463600D01*
X129821000Y-122473600D01*
X129808000Y-122483600D01*
X129795000Y-122492600D01*
X129782000Y-122500600D01*
X129768000Y-122507600D01*
X129754000Y-122514600D01*
X129740000Y-122520600D01*
X129725000Y-122525600D01*
X129710000Y-122530600D01*
X129694000Y-122533600D01*
X129679000Y-122536600D01*
X129663000Y-122538600D01*
X129648000Y-122540600D01*
X129632000Y-122540600D01*
X128432000Y-122540600D01*
X128416000Y-122540600D01*
X128401000Y-122538600D01*
X128385000Y-122536600D01*
X128370000Y-122533600D01*
X128354000Y-122530600D01*
X128339000Y-122525600D01*
X128324000Y-122520600D01*
X128310000Y-122514600D01*
X128296000Y-122507600D01*
X128282000Y-122500600D01*
X128269000Y-122492600D01*
X128256000Y-122483600D01*
X128243000Y-122473600D01*
X128231000Y-122463600D01*
X128220000Y-122452600D01*
X128209000Y-122441600D01*
X128199000Y-122429600D01*
X128189000Y-122416600D01*
X128180000Y-122403600D01*
X128172000Y-122390600D01*
X128165000Y-122376600D01*
X128158000Y-122362600D01*
X128152000Y-122348600D01*
X128147000Y-122333600D01*
X128142000Y-122318600D01*
X128139000Y-122302600D01*
X128136000Y-122287600D01*
X128134000Y-122271600D01*
X128132000Y-122256600D01*
X128132000Y-122240600D01*
X128132000Y-119140600D01*
X129932000Y-119140600D01*
X129932000Y-122240600D01*
G36*
X129932000Y-122240600D02*
G01*
X129932000Y-122256600D01*
X129930000Y-122271600D01*
X129928000Y-122287600D01*
X129925000Y-122302600D01*
X129922000Y-122318600D01*
X129917000Y-122333600D01*
X129912000Y-122348600D01*
X129906000Y-122362600D01*
X129899000Y-122376600D01*
X129892000Y-122390600D01*
X129884000Y-122403600D01*
X129875000Y-122416600D01*
X129865000Y-122429600D01*
X129855000Y-122441600D01*
X129844000Y-122452600D01*
X129833000Y-122463600D01*
X129821000Y-122473600D01*
X129808000Y-122483600D01*
X129795000Y-122492600D01*
X129782000Y-122500600D01*
X129768000Y-122507600D01*
X129754000Y-122514600D01*
X129740000Y-122520600D01*
X129725000Y-122525600D01*
X129710000Y-122530600D01*
X129694000Y-122533600D01*
X129679000Y-122536600D01*
X129663000Y-122538600D01*
X129648000Y-122540600D01*
X129632000Y-122540600D01*
X128432000Y-122540600D01*
X128416000Y-122540600D01*
X128401000Y-122538600D01*
X128385000Y-122536600D01*
X128370000Y-122533600D01*
X128354000Y-122530600D01*
X128339000Y-122525600D01*
X128324000Y-122520600D01*
X128310000Y-122514600D01*
X128296000Y-122507600D01*
X128282000Y-122500600D01*
X128269000Y-122492600D01*
X128256000Y-122483600D01*
X128243000Y-122473600D01*
X128231000Y-122463600D01*
X128220000Y-122452600D01*
X128209000Y-122441600D01*
X128199000Y-122429600D01*
X128189000Y-122416600D01*
X128180000Y-122403600D01*
X128172000Y-122390600D01*
X128165000Y-122376600D01*
X128158000Y-122362600D01*
X128152000Y-122348600D01*
X128147000Y-122333600D01*
X128142000Y-122318600D01*
X128139000Y-122302600D01*
X128136000Y-122287600D01*
X128134000Y-122271600D01*
X128132000Y-122256600D01*
X128132000Y-122240600D01*
X128132000Y-119140600D01*
X129932000Y-119140600D01*
X129932000Y-122240600D01*
G37*
X142632000Y-122240600D02*
X142632000Y-122256600D01*
X142630000Y-122271600D01*
X142628000Y-122287600D01*
X142625000Y-122302600D01*
X142622000Y-122318600D01*
X142617000Y-122333600D01*
X142612000Y-122348600D01*
X142606000Y-122362600D01*
X142599000Y-122376600D01*
X142592000Y-122390600D01*
X142584000Y-122403600D01*
X142575000Y-122416600D01*
X142565000Y-122429600D01*
X142555000Y-122441600D01*
X142544000Y-122452600D01*
X142533000Y-122463600D01*
X142521000Y-122473600D01*
X142508000Y-122483600D01*
X142495000Y-122492600D01*
X142482000Y-122500600D01*
X142468000Y-122507600D01*
X142454000Y-122514600D01*
X142440000Y-122520600D01*
X142425000Y-122525600D01*
X142410000Y-122530600D01*
X142394000Y-122533600D01*
X142379000Y-122536600D01*
X142363000Y-122538600D01*
X142348000Y-122540600D01*
X142332000Y-122540600D01*
X141132000Y-122540600D01*
X141116000Y-122540600D01*
X141101000Y-122538600D01*
X141085000Y-122536600D01*
X141070000Y-122533600D01*
X141054000Y-122530600D01*
X141039000Y-122525600D01*
X141024000Y-122520600D01*
X141010000Y-122514600D01*
X140996000Y-122507600D01*
X140982000Y-122500600D01*
X140969000Y-122492600D01*
X140956000Y-122483600D01*
X140943000Y-122473600D01*
X140931000Y-122463600D01*
X140920000Y-122452600D01*
X140909000Y-122441600D01*
X140899000Y-122429600D01*
X140889000Y-122416600D01*
X140880000Y-122403600D01*
X140872000Y-122390600D01*
X140865000Y-122376600D01*
X140858000Y-122362600D01*
X140852000Y-122348600D01*
X140847000Y-122333600D01*
X140842000Y-122318600D01*
X140839000Y-122302600D01*
X140836000Y-122287600D01*
X140834000Y-122271600D01*
X140832000Y-122256600D01*
X140832000Y-122240600D01*
X140832000Y-119140600D01*
X142632000Y-119140600D01*
X142632000Y-122240600D01*
G36*
X142632000Y-122240600D02*
G01*
X142632000Y-122256600D01*
X142630000Y-122271600D01*
X142628000Y-122287600D01*
X142625000Y-122302600D01*
X142622000Y-122318600D01*
X142617000Y-122333600D01*
X142612000Y-122348600D01*
X142606000Y-122362600D01*
X142599000Y-122376600D01*
X142592000Y-122390600D01*
X142584000Y-122403600D01*
X142575000Y-122416600D01*
X142565000Y-122429600D01*
X142555000Y-122441600D01*
X142544000Y-122452600D01*
X142533000Y-122463600D01*
X142521000Y-122473600D01*
X142508000Y-122483600D01*
X142495000Y-122492600D01*
X142482000Y-122500600D01*
X142468000Y-122507600D01*
X142454000Y-122514600D01*
X142440000Y-122520600D01*
X142425000Y-122525600D01*
X142410000Y-122530600D01*
X142394000Y-122533600D01*
X142379000Y-122536600D01*
X142363000Y-122538600D01*
X142348000Y-122540600D01*
X142332000Y-122540600D01*
X141132000Y-122540600D01*
X141116000Y-122540600D01*
X141101000Y-122538600D01*
X141085000Y-122536600D01*
X141070000Y-122533600D01*
X141054000Y-122530600D01*
X141039000Y-122525600D01*
X141024000Y-122520600D01*
X141010000Y-122514600D01*
X140996000Y-122507600D01*
X140982000Y-122500600D01*
X140969000Y-122492600D01*
X140956000Y-122483600D01*
X140943000Y-122473600D01*
X140931000Y-122463600D01*
X140920000Y-122452600D01*
X140909000Y-122441600D01*
X140899000Y-122429600D01*
X140889000Y-122416600D01*
X140880000Y-122403600D01*
X140872000Y-122390600D01*
X140865000Y-122376600D01*
X140858000Y-122362600D01*
X140852000Y-122348600D01*
X140847000Y-122333600D01*
X140842000Y-122318600D01*
X140839000Y-122302600D01*
X140836000Y-122287600D01*
X140834000Y-122271600D01*
X140832000Y-122256600D01*
X140832000Y-122240600D01*
X140832000Y-119140600D01*
X142632000Y-119140600D01*
X142632000Y-122240600D01*
G37*
X149082000Y-128890600D02*
X146582000Y-128890600D01*
X146535000Y-128889600D01*
X146488000Y-128885600D01*
X146441000Y-128879600D01*
X146395000Y-128870600D01*
X146349000Y-128859600D01*
X146304000Y-128846600D01*
X146259000Y-128830600D01*
X146216000Y-128812600D01*
X146173000Y-128792600D01*
X146132000Y-128769600D01*
X146092000Y-128745600D01*
X146053000Y-128718600D01*
X146016000Y-128689600D01*
X145980000Y-128659600D01*
X145946000Y-128626600D01*
X145913000Y-128592600D01*
X145883000Y-128556600D01*
X145854000Y-128519600D01*
X145827000Y-128480600D01*
X145803000Y-128440600D01*
X145780000Y-128399600D01*
X145760000Y-128356600D01*
X145742000Y-128313600D01*
X145726000Y-128268600D01*
X145713000Y-128223600D01*
X145702000Y-128177600D01*
X145693000Y-128131600D01*
X145687000Y-128084600D01*
X145683000Y-128037600D01*
X145682000Y-127990600D01*
X145683000Y-127943600D01*
X145687000Y-127896600D01*
X145693000Y-127849600D01*
X145702000Y-127803600D01*
X145713000Y-127757600D01*
X145726000Y-127712600D01*
X145742000Y-127667600D01*
X145760000Y-127624600D01*
X145780000Y-127581600D01*
X145803000Y-127540600D01*
X145827000Y-127500600D01*
X145854000Y-127461600D01*
X145883000Y-127424600D01*
X145913000Y-127388600D01*
X145946000Y-127354600D01*
X145980000Y-127321600D01*
X146016000Y-127291600D01*
X146053000Y-127262600D01*
X146092000Y-127235600D01*
X146132000Y-127211600D01*
X146173000Y-127188600D01*
X146216000Y-127168600D01*
X146259000Y-127150600D01*
X146304000Y-127134600D01*
X146349000Y-127121600D01*
X146395000Y-127110600D01*
X146441000Y-127101600D01*
X146488000Y-127095600D01*
X146535000Y-127091600D01*
X146582000Y-127090600D01*
X149082000Y-127090600D01*
X149082000Y-128890600D01*
G36*
X149082000Y-128890600D02*
G01*
X146582000Y-128890600D01*
X146535000Y-128889600D01*
X146488000Y-128885600D01*
X146441000Y-128879600D01*
X146395000Y-128870600D01*
X146349000Y-128859600D01*
X146304000Y-128846600D01*
X146259000Y-128830600D01*
X146216000Y-128812600D01*
X146173000Y-128792600D01*
X146132000Y-128769600D01*
X146092000Y-128745600D01*
X146053000Y-128718600D01*
X146016000Y-128689600D01*
X145980000Y-128659600D01*
X145946000Y-128626600D01*
X145913000Y-128592600D01*
X145883000Y-128556600D01*
X145854000Y-128519600D01*
X145827000Y-128480600D01*
X145803000Y-128440600D01*
X145780000Y-128399600D01*
X145760000Y-128356600D01*
X145742000Y-128313600D01*
X145726000Y-128268600D01*
X145713000Y-128223600D01*
X145702000Y-128177600D01*
X145693000Y-128131600D01*
X145687000Y-128084600D01*
X145683000Y-128037600D01*
X145682000Y-127990600D01*
X145683000Y-127943600D01*
X145687000Y-127896600D01*
X145693000Y-127849600D01*
X145702000Y-127803600D01*
X145713000Y-127757600D01*
X145726000Y-127712600D01*
X145742000Y-127667600D01*
X145760000Y-127624600D01*
X145780000Y-127581600D01*
X145803000Y-127540600D01*
X145827000Y-127500600D01*
X145854000Y-127461600D01*
X145883000Y-127424600D01*
X145913000Y-127388600D01*
X145946000Y-127354600D01*
X145980000Y-127321600D01*
X146016000Y-127291600D01*
X146053000Y-127262600D01*
X146092000Y-127235600D01*
X146132000Y-127211600D01*
X146173000Y-127188600D01*
X146216000Y-127168600D01*
X146259000Y-127150600D01*
X146304000Y-127134600D01*
X146349000Y-127121600D01*
X146395000Y-127110600D01*
X146441000Y-127101600D01*
X146488000Y-127095600D01*
X146535000Y-127091600D01*
X146582000Y-127090600D01*
X149082000Y-127090600D01*
X149082000Y-128890600D01*
G37*
%TD*%
D12*
%TO.C,U1*%
X98382000Y-131530600D03*
X98382000Y-129530600D03*
X101682000Y-130530600D03*
X105182000Y-133030600D03*
X107682000Y-133030600D03*
X110182000Y-133030600D03*
D13*
X98682000Y-133255600D03*
X98682000Y-127805600D03*
D14*
X101712000Y-132955600D03*
X101712000Y-128105600D03*
%TD*%
D15*
%TO.C,POGO12*%
X117330886Y-76558500D03*
%TD*%
D16*
%TO.C,BUTTON1*%
X147140000Y-115910000D03*
%TD*%
D17*
%TO.C,R7*%
X139320000Y-112800000D03*
X140970000Y-112800000D03*
%TD*%
D15*
%TO.C,POGO21*%
X123706286Y-89182300D03*
%TD*%
%TO.C,POGO14*%
X123934886Y-91595300D03*
%TD*%
%TO.C,POGO11*%
X121750486Y-76812500D03*
%TD*%
D18*
%TO.C,C11*%
X129150000Y-101080000D03*
X129150000Y-100120000D03*
%TD*%
D19*
%TO.C,H9*%
X146810000Y-94170000D03*
%TD*%
D15*
%TO.C,POGO3*%
X135872886Y-78692100D03*
%TD*%
D18*
%TO.C,C6*%
X140275000Y-101280000D03*
X140275000Y-100320000D03*
%TD*%
D16*
%TO.C,GND2*%
X149630000Y-113170000D03*
%TD*%
D20*
%TO.C,U4*%
X134130000Y-103130000D03*
D21*
X134080000Y-103530000D03*
X134080000Y-103930000D03*
X134080000Y-104330000D03*
D22*
X134325000Y-104975000D03*
X134725000Y-104975000D03*
X135125000Y-104975000D03*
X135525000Y-104975000D03*
D23*
X135770000Y-104330000D03*
X135770000Y-103930000D03*
X135770000Y-103530000D03*
X135770000Y-103130000D03*
D24*
X135525000Y-102485000D03*
X135125000Y-102485000D03*
X134725000Y-102485000D03*
X134325000Y-102485000D03*
%TD*%
D16*
%TO.C,OE_CTRL_TP1*%
X148010000Y-109940000D03*
%TD*%
D25*
%TO.C,R4*%
X123565000Y-114680000D03*
X121915000Y-114680000D03*
%TD*%
D15*
%TO.C,POGO7*%
X133100000Y-88120000D03*
%TD*%
%TO.C,POGO22*%
X121826686Y-89969700D03*
%TD*%
D19*
%TO.C,H10*%
X111130000Y-93930000D03*
%TD*%
D26*
%TO.C,U5*%
X127670000Y-102275000D03*
D27*
X126695000Y-103000000D03*
X126695000Y-103500000D03*
X126695000Y-104000000D03*
X126695000Y-104500000D03*
X126695000Y-105000000D03*
D26*
X127670000Y-105725000D03*
X129170000Y-105725000D03*
D27*
X130145000Y-105000000D03*
X130145000Y-104500000D03*
X130145000Y-104000000D03*
X130145000Y-103500000D03*
X130145000Y-103000000D03*
D26*
X129170000Y-102275000D03*
D28*
X128420000Y-104000000D03*
%TD*%
D17*
%TO.C,R11*%
X142515000Y-109580000D03*
X144165000Y-109580000D03*
%TD*%
D16*
%TO.C,GND1*%
X101840000Y-94540000D03*
%TD*%
%TO.C,BATT+1*%
X151090000Y-109260000D03*
%TD*%
%TO.C,FF_Q1*%
X143370000Y-99390000D03*
%TD*%
D17*
%TO.C,R12*%
X139320000Y-109580000D03*
X140970000Y-109580000D03*
%TD*%
D18*
%TO.C,C3*%
X135060000Y-101320000D03*
X135060000Y-100360000D03*
%TD*%
D29*
%TO.C,J3*%
X94560000Y-85100000D03*
X98460000Y-85100000D03*
X94560000Y-86370000D03*
X98460000Y-86370000D03*
X94560000Y-87640000D03*
X98460000Y-87640000D03*
X94560000Y-88910000D03*
X98460000Y-88910000D03*
X94560000Y-90180000D03*
X98460000Y-90180000D03*
%TD*%
D20*
%TO.C,U7*%
X144380000Y-103640000D03*
D21*
X144330000Y-104040000D03*
X144330000Y-104440000D03*
X144330000Y-104840000D03*
D22*
X144575000Y-105485000D03*
X144975000Y-105485000D03*
X145375000Y-105485000D03*
X145775000Y-105485000D03*
D23*
X146020000Y-104840000D03*
X146020000Y-104440000D03*
X146020000Y-104040000D03*
X146020000Y-103640000D03*
D24*
X145775000Y-102995000D03*
X145375000Y-102995000D03*
X144975000Y-102995000D03*
X144575000Y-102995000D03*
%TD*%
D30*
%TO.C,R5*%
X130720000Y-100280000D03*
X130720000Y-98630000D03*
%TD*%
D15*
%TO.C,POGO10*%
X133028086Y-83619700D03*
%TD*%
D17*
%TO.C,R8*%
X142515000Y-112800000D03*
X144165000Y-112800000D03*
%TD*%
D15*
%TO.C,POGO1*%
X140978286Y-78692100D03*
%TD*%
D31*
%TO.C,R1*%
X96350000Y-99695000D03*
X96350000Y-101345000D03*
%TD*%
D19*
%TO.C,H3*%
X84124800Y-71424800D03*
%TD*%
D18*
%TO.C,C13*%
X141215000Y-101260000D03*
X141215000Y-100300000D03*
%TD*%
D19*
%TO.C,H6*%
X151250000Y-140460000D03*
%TD*%
D15*
%TO.C,POGO19*%
X142400686Y-87480500D03*
%TD*%
D31*
%TO.C,R6*%
X132280000Y-98675000D03*
X132280000Y-100325000D03*
%TD*%
D18*
%TO.C,C14*%
X146370000Y-101530000D03*
X146370000Y-100570000D03*
%TD*%
D15*
%TO.C,POGO5*%
X142019686Y-79885900D03*
%TD*%
D32*
%TO.C,U2*%
X100155000Y-113060000D03*
X100155000Y-111360000D03*
X100155000Y-109660000D03*
D33*
X91005000Y-109660000D03*
D32*
X100155000Y-107960000D03*
X100155000Y-106260000D03*
%TD*%
D34*
%TO.C,J1*%
X88220000Y-81650000D03*
X88220000Y-82650000D03*
X88220000Y-83650000D03*
D35*
X84345000Y-80350000D03*
X84345000Y-84950000D03*
%TD*%
D18*
%TO.C,C12*%
X136190000Y-101310000D03*
X136190000Y-100350000D03*
%TD*%
D25*
%TO.C,R10*%
X123540000Y-112400000D03*
X121890000Y-112400000D03*
%TD*%
D36*
%TO.C,Q1*%
X121867500Y-107980000D03*
X121867500Y-109880000D03*
X123742500Y-108930000D03*
%TD*%
D30*
%TO.C,R2*%
X98860000Y-101345000D03*
X98860000Y-99695000D03*
%TD*%
D37*
%TO.C,SW1*%
X109200000Y-113850000D03*
X111700000Y-107550000D03*
X114200000Y-113850000D03*
%TD*%
D19*
%TO.C,H8*%
X112500000Y-70420000D03*
%TD*%
D18*
%TO.C,C2*%
X127660000Y-101080000D03*
X127660000Y-100120000D03*
%TD*%
D15*
%TO.C,POGO2*%
X118677086Y-91214300D03*
%TD*%
D16*
%TO.C,FF_CLK1*%
X151170000Y-106810000D03*
%TD*%
D19*
%TO.C,H5*%
X151079200Y-71424800D03*
%TD*%
D16*
%TO.C,I2C_SDA1*%
X151190000Y-101599360D03*
%TD*%
D19*
%TO.C,H7*%
X139400000Y-70490000D03*
%TD*%
D15*
%TO.C,POGO16*%
X130538886Y-74704300D03*
%TD*%
%TO.C,POGO15*%
X135695086Y-89944300D03*
%TD*%
D16*
%TO.C,VCC_SENSE1*%
X151270000Y-98500000D03*
%TD*%
D38*
%TO.C,C10*%
X104935000Y-102980000D03*
X101985000Y-102980000D03*
%TD*%
D20*
%TO.C,U6*%
X139280000Y-103590000D03*
D21*
X139230000Y-103990000D03*
X139230000Y-104390000D03*
X139230000Y-104790000D03*
D22*
X139475000Y-105435000D03*
X139875000Y-105435000D03*
X140275000Y-105435000D03*
X140675000Y-105435000D03*
D23*
X140920000Y-104790000D03*
X140920000Y-104390000D03*
X140920000Y-103990000D03*
X140920000Y-103590000D03*
D24*
X140675000Y-102945000D03*
X140275000Y-102945000D03*
X139875000Y-102945000D03*
X139475000Y-102945000D03*
%TD*%
D16*
%TO.C,GND3*%
X88990000Y-98250000D03*
%TD*%
%TO.C,FF_D1*%
X151210000Y-117020000D03*
%TD*%
D18*
%TO.C,C7*%
X145360000Y-101510000D03*
X145360000Y-100550000D03*
%TD*%
D16*
%TO.C,I2C_CLK1*%
X151190000Y-104200000D03*
%TD*%
D15*
%TO.C,POGO8*%
X133637686Y-90122100D03*
%TD*%
D39*
%TO.C,C9*%
X100187500Y-116310000D03*
X103112500Y-116310000D03*
%TD*%
D15*
%TO.C,POGO6*%
X143645286Y-88623500D03*
%TD*%
D19*
%TO.C,H4*%
X84330000Y-117550000D03*
%TD*%
M02*
