G04 #@! TF.GenerationSoftware,KiCad,Pcbnew,7.0.10-7.0.10~ubuntu22.04.1*
G04 #@! TF.CreationDate,2024-02-23T20:42:25+01:00*
G04 #@! TF.ProjectId,dictofun,64696374-6f66-4756-9e2e-6b696361645f,rev?*
G04 #@! TF.SameCoordinates,Original*
G04 #@! TF.FileFunction,Copper,L3,Inr*
G04 #@! TF.FilePolarity,Positive*
%FSLAX45Y45*%
G04 Gerber Fmt 4.5, Leading zero omitted, Abs format (unit mm)*
G04 Created by KiCad (PCBNEW 7.0.10-7.0.10~ubuntu22.04.1) date 2024-02-23 20:42:25*
%MOMM*%
%LPD*%
G01*
G04 APERTURE LIST*
G04 #@! TA.AperFunction,ComponentPad*
%ADD10C,0.500000*%
G04 #@! TD*
G04 #@! TA.AperFunction,ComponentPad*
%ADD11R,0.850000X0.850000*%
G04 #@! TD*
G04 #@! TA.AperFunction,ComponentPad*
%ADD12C,0.610000*%
G04 #@! TD*
G04 #@! TA.AperFunction,ComponentPad*
%ADD13O,1.900000X1.200000*%
G04 #@! TD*
G04 #@! TA.AperFunction,ComponentPad*
%ADD14C,1.450000*%
G04 #@! TD*
G04 #@! TA.AperFunction,ViaPad*
%ADD15C,0.250000*%
G04 #@! TD*
G04 #@! TA.AperFunction,ViaPad*
%ADD16C,0.300000*%
G04 #@! TD*
G04 #@! TA.AperFunction,ViaPad*
%ADD17C,0.600000*%
G04 #@! TD*
G04 #@! TA.AperFunction,Conductor*
%ADD18C,0.127000*%
G04 #@! TD*
G04 #@! TA.AperFunction,Conductor*
%ADD19C,0.200000*%
G04 #@! TD*
G04 #@! TA.AperFunction,Conductor*
%ADD20C,0.254000*%
G04 #@! TD*
G04 #@! TA.AperFunction,Conductor*
%ADD21C,0.500000*%
G04 #@! TD*
G04 #@! TA.AperFunction,Conductor*
%ADD22C,0.090000*%
G04 #@! TD*
G04 APERTURE END LIST*
D10*
X14901500Y-10486500D03*
X14806500Y-10486500D03*
X14901500Y-10581500D03*
X14806500Y-10581500D03*
D11*
X13265000Y-10725000D03*
D12*
X12970000Y-9540000D03*
X12970000Y-9673300D03*
X12970000Y-9806700D03*
X12970000Y-9940000D03*
X13090000Y-9540000D03*
X13090000Y-9673300D03*
X13090000Y-9806700D03*
X13090000Y-9940000D03*
X13210000Y-9540000D03*
X13210000Y-9673300D03*
X13210000Y-9806700D03*
X13210000Y-9940000D03*
X13330000Y-9540000D03*
X13330000Y-9673300D03*
X13330000Y-9806700D03*
X13330000Y-9940000D03*
D13*
X15350000Y-9550000D03*
D14*
X15080000Y-9650000D03*
X15080000Y-10150000D03*
D13*
X15350000Y-10250000D03*
D15*
X14930000Y-9650000D03*
X13695000Y-10535000D03*
D16*
X13820000Y-10300000D03*
D15*
X14180000Y-10325000D03*
X13140000Y-10600000D03*
X13465000Y-9240000D03*
D17*
X15070000Y-10540000D03*
D15*
X13709000Y-9809000D03*
X13390000Y-10240000D03*
X12642000Y-9463000D03*
X12930000Y-9175000D03*
X12705000Y-9290000D03*
D17*
X14390000Y-9020000D03*
D15*
X13725000Y-10355000D03*
D17*
X14880000Y-9000000D03*
D15*
X12890000Y-10230000D03*
X15218000Y-10187000D03*
X13665000Y-9940000D03*
X13731000Y-10776000D03*
D17*
X15308000Y-10450000D03*
D16*
X11925000Y-10325000D03*
D15*
X13770000Y-10410000D03*
X12637368Y-9899251D03*
X13005000Y-9100000D03*
D16*
X14195000Y-9375000D03*
X15027000Y-9514000D03*
D15*
X13655000Y-9060000D03*
X13310000Y-9440000D03*
X13502181Y-9895903D03*
X14925000Y-9804000D03*
D17*
X14760000Y-10310000D03*
X15240000Y-10410000D03*
D15*
X12628000Y-9596000D03*
X13665000Y-9898000D03*
D17*
X14630000Y-10420000D03*
D15*
X14605000Y-10118000D03*
D16*
X12730000Y-10275000D03*
X12410000Y-10555000D03*
D15*
X13945000Y-9342000D03*
X14397000Y-10583000D03*
X13506000Y-9628000D03*
X14701000Y-9553000D03*
D17*
X14810000Y-9240000D03*
D16*
X11918000Y-9245000D03*
D15*
X12470000Y-9063000D03*
D16*
X15205000Y-9520000D03*
D15*
X12540000Y-9325000D03*
D16*
X12435000Y-10245000D03*
D15*
X14366000Y-10776000D03*
X11630000Y-9660000D03*
X11755000Y-10180000D03*
X14967000Y-9988000D03*
X13184000Y-10256000D03*
D16*
X13480000Y-10120000D03*
D15*
X13145000Y-10350000D03*
X12640000Y-9758000D03*
X13390000Y-9100000D03*
X14090000Y-9900000D03*
D16*
X11750000Y-10375000D03*
D15*
X13830000Y-9250000D03*
X12900000Y-9333000D03*
D17*
X15121482Y-9337722D03*
D15*
X12230000Y-9845000D03*
X11990000Y-9525000D03*
X13500000Y-9780000D03*
X13370000Y-10070000D03*
D16*
X13410000Y-9350000D03*
D15*
X12800000Y-9740000D03*
X12737000Y-9540000D03*
X13473000Y-9542000D03*
D17*
X14640000Y-9010000D03*
D16*
X12795000Y-10670000D03*
D15*
X13200000Y-10075000D03*
X12794000Y-9458000D03*
D16*
X12980000Y-10790000D03*
D15*
X12752000Y-9900000D03*
X12140000Y-9090000D03*
D16*
X12890000Y-10070000D03*
D15*
X13430000Y-9960000D03*
X12800000Y-9620000D03*
X14195000Y-9145000D03*
D17*
X14820000Y-9090000D03*
D15*
X13005000Y-10244000D03*
D16*
X12695000Y-10135000D03*
X12830000Y-10800000D03*
D15*
X13023000Y-10315000D03*
D16*
X15007500Y-10360000D03*
X14840000Y-10290000D03*
X14620000Y-10340000D03*
D15*
X12766000Y-10030000D03*
X12870000Y-10001000D03*
X12800000Y-10095000D03*
X12830000Y-9861000D03*
X12520000Y-9672000D03*
X12870000Y-9680000D03*
X13991000Y-9158000D03*
D16*
X15115000Y-10270000D03*
D15*
X14630000Y-9850000D03*
D16*
X15080000Y-10620000D03*
D15*
X14105000Y-9031000D03*
X13110000Y-9440000D03*
X14390000Y-10370000D03*
X14081000Y-10559000D03*
X12767000Y-9800000D03*
X14115000Y-10675000D03*
D16*
X12775000Y-9330000D03*
X12255000Y-9320000D03*
D15*
X12950000Y-9440000D03*
X12416000Y-9024000D03*
X12965000Y-9370000D03*
D16*
X12815000Y-9270000D03*
D15*
X13320000Y-10250000D03*
X13780000Y-10000000D03*
D16*
X12449000Y-9395000D03*
D15*
X12800000Y-9140000D03*
D17*
X15010000Y-9010000D03*
X14840000Y-10800000D03*
X14550000Y-9490000D03*
D15*
X14302500Y-9437500D03*
X13985000Y-10655000D03*
D17*
X14410000Y-10500000D03*
D15*
X13827000Y-10676000D03*
X12545000Y-9140000D03*
X12690000Y-9050000D03*
X15215000Y-10094000D03*
X14384023Y-10108542D03*
X12314000Y-9750000D03*
X12485000Y-9845000D03*
X14898000Y-10007000D03*
X15196000Y-9914000D03*
X13617000Y-9311000D03*
X13679000Y-9284000D03*
X14917000Y-9883000D03*
X13013000Y-10101000D03*
D16*
X12600000Y-10240000D03*
D15*
X12870000Y-9560000D03*
X12693753Y-9803728D03*
X13310000Y-10118000D03*
X13597000Y-10020000D03*
X13875000Y-9621000D03*
X13620000Y-9666000D03*
X13664000Y-9546000D03*
X13431000Y-9520000D03*
X13506000Y-9508000D03*
X13587000Y-9415000D03*
X13652000Y-9232000D03*
X14933000Y-9748000D03*
X13857500Y-10022500D03*
X13430000Y-9880000D03*
X12968000Y-9042000D03*
D16*
X12094000Y-9521000D03*
X14966647Y-9467129D03*
X15220000Y-9675000D03*
D17*
X14960000Y-9340000D03*
D15*
X14175000Y-8985000D03*
D16*
X14330000Y-10455000D03*
X14060000Y-9370000D03*
D15*
X13431000Y-9680000D03*
D16*
X13970000Y-9650000D03*
X14070000Y-9525000D03*
X14065000Y-9780000D03*
D15*
X13430000Y-9760000D03*
X14965000Y-10154000D03*
D16*
X12211000Y-9405000D03*
X12866000Y-9111300D03*
D15*
X12646000Y-9340000D03*
X13030000Y-9440000D03*
D18*
X13709000Y-9809000D02*
X13691000Y-9809000D01*
X13674000Y-9792000D02*
X13674000Y-9613000D01*
X13674000Y-9613000D02*
X13945000Y-9342000D01*
X13691000Y-9809000D02*
X13674000Y-9792000D01*
X12926000Y-10034000D02*
X12926000Y-10000000D01*
X12926000Y-10000000D02*
X12932000Y-9994000D01*
X12551256Y-9845000D02*
X12504406Y-9891850D01*
X12752000Y-9900000D02*
X12826000Y-9926000D01*
X12913150Y-9910000D02*
X12918150Y-9905000D01*
D19*
X12860000Y-10670000D02*
X12795000Y-10670000D01*
D18*
X12918150Y-9491850D02*
X12918150Y-9511452D01*
X12889406Y-9726850D02*
X12850594Y-9726850D01*
X13390000Y-9827098D02*
X13390000Y-9785000D01*
X12850594Y-9726850D02*
X12823150Y-9699406D01*
D19*
X12945000Y-10125000D02*
X12890000Y-10070000D01*
D18*
X12932000Y-9982398D02*
X12913150Y-9963548D01*
X12932000Y-9994000D02*
X12932000Y-9982398D01*
D19*
X12980000Y-10790000D02*
X12980000Y-10345000D01*
D18*
X12823150Y-9660594D02*
X12850594Y-9633150D01*
X12918150Y-9905000D02*
X12914000Y-9900850D01*
X13390000Y-9919602D02*
X13376000Y-9905602D01*
D20*
X13830000Y-9250000D02*
X13611800Y-9468200D01*
X14595000Y-9135000D02*
X14585000Y-9145000D01*
D18*
X12913150Y-9830248D02*
X12913150Y-9746150D01*
X13390000Y-9815000D02*
X13390000Y-9785000D01*
X12850594Y-9633150D02*
X12873000Y-9633150D01*
D20*
X13541436Y-9468200D02*
X13423236Y-9350000D01*
D18*
X12891000Y-9466000D02*
X12806000Y-9466000D01*
X12897150Y-9926000D02*
X12918150Y-9905000D01*
X12913150Y-9516452D02*
X12913150Y-9563548D01*
X13365000Y-10000000D02*
X13390000Y-10000000D01*
X13396000Y-9569000D02*
X13387000Y-9560000D01*
X12823150Y-9699406D02*
X12823150Y-9660594D01*
X12894000Y-9466000D02*
X12891000Y-9466000D01*
X13290594Y-9393150D02*
X13263150Y-9420594D01*
X12913150Y-9563548D02*
X12920000Y-9570398D01*
X13390000Y-9950000D02*
X13390000Y-9919602D01*
X12760000Y-9892000D02*
X12760000Y-9845000D01*
X13387000Y-9560000D02*
X13387000Y-9401000D01*
X13446000Y-9569000D02*
X13396000Y-9569000D01*
X13379150Y-9393150D02*
X13290594Y-9393150D01*
X12752000Y-9900000D02*
X12760000Y-9892000D01*
X13200000Y-10075000D02*
X13215000Y-10060000D01*
X13473000Y-9541000D02*
X13473000Y-9542000D01*
X13376000Y-9841098D02*
X13390000Y-9827098D01*
X12920000Y-9570398D02*
X12920000Y-9614000D01*
X13215000Y-10060000D02*
X13215000Y-10000000D01*
X12918000Y-9490000D02*
X12894000Y-9466000D01*
X13263150Y-9459406D02*
X13273150Y-9469406D01*
X13263150Y-9420594D02*
X13263150Y-9459406D01*
X12913150Y-9963548D02*
X12913150Y-9910000D01*
X12890000Y-10070000D02*
X12926000Y-10034000D01*
X12504406Y-9891850D02*
X12276850Y-9891850D01*
X12918150Y-9511452D02*
X12913150Y-9516452D01*
D20*
X13611800Y-9468200D02*
X13541436Y-9468200D01*
D18*
X12813150Y-9726850D02*
X12800000Y-9740000D01*
D20*
X13423236Y-9350000D02*
X13410000Y-9350000D01*
D18*
X13387000Y-9401000D02*
X13379150Y-9393150D01*
X12800000Y-9603000D02*
X12737000Y-9540000D01*
X12826000Y-9926000D02*
X12897150Y-9926000D01*
X13273150Y-9469406D02*
X13273150Y-9696848D01*
X12897000Y-9460000D02*
X12891000Y-9466000D01*
X12893850Y-9726850D02*
X12813150Y-9726850D01*
X13306452Y-9730150D02*
X13335150Y-9730150D01*
X12900850Y-9633150D02*
X12850594Y-9633150D01*
X12905000Y-9740000D02*
X12890628Y-9725628D01*
X12806000Y-9466000D02*
X12800000Y-9460000D01*
X13376000Y-9905602D02*
X13376000Y-9841098D01*
X13215000Y-10000000D02*
X13365000Y-10000000D01*
X12850594Y-9633150D02*
X12845744Y-9638000D01*
X13469000Y-9537000D02*
X13473000Y-9541000D01*
X13390000Y-10000000D02*
X13390000Y-9950000D01*
X12845744Y-9638000D02*
X12818000Y-9638000D01*
X12800000Y-9620000D02*
X12800000Y-9603000D01*
X12276850Y-9891850D02*
X12230000Y-9845000D01*
X12913150Y-9746150D02*
X12893850Y-9726850D01*
X13425000Y-9950000D02*
X13390000Y-9950000D01*
X13465000Y-9815000D02*
X13390000Y-9815000D01*
X12914000Y-9900850D02*
X12914000Y-9831098D01*
X12926000Y-10000000D02*
X13215000Y-10000000D01*
D19*
X12980000Y-10790000D02*
X12860000Y-10670000D01*
D18*
X12818000Y-9638000D02*
X12800000Y-9620000D01*
D20*
X14640000Y-9090000D02*
X14595000Y-9135000D01*
D18*
X13410000Y-9433744D02*
X13411628Y-9435372D01*
X12920000Y-9490000D02*
X12918150Y-9491850D01*
D20*
X14585000Y-9145000D02*
X14195000Y-9145000D01*
D18*
X13500000Y-9780000D02*
X13465000Y-9815000D01*
X12914000Y-9831098D02*
X12913150Y-9830248D01*
X13370000Y-10070000D02*
X13370000Y-10005000D01*
D19*
X12945000Y-10310000D02*
X12945000Y-10125000D01*
D18*
X13273150Y-9696848D02*
X13306452Y-9730150D01*
X12760000Y-9845000D02*
X12551256Y-9845000D01*
D20*
X14640000Y-9010000D02*
X14640000Y-9090000D01*
D18*
X13335150Y-9730150D02*
X13390000Y-9785000D01*
X12897000Y-9336000D02*
X12897000Y-9460000D01*
X13410000Y-9350000D02*
X13410000Y-9433744D01*
X12900000Y-9333000D02*
X12897000Y-9336000D01*
X13473000Y-9542000D02*
X13446000Y-9569000D01*
X12890628Y-9725628D02*
X12889406Y-9726850D01*
X13370000Y-10005000D02*
X13365000Y-10000000D01*
X12920000Y-9614000D02*
X12900850Y-9633150D01*
D19*
X12980000Y-10345000D02*
X12945000Y-10310000D01*
D20*
X14673000Y-9850000D02*
X14630000Y-9850000D01*
X14773000Y-10129000D02*
X14773000Y-9950000D01*
X14773000Y-9950000D02*
X14673000Y-9850000D01*
X15115000Y-10270000D02*
X14914000Y-10270000D01*
X14914000Y-10270000D02*
X14773000Y-10129000D01*
D18*
X14410000Y-10500000D02*
X14525000Y-10500000D01*
D20*
X13944400Y-8984400D02*
X12865600Y-8984400D01*
D18*
X12449000Y-9395000D02*
X12489000Y-9355000D01*
X12658744Y-9140000D02*
X12800000Y-9140000D01*
X14525000Y-10500000D02*
X14530000Y-10495000D01*
D20*
X12800000Y-9050000D02*
X12800000Y-9140000D01*
X14505000Y-9535000D02*
X14550000Y-9490000D01*
D18*
X13985000Y-10740000D02*
X14085000Y-10840000D01*
D21*
X14775000Y-10800000D02*
X14530000Y-10555000D01*
D18*
X13985000Y-10655000D02*
X13985000Y-10740000D01*
D20*
X14322500Y-9437500D02*
X14302500Y-9437500D01*
D18*
X12489000Y-9309744D02*
X12658744Y-9140000D01*
D21*
X14530000Y-9510000D02*
X14550000Y-9490000D01*
D18*
X12489000Y-9355000D02*
X12489000Y-9309744D01*
D20*
X12865600Y-8984400D02*
X12800000Y-9050000D01*
D21*
X14530000Y-10555000D02*
X14530000Y-10495000D01*
D20*
X14505000Y-9545000D02*
X14505000Y-9535000D01*
D18*
X14085000Y-10840000D02*
X14735000Y-10840000D01*
D21*
X14530000Y-10495000D02*
X14530000Y-9510000D01*
D20*
X14360000Y-9400000D02*
X14322500Y-9437500D01*
X14505000Y-9545000D02*
X14360000Y-9400000D01*
D18*
X14735000Y-10840000D02*
X14775000Y-10800000D01*
D20*
X14360000Y-9400000D02*
X13944400Y-8984400D01*
D21*
X14840000Y-10800000D02*
X14775000Y-10800000D01*
D22*
X13431000Y-9520000D02*
X13431000Y-9519360D01*
D18*
X14966647Y-9346647D02*
X14960000Y-9340000D01*
X15041208Y-9426000D02*
X15220000Y-9604792D01*
X14966647Y-9467129D02*
X14966647Y-9426000D01*
X15220000Y-9604792D02*
X15220000Y-9675000D01*
X14966647Y-9426000D02*
X15041208Y-9426000D01*
X14966647Y-9467129D02*
X14966647Y-9346647D01*
G04 #@! TA.AperFunction,Conductor*
G36*
X12835452Y-8946969D02*
G01*
X12840028Y-8952249D01*
X12841022Y-8959165D01*
X12838119Y-8965520D01*
X12837516Y-8966168D01*
X12778236Y-9025448D01*
X12777439Y-9026179D01*
X12774525Y-9028624D01*
X12774525Y-9028624D01*
X12772623Y-9031918D01*
X12772042Y-9032830D01*
X12769860Y-9035946D01*
X12769647Y-9036403D01*
X12768922Y-9038153D01*
X12768750Y-9038627D01*
X12768090Y-9042372D01*
X12767856Y-9043427D01*
X12766871Y-9047102D01*
X12767203Y-9050890D01*
X12767250Y-9051971D01*
X12767250Y-9101200D01*
X12765281Y-9107904D01*
X12760001Y-9112479D01*
X12754850Y-9113600D01*
X12662565Y-9113600D01*
X12660146Y-9113362D01*
X12659635Y-9113260D01*
X12658744Y-9113083D01*
X12658744Y-9113083D01*
X12656144Y-9113600D01*
X12648443Y-9115132D01*
X12641914Y-9119494D01*
X12639711Y-9120967D01*
X12638916Y-9122156D01*
X12637374Y-9124034D01*
X12596806Y-9164603D01*
X12590674Y-9167951D01*
X12583705Y-9167453D01*
X12578111Y-9163265D01*
X12575670Y-9156719D01*
X12576257Y-9152513D01*
X12576252Y-9152512D01*
X12576278Y-9152362D01*
X12576386Y-9151593D01*
X12576440Y-9151445D01*
X12576440Y-9151443D01*
X12578458Y-9140000D01*
X12576440Y-9128557D01*
X12572370Y-9121507D01*
X12570631Y-9118494D01*
X12570631Y-9118494D01*
X12570630Y-9118493D01*
X12570630Y-9118493D01*
X12570630Y-9118493D01*
X12562229Y-9111444D01*
X12561729Y-9111024D01*
X12550810Y-9107050D01*
X12539190Y-9107050D01*
X12528271Y-9111024D01*
X12520668Y-9117404D01*
X12519369Y-9118494D01*
X12519369Y-9118494D01*
X12513560Y-9128556D01*
X12513559Y-9128557D01*
X12511542Y-9140000D01*
X12511542Y-9140000D01*
X12513559Y-9151443D01*
X12513560Y-9151444D01*
X12519369Y-9161506D01*
X12519369Y-9161506D01*
X12519369Y-9161507D01*
X12528271Y-9168976D01*
X12539190Y-9172950D01*
X12539190Y-9172950D01*
X12550810Y-9172950D01*
X12550810Y-9172950D01*
X12557444Y-9170535D01*
X12564417Y-9170092D01*
X12570522Y-9173489D01*
X12573822Y-9179648D01*
X12573268Y-9186613D01*
X12570453Y-9190956D01*
X12473034Y-9288374D01*
X12471156Y-9289916D01*
X12469967Y-9290711D01*
X12467472Y-9294444D01*
X12467472Y-9294444D01*
X12464132Y-9299443D01*
X12463326Y-9303493D01*
X12462221Y-9309050D01*
X12462083Y-9309744D01*
X12462362Y-9311146D01*
X12462600Y-9313565D01*
X12462600Y-9338928D01*
X12460631Y-9345632D01*
X12458968Y-9347697D01*
X12450134Y-9356531D01*
X12444001Y-9359879D01*
X12443306Y-9360010D01*
X12437909Y-9360865D01*
X12427903Y-9365963D01*
X12419963Y-9373903D01*
X12414865Y-9383909D01*
X12413108Y-9395000D01*
X12413108Y-9395000D01*
X12414865Y-9406091D01*
X12419963Y-9416097D01*
X12427903Y-9424037D01*
X12437909Y-9429135D01*
X12449000Y-9430892D01*
X12449000Y-9430892D01*
X12449000Y-9430892D01*
X12460091Y-9429135D01*
X12460091Y-9429135D01*
X12460091Y-9429135D01*
X12470097Y-9424037D01*
X12478037Y-9416097D01*
X12483135Y-9406091D01*
X12483990Y-9400694D01*
X12486983Y-9394381D01*
X12487467Y-9393868D01*
X12504965Y-9376370D01*
X12506845Y-9374828D01*
X12508033Y-9374033D01*
X12513868Y-9365301D01*
X12513868Y-9365300D01*
X12514336Y-9364172D01*
X12514550Y-9364261D01*
X12517021Y-9359536D01*
X12523092Y-9356078D01*
X12530069Y-9356451D01*
X12530173Y-9356488D01*
X12534190Y-9357950D01*
X12534190Y-9357950D01*
X12545810Y-9357950D01*
X12545810Y-9357950D01*
X12556729Y-9353976D01*
X12565630Y-9346507D01*
X12569387Y-9340000D01*
X12612542Y-9340000D01*
X12614559Y-9351443D01*
X12614560Y-9351444D01*
X12620369Y-9361506D01*
X12620370Y-9361507D01*
X12623546Y-9364172D01*
X12629271Y-9368976D01*
X12640190Y-9372950D01*
X12640190Y-9372950D01*
X12651810Y-9372950D01*
X12651810Y-9372950D01*
X12662729Y-9368976D01*
X12671630Y-9361507D01*
X12677440Y-9351443D01*
X12679458Y-9340000D01*
X12678622Y-9335257D01*
X12679396Y-9328314D01*
X12683802Y-9322891D01*
X12690440Y-9320710D01*
X12695074Y-9321452D01*
X12699190Y-9322950D01*
X12699190Y-9322950D01*
X12710810Y-9322950D01*
X12710810Y-9322950D01*
X12721729Y-9318976D01*
X12721729Y-9318976D01*
X12722467Y-9318707D01*
X12729440Y-9318264D01*
X12735545Y-9321661D01*
X12738845Y-9327820D01*
X12739001Y-9329323D01*
X12740865Y-9341091D01*
X12745963Y-9351097D01*
X12753903Y-9359037D01*
X12763909Y-9364135D01*
X12775000Y-9365892D01*
X12775000Y-9365892D01*
X12775000Y-9365892D01*
X12786091Y-9364135D01*
X12786091Y-9364135D01*
X12786091Y-9364135D01*
X12796097Y-9359037D01*
X12804037Y-9351097D01*
X12809135Y-9341091D01*
X12809135Y-9341091D01*
X12809135Y-9341091D01*
X12810892Y-9330000D01*
X12810892Y-9330000D01*
X12809207Y-9319364D01*
X12810103Y-9312435D01*
X12811310Y-9311000D01*
X13583542Y-9311000D01*
X13585559Y-9322443D01*
X13585560Y-9322444D01*
X13591369Y-9332506D01*
X13591370Y-9332507D01*
X13593278Y-9334108D01*
X13600271Y-9339976D01*
X13611190Y-9343950D01*
X13611190Y-9343950D01*
X13622810Y-9343950D01*
X13622810Y-9343950D01*
X13633729Y-9339976D01*
X13642630Y-9332507D01*
X13648440Y-9322443D01*
X13648441Y-9322443D01*
X13648811Y-9321424D01*
X13649176Y-9321557D01*
X13651375Y-9317114D01*
X13657368Y-9313522D01*
X13664352Y-9313740D01*
X13664724Y-9313869D01*
X13673190Y-9316950D01*
X13673190Y-9316950D01*
X13684810Y-9316950D01*
X13684810Y-9316950D01*
X13695729Y-9312976D01*
X13704630Y-9305507D01*
X13710440Y-9295443D01*
X13712458Y-9284000D01*
X13710440Y-9272557D01*
X13704630Y-9262493D01*
X13704630Y-9262493D01*
X13704630Y-9262493D01*
X13695729Y-9255024D01*
X13692040Y-9253681D01*
X13686413Y-9249539D01*
X13683920Y-9243012D01*
X13684069Y-9239876D01*
X13684777Y-9235865D01*
X13685458Y-9232000D01*
X13683440Y-9220557D01*
X13678883Y-9212663D01*
X13677631Y-9210494D01*
X13677631Y-9210494D01*
X13677630Y-9210493D01*
X13677630Y-9210493D01*
X13677630Y-9210493D01*
X13668729Y-9203024D01*
X13668729Y-9203024D01*
X13657810Y-9199050D01*
X13646190Y-9199050D01*
X13635271Y-9203024D01*
X13628020Y-9209108D01*
X13626369Y-9210494D01*
X13626369Y-9210494D01*
X13620560Y-9220556D01*
X13620559Y-9220557D01*
X13618542Y-9232000D01*
X13618542Y-9232000D01*
X13620559Y-9243443D01*
X13620560Y-9243444D01*
X13626369Y-9253506D01*
X13626369Y-9253506D01*
X13626369Y-9253507D01*
X13629450Y-9256091D01*
X13629521Y-9256151D01*
X13633391Y-9261968D01*
X13633502Y-9268954D01*
X13629818Y-9274891D01*
X13623510Y-9277894D01*
X13621550Y-9278050D01*
X13611190Y-9278050D01*
X13600271Y-9282024D01*
X13592703Y-9288374D01*
X13591369Y-9289494D01*
X13591369Y-9289494D01*
X13585560Y-9299556D01*
X13585559Y-9299557D01*
X13583542Y-9311000D01*
X13583542Y-9311000D01*
X12811310Y-9311000D01*
X12814602Y-9307089D01*
X12819514Y-9305177D01*
X12826091Y-9304135D01*
X12836097Y-9299037D01*
X12844037Y-9291097D01*
X12849135Y-9281091D01*
X12849135Y-9281091D01*
X12849135Y-9281091D01*
X12850892Y-9270000D01*
X12850892Y-9270000D01*
X12849135Y-9258909D01*
X12844037Y-9248903D01*
X12836096Y-9240963D01*
X12834207Y-9240000D01*
X13431542Y-9240000D01*
X13433559Y-9251443D01*
X13433560Y-9251444D01*
X13439369Y-9261506D01*
X13439370Y-9261507D01*
X13443473Y-9264950D01*
X13448271Y-9268976D01*
X13459190Y-9272950D01*
X13459190Y-9272950D01*
X13470810Y-9272950D01*
X13470810Y-9272950D01*
X13481729Y-9268976D01*
X13490630Y-9261507D01*
X13496440Y-9251443D01*
X13498458Y-9240000D01*
X13498436Y-9239876D01*
X13497048Y-9232000D01*
X13496440Y-9228557D01*
X13490630Y-9218493D01*
X13490630Y-9218493D01*
X13490630Y-9218493D01*
X13481729Y-9211024D01*
X13481729Y-9211024D01*
X13470810Y-9207050D01*
X13459190Y-9207050D01*
X13449730Y-9210493D01*
X13448271Y-9211024D01*
X13439369Y-9218494D01*
X13439369Y-9218494D01*
X13433560Y-9228556D01*
X13433559Y-9228557D01*
X13431542Y-9240000D01*
X13431542Y-9240000D01*
X12834207Y-9240000D01*
X12826091Y-9235865D01*
X12815000Y-9234108D01*
X12815000Y-9234108D01*
X12803909Y-9235865D01*
X12793903Y-9240963D01*
X12785963Y-9248903D01*
X12780865Y-9258909D01*
X12779108Y-9270000D01*
X12779108Y-9270000D01*
X12780793Y-9280636D01*
X12779897Y-9287565D01*
X12775397Y-9292911D01*
X12770485Y-9294823D01*
X12763909Y-9295865D01*
X12756436Y-9299672D01*
X12749569Y-9300962D01*
X12743095Y-9298334D01*
X12739070Y-9292623D01*
X12738595Y-9290777D01*
X12737752Y-9285995D01*
X12736440Y-9278557D01*
X12731500Y-9270000D01*
X12730631Y-9268494D01*
X12730631Y-9268494D01*
X12730630Y-9268493D01*
X12730630Y-9268493D01*
X12730630Y-9268493D01*
X12721729Y-9261024D01*
X12721729Y-9261024D01*
X12710810Y-9257050D01*
X12699190Y-9257050D01*
X12688271Y-9261024D01*
X12680748Y-9267337D01*
X12679369Y-9268494D01*
X12679369Y-9268494D01*
X12673560Y-9278556D01*
X12673559Y-9278557D01*
X12671542Y-9290000D01*
X12671542Y-9290000D01*
X12672378Y-9294743D01*
X12671603Y-9301686D01*
X12667198Y-9307109D01*
X12660560Y-9309290D01*
X12655925Y-9308548D01*
X12651810Y-9307050D01*
X12640190Y-9307050D01*
X12629271Y-9311024D01*
X12622014Y-9317114D01*
X12620369Y-9318494D01*
X12620369Y-9318494D01*
X12614560Y-9328556D01*
X12614559Y-9328557D01*
X12612542Y-9340000D01*
X12612542Y-9340000D01*
X12569387Y-9340000D01*
X12571440Y-9336443D01*
X12573458Y-9325000D01*
X12573007Y-9322443D01*
X12572349Y-9318707D01*
X12571440Y-9313557D01*
X12568535Y-9308525D01*
X12565631Y-9303494D01*
X12565631Y-9303494D01*
X12565630Y-9303493D01*
X12558029Y-9297115D01*
X12554159Y-9291298D01*
X12554048Y-9284312D01*
X12557231Y-9278848D01*
X12666047Y-9170032D01*
X12672180Y-9166683D01*
X12674815Y-9166400D01*
X12775688Y-9166400D01*
X12782392Y-9168369D01*
X12783020Y-9168831D01*
X12783270Y-9168975D01*
X12783271Y-9168976D01*
X12794190Y-9172950D01*
X12794190Y-9172950D01*
X12805810Y-9172950D01*
X12805810Y-9172950D01*
X12816729Y-9168976D01*
X12825630Y-9161507D01*
X12831440Y-9151443D01*
X12831441Y-9151443D01*
X12831811Y-9150424D01*
X12831930Y-9150467D01*
X12834539Y-9145202D01*
X12840534Y-9141613D01*
X12847517Y-9141834D01*
X12849278Y-9142566D01*
X12854909Y-9145435D01*
X12866000Y-9147192D01*
X12866000Y-9147192D01*
X12866000Y-9147192D01*
X12877091Y-9145435D01*
X12877091Y-9145435D01*
X12877091Y-9145435D01*
X12885031Y-9141390D01*
X12891898Y-9140100D01*
X12898372Y-9142728D01*
X12902398Y-9148438D01*
X12902697Y-9155419D01*
X12901399Y-9158638D01*
X12898559Y-9163557D01*
X12898559Y-9163557D01*
X12896542Y-9175000D01*
X12896542Y-9175000D01*
X12898559Y-9186443D01*
X12898560Y-9186444D01*
X12904369Y-9196506D01*
X12904369Y-9196506D01*
X12904369Y-9196507D01*
X12913271Y-9203976D01*
X12924190Y-9207950D01*
X12924190Y-9207950D01*
X12935810Y-9207950D01*
X12935810Y-9207950D01*
X12946729Y-9203976D01*
X12955630Y-9196507D01*
X12961440Y-9186443D01*
X12963458Y-9175000D01*
X12961440Y-9163557D01*
X12958232Y-9158000D01*
X13957542Y-9158000D01*
X13959559Y-9169443D01*
X13959560Y-9169444D01*
X13965369Y-9179506D01*
X13965369Y-9179506D01*
X13965369Y-9179507D01*
X13974271Y-9186976D01*
X13985190Y-9190950D01*
X13985190Y-9190950D01*
X13996810Y-9190950D01*
X13996810Y-9190950D01*
X14007729Y-9186976D01*
X14016630Y-9179507D01*
X14022440Y-9169443D01*
X14024458Y-9158000D01*
X14022440Y-9146557D01*
X14018713Y-9140100D01*
X14017897Y-9138688D01*
X14016250Y-9131898D01*
X14016307Y-9131733D01*
X14009595Y-9130273D01*
X14007970Y-9129163D01*
X14007729Y-9129025D01*
X14007729Y-9129024D01*
X14007729Y-9129024D01*
X13996810Y-9125050D01*
X13985190Y-9125050D01*
X13975557Y-9128556D01*
X13974271Y-9129024D01*
X13965369Y-9136494D01*
X13965369Y-9136494D01*
X13959560Y-9146556D01*
X13959559Y-9146557D01*
X13957542Y-9158000D01*
X13957542Y-9158000D01*
X12958232Y-9158000D01*
X12957493Y-9156719D01*
X12955631Y-9153494D01*
X12955630Y-9153493D01*
X12947363Y-9146556D01*
X12946729Y-9146024D01*
X12935810Y-9142050D01*
X12924190Y-9142050D01*
X12913271Y-9146024D01*
X12913271Y-9146024D01*
X12912251Y-9146395D01*
X12912145Y-9146103D01*
X12907060Y-9147335D01*
X12900458Y-9145048D01*
X12896140Y-9139555D01*
X12895478Y-9132600D01*
X12896605Y-9129320D01*
X12896755Y-9129024D01*
X12900135Y-9122391D01*
X12900135Y-9122391D01*
X12900135Y-9122391D01*
X12901892Y-9111300D01*
X12901892Y-9111300D01*
X12900135Y-9100209D01*
X12895037Y-9090203D01*
X12887096Y-9082263D01*
X12877091Y-9077165D01*
X12866000Y-9075408D01*
X12866000Y-9075408D01*
X12854909Y-9077165D01*
X12851760Y-9078769D01*
X12844893Y-9080058D01*
X12838419Y-9077431D01*
X12834394Y-9071720D01*
X12834095Y-9064739D01*
X12837363Y-9058952D01*
X12875534Y-9020782D01*
X12881666Y-9017433D01*
X12884302Y-9017150D01*
X12924146Y-9017150D01*
X12930850Y-9019119D01*
X12935425Y-9024399D01*
X12936419Y-9031315D01*
X12936357Y-9031703D01*
X12934542Y-9042000D01*
X12934542Y-9042000D01*
X12936559Y-9053443D01*
X12936560Y-9053444D01*
X12942369Y-9063506D01*
X12942370Y-9063507D01*
X12944246Y-9065082D01*
X12951271Y-9070976D01*
X12962190Y-9074950D01*
X12962191Y-9074950D01*
X12963259Y-9075138D01*
X12963188Y-9075539D01*
X12967885Y-9076919D01*
X12972460Y-9082199D01*
X12973455Y-9089115D01*
X12973393Y-9089501D01*
X12972957Y-9091976D01*
X12971542Y-9100000D01*
X12971542Y-9100000D01*
X12973559Y-9111443D01*
X12973560Y-9111444D01*
X12979369Y-9121506D01*
X12979370Y-9121507D01*
X12980424Y-9122391D01*
X12988271Y-9128976D01*
X12999190Y-9132950D01*
X12999190Y-9132950D01*
X13010810Y-9132950D01*
X13010810Y-9132950D01*
X13021729Y-9128976D01*
X13030630Y-9121507D01*
X13036440Y-9111443D01*
X13038458Y-9100000D01*
X13356542Y-9100000D01*
X13358559Y-9111443D01*
X13358560Y-9111444D01*
X13364369Y-9121506D01*
X13364370Y-9121507D01*
X13365424Y-9122391D01*
X13373271Y-9128976D01*
X13384190Y-9132950D01*
X13384190Y-9132950D01*
X13395810Y-9132950D01*
X13395810Y-9132950D01*
X13406729Y-9128976D01*
X13415630Y-9121507D01*
X13421440Y-9111443D01*
X13423458Y-9100000D01*
X13421440Y-9088557D01*
X13417370Y-9081507D01*
X13415631Y-9078494D01*
X13415631Y-9078494D01*
X13415630Y-9078493D01*
X13415630Y-9078493D01*
X13415630Y-9078493D01*
X13407229Y-9071444D01*
X13406729Y-9071024D01*
X13395810Y-9067050D01*
X13384190Y-9067050D01*
X13373271Y-9071024D01*
X13368046Y-9075408D01*
X13364369Y-9078494D01*
X13364369Y-9078494D01*
X13358560Y-9088556D01*
X13358559Y-9088557D01*
X13356542Y-9100000D01*
X13356542Y-9100000D01*
X13038458Y-9100000D01*
X13036440Y-9088557D01*
X13032370Y-9081507D01*
X13030631Y-9078494D01*
X13030631Y-9078494D01*
X13030630Y-9078493D01*
X13030630Y-9078493D01*
X13030630Y-9078493D01*
X13022229Y-9071444D01*
X13021729Y-9071024D01*
X13010810Y-9067050D01*
X13010810Y-9067050D01*
X13009741Y-9066862D01*
X13009812Y-9066461D01*
X13005115Y-9065082D01*
X13000540Y-9059801D01*
X12999545Y-9052885D01*
X12999607Y-9052497D01*
X12999773Y-9051557D01*
X13001458Y-9042000D01*
X13000840Y-9038494D01*
X12999643Y-9031703D01*
X13000417Y-9024759D01*
X13004823Y-9019336D01*
X13011461Y-9017156D01*
X13011854Y-9017150D01*
X13620737Y-9017150D01*
X13627441Y-9019119D01*
X13632016Y-9024399D01*
X13633011Y-9031315D01*
X13630108Y-9037670D01*
X13629833Y-9037941D01*
X13629369Y-9038494D01*
X13623560Y-9048556D01*
X13623559Y-9048557D01*
X13621542Y-9060000D01*
X13621542Y-9060000D01*
X13623559Y-9071443D01*
X13623560Y-9071444D01*
X13629369Y-9081506D01*
X13629370Y-9081507D01*
X13632945Y-9084507D01*
X13638271Y-9088976D01*
X13649190Y-9092950D01*
X13649190Y-9092950D01*
X13660810Y-9092950D01*
X13660810Y-9092950D01*
X13671729Y-9088976D01*
X13680630Y-9081507D01*
X13686440Y-9071443D01*
X13688458Y-9060000D01*
X13688273Y-9058952D01*
X13687137Y-9052506D01*
X13686440Y-9048557D01*
X13681943Y-9040767D01*
X13680631Y-9038494D01*
X13680631Y-9038494D01*
X13680630Y-9038493D01*
X13680630Y-9038493D01*
X13679933Y-9037663D01*
X13680214Y-9037427D01*
X13677422Y-9033232D01*
X13677311Y-9026246D01*
X13680995Y-9020309D01*
X13687303Y-9017306D01*
X13689263Y-9017150D01*
X13925698Y-9017150D01*
X13932402Y-9019119D01*
X13934466Y-9020782D01*
X14024306Y-9110621D01*
X14027654Y-9116754D01*
X14027375Y-9120656D01*
X14030983Y-9120312D01*
X14037193Y-9123513D01*
X14037403Y-9123718D01*
X14168709Y-9255024D01*
X14298722Y-9385038D01*
X14302071Y-9391170D01*
X14301572Y-9398139D01*
X14297385Y-9403733D01*
X14294194Y-9405458D01*
X14293875Y-9405574D01*
X14291790Y-9406133D01*
X14291126Y-9406250D01*
X14291126Y-9406250D01*
X14290543Y-9406587D01*
X14288585Y-9407500D01*
X14285771Y-9408524D01*
X14285770Y-9408525D01*
X14283477Y-9410449D01*
X14281708Y-9411688D01*
X14281125Y-9412025D01*
X14281124Y-9412025D01*
X14280691Y-9412541D01*
X14279163Y-9414068D01*
X14276870Y-9415993D01*
X14276869Y-9415993D01*
X14275426Y-9418494D01*
X14275372Y-9418587D01*
X14274133Y-9420356D01*
X14273700Y-9420872D01*
X14273700Y-9420873D01*
X14273470Y-9421505D01*
X14272557Y-9423463D01*
X14271059Y-9426057D01*
X14271059Y-9426057D01*
X14270539Y-9429006D01*
X14269980Y-9431092D01*
X14269750Y-9431725D01*
X14269750Y-9432398D01*
X14269562Y-9434551D01*
X14269042Y-9437500D01*
X14269042Y-9437500D01*
X14269562Y-9440448D01*
X14269750Y-9442602D01*
X14269750Y-9443274D01*
X14269750Y-9443275D01*
X14269980Y-9443907D01*
X14270539Y-9445994D01*
X14271059Y-9448943D01*
X14271059Y-9448943D01*
X14271059Y-9448943D01*
X14272503Y-9451444D01*
X14272557Y-9451537D01*
X14273470Y-9453496D01*
X14273700Y-9454127D01*
X14273700Y-9454128D01*
X14274132Y-9454643D01*
X14275372Y-9456413D01*
X14276869Y-9459007D01*
X14279163Y-9460932D01*
X14280691Y-9462459D01*
X14280862Y-9462663D01*
X14281124Y-9462975D01*
X14281706Y-9463311D01*
X14283476Y-9464551D01*
X14285771Y-9466476D01*
X14286844Y-9466866D01*
X14288585Y-9467500D01*
X14290543Y-9468413D01*
X14290990Y-9468671D01*
X14291126Y-9468750D01*
X14291789Y-9468867D01*
X14293876Y-9469426D01*
X14296690Y-9470450D01*
X14296690Y-9470450D01*
X14308310Y-9470450D01*
X14308310Y-9470450D01*
X14308310Y-9470450D01*
X14308375Y-9470438D01*
X14310529Y-9470250D01*
X14320529Y-9470250D01*
X14321610Y-9470297D01*
X14325398Y-9470629D01*
X14329075Y-9469643D01*
X14330126Y-9469411D01*
X14333874Y-9468750D01*
X14333874Y-9468749D01*
X14334353Y-9468575D01*
X14336092Y-9467855D01*
X14336554Y-9467640D01*
X14336554Y-9467639D01*
X14339671Y-9465457D01*
X14340579Y-9464878D01*
X14343876Y-9462975D01*
X14346322Y-9460060D01*
X14347052Y-9459264D01*
X14351232Y-9455083D01*
X14357364Y-9451735D01*
X14364333Y-9452234D01*
X14368768Y-9455083D01*
X14423593Y-9509909D01*
X14477639Y-9563955D01*
X14479201Y-9565990D01*
X14479525Y-9566376D01*
X14479525Y-9566376D01*
X14480520Y-9567211D01*
X14484391Y-9573028D01*
X14484950Y-9576710D01*
X14484950Y-10461200D01*
X14482981Y-10467904D01*
X14477701Y-10472479D01*
X14472550Y-10473600D01*
X14459013Y-10473600D01*
X14452309Y-10471632D01*
X14449641Y-10469320D01*
X14448414Y-10467904D01*
X14443113Y-10461786D01*
X14431005Y-10454005D01*
X14431005Y-10454005D01*
X14431005Y-10454005D01*
X14431005Y-10454005D01*
X14417196Y-10449950D01*
X14417196Y-10449950D01*
X14402804Y-10449950D01*
X14402804Y-10449950D01*
X14388995Y-10454005D01*
X14388995Y-10454005D01*
X14383863Y-10457303D01*
X14377159Y-10459271D01*
X14370455Y-10457303D01*
X14365879Y-10452022D01*
X14364912Y-10448811D01*
X14364135Y-10443909D01*
X14359212Y-10434246D01*
X14359037Y-10433903D01*
X14351096Y-10425963D01*
X14341091Y-10420865D01*
X14330000Y-10419108D01*
X14330000Y-10419108D01*
X14318909Y-10420865D01*
X14308903Y-10425963D01*
X14300963Y-10433903D01*
X14295865Y-10443909D01*
X14294108Y-10455000D01*
X14294108Y-10455000D01*
X14295865Y-10466091D01*
X14300963Y-10476097D01*
X14308903Y-10484037D01*
X14318909Y-10489135D01*
X14330000Y-10490892D01*
X14330000Y-10490892D01*
X14330000Y-10490892D01*
X14341091Y-10489135D01*
X14341091Y-10489135D01*
X14341091Y-10489135D01*
X14341406Y-10488975D01*
X14341829Y-10488895D01*
X14342019Y-10488834D01*
X14342027Y-10488858D01*
X14348273Y-10487685D01*
X14354747Y-10490313D01*
X14358772Y-10496023D01*
X14359286Y-10499125D01*
X14359309Y-10499122D01*
X14361483Y-10514246D01*
X14366797Y-10525880D01*
X14367462Y-10527337D01*
X14376887Y-10538214D01*
X14376887Y-10538214D01*
X14377468Y-10538885D01*
X14377356Y-10538982D01*
X14380609Y-10544044D01*
X14380609Y-10551031D01*
X14376831Y-10556908D01*
X14376682Y-10557036D01*
X14371370Y-10561493D01*
X14371369Y-10561494D01*
X14365560Y-10571556D01*
X14365559Y-10571557D01*
X14363542Y-10583000D01*
X14363542Y-10583000D01*
X14365559Y-10594443D01*
X14365560Y-10594444D01*
X14371369Y-10604506D01*
X14371369Y-10604506D01*
X14371369Y-10604507D01*
X14380271Y-10611976D01*
X14391190Y-10615950D01*
X14391190Y-10615950D01*
X14402810Y-10615950D01*
X14402810Y-10615950D01*
X14413729Y-10611976D01*
X14422630Y-10604507D01*
X14428440Y-10594443D01*
X14430458Y-10583000D01*
X14428440Y-10571557D01*
X14424077Y-10564000D01*
X14422430Y-10557210D01*
X14424715Y-10550607D01*
X14430207Y-10546288D01*
X14430855Y-10546064D01*
X14431005Y-10545995D01*
X14431005Y-10545995D01*
X14443113Y-10538214D01*
X14449641Y-10530680D01*
X14455519Y-10526902D01*
X14459013Y-10526400D01*
X14472550Y-10526400D01*
X14479254Y-10528369D01*
X14483829Y-10533649D01*
X14484950Y-10538800D01*
X14484950Y-10551774D01*
X14484872Y-10553162D01*
X14484473Y-10556704D01*
X14485535Y-10562320D01*
X14485613Y-10562777D01*
X14486465Y-10568429D01*
X14486716Y-10569243D01*
X14486998Y-10570047D01*
X14486998Y-10570047D01*
X14486998Y-10570047D01*
X14487795Y-10571557D01*
X14489669Y-10575101D01*
X14489878Y-10575515D01*
X14492357Y-10580664D01*
X14492836Y-10581367D01*
X14493343Y-10582053D01*
X14493343Y-10582054D01*
X14493344Y-10582054D01*
X14497385Y-10586095D01*
X14497706Y-10586429D01*
X14499308Y-10588156D01*
X14501595Y-10590620D01*
X14502321Y-10591199D01*
X14502269Y-10591264D01*
X14503493Y-10592203D01*
X14609076Y-10697786D01*
X14703722Y-10792432D01*
X14707070Y-10798564D01*
X14706572Y-10805533D01*
X14702384Y-10811127D01*
X14695838Y-10813568D01*
X14694953Y-10813600D01*
X14403816Y-10813600D01*
X14397112Y-10811632D01*
X14392537Y-10806351D01*
X14391543Y-10799435D01*
X14393078Y-10795000D01*
X14393605Y-10794086D01*
X14397440Y-10787443D01*
X14399458Y-10776000D01*
X14397440Y-10764557D01*
X14391923Y-10755000D01*
X14391631Y-10754494D01*
X14391631Y-10754494D01*
X14391630Y-10754493D01*
X14391630Y-10754493D01*
X14391630Y-10754493D01*
X14382729Y-10747024D01*
X14382729Y-10747024D01*
X14371810Y-10743050D01*
X14360190Y-10743050D01*
X14349271Y-10747024D01*
X14340830Y-10754107D01*
X14340369Y-10754494D01*
X14340369Y-10754494D01*
X14334560Y-10764556D01*
X14334559Y-10764557D01*
X14332542Y-10776000D01*
X14332542Y-10776000D01*
X14334559Y-10787443D01*
X14334560Y-10787444D01*
X14338922Y-10795000D01*
X14340570Y-10801790D01*
X14338284Y-10808393D01*
X14332792Y-10812712D01*
X14328184Y-10813600D01*
X14101071Y-10813600D01*
X14094368Y-10811632D01*
X14092303Y-10809968D01*
X14015032Y-10732697D01*
X14011683Y-10726564D01*
X14011400Y-10723929D01*
X14011400Y-10678496D01*
X14012337Y-10675000D01*
X14081542Y-10675000D01*
X14083559Y-10686443D01*
X14083560Y-10686444D01*
X14089369Y-10696506D01*
X14089370Y-10696507D01*
X14090561Y-10697507D01*
X14098271Y-10703976D01*
X14109190Y-10707950D01*
X14109190Y-10707950D01*
X14120810Y-10707950D01*
X14120810Y-10707950D01*
X14131729Y-10703976D01*
X14140630Y-10696507D01*
X14146440Y-10686443D01*
X14148458Y-10675000D01*
X14146440Y-10663557D01*
X14141894Y-10655682D01*
X14140631Y-10653494D01*
X14140631Y-10653494D01*
X14140630Y-10653493D01*
X14140630Y-10653493D01*
X14140630Y-10653493D01*
X14132921Y-10647024D01*
X14131729Y-10646024D01*
X14120810Y-10642050D01*
X14109190Y-10642050D01*
X14105050Y-10643557D01*
X14098271Y-10646024D01*
X14089369Y-10653494D01*
X14089369Y-10653494D01*
X14083560Y-10663556D01*
X14083559Y-10663557D01*
X14081542Y-10675000D01*
X14081542Y-10675000D01*
X14012337Y-10675000D01*
X14013061Y-10672296D01*
X14014229Y-10670273D01*
X14016440Y-10666443D01*
X14018458Y-10655000D01*
X14018193Y-10653493D01*
X14017407Y-10649037D01*
X14016440Y-10643557D01*
X14010630Y-10633493D01*
X14010630Y-10633493D01*
X14010630Y-10633493D01*
X14001729Y-10626024D01*
X14001729Y-10626024D01*
X13990810Y-10622050D01*
X13979190Y-10622050D01*
X13968271Y-10626024D01*
X13959369Y-10633494D01*
X13959369Y-10633494D01*
X13953560Y-10643556D01*
X13953559Y-10643557D01*
X13951542Y-10655000D01*
X13951542Y-10655000D01*
X13953559Y-10666443D01*
X13953560Y-10666444D01*
X13956939Y-10672296D01*
X13958600Y-10678496D01*
X13958600Y-10736178D01*
X13958362Y-10738597D01*
X13958083Y-10740000D01*
X13958600Y-10742600D01*
X13958600Y-10742601D01*
X13960131Y-10750301D01*
X13960132Y-10750301D01*
X13965967Y-10759033D01*
X13967155Y-10759828D01*
X13969034Y-10761370D01*
X14056447Y-10848782D01*
X14059795Y-10854914D01*
X14059297Y-10861883D01*
X14055109Y-10867477D01*
X14048563Y-10869918D01*
X14047678Y-10869950D01*
X12500195Y-10869950D01*
X12499806Y-10869944D01*
X12439486Y-10868048D01*
X12438708Y-10867999D01*
X12378820Y-10862338D01*
X12378047Y-10862241D01*
X12318635Y-10852831D01*
X12317870Y-10852685D01*
X12259162Y-10839562D01*
X12258408Y-10839368D01*
X12200644Y-10822586D01*
X12199903Y-10822345D01*
X12143305Y-10801969D01*
X12142580Y-10801682D01*
X12138694Y-10800000D01*
X12794108Y-10800000D01*
X12795865Y-10811091D01*
X12800963Y-10821097D01*
X12808903Y-10829037D01*
X12818909Y-10834135D01*
X12830000Y-10835892D01*
X12830000Y-10835892D01*
X12830000Y-10835892D01*
X12841091Y-10834135D01*
X12841091Y-10834135D01*
X12841091Y-10834135D01*
X12851097Y-10829037D01*
X12859037Y-10821097D01*
X12864135Y-10811091D01*
X12864135Y-10811091D01*
X12864135Y-10811091D01*
X12865892Y-10800000D01*
X12865892Y-10800000D01*
X12864135Y-10788909D01*
X12859037Y-10778903D01*
X12851096Y-10770963D01*
X12841091Y-10765865D01*
X12830000Y-10764108D01*
X12830000Y-10764108D01*
X12818909Y-10765865D01*
X12808903Y-10770963D01*
X12800963Y-10778903D01*
X12795865Y-10788909D01*
X12794108Y-10800000D01*
X12794108Y-10800000D01*
X12138694Y-10800000D01*
X12095036Y-10781108D01*
X12093388Y-10780243D01*
X11886227Y-10650767D01*
X11885199Y-10650050D01*
X11882039Y-10647598D01*
X11881438Y-10647102D01*
X11836315Y-10607320D01*
X11835747Y-10606787D01*
X11828960Y-10600000D01*
X13106542Y-10600000D01*
X13108559Y-10611443D01*
X13108560Y-10611444D01*
X13114369Y-10621506D01*
X13114370Y-10621507D01*
X13116031Y-10622901D01*
X13123271Y-10628976D01*
X13134190Y-10632950D01*
X13134190Y-10632950D01*
X13137600Y-10632950D01*
X13144304Y-10634919D01*
X13148879Y-10640199D01*
X13150000Y-10645350D01*
X13150000Y-10725000D01*
X13240000Y-10815000D01*
X13365000Y-10815000D01*
X13365000Y-10815000D01*
X13413750Y-10776000D01*
X13697542Y-10776000D01*
X13699559Y-10787443D01*
X13699560Y-10787444D01*
X13705369Y-10797506D01*
X13705370Y-10797507D01*
X13708341Y-10800000D01*
X13714271Y-10804976D01*
X13725190Y-10808950D01*
X13725190Y-10808950D01*
X13736810Y-10808950D01*
X13736810Y-10808950D01*
X13747729Y-10804976D01*
X13756630Y-10797507D01*
X13762440Y-10787443D01*
X13764458Y-10776000D01*
X13762440Y-10764557D01*
X13756923Y-10755000D01*
X13756631Y-10754494D01*
X13756631Y-10754494D01*
X13756630Y-10754493D01*
X13756630Y-10754493D01*
X13756630Y-10754493D01*
X13747729Y-10747024D01*
X13747729Y-10747024D01*
X13736810Y-10743050D01*
X13725190Y-10743050D01*
X13714271Y-10747024D01*
X13705830Y-10754107D01*
X13705369Y-10754494D01*
X13705369Y-10754494D01*
X13699560Y-10764556D01*
X13699559Y-10764557D01*
X13697542Y-10776000D01*
X13697542Y-10776000D01*
X13413750Y-10776000D01*
X13440000Y-10755000D01*
X13440000Y-10676000D01*
X13793542Y-10676000D01*
X13795559Y-10687443D01*
X13795560Y-10687444D01*
X13801369Y-10697506D01*
X13801370Y-10697507D01*
X13805820Y-10701241D01*
X13810271Y-10704976D01*
X13821190Y-10708950D01*
X13821190Y-10708950D01*
X13832810Y-10708950D01*
X13832810Y-10708950D01*
X13843729Y-10704976D01*
X13852630Y-10697507D01*
X13858440Y-10687443D01*
X13860458Y-10676000D01*
X13858440Y-10664557D01*
X13852923Y-10655000D01*
X13852631Y-10654494D01*
X13852631Y-10654494D01*
X13852630Y-10654493D01*
X13852630Y-10654493D01*
X13852630Y-10654493D01*
X13843729Y-10647024D01*
X13843729Y-10647024D01*
X13832810Y-10643050D01*
X13821190Y-10643050D01*
X13810271Y-10647024D01*
X13802561Y-10653494D01*
X13801369Y-10654494D01*
X13801369Y-10654494D01*
X13795560Y-10664556D01*
X13795559Y-10664557D01*
X13793542Y-10676000D01*
X13793542Y-10676000D01*
X13440000Y-10676000D01*
X13440000Y-10535000D01*
X13661542Y-10535000D01*
X13663559Y-10546443D01*
X13663560Y-10546444D01*
X13669369Y-10556506D01*
X13669370Y-10556507D01*
X13669611Y-10556710D01*
X13678271Y-10563976D01*
X13689190Y-10567950D01*
X13689190Y-10567950D01*
X13700810Y-10567950D01*
X13700810Y-10567950D01*
X13711729Y-10563976D01*
X13717659Y-10559000D01*
X14047542Y-10559000D01*
X14049559Y-10570443D01*
X14049560Y-10570444D01*
X14055369Y-10580506D01*
X14055370Y-10580507D01*
X14058341Y-10583000D01*
X14064271Y-10587976D01*
X14075190Y-10591950D01*
X14075190Y-10591950D01*
X14086810Y-10591950D01*
X14086810Y-10591950D01*
X14097729Y-10587976D01*
X14106630Y-10580507D01*
X14112440Y-10570443D01*
X14114458Y-10559000D01*
X14112440Y-10547557D01*
X14106630Y-10537493D01*
X14106630Y-10537493D01*
X14106630Y-10537493D01*
X14099954Y-10531892D01*
X14097729Y-10530024D01*
X14086810Y-10526050D01*
X14075190Y-10526050D01*
X14064271Y-10530024D01*
X14056744Y-10536340D01*
X14055369Y-10537494D01*
X14055369Y-10537494D01*
X14049560Y-10547556D01*
X14049559Y-10547557D01*
X14047542Y-10559000D01*
X14047542Y-10559000D01*
X13717659Y-10559000D01*
X13720630Y-10556507D01*
X13726440Y-10546443D01*
X13728458Y-10535000D01*
X13728265Y-10533903D01*
X13726942Y-10526400D01*
X13726440Y-10523557D01*
X13723209Y-10517960D01*
X13720631Y-10513494D01*
X13720631Y-10513494D01*
X13720630Y-10513493D01*
X13720630Y-10513493D01*
X13720630Y-10513493D01*
X13711729Y-10506024D01*
X13711729Y-10506024D01*
X13700810Y-10502050D01*
X13689190Y-10502050D01*
X13678271Y-10506024D01*
X13669369Y-10513494D01*
X13669369Y-10513494D01*
X13663560Y-10523556D01*
X13663559Y-10523557D01*
X13661542Y-10535000D01*
X13661542Y-10535000D01*
X13440000Y-10535000D01*
X13440000Y-10355000D01*
X13691542Y-10355000D01*
X13693559Y-10366443D01*
X13693560Y-10366444D01*
X13699369Y-10376506D01*
X13699369Y-10376506D01*
X13699369Y-10376507D01*
X13708271Y-10383976D01*
X13719190Y-10387950D01*
X13719190Y-10387950D01*
X13725652Y-10387950D01*
X13732356Y-10389919D01*
X13736931Y-10395199D01*
X13737926Y-10402115D01*
X13737864Y-10402502D01*
X13737290Y-10405754D01*
X13736542Y-10410000D01*
X13736542Y-10410000D01*
X13738559Y-10421443D01*
X13738560Y-10421444D01*
X13744369Y-10431506D01*
X13744369Y-10431506D01*
X13744369Y-10431507D01*
X13753271Y-10438976D01*
X13764190Y-10442950D01*
X13764190Y-10442950D01*
X13775810Y-10442950D01*
X13775810Y-10442950D01*
X13786729Y-10438976D01*
X13795630Y-10431507D01*
X13801440Y-10421443D01*
X13803458Y-10410000D01*
X13801440Y-10398557D01*
X13797370Y-10391507D01*
X13795631Y-10388494D01*
X13795630Y-10388493D01*
X13787637Y-10381786D01*
X13786729Y-10381024D01*
X13775810Y-10377050D01*
X13769348Y-10377050D01*
X13762644Y-10375082D01*
X13758241Y-10370000D01*
X14356542Y-10370000D01*
X14358559Y-10381443D01*
X14358560Y-10381444D01*
X14364369Y-10391506D01*
X14364370Y-10391507D01*
X14367887Y-10394458D01*
X14373271Y-10398976D01*
X14384190Y-10402950D01*
X14384190Y-10402950D01*
X14395810Y-10402950D01*
X14395810Y-10402950D01*
X14406729Y-10398976D01*
X14415630Y-10391507D01*
X14421440Y-10381443D01*
X14423458Y-10370000D01*
X14421440Y-10358557D01*
X14418535Y-10353525D01*
X14415631Y-10348494D01*
X14415631Y-10348494D01*
X14415630Y-10348493D01*
X14415630Y-10348493D01*
X14415630Y-10348493D01*
X14406729Y-10341024D01*
X14406729Y-10341024D01*
X14395810Y-10337050D01*
X14384190Y-10337050D01*
X14373271Y-10341024D01*
X14367226Y-10346097D01*
X14364369Y-10348494D01*
X14364369Y-10348494D01*
X14358560Y-10358556D01*
X14358559Y-10358557D01*
X14356542Y-10370000D01*
X14356542Y-10370000D01*
X13758241Y-10370000D01*
X13758069Y-10369801D01*
X13757074Y-10362885D01*
X13757136Y-10362497D01*
X13757568Y-10360050D01*
X13758458Y-10355000D01*
X13758288Y-10354037D01*
X13757384Y-10348909D01*
X13756440Y-10343557D01*
X13752370Y-10336507D01*
X13750631Y-10333494D01*
X13750631Y-10333494D01*
X13750630Y-10333493D01*
X13750630Y-10333493D01*
X13750630Y-10333493D01*
X13742229Y-10326444D01*
X13741729Y-10326024D01*
X13730810Y-10322050D01*
X13719190Y-10322050D01*
X13708709Y-10325865D01*
X13708271Y-10326024D01*
X13699369Y-10333494D01*
X13699369Y-10333494D01*
X13693560Y-10343556D01*
X13693559Y-10343557D01*
X13691542Y-10355000D01*
X13691542Y-10355000D01*
X13440000Y-10355000D01*
X13440000Y-10310000D01*
X13439998Y-10309999D01*
X13425556Y-10300000D01*
X13784108Y-10300000D01*
X13785865Y-10311091D01*
X13790963Y-10321097D01*
X13798903Y-10329037D01*
X13808909Y-10334135D01*
X13820000Y-10335892D01*
X13820000Y-10335892D01*
X13820000Y-10335892D01*
X13831091Y-10334135D01*
X13831091Y-10334135D01*
X13831091Y-10334135D01*
X13841097Y-10329037D01*
X13845134Y-10325000D01*
X14146542Y-10325000D01*
X14148559Y-10336443D01*
X14148560Y-10336444D01*
X14154369Y-10346506D01*
X14154370Y-10346507D01*
X14157434Y-10349078D01*
X14163271Y-10353976D01*
X14174190Y-10357950D01*
X14174190Y-10357950D01*
X14185810Y-10357950D01*
X14185810Y-10357950D01*
X14196729Y-10353976D01*
X14205630Y-10346507D01*
X14211440Y-10336443D01*
X14213458Y-10325000D01*
X14213458Y-10325000D01*
X14212056Y-10317050D01*
X14211440Y-10313557D01*
X14206431Y-10304880D01*
X14205631Y-10303494D01*
X14205631Y-10303494D01*
X14205630Y-10303493D01*
X14205630Y-10303493D01*
X14205630Y-10303493D01*
X14196729Y-10296024D01*
X14196729Y-10296024D01*
X14185810Y-10292050D01*
X14174190Y-10292050D01*
X14163271Y-10296024D01*
X14154804Y-10303129D01*
X14154369Y-10303494D01*
X14154369Y-10303494D01*
X14148560Y-10313556D01*
X14148559Y-10313557D01*
X14146542Y-10325000D01*
X14146542Y-10325000D01*
X13845134Y-10325000D01*
X13849037Y-10321097D01*
X13854135Y-10311091D01*
X13854135Y-10311091D01*
X13854135Y-10311091D01*
X13855892Y-10300000D01*
X13855892Y-10300000D01*
X13854135Y-10288909D01*
X13849037Y-10278903D01*
X13841096Y-10270963D01*
X13831091Y-10265865D01*
X13820000Y-10264108D01*
X13820000Y-10264108D01*
X13808909Y-10265865D01*
X13798903Y-10270963D01*
X13790963Y-10278903D01*
X13785865Y-10288909D01*
X13784108Y-10300000D01*
X13784108Y-10300000D01*
X13425556Y-10300000D01*
X13408341Y-10288083D01*
X13403950Y-10282648D01*
X13403194Y-10275702D01*
X13406313Y-10269450D01*
X13407428Y-10268389D01*
X13415630Y-10261507D01*
X13421440Y-10251443D01*
X13423458Y-10240000D01*
X13423458Y-10240000D01*
X13422333Y-10233618D01*
X13421440Y-10228557D01*
X13415678Y-10218575D01*
X13415631Y-10218494D01*
X13415631Y-10218494D01*
X13415630Y-10218493D01*
X13415630Y-10218493D01*
X13415630Y-10218493D01*
X13406729Y-10211024D01*
X13406729Y-10211024D01*
X13395810Y-10207050D01*
X13384190Y-10207050D01*
X13373271Y-10211024D01*
X13366682Y-10216553D01*
X13364369Y-10218494D01*
X13361753Y-10223024D01*
X13356697Y-10227846D01*
X13349836Y-10229168D01*
X13343349Y-10226571D01*
X13343044Y-10226323D01*
X13336729Y-10221024D01*
X13336729Y-10221024D01*
X13325810Y-10217050D01*
X13322400Y-10217050D01*
X13315696Y-10215082D01*
X13311121Y-10209801D01*
X13310000Y-10204650D01*
X13310000Y-10161747D01*
X13311968Y-10155043D01*
X13317249Y-10150468D01*
X13318156Y-10150096D01*
X13326729Y-10146976D01*
X13335630Y-10139507D01*
X13341440Y-10129443D01*
X13343106Y-10120000D01*
X13444108Y-10120000D01*
X13445865Y-10131091D01*
X13450963Y-10141097D01*
X13458903Y-10149037D01*
X13468909Y-10154135D01*
X13480000Y-10155892D01*
X13480000Y-10155892D01*
X13480000Y-10155892D01*
X13491091Y-10154135D01*
X13491091Y-10154135D01*
X13491091Y-10154135D01*
X13501097Y-10149037D01*
X13509037Y-10141097D01*
X13514135Y-10131091D01*
X13514135Y-10131091D01*
X13514135Y-10131091D01*
X13515892Y-10120000D01*
X13515892Y-10120000D01*
X13514135Y-10108909D01*
X13513948Y-10108542D01*
X14350565Y-10108542D01*
X14352582Y-10119985D01*
X14352583Y-10119985D01*
X14358392Y-10130048D01*
X14358393Y-10130049D01*
X14360597Y-10131898D01*
X14367294Y-10137518D01*
X14378213Y-10141492D01*
X14378213Y-10141492D01*
X14389833Y-10141492D01*
X14389833Y-10141492D01*
X14400752Y-10137518D01*
X14409653Y-10130048D01*
X14415463Y-10119985D01*
X14417481Y-10108542D01*
X14417026Y-10105963D01*
X14416187Y-10101202D01*
X14415463Y-10097098D01*
X14411921Y-10090963D01*
X14409654Y-10087036D01*
X14409654Y-10087035D01*
X14409653Y-10087035D01*
X14409653Y-10087035D01*
X14409653Y-10087035D01*
X14400752Y-10079566D01*
X14400752Y-10079566D01*
X14389833Y-10075592D01*
X14378213Y-10075592D01*
X14367294Y-10079566D01*
X14359787Y-10085865D01*
X14358392Y-10087035D01*
X14358392Y-10087036D01*
X14352583Y-10097098D01*
X14352582Y-10097099D01*
X14350565Y-10108542D01*
X14350565Y-10108542D01*
X13513948Y-10108542D01*
X13509037Y-10098903D01*
X13501096Y-10090963D01*
X13491091Y-10085865D01*
X13480000Y-10084108D01*
X13480000Y-10084108D01*
X13468909Y-10085865D01*
X13458903Y-10090963D01*
X13450963Y-10098903D01*
X13445865Y-10108909D01*
X13444108Y-10120000D01*
X13444108Y-10120000D01*
X13343106Y-10120000D01*
X13343458Y-10118000D01*
X13341440Y-10106557D01*
X13335630Y-10096493D01*
X13335630Y-10096493D01*
X13335630Y-10096493D01*
X13327363Y-10089556D01*
X13326729Y-10089024D01*
X13318159Y-10085905D01*
X13312532Y-10081762D01*
X13310039Y-10075236D01*
X13310000Y-10074253D01*
X13310000Y-10030000D01*
X13287500Y-10020000D01*
X13563542Y-10020000D01*
X13565559Y-10031443D01*
X13565560Y-10031444D01*
X13571369Y-10041506D01*
X13571370Y-10041507D01*
X13574348Y-10044006D01*
X13580271Y-10048976D01*
X13591190Y-10052950D01*
X13591190Y-10052950D01*
X13602810Y-10052950D01*
X13602810Y-10052950D01*
X13613729Y-10048976D01*
X13622630Y-10041507D01*
X13628440Y-10031443D01*
X13630458Y-10020000D01*
X13630190Y-10018478D01*
X13629564Y-10014931D01*
X13628440Y-10008557D01*
X13623799Y-10000518D01*
X13623500Y-10000000D01*
X13746542Y-10000000D01*
X13748559Y-10011443D01*
X13748560Y-10011444D01*
X13754369Y-10021506D01*
X13754370Y-10021507D01*
X13755561Y-10022507D01*
X13763271Y-10028976D01*
X13774190Y-10032950D01*
X13774190Y-10032950D01*
X13785810Y-10032950D01*
X13785810Y-10032950D01*
X13796729Y-10028976D01*
X13805064Y-10021982D01*
X13811464Y-10019181D01*
X13818363Y-10020285D01*
X13823570Y-10024944D01*
X13825246Y-10029328D01*
X13826059Y-10033943D01*
X13826060Y-10033944D01*
X13831869Y-10044006D01*
X13831869Y-10044006D01*
X13831869Y-10044007D01*
X13840771Y-10051476D01*
X13851690Y-10055450D01*
X13851690Y-10055450D01*
X13863310Y-10055450D01*
X13863310Y-10055450D01*
X13874229Y-10051476D01*
X13883130Y-10044007D01*
X13888940Y-10033943D01*
X13890958Y-10022500D01*
X13888940Y-10011057D01*
X13883148Y-10001024D01*
X13883131Y-10000994D01*
X13883130Y-10000993D01*
X13874229Y-9993524D01*
X13874229Y-9993524D01*
X13863310Y-9989550D01*
X13851690Y-9989550D01*
X13840771Y-9993524D01*
X13840771Y-9993524D01*
X13840771Y-9993524D01*
X13832436Y-10000518D01*
X13826036Y-10003319D01*
X13819136Y-10002215D01*
X13813929Y-9997556D01*
X13812254Y-9993172D01*
X13811792Y-9990550D01*
X13811440Y-9988557D01*
X13806208Y-9979493D01*
X13805631Y-9978494D01*
X13805631Y-9978494D01*
X13805630Y-9978493D01*
X13805630Y-9978493D01*
X13805630Y-9978493D01*
X13797921Y-9972024D01*
X13796729Y-9971024D01*
X13785810Y-9967050D01*
X13774190Y-9967050D01*
X13763271Y-9971024D01*
X13754928Y-9978024D01*
X13754369Y-9978494D01*
X13754369Y-9978494D01*
X13748560Y-9988556D01*
X13748559Y-9988557D01*
X13746542Y-10000000D01*
X13746542Y-10000000D01*
X13623500Y-10000000D01*
X13622631Y-9998494D01*
X13622631Y-9998494D01*
X13622630Y-9998493D01*
X13622630Y-9998493D01*
X13622630Y-9998493D01*
X13613729Y-9991024D01*
X13613729Y-9991024D01*
X13602810Y-9987050D01*
X13591190Y-9987050D01*
X13580271Y-9991024D01*
X13577711Y-9993172D01*
X13571369Y-9998494D01*
X13571369Y-9998494D01*
X13565560Y-10008556D01*
X13565559Y-10008557D01*
X13563542Y-10020000D01*
X13563542Y-10020000D01*
X13287500Y-10020000D01*
X13265000Y-10010000D01*
X13215000Y-10025000D01*
X13215000Y-10210131D01*
X13213031Y-10216835D01*
X13211687Y-10218568D01*
X13209406Y-10221024D01*
X13208648Y-10221841D01*
X13202643Y-10225414D01*
X13195660Y-10225174D01*
X13195320Y-10225056D01*
X13189810Y-10223050D01*
X13178190Y-10223050D01*
X13169197Y-10226323D01*
X13167271Y-10227024D01*
X13158369Y-10234494D01*
X13158369Y-10234494D01*
X13152560Y-10244556D01*
X13152559Y-10244557D01*
X13150542Y-10256000D01*
X13150542Y-10256000D01*
X13152329Y-10266135D01*
X13152559Y-10267443D01*
X13153105Y-10268388D01*
X13153251Y-10268641D01*
X13154898Y-10275431D01*
X13152613Y-10282033D01*
X13151599Y-10283278D01*
X13150000Y-10285000D01*
X13150000Y-10304739D01*
X13148031Y-10311443D01*
X13142751Y-10316018D01*
X13139754Y-10316951D01*
X13139190Y-10317050D01*
X13133730Y-10319037D01*
X13128271Y-10321024D01*
X13120553Y-10327500D01*
X13119369Y-10328494D01*
X13119369Y-10328494D01*
X13113560Y-10338556D01*
X13113559Y-10338557D01*
X13111542Y-10350000D01*
X13111542Y-10350000D01*
X13113559Y-10361443D01*
X13113560Y-10361444D01*
X13119369Y-10371506D01*
X13119369Y-10371506D01*
X13119369Y-10371507D01*
X13128271Y-10378976D01*
X13139190Y-10382950D01*
X13139190Y-10382950D01*
X13139753Y-10383049D01*
X13146013Y-10386152D01*
X13149603Y-10392147D01*
X13150000Y-10395261D01*
X13150000Y-10554650D01*
X13148031Y-10561354D01*
X13142751Y-10565929D01*
X13137600Y-10567050D01*
X13134190Y-10567050D01*
X13123271Y-10571024D01*
X13117226Y-10576097D01*
X13114369Y-10578494D01*
X13114369Y-10578494D01*
X13108560Y-10588556D01*
X13108559Y-10588557D01*
X13106542Y-10600000D01*
X13106542Y-10600000D01*
X11828960Y-10600000D01*
X11793213Y-10564253D01*
X11792680Y-10563685D01*
X11785023Y-10555000D01*
X12374108Y-10555000D01*
X12375865Y-10566091D01*
X12380963Y-10576097D01*
X12388903Y-10584037D01*
X12398909Y-10589135D01*
X12410000Y-10590892D01*
X12410000Y-10590892D01*
X12410000Y-10590892D01*
X12421091Y-10589135D01*
X12421091Y-10589135D01*
X12421091Y-10589135D01*
X12431097Y-10584037D01*
X12439037Y-10576097D01*
X12444135Y-10566091D01*
X12444135Y-10566091D01*
X12444135Y-10566091D01*
X12445892Y-10555000D01*
X12445892Y-10555000D01*
X12444135Y-10543909D01*
X12439037Y-10533903D01*
X12431096Y-10525963D01*
X12421091Y-10520865D01*
X12410000Y-10519108D01*
X12410000Y-10519108D01*
X12398909Y-10520865D01*
X12388903Y-10525963D01*
X12380963Y-10533903D01*
X12375865Y-10543909D01*
X12374108Y-10555000D01*
X12374108Y-10555000D01*
X11785023Y-10555000D01*
X11752897Y-10518561D01*
X11752401Y-10517960D01*
X11748936Y-10513494D01*
X11715531Y-10470428D01*
X11715076Y-10469802D01*
X11681263Y-10420048D01*
X11680846Y-10419390D01*
X11650225Y-10367613D01*
X11649850Y-10366930D01*
X11636128Y-10340000D01*
X11628485Y-10325000D01*
X11889108Y-10325000D01*
X11890865Y-10336091D01*
X11895963Y-10346097D01*
X11903903Y-10354037D01*
X11913909Y-10359135D01*
X11925000Y-10360892D01*
X11925000Y-10360892D01*
X11925000Y-10360892D01*
X11936091Y-10359135D01*
X11936091Y-10359135D01*
X11936091Y-10359135D01*
X11946097Y-10354037D01*
X11954037Y-10346097D01*
X11959135Y-10336091D01*
X11959135Y-10336091D01*
X11959135Y-10336091D01*
X11960892Y-10325000D01*
X11960892Y-10325000D01*
X11959135Y-10313909D01*
X11954037Y-10303903D01*
X11946096Y-10295963D01*
X11936091Y-10290865D01*
X11925000Y-10289108D01*
X11925000Y-10289108D01*
X11913909Y-10290865D01*
X11903903Y-10295963D01*
X11895963Y-10303903D01*
X11890865Y-10313909D01*
X11889108Y-10325000D01*
X11889108Y-10325000D01*
X11628485Y-10325000D01*
X11622540Y-10313332D01*
X11622208Y-10312627D01*
X11621546Y-10311097D01*
X11598317Y-10257419D01*
X11598031Y-10256695D01*
X11593821Y-10245000D01*
X12399108Y-10245000D01*
X12400865Y-10256091D01*
X12405963Y-10266097D01*
X12413903Y-10274037D01*
X12423909Y-10279135D01*
X12435000Y-10280892D01*
X12435000Y-10280892D01*
X12435000Y-10280892D01*
X12446091Y-10279135D01*
X12446091Y-10279135D01*
X12446091Y-10279135D01*
X12456097Y-10274037D01*
X12464037Y-10266097D01*
X12469135Y-10256091D01*
X12469135Y-10256091D01*
X12469135Y-10256091D01*
X12470892Y-10245000D01*
X12470892Y-10245000D01*
X12470100Y-10240000D01*
X12564108Y-10240000D01*
X12565865Y-10251091D01*
X12570963Y-10261097D01*
X12578903Y-10269037D01*
X12588909Y-10274135D01*
X12600000Y-10275892D01*
X12600000Y-10275892D01*
X12600000Y-10275892D01*
X12605630Y-10275000D01*
X12694108Y-10275000D01*
X12695865Y-10286091D01*
X12700963Y-10296097D01*
X12708903Y-10304037D01*
X12718909Y-10309135D01*
X12730000Y-10310892D01*
X12730000Y-10310892D01*
X12730000Y-10310892D01*
X12741091Y-10309135D01*
X12741091Y-10309135D01*
X12741091Y-10309135D01*
X12751097Y-10304037D01*
X12759037Y-10296097D01*
X12764135Y-10286091D01*
X12764135Y-10286091D01*
X12764135Y-10286091D01*
X12765892Y-10275000D01*
X12765892Y-10275000D01*
X12764135Y-10263909D01*
X12759037Y-10253903D01*
X12751096Y-10245963D01*
X12741091Y-10240865D01*
X12730000Y-10239108D01*
X12730000Y-10239108D01*
X12718909Y-10240865D01*
X12708903Y-10245963D01*
X12700963Y-10253903D01*
X12695865Y-10263909D01*
X12694108Y-10275000D01*
X12694108Y-10275000D01*
X12605630Y-10275000D01*
X12611091Y-10274135D01*
X12611091Y-10274135D01*
X12611091Y-10274135D01*
X12621097Y-10269037D01*
X12629037Y-10261097D01*
X12634135Y-10251091D01*
X12634135Y-10251091D01*
X12634135Y-10251091D01*
X12635892Y-10240000D01*
X12635892Y-10240000D01*
X12634308Y-10230000D01*
X12856542Y-10230000D01*
X12858559Y-10241443D01*
X12858560Y-10241444D01*
X12864369Y-10251506D01*
X12864369Y-10251506D01*
X12864369Y-10251507D01*
X12873271Y-10258976D01*
X12884190Y-10262950D01*
X12884190Y-10262950D01*
X12895810Y-10262950D01*
X12895810Y-10262950D01*
X12906729Y-10258976D01*
X12915630Y-10251507D01*
X12919964Y-10244000D01*
X12971542Y-10244000D01*
X12973559Y-10255443D01*
X12973560Y-10255444D01*
X12979369Y-10265506D01*
X12979370Y-10265507D01*
X12980118Y-10266135D01*
X12988271Y-10272976D01*
X12991788Y-10274256D01*
X12997415Y-10278399D01*
X12999908Y-10284925D01*
X12998477Y-10291764D01*
X12997732Y-10292865D01*
X12991560Y-10303556D01*
X12991559Y-10303557D01*
X12989542Y-10315000D01*
X12989542Y-10315000D01*
X12991559Y-10326443D01*
X12991560Y-10326444D01*
X12997369Y-10336506D01*
X12997369Y-10336506D01*
X12997369Y-10336507D01*
X13006271Y-10343976D01*
X13017190Y-10347950D01*
X13017190Y-10347950D01*
X13028810Y-10347950D01*
X13028810Y-10347950D01*
X13039729Y-10343976D01*
X13048630Y-10336507D01*
X13054440Y-10326443D01*
X13056458Y-10315000D01*
X13056391Y-10314619D01*
X13055424Y-10309135D01*
X13054440Y-10303557D01*
X13048630Y-10293493D01*
X13048630Y-10293493D01*
X13048630Y-10293493D01*
X13039729Y-10286024D01*
X13036211Y-10284744D01*
X13030585Y-10280601D01*
X13028092Y-10274074D01*
X13029523Y-10267236D01*
X13030268Y-10266135D01*
X13030630Y-10265507D01*
X13030630Y-10265507D01*
X13036440Y-10255443D01*
X13038458Y-10244000D01*
X13038007Y-10241443D01*
X13036898Y-10235152D01*
X13036440Y-10232557D01*
X13032842Y-10226323D01*
X13030631Y-10222494D01*
X13030631Y-10222494D01*
X13030630Y-10222493D01*
X13030630Y-10222493D01*
X13030630Y-10222493D01*
X13022863Y-10215976D01*
X13021729Y-10215024D01*
X13010810Y-10211050D01*
X12999190Y-10211050D01*
X12988271Y-10215024D01*
X12980055Y-10221919D01*
X12979369Y-10222494D01*
X12979369Y-10222494D01*
X12973560Y-10232556D01*
X12973559Y-10232557D01*
X12971542Y-10244000D01*
X12971542Y-10244000D01*
X12919964Y-10244000D01*
X12921440Y-10241443D01*
X12923458Y-10230000D01*
X12923193Y-10228493D01*
X12921686Y-10219950D01*
X12921440Y-10218557D01*
X12916999Y-10210865D01*
X12915631Y-10208494D01*
X12915631Y-10208494D01*
X12915630Y-10208493D01*
X12915630Y-10208493D01*
X12915630Y-10208493D01*
X12906729Y-10201024D01*
X12906729Y-10201024D01*
X12895810Y-10197050D01*
X12884190Y-10197050D01*
X12875354Y-10200266D01*
X12873271Y-10201024D01*
X12864369Y-10208494D01*
X12864369Y-10208494D01*
X12858560Y-10218556D01*
X12858559Y-10218557D01*
X12856542Y-10230000D01*
X12856542Y-10230000D01*
X12634308Y-10230000D01*
X12634135Y-10228909D01*
X12629037Y-10218903D01*
X12621096Y-10210963D01*
X12611091Y-10205865D01*
X12600000Y-10204108D01*
X12600000Y-10204108D01*
X12588909Y-10205865D01*
X12578903Y-10210963D01*
X12570963Y-10218903D01*
X12565865Y-10228909D01*
X12564108Y-10240000D01*
X12564108Y-10240000D01*
X12470100Y-10240000D01*
X12469135Y-10233909D01*
X12464037Y-10223903D01*
X12456096Y-10215963D01*
X12446091Y-10210865D01*
X12435000Y-10209108D01*
X12435000Y-10209108D01*
X12423909Y-10210865D01*
X12413903Y-10215963D01*
X12405963Y-10223903D01*
X12400865Y-10233909D01*
X12399108Y-10245000D01*
X12399108Y-10245000D01*
X11593821Y-10245000D01*
X11577654Y-10200097D01*
X11577414Y-10199356D01*
X11577149Y-10198443D01*
X11571790Y-10180000D01*
X11721542Y-10180000D01*
X11723559Y-10191443D01*
X11723560Y-10191444D01*
X11729369Y-10201506D01*
X11729369Y-10201506D01*
X11729369Y-10201507D01*
X11738271Y-10208976D01*
X11749190Y-10212950D01*
X11749190Y-10212950D01*
X11760810Y-10212950D01*
X11760810Y-10212950D01*
X11771729Y-10208976D01*
X11780630Y-10201507D01*
X11786440Y-10191443D01*
X11788458Y-10180000D01*
X11786440Y-10168557D01*
X11782509Y-10161747D01*
X11780631Y-10158494D01*
X11780631Y-10158494D01*
X11780630Y-10158493D01*
X11780630Y-10158493D01*
X11780630Y-10158493D01*
X11771729Y-10151024D01*
X11771729Y-10151024D01*
X11760810Y-10147050D01*
X11749190Y-10147050D01*
X11738271Y-10151024D01*
X11729928Y-10158024D01*
X11729369Y-10158494D01*
X11729369Y-10158494D01*
X11723560Y-10168556D01*
X11723559Y-10168557D01*
X11721542Y-10180000D01*
X11721542Y-10180000D01*
X11571790Y-10180000D01*
X11560631Y-10141591D01*
X11560438Y-10140838D01*
X11560334Y-10140374D01*
X11559133Y-10135000D01*
X12659108Y-10135000D01*
X12660865Y-10146091D01*
X12665963Y-10156097D01*
X12673903Y-10164037D01*
X12683909Y-10169135D01*
X12695000Y-10170892D01*
X12695000Y-10170892D01*
X12695000Y-10170892D01*
X12706091Y-10169135D01*
X12706091Y-10169135D01*
X12706091Y-10169135D01*
X12716097Y-10164037D01*
X12724037Y-10156097D01*
X12729135Y-10146091D01*
X12729135Y-10146091D01*
X12729135Y-10146091D01*
X12730892Y-10135000D01*
X12730892Y-10135000D01*
X12729135Y-10123909D01*
X12724037Y-10113903D01*
X12716096Y-10105963D01*
X12706091Y-10100865D01*
X12695000Y-10099108D01*
X12695000Y-10099108D01*
X12683909Y-10100865D01*
X12673903Y-10105963D01*
X12665963Y-10113903D01*
X12660865Y-10123909D01*
X12659108Y-10135000D01*
X12659108Y-10135000D01*
X11559133Y-10135000D01*
X11555342Y-10118038D01*
X11555800Y-10111066D01*
X11559955Y-10105449D01*
X11566488Y-10102970D01*
X11567354Y-10102934D01*
X11699000Y-10102000D01*
X11699186Y-10030000D01*
X12732542Y-10030000D01*
X12734559Y-10041443D01*
X12734560Y-10041444D01*
X12740369Y-10051506D01*
X12740370Y-10051507D01*
X12744820Y-10055241D01*
X12749271Y-10058976D01*
X12760190Y-10062950D01*
X12760190Y-10062950D01*
X12761144Y-10063118D01*
X12767404Y-10066221D01*
X12770993Y-10072215D01*
X12770772Y-10079199D01*
X12769730Y-10081530D01*
X12768560Y-10083556D01*
X12768559Y-10083557D01*
X12766542Y-10095000D01*
X12766542Y-10095000D01*
X12768559Y-10106443D01*
X12768560Y-10106444D01*
X12774369Y-10116506D01*
X12774370Y-10116507D01*
X12776195Y-10118038D01*
X12783271Y-10123976D01*
X12794190Y-10127950D01*
X12794190Y-10127950D01*
X12805810Y-10127950D01*
X12805810Y-10127950D01*
X12816729Y-10123976D01*
X12825630Y-10116507D01*
X12831440Y-10106443D01*
X12832400Y-10101000D01*
X12979542Y-10101000D01*
X12981559Y-10112443D01*
X12981560Y-10112444D01*
X12987369Y-10122506D01*
X12987370Y-10122507D01*
X12989120Y-10123976D01*
X12996271Y-10129976D01*
X13007190Y-10133950D01*
X13007190Y-10133950D01*
X13018810Y-10133950D01*
X13018810Y-10133950D01*
X13029729Y-10129976D01*
X13038630Y-10122507D01*
X13044440Y-10112443D01*
X13046458Y-10101000D01*
X13044440Y-10089557D01*
X13040399Y-10082557D01*
X13038631Y-10079494D01*
X13038631Y-10079494D01*
X13038630Y-10079493D01*
X13038630Y-10079493D01*
X13038630Y-10079493D01*
X13029729Y-10072024D01*
X13029729Y-10072024D01*
X13018810Y-10068050D01*
X13007190Y-10068050D01*
X12996271Y-10072024D01*
X12987369Y-10079494D01*
X12987369Y-10079494D01*
X12981560Y-10089556D01*
X12981559Y-10089557D01*
X12979542Y-10101000D01*
X12979542Y-10101000D01*
X12832400Y-10101000D01*
X12833458Y-10095000D01*
X12833370Y-10094498D01*
X12831847Y-10085865D01*
X12831440Y-10083557D01*
X12826636Y-10075236D01*
X12825631Y-10073494D01*
X12825630Y-10073493D01*
X12816729Y-10066024D01*
X12816729Y-10066024D01*
X12805810Y-10062050D01*
X12805810Y-10062050D01*
X12804855Y-10061882D01*
X12798595Y-10058779D01*
X12795006Y-10052784D01*
X12795228Y-10045801D01*
X12796270Y-10043471D01*
X12797440Y-10041443D01*
X12799458Y-10030000D01*
X12797440Y-10018557D01*
X12793110Y-10011056D01*
X12791631Y-10008494D01*
X12791631Y-10008494D01*
X12791630Y-10008493D01*
X12791630Y-10008493D01*
X12791630Y-10008493D01*
X12782729Y-10001024D01*
X12782729Y-10001024D01*
X12782662Y-10001000D01*
X12836542Y-10001000D01*
X12838559Y-10012443D01*
X12838560Y-10012444D01*
X12844369Y-10022506D01*
X12844369Y-10022506D01*
X12844369Y-10022507D01*
X12853271Y-10029976D01*
X12864190Y-10033950D01*
X12864190Y-10033950D01*
X12875810Y-10033950D01*
X12875810Y-10033950D01*
X12886729Y-10029976D01*
X12895630Y-10022507D01*
X12901440Y-10012443D01*
X12903458Y-10001000D01*
X12903457Y-10000993D01*
X12901699Y-9991024D01*
X12901440Y-9989557D01*
X12895630Y-9979493D01*
X12895630Y-9979493D01*
X12895630Y-9979493D01*
X12886729Y-9972024D01*
X12886729Y-9972024D01*
X12875810Y-9968050D01*
X12864190Y-9968050D01*
X12853271Y-9972024D01*
X12845561Y-9978494D01*
X12844369Y-9979494D01*
X12844369Y-9979494D01*
X12838560Y-9989556D01*
X12838559Y-9989557D01*
X12836542Y-10001000D01*
X12836542Y-10001000D01*
X12782662Y-10001000D01*
X12771810Y-9997050D01*
X12760190Y-9997050D01*
X12749357Y-10000993D01*
X12749271Y-10001024D01*
X12740369Y-10008494D01*
X12740369Y-10008494D01*
X12734560Y-10018556D01*
X12734559Y-10018557D01*
X12732542Y-10030000D01*
X12732542Y-10030000D01*
X11699186Y-10030000D01*
X11699419Y-9940000D01*
X12918930Y-9940000D01*
X12920999Y-9954388D01*
X12920999Y-9954388D01*
X12922691Y-9958093D01*
X12927037Y-9967610D01*
X12927037Y-9967610D01*
X12936556Y-9978596D01*
X12948785Y-9986455D01*
X12959349Y-9989557D01*
X12962732Y-9990550D01*
X12962732Y-9990550D01*
X12977268Y-9990550D01*
X12979316Y-9989949D01*
X12991215Y-9986455D01*
X13003444Y-9978596D01*
X13012963Y-9967610D01*
X13018721Y-9955002D01*
X13023296Y-9949722D01*
X13030000Y-9947753D01*
X13036704Y-9949722D01*
X13041279Y-9955002D01*
X13047037Y-9967610D01*
X13056556Y-9978596D01*
X13068785Y-9986455D01*
X13079349Y-9989557D01*
X13082732Y-9990550D01*
X13082732Y-9990550D01*
X13097268Y-9990550D01*
X13099316Y-9989949D01*
X13111215Y-9986455D01*
X13123444Y-9978596D01*
X13132963Y-9967610D01*
X13138721Y-9955002D01*
X13143296Y-9949722D01*
X13150000Y-9947753D01*
X13156704Y-9949722D01*
X13161279Y-9955002D01*
X13167037Y-9967610D01*
X13176556Y-9978596D01*
X13188785Y-9986455D01*
X13199349Y-9989557D01*
X13202732Y-9990550D01*
X13202732Y-9990550D01*
X13217268Y-9990550D01*
X13219316Y-9989949D01*
X13231215Y-9986455D01*
X13243444Y-9978596D01*
X13252963Y-9967610D01*
X13258721Y-9955002D01*
X13263296Y-9949722D01*
X13270000Y-9947753D01*
X13276704Y-9949722D01*
X13281279Y-9955002D01*
X13287037Y-9967610D01*
X13296556Y-9978596D01*
X13308785Y-9986455D01*
X13319349Y-9989557D01*
X13322732Y-9990550D01*
X13322732Y-9990550D01*
X13337268Y-9990550D01*
X13339316Y-9989949D01*
X13351215Y-9986455D01*
X13363444Y-9978596D01*
X13372963Y-9967610D01*
X13379001Y-9954388D01*
X13381070Y-9940000D01*
X13631542Y-9940000D01*
X13633559Y-9951443D01*
X13633560Y-9951444D01*
X13639369Y-9961506D01*
X13639369Y-9961506D01*
X13639369Y-9961507D01*
X13648271Y-9968976D01*
X13659190Y-9972950D01*
X13659190Y-9972950D01*
X13670810Y-9972950D01*
X13670810Y-9972950D01*
X13681729Y-9968976D01*
X13690630Y-9961507D01*
X13696440Y-9951443D01*
X13698458Y-9940000D01*
X13698216Y-9938626D01*
X13696514Y-9928976D01*
X13696440Y-9928557D01*
X13694502Y-9925200D01*
X13692855Y-9918410D01*
X13694503Y-9912800D01*
X13694739Y-9912390D01*
X13696440Y-9909443D01*
X13698106Y-9900000D01*
X14056542Y-9900000D01*
X14058559Y-9911443D01*
X14058560Y-9911444D01*
X14064369Y-9921506D01*
X14064369Y-9921506D01*
X14064369Y-9921507D01*
X14073271Y-9928976D01*
X14084190Y-9932950D01*
X14084190Y-9932950D01*
X14095810Y-9932950D01*
X14095810Y-9932950D01*
X14106729Y-9928976D01*
X14115630Y-9921507D01*
X14121440Y-9911443D01*
X14123458Y-9900000D01*
X14123106Y-9898000D01*
X14122320Y-9893545D01*
X14121440Y-9888557D01*
X14116714Y-9880371D01*
X14115631Y-9878494D01*
X14115631Y-9878494D01*
X14115630Y-9878493D01*
X14115630Y-9878493D01*
X14115630Y-9878493D01*
X14108646Y-9872633D01*
X14106729Y-9871024D01*
X14095810Y-9867050D01*
X14084190Y-9867050D01*
X14073271Y-9871024D01*
X14065263Y-9877744D01*
X14064369Y-9878494D01*
X14064369Y-9878494D01*
X14058560Y-9888556D01*
X14058559Y-9888557D01*
X14056542Y-9900000D01*
X14056542Y-9900000D01*
X13698106Y-9900000D01*
X13698458Y-9898000D01*
X13696440Y-9886557D01*
X13691352Y-9877744D01*
X13690631Y-9876494D01*
X13690631Y-9876494D01*
X13690630Y-9876493D01*
X13690630Y-9876493D01*
X13690630Y-9876493D01*
X13681729Y-9869024D01*
X13681729Y-9869024D01*
X13670810Y-9865050D01*
X13659190Y-9865050D01*
X13648271Y-9869024D01*
X13642370Y-9873976D01*
X13639369Y-9876494D01*
X13639369Y-9876494D01*
X13633560Y-9886556D01*
X13633559Y-9886557D01*
X13631542Y-9898000D01*
X13631542Y-9898000D01*
X13633559Y-9909443D01*
X13633559Y-9909443D01*
X13635497Y-9912800D01*
X13637145Y-9919590D01*
X13635497Y-9925200D01*
X13633559Y-9928557D01*
X13633559Y-9928557D01*
X13631542Y-9940000D01*
X13631542Y-9940000D01*
X13381070Y-9940000D01*
X13379001Y-9925612D01*
X13374589Y-9915950D01*
X13372963Y-9912390D01*
X13372962Y-9912390D01*
X13363444Y-9901404D01*
X13351215Y-9893545D01*
X13339058Y-9889976D01*
X13337268Y-9889450D01*
X13337268Y-9889450D01*
X13322732Y-9889450D01*
X13322732Y-9889450D01*
X13320942Y-9889976D01*
X13308785Y-9893545D01*
X13308785Y-9893545D01*
X13308785Y-9893545D01*
X13296556Y-9901404D01*
X13296556Y-9901404D01*
X13296556Y-9901404D01*
X13296467Y-9901507D01*
X13287037Y-9912390D01*
X13287037Y-9912390D01*
X13281279Y-9924998D01*
X13276704Y-9930278D01*
X13270000Y-9932247D01*
X13263296Y-9930278D01*
X13258721Y-9924998D01*
X13258721Y-9924998D01*
X13252963Y-9912390D01*
X13252962Y-9912390D01*
X13243444Y-9901404D01*
X13231215Y-9893545D01*
X13219058Y-9889976D01*
X13217268Y-9889450D01*
X13217268Y-9889450D01*
X13202732Y-9889450D01*
X13202732Y-9889450D01*
X13200942Y-9889976D01*
X13188785Y-9893545D01*
X13188785Y-9893545D01*
X13188785Y-9893545D01*
X13176556Y-9901404D01*
X13176556Y-9901404D01*
X13176556Y-9901404D01*
X13176467Y-9901507D01*
X13167037Y-9912390D01*
X13167037Y-9912390D01*
X13161279Y-9924998D01*
X13156704Y-9930278D01*
X13150000Y-9932247D01*
X13143296Y-9930278D01*
X13138721Y-9924998D01*
X13138721Y-9924998D01*
X13132963Y-9912390D01*
X13132962Y-9912390D01*
X13123444Y-9901404D01*
X13111215Y-9893545D01*
X13099058Y-9889976D01*
X13097268Y-9889450D01*
X13097268Y-9889450D01*
X13082732Y-9889450D01*
X13082732Y-9889450D01*
X13080942Y-9889976D01*
X13068785Y-9893545D01*
X13068785Y-9893545D01*
X13068785Y-9893545D01*
X13056556Y-9901404D01*
X13056556Y-9901404D01*
X13056556Y-9901404D01*
X13056467Y-9901507D01*
X13047037Y-9912390D01*
X13047037Y-9912390D01*
X13041279Y-9924998D01*
X13036704Y-9930278D01*
X13030000Y-9932247D01*
X13023296Y-9930278D01*
X13018721Y-9924998D01*
X13018721Y-9924998D01*
X13012963Y-9912390D01*
X13012962Y-9912390D01*
X13003444Y-9901404D01*
X12991215Y-9893545D01*
X12979058Y-9889976D01*
X12977268Y-9889450D01*
X12977268Y-9889450D01*
X12962732Y-9889450D01*
X12962732Y-9889450D01*
X12960942Y-9889976D01*
X12948785Y-9893545D01*
X12948785Y-9893545D01*
X12948785Y-9893545D01*
X12936556Y-9901404D01*
X12936556Y-9901404D01*
X12936556Y-9901404D01*
X12936467Y-9901507D01*
X12927037Y-9912390D01*
X12927037Y-9912390D01*
X12920999Y-9925612D01*
X12920999Y-9925612D01*
X12918930Y-9940000D01*
X11699419Y-9940000D01*
X11699524Y-9899251D01*
X12603910Y-9899251D01*
X12605928Y-9910694D01*
X12605928Y-9910694D01*
X12611738Y-9920757D01*
X12611738Y-9920758D01*
X12612631Y-9921507D01*
X12620639Y-9928226D01*
X12631558Y-9932201D01*
X12631559Y-9932201D01*
X12643178Y-9932201D01*
X12643178Y-9932201D01*
X12654098Y-9928226D01*
X12662999Y-9920757D01*
X12668809Y-9910694D01*
X12670827Y-9899251D01*
X12670606Y-9898000D01*
X12669450Y-9891443D01*
X12668809Y-9887807D01*
X12665023Y-9881250D01*
X12662999Y-9877744D01*
X12662999Y-9877744D01*
X12662999Y-9877744D01*
X12662999Y-9877744D01*
X12662999Y-9877744D01*
X12654098Y-9870275D01*
X12654098Y-9870275D01*
X12643178Y-9866301D01*
X12631558Y-9866301D01*
X12620639Y-9870275D01*
X12613228Y-9876493D01*
X12611738Y-9877744D01*
X12611738Y-9877744D01*
X12605928Y-9887807D01*
X12605928Y-9887808D01*
X12603910Y-9899251D01*
X12603910Y-9899251D01*
X11699524Y-9899251D01*
X11699664Y-9845000D01*
X12451542Y-9845000D01*
X12453559Y-9856443D01*
X12453560Y-9856444D01*
X12459369Y-9866506D01*
X12459370Y-9866507D01*
X12461428Y-9868234D01*
X12468271Y-9873976D01*
X12479190Y-9877950D01*
X12479190Y-9877950D01*
X12490810Y-9877950D01*
X12490810Y-9877950D01*
X12501729Y-9873976D01*
X12510630Y-9866507D01*
X12516440Y-9856443D01*
X12518458Y-9845000D01*
X12516440Y-9833557D01*
X12513517Y-9828493D01*
X12510631Y-9823494D01*
X12510631Y-9823494D01*
X12510630Y-9823493D01*
X12510630Y-9823493D01*
X12510630Y-9823493D01*
X12501729Y-9816024D01*
X12501729Y-9816024D01*
X12490810Y-9812050D01*
X12479190Y-9812050D01*
X12468271Y-9816024D01*
X12463004Y-9820444D01*
X12459369Y-9823494D01*
X12459369Y-9823494D01*
X12453560Y-9833556D01*
X12453559Y-9833557D01*
X12451542Y-9845000D01*
X12451542Y-9845000D01*
X11699664Y-9845000D01*
X11699910Y-9750000D01*
X12280542Y-9750000D01*
X12282559Y-9761443D01*
X12282560Y-9761444D01*
X12288369Y-9771506D01*
X12288370Y-9771507D01*
X12291438Y-9774082D01*
X12297271Y-9778976D01*
X12308190Y-9782950D01*
X12308190Y-9782950D01*
X12319810Y-9782950D01*
X12319810Y-9782950D01*
X12330729Y-9778976D01*
X12339630Y-9771507D01*
X12345440Y-9761443D01*
X12346048Y-9758000D01*
X12606542Y-9758000D01*
X12608559Y-9769443D01*
X12608560Y-9769444D01*
X12614369Y-9779506D01*
X12614370Y-9779507D01*
X12618473Y-9782950D01*
X12623271Y-9786976D01*
X12634190Y-9790950D01*
X12634190Y-9790950D01*
X12646895Y-9790950D01*
X12646895Y-9791091D01*
X12652685Y-9791736D01*
X12658108Y-9796142D01*
X12660288Y-9802780D01*
X12660295Y-9803174D01*
X12660295Y-9803728D01*
X12662312Y-9815171D01*
X12662312Y-9815171D01*
X12668122Y-9825234D01*
X12668123Y-9825234D01*
X12672007Y-9828493D01*
X12677024Y-9832703D01*
X12687943Y-9836678D01*
X12687943Y-9836678D01*
X12699563Y-9836678D01*
X12699563Y-9836678D01*
X12710482Y-9832703D01*
X12719383Y-9825234D01*
X12720765Y-9822840D01*
X12725822Y-9818019D01*
X12732682Y-9816697D01*
X12739169Y-9819293D01*
X12741003Y-9821069D01*
X12741369Y-9821507D01*
X12741369Y-9821507D01*
X12750271Y-9828976D01*
X12761190Y-9832950D01*
X12761190Y-9832950D01*
X12772810Y-9832950D01*
X12772810Y-9832950D01*
X12783729Y-9828976D01*
X12783729Y-9828976D01*
X12784749Y-9828605D01*
X12784791Y-9828721D01*
X12790510Y-9827333D01*
X12797113Y-9829618D01*
X12801432Y-9835110D01*
X12802097Y-9842066D01*
X12800659Y-9845919D01*
X12798671Y-9849363D01*
X12798560Y-9849557D01*
X12798559Y-9849557D01*
X12796542Y-9861000D01*
X12796542Y-9861000D01*
X12798559Y-9872443D01*
X12798560Y-9872444D01*
X12804369Y-9882506D01*
X12804370Y-9882507D01*
X12806698Y-9884460D01*
X12813271Y-9889976D01*
X12824190Y-9893950D01*
X12824190Y-9893950D01*
X12835810Y-9893950D01*
X12835810Y-9893950D01*
X12846729Y-9889976D01*
X12855630Y-9882507D01*
X12857078Y-9880000D01*
X13396542Y-9880000D01*
X13396762Y-9881249D01*
X13398559Y-9891443D01*
X13398560Y-9891444D01*
X13404369Y-9901506D01*
X13404370Y-9901507D01*
X13407945Y-9904507D01*
X13413271Y-9908976D01*
X13424190Y-9912950D01*
X13424190Y-9912950D01*
X13435810Y-9912950D01*
X13435810Y-9912950D01*
X13446729Y-9908976D01*
X13452218Y-9904370D01*
X13458618Y-9901569D01*
X13465518Y-9902673D01*
X13470725Y-9907331D01*
X13470926Y-9907668D01*
X13471951Y-9909443D01*
X13476551Y-9917410D01*
X13476551Y-9917410D01*
X13476551Y-9917410D01*
X13485452Y-9924879D01*
X13496371Y-9928853D01*
X13496372Y-9928853D01*
X13507991Y-9928853D01*
X13507991Y-9928853D01*
X13518911Y-9924879D01*
X13527812Y-9917410D01*
X13533622Y-9907347D01*
X13535640Y-9895903D01*
X13535295Y-9893950D01*
X13534344Y-9888556D01*
X13533622Y-9884460D01*
X13530455Y-9878976D01*
X13527812Y-9874397D01*
X13527812Y-9874397D01*
X13520157Y-9867974D01*
X13518911Y-9866928D01*
X13507991Y-9862953D01*
X13496371Y-9862953D01*
X13485452Y-9866928D01*
X13485452Y-9866928D01*
X13485452Y-9866928D01*
X13479963Y-9871533D01*
X13473563Y-9874335D01*
X13466663Y-9873230D01*
X13461456Y-9868572D01*
X13461254Y-9868234D01*
X13455631Y-9858494D01*
X13455631Y-9858494D01*
X13455630Y-9858493D01*
X13455630Y-9858493D01*
X13455630Y-9858493D01*
X13446729Y-9851024D01*
X13446729Y-9851024D01*
X13435810Y-9847050D01*
X13424190Y-9847050D01*
X13413271Y-9851024D01*
X13405851Y-9857250D01*
X13404369Y-9858494D01*
X13404369Y-9858494D01*
X13398560Y-9868556D01*
X13398559Y-9868557D01*
X13396807Y-9878494D01*
X13396542Y-9880000D01*
X12857078Y-9880000D01*
X12861440Y-9872443D01*
X12863458Y-9861000D01*
X12861440Y-9849557D01*
X12855630Y-9839493D01*
X12855630Y-9839493D01*
X12855630Y-9839493D01*
X12847538Y-9832703D01*
X12846729Y-9832024D01*
X12835810Y-9828050D01*
X12824190Y-9828050D01*
X12813271Y-9832024D01*
X12813271Y-9832024D01*
X12812251Y-9832395D01*
X12812209Y-9832279D01*
X12806487Y-9833667D01*
X12799885Y-9831381D01*
X12795567Y-9825888D01*
X12794903Y-9818933D01*
X12796340Y-9815081D01*
X12798440Y-9811443D01*
X12799277Y-9806700D01*
X12918930Y-9806700D01*
X12920999Y-9821088D01*
X12920999Y-9821088D01*
X12921849Y-9822949D01*
X12927037Y-9834310D01*
X12927037Y-9834310D01*
X12936556Y-9845296D01*
X12948785Y-9853155D01*
X12959984Y-9856443D01*
X12962732Y-9857250D01*
X12962732Y-9857250D01*
X12977268Y-9857250D01*
X12980016Y-9856443D01*
X12991215Y-9853155D01*
X13003444Y-9845296D01*
X13012963Y-9834310D01*
X13018721Y-9821702D01*
X13023296Y-9816422D01*
X13030000Y-9814453D01*
X13036704Y-9816422D01*
X13041279Y-9821702D01*
X13047037Y-9834310D01*
X13056556Y-9845296D01*
X13068785Y-9853155D01*
X13079984Y-9856443D01*
X13082732Y-9857250D01*
X13082732Y-9857250D01*
X13097268Y-9857250D01*
X13100016Y-9856443D01*
X13111215Y-9853155D01*
X13123444Y-9845296D01*
X13132963Y-9834310D01*
X13138721Y-9821702D01*
X13143296Y-9816422D01*
X13150000Y-9814453D01*
X13156704Y-9816422D01*
X13161279Y-9821702D01*
X13167037Y-9834310D01*
X13176556Y-9845296D01*
X13188785Y-9853155D01*
X13199984Y-9856443D01*
X13202732Y-9857250D01*
X13202732Y-9857250D01*
X13217268Y-9857250D01*
X13220016Y-9856443D01*
X13231215Y-9853155D01*
X13243444Y-9845296D01*
X13252963Y-9834310D01*
X13258721Y-9821702D01*
X13263296Y-9816422D01*
X13270000Y-9814453D01*
X13276704Y-9816422D01*
X13281279Y-9821702D01*
X13287037Y-9834310D01*
X13296556Y-9845296D01*
X13308785Y-9853155D01*
X13319984Y-9856443D01*
X13322732Y-9857250D01*
X13322732Y-9857250D01*
X13337268Y-9857250D01*
X13340016Y-9856443D01*
X13351215Y-9853155D01*
X13363444Y-9845296D01*
X13372963Y-9834310D01*
X13373091Y-9834029D01*
X13373697Y-9832703D01*
X13379001Y-9821088D01*
X13381070Y-9806700D01*
X13379001Y-9792312D01*
X13374726Y-9782950D01*
X13372963Y-9779090D01*
X13372962Y-9779090D01*
X13372864Y-9778976D01*
X13363444Y-9768104D01*
X13351215Y-9760245D01*
X13341363Y-9757353D01*
X13337268Y-9756150D01*
X13337268Y-9756150D01*
X13322732Y-9756150D01*
X13322732Y-9756150D01*
X13316934Y-9757852D01*
X13308785Y-9760245D01*
X13308785Y-9760245D01*
X13308785Y-9760245D01*
X13296556Y-9768104D01*
X13296556Y-9768104D01*
X13296556Y-9768104D01*
X13295286Y-9769571D01*
X13287037Y-9779090D01*
X13287037Y-9779090D01*
X13281279Y-9791698D01*
X13276704Y-9796978D01*
X13270000Y-9798947D01*
X13263296Y-9796978D01*
X13258721Y-9791698D01*
X13258721Y-9791698D01*
X13252963Y-9779090D01*
X13252962Y-9779090D01*
X13252864Y-9778976D01*
X13243444Y-9768104D01*
X13231215Y-9760245D01*
X13221363Y-9757353D01*
X13217268Y-9756150D01*
X13217268Y-9756150D01*
X13202732Y-9756150D01*
X13202732Y-9756150D01*
X13196934Y-9757852D01*
X13188785Y-9760245D01*
X13188785Y-9760245D01*
X13188785Y-9760245D01*
X13176556Y-9768104D01*
X13176556Y-9768104D01*
X13176556Y-9768104D01*
X13175286Y-9769571D01*
X13167037Y-9779090D01*
X13167037Y-9779090D01*
X13161279Y-9791698D01*
X13156704Y-9796978D01*
X13150000Y-9798947D01*
X13143296Y-9796978D01*
X13138721Y-9791698D01*
X13138721Y-9791698D01*
X13132963Y-9779090D01*
X13132962Y-9779090D01*
X13132864Y-9778976D01*
X13123444Y-9768104D01*
X13111215Y-9760245D01*
X13101363Y-9757353D01*
X13097268Y-9756150D01*
X13097268Y-9756150D01*
X13082732Y-9756150D01*
X13082732Y-9756150D01*
X13076934Y-9757852D01*
X13068785Y-9760245D01*
X13068785Y-9760245D01*
X13068785Y-9760245D01*
X13056556Y-9768104D01*
X13056556Y-9768104D01*
X13056556Y-9768104D01*
X13055286Y-9769571D01*
X13047037Y-9779090D01*
X13047037Y-9779090D01*
X13041279Y-9791698D01*
X13036704Y-9796978D01*
X13030000Y-9798947D01*
X13023296Y-9796978D01*
X13018721Y-9791698D01*
X13018721Y-9791698D01*
X13012963Y-9779090D01*
X13012962Y-9779090D01*
X13012864Y-9778976D01*
X13003444Y-9768104D01*
X12991215Y-9760245D01*
X12981363Y-9757353D01*
X12977268Y-9756150D01*
X12977268Y-9756150D01*
X12962732Y-9756150D01*
X12962732Y-9756150D01*
X12956934Y-9757852D01*
X12948785Y-9760245D01*
X12948785Y-9760245D01*
X12948785Y-9760245D01*
X12936556Y-9768104D01*
X12936556Y-9768104D01*
X12936556Y-9768104D01*
X12935286Y-9769571D01*
X12927037Y-9779090D01*
X12927037Y-9779090D01*
X12920999Y-9792312D01*
X12920999Y-9792312D01*
X12918930Y-9806700D01*
X12799277Y-9806700D01*
X12800458Y-9800000D01*
X12798440Y-9788557D01*
X12794370Y-9781507D01*
X12792631Y-9778494D01*
X12792631Y-9778494D01*
X12792630Y-9778493D01*
X12792630Y-9778493D01*
X12792630Y-9778493D01*
X12784229Y-9771444D01*
X12783729Y-9771024D01*
X12772810Y-9767050D01*
X12761190Y-9767050D01*
X12750271Y-9771024D01*
X12743071Y-9777065D01*
X12741369Y-9778494D01*
X12739987Y-9780887D01*
X12734931Y-9785709D01*
X12728070Y-9787031D01*
X12721584Y-9784434D01*
X12719750Y-9782658D01*
X12719383Y-9782221D01*
X12712029Y-9776050D01*
X12710482Y-9774752D01*
X12699563Y-9770778D01*
X12687943Y-9770778D01*
X12686858Y-9770778D01*
X12686858Y-9770637D01*
X12681067Y-9769991D01*
X12675644Y-9765585D01*
X12673464Y-9758946D01*
X12673458Y-9758554D01*
X12673458Y-9758000D01*
X12672048Y-9750000D01*
X12671440Y-9746557D01*
X12665630Y-9736493D01*
X12665630Y-9736493D01*
X12665630Y-9736493D01*
X12656729Y-9729024D01*
X12656729Y-9729024D01*
X12645810Y-9725050D01*
X12634190Y-9725050D01*
X12627780Y-9727383D01*
X12623271Y-9729024D01*
X12614369Y-9736494D01*
X12614369Y-9736494D01*
X12608560Y-9746556D01*
X12608559Y-9746557D01*
X12606542Y-9758000D01*
X12606542Y-9758000D01*
X12346048Y-9758000D01*
X12347458Y-9750000D01*
X12347106Y-9748000D01*
X12346419Y-9744108D01*
X12345440Y-9738557D01*
X12341092Y-9731024D01*
X12339631Y-9728494D01*
X12339631Y-9728494D01*
X12339630Y-9728493D01*
X12339630Y-9728493D01*
X12339630Y-9728493D01*
X12330729Y-9721024D01*
X12330729Y-9721024D01*
X12319810Y-9717050D01*
X12308190Y-9717050D01*
X12297622Y-9720896D01*
X12297271Y-9721024D01*
X12288369Y-9728494D01*
X12288369Y-9728494D01*
X12282560Y-9738556D01*
X12282559Y-9738557D01*
X12280542Y-9750000D01*
X12280542Y-9750000D01*
X11699910Y-9750000D01*
X11700000Y-9715000D01*
X11645552Y-9715000D01*
X11638848Y-9713032D01*
X11634272Y-9707751D01*
X11633278Y-9700835D01*
X11636181Y-9694480D01*
X11641311Y-9690948D01*
X11646729Y-9688976D01*
X11655630Y-9681507D01*
X11661119Y-9672000D01*
X12486542Y-9672000D01*
X12488559Y-9683443D01*
X12488560Y-9683444D01*
X12494369Y-9693506D01*
X12494370Y-9693507D01*
X12498095Y-9696633D01*
X12503271Y-9700976D01*
X12514190Y-9704950D01*
X12514190Y-9704950D01*
X12525810Y-9704950D01*
X12525810Y-9704950D01*
X12536729Y-9700976D01*
X12545630Y-9693507D01*
X12551440Y-9683443D01*
X12552048Y-9680000D01*
X12836542Y-9680000D01*
X12838559Y-9691443D01*
X12838560Y-9691444D01*
X12844369Y-9701506D01*
X12844370Y-9701507D01*
X12848473Y-9704950D01*
X12853271Y-9708976D01*
X12864190Y-9712950D01*
X12864190Y-9712950D01*
X12875810Y-9712950D01*
X12875810Y-9712950D01*
X12886729Y-9708976D01*
X12895630Y-9701507D01*
X12901292Y-9691700D01*
X12906349Y-9686879D01*
X12913209Y-9685556D01*
X12919696Y-9688153D01*
X12923310Y-9692749D01*
X12927037Y-9700910D01*
X12936556Y-9711896D01*
X12948785Y-9719755D01*
X12960332Y-9723145D01*
X12962732Y-9723850D01*
X12962732Y-9723850D01*
X12977268Y-9723850D01*
X12979316Y-9723249D01*
X12991215Y-9719755D01*
X13003444Y-9711896D01*
X13012963Y-9700910D01*
X13018721Y-9688302D01*
X13023296Y-9683022D01*
X13030000Y-9681053D01*
X13036704Y-9683022D01*
X13041279Y-9688302D01*
X13047037Y-9700910D01*
X13056556Y-9711896D01*
X13068785Y-9719755D01*
X13080332Y-9723145D01*
X13082732Y-9723850D01*
X13082732Y-9723850D01*
X13097268Y-9723850D01*
X13099316Y-9723249D01*
X13111215Y-9719755D01*
X13123444Y-9711896D01*
X13132963Y-9700910D01*
X13138721Y-9688302D01*
X13143296Y-9683022D01*
X13150000Y-9681053D01*
X13156704Y-9683022D01*
X13161279Y-9688302D01*
X13167037Y-9700910D01*
X13176556Y-9711896D01*
X13188785Y-9719755D01*
X13200332Y-9723145D01*
X13202732Y-9723850D01*
X13202732Y-9723850D01*
X13217268Y-9723850D01*
X13219316Y-9723249D01*
X13231215Y-9719755D01*
X13243444Y-9711896D01*
X13252963Y-9700910D01*
X13258721Y-9688302D01*
X13263296Y-9683022D01*
X13270000Y-9681053D01*
X13276704Y-9683022D01*
X13281279Y-9688302D01*
X13287037Y-9700910D01*
X13296556Y-9711896D01*
X13308785Y-9719755D01*
X13320332Y-9723145D01*
X13322732Y-9723850D01*
X13322732Y-9723850D01*
X13337268Y-9723850D01*
X13339316Y-9723249D01*
X13351215Y-9719755D01*
X13363444Y-9711896D01*
X13372963Y-9700910D01*
X13377131Y-9691782D01*
X13381707Y-9686502D01*
X13388411Y-9684533D01*
X13395115Y-9686502D01*
X13399149Y-9690733D01*
X13405369Y-9701506D01*
X13405369Y-9701506D01*
X13405369Y-9701507D01*
X13414271Y-9708976D01*
X13414271Y-9708976D01*
X13414277Y-9708979D01*
X13414286Y-9708988D01*
X13415102Y-9709673D01*
X13415025Y-9709764D01*
X13419099Y-9714036D01*
X13420422Y-9720896D01*
X13417825Y-9727383D01*
X13414016Y-9730146D01*
X13414210Y-9730482D01*
X13413271Y-9731024D01*
X13404369Y-9738494D01*
X13404369Y-9738494D01*
X13398560Y-9748556D01*
X13398559Y-9748557D01*
X13396542Y-9760000D01*
X13396542Y-9760000D01*
X13398559Y-9771443D01*
X13398560Y-9771444D01*
X13404369Y-9781506D01*
X13404370Y-9781507D01*
X13407858Y-9784434D01*
X13413271Y-9788976D01*
X13424190Y-9792950D01*
X13424190Y-9792950D01*
X13435810Y-9792950D01*
X13435810Y-9792950D01*
X13446729Y-9788976D01*
X13455630Y-9781507D01*
X13461440Y-9771443D01*
X13463458Y-9760000D01*
X13463265Y-9758903D01*
X13461440Y-9748557D01*
X13461440Y-9748557D01*
X13455630Y-9738493D01*
X13455630Y-9738493D01*
X13455630Y-9738493D01*
X13446729Y-9731024D01*
X13446722Y-9731020D01*
X13446713Y-9731011D01*
X13445898Y-9730327D01*
X13445974Y-9730236D01*
X13441900Y-9725964D01*
X13440578Y-9719103D01*
X13443175Y-9712617D01*
X13446987Y-9709859D01*
X13446790Y-9709518D01*
X13447729Y-9708976D01*
X13452826Y-9704699D01*
X13456630Y-9701507D01*
X13462440Y-9691443D01*
X13464458Y-9680000D01*
X13464288Y-9679037D01*
X13463048Y-9672000D01*
X13462440Y-9668557D01*
X13460964Y-9666000D01*
X13586542Y-9666000D01*
X13588559Y-9677443D01*
X13588560Y-9677444D01*
X13594369Y-9687506D01*
X13594370Y-9687507D01*
X13598820Y-9691241D01*
X13603271Y-9694976D01*
X13614190Y-9698950D01*
X13614190Y-9698950D01*
X13625810Y-9698950D01*
X13625810Y-9698950D01*
X13630959Y-9697076D01*
X13637932Y-9696633D01*
X13644037Y-9700030D01*
X13647337Y-9706188D01*
X13647600Y-9708728D01*
X13647600Y-9788178D01*
X13647362Y-9790597D01*
X13647143Y-9791698D01*
X13647083Y-9792000D01*
X13647272Y-9792950D01*
X13647600Y-9794600D01*
X13647600Y-9794601D01*
X13649131Y-9802301D01*
X13649132Y-9802301D01*
X13654967Y-9811033D01*
X13654967Y-9811033D01*
X13655580Y-9811443D01*
X13656155Y-9811828D01*
X13658034Y-9813370D01*
X13669630Y-9824965D01*
X13671172Y-9826844D01*
X13671499Y-9827333D01*
X13671967Y-9828033D01*
X13680699Y-9833868D01*
X13680699Y-9833868D01*
X13680699Y-9833868D01*
X13686333Y-9834989D01*
X13691884Y-9837652D01*
X13692271Y-9837976D01*
X13703190Y-9841950D01*
X13703190Y-9841950D01*
X13714810Y-9841950D01*
X13714810Y-9841950D01*
X13725729Y-9837976D01*
X13734630Y-9830507D01*
X13740440Y-9820443D01*
X13742458Y-9809000D01*
X13742053Y-9806700D01*
X13741529Y-9803728D01*
X13740440Y-9797557D01*
X13735244Y-9788557D01*
X13734631Y-9787494D01*
X13734630Y-9787493D01*
X13726757Y-9780887D01*
X13725729Y-9780024D01*
X13725663Y-9780000D01*
X14029108Y-9780000D01*
X14030865Y-9791091D01*
X14035963Y-9801097D01*
X14043903Y-9809037D01*
X14053909Y-9814135D01*
X14065000Y-9815892D01*
X14065000Y-9815892D01*
X14065000Y-9815892D01*
X14076091Y-9814135D01*
X14076091Y-9814135D01*
X14076091Y-9814135D01*
X14086097Y-9809037D01*
X14094037Y-9801097D01*
X14099135Y-9791091D01*
X14099135Y-9791091D01*
X14099135Y-9791091D01*
X14100892Y-9780000D01*
X14100892Y-9780000D01*
X14099135Y-9768909D01*
X14094037Y-9758903D01*
X14086096Y-9750963D01*
X14076091Y-9745865D01*
X14065000Y-9744108D01*
X14065000Y-9744108D01*
X14053909Y-9745865D01*
X14043903Y-9750963D01*
X14035963Y-9758903D01*
X14030865Y-9768909D01*
X14029108Y-9780000D01*
X14029108Y-9780000D01*
X13725663Y-9780000D01*
X13714810Y-9776050D01*
X13712800Y-9776050D01*
X13706096Y-9774082D01*
X13701521Y-9768801D01*
X13700400Y-9763650D01*
X13700400Y-9629071D01*
X13702368Y-9622368D01*
X13703470Y-9621000D01*
X13841542Y-9621000D01*
X13843559Y-9632443D01*
X13843560Y-9632444D01*
X13849369Y-9642506D01*
X13849370Y-9642507D01*
X13849987Y-9643024D01*
X13858271Y-9649976D01*
X13869190Y-9653950D01*
X13869190Y-9653950D01*
X13880810Y-9653950D01*
X13880810Y-9653950D01*
X13891662Y-9650000D01*
X13934108Y-9650000D01*
X13935865Y-9661091D01*
X13940963Y-9671097D01*
X13948903Y-9679037D01*
X13958909Y-9684135D01*
X13970000Y-9685892D01*
X13970000Y-9685892D01*
X13970000Y-9685892D01*
X13981091Y-9684135D01*
X13981091Y-9684135D01*
X13981091Y-9684135D01*
X13991097Y-9679037D01*
X13999037Y-9671097D01*
X14004135Y-9661091D01*
X14004135Y-9661091D01*
X14004135Y-9661091D01*
X14005892Y-9650000D01*
X14005892Y-9650000D01*
X14004135Y-9638909D01*
X13999037Y-9628903D01*
X13991096Y-9620963D01*
X13981091Y-9615865D01*
X13970000Y-9614108D01*
X13970000Y-9614108D01*
X13958909Y-9615865D01*
X13948903Y-9620963D01*
X13940963Y-9628903D01*
X13935865Y-9638909D01*
X13934108Y-9650000D01*
X13934108Y-9650000D01*
X13891662Y-9650000D01*
X13891729Y-9649976D01*
X13900630Y-9642507D01*
X13906440Y-9632443D01*
X13908458Y-9621000D01*
X13908452Y-9620963D01*
X13907295Y-9614402D01*
X13906440Y-9609557D01*
X13900630Y-9599493D01*
X13900630Y-9599493D01*
X13900630Y-9599493D01*
X13891729Y-9592024D01*
X13891729Y-9592024D01*
X13880810Y-9588050D01*
X13869190Y-9588050D01*
X13858271Y-9592024D01*
X13849928Y-9599024D01*
X13849369Y-9599494D01*
X13849369Y-9599494D01*
X13843560Y-9609556D01*
X13843559Y-9609557D01*
X13841542Y-9621000D01*
X13841542Y-9621000D01*
X13703470Y-9621000D01*
X13704032Y-9620303D01*
X13799335Y-9525000D01*
X14034108Y-9525000D01*
X14035865Y-9536091D01*
X14040963Y-9546097D01*
X14048903Y-9554037D01*
X14058909Y-9559135D01*
X14070000Y-9560892D01*
X14070000Y-9560892D01*
X14070000Y-9560892D01*
X14081091Y-9559135D01*
X14081091Y-9559135D01*
X14081091Y-9559135D01*
X14091097Y-9554037D01*
X14099037Y-9546097D01*
X14104135Y-9536091D01*
X14104135Y-9536091D01*
X14104135Y-9536091D01*
X14105892Y-9525000D01*
X14105892Y-9525000D01*
X14104135Y-9513909D01*
X14099037Y-9503903D01*
X14091096Y-9495963D01*
X14081091Y-9490865D01*
X14070000Y-9489108D01*
X14070000Y-9489108D01*
X14058909Y-9490865D01*
X14048903Y-9495963D01*
X14040963Y-9503903D01*
X14035865Y-9513909D01*
X14034108Y-9525000D01*
X14034108Y-9525000D01*
X13799335Y-9525000D01*
X13824774Y-9499561D01*
X13946626Y-9377709D01*
X13951153Y-9374825D01*
X13961729Y-9370976D01*
X13962892Y-9370000D01*
X14024108Y-9370000D01*
X14025865Y-9381091D01*
X14030963Y-9391097D01*
X14038903Y-9399037D01*
X14048909Y-9404135D01*
X14060000Y-9405892D01*
X14060000Y-9405892D01*
X14060000Y-9405892D01*
X14071091Y-9404135D01*
X14071091Y-9404135D01*
X14071091Y-9404135D01*
X14081097Y-9399037D01*
X14089037Y-9391097D01*
X14094135Y-9381091D01*
X14094135Y-9381091D01*
X14094135Y-9381091D01*
X14095100Y-9375000D01*
X14159108Y-9375000D01*
X14160865Y-9386091D01*
X14165963Y-9396097D01*
X14173903Y-9404037D01*
X14183909Y-9409135D01*
X14195000Y-9410892D01*
X14195000Y-9410892D01*
X14195000Y-9410892D01*
X14206091Y-9409135D01*
X14206091Y-9409135D01*
X14206091Y-9409135D01*
X14216097Y-9404037D01*
X14224037Y-9396097D01*
X14229135Y-9386091D01*
X14229135Y-9386091D01*
X14229135Y-9386091D01*
X14230892Y-9375000D01*
X14230892Y-9375000D01*
X14229135Y-9363909D01*
X14224037Y-9353903D01*
X14216096Y-9345963D01*
X14206091Y-9340865D01*
X14195000Y-9339108D01*
X14195000Y-9339108D01*
X14183909Y-9340865D01*
X14173903Y-9345963D01*
X14165963Y-9353903D01*
X14160865Y-9363909D01*
X14159108Y-9375000D01*
X14159108Y-9375000D01*
X14095100Y-9375000D01*
X14095892Y-9370000D01*
X14095892Y-9370000D01*
X14094135Y-9358909D01*
X14089037Y-9348903D01*
X14081096Y-9340963D01*
X14071091Y-9335865D01*
X14060000Y-9334108D01*
X14060000Y-9334108D01*
X14048909Y-9335865D01*
X14038903Y-9340963D01*
X14030963Y-9348903D01*
X14025865Y-9358909D01*
X14024108Y-9370000D01*
X14024108Y-9370000D01*
X13962892Y-9370000D01*
X13970630Y-9363507D01*
X13976440Y-9353443D01*
X13978458Y-9342000D01*
X13978106Y-9340000D01*
X13977376Y-9335865D01*
X13976440Y-9330557D01*
X13971756Y-9322444D01*
X13970631Y-9320494D01*
X13970631Y-9320494D01*
X13970630Y-9320493D01*
X13970630Y-9320493D01*
X13970630Y-9320493D01*
X13961729Y-9313024D01*
X13961729Y-9313024D01*
X13950810Y-9309050D01*
X13939190Y-9309050D01*
X13928271Y-9313024D01*
X13921178Y-9318976D01*
X13919369Y-9320494D01*
X13919369Y-9320494D01*
X13913559Y-9330557D01*
X13913050Y-9333443D01*
X13909948Y-9339703D01*
X13909607Y-9340058D01*
X13714066Y-9535599D01*
X13707934Y-9538947D01*
X13700965Y-9538449D01*
X13695371Y-9534261D01*
X13694559Y-9533030D01*
X13689631Y-9524494D01*
X13689631Y-9524494D01*
X13689630Y-9524493D01*
X13689630Y-9524493D01*
X13689630Y-9524493D01*
X13680776Y-9517063D01*
X13680729Y-9517024D01*
X13669810Y-9513050D01*
X13658190Y-9513050D01*
X13647271Y-9517024D01*
X13638928Y-9524024D01*
X13638369Y-9524494D01*
X13638369Y-9524494D01*
X13632560Y-9534556D01*
X13632559Y-9534557D01*
X13630542Y-9546000D01*
X13630542Y-9546000D01*
X13632559Y-9557443D01*
X13632560Y-9557444D01*
X13638369Y-9567506D01*
X13638370Y-9567507D01*
X13647270Y-9574976D01*
X13647271Y-9574976D01*
X13647271Y-9574976D01*
X13648821Y-9575540D01*
X13654447Y-9579682D01*
X13656941Y-9586209D01*
X13655510Y-9593048D01*
X13654890Y-9594081D01*
X13652472Y-9597700D01*
X13652472Y-9597700D01*
X13649132Y-9602699D01*
X13647083Y-9613000D01*
X13647362Y-9614402D01*
X13647600Y-9616821D01*
X13647600Y-9623272D01*
X13645631Y-9629976D01*
X13640351Y-9634551D01*
X13633435Y-9635546D01*
X13630959Y-9634924D01*
X13629935Y-9634551D01*
X13625810Y-9633050D01*
X13614190Y-9633050D01*
X13603271Y-9637024D01*
X13600857Y-9639050D01*
X13594369Y-9644494D01*
X13594369Y-9644494D01*
X13588560Y-9654556D01*
X13588559Y-9654557D01*
X13586542Y-9666000D01*
X13586542Y-9666000D01*
X13460964Y-9666000D01*
X13459075Y-9662728D01*
X13456631Y-9658494D01*
X13456631Y-9658494D01*
X13456630Y-9658493D01*
X13456630Y-9658493D01*
X13456630Y-9658493D01*
X13449954Y-9652892D01*
X13447729Y-9651024D01*
X13436810Y-9647050D01*
X13425190Y-9647050D01*
X13414271Y-9651024D01*
X13407178Y-9656976D01*
X13405369Y-9658494D01*
X13402124Y-9664115D01*
X13397067Y-9668936D01*
X13390206Y-9670259D01*
X13383720Y-9667662D01*
X13379667Y-9661970D01*
X13379111Y-9659680D01*
X13379001Y-9658912D01*
X13378117Y-9656976D01*
X13372963Y-9645690D01*
X13372962Y-9645690D01*
X13363444Y-9634704D01*
X13353012Y-9628000D01*
X13472542Y-9628000D01*
X13474559Y-9639443D01*
X13474560Y-9639444D01*
X13480369Y-9649506D01*
X13480370Y-9649507D01*
X13482178Y-9651024D01*
X13489271Y-9656976D01*
X13500190Y-9660950D01*
X13500190Y-9660950D01*
X13511810Y-9660950D01*
X13511810Y-9660950D01*
X13522729Y-9656976D01*
X13531630Y-9649507D01*
X13537440Y-9639443D01*
X13539458Y-9628000D01*
X13537440Y-9616557D01*
X13533399Y-9609557D01*
X13531631Y-9606494D01*
X13531631Y-9606494D01*
X13531630Y-9606493D01*
X13531630Y-9606493D01*
X13531630Y-9606493D01*
X13522729Y-9599024D01*
X13522729Y-9599024D01*
X13511810Y-9595050D01*
X13500190Y-9595050D01*
X13489271Y-9599024D01*
X13481134Y-9605852D01*
X13480369Y-9606494D01*
X13480369Y-9606494D01*
X13474560Y-9616556D01*
X13474559Y-9616557D01*
X13472542Y-9628000D01*
X13472542Y-9628000D01*
X13353012Y-9628000D01*
X13351215Y-9626845D01*
X13341091Y-9623873D01*
X13337268Y-9622750D01*
X13337268Y-9622750D01*
X13322732Y-9622750D01*
X13322732Y-9622750D01*
X13318909Y-9623873D01*
X13308785Y-9626845D01*
X13308785Y-9626845D01*
X13308785Y-9626845D01*
X13296556Y-9634704D01*
X13287037Y-9645690D01*
X13287037Y-9645690D01*
X13281279Y-9658298D01*
X13276704Y-9663578D01*
X13270000Y-9665547D01*
X13263296Y-9663578D01*
X13258721Y-9658298D01*
X13258721Y-9658298D01*
X13252963Y-9645690D01*
X13252962Y-9645690D01*
X13243444Y-9634704D01*
X13231215Y-9626845D01*
X13221091Y-9623873D01*
X13217268Y-9622750D01*
X13217268Y-9622750D01*
X13202732Y-9622750D01*
X13202732Y-9622750D01*
X13198909Y-9623873D01*
X13188785Y-9626845D01*
X13188785Y-9626845D01*
X13188785Y-9626845D01*
X13176556Y-9634704D01*
X13167037Y-9645690D01*
X13167037Y-9645690D01*
X13161279Y-9658298D01*
X13156704Y-9663578D01*
X13150000Y-9665547D01*
X13143296Y-9663578D01*
X13138721Y-9658298D01*
X13138721Y-9658298D01*
X13132963Y-9645690D01*
X13132962Y-9645690D01*
X13123444Y-9634704D01*
X13111215Y-9626845D01*
X13101091Y-9623873D01*
X13097268Y-9622750D01*
X13097268Y-9622750D01*
X13082732Y-9622750D01*
X13082732Y-9622750D01*
X13078909Y-9623873D01*
X13068785Y-9626845D01*
X13068785Y-9626845D01*
X13068785Y-9626845D01*
X13056556Y-9634704D01*
X13047037Y-9645690D01*
X13047037Y-9645690D01*
X13041279Y-9658298D01*
X13036704Y-9663578D01*
X13030000Y-9665547D01*
X13023296Y-9663578D01*
X13018721Y-9658298D01*
X13018721Y-9658298D01*
X13012963Y-9645690D01*
X13012962Y-9645690D01*
X13003444Y-9634704D01*
X12991215Y-9626845D01*
X12981091Y-9623873D01*
X12977268Y-9622750D01*
X12977268Y-9622750D01*
X12962732Y-9622750D01*
X12962732Y-9622750D01*
X12958909Y-9623873D01*
X12948785Y-9626845D01*
X12948785Y-9626845D01*
X12948785Y-9626845D01*
X12936556Y-9634704D01*
X12927037Y-9645690D01*
X12927037Y-9645690D01*
X12920999Y-9658912D01*
X12920749Y-9659764D01*
X12920456Y-9659678D01*
X12918185Y-9664649D01*
X12912307Y-9668426D01*
X12905320Y-9668426D01*
X12899442Y-9664648D01*
X12898075Y-9662728D01*
X12895631Y-9658494D01*
X12895631Y-9658494D01*
X12895630Y-9658493D01*
X12895630Y-9658493D01*
X12895630Y-9658493D01*
X12888954Y-9652892D01*
X12886729Y-9651024D01*
X12875810Y-9647050D01*
X12864190Y-9647050D01*
X12853271Y-9651024D01*
X12846178Y-9656976D01*
X12844369Y-9658494D01*
X12844369Y-9658494D01*
X12838560Y-9668556D01*
X12838559Y-9668557D01*
X12836542Y-9680000D01*
X12836542Y-9680000D01*
X12552048Y-9680000D01*
X12553458Y-9672000D01*
X12553371Y-9671507D01*
X12552786Y-9668186D01*
X12551440Y-9660557D01*
X12547599Y-9653903D01*
X12545631Y-9650494D01*
X12545631Y-9650494D01*
X12545630Y-9650493D01*
X12545630Y-9650493D01*
X12545630Y-9650493D01*
X12536729Y-9643024D01*
X12536729Y-9643024D01*
X12525810Y-9639050D01*
X12514190Y-9639050D01*
X12503271Y-9643024D01*
X12494946Y-9650009D01*
X12494369Y-9650494D01*
X12494369Y-9650494D01*
X12488560Y-9660556D01*
X12488559Y-9660557D01*
X12486542Y-9672000D01*
X12486542Y-9672000D01*
X11661119Y-9672000D01*
X11661440Y-9671443D01*
X11663458Y-9660000D01*
X11663401Y-9659678D01*
X11662383Y-9653903D01*
X11661440Y-9648557D01*
X11655952Y-9639050D01*
X11655631Y-9638494D01*
X11655631Y-9638494D01*
X11655630Y-9638493D01*
X11655630Y-9638493D01*
X11655630Y-9638493D01*
X11648954Y-9632892D01*
X11646729Y-9631024D01*
X11635810Y-9627050D01*
X11624190Y-9627050D01*
X11613271Y-9631024D01*
X11610857Y-9633050D01*
X11604369Y-9638494D01*
X11604369Y-9638494D01*
X11598560Y-9648556D01*
X11598559Y-9648557D01*
X11596542Y-9660000D01*
X11596542Y-9660000D01*
X11598559Y-9671443D01*
X11598560Y-9671444D01*
X11604369Y-9681506D01*
X11604370Y-9681507D01*
X11608820Y-9685241D01*
X11613271Y-9688976D01*
X11618689Y-9690948D01*
X11624316Y-9695091D01*
X11626809Y-9701617D01*
X11625378Y-9708456D01*
X11620477Y-9713436D01*
X11614448Y-9715000D01*
X11570008Y-9715000D01*
X11563304Y-9713032D01*
X11558729Y-9707751D01*
X11557735Y-9700835D01*
X11557793Y-9700466D01*
X11571886Y-9619934D01*
X11572192Y-9618616D01*
X11577414Y-9600643D01*
X11577654Y-9599903D01*
X11578998Y-9596171D01*
X11579060Y-9596000D01*
X12594542Y-9596000D01*
X12596559Y-9607443D01*
X12596560Y-9607444D01*
X12602369Y-9617506D01*
X12602369Y-9617506D01*
X12602369Y-9617507D01*
X12611271Y-9624976D01*
X12622190Y-9628950D01*
X12622190Y-9628950D01*
X12633810Y-9628950D01*
X12633810Y-9628950D01*
X12644729Y-9624976D01*
X12653630Y-9617507D01*
X12659440Y-9607443D01*
X12661458Y-9596000D01*
X12661120Y-9594081D01*
X12660056Y-9588050D01*
X12659440Y-9584557D01*
X12653909Y-9574976D01*
X12653631Y-9574494D01*
X12653631Y-9574494D01*
X12653630Y-9574493D01*
X12653630Y-9574493D01*
X12653630Y-9574493D01*
X12645303Y-9567506D01*
X12644729Y-9567024D01*
X12633810Y-9563050D01*
X12622190Y-9563050D01*
X12611271Y-9567024D01*
X12606004Y-9571444D01*
X12602369Y-9574494D01*
X12602369Y-9574494D01*
X12596560Y-9584556D01*
X12596559Y-9584557D01*
X12594542Y-9596000D01*
X12594542Y-9596000D01*
X11579060Y-9596000D01*
X11592020Y-9560000D01*
X12836542Y-9560000D01*
X12838559Y-9571443D01*
X12838560Y-9571444D01*
X12844369Y-9581506D01*
X12844370Y-9581507D01*
X12848004Y-9584556D01*
X12853271Y-9588976D01*
X12864190Y-9592950D01*
X12864190Y-9592950D01*
X12875810Y-9592950D01*
X12875810Y-9592950D01*
X12886729Y-9588976D01*
X12895630Y-9581507D01*
X12901440Y-9571443D01*
X12902133Y-9567514D01*
X12905236Y-9561254D01*
X12911231Y-9557665D01*
X12918214Y-9557887D01*
X12923969Y-9561849D01*
X12925624Y-9564516D01*
X12927037Y-9567610D01*
X12936556Y-9578596D01*
X12948785Y-9586455D01*
X12960332Y-9589845D01*
X12962732Y-9590550D01*
X12962732Y-9590550D01*
X12977268Y-9590550D01*
X12979316Y-9589949D01*
X12991215Y-9586455D01*
X13003444Y-9578596D01*
X13012963Y-9567610D01*
X13018721Y-9555002D01*
X13023296Y-9549722D01*
X13030000Y-9547753D01*
X13036704Y-9549722D01*
X13041279Y-9555002D01*
X13047037Y-9567610D01*
X13056556Y-9578596D01*
X13068785Y-9586455D01*
X13080332Y-9589845D01*
X13082732Y-9590550D01*
X13082732Y-9590550D01*
X13097268Y-9590550D01*
X13099316Y-9589949D01*
X13111215Y-9586455D01*
X13123444Y-9578596D01*
X13132963Y-9567610D01*
X13138721Y-9555002D01*
X13143296Y-9549722D01*
X13150000Y-9547753D01*
X13156704Y-9549722D01*
X13161279Y-9555002D01*
X13167037Y-9567610D01*
X13176556Y-9578596D01*
X13188785Y-9586455D01*
X13200332Y-9589845D01*
X13202732Y-9590550D01*
X13202732Y-9590550D01*
X13217268Y-9590550D01*
X13219316Y-9589949D01*
X13231215Y-9586455D01*
X13243444Y-9578596D01*
X13252963Y-9567610D01*
X13258721Y-9555002D01*
X13263296Y-9549722D01*
X13270000Y-9547753D01*
X13276704Y-9549722D01*
X13281279Y-9555002D01*
X13287037Y-9567610D01*
X13296556Y-9578596D01*
X13308785Y-9586455D01*
X13320332Y-9589845D01*
X13322732Y-9590550D01*
X13322732Y-9590550D01*
X13337268Y-9590550D01*
X13339316Y-9589949D01*
X13351215Y-9586455D01*
X13363444Y-9578596D01*
X13372963Y-9567610D01*
X13379001Y-9554388D01*
X13380642Y-9542972D01*
X13383545Y-9536617D01*
X13389423Y-9532839D01*
X13396410Y-9532839D01*
X13402287Y-9536617D01*
X13403655Y-9538537D01*
X13405369Y-9541506D01*
X13405370Y-9541507D01*
X13406649Y-9542580D01*
X13414271Y-9548976D01*
X13425190Y-9552950D01*
X13425190Y-9552950D01*
X13436810Y-9552950D01*
X13436810Y-9552950D01*
X13447729Y-9548976D01*
X13456630Y-9541507D01*
X13461656Y-9532802D01*
X13466713Y-9527981D01*
X13473573Y-9526658D01*
X13480060Y-9529255D01*
X13480365Y-9529503D01*
X13481289Y-9530278D01*
X13489271Y-9536976D01*
X13500190Y-9540950D01*
X13500190Y-9540950D01*
X13511810Y-9540950D01*
X13511810Y-9540950D01*
X13522729Y-9536976D01*
X13531630Y-9529507D01*
X13537440Y-9519443D01*
X13539458Y-9508000D01*
X13537440Y-9496557D01*
X13533337Y-9489450D01*
X13531631Y-9486494D01*
X13531631Y-9486494D01*
X13531630Y-9486493D01*
X13531630Y-9486493D01*
X13531630Y-9486493D01*
X13522729Y-9479024D01*
X13522729Y-9479024D01*
X13511810Y-9475050D01*
X13500190Y-9475050D01*
X13489271Y-9479024D01*
X13481119Y-9485865D01*
X13480369Y-9486494D01*
X13480369Y-9486494D01*
X13475344Y-9495198D01*
X13470287Y-9500020D01*
X13463426Y-9501342D01*
X13456940Y-9498745D01*
X13456635Y-9498497D01*
X13448863Y-9491976D01*
X13447729Y-9491024D01*
X13436810Y-9487050D01*
X13425190Y-9487050D01*
X13414271Y-9491024D01*
X13411266Y-9493545D01*
X13405369Y-9498494D01*
X13405369Y-9498494D01*
X13399560Y-9508556D01*
X13399559Y-9508557D01*
X13398588Y-9514066D01*
X13395485Y-9520326D01*
X13389491Y-9523915D01*
X13382507Y-9523693D01*
X13376752Y-9519731D01*
X13375097Y-9517063D01*
X13372963Y-9512390D01*
X13372962Y-9512390D01*
X13363444Y-9501404D01*
X13351215Y-9493545D01*
X13340556Y-9490415D01*
X13337268Y-9489450D01*
X13337268Y-9489450D01*
X13336398Y-9489450D01*
X13329694Y-9487482D01*
X13325118Y-9482201D01*
X13324124Y-9475285D01*
X13327026Y-9468930D01*
X13328427Y-9467551D01*
X13333851Y-9463000D01*
X13335630Y-9461507D01*
X13341440Y-9451443D01*
X13343458Y-9440000D01*
X13342842Y-9436507D01*
X13342786Y-9436186D01*
X13341440Y-9428557D01*
X13337369Y-9421505D01*
X13335631Y-9418494D01*
X13335631Y-9418494D01*
X13335630Y-9418493D01*
X13335630Y-9418493D01*
X13335630Y-9418493D01*
X13331467Y-9415000D01*
X13553542Y-9415000D01*
X13555559Y-9426443D01*
X13555560Y-9426444D01*
X13561369Y-9436506D01*
X13561370Y-9436507D01*
X13565473Y-9439950D01*
X13570271Y-9443976D01*
X13581190Y-9447950D01*
X13581190Y-9447950D01*
X13592810Y-9447950D01*
X13592810Y-9447950D01*
X13603729Y-9443976D01*
X13612630Y-9436507D01*
X13618440Y-9426443D01*
X13620458Y-9415000D01*
X13620171Y-9413372D01*
X13619251Y-9408156D01*
X13618440Y-9403557D01*
X13613500Y-9395000D01*
X13612631Y-9393494D01*
X13612631Y-9393494D01*
X13612630Y-9393493D01*
X13612630Y-9393493D01*
X13612630Y-9393493D01*
X13603729Y-9386024D01*
X13603729Y-9386024D01*
X13592810Y-9382050D01*
X13581190Y-9382050D01*
X13570271Y-9386024D01*
X13562618Y-9392446D01*
X13561369Y-9393494D01*
X13561369Y-9393494D01*
X13555560Y-9403556D01*
X13555559Y-9403557D01*
X13553542Y-9415000D01*
X13553542Y-9415000D01*
X13331467Y-9415000D01*
X13326729Y-9411024D01*
X13326729Y-9411024D01*
X13315810Y-9407050D01*
X13304190Y-9407050D01*
X13293271Y-9411024D01*
X13285631Y-9417435D01*
X13284369Y-9418494D01*
X13284369Y-9418494D01*
X13278560Y-9428556D01*
X13278559Y-9428557D01*
X13276542Y-9440000D01*
X13276542Y-9440000D01*
X13278559Y-9451443D01*
X13278560Y-9451444D01*
X13284369Y-9461506D01*
X13284370Y-9461507D01*
X13293271Y-9468976D01*
X13293271Y-9468976D01*
X13293271Y-9468976D01*
X13304073Y-9472907D01*
X13309699Y-9477050D01*
X13312192Y-9483577D01*
X13310761Y-9490415D01*
X13306535Y-9494991D01*
X13296557Y-9501404D01*
X13296556Y-9501404D01*
X13296556Y-9501404D01*
X13295450Y-9502681D01*
X13287037Y-9512390D01*
X13287037Y-9512390D01*
X13281279Y-9524998D01*
X13276704Y-9530278D01*
X13270000Y-9532247D01*
X13263296Y-9530278D01*
X13258721Y-9524998D01*
X13258721Y-9524998D01*
X13252963Y-9512390D01*
X13252962Y-9512390D01*
X13243444Y-9501404D01*
X13231215Y-9493545D01*
X13220556Y-9490415D01*
X13217268Y-9489450D01*
X13217268Y-9489450D01*
X13202732Y-9489450D01*
X13202732Y-9489450D01*
X13197914Y-9490865D01*
X13188785Y-9493545D01*
X13188785Y-9493545D01*
X13188785Y-9493545D01*
X13176556Y-9501404D01*
X13176556Y-9501404D01*
X13176556Y-9501404D01*
X13175450Y-9502681D01*
X13167037Y-9512390D01*
X13167037Y-9512390D01*
X13161279Y-9524998D01*
X13156704Y-9530278D01*
X13150000Y-9532247D01*
X13143296Y-9530278D01*
X13138721Y-9524998D01*
X13138721Y-9524998D01*
X13132963Y-9512390D01*
X13132962Y-9512390D01*
X13123444Y-9501404D01*
X13123443Y-9501404D01*
X13123443Y-9501404D01*
X13113465Y-9494991D01*
X13108889Y-9489710D01*
X13107895Y-9482795D01*
X13110797Y-9476439D01*
X13115927Y-9472907D01*
X13126729Y-9468976D01*
X13135630Y-9461507D01*
X13141440Y-9451443D01*
X13143458Y-9440000D01*
X13142842Y-9436507D01*
X13142786Y-9436186D01*
X13141440Y-9428557D01*
X13137369Y-9421505D01*
X13135631Y-9418494D01*
X13135631Y-9418494D01*
X13135630Y-9418493D01*
X13135630Y-9418493D01*
X13135630Y-9418493D01*
X13126729Y-9411024D01*
X13126729Y-9411024D01*
X13115810Y-9407050D01*
X13104190Y-9407050D01*
X13093271Y-9411024D01*
X13085631Y-9417435D01*
X13084369Y-9418494D01*
X13084369Y-9418494D01*
X13080739Y-9424782D01*
X13075682Y-9429604D01*
X13068821Y-9430926D01*
X13062335Y-9428329D01*
X13059261Y-9424782D01*
X13055631Y-9418494D01*
X13055631Y-9418494D01*
X13055630Y-9418493D01*
X13055630Y-9418493D01*
X13055630Y-9418493D01*
X13046729Y-9411024D01*
X13046729Y-9411024D01*
X13035810Y-9407050D01*
X13024190Y-9407050D01*
X13013271Y-9411024D01*
X13005631Y-9417435D01*
X13004369Y-9418494D01*
X13004369Y-9418494D01*
X13000739Y-9424782D01*
X12995682Y-9429604D01*
X12988821Y-9430926D01*
X12982335Y-9428329D01*
X12979261Y-9424782D01*
X12975088Y-9417554D01*
X12975294Y-9417435D01*
X12973093Y-9412408D01*
X12974197Y-9405509D01*
X12978855Y-9400302D01*
X12981152Y-9399186D01*
X12981729Y-9398976D01*
X12990630Y-9391507D01*
X12996440Y-9381443D01*
X12998458Y-9370000D01*
X12998458Y-9370000D01*
X12997313Y-9363507D01*
X12996440Y-9358557D01*
X12990630Y-9348493D01*
X12990630Y-9348493D01*
X12990630Y-9348493D01*
X12981729Y-9341024D01*
X12981729Y-9341024D01*
X12970810Y-9337050D01*
X12959190Y-9337050D01*
X12948271Y-9341024D01*
X12944647Y-9344065D01*
X12939369Y-9348494D01*
X12939369Y-9348494D01*
X12933560Y-9358556D01*
X12933559Y-9358557D01*
X12931542Y-9370000D01*
X12931542Y-9370000D01*
X12933559Y-9381443D01*
X12933560Y-9381444D01*
X12939912Y-9392446D01*
X12939706Y-9392565D01*
X12941907Y-9397593D01*
X12940802Y-9404492D01*
X12936143Y-9409699D01*
X12933848Y-9410814D01*
X12933271Y-9411024D01*
X12928820Y-9414759D01*
X12925631Y-9417435D01*
X12924369Y-9418494D01*
X12924369Y-9418494D01*
X12918560Y-9428556D01*
X12918559Y-9428557D01*
X12916542Y-9440000D01*
X12916542Y-9440000D01*
X12918559Y-9451443D01*
X12918560Y-9451444D01*
X12924369Y-9461506D01*
X12924370Y-9461507D01*
X12933271Y-9468976D01*
X12933271Y-9468976D01*
X12933271Y-9468976D01*
X12944073Y-9472907D01*
X12949699Y-9477050D01*
X12952192Y-9483577D01*
X12950761Y-9490415D01*
X12946535Y-9494991D01*
X12936557Y-9501404D01*
X12936556Y-9501404D01*
X12936556Y-9501404D01*
X12935450Y-9502681D01*
X12927037Y-9512390D01*
X12927037Y-9512390D01*
X12920999Y-9525612D01*
X12920999Y-9525612D01*
X12919557Y-9535641D01*
X12916654Y-9541997D01*
X12910777Y-9545774D01*
X12903790Y-9545774D01*
X12897912Y-9541997D01*
X12896544Y-9540076D01*
X12895631Y-9538494D01*
X12895631Y-9538494D01*
X12895630Y-9538493D01*
X12895630Y-9538493D01*
X12895630Y-9538493D01*
X12887288Y-9531493D01*
X12886729Y-9531024D01*
X12875810Y-9527050D01*
X12864190Y-9527050D01*
X12853271Y-9531024D01*
X12845285Y-9537726D01*
X12844369Y-9538494D01*
X12844369Y-9538494D01*
X12838560Y-9548556D01*
X12838559Y-9548557D01*
X12836542Y-9560000D01*
X12836542Y-9560000D01*
X11592020Y-9560000D01*
X11598031Y-9543304D01*
X11598317Y-9542582D01*
X11607656Y-9521000D01*
X12058108Y-9521000D01*
X12059865Y-9532091D01*
X12064963Y-9542097D01*
X12072903Y-9550037D01*
X12082909Y-9555135D01*
X12094000Y-9556892D01*
X12094000Y-9556892D01*
X12094000Y-9556892D01*
X12105091Y-9555135D01*
X12105091Y-9555135D01*
X12105091Y-9555135D01*
X12115097Y-9550037D01*
X12123037Y-9542097D01*
X12128135Y-9532091D01*
X12128135Y-9532091D01*
X12128135Y-9532091D01*
X12129892Y-9521000D01*
X12129892Y-9521000D01*
X12128135Y-9509909D01*
X12123037Y-9499903D01*
X12115096Y-9491963D01*
X12105091Y-9486865D01*
X12094000Y-9485108D01*
X12094000Y-9485108D01*
X12082909Y-9486865D01*
X12072903Y-9491963D01*
X12064963Y-9499903D01*
X12059865Y-9509909D01*
X12058108Y-9521000D01*
X12058108Y-9521000D01*
X11607656Y-9521000D01*
X11622209Y-9487371D01*
X11622539Y-9486669D01*
X11626445Y-9479003D01*
X11626986Y-9478049D01*
X11636424Y-9463000D01*
X12608542Y-9463000D01*
X12610559Y-9474443D01*
X12610560Y-9474444D01*
X12616369Y-9484506D01*
X12616370Y-9484507D01*
X12619363Y-9487018D01*
X12625271Y-9491976D01*
X12636190Y-9495950D01*
X12636190Y-9495950D01*
X12647810Y-9495950D01*
X12647810Y-9495950D01*
X12658729Y-9491976D01*
X12667630Y-9484507D01*
X12673440Y-9474443D01*
X12675458Y-9463000D01*
X12675399Y-9462663D01*
X12674297Y-9456413D01*
X12673440Y-9451557D01*
X12669700Y-9445077D01*
X12667631Y-9441494D01*
X12667631Y-9441494D01*
X12667630Y-9441493D01*
X12667630Y-9441493D01*
X12667630Y-9441493D01*
X12658729Y-9434024D01*
X12658729Y-9434024D01*
X12647810Y-9430050D01*
X12636190Y-9430050D01*
X12625271Y-9434024D01*
X12617086Y-9440892D01*
X12616369Y-9441494D01*
X12616369Y-9441494D01*
X12610560Y-9451556D01*
X12610559Y-9451557D01*
X12608542Y-9463000D01*
X12608542Y-9463000D01*
X11636424Y-9463000D01*
X11672796Y-9405000D01*
X12175108Y-9405000D01*
X12176865Y-9416091D01*
X12181963Y-9426097D01*
X12189903Y-9434037D01*
X12199909Y-9439135D01*
X12211000Y-9440892D01*
X12211000Y-9440892D01*
X12211000Y-9440892D01*
X12222091Y-9439135D01*
X12222091Y-9439135D01*
X12222091Y-9439135D01*
X12232097Y-9434037D01*
X12240037Y-9426097D01*
X12245135Y-9416091D01*
X12245135Y-9416091D01*
X12245135Y-9416091D01*
X12246892Y-9405000D01*
X12246892Y-9405000D01*
X12245135Y-9393909D01*
X12240037Y-9383903D01*
X12232096Y-9375963D01*
X12222091Y-9370865D01*
X12211000Y-9369108D01*
X12211000Y-9369108D01*
X12199909Y-9370865D01*
X12189903Y-9375963D01*
X12181963Y-9383903D01*
X12176865Y-9393909D01*
X12175108Y-9405000D01*
X12175108Y-9405000D01*
X11672796Y-9405000D01*
X11726101Y-9320000D01*
X12219108Y-9320000D01*
X12220865Y-9331091D01*
X12225963Y-9341097D01*
X12233903Y-9349037D01*
X12243909Y-9354135D01*
X12255000Y-9355892D01*
X12255000Y-9355892D01*
X12255000Y-9355892D01*
X12266091Y-9354135D01*
X12266091Y-9354135D01*
X12266091Y-9354135D01*
X12276097Y-9349037D01*
X12284037Y-9341097D01*
X12289135Y-9331091D01*
X12289135Y-9331091D01*
X12289135Y-9331091D01*
X12290892Y-9320000D01*
X12290892Y-9320000D01*
X12289135Y-9308909D01*
X12284037Y-9298903D01*
X12276096Y-9290963D01*
X12266091Y-9285865D01*
X12255000Y-9284108D01*
X12255000Y-9284108D01*
X12243909Y-9285865D01*
X12233903Y-9290963D01*
X12225963Y-9298903D01*
X12220865Y-9308909D01*
X12219108Y-9320000D01*
X12219108Y-9320000D01*
X11726101Y-9320000D01*
X11739054Y-9299346D01*
X11739758Y-9298339D01*
X11752403Y-9282037D01*
X11752896Y-9281441D01*
X11785023Y-9245000D01*
X11882108Y-9245000D01*
X11883865Y-9256091D01*
X11888963Y-9266097D01*
X11896903Y-9274037D01*
X11906909Y-9279135D01*
X11918000Y-9280892D01*
X11918000Y-9280892D01*
X11918000Y-9280892D01*
X11929091Y-9279135D01*
X11929091Y-9279135D01*
X11929091Y-9279135D01*
X11939097Y-9274037D01*
X11947037Y-9266097D01*
X11952135Y-9256091D01*
X11952135Y-9256091D01*
X11952135Y-9256091D01*
X11953892Y-9245000D01*
X11953892Y-9245000D01*
X11952135Y-9233909D01*
X11947037Y-9223903D01*
X11939096Y-9215963D01*
X11929091Y-9210865D01*
X11918000Y-9209108D01*
X11918000Y-9209108D01*
X11906909Y-9210865D01*
X11896903Y-9215963D01*
X11888963Y-9223903D01*
X11883865Y-9233909D01*
X11882108Y-9245000D01*
X11882108Y-9245000D01*
X11785023Y-9245000D01*
X11792681Y-9236314D01*
X11793212Y-9235748D01*
X11804566Y-9224395D01*
X11805923Y-9223221D01*
X12034931Y-9052506D01*
X12043328Y-9046246D01*
X12046987Y-9044369D01*
X12111150Y-9024000D01*
X12382542Y-9024000D01*
X12384559Y-9035443D01*
X12384560Y-9035444D01*
X12390369Y-9045506D01*
X12390370Y-9045507D01*
X12394004Y-9048556D01*
X12399271Y-9052976D01*
X12410190Y-9056950D01*
X12410190Y-9056950D01*
X12421810Y-9056950D01*
X12421810Y-9056950D01*
X12421810Y-9056950D01*
X12422851Y-9056766D01*
X12429794Y-9057540D01*
X12435218Y-9061946D01*
X12437216Y-9066825D01*
X12438559Y-9074443D01*
X12438560Y-9074444D01*
X12444369Y-9084506D01*
X12444370Y-9084507D01*
X12448820Y-9088241D01*
X12453271Y-9091976D01*
X12464190Y-9095950D01*
X12464190Y-9095950D01*
X12475810Y-9095950D01*
X12475810Y-9095950D01*
X12486729Y-9091976D01*
X12495630Y-9084507D01*
X12501440Y-9074443D01*
X12503458Y-9063000D01*
X12501440Y-9051557D01*
X12500542Y-9050000D01*
X12656542Y-9050000D01*
X12658559Y-9061443D01*
X12658560Y-9061444D01*
X12664369Y-9071506D01*
X12664370Y-9071507D01*
X12668473Y-9074950D01*
X12673271Y-9078976D01*
X12684190Y-9082950D01*
X12684190Y-9082950D01*
X12695810Y-9082950D01*
X12695810Y-9082950D01*
X12706729Y-9078976D01*
X12715630Y-9071507D01*
X12721440Y-9061443D01*
X12723458Y-9050000D01*
X12721440Y-9038557D01*
X12715706Y-9028624D01*
X12715631Y-9028494D01*
X12715631Y-9028494D01*
X12715630Y-9028493D01*
X12715630Y-9028493D01*
X12715630Y-9028493D01*
X12706729Y-9021024D01*
X12706729Y-9021024D01*
X12695810Y-9017050D01*
X12684190Y-9017050D01*
X12673271Y-9021024D01*
X12665748Y-9027337D01*
X12664369Y-9028494D01*
X12664369Y-9028494D01*
X12658560Y-9038556D01*
X12658559Y-9038557D01*
X12656542Y-9050000D01*
X12656542Y-9050000D01*
X12500542Y-9050000D01*
X12497507Y-9044744D01*
X12495631Y-9041494D01*
X12495630Y-9041493D01*
X12488954Y-9035892D01*
X12486729Y-9034024D01*
X12475810Y-9030050D01*
X12464190Y-9030050D01*
X12464190Y-9030050D01*
X12463149Y-9030234D01*
X12456205Y-9029459D01*
X12450782Y-9025054D01*
X12448784Y-9020176D01*
X12447440Y-9012557D01*
X12443268Y-9005330D01*
X12441631Y-9002494D01*
X12441631Y-9002494D01*
X12441630Y-9002493D01*
X12441630Y-9002493D01*
X12441630Y-9002493D01*
X12434954Y-8996892D01*
X12432729Y-8995024D01*
X12421810Y-8991050D01*
X12410190Y-8991050D01*
X12399271Y-8995024D01*
X12390928Y-9002024D01*
X12390369Y-9002494D01*
X12390369Y-9002494D01*
X12384560Y-9012556D01*
X12384559Y-9012557D01*
X12382542Y-9024000D01*
X12382542Y-9024000D01*
X12111150Y-9024000D01*
X12358169Y-8945581D01*
X12361921Y-8945000D01*
X12828748Y-8945000D01*
X12835452Y-8946969D01*
G37*
G04 #@! TD.AperFunction*
G04 #@! TA.AperFunction,Conductor*
G36*
X14826434Y-8945346D02*
G01*
X14835329Y-8947493D01*
X14841384Y-8950980D01*
X14844593Y-8957186D01*
X14843937Y-8964142D01*
X14841791Y-8967667D01*
X14837462Y-8972662D01*
X14837462Y-8972663D01*
X14831483Y-8985754D01*
X14829435Y-9000000D01*
X14831483Y-9014246D01*
X14836422Y-9025059D01*
X14837462Y-9027337D01*
X14846887Y-9038214D01*
X14858995Y-9045995D01*
X14858995Y-9045995D01*
X14858995Y-9045995D01*
X14869711Y-9049142D01*
X14872634Y-9050000D01*
X14872804Y-9050050D01*
X14872804Y-9050050D01*
X14872804Y-9050050D01*
X14887196Y-9050050D01*
X14887196Y-9050050D01*
X14898894Y-9046615D01*
X14901005Y-9045995D01*
X14901005Y-9045995D01*
X14901005Y-9045995D01*
X14913113Y-9038214D01*
X14922538Y-9027337D01*
X14928516Y-9014246D01*
X14930565Y-9000000D01*
X14928772Y-8987532D01*
X14929766Y-8980616D01*
X14934342Y-8975336D01*
X14941046Y-8973367D01*
X14943955Y-8973713D01*
X14954194Y-8976185D01*
X14960248Y-8979671D01*
X14963457Y-8985878D01*
X14962801Y-8992834D01*
X14962563Y-8993389D01*
X14961483Y-8995754D01*
X14961483Y-8995754D01*
X14959435Y-9010000D01*
X14961483Y-9024246D01*
X14967035Y-9036403D01*
X14967462Y-9037337D01*
X14976887Y-9048214D01*
X14988995Y-9055995D01*
X14988995Y-9055995D01*
X14988995Y-9055995D01*
X14996552Y-9058214D01*
X15002634Y-9060000D01*
X15002804Y-9060050D01*
X15002804Y-9060050D01*
X15002804Y-9060050D01*
X15017196Y-9060050D01*
X15017196Y-9060050D01*
X15027912Y-9056904D01*
X15031005Y-9055995D01*
X15031005Y-9055995D01*
X15031005Y-9055995D01*
X15043113Y-9048214D01*
X15052538Y-9037337D01*
X15058516Y-9024246D01*
X15059757Y-9015619D01*
X15062659Y-9009264D01*
X15068537Y-9005486D01*
X15074940Y-9005330D01*
X15112381Y-9014368D01*
X15117120Y-9016662D01*
X15251716Y-9122156D01*
X15255245Y-9124922D01*
X15259307Y-9130607D01*
X15259996Y-9134644D01*
X15261000Y-9469000D01*
X15263134Y-9471139D01*
X15266477Y-9477274D01*
X15265972Y-9484243D01*
X15263126Y-9488666D01*
X15252231Y-9499561D01*
X15246099Y-9502910D01*
X15239130Y-9502411D01*
X15234695Y-9499561D01*
X15226096Y-9490963D01*
X15216091Y-9485865D01*
X15205000Y-9484108D01*
X15205000Y-9484108D01*
X15193909Y-9485865D01*
X15183903Y-9490963D01*
X15175962Y-9498904D01*
X15175436Y-9499937D01*
X15170638Y-9505017D01*
X15163856Y-9506696D01*
X15157243Y-9504442D01*
X15155619Y-9503076D01*
X15062578Y-9410035D01*
X15061036Y-9408156D01*
X15060598Y-9407500D01*
X15060242Y-9406967D01*
X15060242Y-9406967D01*
X15051509Y-9401132D01*
X15051509Y-9401132D01*
X15043810Y-9399600D01*
X15043809Y-9399600D01*
X15041208Y-9399083D01*
X15041208Y-9399083D01*
X15040317Y-9399260D01*
X15039806Y-9399362D01*
X15037387Y-9399600D01*
X15005447Y-9399600D01*
X14998743Y-9397632D01*
X14994167Y-9392351D01*
X14993047Y-9387200D01*
X14993047Y-9382915D01*
X14995015Y-9376212D01*
X14996075Y-9374795D01*
X15002537Y-9367338D01*
X15002538Y-9367337D01*
X15008516Y-9354246D01*
X15010565Y-9340000D01*
X15008516Y-9325754D01*
X15002538Y-9312663D01*
X14993113Y-9301786D01*
X14981005Y-9294005D01*
X14981005Y-9294005D01*
X14981005Y-9294005D01*
X14981005Y-9294005D01*
X14967196Y-9289950D01*
X14967196Y-9289950D01*
X14952804Y-9289950D01*
X14952804Y-9289950D01*
X14938995Y-9294005D01*
X14926887Y-9301786D01*
X14917462Y-9312663D01*
X14917462Y-9312663D01*
X14911483Y-9325754D01*
X14909435Y-9340000D01*
X14911483Y-9354246D01*
X14916802Y-9365892D01*
X14917462Y-9367337D01*
X14926887Y-9378214D01*
X14933820Y-9382670D01*
X14934551Y-9383139D01*
X14939126Y-9388420D01*
X14940247Y-9393571D01*
X14940247Y-9422178D01*
X14940009Y-9424597D01*
X14939730Y-9426000D01*
X14939730Y-9426000D01*
X14940008Y-9427402D01*
X14940247Y-9429821D01*
X14940247Y-9438373D01*
X14938278Y-9445077D01*
X14937878Y-9445662D01*
X14937609Y-9446033D01*
X14932511Y-9456038D01*
X14930755Y-9467129D01*
X14930755Y-9467129D01*
X14932511Y-9478220D01*
X14937609Y-9488225D01*
X14945550Y-9496166D01*
X14955556Y-9501264D01*
X14966647Y-9503021D01*
X14966647Y-9503021D01*
X14966647Y-9503021D01*
X14976768Y-9501418D01*
X14983698Y-9502313D01*
X14989043Y-9506813D01*
X14991107Y-9513488D01*
X14991108Y-9513665D01*
X14991108Y-9514000D01*
X14992865Y-9525091D01*
X14997963Y-9535097D01*
X15005903Y-9543037D01*
X15010906Y-9545586D01*
X15015909Y-9548135D01*
X15024798Y-9549543D01*
X15031111Y-9552536D01*
X15034805Y-9558467D01*
X15034705Y-9565453D01*
X15030844Y-9571277D01*
X15030147Y-9571822D01*
X15017731Y-9580843D01*
X15017730Y-9580844D01*
X15004713Y-9595301D01*
X14994986Y-9612149D01*
X14994986Y-9612149D01*
X14988974Y-9630652D01*
X14988974Y-9630652D01*
X14987393Y-9645690D01*
X14987393Y-9645690D01*
X14985616Y-9650009D01*
X14987385Y-9654231D01*
X14987392Y-9654299D01*
X14988143Y-9661443D01*
X14988974Y-9669348D01*
X14994986Y-9687851D01*
X14994986Y-9687851D01*
X15000312Y-9697076D01*
X15004713Y-9704699D01*
X15008707Y-9709135D01*
X15017730Y-9719156D01*
X15017730Y-9719157D01*
X15017731Y-9719157D01*
X15027829Y-9726494D01*
X15033470Y-9730592D01*
X15040293Y-9733630D01*
X15051243Y-9738505D01*
X15070273Y-9742550D01*
X15089727Y-9742550D01*
X15108757Y-9738505D01*
X15126530Y-9730592D01*
X15142269Y-9719157D01*
X15142318Y-9719103D01*
X15148158Y-9712617D01*
X15155287Y-9704699D01*
X15165014Y-9687851D01*
X15165014Y-9687850D01*
X15165147Y-9687620D01*
X15170204Y-9682799D01*
X15177065Y-9681476D01*
X15183551Y-9684073D01*
X15186935Y-9688191D01*
X15190963Y-9696097D01*
X15198903Y-9704037D01*
X15208909Y-9709135D01*
X15220000Y-9710892D01*
X15220000Y-9710892D01*
X15220000Y-9710892D01*
X15231091Y-9709135D01*
X15231091Y-9709135D01*
X15231091Y-9709135D01*
X15241097Y-9704037D01*
X15249037Y-9696097D01*
X15254135Y-9686091D01*
X15254135Y-9686091D01*
X15254135Y-9686091D01*
X15255892Y-9675000D01*
X15255892Y-9675000D01*
X15254135Y-9663909D01*
X15249037Y-9653904D01*
X15248768Y-9653533D01*
X15246420Y-9646953D01*
X15246400Y-9646245D01*
X15246400Y-9623873D01*
X15248368Y-9617169D01*
X15253649Y-9612593D01*
X15260565Y-9611599D01*
X15265397Y-9613373D01*
X15271249Y-9617050D01*
X15280047Y-9622579D01*
X15297074Y-9628537D01*
X15297075Y-9628537D01*
X15306125Y-9629557D01*
X15310504Y-9630050D01*
X15310504Y-9630050D01*
X15310505Y-9630050D01*
X15389496Y-9630050D01*
X15389496Y-9630050D01*
X15396210Y-9629293D01*
X15402925Y-9628537D01*
X15402925Y-9628537D01*
X15402925Y-9628537D01*
X15419952Y-9622579D01*
X15435226Y-9612982D01*
X15447982Y-9600226D01*
X15447982Y-9600226D01*
X15448474Y-9599734D01*
X15448601Y-9599861D01*
X15453574Y-9596371D01*
X15460555Y-9596086D01*
X15466582Y-9599620D01*
X15469742Y-9605852D01*
X15469950Y-9608116D01*
X15469950Y-10191884D01*
X15467981Y-10198588D01*
X15462701Y-10203164D01*
X15455785Y-10204158D01*
X15449430Y-10201255D01*
X15448477Y-10200263D01*
X15448474Y-10200266D01*
X15435226Y-10187018D01*
X15419952Y-10177421D01*
X15402925Y-10171463D01*
X15402925Y-10171463D01*
X15389496Y-10169950D01*
X15389495Y-10169950D01*
X15310505Y-10169950D01*
X15310504Y-10169950D01*
X15297075Y-10171463D01*
X15297074Y-10171463D01*
X15280048Y-10177421D01*
X15268397Y-10184742D01*
X15261673Y-10186642D01*
X15254990Y-10184605D01*
X15250469Y-10179278D01*
X15249588Y-10176396D01*
X15249440Y-10175557D01*
X15249440Y-10175557D01*
X15245399Y-10168557D01*
X15243631Y-10165494D01*
X15243630Y-10165493D01*
X15234729Y-10158024D01*
X15234729Y-10158024D01*
X15223810Y-10154050D01*
X15212190Y-10154050D01*
X15201271Y-10158024D01*
X15201271Y-10158024D01*
X15201271Y-10158024D01*
X15192917Y-10165034D01*
X15186516Y-10167835D01*
X15179617Y-10166731D01*
X15174410Y-10162073D01*
X15172548Y-10155338D01*
X15172614Y-10154241D01*
X15173060Y-10150000D01*
X15171026Y-10130652D01*
X15170748Y-10129796D01*
X15170548Y-10122812D01*
X15174156Y-10116828D01*
X15180427Y-10113746D01*
X15187368Y-10114542D01*
X15190512Y-10116465D01*
X15198271Y-10122976D01*
X15209190Y-10126950D01*
X15209190Y-10126950D01*
X15220810Y-10126950D01*
X15220810Y-10126950D01*
X15231729Y-10122976D01*
X15240630Y-10115507D01*
X15246440Y-10105443D01*
X15248458Y-10094000D01*
X15246440Y-10082557D01*
X15240630Y-10072493D01*
X15240630Y-10072493D01*
X15240630Y-10072493D01*
X15232921Y-10066024D01*
X15231729Y-10065024D01*
X15220810Y-10061050D01*
X15209190Y-10061050D01*
X15198271Y-10065024D01*
X15189928Y-10072024D01*
X15189369Y-10072494D01*
X15189369Y-10072494D01*
X15183560Y-10082556D01*
X15183559Y-10082557D01*
X15181542Y-10094000D01*
X15181542Y-10094498D01*
X15179573Y-10101202D01*
X15174293Y-10105777D01*
X15167377Y-10106772D01*
X15161021Y-10103869D01*
X15158403Y-10100698D01*
X15156962Y-10098202D01*
X15155287Y-10095301D01*
X15154116Y-10094000D01*
X15142270Y-10080844D01*
X15142269Y-10080843D01*
X15142269Y-10080843D01*
X15142269Y-10080843D01*
X15133198Y-10074253D01*
X15126530Y-10069408D01*
X15112025Y-10062950D01*
X15108757Y-10061495D01*
X15108757Y-10061495D01*
X15089727Y-10057450D01*
X15070273Y-10057450D01*
X15051243Y-10061495D01*
X15033470Y-10069408D01*
X15017730Y-10080843D01*
X15017730Y-10080844D01*
X15004713Y-10095301D01*
X14994986Y-10112149D01*
X14994985Y-10112149D01*
X14993810Y-10115765D01*
X14989867Y-10121533D01*
X14983431Y-10124253D01*
X14977776Y-10123586D01*
X14970810Y-10121050D01*
X14959190Y-10121050D01*
X14948271Y-10125024D01*
X14940079Y-10131898D01*
X14939369Y-10132494D01*
X14939369Y-10132494D01*
X14933560Y-10142556D01*
X14933559Y-10142557D01*
X14931542Y-10154000D01*
X14931542Y-10154000D01*
X14933559Y-10165443D01*
X14933560Y-10165444D01*
X14939369Y-10175506D01*
X14939370Y-10175507D01*
X14939429Y-10175557D01*
X14948271Y-10182976D01*
X14959190Y-10186950D01*
X14959190Y-10186950D01*
X14970810Y-10186950D01*
X14970810Y-10186950D01*
X14980580Y-10183394D01*
X14987553Y-10182951D01*
X14993659Y-10186348D01*
X14995560Y-10188846D01*
X15004713Y-10204699D01*
X15010431Y-10211050D01*
X15015386Y-10216553D01*
X15018409Y-10222852D01*
X15017546Y-10229786D01*
X15013072Y-10235152D01*
X15006407Y-10237248D01*
X15006171Y-10237250D01*
X14932702Y-10237250D01*
X14925998Y-10235282D01*
X14923934Y-10233618D01*
X14809382Y-10119066D01*
X14806033Y-10112934D01*
X14805750Y-10110298D01*
X14805750Y-10007000D01*
X14864542Y-10007000D01*
X14866559Y-10018443D01*
X14866560Y-10018444D01*
X14872369Y-10028506D01*
X14872370Y-10028507D01*
X14875869Y-10031443D01*
X14881271Y-10035976D01*
X14892190Y-10039950D01*
X14892190Y-10039950D01*
X14903810Y-10039950D01*
X14903810Y-10039950D01*
X14914729Y-10035976D01*
X14923630Y-10028507D01*
X14929421Y-10018478D01*
X14934477Y-10013657D01*
X14941338Y-10012334D01*
X14947824Y-10014931D01*
X14948130Y-10015179D01*
X14950271Y-10016976D01*
X14961190Y-10020950D01*
X14961190Y-10020950D01*
X14972810Y-10020950D01*
X14972810Y-10020950D01*
X14983729Y-10016976D01*
X14992630Y-10009507D01*
X14998440Y-9999443D01*
X15000458Y-9988000D01*
X14998440Y-9976557D01*
X14994064Y-9968976D01*
X14992631Y-9966494D01*
X14992631Y-9966494D01*
X14992630Y-9966493D01*
X14992630Y-9966493D01*
X14992630Y-9966493D01*
X14983729Y-9959024D01*
X14983729Y-9959024D01*
X14972810Y-9955050D01*
X14961190Y-9955050D01*
X14950271Y-9959024D01*
X14947312Y-9961507D01*
X14941369Y-9966494D01*
X14941369Y-9966494D01*
X14935579Y-9976522D01*
X14930523Y-9981344D01*
X14923662Y-9982666D01*
X14917176Y-9980069D01*
X14916870Y-9979821D01*
X14914729Y-9978024D01*
X14914729Y-9978024D01*
X14903810Y-9974050D01*
X14892190Y-9974050D01*
X14881271Y-9978024D01*
X14872369Y-9985494D01*
X14872369Y-9985494D01*
X14866560Y-9995556D01*
X14866559Y-9995557D01*
X14864542Y-10007000D01*
X14864542Y-10007000D01*
X14805750Y-10007000D01*
X14805750Y-9951971D01*
X14805797Y-9950890D01*
X14806129Y-9947102D01*
X14806129Y-9947101D01*
X14805144Y-9943428D01*
X14804910Y-9942372D01*
X14804250Y-9938627D01*
X14804250Y-9938627D01*
X14804250Y-9938626D01*
X14804249Y-9938626D01*
X14804076Y-9938148D01*
X14803354Y-9936406D01*
X14803139Y-9935946D01*
X14800958Y-9932830D01*
X14800376Y-9931917D01*
X14798475Y-9928624D01*
X14798475Y-9928624D01*
X14795561Y-9926179D01*
X14794763Y-9925448D01*
X14752315Y-9883000D01*
X14883542Y-9883000D01*
X14885559Y-9894443D01*
X14885560Y-9894444D01*
X14891369Y-9904506D01*
X14891370Y-9904507D01*
X14894754Y-9907347D01*
X14900271Y-9911976D01*
X14911190Y-9915950D01*
X14911190Y-9915950D01*
X14922810Y-9915950D01*
X14922810Y-9915950D01*
X14928167Y-9914000D01*
X15162542Y-9914000D01*
X15164559Y-9925443D01*
X15164560Y-9925444D01*
X15170369Y-9935506D01*
X15170370Y-9935507D01*
X15170893Y-9935946D01*
X15179271Y-9942976D01*
X15190190Y-9946950D01*
X15190190Y-9946950D01*
X15201810Y-9946950D01*
X15201810Y-9946950D01*
X15212729Y-9942976D01*
X15221630Y-9935507D01*
X15227440Y-9925443D01*
X15229458Y-9914000D01*
X15229174Y-9912390D01*
X15228572Y-9908976D01*
X15227440Y-9902557D01*
X15222756Y-9894444D01*
X15221631Y-9892494D01*
X15221631Y-9892494D01*
X15221630Y-9892493D01*
X15221630Y-9892493D01*
X15221630Y-9892493D01*
X15212729Y-9885024D01*
X15212729Y-9885024D01*
X15201810Y-9881050D01*
X15190190Y-9881050D01*
X15179271Y-9885024D01*
X15173370Y-9889976D01*
X15170369Y-9892494D01*
X15170369Y-9892494D01*
X15164560Y-9902556D01*
X15164559Y-9902557D01*
X15162542Y-9914000D01*
X15162542Y-9914000D01*
X14928167Y-9914000D01*
X14933729Y-9911976D01*
X14942630Y-9904507D01*
X14948440Y-9894443D01*
X14950458Y-9883000D01*
X14950447Y-9882938D01*
X14949532Y-9877744D01*
X14948440Y-9871557D01*
X14944099Y-9864037D01*
X14942631Y-9861494D01*
X14942631Y-9861494D01*
X14942630Y-9861493D01*
X14942630Y-9861493D01*
X14942630Y-9861493D01*
X14935106Y-9855180D01*
X14931236Y-9849363D01*
X14931125Y-9842377D01*
X14934809Y-9836440D01*
X14938836Y-9834029D01*
X14941729Y-9832976D01*
X14950630Y-9825507D01*
X14956440Y-9815443D01*
X14958458Y-9804000D01*
X14956440Y-9792557D01*
X14953393Y-9787278D01*
X14951745Y-9780488D01*
X14954031Y-9773885D01*
X14956160Y-9771579D01*
X14958630Y-9769507D01*
X14964440Y-9759443D01*
X14966458Y-9748000D01*
X14964440Y-9736557D01*
X14960997Y-9730592D01*
X14958631Y-9726494D01*
X14958631Y-9726494D01*
X14958630Y-9726493D01*
X14958630Y-9726493D01*
X14958630Y-9726493D01*
X14951954Y-9720892D01*
X14949729Y-9719024D01*
X14938810Y-9715050D01*
X14927190Y-9715050D01*
X14918400Y-9718250D01*
X14916271Y-9719024D01*
X14907369Y-9726494D01*
X14907369Y-9726494D01*
X14901560Y-9736556D01*
X14901559Y-9736557D01*
X14899542Y-9748000D01*
X14899542Y-9748000D01*
X14901559Y-9759443D01*
X14901560Y-9759444D01*
X14904607Y-9764722D01*
X14906254Y-9771512D01*
X14903969Y-9778115D01*
X14901839Y-9780421D01*
X14899369Y-9782493D01*
X14899369Y-9782494D01*
X14893560Y-9792556D01*
X14893559Y-9792557D01*
X14891542Y-9804000D01*
X14891542Y-9804000D01*
X14893559Y-9815443D01*
X14893560Y-9815444D01*
X14899369Y-9825506D01*
X14899370Y-9825507D01*
X14906894Y-9831820D01*
X14910764Y-9837637D01*
X14910875Y-9844623D01*
X14907191Y-9850560D01*
X14903164Y-9852971D01*
X14900291Y-9854017D01*
X14900271Y-9854024D01*
X14891958Y-9861000D01*
X14891369Y-9861494D01*
X14891369Y-9861494D01*
X14885560Y-9871556D01*
X14885559Y-9871557D01*
X14883542Y-9883000D01*
X14883542Y-9883000D01*
X14752315Y-9883000D01*
X14697552Y-9828237D01*
X14696821Y-9827439D01*
X14694376Y-9824525D01*
X14694376Y-9824525D01*
X14691082Y-9822623D01*
X14690170Y-9822042D01*
X14687054Y-9819861D01*
X14686596Y-9819647D01*
X14684849Y-9818923D01*
X14684374Y-9818750D01*
X14680628Y-9818090D01*
X14679572Y-9817856D01*
X14675898Y-9816871D01*
X14672258Y-9817190D01*
X14672110Y-9817203D01*
X14671029Y-9817250D01*
X14638029Y-9817250D01*
X14635875Y-9817062D01*
X14635810Y-9817050D01*
X14635810Y-9817050D01*
X14624190Y-9817050D01*
X14621376Y-9818074D01*
X14619290Y-9818633D01*
X14618626Y-9818750D01*
X14618626Y-9818750D01*
X14618043Y-9819087D01*
X14616085Y-9820000D01*
X14613271Y-9821024D01*
X14613270Y-9821025D01*
X14610977Y-9822949D01*
X14609208Y-9824188D01*
X14608625Y-9824525D01*
X14608624Y-9824525D01*
X14608191Y-9825041D01*
X14606663Y-9826568D01*
X14604918Y-9828033D01*
X14604369Y-9828493D01*
X14602872Y-9831087D01*
X14601633Y-9832856D01*
X14601200Y-9833372D01*
X14601200Y-9833373D01*
X14600970Y-9834005D01*
X14600057Y-9835963D01*
X14598189Y-9839198D01*
X14593132Y-9844020D01*
X14586272Y-9845343D01*
X14579785Y-9842746D01*
X14575732Y-9837055D01*
X14575050Y-9832999D01*
X14575050Y-9650000D01*
X14896542Y-9650000D01*
X14898559Y-9661443D01*
X14898560Y-9661444D01*
X14904369Y-9671506D01*
X14904369Y-9671506D01*
X14904369Y-9671507D01*
X14913271Y-9678976D01*
X14924190Y-9682950D01*
X14924190Y-9682950D01*
X14935810Y-9682950D01*
X14935810Y-9682950D01*
X14946729Y-9678976D01*
X14955630Y-9671507D01*
X14961440Y-9661443D01*
X14962849Y-9653452D01*
X14964562Y-9649998D01*
X14962863Y-9646625D01*
X14962849Y-9646547D01*
X14962698Y-9645690D01*
X14961440Y-9638557D01*
X14956877Y-9630652D01*
X14955631Y-9628494D01*
X14955631Y-9628494D01*
X14955630Y-9628493D01*
X14955630Y-9628493D01*
X14955630Y-9628493D01*
X14946729Y-9621024D01*
X14946729Y-9621024D01*
X14935810Y-9617050D01*
X14924190Y-9617050D01*
X14913271Y-9621024D01*
X14904958Y-9628000D01*
X14904369Y-9628494D01*
X14904369Y-9628494D01*
X14898560Y-9638556D01*
X14898559Y-9638557D01*
X14896542Y-9650000D01*
X14896542Y-9650000D01*
X14575050Y-9650000D01*
X14575050Y-9553000D01*
X14667542Y-9553000D01*
X14669559Y-9564443D01*
X14669560Y-9564444D01*
X14675369Y-9574506D01*
X14675370Y-9574507D01*
X14679820Y-9578241D01*
X14684271Y-9581976D01*
X14695190Y-9585950D01*
X14695190Y-9585950D01*
X14706810Y-9585950D01*
X14706810Y-9585950D01*
X14717729Y-9581976D01*
X14726630Y-9574507D01*
X14732440Y-9564443D01*
X14734458Y-9553000D01*
X14732440Y-9541557D01*
X14728399Y-9534557D01*
X14726631Y-9531494D01*
X14726631Y-9531494D01*
X14726630Y-9531493D01*
X14726630Y-9531493D01*
X14726630Y-9531493D01*
X14717729Y-9524024D01*
X14717729Y-9524024D01*
X14706810Y-9520050D01*
X14695190Y-9520050D01*
X14684271Y-9524024D01*
X14675928Y-9531024D01*
X14675369Y-9531494D01*
X14675369Y-9531494D01*
X14669560Y-9541556D01*
X14669559Y-9541557D01*
X14667542Y-9553000D01*
X14667542Y-9553000D01*
X14575050Y-9553000D01*
X14575050Y-9540167D01*
X14577018Y-9533463D01*
X14580746Y-9529735D01*
X14583113Y-9528214D01*
X14592538Y-9517337D01*
X14598516Y-9504246D01*
X14600565Y-9490000D01*
X14598516Y-9475754D01*
X14592538Y-9462663D01*
X14583113Y-9451786D01*
X14571005Y-9444005D01*
X14571005Y-9444005D01*
X14571005Y-9444005D01*
X14571005Y-9444005D01*
X14557196Y-9439950D01*
X14557196Y-9439950D01*
X14542804Y-9439950D01*
X14542804Y-9439950D01*
X14528995Y-9444005D01*
X14516887Y-9451786D01*
X14507462Y-9462663D01*
X14507462Y-9462663D01*
X14503209Y-9471975D01*
X14500698Y-9475591D01*
X14500426Y-9475863D01*
X14499389Y-9476790D01*
X14498993Y-9477106D01*
X14492524Y-9479746D01*
X14485655Y-9478470D01*
X14482494Y-9476179D01*
X14388985Y-9382670D01*
X14388985Y-9382670D01*
X14379074Y-9372759D01*
X14246315Y-9240000D01*
X14759435Y-9240000D01*
X14761483Y-9254246D01*
X14765010Y-9261968D01*
X14767462Y-9267337D01*
X14776887Y-9278214D01*
X14788995Y-9285995D01*
X14788995Y-9285995D01*
X14788995Y-9285995D01*
X14794342Y-9287565D01*
X14802634Y-9290000D01*
X14802804Y-9290050D01*
X14802804Y-9290050D01*
X14802804Y-9290050D01*
X14817196Y-9290050D01*
X14817196Y-9290050D01*
X14831005Y-9285995D01*
X14843113Y-9278214D01*
X14852538Y-9267337D01*
X14858516Y-9254246D01*
X14860565Y-9240000D01*
X14858516Y-9225754D01*
X14852538Y-9212663D01*
X14843113Y-9201786D01*
X14831005Y-9194005D01*
X14831005Y-9194005D01*
X14831005Y-9194005D01*
X14831005Y-9194005D01*
X14817196Y-9189950D01*
X14817196Y-9189950D01*
X14802804Y-9189950D01*
X14802804Y-9189950D01*
X14788995Y-9194005D01*
X14776887Y-9201786D01*
X14767462Y-9212663D01*
X14767462Y-9212663D01*
X14761483Y-9225754D01*
X14759435Y-9240000D01*
X14246315Y-9240000D01*
X14238315Y-9232000D01*
X14091433Y-9085118D01*
X14088085Y-9078986D01*
X14088583Y-9072017D01*
X14092771Y-9066423D01*
X14099317Y-9063982D01*
X14100202Y-9063950D01*
X14110810Y-9063950D01*
X14110810Y-9063950D01*
X14121729Y-9059976D01*
X14130630Y-9052507D01*
X14136440Y-9042443D01*
X14138458Y-9031000D01*
X14137411Y-9025059D01*
X14137975Y-9020000D01*
X14339435Y-9020000D01*
X14341483Y-9034246D01*
X14347462Y-9047337D01*
X14347462Y-9047337D01*
X14356887Y-9058214D01*
X14368995Y-9065995D01*
X14368995Y-9065995D01*
X14368995Y-9065995D01*
X14382804Y-9070050D01*
X14382804Y-9070050D01*
X14382804Y-9070050D01*
X14397196Y-9070050D01*
X14397196Y-9070050D01*
X14409420Y-9066461D01*
X14411005Y-9065995D01*
X14411005Y-9065995D01*
X14411005Y-9065995D01*
X14423113Y-9058214D01*
X14432538Y-9047337D01*
X14438516Y-9034246D01*
X14440565Y-9020000D01*
X14438516Y-9005754D01*
X14432538Y-8992663D01*
X14423113Y-8981786D01*
X14411005Y-8974005D01*
X14411005Y-8974005D01*
X14411005Y-8974005D01*
X14411005Y-8974005D01*
X14397196Y-8969950D01*
X14397196Y-8969950D01*
X14382804Y-8969950D01*
X14382804Y-8969950D01*
X14368995Y-8974005D01*
X14356887Y-8981786D01*
X14347462Y-8992663D01*
X14347462Y-8992663D01*
X14341483Y-9005754D01*
X14339435Y-9020000D01*
X14137975Y-9020000D01*
X14138185Y-9018115D01*
X14142591Y-9012692D01*
X14149229Y-9010512D01*
X14155992Y-9012267D01*
X14157592Y-9013406D01*
X14158271Y-9013976D01*
X14169190Y-9017950D01*
X14169190Y-9017950D01*
X14180810Y-9017950D01*
X14180810Y-9017950D01*
X14191729Y-9013976D01*
X14200630Y-9006507D01*
X14206440Y-8996443D01*
X14208458Y-8985000D01*
X14206440Y-8973557D01*
X14204358Y-8969950D01*
X14200692Y-8963600D01*
X14199045Y-8956810D01*
X14201330Y-8950207D01*
X14206822Y-8945888D01*
X14211431Y-8945000D01*
X14823525Y-8945000D01*
X14826434Y-8945346D01*
G37*
G04 #@! TD.AperFunction*
G04 #@! TA.AperFunction,NonConductor*
G36*
X14145273Y-8946969D02*
G01*
X14149849Y-8952249D01*
X14150843Y-8959165D01*
X14149308Y-8963600D01*
X14143560Y-8973556D01*
X14143559Y-8973557D01*
X14141542Y-8985000D01*
X14141542Y-8985000D01*
X14142589Y-8990941D01*
X14141815Y-8997885D01*
X14137409Y-9003308D01*
X14130771Y-9005488D01*
X14124008Y-9003733D01*
X14122407Y-9002593D01*
X14121729Y-9002024D01*
X14121729Y-9002024D01*
X14110810Y-8998050D01*
X14099190Y-8998050D01*
X14088271Y-9002024D01*
X14081713Y-9007527D01*
X14079369Y-9009494D01*
X14079369Y-9009494D01*
X14073560Y-9019556D01*
X14073559Y-9019557D01*
X14071542Y-9031000D01*
X14071542Y-9031000D01*
X14072039Y-9033823D01*
X14071265Y-9040767D01*
X14066859Y-9046190D01*
X14060221Y-9048370D01*
X14053458Y-9046615D01*
X14051060Y-9044744D01*
X13972483Y-8966168D01*
X13969135Y-8960036D01*
X13969633Y-8953067D01*
X13973821Y-8947473D01*
X13980367Y-8945032D01*
X13981252Y-8945000D01*
X14138569Y-8945000D01*
X14145273Y-8946969D01*
G37*
G04 #@! TD.AperFunction*
G04 #@! TA.AperFunction,NonConductor*
G36*
X15083412Y-9505584D02*
G01*
X15084060Y-9506187D01*
X15118030Y-9540157D01*
X15121379Y-9546289D01*
X15120880Y-9553259D01*
X15116693Y-9558852D01*
X15110147Y-9561294D01*
X15106684Y-9561054D01*
X15089727Y-9557450D01*
X15070273Y-9557450D01*
X15064754Y-9558623D01*
X15057787Y-9558091D01*
X15052214Y-9553878D01*
X15049804Y-9547320D01*
X15051321Y-9540499D01*
X15053407Y-9537726D01*
X15056037Y-9535097D01*
X15061135Y-9525091D01*
X15061135Y-9525091D01*
X15061135Y-9525091D01*
X15063045Y-9513036D01*
X15063437Y-9513098D01*
X15064860Y-9508251D01*
X15070141Y-9503675D01*
X15077057Y-9502681D01*
X15083412Y-9505584D01*
G37*
G04 #@! TD.AperFunction*
G04 #@! TA.AperFunction,NonConductor*
G36*
X14595570Y-9857630D02*
G01*
X14598189Y-9860801D01*
X14600057Y-9864037D01*
X14600970Y-9865996D01*
X14601200Y-9866627D01*
X14601200Y-9866628D01*
X14601632Y-9867143D01*
X14602872Y-9868913D01*
X14604369Y-9871507D01*
X14606663Y-9873432D01*
X14608191Y-9874959D01*
X14608624Y-9875475D01*
X14608624Y-9875475D01*
X14609206Y-9875811D01*
X14610976Y-9877051D01*
X14613271Y-9878976D01*
X14614344Y-9879366D01*
X14616085Y-9880000D01*
X14618043Y-9880913D01*
X14618280Y-9881050D01*
X14618626Y-9881250D01*
X14619289Y-9881367D01*
X14621376Y-9881926D01*
X14624190Y-9882950D01*
X14624190Y-9882950D01*
X14635810Y-9882950D01*
X14635810Y-9882950D01*
X14635810Y-9882950D01*
X14635875Y-9882938D01*
X14638029Y-9882750D01*
X14654298Y-9882750D01*
X14661002Y-9884719D01*
X14663066Y-9886382D01*
X14736618Y-9959934D01*
X14739967Y-9966066D01*
X14740250Y-9968702D01*
X14740250Y-10127029D01*
X14740203Y-10128110D01*
X14739871Y-10131898D01*
X14740856Y-10135572D01*
X14741090Y-10136628D01*
X14741750Y-10140374D01*
X14741923Y-10140849D01*
X14742647Y-10142596D01*
X14742861Y-10143055D01*
X14745042Y-10146170D01*
X14745623Y-10147082D01*
X14747525Y-10150376D01*
X14747525Y-10150376D01*
X14750439Y-10152821D01*
X14751237Y-10153552D01*
X14833198Y-10235514D01*
X14836547Y-10241646D01*
X14836048Y-10248615D01*
X14831861Y-10254209D01*
X14829725Y-10255317D01*
X14829778Y-10255422D01*
X14828909Y-10255865D01*
X14828909Y-10255865D01*
X14828464Y-10256091D01*
X14818903Y-10260963D01*
X14810962Y-10268904D01*
X14810722Y-10269234D01*
X14810328Y-10269538D01*
X14810273Y-10269593D01*
X14810265Y-10269586D01*
X14805189Y-10273500D01*
X14798228Y-10274098D01*
X14794013Y-10272025D01*
X14793859Y-10272265D01*
X14789690Y-10269586D01*
X14781005Y-10264005D01*
X14781005Y-10264005D01*
X14781005Y-10264005D01*
X14781005Y-10264005D01*
X14767196Y-10259950D01*
X14767196Y-10259950D01*
X14752804Y-10259950D01*
X14752804Y-10259950D01*
X14738995Y-10264005D01*
X14726887Y-10271786D01*
X14726887Y-10271786D01*
X14726887Y-10271786D01*
X14726472Y-10272265D01*
X14717462Y-10282663D01*
X14717462Y-10282663D01*
X14711483Y-10295754D01*
X14709435Y-10310000D01*
X14711483Y-10324246D01*
X14717083Y-10336506D01*
X14717462Y-10337337D01*
X14726887Y-10348214D01*
X14738995Y-10355995D01*
X14738995Y-10355995D01*
X14738995Y-10355995D01*
X14749688Y-10359135D01*
X14752634Y-10360000D01*
X14752804Y-10360050D01*
X14752804Y-10360050D01*
X14752804Y-10360050D01*
X14767196Y-10360050D01*
X14767196Y-10360050D01*
X14781005Y-10355995D01*
X14793113Y-10348214D01*
X14802538Y-10337337D01*
X14807030Y-10327500D01*
X14811605Y-10322220D01*
X14818309Y-10320251D01*
X14823939Y-10321603D01*
X14825150Y-10322220D01*
X14828909Y-10324135D01*
X14840000Y-10325892D01*
X14840000Y-10325892D01*
X14840000Y-10325892D01*
X14851091Y-10324135D01*
X14851091Y-10324135D01*
X14851091Y-10324135D01*
X14861097Y-10319037D01*
X14869037Y-10311097D01*
X14874135Y-10301091D01*
X14874135Y-10301091D01*
X14874578Y-10300222D01*
X14874917Y-10300394D01*
X14877796Y-10296176D01*
X14884230Y-10293451D01*
X14891116Y-10294637D01*
X14891853Y-10295030D01*
X14892624Y-10295475D01*
X14892624Y-10295475D01*
X14893576Y-10296024D01*
X14895918Y-10297377D01*
X14896830Y-10297958D01*
X14898308Y-10298992D01*
X14899945Y-10300139D01*
X14900407Y-10300355D01*
X14902149Y-10301076D01*
X14902626Y-10301250D01*
X14902626Y-10301250D01*
X14906373Y-10301910D01*
X14907425Y-10302144D01*
X14911102Y-10303129D01*
X14914890Y-10302797D01*
X14915971Y-10302750D01*
X14990124Y-10302750D01*
X14996828Y-10304719D01*
X15001404Y-10309999D01*
X15002398Y-10316915D01*
X14999496Y-10323270D01*
X14995754Y-10326199D01*
X14986403Y-10330963D01*
X14978463Y-10338903D01*
X14973365Y-10348909D01*
X14971608Y-10360000D01*
X14971608Y-10360000D01*
X14973365Y-10371091D01*
X14978463Y-10381097D01*
X14986403Y-10389037D01*
X14996409Y-10394135D01*
X15007500Y-10395892D01*
X15007500Y-10395892D01*
X15007500Y-10395892D01*
X15018591Y-10394135D01*
X15018591Y-10394135D01*
X15018591Y-10394135D01*
X15028597Y-10389037D01*
X15036537Y-10381097D01*
X15041635Y-10371091D01*
X15041635Y-10371091D01*
X15041635Y-10371091D01*
X15043392Y-10360000D01*
X15043392Y-10360000D01*
X15041635Y-10348909D01*
X15036537Y-10338903D01*
X15028596Y-10330963D01*
X15019246Y-10326199D01*
X15014166Y-10321401D01*
X15012487Y-10314619D01*
X15014741Y-10308006D01*
X15020212Y-10303660D01*
X15024875Y-10302750D01*
X15098213Y-10302750D01*
X15102962Y-10303890D01*
X15102981Y-10303834D01*
X15103699Y-10304067D01*
X15103843Y-10304102D01*
X15103856Y-10304108D01*
X15103909Y-10304135D01*
X15103909Y-10304135D01*
X15115000Y-10305892D01*
X15115000Y-10305892D01*
X15115000Y-10305892D01*
X15126091Y-10304135D01*
X15126091Y-10304135D01*
X15126091Y-10304135D01*
X15136097Y-10299037D01*
X15144037Y-10291097D01*
X15149135Y-10281091D01*
X15149135Y-10281091D01*
X15149135Y-10281091D01*
X15150892Y-10270000D01*
X15150892Y-10270000D01*
X15149135Y-10258909D01*
X15144037Y-10248903D01*
X15136330Y-10241197D01*
X15132982Y-10235064D01*
X15133480Y-10228095D01*
X15137667Y-10222502D01*
X15137798Y-10222405D01*
X15142269Y-10219157D01*
X15142498Y-10218903D01*
X15149569Y-10211050D01*
X15155287Y-10204699D01*
X15163054Y-10191247D01*
X15168110Y-10186425D01*
X15174971Y-10185103D01*
X15181457Y-10187700D01*
X15185510Y-10193391D01*
X15186004Y-10195293D01*
X15186559Y-10198443D01*
X15186559Y-10198444D01*
X15186560Y-10198444D01*
X15192369Y-10208506D01*
X15192369Y-10208506D01*
X15192369Y-10208507D01*
X15201271Y-10215976D01*
X15212190Y-10219950D01*
X15212190Y-10219950D01*
X15223954Y-10219950D01*
X15230658Y-10221919D01*
X15235233Y-10227199D01*
X15236276Y-10233738D01*
X15234443Y-10250000D01*
X15234443Y-10250000D01*
X15236463Y-10267925D01*
X15236463Y-10267925D01*
X15242421Y-10284952D01*
X15249473Y-10296176D01*
X15252018Y-10300226D01*
X15264774Y-10312982D01*
X15270370Y-10316498D01*
X15279476Y-10322220D01*
X15280048Y-10322579D01*
X15291092Y-10326443D01*
X15297074Y-10328537D01*
X15297075Y-10328537D01*
X15306125Y-10329557D01*
X15310504Y-10330050D01*
X15310504Y-10330050D01*
X15310505Y-10330050D01*
X15389496Y-10330050D01*
X15389496Y-10330050D01*
X15397632Y-10329133D01*
X15402925Y-10328537D01*
X15402925Y-10328537D01*
X15402925Y-10328537D01*
X15419952Y-10322579D01*
X15435226Y-10312982D01*
X15437335Y-10310873D01*
X15443467Y-10307525D01*
X15450436Y-10308023D01*
X15456029Y-10312210D01*
X15458471Y-10318757D01*
X15458286Y-10321947D01*
X15456927Y-10329133D01*
X15456606Y-10330438D01*
X15417808Y-10457917D01*
X15417310Y-10459265D01*
X15403790Y-10490255D01*
X15403387Y-10491091D01*
X15384430Y-10526959D01*
X15383361Y-10528640D01*
X15276349Y-10670273D01*
X15275224Y-10671566D01*
X15256010Y-10690780D01*
X15255330Y-10691411D01*
X15218059Y-10723485D01*
X15217334Y-10724063D01*
X15177770Y-10753263D01*
X15177003Y-10753785D01*
X15135367Y-10779947D01*
X15134564Y-10780411D01*
X15091091Y-10803387D01*
X15090256Y-10803789D01*
X15045186Y-10823453D01*
X15044322Y-10823792D01*
X14997909Y-10840033D01*
X14997023Y-10840306D01*
X14949525Y-10853033D01*
X14948621Y-10853239D01*
X14900307Y-10862381D01*
X14899390Y-10862519D01*
X14874412Y-10865333D01*
X14867530Y-10864128D01*
X14862392Y-10859393D01*
X14860629Y-10852632D01*
X14862802Y-10845991D01*
X14866319Y-10842580D01*
X14873113Y-10838214D01*
X14882538Y-10827337D01*
X14888516Y-10814246D01*
X14890565Y-10800000D01*
X14888516Y-10785754D01*
X14882538Y-10772663D01*
X14873113Y-10761786D01*
X14861005Y-10754005D01*
X14861005Y-10754005D01*
X14861005Y-10754005D01*
X14861005Y-10754005D01*
X14847196Y-10749950D01*
X14847196Y-10749950D01*
X14832804Y-10749950D01*
X14832804Y-10749950D01*
X14818144Y-10754255D01*
X14818100Y-10754107D01*
X14814227Y-10754950D01*
X14798796Y-10754950D01*
X14792093Y-10752982D01*
X14790028Y-10751318D01*
X14620210Y-10581500D01*
X14760987Y-10581500D01*
X14762830Y-10594323D01*
X14767481Y-10604507D01*
X14768212Y-10606106D01*
X14776695Y-10615897D01*
X14787593Y-10622900D01*
X14800022Y-10626550D01*
X14800023Y-10626550D01*
X14800023Y-10626550D01*
X14812977Y-10626550D01*
X14812977Y-10626550D01*
X14825407Y-10622900D01*
X14836305Y-10615897D01*
X14844629Y-10606290D01*
X14850506Y-10602513D01*
X14857493Y-10602513D01*
X14863371Y-10606290D01*
X14871695Y-10615897D01*
X14882593Y-10622900D01*
X14895022Y-10626550D01*
X14895023Y-10626550D01*
X14895023Y-10626550D01*
X14907977Y-10626550D01*
X14907977Y-10626550D01*
X14920407Y-10622900D01*
X14931305Y-10615897D01*
X14939788Y-10606106D01*
X14945170Y-10594323D01*
X14947013Y-10581500D01*
X14945170Y-10568677D01*
X14939788Y-10556894D01*
X14931305Y-10547103D01*
X14931305Y-10547103D01*
X14927148Y-10544432D01*
X14923307Y-10540000D01*
X15019435Y-10540000D01*
X15021483Y-10554246D01*
X15025938Y-10564000D01*
X15027462Y-10567337D01*
X15036887Y-10578214D01*
X15045994Y-10584067D01*
X15050570Y-10589347D01*
X15051564Y-10596263D01*
X15050339Y-10600128D01*
X15045865Y-10608909D01*
X15044108Y-10620000D01*
X15044108Y-10620000D01*
X15045865Y-10631091D01*
X15050963Y-10641097D01*
X15058903Y-10649037D01*
X15068909Y-10654135D01*
X15080000Y-10655892D01*
X15080000Y-10655892D01*
X15080000Y-10655892D01*
X15091091Y-10654135D01*
X15091091Y-10654135D01*
X15091091Y-10654135D01*
X15101097Y-10649037D01*
X15109037Y-10641097D01*
X15114135Y-10631091D01*
X15114135Y-10631091D01*
X15114135Y-10631091D01*
X15115892Y-10620000D01*
X15115892Y-10620000D01*
X15114135Y-10608909D01*
X15109037Y-10598903D01*
X15104422Y-10594288D01*
X15101073Y-10588156D01*
X15101572Y-10581186D01*
X15103818Y-10577400D01*
X15112538Y-10567337D01*
X15118516Y-10554246D01*
X15120565Y-10540000D01*
X15118516Y-10525754D01*
X15112538Y-10512663D01*
X15103113Y-10501786D01*
X15091005Y-10494005D01*
X15091005Y-10494005D01*
X15091005Y-10494005D01*
X15091005Y-10494005D01*
X15077196Y-10489950D01*
X15077196Y-10489950D01*
X15062804Y-10489950D01*
X15062804Y-10489950D01*
X15048995Y-10494005D01*
X15036887Y-10501786D01*
X15027462Y-10512663D01*
X15021483Y-10525754D01*
X15019435Y-10540000D01*
X14923307Y-10540000D01*
X14922572Y-10539151D01*
X14921578Y-10532236D01*
X14924480Y-10525880D01*
X14927148Y-10523568D01*
X14931305Y-10520897D01*
X14939788Y-10511106D01*
X14945170Y-10499323D01*
X14947013Y-10486500D01*
X14945170Y-10473677D01*
X14939788Y-10461894D01*
X14931305Y-10452103D01*
X14920407Y-10445100D01*
X14920406Y-10445099D01*
X14920406Y-10445099D01*
X14907977Y-10441450D01*
X14907977Y-10441450D01*
X14895023Y-10441450D01*
X14895023Y-10441450D01*
X14882593Y-10445099D01*
X14882593Y-10445100D01*
X14882593Y-10445100D01*
X14879111Y-10447337D01*
X14871695Y-10452103D01*
X14863371Y-10461710D01*
X14857494Y-10465487D01*
X14850507Y-10465487D01*
X14844629Y-10461710D01*
X14844629Y-10461710D01*
X14836305Y-10452103D01*
X14836178Y-10452022D01*
X14825407Y-10445100D01*
X14825406Y-10445099D01*
X14825406Y-10445099D01*
X14812977Y-10441450D01*
X14812977Y-10441450D01*
X14800023Y-10441450D01*
X14800023Y-10441450D01*
X14787593Y-10445099D01*
X14787593Y-10445100D01*
X14787593Y-10445100D01*
X14784111Y-10447337D01*
X14776695Y-10452103D01*
X14768212Y-10461894D01*
X14768212Y-10461894D01*
X14762830Y-10473677D01*
X14760987Y-10486500D01*
X14762830Y-10499323D01*
X14765891Y-10506024D01*
X14768212Y-10511106D01*
X14770280Y-10513494D01*
X14776667Y-10520865D01*
X14776695Y-10520897D01*
X14780852Y-10523568D01*
X14785428Y-10528849D01*
X14786422Y-10535765D01*
X14783520Y-10542120D01*
X14780852Y-10544432D01*
X14776695Y-10547103D01*
X14768212Y-10556894D01*
X14768212Y-10556894D01*
X14762830Y-10568677D01*
X14760987Y-10581500D01*
X14620210Y-10581500D01*
X14578682Y-10539972D01*
X14575333Y-10533839D01*
X14575050Y-10531204D01*
X14575050Y-10466258D01*
X14577018Y-10459555D01*
X14582299Y-10454979D01*
X14589215Y-10453985D01*
X14595570Y-10456887D01*
X14596821Y-10458138D01*
X14596887Y-10458214D01*
X14596887Y-10458214D01*
X14599744Y-10460050D01*
X14608995Y-10465995D01*
X14608995Y-10465995D01*
X14608995Y-10465995D01*
X14622804Y-10470050D01*
X14622804Y-10470050D01*
X14622804Y-10470050D01*
X14637196Y-10470050D01*
X14637196Y-10470050D01*
X14651005Y-10465995D01*
X14663113Y-10458214D01*
X14672538Y-10447337D01*
X14678516Y-10434246D01*
X14680565Y-10420000D01*
X14679127Y-10410000D01*
X15189435Y-10410000D01*
X15191483Y-10424246D01*
X15197462Y-10437337D01*
X15197462Y-10437337D01*
X15206887Y-10448214D01*
X15218995Y-10455995D01*
X15218995Y-10455995D01*
X15218995Y-10455995D01*
X15232804Y-10460050D01*
X15232804Y-10460050D01*
X15232804Y-10460050D01*
X15247196Y-10460050D01*
X15247740Y-10459972D01*
X15254656Y-10460966D01*
X15259936Y-10465541D01*
X15260784Y-10467094D01*
X15264896Y-10476097D01*
X15265462Y-10477337D01*
X15274887Y-10488214D01*
X15286995Y-10495995D01*
X15286995Y-10495995D01*
X15286995Y-10495995D01*
X15297644Y-10499122D01*
X15300634Y-10500000D01*
X15300804Y-10500050D01*
X15300804Y-10500050D01*
X15300804Y-10500050D01*
X15315196Y-10500050D01*
X15315196Y-10500050D01*
X15325912Y-10496904D01*
X15329005Y-10495995D01*
X15329005Y-10495995D01*
X15329005Y-10495995D01*
X15341113Y-10488214D01*
X15350538Y-10477337D01*
X15356516Y-10464246D01*
X15358565Y-10450000D01*
X15356516Y-10435754D01*
X15350538Y-10422663D01*
X15341113Y-10411786D01*
X15329005Y-10404005D01*
X15329005Y-10404005D01*
X15329005Y-10404005D01*
X15329005Y-10404005D01*
X15315196Y-10399950D01*
X15315196Y-10399950D01*
X15300804Y-10399950D01*
X15300804Y-10399950D01*
X15300259Y-10400028D01*
X15293343Y-10399034D01*
X15288063Y-10394458D01*
X15287215Y-10392906D01*
X15287105Y-10392663D01*
X15282538Y-10382663D01*
X15273113Y-10371786D01*
X15261005Y-10364005D01*
X15261005Y-10364005D01*
X15261005Y-10364005D01*
X15261005Y-10364005D01*
X15247196Y-10359950D01*
X15247196Y-10359950D01*
X15232804Y-10359950D01*
X15232804Y-10359950D01*
X15218995Y-10364005D01*
X15206887Y-10371786D01*
X15197462Y-10382663D01*
X15197462Y-10382663D01*
X15191483Y-10395754D01*
X15189435Y-10410000D01*
X14679127Y-10410000D01*
X14678516Y-10405754D01*
X14672538Y-10392663D01*
X14663113Y-10381786D01*
X14663112Y-10381786D01*
X14663112Y-10381785D01*
X14654006Y-10375933D01*
X14649430Y-10370653D01*
X14648436Y-10363737D01*
X14649661Y-10359872D01*
X14650640Y-10357950D01*
X14654135Y-10351091D01*
X14654135Y-10351091D01*
X14654135Y-10351091D01*
X14655892Y-10340000D01*
X14655892Y-10340000D01*
X14654135Y-10328909D01*
X14649037Y-10318903D01*
X14641096Y-10310963D01*
X14631091Y-10305865D01*
X14620000Y-10304108D01*
X14620000Y-10304108D01*
X14608909Y-10305865D01*
X14598903Y-10310963D01*
X14596218Y-10313648D01*
X14590086Y-10316997D01*
X14583117Y-10316498D01*
X14577523Y-10312311D01*
X14575082Y-10305765D01*
X14575050Y-10304880D01*
X14575050Y-10159873D01*
X14577018Y-10153169D01*
X14582299Y-10148593D01*
X14589215Y-10147599D01*
X14591690Y-10148220D01*
X14599190Y-10150950D01*
X14599190Y-10150950D01*
X14610810Y-10150950D01*
X14610810Y-10150950D01*
X14621729Y-10146976D01*
X14630630Y-10139507D01*
X14636440Y-10129443D01*
X14638458Y-10118000D01*
X14636440Y-10106557D01*
X14630630Y-10096493D01*
X14630630Y-10096493D01*
X14630630Y-10096493D01*
X14622363Y-10089556D01*
X14621729Y-10089024D01*
X14610810Y-10085050D01*
X14599190Y-10085050D01*
X14599190Y-10085050D01*
X14591691Y-10087779D01*
X14584718Y-10088223D01*
X14578613Y-10084826D01*
X14575313Y-10078667D01*
X14575050Y-10076127D01*
X14575050Y-9867001D01*
X14577018Y-9860297D01*
X14582299Y-9855722D01*
X14589215Y-9854727D01*
X14595570Y-9857630D01*
G37*
G04 #@! TD.AperFunction*
G04 #@! TA.AperFunction,NonConductor*
G36*
X14863371Y-10511290D02*
G01*
X14865280Y-10513494D01*
X14871667Y-10520865D01*
X14871695Y-10520897D01*
X14875852Y-10523568D01*
X14880428Y-10528849D01*
X14881422Y-10535765D01*
X14878520Y-10542120D01*
X14875852Y-10544432D01*
X14871695Y-10547103D01*
X14863371Y-10556710D01*
X14857494Y-10560487D01*
X14850507Y-10560487D01*
X14844629Y-10556710D01*
X14844629Y-10556710D01*
X14838858Y-10550050D01*
X14836305Y-10547103D01*
X14836305Y-10547103D01*
X14832148Y-10544432D01*
X14827572Y-10539151D01*
X14826578Y-10532236D01*
X14829480Y-10525880D01*
X14832148Y-10523568D01*
X14836305Y-10520897D01*
X14844629Y-10511290D01*
X14850506Y-10507513D01*
X14857493Y-10507513D01*
X14863371Y-10511290D01*
G37*
G04 #@! TD.AperFunction*
G04 #@! TA.AperFunction,NonConductor*
G36*
X14809145Y-10847019D02*
G01*
X14813721Y-10852299D01*
X14814715Y-10859215D01*
X14811813Y-10865570D01*
X14805935Y-10869348D01*
X14802905Y-10869841D01*
X14800232Y-10869941D01*
X14799769Y-10869950D01*
X14781884Y-10869950D01*
X14775180Y-10867982D01*
X14770604Y-10862701D01*
X14769610Y-10855785D01*
X14772513Y-10849430D01*
X14778390Y-10845652D01*
X14780495Y-10845228D01*
X14781024Y-10845168D01*
X14781034Y-10845251D01*
X14782564Y-10845050D01*
X14802441Y-10845050D01*
X14809145Y-10847019D01*
G37*
G04 #@! TD.AperFunction*
G04 #@! TA.AperFunction,NonConductor*
G36*
X13077665Y-9451671D02*
G01*
X13080738Y-9455218D01*
X13083074Y-9459264D01*
X13084369Y-9461506D01*
X13084370Y-9461507D01*
X13091573Y-9467551D01*
X13095443Y-9473368D01*
X13095554Y-9480354D01*
X13091870Y-9486291D01*
X13085562Y-9489294D01*
X13083602Y-9489450D01*
X13082732Y-9489450D01*
X13077914Y-9490865D01*
X13068785Y-9493545D01*
X13068785Y-9493545D01*
X13068785Y-9493545D01*
X13056556Y-9501404D01*
X13056556Y-9501404D01*
X13056556Y-9501404D01*
X13055450Y-9502681D01*
X13047037Y-9512390D01*
X13047037Y-9512390D01*
X13041279Y-9524998D01*
X13036704Y-9530278D01*
X13030000Y-9532247D01*
X13023296Y-9530278D01*
X13018721Y-9524998D01*
X13018721Y-9524998D01*
X13012963Y-9512390D01*
X13012962Y-9512390D01*
X13003444Y-9501404D01*
X12991215Y-9493545D01*
X12980556Y-9490415D01*
X12977268Y-9489450D01*
X12977268Y-9489450D01*
X12976398Y-9489450D01*
X12969694Y-9487482D01*
X12965118Y-9482201D01*
X12964124Y-9475285D01*
X12967026Y-9468930D01*
X12968427Y-9467551D01*
X12973851Y-9463000D01*
X12975630Y-9461507D01*
X12979261Y-9455218D01*
X12984318Y-9450396D01*
X12991179Y-9449074D01*
X12997665Y-9451671D01*
X13000738Y-9455218D01*
X13003074Y-9459264D01*
X13004369Y-9461506D01*
X13004370Y-9461507D01*
X13007167Y-9463854D01*
X13013271Y-9468976D01*
X13024190Y-9472950D01*
X13024190Y-9472950D01*
X13035810Y-9472950D01*
X13035810Y-9472950D01*
X13046729Y-9468976D01*
X13055630Y-9461507D01*
X13059261Y-9455218D01*
X13064318Y-9450396D01*
X13071179Y-9449074D01*
X13077665Y-9451671D01*
G37*
G04 #@! TD.AperFunction*
M02*
