G04 #@! TF.GenerationSoftware,KiCad,Pcbnew,7.0.10-7.0.10~ubuntu22.04.1*
G04 #@! TF.CreationDate,2024-02-23T20:42:25+01:00*
G04 #@! TF.ProjectId,dictofun,64696374-6f66-4756-9e2e-6b696361645f,rev?*
G04 #@! TF.SameCoordinates,Original*
G04 #@! TF.FileFunction,Soldermask,Bot*
G04 #@! TF.FilePolarity,Negative*
%FSLAX45Y45*%
G04 Gerber Fmt 4.5, Leading zero omitted, Abs format (unit mm)*
G04 Created by KiCad (PCBNEW 7.0.10-7.0.10~ubuntu22.04.1) date 2024-02-23 20:42:25*
%MOMM*%
%LPD*%
G01*
G04 APERTURE LIST*
G04 Aperture macros list*
%AMRoundRect*
0 Rectangle with rounded corners*
0 $1 Rounding radius*
0 $2 $3 $4 $5 $6 $7 $8 $9 X,Y pos of 4 corners*
0 Add a 4 corners polygon primitive as box body*
4,1,4,$2,$3,$4,$5,$6,$7,$8,$9,$2,$3,0*
0 Add four circle primitives for the rounded corners*
1,1,$1+$1,$2,$3*
1,1,$1+$1,$4,$5*
1,1,$1+$1,$6,$7*
1,1,$1+$1,$8,$9*
0 Add four rect primitives between the rounded corners*
20,1,$1+$1,$2,$3,$4,$5,0*
20,1,$1+$1,$4,$5,$6,$7,0*
20,1,$1+$1,$6,$7,$8,$9,0*
20,1,$1+$1,$8,$9,$2,$3,0*%
G04 Aperture macros list end*
%ADD10C,1.000000*%
%ADD11R,0.850000X0.850000*%
%ADD12C,0.814000*%
%ADD13R,1.350000X0.400000*%
%ADD14O,1.900000X1.200000*%
%ADD15R,1.900000X1.200000*%
%ADD16C,1.450000*%
%ADD17R,1.900000X1.500000*%
%ADD18RoundRect,0.102000X-0.300000X0.775000X-0.300000X-0.775000X0.300000X-0.775000X0.300000X0.775000X0*%
%ADD19RoundRect,0.102000X0.600000X0.900000X-0.600000X0.900000X-0.600000X-0.900000X0.600000X-0.900000X0*%
%ADD20RoundRect,0.102000X-0.775000X-0.300000X0.775000X-0.300000X0.775000X0.300000X-0.775000X0.300000X0*%
%ADD21RoundRect,0.102000X-0.900000X-0.600000X0.900000X-0.600000X0.900000X0.600000X-0.900000X0.600000X0*%
G04 APERTURE END LIST*
D10*
X11596000Y-9911000D03*
X15340000Y-9374000D03*
D11*
X13265000Y-10725000D03*
D12*
X12970000Y-9540000D03*
X12970000Y-9673300D03*
X12970000Y-9806700D03*
X12970000Y-9940000D03*
X13090000Y-9540000D03*
X13090000Y-9673300D03*
X13090000Y-9806700D03*
X13090000Y-9940000D03*
X13210000Y-9540000D03*
X13210000Y-9673300D03*
X13210000Y-9806700D03*
X13210000Y-9940000D03*
X13330000Y-9540000D03*
X13330000Y-9673300D03*
X13330000Y-9806700D03*
X13330000Y-9940000D03*
D10*
X13870000Y-10785000D03*
X14200000Y-10490000D03*
X14190000Y-10790000D03*
X12360000Y-10665000D03*
X14098000Y-9040000D03*
D13*
X15080000Y-9770000D03*
X15080000Y-9835000D03*
X15080000Y-9900000D03*
X15080000Y-9965000D03*
X15080000Y-10030000D03*
D14*
X15350000Y-9550000D03*
D15*
X15350000Y-9610000D03*
D16*
X15080000Y-9650000D03*
D17*
X15350000Y-9800000D03*
X15350000Y-10000000D03*
D16*
X15080000Y-10150000D03*
D15*
X15350000Y-10190000D03*
D14*
X15350000Y-10250000D03*
D10*
X13265000Y-9040000D03*
X12735000Y-10430000D03*
X13885000Y-9095000D03*
X12361667Y-10430000D03*
X12921667Y-10430000D03*
D18*
X14700000Y-9537500D03*
X14800000Y-9537500D03*
X14900000Y-9537500D03*
D19*
X14570000Y-9150000D03*
X15030000Y-9150000D03*
D10*
X12548333Y-10430000D03*
X12688000Y-9148000D03*
X14035000Y-10790000D03*
X14665000Y-10795000D03*
X12425000Y-9203000D03*
X14300000Y-10655000D03*
X12985000Y-10785000D03*
D20*
X15007500Y-10460000D03*
X15007500Y-10360000D03*
D21*
X14620000Y-10590000D03*
X14620000Y-10230000D03*
D10*
X14470000Y-10750000D03*
X12245532Y-9200000D03*
X13490000Y-9045000D03*
M02*
