G04 #@! TF.GenerationSoftware,KiCad,Pcbnew,7.0.10-7.0.10~ubuntu22.04.1*
G04 #@! TF.CreationDate,2024-02-23T20:42:25+01:00*
G04 #@! TF.ProjectId,dictofun,64696374-6f66-4756-9e2e-6b696361645f,rev?*
G04 #@! TF.SameCoordinates,Original*
G04 #@! TF.FileFunction,Copper,L2,Inr*
G04 #@! TF.FilePolarity,Positive*
%FSLAX45Y45*%
G04 Gerber Fmt 4.5, Leading zero omitted, Abs format (unit mm)*
G04 Created by KiCad (PCBNEW 7.0.10-7.0.10~ubuntu22.04.1) date 2024-02-23 20:42:25*
%MOMM*%
%LPD*%
G01*
G04 APERTURE LIST*
G04 #@! TA.AperFunction,ComponentPad*
%ADD10C,0.500000*%
G04 #@! TD*
G04 #@! TA.AperFunction,ComponentPad*
%ADD11R,0.850000X0.850000*%
G04 #@! TD*
G04 #@! TA.AperFunction,ComponentPad*
%ADD12C,0.610000*%
G04 #@! TD*
G04 #@! TA.AperFunction,ComponentPad*
%ADD13O,1.900000X1.200000*%
G04 #@! TD*
G04 #@! TA.AperFunction,ComponentPad*
%ADD14C,1.450000*%
G04 #@! TD*
G04 #@! TA.AperFunction,ViaPad*
%ADD15C,0.250000*%
G04 #@! TD*
G04 #@! TA.AperFunction,ViaPad*
%ADD16C,0.300000*%
G04 #@! TD*
G04 #@! TA.AperFunction,ViaPad*
%ADD17C,0.600000*%
G04 #@! TD*
G04 #@! TA.AperFunction,Conductor*
%ADD18C,0.254000*%
G04 #@! TD*
G04 #@! TA.AperFunction,Conductor*
%ADD19C,0.127000*%
G04 #@! TD*
G04 #@! TA.AperFunction,Conductor*
%ADD20C,0.500000*%
G04 #@! TD*
G04 #@! TA.AperFunction,Conductor*
%ADD21C,0.090000*%
G04 #@! TD*
G04 #@! TA.AperFunction,Conductor*
%ADD22C,0.200000*%
G04 #@! TD*
G04 #@! TA.AperFunction,Conductor*
%ADD23C,0.150000*%
G04 #@! TD*
G04 APERTURE END LIST*
D10*
X14901500Y-10486500D03*
X14806500Y-10486500D03*
X14901500Y-10581500D03*
X14806500Y-10581500D03*
D11*
X13265000Y-10725000D03*
D12*
X12970000Y-9540000D03*
X12970000Y-9673300D03*
X12970000Y-9806700D03*
X12970000Y-9940000D03*
X13090000Y-9540000D03*
X13090000Y-9673300D03*
X13090000Y-9806700D03*
X13090000Y-9940000D03*
X13210000Y-9540000D03*
X13210000Y-9673300D03*
X13210000Y-9806700D03*
X13210000Y-9940000D03*
X13330000Y-9540000D03*
X13330000Y-9673300D03*
X13330000Y-9806700D03*
X13330000Y-9940000D03*
D13*
X15350000Y-9550000D03*
D14*
X15080000Y-9650000D03*
X15080000Y-10150000D03*
D13*
X15350000Y-10250000D03*
D15*
X14930000Y-9650000D03*
X13695000Y-10535000D03*
D16*
X13820000Y-10300000D03*
D15*
X14180000Y-10325000D03*
X13140000Y-10600000D03*
X13465000Y-9240000D03*
D17*
X15070000Y-10540000D03*
D15*
X13709000Y-9809000D03*
X13390000Y-10240000D03*
X12642000Y-9463000D03*
X12930000Y-9175000D03*
X12705000Y-9290000D03*
D17*
X14390000Y-9020000D03*
D15*
X13725000Y-10355000D03*
D17*
X14880000Y-9000000D03*
D15*
X12890000Y-10230000D03*
X15218000Y-10187000D03*
X13665000Y-9940000D03*
X13731000Y-10776000D03*
D17*
X15308000Y-10450000D03*
D16*
X11925000Y-10325000D03*
D15*
X13770000Y-10410000D03*
X12637368Y-9899251D03*
X13005000Y-9100000D03*
D16*
X14195000Y-9375000D03*
X15027000Y-9514000D03*
D15*
X13655000Y-9060000D03*
X13310000Y-9440000D03*
X13502181Y-9895903D03*
X14925000Y-9804000D03*
D17*
X14760000Y-10310000D03*
X15240000Y-10410000D03*
D15*
X12628000Y-9596000D03*
X13665000Y-9898000D03*
D17*
X14630000Y-10420000D03*
D15*
X14605000Y-10118000D03*
D16*
X12730000Y-10275000D03*
X12410000Y-10555000D03*
D15*
X13945000Y-9342000D03*
X14397000Y-10583000D03*
X13506000Y-9628000D03*
X14701000Y-9553000D03*
D17*
X14810000Y-9240000D03*
D16*
X11918000Y-9245000D03*
D15*
X12470000Y-9063000D03*
D16*
X15205000Y-9520000D03*
D15*
X12540000Y-9325000D03*
D16*
X12435000Y-10245000D03*
D15*
X14366000Y-10776000D03*
X11630000Y-9660000D03*
X11755000Y-10180000D03*
X14967000Y-9988000D03*
X13184000Y-10256000D03*
D16*
X13480000Y-10120000D03*
D15*
X13145000Y-10350000D03*
X12640000Y-9758000D03*
X13390000Y-9100000D03*
X14090000Y-9900000D03*
D16*
X11750000Y-10375000D03*
D15*
X13830000Y-9250000D03*
X12900000Y-9333000D03*
D17*
X15121482Y-9337722D03*
D15*
X12230000Y-9845000D03*
X11990000Y-9525000D03*
X13500000Y-9780000D03*
X13370000Y-10070000D03*
D16*
X13410000Y-9350000D03*
D15*
X12800000Y-9740000D03*
X12737000Y-9540000D03*
X13473000Y-9542000D03*
D17*
X14640000Y-9010000D03*
D16*
X12795000Y-10670000D03*
D15*
X13200000Y-10075000D03*
X12794000Y-9458000D03*
D16*
X12980000Y-10790000D03*
D15*
X12752000Y-9900000D03*
X12140000Y-9090000D03*
D16*
X12890000Y-10070000D03*
D15*
X13430000Y-9960000D03*
X12800000Y-9620000D03*
X14195000Y-9145000D03*
D17*
X14820000Y-9090000D03*
D15*
X13005000Y-10244000D03*
D16*
X12695000Y-10135000D03*
X12830000Y-10800000D03*
D15*
X13023000Y-10315000D03*
D16*
X15007500Y-10360000D03*
X14840000Y-10290000D03*
X14620000Y-10340000D03*
D15*
X12766000Y-10030000D03*
X12870000Y-10001000D03*
X12800000Y-10095000D03*
X12830000Y-9861000D03*
X12520000Y-9672000D03*
X12870000Y-9680000D03*
X13991000Y-9158000D03*
D16*
X15115000Y-10270000D03*
D15*
X14630000Y-9850000D03*
D16*
X15080000Y-10620000D03*
D15*
X14105000Y-9031000D03*
X13110000Y-9440000D03*
X14390000Y-10370000D03*
X14081000Y-10559000D03*
X12767000Y-9800000D03*
X14115000Y-10675000D03*
D16*
X12775000Y-9330000D03*
X12255000Y-9320000D03*
D15*
X12950000Y-9440000D03*
X12416000Y-9024000D03*
X12965000Y-9370000D03*
D16*
X12815000Y-9270000D03*
D15*
X13320000Y-10250000D03*
X13780000Y-10000000D03*
D16*
X12449000Y-9395000D03*
D15*
X12800000Y-9140000D03*
D17*
X15010000Y-9010000D03*
X14840000Y-10800000D03*
X14550000Y-9490000D03*
D15*
X14302500Y-9437500D03*
X13985000Y-10655000D03*
D17*
X14410000Y-10500000D03*
D15*
X13827000Y-10676000D03*
X12545000Y-9140000D03*
X12690000Y-9050000D03*
X15215000Y-10094000D03*
X14384023Y-10108542D03*
X12314000Y-9750000D03*
X12485000Y-9845000D03*
X14898000Y-10007000D03*
X15196000Y-9914000D03*
X13617000Y-9311000D03*
X13679000Y-9284000D03*
X14917000Y-9883000D03*
X13013000Y-10101000D03*
D16*
X12600000Y-10240000D03*
D15*
X12870000Y-9560000D03*
X12693753Y-9803728D03*
X13310000Y-10118000D03*
X13597000Y-10020000D03*
X13875000Y-9621000D03*
X13620000Y-9666000D03*
X13664000Y-9546000D03*
X13431000Y-9520000D03*
X13506000Y-9508000D03*
X13587000Y-9415000D03*
X13652000Y-9232000D03*
X14933000Y-9748000D03*
X13857500Y-10022500D03*
X13430000Y-9880000D03*
X12968000Y-9042000D03*
D16*
X12094000Y-9521000D03*
X14966647Y-9467129D03*
X15220000Y-9675000D03*
D17*
X14960000Y-9340000D03*
D15*
X14175000Y-8985000D03*
D16*
X14330000Y-10455000D03*
X14060000Y-9370000D03*
D15*
X13431000Y-9680000D03*
D16*
X13970000Y-9650000D03*
X14070000Y-9525000D03*
X14065000Y-9780000D03*
D15*
X13430000Y-9760000D03*
X14965000Y-10154000D03*
D16*
X12211000Y-9405000D03*
X12866000Y-9111300D03*
D15*
X12646000Y-9340000D03*
X13030000Y-9440000D03*
D18*
X14867000Y-9653000D02*
X14925000Y-9653000D01*
D19*
X13731000Y-10776000D02*
X13705000Y-10802000D01*
X13489097Y-9895903D02*
X13554097Y-9895903D01*
D18*
X14925000Y-9804000D02*
X14913764Y-9804000D01*
D19*
X13310000Y-9440000D02*
X13310000Y-9520000D01*
D20*
X12720000Y-10555000D02*
X13095000Y-10555000D01*
D19*
X13145000Y-10295000D02*
X13145000Y-10350000D01*
D21*
X13350000Y-9920000D02*
X13330000Y-9940000D01*
X13507500Y-9627500D02*
X13549000Y-9669000D01*
X13549000Y-9824640D02*
X13470000Y-9903640D01*
D19*
X13330000Y-9991000D02*
X13330000Y-9940000D01*
D21*
X13549000Y-9669000D02*
X13549000Y-9824640D01*
D19*
X12727000Y-9290000D02*
X12765650Y-9251350D01*
X12930000Y-9175000D02*
X13005000Y-9100000D01*
D18*
X14867000Y-9653000D02*
X14867000Y-9635000D01*
D19*
X13705000Y-10802000D02*
X13705000Y-10830000D01*
D18*
X13845000Y-10325000D02*
X13820000Y-10300000D01*
D19*
X13490846Y-9895903D02*
X13527471Y-9932529D01*
X12628000Y-9596000D02*
X12628000Y-9746000D01*
X13368000Y-9995000D02*
X13334000Y-9995000D01*
D22*
X14880000Y-9170000D02*
X14810000Y-9240000D01*
D19*
X13340000Y-9305000D02*
X13405000Y-9240000D01*
D20*
X13095000Y-10555000D02*
X13140000Y-10600000D01*
X11717000Y-9660000D02*
X11630000Y-9660000D01*
X13705000Y-10830000D02*
X14360000Y-10830000D01*
D19*
X12640000Y-9896619D02*
X12637368Y-9899251D01*
D21*
X13470000Y-10110000D02*
X13480000Y-10120000D01*
D19*
X12642000Y-9463000D02*
X12640000Y-9425000D01*
X13310000Y-9440000D02*
X13340000Y-9410000D01*
D20*
X13095000Y-10720000D02*
X13205000Y-10830000D01*
D21*
X13470000Y-9903640D02*
X13470000Y-9915000D01*
D19*
X13731000Y-10776000D02*
X13695000Y-10740000D01*
D18*
X12775000Y-10345000D02*
X12890000Y-10230000D01*
D19*
X13390000Y-10240000D02*
X13375000Y-10225000D01*
X13420000Y-10047000D02*
X13368000Y-9995000D01*
X13190000Y-9995000D02*
X13334000Y-9995000D01*
D18*
X15308000Y-10450000D02*
X15218000Y-10540000D01*
D19*
X12649251Y-9899251D02*
X12725000Y-9975000D01*
D23*
X12890000Y-10120500D02*
X12910918Y-10120500D01*
D19*
X12705000Y-9360000D02*
X12705000Y-9290000D01*
X12725000Y-9975000D02*
X12830000Y-9975000D01*
D18*
X14930000Y-9648000D02*
X14928000Y-9650000D01*
X12730000Y-10345000D02*
X12775000Y-10345000D01*
D19*
X11918000Y-9245000D02*
X11918000Y-9372000D01*
X13670000Y-9780000D02*
X13670000Y-9615000D01*
D20*
X11778000Y-10173000D02*
X11778000Y-9721000D01*
D21*
X13470000Y-9915000D02*
X13470000Y-10110000D01*
D20*
X11925000Y-10325000D02*
X11925000Y-10280000D01*
D18*
X12730000Y-10275000D02*
X12730000Y-10345000D01*
D19*
X13334000Y-9995000D02*
X13330000Y-9991000D01*
D20*
X11785000Y-10180000D02*
X11778000Y-10173000D01*
D18*
X14430000Y-9240000D02*
X14380000Y-9190000D01*
D19*
X13375000Y-10225000D02*
X13375000Y-10120000D01*
D18*
X14925000Y-9653000D02*
X14928000Y-9650000D01*
D19*
X13527471Y-9932529D02*
X13657529Y-9932529D01*
X13657529Y-9932529D02*
X13665000Y-9940000D01*
D23*
X12910918Y-10120500D02*
X12940500Y-10090918D01*
D19*
X12642000Y-9463000D02*
X12640000Y-9584000D01*
D20*
X12410000Y-10555000D02*
X12720000Y-10555000D01*
D19*
X13770000Y-10410000D02*
X13770000Y-10400000D01*
X12640000Y-9584000D02*
X12628000Y-9596000D01*
X13184000Y-10256000D02*
X13153150Y-10225150D01*
X12640000Y-9758000D02*
X12640000Y-9896619D01*
D21*
X13585000Y-10120000D02*
X13480000Y-10120000D01*
D20*
X11778000Y-9721000D02*
X11717000Y-9660000D01*
D19*
X12470000Y-9063000D02*
X12470000Y-9255000D01*
X12705000Y-9290000D02*
X12727000Y-9290000D01*
X13655000Y-9060000D02*
X13615000Y-9100000D01*
D18*
X12730000Y-10545000D02*
X12720000Y-10555000D01*
D20*
X12055000Y-10555000D02*
X11925000Y-10425000D01*
D19*
X13554097Y-9895903D02*
X13670000Y-9780000D01*
X13665000Y-9898000D02*
X13665000Y-9940000D01*
D20*
X11925000Y-10425000D02*
X11925000Y-10325000D01*
D19*
X12637368Y-9899251D02*
X12649251Y-9899251D01*
X13470000Y-9915000D02*
X13489097Y-9895903D01*
X13770000Y-10400000D02*
X13725000Y-10355000D01*
D18*
X15218000Y-10540000D02*
X15070000Y-10540000D01*
X12730000Y-10345000D02*
X12730000Y-10365000D01*
D20*
X13205000Y-10830000D02*
X13705000Y-10830000D01*
X11925000Y-10280000D02*
X11825000Y-10180000D01*
D19*
X12865000Y-9940000D02*
X12970000Y-9940000D01*
D18*
X14810000Y-9240000D02*
X14430000Y-9240000D01*
D22*
X14380000Y-9030000D02*
X14390000Y-9020000D01*
D19*
X13153150Y-10225150D02*
X13153150Y-10031850D01*
D18*
X14930000Y-9650000D02*
X14930000Y-9648000D01*
D19*
X12765650Y-9251350D02*
X12765650Y-9249559D01*
D20*
X12410000Y-10555000D02*
X12055000Y-10555000D01*
D19*
X13420000Y-10120000D02*
X13480000Y-10120000D01*
X12470000Y-9255000D02*
X12540000Y-9325000D01*
X13375000Y-10120000D02*
X13420000Y-10120000D01*
D20*
X14360000Y-10830000D02*
X14608500Y-10581500D01*
D19*
X12830000Y-9975000D02*
X12865000Y-9940000D01*
D23*
X12940500Y-10090918D02*
X12940500Y-10013500D01*
D19*
X13489097Y-9895903D02*
X13490846Y-9895903D01*
D22*
X14195000Y-9375000D02*
X14380000Y-9190000D01*
D21*
X13820000Y-10300000D02*
X13765000Y-10300000D01*
D19*
X13153150Y-10031850D02*
X13190000Y-9995000D01*
D18*
X12555000Y-10365000D02*
X12435000Y-10245000D01*
D19*
X12765650Y-9249559D02*
X12800208Y-9215000D01*
X13340000Y-9410000D02*
X13340000Y-9305000D01*
X12640000Y-9425000D02*
X12540000Y-9325000D01*
X12890000Y-9215000D02*
X12930000Y-9175000D01*
D23*
X12970000Y-9984000D02*
X12970000Y-9940000D01*
D19*
X14366000Y-10614000D02*
X14366000Y-10776000D01*
D23*
X12940500Y-10013500D02*
X12970000Y-9984000D01*
D18*
X14913764Y-9804000D02*
X14867000Y-9757236D01*
X14928000Y-9650000D02*
X14930000Y-9650000D01*
D19*
X14397000Y-10583000D02*
X14366000Y-10614000D01*
X13420000Y-10120000D02*
X13420000Y-10047000D01*
D23*
X12890000Y-10230000D02*
X12890000Y-10120500D01*
D20*
X13095000Y-10555000D02*
X13095000Y-10720000D01*
D18*
X14180000Y-10325000D02*
X13845000Y-10325000D01*
D19*
X13615000Y-9100000D02*
X13390000Y-9100000D01*
D20*
X14608500Y-10581500D02*
X14901500Y-10581500D01*
D18*
X12730000Y-10365000D02*
X12555000Y-10365000D01*
X14867000Y-9635000D02*
X14817000Y-9585000D01*
X12730000Y-10365000D02*
X12730000Y-10545000D01*
D19*
X12640000Y-9425000D02*
X12705000Y-9360000D01*
D20*
X11785000Y-10180000D02*
X11755000Y-10180000D01*
D21*
X13765000Y-10300000D02*
X13585000Y-10120000D01*
D19*
X11918000Y-9372000D02*
X11630000Y-9660000D01*
X13695000Y-10740000D02*
X13695000Y-10535000D01*
X13405000Y-9240000D02*
X13465000Y-9240000D01*
D22*
X14880000Y-9000000D02*
X14880000Y-9170000D01*
D19*
X12800208Y-9215000D02*
X12890000Y-9215000D01*
D18*
X14867000Y-9757236D02*
X14867000Y-9653000D01*
D19*
X12628000Y-9746000D02*
X12640000Y-9758000D01*
D18*
X14817000Y-9585000D02*
X14701000Y-9585000D01*
D22*
X14380000Y-9190000D02*
X14380000Y-9030000D01*
D20*
X11825000Y-10180000D02*
X11785000Y-10180000D01*
D19*
X13184000Y-10256000D02*
X13145000Y-10295000D01*
D21*
X13470000Y-9915000D02*
X13465000Y-9920000D01*
D19*
X13310000Y-9520000D02*
X13330000Y-9540000D01*
D18*
X13655262Y-9364200D02*
X13783200Y-9492138D01*
X13783200Y-9492138D02*
X13783200Y-9763200D01*
X13415000Y-9180000D02*
X13480236Y-9180000D01*
D19*
X13570150Y-9282614D02*
X13570150Y-9330406D01*
X13155000Y-9440000D02*
X13415000Y-9180000D01*
D18*
X13480236Y-9180000D02*
X13576500Y-9276264D01*
D19*
X13648912Y-9357850D02*
X13655262Y-9364200D01*
D18*
X13783200Y-9763200D02*
X14390000Y-10370000D01*
D19*
X13597594Y-9357850D02*
X13648912Y-9357850D01*
X13110000Y-9440000D02*
X13155000Y-9440000D01*
X13570150Y-9330406D02*
X13597594Y-9357850D01*
X13576500Y-9276264D02*
X13570150Y-9282614D01*
X14476850Y-10164850D02*
X14475000Y-10163000D01*
X15150000Y-10038000D02*
X14970000Y-10038000D01*
X15215000Y-10094000D02*
X15206000Y-10094000D01*
X14475000Y-10163000D02*
X14441000Y-10163000D01*
X14970000Y-10038000D02*
X14863000Y-10145000D01*
X14441000Y-10163000D02*
X14384000Y-10106000D01*
X14843150Y-10164850D02*
X14476850Y-10164850D01*
X14863000Y-10145000D02*
X14843150Y-10164850D01*
X15206000Y-10094000D02*
X15150000Y-10038000D01*
D21*
X14856000Y-9993000D02*
X14843000Y-9993000D01*
X14939000Y-9941000D02*
X14898000Y-9982000D01*
X13913958Y-9586000D02*
X13638958Y-9311000D01*
X14813000Y-10023000D02*
X14813000Y-10058464D01*
X14693000Y-9993000D02*
X14693000Y-10057856D01*
X13638958Y-9311000D02*
X13617000Y-9311000D01*
X14693000Y-9988000D02*
X14693000Y-9993000D01*
X14603000Y-9993000D02*
X14410958Y-9993000D01*
X14753000Y-10023000D02*
X14753000Y-9988000D01*
X14753000Y-10058464D02*
X14753000Y-10023000D01*
X14870000Y-10007000D02*
X14856000Y-9993000D01*
X14410958Y-9993000D02*
X14003958Y-9586000D01*
X15196000Y-9914000D02*
X15169000Y-9941000D01*
X14003958Y-9586000D02*
X13913958Y-9586000D01*
X14898000Y-9982000D02*
X14898000Y-10007000D01*
X14898000Y-10007000D02*
X14870000Y-10007000D01*
X14633000Y-10057856D02*
X14633000Y-10023000D01*
X15169000Y-9941000D02*
X14939000Y-9941000D01*
X14748000Y-9983000D02*
X14698000Y-9983000D01*
X14783000Y-10088460D02*
G75*
G03*
X14813000Y-10058464I0J30000D01*
G01*
X14633000Y-10023000D02*
G75*
G03*
X14603000Y-9993000I-30000J0D01*
G01*
X14752996Y-10058464D02*
G75*
G03*
X14783000Y-10088464I30004J4D01*
G01*
X14698000Y-9983000D02*
G75*
G03*
X14693000Y-9988000I0J-5000D01*
G01*
X14663000Y-10087860D02*
G75*
G03*
X14693000Y-10057856I0J30000D01*
G01*
X14753000Y-9988000D02*
G75*
G03*
X14748000Y-9983000I-5000J0D01*
G01*
X14633004Y-10057856D02*
G75*
G03*
X14663000Y-10087856I29996J-5D01*
G01*
X14843000Y-9993000D02*
G75*
G03*
X14813000Y-10023000I0J-30000D01*
G01*
X13679000Y-9302958D02*
X13928042Y-9552000D01*
X13928042Y-9552000D02*
X14018042Y-9552000D01*
X14018042Y-9552000D02*
X14425042Y-9959000D01*
X14891000Y-9962000D02*
X14917000Y-9936000D01*
X13679000Y-9284000D02*
X13679000Y-9302958D01*
X14876360Y-9959000D02*
X14879360Y-9962000D01*
X14917000Y-9936000D02*
X14917000Y-9883000D01*
X14425042Y-9959000D02*
X14876360Y-9959000D01*
X14879360Y-9962000D02*
X14891000Y-9962000D01*
X13431000Y-9520000D02*
X13428000Y-9523000D01*
X13622000Y-9587000D02*
X13663000Y-9546000D01*
X13428000Y-9523000D02*
X13428000Y-9560640D01*
X13428000Y-9560640D02*
X13454360Y-9587000D01*
X13429000Y-9521000D02*
X13429000Y-9521000D01*
X13454360Y-9587000D02*
X13583000Y-9587000D01*
X13663000Y-9546000D02*
X13664000Y-9546000D01*
X13431000Y-9520000D02*
X13430000Y-9520000D01*
X13664000Y-9546000D02*
X13664000Y-9545000D01*
X13430000Y-9520000D02*
X13429000Y-9521000D01*
X13429000Y-9520000D02*
X13430000Y-9520000D01*
X13430000Y-9520000D02*
X13430000Y-9520000D01*
X13429000Y-9521000D02*
X13429000Y-9520000D01*
X13664000Y-9545000D02*
X13664000Y-9545000D01*
X13431000Y-9519000D02*
X13431000Y-9520000D01*
X13583000Y-9587000D02*
X13622000Y-9587000D01*
X13506000Y-9508000D02*
X13506000Y-9496000D01*
X13506000Y-9496000D02*
X13587000Y-9415000D01*
D19*
X12646000Y-9340000D02*
X12646000Y-9282744D01*
X12841000Y-9188000D02*
X12866000Y-9163000D01*
X12866000Y-9163000D02*
X12866000Y-9111300D01*
X12719000Y-9239000D02*
X12770000Y-9188000D01*
X12646000Y-9282744D02*
X12689744Y-9239000D01*
X12689744Y-9239000D02*
X12719000Y-9239000D01*
X12770000Y-9188000D02*
X12841000Y-9188000D01*
G04 #@! TA.AperFunction,Conductor*
G36*
X14150003Y-8941969D02*
G01*
X14154579Y-8947249D01*
X14155573Y-8954165D01*
X14152670Y-8960520D01*
X14151270Y-8961899D01*
X14149878Y-8963066D01*
X14149370Y-8963493D01*
X14149369Y-8963494D01*
X14143560Y-8973556D01*
X14143559Y-8973557D01*
X14141542Y-8985000D01*
X14141542Y-8985000D01*
X14142589Y-8990941D01*
X14141815Y-8997885D01*
X14137409Y-9003308D01*
X14130771Y-9005488D01*
X14124008Y-9003733D01*
X14122407Y-9002593D01*
X14121729Y-9002024D01*
X14121729Y-9002024D01*
X14110810Y-8998050D01*
X14099190Y-8998050D01*
X14088271Y-9002024D01*
X14081713Y-9007527D01*
X14079369Y-9009494D01*
X14079369Y-9009494D01*
X14073560Y-9019556D01*
X14073559Y-9019557D01*
X14071542Y-9031000D01*
X14071542Y-9031000D01*
X14073559Y-9042443D01*
X14073560Y-9042444D01*
X14079369Y-9052506D01*
X14079370Y-9052507D01*
X14083527Y-9055995D01*
X14088271Y-9059976D01*
X14099190Y-9063950D01*
X14099190Y-9063950D01*
X14110810Y-9063950D01*
X14110810Y-9063950D01*
X14121729Y-9059976D01*
X14130630Y-9052507D01*
X14136440Y-9042443D01*
X14138458Y-9031000D01*
X14137411Y-9025059D01*
X14138185Y-9018115D01*
X14142591Y-9012692D01*
X14149229Y-9010512D01*
X14155992Y-9012267D01*
X14157592Y-9013406D01*
X14158271Y-9013976D01*
X14169190Y-9017950D01*
X14169190Y-9017950D01*
X14180810Y-9017950D01*
X14180810Y-9017950D01*
X14191729Y-9013976D01*
X14200630Y-9006507D01*
X14206440Y-8996443D01*
X14208458Y-8985000D01*
X14208046Y-8982663D01*
X14207136Y-8977500D01*
X14206440Y-8973557D01*
X14200926Y-8964005D01*
X14200631Y-8963494D01*
X14200631Y-8963494D01*
X14200630Y-8963493D01*
X14198730Y-8961899D01*
X14194860Y-8956082D01*
X14194749Y-8949096D01*
X14198433Y-8943159D01*
X14204742Y-8940156D01*
X14206701Y-8940000D01*
X14614556Y-8940000D01*
X14621260Y-8941969D01*
X14625835Y-8947249D01*
X14626829Y-8954165D01*
X14623927Y-8960520D01*
X14619707Y-8963679D01*
X14618995Y-8964005D01*
X14606887Y-8971786D01*
X14597462Y-8982663D01*
X14597462Y-8982663D01*
X14591483Y-8995754D01*
X14589435Y-9010000D01*
X14591483Y-9024246D01*
X14594568Y-9031000D01*
X14597462Y-9037337D01*
X14606887Y-9048214D01*
X14618995Y-9055995D01*
X14618995Y-9055995D01*
X14618995Y-9055995D01*
X14632804Y-9060050D01*
X14632804Y-9060050D01*
X14632804Y-9060050D01*
X14647196Y-9060050D01*
X14647196Y-9060050D01*
X14661005Y-9055995D01*
X14673113Y-9048214D01*
X14682538Y-9037337D01*
X14688516Y-9024246D01*
X14690565Y-9010000D01*
X14688516Y-8995754D01*
X14682538Y-8982663D01*
X14673113Y-8971786D01*
X14661005Y-8964005D01*
X14661005Y-8964005D01*
X14661005Y-8964005D01*
X14660293Y-8963679D01*
X14655013Y-8959104D01*
X14653044Y-8952400D01*
X14655013Y-8945696D01*
X14660293Y-8941120D01*
X14665444Y-8940000D01*
X14828525Y-8940000D01*
X14831434Y-8940346D01*
X14928100Y-8963679D01*
X14956747Y-8970594D01*
X14962801Y-8974081D01*
X14966010Y-8980287D01*
X14965354Y-8987243D01*
X14965117Y-8987799D01*
X14961483Y-8995754D01*
X14959435Y-9010000D01*
X14961483Y-9024246D01*
X14964568Y-9031000D01*
X14967462Y-9037337D01*
X14976887Y-9048214D01*
X14988995Y-9055995D01*
X14988995Y-9055995D01*
X14988995Y-9055995D01*
X15002804Y-9060050D01*
X15002804Y-9060050D01*
X15002804Y-9060050D01*
X15017196Y-9060050D01*
X15017196Y-9060050D01*
X15031005Y-9055995D01*
X15043113Y-9048214D01*
X15052538Y-9037337D01*
X15058516Y-9024246D01*
X15060565Y-9010000D01*
X15060565Y-9010000D01*
X15060619Y-9009621D01*
X15063522Y-9003265D01*
X15069399Y-8999488D01*
X15075802Y-8999332D01*
X15111902Y-9008045D01*
X15114785Y-9009136D01*
X15126430Y-9015290D01*
X15128284Y-9016493D01*
X15249245Y-9111300D01*
X15258108Y-9118247D01*
X15262171Y-9123932D01*
X15262514Y-9130911D01*
X15259998Y-9135408D01*
X15261000Y-9469000D01*
X15263134Y-9471139D01*
X15266477Y-9477274D01*
X15265972Y-9484243D01*
X15263126Y-9488666D01*
X15252018Y-9499774D01*
X15242421Y-9515048D01*
X15236463Y-9532075D01*
X15236463Y-9532075D01*
X15234443Y-9550000D01*
X15234443Y-9550000D01*
X15236463Y-9567925D01*
X15236463Y-9567925D01*
X15242421Y-9584952D01*
X15251558Y-9599494D01*
X15252018Y-9600226D01*
X15264774Y-9612982D01*
X15280048Y-9622579D01*
X15282576Y-9623463D01*
X15297074Y-9628537D01*
X15297075Y-9628537D01*
X15306125Y-9629557D01*
X15310504Y-9630050D01*
X15310504Y-9630050D01*
X15310505Y-9630050D01*
X15389496Y-9630050D01*
X15389496Y-9630050D01*
X15396210Y-9629293D01*
X15402925Y-9628537D01*
X15402925Y-9628537D01*
X15402925Y-9628537D01*
X15419952Y-9622579D01*
X15435226Y-9612982D01*
X15447982Y-9600226D01*
X15447982Y-9600226D01*
X15448474Y-9599734D01*
X15448601Y-9599861D01*
X15453574Y-9596371D01*
X15460555Y-9596086D01*
X15466582Y-9599620D01*
X15469742Y-9605852D01*
X15469950Y-9608116D01*
X15469950Y-10191884D01*
X15467981Y-10198588D01*
X15462701Y-10203164D01*
X15455785Y-10204158D01*
X15449430Y-10201255D01*
X15448477Y-10200263D01*
X15448474Y-10200266D01*
X15435226Y-10187018D01*
X15419952Y-10177421D01*
X15402925Y-10171463D01*
X15402925Y-10171463D01*
X15389496Y-10169950D01*
X15389495Y-10169950D01*
X15310505Y-10169950D01*
X15310504Y-10169950D01*
X15297075Y-10171463D01*
X15297074Y-10171463D01*
X15280048Y-10177421D01*
X15264774Y-10187018D01*
X15252018Y-10199774D01*
X15242421Y-10215048D01*
X15236463Y-10232075D01*
X15236463Y-10232075D01*
X15234443Y-10250000D01*
X15234443Y-10250000D01*
X15236463Y-10267925D01*
X15236463Y-10267925D01*
X15242421Y-10284952D01*
X15247788Y-10293493D01*
X15252018Y-10300226D01*
X15264774Y-10312982D01*
X15280048Y-10322579D01*
X15291092Y-10326443D01*
X15297074Y-10328537D01*
X15297075Y-10328537D01*
X15306125Y-10329557D01*
X15310504Y-10330050D01*
X15310504Y-10330050D01*
X15310505Y-10330050D01*
X15389496Y-10330050D01*
X15389496Y-10330050D01*
X15396210Y-10329293D01*
X15402925Y-10328537D01*
X15402925Y-10328537D01*
X15402925Y-10328537D01*
X15419952Y-10322579D01*
X15435226Y-10312982D01*
X15437335Y-10310873D01*
X15443467Y-10307525D01*
X15450436Y-10308023D01*
X15456029Y-10312210D01*
X15458471Y-10318757D01*
X15458286Y-10321947D01*
X15453239Y-10348621D01*
X15453033Y-10349525D01*
X15443945Y-10383444D01*
X15443830Y-10383845D01*
X15436396Y-10408271D01*
X15436237Y-10408756D01*
X15423792Y-10444322D01*
X15423453Y-10445185D01*
X15403789Y-10490256D01*
X15403387Y-10491092D01*
X15381585Y-10532342D01*
X15380516Y-10534023D01*
X15281349Y-10665273D01*
X15280224Y-10666566D01*
X15256010Y-10690780D01*
X15255330Y-10691411D01*
X15218059Y-10723485D01*
X15217334Y-10724063D01*
X15177770Y-10753263D01*
X15177003Y-10753785D01*
X15135367Y-10779947D01*
X15134564Y-10780411D01*
X15091091Y-10803387D01*
X15090256Y-10803789D01*
X15045186Y-10823453D01*
X15044322Y-10823792D01*
X14997909Y-10840033D01*
X14997023Y-10840306D01*
X14949525Y-10853033D01*
X14948621Y-10853239D01*
X14900307Y-10862381D01*
X14899390Y-10862519D01*
X14874412Y-10865333D01*
X14867530Y-10864128D01*
X14862392Y-10859393D01*
X14860629Y-10852632D01*
X14862802Y-10845991D01*
X14866319Y-10842580D01*
X14873113Y-10838214D01*
X14882538Y-10827337D01*
X14888516Y-10814246D01*
X14890565Y-10800000D01*
X14888516Y-10785754D01*
X14882538Y-10772663D01*
X14873113Y-10761786D01*
X14861005Y-10754005D01*
X14861005Y-10754005D01*
X14861005Y-10754005D01*
X14861005Y-10754005D01*
X14847196Y-10749950D01*
X14847196Y-10749950D01*
X14832804Y-10749950D01*
X14832804Y-10749950D01*
X14818995Y-10754005D01*
X14806887Y-10761786D01*
X14797462Y-10772663D01*
X14797462Y-10772663D01*
X14791483Y-10785754D01*
X14789435Y-10800000D01*
X14791483Y-10814246D01*
X14795773Y-10823639D01*
X14797462Y-10827337D01*
X14806887Y-10838214D01*
X14818995Y-10845995D01*
X14819741Y-10846475D01*
X14819586Y-10846716D01*
X14823766Y-10850339D01*
X14825735Y-10857043D01*
X14823766Y-10863747D01*
X14818486Y-10868322D01*
X14813798Y-10869434D01*
X14800232Y-10869941D01*
X14799769Y-10869950D01*
X12500195Y-10869950D01*
X12499806Y-10869944D01*
X12439486Y-10868048D01*
X12438708Y-10867999D01*
X12378820Y-10862338D01*
X12378047Y-10862241D01*
X12340051Y-10856222D01*
X12339406Y-10856103D01*
X12252038Y-10837484D01*
X12251164Y-10837264D01*
X12200644Y-10822586D01*
X12199903Y-10822345D01*
X12143304Y-10801969D01*
X12142580Y-10801682D01*
X12138694Y-10800000D01*
X12794108Y-10800000D01*
X12795865Y-10811091D01*
X12800963Y-10821097D01*
X12808903Y-10829037D01*
X12818909Y-10834135D01*
X12830000Y-10835892D01*
X12830000Y-10835892D01*
X12830000Y-10835892D01*
X12841091Y-10834135D01*
X12841091Y-10834135D01*
X12841091Y-10834135D01*
X12851097Y-10829037D01*
X12859037Y-10821097D01*
X12864135Y-10811091D01*
X12864135Y-10811091D01*
X12864135Y-10811091D01*
X12865892Y-10800000D01*
X12865892Y-10800000D01*
X12864308Y-10790000D01*
X12944108Y-10790000D01*
X12945865Y-10801091D01*
X12950963Y-10811097D01*
X12958903Y-10819037D01*
X12968909Y-10824135D01*
X12980000Y-10825892D01*
X12980000Y-10825892D01*
X12980000Y-10825892D01*
X12991091Y-10824135D01*
X12991091Y-10824135D01*
X12991091Y-10824135D01*
X13001097Y-10819037D01*
X13009037Y-10811097D01*
X13014135Y-10801091D01*
X13014135Y-10801091D01*
X13014135Y-10801091D01*
X13015892Y-10790000D01*
X13015892Y-10790000D01*
X13014135Y-10778909D01*
X13009037Y-10768903D01*
X13001096Y-10760963D01*
X12991091Y-10755865D01*
X12980000Y-10754108D01*
X12980000Y-10754108D01*
X12968909Y-10755865D01*
X12958903Y-10760963D01*
X12950963Y-10768903D01*
X12945865Y-10778909D01*
X12944108Y-10790000D01*
X12944108Y-10790000D01*
X12864308Y-10790000D01*
X12864135Y-10788909D01*
X12859037Y-10778903D01*
X12851096Y-10770963D01*
X12841091Y-10765865D01*
X12830000Y-10764108D01*
X12830000Y-10764108D01*
X12818909Y-10765865D01*
X12808903Y-10770963D01*
X12800963Y-10778903D01*
X12795865Y-10788909D01*
X12794108Y-10800000D01*
X12794108Y-10800000D01*
X12138694Y-10800000D01*
X12137296Y-10799395D01*
X12135649Y-10798530D01*
X11930000Y-10670000D01*
X12759108Y-10670000D01*
X12760865Y-10681091D01*
X12765963Y-10691097D01*
X12773903Y-10699037D01*
X12783909Y-10704135D01*
X12795000Y-10705892D01*
X12795000Y-10705892D01*
X12795000Y-10705892D01*
X12806091Y-10704135D01*
X12806091Y-10704135D01*
X12806091Y-10704135D01*
X12816097Y-10699037D01*
X12824037Y-10691097D01*
X12829135Y-10681091D01*
X12829135Y-10681091D01*
X12829135Y-10681091D01*
X12830892Y-10670000D01*
X12830892Y-10670000D01*
X12829135Y-10658909D01*
X12824037Y-10648903D01*
X12816096Y-10640963D01*
X12806091Y-10635865D01*
X12795000Y-10634108D01*
X12795000Y-10634108D01*
X12783909Y-10635865D01*
X12773903Y-10640963D01*
X12765963Y-10648903D01*
X12760865Y-10658909D01*
X12759108Y-10670000D01*
X12759108Y-10670000D01*
X11930000Y-10670000D01*
X11853260Y-10622038D01*
X11851632Y-10620824D01*
X11836315Y-10607320D01*
X11835747Y-10606787D01*
X11793213Y-10564253D01*
X11792680Y-10563685D01*
X11767284Y-10534879D01*
X11766484Y-10533870D01*
X11702444Y-10443909D01*
X11660807Y-10385420D01*
X11660237Y-10384543D01*
X11654594Y-10375000D01*
X11714108Y-10375000D01*
X11715865Y-10386091D01*
X11720963Y-10396097D01*
X11728903Y-10404037D01*
X11738909Y-10409135D01*
X11750000Y-10410892D01*
X11750000Y-10410892D01*
X11750000Y-10410892D01*
X11761091Y-10409135D01*
X11761091Y-10409135D01*
X11761091Y-10409135D01*
X11771097Y-10404037D01*
X11779037Y-10396097D01*
X11784135Y-10386091D01*
X11784135Y-10386091D01*
X11784135Y-10386091D01*
X11785892Y-10375000D01*
X11785892Y-10375000D01*
X11784135Y-10363909D01*
X11779037Y-10353903D01*
X11771096Y-10345963D01*
X11761091Y-10340865D01*
X11750000Y-10339108D01*
X11750000Y-10339108D01*
X11738909Y-10340865D01*
X11728903Y-10345963D01*
X11720963Y-10353903D01*
X11715865Y-10363909D01*
X11714108Y-10375000D01*
X11714108Y-10375000D01*
X11654594Y-10375000D01*
X11650562Y-10368183D01*
X11650225Y-10367613D01*
X11649850Y-10366930D01*
X11636128Y-10340000D01*
X11622540Y-10313332D01*
X11622208Y-10312627D01*
X11621488Y-10310963D01*
X11598317Y-10257419D01*
X11598031Y-10256695D01*
X11597732Y-10255865D01*
X11592020Y-10240000D01*
X12564108Y-10240000D01*
X12565865Y-10251091D01*
X12570963Y-10261097D01*
X12578903Y-10269037D01*
X12588909Y-10274135D01*
X12600000Y-10275892D01*
X12600000Y-10275892D01*
X12600000Y-10275892D01*
X12611091Y-10274135D01*
X12611091Y-10274135D01*
X12611091Y-10274135D01*
X12621097Y-10269037D01*
X12629037Y-10261097D01*
X12634135Y-10251091D01*
X12634135Y-10251091D01*
X12634135Y-10251091D01*
X12635258Y-10244000D01*
X12971542Y-10244000D01*
X12973559Y-10255443D01*
X12973560Y-10255444D01*
X12979369Y-10265506D01*
X12979369Y-10265506D01*
X12979369Y-10265507D01*
X12988271Y-10272976D01*
X12991788Y-10274256D01*
X12997415Y-10278399D01*
X12999908Y-10284925D01*
X12998477Y-10291764D01*
X12997732Y-10292865D01*
X12991560Y-10303556D01*
X12991559Y-10303557D01*
X12989542Y-10315000D01*
X12989542Y-10315000D01*
X12991559Y-10326443D01*
X12991560Y-10326444D01*
X12997369Y-10336506D01*
X12997369Y-10336506D01*
X12997369Y-10336507D01*
X13006271Y-10343976D01*
X13017190Y-10347950D01*
X13017190Y-10347950D01*
X13028810Y-10347950D01*
X13028810Y-10347950D01*
X13039729Y-10343976D01*
X13048630Y-10336507D01*
X13054440Y-10326443D01*
X13056458Y-10315000D01*
X13056164Y-10313332D01*
X13055577Y-10310000D01*
X13054440Y-10303557D01*
X13048630Y-10293493D01*
X13048630Y-10293493D01*
X13048630Y-10293493D01*
X13039729Y-10286024D01*
X13036211Y-10284744D01*
X13030585Y-10280601D01*
X13028092Y-10274074D01*
X13029523Y-10267236D01*
X13030268Y-10266135D01*
X13030630Y-10265507D01*
X13030630Y-10265507D01*
X13036440Y-10255443D01*
X13038458Y-10244000D01*
X13038226Y-10242685D01*
X13037024Y-10235865D01*
X13036440Y-10232557D01*
X13033535Y-10227525D01*
X13030631Y-10222494D01*
X13030631Y-10222494D01*
X13030630Y-10222493D01*
X13030630Y-10222493D01*
X13030630Y-10222493D01*
X13023886Y-10216835D01*
X13021729Y-10215024D01*
X13010810Y-10211050D01*
X12999190Y-10211050D01*
X12988271Y-10215024D01*
X12983648Y-10218903D01*
X12979369Y-10222494D01*
X12979369Y-10222494D01*
X12973560Y-10232556D01*
X12973559Y-10232557D01*
X12971542Y-10244000D01*
X12971542Y-10244000D01*
X12635258Y-10244000D01*
X12635892Y-10240000D01*
X12635892Y-10240000D01*
X12634135Y-10228909D01*
X12629037Y-10218903D01*
X12621096Y-10210963D01*
X12611091Y-10205865D01*
X12600000Y-10204108D01*
X12600000Y-10204108D01*
X12588909Y-10205865D01*
X12578903Y-10210963D01*
X12570963Y-10218903D01*
X12565865Y-10228909D01*
X12564108Y-10240000D01*
X12564108Y-10240000D01*
X11592020Y-10240000D01*
X11578299Y-10201889D01*
X11577862Y-10200380D01*
X11563333Y-10135000D01*
X12659108Y-10135000D01*
X12660865Y-10146091D01*
X12665963Y-10156097D01*
X12673903Y-10164037D01*
X12683909Y-10169135D01*
X12695000Y-10170892D01*
X12695000Y-10170892D01*
X12695000Y-10170892D01*
X12706091Y-10169135D01*
X12706091Y-10169135D01*
X12706091Y-10169135D01*
X12716097Y-10164037D01*
X12724037Y-10156097D01*
X12729135Y-10146091D01*
X12729135Y-10146091D01*
X12729135Y-10146091D01*
X12730892Y-10135000D01*
X12730892Y-10135000D01*
X12729135Y-10123909D01*
X12724037Y-10113903D01*
X12716096Y-10105963D01*
X12706091Y-10100865D01*
X12695000Y-10099108D01*
X12695000Y-10099108D01*
X12683909Y-10100865D01*
X12673903Y-10105963D01*
X12665963Y-10113903D01*
X12660865Y-10123909D01*
X12659108Y-10135000D01*
X12659108Y-10135000D01*
X11563333Y-10135000D01*
X11559554Y-10117993D01*
X11560021Y-10111022D01*
X11564183Y-10105410D01*
X11570719Y-10102939D01*
X11571569Y-10102904D01*
X11699000Y-10102000D01*
X11699186Y-10030000D01*
X12732542Y-10030000D01*
X12734559Y-10041443D01*
X12734560Y-10041444D01*
X12740369Y-10051506D01*
X12740370Y-10051507D01*
X12743478Y-10054115D01*
X12749271Y-10058976D01*
X12760190Y-10062950D01*
X12760190Y-10062950D01*
X12761144Y-10063118D01*
X12767404Y-10066221D01*
X12770993Y-10072215D01*
X12770772Y-10079199D01*
X12769730Y-10081530D01*
X12768560Y-10083556D01*
X12768559Y-10083557D01*
X12766542Y-10095000D01*
X12766542Y-10095000D01*
X12768559Y-10106443D01*
X12768560Y-10106444D01*
X12774369Y-10116506D01*
X12774370Y-10116507D01*
X12778515Y-10119985D01*
X12783271Y-10123976D01*
X12794190Y-10127950D01*
X12794190Y-10127950D01*
X12805810Y-10127950D01*
X12805810Y-10127950D01*
X12816729Y-10123976D01*
X12825630Y-10116507D01*
X12831440Y-10106443D01*
X12833458Y-10095000D01*
X12832258Y-10088193D01*
X12832589Y-10085230D01*
X12831775Y-10084317D01*
X12831501Y-10083662D01*
X12831440Y-10083557D01*
X12831440Y-10083557D01*
X12826500Y-10075000D01*
X12825631Y-10073494D01*
X12825630Y-10073493D01*
X12816729Y-10066024D01*
X12816729Y-10066024D01*
X12805810Y-10062050D01*
X12805810Y-10062050D01*
X12804855Y-10061882D01*
X12798595Y-10058779D01*
X12795006Y-10052784D01*
X12795228Y-10045801D01*
X12796270Y-10043471D01*
X12797440Y-10041443D01*
X12799458Y-10030000D01*
X12797440Y-10018557D01*
X12793424Y-10011600D01*
X12791631Y-10008494D01*
X12791631Y-10008494D01*
X12791630Y-10008493D01*
X12791630Y-10008493D01*
X12791630Y-10008493D01*
X12782729Y-10001024D01*
X12782729Y-10001024D01*
X12782662Y-10001000D01*
X12836542Y-10001000D01*
X12838559Y-10012443D01*
X12838560Y-10012444D01*
X12844369Y-10022506D01*
X12844370Y-10022507D01*
X12853270Y-10029976D01*
X12853271Y-10029976D01*
X12853271Y-10029976D01*
X12854767Y-10030520D01*
X12860393Y-10034663D01*
X12862887Y-10041189D01*
X12861456Y-10048028D01*
X12861203Y-10048432D01*
X12855865Y-10058909D01*
X12854108Y-10070000D01*
X12854108Y-10070000D01*
X12855227Y-10077066D01*
X12854883Y-10079731D01*
X12855518Y-10080411D01*
X12855865Y-10081091D01*
X12855865Y-10081091D01*
X12856581Y-10082496D01*
X12860963Y-10091097D01*
X12868903Y-10099037D01*
X12878909Y-10104135D01*
X12890000Y-10105892D01*
X12890000Y-10105892D01*
X12890000Y-10105892D01*
X12901091Y-10104135D01*
X12901091Y-10104135D01*
X12901091Y-10104135D01*
X12907244Y-10101000D01*
X12979542Y-10101000D01*
X12981559Y-10112443D01*
X12981560Y-10112444D01*
X12987369Y-10122506D01*
X12987370Y-10122507D01*
X12989120Y-10123976D01*
X12996271Y-10129976D01*
X13007190Y-10133950D01*
X13007190Y-10133950D01*
X13018810Y-10133950D01*
X13018810Y-10133950D01*
X13029729Y-10129976D01*
X13038630Y-10122507D01*
X13044440Y-10112443D01*
X13046458Y-10101000D01*
X13046419Y-10100777D01*
X13044784Y-10091507D01*
X13044440Y-10089557D01*
X13040399Y-10082557D01*
X13038631Y-10079494D01*
X13038631Y-10079494D01*
X13038630Y-10079493D01*
X13038630Y-10079493D01*
X13038630Y-10079493D01*
X13029729Y-10072024D01*
X13029729Y-10072024D01*
X13018810Y-10068050D01*
X13007190Y-10068050D01*
X12996271Y-10072024D01*
X12991553Y-10075983D01*
X12987369Y-10079494D01*
X12987369Y-10079494D01*
X12981560Y-10089556D01*
X12981559Y-10089557D01*
X12979542Y-10101000D01*
X12979542Y-10101000D01*
X12907244Y-10101000D01*
X12911097Y-10099037D01*
X12919037Y-10091097D01*
X12924135Y-10081091D01*
X12924135Y-10081091D01*
X12924135Y-10081091D01*
X12925892Y-10070000D01*
X12925892Y-10070000D01*
X12924135Y-10058909D01*
X12919037Y-10048903D01*
X12911096Y-10040963D01*
X12902555Y-10036611D01*
X12897476Y-10031813D01*
X12895796Y-10025031D01*
X12897446Y-10019362D01*
X12897667Y-10018978D01*
X12901440Y-10012443D01*
X12901486Y-10012187D01*
X12901667Y-10011821D01*
X12901811Y-10011424D01*
X12901856Y-10011440D01*
X12904588Y-10005927D01*
X12910582Y-10002337D01*
X12917566Y-10002558D01*
X12920294Y-10003840D01*
X12934851Y-10012987D01*
X12951974Y-10018978D01*
X12970000Y-10021009D01*
X12970000Y-10021009D01*
X12988026Y-10018978D01*
X13005149Y-10012987D01*
X13006673Y-10012029D01*
X13006673Y-10012029D01*
X13053326Y-10012029D01*
X13054851Y-10012987D01*
X13054852Y-10012987D01*
X13071974Y-10018978D01*
X13090000Y-10021009D01*
X13090000Y-10021009D01*
X13108026Y-10018978D01*
X13125149Y-10012987D01*
X13126673Y-10012029D01*
X13126673Y-10012029D01*
X13090000Y-9975355D01*
X13090000Y-9975355D01*
X13053326Y-10012029D01*
X13006673Y-10012029D01*
X12934645Y-9940000D01*
X12954212Y-9940000D01*
X12956327Y-9947894D01*
X12962106Y-9953673D01*
X12967992Y-9955250D01*
X12972008Y-9955250D01*
X12977894Y-9953673D01*
X12983673Y-9947894D01*
X12985788Y-9940000D01*
X12983673Y-9932106D01*
X12977894Y-9926327D01*
X12972008Y-9924750D01*
X12967992Y-9924750D01*
X12962106Y-9926327D01*
X12956327Y-9932106D01*
X12954212Y-9940000D01*
X12934645Y-9940000D01*
X12897971Y-9903326D01*
X12897971Y-9903326D01*
X12897013Y-9904851D01*
X12897013Y-9904852D01*
X12891021Y-9921974D01*
X12888991Y-9940000D01*
X12888991Y-9940000D01*
X12890625Y-9954510D01*
X12889420Y-9961392D01*
X12884685Y-9966530D01*
X12877924Y-9968293D01*
X12876151Y-9968110D01*
X12875810Y-9968050D01*
X12875810Y-9968050D01*
X12864190Y-9968050D01*
X12853271Y-9972024D01*
X12845561Y-9978494D01*
X12844369Y-9979494D01*
X12844369Y-9979494D01*
X12838560Y-9989556D01*
X12838559Y-9989557D01*
X12836542Y-10001000D01*
X12836542Y-10001000D01*
X12782662Y-10001000D01*
X12771810Y-9997050D01*
X12760190Y-9997050D01*
X12749271Y-10001024D01*
X12740856Y-10008085D01*
X12740369Y-10008494D01*
X12740369Y-10008494D01*
X12734560Y-10018556D01*
X12734559Y-10018557D01*
X12732542Y-10030000D01*
X12732542Y-10030000D01*
X11699186Y-10030000D01*
X11699664Y-9845000D01*
X12196542Y-9845000D01*
X12198559Y-9856443D01*
X12198560Y-9856444D01*
X12204369Y-9866506D01*
X12204369Y-9866506D01*
X12204369Y-9866507D01*
X12213271Y-9873976D01*
X12224190Y-9877950D01*
X12224190Y-9877950D01*
X12235810Y-9877950D01*
X12235810Y-9877950D01*
X12246729Y-9873976D01*
X12255630Y-9866507D01*
X12261440Y-9856443D01*
X12263458Y-9845000D01*
X12451542Y-9845000D01*
X12453559Y-9856443D01*
X12453560Y-9856444D01*
X12459369Y-9866506D01*
X12459369Y-9866506D01*
X12459369Y-9866507D01*
X12468271Y-9873976D01*
X12479190Y-9877950D01*
X12479190Y-9877950D01*
X12490810Y-9877950D01*
X12490810Y-9877950D01*
X12501729Y-9873976D01*
X12510630Y-9866507D01*
X12516440Y-9856443D01*
X12518458Y-9845000D01*
X12516440Y-9833557D01*
X12510630Y-9823493D01*
X12510630Y-9823493D01*
X12510630Y-9823493D01*
X12501729Y-9816024D01*
X12501729Y-9816024D01*
X12490810Y-9812050D01*
X12479190Y-9812050D01*
X12470616Y-9815171D01*
X12468271Y-9816024D01*
X12459369Y-9823494D01*
X12459369Y-9823494D01*
X12453560Y-9833556D01*
X12453559Y-9833557D01*
X12451542Y-9845000D01*
X12451542Y-9845000D01*
X12263458Y-9845000D01*
X12261440Y-9833557D01*
X12255630Y-9823493D01*
X12255630Y-9823493D01*
X12255630Y-9823493D01*
X12246729Y-9816024D01*
X12246729Y-9816024D01*
X12235810Y-9812050D01*
X12224190Y-9812050D01*
X12215616Y-9815171D01*
X12213271Y-9816024D01*
X12204369Y-9823494D01*
X12204369Y-9823494D01*
X12198560Y-9833556D01*
X12198559Y-9833557D01*
X12196542Y-9845000D01*
X12196542Y-9845000D01*
X11699664Y-9845000D01*
X11699771Y-9803728D01*
X12660295Y-9803728D01*
X12662312Y-9815171D01*
X12662312Y-9815171D01*
X12668122Y-9825234D01*
X12668122Y-9825234D01*
X12668122Y-9825234D01*
X12677024Y-9832703D01*
X12687943Y-9836678D01*
X12687943Y-9836678D01*
X12699563Y-9836678D01*
X12699563Y-9836678D01*
X12710482Y-9832703D01*
X12719383Y-9825234D01*
X12720765Y-9822840D01*
X12725822Y-9818019D01*
X12732682Y-9816697D01*
X12739169Y-9819293D01*
X12741003Y-9821069D01*
X12741369Y-9821507D01*
X12741369Y-9821507D01*
X12750271Y-9828976D01*
X12761190Y-9832950D01*
X12761190Y-9832950D01*
X12772810Y-9832950D01*
X12772810Y-9832950D01*
X12783729Y-9828976D01*
X12783729Y-9828976D01*
X12784749Y-9828605D01*
X12784791Y-9828721D01*
X12790510Y-9827333D01*
X12797113Y-9829618D01*
X12801432Y-9835110D01*
X12802097Y-9842066D01*
X12800660Y-9845919D01*
X12798560Y-9849557D01*
X12798559Y-9849557D01*
X12796542Y-9861000D01*
X12796542Y-9861000D01*
X12797530Y-9866604D01*
X12796755Y-9873548D01*
X12792350Y-9878971D01*
X12785712Y-9881151D01*
X12778949Y-9879396D01*
X12777348Y-9878256D01*
X12771737Y-9873548D01*
X12768729Y-9871024D01*
X12757810Y-9867050D01*
X12746190Y-9867050D01*
X12742050Y-9868557D01*
X12735271Y-9871024D01*
X12726369Y-9878494D01*
X12726369Y-9878494D01*
X12720560Y-9888556D01*
X12720559Y-9888557D01*
X12718542Y-9900000D01*
X12718542Y-9900000D01*
X12720559Y-9911443D01*
X12720560Y-9911444D01*
X12726369Y-9921506D01*
X12726369Y-9921506D01*
X12726369Y-9921507D01*
X12735271Y-9928976D01*
X12746190Y-9932950D01*
X12746190Y-9932950D01*
X12757810Y-9932950D01*
X12757810Y-9932950D01*
X12768729Y-9928976D01*
X12777630Y-9921507D01*
X12783440Y-9911443D01*
X12785458Y-9900000D01*
X12784470Y-9894396D01*
X12785244Y-9887452D01*
X12789650Y-9882029D01*
X12796288Y-9879849D01*
X12803051Y-9881604D01*
X12804652Y-9882744D01*
X12813271Y-9889976D01*
X12824190Y-9893950D01*
X12824190Y-9893950D01*
X12835810Y-9893950D01*
X12835810Y-9893950D01*
X12846729Y-9889976D01*
X12855630Y-9882507D01*
X12861440Y-9872443D01*
X12863458Y-9861000D01*
X12861440Y-9849557D01*
X12855630Y-9839493D01*
X12855630Y-9839493D01*
X12855630Y-9839493D01*
X12847538Y-9832703D01*
X12846729Y-9832024D01*
X12835810Y-9828050D01*
X12824190Y-9828050D01*
X12813271Y-9832024D01*
X12813271Y-9832024D01*
X12812251Y-9832395D01*
X12812209Y-9832279D01*
X12806487Y-9833667D01*
X12799885Y-9831381D01*
X12795567Y-9825888D01*
X12794903Y-9818933D01*
X12796340Y-9815081D01*
X12798440Y-9811443D01*
X12799277Y-9806700D01*
X12888991Y-9806700D01*
X12891021Y-9824726D01*
X12897013Y-9841849D01*
X12897971Y-9843373D01*
X12897971Y-9843374D01*
X12934645Y-9806700D01*
X12954212Y-9806700D01*
X12956327Y-9814594D01*
X12962106Y-9820373D01*
X12967992Y-9821950D01*
X12972008Y-9821950D01*
X12977894Y-9820373D01*
X12983673Y-9814594D01*
X12985788Y-9806700D01*
X12983673Y-9798806D01*
X12977894Y-9793027D01*
X12972008Y-9791450D01*
X12967992Y-9791450D01*
X12962106Y-9793027D01*
X12956327Y-9798806D01*
X12954212Y-9806700D01*
X12934645Y-9806700D01*
X12897971Y-9770026D01*
X12897971Y-9770026D01*
X12897013Y-9771551D01*
X12897013Y-9771552D01*
X12891021Y-9788674D01*
X12888991Y-9806700D01*
X12888991Y-9806700D01*
X12799277Y-9806700D01*
X12800458Y-9800000D01*
X12798440Y-9788557D01*
X12798440Y-9788557D01*
X12798252Y-9787488D01*
X12798442Y-9787455D01*
X12798084Y-9781824D01*
X12801481Y-9775719D01*
X12805938Y-9772903D01*
X12816729Y-9768976D01*
X12825630Y-9761507D01*
X12831440Y-9751443D01*
X12833458Y-9740000D01*
X12833193Y-9738493D01*
X12831873Y-9731011D01*
X12831440Y-9728557D01*
X12825630Y-9718493D01*
X12825630Y-9718493D01*
X12825630Y-9718493D01*
X12816729Y-9711024D01*
X12816729Y-9711024D01*
X12805810Y-9707050D01*
X12794190Y-9707050D01*
X12787307Y-9709555D01*
X12783271Y-9711024D01*
X12774369Y-9718494D01*
X12774369Y-9718494D01*
X12768560Y-9728556D01*
X12768559Y-9728557D01*
X12766796Y-9738557D01*
X12766542Y-9740000D01*
X12768559Y-9751443D01*
X12768748Y-9752512D01*
X12768558Y-9752545D01*
X12768915Y-9758178D01*
X12765517Y-9764283D01*
X12761061Y-9767097D01*
X12750271Y-9771024D01*
X12750271Y-9771024D01*
X12743178Y-9776976D01*
X12741369Y-9778494D01*
X12739987Y-9780887D01*
X12734931Y-9785709D01*
X12728070Y-9787031D01*
X12721584Y-9784434D01*
X12719750Y-9782658D01*
X12719383Y-9782221D01*
X12713465Y-9777255D01*
X12710482Y-9774752D01*
X12699563Y-9770778D01*
X12687943Y-9770778D01*
X12677024Y-9774752D01*
X12668595Y-9781824D01*
X12668122Y-9782221D01*
X12668122Y-9782221D01*
X12662312Y-9792284D01*
X12662312Y-9792284D01*
X12660295Y-9803727D01*
X12660295Y-9803728D01*
X11699771Y-9803728D01*
X11699910Y-9750000D01*
X12280542Y-9750000D01*
X12282559Y-9761443D01*
X12282560Y-9761444D01*
X12288369Y-9771506D01*
X12288370Y-9771507D01*
X12292025Y-9774574D01*
X12297271Y-9778976D01*
X12308190Y-9782950D01*
X12308190Y-9782950D01*
X12319810Y-9782950D01*
X12319810Y-9782950D01*
X12330729Y-9778976D01*
X12339630Y-9771507D01*
X12345440Y-9761443D01*
X12347458Y-9750000D01*
X12347369Y-9749496D01*
X12346419Y-9744108D01*
X12345440Y-9738557D01*
X12340842Y-9730592D01*
X12339631Y-9728494D01*
X12339631Y-9728494D01*
X12339630Y-9728493D01*
X12339630Y-9728493D01*
X12339630Y-9728493D01*
X12330729Y-9721024D01*
X12330729Y-9721024D01*
X12319810Y-9717050D01*
X12308190Y-9717050D01*
X12297271Y-9721024D01*
X12288369Y-9728494D01*
X12288369Y-9728494D01*
X12282560Y-9738556D01*
X12282559Y-9738557D01*
X12280542Y-9750000D01*
X12280542Y-9750000D01*
X11699910Y-9750000D01*
X11700000Y-9715000D01*
X11574133Y-9715000D01*
X11567430Y-9713032D01*
X11562854Y-9707751D01*
X11561860Y-9700835D01*
X11561919Y-9700463D01*
X11565668Y-9679037D01*
X11566900Y-9672000D01*
X12486542Y-9672000D01*
X12488559Y-9683443D01*
X12488560Y-9683444D01*
X12494369Y-9693506D01*
X12494370Y-9693507D01*
X12498820Y-9697241D01*
X12503271Y-9700976D01*
X12514190Y-9704950D01*
X12514190Y-9704950D01*
X12525810Y-9704950D01*
X12525810Y-9704950D01*
X12536729Y-9700976D01*
X12545630Y-9693507D01*
X12551440Y-9683443D01*
X12552048Y-9680000D01*
X12836542Y-9680000D01*
X12838559Y-9691443D01*
X12838560Y-9691444D01*
X12844369Y-9701506D01*
X12844370Y-9701507D01*
X12848473Y-9704950D01*
X12853271Y-9708976D01*
X12864190Y-9712950D01*
X12864190Y-9712950D01*
X12875810Y-9712950D01*
X12875810Y-9712950D01*
X12885957Y-9709257D01*
X12892929Y-9708814D01*
X12894262Y-9709555D01*
X12897971Y-9709974D01*
X12934645Y-9673300D01*
X12954212Y-9673300D01*
X12956327Y-9681194D01*
X12962106Y-9686973D01*
X12967992Y-9688550D01*
X12972008Y-9688550D01*
X12977894Y-9686973D01*
X12983673Y-9681194D01*
X12985788Y-9673300D01*
X12983673Y-9665406D01*
X12977894Y-9659627D01*
X12972008Y-9658050D01*
X12967992Y-9658050D01*
X12962106Y-9659627D01*
X12956327Y-9665406D01*
X12954212Y-9673300D01*
X12934645Y-9673300D01*
X12897971Y-9636626D01*
X12897971Y-9636626D01*
X12897013Y-9638151D01*
X12896002Y-9641039D01*
X12891930Y-9646717D01*
X12885435Y-9649292D01*
X12880057Y-9648596D01*
X12875810Y-9647050D01*
X12875810Y-9647050D01*
X12875810Y-9647050D01*
X12864190Y-9647050D01*
X12854908Y-9650429D01*
X12853271Y-9651024D01*
X12844369Y-9658494D01*
X12844369Y-9658494D01*
X12838560Y-9668556D01*
X12838559Y-9668557D01*
X12836542Y-9680000D01*
X12836542Y-9680000D01*
X12552048Y-9680000D01*
X12553458Y-9672000D01*
X12551440Y-9660557D01*
X12545630Y-9650493D01*
X12545630Y-9650493D01*
X12545630Y-9650493D01*
X12536729Y-9643024D01*
X12536729Y-9643024D01*
X12525810Y-9639050D01*
X12514190Y-9639050D01*
X12503271Y-9643024D01*
X12494447Y-9650429D01*
X12494369Y-9650494D01*
X12494369Y-9650494D01*
X12488560Y-9660556D01*
X12488559Y-9660557D01*
X12486542Y-9672000D01*
X12486542Y-9672000D01*
X11566900Y-9672000D01*
X11576000Y-9620000D01*
X12766542Y-9620000D01*
X12768559Y-9631443D01*
X12768560Y-9631444D01*
X12774369Y-9641506D01*
X12774370Y-9641507D01*
X12777929Y-9644493D01*
X12783271Y-9648976D01*
X12794190Y-9652950D01*
X12794190Y-9652950D01*
X12805810Y-9652950D01*
X12805810Y-9652950D01*
X12816729Y-9648976D01*
X12825630Y-9641507D01*
X12831440Y-9631443D01*
X12833458Y-9620000D01*
X12831440Y-9608557D01*
X12827531Y-9601786D01*
X12825631Y-9598494D01*
X12825631Y-9598494D01*
X12825630Y-9598493D01*
X12825630Y-9598493D01*
X12825630Y-9598493D01*
X12818954Y-9592892D01*
X12816729Y-9591024D01*
X12805810Y-9587050D01*
X12794190Y-9587050D01*
X12783271Y-9591024D01*
X12775892Y-9597216D01*
X12774369Y-9598494D01*
X12774369Y-9598494D01*
X12768560Y-9608556D01*
X12768559Y-9608557D01*
X12766542Y-9620000D01*
X12766542Y-9620000D01*
X11576000Y-9620000D01*
X11581094Y-9590889D01*
X11581641Y-9588831D01*
X11598032Y-9543303D01*
X11598317Y-9542582D01*
X11605926Y-9525000D01*
X11956542Y-9525000D01*
X11958559Y-9536443D01*
X11958560Y-9536444D01*
X11964369Y-9546506D01*
X11964370Y-9546507D01*
X11966812Y-9548556D01*
X11973271Y-9553976D01*
X11984190Y-9557950D01*
X11984190Y-9557950D01*
X11995810Y-9557950D01*
X11995810Y-9557950D01*
X12006729Y-9553976D01*
X12015630Y-9546507D01*
X12021440Y-9536443D01*
X12023458Y-9525000D01*
X12023458Y-9525000D01*
X12022753Y-9521000D01*
X12058108Y-9521000D01*
X12059865Y-9532091D01*
X12064963Y-9542097D01*
X12072903Y-9550037D01*
X12082909Y-9555135D01*
X12094000Y-9556892D01*
X12094000Y-9556892D01*
X12094000Y-9556892D01*
X12105091Y-9555135D01*
X12105091Y-9555135D01*
X12105091Y-9555135D01*
X12115097Y-9550037D01*
X12123037Y-9542097D01*
X12124105Y-9540000D01*
X12703542Y-9540000D01*
X12705559Y-9551443D01*
X12705560Y-9551444D01*
X12711369Y-9561506D01*
X12711370Y-9561507D01*
X12712494Y-9562450D01*
X12720271Y-9568976D01*
X12731190Y-9572950D01*
X12731190Y-9572950D01*
X12742810Y-9572950D01*
X12742810Y-9572950D01*
X12753729Y-9568976D01*
X12762630Y-9561507D01*
X12763500Y-9560000D01*
X12836542Y-9560000D01*
X12838559Y-9571443D01*
X12838560Y-9571444D01*
X12844369Y-9581506D01*
X12844369Y-9581506D01*
X12844369Y-9581507D01*
X12844370Y-9581507D01*
X12847531Y-9584160D01*
X12853271Y-9588976D01*
X12864190Y-9592950D01*
X12864190Y-9592950D01*
X12875810Y-9592950D01*
X12875810Y-9592950D01*
X12886729Y-9588976D01*
X12895630Y-9581507D01*
X12898219Y-9577023D01*
X12900190Y-9574455D01*
X12934644Y-9540000D01*
X12954212Y-9540000D01*
X12956327Y-9547894D01*
X12962106Y-9553673D01*
X12967992Y-9555250D01*
X12972008Y-9555250D01*
X12977894Y-9553673D01*
X12983673Y-9547894D01*
X12985788Y-9540000D01*
X12983673Y-9532106D01*
X12977894Y-9526327D01*
X12972008Y-9524750D01*
X12967992Y-9524750D01*
X12962106Y-9526327D01*
X12956327Y-9532106D01*
X12954212Y-9540000D01*
X12934644Y-9540000D01*
X12934645Y-9540000D01*
X12897971Y-9503326D01*
X12897971Y-9503326D01*
X12897013Y-9504851D01*
X12897013Y-9504852D01*
X12891874Y-9519537D01*
X12887802Y-9525214D01*
X12881307Y-9527789D01*
X12876882Y-9527217D01*
X12876878Y-9527238D01*
X12876407Y-9527155D01*
X12875930Y-9527094D01*
X12875810Y-9527050D01*
X12864190Y-9527050D01*
X12853271Y-9531024D01*
X12844483Y-9538398D01*
X12844369Y-9538494D01*
X12844369Y-9538494D01*
X12838560Y-9548556D01*
X12838559Y-9548557D01*
X12836542Y-9560000D01*
X12836542Y-9560000D01*
X12763500Y-9560000D01*
X12768440Y-9551443D01*
X12770458Y-9540000D01*
X12770193Y-9538493D01*
X12769498Y-9534557D01*
X12768440Y-9528557D01*
X12765065Y-9522711D01*
X12762631Y-9518494D01*
X12762631Y-9518494D01*
X12762630Y-9518493D01*
X12762630Y-9518493D01*
X12762630Y-9518493D01*
X12753729Y-9511024D01*
X12753729Y-9511024D01*
X12742810Y-9507050D01*
X12731190Y-9507050D01*
X12720271Y-9511024D01*
X12712748Y-9517337D01*
X12711369Y-9518494D01*
X12711369Y-9518494D01*
X12705560Y-9528556D01*
X12705559Y-9528557D01*
X12703542Y-9540000D01*
X12703542Y-9540000D01*
X12124105Y-9540000D01*
X12128135Y-9532091D01*
X12128135Y-9532091D01*
X12128135Y-9532091D01*
X12129892Y-9521000D01*
X12129892Y-9521000D01*
X12128135Y-9509909D01*
X12123037Y-9499903D01*
X12115096Y-9491963D01*
X12105091Y-9486865D01*
X12094000Y-9485108D01*
X12094000Y-9485108D01*
X12082909Y-9486865D01*
X12072903Y-9491963D01*
X12064963Y-9499903D01*
X12059865Y-9509909D01*
X12058108Y-9521000D01*
X12058108Y-9521000D01*
X12022753Y-9521000D01*
X12022478Y-9519443D01*
X12021440Y-9513557D01*
X12016907Y-9505704D01*
X12015631Y-9503494D01*
X12015631Y-9503494D01*
X12015630Y-9503493D01*
X12015630Y-9503493D01*
X12015630Y-9503493D01*
X12006729Y-9496024D01*
X12006729Y-9496024D01*
X11995810Y-9492050D01*
X11984190Y-9492050D01*
X11973271Y-9496024D01*
X11964745Y-9503179D01*
X11964369Y-9503494D01*
X11964369Y-9503494D01*
X11958560Y-9513556D01*
X11958559Y-9513557D01*
X11956542Y-9525000D01*
X11956542Y-9525000D01*
X11605926Y-9525000D01*
X11620064Y-9492327D01*
X11620938Y-9490666D01*
X11641424Y-9458000D01*
X12760542Y-9458000D01*
X12762559Y-9469443D01*
X12762560Y-9469444D01*
X12768369Y-9479506D01*
X12768369Y-9479506D01*
X12768369Y-9479507D01*
X12777271Y-9486976D01*
X12788190Y-9490950D01*
X12788190Y-9490950D01*
X12799810Y-9490950D01*
X12799810Y-9490950D01*
X12810729Y-9486976D01*
X12819630Y-9479507D01*
X12825440Y-9469443D01*
X12827458Y-9458000D01*
X12825440Y-9446557D01*
X12821156Y-9439135D01*
X12819631Y-9436494D01*
X12819631Y-9436494D01*
X12819630Y-9436493D01*
X12819630Y-9436493D01*
X12819630Y-9436493D01*
X12810861Y-9429135D01*
X12810729Y-9429024D01*
X12799810Y-9425050D01*
X12788190Y-9425050D01*
X12778557Y-9428556D01*
X12777271Y-9429024D01*
X12768369Y-9436494D01*
X12768369Y-9436494D01*
X12762560Y-9446556D01*
X12762559Y-9446557D01*
X12760542Y-9458000D01*
X12760542Y-9458000D01*
X11641424Y-9458000D01*
X11674661Y-9405000D01*
X12175108Y-9405000D01*
X12176865Y-9416091D01*
X12181963Y-9426097D01*
X12189903Y-9434037D01*
X12199909Y-9439135D01*
X12211000Y-9440892D01*
X12211000Y-9440892D01*
X12211000Y-9440892D01*
X12222091Y-9439135D01*
X12222091Y-9439135D01*
X12222091Y-9439135D01*
X12232097Y-9434037D01*
X12240037Y-9426097D01*
X12245135Y-9416091D01*
X12245135Y-9416091D01*
X12245135Y-9416091D01*
X12246892Y-9405000D01*
X12246892Y-9405000D01*
X12245308Y-9395000D01*
X12413108Y-9395000D01*
X12414865Y-9406091D01*
X12419963Y-9416097D01*
X12427903Y-9424037D01*
X12437909Y-9429135D01*
X12449000Y-9430892D01*
X12449000Y-9430892D01*
X12449000Y-9430892D01*
X12460091Y-9429135D01*
X12460091Y-9429135D01*
X12460091Y-9429135D01*
X12470097Y-9424037D01*
X12478037Y-9416097D01*
X12483135Y-9406091D01*
X12483135Y-9406091D01*
X12483135Y-9406091D01*
X12484892Y-9395000D01*
X12484892Y-9395000D01*
X12483135Y-9383909D01*
X12478037Y-9373903D01*
X12470096Y-9365963D01*
X12460091Y-9360865D01*
X12449000Y-9359108D01*
X12449000Y-9359108D01*
X12437909Y-9360865D01*
X12427903Y-9365963D01*
X12419963Y-9373903D01*
X12414865Y-9383909D01*
X12413108Y-9395000D01*
X12413108Y-9395000D01*
X12245308Y-9395000D01*
X12245135Y-9393909D01*
X12240037Y-9383903D01*
X12232096Y-9375963D01*
X12222091Y-9370865D01*
X12211000Y-9369108D01*
X12211000Y-9369108D01*
X12199909Y-9370865D01*
X12189903Y-9375963D01*
X12181963Y-9383903D01*
X12176865Y-9393909D01*
X12175108Y-9405000D01*
X12175108Y-9405000D01*
X11674661Y-9405000D01*
X11727966Y-9320000D01*
X12219108Y-9320000D01*
X12220865Y-9331091D01*
X12225963Y-9341097D01*
X12233903Y-9349037D01*
X12243909Y-9354135D01*
X12255000Y-9355892D01*
X12255000Y-9355892D01*
X12255000Y-9355892D01*
X12266091Y-9354135D01*
X12266091Y-9354135D01*
X12266091Y-9354135D01*
X12276097Y-9349037D01*
X12284037Y-9341097D01*
X12284596Y-9340000D01*
X12612542Y-9340000D01*
X12614559Y-9351443D01*
X12614560Y-9351444D01*
X12620369Y-9361506D01*
X12620370Y-9361507D01*
X12624603Y-9365059D01*
X12629271Y-9368976D01*
X12640190Y-9372950D01*
X12640190Y-9372950D01*
X12651810Y-9372950D01*
X12651810Y-9372950D01*
X12662729Y-9368976D01*
X12671630Y-9361507D01*
X12677440Y-9351443D01*
X12679458Y-9340000D01*
X12677440Y-9328557D01*
X12674061Y-9322703D01*
X12672400Y-9316504D01*
X12672400Y-9298815D01*
X12674368Y-9292112D01*
X12676032Y-9290047D01*
X12697047Y-9269032D01*
X12703180Y-9265683D01*
X12705815Y-9265400D01*
X12715179Y-9265400D01*
X12717598Y-9265638D01*
X12719000Y-9265917D01*
X12729301Y-9263868D01*
X12735829Y-9259506D01*
X12735829Y-9259506D01*
X12736927Y-9258772D01*
X12738033Y-9258033D01*
X12738828Y-9256845D01*
X12740369Y-9254966D01*
X12777303Y-9218032D01*
X12783436Y-9214683D01*
X12786071Y-9214400D01*
X12794386Y-9214400D01*
X12801090Y-9216369D01*
X12805665Y-9221649D01*
X12806660Y-9228565D01*
X12803757Y-9234920D01*
X12800015Y-9237849D01*
X12793903Y-9240963D01*
X12785963Y-9248903D01*
X12780865Y-9258909D01*
X12779108Y-9270000D01*
X12779108Y-9270000D01*
X12780793Y-9280636D01*
X12779897Y-9287565D01*
X12775397Y-9292911D01*
X12770485Y-9294823D01*
X12763909Y-9295865D01*
X12753903Y-9300963D01*
X12745963Y-9308903D01*
X12740865Y-9318909D01*
X12739108Y-9330000D01*
X12739108Y-9330000D01*
X12740865Y-9341091D01*
X12745963Y-9351097D01*
X12753903Y-9359037D01*
X12763909Y-9364135D01*
X12775000Y-9365892D01*
X12775000Y-9365892D01*
X12775000Y-9365892D01*
X12786091Y-9364135D01*
X12786091Y-9364135D01*
X12786091Y-9364135D01*
X12796097Y-9359037D01*
X12804037Y-9351097D01*
X12809135Y-9341091D01*
X12809135Y-9341091D01*
X12809135Y-9341091D01*
X12810417Y-9333000D01*
X12866542Y-9333000D01*
X12868559Y-9344443D01*
X12868560Y-9344444D01*
X12874369Y-9354506D01*
X12874369Y-9354506D01*
X12874369Y-9354507D01*
X12883271Y-9361976D01*
X12894190Y-9365950D01*
X12894190Y-9365950D01*
X12905810Y-9365950D01*
X12905810Y-9365950D01*
X12915432Y-9362448D01*
X12922405Y-9362004D01*
X12928511Y-9365401D01*
X12931810Y-9371560D01*
X12931885Y-9371947D01*
X12933559Y-9381443D01*
X12933560Y-9381444D01*
X12939912Y-9392446D01*
X12939706Y-9392565D01*
X12941907Y-9397593D01*
X12940802Y-9404492D01*
X12936143Y-9409699D01*
X12933848Y-9410814D01*
X12933271Y-9411024D01*
X12931622Y-9412408D01*
X12925631Y-9417435D01*
X12924369Y-9418494D01*
X12924369Y-9418494D01*
X12918560Y-9428556D01*
X12918559Y-9428557D01*
X12916542Y-9440000D01*
X12916542Y-9440000D01*
X12918559Y-9451443D01*
X12918560Y-9451444D01*
X12924369Y-9461506D01*
X12924370Y-9461507D01*
X12933271Y-9468976D01*
X12934210Y-9469518D01*
X12934081Y-9469742D01*
X12936881Y-9471526D01*
X12996587Y-9531232D01*
X12999936Y-9537364D01*
X12999437Y-9544333D01*
X12996587Y-9548768D01*
X12938705Y-9606650D01*
X12996587Y-9664532D01*
X12999936Y-9670664D01*
X12999437Y-9677633D01*
X12996587Y-9682068D01*
X12938655Y-9740000D01*
X12996587Y-9797932D01*
X12999936Y-9804064D01*
X12999437Y-9811033D01*
X12996587Y-9815468D01*
X12938705Y-9873350D01*
X13030000Y-9964645D01*
X13054645Y-9940000D01*
X13074212Y-9940000D01*
X13076327Y-9947894D01*
X13082106Y-9953673D01*
X13087992Y-9955250D01*
X13092008Y-9955250D01*
X13097894Y-9953673D01*
X13103673Y-9947894D01*
X13105788Y-9940000D01*
X13103673Y-9932106D01*
X13097894Y-9926327D01*
X13092008Y-9924750D01*
X13087992Y-9924750D01*
X13082106Y-9926327D01*
X13076327Y-9932106D01*
X13074212Y-9940000D01*
X13054645Y-9940000D01*
X13081232Y-9913413D01*
X13087364Y-9910064D01*
X13094333Y-9910563D01*
X13098768Y-9913413D01*
X13150000Y-9964645D01*
X13174645Y-9940000D01*
X13194212Y-9940000D01*
X13196327Y-9947894D01*
X13202106Y-9953673D01*
X13207992Y-9955250D01*
X13212008Y-9955250D01*
X13217894Y-9953673D01*
X13223673Y-9947894D01*
X13225788Y-9940000D01*
X13223673Y-9932106D01*
X13217894Y-9926327D01*
X13212008Y-9924750D01*
X13207992Y-9924750D01*
X13202106Y-9926327D01*
X13196327Y-9932106D01*
X13194212Y-9940000D01*
X13174645Y-9940000D01*
X13201232Y-9913413D01*
X13207364Y-9910064D01*
X13214333Y-9910563D01*
X13218768Y-9913413D01*
X13236587Y-9931232D01*
X13239936Y-9937364D01*
X13239437Y-9944333D01*
X13236587Y-9948768D01*
X13173326Y-10012029D01*
X13174851Y-10012987D01*
X13174852Y-10012987D01*
X13192631Y-10019208D01*
X13198308Y-10023280D01*
X13200883Y-10029776D01*
X13199537Y-10036632D01*
X13194699Y-10041672D01*
X13192776Y-10042564D01*
X13183271Y-10046024D01*
X13180883Y-10048028D01*
X13175215Y-10052784D01*
X13174369Y-10053494D01*
X13174369Y-10053494D01*
X13168560Y-10063556D01*
X13168559Y-10063557D01*
X13166542Y-10075000D01*
X13166542Y-10075000D01*
X13168559Y-10086443D01*
X13168560Y-10086444D01*
X13174369Y-10096506D01*
X13174370Y-10096507D01*
X13177470Y-10099108D01*
X13183271Y-10103976D01*
X13194190Y-10107950D01*
X13194190Y-10107950D01*
X13202600Y-10107950D01*
X13209304Y-10109919D01*
X13213879Y-10115199D01*
X13215000Y-10120350D01*
X13215000Y-10210131D01*
X13213031Y-10216835D01*
X13211687Y-10218568D01*
X13172196Y-10261097D01*
X13150000Y-10285000D01*
X13150000Y-10725000D01*
X13240000Y-10815000D01*
X13365000Y-10815000D01*
X13365000Y-10815000D01*
X13440000Y-10755000D01*
X13440000Y-10676000D01*
X13793542Y-10676000D01*
X13795559Y-10687443D01*
X13795560Y-10687444D01*
X13801369Y-10697506D01*
X13801370Y-10697507D01*
X13803194Y-10699037D01*
X13810271Y-10704976D01*
X13821190Y-10708950D01*
X13821190Y-10708950D01*
X13832810Y-10708950D01*
X13832810Y-10708950D01*
X13843729Y-10704976D01*
X13852630Y-10697507D01*
X13858440Y-10687443D01*
X13860458Y-10676000D01*
X13858440Y-10664557D01*
X13852923Y-10655000D01*
X13951542Y-10655000D01*
X13953559Y-10666443D01*
X13953560Y-10666444D01*
X13959369Y-10676506D01*
X13959369Y-10676506D01*
X13959369Y-10676507D01*
X13968271Y-10683976D01*
X13979190Y-10687950D01*
X13979190Y-10687950D01*
X13990810Y-10687950D01*
X13990810Y-10687950D01*
X14001729Y-10683976D01*
X14010630Y-10676507D01*
X14011500Y-10675000D01*
X14081542Y-10675000D01*
X14083559Y-10686443D01*
X14083560Y-10686444D01*
X14089369Y-10696506D01*
X14089370Y-10696507D01*
X14093820Y-10700241D01*
X14098271Y-10703976D01*
X14109190Y-10707950D01*
X14109190Y-10707950D01*
X14120810Y-10707950D01*
X14120810Y-10707950D01*
X14131729Y-10703976D01*
X14140630Y-10696507D01*
X14146440Y-10686443D01*
X14148458Y-10675000D01*
X14146440Y-10663557D01*
X14141548Y-10655082D01*
X14140631Y-10653494D01*
X14140631Y-10653494D01*
X14140630Y-10653493D01*
X14140630Y-10653493D01*
X14140630Y-10653493D01*
X14135903Y-10649527D01*
X14773828Y-10649527D01*
X14789706Y-10655082D01*
X14806500Y-10656975D01*
X14806500Y-10656975D01*
X14823294Y-10655082D01*
X14839171Y-10649527D01*
X14839171Y-10649527D01*
X14868828Y-10649527D01*
X14884706Y-10655082D01*
X14901500Y-10656975D01*
X14901500Y-10656975D01*
X14918294Y-10655082D01*
X14934171Y-10649527D01*
X14934171Y-10649527D01*
X14904645Y-10620000D01*
X15044108Y-10620000D01*
X15045865Y-10631091D01*
X15050963Y-10641097D01*
X15058903Y-10649037D01*
X15068909Y-10654135D01*
X15080000Y-10655892D01*
X15080000Y-10655892D01*
X15080000Y-10655892D01*
X15091091Y-10654135D01*
X15091091Y-10654135D01*
X15091091Y-10654135D01*
X15101097Y-10649037D01*
X15109037Y-10641097D01*
X15114135Y-10631091D01*
X15114135Y-10631091D01*
X15114135Y-10631091D01*
X15115892Y-10620000D01*
X15115892Y-10620000D01*
X15114135Y-10608909D01*
X15109037Y-10598903D01*
X15101096Y-10590963D01*
X15091091Y-10585865D01*
X15080000Y-10584108D01*
X15080000Y-10584108D01*
X15068909Y-10585865D01*
X15058903Y-10590963D01*
X15050963Y-10598903D01*
X15045865Y-10608909D01*
X15044108Y-10620000D01*
X15044108Y-10620000D01*
X14904645Y-10620000D01*
X14901500Y-10616855D01*
X14901500Y-10616855D01*
X14868828Y-10649527D01*
X14839171Y-10649527D01*
X14806500Y-10616855D01*
X14806500Y-10616855D01*
X14773828Y-10649527D01*
X14135903Y-10649527D01*
X14132921Y-10647024D01*
X14131729Y-10646024D01*
X14120810Y-10642050D01*
X14109190Y-10642050D01*
X14105050Y-10643557D01*
X14098271Y-10646024D01*
X14089369Y-10653494D01*
X14089369Y-10653494D01*
X14083560Y-10663556D01*
X14083559Y-10663557D01*
X14081542Y-10675000D01*
X14081542Y-10675000D01*
X14011500Y-10675000D01*
X14016440Y-10666443D01*
X14018458Y-10655000D01*
X14018193Y-10653493D01*
X14017052Y-10647024D01*
X14016440Y-10643557D01*
X14010630Y-10633493D01*
X14010630Y-10633493D01*
X14010630Y-10633493D01*
X14001729Y-10626024D01*
X14001729Y-10626024D01*
X13990810Y-10622050D01*
X13979190Y-10622050D01*
X13968271Y-10626024D01*
X13959369Y-10633494D01*
X13959369Y-10633494D01*
X13953560Y-10643556D01*
X13953559Y-10643557D01*
X13951542Y-10655000D01*
X13951542Y-10655000D01*
X13852923Y-10655000D01*
X13852631Y-10654494D01*
X13852631Y-10654494D01*
X13852630Y-10654493D01*
X13852630Y-10654493D01*
X13852630Y-10654493D01*
X13843729Y-10647024D01*
X13843729Y-10647024D01*
X13832810Y-10643050D01*
X13821190Y-10643050D01*
X13810271Y-10647024D01*
X13802561Y-10653494D01*
X13801369Y-10654494D01*
X13801369Y-10654494D01*
X13795560Y-10664556D01*
X13795559Y-10664557D01*
X13793542Y-10676000D01*
X13793542Y-10676000D01*
X13440000Y-10676000D01*
X13440000Y-10559000D01*
X14047542Y-10559000D01*
X14049559Y-10570443D01*
X14049560Y-10570444D01*
X14055369Y-10580506D01*
X14055370Y-10580507D01*
X14056553Y-10581500D01*
X14064271Y-10587976D01*
X14075190Y-10591950D01*
X14075190Y-10591950D01*
X14086810Y-10591950D01*
X14086810Y-10591950D01*
X14097729Y-10587976D01*
X14105446Y-10581500D01*
X14731025Y-10581500D01*
X14732917Y-10598294D01*
X14732918Y-10598294D01*
X14738473Y-10614171D01*
X14767895Y-10584749D01*
X14796500Y-10584749D01*
X14800320Y-10590007D01*
X14804916Y-10591500D01*
X14808084Y-10591500D01*
X14812680Y-10590007D01*
X14816500Y-10584749D01*
X14816500Y-10581500D01*
X14841855Y-10581500D01*
X14854000Y-10593645D01*
X14862895Y-10584749D01*
X14891500Y-10584749D01*
X14895320Y-10590007D01*
X14899916Y-10591500D01*
X14903084Y-10591500D01*
X14907680Y-10590007D01*
X14911500Y-10584749D01*
X14911500Y-10581500D01*
X14936855Y-10581500D01*
X14969527Y-10614171D01*
X14969527Y-10614171D01*
X14975082Y-10598294D01*
X14976975Y-10581500D01*
X14976975Y-10581500D01*
X14975082Y-10564706D01*
X14969527Y-10548829D01*
X14936855Y-10581500D01*
X14936855Y-10581500D01*
X14911500Y-10581500D01*
X14911500Y-10578251D01*
X14907680Y-10572994D01*
X14903084Y-10571500D01*
X14899916Y-10571500D01*
X14895320Y-10572994D01*
X14891500Y-10578251D01*
X14891500Y-10584749D01*
X14862895Y-10584749D01*
X14866145Y-10581500D01*
X14854000Y-10569355D01*
X14841855Y-10581500D01*
X14816500Y-10581500D01*
X14816500Y-10578251D01*
X14812680Y-10572994D01*
X14808084Y-10571500D01*
X14804916Y-10571500D01*
X14800320Y-10572994D01*
X14796500Y-10578251D01*
X14796500Y-10584749D01*
X14767895Y-10584749D01*
X14771145Y-10581500D01*
X14738473Y-10548829D01*
X14732918Y-10564705D01*
X14732917Y-10564706D01*
X14731025Y-10581500D01*
X14731025Y-10581500D01*
X14105446Y-10581500D01*
X14106630Y-10580507D01*
X14112440Y-10570443D01*
X14114458Y-10559000D01*
X14112440Y-10547557D01*
X14106630Y-10537493D01*
X14106630Y-10537493D01*
X14106630Y-10537493D01*
X14097729Y-10530024D01*
X14097729Y-10530024D01*
X14086810Y-10526050D01*
X14075190Y-10526050D01*
X14064271Y-10530024D01*
X14055369Y-10537494D01*
X14055369Y-10537494D01*
X14049560Y-10547556D01*
X14049559Y-10547557D01*
X14047542Y-10559000D01*
X14047542Y-10559000D01*
X13440000Y-10559000D01*
X13440000Y-10455000D01*
X14294108Y-10455000D01*
X14295865Y-10466091D01*
X14300963Y-10476097D01*
X14308903Y-10484037D01*
X14318909Y-10489135D01*
X14330000Y-10490892D01*
X14330000Y-10490892D01*
X14330000Y-10490892D01*
X14341091Y-10489135D01*
X14341091Y-10489135D01*
X14341091Y-10489135D01*
X14341406Y-10488975D01*
X14341829Y-10488895D01*
X14342019Y-10488834D01*
X14342027Y-10488858D01*
X14348273Y-10487685D01*
X14354747Y-10490313D01*
X14358772Y-10496023D01*
X14359286Y-10499125D01*
X14359309Y-10499122D01*
X14361483Y-10514246D01*
X14363733Y-10519171D01*
X14367462Y-10527337D01*
X14376887Y-10538214D01*
X14388995Y-10545995D01*
X14388995Y-10545995D01*
X14388995Y-10545995D01*
X14402804Y-10550050D01*
X14402804Y-10550050D01*
X14402804Y-10550050D01*
X14417196Y-10550050D01*
X14417196Y-10550050D01*
X14431005Y-10545995D01*
X14443113Y-10538214D01*
X14446764Y-10534000D01*
X14794355Y-10534000D01*
X14806500Y-10546145D01*
X14818645Y-10534000D01*
X14889355Y-10534000D01*
X14901500Y-10546145D01*
X14913645Y-10534000D01*
X14901500Y-10521855D01*
X14889355Y-10534000D01*
X14818645Y-10534000D01*
X14806500Y-10521855D01*
X14794355Y-10534000D01*
X14446764Y-10534000D01*
X14452538Y-10527337D01*
X14458516Y-10514246D01*
X14460565Y-10500000D01*
X14458624Y-10486500D01*
X14731025Y-10486500D01*
X14732917Y-10503294D01*
X14732918Y-10503294D01*
X14738473Y-10519171D01*
X14767895Y-10489749D01*
X14796500Y-10489749D01*
X14800320Y-10495007D01*
X14804916Y-10496500D01*
X14808084Y-10496500D01*
X14812680Y-10495007D01*
X14816500Y-10489749D01*
X14816500Y-10486500D01*
X14841855Y-10486500D01*
X14854000Y-10498645D01*
X14862895Y-10489749D01*
X14891500Y-10489749D01*
X14895320Y-10495007D01*
X14899916Y-10496500D01*
X14903084Y-10496500D01*
X14907680Y-10495007D01*
X14911500Y-10489749D01*
X14911500Y-10486500D01*
X14936855Y-10486500D01*
X14969527Y-10519171D01*
X14969527Y-10519171D01*
X14975082Y-10503294D01*
X14976975Y-10486500D01*
X14976975Y-10486500D01*
X14975082Y-10469706D01*
X14969527Y-10453829D01*
X14936855Y-10486500D01*
X14936855Y-10486500D01*
X14911500Y-10486500D01*
X14911500Y-10483251D01*
X14907680Y-10477994D01*
X14903084Y-10476500D01*
X14899916Y-10476500D01*
X14895320Y-10477994D01*
X14891500Y-10483251D01*
X14891500Y-10489749D01*
X14862895Y-10489749D01*
X14866145Y-10486500D01*
X14854000Y-10474355D01*
X14841855Y-10486500D01*
X14816500Y-10486500D01*
X14816500Y-10483251D01*
X14812680Y-10477994D01*
X14808084Y-10476500D01*
X14804916Y-10476500D01*
X14800320Y-10477994D01*
X14796500Y-10483251D01*
X14796500Y-10489749D01*
X14767895Y-10489749D01*
X14771145Y-10486500D01*
X14738473Y-10453829D01*
X14732918Y-10469705D01*
X14732917Y-10469706D01*
X14731025Y-10486500D01*
X14731025Y-10486500D01*
X14458624Y-10486500D01*
X14458516Y-10485754D01*
X14452538Y-10472663D01*
X14443113Y-10461786D01*
X14431005Y-10454005D01*
X14431005Y-10454005D01*
X14431005Y-10454005D01*
X14431005Y-10454005D01*
X14417196Y-10449950D01*
X14417196Y-10449950D01*
X14402804Y-10449950D01*
X14402804Y-10449950D01*
X14388995Y-10454005D01*
X14388995Y-10454005D01*
X14383863Y-10457303D01*
X14377159Y-10459271D01*
X14370455Y-10457303D01*
X14365879Y-10452022D01*
X14364912Y-10448811D01*
X14364135Y-10443909D01*
X14359037Y-10433903D01*
X14351097Y-10425963D01*
X14351096Y-10425963D01*
X14341091Y-10420865D01*
X14330000Y-10419108D01*
X14330000Y-10419108D01*
X14318909Y-10420865D01*
X14308903Y-10425963D01*
X14300963Y-10433903D01*
X14295865Y-10443909D01*
X14294108Y-10455000D01*
X14294108Y-10455000D01*
X13440000Y-10455000D01*
X13440000Y-10418473D01*
X14773828Y-10418473D01*
X14806500Y-10451145D01*
X14806500Y-10451145D01*
X14839171Y-10418473D01*
X14868828Y-10418473D01*
X14901500Y-10451145D01*
X14901500Y-10451145D01*
X14934171Y-10418473D01*
X14918294Y-10412918D01*
X14918294Y-10412918D01*
X14901500Y-10411025D01*
X14901500Y-10411025D01*
X14884706Y-10412918D01*
X14884705Y-10412918D01*
X14868828Y-10418473D01*
X14839171Y-10418473D01*
X14823294Y-10412918D01*
X14823294Y-10412918D01*
X14806500Y-10411025D01*
X14806500Y-10411025D01*
X14789706Y-10412918D01*
X14789705Y-10412918D01*
X14773828Y-10418473D01*
X13440000Y-10418473D01*
X13440000Y-10310000D01*
X13437144Y-10308023D01*
X13357730Y-10253044D01*
X13353339Y-10247610D01*
X13352577Y-10245002D01*
X13352181Y-10242758D01*
X13351440Y-10238557D01*
X13346842Y-10230592D01*
X13345631Y-10228494D01*
X13345630Y-10228493D01*
X13336729Y-10221024D01*
X13336729Y-10221024D01*
X13325810Y-10217050D01*
X13322400Y-10217050D01*
X13315696Y-10215082D01*
X13311121Y-10209801D01*
X13310000Y-10204650D01*
X13310000Y-10161747D01*
X13311968Y-10155043D01*
X13317249Y-10150468D01*
X13318156Y-10150096D01*
X13326729Y-10146976D01*
X13335630Y-10139507D01*
X13341440Y-10129443D01*
X13343458Y-10118000D01*
X13342930Y-10115006D01*
X13343705Y-10108062D01*
X13348110Y-10102639D01*
X13354748Y-10100459D01*
X13359383Y-10101200D01*
X13364190Y-10102950D01*
X13364190Y-10102950D01*
X13375810Y-10102950D01*
X13375810Y-10102950D01*
X13386729Y-10098976D01*
X13395630Y-10091507D01*
X13401440Y-10081443D01*
X13403458Y-10070000D01*
X13403458Y-10070000D01*
X13402521Y-10064683D01*
X13401440Y-10058557D01*
X13397370Y-10051507D01*
X13395631Y-10048494D01*
X13395630Y-10048493D01*
X13387229Y-10041444D01*
X13386729Y-10041024D01*
X13375810Y-10037050D01*
X13369362Y-10037050D01*
X13362658Y-10035082D01*
X13358082Y-10029801D01*
X13357088Y-10022885D01*
X13358405Y-10020000D01*
X13563542Y-10020000D01*
X13565559Y-10031443D01*
X13565560Y-10031444D01*
X13571369Y-10041506D01*
X13571370Y-10041507D01*
X13574348Y-10044006D01*
X13580271Y-10048976D01*
X13591190Y-10052950D01*
X13591190Y-10052950D01*
X13602810Y-10052950D01*
X13602810Y-10052950D01*
X13613729Y-10048976D01*
X13622630Y-10041507D01*
X13628440Y-10031443D01*
X13630458Y-10020000D01*
X13630346Y-10019362D01*
X13629504Y-10014589D01*
X13628440Y-10008557D01*
X13623799Y-10000518D01*
X13623500Y-10000000D01*
X13746542Y-10000000D01*
X13748559Y-10011443D01*
X13748560Y-10011444D01*
X13754369Y-10021506D01*
X13754370Y-10021507D01*
X13756483Y-10023280D01*
X13763271Y-10028976D01*
X13774190Y-10032950D01*
X13774190Y-10032950D01*
X13785810Y-10032950D01*
X13785810Y-10032950D01*
X13796729Y-10028976D01*
X13805064Y-10021982D01*
X13811464Y-10019181D01*
X13818363Y-10020285D01*
X13823570Y-10024944D01*
X13825246Y-10029328D01*
X13826059Y-10033943D01*
X13826060Y-10033944D01*
X13831869Y-10044006D01*
X13831869Y-10044006D01*
X13831869Y-10044007D01*
X13840771Y-10051476D01*
X13851690Y-10055450D01*
X13851690Y-10055450D01*
X13863310Y-10055450D01*
X13863310Y-10055450D01*
X13874229Y-10051476D01*
X13883130Y-10044007D01*
X13888940Y-10033943D01*
X13890958Y-10022500D01*
X13890724Y-10021171D01*
X13889356Y-10013412D01*
X13888940Y-10011057D01*
X13883148Y-10001024D01*
X13883131Y-10000994D01*
X13883130Y-10000993D01*
X13874229Y-9993524D01*
X13874229Y-9993524D01*
X13863310Y-9989550D01*
X13851690Y-9989550D01*
X13840771Y-9993524D01*
X13840771Y-9993524D01*
X13840771Y-9993524D01*
X13832436Y-10000518D01*
X13826036Y-10003319D01*
X13819136Y-10002215D01*
X13813929Y-9997556D01*
X13812254Y-9993172D01*
X13812215Y-9992950D01*
X13811440Y-9988557D01*
X13808535Y-9983525D01*
X13805631Y-9978494D01*
X13805631Y-9978494D01*
X13805630Y-9978493D01*
X13805630Y-9978493D01*
X13805630Y-9978493D01*
X13798954Y-9972892D01*
X13796729Y-9971024D01*
X13785810Y-9967050D01*
X13774190Y-9967050D01*
X13763271Y-9971024D01*
X13756122Y-9977023D01*
X13754369Y-9978494D01*
X13754369Y-9978494D01*
X13748560Y-9988556D01*
X13748559Y-9988557D01*
X13746542Y-10000000D01*
X13746542Y-10000000D01*
X13623500Y-10000000D01*
X13622631Y-9998494D01*
X13622631Y-9998494D01*
X13622630Y-9998493D01*
X13622630Y-9998493D01*
X13622630Y-9998493D01*
X13613729Y-9991024D01*
X13613729Y-9991024D01*
X13602810Y-9987050D01*
X13591190Y-9987050D01*
X13580271Y-9991024D01*
X13575226Y-9995257D01*
X13571369Y-9998494D01*
X13571369Y-9998494D01*
X13565560Y-10008556D01*
X13565559Y-10008557D01*
X13563542Y-10020000D01*
X13563542Y-10020000D01*
X13358405Y-10020000D01*
X13359990Y-10016530D01*
X13364580Y-10013412D01*
X13364521Y-10013289D01*
X13365148Y-10012987D01*
X13366673Y-10012029D01*
X13366673Y-10012029D01*
X13303413Y-9948768D01*
X13300064Y-9942636D01*
X13300253Y-9940000D01*
X13314212Y-9940000D01*
X13316327Y-9947894D01*
X13322106Y-9953673D01*
X13327992Y-9955250D01*
X13332008Y-9955250D01*
X13337894Y-9953673D01*
X13343673Y-9947894D01*
X13345788Y-9940000D01*
X13343673Y-9932106D01*
X13337894Y-9926327D01*
X13332008Y-9924750D01*
X13327992Y-9924750D01*
X13322106Y-9926327D01*
X13316327Y-9932106D01*
X13314212Y-9940000D01*
X13300253Y-9940000D01*
X13300563Y-9935667D01*
X13303413Y-9931232D01*
X13321232Y-9913413D01*
X13327364Y-9910064D01*
X13334333Y-9910563D01*
X13338768Y-9913413D01*
X13399810Y-9974455D01*
X13401781Y-9977023D01*
X13404369Y-9981506D01*
X13404369Y-9981506D01*
X13404369Y-9981507D01*
X13413271Y-9988976D01*
X13424190Y-9992950D01*
X13424190Y-9992950D01*
X13435810Y-9992950D01*
X13435810Y-9992950D01*
X13446729Y-9988976D01*
X13455630Y-9981507D01*
X13461440Y-9971443D01*
X13463458Y-9960000D01*
X13461440Y-9948557D01*
X13456500Y-9940000D01*
X13455631Y-9938494D01*
X13455630Y-9938493D01*
X13446729Y-9931024D01*
X13446235Y-9930739D01*
X13441413Y-9925682D01*
X13440091Y-9918822D01*
X13442687Y-9912335D01*
X13446235Y-9909261D01*
X13446729Y-9908976D01*
X13446729Y-9908976D01*
X13455630Y-9901507D01*
X13461440Y-9891443D01*
X13463458Y-9880000D01*
X13463193Y-9878493D01*
X13462126Y-9872444D01*
X13461440Y-9868557D01*
X13455630Y-9858493D01*
X13455630Y-9858493D01*
X13455630Y-9858493D01*
X13446729Y-9851024D01*
X13446729Y-9851024D01*
X13435810Y-9847050D01*
X13424190Y-9847050D01*
X13424190Y-9847050D01*
X13422393Y-9847704D01*
X13415421Y-9848147D01*
X13409315Y-9844750D01*
X13406015Y-9838591D01*
X13406448Y-9831956D01*
X13408978Y-9824726D01*
X13411009Y-9806700D01*
X13411009Y-9806004D01*
X13411142Y-9806004D01*
X13412220Y-9799855D01*
X13416955Y-9794718D01*
X13423336Y-9792950D01*
X13435810Y-9792950D01*
X13435810Y-9792950D01*
X13446729Y-9788976D01*
X13449198Y-9786904D01*
X13455599Y-9784103D01*
X13462498Y-9785206D01*
X13467705Y-9789865D01*
X13468016Y-9790505D01*
X13468017Y-9790504D01*
X13474369Y-9801506D01*
X13474370Y-9801507D01*
X13477417Y-9804064D01*
X13483271Y-9808976D01*
X13494190Y-9812950D01*
X13494190Y-9812950D01*
X13505810Y-9812950D01*
X13505810Y-9812950D01*
X13516729Y-9808976D01*
X13525630Y-9801507D01*
X13531440Y-9791443D01*
X13533458Y-9780000D01*
X13533458Y-9780000D01*
X13531961Y-9771507D01*
X13531440Y-9768557D01*
X13528535Y-9763525D01*
X13525631Y-9758494D01*
X13525630Y-9758493D01*
X13517229Y-9751444D01*
X13516729Y-9751024D01*
X13505810Y-9747050D01*
X13494190Y-9747050D01*
X13483271Y-9751024D01*
X13483271Y-9751024D01*
X13483271Y-9751024D01*
X13480801Y-9753096D01*
X13474400Y-9755897D01*
X13467501Y-9754793D01*
X13462294Y-9750134D01*
X13461984Y-9749495D01*
X13461983Y-9749496D01*
X13455631Y-9738494D01*
X13455630Y-9738493D01*
X13446729Y-9731024D01*
X13446722Y-9731020D01*
X13446713Y-9731011D01*
X13445898Y-9730327D01*
X13445974Y-9730236D01*
X13441900Y-9725964D01*
X13440578Y-9719103D01*
X13443175Y-9712617D01*
X13446987Y-9709859D01*
X13446790Y-9709518D01*
X13447729Y-9708976D01*
X13449189Y-9707751D01*
X13456630Y-9701507D01*
X13462440Y-9691443D01*
X13464458Y-9680000D01*
X13464288Y-9679037D01*
X13463048Y-9672000D01*
X13462440Y-9668557D01*
X13459535Y-9663525D01*
X13456631Y-9658494D01*
X13456631Y-9658494D01*
X13456630Y-9658493D01*
X13456630Y-9658493D01*
X13456630Y-9658493D01*
X13447729Y-9651024D01*
X13447729Y-9651024D01*
X13436810Y-9647050D01*
X13425190Y-9647050D01*
X13425190Y-9647050D01*
X13420055Y-9648919D01*
X13413083Y-9649362D01*
X13406977Y-9645965D01*
X13404110Y-9641362D01*
X13402987Y-9638152D01*
X13402987Y-9638151D01*
X13402029Y-9636626D01*
X13338768Y-9699887D01*
X13332636Y-9703236D01*
X13325666Y-9702737D01*
X13321232Y-9699887D01*
X13303413Y-9682068D01*
X13300064Y-9675936D01*
X13300253Y-9673300D01*
X13314212Y-9673300D01*
X13316327Y-9681194D01*
X13322106Y-9686973D01*
X13327992Y-9688550D01*
X13332008Y-9688550D01*
X13337894Y-9686973D01*
X13343673Y-9681194D01*
X13345788Y-9673300D01*
X13343673Y-9665406D01*
X13337894Y-9659627D01*
X13332008Y-9658050D01*
X13327992Y-9658050D01*
X13322106Y-9659627D01*
X13316327Y-9665406D01*
X13314212Y-9673300D01*
X13300253Y-9673300D01*
X13300563Y-9668967D01*
X13303413Y-9664532D01*
X13361295Y-9606650D01*
X13294645Y-9540000D01*
X13314212Y-9540000D01*
X13316327Y-9547894D01*
X13322106Y-9553673D01*
X13327992Y-9555250D01*
X13332008Y-9555250D01*
X13337894Y-9553673D01*
X13343673Y-9547894D01*
X13345788Y-9540000D01*
X13343673Y-9532106D01*
X13337894Y-9526327D01*
X13332008Y-9524750D01*
X13327992Y-9524750D01*
X13322106Y-9526327D01*
X13316327Y-9532106D01*
X13314212Y-9540000D01*
X13294645Y-9540000D01*
X13270000Y-9515355D01*
X13218768Y-9566587D01*
X13212636Y-9569936D01*
X13205667Y-9569437D01*
X13201232Y-9566587D01*
X13183413Y-9548768D01*
X13180064Y-9542636D01*
X13180253Y-9540000D01*
X13194212Y-9540000D01*
X13196327Y-9547894D01*
X13202106Y-9553673D01*
X13207992Y-9555250D01*
X13212008Y-9555250D01*
X13217894Y-9553673D01*
X13223673Y-9547894D01*
X13225788Y-9540000D01*
X13223673Y-9532106D01*
X13217894Y-9526327D01*
X13212008Y-9524750D01*
X13207992Y-9524750D01*
X13202106Y-9526327D01*
X13196327Y-9532106D01*
X13194212Y-9540000D01*
X13180253Y-9540000D01*
X13180563Y-9535667D01*
X13183413Y-9531232D01*
X13246673Y-9467971D01*
X13293326Y-9467971D01*
X13330000Y-9504645D01*
X13330000Y-9504645D01*
X13366673Y-9467971D01*
X13366673Y-9467971D01*
X13365149Y-9467013D01*
X13348025Y-9461022D01*
X13330000Y-9458991D01*
X13330000Y-9458991D01*
X13311974Y-9461022D01*
X13294851Y-9467013D01*
X13294851Y-9467013D01*
X13293326Y-9467971D01*
X13293326Y-9467971D01*
X13246673Y-9467971D01*
X13245149Y-9467013D01*
X13228025Y-9461022D01*
X13210000Y-9458991D01*
X13209999Y-9458991D01*
X13203904Y-9459677D01*
X13197022Y-9458472D01*
X13191884Y-9453737D01*
X13190122Y-9446976D01*
X13192294Y-9440335D01*
X13193747Y-9438588D01*
X13282335Y-9350000D01*
X13374108Y-9350000D01*
X13375865Y-9361091D01*
X13380963Y-9371097D01*
X13388903Y-9379037D01*
X13398909Y-9384135D01*
X13410000Y-9385892D01*
X13410000Y-9385892D01*
X13410000Y-9385892D01*
X13421091Y-9384135D01*
X13421091Y-9384135D01*
X13421091Y-9384135D01*
X13431097Y-9379037D01*
X13439037Y-9371097D01*
X13444135Y-9361091D01*
X13444135Y-9361091D01*
X13444135Y-9361091D01*
X13445892Y-9350000D01*
X13445892Y-9350000D01*
X13444135Y-9338909D01*
X13439037Y-9328903D01*
X13431096Y-9320963D01*
X13421091Y-9315865D01*
X13410000Y-9314108D01*
X13410000Y-9314108D01*
X13398909Y-9315865D01*
X13388903Y-9320963D01*
X13380963Y-9328903D01*
X13375865Y-9338909D01*
X13374108Y-9350000D01*
X13374108Y-9350000D01*
X13282335Y-9350000D01*
X13415953Y-9216382D01*
X13422086Y-9213033D01*
X13424721Y-9212750D01*
X13461535Y-9212750D01*
X13468238Y-9214719D01*
X13470303Y-9216382D01*
X13540118Y-9286197D01*
X13543467Y-9292330D01*
X13543750Y-9294965D01*
X13543750Y-9326584D01*
X13543512Y-9329003D01*
X13543233Y-9330406D01*
X13543750Y-9333006D01*
X13543750Y-9333007D01*
X13545281Y-9340707D01*
X13545282Y-9340707D01*
X13550758Y-9348903D01*
X13551117Y-9349439D01*
X13552305Y-9350234D01*
X13554184Y-9351776D01*
X13570578Y-9368169D01*
X13573926Y-9374301D01*
X13573428Y-9381270D01*
X13569780Y-9386436D01*
X13561370Y-9393493D01*
X13561369Y-9393494D01*
X13555559Y-9403557D01*
X13554490Y-9409619D01*
X13551388Y-9415880D01*
X13551047Y-9416234D01*
X13491214Y-9476067D01*
X13489336Y-9477609D01*
X13488301Y-9478300D01*
X13488300Y-9478301D01*
X13486945Y-9480329D01*
X13484605Y-9482939D01*
X13480369Y-9486493D01*
X13475344Y-9495198D01*
X13470287Y-9500020D01*
X13463426Y-9501342D01*
X13456940Y-9498745D01*
X13456635Y-9498497D01*
X13448952Y-9492050D01*
X13447729Y-9491024D01*
X13436810Y-9487050D01*
X13425190Y-9487050D01*
X13414271Y-9491024D01*
X13414271Y-9491024D01*
X13414271Y-9491024D01*
X13405369Y-9498493D01*
X13404147Y-9500611D01*
X13402176Y-9503179D01*
X13365355Y-9540000D01*
X13365355Y-9540000D01*
X13402029Y-9576673D01*
X13402467Y-9576624D01*
X13409349Y-9577830D01*
X13410744Y-9578636D01*
X13411335Y-9579031D01*
X13413214Y-9580573D01*
X13434427Y-9601786D01*
X13435969Y-9603665D01*
X13436660Y-9604699D01*
X13436660Y-9604699D01*
X13436661Y-9604700D01*
X13441200Y-9607733D01*
X13441200Y-9607733D01*
X13441200Y-9607733D01*
X13444781Y-9610126D01*
X13444781Y-9610126D01*
X13444781Y-9610126D01*
X13454360Y-9612031D01*
X13454360Y-9612031D01*
X13454360Y-9612031D01*
X13454360Y-9612031D01*
X13455580Y-9611788D01*
X13458000Y-9611550D01*
X13580582Y-9611550D01*
X13602937Y-9611550D01*
X13609641Y-9613519D01*
X13614216Y-9618799D01*
X13615211Y-9625715D01*
X13612308Y-9632070D01*
X13607178Y-9635602D01*
X13603271Y-9637024D01*
X13599103Y-9640522D01*
X13594369Y-9644494D01*
X13594369Y-9644494D01*
X13588560Y-9654556D01*
X13588559Y-9654557D01*
X13586542Y-9666000D01*
X13586542Y-9666000D01*
X13588559Y-9677443D01*
X13588560Y-9677444D01*
X13594369Y-9687506D01*
X13594370Y-9687507D01*
X13598820Y-9691241D01*
X13603271Y-9694976D01*
X13614190Y-9698950D01*
X13614190Y-9698950D01*
X13625810Y-9698950D01*
X13625810Y-9698950D01*
X13636729Y-9694976D01*
X13645630Y-9687507D01*
X13651440Y-9677443D01*
X13653458Y-9666000D01*
X13651440Y-9654557D01*
X13647107Y-9647050D01*
X13645631Y-9644494D01*
X13645631Y-9644494D01*
X13645630Y-9644493D01*
X13645630Y-9644493D01*
X13645630Y-9644493D01*
X13636729Y-9637024D01*
X13636729Y-9637024D01*
X13628785Y-9634133D01*
X13623159Y-9629990D01*
X13620665Y-9623463D01*
X13622096Y-9616625D01*
X13626997Y-9611645D01*
X13630607Y-9610319D01*
X13631579Y-9610126D01*
X13632430Y-9609557D01*
X13635160Y-9607733D01*
X13639700Y-9604700D01*
X13640391Y-9603665D01*
X13641933Y-9601786D01*
X13656870Y-9586849D01*
X13661137Y-9582582D01*
X13667270Y-9579233D01*
X13669660Y-9578976D01*
X13669809Y-9578950D01*
X13669810Y-9578950D01*
X13680729Y-9574976D01*
X13689630Y-9567507D01*
X13695440Y-9557443D01*
X13697458Y-9546000D01*
X13695440Y-9534557D01*
X13691060Y-9526969D01*
X13689631Y-9524494D01*
X13689631Y-9524494D01*
X13689630Y-9524493D01*
X13689630Y-9524493D01*
X13689630Y-9524493D01*
X13680729Y-9517024D01*
X13680729Y-9517024D01*
X13669810Y-9513050D01*
X13658190Y-9513050D01*
X13652701Y-9515048D01*
X13647271Y-9517024D01*
X13638369Y-9524494D01*
X13638369Y-9524494D01*
X13632559Y-9534557D01*
X13631704Y-9539405D01*
X13628602Y-9545665D01*
X13628261Y-9546020D01*
X13615463Y-9558818D01*
X13609331Y-9562167D01*
X13606695Y-9562450D01*
X13523063Y-9562450D01*
X13516359Y-9560482D01*
X13511784Y-9555201D01*
X13510789Y-9548285D01*
X13513692Y-9541930D01*
X13518822Y-9538398D01*
X13522729Y-9536976D01*
X13531630Y-9529507D01*
X13537440Y-9519443D01*
X13539458Y-9508000D01*
X13539458Y-9508000D01*
X13539458Y-9508000D01*
X13538969Y-9505228D01*
X13539744Y-9498284D01*
X13542412Y-9494306D01*
X13585139Y-9451580D01*
X13591271Y-9448231D01*
X13591754Y-9448136D01*
X13592810Y-9447950D01*
X13592810Y-9447950D01*
X13603729Y-9443976D01*
X13612630Y-9436507D01*
X13618440Y-9426443D01*
X13620458Y-9415000D01*
X13618877Y-9406032D01*
X13619651Y-9399088D01*
X13624057Y-9393665D01*
X13630695Y-9391485D01*
X13637458Y-9393240D01*
X13639857Y-9395111D01*
X13746818Y-9502072D01*
X13750167Y-9508204D01*
X13750450Y-9510840D01*
X13750450Y-9761229D01*
X13750403Y-9762310D01*
X13750071Y-9766098D01*
X13751056Y-9769772D01*
X13751290Y-9770828D01*
X13751950Y-9774574D01*
X13752123Y-9775049D01*
X13752847Y-9776796D01*
X13753061Y-9777255D01*
X13755242Y-9780370D01*
X13755823Y-9781282D01*
X13757725Y-9784576D01*
X13757725Y-9784576D01*
X13760639Y-9787021D01*
X13761437Y-9787752D01*
X14362093Y-10388408D01*
X14364063Y-10390976D01*
X14364369Y-10391507D01*
X14364370Y-10391507D01*
X14372019Y-10397926D01*
X14373271Y-10398976D01*
X14373846Y-10399185D01*
X14374930Y-10399750D01*
X14374962Y-10399681D01*
X14375945Y-10400139D01*
X14375946Y-10400139D01*
X14377162Y-10400465D01*
X14377402Y-10400530D01*
X14378434Y-10400855D01*
X14382259Y-10402247D01*
X14384190Y-10402950D01*
X14384802Y-10402950D01*
X14386014Y-10403110D01*
X14386021Y-10403034D01*
X14387101Y-10403129D01*
X14387101Y-10403129D01*
X14387102Y-10403129D01*
X14388604Y-10402997D01*
X14389685Y-10402950D01*
X14395810Y-10402950D01*
X14396384Y-10402741D01*
X14397579Y-10402476D01*
X14397559Y-10402403D01*
X14398606Y-10402122D01*
X14398607Y-10402122D01*
X14399975Y-10401484D01*
X14400973Y-10401071D01*
X14406729Y-10398976D01*
X14407198Y-10398583D01*
X14408229Y-10397926D01*
X14408185Y-10397864D01*
X14409074Y-10397241D01*
X14409074Y-10397241D01*
X14410141Y-10396174D01*
X14410939Y-10395443D01*
X14415630Y-10391507D01*
X14415936Y-10390977D01*
X14416681Y-10390007D01*
X14416619Y-10389963D01*
X14417241Y-10389075D01*
X14417241Y-10389075D01*
X14417241Y-10389074D01*
X14417880Y-10387704D01*
X14418378Y-10386748D01*
X14421440Y-10381443D01*
X14421547Y-10380840D01*
X14421915Y-10379675D01*
X14421841Y-10379655D01*
X14422122Y-10378607D01*
X14422122Y-10378607D01*
X14422122Y-10378607D01*
X14422253Y-10377103D01*
X14422394Y-10376034D01*
X14423458Y-10370000D01*
X14423352Y-10369398D01*
X14423299Y-10368176D01*
X14423223Y-10368183D01*
X14423129Y-10367102D01*
X14422738Y-10365643D01*
X14422504Y-10364587D01*
X14422384Y-10363909D01*
X14421440Y-10358557D01*
X14421134Y-10358027D01*
X14420666Y-10356897D01*
X14420598Y-10356929D01*
X14420139Y-10355946D01*
X14420139Y-10355946D01*
X14419274Y-10354709D01*
X14418693Y-10353797D01*
X14415631Y-10348494D01*
X14415630Y-10348493D01*
X14410939Y-10344556D01*
X14410141Y-10343826D01*
X14406316Y-10340000D01*
X14584108Y-10340000D01*
X14585865Y-10351091D01*
X14590963Y-10361097D01*
X14598903Y-10369037D01*
X14608909Y-10374135D01*
X14620000Y-10375892D01*
X14620000Y-10375892D01*
X14620000Y-10375892D01*
X14631091Y-10374135D01*
X14631091Y-10374135D01*
X14631091Y-10374135D01*
X14641097Y-10369037D01*
X14649037Y-10361097D01*
X14649596Y-10360000D01*
X14971608Y-10360000D01*
X14973365Y-10371091D01*
X14978463Y-10381097D01*
X14986403Y-10389037D01*
X14996409Y-10394135D01*
X15007500Y-10395892D01*
X15007500Y-10395892D01*
X15007500Y-10395892D01*
X15018591Y-10394135D01*
X15018591Y-10394135D01*
X15018591Y-10394135D01*
X15028597Y-10389037D01*
X15036537Y-10381097D01*
X15041635Y-10371091D01*
X15041635Y-10371091D01*
X15041635Y-10371091D01*
X15043392Y-10360000D01*
X15043392Y-10360000D01*
X15041635Y-10348909D01*
X15036537Y-10338903D01*
X15028596Y-10330963D01*
X15018591Y-10325865D01*
X15007500Y-10324108D01*
X15007500Y-10324108D01*
X14996409Y-10325865D01*
X14986403Y-10330963D01*
X14978463Y-10338903D01*
X14973365Y-10348909D01*
X14971608Y-10360000D01*
X14971608Y-10360000D01*
X14649596Y-10360000D01*
X14654135Y-10351091D01*
X14654135Y-10351091D01*
X14654135Y-10351091D01*
X14655892Y-10340000D01*
X14655892Y-10340000D01*
X14654135Y-10328909D01*
X14649037Y-10318903D01*
X14641096Y-10310963D01*
X14631091Y-10305865D01*
X14620000Y-10304108D01*
X14620000Y-10304108D01*
X14608909Y-10305865D01*
X14598903Y-10310963D01*
X14590963Y-10318903D01*
X14585865Y-10328909D01*
X14584108Y-10340000D01*
X14584108Y-10340000D01*
X14406316Y-10340000D01*
X14356316Y-10290000D01*
X14804108Y-10290000D01*
X14805865Y-10301091D01*
X14810963Y-10311097D01*
X14818903Y-10319037D01*
X14828909Y-10324135D01*
X14840000Y-10325892D01*
X14840000Y-10325892D01*
X14840000Y-10325892D01*
X14851091Y-10324135D01*
X14851091Y-10324135D01*
X14851091Y-10324135D01*
X14861097Y-10319037D01*
X14869037Y-10311097D01*
X14874135Y-10301091D01*
X14874135Y-10301091D01*
X14874135Y-10301091D01*
X14875892Y-10290000D01*
X14875892Y-10290000D01*
X14874135Y-10278909D01*
X14869037Y-10268903D01*
X14861096Y-10260963D01*
X14851091Y-10255865D01*
X14840000Y-10254108D01*
X14840000Y-10254108D01*
X14828909Y-10255865D01*
X14818903Y-10260963D01*
X14810963Y-10268903D01*
X14805865Y-10278909D01*
X14804108Y-10290000D01*
X14804108Y-10290000D01*
X14356316Y-10290000D01*
X13846316Y-9780000D01*
X14029108Y-9780000D01*
X14030865Y-9791091D01*
X14035963Y-9801097D01*
X14043903Y-9809037D01*
X14053909Y-9814135D01*
X14065000Y-9815892D01*
X14065000Y-9815892D01*
X14065000Y-9815892D01*
X14076091Y-9814135D01*
X14076091Y-9814135D01*
X14076091Y-9814135D01*
X14086097Y-9809037D01*
X14094037Y-9801097D01*
X14099135Y-9791091D01*
X14099135Y-9791091D01*
X14099135Y-9791091D01*
X14100892Y-9780000D01*
X14100892Y-9780000D01*
X14099135Y-9768909D01*
X14094037Y-9758903D01*
X14086096Y-9750963D01*
X14076091Y-9745865D01*
X14065000Y-9744108D01*
X14065000Y-9744108D01*
X14053909Y-9745865D01*
X14043903Y-9750963D01*
X14035963Y-9758903D01*
X14030865Y-9768909D01*
X14029108Y-9780000D01*
X14029108Y-9780000D01*
X13846316Y-9780000D01*
X13819582Y-9753266D01*
X13816233Y-9747134D01*
X13815950Y-9744498D01*
X13815950Y-9552647D01*
X13817918Y-9545943D01*
X13823199Y-9541367D01*
X13830115Y-9540373D01*
X13836470Y-9543276D01*
X13837118Y-9543879D01*
X13864298Y-9571058D01*
X13867646Y-9577191D01*
X13867148Y-9584160D01*
X13862960Y-9589753D01*
X13859771Y-9591478D01*
X13858271Y-9592024D01*
X13850561Y-9598494D01*
X13849369Y-9599494D01*
X13849369Y-9599494D01*
X13843560Y-9609556D01*
X13843559Y-9609557D01*
X13841542Y-9621000D01*
X13841542Y-9621000D01*
X13843559Y-9632443D01*
X13843560Y-9632444D01*
X13849369Y-9642506D01*
X13849370Y-9642507D01*
X13849987Y-9643024D01*
X13858271Y-9649976D01*
X13869190Y-9653950D01*
X13869190Y-9653950D01*
X13880810Y-9653950D01*
X13880810Y-9653950D01*
X13891729Y-9649976D01*
X13900630Y-9642507D01*
X13906440Y-9632443D01*
X13907803Y-9624715D01*
X13908494Y-9620797D01*
X13911597Y-9614536D01*
X13917592Y-9610947D01*
X13920706Y-9610550D01*
X13930079Y-9610550D01*
X13936783Y-9612519D01*
X13941359Y-9617799D01*
X13942353Y-9624715D01*
X13941128Y-9628579D01*
X13935865Y-9638909D01*
X13934108Y-9650000D01*
X13934108Y-9650000D01*
X13935865Y-9661091D01*
X13940963Y-9671097D01*
X13948903Y-9679037D01*
X13958909Y-9684135D01*
X13970000Y-9685892D01*
X13970000Y-9685892D01*
X13970000Y-9685892D01*
X13981091Y-9684135D01*
X13981091Y-9684135D01*
X13981091Y-9684135D01*
X13991097Y-9679037D01*
X13999037Y-9671097D01*
X14004135Y-9661091D01*
X14004135Y-9661091D01*
X14004135Y-9661091D01*
X14005266Y-9653950D01*
X14005824Y-9650428D01*
X14008817Y-9644115D01*
X14014748Y-9640422D01*
X14021734Y-9640522D01*
X14026839Y-9643600D01*
X14391025Y-10007786D01*
X14392567Y-10009665D01*
X14393258Y-10010700D01*
X14397331Y-10013421D01*
X14397332Y-10013421D01*
X14401379Y-10016126D01*
X14401379Y-10016126D01*
X14410958Y-10018031D01*
X14410958Y-10018031D01*
X14410958Y-10018031D01*
X14410958Y-10018031D01*
X14412178Y-10017788D01*
X14414597Y-10017550D01*
X14596050Y-10017550D01*
X14602754Y-10019519D01*
X14607329Y-10024799D01*
X14608450Y-10029950D01*
X14608450Y-10060831D01*
X14608454Y-10060915D01*
X14608454Y-10063998D01*
X14611187Y-10075983D01*
X14615964Y-10085905D01*
X14616520Y-10087059D01*
X14618511Y-10089557D01*
X14624183Y-10096670D01*
X14624183Y-10096670D01*
X14624184Y-10096671D01*
X14628933Y-10100459D01*
X14633794Y-10104336D01*
X14633794Y-10104336D01*
X14633794Y-10104336D01*
X14644869Y-10109670D01*
X14656854Y-10112405D01*
X14657227Y-10112405D01*
X14657228Y-10112406D01*
X14657859Y-10112406D01*
X14657875Y-10112410D01*
X14663000Y-10112410D01*
X14669147Y-10112410D01*
X14669147Y-10112410D01*
X14681132Y-10109674D01*
X14692208Y-10104340D01*
X14701820Y-10096674D01*
X14709484Y-10087062D01*
X14711681Y-10082498D01*
X14716362Y-10077312D01*
X14723105Y-10075480D01*
X14729767Y-10077584D01*
X14734025Y-10082496D01*
X14736518Y-10087671D01*
X14736518Y-10087672D01*
X14744183Y-10097282D01*
X14744184Y-10097282D01*
X14753794Y-10104945D01*
X14753794Y-10104945D01*
X14753794Y-10104946D01*
X14764869Y-10110279D01*
X14776854Y-10113014D01*
X14783000Y-10113014D01*
X14787329Y-10113014D01*
X14788417Y-10113014D01*
X14788458Y-10113010D01*
X14789146Y-10113010D01*
X14801129Y-10110275D01*
X14812204Y-10104942D01*
X14821814Y-10097279D01*
X14829479Y-10087670D01*
X14834813Y-10076596D01*
X14837549Y-10064613D01*
X14837550Y-10061587D01*
X14837550Y-10061581D01*
X14837550Y-10058461D01*
X14837550Y-10055450D01*
X14837550Y-10054138D01*
X14837550Y-10054138D01*
X14837550Y-10053077D01*
X14837550Y-10053070D01*
X14837550Y-10038042D01*
X14839518Y-10031339D01*
X14844799Y-10026763D01*
X14851715Y-10025769D01*
X14856839Y-10027732D01*
X14860421Y-10030126D01*
X14860421Y-10030126D01*
X14870000Y-10032031D01*
X14871221Y-10032031D01*
X14871221Y-10032291D01*
X14876436Y-10032758D01*
X14879867Y-10034798D01*
X14881271Y-10035976D01*
X14892190Y-10039950D01*
X14892190Y-10039950D01*
X14900778Y-10039950D01*
X14907482Y-10041919D01*
X14912058Y-10047199D01*
X14913052Y-10054115D01*
X14910150Y-10060470D01*
X14909547Y-10061118D01*
X14871689Y-10098976D01*
X14846171Y-10124494D01*
X14835847Y-10134818D01*
X14829714Y-10138167D01*
X14827079Y-10138450D01*
X14488122Y-10138450D01*
X14485703Y-10138212D01*
X14475000Y-10136083D01*
X14475000Y-10136083D01*
X14474109Y-10136260D01*
X14473598Y-10136362D01*
X14471179Y-10136600D01*
X14457071Y-10136600D01*
X14450368Y-10134632D01*
X14448303Y-10132968D01*
X14418877Y-10103541D01*
X14415902Y-10098093D01*
X14415834Y-10098118D01*
X14415673Y-10097675D01*
X14415528Y-10097409D01*
X14415471Y-10097119D01*
X14415463Y-10097099D01*
X14415463Y-10097098D01*
X14411998Y-10091097D01*
X14409654Y-10087036D01*
X14409654Y-10087035D01*
X14409653Y-10087035D01*
X14409653Y-10087035D01*
X14409653Y-10087035D01*
X14401759Y-10080411D01*
X14400752Y-10079566D01*
X14389833Y-10075592D01*
X14378213Y-10075592D01*
X14367294Y-10079566D01*
X14359098Y-10086444D01*
X14358392Y-10087035D01*
X14358392Y-10087036D01*
X14352583Y-10097098D01*
X14352582Y-10097099D01*
X14350565Y-10108542D01*
X14350565Y-10108542D01*
X14352582Y-10119985D01*
X14352583Y-10119985D01*
X14358392Y-10130048D01*
X14358393Y-10130049D01*
X14361904Y-10132995D01*
X14367294Y-10137518D01*
X14378213Y-10141492D01*
X14378213Y-10141492D01*
X14379151Y-10141657D01*
X14385411Y-10144760D01*
X14385765Y-10145100D01*
X14404702Y-10164037D01*
X14419630Y-10178965D01*
X14421172Y-10180844D01*
X14421966Y-10182033D01*
X14421967Y-10182033D01*
X14423663Y-10183167D01*
X14423665Y-10183168D01*
X14424171Y-10183506D01*
X14424171Y-10183506D01*
X14430699Y-10187868D01*
X14441000Y-10189917D01*
X14442402Y-10189638D01*
X14444821Y-10189400D01*
X14463728Y-10189400D01*
X14466147Y-10189638D01*
X14476850Y-10191767D01*
X14476850Y-10191767D01*
X14476850Y-10191767D01*
X14477741Y-10191590D01*
X14478252Y-10191488D01*
X14480671Y-10191250D01*
X14839329Y-10191250D01*
X14841748Y-10191488D01*
X14843150Y-10191767D01*
X14853451Y-10189718D01*
X14859979Y-10185356D01*
X14859979Y-10185356D01*
X14861077Y-10184622D01*
X14862183Y-10183883D01*
X14862978Y-10182695D01*
X14864519Y-10180816D01*
X14883506Y-10161829D01*
X14883506Y-10161829D01*
X14889363Y-10155972D01*
X14912340Y-10132995D01*
X14918472Y-10129647D01*
X14925441Y-10130145D01*
X14931035Y-10134332D01*
X14933476Y-10140879D01*
X14933320Y-10143917D01*
X14931542Y-10154000D01*
X14931542Y-10154000D01*
X14933559Y-10165443D01*
X14933560Y-10165444D01*
X14939369Y-10175506D01*
X14939369Y-10175506D01*
X14939369Y-10175507D01*
X14948271Y-10182976D01*
X14959190Y-10186950D01*
X14959190Y-10186950D01*
X14970810Y-10186950D01*
X14970810Y-10186950D01*
X14980580Y-10183394D01*
X14987553Y-10182951D01*
X14993659Y-10186348D01*
X14995560Y-10188846D01*
X15004713Y-10204699D01*
X15009248Y-10209735D01*
X15017730Y-10219156D01*
X15017730Y-10219157D01*
X15017731Y-10219157D01*
X15027251Y-10226074D01*
X15033470Y-10230592D01*
X15037882Y-10232557D01*
X15051243Y-10238505D01*
X15070273Y-10242550D01*
X15070274Y-10242550D01*
X15070425Y-10242566D01*
X15070508Y-10242600D01*
X15070908Y-10242685D01*
X15070893Y-10242758D01*
X15076887Y-10245224D01*
X15080886Y-10250953D01*
X15081152Y-10257935D01*
X15080923Y-10258730D01*
X15080865Y-10258909D01*
X15079108Y-10270000D01*
X15079108Y-10270000D01*
X15080865Y-10281091D01*
X15085963Y-10291097D01*
X15093903Y-10299037D01*
X15103909Y-10304135D01*
X15115000Y-10305892D01*
X15115000Y-10305892D01*
X15115000Y-10305892D01*
X15126091Y-10304135D01*
X15126091Y-10304135D01*
X15126091Y-10304135D01*
X15136097Y-10299037D01*
X15144037Y-10291097D01*
X15149135Y-10281091D01*
X15149135Y-10281091D01*
X15149135Y-10281091D01*
X15150892Y-10270000D01*
X15150892Y-10270000D01*
X15149135Y-10258909D01*
X15144037Y-10248903D01*
X15136330Y-10241197D01*
X15132982Y-10235064D01*
X15133480Y-10228095D01*
X15137667Y-10222502D01*
X15137798Y-10222405D01*
X15142269Y-10219157D01*
X15142498Y-10218903D01*
X15145939Y-10215082D01*
X15155287Y-10204699D01*
X15165014Y-10187851D01*
X15171026Y-10169348D01*
X15173060Y-10150000D01*
X15171026Y-10130652D01*
X15170748Y-10129796D01*
X15170548Y-10122812D01*
X15174156Y-10116828D01*
X15180427Y-10113746D01*
X15187368Y-10114542D01*
X15190512Y-10116465D01*
X15198271Y-10122976D01*
X15209190Y-10126950D01*
X15209190Y-10126950D01*
X15220810Y-10126950D01*
X15220810Y-10126950D01*
X15231729Y-10122976D01*
X15240630Y-10115507D01*
X15246440Y-10105443D01*
X15248458Y-10094000D01*
X15246440Y-10082557D01*
X15242999Y-10076596D01*
X15240631Y-10072494D01*
X15240630Y-10072493D01*
X15233954Y-10066892D01*
X15231729Y-10065024D01*
X15220810Y-10061050D01*
X15220810Y-10061050D01*
X15215521Y-10061050D01*
X15208818Y-10059082D01*
X15206753Y-10057418D01*
X15171370Y-10022035D01*
X15169828Y-10020156D01*
X15169724Y-10020000D01*
X15169033Y-10018967D01*
X15166829Y-10017494D01*
X15166829Y-10017494D01*
X15160301Y-10013132D01*
X15160301Y-10013132D01*
X15154755Y-10012029D01*
X15150000Y-10011083D01*
X15150000Y-10011083D01*
X15150000Y-10011083D01*
X15148910Y-10011300D01*
X15148598Y-10011362D01*
X15146179Y-10011600D01*
X14973821Y-10011600D01*
X14971402Y-10011362D01*
X14970891Y-10011260D01*
X14970000Y-10011083D01*
X14970000Y-10011083D01*
X14967400Y-10011600D01*
X14967399Y-10011600D01*
X14959699Y-10013132D01*
X14959699Y-10013132D01*
X14957518Y-10014589D01*
X14957518Y-10014589D01*
X14953031Y-10017588D01*
X14953020Y-10017595D01*
X14953018Y-10017596D01*
X14950604Y-10019209D01*
X14943936Y-10021297D01*
X14937198Y-10019449D01*
X14932529Y-10014251D01*
X14931530Y-10008085D01*
X14931458Y-10008085D01*
X14931458Y-10007644D01*
X14931411Y-10007354D01*
X14931458Y-10007043D01*
X14931458Y-10007000D01*
X14930636Y-10002337D01*
X14929440Y-9995557D01*
X14929440Y-9995556D01*
X14929400Y-9995444D01*
X14929388Y-9995257D01*
X14929252Y-9994488D01*
X14929338Y-9994473D01*
X14928956Y-9988471D01*
X14932283Y-9982435D01*
X14945537Y-9969182D01*
X14951669Y-9965833D01*
X14954305Y-9965550D01*
X15165361Y-9965550D01*
X15167780Y-9965788D01*
X15169000Y-9966031D01*
X15169000Y-9966031D01*
X15169000Y-9966031D01*
X15169000Y-9966031D01*
X15178579Y-9964126D01*
X15178579Y-9964126D01*
X15178579Y-9964126D01*
X15182744Y-9961343D01*
X15186700Y-9958700D01*
X15187391Y-9957665D01*
X15188933Y-9955786D01*
X15194139Y-9950580D01*
X15200272Y-9947231D01*
X15200754Y-9947136D01*
X15201810Y-9946950D01*
X15201810Y-9946950D01*
X15212729Y-9942976D01*
X15221630Y-9935507D01*
X15227440Y-9925443D01*
X15229458Y-9914000D01*
X15229007Y-9911443D01*
X15228572Y-9908976D01*
X15227440Y-9902557D01*
X15222756Y-9894444D01*
X15221631Y-9892494D01*
X15221631Y-9892494D01*
X15221630Y-9892493D01*
X15221630Y-9892493D01*
X15221630Y-9892493D01*
X15212729Y-9885024D01*
X15212729Y-9885024D01*
X15201810Y-9881050D01*
X15190190Y-9881050D01*
X15179271Y-9885024D01*
X15173370Y-9889976D01*
X15170369Y-9892494D01*
X15170369Y-9892494D01*
X15164559Y-9902557D01*
X15163916Y-9906204D01*
X15160814Y-9912464D01*
X15154819Y-9916053D01*
X15151705Y-9916450D01*
X14957212Y-9916450D01*
X14950508Y-9914482D01*
X14945933Y-9909201D01*
X14944939Y-9902285D01*
X14946474Y-9897850D01*
X14946571Y-9897682D01*
X14948440Y-9894443D01*
X14950458Y-9883000D01*
X14950413Y-9882744D01*
X14949568Y-9877950D01*
X14948440Y-9871557D01*
X14942630Y-9861493D01*
X14942630Y-9861493D01*
X14942630Y-9861493D01*
X14933729Y-9854024D01*
X14933729Y-9854024D01*
X14922810Y-9850050D01*
X14911190Y-9850050D01*
X14900271Y-9854024D01*
X14891429Y-9861444D01*
X14891369Y-9861494D01*
X14891369Y-9861494D01*
X14885560Y-9871556D01*
X14885559Y-9871557D01*
X14883542Y-9883000D01*
X14883542Y-9883000D01*
X14885551Y-9894396D01*
X14885559Y-9894443D01*
X14890789Y-9903501D01*
X14892450Y-9909701D01*
X14892450Y-9920695D01*
X14890481Y-9927399D01*
X14888818Y-9929463D01*
X14887679Y-9930602D01*
X14881546Y-9933950D01*
X14876493Y-9933995D01*
X14876360Y-9933969D01*
X14875140Y-9934212D01*
X14872721Y-9934450D01*
X14440347Y-9934450D01*
X14433643Y-9932482D01*
X14431579Y-9930818D01*
X14350761Y-9850000D01*
X14596542Y-9850000D01*
X14598559Y-9861443D01*
X14598560Y-9861444D01*
X14604369Y-9871506D01*
X14604370Y-9871507D01*
X14605972Y-9872851D01*
X14613271Y-9878976D01*
X14624190Y-9882950D01*
X14624190Y-9882950D01*
X14635810Y-9882950D01*
X14635810Y-9882950D01*
X14646729Y-9878976D01*
X14655630Y-9871507D01*
X14661440Y-9861443D01*
X14663458Y-9850000D01*
X14663131Y-9848147D01*
X14662532Y-9844750D01*
X14661440Y-9838557D01*
X14655909Y-9828976D01*
X14655631Y-9828494D01*
X14655631Y-9828494D01*
X14655630Y-9828493D01*
X14655630Y-9828493D01*
X14655630Y-9828493D01*
X14647304Y-9821507D01*
X14646729Y-9821024D01*
X14635810Y-9817050D01*
X14624190Y-9817050D01*
X14613271Y-9821024D01*
X14608860Y-9824726D01*
X14604369Y-9828494D01*
X14604369Y-9828494D01*
X14598560Y-9838556D01*
X14598559Y-9838557D01*
X14596542Y-9850000D01*
X14596542Y-9850000D01*
X14350761Y-9850000D01*
X14248761Y-9748000D01*
X14899542Y-9748000D01*
X14901559Y-9759443D01*
X14901560Y-9759444D01*
X14907369Y-9769506D01*
X14907370Y-9769507D01*
X14908309Y-9770295D01*
X14916271Y-9776976D01*
X14927190Y-9780950D01*
X14927190Y-9780950D01*
X14938810Y-9780950D01*
X14938810Y-9780950D01*
X14949729Y-9776976D01*
X14958630Y-9769507D01*
X14964440Y-9759443D01*
X14966458Y-9748000D01*
X14965841Y-9744498D01*
X14965048Y-9740000D01*
X14964440Y-9736557D01*
X14960997Y-9730592D01*
X14958631Y-9726494D01*
X14958631Y-9726494D01*
X14958630Y-9726493D01*
X14958630Y-9726493D01*
X14958630Y-9726493D01*
X14949729Y-9719024D01*
X14949729Y-9719024D01*
X14938810Y-9715050D01*
X14927190Y-9715050D01*
X14918400Y-9718250D01*
X14916271Y-9719024D01*
X14907369Y-9726494D01*
X14907369Y-9726494D01*
X14901560Y-9736556D01*
X14901559Y-9736557D01*
X14899542Y-9748000D01*
X14899542Y-9748000D01*
X14248761Y-9748000D01*
X14150761Y-9650000D01*
X14986940Y-9650000D01*
X14988974Y-9669348D01*
X14994986Y-9687851D01*
X14994986Y-9687851D01*
X15001394Y-9698950D01*
X15004713Y-9704699D01*
X15008418Y-9708814D01*
X15017730Y-9719156D01*
X15017730Y-9719157D01*
X15017731Y-9719157D01*
X15027829Y-9726494D01*
X15033470Y-9730592D01*
X15040293Y-9733630D01*
X15051243Y-9738505D01*
X15070273Y-9742550D01*
X15089727Y-9742550D01*
X15108757Y-9738505D01*
X15126530Y-9730592D01*
X15142269Y-9719157D01*
X15142318Y-9719103D01*
X15148158Y-9712617D01*
X15155287Y-9704699D01*
X15165014Y-9687851D01*
X15165014Y-9687850D01*
X15165147Y-9687620D01*
X15170204Y-9682799D01*
X15177065Y-9681476D01*
X15183551Y-9684073D01*
X15186935Y-9688191D01*
X15190963Y-9696097D01*
X15198903Y-9704037D01*
X15208909Y-9709135D01*
X15220000Y-9710892D01*
X15220000Y-9710892D01*
X15220000Y-9710892D01*
X15231091Y-9709135D01*
X15231091Y-9709135D01*
X15231091Y-9709135D01*
X15241097Y-9704037D01*
X15249037Y-9696097D01*
X15254135Y-9686091D01*
X15254135Y-9686091D01*
X15254135Y-9686091D01*
X15255892Y-9675000D01*
X15255892Y-9675000D01*
X15254135Y-9663909D01*
X15249037Y-9653903D01*
X15241096Y-9645963D01*
X15231091Y-9640865D01*
X15220000Y-9639108D01*
X15220000Y-9639108D01*
X15208909Y-9640865D01*
X15198904Y-9645963D01*
X15193516Y-9651350D01*
X15187384Y-9654698D01*
X15180415Y-9654200D01*
X15174821Y-9650013D01*
X15172416Y-9643878D01*
X15171026Y-9630652D01*
X15165014Y-9612149D01*
X15165014Y-9612149D01*
X15165014Y-9612149D01*
X15165014Y-9612149D01*
X15158155Y-9600269D01*
X15155287Y-9595301D01*
X15150188Y-9589638D01*
X15142270Y-9580844D01*
X15142269Y-9580843D01*
X15142269Y-9580843D01*
X15142269Y-9580843D01*
X15130408Y-9572225D01*
X15126530Y-9569408D01*
X15110902Y-9562450D01*
X15108757Y-9561495D01*
X15108757Y-9561495D01*
X15089727Y-9557450D01*
X15070273Y-9557450D01*
X15051243Y-9561495D01*
X15033470Y-9569408D01*
X15017730Y-9580843D01*
X15017730Y-9580844D01*
X15004713Y-9595301D01*
X14994986Y-9612149D01*
X14994986Y-9612149D01*
X14988974Y-9630652D01*
X14986940Y-9650000D01*
X14150761Y-9650000D01*
X14079118Y-9578358D01*
X14075770Y-9572225D01*
X14076268Y-9565256D01*
X14080455Y-9559663D01*
X14082256Y-9558542D01*
X14091097Y-9554037D01*
X14099037Y-9546097D01*
X14104135Y-9536091D01*
X14104135Y-9536091D01*
X14104135Y-9536091D01*
X14105892Y-9525000D01*
X14105892Y-9525000D01*
X14104135Y-9513909D01*
X14099037Y-9503903D01*
X14091096Y-9495963D01*
X14081091Y-9490865D01*
X14075632Y-9490000D01*
X14499435Y-9490000D01*
X14501483Y-9504246D01*
X14507462Y-9517337D01*
X14507462Y-9517337D01*
X14516887Y-9528214D01*
X14528995Y-9535995D01*
X14528995Y-9535995D01*
X14528995Y-9535995D01*
X14539711Y-9539142D01*
X14542634Y-9540000D01*
X14542804Y-9540050D01*
X14542804Y-9540050D01*
X14542804Y-9540050D01*
X14557196Y-9540050D01*
X14557196Y-9540050D01*
X14571005Y-9535995D01*
X14583113Y-9528214D01*
X14592538Y-9517337D01*
X14598516Y-9504246D01*
X14600565Y-9490000D01*
X14598516Y-9475754D01*
X14594577Y-9467129D01*
X14930755Y-9467129D01*
X14932511Y-9478220D01*
X14937609Y-9488225D01*
X14945550Y-9496166D01*
X14955556Y-9501264D01*
X14966647Y-9503021D01*
X14966647Y-9503021D01*
X14966647Y-9503021D01*
X14977738Y-9501264D01*
X14977738Y-9501264D01*
X14977738Y-9501264D01*
X14987743Y-9496166D01*
X14995684Y-9488226D01*
X15000782Y-9478220D01*
X15000782Y-9478220D01*
X15000782Y-9478220D01*
X15002539Y-9467129D01*
X15002539Y-9467129D01*
X15000782Y-9456038D01*
X14995684Y-9446032D01*
X14987743Y-9438091D01*
X14977738Y-9432993D01*
X14966647Y-9431237D01*
X14966647Y-9431237D01*
X14955556Y-9432993D01*
X14945550Y-9438091D01*
X14937609Y-9446032D01*
X14932511Y-9456038D01*
X14930755Y-9467129D01*
X14930755Y-9467129D01*
X14594577Y-9467129D01*
X14592538Y-9462663D01*
X14583113Y-9451786D01*
X14571005Y-9444005D01*
X14571005Y-9444005D01*
X14571005Y-9444005D01*
X14571005Y-9444005D01*
X14557196Y-9439950D01*
X14557196Y-9439950D01*
X14542804Y-9439950D01*
X14542804Y-9439950D01*
X14528995Y-9444005D01*
X14516887Y-9451786D01*
X14507462Y-9462663D01*
X14507462Y-9462663D01*
X14501483Y-9475754D01*
X14499435Y-9490000D01*
X14075632Y-9490000D01*
X14070000Y-9489108D01*
X14070000Y-9489108D01*
X14058909Y-9490865D01*
X14048903Y-9495963D01*
X14040963Y-9503903D01*
X14035865Y-9513909D01*
X14035332Y-9517269D01*
X14032339Y-9523583D01*
X14026408Y-9527276D01*
X14020666Y-9527491D01*
X14018042Y-9526969D01*
X14016821Y-9527212D01*
X14014402Y-9527450D01*
X13943347Y-9527450D01*
X13936643Y-9525482D01*
X13934579Y-9523818D01*
X13848261Y-9437500D01*
X14269042Y-9437500D01*
X14271059Y-9448943D01*
X14271060Y-9448944D01*
X14276869Y-9459006D01*
X14276870Y-9459007D01*
X14279848Y-9461506D01*
X14285771Y-9466476D01*
X14296690Y-9470450D01*
X14296690Y-9470450D01*
X14308310Y-9470450D01*
X14308310Y-9470450D01*
X14319229Y-9466476D01*
X14328130Y-9459007D01*
X14333940Y-9448943D01*
X14335958Y-9437500D01*
X14333940Y-9426057D01*
X14328269Y-9416234D01*
X14328131Y-9415994D01*
X14328131Y-9415994D01*
X14328130Y-9415993D01*
X14328130Y-9415993D01*
X14328130Y-9415993D01*
X14319229Y-9408524D01*
X14319229Y-9408524D01*
X14308310Y-9404550D01*
X14296690Y-9404550D01*
X14285771Y-9408524D01*
X14282619Y-9411169D01*
X14276869Y-9415994D01*
X14276869Y-9415994D01*
X14271060Y-9426056D01*
X14271059Y-9426057D01*
X14269042Y-9437500D01*
X14269042Y-9437500D01*
X13848261Y-9437500D01*
X13825761Y-9415000D01*
X13780761Y-9370000D01*
X14024108Y-9370000D01*
X14025865Y-9381091D01*
X14030963Y-9391097D01*
X14038903Y-9399037D01*
X14048909Y-9404135D01*
X14060000Y-9405892D01*
X14060000Y-9405892D01*
X14060000Y-9405892D01*
X14071091Y-9404135D01*
X14071091Y-9404135D01*
X14071091Y-9404135D01*
X14081097Y-9399037D01*
X14089037Y-9391097D01*
X14094135Y-9381091D01*
X14094135Y-9381091D01*
X14094135Y-9381091D01*
X14095892Y-9370000D01*
X14095892Y-9370000D01*
X14094135Y-9358909D01*
X14089037Y-9348903D01*
X14081096Y-9340963D01*
X14079207Y-9340000D01*
X14909435Y-9340000D01*
X14911483Y-9354246D01*
X14916578Y-9365401D01*
X14917462Y-9367337D01*
X14926887Y-9378214D01*
X14938995Y-9385995D01*
X14938995Y-9385995D01*
X14938995Y-9385995D01*
X14952804Y-9390050D01*
X14952804Y-9390050D01*
X14952804Y-9390050D01*
X14967196Y-9390050D01*
X14967196Y-9390050D01*
X14977912Y-9386904D01*
X14981005Y-9385995D01*
X14981005Y-9385995D01*
X14981005Y-9385995D01*
X14993113Y-9378214D01*
X15002538Y-9367337D01*
X15008516Y-9354246D01*
X15010565Y-9340000D01*
X15010237Y-9337722D01*
X15070917Y-9337722D01*
X15072965Y-9351968D01*
X15077752Y-9362448D01*
X15078944Y-9365059D01*
X15088369Y-9375936D01*
X15100477Y-9383717D01*
X15100477Y-9383717D01*
X15100477Y-9383717D01*
X15114286Y-9387772D01*
X15114286Y-9387772D01*
X15114286Y-9387772D01*
X15128678Y-9387772D01*
X15128678Y-9387772D01*
X15141064Y-9384135D01*
X15142487Y-9383717D01*
X15142487Y-9383717D01*
X15142487Y-9383717D01*
X15154595Y-9375936D01*
X15164020Y-9365059D01*
X15169998Y-9351968D01*
X15172047Y-9337722D01*
X15169998Y-9323476D01*
X15164020Y-9310385D01*
X15154595Y-9299508D01*
X15142487Y-9291727D01*
X15142487Y-9291727D01*
X15142487Y-9291727D01*
X15142487Y-9291727D01*
X15128678Y-9287672D01*
X15128678Y-9287672D01*
X15114286Y-9287672D01*
X15114286Y-9287672D01*
X15100477Y-9291727D01*
X15088369Y-9299508D01*
X15078944Y-9310385D01*
X15078944Y-9310385D01*
X15072965Y-9323476D01*
X15070917Y-9337722D01*
X15010237Y-9337722D01*
X15008516Y-9325754D01*
X15002538Y-9312663D01*
X14993113Y-9301786D01*
X14981005Y-9294005D01*
X14981005Y-9294005D01*
X14981005Y-9294005D01*
X14981005Y-9294005D01*
X14967196Y-9289950D01*
X14967196Y-9289950D01*
X14952804Y-9289950D01*
X14952804Y-9289950D01*
X14938995Y-9294005D01*
X14926887Y-9301786D01*
X14917462Y-9312663D01*
X14917462Y-9312663D01*
X14911483Y-9325754D01*
X14909435Y-9340000D01*
X14079207Y-9340000D01*
X14071091Y-9335865D01*
X14060000Y-9334108D01*
X14060000Y-9334108D01*
X14048909Y-9335865D01*
X14038903Y-9340963D01*
X14030963Y-9348903D01*
X14025865Y-9358909D01*
X14024108Y-9370000D01*
X14024108Y-9370000D01*
X13780761Y-9370000D01*
X13714370Y-9303609D01*
X13711021Y-9297477D01*
X13710926Y-9292688D01*
X13712458Y-9284000D01*
X13710440Y-9272557D01*
X13705424Y-9263868D01*
X13704631Y-9262494D01*
X13704630Y-9262493D01*
X13695729Y-9255024D01*
X13692040Y-9253681D01*
X13687040Y-9250000D01*
X13796542Y-9250000D01*
X13798559Y-9261443D01*
X13798560Y-9261444D01*
X13804369Y-9271506D01*
X13804370Y-9271507D01*
X13806160Y-9273009D01*
X13813271Y-9278976D01*
X13824190Y-9282950D01*
X13824190Y-9282950D01*
X13835810Y-9282950D01*
X13835810Y-9282950D01*
X13846729Y-9278976D01*
X13855630Y-9271507D01*
X13861440Y-9261443D01*
X13863458Y-9250000D01*
X13863265Y-9248903D01*
X13862302Y-9243443D01*
X13861440Y-9238557D01*
X13855630Y-9228493D01*
X13855630Y-9228493D01*
X13855630Y-9228493D01*
X13846729Y-9221024D01*
X13846729Y-9221024D01*
X13835810Y-9217050D01*
X13824190Y-9217050D01*
X13813271Y-9221024D01*
X13807020Y-9226269D01*
X13804369Y-9228494D01*
X13804369Y-9228494D01*
X13798560Y-9238556D01*
X13798559Y-9238557D01*
X13796542Y-9250000D01*
X13796542Y-9250000D01*
X13687040Y-9250000D01*
X13686413Y-9249539D01*
X13683920Y-9243012D01*
X13684069Y-9239876D01*
X13684697Y-9236315D01*
X13685458Y-9232000D01*
X13683440Y-9220557D01*
X13678933Y-9212750D01*
X13677631Y-9210494D01*
X13677631Y-9210494D01*
X13677630Y-9210493D01*
X13677630Y-9210493D01*
X13677630Y-9210493D01*
X13668729Y-9203024D01*
X13668729Y-9203024D01*
X13657810Y-9199050D01*
X13646190Y-9199050D01*
X13635271Y-9203024D01*
X13630493Y-9207033D01*
X13626369Y-9210494D01*
X13626369Y-9210494D01*
X13620560Y-9220556D01*
X13620559Y-9220557D01*
X13618542Y-9232000D01*
X13618542Y-9232000D01*
X13620273Y-9241821D01*
X13619499Y-9248765D01*
X13615093Y-9254187D01*
X13608455Y-9256368D01*
X13601692Y-9254613D01*
X13599294Y-9252742D01*
X13504788Y-9158237D01*
X13504571Y-9158000D01*
X13957542Y-9158000D01*
X13959559Y-9169443D01*
X13959560Y-9169444D01*
X13965369Y-9179506D01*
X13965369Y-9179506D01*
X13965369Y-9179507D01*
X13974271Y-9186976D01*
X13985190Y-9190950D01*
X13985190Y-9190950D01*
X13996810Y-9190950D01*
X13996810Y-9190950D01*
X14007729Y-9186976D01*
X14016630Y-9179507D01*
X14022440Y-9169443D01*
X14024458Y-9158000D01*
X14022440Y-9146557D01*
X14021542Y-9145000D01*
X14161542Y-9145000D01*
X14163559Y-9156443D01*
X14163560Y-9156444D01*
X14169369Y-9166506D01*
X14169369Y-9166506D01*
X14169369Y-9166507D01*
X14178271Y-9173976D01*
X14189190Y-9177950D01*
X14189190Y-9177950D01*
X14200810Y-9177950D01*
X14200810Y-9177950D01*
X14211729Y-9173976D01*
X14220630Y-9166507D01*
X14226440Y-9156443D01*
X14228458Y-9145000D01*
X14227863Y-9141624D01*
X14227585Y-9140050D01*
X14226440Y-9133557D01*
X14221529Y-9125050D01*
X14220631Y-9123494D01*
X14220631Y-9123494D01*
X14220630Y-9123493D01*
X14220630Y-9123493D01*
X14220630Y-9123493D01*
X14211729Y-9116024D01*
X14211729Y-9116024D01*
X14200810Y-9112050D01*
X14189190Y-9112050D01*
X14178271Y-9116024D01*
X14169369Y-9123494D01*
X14169369Y-9123494D01*
X14163560Y-9133556D01*
X14163559Y-9133557D01*
X14161542Y-9145000D01*
X14161542Y-9145000D01*
X14021542Y-9145000D01*
X14018684Y-9140050D01*
X14016631Y-9136494D01*
X14016631Y-9136494D01*
X14016630Y-9136493D01*
X14016630Y-9136493D01*
X14016630Y-9136493D01*
X14007729Y-9129024D01*
X14007729Y-9129024D01*
X13996810Y-9125050D01*
X13985190Y-9125050D01*
X13976496Y-9128214D01*
X13974271Y-9129024D01*
X13965369Y-9136494D01*
X13965369Y-9136494D01*
X13959560Y-9146556D01*
X13959559Y-9146557D01*
X13957542Y-9158000D01*
X13957542Y-9158000D01*
X13504571Y-9158000D01*
X13504057Y-9157439D01*
X13501612Y-9154525D01*
X13501612Y-9154525D01*
X13498318Y-9152623D01*
X13497406Y-9152042D01*
X13494291Y-9149861D01*
X13493832Y-9149647D01*
X13492085Y-9148923D01*
X13491610Y-9148750D01*
X13487864Y-9148090D01*
X13486808Y-9147856D01*
X13483134Y-9146871D01*
X13479495Y-9147190D01*
X13479346Y-9147203D01*
X13478265Y-9147250D01*
X13412134Y-9147250D01*
X13403626Y-9148750D01*
X13403625Y-9148751D01*
X13393624Y-9154525D01*
X13393624Y-9154525D01*
X13393624Y-9154525D01*
X13393624Y-9154525D01*
X13390509Y-9158237D01*
X13386200Y-9163373D01*
X13382509Y-9173512D01*
X13379625Y-9178039D01*
X13147697Y-9409968D01*
X13141564Y-9413317D01*
X13138929Y-9413600D01*
X13134312Y-9413600D01*
X13127608Y-9411632D01*
X13126980Y-9411169D01*
X13126729Y-9411025D01*
X13126729Y-9411024D01*
X13126729Y-9411024D01*
X13115810Y-9407050D01*
X13104190Y-9407050D01*
X13093271Y-9411024D01*
X13085631Y-9417435D01*
X13084369Y-9418494D01*
X13084369Y-9418494D01*
X13080739Y-9424782D01*
X13075682Y-9429604D01*
X13068821Y-9430926D01*
X13062335Y-9428329D01*
X13059261Y-9424782D01*
X13055631Y-9418494D01*
X13055631Y-9418494D01*
X13055630Y-9418493D01*
X13055630Y-9418493D01*
X13055630Y-9418493D01*
X13046729Y-9411024D01*
X13046729Y-9411024D01*
X13035810Y-9407050D01*
X13024190Y-9407050D01*
X13013271Y-9411024D01*
X13005631Y-9417435D01*
X13004369Y-9418494D01*
X13004369Y-9418494D01*
X13000739Y-9424782D01*
X12995682Y-9429604D01*
X12988821Y-9430926D01*
X12982335Y-9428329D01*
X12979261Y-9424782D01*
X12975088Y-9417554D01*
X12975294Y-9417435D01*
X12973093Y-9412408D01*
X12974197Y-9405509D01*
X12978855Y-9400302D01*
X12981152Y-9399186D01*
X12981729Y-9398976D01*
X12990630Y-9391507D01*
X12996440Y-9381443D01*
X12998458Y-9370000D01*
X12998458Y-9370000D01*
X12997744Y-9365950D01*
X12996440Y-9358557D01*
X12992133Y-9351097D01*
X12990631Y-9348494D01*
X12990630Y-9348493D01*
X12981729Y-9341024D01*
X12981729Y-9341024D01*
X12970810Y-9337050D01*
X12959190Y-9337050D01*
X12951085Y-9340000D01*
X12949568Y-9340552D01*
X12942595Y-9340995D01*
X12936489Y-9337598D01*
X12933189Y-9331440D01*
X12933115Y-9331053D01*
X12933001Y-9330406D01*
X12931440Y-9321557D01*
X12926306Y-9312663D01*
X12925631Y-9311494D01*
X12925631Y-9311494D01*
X12925630Y-9311493D01*
X12925630Y-9311493D01*
X12925630Y-9311493D01*
X12918103Y-9305177D01*
X12916729Y-9304024D01*
X12905810Y-9300050D01*
X12894190Y-9300050D01*
X12889422Y-9301786D01*
X12883271Y-9304024D01*
X12874369Y-9311494D01*
X12874369Y-9311494D01*
X12868560Y-9321556D01*
X12868559Y-9321557D01*
X12866542Y-9333000D01*
X12866542Y-9333000D01*
X12810417Y-9333000D01*
X12810892Y-9330000D01*
X12810892Y-9330000D01*
X12809207Y-9319364D01*
X12810103Y-9312435D01*
X12814602Y-9307089D01*
X12819514Y-9305177D01*
X12826091Y-9304135D01*
X12836097Y-9299037D01*
X12844037Y-9291097D01*
X12849135Y-9281091D01*
X12849135Y-9281091D01*
X12849135Y-9281091D01*
X12850892Y-9270000D01*
X12850892Y-9270000D01*
X12849135Y-9258909D01*
X12844037Y-9248903D01*
X12836096Y-9240963D01*
X12829984Y-9237849D01*
X12824905Y-9233051D01*
X12823225Y-9226269D01*
X12825479Y-9219656D01*
X12830950Y-9215310D01*
X12835614Y-9214400D01*
X12837179Y-9214400D01*
X12839598Y-9214638D01*
X12841000Y-9214917D01*
X12851301Y-9212868D01*
X12857829Y-9208506D01*
X12857829Y-9208506D01*
X12858927Y-9207772D01*
X12860033Y-9207033D01*
X12860828Y-9205845D01*
X12862369Y-9203966D01*
X12881965Y-9184370D01*
X12883845Y-9182828D01*
X12884645Y-9182293D01*
X12885033Y-9182033D01*
X12890868Y-9173301D01*
X12892400Y-9165600D01*
X12892400Y-9165600D01*
X12892917Y-9163000D01*
X12892917Y-9163000D01*
X12892638Y-9161598D01*
X12892400Y-9159179D01*
X12892400Y-9140055D01*
X12894368Y-9133352D01*
X12894769Y-9132766D01*
X12895037Y-9132397D01*
X12895037Y-9132397D01*
X12895794Y-9130911D01*
X12899350Y-9123932D01*
X12900135Y-9122391D01*
X12900135Y-9122391D01*
X12900135Y-9122391D01*
X12901892Y-9111300D01*
X12901892Y-9111300D01*
X12900135Y-9100209D01*
X12895037Y-9090203D01*
X12894834Y-9090000D01*
X14769435Y-9090000D01*
X14771483Y-9104246D01*
X14775048Y-9112050D01*
X14777462Y-9117337D01*
X14786887Y-9128214D01*
X14798995Y-9135995D01*
X14798995Y-9135995D01*
X14798995Y-9135995D01*
X14809711Y-9139142D01*
X14812634Y-9140000D01*
X14812804Y-9140050D01*
X14812804Y-9140050D01*
X14812804Y-9140050D01*
X14827196Y-9140050D01*
X14827196Y-9140050D01*
X14841005Y-9135995D01*
X14853113Y-9128214D01*
X14862538Y-9117337D01*
X14868516Y-9104246D01*
X14870565Y-9090000D01*
X14868516Y-9075754D01*
X14862538Y-9062663D01*
X14853113Y-9051786D01*
X14841005Y-9044005D01*
X14841005Y-9044005D01*
X14841005Y-9044005D01*
X14841005Y-9044005D01*
X14827196Y-9039950D01*
X14827196Y-9039950D01*
X14812804Y-9039950D01*
X14812804Y-9039950D01*
X14798995Y-9044005D01*
X14786887Y-9051786D01*
X14777462Y-9062663D01*
X14777462Y-9062663D01*
X14771483Y-9075754D01*
X14769435Y-9090000D01*
X12894834Y-9090000D01*
X12887096Y-9082263D01*
X12877091Y-9077165D01*
X12866000Y-9075408D01*
X12866000Y-9075408D01*
X12854909Y-9077165D01*
X12844903Y-9082263D01*
X12836963Y-9090203D01*
X12831865Y-9100209D01*
X12831864Y-9100209D01*
X12831773Y-9100787D01*
X12828780Y-9107100D01*
X12822848Y-9110793D01*
X12815862Y-9110693D01*
X12815285Y-9110499D01*
X12805810Y-9107050D01*
X12794190Y-9107050D01*
X12783271Y-9111024D01*
X12775668Y-9117404D01*
X12774369Y-9118494D01*
X12774369Y-9118494D01*
X12768560Y-9128556D01*
X12768559Y-9128557D01*
X12766542Y-9140000D01*
X12766542Y-9140000D01*
X12768149Y-9149115D01*
X12767374Y-9156059D01*
X12762969Y-9161482D01*
X12760683Y-9162724D01*
X12759699Y-9163132D01*
X12750967Y-9168967D01*
X12750966Y-9168967D01*
X12750172Y-9170156D01*
X12748630Y-9172034D01*
X12711697Y-9208968D01*
X12705564Y-9212317D01*
X12702929Y-9212600D01*
X12693565Y-9212600D01*
X12691146Y-9212362D01*
X12690635Y-9212260D01*
X12689744Y-9212083D01*
X12689744Y-9212083D01*
X12687144Y-9212600D01*
X12687143Y-9212600D01*
X12679443Y-9214132D01*
X12676844Y-9215869D01*
X12672775Y-9218588D01*
X12672774Y-9218588D01*
X12670711Y-9219967D01*
X12669916Y-9221156D01*
X12668374Y-9223034D01*
X12630034Y-9261374D01*
X12628156Y-9262916D01*
X12626967Y-9263711D01*
X12624472Y-9267444D01*
X12624472Y-9267444D01*
X12621132Y-9272443D01*
X12619083Y-9282744D01*
X12619362Y-9284146D01*
X12619600Y-9286565D01*
X12619600Y-9316504D01*
X12617939Y-9322704D01*
X12614559Y-9328557D01*
X12614559Y-9328557D01*
X12612542Y-9340000D01*
X12612542Y-9340000D01*
X12284596Y-9340000D01*
X12289135Y-9331091D01*
X12289135Y-9331091D01*
X12289135Y-9331091D01*
X12290892Y-9320000D01*
X12290892Y-9320000D01*
X12289135Y-9308909D01*
X12284037Y-9298903D01*
X12276096Y-9290963D01*
X12266091Y-9285865D01*
X12255000Y-9284108D01*
X12255000Y-9284108D01*
X12243909Y-9285865D01*
X12233903Y-9290963D01*
X12225963Y-9298903D01*
X12220865Y-9308909D01*
X12219108Y-9320000D01*
X12219108Y-9320000D01*
X11727966Y-9320000D01*
X11748789Y-9286795D01*
X11749492Y-9285790D01*
X11752403Y-9282037D01*
X11752897Y-9281440D01*
X11792681Y-9236313D01*
X11793210Y-9235750D01*
X11809568Y-9219393D01*
X11810921Y-9218222D01*
X11915853Y-9140000D01*
X12511542Y-9140000D01*
X12513559Y-9151443D01*
X12513560Y-9151444D01*
X12519369Y-9161506D01*
X12519370Y-9161507D01*
X12521593Y-9163373D01*
X12528271Y-9168976D01*
X12539190Y-9172950D01*
X12539190Y-9172950D01*
X12550810Y-9172950D01*
X12550810Y-9172950D01*
X12561729Y-9168976D01*
X12570630Y-9161507D01*
X12576440Y-9151443D01*
X12578458Y-9140000D01*
X12576440Y-9128557D01*
X12570909Y-9118976D01*
X12570631Y-9118494D01*
X12570631Y-9118494D01*
X12570630Y-9118493D01*
X12570630Y-9118493D01*
X12570630Y-9118493D01*
X12562058Y-9111300D01*
X12561729Y-9111024D01*
X12550810Y-9107050D01*
X12539190Y-9107050D01*
X12528271Y-9111024D01*
X12520668Y-9117404D01*
X12519369Y-9118494D01*
X12519369Y-9118494D01*
X12513560Y-9128556D01*
X12513559Y-9128557D01*
X12511542Y-9140000D01*
X12511542Y-9140000D01*
X11915853Y-9140000D01*
X11982927Y-9090000D01*
X12106542Y-9090000D01*
X12108559Y-9101443D01*
X12108560Y-9101444D01*
X12114369Y-9111506D01*
X12114369Y-9111506D01*
X12114369Y-9111507D01*
X12123271Y-9118976D01*
X12134190Y-9122950D01*
X12134190Y-9122950D01*
X12145810Y-9122950D01*
X12145810Y-9122950D01*
X12156729Y-9118976D01*
X12165630Y-9111507D01*
X12171440Y-9101443D01*
X12173458Y-9090000D01*
X12171440Y-9078557D01*
X12167370Y-9071507D01*
X12165631Y-9068494D01*
X12165631Y-9068494D01*
X12165630Y-9068493D01*
X12165630Y-9068493D01*
X12165630Y-9068493D01*
X12157229Y-9061444D01*
X12156729Y-9061024D01*
X12145810Y-9057050D01*
X12134190Y-9057050D01*
X12123271Y-9061024D01*
X12120312Y-9063507D01*
X12114369Y-9068494D01*
X12114369Y-9068494D01*
X12108560Y-9078556D01*
X12108559Y-9078557D01*
X12106542Y-9090000D01*
X12106542Y-9090000D01*
X11982927Y-9090000D01*
X12043972Y-9044494D01*
X12045751Y-9043388D01*
X12055463Y-9038440D01*
X12057338Y-9037670D01*
X12100400Y-9024000D01*
X12382542Y-9024000D01*
X12384559Y-9035443D01*
X12384560Y-9035444D01*
X12390369Y-9045506D01*
X12390370Y-9045507D01*
X12393596Y-9048214D01*
X12399271Y-9052976D01*
X12410190Y-9056950D01*
X12410190Y-9056950D01*
X12421810Y-9056950D01*
X12421810Y-9056950D01*
X12432729Y-9052976D01*
X12436275Y-9050000D01*
X12656542Y-9050000D01*
X12658559Y-9061443D01*
X12658560Y-9061444D01*
X12664369Y-9071506D01*
X12664370Y-9071507D01*
X12668473Y-9074950D01*
X12673271Y-9078976D01*
X12684190Y-9082950D01*
X12684190Y-9082950D01*
X12695810Y-9082950D01*
X12695810Y-9082950D01*
X12706729Y-9078976D01*
X12715630Y-9071507D01*
X12721440Y-9061443D01*
X12723458Y-9050000D01*
X12722048Y-9042000D01*
X12934542Y-9042000D01*
X12936559Y-9053443D01*
X12936560Y-9053444D01*
X12942369Y-9063506D01*
X12942369Y-9063506D01*
X12942369Y-9063507D01*
X12951271Y-9070976D01*
X12962190Y-9074950D01*
X12962190Y-9074950D01*
X12973810Y-9074950D01*
X12973810Y-9074950D01*
X12984729Y-9070976D01*
X12993630Y-9063507D01*
X12999440Y-9053443D01*
X13001458Y-9042000D01*
X12999440Y-9030557D01*
X12993630Y-9020493D01*
X12993630Y-9020493D01*
X12993630Y-9020493D01*
X12984729Y-9013024D01*
X12984729Y-9013024D01*
X12973810Y-9009050D01*
X12962190Y-9009050D01*
X12951271Y-9013024D01*
X12943486Y-9019557D01*
X12942369Y-9020494D01*
X12942369Y-9020494D01*
X12936560Y-9030556D01*
X12936559Y-9030557D01*
X12934542Y-9042000D01*
X12934542Y-9042000D01*
X12722048Y-9042000D01*
X12721440Y-9038557D01*
X12715630Y-9028493D01*
X12715630Y-9028493D01*
X12715630Y-9028493D01*
X12706729Y-9021024D01*
X12706729Y-9021024D01*
X12695810Y-9017050D01*
X12684190Y-9017050D01*
X12676617Y-9019806D01*
X12673271Y-9021024D01*
X12664369Y-9028494D01*
X12664369Y-9028494D01*
X12658560Y-9038556D01*
X12658559Y-9038557D01*
X12656542Y-9050000D01*
X12656542Y-9050000D01*
X12436275Y-9050000D01*
X12441630Y-9045507D01*
X12447440Y-9035443D01*
X12449458Y-9024000D01*
X12449170Y-9022363D01*
X12447523Y-9013024D01*
X12447440Y-9012557D01*
X12443359Y-9005488D01*
X12441631Y-9002494D01*
X12441631Y-9002494D01*
X12441630Y-9002493D01*
X12441630Y-9002493D01*
X12441630Y-9002493D01*
X12434954Y-8996892D01*
X12432729Y-8995024D01*
X12421810Y-8991050D01*
X12410190Y-8991050D01*
X12399271Y-8995024D01*
X12390928Y-9002024D01*
X12390369Y-9002494D01*
X12390369Y-9002494D01*
X12384560Y-9012556D01*
X12384559Y-9012557D01*
X12382542Y-9024000D01*
X12382542Y-9024000D01*
X12100400Y-9024000D01*
X12363169Y-8940581D01*
X12366921Y-8940000D01*
X14143299Y-8940000D01*
X14150003Y-8941969D01*
G37*
G04 #@! TD.AperFunction*
G04 #@! TA.AperFunction,NonConductor*
G36*
X13350466Y-10020684D02*
G01*
X13355603Y-10025419D01*
X13357366Y-10032180D01*
X13355193Y-10038821D01*
X13352942Y-10041300D01*
X13344370Y-10048493D01*
X13344369Y-10048494D01*
X13338560Y-10058556D01*
X13338559Y-10058557D01*
X13336542Y-10070000D01*
X13336542Y-10070000D01*
X13337070Y-10072994D01*
X13336295Y-10079938D01*
X13331889Y-10085361D01*
X13325251Y-10087541D01*
X13320617Y-10086800D01*
X13318159Y-10085905D01*
X13312533Y-10081763D01*
X13310039Y-10075236D01*
X13310000Y-10074253D01*
X13310000Y-10032632D01*
X13311968Y-10025928D01*
X13317249Y-10021352D01*
X13323788Y-10020310D01*
X13330000Y-10021009D01*
X13330000Y-10021009D01*
X13343583Y-10019479D01*
X13350466Y-10020684D01*
G37*
G04 #@! TD.AperFunction*
G04 #@! TA.AperFunction,NonConductor*
G36*
X15011389Y-10066369D02*
G01*
X15015965Y-10071649D01*
X15016959Y-10078565D01*
X15014057Y-10084920D01*
X15013900Y-10085097D01*
X15004713Y-10095301D01*
X14994986Y-10112149D01*
X14994985Y-10112149D01*
X14993810Y-10115765D01*
X14989867Y-10121533D01*
X14983431Y-10124253D01*
X14977776Y-10123586D01*
X14970810Y-10121050D01*
X14959190Y-10121050D01*
X14959190Y-10121050D01*
X14956870Y-10121894D01*
X14949897Y-10122337D01*
X14943792Y-10118940D01*
X14940492Y-10112782D01*
X14941046Y-10105817D01*
X14943861Y-10101475D01*
X14977304Y-10068032D01*
X14983436Y-10064683D01*
X14986071Y-10064400D01*
X15004685Y-10064400D01*
X15011389Y-10066369D01*
G37*
G04 #@! TD.AperFunction*
M02*
