G04 #@! TF.GenerationSoftware,KiCad,Pcbnew,7.0.10-7.0.10~ubuntu22.04.1*
G04 #@! TF.CreationDate,2024-02-23T20:42:25+01:00*
G04 #@! TF.ProjectId,dictofun,64696374-6f66-4756-9e2e-6b696361645f,rev?*
G04 #@! TF.SameCoordinates,Original*
G04 #@! TF.FileFunction,Soldermask,Top*
G04 #@! TF.FilePolarity,Negative*
%FSLAX45Y45*%
G04 Gerber Fmt 4.5, Leading zero omitted, Abs format (unit mm)*
G04 Created by KiCad (PCBNEW 7.0.10-7.0.10~ubuntu22.04.1) date 2024-02-23 20:42:25*
%MOMM*%
%LPD*%
G01*
G04 APERTURE LIST*
G04 Aperture macros list*
%AMRoundRect*
0 Rectangle with rounded corners*
0 $1 Rounding radius*
0 $2 $3 $4 $5 $6 $7 $8 $9 X,Y pos of 4 corners*
0 Add a 4 corners polygon primitive as box body*
4,1,4,$2,$3,$4,$5,$6,$7,$8,$9,$2,$3,0*
0 Add four circle primitives for the rounded corners*
1,1,$1+$1,$2,$3*
1,1,$1+$1,$4,$5*
1,1,$1+$1,$6,$7*
1,1,$1+$1,$8,$9*
0 Add four rect primitives between the rounded corners*
20,1,$1+$1,$2,$3,$4,$5,0*
20,1,$1+$1,$4,$5,$6,$7,0*
20,1,$1+$1,$6,$7,$8,$9,0*
20,1,$1+$1,$8,$9,$2,$3,0*%
%AMHorizOval*
0 Thick line with rounded ends*
0 $1 width*
0 $2 $3 position (X,Y) of the first rounded end (center of the circle)*
0 $4 $5 position (X,Y) of the second rounded end (center of the circle)*
0 Add line between two ends*
20,1,$1,$2,$3,$4,$5,0*
0 Add two circle primitives to create the rounded ends*
1,1,$1,$2,$3*
1,1,$1,$4,$5*%
G04 Aperture macros list end*
%ADD10C,0.010000*%
%ADD11RoundRect,0.140000X0.170000X-0.140000X0.170000X0.140000X-0.170000X0.140000X-0.170000X-0.140000X0*%
%ADD12RoundRect,0.062500X-0.062500X0.375000X-0.062500X-0.375000X0.062500X-0.375000X0.062500X0.375000X0*%
%ADD13RoundRect,0.062500X-0.375000X0.062500X-0.375000X-0.062500X0.375000X-0.062500X0.375000X0.062500X0*%
%ADD14R,1.450000X1.450000*%
%ADD15RoundRect,0.135000X0.135000X0.185000X-0.135000X0.185000X-0.135000X-0.185000X0.135000X-0.185000X0*%
%ADD16RoundRect,0.140000X0.140000X0.170000X-0.140000X0.170000X-0.140000X-0.170000X0.140000X-0.170000X0*%
%ADD17RoundRect,0.135000X-0.185000X0.135000X-0.185000X-0.135000X0.185000X-0.135000X0.185000X0.135000X0*%
%ADD18RoundRect,0.135000X-0.135000X-0.185000X0.135000X-0.185000X0.135000X0.185000X-0.135000X0.185000X0*%
%ADD19RoundRect,0.218750X0.218750X0.256250X-0.218750X0.256250X-0.218750X-0.256250X0.218750X-0.256250X0*%
%ADD20RoundRect,0.140000X-0.140000X-0.170000X0.140000X-0.170000X0.140000X0.170000X-0.140000X0.170000X0*%
%ADD21RoundRect,0.140000X-0.170000X0.140000X-0.170000X-0.140000X0.170000X-0.140000X0.170000X0.140000X0*%
%ADD22C,1.000000*%
%ADD23RoundRect,0.100000X-0.130000X-0.100000X0.130000X-0.100000X0.130000X0.100000X-0.130000X0.100000X0*%
%ADD24R,0.500000X0.800000*%
%ADD25RoundRect,0.100000X0.130000X0.100000X-0.130000X0.100000X-0.130000X-0.100000X0.130000X-0.100000X0*%
%ADD26RoundRect,0.100000X-0.100000X0.130000X-0.100000X-0.130000X0.100000X-0.130000X0.100000X0.130000X0*%
%ADD27R,0.600000X1.200000*%
%ADD28RoundRect,0.100000X0.100000X-0.130000X0.100000X0.130000X-0.100000X0.130000X-0.100000X-0.130000X0*%
%ADD29RoundRect,0.150000X0.150000X-0.587500X0.150000X0.587500X-0.150000X0.587500X-0.150000X-0.587500X0*%
%ADD30RoundRect,0.150000X0.150000X-0.512500X0.150000X0.512500X-0.150000X0.512500X-0.150000X-0.512500X0*%
%ADD31RoundRect,0.147500X-0.147500X-0.172500X0.147500X-0.172500X0.147500X0.172500X-0.147500X0.172500X0*%
%ADD32RoundRect,0.250000X-0.850000X0.375000X-0.850000X-0.375000X0.850000X-0.375000X0.850000X0.375000X0*%
%ADD33RoundRect,0.225000X0.225000X0.250000X-0.225000X0.250000X-0.225000X-0.250000X0.225000X-0.250000X0*%
%ADD34RoundRect,0.200000X0.200000X0.275000X-0.200000X0.275000X-0.200000X-0.275000X0.200000X-0.275000X0*%
%ADD35R,0.500000X0.400000*%
%ADD36R,0.500000X0.300000*%
%ADD37RoundRect,0.225000X-0.225000X-0.250000X0.225000X-0.250000X0.225000X0.250000X-0.225000X0.250000X0*%
%ADD38R,1.000000X0.900000*%
%ADD39R,0.550000X1.700000*%
%ADD40RoundRect,0.250000X-0.300000X0.300000X-0.300000X-0.300000X0.300000X-0.300000X0.300000X0.300000X0*%
%ADD41RoundRect,0.101600X-0.475000X-0.425000X0.475000X-0.425000X0.475000X0.425000X-0.475000X0.425000X0*%
%ADD42R,1.000000X0.800000*%
%ADD43RoundRect,0.147500X0.147500X0.172500X-0.147500X0.172500X-0.147500X-0.172500X0.147500X-0.172500X0*%
%ADD44C,0.910000*%
%ADD45HorizOval,0.910000X-0.100000X0.100000X0.100000X-0.100000X0*%
%ADD46RoundRect,0.125000X0.250000X0.125000X-0.250000X0.125000X-0.250000X-0.125000X0.250000X-0.125000X0*%
%ADD47R,3.400000X4.300000*%
%ADD48RoundRect,0.218750X0.256250X-0.218750X0.256250X0.218750X-0.256250X0.218750X-0.256250X-0.218750X0*%
%ADD49R,0.850000X0.850000*%
%ADD50C,0.814000*%
%ADD51RoundRect,0.102000X-2.438400X2.641600X-2.438400X-2.641600X2.438400X-2.641600X2.438400X2.641600X0*%
%ADD52C,0.604000*%
%ADD53C,0.429000*%
%ADD54R,1.000000X0.700000*%
%ADD55R,0.600000X0.700000*%
%ADD56O,1.900000X1.200000*%
%ADD57C,1.450000*%
G04 APERTURE END LIST*
D10*
X14921300Y-9320600D02*
X14921900Y-9320600D01*
X14922500Y-9320800D01*
X14923100Y-9320900D01*
X14923700Y-9321100D01*
X14924300Y-9321300D01*
X14924900Y-9321500D01*
X14925400Y-9321800D01*
X14926000Y-9322100D01*
X14926500Y-9322400D01*
X14927100Y-9322800D01*
X14927600Y-9323200D01*
X14928000Y-9323600D01*
X14928500Y-9324000D01*
X14928900Y-9324500D01*
X14929300Y-9324900D01*
X14929700Y-9325400D01*
X14930100Y-9326000D01*
X14930400Y-9326500D01*
X14930700Y-9327100D01*
X14931000Y-9327600D01*
X14931200Y-9328200D01*
X14931400Y-9328800D01*
X14931600Y-9329400D01*
X14931700Y-9330000D01*
X14931900Y-9330600D01*
X14931900Y-9331200D01*
X14932000Y-9331900D01*
X14932000Y-9332500D01*
X14932000Y-9347500D01*
X14932000Y-9348100D01*
X14931900Y-9348800D01*
X14931900Y-9349400D01*
X14931700Y-9350000D01*
X14931600Y-9350600D01*
X14931400Y-9351200D01*
X14931200Y-9351800D01*
X14931000Y-9352400D01*
X14930700Y-9352900D01*
X14930400Y-9353500D01*
X14930100Y-9354000D01*
X14929700Y-9354600D01*
X14929300Y-9355100D01*
X14928900Y-9355500D01*
X14928500Y-9356000D01*
X14928000Y-9356400D01*
X14927600Y-9356800D01*
X14927100Y-9357200D01*
X14926500Y-9357600D01*
X14926000Y-9357900D01*
X14925400Y-9358200D01*
X14924900Y-9358500D01*
X14924300Y-9358700D01*
X14923700Y-9358900D01*
X14923100Y-9359100D01*
X14922500Y-9359200D01*
X14921900Y-9359400D01*
X14921300Y-9359400D01*
X14920600Y-9359500D01*
X14920000Y-9359500D01*
X14870000Y-9359500D01*
X14869400Y-9359500D01*
X14868700Y-9359400D01*
X14868100Y-9359400D01*
X14867500Y-9359200D01*
X14866900Y-9359100D01*
X14866300Y-9358900D01*
X14865700Y-9358700D01*
X14865100Y-9358500D01*
X14864600Y-9358200D01*
X14864000Y-9357900D01*
X14863500Y-9357600D01*
X14862900Y-9357200D01*
X14862400Y-9356800D01*
X14862000Y-9356400D01*
X14861500Y-9356000D01*
X14861100Y-9355500D01*
X14860700Y-9355100D01*
X14860300Y-9354600D01*
X14859900Y-9354000D01*
X14859600Y-9353500D01*
X14859300Y-9352900D01*
X14859000Y-9352400D01*
X14858800Y-9351800D01*
X14858600Y-9351200D01*
X14858400Y-9350600D01*
X14858300Y-9350000D01*
X14858100Y-9349400D01*
X14858100Y-9348800D01*
X14858000Y-9348100D01*
X14858000Y-9347500D01*
X14858000Y-9332500D01*
X14858000Y-9331900D01*
X14858100Y-9331200D01*
X14858100Y-9330600D01*
X14858300Y-9330000D01*
X14858400Y-9329400D01*
X14858600Y-9328800D01*
X14858800Y-9328200D01*
X14859000Y-9327600D01*
X14859300Y-9327100D01*
X14859600Y-9326500D01*
X14859900Y-9326000D01*
X14860300Y-9325400D01*
X14860700Y-9324900D01*
X14861100Y-9324500D01*
X14861500Y-9324000D01*
X14862000Y-9323600D01*
X14862400Y-9323200D01*
X14862900Y-9322800D01*
X14863500Y-9322400D01*
X14864000Y-9322100D01*
X14864600Y-9321800D01*
X14865100Y-9321500D01*
X14865700Y-9321300D01*
X14866300Y-9321100D01*
X14866900Y-9320900D01*
X14867500Y-9320800D01*
X14868100Y-9320600D01*
X14868700Y-9320600D01*
X14869400Y-9320500D01*
X14870000Y-9320500D01*
X14920000Y-9320500D01*
X14920600Y-9320500D01*
X14921300Y-9320600D01*
G36*
X14921300Y-9320600D02*
G01*
X14921900Y-9320600D01*
X14922500Y-9320800D01*
X14923100Y-9320900D01*
X14923700Y-9321100D01*
X14924300Y-9321300D01*
X14924900Y-9321500D01*
X14925400Y-9321800D01*
X14926000Y-9322100D01*
X14926500Y-9322400D01*
X14927100Y-9322800D01*
X14927600Y-9323200D01*
X14928000Y-9323600D01*
X14928500Y-9324000D01*
X14928900Y-9324500D01*
X14929300Y-9324900D01*
X14929700Y-9325400D01*
X14930100Y-9326000D01*
X14930400Y-9326500D01*
X14930700Y-9327100D01*
X14931000Y-9327600D01*
X14931200Y-9328200D01*
X14931400Y-9328800D01*
X14931600Y-9329400D01*
X14931700Y-9330000D01*
X14931900Y-9330600D01*
X14931900Y-9331200D01*
X14932000Y-9331900D01*
X14932000Y-9332500D01*
X14932000Y-9347500D01*
X14932000Y-9348100D01*
X14931900Y-9348800D01*
X14931900Y-9349400D01*
X14931700Y-9350000D01*
X14931600Y-9350600D01*
X14931400Y-9351200D01*
X14931200Y-9351800D01*
X14931000Y-9352400D01*
X14930700Y-9352900D01*
X14930400Y-9353500D01*
X14930100Y-9354000D01*
X14929700Y-9354600D01*
X14929300Y-9355100D01*
X14928900Y-9355500D01*
X14928500Y-9356000D01*
X14928000Y-9356400D01*
X14927600Y-9356800D01*
X14927100Y-9357200D01*
X14926500Y-9357600D01*
X14926000Y-9357900D01*
X14925400Y-9358200D01*
X14924900Y-9358500D01*
X14924300Y-9358700D01*
X14923700Y-9358900D01*
X14923100Y-9359100D01*
X14922500Y-9359200D01*
X14921900Y-9359400D01*
X14921300Y-9359400D01*
X14920600Y-9359500D01*
X14920000Y-9359500D01*
X14870000Y-9359500D01*
X14869400Y-9359500D01*
X14868700Y-9359400D01*
X14868100Y-9359400D01*
X14867500Y-9359200D01*
X14866900Y-9359100D01*
X14866300Y-9358900D01*
X14865700Y-9358700D01*
X14865100Y-9358500D01*
X14864600Y-9358200D01*
X14864000Y-9357900D01*
X14863500Y-9357600D01*
X14862900Y-9357200D01*
X14862400Y-9356800D01*
X14862000Y-9356400D01*
X14861500Y-9356000D01*
X14861100Y-9355500D01*
X14860700Y-9355100D01*
X14860300Y-9354600D01*
X14859900Y-9354000D01*
X14859600Y-9353500D01*
X14859300Y-9352900D01*
X14859000Y-9352400D01*
X14858800Y-9351800D01*
X14858600Y-9351200D01*
X14858400Y-9350600D01*
X14858300Y-9350000D01*
X14858100Y-9349400D01*
X14858100Y-9348800D01*
X14858000Y-9348100D01*
X14858000Y-9347500D01*
X14858000Y-9332500D01*
X14858000Y-9331900D01*
X14858100Y-9331200D01*
X14858100Y-9330600D01*
X14858300Y-9330000D01*
X14858400Y-9329400D01*
X14858600Y-9328800D01*
X14858800Y-9328200D01*
X14859000Y-9327600D01*
X14859300Y-9327100D01*
X14859600Y-9326500D01*
X14859900Y-9326000D01*
X14860300Y-9325400D01*
X14860700Y-9324900D01*
X14861100Y-9324500D01*
X14861500Y-9324000D01*
X14862000Y-9323600D01*
X14862400Y-9323200D01*
X14862900Y-9322800D01*
X14863500Y-9322400D01*
X14864000Y-9322100D01*
X14864600Y-9321800D01*
X14865100Y-9321500D01*
X14865700Y-9321300D01*
X14866300Y-9321100D01*
X14866900Y-9320900D01*
X14867500Y-9320800D01*
X14868100Y-9320600D01*
X14868700Y-9320600D01*
X14869400Y-9320500D01*
X14870000Y-9320500D01*
X14920000Y-9320500D01*
X14920600Y-9320500D01*
X14921300Y-9320600D01*
G37*
X14921300Y-9270600D02*
X14921900Y-9270600D01*
X14922500Y-9270800D01*
X14923100Y-9270900D01*
X14923700Y-9271100D01*
X14924300Y-9271300D01*
X14924900Y-9271500D01*
X14925400Y-9271800D01*
X14926000Y-9272100D01*
X14926500Y-9272400D01*
X14927100Y-9272800D01*
X14927600Y-9273200D01*
X14928000Y-9273600D01*
X14928500Y-9274000D01*
X14928900Y-9274500D01*
X14929300Y-9274900D01*
X14929700Y-9275400D01*
X14930100Y-9276000D01*
X14930400Y-9276500D01*
X14930700Y-9277100D01*
X14931000Y-9277600D01*
X14931200Y-9278200D01*
X14931400Y-9278800D01*
X14931600Y-9279400D01*
X14931700Y-9280000D01*
X14931900Y-9280600D01*
X14931900Y-9281200D01*
X14932000Y-9281900D01*
X14932000Y-9282500D01*
X14932000Y-9297500D01*
X14932000Y-9298100D01*
X14931900Y-9298800D01*
X14931900Y-9299400D01*
X14931700Y-9300000D01*
X14931600Y-9300600D01*
X14931400Y-9301200D01*
X14931200Y-9301800D01*
X14931000Y-9302400D01*
X14930700Y-9302900D01*
X14930400Y-9303500D01*
X14930100Y-9304000D01*
X14929700Y-9304600D01*
X14929300Y-9305100D01*
X14928900Y-9305500D01*
X14928500Y-9306000D01*
X14928000Y-9306400D01*
X14927600Y-9306800D01*
X14927100Y-9307200D01*
X14926500Y-9307600D01*
X14926000Y-9307900D01*
X14925400Y-9308200D01*
X14924900Y-9308500D01*
X14924300Y-9308700D01*
X14923700Y-9308900D01*
X14923100Y-9309100D01*
X14922500Y-9309200D01*
X14921900Y-9309400D01*
X14921300Y-9309400D01*
X14920600Y-9309500D01*
X14920000Y-9309500D01*
X14870000Y-9309500D01*
X14869400Y-9309500D01*
X14868700Y-9309400D01*
X14868100Y-9309400D01*
X14867500Y-9309200D01*
X14866900Y-9309100D01*
X14866300Y-9308900D01*
X14865700Y-9308700D01*
X14865100Y-9308500D01*
X14864600Y-9308200D01*
X14864000Y-9307900D01*
X14863500Y-9307600D01*
X14862900Y-9307200D01*
X14862400Y-9306800D01*
X14862000Y-9306400D01*
X14861500Y-9306000D01*
X14861100Y-9305500D01*
X14860700Y-9305100D01*
X14860300Y-9304600D01*
X14859900Y-9304000D01*
X14859600Y-9303500D01*
X14859300Y-9302900D01*
X14859000Y-9302400D01*
X14858800Y-9301800D01*
X14858600Y-9301200D01*
X14858400Y-9300600D01*
X14858300Y-9300000D01*
X14858100Y-9299400D01*
X14858100Y-9298800D01*
X14858000Y-9298100D01*
X14858000Y-9297500D01*
X14858000Y-9282500D01*
X14858000Y-9281900D01*
X14858100Y-9281200D01*
X14858100Y-9280600D01*
X14858300Y-9280000D01*
X14858400Y-9279400D01*
X14858600Y-9278800D01*
X14858800Y-9278200D01*
X14859000Y-9277600D01*
X14859300Y-9277100D01*
X14859600Y-9276500D01*
X14859900Y-9276000D01*
X14860300Y-9275400D01*
X14860700Y-9274900D01*
X14861100Y-9274500D01*
X14861500Y-9274000D01*
X14862000Y-9273600D01*
X14862400Y-9273200D01*
X14862900Y-9272800D01*
X14863500Y-9272400D01*
X14864000Y-9272100D01*
X14864600Y-9271800D01*
X14865100Y-9271500D01*
X14865700Y-9271300D01*
X14866300Y-9271100D01*
X14866900Y-9270900D01*
X14867500Y-9270800D01*
X14868100Y-9270600D01*
X14868700Y-9270600D01*
X14869400Y-9270500D01*
X14870000Y-9270500D01*
X14920000Y-9270500D01*
X14920600Y-9270500D01*
X14921300Y-9270600D01*
G36*
X14921300Y-9270600D02*
G01*
X14921900Y-9270600D01*
X14922500Y-9270800D01*
X14923100Y-9270900D01*
X14923700Y-9271100D01*
X14924300Y-9271300D01*
X14924900Y-9271500D01*
X14925400Y-9271800D01*
X14926000Y-9272100D01*
X14926500Y-9272400D01*
X14927100Y-9272800D01*
X14927600Y-9273200D01*
X14928000Y-9273600D01*
X14928500Y-9274000D01*
X14928900Y-9274500D01*
X14929300Y-9274900D01*
X14929700Y-9275400D01*
X14930100Y-9276000D01*
X14930400Y-9276500D01*
X14930700Y-9277100D01*
X14931000Y-9277600D01*
X14931200Y-9278200D01*
X14931400Y-9278800D01*
X14931600Y-9279400D01*
X14931700Y-9280000D01*
X14931900Y-9280600D01*
X14931900Y-9281200D01*
X14932000Y-9281900D01*
X14932000Y-9282500D01*
X14932000Y-9297500D01*
X14932000Y-9298100D01*
X14931900Y-9298800D01*
X14931900Y-9299400D01*
X14931700Y-9300000D01*
X14931600Y-9300600D01*
X14931400Y-9301200D01*
X14931200Y-9301800D01*
X14931000Y-9302400D01*
X14930700Y-9302900D01*
X14930400Y-9303500D01*
X14930100Y-9304000D01*
X14929700Y-9304600D01*
X14929300Y-9305100D01*
X14928900Y-9305500D01*
X14928500Y-9306000D01*
X14928000Y-9306400D01*
X14927600Y-9306800D01*
X14927100Y-9307200D01*
X14926500Y-9307600D01*
X14926000Y-9307900D01*
X14925400Y-9308200D01*
X14924900Y-9308500D01*
X14924300Y-9308700D01*
X14923700Y-9308900D01*
X14923100Y-9309100D01*
X14922500Y-9309200D01*
X14921900Y-9309400D01*
X14921300Y-9309400D01*
X14920600Y-9309500D01*
X14920000Y-9309500D01*
X14870000Y-9309500D01*
X14869400Y-9309500D01*
X14868700Y-9309400D01*
X14868100Y-9309400D01*
X14867500Y-9309200D01*
X14866900Y-9309100D01*
X14866300Y-9308900D01*
X14865700Y-9308700D01*
X14865100Y-9308500D01*
X14864600Y-9308200D01*
X14864000Y-9307900D01*
X14863500Y-9307600D01*
X14862900Y-9307200D01*
X14862400Y-9306800D01*
X14862000Y-9306400D01*
X14861500Y-9306000D01*
X14861100Y-9305500D01*
X14860700Y-9305100D01*
X14860300Y-9304600D01*
X14859900Y-9304000D01*
X14859600Y-9303500D01*
X14859300Y-9302900D01*
X14859000Y-9302400D01*
X14858800Y-9301800D01*
X14858600Y-9301200D01*
X14858400Y-9300600D01*
X14858300Y-9300000D01*
X14858100Y-9299400D01*
X14858100Y-9298800D01*
X14858000Y-9298100D01*
X14858000Y-9297500D01*
X14858000Y-9282500D01*
X14858000Y-9281900D01*
X14858100Y-9281200D01*
X14858100Y-9280600D01*
X14858300Y-9280000D01*
X14858400Y-9279400D01*
X14858600Y-9278800D01*
X14858800Y-9278200D01*
X14859000Y-9277600D01*
X14859300Y-9277100D01*
X14859600Y-9276500D01*
X14859900Y-9276000D01*
X14860300Y-9275400D01*
X14860700Y-9274900D01*
X14861100Y-9274500D01*
X14861500Y-9274000D01*
X14862000Y-9273600D01*
X14862400Y-9273200D01*
X14862900Y-9272800D01*
X14863500Y-9272400D01*
X14864000Y-9272100D01*
X14864600Y-9271800D01*
X14865100Y-9271500D01*
X14865700Y-9271300D01*
X14866300Y-9271100D01*
X14866900Y-9270900D01*
X14867500Y-9270800D01*
X14868100Y-9270600D01*
X14868700Y-9270600D01*
X14869400Y-9270500D01*
X14870000Y-9270500D01*
X14920000Y-9270500D01*
X14920600Y-9270500D01*
X14921300Y-9270600D01*
G37*
X14921300Y-9220600D02*
X14921900Y-9220600D01*
X14922500Y-9220800D01*
X14923100Y-9220900D01*
X14923700Y-9221100D01*
X14924300Y-9221300D01*
X14924900Y-9221500D01*
X14925400Y-9221800D01*
X14926000Y-9222100D01*
X14926500Y-9222400D01*
X14927100Y-9222800D01*
X14927600Y-9223200D01*
X14928000Y-9223600D01*
X14928500Y-9224000D01*
X14928900Y-9224500D01*
X14929300Y-9224900D01*
X14929700Y-9225400D01*
X14930100Y-9226000D01*
X14930400Y-9226500D01*
X14930700Y-9227100D01*
X14931000Y-9227600D01*
X14931200Y-9228200D01*
X14931400Y-9228800D01*
X14931600Y-9229400D01*
X14931700Y-9230000D01*
X14931900Y-9230600D01*
X14931900Y-9231200D01*
X14932000Y-9231900D01*
X14932000Y-9232500D01*
X14932000Y-9247500D01*
X14932000Y-9248100D01*
X14931900Y-9248800D01*
X14931900Y-9249400D01*
X14931700Y-9250000D01*
X14931600Y-9250600D01*
X14931400Y-9251200D01*
X14931200Y-9251800D01*
X14931000Y-9252400D01*
X14930700Y-9252900D01*
X14930400Y-9253500D01*
X14930100Y-9254000D01*
X14929700Y-9254600D01*
X14929300Y-9255100D01*
X14928900Y-9255500D01*
X14928500Y-9256000D01*
X14928000Y-9256400D01*
X14927600Y-9256800D01*
X14927100Y-9257200D01*
X14926500Y-9257600D01*
X14926000Y-9257900D01*
X14925400Y-9258200D01*
X14924900Y-9258500D01*
X14924300Y-9258700D01*
X14923700Y-9258900D01*
X14923100Y-9259100D01*
X14922500Y-9259200D01*
X14921900Y-9259400D01*
X14921300Y-9259400D01*
X14920600Y-9259500D01*
X14920000Y-9259500D01*
X14870000Y-9259500D01*
X14869400Y-9259500D01*
X14868700Y-9259400D01*
X14868100Y-9259400D01*
X14867500Y-9259200D01*
X14866900Y-9259100D01*
X14866300Y-9258900D01*
X14865700Y-9258700D01*
X14865100Y-9258500D01*
X14864600Y-9258200D01*
X14864000Y-9257900D01*
X14863500Y-9257600D01*
X14862900Y-9257200D01*
X14862400Y-9256800D01*
X14862000Y-9256400D01*
X14861500Y-9256000D01*
X14861100Y-9255500D01*
X14860700Y-9255100D01*
X14860300Y-9254600D01*
X14859900Y-9254000D01*
X14859600Y-9253500D01*
X14859300Y-9252900D01*
X14859000Y-9252400D01*
X14858800Y-9251800D01*
X14858600Y-9251200D01*
X14858400Y-9250600D01*
X14858300Y-9250000D01*
X14858100Y-9249400D01*
X14858100Y-9248800D01*
X14858000Y-9248100D01*
X14858000Y-9247500D01*
X14858000Y-9232500D01*
X14858000Y-9231900D01*
X14858100Y-9231200D01*
X14858100Y-9230600D01*
X14858300Y-9230000D01*
X14858400Y-9229400D01*
X14858600Y-9228800D01*
X14858800Y-9228200D01*
X14859000Y-9227600D01*
X14859300Y-9227100D01*
X14859600Y-9226500D01*
X14859900Y-9226000D01*
X14860300Y-9225400D01*
X14860700Y-9224900D01*
X14861100Y-9224500D01*
X14861500Y-9224000D01*
X14862000Y-9223600D01*
X14862400Y-9223200D01*
X14862900Y-9222800D01*
X14863500Y-9222400D01*
X14864000Y-9222100D01*
X14864600Y-9221800D01*
X14865100Y-9221500D01*
X14865700Y-9221300D01*
X14866300Y-9221100D01*
X14866900Y-9220900D01*
X14867500Y-9220800D01*
X14868100Y-9220600D01*
X14868700Y-9220600D01*
X14869400Y-9220500D01*
X14870000Y-9220500D01*
X14920000Y-9220500D01*
X14920600Y-9220500D01*
X14921300Y-9220600D01*
G36*
X14921300Y-9220600D02*
G01*
X14921900Y-9220600D01*
X14922500Y-9220800D01*
X14923100Y-9220900D01*
X14923700Y-9221100D01*
X14924300Y-9221300D01*
X14924900Y-9221500D01*
X14925400Y-9221800D01*
X14926000Y-9222100D01*
X14926500Y-9222400D01*
X14927100Y-9222800D01*
X14927600Y-9223200D01*
X14928000Y-9223600D01*
X14928500Y-9224000D01*
X14928900Y-9224500D01*
X14929300Y-9224900D01*
X14929700Y-9225400D01*
X14930100Y-9226000D01*
X14930400Y-9226500D01*
X14930700Y-9227100D01*
X14931000Y-9227600D01*
X14931200Y-9228200D01*
X14931400Y-9228800D01*
X14931600Y-9229400D01*
X14931700Y-9230000D01*
X14931900Y-9230600D01*
X14931900Y-9231200D01*
X14932000Y-9231900D01*
X14932000Y-9232500D01*
X14932000Y-9247500D01*
X14932000Y-9248100D01*
X14931900Y-9248800D01*
X14931900Y-9249400D01*
X14931700Y-9250000D01*
X14931600Y-9250600D01*
X14931400Y-9251200D01*
X14931200Y-9251800D01*
X14931000Y-9252400D01*
X14930700Y-9252900D01*
X14930400Y-9253500D01*
X14930100Y-9254000D01*
X14929700Y-9254600D01*
X14929300Y-9255100D01*
X14928900Y-9255500D01*
X14928500Y-9256000D01*
X14928000Y-9256400D01*
X14927600Y-9256800D01*
X14927100Y-9257200D01*
X14926500Y-9257600D01*
X14926000Y-9257900D01*
X14925400Y-9258200D01*
X14924900Y-9258500D01*
X14924300Y-9258700D01*
X14923700Y-9258900D01*
X14923100Y-9259100D01*
X14922500Y-9259200D01*
X14921900Y-9259400D01*
X14921300Y-9259400D01*
X14920600Y-9259500D01*
X14920000Y-9259500D01*
X14870000Y-9259500D01*
X14869400Y-9259500D01*
X14868700Y-9259400D01*
X14868100Y-9259400D01*
X14867500Y-9259200D01*
X14866900Y-9259100D01*
X14866300Y-9258900D01*
X14865700Y-9258700D01*
X14865100Y-9258500D01*
X14864600Y-9258200D01*
X14864000Y-9257900D01*
X14863500Y-9257600D01*
X14862900Y-9257200D01*
X14862400Y-9256800D01*
X14862000Y-9256400D01*
X14861500Y-9256000D01*
X14861100Y-9255500D01*
X14860700Y-9255100D01*
X14860300Y-9254600D01*
X14859900Y-9254000D01*
X14859600Y-9253500D01*
X14859300Y-9252900D01*
X14859000Y-9252400D01*
X14858800Y-9251800D01*
X14858600Y-9251200D01*
X14858400Y-9250600D01*
X14858300Y-9250000D01*
X14858100Y-9249400D01*
X14858100Y-9248800D01*
X14858000Y-9248100D01*
X14858000Y-9247500D01*
X14858000Y-9232500D01*
X14858000Y-9231900D01*
X14858100Y-9231200D01*
X14858100Y-9230600D01*
X14858300Y-9230000D01*
X14858400Y-9229400D01*
X14858600Y-9228800D01*
X14858800Y-9228200D01*
X14859000Y-9227600D01*
X14859300Y-9227100D01*
X14859600Y-9226500D01*
X14859900Y-9226000D01*
X14860300Y-9225400D01*
X14860700Y-9224900D01*
X14861100Y-9224500D01*
X14861500Y-9224000D01*
X14862000Y-9223600D01*
X14862400Y-9223200D01*
X14862900Y-9222800D01*
X14863500Y-9222400D01*
X14864000Y-9222100D01*
X14864600Y-9221800D01*
X14865100Y-9221500D01*
X14865700Y-9221300D01*
X14866300Y-9221100D01*
X14866900Y-9220900D01*
X14867500Y-9220800D01*
X14868100Y-9220600D01*
X14868700Y-9220600D01*
X14869400Y-9220500D01*
X14870000Y-9220500D01*
X14920000Y-9220500D01*
X14920600Y-9220500D01*
X14921300Y-9220600D01*
G37*
X14921300Y-9170600D02*
X14921900Y-9170600D01*
X14922500Y-9170800D01*
X14923100Y-9170900D01*
X14923700Y-9171100D01*
X14924300Y-9171300D01*
X14924900Y-9171500D01*
X14925400Y-9171800D01*
X14926000Y-9172100D01*
X14926500Y-9172400D01*
X14927100Y-9172800D01*
X14927600Y-9173200D01*
X14928000Y-9173600D01*
X14928500Y-9174000D01*
X14928900Y-9174500D01*
X14929300Y-9174900D01*
X14929700Y-9175400D01*
X14930100Y-9176000D01*
X14930400Y-9176500D01*
X14930700Y-9177100D01*
X14931000Y-9177600D01*
X14931200Y-9178200D01*
X14931400Y-9178800D01*
X14931600Y-9179400D01*
X14931700Y-9180000D01*
X14931900Y-9180600D01*
X14931900Y-9181200D01*
X14932000Y-9181900D01*
X14932000Y-9182500D01*
X14932000Y-9197500D01*
X14932000Y-9198100D01*
X14931900Y-9198800D01*
X14931900Y-9199400D01*
X14931700Y-9200000D01*
X14931600Y-9200600D01*
X14931400Y-9201200D01*
X14931200Y-9201800D01*
X14931000Y-9202400D01*
X14930700Y-9202900D01*
X14930400Y-9203500D01*
X14930100Y-9204000D01*
X14929700Y-9204600D01*
X14929300Y-9205100D01*
X14928900Y-9205500D01*
X14928500Y-9206000D01*
X14928000Y-9206400D01*
X14927600Y-9206800D01*
X14927100Y-9207200D01*
X14926500Y-9207600D01*
X14926000Y-9207900D01*
X14925400Y-9208200D01*
X14924900Y-9208500D01*
X14924300Y-9208700D01*
X14923700Y-9208900D01*
X14923100Y-9209100D01*
X14922500Y-9209200D01*
X14921900Y-9209400D01*
X14921300Y-9209400D01*
X14920600Y-9209500D01*
X14920000Y-9209500D01*
X14870000Y-9209500D01*
X14869400Y-9209500D01*
X14868700Y-9209400D01*
X14868100Y-9209400D01*
X14867500Y-9209200D01*
X14866900Y-9209100D01*
X14866300Y-9208900D01*
X14865700Y-9208700D01*
X14865100Y-9208500D01*
X14864600Y-9208200D01*
X14864000Y-9207900D01*
X14863500Y-9207600D01*
X14862900Y-9207200D01*
X14862400Y-9206800D01*
X14862000Y-9206400D01*
X14861500Y-9206000D01*
X14861100Y-9205500D01*
X14860700Y-9205100D01*
X14860300Y-9204600D01*
X14859900Y-9204000D01*
X14859600Y-9203500D01*
X14859300Y-9202900D01*
X14859000Y-9202400D01*
X14858800Y-9201800D01*
X14858600Y-9201200D01*
X14858400Y-9200600D01*
X14858300Y-9200000D01*
X14858100Y-9199400D01*
X14858100Y-9198800D01*
X14858000Y-9198100D01*
X14858000Y-9197500D01*
X14858000Y-9182500D01*
X14858000Y-9181900D01*
X14858100Y-9181200D01*
X14858100Y-9180600D01*
X14858300Y-9180000D01*
X14858400Y-9179400D01*
X14858600Y-9178800D01*
X14858800Y-9178200D01*
X14859000Y-9177600D01*
X14859300Y-9177100D01*
X14859600Y-9176500D01*
X14859900Y-9176000D01*
X14860300Y-9175400D01*
X14860700Y-9174900D01*
X14861100Y-9174500D01*
X14861500Y-9174000D01*
X14862000Y-9173600D01*
X14862400Y-9173200D01*
X14862900Y-9172800D01*
X14863500Y-9172400D01*
X14864000Y-9172100D01*
X14864600Y-9171800D01*
X14865100Y-9171500D01*
X14865700Y-9171300D01*
X14866300Y-9171100D01*
X14866900Y-9170900D01*
X14867500Y-9170800D01*
X14868100Y-9170600D01*
X14868700Y-9170600D01*
X14869400Y-9170500D01*
X14870000Y-9170500D01*
X14920000Y-9170500D01*
X14920600Y-9170500D01*
X14921300Y-9170600D01*
G36*
X14921300Y-9170600D02*
G01*
X14921900Y-9170600D01*
X14922500Y-9170800D01*
X14923100Y-9170900D01*
X14923700Y-9171100D01*
X14924300Y-9171300D01*
X14924900Y-9171500D01*
X14925400Y-9171800D01*
X14926000Y-9172100D01*
X14926500Y-9172400D01*
X14927100Y-9172800D01*
X14927600Y-9173200D01*
X14928000Y-9173600D01*
X14928500Y-9174000D01*
X14928900Y-9174500D01*
X14929300Y-9174900D01*
X14929700Y-9175400D01*
X14930100Y-9176000D01*
X14930400Y-9176500D01*
X14930700Y-9177100D01*
X14931000Y-9177600D01*
X14931200Y-9178200D01*
X14931400Y-9178800D01*
X14931600Y-9179400D01*
X14931700Y-9180000D01*
X14931900Y-9180600D01*
X14931900Y-9181200D01*
X14932000Y-9181900D01*
X14932000Y-9182500D01*
X14932000Y-9197500D01*
X14932000Y-9198100D01*
X14931900Y-9198800D01*
X14931900Y-9199400D01*
X14931700Y-9200000D01*
X14931600Y-9200600D01*
X14931400Y-9201200D01*
X14931200Y-9201800D01*
X14931000Y-9202400D01*
X14930700Y-9202900D01*
X14930400Y-9203500D01*
X14930100Y-9204000D01*
X14929700Y-9204600D01*
X14929300Y-9205100D01*
X14928900Y-9205500D01*
X14928500Y-9206000D01*
X14928000Y-9206400D01*
X14927600Y-9206800D01*
X14927100Y-9207200D01*
X14926500Y-9207600D01*
X14926000Y-9207900D01*
X14925400Y-9208200D01*
X14924900Y-9208500D01*
X14924300Y-9208700D01*
X14923700Y-9208900D01*
X14923100Y-9209100D01*
X14922500Y-9209200D01*
X14921900Y-9209400D01*
X14921300Y-9209400D01*
X14920600Y-9209500D01*
X14920000Y-9209500D01*
X14870000Y-9209500D01*
X14869400Y-9209500D01*
X14868700Y-9209400D01*
X14868100Y-9209400D01*
X14867500Y-9209200D01*
X14866900Y-9209100D01*
X14866300Y-9208900D01*
X14865700Y-9208700D01*
X14865100Y-9208500D01*
X14864600Y-9208200D01*
X14864000Y-9207900D01*
X14863500Y-9207600D01*
X14862900Y-9207200D01*
X14862400Y-9206800D01*
X14862000Y-9206400D01*
X14861500Y-9206000D01*
X14861100Y-9205500D01*
X14860700Y-9205100D01*
X14860300Y-9204600D01*
X14859900Y-9204000D01*
X14859600Y-9203500D01*
X14859300Y-9202900D01*
X14859000Y-9202400D01*
X14858800Y-9201800D01*
X14858600Y-9201200D01*
X14858400Y-9200600D01*
X14858300Y-9200000D01*
X14858100Y-9199400D01*
X14858100Y-9198800D01*
X14858000Y-9198100D01*
X14858000Y-9197500D01*
X14858000Y-9182500D01*
X14858000Y-9181900D01*
X14858100Y-9181200D01*
X14858100Y-9180600D01*
X14858300Y-9180000D01*
X14858400Y-9179400D01*
X14858600Y-9178800D01*
X14858800Y-9178200D01*
X14859000Y-9177600D01*
X14859300Y-9177100D01*
X14859600Y-9176500D01*
X14859900Y-9176000D01*
X14860300Y-9175400D01*
X14860700Y-9174900D01*
X14861100Y-9174500D01*
X14861500Y-9174000D01*
X14862000Y-9173600D01*
X14862400Y-9173200D01*
X14862900Y-9172800D01*
X14863500Y-9172400D01*
X14864000Y-9172100D01*
X14864600Y-9171800D01*
X14865100Y-9171500D01*
X14865700Y-9171300D01*
X14866300Y-9171100D01*
X14866900Y-9170900D01*
X14867500Y-9170800D01*
X14868100Y-9170600D01*
X14868700Y-9170600D01*
X14869400Y-9170500D01*
X14870000Y-9170500D01*
X14920000Y-9170500D01*
X14920600Y-9170500D01*
X14921300Y-9170600D01*
G37*
X14921300Y-9120600D02*
X14921900Y-9120600D01*
X14922500Y-9120800D01*
X14923100Y-9120900D01*
X14923700Y-9121100D01*
X14924300Y-9121300D01*
X14924900Y-9121500D01*
X14925400Y-9121800D01*
X14926000Y-9122100D01*
X14926500Y-9122400D01*
X14927100Y-9122800D01*
X14927600Y-9123200D01*
X14928000Y-9123600D01*
X14928500Y-9124000D01*
X14928900Y-9124500D01*
X14929300Y-9124900D01*
X14929700Y-9125400D01*
X14930100Y-9126000D01*
X14930400Y-9126500D01*
X14930700Y-9127100D01*
X14931000Y-9127600D01*
X14931200Y-9128200D01*
X14931400Y-9128800D01*
X14931600Y-9129400D01*
X14931700Y-9130000D01*
X14931900Y-9130600D01*
X14931900Y-9131200D01*
X14932000Y-9131900D01*
X14932000Y-9132500D01*
X14932000Y-9147500D01*
X14932000Y-9148100D01*
X14931900Y-9148800D01*
X14931900Y-9149400D01*
X14931700Y-9150000D01*
X14931600Y-9150600D01*
X14931400Y-9151200D01*
X14931200Y-9151800D01*
X14931000Y-9152400D01*
X14930700Y-9152900D01*
X14930400Y-9153500D01*
X14930100Y-9154000D01*
X14929700Y-9154600D01*
X14929300Y-9155100D01*
X14928900Y-9155500D01*
X14928500Y-9156000D01*
X14928000Y-9156400D01*
X14927600Y-9156800D01*
X14927100Y-9157200D01*
X14926500Y-9157600D01*
X14926000Y-9157900D01*
X14925400Y-9158200D01*
X14924900Y-9158500D01*
X14924300Y-9158700D01*
X14923700Y-9158900D01*
X14923100Y-9159100D01*
X14922500Y-9159200D01*
X14921900Y-9159400D01*
X14921300Y-9159400D01*
X14920600Y-9159500D01*
X14920000Y-9159500D01*
X14870000Y-9159500D01*
X14869400Y-9159500D01*
X14868700Y-9159400D01*
X14868100Y-9159400D01*
X14867500Y-9159200D01*
X14866900Y-9159100D01*
X14866300Y-9158900D01*
X14865700Y-9158700D01*
X14865100Y-9158500D01*
X14864600Y-9158200D01*
X14864000Y-9157900D01*
X14863500Y-9157600D01*
X14862900Y-9157200D01*
X14862400Y-9156800D01*
X14862000Y-9156400D01*
X14861500Y-9156000D01*
X14861100Y-9155500D01*
X14860700Y-9155100D01*
X14860300Y-9154600D01*
X14859900Y-9154000D01*
X14859600Y-9153500D01*
X14859300Y-9152900D01*
X14859000Y-9152400D01*
X14858800Y-9151800D01*
X14858600Y-9151200D01*
X14858400Y-9150600D01*
X14858300Y-9150000D01*
X14858100Y-9149400D01*
X14858100Y-9148800D01*
X14858000Y-9148100D01*
X14858000Y-9147500D01*
X14858000Y-9132500D01*
X14858000Y-9131900D01*
X14858100Y-9131200D01*
X14858100Y-9130600D01*
X14858300Y-9130000D01*
X14858400Y-9129400D01*
X14858600Y-9128800D01*
X14858800Y-9128200D01*
X14859000Y-9127600D01*
X14859300Y-9127100D01*
X14859600Y-9126500D01*
X14859900Y-9126000D01*
X14860300Y-9125400D01*
X14860700Y-9124900D01*
X14861100Y-9124500D01*
X14861500Y-9124000D01*
X14862000Y-9123600D01*
X14862400Y-9123200D01*
X14862900Y-9122800D01*
X14863500Y-9122400D01*
X14864000Y-9122100D01*
X14864600Y-9121800D01*
X14865100Y-9121500D01*
X14865700Y-9121300D01*
X14866300Y-9121100D01*
X14866900Y-9120900D01*
X14867500Y-9120800D01*
X14868100Y-9120600D01*
X14868700Y-9120600D01*
X14869400Y-9120500D01*
X14870000Y-9120500D01*
X14920000Y-9120500D01*
X14920600Y-9120500D01*
X14921300Y-9120600D01*
G36*
X14921300Y-9120600D02*
G01*
X14921900Y-9120600D01*
X14922500Y-9120800D01*
X14923100Y-9120900D01*
X14923700Y-9121100D01*
X14924300Y-9121300D01*
X14924900Y-9121500D01*
X14925400Y-9121800D01*
X14926000Y-9122100D01*
X14926500Y-9122400D01*
X14927100Y-9122800D01*
X14927600Y-9123200D01*
X14928000Y-9123600D01*
X14928500Y-9124000D01*
X14928900Y-9124500D01*
X14929300Y-9124900D01*
X14929700Y-9125400D01*
X14930100Y-9126000D01*
X14930400Y-9126500D01*
X14930700Y-9127100D01*
X14931000Y-9127600D01*
X14931200Y-9128200D01*
X14931400Y-9128800D01*
X14931600Y-9129400D01*
X14931700Y-9130000D01*
X14931900Y-9130600D01*
X14931900Y-9131200D01*
X14932000Y-9131900D01*
X14932000Y-9132500D01*
X14932000Y-9147500D01*
X14932000Y-9148100D01*
X14931900Y-9148800D01*
X14931900Y-9149400D01*
X14931700Y-9150000D01*
X14931600Y-9150600D01*
X14931400Y-9151200D01*
X14931200Y-9151800D01*
X14931000Y-9152400D01*
X14930700Y-9152900D01*
X14930400Y-9153500D01*
X14930100Y-9154000D01*
X14929700Y-9154600D01*
X14929300Y-9155100D01*
X14928900Y-9155500D01*
X14928500Y-9156000D01*
X14928000Y-9156400D01*
X14927600Y-9156800D01*
X14927100Y-9157200D01*
X14926500Y-9157600D01*
X14926000Y-9157900D01*
X14925400Y-9158200D01*
X14924900Y-9158500D01*
X14924300Y-9158700D01*
X14923700Y-9158900D01*
X14923100Y-9159100D01*
X14922500Y-9159200D01*
X14921900Y-9159400D01*
X14921300Y-9159400D01*
X14920600Y-9159500D01*
X14920000Y-9159500D01*
X14870000Y-9159500D01*
X14869400Y-9159500D01*
X14868700Y-9159400D01*
X14868100Y-9159400D01*
X14867500Y-9159200D01*
X14866900Y-9159100D01*
X14866300Y-9158900D01*
X14865700Y-9158700D01*
X14865100Y-9158500D01*
X14864600Y-9158200D01*
X14864000Y-9157900D01*
X14863500Y-9157600D01*
X14862900Y-9157200D01*
X14862400Y-9156800D01*
X14862000Y-9156400D01*
X14861500Y-9156000D01*
X14861100Y-9155500D01*
X14860700Y-9155100D01*
X14860300Y-9154600D01*
X14859900Y-9154000D01*
X14859600Y-9153500D01*
X14859300Y-9152900D01*
X14859000Y-9152400D01*
X14858800Y-9151800D01*
X14858600Y-9151200D01*
X14858400Y-9150600D01*
X14858300Y-9150000D01*
X14858100Y-9149400D01*
X14858100Y-9148800D01*
X14858000Y-9148100D01*
X14858000Y-9147500D01*
X14858000Y-9132500D01*
X14858000Y-9131900D01*
X14858100Y-9131200D01*
X14858100Y-9130600D01*
X14858300Y-9130000D01*
X14858400Y-9129400D01*
X14858600Y-9128800D01*
X14858800Y-9128200D01*
X14859000Y-9127600D01*
X14859300Y-9127100D01*
X14859600Y-9126500D01*
X14859900Y-9126000D01*
X14860300Y-9125400D01*
X14860700Y-9124900D01*
X14861100Y-9124500D01*
X14861500Y-9124000D01*
X14862000Y-9123600D01*
X14862400Y-9123200D01*
X14862900Y-9122800D01*
X14863500Y-9122400D01*
X14864000Y-9122100D01*
X14864600Y-9121800D01*
X14865100Y-9121500D01*
X14865700Y-9121300D01*
X14866300Y-9121100D01*
X14866900Y-9120900D01*
X14867500Y-9120800D01*
X14868100Y-9120600D01*
X14868700Y-9120600D01*
X14869400Y-9120500D01*
X14870000Y-9120500D01*
X14920000Y-9120500D01*
X14920600Y-9120500D01*
X14921300Y-9120600D01*
G37*
X14771300Y-9320600D02*
X14771900Y-9320600D01*
X14772500Y-9320800D01*
X14773100Y-9320900D01*
X14773700Y-9321100D01*
X14774300Y-9321300D01*
X14774900Y-9321500D01*
X14775400Y-9321800D01*
X14776000Y-9322100D01*
X14776500Y-9322400D01*
X14777100Y-9322800D01*
X14777600Y-9323200D01*
X14778000Y-9323600D01*
X14778500Y-9324000D01*
X14778900Y-9324500D01*
X14779300Y-9324900D01*
X14779700Y-9325400D01*
X14780100Y-9326000D01*
X14780400Y-9326500D01*
X14780700Y-9327100D01*
X14781000Y-9327600D01*
X14781200Y-9328200D01*
X14781400Y-9328800D01*
X14781600Y-9329400D01*
X14781700Y-9330000D01*
X14781900Y-9330600D01*
X14781900Y-9331200D01*
X14782000Y-9331900D01*
X14782000Y-9332500D01*
X14782000Y-9347500D01*
X14782000Y-9348100D01*
X14781900Y-9348800D01*
X14781900Y-9349400D01*
X14781700Y-9350000D01*
X14781600Y-9350600D01*
X14781400Y-9351200D01*
X14781200Y-9351800D01*
X14781000Y-9352400D01*
X14780700Y-9352900D01*
X14780400Y-9353500D01*
X14780100Y-9354000D01*
X14779700Y-9354600D01*
X14779300Y-9355100D01*
X14778900Y-9355500D01*
X14778500Y-9356000D01*
X14778000Y-9356400D01*
X14777600Y-9356800D01*
X14777100Y-9357200D01*
X14776500Y-9357600D01*
X14776000Y-9357900D01*
X14775400Y-9358200D01*
X14774900Y-9358500D01*
X14774300Y-9358700D01*
X14773700Y-9358900D01*
X14773100Y-9359100D01*
X14772500Y-9359200D01*
X14771900Y-9359400D01*
X14771300Y-9359400D01*
X14770600Y-9359500D01*
X14770000Y-9359500D01*
X14690000Y-9359500D01*
X14689400Y-9359500D01*
X14688700Y-9359400D01*
X14688100Y-9359400D01*
X14687500Y-9359200D01*
X14686900Y-9359100D01*
X14686300Y-9358900D01*
X14685700Y-9358700D01*
X14685100Y-9358500D01*
X14684600Y-9358200D01*
X14684000Y-9357900D01*
X14683500Y-9357600D01*
X14682900Y-9357200D01*
X14682400Y-9356800D01*
X14682000Y-9356400D01*
X14681500Y-9356000D01*
X14681100Y-9355500D01*
X14680700Y-9355100D01*
X14680300Y-9354600D01*
X14679900Y-9354000D01*
X14679600Y-9353500D01*
X14679300Y-9352900D01*
X14679000Y-9352400D01*
X14678800Y-9351800D01*
X14678600Y-9351200D01*
X14678400Y-9350600D01*
X14678300Y-9350000D01*
X14678100Y-9349400D01*
X14678100Y-9348800D01*
X14678000Y-9348100D01*
X14678000Y-9347500D01*
X14678000Y-9332500D01*
X14678000Y-9331900D01*
X14678100Y-9331200D01*
X14678100Y-9330600D01*
X14678300Y-9330000D01*
X14678400Y-9329400D01*
X14678600Y-9328800D01*
X14678800Y-9328200D01*
X14679000Y-9327600D01*
X14679300Y-9327100D01*
X14679600Y-9326500D01*
X14679900Y-9326000D01*
X14680300Y-9325400D01*
X14680700Y-9324900D01*
X14681100Y-9324500D01*
X14681500Y-9324000D01*
X14682000Y-9323600D01*
X14682400Y-9323200D01*
X14682900Y-9322800D01*
X14683500Y-9322400D01*
X14684000Y-9322100D01*
X14684600Y-9321800D01*
X14685100Y-9321500D01*
X14685700Y-9321300D01*
X14686300Y-9321100D01*
X14686900Y-9320900D01*
X14687500Y-9320800D01*
X14688100Y-9320600D01*
X14688700Y-9320600D01*
X14689400Y-9320500D01*
X14690000Y-9320500D01*
X14770000Y-9320500D01*
X14770600Y-9320500D01*
X14771300Y-9320600D01*
G36*
X14771300Y-9320600D02*
G01*
X14771900Y-9320600D01*
X14772500Y-9320800D01*
X14773100Y-9320900D01*
X14773700Y-9321100D01*
X14774300Y-9321300D01*
X14774900Y-9321500D01*
X14775400Y-9321800D01*
X14776000Y-9322100D01*
X14776500Y-9322400D01*
X14777100Y-9322800D01*
X14777600Y-9323200D01*
X14778000Y-9323600D01*
X14778500Y-9324000D01*
X14778900Y-9324500D01*
X14779300Y-9324900D01*
X14779700Y-9325400D01*
X14780100Y-9326000D01*
X14780400Y-9326500D01*
X14780700Y-9327100D01*
X14781000Y-9327600D01*
X14781200Y-9328200D01*
X14781400Y-9328800D01*
X14781600Y-9329400D01*
X14781700Y-9330000D01*
X14781900Y-9330600D01*
X14781900Y-9331200D01*
X14782000Y-9331900D01*
X14782000Y-9332500D01*
X14782000Y-9347500D01*
X14782000Y-9348100D01*
X14781900Y-9348800D01*
X14781900Y-9349400D01*
X14781700Y-9350000D01*
X14781600Y-9350600D01*
X14781400Y-9351200D01*
X14781200Y-9351800D01*
X14781000Y-9352400D01*
X14780700Y-9352900D01*
X14780400Y-9353500D01*
X14780100Y-9354000D01*
X14779700Y-9354600D01*
X14779300Y-9355100D01*
X14778900Y-9355500D01*
X14778500Y-9356000D01*
X14778000Y-9356400D01*
X14777600Y-9356800D01*
X14777100Y-9357200D01*
X14776500Y-9357600D01*
X14776000Y-9357900D01*
X14775400Y-9358200D01*
X14774900Y-9358500D01*
X14774300Y-9358700D01*
X14773700Y-9358900D01*
X14773100Y-9359100D01*
X14772500Y-9359200D01*
X14771900Y-9359400D01*
X14771300Y-9359400D01*
X14770600Y-9359500D01*
X14770000Y-9359500D01*
X14690000Y-9359500D01*
X14689400Y-9359500D01*
X14688700Y-9359400D01*
X14688100Y-9359400D01*
X14687500Y-9359200D01*
X14686900Y-9359100D01*
X14686300Y-9358900D01*
X14685700Y-9358700D01*
X14685100Y-9358500D01*
X14684600Y-9358200D01*
X14684000Y-9357900D01*
X14683500Y-9357600D01*
X14682900Y-9357200D01*
X14682400Y-9356800D01*
X14682000Y-9356400D01*
X14681500Y-9356000D01*
X14681100Y-9355500D01*
X14680700Y-9355100D01*
X14680300Y-9354600D01*
X14679900Y-9354000D01*
X14679600Y-9353500D01*
X14679300Y-9352900D01*
X14679000Y-9352400D01*
X14678800Y-9351800D01*
X14678600Y-9351200D01*
X14678400Y-9350600D01*
X14678300Y-9350000D01*
X14678100Y-9349400D01*
X14678100Y-9348800D01*
X14678000Y-9348100D01*
X14678000Y-9347500D01*
X14678000Y-9332500D01*
X14678000Y-9331900D01*
X14678100Y-9331200D01*
X14678100Y-9330600D01*
X14678300Y-9330000D01*
X14678400Y-9329400D01*
X14678600Y-9328800D01*
X14678800Y-9328200D01*
X14679000Y-9327600D01*
X14679300Y-9327100D01*
X14679600Y-9326500D01*
X14679900Y-9326000D01*
X14680300Y-9325400D01*
X14680700Y-9324900D01*
X14681100Y-9324500D01*
X14681500Y-9324000D01*
X14682000Y-9323600D01*
X14682400Y-9323200D01*
X14682900Y-9322800D01*
X14683500Y-9322400D01*
X14684000Y-9322100D01*
X14684600Y-9321800D01*
X14685100Y-9321500D01*
X14685700Y-9321300D01*
X14686300Y-9321100D01*
X14686900Y-9320900D01*
X14687500Y-9320800D01*
X14688100Y-9320600D01*
X14688700Y-9320600D01*
X14689400Y-9320500D01*
X14690000Y-9320500D01*
X14770000Y-9320500D01*
X14770600Y-9320500D01*
X14771300Y-9320600D01*
G37*
X14771300Y-9270600D02*
X14771900Y-9270600D01*
X14772500Y-9270800D01*
X14773100Y-9270900D01*
X14773700Y-9271100D01*
X14774300Y-9271300D01*
X14774900Y-9271500D01*
X14775400Y-9271800D01*
X14776000Y-9272100D01*
X14776500Y-9272400D01*
X14777100Y-9272800D01*
X14777600Y-9273200D01*
X14778000Y-9273600D01*
X14778500Y-9274000D01*
X14778900Y-9274500D01*
X14779300Y-9274900D01*
X14779700Y-9275400D01*
X14780100Y-9276000D01*
X14780400Y-9276500D01*
X14780700Y-9277100D01*
X14781000Y-9277600D01*
X14781200Y-9278200D01*
X14781400Y-9278800D01*
X14781600Y-9279400D01*
X14781700Y-9280000D01*
X14781900Y-9280600D01*
X14781900Y-9281200D01*
X14782000Y-9281900D01*
X14782000Y-9282500D01*
X14782000Y-9297500D01*
X14782000Y-9298100D01*
X14781900Y-9298800D01*
X14781900Y-9299400D01*
X14781700Y-9300000D01*
X14781600Y-9300600D01*
X14781400Y-9301200D01*
X14781200Y-9301800D01*
X14781000Y-9302400D01*
X14780700Y-9302900D01*
X14780400Y-9303500D01*
X14780100Y-9304000D01*
X14779700Y-9304600D01*
X14779300Y-9305100D01*
X14778900Y-9305500D01*
X14778500Y-9306000D01*
X14778000Y-9306400D01*
X14777600Y-9306800D01*
X14777100Y-9307200D01*
X14776500Y-9307600D01*
X14776000Y-9307900D01*
X14775400Y-9308200D01*
X14774900Y-9308500D01*
X14774300Y-9308700D01*
X14773700Y-9308900D01*
X14773100Y-9309100D01*
X14772500Y-9309200D01*
X14771900Y-9309400D01*
X14771300Y-9309400D01*
X14770600Y-9309500D01*
X14770000Y-9309500D01*
X14690000Y-9309500D01*
X14689400Y-9309500D01*
X14688700Y-9309400D01*
X14688100Y-9309400D01*
X14687500Y-9309200D01*
X14686900Y-9309100D01*
X14686300Y-9308900D01*
X14685700Y-9308700D01*
X14685100Y-9308500D01*
X14684600Y-9308200D01*
X14684000Y-9307900D01*
X14683500Y-9307600D01*
X14682900Y-9307200D01*
X14682400Y-9306800D01*
X14682000Y-9306400D01*
X14681500Y-9306000D01*
X14681100Y-9305500D01*
X14680700Y-9305100D01*
X14680300Y-9304600D01*
X14679900Y-9304000D01*
X14679600Y-9303500D01*
X14679300Y-9302900D01*
X14679000Y-9302400D01*
X14678800Y-9301800D01*
X14678600Y-9301200D01*
X14678400Y-9300600D01*
X14678300Y-9300000D01*
X14678100Y-9299400D01*
X14678100Y-9298800D01*
X14678000Y-9298100D01*
X14678000Y-9297500D01*
X14678000Y-9282500D01*
X14678000Y-9281900D01*
X14678100Y-9281200D01*
X14678100Y-9280600D01*
X14678300Y-9280000D01*
X14678400Y-9279400D01*
X14678600Y-9278800D01*
X14678800Y-9278200D01*
X14679000Y-9277600D01*
X14679300Y-9277100D01*
X14679600Y-9276500D01*
X14679900Y-9276000D01*
X14680300Y-9275400D01*
X14680700Y-9274900D01*
X14681100Y-9274500D01*
X14681500Y-9274000D01*
X14682000Y-9273600D01*
X14682400Y-9273200D01*
X14682900Y-9272800D01*
X14683500Y-9272400D01*
X14684000Y-9272100D01*
X14684600Y-9271800D01*
X14685100Y-9271500D01*
X14685700Y-9271300D01*
X14686300Y-9271100D01*
X14686900Y-9270900D01*
X14687500Y-9270800D01*
X14688100Y-9270600D01*
X14688700Y-9270600D01*
X14689400Y-9270500D01*
X14690000Y-9270500D01*
X14770000Y-9270500D01*
X14770600Y-9270500D01*
X14771300Y-9270600D01*
G36*
X14771300Y-9270600D02*
G01*
X14771900Y-9270600D01*
X14772500Y-9270800D01*
X14773100Y-9270900D01*
X14773700Y-9271100D01*
X14774300Y-9271300D01*
X14774900Y-9271500D01*
X14775400Y-9271800D01*
X14776000Y-9272100D01*
X14776500Y-9272400D01*
X14777100Y-9272800D01*
X14777600Y-9273200D01*
X14778000Y-9273600D01*
X14778500Y-9274000D01*
X14778900Y-9274500D01*
X14779300Y-9274900D01*
X14779700Y-9275400D01*
X14780100Y-9276000D01*
X14780400Y-9276500D01*
X14780700Y-9277100D01*
X14781000Y-9277600D01*
X14781200Y-9278200D01*
X14781400Y-9278800D01*
X14781600Y-9279400D01*
X14781700Y-9280000D01*
X14781900Y-9280600D01*
X14781900Y-9281200D01*
X14782000Y-9281900D01*
X14782000Y-9282500D01*
X14782000Y-9297500D01*
X14782000Y-9298100D01*
X14781900Y-9298800D01*
X14781900Y-9299400D01*
X14781700Y-9300000D01*
X14781600Y-9300600D01*
X14781400Y-9301200D01*
X14781200Y-9301800D01*
X14781000Y-9302400D01*
X14780700Y-9302900D01*
X14780400Y-9303500D01*
X14780100Y-9304000D01*
X14779700Y-9304600D01*
X14779300Y-9305100D01*
X14778900Y-9305500D01*
X14778500Y-9306000D01*
X14778000Y-9306400D01*
X14777600Y-9306800D01*
X14777100Y-9307200D01*
X14776500Y-9307600D01*
X14776000Y-9307900D01*
X14775400Y-9308200D01*
X14774900Y-9308500D01*
X14774300Y-9308700D01*
X14773700Y-9308900D01*
X14773100Y-9309100D01*
X14772500Y-9309200D01*
X14771900Y-9309400D01*
X14771300Y-9309400D01*
X14770600Y-9309500D01*
X14770000Y-9309500D01*
X14690000Y-9309500D01*
X14689400Y-9309500D01*
X14688700Y-9309400D01*
X14688100Y-9309400D01*
X14687500Y-9309200D01*
X14686900Y-9309100D01*
X14686300Y-9308900D01*
X14685700Y-9308700D01*
X14685100Y-9308500D01*
X14684600Y-9308200D01*
X14684000Y-9307900D01*
X14683500Y-9307600D01*
X14682900Y-9307200D01*
X14682400Y-9306800D01*
X14682000Y-9306400D01*
X14681500Y-9306000D01*
X14681100Y-9305500D01*
X14680700Y-9305100D01*
X14680300Y-9304600D01*
X14679900Y-9304000D01*
X14679600Y-9303500D01*
X14679300Y-9302900D01*
X14679000Y-9302400D01*
X14678800Y-9301800D01*
X14678600Y-9301200D01*
X14678400Y-9300600D01*
X14678300Y-9300000D01*
X14678100Y-9299400D01*
X14678100Y-9298800D01*
X14678000Y-9298100D01*
X14678000Y-9297500D01*
X14678000Y-9282500D01*
X14678000Y-9281900D01*
X14678100Y-9281200D01*
X14678100Y-9280600D01*
X14678300Y-9280000D01*
X14678400Y-9279400D01*
X14678600Y-9278800D01*
X14678800Y-9278200D01*
X14679000Y-9277600D01*
X14679300Y-9277100D01*
X14679600Y-9276500D01*
X14679900Y-9276000D01*
X14680300Y-9275400D01*
X14680700Y-9274900D01*
X14681100Y-9274500D01*
X14681500Y-9274000D01*
X14682000Y-9273600D01*
X14682400Y-9273200D01*
X14682900Y-9272800D01*
X14683500Y-9272400D01*
X14684000Y-9272100D01*
X14684600Y-9271800D01*
X14685100Y-9271500D01*
X14685700Y-9271300D01*
X14686300Y-9271100D01*
X14686900Y-9270900D01*
X14687500Y-9270800D01*
X14688100Y-9270600D01*
X14688700Y-9270600D01*
X14689400Y-9270500D01*
X14690000Y-9270500D01*
X14770000Y-9270500D01*
X14770600Y-9270500D01*
X14771300Y-9270600D01*
G37*
X14811300Y-9220600D02*
X14811900Y-9220600D01*
X14812500Y-9220800D01*
X14813100Y-9220900D01*
X14813700Y-9221100D01*
X14814300Y-9221300D01*
X14814900Y-9221500D01*
X14815400Y-9221800D01*
X14816000Y-9222100D01*
X14816500Y-9222400D01*
X14817100Y-9222800D01*
X14817600Y-9223200D01*
X14818000Y-9223600D01*
X14818500Y-9224000D01*
X14818900Y-9224500D01*
X14819300Y-9224900D01*
X14819700Y-9225400D01*
X14820100Y-9226000D01*
X14820400Y-9226500D01*
X14820700Y-9227100D01*
X14821000Y-9227600D01*
X14821200Y-9228200D01*
X14821400Y-9228800D01*
X14821600Y-9229400D01*
X14821700Y-9230000D01*
X14821900Y-9230600D01*
X14821900Y-9231200D01*
X14822000Y-9231900D01*
X14822000Y-9232500D01*
X14822000Y-9247500D01*
X14822000Y-9248100D01*
X14821900Y-9248800D01*
X14821900Y-9249400D01*
X14821700Y-9250000D01*
X14821600Y-9250600D01*
X14821400Y-9251200D01*
X14821200Y-9251800D01*
X14821000Y-9252400D01*
X14820700Y-9252900D01*
X14820400Y-9253500D01*
X14820100Y-9254000D01*
X14819700Y-9254600D01*
X14819300Y-9255100D01*
X14818900Y-9255500D01*
X14818500Y-9256000D01*
X14818000Y-9256400D01*
X14817600Y-9256800D01*
X14817100Y-9257200D01*
X14816500Y-9257600D01*
X14816000Y-9257900D01*
X14815400Y-9258200D01*
X14814900Y-9258500D01*
X14814300Y-9258700D01*
X14813700Y-9258900D01*
X14813100Y-9259100D01*
X14812500Y-9259200D01*
X14811900Y-9259400D01*
X14811300Y-9259400D01*
X14810600Y-9259500D01*
X14810000Y-9259500D01*
X14690000Y-9259500D01*
X14689400Y-9259500D01*
X14688700Y-9259400D01*
X14688100Y-9259400D01*
X14687500Y-9259200D01*
X14686900Y-9259100D01*
X14686300Y-9258900D01*
X14685700Y-9258700D01*
X14685100Y-9258500D01*
X14684600Y-9258200D01*
X14684000Y-9257900D01*
X14683500Y-9257600D01*
X14682900Y-9257200D01*
X14682400Y-9256800D01*
X14682000Y-9256400D01*
X14681500Y-9256000D01*
X14681100Y-9255500D01*
X14680700Y-9255100D01*
X14680300Y-9254600D01*
X14679900Y-9254000D01*
X14679600Y-9253500D01*
X14679300Y-9252900D01*
X14679000Y-9252400D01*
X14678800Y-9251800D01*
X14678600Y-9251200D01*
X14678400Y-9250600D01*
X14678300Y-9250000D01*
X14678100Y-9249400D01*
X14678100Y-9248800D01*
X14678000Y-9248100D01*
X14678000Y-9247500D01*
X14678000Y-9232500D01*
X14678000Y-9231900D01*
X14678100Y-9231200D01*
X14678100Y-9230600D01*
X14678300Y-9230000D01*
X14678400Y-9229400D01*
X14678600Y-9228800D01*
X14678800Y-9228200D01*
X14679000Y-9227600D01*
X14679300Y-9227100D01*
X14679600Y-9226500D01*
X14679900Y-9226000D01*
X14680300Y-9225400D01*
X14680700Y-9224900D01*
X14681100Y-9224500D01*
X14681500Y-9224000D01*
X14682000Y-9223600D01*
X14682400Y-9223200D01*
X14682900Y-9222800D01*
X14683500Y-9222400D01*
X14684000Y-9222100D01*
X14684600Y-9221800D01*
X14685100Y-9221500D01*
X14685700Y-9221300D01*
X14686300Y-9221100D01*
X14686900Y-9220900D01*
X14687500Y-9220800D01*
X14688100Y-9220600D01*
X14688700Y-9220600D01*
X14689400Y-9220500D01*
X14690000Y-9220500D01*
X14810000Y-9220500D01*
X14810600Y-9220500D01*
X14811300Y-9220600D01*
G36*
X14811300Y-9220600D02*
G01*
X14811900Y-9220600D01*
X14812500Y-9220800D01*
X14813100Y-9220900D01*
X14813700Y-9221100D01*
X14814300Y-9221300D01*
X14814900Y-9221500D01*
X14815400Y-9221800D01*
X14816000Y-9222100D01*
X14816500Y-9222400D01*
X14817100Y-9222800D01*
X14817600Y-9223200D01*
X14818000Y-9223600D01*
X14818500Y-9224000D01*
X14818900Y-9224500D01*
X14819300Y-9224900D01*
X14819700Y-9225400D01*
X14820100Y-9226000D01*
X14820400Y-9226500D01*
X14820700Y-9227100D01*
X14821000Y-9227600D01*
X14821200Y-9228200D01*
X14821400Y-9228800D01*
X14821600Y-9229400D01*
X14821700Y-9230000D01*
X14821900Y-9230600D01*
X14821900Y-9231200D01*
X14822000Y-9231900D01*
X14822000Y-9232500D01*
X14822000Y-9247500D01*
X14822000Y-9248100D01*
X14821900Y-9248800D01*
X14821900Y-9249400D01*
X14821700Y-9250000D01*
X14821600Y-9250600D01*
X14821400Y-9251200D01*
X14821200Y-9251800D01*
X14821000Y-9252400D01*
X14820700Y-9252900D01*
X14820400Y-9253500D01*
X14820100Y-9254000D01*
X14819700Y-9254600D01*
X14819300Y-9255100D01*
X14818900Y-9255500D01*
X14818500Y-9256000D01*
X14818000Y-9256400D01*
X14817600Y-9256800D01*
X14817100Y-9257200D01*
X14816500Y-9257600D01*
X14816000Y-9257900D01*
X14815400Y-9258200D01*
X14814900Y-9258500D01*
X14814300Y-9258700D01*
X14813700Y-9258900D01*
X14813100Y-9259100D01*
X14812500Y-9259200D01*
X14811900Y-9259400D01*
X14811300Y-9259400D01*
X14810600Y-9259500D01*
X14810000Y-9259500D01*
X14690000Y-9259500D01*
X14689400Y-9259500D01*
X14688700Y-9259400D01*
X14688100Y-9259400D01*
X14687500Y-9259200D01*
X14686900Y-9259100D01*
X14686300Y-9258900D01*
X14685700Y-9258700D01*
X14685100Y-9258500D01*
X14684600Y-9258200D01*
X14684000Y-9257900D01*
X14683500Y-9257600D01*
X14682900Y-9257200D01*
X14682400Y-9256800D01*
X14682000Y-9256400D01*
X14681500Y-9256000D01*
X14681100Y-9255500D01*
X14680700Y-9255100D01*
X14680300Y-9254600D01*
X14679900Y-9254000D01*
X14679600Y-9253500D01*
X14679300Y-9252900D01*
X14679000Y-9252400D01*
X14678800Y-9251800D01*
X14678600Y-9251200D01*
X14678400Y-9250600D01*
X14678300Y-9250000D01*
X14678100Y-9249400D01*
X14678100Y-9248800D01*
X14678000Y-9248100D01*
X14678000Y-9247500D01*
X14678000Y-9232500D01*
X14678000Y-9231900D01*
X14678100Y-9231200D01*
X14678100Y-9230600D01*
X14678300Y-9230000D01*
X14678400Y-9229400D01*
X14678600Y-9228800D01*
X14678800Y-9228200D01*
X14679000Y-9227600D01*
X14679300Y-9227100D01*
X14679600Y-9226500D01*
X14679900Y-9226000D01*
X14680300Y-9225400D01*
X14680700Y-9224900D01*
X14681100Y-9224500D01*
X14681500Y-9224000D01*
X14682000Y-9223600D01*
X14682400Y-9223200D01*
X14682900Y-9222800D01*
X14683500Y-9222400D01*
X14684000Y-9222100D01*
X14684600Y-9221800D01*
X14685100Y-9221500D01*
X14685700Y-9221300D01*
X14686300Y-9221100D01*
X14686900Y-9220900D01*
X14687500Y-9220800D01*
X14688100Y-9220600D01*
X14688700Y-9220600D01*
X14689400Y-9220500D01*
X14690000Y-9220500D01*
X14810000Y-9220500D01*
X14810600Y-9220500D01*
X14811300Y-9220600D01*
G37*
X14771300Y-9170600D02*
X14771900Y-9170600D01*
X14772500Y-9170800D01*
X14773100Y-9170900D01*
X14773700Y-9171100D01*
X14774300Y-9171300D01*
X14774900Y-9171500D01*
X14775400Y-9171800D01*
X14776000Y-9172100D01*
X14776500Y-9172400D01*
X14777100Y-9172800D01*
X14777600Y-9173200D01*
X14778000Y-9173600D01*
X14778500Y-9174000D01*
X14778900Y-9174500D01*
X14779300Y-9174900D01*
X14779700Y-9175400D01*
X14780100Y-9176000D01*
X14780400Y-9176500D01*
X14780700Y-9177100D01*
X14781000Y-9177600D01*
X14781200Y-9178200D01*
X14781400Y-9178800D01*
X14781600Y-9179400D01*
X14781700Y-9180000D01*
X14781900Y-9180600D01*
X14781900Y-9181200D01*
X14782000Y-9181900D01*
X14782000Y-9182500D01*
X14782000Y-9197500D01*
X14782000Y-9198100D01*
X14781900Y-9198800D01*
X14781900Y-9199400D01*
X14781700Y-9200000D01*
X14781600Y-9200600D01*
X14781400Y-9201200D01*
X14781200Y-9201800D01*
X14781000Y-9202400D01*
X14780700Y-9202900D01*
X14780400Y-9203500D01*
X14780100Y-9204000D01*
X14779700Y-9204600D01*
X14779300Y-9205100D01*
X14778900Y-9205500D01*
X14778500Y-9206000D01*
X14778000Y-9206400D01*
X14777600Y-9206800D01*
X14777100Y-9207200D01*
X14776500Y-9207600D01*
X14776000Y-9207900D01*
X14775400Y-9208200D01*
X14774900Y-9208500D01*
X14774300Y-9208700D01*
X14773700Y-9208900D01*
X14773100Y-9209100D01*
X14772500Y-9209200D01*
X14771900Y-9209400D01*
X14771300Y-9209400D01*
X14770600Y-9209500D01*
X14770000Y-9209500D01*
X14690000Y-9209500D01*
X14689400Y-9209500D01*
X14688700Y-9209400D01*
X14688100Y-9209400D01*
X14687500Y-9209200D01*
X14686900Y-9209100D01*
X14686300Y-9208900D01*
X14685700Y-9208700D01*
X14685100Y-9208500D01*
X14684600Y-9208200D01*
X14684000Y-9207900D01*
X14683500Y-9207600D01*
X14682900Y-9207200D01*
X14682400Y-9206800D01*
X14682000Y-9206400D01*
X14681500Y-9206000D01*
X14681100Y-9205500D01*
X14680700Y-9205100D01*
X14680300Y-9204600D01*
X14679900Y-9204000D01*
X14679600Y-9203500D01*
X14679300Y-9202900D01*
X14679000Y-9202400D01*
X14678800Y-9201800D01*
X14678600Y-9201200D01*
X14678400Y-9200600D01*
X14678300Y-9200000D01*
X14678100Y-9199400D01*
X14678100Y-9198800D01*
X14678000Y-9198100D01*
X14678000Y-9197500D01*
X14678000Y-9182500D01*
X14678000Y-9181900D01*
X14678100Y-9181200D01*
X14678100Y-9180600D01*
X14678300Y-9180000D01*
X14678400Y-9179400D01*
X14678600Y-9178800D01*
X14678800Y-9178200D01*
X14679000Y-9177600D01*
X14679300Y-9177100D01*
X14679600Y-9176500D01*
X14679900Y-9176000D01*
X14680300Y-9175400D01*
X14680700Y-9174900D01*
X14681100Y-9174500D01*
X14681500Y-9174000D01*
X14682000Y-9173600D01*
X14682400Y-9173200D01*
X14682900Y-9172800D01*
X14683500Y-9172400D01*
X14684000Y-9172100D01*
X14684600Y-9171800D01*
X14685100Y-9171500D01*
X14685700Y-9171300D01*
X14686300Y-9171100D01*
X14686900Y-9170900D01*
X14687500Y-9170800D01*
X14688100Y-9170600D01*
X14688700Y-9170600D01*
X14689400Y-9170500D01*
X14690000Y-9170500D01*
X14770000Y-9170500D01*
X14770600Y-9170500D01*
X14771300Y-9170600D01*
G36*
X14771300Y-9170600D02*
G01*
X14771900Y-9170600D01*
X14772500Y-9170800D01*
X14773100Y-9170900D01*
X14773700Y-9171100D01*
X14774300Y-9171300D01*
X14774900Y-9171500D01*
X14775400Y-9171800D01*
X14776000Y-9172100D01*
X14776500Y-9172400D01*
X14777100Y-9172800D01*
X14777600Y-9173200D01*
X14778000Y-9173600D01*
X14778500Y-9174000D01*
X14778900Y-9174500D01*
X14779300Y-9174900D01*
X14779700Y-9175400D01*
X14780100Y-9176000D01*
X14780400Y-9176500D01*
X14780700Y-9177100D01*
X14781000Y-9177600D01*
X14781200Y-9178200D01*
X14781400Y-9178800D01*
X14781600Y-9179400D01*
X14781700Y-9180000D01*
X14781900Y-9180600D01*
X14781900Y-9181200D01*
X14782000Y-9181900D01*
X14782000Y-9182500D01*
X14782000Y-9197500D01*
X14782000Y-9198100D01*
X14781900Y-9198800D01*
X14781900Y-9199400D01*
X14781700Y-9200000D01*
X14781600Y-9200600D01*
X14781400Y-9201200D01*
X14781200Y-9201800D01*
X14781000Y-9202400D01*
X14780700Y-9202900D01*
X14780400Y-9203500D01*
X14780100Y-9204000D01*
X14779700Y-9204600D01*
X14779300Y-9205100D01*
X14778900Y-9205500D01*
X14778500Y-9206000D01*
X14778000Y-9206400D01*
X14777600Y-9206800D01*
X14777100Y-9207200D01*
X14776500Y-9207600D01*
X14776000Y-9207900D01*
X14775400Y-9208200D01*
X14774900Y-9208500D01*
X14774300Y-9208700D01*
X14773700Y-9208900D01*
X14773100Y-9209100D01*
X14772500Y-9209200D01*
X14771900Y-9209400D01*
X14771300Y-9209400D01*
X14770600Y-9209500D01*
X14770000Y-9209500D01*
X14690000Y-9209500D01*
X14689400Y-9209500D01*
X14688700Y-9209400D01*
X14688100Y-9209400D01*
X14687500Y-9209200D01*
X14686900Y-9209100D01*
X14686300Y-9208900D01*
X14685700Y-9208700D01*
X14685100Y-9208500D01*
X14684600Y-9208200D01*
X14684000Y-9207900D01*
X14683500Y-9207600D01*
X14682900Y-9207200D01*
X14682400Y-9206800D01*
X14682000Y-9206400D01*
X14681500Y-9206000D01*
X14681100Y-9205500D01*
X14680700Y-9205100D01*
X14680300Y-9204600D01*
X14679900Y-9204000D01*
X14679600Y-9203500D01*
X14679300Y-9202900D01*
X14679000Y-9202400D01*
X14678800Y-9201800D01*
X14678600Y-9201200D01*
X14678400Y-9200600D01*
X14678300Y-9200000D01*
X14678100Y-9199400D01*
X14678100Y-9198800D01*
X14678000Y-9198100D01*
X14678000Y-9197500D01*
X14678000Y-9182500D01*
X14678000Y-9181900D01*
X14678100Y-9181200D01*
X14678100Y-9180600D01*
X14678300Y-9180000D01*
X14678400Y-9179400D01*
X14678600Y-9178800D01*
X14678800Y-9178200D01*
X14679000Y-9177600D01*
X14679300Y-9177100D01*
X14679600Y-9176500D01*
X14679900Y-9176000D01*
X14680300Y-9175400D01*
X14680700Y-9174900D01*
X14681100Y-9174500D01*
X14681500Y-9174000D01*
X14682000Y-9173600D01*
X14682400Y-9173200D01*
X14682900Y-9172800D01*
X14683500Y-9172400D01*
X14684000Y-9172100D01*
X14684600Y-9171800D01*
X14685100Y-9171500D01*
X14685700Y-9171300D01*
X14686300Y-9171100D01*
X14686900Y-9170900D01*
X14687500Y-9170800D01*
X14688100Y-9170600D01*
X14688700Y-9170600D01*
X14689400Y-9170500D01*
X14690000Y-9170500D01*
X14770000Y-9170500D01*
X14770600Y-9170500D01*
X14771300Y-9170600D01*
G37*
X14771300Y-9120600D02*
X14771900Y-9120600D01*
X14772500Y-9120800D01*
X14773100Y-9120900D01*
X14773700Y-9121100D01*
X14774300Y-9121300D01*
X14774900Y-9121500D01*
X14775400Y-9121800D01*
X14776000Y-9122100D01*
X14776500Y-9122400D01*
X14777100Y-9122800D01*
X14777600Y-9123200D01*
X14778000Y-9123600D01*
X14778500Y-9124000D01*
X14778900Y-9124500D01*
X14779300Y-9124900D01*
X14779700Y-9125400D01*
X14780100Y-9126000D01*
X14780400Y-9126500D01*
X14780700Y-9127100D01*
X14781000Y-9127600D01*
X14781200Y-9128200D01*
X14781400Y-9128800D01*
X14781600Y-9129400D01*
X14781700Y-9130000D01*
X14781900Y-9130600D01*
X14781900Y-9131200D01*
X14782000Y-9131900D01*
X14782000Y-9132500D01*
X14782000Y-9147500D01*
X14782000Y-9148100D01*
X14781900Y-9148800D01*
X14781900Y-9149400D01*
X14781700Y-9150000D01*
X14781600Y-9150600D01*
X14781400Y-9151200D01*
X14781200Y-9151800D01*
X14781000Y-9152400D01*
X14780700Y-9152900D01*
X14780400Y-9153500D01*
X14780100Y-9154000D01*
X14779700Y-9154600D01*
X14779300Y-9155100D01*
X14778900Y-9155500D01*
X14778500Y-9156000D01*
X14778000Y-9156400D01*
X14777600Y-9156800D01*
X14777100Y-9157200D01*
X14776500Y-9157600D01*
X14776000Y-9157900D01*
X14775400Y-9158200D01*
X14774900Y-9158500D01*
X14774300Y-9158700D01*
X14773700Y-9158900D01*
X14773100Y-9159100D01*
X14772500Y-9159200D01*
X14771900Y-9159400D01*
X14771300Y-9159400D01*
X14770600Y-9159500D01*
X14770000Y-9159500D01*
X14690000Y-9159500D01*
X14689400Y-9159500D01*
X14688700Y-9159400D01*
X14688100Y-9159400D01*
X14687500Y-9159200D01*
X14686900Y-9159100D01*
X14686300Y-9158900D01*
X14685700Y-9158700D01*
X14685100Y-9158500D01*
X14684600Y-9158200D01*
X14684000Y-9157900D01*
X14683500Y-9157600D01*
X14682900Y-9157200D01*
X14682400Y-9156800D01*
X14682000Y-9156400D01*
X14681500Y-9156000D01*
X14681100Y-9155500D01*
X14680700Y-9155100D01*
X14680300Y-9154600D01*
X14679900Y-9154000D01*
X14679600Y-9153500D01*
X14679300Y-9152900D01*
X14679000Y-9152400D01*
X14678800Y-9151800D01*
X14678600Y-9151200D01*
X14678400Y-9150600D01*
X14678300Y-9150000D01*
X14678100Y-9149400D01*
X14678100Y-9148800D01*
X14678000Y-9148100D01*
X14678000Y-9147500D01*
X14678000Y-9132500D01*
X14678000Y-9131900D01*
X14678100Y-9131200D01*
X14678100Y-9130600D01*
X14678300Y-9130000D01*
X14678400Y-9129400D01*
X14678600Y-9128800D01*
X14678800Y-9128200D01*
X14679000Y-9127600D01*
X14679300Y-9127100D01*
X14679600Y-9126500D01*
X14679900Y-9126000D01*
X14680300Y-9125400D01*
X14680700Y-9124900D01*
X14681100Y-9124500D01*
X14681500Y-9124000D01*
X14682000Y-9123600D01*
X14682400Y-9123200D01*
X14682900Y-9122800D01*
X14683500Y-9122400D01*
X14684000Y-9122100D01*
X14684600Y-9121800D01*
X14685100Y-9121500D01*
X14685700Y-9121300D01*
X14686300Y-9121100D01*
X14686900Y-9120900D01*
X14687500Y-9120800D01*
X14688100Y-9120600D01*
X14688700Y-9120600D01*
X14689400Y-9120500D01*
X14690000Y-9120500D01*
X14770000Y-9120500D01*
X14770600Y-9120500D01*
X14771300Y-9120600D01*
G36*
X14771300Y-9120600D02*
G01*
X14771900Y-9120600D01*
X14772500Y-9120800D01*
X14773100Y-9120900D01*
X14773700Y-9121100D01*
X14774300Y-9121300D01*
X14774900Y-9121500D01*
X14775400Y-9121800D01*
X14776000Y-9122100D01*
X14776500Y-9122400D01*
X14777100Y-9122800D01*
X14777600Y-9123200D01*
X14778000Y-9123600D01*
X14778500Y-9124000D01*
X14778900Y-9124500D01*
X14779300Y-9124900D01*
X14779700Y-9125400D01*
X14780100Y-9126000D01*
X14780400Y-9126500D01*
X14780700Y-9127100D01*
X14781000Y-9127600D01*
X14781200Y-9128200D01*
X14781400Y-9128800D01*
X14781600Y-9129400D01*
X14781700Y-9130000D01*
X14781900Y-9130600D01*
X14781900Y-9131200D01*
X14782000Y-9131900D01*
X14782000Y-9132500D01*
X14782000Y-9147500D01*
X14782000Y-9148100D01*
X14781900Y-9148800D01*
X14781900Y-9149400D01*
X14781700Y-9150000D01*
X14781600Y-9150600D01*
X14781400Y-9151200D01*
X14781200Y-9151800D01*
X14781000Y-9152400D01*
X14780700Y-9152900D01*
X14780400Y-9153500D01*
X14780100Y-9154000D01*
X14779700Y-9154600D01*
X14779300Y-9155100D01*
X14778900Y-9155500D01*
X14778500Y-9156000D01*
X14778000Y-9156400D01*
X14777600Y-9156800D01*
X14777100Y-9157200D01*
X14776500Y-9157600D01*
X14776000Y-9157900D01*
X14775400Y-9158200D01*
X14774900Y-9158500D01*
X14774300Y-9158700D01*
X14773700Y-9158900D01*
X14773100Y-9159100D01*
X14772500Y-9159200D01*
X14771900Y-9159400D01*
X14771300Y-9159400D01*
X14770600Y-9159500D01*
X14770000Y-9159500D01*
X14690000Y-9159500D01*
X14689400Y-9159500D01*
X14688700Y-9159400D01*
X14688100Y-9159400D01*
X14687500Y-9159200D01*
X14686900Y-9159100D01*
X14686300Y-9158900D01*
X14685700Y-9158700D01*
X14685100Y-9158500D01*
X14684600Y-9158200D01*
X14684000Y-9157900D01*
X14683500Y-9157600D01*
X14682900Y-9157200D01*
X14682400Y-9156800D01*
X14682000Y-9156400D01*
X14681500Y-9156000D01*
X14681100Y-9155500D01*
X14680700Y-9155100D01*
X14680300Y-9154600D01*
X14679900Y-9154000D01*
X14679600Y-9153500D01*
X14679300Y-9152900D01*
X14679000Y-9152400D01*
X14678800Y-9151800D01*
X14678600Y-9151200D01*
X14678400Y-9150600D01*
X14678300Y-9150000D01*
X14678100Y-9149400D01*
X14678100Y-9148800D01*
X14678000Y-9148100D01*
X14678000Y-9147500D01*
X14678000Y-9132500D01*
X14678000Y-9131900D01*
X14678100Y-9131200D01*
X14678100Y-9130600D01*
X14678300Y-9130000D01*
X14678400Y-9129400D01*
X14678600Y-9128800D01*
X14678800Y-9128200D01*
X14679000Y-9127600D01*
X14679300Y-9127100D01*
X14679600Y-9126500D01*
X14679900Y-9126000D01*
X14680300Y-9125400D01*
X14680700Y-9124900D01*
X14681100Y-9124500D01*
X14681500Y-9124000D01*
X14682000Y-9123600D01*
X14682400Y-9123200D01*
X14682900Y-9122800D01*
X14683500Y-9122400D01*
X14684000Y-9122100D01*
X14684600Y-9121800D01*
X14685100Y-9121500D01*
X14685700Y-9121300D01*
X14686300Y-9121100D01*
X14686900Y-9120900D01*
X14687500Y-9120800D01*
X14688100Y-9120600D01*
X14688700Y-9120600D01*
X14689400Y-9120500D01*
X14690000Y-9120500D01*
X14770000Y-9120500D01*
X14770600Y-9120500D01*
X14771300Y-9120600D01*
G37*
D11*
X11855000Y-10503000D03*
X11855000Y-10407000D03*
X11960000Y-10503000D03*
X11960000Y-10407000D03*
D12*
X14929000Y-10390250D03*
X14879000Y-10390250D03*
X14829000Y-10390250D03*
X14779000Y-10390250D03*
D13*
X14710250Y-10459000D03*
X14710250Y-10509000D03*
X14710250Y-10559000D03*
X14710250Y-10609000D03*
D12*
X14779000Y-10677750D03*
X14829000Y-10677750D03*
X14879000Y-10677750D03*
X14929000Y-10677750D03*
D13*
X14997750Y-10609000D03*
X14997750Y-10559000D03*
X14997750Y-10509000D03*
X14997750Y-10459000D03*
D14*
X14854000Y-10534000D03*
D15*
X15241000Y-10490000D03*
X15139000Y-10490000D03*
D16*
X15156000Y-10363000D03*
X15060000Y-10363000D03*
D17*
X14594000Y-10499000D03*
X14594000Y-10601000D03*
D15*
X14341000Y-10368000D03*
X14239000Y-10368000D03*
D18*
X14917000Y-10275000D03*
X15019000Y-10275000D03*
D15*
X14542000Y-10368000D03*
X14440000Y-10368000D03*
D19*
X14662750Y-10734000D03*
X14505250Y-10734000D03*
D16*
X15238000Y-10600000D03*
X15142000Y-10600000D03*
D18*
X15009000Y-10705000D03*
X15111000Y-10705000D03*
D15*
X15161000Y-9130000D03*
X15059000Y-9130000D03*
D17*
X15410000Y-9979000D03*
X15410000Y-10081000D03*
D20*
X13597000Y-10020000D03*
X13693000Y-10020000D03*
D21*
X13830000Y-10132000D03*
X13830000Y-10228000D03*
D22*
X12600000Y-10240000D03*
D19*
X13747500Y-9495000D03*
X13590000Y-9495000D03*
D22*
X12435000Y-10240000D03*
D23*
X13048000Y-9100000D03*
X13112000Y-9100000D03*
D17*
X12255000Y-9149000D03*
X12255000Y-9251000D03*
D22*
X11596000Y-9911000D03*
D24*
X12365000Y-9260000D03*
X12455000Y-9260000D03*
X12545000Y-9260000D03*
X12635000Y-9260000D03*
X12635000Y-9140000D03*
X12545000Y-9140000D03*
X12455000Y-9140000D03*
X12365000Y-9140000D03*
D25*
X12752000Y-9900000D03*
X12688000Y-9900000D03*
D26*
X13370000Y-10120000D03*
X13370000Y-10184000D03*
D15*
X12285000Y-9505000D03*
X12183000Y-9505000D03*
D23*
X13558000Y-9940000D03*
X13622000Y-9940000D03*
D11*
X15410000Y-9848000D03*
X15410000Y-9752000D03*
D27*
X13250000Y-9230000D03*
X13130000Y-9230000D03*
D16*
X13878000Y-10830000D03*
X13782000Y-10830000D03*
D15*
X15117000Y-9985000D03*
X15015000Y-9985000D03*
D26*
X13310000Y-10118000D03*
X13310000Y-10182000D03*
D25*
X13937000Y-10320000D03*
X13873000Y-10320000D03*
D22*
X12980000Y-10785000D03*
D11*
X14859000Y-9688000D03*
X14859000Y-9592000D03*
D28*
X14701000Y-9681000D03*
X14701000Y-9617000D03*
D16*
X12623000Y-9020000D03*
X12527000Y-9020000D03*
D15*
X13936000Y-10410000D03*
X13834000Y-10410000D03*
D18*
X12254000Y-9030000D03*
X12356000Y-9030000D03*
D16*
X14563000Y-9010000D03*
X14467000Y-9010000D03*
D22*
X12230000Y-10115000D03*
D17*
X14290000Y-10517000D03*
X14290000Y-10619000D03*
D25*
X13332000Y-9100000D03*
X13268000Y-9100000D03*
D28*
X14772000Y-9682000D03*
X14772000Y-9618000D03*
D18*
X11885000Y-9600000D03*
X11987000Y-9600000D03*
D29*
X11949000Y-9366000D03*
X12139000Y-9366000D03*
X12044000Y-9178500D03*
D30*
X13985000Y-10783750D03*
X14080000Y-10783750D03*
X14175000Y-10783750D03*
X14175000Y-10556250D03*
X13985000Y-10556250D03*
D26*
X12890000Y-10118000D03*
X12890000Y-10182000D03*
D22*
X12690000Y-10125000D03*
D28*
X12930000Y-9292000D03*
X12930000Y-9228000D03*
D31*
X15004500Y-9800000D03*
X15101500Y-9800000D03*
D32*
X14515000Y-9132500D03*
X14515000Y-9347500D03*
D33*
X13816500Y-9140000D03*
X13661500Y-9140000D03*
D22*
X15340000Y-9374000D03*
D34*
X15212500Y-9270000D03*
X15047500Y-9270000D03*
D26*
X13210000Y-10118000D03*
X13210000Y-10182000D03*
D21*
X12735000Y-9142000D03*
X12735000Y-9238000D03*
D25*
X13252000Y-10350000D03*
X13188000Y-10350000D03*
D22*
X14270000Y-9020000D03*
D35*
X12555000Y-9724000D03*
D36*
X12555000Y-9674000D03*
X12555000Y-9624000D03*
D35*
X12555000Y-9574000D03*
X12455000Y-9574000D03*
D36*
X12455000Y-9624000D03*
X12455000Y-9674000D03*
D35*
X12455000Y-9724000D03*
D11*
X13020000Y-9298000D03*
X13020000Y-9202000D03*
D37*
X14727500Y-9000000D03*
X14882500Y-9000000D03*
X14717500Y-9460000D03*
X14872500Y-9460000D03*
D22*
X11767000Y-9441000D03*
D15*
X13881000Y-10625000D03*
X13779000Y-10625000D03*
D25*
X13257000Y-10600000D03*
X13193000Y-10600000D03*
D21*
X14484000Y-10502000D03*
X14484000Y-10598000D03*
D34*
X15212500Y-9420000D03*
X15047500Y-9420000D03*
D28*
X13839000Y-9574000D03*
X13839000Y-9510000D03*
D37*
X13681000Y-9379000D03*
X13836000Y-9379000D03*
D22*
X14065000Y-9525000D03*
D20*
X13372000Y-9300000D03*
X13468000Y-9300000D03*
D26*
X13255000Y-10443000D03*
X13255000Y-10507000D03*
D22*
X14055000Y-9375000D03*
D38*
X14222500Y-10105000D03*
X14382500Y-10105000D03*
X14382500Y-9695000D03*
X14222500Y-9695000D03*
D39*
X14160000Y-9900000D03*
D20*
X13582000Y-9700000D03*
X13678000Y-9700000D03*
D25*
X15081000Y-9892000D03*
X15017000Y-9892000D03*
D22*
X14195000Y-9375000D03*
D20*
X13562000Y-10355000D03*
X13658000Y-10355000D03*
D25*
X12752000Y-9740000D03*
X12688000Y-9740000D03*
D23*
X13558000Y-9780000D03*
X13622000Y-9780000D03*
D40*
X15250000Y-9780000D03*
X15250000Y-10060000D03*
D18*
X12090000Y-9602000D03*
X12192000Y-9602000D03*
D23*
X13558000Y-9870000D03*
X13622000Y-9870000D03*
D25*
X13969000Y-9277000D03*
X13905000Y-9277000D03*
D16*
X13878000Y-10535000D03*
X13782000Y-10535000D03*
D41*
X13567500Y-10247500D03*
X13712500Y-10247500D03*
X13712500Y-10132500D03*
X13567500Y-10132500D03*
D42*
X12335000Y-9845000D03*
X12485000Y-9845000D03*
X12485000Y-9955000D03*
X12335000Y-9955000D03*
D31*
X14827500Y-10179000D03*
X14924500Y-10179000D03*
D43*
X14854500Y-9777000D03*
X14757500Y-9777000D03*
D20*
X13582000Y-9607000D03*
X13678000Y-9607000D03*
D25*
X12752000Y-9620000D03*
X12688000Y-9620000D03*
D44*
X11755000Y-10017000D03*
X11920000Y-10017000D03*
X12085000Y-10017000D03*
X12085000Y-9783000D03*
X11920000Y-9783000D03*
D45*
X11765000Y-9793000D03*
D22*
X12830000Y-10800000D03*
D18*
X14029000Y-10410000D03*
X14131000Y-10410000D03*
D46*
X12695000Y-10753000D03*
X12695000Y-10626000D03*
X12695000Y-10499000D03*
X12695000Y-10372000D03*
X12155000Y-10372000D03*
X12155000Y-10499000D03*
X12155000Y-10626000D03*
X12155000Y-10753000D03*
D47*
X12425000Y-10562500D03*
D25*
X12753000Y-9448000D03*
X12689000Y-9448000D03*
D48*
X13814000Y-9932750D03*
X13814000Y-9775250D03*
D49*
X13265000Y-10725000D03*
D15*
X13880000Y-10730000D03*
X13778000Y-10730000D03*
D22*
X14015000Y-9140000D03*
D50*
X12970000Y-9540000D03*
X12970000Y-9673300D03*
X12970000Y-9806700D03*
X12970000Y-9940000D03*
X13090000Y-9540000D03*
X13090000Y-9673300D03*
X13090000Y-9806700D03*
X13090000Y-9940000D03*
X13210000Y-9540000D03*
X13210000Y-9673300D03*
X13210000Y-9806700D03*
X13210000Y-9940000D03*
X13330000Y-9540000D03*
X13330000Y-9673300D03*
X13330000Y-9806700D03*
X13330000Y-9940000D03*
D51*
X13150000Y-9740320D03*
D52*
X13470000Y-9400000D03*
D53*
X13470000Y-9500000D03*
X13470000Y-9660000D03*
X13470000Y-9700000D03*
X13470000Y-9740000D03*
X13470000Y-9780000D03*
X13470000Y-9820000D03*
X13470000Y-9860000D03*
X13470000Y-9900000D03*
X13470000Y-9940000D03*
D52*
X13470000Y-10040000D03*
D53*
X13050000Y-9400000D03*
X13050000Y-10040000D03*
X13030000Y-9440000D03*
X13010000Y-9400000D03*
X13010000Y-10040000D03*
X12990000Y-9440000D03*
X12970000Y-9400000D03*
X12970000Y-10040000D03*
X12950000Y-9440000D03*
X12930000Y-9400000D03*
X12930000Y-10040000D03*
X12910000Y-9440000D03*
X12890000Y-9400000D03*
X12890000Y-10040000D03*
X12870000Y-9440000D03*
X12870000Y-9480000D03*
X12870000Y-9520000D03*
X12870000Y-9560000D03*
X12870000Y-9600000D03*
X12870000Y-9640000D03*
X12870000Y-9680000D03*
X12870000Y-9720000D03*
X12870000Y-9760000D03*
X12870000Y-9800000D03*
X12870000Y-9840000D03*
X12870000Y-9880000D03*
X12870000Y-9920000D03*
X12870000Y-9960000D03*
X12870000Y-10000000D03*
D52*
X12830000Y-9400000D03*
D53*
X12830000Y-9460000D03*
X12830000Y-9500000D03*
X12830000Y-9540000D03*
X12830000Y-9580000D03*
X12830000Y-9620000D03*
X12830000Y-9660000D03*
X12830000Y-9700000D03*
X12830000Y-9740000D03*
X12830000Y-9780000D03*
X12830000Y-9820000D03*
X12830000Y-9860000D03*
X12830000Y-9900000D03*
X12830000Y-9940000D03*
X12830000Y-9980000D03*
D52*
X12830000Y-10040000D03*
D53*
X13430000Y-9440000D03*
X13430000Y-9480000D03*
X13430000Y-9520000D03*
X13430000Y-9560000D03*
X13430000Y-9600000D03*
X13430000Y-9640000D03*
X13430000Y-9680000D03*
X13430000Y-9720000D03*
X13430000Y-9760000D03*
X13430000Y-9800000D03*
X13430000Y-9840000D03*
X13430000Y-9880000D03*
X13430000Y-9920000D03*
X13430000Y-9960000D03*
X13430000Y-10000000D03*
X13410000Y-9400000D03*
X13410000Y-10040000D03*
X13390000Y-9440000D03*
X13370000Y-9400000D03*
X13370000Y-10040000D03*
X13350000Y-9440000D03*
X13330000Y-9400000D03*
X13330000Y-10040000D03*
X13310000Y-9440000D03*
X13290000Y-9400000D03*
X13290000Y-10040000D03*
X13270000Y-9440000D03*
X13250000Y-9400000D03*
X13250000Y-10040000D03*
X13230000Y-9440000D03*
X13210000Y-9400000D03*
X13210000Y-10040000D03*
X13190000Y-9440000D03*
X13170000Y-9400000D03*
X13170000Y-10040000D03*
X13150000Y-9440000D03*
X13130000Y-9400000D03*
X13130000Y-10040000D03*
X13110000Y-9440000D03*
X13090000Y-9400000D03*
X13090000Y-10040000D03*
X13070000Y-9440000D03*
D17*
X14310000Y-10716000D03*
X14310000Y-10818000D03*
D15*
X12871000Y-9020000D03*
X12769000Y-9020000D03*
D16*
X11783000Y-9600000D03*
X11687000Y-9600000D03*
D33*
X13537500Y-9190000D03*
X13382500Y-9190000D03*
D54*
X14748000Y-10081000D03*
D55*
X14918000Y-10081000D03*
X14918000Y-9881000D03*
X14728000Y-9881000D03*
D15*
X12373000Y-9406000D03*
X12271000Y-9406000D03*
D56*
X15350000Y-9550000D03*
D57*
X15080000Y-9650000D03*
X15080000Y-10150000D03*
D56*
X15350000Y-10250000D03*
M02*
