G04 #@! TF.GenerationSoftware,KiCad,Pcbnew,7.0.10-7.0.10~ubuntu22.04.1*
G04 #@! TF.CreationDate,2024-02-23T20:42:25+01:00*
G04 #@! TF.ProjectId,dictofun,64696374-6f66-4756-9e2e-6b696361645f,rev?*
G04 #@! TF.SameCoordinates,Original*
G04 #@! TF.FileFunction,Paste,Top*
G04 #@! TF.FilePolarity,Positive*
%FSLAX45Y45*%
G04 Gerber Fmt 4.5, Leading zero omitted, Abs format (unit mm)*
G04 Created by KiCad (PCBNEW 7.0.10-7.0.10~ubuntu22.04.1) date 2024-02-23 20:42:25*
%MOMM*%
%LPD*%
G01*
G04 APERTURE LIST*
G04 Aperture macros list*
%AMRoundRect*
0 Rectangle with rounded corners*
0 $1 Rounding radius*
0 $2 $3 $4 $5 $6 $7 $8 $9 X,Y pos of 4 corners*
0 Add a 4 corners polygon primitive as box body*
4,1,4,$2,$3,$4,$5,$6,$7,$8,$9,$2,$3,0*
0 Add four circle primitives for the rounded corners*
1,1,$1+$1,$2,$3*
1,1,$1+$1,$4,$5*
1,1,$1+$1,$6,$7*
1,1,$1+$1,$8,$9*
0 Add four rect primitives between the rounded corners*
20,1,$1+$1,$2,$3,$4,$5,0*
20,1,$1+$1,$4,$5,$6,$7,0*
20,1,$1+$1,$6,$7,$8,$9,0*
20,1,$1+$1,$8,$9,$2,$3,0*%
%AMHorizOval*
0 Thick line with rounded ends*
0 $1 width*
0 $2 $3 position (X,Y) of the first rounded end (center of the circle)*
0 $4 $5 position (X,Y) of the second rounded end (center of the circle)*
0 Add line between two ends*
20,1,$1,$2,$3,$4,$5,0*
0 Add two circle primitives to create the rounded ends*
1,1,$1,$2,$3*
1,1,$1,$4,$5*%
G04 Aperture macros list end*
%ADD10C,0.010000*%
%ADD11C,0.194000*%
%ADD12C,0.106500*%
%ADD13RoundRect,0.140000X0.170000X-0.140000X0.170000X0.140000X-0.170000X0.140000X-0.170000X-0.140000X0*%
%ADD14RoundRect,0.157500X-0.157500X0.157500X-0.157500X-0.157500X0.157500X-0.157500X0.157500X0.157500X0*%
%ADD15RoundRect,0.062500X-0.062500X0.375000X-0.062500X-0.375000X0.062500X-0.375000X0.062500X0.375000X0*%
%ADD16RoundRect,0.062500X-0.375000X0.062500X-0.375000X-0.062500X0.375000X-0.062500X0.375000X0.062500X0*%
%ADD17RoundRect,0.135000X0.135000X0.185000X-0.135000X0.185000X-0.135000X-0.185000X0.135000X-0.185000X0*%
%ADD18RoundRect,0.140000X0.140000X0.170000X-0.140000X0.170000X-0.140000X-0.170000X0.140000X-0.170000X0*%
%ADD19RoundRect,0.135000X-0.185000X0.135000X-0.185000X-0.135000X0.185000X-0.135000X0.185000X0.135000X0*%
%ADD20RoundRect,0.135000X-0.135000X-0.185000X0.135000X-0.185000X0.135000X0.185000X-0.135000X0.185000X0*%
%ADD21RoundRect,0.218750X0.218750X0.256250X-0.218750X0.256250X-0.218750X-0.256250X0.218750X-0.256250X0*%
%ADD22RoundRect,0.140000X-0.140000X-0.170000X0.140000X-0.170000X0.140000X0.170000X-0.140000X0.170000X0*%
%ADD23RoundRect,0.140000X-0.170000X0.140000X-0.170000X-0.140000X0.170000X-0.140000X0.170000X0.140000X0*%
%ADD24RoundRect,0.079500X-0.079500X-0.100500X0.079500X-0.100500X0.079500X0.100500X-0.079500X0.100500X0*%
%ADD25R,0.500000X0.800000*%
%ADD26RoundRect,0.079500X0.079500X0.100500X-0.079500X0.100500X-0.079500X-0.100500X0.079500X-0.100500X0*%
%ADD27RoundRect,0.079500X-0.100500X0.079500X-0.100500X-0.079500X0.100500X-0.079500X0.100500X0.079500X0*%
%ADD28R,0.600000X1.200000*%
%ADD29RoundRect,0.079500X0.100500X-0.079500X0.100500X0.079500X-0.100500X0.079500X-0.100500X-0.079500X0*%
%ADD30RoundRect,0.150000X0.150000X-0.587500X0.150000X0.587500X-0.150000X0.587500X-0.150000X-0.587500X0*%
%ADD31RoundRect,0.150000X0.150000X-0.512500X0.150000X0.512500X-0.150000X0.512500X-0.150000X-0.512500X0*%
%ADD32RoundRect,0.147500X-0.147500X-0.172500X0.147500X-0.172500X0.147500X0.172500X-0.147500X0.172500X0*%
%ADD33RoundRect,0.250000X-0.850000X0.375000X-0.850000X-0.375000X0.850000X-0.375000X0.850000X0.375000X0*%
%ADD34RoundRect,0.225000X0.225000X0.250000X-0.225000X0.250000X-0.225000X-0.250000X0.225000X-0.250000X0*%
%ADD35RoundRect,0.200000X0.200000X0.275000X-0.200000X0.275000X-0.200000X-0.275000X0.200000X-0.275000X0*%
%ADD36R,0.500000X0.400000*%
%ADD37R,0.500000X0.300000*%
%ADD38RoundRect,0.225000X-0.225000X-0.250000X0.225000X-0.250000X0.225000X0.250000X-0.225000X0.250000X0*%
%ADD39R,1.000000X0.900000*%
%ADD40R,0.550000X1.700000*%
%ADD41RoundRect,0.250000X-0.300000X0.300000X-0.300000X-0.300000X0.300000X-0.300000X0.300000X0.300000X0*%
%ADD42RoundRect,0.012500X0.287500X0.112500X-0.287500X0.112500X-0.287500X-0.112500X0.287500X-0.112500X0*%
%ADD43RoundRect,0.012500X0.437500X0.112500X-0.437500X0.112500X-0.437500X-0.112500X0.437500X-0.112500X0*%
%ADD44R,0.950000X0.850000*%
%ADD45R,1.000000X0.800000*%
%ADD46RoundRect,0.147500X0.147500X0.172500X-0.147500X0.172500X-0.147500X-0.172500X0.147500X-0.172500X0*%
%ADD47C,0.910000*%
%ADD48HorizOval,0.910000X-0.100000X0.100000X0.100000X-0.100000X0*%
%ADD49RoundRect,0.250000X0.435000X0.615000X-0.435000X0.615000X-0.435000X-0.615000X0.435000X-0.615000X0*%
%ADD50RoundRect,0.125000X0.250000X0.125000X-0.250000X0.125000X-0.250000X-0.125000X0.250000X-0.125000X0*%
%ADD51RoundRect,0.218750X0.256250X-0.218750X0.256250X0.218750X-0.256250X0.218750X-0.256250X-0.218750X0*%
%ADD52R,1.000000X0.700000*%
%ADD53R,0.600000X0.700000*%
G04 APERTURE END LIST*
D10*
X14810800Y-9227600D02*
X14811000Y-9227600D01*
X14811300Y-9227700D01*
X14811500Y-9227700D01*
X14811800Y-9227800D01*
X14812000Y-9227900D01*
X14812300Y-9228000D01*
X14812500Y-9228200D01*
X14812700Y-9228300D01*
X14812900Y-9228500D01*
X14813100Y-9228600D01*
X14813300Y-9228800D01*
X14813500Y-9229000D01*
X14813700Y-9229200D01*
X14813900Y-9229400D01*
X14814000Y-9229600D01*
X14814200Y-9229800D01*
X14814300Y-9230000D01*
X14814500Y-9230200D01*
X14814600Y-9230500D01*
X14814700Y-9230700D01*
X14814800Y-9231000D01*
X14814800Y-9231200D01*
X14814900Y-9231500D01*
X14814900Y-9231700D01*
X14815000Y-9232000D01*
X14815000Y-9232200D01*
X14815000Y-9232500D01*
X14815000Y-9247500D01*
X14815000Y-9247800D01*
X14815000Y-9248000D01*
X14814900Y-9248300D01*
X14814900Y-9248500D01*
X14814800Y-9248800D01*
X14814800Y-9249000D01*
X14814700Y-9249300D01*
X14814600Y-9249500D01*
X14814500Y-9249800D01*
X14814300Y-9250000D01*
X14814200Y-9250200D01*
X14814000Y-9250400D01*
X14813900Y-9250600D01*
X14813700Y-9250800D01*
X14813500Y-9251000D01*
X14813300Y-9251200D01*
X14813100Y-9251400D01*
X14812900Y-9251500D01*
X14812700Y-9251700D01*
X14812500Y-9251800D01*
X14812300Y-9252000D01*
X14812000Y-9252100D01*
X14811800Y-9252200D01*
X14811500Y-9252300D01*
X14811300Y-9252300D01*
X14811000Y-9252400D01*
X14810800Y-9252400D01*
X14810500Y-9252500D01*
X14810300Y-9252500D01*
X14810000Y-9252500D01*
X14765000Y-9252500D01*
X14764700Y-9252500D01*
X14764500Y-9252500D01*
X14764200Y-9252400D01*
X14764000Y-9252400D01*
X14763700Y-9252300D01*
X14763500Y-9252300D01*
X14763200Y-9252200D01*
X14763000Y-9252100D01*
X14762700Y-9252000D01*
X14762500Y-9251800D01*
X14762300Y-9251700D01*
X14762100Y-9251500D01*
X14761900Y-9251400D01*
X14761700Y-9251200D01*
X14761500Y-9251000D01*
X14761300Y-9250800D01*
X14761100Y-9250600D01*
X14761000Y-9250400D01*
X14760800Y-9250200D01*
X14760700Y-9250000D01*
X14760500Y-9249800D01*
X14760400Y-9249500D01*
X14760300Y-9249300D01*
X14760200Y-9249000D01*
X14760200Y-9248800D01*
X14760100Y-9248500D01*
X14760100Y-9248300D01*
X14760000Y-9248000D01*
X14760000Y-9247800D01*
X14760000Y-9247500D01*
X14760000Y-9232500D01*
X14760000Y-9232200D01*
X14760000Y-9232000D01*
X14760100Y-9231700D01*
X14760100Y-9231500D01*
X14760200Y-9231200D01*
X14760200Y-9231000D01*
X14760300Y-9230700D01*
X14760400Y-9230500D01*
X14760500Y-9230200D01*
X14760700Y-9230000D01*
X14760800Y-9229800D01*
X14761000Y-9229600D01*
X14761100Y-9229400D01*
X14761300Y-9229200D01*
X14761500Y-9229000D01*
X14761700Y-9228800D01*
X14761900Y-9228600D01*
X14762100Y-9228500D01*
X14762300Y-9228300D01*
X14762500Y-9228200D01*
X14762700Y-9228000D01*
X14763000Y-9227900D01*
X14763200Y-9227800D01*
X14763500Y-9227700D01*
X14763700Y-9227700D01*
X14764000Y-9227600D01*
X14764200Y-9227600D01*
X14764500Y-9227500D01*
X14764700Y-9227500D01*
X14765000Y-9227500D01*
X14810000Y-9227500D01*
X14810300Y-9227500D01*
X14810500Y-9227500D01*
X14810800Y-9227600D01*
G36*
X14810800Y-9227600D02*
G01*
X14811000Y-9227600D01*
X14811300Y-9227700D01*
X14811500Y-9227700D01*
X14811800Y-9227800D01*
X14812000Y-9227900D01*
X14812300Y-9228000D01*
X14812500Y-9228200D01*
X14812700Y-9228300D01*
X14812900Y-9228500D01*
X14813100Y-9228600D01*
X14813300Y-9228800D01*
X14813500Y-9229000D01*
X14813700Y-9229200D01*
X14813900Y-9229400D01*
X14814000Y-9229600D01*
X14814200Y-9229800D01*
X14814300Y-9230000D01*
X14814500Y-9230200D01*
X14814600Y-9230500D01*
X14814700Y-9230700D01*
X14814800Y-9231000D01*
X14814800Y-9231200D01*
X14814900Y-9231500D01*
X14814900Y-9231700D01*
X14815000Y-9232000D01*
X14815000Y-9232200D01*
X14815000Y-9232500D01*
X14815000Y-9247500D01*
X14815000Y-9247800D01*
X14815000Y-9248000D01*
X14814900Y-9248300D01*
X14814900Y-9248500D01*
X14814800Y-9248800D01*
X14814800Y-9249000D01*
X14814700Y-9249300D01*
X14814600Y-9249500D01*
X14814500Y-9249800D01*
X14814300Y-9250000D01*
X14814200Y-9250200D01*
X14814000Y-9250400D01*
X14813900Y-9250600D01*
X14813700Y-9250800D01*
X14813500Y-9251000D01*
X14813300Y-9251200D01*
X14813100Y-9251400D01*
X14812900Y-9251500D01*
X14812700Y-9251700D01*
X14812500Y-9251800D01*
X14812300Y-9252000D01*
X14812000Y-9252100D01*
X14811800Y-9252200D01*
X14811500Y-9252300D01*
X14811300Y-9252300D01*
X14811000Y-9252400D01*
X14810800Y-9252400D01*
X14810500Y-9252500D01*
X14810300Y-9252500D01*
X14810000Y-9252500D01*
X14765000Y-9252500D01*
X14764700Y-9252500D01*
X14764500Y-9252500D01*
X14764200Y-9252400D01*
X14764000Y-9252400D01*
X14763700Y-9252300D01*
X14763500Y-9252300D01*
X14763200Y-9252200D01*
X14763000Y-9252100D01*
X14762700Y-9252000D01*
X14762500Y-9251800D01*
X14762300Y-9251700D01*
X14762100Y-9251500D01*
X14761900Y-9251400D01*
X14761700Y-9251200D01*
X14761500Y-9251000D01*
X14761300Y-9250800D01*
X14761100Y-9250600D01*
X14761000Y-9250400D01*
X14760800Y-9250200D01*
X14760700Y-9250000D01*
X14760500Y-9249800D01*
X14760400Y-9249500D01*
X14760300Y-9249300D01*
X14760200Y-9249000D01*
X14760200Y-9248800D01*
X14760100Y-9248500D01*
X14760100Y-9248300D01*
X14760000Y-9248000D01*
X14760000Y-9247800D01*
X14760000Y-9247500D01*
X14760000Y-9232500D01*
X14760000Y-9232200D01*
X14760000Y-9232000D01*
X14760100Y-9231700D01*
X14760100Y-9231500D01*
X14760200Y-9231200D01*
X14760200Y-9231000D01*
X14760300Y-9230700D01*
X14760400Y-9230500D01*
X14760500Y-9230200D01*
X14760700Y-9230000D01*
X14760800Y-9229800D01*
X14761000Y-9229600D01*
X14761100Y-9229400D01*
X14761300Y-9229200D01*
X14761500Y-9229000D01*
X14761700Y-9228800D01*
X14761900Y-9228600D01*
X14762100Y-9228500D01*
X14762300Y-9228300D01*
X14762500Y-9228200D01*
X14762700Y-9228000D01*
X14763000Y-9227900D01*
X14763200Y-9227800D01*
X14763500Y-9227700D01*
X14763700Y-9227700D01*
X14764000Y-9227600D01*
X14764200Y-9227600D01*
X14764500Y-9227500D01*
X14764700Y-9227500D01*
X14765000Y-9227500D01*
X14810000Y-9227500D01*
X14810300Y-9227500D01*
X14810500Y-9227500D01*
X14810800Y-9227600D01*
G37*
X14735800Y-9227600D02*
X14736000Y-9227600D01*
X14736300Y-9227700D01*
X14736500Y-9227700D01*
X14736800Y-9227800D01*
X14737000Y-9227900D01*
X14737300Y-9228000D01*
X14737500Y-9228200D01*
X14737700Y-9228300D01*
X14737900Y-9228500D01*
X14738100Y-9228600D01*
X14738300Y-9228800D01*
X14738500Y-9229000D01*
X14738700Y-9229200D01*
X14738900Y-9229400D01*
X14739000Y-9229600D01*
X14739200Y-9229800D01*
X14739300Y-9230000D01*
X14739500Y-9230200D01*
X14739600Y-9230500D01*
X14739700Y-9230700D01*
X14739800Y-9231000D01*
X14739800Y-9231200D01*
X14739900Y-9231500D01*
X14739900Y-9231700D01*
X14740000Y-9232000D01*
X14740000Y-9232200D01*
X14740000Y-9232500D01*
X14740000Y-9247500D01*
X14740000Y-9247800D01*
X14740000Y-9248000D01*
X14739900Y-9248300D01*
X14739900Y-9248500D01*
X14739800Y-9248800D01*
X14739800Y-9249000D01*
X14739700Y-9249300D01*
X14739600Y-9249500D01*
X14739500Y-9249800D01*
X14739300Y-9250000D01*
X14739200Y-9250200D01*
X14739000Y-9250400D01*
X14738900Y-9250600D01*
X14738700Y-9250800D01*
X14738500Y-9251000D01*
X14738300Y-9251200D01*
X14738100Y-9251400D01*
X14737900Y-9251500D01*
X14737700Y-9251700D01*
X14737500Y-9251800D01*
X14737300Y-9252000D01*
X14737000Y-9252100D01*
X14736800Y-9252200D01*
X14736500Y-9252300D01*
X14736300Y-9252300D01*
X14736000Y-9252400D01*
X14735800Y-9252400D01*
X14735500Y-9252500D01*
X14735300Y-9252500D01*
X14735000Y-9252500D01*
X14690000Y-9252500D01*
X14689700Y-9252500D01*
X14689500Y-9252500D01*
X14689200Y-9252400D01*
X14689000Y-9252400D01*
X14688700Y-9252300D01*
X14688500Y-9252300D01*
X14688200Y-9252200D01*
X14688000Y-9252100D01*
X14687700Y-9252000D01*
X14687500Y-9251800D01*
X14687300Y-9251700D01*
X14687100Y-9251500D01*
X14686900Y-9251400D01*
X14686700Y-9251200D01*
X14686500Y-9251000D01*
X14686300Y-9250800D01*
X14686100Y-9250600D01*
X14686000Y-9250400D01*
X14685800Y-9250200D01*
X14685700Y-9250000D01*
X14685500Y-9249800D01*
X14685400Y-9249500D01*
X14685300Y-9249300D01*
X14685200Y-9249000D01*
X14685200Y-9248800D01*
X14685100Y-9248500D01*
X14685100Y-9248300D01*
X14685000Y-9248000D01*
X14685000Y-9247800D01*
X14685000Y-9247500D01*
X14685000Y-9232500D01*
X14685000Y-9232200D01*
X14685000Y-9232000D01*
X14685100Y-9231700D01*
X14685100Y-9231500D01*
X14685200Y-9231200D01*
X14685200Y-9231000D01*
X14685300Y-9230700D01*
X14685400Y-9230500D01*
X14685500Y-9230200D01*
X14685700Y-9230000D01*
X14685800Y-9229800D01*
X14686000Y-9229600D01*
X14686100Y-9229400D01*
X14686300Y-9229200D01*
X14686500Y-9229000D01*
X14686700Y-9228800D01*
X14686900Y-9228600D01*
X14687100Y-9228500D01*
X14687300Y-9228300D01*
X14687500Y-9228200D01*
X14687700Y-9228000D01*
X14688000Y-9227900D01*
X14688200Y-9227800D01*
X14688500Y-9227700D01*
X14688700Y-9227700D01*
X14689000Y-9227600D01*
X14689200Y-9227600D01*
X14689500Y-9227500D01*
X14689700Y-9227500D01*
X14690000Y-9227500D01*
X14735000Y-9227500D01*
X14735300Y-9227500D01*
X14735500Y-9227500D01*
X14735800Y-9227600D01*
G36*
X14735800Y-9227600D02*
G01*
X14736000Y-9227600D01*
X14736300Y-9227700D01*
X14736500Y-9227700D01*
X14736800Y-9227800D01*
X14737000Y-9227900D01*
X14737300Y-9228000D01*
X14737500Y-9228200D01*
X14737700Y-9228300D01*
X14737900Y-9228500D01*
X14738100Y-9228600D01*
X14738300Y-9228800D01*
X14738500Y-9229000D01*
X14738700Y-9229200D01*
X14738900Y-9229400D01*
X14739000Y-9229600D01*
X14739200Y-9229800D01*
X14739300Y-9230000D01*
X14739500Y-9230200D01*
X14739600Y-9230500D01*
X14739700Y-9230700D01*
X14739800Y-9231000D01*
X14739800Y-9231200D01*
X14739900Y-9231500D01*
X14739900Y-9231700D01*
X14740000Y-9232000D01*
X14740000Y-9232200D01*
X14740000Y-9232500D01*
X14740000Y-9247500D01*
X14740000Y-9247800D01*
X14740000Y-9248000D01*
X14739900Y-9248300D01*
X14739900Y-9248500D01*
X14739800Y-9248800D01*
X14739800Y-9249000D01*
X14739700Y-9249300D01*
X14739600Y-9249500D01*
X14739500Y-9249800D01*
X14739300Y-9250000D01*
X14739200Y-9250200D01*
X14739000Y-9250400D01*
X14738900Y-9250600D01*
X14738700Y-9250800D01*
X14738500Y-9251000D01*
X14738300Y-9251200D01*
X14738100Y-9251400D01*
X14737900Y-9251500D01*
X14737700Y-9251700D01*
X14737500Y-9251800D01*
X14737300Y-9252000D01*
X14737000Y-9252100D01*
X14736800Y-9252200D01*
X14736500Y-9252300D01*
X14736300Y-9252300D01*
X14736000Y-9252400D01*
X14735800Y-9252400D01*
X14735500Y-9252500D01*
X14735300Y-9252500D01*
X14735000Y-9252500D01*
X14690000Y-9252500D01*
X14689700Y-9252500D01*
X14689500Y-9252500D01*
X14689200Y-9252400D01*
X14689000Y-9252400D01*
X14688700Y-9252300D01*
X14688500Y-9252300D01*
X14688200Y-9252200D01*
X14688000Y-9252100D01*
X14687700Y-9252000D01*
X14687500Y-9251800D01*
X14687300Y-9251700D01*
X14687100Y-9251500D01*
X14686900Y-9251400D01*
X14686700Y-9251200D01*
X14686500Y-9251000D01*
X14686300Y-9250800D01*
X14686100Y-9250600D01*
X14686000Y-9250400D01*
X14685800Y-9250200D01*
X14685700Y-9250000D01*
X14685500Y-9249800D01*
X14685400Y-9249500D01*
X14685300Y-9249300D01*
X14685200Y-9249000D01*
X14685200Y-9248800D01*
X14685100Y-9248500D01*
X14685100Y-9248300D01*
X14685000Y-9248000D01*
X14685000Y-9247800D01*
X14685000Y-9247500D01*
X14685000Y-9232500D01*
X14685000Y-9232200D01*
X14685000Y-9232000D01*
X14685100Y-9231700D01*
X14685100Y-9231500D01*
X14685200Y-9231200D01*
X14685200Y-9231000D01*
X14685300Y-9230700D01*
X14685400Y-9230500D01*
X14685500Y-9230200D01*
X14685700Y-9230000D01*
X14685800Y-9229800D01*
X14686000Y-9229600D01*
X14686100Y-9229400D01*
X14686300Y-9229200D01*
X14686500Y-9229000D01*
X14686700Y-9228800D01*
X14686900Y-9228600D01*
X14687100Y-9228500D01*
X14687300Y-9228300D01*
X14687500Y-9228200D01*
X14687700Y-9228000D01*
X14688000Y-9227900D01*
X14688200Y-9227800D01*
X14688500Y-9227700D01*
X14688700Y-9227700D01*
X14689000Y-9227600D01*
X14689200Y-9227600D01*
X14689500Y-9227500D01*
X14689700Y-9227500D01*
X14690000Y-9227500D01*
X14735000Y-9227500D01*
X14735300Y-9227500D01*
X14735500Y-9227500D01*
X14735800Y-9227600D01*
G37*
D11*
X13479700Y-9400000D02*
G75*
G03*
X13460300Y-9400000I-9700J0D01*
G01*
X13460300Y-9400000D02*
G75*
G03*
X13479700Y-9400000I9700J0D01*
G01*
D12*
X13415325Y-9400000D02*
G75*
G03*
X13404675Y-9400000I-5325J0D01*
G01*
X13404675Y-9400000D02*
G75*
G03*
X13415325Y-9400000I5325J0D01*
G01*
X13375325Y-9400000D02*
G75*
G03*
X13364675Y-9400000I-5325J0D01*
G01*
X13364675Y-9400000D02*
G75*
G03*
X13375325Y-9400000I5325J0D01*
G01*
X13335325Y-9400000D02*
G75*
G03*
X13324675Y-9400000I-5325J0D01*
G01*
X13324675Y-9400000D02*
G75*
G03*
X13335325Y-9400000I5325J0D01*
G01*
X13295325Y-9400000D02*
G75*
G03*
X13284675Y-9400000I-5325J0D01*
G01*
X13284675Y-9400000D02*
G75*
G03*
X13295325Y-9400000I5325J0D01*
G01*
X13255325Y-9400000D02*
G75*
G03*
X13244675Y-9400000I-5325J0D01*
G01*
X13244675Y-9400000D02*
G75*
G03*
X13255325Y-9400000I5325J0D01*
G01*
X13215325Y-9400000D02*
G75*
G03*
X13204675Y-9400000I-5325J0D01*
G01*
X13204675Y-9400000D02*
G75*
G03*
X13215325Y-9400000I5325J0D01*
G01*
X13175325Y-9400000D02*
G75*
G03*
X13164675Y-9400000I-5325J0D01*
G01*
X13164675Y-9400000D02*
G75*
G03*
X13175325Y-9400000I5325J0D01*
G01*
X13135325Y-9400000D02*
G75*
G03*
X13124675Y-9400000I-5325J0D01*
G01*
X13124675Y-9400000D02*
G75*
G03*
X13135325Y-9400000I5325J0D01*
G01*
X13095325Y-9400000D02*
G75*
G03*
X13084675Y-9400000I-5325J0D01*
G01*
X13084675Y-9400000D02*
G75*
G03*
X13095325Y-9400000I5325J0D01*
G01*
X13055325Y-9400000D02*
G75*
G03*
X13044675Y-9400000I-5325J0D01*
G01*
X13044675Y-9400000D02*
G75*
G03*
X13055325Y-9400000I5325J0D01*
G01*
X13015325Y-9400000D02*
G75*
G03*
X13004675Y-9400000I-5325J0D01*
G01*
X13004675Y-9400000D02*
G75*
G03*
X13015325Y-9400000I5325J0D01*
G01*
X12975325Y-9400000D02*
G75*
G03*
X12964675Y-9400000I-5325J0D01*
G01*
X12964675Y-9400000D02*
G75*
G03*
X12975325Y-9400000I5325J0D01*
G01*
X12935325Y-9400000D02*
G75*
G03*
X12924675Y-9400000I-5325J0D01*
G01*
X12924675Y-9400000D02*
G75*
G03*
X12935325Y-9400000I5325J0D01*
G01*
X12895325Y-9400000D02*
G75*
G03*
X12884675Y-9400000I-5325J0D01*
G01*
X12884675Y-9400000D02*
G75*
G03*
X12895325Y-9400000I5325J0D01*
G01*
D11*
X12839700Y-9400000D02*
G75*
G03*
X12820300Y-9400000I-9700J0D01*
G01*
X12820300Y-9400000D02*
G75*
G03*
X12839700Y-9400000I9700J0D01*
G01*
D12*
X13435325Y-9440000D02*
G75*
G03*
X13424675Y-9440000I-5325J0D01*
G01*
X13424675Y-9440000D02*
G75*
G03*
X13435325Y-9440000I5325J0D01*
G01*
X13395325Y-9440000D02*
G75*
G03*
X13384675Y-9440000I-5325J0D01*
G01*
X13384675Y-9440000D02*
G75*
G03*
X13395325Y-9440000I5325J0D01*
G01*
X13355325Y-9440000D02*
G75*
G03*
X13344675Y-9440000I-5325J0D01*
G01*
X13344675Y-9440000D02*
G75*
G03*
X13355325Y-9440000I5325J0D01*
G01*
X13315325Y-9440000D02*
G75*
G03*
X13304675Y-9440000I-5325J0D01*
G01*
X13304675Y-9440000D02*
G75*
G03*
X13315325Y-9440000I5325J0D01*
G01*
X13275325Y-9440000D02*
G75*
G03*
X13264675Y-9440000I-5325J0D01*
G01*
X13264675Y-9440000D02*
G75*
G03*
X13275325Y-9440000I5325J0D01*
G01*
X13235325Y-9440000D02*
G75*
G03*
X13224675Y-9440000I-5325J0D01*
G01*
X13224675Y-9440000D02*
G75*
G03*
X13235325Y-9440000I5325J0D01*
G01*
X13195325Y-9440000D02*
G75*
G03*
X13184675Y-9440000I-5325J0D01*
G01*
X13184675Y-9440000D02*
G75*
G03*
X13195325Y-9440000I5325J0D01*
G01*
X13155325Y-9440000D02*
G75*
G03*
X13144675Y-9440000I-5325J0D01*
G01*
X13144675Y-9440000D02*
G75*
G03*
X13155325Y-9440000I5325J0D01*
G01*
X13115325Y-9440000D02*
G75*
G03*
X13104675Y-9440000I-5325J0D01*
G01*
X13104675Y-9440000D02*
G75*
G03*
X13115325Y-9440000I5325J0D01*
G01*
X13075325Y-9440000D02*
G75*
G03*
X13064675Y-9440000I-5325J0D01*
G01*
X13064675Y-9440000D02*
G75*
G03*
X13075325Y-9440000I5325J0D01*
G01*
X13035325Y-9440000D02*
G75*
G03*
X13024675Y-9440000I-5325J0D01*
G01*
X13024675Y-9440000D02*
G75*
G03*
X13035325Y-9440000I5325J0D01*
G01*
X12995325Y-9440000D02*
G75*
G03*
X12984675Y-9440000I-5325J0D01*
G01*
X12984675Y-9440000D02*
G75*
G03*
X12995325Y-9440000I5325J0D01*
G01*
X12955325Y-9440000D02*
G75*
G03*
X12944675Y-9440000I-5325J0D01*
G01*
X12944675Y-9440000D02*
G75*
G03*
X12955325Y-9440000I5325J0D01*
G01*
X12915325Y-9440000D02*
G75*
G03*
X12904675Y-9440000I-5325J0D01*
G01*
X12904675Y-9440000D02*
G75*
G03*
X12915325Y-9440000I5325J0D01*
G01*
X12875325Y-9440000D02*
G75*
G03*
X12864675Y-9440000I-5325J0D01*
G01*
X12864675Y-9440000D02*
G75*
G03*
X12875325Y-9440000I5325J0D01*
G01*
X12835325Y-9460000D02*
G75*
G03*
X12824675Y-9460000I-5325J0D01*
G01*
X12824675Y-9460000D02*
G75*
G03*
X12835325Y-9460000I5325J0D01*
G01*
X13435325Y-9480000D02*
G75*
G03*
X13424675Y-9480000I-5325J0D01*
G01*
X13424675Y-9480000D02*
G75*
G03*
X13435325Y-9480000I5325J0D01*
G01*
X12875325Y-9480000D02*
G75*
G03*
X12864675Y-9480000I-5325J0D01*
G01*
X12864675Y-9480000D02*
G75*
G03*
X12875325Y-9480000I5325J0D01*
G01*
X13475325Y-9500000D02*
G75*
G03*
X13464675Y-9500000I-5325J0D01*
G01*
X13464675Y-9500000D02*
G75*
G03*
X13475325Y-9500000I5325J0D01*
G01*
X12835325Y-9500000D02*
G75*
G03*
X12824675Y-9500000I-5325J0D01*
G01*
X12824675Y-9500000D02*
G75*
G03*
X12835325Y-9500000I5325J0D01*
G01*
X13435325Y-9520000D02*
G75*
G03*
X13424675Y-9520000I-5325J0D01*
G01*
X13424675Y-9520000D02*
G75*
G03*
X13435325Y-9520000I5325J0D01*
G01*
X12875325Y-9520000D02*
G75*
G03*
X12864675Y-9520000I-5325J0D01*
G01*
X12864675Y-9520000D02*
G75*
G03*
X12875325Y-9520000I5325J0D01*
G01*
X12835325Y-9540000D02*
G75*
G03*
X12824675Y-9540000I-5325J0D01*
G01*
X12824675Y-9540000D02*
G75*
G03*
X12835325Y-9540000I5325J0D01*
G01*
X13435325Y-9560000D02*
G75*
G03*
X13424675Y-9560000I-5325J0D01*
G01*
X13424675Y-9560000D02*
G75*
G03*
X13435325Y-9560000I5325J0D01*
G01*
X12875325Y-9560000D02*
G75*
G03*
X12864675Y-9560000I-5325J0D01*
G01*
X12864675Y-9560000D02*
G75*
G03*
X12875325Y-9560000I5325J0D01*
G01*
X12835325Y-9580000D02*
G75*
G03*
X12824675Y-9580000I-5325J0D01*
G01*
X12824675Y-9580000D02*
G75*
G03*
X12835325Y-9580000I5325J0D01*
G01*
X13435325Y-9600000D02*
G75*
G03*
X13424675Y-9600000I-5325J0D01*
G01*
X13424675Y-9600000D02*
G75*
G03*
X13435325Y-9600000I5325J0D01*
G01*
X12875325Y-9600000D02*
G75*
G03*
X12864675Y-9600000I-5325J0D01*
G01*
X12864675Y-9600000D02*
G75*
G03*
X12875325Y-9600000I5325J0D01*
G01*
X12835325Y-9620000D02*
G75*
G03*
X12824675Y-9620000I-5325J0D01*
G01*
X12824675Y-9620000D02*
G75*
G03*
X12835325Y-9620000I5325J0D01*
G01*
X13435325Y-9640000D02*
G75*
G03*
X13424675Y-9640000I-5325J0D01*
G01*
X13424675Y-9640000D02*
G75*
G03*
X13435325Y-9640000I5325J0D01*
G01*
X12875325Y-9640000D02*
G75*
G03*
X12864675Y-9640000I-5325J0D01*
G01*
X12864675Y-9640000D02*
G75*
G03*
X12875325Y-9640000I5325J0D01*
G01*
X13475325Y-9660000D02*
G75*
G03*
X13464675Y-9660000I-5325J0D01*
G01*
X13464675Y-9660000D02*
G75*
G03*
X13475325Y-9660000I5325J0D01*
G01*
X12835325Y-9660000D02*
G75*
G03*
X12824675Y-9660000I-5325J0D01*
G01*
X12824675Y-9660000D02*
G75*
G03*
X12835325Y-9660000I5325J0D01*
G01*
X13435325Y-9680000D02*
G75*
G03*
X13424675Y-9680000I-5325J0D01*
G01*
X13424675Y-9680000D02*
G75*
G03*
X13435325Y-9680000I5325J0D01*
G01*
X12875325Y-9680000D02*
G75*
G03*
X12864675Y-9680000I-5325J0D01*
G01*
X12864675Y-9680000D02*
G75*
G03*
X12875325Y-9680000I5325J0D01*
G01*
X13475325Y-9700000D02*
G75*
G03*
X13464675Y-9700000I-5325J0D01*
G01*
X13464675Y-9700000D02*
G75*
G03*
X13475325Y-9700000I5325J0D01*
G01*
X12835325Y-9700000D02*
G75*
G03*
X12824675Y-9700000I-5325J0D01*
G01*
X12824675Y-9700000D02*
G75*
G03*
X12835325Y-9700000I5325J0D01*
G01*
X13435325Y-9720000D02*
G75*
G03*
X13424675Y-9720000I-5325J0D01*
G01*
X13424675Y-9720000D02*
G75*
G03*
X13435325Y-9720000I5325J0D01*
G01*
X12875325Y-9720000D02*
G75*
G03*
X12864675Y-9720000I-5325J0D01*
G01*
X12864675Y-9720000D02*
G75*
G03*
X12875325Y-9720000I5325J0D01*
G01*
X13475325Y-9740000D02*
G75*
G03*
X13464675Y-9740000I-5325J0D01*
G01*
X13464675Y-9740000D02*
G75*
G03*
X13475325Y-9740000I5325J0D01*
G01*
X12835325Y-9740000D02*
G75*
G03*
X12824675Y-9740000I-5325J0D01*
G01*
X12824675Y-9740000D02*
G75*
G03*
X12835325Y-9740000I5325J0D01*
G01*
X13435325Y-9760000D02*
G75*
G03*
X13424675Y-9760000I-5325J0D01*
G01*
X13424675Y-9760000D02*
G75*
G03*
X13435325Y-9760000I5325J0D01*
G01*
X12875325Y-9760000D02*
G75*
G03*
X12864675Y-9760000I-5325J0D01*
G01*
X12864675Y-9760000D02*
G75*
G03*
X12875325Y-9760000I5325J0D01*
G01*
X13475325Y-9780000D02*
G75*
G03*
X13464675Y-9780000I-5325J0D01*
G01*
X13464675Y-9780000D02*
G75*
G03*
X13475325Y-9780000I5325J0D01*
G01*
X12835325Y-9780000D02*
G75*
G03*
X12824675Y-9780000I-5325J0D01*
G01*
X12824675Y-9780000D02*
G75*
G03*
X12835325Y-9780000I5325J0D01*
G01*
X13435325Y-9800000D02*
G75*
G03*
X13424675Y-9800000I-5325J0D01*
G01*
X13424675Y-9800000D02*
G75*
G03*
X13435325Y-9800000I5325J0D01*
G01*
X12875325Y-9800000D02*
G75*
G03*
X12864675Y-9800000I-5325J0D01*
G01*
X12864675Y-9800000D02*
G75*
G03*
X12875325Y-9800000I5325J0D01*
G01*
X13475325Y-9820000D02*
G75*
G03*
X13464675Y-9820000I-5325J0D01*
G01*
X13464675Y-9820000D02*
G75*
G03*
X13475325Y-9820000I5325J0D01*
G01*
X12835325Y-9820000D02*
G75*
G03*
X12824675Y-9820000I-5325J0D01*
G01*
X12824675Y-9820000D02*
G75*
G03*
X12835325Y-9820000I5325J0D01*
G01*
X13435325Y-9840000D02*
G75*
G03*
X13424675Y-9840000I-5325J0D01*
G01*
X13424675Y-9840000D02*
G75*
G03*
X13435325Y-9840000I5325J0D01*
G01*
X12875325Y-9840000D02*
G75*
G03*
X12864675Y-9840000I-5325J0D01*
G01*
X12864675Y-9840000D02*
G75*
G03*
X12875325Y-9840000I5325J0D01*
G01*
X13475325Y-9860000D02*
G75*
G03*
X13464675Y-9860000I-5325J0D01*
G01*
X13464675Y-9860000D02*
G75*
G03*
X13475325Y-9860000I5325J0D01*
G01*
X12835325Y-9860000D02*
G75*
G03*
X12824675Y-9860000I-5325J0D01*
G01*
X12824675Y-9860000D02*
G75*
G03*
X12835325Y-9860000I5325J0D01*
G01*
X13435325Y-9880000D02*
G75*
G03*
X13424675Y-9880000I-5325J0D01*
G01*
X13424675Y-9880000D02*
G75*
G03*
X13435325Y-9880000I5325J0D01*
G01*
X12875325Y-9880000D02*
G75*
G03*
X12864675Y-9880000I-5325J0D01*
G01*
X12864675Y-9880000D02*
G75*
G03*
X12875325Y-9880000I5325J0D01*
G01*
X13475325Y-9900000D02*
G75*
G03*
X13464675Y-9900000I-5325J0D01*
G01*
X13464675Y-9900000D02*
G75*
G03*
X13475325Y-9900000I5325J0D01*
G01*
X12835325Y-9900000D02*
G75*
G03*
X12824675Y-9900000I-5325J0D01*
G01*
X12824675Y-9900000D02*
G75*
G03*
X12835325Y-9900000I5325J0D01*
G01*
X13435325Y-9920000D02*
G75*
G03*
X13424675Y-9920000I-5325J0D01*
G01*
X13424675Y-9920000D02*
G75*
G03*
X13435325Y-9920000I5325J0D01*
G01*
X12875325Y-9920000D02*
G75*
G03*
X12864675Y-9920000I-5325J0D01*
G01*
X12864675Y-9920000D02*
G75*
G03*
X12875325Y-9920000I5325J0D01*
G01*
X13475325Y-9940000D02*
G75*
G03*
X13464675Y-9940000I-5325J0D01*
G01*
X13464675Y-9940000D02*
G75*
G03*
X13475325Y-9940000I5325J0D01*
G01*
X12835325Y-9940000D02*
G75*
G03*
X12824675Y-9940000I-5325J0D01*
G01*
X12824675Y-9940000D02*
G75*
G03*
X12835325Y-9940000I5325J0D01*
G01*
X13435325Y-9960000D02*
G75*
G03*
X13424675Y-9960000I-5325J0D01*
G01*
X13424675Y-9960000D02*
G75*
G03*
X13435325Y-9960000I5325J0D01*
G01*
X12875325Y-9960000D02*
G75*
G03*
X12864675Y-9960000I-5325J0D01*
G01*
X12864675Y-9960000D02*
G75*
G03*
X12875325Y-9960000I5325J0D01*
G01*
X12835325Y-9980000D02*
G75*
G03*
X12824675Y-9980000I-5325J0D01*
G01*
X12824675Y-9980000D02*
G75*
G03*
X12835325Y-9980000I5325J0D01*
G01*
X13435325Y-10000000D02*
G75*
G03*
X13424675Y-10000000I-5325J0D01*
G01*
X13424675Y-10000000D02*
G75*
G03*
X13435325Y-10000000I5325J0D01*
G01*
X12875325Y-10000000D02*
G75*
G03*
X12864675Y-10000000I-5325J0D01*
G01*
X12864675Y-10000000D02*
G75*
G03*
X12875325Y-10000000I5325J0D01*
G01*
D11*
X13479700Y-10040000D02*
G75*
G03*
X13460300Y-10040000I-9700J0D01*
G01*
X13460300Y-10040000D02*
G75*
G03*
X13479700Y-10040000I9700J0D01*
G01*
D12*
X13415325Y-10040000D02*
G75*
G03*
X13404675Y-10040000I-5325J0D01*
G01*
X13404675Y-10040000D02*
G75*
G03*
X13415325Y-10040000I5325J0D01*
G01*
X13375325Y-10040000D02*
G75*
G03*
X13364675Y-10040000I-5325J0D01*
G01*
X13364675Y-10040000D02*
G75*
G03*
X13375325Y-10040000I5325J0D01*
G01*
X13335325Y-10040000D02*
G75*
G03*
X13324675Y-10040000I-5325J0D01*
G01*
X13324675Y-10040000D02*
G75*
G03*
X13335325Y-10040000I5325J0D01*
G01*
X13295325Y-10040000D02*
G75*
G03*
X13284675Y-10040000I-5325J0D01*
G01*
X13284675Y-10040000D02*
G75*
G03*
X13295325Y-10040000I5325J0D01*
G01*
X13255325Y-10040000D02*
G75*
G03*
X13244675Y-10040000I-5325J0D01*
G01*
X13244675Y-10040000D02*
G75*
G03*
X13255325Y-10040000I5325J0D01*
G01*
X13215325Y-10040000D02*
G75*
G03*
X13204675Y-10040000I-5325J0D01*
G01*
X13204675Y-10040000D02*
G75*
G03*
X13215325Y-10040000I5325J0D01*
G01*
X13175325Y-10040000D02*
G75*
G03*
X13164675Y-10040000I-5325J0D01*
G01*
X13164675Y-10040000D02*
G75*
G03*
X13175325Y-10040000I5325J0D01*
G01*
X13135325Y-10040000D02*
G75*
G03*
X13124675Y-10040000I-5325J0D01*
G01*
X13124675Y-10040000D02*
G75*
G03*
X13135325Y-10040000I5325J0D01*
G01*
X13095325Y-10040000D02*
G75*
G03*
X13084675Y-10040000I-5325J0D01*
G01*
X13084675Y-10040000D02*
G75*
G03*
X13095325Y-10040000I5325J0D01*
G01*
X13055325Y-10040000D02*
G75*
G03*
X13044675Y-10040000I-5325J0D01*
G01*
X13044675Y-10040000D02*
G75*
G03*
X13055325Y-10040000I5325J0D01*
G01*
X13015325Y-10040000D02*
G75*
G03*
X13004675Y-10040000I-5325J0D01*
G01*
X13004675Y-10040000D02*
G75*
G03*
X13015325Y-10040000I5325J0D01*
G01*
X12975325Y-10040000D02*
G75*
G03*
X12964675Y-10040000I-5325J0D01*
G01*
X12964675Y-10040000D02*
G75*
G03*
X12975325Y-10040000I5325J0D01*
G01*
X12935325Y-10040000D02*
G75*
G03*
X12924675Y-10040000I-5325J0D01*
G01*
X12924675Y-10040000D02*
G75*
G03*
X12935325Y-10040000I5325J0D01*
G01*
X12895325Y-10040000D02*
G75*
G03*
X12884675Y-10040000I-5325J0D01*
G01*
X12884675Y-10040000D02*
G75*
G03*
X12895325Y-10040000I5325J0D01*
G01*
D11*
X12839700Y-10040000D02*
G75*
G03*
X12820300Y-10040000I-9700J0D01*
G01*
X12820300Y-10040000D02*
G75*
G03*
X12839700Y-10040000I9700J0D01*
G01*
D10*
X13357200Y-9490100D02*
X13358500Y-9490200D01*
X13359800Y-9490400D01*
X13361000Y-9490600D01*
X13362300Y-9490900D01*
X13363500Y-9491300D01*
X13364700Y-9491800D01*
X13365900Y-9492300D01*
X13367000Y-9492900D01*
X13368100Y-9493500D01*
X13369200Y-9494200D01*
X13370200Y-9494900D01*
X13371300Y-9495700D01*
X13372200Y-9496600D01*
X13373100Y-9497500D01*
X13374000Y-9498400D01*
X13374800Y-9499400D01*
X13375600Y-9500400D01*
X13376300Y-9501500D01*
X13376900Y-9502600D01*
X13377500Y-9503800D01*
X13378100Y-9504900D01*
X13378500Y-9506100D01*
X13378900Y-9507300D01*
X13379300Y-9508600D01*
X13379600Y-9509800D01*
X13379800Y-9511100D01*
X13379900Y-9512400D01*
X13380000Y-9513600D01*
X13380000Y-9515000D01*
X13380000Y-9575000D01*
X13380000Y-9576400D01*
X13379900Y-9577600D01*
X13379800Y-9578900D01*
X13379600Y-9580200D01*
X13379300Y-9581400D01*
X13378900Y-9582700D01*
X13378500Y-9583900D01*
X13378100Y-9585100D01*
X13377500Y-9586200D01*
X13376900Y-9587400D01*
X13376300Y-9588500D01*
X13375600Y-9589600D01*
X13374800Y-9590600D01*
X13374000Y-9591600D01*
X13373100Y-9592500D01*
X13372200Y-9593400D01*
X13371300Y-9594300D01*
X13370200Y-9595100D01*
X13369200Y-9595800D01*
X13368100Y-9596500D01*
X13367000Y-9597100D01*
X13365900Y-9597700D01*
X13364700Y-9598200D01*
X13363500Y-9598700D01*
X13362300Y-9599100D01*
X13361000Y-9599400D01*
X13359800Y-9599600D01*
X13358500Y-9599800D01*
X13357200Y-9599900D01*
X13356000Y-9600000D01*
X13304000Y-9600000D01*
X13302800Y-9599900D01*
X13301500Y-9599800D01*
X13300200Y-9599600D01*
X13299000Y-9599400D01*
X13297700Y-9599100D01*
X13296500Y-9598700D01*
X13295300Y-9598200D01*
X13294100Y-9597700D01*
X13293000Y-9597100D01*
X13291900Y-9596500D01*
X13290800Y-9595800D01*
X13289800Y-9595100D01*
X13288700Y-9594300D01*
X13287800Y-9593400D01*
X13286900Y-9592500D01*
X13286000Y-9591600D01*
X13285200Y-9590600D01*
X13284400Y-9589600D01*
X13283700Y-9588500D01*
X13283100Y-9587400D01*
X13282500Y-9586200D01*
X13281900Y-9585100D01*
X13281500Y-9583900D01*
X13281100Y-9582700D01*
X13280700Y-9581400D01*
X13280400Y-9580200D01*
X13280200Y-9578900D01*
X13280100Y-9577600D01*
X13280000Y-9576400D01*
X13280000Y-9575000D01*
X13280000Y-9515000D01*
X13280000Y-9513600D01*
X13280100Y-9512400D01*
X13280200Y-9511100D01*
X13280400Y-9509800D01*
X13280700Y-9508600D01*
X13281100Y-9507300D01*
X13281500Y-9506100D01*
X13281900Y-9504900D01*
X13282500Y-9503800D01*
X13283100Y-9502600D01*
X13283700Y-9501500D01*
X13284400Y-9500400D01*
X13285200Y-9499400D01*
X13286000Y-9498400D01*
X13286900Y-9497500D01*
X13287800Y-9496600D01*
X13288700Y-9495700D01*
X13289800Y-9494900D01*
X13290800Y-9494200D01*
X13291900Y-9493500D01*
X13293000Y-9492900D01*
X13294100Y-9492300D01*
X13295300Y-9491800D01*
X13296500Y-9491300D01*
X13297700Y-9490900D01*
X13299000Y-9490600D01*
X13300200Y-9490400D01*
X13301500Y-9490200D01*
X13302800Y-9490100D01*
X13304000Y-9490000D01*
X13356000Y-9490000D01*
X13357200Y-9490100D01*
G36*
X13357200Y-9490100D02*
G01*
X13358500Y-9490200D01*
X13359800Y-9490400D01*
X13361000Y-9490600D01*
X13362300Y-9490900D01*
X13363500Y-9491300D01*
X13364700Y-9491800D01*
X13365900Y-9492300D01*
X13367000Y-9492900D01*
X13368100Y-9493500D01*
X13369200Y-9494200D01*
X13370200Y-9494900D01*
X13371300Y-9495700D01*
X13372200Y-9496600D01*
X13373100Y-9497500D01*
X13374000Y-9498400D01*
X13374800Y-9499400D01*
X13375600Y-9500400D01*
X13376300Y-9501500D01*
X13376900Y-9502600D01*
X13377500Y-9503800D01*
X13378100Y-9504900D01*
X13378500Y-9506100D01*
X13378900Y-9507300D01*
X13379300Y-9508600D01*
X13379600Y-9509800D01*
X13379800Y-9511100D01*
X13379900Y-9512400D01*
X13380000Y-9513600D01*
X13380000Y-9515000D01*
X13380000Y-9575000D01*
X13380000Y-9576400D01*
X13379900Y-9577600D01*
X13379800Y-9578900D01*
X13379600Y-9580200D01*
X13379300Y-9581400D01*
X13378900Y-9582700D01*
X13378500Y-9583900D01*
X13378100Y-9585100D01*
X13377500Y-9586200D01*
X13376900Y-9587400D01*
X13376300Y-9588500D01*
X13375600Y-9589600D01*
X13374800Y-9590600D01*
X13374000Y-9591600D01*
X13373100Y-9592500D01*
X13372200Y-9593400D01*
X13371300Y-9594300D01*
X13370200Y-9595100D01*
X13369200Y-9595800D01*
X13368100Y-9596500D01*
X13367000Y-9597100D01*
X13365900Y-9597700D01*
X13364700Y-9598200D01*
X13363500Y-9598700D01*
X13362300Y-9599100D01*
X13361000Y-9599400D01*
X13359800Y-9599600D01*
X13358500Y-9599800D01*
X13357200Y-9599900D01*
X13356000Y-9600000D01*
X13304000Y-9600000D01*
X13302800Y-9599900D01*
X13301500Y-9599800D01*
X13300200Y-9599600D01*
X13299000Y-9599400D01*
X13297700Y-9599100D01*
X13296500Y-9598700D01*
X13295300Y-9598200D01*
X13294100Y-9597700D01*
X13293000Y-9597100D01*
X13291900Y-9596500D01*
X13290800Y-9595800D01*
X13289800Y-9595100D01*
X13288700Y-9594300D01*
X13287800Y-9593400D01*
X13286900Y-9592500D01*
X13286000Y-9591600D01*
X13285200Y-9590600D01*
X13284400Y-9589600D01*
X13283700Y-9588500D01*
X13283100Y-9587400D01*
X13282500Y-9586200D01*
X13281900Y-9585100D01*
X13281500Y-9583900D01*
X13281100Y-9582700D01*
X13280700Y-9581400D01*
X13280400Y-9580200D01*
X13280200Y-9578900D01*
X13280100Y-9577600D01*
X13280000Y-9576400D01*
X13280000Y-9575000D01*
X13280000Y-9515000D01*
X13280000Y-9513600D01*
X13280100Y-9512400D01*
X13280200Y-9511100D01*
X13280400Y-9509800D01*
X13280700Y-9508600D01*
X13281100Y-9507300D01*
X13281500Y-9506100D01*
X13281900Y-9504900D01*
X13282500Y-9503800D01*
X13283100Y-9502600D01*
X13283700Y-9501500D01*
X13284400Y-9500400D01*
X13285200Y-9499400D01*
X13286000Y-9498400D01*
X13286900Y-9497500D01*
X13287800Y-9496600D01*
X13288700Y-9495700D01*
X13289800Y-9494900D01*
X13290800Y-9494200D01*
X13291900Y-9493500D01*
X13293000Y-9492900D01*
X13294100Y-9492300D01*
X13295300Y-9491800D01*
X13296500Y-9491300D01*
X13297700Y-9490900D01*
X13299000Y-9490600D01*
X13300200Y-9490400D01*
X13301500Y-9490200D01*
X13302800Y-9490100D01*
X13304000Y-9490000D01*
X13356000Y-9490000D01*
X13357200Y-9490100D01*
G37*
X13237200Y-9490100D02*
X13238500Y-9490200D01*
X13239800Y-9490400D01*
X13241000Y-9490600D01*
X13242300Y-9490900D01*
X13243500Y-9491300D01*
X13244700Y-9491800D01*
X13245900Y-9492300D01*
X13247000Y-9492900D01*
X13248100Y-9493500D01*
X13249200Y-9494200D01*
X13250200Y-9494900D01*
X13251300Y-9495700D01*
X13252200Y-9496600D01*
X13253100Y-9497500D01*
X13254000Y-9498400D01*
X13254800Y-9499400D01*
X13255600Y-9500400D01*
X13256300Y-9501500D01*
X13256900Y-9502600D01*
X13257500Y-9503800D01*
X13258100Y-9504900D01*
X13258500Y-9506100D01*
X13258900Y-9507300D01*
X13259300Y-9508600D01*
X13259600Y-9509800D01*
X13259800Y-9511100D01*
X13259900Y-9512400D01*
X13260000Y-9513600D01*
X13260000Y-9515000D01*
X13260000Y-9575000D01*
X13260000Y-9576400D01*
X13259900Y-9577600D01*
X13259800Y-9578900D01*
X13259600Y-9580200D01*
X13259300Y-9581400D01*
X13258900Y-9582700D01*
X13258500Y-9583900D01*
X13258100Y-9585100D01*
X13257500Y-9586200D01*
X13256900Y-9587400D01*
X13256300Y-9588500D01*
X13255600Y-9589600D01*
X13254800Y-9590600D01*
X13254000Y-9591600D01*
X13253100Y-9592500D01*
X13252200Y-9593400D01*
X13251300Y-9594300D01*
X13250200Y-9595100D01*
X13249200Y-9595800D01*
X13248100Y-9596500D01*
X13247000Y-9597100D01*
X13245900Y-9597700D01*
X13244700Y-9598200D01*
X13243500Y-9598700D01*
X13242300Y-9599100D01*
X13241000Y-9599400D01*
X13239800Y-9599600D01*
X13238500Y-9599800D01*
X13237200Y-9599900D01*
X13236000Y-9600000D01*
X13184000Y-9600000D01*
X13182800Y-9599900D01*
X13181500Y-9599800D01*
X13180200Y-9599600D01*
X13179000Y-9599400D01*
X13177700Y-9599100D01*
X13176500Y-9598700D01*
X13175300Y-9598200D01*
X13174100Y-9597700D01*
X13173000Y-9597100D01*
X13171900Y-9596500D01*
X13170800Y-9595800D01*
X13169800Y-9595100D01*
X13168700Y-9594300D01*
X13167800Y-9593400D01*
X13166900Y-9592500D01*
X13166000Y-9591600D01*
X13165200Y-9590600D01*
X13164400Y-9589600D01*
X13163700Y-9588500D01*
X13163100Y-9587400D01*
X13162500Y-9586200D01*
X13161900Y-9585100D01*
X13161500Y-9583900D01*
X13161100Y-9582700D01*
X13160700Y-9581400D01*
X13160400Y-9580200D01*
X13160200Y-9578900D01*
X13160100Y-9577600D01*
X13160000Y-9576400D01*
X13160000Y-9575000D01*
X13160000Y-9515000D01*
X13160000Y-9513600D01*
X13160100Y-9512400D01*
X13160200Y-9511100D01*
X13160400Y-9509800D01*
X13160700Y-9508600D01*
X13161100Y-9507300D01*
X13161500Y-9506100D01*
X13161900Y-9504900D01*
X13162500Y-9503800D01*
X13163100Y-9502600D01*
X13163700Y-9501500D01*
X13164400Y-9500400D01*
X13165200Y-9499400D01*
X13166000Y-9498400D01*
X13166900Y-9497500D01*
X13167800Y-9496600D01*
X13168700Y-9495700D01*
X13169800Y-9494900D01*
X13170800Y-9494200D01*
X13171900Y-9493500D01*
X13173000Y-9492900D01*
X13174100Y-9492300D01*
X13175300Y-9491800D01*
X13176500Y-9491300D01*
X13177700Y-9490900D01*
X13179000Y-9490600D01*
X13180200Y-9490400D01*
X13181500Y-9490200D01*
X13182800Y-9490100D01*
X13184000Y-9490000D01*
X13236000Y-9490000D01*
X13237200Y-9490100D01*
G36*
X13237200Y-9490100D02*
G01*
X13238500Y-9490200D01*
X13239800Y-9490400D01*
X13241000Y-9490600D01*
X13242300Y-9490900D01*
X13243500Y-9491300D01*
X13244700Y-9491800D01*
X13245900Y-9492300D01*
X13247000Y-9492900D01*
X13248100Y-9493500D01*
X13249200Y-9494200D01*
X13250200Y-9494900D01*
X13251300Y-9495700D01*
X13252200Y-9496600D01*
X13253100Y-9497500D01*
X13254000Y-9498400D01*
X13254800Y-9499400D01*
X13255600Y-9500400D01*
X13256300Y-9501500D01*
X13256900Y-9502600D01*
X13257500Y-9503800D01*
X13258100Y-9504900D01*
X13258500Y-9506100D01*
X13258900Y-9507300D01*
X13259300Y-9508600D01*
X13259600Y-9509800D01*
X13259800Y-9511100D01*
X13259900Y-9512400D01*
X13260000Y-9513600D01*
X13260000Y-9515000D01*
X13260000Y-9575000D01*
X13260000Y-9576400D01*
X13259900Y-9577600D01*
X13259800Y-9578900D01*
X13259600Y-9580200D01*
X13259300Y-9581400D01*
X13258900Y-9582700D01*
X13258500Y-9583900D01*
X13258100Y-9585100D01*
X13257500Y-9586200D01*
X13256900Y-9587400D01*
X13256300Y-9588500D01*
X13255600Y-9589600D01*
X13254800Y-9590600D01*
X13254000Y-9591600D01*
X13253100Y-9592500D01*
X13252200Y-9593400D01*
X13251300Y-9594300D01*
X13250200Y-9595100D01*
X13249200Y-9595800D01*
X13248100Y-9596500D01*
X13247000Y-9597100D01*
X13245900Y-9597700D01*
X13244700Y-9598200D01*
X13243500Y-9598700D01*
X13242300Y-9599100D01*
X13241000Y-9599400D01*
X13239800Y-9599600D01*
X13238500Y-9599800D01*
X13237200Y-9599900D01*
X13236000Y-9600000D01*
X13184000Y-9600000D01*
X13182800Y-9599900D01*
X13181500Y-9599800D01*
X13180200Y-9599600D01*
X13179000Y-9599400D01*
X13177700Y-9599100D01*
X13176500Y-9598700D01*
X13175300Y-9598200D01*
X13174100Y-9597700D01*
X13173000Y-9597100D01*
X13171900Y-9596500D01*
X13170800Y-9595800D01*
X13169800Y-9595100D01*
X13168700Y-9594300D01*
X13167800Y-9593400D01*
X13166900Y-9592500D01*
X13166000Y-9591600D01*
X13165200Y-9590600D01*
X13164400Y-9589600D01*
X13163700Y-9588500D01*
X13163100Y-9587400D01*
X13162500Y-9586200D01*
X13161900Y-9585100D01*
X13161500Y-9583900D01*
X13161100Y-9582700D01*
X13160700Y-9581400D01*
X13160400Y-9580200D01*
X13160200Y-9578900D01*
X13160100Y-9577600D01*
X13160000Y-9576400D01*
X13160000Y-9575000D01*
X13160000Y-9515000D01*
X13160000Y-9513600D01*
X13160100Y-9512400D01*
X13160200Y-9511100D01*
X13160400Y-9509800D01*
X13160700Y-9508600D01*
X13161100Y-9507300D01*
X13161500Y-9506100D01*
X13161900Y-9504900D01*
X13162500Y-9503800D01*
X13163100Y-9502600D01*
X13163700Y-9501500D01*
X13164400Y-9500400D01*
X13165200Y-9499400D01*
X13166000Y-9498400D01*
X13166900Y-9497500D01*
X13167800Y-9496600D01*
X13168700Y-9495700D01*
X13169800Y-9494900D01*
X13170800Y-9494200D01*
X13171900Y-9493500D01*
X13173000Y-9492900D01*
X13174100Y-9492300D01*
X13175300Y-9491800D01*
X13176500Y-9491300D01*
X13177700Y-9490900D01*
X13179000Y-9490600D01*
X13180200Y-9490400D01*
X13181500Y-9490200D01*
X13182800Y-9490100D01*
X13184000Y-9490000D01*
X13236000Y-9490000D01*
X13237200Y-9490100D01*
G37*
X13117200Y-9490100D02*
X13118500Y-9490200D01*
X13119800Y-9490400D01*
X13121000Y-9490600D01*
X13122300Y-9490900D01*
X13123500Y-9491300D01*
X13124700Y-9491800D01*
X13125900Y-9492300D01*
X13127000Y-9492900D01*
X13128100Y-9493500D01*
X13129200Y-9494200D01*
X13130200Y-9494900D01*
X13131300Y-9495700D01*
X13132200Y-9496600D01*
X13133100Y-9497500D01*
X13134000Y-9498400D01*
X13134800Y-9499400D01*
X13135600Y-9500400D01*
X13136300Y-9501500D01*
X13136900Y-9502600D01*
X13137500Y-9503800D01*
X13138100Y-9504900D01*
X13138500Y-9506100D01*
X13138900Y-9507300D01*
X13139300Y-9508600D01*
X13139600Y-9509800D01*
X13139800Y-9511100D01*
X13139900Y-9512400D01*
X13140000Y-9513600D01*
X13140000Y-9515000D01*
X13140000Y-9575000D01*
X13140000Y-9576400D01*
X13139900Y-9577600D01*
X13139800Y-9578900D01*
X13139600Y-9580200D01*
X13139300Y-9581400D01*
X13138900Y-9582700D01*
X13138500Y-9583900D01*
X13138100Y-9585100D01*
X13137500Y-9586200D01*
X13136900Y-9587400D01*
X13136300Y-9588500D01*
X13135600Y-9589600D01*
X13134800Y-9590600D01*
X13134000Y-9591600D01*
X13133100Y-9592500D01*
X13132200Y-9593400D01*
X13131300Y-9594300D01*
X13130200Y-9595100D01*
X13129200Y-9595800D01*
X13128100Y-9596500D01*
X13127000Y-9597100D01*
X13125900Y-9597700D01*
X13124700Y-9598200D01*
X13123500Y-9598700D01*
X13122300Y-9599100D01*
X13121000Y-9599400D01*
X13119800Y-9599600D01*
X13118500Y-9599800D01*
X13117200Y-9599900D01*
X13116000Y-9600000D01*
X13064000Y-9600000D01*
X13062800Y-9599900D01*
X13061500Y-9599800D01*
X13060200Y-9599600D01*
X13059000Y-9599400D01*
X13057700Y-9599100D01*
X13056500Y-9598700D01*
X13055300Y-9598200D01*
X13054100Y-9597700D01*
X13053000Y-9597100D01*
X13051900Y-9596500D01*
X13050800Y-9595800D01*
X13049800Y-9595100D01*
X13048700Y-9594300D01*
X13047800Y-9593400D01*
X13046900Y-9592500D01*
X13046000Y-9591600D01*
X13045200Y-9590600D01*
X13044400Y-9589600D01*
X13043700Y-9588500D01*
X13043100Y-9587400D01*
X13042500Y-9586200D01*
X13041900Y-9585100D01*
X13041500Y-9583900D01*
X13041100Y-9582700D01*
X13040700Y-9581400D01*
X13040400Y-9580200D01*
X13040200Y-9578900D01*
X13040100Y-9577600D01*
X13040000Y-9576400D01*
X13040000Y-9575000D01*
X13040000Y-9515000D01*
X13040000Y-9513600D01*
X13040100Y-9512400D01*
X13040200Y-9511100D01*
X13040400Y-9509800D01*
X13040700Y-9508600D01*
X13041100Y-9507300D01*
X13041500Y-9506100D01*
X13041900Y-9504900D01*
X13042500Y-9503800D01*
X13043100Y-9502600D01*
X13043700Y-9501500D01*
X13044400Y-9500400D01*
X13045200Y-9499400D01*
X13046000Y-9498400D01*
X13046900Y-9497500D01*
X13047800Y-9496600D01*
X13048700Y-9495700D01*
X13049800Y-9494900D01*
X13050800Y-9494200D01*
X13051900Y-9493500D01*
X13053000Y-9492900D01*
X13054100Y-9492300D01*
X13055300Y-9491800D01*
X13056500Y-9491300D01*
X13057700Y-9490900D01*
X13059000Y-9490600D01*
X13060200Y-9490400D01*
X13061500Y-9490200D01*
X13062800Y-9490100D01*
X13064000Y-9490000D01*
X13116000Y-9490000D01*
X13117200Y-9490100D01*
G36*
X13117200Y-9490100D02*
G01*
X13118500Y-9490200D01*
X13119800Y-9490400D01*
X13121000Y-9490600D01*
X13122300Y-9490900D01*
X13123500Y-9491300D01*
X13124700Y-9491800D01*
X13125900Y-9492300D01*
X13127000Y-9492900D01*
X13128100Y-9493500D01*
X13129200Y-9494200D01*
X13130200Y-9494900D01*
X13131300Y-9495700D01*
X13132200Y-9496600D01*
X13133100Y-9497500D01*
X13134000Y-9498400D01*
X13134800Y-9499400D01*
X13135600Y-9500400D01*
X13136300Y-9501500D01*
X13136900Y-9502600D01*
X13137500Y-9503800D01*
X13138100Y-9504900D01*
X13138500Y-9506100D01*
X13138900Y-9507300D01*
X13139300Y-9508600D01*
X13139600Y-9509800D01*
X13139800Y-9511100D01*
X13139900Y-9512400D01*
X13140000Y-9513600D01*
X13140000Y-9515000D01*
X13140000Y-9575000D01*
X13140000Y-9576400D01*
X13139900Y-9577600D01*
X13139800Y-9578900D01*
X13139600Y-9580200D01*
X13139300Y-9581400D01*
X13138900Y-9582700D01*
X13138500Y-9583900D01*
X13138100Y-9585100D01*
X13137500Y-9586200D01*
X13136900Y-9587400D01*
X13136300Y-9588500D01*
X13135600Y-9589600D01*
X13134800Y-9590600D01*
X13134000Y-9591600D01*
X13133100Y-9592500D01*
X13132200Y-9593400D01*
X13131300Y-9594300D01*
X13130200Y-9595100D01*
X13129200Y-9595800D01*
X13128100Y-9596500D01*
X13127000Y-9597100D01*
X13125900Y-9597700D01*
X13124700Y-9598200D01*
X13123500Y-9598700D01*
X13122300Y-9599100D01*
X13121000Y-9599400D01*
X13119800Y-9599600D01*
X13118500Y-9599800D01*
X13117200Y-9599900D01*
X13116000Y-9600000D01*
X13064000Y-9600000D01*
X13062800Y-9599900D01*
X13061500Y-9599800D01*
X13060200Y-9599600D01*
X13059000Y-9599400D01*
X13057700Y-9599100D01*
X13056500Y-9598700D01*
X13055300Y-9598200D01*
X13054100Y-9597700D01*
X13053000Y-9597100D01*
X13051900Y-9596500D01*
X13050800Y-9595800D01*
X13049800Y-9595100D01*
X13048700Y-9594300D01*
X13047800Y-9593400D01*
X13046900Y-9592500D01*
X13046000Y-9591600D01*
X13045200Y-9590600D01*
X13044400Y-9589600D01*
X13043700Y-9588500D01*
X13043100Y-9587400D01*
X13042500Y-9586200D01*
X13041900Y-9585100D01*
X13041500Y-9583900D01*
X13041100Y-9582700D01*
X13040700Y-9581400D01*
X13040400Y-9580200D01*
X13040200Y-9578900D01*
X13040100Y-9577600D01*
X13040000Y-9576400D01*
X13040000Y-9575000D01*
X13040000Y-9515000D01*
X13040000Y-9513600D01*
X13040100Y-9512400D01*
X13040200Y-9511100D01*
X13040400Y-9509800D01*
X13040700Y-9508600D01*
X13041100Y-9507300D01*
X13041500Y-9506100D01*
X13041900Y-9504900D01*
X13042500Y-9503800D01*
X13043100Y-9502600D01*
X13043700Y-9501500D01*
X13044400Y-9500400D01*
X13045200Y-9499400D01*
X13046000Y-9498400D01*
X13046900Y-9497500D01*
X13047800Y-9496600D01*
X13048700Y-9495700D01*
X13049800Y-9494900D01*
X13050800Y-9494200D01*
X13051900Y-9493500D01*
X13053000Y-9492900D01*
X13054100Y-9492300D01*
X13055300Y-9491800D01*
X13056500Y-9491300D01*
X13057700Y-9490900D01*
X13059000Y-9490600D01*
X13060200Y-9490400D01*
X13061500Y-9490200D01*
X13062800Y-9490100D01*
X13064000Y-9490000D01*
X13116000Y-9490000D01*
X13117200Y-9490100D01*
G37*
X12997200Y-9490100D02*
X12998500Y-9490200D01*
X12999800Y-9490400D01*
X13001000Y-9490600D01*
X13002300Y-9490900D01*
X13003500Y-9491300D01*
X13004700Y-9491800D01*
X13005900Y-9492300D01*
X13007000Y-9492900D01*
X13008100Y-9493500D01*
X13009200Y-9494200D01*
X13010200Y-9494900D01*
X13011300Y-9495700D01*
X13012200Y-9496600D01*
X13013100Y-9497500D01*
X13014000Y-9498400D01*
X13014800Y-9499400D01*
X13015600Y-9500400D01*
X13016300Y-9501500D01*
X13016900Y-9502600D01*
X13017500Y-9503800D01*
X13018100Y-9504900D01*
X13018500Y-9506100D01*
X13018900Y-9507300D01*
X13019300Y-9508600D01*
X13019600Y-9509800D01*
X13019800Y-9511100D01*
X13019900Y-9512400D01*
X13020000Y-9513600D01*
X13020000Y-9515000D01*
X13020000Y-9575000D01*
X13020000Y-9576400D01*
X13019900Y-9577600D01*
X13019800Y-9578900D01*
X13019600Y-9580200D01*
X13019300Y-9581400D01*
X13018900Y-9582700D01*
X13018500Y-9583900D01*
X13018100Y-9585100D01*
X13017500Y-9586200D01*
X13016900Y-9587400D01*
X13016300Y-9588500D01*
X13015600Y-9589600D01*
X13014800Y-9590600D01*
X13014000Y-9591600D01*
X13013100Y-9592500D01*
X13012200Y-9593400D01*
X13011300Y-9594300D01*
X13010200Y-9595100D01*
X13009200Y-9595800D01*
X13008100Y-9596500D01*
X13007000Y-9597100D01*
X13005900Y-9597700D01*
X13004700Y-9598200D01*
X13003500Y-9598700D01*
X13002300Y-9599100D01*
X13001000Y-9599400D01*
X12999800Y-9599600D01*
X12998500Y-9599800D01*
X12997200Y-9599900D01*
X12996000Y-9600000D01*
X12944000Y-9600000D01*
X12942800Y-9599900D01*
X12941500Y-9599800D01*
X12940200Y-9599600D01*
X12939000Y-9599400D01*
X12937700Y-9599100D01*
X12936500Y-9598700D01*
X12935300Y-9598200D01*
X12934100Y-9597700D01*
X12933000Y-9597100D01*
X12931900Y-9596500D01*
X12930800Y-9595800D01*
X12929800Y-9595100D01*
X12928700Y-9594300D01*
X12927800Y-9593400D01*
X12926900Y-9592500D01*
X12926000Y-9591600D01*
X12925200Y-9590600D01*
X12924400Y-9589600D01*
X12923700Y-9588500D01*
X12923100Y-9587400D01*
X12922500Y-9586200D01*
X12921900Y-9585100D01*
X12921500Y-9583900D01*
X12921100Y-9582700D01*
X12920700Y-9581400D01*
X12920400Y-9580200D01*
X12920200Y-9578900D01*
X12920100Y-9577600D01*
X12920000Y-9576400D01*
X12920000Y-9575000D01*
X12920000Y-9515000D01*
X12920000Y-9513600D01*
X12920100Y-9512400D01*
X12920200Y-9511100D01*
X12920400Y-9509800D01*
X12920700Y-9508600D01*
X12921100Y-9507300D01*
X12921500Y-9506100D01*
X12921900Y-9504900D01*
X12922500Y-9503800D01*
X12923100Y-9502600D01*
X12923700Y-9501500D01*
X12924400Y-9500400D01*
X12925200Y-9499400D01*
X12926000Y-9498400D01*
X12926900Y-9497500D01*
X12927800Y-9496600D01*
X12928700Y-9495700D01*
X12929800Y-9494900D01*
X12930800Y-9494200D01*
X12931900Y-9493500D01*
X12933000Y-9492900D01*
X12934100Y-9492300D01*
X12935300Y-9491800D01*
X12936500Y-9491300D01*
X12937700Y-9490900D01*
X12939000Y-9490600D01*
X12940200Y-9490400D01*
X12941500Y-9490200D01*
X12942800Y-9490100D01*
X12944000Y-9490000D01*
X12996000Y-9490000D01*
X12997200Y-9490100D01*
G36*
X12997200Y-9490100D02*
G01*
X12998500Y-9490200D01*
X12999800Y-9490400D01*
X13001000Y-9490600D01*
X13002300Y-9490900D01*
X13003500Y-9491300D01*
X13004700Y-9491800D01*
X13005900Y-9492300D01*
X13007000Y-9492900D01*
X13008100Y-9493500D01*
X13009200Y-9494200D01*
X13010200Y-9494900D01*
X13011300Y-9495700D01*
X13012200Y-9496600D01*
X13013100Y-9497500D01*
X13014000Y-9498400D01*
X13014800Y-9499400D01*
X13015600Y-9500400D01*
X13016300Y-9501500D01*
X13016900Y-9502600D01*
X13017500Y-9503800D01*
X13018100Y-9504900D01*
X13018500Y-9506100D01*
X13018900Y-9507300D01*
X13019300Y-9508600D01*
X13019600Y-9509800D01*
X13019800Y-9511100D01*
X13019900Y-9512400D01*
X13020000Y-9513600D01*
X13020000Y-9515000D01*
X13020000Y-9575000D01*
X13020000Y-9576400D01*
X13019900Y-9577600D01*
X13019800Y-9578900D01*
X13019600Y-9580200D01*
X13019300Y-9581400D01*
X13018900Y-9582700D01*
X13018500Y-9583900D01*
X13018100Y-9585100D01*
X13017500Y-9586200D01*
X13016900Y-9587400D01*
X13016300Y-9588500D01*
X13015600Y-9589600D01*
X13014800Y-9590600D01*
X13014000Y-9591600D01*
X13013100Y-9592500D01*
X13012200Y-9593400D01*
X13011300Y-9594300D01*
X13010200Y-9595100D01*
X13009200Y-9595800D01*
X13008100Y-9596500D01*
X13007000Y-9597100D01*
X13005900Y-9597700D01*
X13004700Y-9598200D01*
X13003500Y-9598700D01*
X13002300Y-9599100D01*
X13001000Y-9599400D01*
X12999800Y-9599600D01*
X12998500Y-9599800D01*
X12997200Y-9599900D01*
X12996000Y-9600000D01*
X12944000Y-9600000D01*
X12942800Y-9599900D01*
X12941500Y-9599800D01*
X12940200Y-9599600D01*
X12939000Y-9599400D01*
X12937700Y-9599100D01*
X12936500Y-9598700D01*
X12935300Y-9598200D01*
X12934100Y-9597700D01*
X12933000Y-9597100D01*
X12931900Y-9596500D01*
X12930800Y-9595800D01*
X12929800Y-9595100D01*
X12928700Y-9594300D01*
X12927800Y-9593400D01*
X12926900Y-9592500D01*
X12926000Y-9591600D01*
X12925200Y-9590600D01*
X12924400Y-9589600D01*
X12923700Y-9588500D01*
X12923100Y-9587400D01*
X12922500Y-9586200D01*
X12921900Y-9585100D01*
X12921500Y-9583900D01*
X12921100Y-9582700D01*
X12920700Y-9581400D01*
X12920400Y-9580200D01*
X12920200Y-9578900D01*
X12920100Y-9577600D01*
X12920000Y-9576400D01*
X12920000Y-9575000D01*
X12920000Y-9515000D01*
X12920000Y-9513600D01*
X12920100Y-9512400D01*
X12920200Y-9511100D01*
X12920400Y-9509800D01*
X12920700Y-9508600D01*
X12921100Y-9507300D01*
X12921500Y-9506100D01*
X12921900Y-9504900D01*
X12922500Y-9503800D01*
X12923100Y-9502600D01*
X12923700Y-9501500D01*
X12924400Y-9500400D01*
X12925200Y-9499400D01*
X12926000Y-9498400D01*
X12926900Y-9497500D01*
X12927800Y-9496600D01*
X12928700Y-9495700D01*
X12929800Y-9494900D01*
X12930800Y-9494200D01*
X12931900Y-9493500D01*
X12933000Y-9492900D01*
X12934100Y-9492300D01*
X12935300Y-9491800D01*
X12936500Y-9491300D01*
X12937700Y-9490900D01*
X12939000Y-9490600D01*
X12940200Y-9490400D01*
X12941500Y-9490200D01*
X12942800Y-9490100D01*
X12944000Y-9490000D01*
X12996000Y-9490000D01*
X12997200Y-9490100D01*
G37*
X13357200Y-9620100D02*
X13358500Y-9620200D01*
X13359800Y-9620400D01*
X13361000Y-9620600D01*
X13362300Y-9620900D01*
X13363500Y-9621300D01*
X13364700Y-9621800D01*
X13365900Y-9622300D01*
X13367000Y-9622900D01*
X13368100Y-9623500D01*
X13369200Y-9624200D01*
X13370200Y-9624900D01*
X13371300Y-9625700D01*
X13372200Y-9626600D01*
X13373100Y-9627500D01*
X13374000Y-9628400D01*
X13374800Y-9629400D01*
X13375600Y-9630400D01*
X13376300Y-9631500D01*
X13376900Y-9632600D01*
X13377500Y-9633800D01*
X13378100Y-9634900D01*
X13378500Y-9636100D01*
X13378900Y-9637300D01*
X13379300Y-9638600D01*
X13379600Y-9639800D01*
X13379800Y-9641100D01*
X13379900Y-9642400D01*
X13380000Y-9643600D01*
X13380000Y-9645000D01*
X13380000Y-9705000D01*
X13380000Y-9706400D01*
X13379900Y-9707600D01*
X13379800Y-9708900D01*
X13379600Y-9710200D01*
X13379300Y-9711400D01*
X13378900Y-9712700D01*
X13378500Y-9713900D01*
X13378100Y-9715100D01*
X13377500Y-9716200D01*
X13376900Y-9717400D01*
X13376300Y-9718500D01*
X13375600Y-9719600D01*
X13374800Y-9720600D01*
X13374000Y-9721600D01*
X13373100Y-9722500D01*
X13372200Y-9723400D01*
X13371300Y-9724300D01*
X13370200Y-9725100D01*
X13369200Y-9725800D01*
X13368100Y-9726500D01*
X13367000Y-9727100D01*
X13365900Y-9727700D01*
X13364700Y-9728200D01*
X13363500Y-9728700D01*
X13362300Y-9729100D01*
X13361000Y-9729400D01*
X13359800Y-9729600D01*
X13358500Y-9729800D01*
X13357200Y-9729900D01*
X13356000Y-9730000D01*
X13304000Y-9730000D01*
X13302800Y-9729900D01*
X13301500Y-9729800D01*
X13300200Y-9729600D01*
X13299000Y-9729400D01*
X13297700Y-9729100D01*
X13296500Y-9728700D01*
X13295300Y-9728200D01*
X13294100Y-9727700D01*
X13293000Y-9727100D01*
X13291900Y-9726500D01*
X13290800Y-9725800D01*
X13289800Y-9725100D01*
X13288700Y-9724300D01*
X13287800Y-9723400D01*
X13286900Y-9722500D01*
X13286000Y-9721600D01*
X13285200Y-9720600D01*
X13284400Y-9719600D01*
X13283700Y-9718500D01*
X13283100Y-9717400D01*
X13282500Y-9716200D01*
X13281900Y-9715100D01*
X13281500Y-9713900D01*
X13281100Y-9712700D01*
X13280700Y-9711400D01*
X13280400Y-9710200D01*
X13280200Y-9708900D01*
X13280100Y-9707600D01*
X13280000Y-9706400D01*
X13280000Y-9705000D01*
X13280000Y-9645000D01*
X13280000Y-9643600D01*
X13280100Y-9642400D01*
X13280200Y-9641100D01*
X13280400Y-9639800D01*
X13280700Y-9638600D01*
X13281100Y-9637300D01*
X13281500Y-9636100D01*
X13281900Y-9634900D01*
X13282500Y-9633800D01*
X13283100Y-9632600D01*
X13283700Y-9631500D01*
X13284400Y-9630400D01*
X13285200Y-9629400D01*
X13286000Y-9628400D01*
X13286900Y-9627500D01*
X13287800Y-9626600D01*
X13288700Y-9625700D01*
X13289800Y-9624900D01*
X13290800Y-9624200D01*
X13291900Y-9623500D01*
X13293000Y-9622900D01*
X13294100Y-9622300D01*
X13295300Y-9621800D01*
X13296500Y-9621300D01*
X13297700Y-9620900D01*
X13299000Y-9620600D01*
X13300200Y-9620400D01*
X13301500Y-9620200D01*
X13302800Y-9620100D01*
X13304000Y-9620000D01*
X13356000Y-9620000D01*
X13357200Y-9620100D01*
G36*
X13357200Y-9620100D02*
G01*
X13358500Y-9620200D01*
X13359800Y-9620400D01*
X13361000Y-9620600D01*
X13362300Y-9620900D01*
X13363500Y-9621300D01*
X13364700Y-9621800D01*
X13365900Y-9622300D01*
X13367000Y-9622900D01*
X13368100Y-9623500D01*
X13369200Y-9624200D01*
X13370200Y-9624900D01*
X13371300Y-9625700D01*
X13372200Y-9626600D01*
X13373100Y-9627500D01*
X13374000Y-9628400D01*
X13374800Y-9629400D01*
X13375600Y-9630400D01*
X13376300Y-9631500D01*
X13376900Y-9632600D01*
X13377500Y-9633800D01*
X13378100Y-9634900D01*
X13378500Y-9636100D01*
X13378900Y-9637300D01*
X13379300Y-9638600D01*
X13379600Y-9639800D01*
X13379800Y-9641100D01*
X13379900Y-9642400D01*
X13380000Y-9643600D01*
X13380000Y-9645000D01*
X13380000Y-9705000D01*
X13380000Y-9706400D01*
X13379900Y-9707600D01*
X13379800Y-9708900D01*
X13379600Y-9710200D01*
X13379300Y-9711400D01*
X13378900Y-9712700D01*
X13378500Y-9713900D01*
X13378100Y-9715100D01*
X13377500Y-9716200D01*
X13376900Y-9717400D01*
X13376300Y-9718500D01*
X13375600Y-9719600D01*
X13374800Y-9720600D01*
X13374000Y-9721600D01*
X13373100Y-9722500D01*
X13372200Y-9723400D01*
X13371300Y-9724300D01*
X13370200Y-9725100D01*
X13369200Y-9725800D01*
X13368100Y-9726500D01*
X13367000Y-9727100D01*
X13365900Y-9727700D01*
X13364700Y-9728200D01*
X13363500Y-9728700D01*
X13362300Y-9729100D01*
X13361000Y-9729400D01*
X13359800Y-9729600D01*
X13358500Y-9729800D01*
X13357200Y-9729900D01*
X13356000Y-9730000D01*
X13304000Y-9730000D01*
X13302800Y-9729900D01*
X13301500Y-9729800D01*
X13300200Y-9729600D01*
X13299000Y-9729400D01*
X13297700Y-9729100D01*
X13296500Y-9728700D01*
X13295300Y-9728200D01*
X13294100Y-9727700D01*
X13293000Y-9727100D01*
X13291900Y-9726500D01*
X13290800Y-9725800D01*
X13289800Y-9725100D01*
X13288700Y-9724300D01*
X13287800Y-9723400D01*
X13286900Y-9722500D01*
X13286000Y-9721600D01*
X13285200Y-9720600D01*
X13284400Y-9719600D01*
X13283700Y-9718500D01*
X13283100Y-9717400D01*
X13282500Y-9716200D01*
X13281900Y-9715100D01*
X13281500Y-9713900D01*
X13281100Y-9712700D01*
X13280700Y-9711400D01*
X13280400Y-9710200D01*
X13280200Y-9708900D01*
X13280100Y-9707600D01*
X13280000Y-9706400D01*
X13280000Y-9705000D01*
X13280000Y-9645000D01*
X13280000Y-9643600D01*
X13280100Y-9642400D01*
X13280200Y-9641100D01*
X13280400Y-9639800D01*
X13280700Y-9638600D01*
X13281100Y-9637300D01*
X13281500Y-9636100D01*
X13281900Y-9634900D01*
X13282500Y-9633800D01*
X13283100Y-9632600D01*
X13283700Y-9631500D01*
X13284400Y-9630400D01*
X13285200Y-9629400D01*
X13286000Y-9628400D01*
X13286900Y-9627500D01*
X13287800Y-9626600D01*
X13288700Y-9625700D01*
X13289800Y-9624900D01*
X13290800Y-9624200D01*
X13291900Y-9623500D01*
X13293000Y-9622900D01*
X13294100Y-9622300D01*
X13295300Y-9621800D01*
X13296500Y-9621300D01*
X13297700Y-9620900D01*
X13299000Y-9620600D01*
X13300200Y-9620400D01*
X13301500Y-9620200D01*
X13302800Y-9620100D01*
X13304000Y-9620000D01*
X13356000Y-9620000D01*
X13357200Y-9620100D01*
G37*
X13237200Y-9620100D02*
X13238500Y-9620200D01*
X13239800Y-9620400D01*
X13241000Y-9620600D01*
X13242300Y-9620900D01*
X13243500Y-9621300D01*
X13244700Y-9621800D01*
X13245900Y-9622300D01*
X13247000Y-9622900D01*
X13248100Y-9623500D01*
X13249200Y-9624200D01*
X13250200Y-9624900D01*
X13251300Y-9625700D01*
X13252200Y-9626600D01*
X13253100Y-9627500D01*
X13254000Y-9628400D01*
X13254800Y-9629400D01*
X13255600Y-9630400D01*
X13256300Y-9631500D01*
X13256900Y-9632600D01*
X13257500Y-9633800D01*
X13258100Y-9634900D01*
X13258500Y-9636100D01*
X13258900Y-9637300D01*
X13259300Y-9638600D01*
X13259600Y-9639800D01*
X13259800Y-9641100D01*
X13259900Y-9642400D01*
X13260000Y-9643600D01*
X13260000Y-9645000D01*
X13260000Y-9705000D01*
X13260000Y-9706400D01*
X13259900Y-9707600D01*
X13259800Y-9708900D01*
X13259600Y-9710200D01*
X13259300Y-9711400D01*
X13258900Y-9712700D01*
X13258500Y-9713900D01*
X13258100Y-9715100D01*
X13257500Y-9716200D01*
X13256900Y-9717400D01*
X13256300Y-9718500D01*
X13255600Y-9719600D01*
X13254800Y-9720600D01*
X13254000Y-9721600D01*
X13253100Y-9722500D01*
X13252200Y-9723400D01*
X13251300Y-9724300D01*
X13250200Y-9725100D01*
X13249200Y-9725800D01*
X13248100Y-9726500D01*
X13247000Y-9727100D01*
X13245900Y-9727700D01*
X13244700Y-9728200D01*
X13243500Y-9728700D01*
X13242300Y-9729100D01*
X13241000Y-9729400D01*
X13239800Y-9729600D01*
X13238500Y-9729800D01*
X13237200Y-9729900D01*
X13236000Y-9730000D01*
X13184000Y-9730000D01*
X13182800Y-9729900D01*
X13181500Y-9729800D01*
X13180200Y-9729600D01*
X13179000Y-9729400D01*
X13177700Y-9729100D01*
X13176500Y-9728700D01*
X13175300Y-9728200D01*
X13174100Y-9727700D01*
X13173000Y-9727100D01*
X13171900Y-9726500D01*
X13170800Y-9725800D01*
X13169800Y-9725100D01*
X13168700Y-9724300D01*
X13167800Y-9723400D01*
X13166900Y-9722500D01*
X13166000Y-9721600D01*
X13165200Y-9720600D01*
X13164400Y-9719600D01*
X13163700Y-9718500D01*
X13163100Y-9717400D01*
X13162500Y-9716200D01*
X13161900Y-9715100D01*
X13161500Y-9713900D01*
X13161100Y-9712700D01*
X13160700Y-9711400D01*
X13160400Y-9710200D01*
X13160200Y-9708900D01*
X13160100Y-9707600D01*
X13160000Y-9706400D01*
X13160000Y-9705000D01*
X13160000Y-9645000D01*
X13160000Y-9643600D01*
X13160100Y-9642400D01*
X13160200Y-9641100D01*
X13160400Y-9639800D01*
X13160700Y-9638600D01*
X13161100Y-9637300D01*
X13161500Y-9636100D01*
X13161900Y-9634900D01*
X13162500Y-9633800D01*
X13163100Y-9632600D01*
X13163700Y-9631500D01*
X13164400Y-9630400D01*
X13165200Y-9629400D01*
X13166000Y-9628400D01*
X13166900Y-9627500D01*
X13167800Y-9626600D01*
X13168700Y-9625700D01*
X13169800Y-9624900D01*
X13170800Y-9624200D01*
X13171900Y-9623500D01*
X13173000Y-9622900D01*
X13174100Y-9622300D01*
X13175300Y-9621800D01*
X13176500Y-9621300D01*
X13177700Y-9620900D01*
X13179000Y-9620600D01*
X13180200Y-9620400D01*
X13181500Y-9620200D01*
X13182800Y-9620100D01*
X13184000Y-9620000D01*
X13236000Y-9620000D01*
X13237200Y-9620100D01*
G36*
X13237200Y-9620100D02*
G01*
X13238500Y-9620200D01*
X13239800Y-9620400D01*
X13241000Y-9620600D01*
X13242300Y-9620900D01*
X13243500Y-9621300D01*
X13244700Y-9621800D01*
X13245900Y-9622300D01*
X13247000Y-9622900D01*
X13248100Y-9623500D01*
X13249200Y-9624200D01*
X13250200Y-9624900D01*
X13251300Y-9625700D01*
X13252200Y-9626600D01*
X13253100Y-9627500D01*
X13254000Y-9628400D01*
X13254800Y-9629400D01*
X13255600Y-9630400D01*
X13256300Y-9631500D01*
X13256900Y-9632600D01*
X13257500Y-9633800D01*
X13258100Y-9634900D01*
X13258500Y-9636100D01*
X13258900Y-9637300D01*
X13259300Y-9638600D01*
X13259600Y-9639800D01*
X13259800Y-9641100D01*
X13259900Y-9642400D01*
X13260000Y-9643600D01*
X13260000Y-9645000D01*
X13260000Y-9705000D01*
X13260000Y-9706400D01*
X13259900Y-9707600D01*
X13259800Y-9708900D01*
X13259600Y-9710200D01*
X13259300Y-9711400D01*
X13258900Y-9712700D01*
X13258500Y-9713900D01*
X13258100Y-9715100D01*
X13257500Y-9716200D01*
X13256900Y-9717400D01*
X13256300Y-9718500D01*
X13255600Y-9719600D01*
X13254800Y-9720600D01*
X13254000Y-9721600D01*
X13253100Y-9722500D01*
X13252200Y-9723400D01*
X13251300Y-9724300D01*
X13250200Y-9725100D01*
X13249200Y-9725800D01*
X13248100Y-9726500D01*
X13247000Y-9727100D01*
X13245900Y-9727700D01*
X13244700Y-9728200D01*
X13243500Y-9728700D01*
X13242300Y-9729100D01*
X13241000Y-9729400D01*
X13239800Y-9729600D01*
X13238500Y-9729800D01*
X13237200Y-9729900D01*
X13236000Y-9730000D01*
X13184000Y-9730000D01*
X13182800Y-9729900D01*
X13181500Y-9729800D01*
X13180200Y-9729600D01*
X13179000Y-9729400D01*
X13177700Y-9729100D01*
X13176500Y-9728700D01*
X13175300Y-9728200D01*
X13174100Y-9727700D01*
X13173000Y-9727100D01*
X13171900Y-9726500D01*
X13170800Y-9725800D01*
X13169800Y-9725100D01*
X13168700Y-9724300D01*
X13167800Y-9723400D01*
X13166900Y-9722500D01*
X13166000Y-9721600D01*
X13165200Y-9720600D01*
X13164400Y-9719600D01*
X13163700Y-9718500D01*
X13163100Y-9717400D01*
X13162500Y-9716200D01*
X13161900Y-9715100D01*
X13161500Y-9713900D01*
X13161100Y-9712700D01*
X13160700Y-9711400D01*
X13160400Y-9710200D01*
X13160200Y-9708900D01*
X13160100Y-9707600D01*
X13160000Y-9706400D01*
X13160000Y-9705000D01*
X13160000Y-9645000D01*
X13160000Y-9643600D01*
X13160100Y-9642400D01*
X13160200Y-9641100D01*
X13160400Y-9639800D01*
X13160700Y-9638600D01*
X13161100Y-9637300D01*
X13161500Y-9636100D01*
X13161900Y-9634900D01*
X13162500Y-9633800D01*
X13163100Y-9632600D01*
X13163700Y-9631500D01*
X13164400Y-9630400D01*
X13165200Y-9629400D01*
X13166000Y-9628400D01*
X13166900Y-9627500D01*
X13167800Y-9626600D01*
X13168700Y-9625700D01*
X13169800Y-9624900D01*
X13170800Y-9624200D01*
X13171900Y-9623500D01*
X13173000Y-9622900D01*
X13174100Y-9622300D01*
X13175300Y-9621800D01*
X13176500Y-9621300D01*
X13177700Y-9620900D01*
X13179000Y-9620600D01*
X13180200Y-9620400D01*
X13181500Y-9620200D01*
X13182800Y-9620100D01*
X13184000Y-9620000D01*
X13236000Y-9620000D01*
X13237200Y-9620100D01*
G37*
X13117200Y-9620100D02*
X13118500Y-9620200D01*
X13119800Y-9620400D01*
X13121000Y-9620600D01*
X13122300Y-9620900D01*
X13123500Y-9621300D01*
X13124700Y-9621800D01*
X13125900Y-9622300D01*
X13127000Y-9622900D01*
X13128100Y-9623500D01*
X13129200Y-9624200D01*
X13130200Y-9624900D01*
X13131300Y-9625700D01*
X13132200Y-9626600D01*
X13133100Y-9627500D01*
X13134000Y-9628400D01*
X13134800Y-9629400D01*
X13135600Y-9630400D01*
X13136300Y-9631500D01*
X13136900Y-9632600D01*
X13137500Y-9633800D01*
X13138100Y-9634900D01*
X13138500Y-9636100D01*
X13138900Y-9637300D01*
X13139300Y-9638600D01*
X13139600Y-9639800D01*
X13139800Y-9641100D01*
X13139900Y-9642400D01*
X13140000Y-9643600D01*
X13140000Y-9645000D01*
X13140000Y-9705000D01*
X13140000Y-9706400D01*
X13139900Y-9707600D01*
X13139800Y-9708900D01*
X13139600Y-9710200D01*
X13139300Y-9711400D01*
X13138900Y-9712700D01*
X13138500Y-9713900D01*
X13138100Y-9715100D01*
X13137500Y-9716200D01*
X13136900Y-9717400D01*
X13136300Y-9718500D01*
X13135600Y-9719600D01*
X13134800Y-9720600D01*
X13134000Y-9721600D01*
X13133100Y-9722500D01*
X13132200Y-9723400D01*
X13131300Y-9724300D01*
X13130200Y-9725100D01*
X13129200Y-9725800D01*
X13128100Y-9726500D01*
X13127000Y-9727100D01*
X13125900Y-9727700D01*
X13124700Y-9728200D01*
X13123500Y-9728700D01*
X13122300Y-9729100D01*
X13121000Y-9729400D01*
X13119800Y-9729600D01*
X13118500Y-9729800D01*
X13117200Y-9729900D01*
X13116000Y-9730000D01*
X13064000Y-9730000D01*
X13062800Y-9729900D01*
X13061500Y-9729800D01*
X13060200Y-9729600D01*
X13059000Y-9729400D01*
X13057700Y-9729100D01*
X13056500Y-9728700D01*
X13055300Y-9728200D01*
X13054100Y-9727700D01*
X13053000Y-9727100D01*
X13051900Y-9726500D01*
X13050800Y-9725800D01*
X13049800Y-9725100D01*
X13048700Y-9724300D01*
X13047800Y-9723400D01*
X13046900Y-9722500D01*
X13046000Y-9721600D01*
X13045200Y-9720600D01*
X13044400Y-9719600D01*
X13043700Y-9718500D01*
X13043100Y-9717400D01*
X13042500Y-9716200D01*
X13041900Y-9715100D01*
X13041500Y-9713900D01*
X13041100Y-9712700D01*
X13040700Y-9711400D01*
X13040400Y-9710200D01*
X13040200Y-9708900D01*
X13040100Y-9707600D01*
X13040000Y-9706400D01*
X13040000Y-9705000D01*
X13040000Y-9645000D01*
X13040000Y-9643600D01*
X13040100Y-9642400D01*
X13040200Y-9641100D01*
X13040400Y-9639800D01*
X13040700Y-9638600D01*
X13041100Y-9637300D01*
X13041500Y-9636100D01*
X13041900Y-9634900D01*
X13042500Y-9633800D01*
X13043100Y-9632600D01*
X13043700Y-9631500D01*
X13044400Y-9630400D01*
X13045200Y-9629400D01*
X13046000Y-9628400D01*
X13046900Y-9627500D01*
X13047800Y-9626600D01*
X13048700Y-9625700D01*
X13049800Y-9624900D01*
X13050800Y-9624200D01*
X13051900Y-9623500D01*
X13053000Y-9622900D01*
X13054100Y-9622300D01*
X13055300Y-9621800D01*
X13056500Y-9621300D01*
X13057700Y-9620900D01*
X13059000Y-9620600D01*
X13060200Y-9620400D01*
X13061500Y-9620200D01*
X13062800Y-9620100D01*
X13064000Y-9620000D01*
X13116000Y-9620000D01*
X13117200Y-9620100D01*
G36*
X13117200Y-9620100D02*
G01*
X13118500Y-9620200D01*
X13119800Y-9620400D01*
X13121000Y-9620600D01*
X13122300Y-9620900D01*
X13123500Y-9621300D01*
X13124700Y-9621800D01*
X13125900Y-9622300D01*
X13127000Y-9622900D01*
X13128100Y-9623500D01*
X13129200Y-9624200D01*
X13130200Y-9624900D01*
X13131300Y-9625700D01*
X13132200Y-9626600D01*
X13133100Y-9627500D01*
X13134000Y-9628400D01*
X13134800Y-9629400D01*
X13135600Y-9630400D01*
X13136300Y-9631500D01*
X13136900Y-9632600D01*
X13137500Y-9633800D01*
X13138100Y-9634900D01*
X13138500Y-9636100D01*
X13138900Y-9637300D01*
X13139300Y-9638600D01*
X13139600Y-9639800D01*
X13139800Y-9641100D01*
X13139900Y-9642400D01*
X13140000Y-9643600D01*
X13140000Y-9645000D01*
X13140000Y-9705000D01*
X13140000Y-9706400D01*
X13139900Y-9707600D01*
X13139800Y-9708900D01*
X13139600Y-9710200D01*
X13139300Y-9711400D01*
X13138900Y-9712700D01*
X13138500Y-9713900D01*
X13138100Y-9715100D01*
X13137500Y-9716200D01*
X13136900Y-9717400D01*
X13136300Y-9718500D01*
X13135600Y-9719600D01*
X13134800Y-9720600D01*
X13134000Y-9721600D01*
X13133100Y-9722500D01*
X13132200Y-9723400D01*
X13131300Y-9724300D01*
X13130200Y-9725100D01*
X13129200Y-9725800D01*
X13128100Y-9726500D01*
X13127000Y-9727100D01*
X13125900Y-9727700D01*
X13124700Y-9728200D01*
X13123500Y-9728700D01*
X13122300Y-9729100D01*
X13121000Y-9729400D01*
X13119800Y-9729600D01*
X13118500Y-9729800D01*
X13117200Y-9729900D01*
X13116000Y-9730000D01*
X13064000Y-9730000D01*
X13062800Y-9729900D01*
X13061500Y-9729800D01*
X13060200Y-9729600D01*
X13059000Y-9729400D01*
X13057700Y-9729100D01*
X13056500Y-9728700D01*
X13055300Y-9728200D01*
X13054100Y-9727700D01*
X13053000Y-9727100D01*
X13051900Y-9726500D01*
X13050800Y-9725800D01*
X13049800Y-9725100D01*
X13048700Y-9724300D01*
X13047800Y-9723400D01*
X13046900Y-9722500D01*
X13046000Y-9721600D01*
X13045200Y-9720600D01*
X13044400Y-9719600D01*
X13043700Y-9718500D01*
X13043100Y-9717400D01*
X13042500Y-9716200D01*
X13041900Y-9715100D01*
X13041500Y-9713900D01*
X13041100Y-9712700D01*
X13040700Y-9711400D01*
X13040400Y-9710200D01*
X13040200Y-9708900D01*
X13040100Y-9707600D01*
X13040000Y-9706400D01*
X13040000Y-9705000D01*
X13040000Y-9645000D01*
X13040000Y-9643600D01*
X13040100Y-9642400D01*
X13040200Y-9641100D01*
X13040400Y-9639800D01*
X13040700Y-9638600D01*
X13041100Y-9637300D01*
X13041500Y-9636100D01*
X13041900Y-9634900D01*
X13042500Y-9633800D01*
X13043100Y-9632600D01*
X13043700Y-9631500D01*
X13044400Y-9630400D01*
X13045200Y-9629400D01*
X13046000Y-9628400D01*
X13046900Y-9627500D01*
X13047800Y-9626600D01*
X13048700Y-9625700D01*
X13049800Y-9624900D01*
X13050800Y-9624200D01*
X13051900Y-9623500D01*
X13053000Y-9622900D01*
X13054100Y-9622300D01*
X13055300Y-9621800D01*
X13056500Y-9621300D01*
X13057700Y-9620900D01*
X13059000Y-9620600D01*
X13060200Y-9620400D01*
X13061500Y-9620200D01*
X13062800Y-9620100D01*
X13064000Y-9620000D01*
X13116000Y-9620000D01*
X13117200Y-9620100D01*
G37*
X12997200Y-9620100D02*
X12998500Y-9620200D01*
X12999800Y-9620400D01*
X13001000Y-9620600D01*
X13002300Y-9620900D01*
X13003500Y-9621300D01*
X13004700Y-9621800D01*
X13005900Y-9622300D01*
X13007000Y-9622900D01*
X13008100Y-9623500D01*
X13009200Y-9624200D01*
X13010200Y-9624900D01*
X13011300Y-9625700D01*
X13012200Y-9626600D01*
X13013100Y-9627500D01*
X13014000Y-9628400D01*
X13014800Y-9629400D01*
X13015600Y-9630400D01*
X13016300Y-9631500D01*
X13016900Y-9632600D01*
X13017500Y-9633800D01*
X13018100Y-9634900D01*
X13018500Y-9636100D01*
X13018900Y-9637300D01*
X13019300Y-9638600D01*
X13019600Y-9639800D01*
X13019800Y-9641100D01*
X13019900Y-9642400D01*
X13020000Y-9643600D01*
X13020000Y-9645000D01*
X13020000Y-9705000D01*
X13020000Y-9706400D01*
X13019900Y-9707600D01*
X13019800Y-9708900D01*
X13019600Y-9710200D01*
X13019300Y-9711400D01*
X13018900Y-9712700D01*
X13018500Y-9713900D01*
X13018100Y-9715100D01*
X13017500Y-9716200D01*
X13016900Y-9717400D01*
X13016300Y-9718500D01*
X13015600Y-9719600D01*
X13014800Y-9720600D01*
X13014000Y-9721600D01*
X13013100Y-9722500D01*
X13012200Y-9723400D01*
X13011300Y-9724300D01*
X13010200Y-9725100D01*
X13009200Y-9725800D01*
X13008100Y-9726500D01*
X13007000Y-9727100D01*
X13005900Y-9727700D01*
X13004700Y-9728200D01*
X13003500Y-9728700D01*
X13002300Y-9729100D01*
X13001000Y-9729400D01*
X12999800Y-9729600D01*
X12998500Y-9729800D01*
X12997200Y-9729900D01*
X12996000Y-9730000D01*
X12944000Y-9730000D01*
X12942800Y-9729900D01*
X12941500Y-9729800D01*
X12940200Y-9729600D01*
X12939000Y-9729400D01*
X12937700Y-9729100D01*
X12936500Y-9728700D01*
X12935300Y-9728200D01*
X12934100Y-9727700D01*
X12933000Y-9727100D01*
X12931900Y-9726500D01*
X12930800Y-9725800D01*
X12929800Y-9725100D01*
X12928700Y-9724300D01*
X12927800Y-9723400D01*
X12926900Y-9722500D01*
X12926000Y-9721600D01*
X12925200Y-9720600D01*
X12924400Y-9719600D01*
X12923700Y-9718500D01*
X12923100Y-9717400D01*
X12922500Y-9716200D01*
X12921900Y-9715100D01*
X12921500Y-9713900D01*
X12921100Y-9712700D01*
X12920700Y-9711400D01*
X12920400Y-9710200D01*
X12920200Y-9708900D01*
X12920100Y-9707600D01*
X12920000Y-9706400D01*
X12920000Y-9705000D01*
X12920000Y-9645000D01*
X12920000Y-9643600D01*
X12920100Y-9642400D01*
X12920200Y-9641100D01*
X12920400Y-9639800D01*
X12920700Y-9638600D01*
X12921100Y-9637300D01*
X12921500Y-9636100D01*
X12921900Y-9634900D01*
X12922500Y-9633800D01*
X12923100Y-9632600D01*
X12923700Y-9631500D01*
X12924400Y-9630400D01*
X12925200Y-9629400D01*
X12926000Y-9628400D01*
X12926900Y-9627500D01*
X12927800Y-9626600D01*
X12928700Y-9625700D01*
X12929800Y-9624900D01*
X12930800Y-9624200D01*
X12931900Y-9623500D01*
X12933000Y-9622900D01*
X12934100Y-9622300D01*
X12935300Y-9621800D01*
X12936500Y-9621300D01*
X12937700Y-9620900D01*
X12939000Y-9620600D01*
X12940200Y-9620400D01*
X12941500Y-9620200D01*
X12942800Y-9620100D01*
X12944000Y-9620000D01*
X12996000Y-9620000D01*
X12997200Y-9620100D01*
G36*
X12997200Y-9620100D02*
G01*
X12998500Y-9620200D01*
X12999800Y-9620400D01*
X13001000Y-9620600D01*
X13002300Y-9620900D01*
X13003500Y-9621300D01*
X13004700Y-9621800D01*
X13005900Y-9622300D01*
X13007000Y-9622900D01*
X13008100Y-9623500D01*
X13009200Y-9624200D01*
X13010200Y-9624900D01*
X13011300Y-9625700D01*
X13012200Y-9626600D01*
X13013100Y-9627500D01*
X13014000Y-9628400D01*
X13014800Y-9629400D01*
X13015600Y-9630400D01*
X13016300Y-9631500D01*
X13016900Y-9632600D01*
X13017500Y-9633800D01*
X13018100Y-9634900D01*
X13018500Y-9636100D01*
X13018900Y-9637300D01*
X13019300Y-9638600D01*
X13019600Y-9639800D01*
X13019800Y-9641100D01*
X13019900Y-9642400D01*
X13020000Y-9643600D01*
X13020000Y-9645000D01*
X13020000Y-9705000D01*
X13020000Y-9706400D01*
X13019900Y-9707600D01*
X13019800Y-9708900D01*
X13019600Y-9710200D01*
X13019300Y-9711400D01*
X13018900Y-9712700D01*
X13018500Y-9713900D01*
X13018100Y-9715100D01*
X13017500Y-9716200D01*
X13016900Y-9717400D01*
X13016300Y-9718500D01*
X13015600Y-9719600D01*
X13014800Y-9720600D01*
X13014000Y-9721600D01*
X13013100Y-9722500D01*
X13012200Y-9723400D01*
X13011300Y-9724300D01*
X13010200Y-9725100D01*
X13009200Y-9725800D01*
X13008100Y-9726500D01*
X13007000Y-9727100D01*
X13005900Y-9727700D01*
X13004700Y-9728200D01*
X13003500Y-9728700D01*
X13002300Y-9729100D01*
X13001000Y-9729400D01*
X12999800Y-9729600D01*
X12998500Y-9729800D01*
X12997200Y-9729900D01*
X12996000Y-9730000D01*
X12944000Y-9730000D01*
X12942800Y-9729900D01*
X12941500Y-9729800D01*
X12940200Y-9729600D01*
X12939000Y-9729400D01*
X12937700Y-9729100D01*
X12936500Y-9728700D01*
X12935300Y-9728200D01*
X12934100Y-9727700D01*
X12933000Y-9727100D01*
X12931900Y-9726500D01*
X12930800Y-9725800D01*
X12929800Y-9725100D01*
X12928700Y-9724300D01*
X12927800Y-9723400D01*
X12926900Y-9722500D01*
X12926000Y-9721600D01*
X12925200Y-9720600D01*
X12924400Y-9719600D01*
X12923700Y-9718500D01*
X12923100Y-9717400D01*
X12922500Y-9716200D01*
X12921900Y-9715100D01*
X12921500Y-9713900D01*
X12921100Y-9712700D01*
X12920700Y-9711400D01*
X12920400Y-9710200D01*
X12920200Y-9708900D01*
X12920100Y-9707600D01*
X12920000Y-9706400D01*
X12920000Y-9705000D01*
X12920000Y-9645000D01*
X12920000Y-9643600D01*
X12920100Y-9642400D01*
X12920200Y-9641100D01*
X12920400Y-9639800D01*
X12920700Y-9638600D01*
X12921100Y-9637300D01*
X12921500Y-9636100D01*
X12921900Y-9634900D01*
X12922500Y-9633800D01*
X12923100Y-9632600D01*
X12923700Y-9631500D01*
X12924400Y-9630400D01*
X12925200Y-9629400D01*
X12926000Y-9628400D01*
X12926900Y-9627500D01*
X12927800Y-9626600D01*
X12928700Y-9625700D01*
X12929800Y-9624900D01*
X12930800Y-9624200D01*
X12931900Y-9623500D01*
X12933000Y-9622900D01*
X12934100Y-9622300D01*
X12935300Y-9621800D01*
X12936500Y-9621300D01*
X12937700Y-9620900D01*
X12939000Y-9620600D01*
X12940200Y-9620400D01*
X12941500Y-9620200D01*
X12942800Y-9620100D01*
X12944000Y-9620000D01*
X12996000Y-9620000D01*
X12997200Y-9620100D01*
G37*
X13357200Y-9750100D02*
X13358500Y-9750200D01*
X13359800Y-9750400D01*
X13361000Y-9750600D01*
X13362300Y-9750900D01*
X13363500Y-9751300D01*
X13364700Y-9751800D01*
X13365900Y-9752300D01*
X13367000Y-9752900D01*
X13368100Y-9753500D01*
X13369200Y-9754200D01*
X13370200Y-9754900D01*
X13371300Y-9755700D01*
X13372200Y-9756600D01*
X13373100Y-9757500D01*
X13374000Y-9758400D01*
X13374800Y-9759400D01*
X13375600Y-9760400D01*
X13376300Y-9761500D01*
X13376900Y-9762600D01*
X13377500Y-9763800D01*
X13378100Y-9764900D01*
X13378500Y-9766100D01*
X13378900Y-9767300D01*
X13379300Y-9768600D01*
X13379600Y-9769800D01*
X13379800Y-9771100D01*
X13379900Y-9772400D01*
X13380000Y-9773600D01*
X13380000Y-9775000D01*
X13380000Y-9835000D01*
X13380000Y-9836400D01*
X13379900Y-9837600D01*
X13379800Y-9838900D01*
X13379600Y-9840200D01*
X13379300Y-9841400D01*
X13378900Y-9842700D01*
X13378500Y-9843900D01*
X13378100Y-9845100D01*
X13377500Y-9846200D01*
X13376900Y-9847400D01*
X13376300Y-9848500D01*
X13375600Y-9849600D01*
X13374800Y-9850600D01*
X13374000Y-9851600D01*
X13373100Y-9852500D01*
X13372200Y-9853400D01*
X13371300Y-9854300D01*
X13370200Y-9855100D01*
X13369200Y-9855800D01*
X13368100Y-9856500D01*
X13367000Y-9857100D01*
X13365900Y-9857700D01*
X13364700Y-9858200D01*
X13363500Y-9858700D01*
X13362300Y-9859100D01*
X13361000Y-9859400D01*
X13359800Y-9859600D01*
X13358500Y-9859800D01*
X13357200Y-9859900D01*
X13356000Y-9860000D01*
X13304000Y-9860000D01*
X13302800Y-9859900D01*
X13301500Y-9859800D01*
X13300200Y-9859600D01*
X13299000Y-9859400D01*
X13297700Y-9859100D01*
X13296500Y-9858700D01*
X13295300Y-9858200D01*
X13294100Y-9857700D01*
X13293000Y-9857100D01*
X13291900Y-9856500D01*
X13290800Y-9855800D01*
X13289800Y-9855100D01*
X13288700Y-9854300D01*
X13287800Y-9853400D01*
X13286900Y-9852500D01*
X13286000Y-9851600D01*
X13285200Y-9850600D01*
X13284400Y-9849600D01*
X13283700Y-9848500D01*
X13283100Y-9847400D01*
X13282500Y-9846200D01*
X13281900Y-9845100D01*
X13281500Y-9843900D01*
X13281100Y-9842700D01*
X13280700Y-9841400D01*
X13280400Y-9840200D01*
X13280200Y-9838900D01*
X13280100Y-9837600D01*
X13280000Y-9836400D01*
X13280000Y-9835000D01*
X13280000Y-9775000D01*
X13280000Y-9773600D01*
X13280100Y-9772400D01*
X13280200Y-9771100D01*
X13280400Y-9769800D01*
X13280700Y-9768600D01*
X13281100Y-9767300D01*
X13281500Y-9766100D01*
X13281900Y-9764900D01*
X13282500Y-9763800D01*
X13283100Y-9762600D01*
X13283700Y-9761500D01*
X13284400Y-9760400D01*
X13285200Y-9759400D01*
X13286000Y-9758400D01*
X13286900Y-9757500D01*
X13287800Y-9756600D01*
X13288700Y-9755700D01*
X13289800Y-9754900D01*
X13290800Y-9754200D01*
X13291900Y-9753500D01*
X13293000Y-9752900D01*
X13294100Y-9752300D01*
X13295300Y-9751800D01*
X13296500Y-9751300D01*
X13297700Y-9750900D01*
X13299000Y-9750600D01*
X13300200Y-9750400D01*
X13301500Y-9750200D01*
X13302800Y-9750100D01*
X13304000Y-9750000D01*
X13356000Y-9750000D01*
X13357200Y-9750100D01*
G36*
X13357200Y-9750100D02*
G01*
X13358500Y-9750200D01*
X13359800Y-9750400D01*
X13361000Y-9750600D01*
X13362300Y-9750900D01*
X13363500Y-9751300D01*
X13364700Y-9751800D01*
X13365900Y-9752300D01*
X13367000Y-9752900D01*
X13368100Y-9753500D01*
X13369200Y-9754200D01*
X13370200Y-9754900D01*
X13371300Y-9755700D01*
X13372200Y-9756600D01*
X13373100Y-9757500D01*
X13374000Y-9758400D01*
X13374800Y-9759400D01*
X13375600Y-9760400D01*
X13376300Y-9761500D01*
X13376900Y-9762600D01*
X13377500Y-9763800D01*
X13378100Y-9764900D01*
X13378500Y-9766100D01*
X13378900Y-9767300D01*
X13379300Y-9768600D01*
X13379600Y-9769800D01*
X13379800Y-9771100D01*
X13379900Y-9772400D01*
X13380000Y-9773600D01*
X13380000Y-9775000D01*
X13380000Y-9835000D01*
X13380000Y-9836400D01*
X13379900Y-9837600D01*
X13379800Y-9838900D01*
X13379600Y-9840200D01*
X13379300Y-9841400D01*
X13378900Y-9842700D01*
X13378500Y-9843900D01*
X13378100Y-9845100D01*
X13377500Y-9846200D01*
X13376900Y-9847400D01*
X13376300Y-9848500D01*
X13375600Y-9849600D01*
X13374800Y-9850600D01*
X13374000Y-9851600D01*
X13373100Y-9852500D01*
X13372200Y-9853400D01*
X13371300Y-9854300D01*
X13370200Y-9855100D01*
X13369200Y-9855800D01*
X13368100Y-9856500D01*
X13367000Y-9857100D01*
X13365900Y-9857700D01*
X13364700Y-9858200D01*
X13363500Y-9858700D01*
X13362300Y-9859100D01*
X13361000Y-9859400D01*
X13359800Y-9859600D01*
X13358500Y-9859800D01*
X13357200Y-9859900D01*
X13356000Y-9860000D01*
X13304000Y-9860000D01*
X13302800Y-9859900D01*
X13301500Y-9859800D01*
X13300200Y-9859600D01*
X13299000Y-9859400D01*
X13297700Y-9859100D01*
X13296500Y-9858700D01*
X13295300Y-9858200D01*
X13294100Y-9857700D01*
X13293000Y-9857100D01*
X13291900Y-9856500D01*
X13290800Y-9855800D01*
X13289800Y-9855100D01*
X13288700Y-9854300D01*
X13287800Y-9853400D01*
X13286900Y-9852500D01*
X13286000Y-9851600D01*
X13285200Y-9850600D01*
X13284400Y-9849600D01*
X13283700Y-9848500D01*
X13283100Y-9847400D01*
X13282500Y-9846200D01*
X13281900Y-9845100D01*
X13281500Y-9843900D01*
X13281100Y-9842700D01*
X13280700Y-9841400D01*
X13280400Y-9840200D01*
X13280200Y-9838900D01*
X13280100Y-9837600D01*
X13280000Y-9836400D01*
X13280000Y-9835000D01*
X13280000Y-9775000D01*
X13280000Y-9773600D01*
X13280100Y-9772400D01*
X13280200Y-9771100D01*
X13280400Y-9769800D01*
X13280700Y-9768600D01*
X13281100Y-9767300D01*
X13281500Y-9766100D01*
X13281900Y-9764900D01*
X13282500Y-9763800D01*
X13283100Y-9762600D01*
X13283700Y-9761500D01*
X13284400Y-9760400D01*
X13285200Y-9759400D01*
X13286000Y-9758400D01*
X13286900Y-9757500D01*
X13287800Y-9756600D01*
X13288700Y-9755700D01*
X13289800Y-9754900D01*
X13290800Y-9754200D01*
X13291900Y-9753500D01*
X13293000Y-9752900D01*
X13294100Y-9752300D01*
X13295300Y-9751800D01*
X13296500Y-9751300D01*
X13297700Y-9750900D01*
X13299000Y-9750600D01*
X13300200Y-9750400D01*
X13301500Y-9750200D01*
X13302800Y-9750100D01*
X13304000Y-9750000D01*
X13356000Y-9750000D01*
X13357200Y-9750100D01*
G37*
X13237200Y-9750100D02*
X13238500Y-9750200D01*
X13239800Y-9750400D01*
X13241000Y-9750600D01*
X13242300Y-9750900D01*
X13243500Y-9751300D01*
X13244700Y-9751800D01*
X13245900Y-9752300D01*
X13247000Y-9752900D01*
X13248100Y-9753500D01*
X13249200Y-9754200D01*
X13250200Y-9754900D01*
X13251300Y-9755700D01*
X13252200Y-9756600D01*
X13253100Y-9757500D01*
X13254000Y-9758400D01*
X13254800Y-9759400D01*
X13255600Y-9760400D01*
X13256300Y-9761500D01*
X13256900Y-9762600D01*
X13257500Y-9763800D01*
X13258100Y-9764900D01*
X13258500Y-9766100D01*
X13258900Y-9767300D01*
X13259300Y-9768600D01*
X13259600Y-9769800D01*
X13259800Y-9771100D01*
X13259900Y-9772400D01*
X13260000Y-9773600D01*
X13260000Y-9775000D01*
X13260000Y-9835000D01*
X13260000Y-9836400D01*
X13259900Y-9837600D01*
X13259800Y-9838900D01*
X13259600Y-9840200D01*
X13259300Y-9841400D01*
X13258900Y-9842700D01*
X13258500Y-9843900D01*
X13258100Y-9845100D01*
X13257500Y-9846200D01*
X13256900Y-9847400D01*
X13256300Y-9848500D01*
X13255600Y-9849600D01*
X13254800Y-9850600D01*
X13254000Y-9851600D01*
X13253100Y-9852500D01*
X13252200Y-9853400D01*
X13251300Y-9854300D01*
X13250200Y-9855100D01*
X13249200Y-9855800D01*
X13248100Y-9856500D01*
X13247000Y-9857100D01*
X13245900Y-9857700D01*
X13244700Y-9858200D01*
X13243500Y-9858700D01*
X13242300Y-9859100D01*
X13241000Y-9859400D01*
X13239800Y-9859600D01*
X13238500Y-9859800D01*
X13237200Y-9859900D01*
X13236000Y-9860000D01*
X13184000Y-9860000D01*
X13182800Y-9859900D01*
X13181500Y-9859800D01*
X13180200Y-9859600D01*
X13179000Y-9859400D01*
X13177700Y-9859100D01*
X13176500Y-9858700D01*
X13175300Y-9858200D01*
X13174100Y-9857700D01*
X13173000Y-9857100D01*
X13171900Y-9856500D01*
X13170800Y-9855800D01*
X13169800Y-9855100D01*
X13168700Y-9854300D01*
X13167800Y-9853400D01*
X13166900Y-9852500D01*
X13166000Y-9851600D01*
X13165200Y-9850600D01*
X13164400Y-9849600D01*
X13163700Y-9848500D01*
X13163100Y-9847400D01*
X13162500Y-9846200D01*
X13161900Y-9845100D01*
X13161500Y-9843900D01*
X13161100Y-9842700D01*
X13160700Y-9841400D01*
X13160400Y-9840200D01*
X13160200Y-9838900D01*
X13160100Y-9837600D01*
X13160000Y-9836400D01*
X13160000Y-9835000D01*
X13160000Y-9775000D01*
X13160000Y-9773600D01*
X13160100Y-9772400D01*
X13160200Y-9771100D01*
X13160400Y-9769800D01*
X13160700Y-9768600D01*
X13161100Y-9767300D01*
X13161500Y-9766100D01*
X13161900Y-9764900D01*
X13162500Y-9763800D01*
X13163100Y-9762600D01*
X13163700Y-9761500D01*
X13164400Y-9760400D01*
X13165200Y-9759400D01*
X13166000Y-9758400D01*
X13166900Y-9757500D01*
X13167800Y-9756600D01*
X13168700Y-9755700D01*
X13169800Y-9754900D01*
X13170800Y-9754200D01*
X13171900Y-9753500D01*
X13173000Y-9752900D01*
X13174100Y-9752300D01*
X13175300Y-9751800D01*
X13176500Y-9751300D01*
X13177700Y-9750900D01*
X13179000Y-9750600D01*
X13180200Y-9750400D01*
X13181500Y-9750200D01*
X13182800Y-9750100D01*
X13184000Y-9750000D01*
X13236000Y-9750000D01*
X13237200Y-9750100D01*
G36*
X13237200Y-9750100D02*
G01*
X13238500Y-9750200D01*
X13239800Y-9750400D01*
X13241000Y-9750600D01*
X13242300Y-9750900D01*
X13243500Y-9751300D01*
X13244700Y-9751800D01*
X13245900Y-9752300D01*
X13247000Y-9752900D01*
X13248100Y-9753500D01*
X13249200Y-9754200D01*
X13250200Y-9754900D01*
X13251300Y-9755700D01*
X13252200Y-9756600D01*
X13253100Y-9757500D01*
X13254000Y-9758400D01*
X13254800Y-9759400D01*
X13255600Y-9760400D01*
X13256300Y-9761500D01*
X13256900Y-9762600D01*
X13257500Y-9763800D01*
X13258100Y-9764900D01*
X13258500Y-9766100D01*
X13258900Y-9767300D01*
X13259300Y-9768600D01*
X13259600Y-9769800D01*
X13259800Y-9771100D01*
X13259900Y-9772400D01*
X13260000Y-9773600D01*
X13260000Y-9775000D01*
X13260000Y-9835000D01*
X13260000Y-9836400D01*
X13259900Y-9837600D01*
X13259800Y-9838900D01*
X13259600Y-9840200D01*
X13259300Y-9841400D01*
X13258900Y-9842700D01*
X13258500Y-9843900D01*
X13258100Y-9845100D01*
X13257500Y-9846200D01*
X13256900Y-9847400D01*
X13256300Y-9848500D01*
X13255600Y-9849600D01*
X13254800Y-9850600D01*
X13254000Y-9851600D01*
X13253100Y-9852500D01*
X13252200Y-9853400D01*
X13251300Y-9854300D01*
X13250200Y-9855100D01*
X13249200Y-9855800D01*
X13248100Y-9856500D01*
X13247000Y-9857100D01*
X13245900Y-9857700D01*
X13244700Y-9858200D01*
X13243500Y-9858700D01*
X13242300Y-9859100D01*
X13241000Y-9859400D01*
X13239800Y-9859600D01*
X13238500Y-9859800D01*
X13237200Y-9859900D01*
X13236000Y-9860000D01*
X13184000Y-9860000D01*
X13182800Y-9859900D01*
X13181500Y-9859800D01*
X13180200Y-9859600D01*
X13179000Y-9859400D01*
X13177700Y-9859100D01*
X13176500Y-9858700D01*
X13175300Y-9858200D01*
X13174100Y-9857700D01*
X13173000Y-9857100D01*
X13171900Y-9856500D01*
X13170800Y-9855800D01*
X13169800Y-9855100D01*
X13168700Y-9854300D01*
X13167800Y-9853400D01*
X13166900Y-9852500D01*
X13166000Y-9851600D01*
X13165200Y-9850600D01*
X13164400Y-9849600D01*
X13163700Y-9848500D01*
X13163100Y-9847400D01*
X13162500Y-9846200D01*
X13161900Y-9845100D01*
X13161500Y-9843900D01*
X13161100Y-9842700D01*
X13160700Y-9841400D01*
X13160400Y-9840200D01*
X13160200Y-9838900D01*
X13160100Y-9837600D01*
X13160000Y-9836400D01*
X13160000Y-9835000D01*
X13160000Y-9775000D01*
X13160000Y-9773600D01*
X13160100Y-9772400D01*
X13160200Y-9771100D01*
X13160400Y-9769800D01*
X13160700Y-9768600D01*
X13161100Y-9767300D01*
X13161500Y-9766100D01*
X13161900Y-9764900D01*
X13162500Y-9763800D01*
X13163100Y-9762600D01*
X13163700Y-9761500D01*
X13164400Y-9760400D01*
X13165200Y-9759400D01*
X13166000Y-9758400D01*
X13166900Y-9757500D01*
X13167800Y-9756600D01*
X13168700Y-9755700D01*
X13169800Y-9754900D01*
X13170800Y-9754200D01*
X13171900Y-9753500D01*
X13173000Y-9752900D01*
X13174100Y-9752300D01*
X13175300Y-9751800D01*
X13176500Y-9751300D01*
X13177700Y-9750900D01*
X13179000Y-9750600D01*
X13180200Y-9750400D01*
X13181500Y-9750200D01*
X13182800Y-9750100D01*
X13184000Y-9750000D01*
X13236000Y-9750000D01*
X13237200Y-9750100D01*
G37*
X13117200Y-9750100D02*
X13118500Y-9750200D01*
X13119800Y-9750400D01*
X13121000Y-9750600D01*
X13122300Y-9750900D01*
X13123500Y-9751300D01*
X13124700Y-9751800D01*
X13125900Y-9752300D01*
X13127000Y-9752900D01*
X13128100Y-9753500D01*
X13129200Y-9754200D01*
X13130200Y-9754900D01*
X13131300Y-9755700D01*
X13132200Y-9756600D01*
X13133100Y-9757500D01*
X13134000Y-9758400D01*
X13134800Y-9759400D01*
X13135600Y-9760400D01*
X13136300Y-9761500D01*
X13136900Y-9762600D01*
X13137500Y-9763800D01*
X13138100Y-9764900D01*
X13138500Y-9766100D01*
X13138900Y-9767300D01*
X13139300Y-9768600D01*
X13139600Y-9769800D01*
X13139800Y-9771100D01*
X13139900Y-9772400D01*
X13140000Y-9773600D01*
X13140000Y-9775000D01*
X13140000Y-9835000D01*
X13140000Y-9836400D01*
X13139900Y-9837600D01*
X13139800Y-9838900D01*
X13139600Y-9840200D01*
X13139300Y-9841400D01*
X13138900Y-9842700D01*
X13138500Y-9843900D01*
X13138100Y-9845100D01*
X13137500Y-9846200D01*
X13136900Y-9847400D01*
X13136300Y-9848500D01*
X13135600Y-9849600D01*
X13134800Y-9850600D01*
X13134000Y-9851600D01*
X13133100Y-9852500D01*
X13132200Y-9853400D01*
X13131300Y-9854300D01*
X13130200Y-9855100D01*
X13129200Y-9855800D01*
X13128100Y-9856500D01*
X13127000Y-9857100D01*
X13125900Y-9857700D01*
X13124700Y-9858200D01*
X13123500Y-9858700D01*
X13122300Y-9859100D01*
X13121000Y-9859400D01*
X13119800Y-9859600D01*
X13118500Y-9859800D01*
X13117200Y-9859900D01*
X13116000Y-9860000D01*
X13064000Y-9860000D01*
X13062800Y-9859900D01*
X13061500Y-9859800D01*
X13060200Y-9859600D01*
X13059000Y-9859400D01*
X13057700Y-9859100D01*
X13056500Y-9858700D01*
X13055300Y-9858200D01*
X13054100Y-9857700D01*
X13053000Y-9857100D01*
X13051900Y-9856500D01*
X13050800Y-9855800D01*
X13049800Y-9855100D01*
X13048700Y-9854300D01*
X13047800Y-9853400D01*
X13046900Y-9852500D01*
X13046000Y-9851600D01*
X13045200Y-9850600D01*
X13044400Y-9849600D01*
X13043700Y-9848500D01*
X13043100Y-9847400D01*
X13042500Y-9846200D01*
X13041900Y-9845100D01*
X13041500Y-9843900D01*
X13041100Y-9842700D01*
X13040700Y-9841400D01*
X13040400Y-9840200D01*
X13040200Y-9838900D01*
X13040100Y-9837600D01*
X13040000Y-9836400D01*
X13040000Y-9835000D01*
X13040000Y-9775000D01*
X13040000Y-9773600D01*
X13040100Y-9772400D01*
X13040200Y-9771100D01*
X13040400Y-9769800D01*
X13040700Y-9768600D01*
X13041100Y-9767300D01*
X13041500Y-9766100D01*
X13041900Y-9764900D01*
X13042500Y-9763800D01*
X13043100Y-9762600D01*
X13043700Y-9761500D01*
X13044400Y-9760400D01*
X13045200Y-9759400D01*
X13046000Y-9758400D01*
X13046900Y-9757500D01*
X13047800Y-9756600D01*
X13048700Y-9755700D01*
X13049800Y-9754900D01*
X13050800Y-9754200D01*
X13051900Y-9753500D01*
X13053000Y-9752900D01*
X13054100Y-9752300D01*
X13055300Y-9751800D01*
X13056500Y-9751300D01*
X13057700Y-9750900D01*
X13059000Y-9750600D01*
X13060200Y-9750400D01*
X13061500Y-9750200D01*
X13062800Y-9750100D01*
X13064000Y-9750000D01*
X13116000Y-9750000D01*
X13117200Y-9750100D01*
G36*
X13117200Y-9750100D02*
G01*
X13118500Y-9750200D01*
X13119800Y-9750400D01*
X13121000Y-9750600D01*
X13122300Y-9750900D01*
X13123500Y-9751300D01*
X13124700Y-9751800D01*
X13125900Y-9752300D01*
X13127000Y-9752900D01*
X13128100Y-9753500D01*
X13129200Y-9754200D01*
X13130200Y-9754900D01*
X13131300Y-9755700D01*
X13132200Y-9756600D01*
X13133100Y-9757500D01*
X13134000Y-9758400D01*
X13134800Y-9759400D01*
X13135600Y-9760400D01*
X13136300Y-9761500D01*
X13136900Y-9762600D01*
X13137500Y-9763800D01*
X13138100Y-9764900D01*
X13138500Y-9766100D01*
X13138900Y-9767300D01*
X13139300Y-9768600D01*
X13139600Y-9769800D01*
X13139800Y-9771100D01*
X13139900Y-9772400D01*
X13140000Y-9773600D01*
X13140000Y-9775000D01*
X13140000Y-9835000D01*
X13140000Y-9836400D01*
X13139900Y-9837600D01*
X13139800Y-9838900D01*
X13139600Y-9840200D01*
X13139300Y-9841400D01*
X13138900Y-9842700D01*
X13138500Y-9843900D01*
X13138100Y-9845100D01*
X13137500Y-9846200D01*
X13136900Y-9847400D01*
X13136300Y-9848500D01*
X13135600Y-9849600D01*
X13134800Y-9850600D01*
X13134000Y-9851600D01*
X13133100Y-9852500D01*
X13132200Y-9853400D01*
X13131300Y-9854300D01*
X13130200Y-9855100D01*
X13129200Y-9855800D01*
X13128100Y-9856500D01*
X13127000Y-9857100D01*
X13125900Y-9857700D01*
X13124700Y-9858200D01*
X13123500Y-9858700D01*
X13122300Y-9859100D01*
X13121000Y-9859400D01*
X13119800Y-9859600D01*
X13118500Y-9859800D01*
X13117200Y-9859900D01*
X13116000Y-9860000D01*
X13064000Y-9860000D01*
X13062800Y-9859900D01*
X13061500Y-9859800D01*
X13060200Y-9859600D01*
X13059000Y-9859400D01*
X13057700Y-9859100D01*
X13056500Y-9858700D01*
X13055300Y-9858200D01*
X13054100Y-9857700D01*
X13053000Y-9857100D01*
X13051900Y-9856500D01*
X13050800Y-9855800D01*
X13049800Y-9855100D01*
X13048700Y-9854300D01*
X13047800Y-9853400D01*
X13046900Y-9852500D01*
X13046000Y-9851600D01*
X13045200Y-9850600D01*
X13044400Y-9849600D01*
X13043700Y-9848500D01*
X13043100Y-9847400D01*
X13042500Y-9846200D01*
X13041900Y-9845100D01*
X13041500Y-9843900D01*
X13041100Y-9842700D01*
X13040700Y-9841400D01*
X13040400Y-9840200D01*
X13040200Y-9838900D01*
X13040100Y-9837600D01*
X13040000Y-9836400D01*
X13040000Y-9835000D01*
X13040000Y-9775000D01*
X13040000Y-9773600D01*
X13040100Y-9772400D01*
X13040200Y-9771100D01*
X13040400Y-9769800D01*
X13040700Y-9768600D01*
X13041100Y-9767300D01*
X13041500Y-9766100D01*
X13041900Y-9764900D01*
X13042500Y-9763800D01*
X13043100Y-9762600D01*
X13043700Y-9761500D01*
X13044400Y-9760400D01*
X13045200Y-9759400D01*
X13046000Y-9758400D01*
X13046900Y-9757500D01*
X13047800Y-9756600D01*
X13048700Y-9755700D01*
X13049800Y-9754900D01*
X13050800Y-9754200D01*
X13051900Y-9753500D01*
X13053000Y-9752900D01*
X13054100Y-9752300D01*
X13055300Y-9751800D01*
X13056500Y-9751300D01*
X13057700Y-9750900D01*
X13059000Y-9750600D01*
X13060200Y-9750400D01*
X13061500Y-9750200D01*
X13062800Y-9750100D01*
X13064000Y-9750000D01*
X13116000Y-9750000D01*
X13117200Y-9750100D01*
G37*
X12997200Y-9750100D02*
X12998500Y-9750200D01*
X12999800Y-9750400D01*
X13001000Y-9750600D01*
X13002300Y-9750900D01*
X13003500Y-9751300D01*
X13004700Y-9751800D01*
X13005900Y-9752300D01*
X13007000Y-9752900D01*
X13008100Y-9753500D01*
X13009200Y-9754200D01*
X13010200Y-9754900D01*
X13011300Y-9755700D01*
X13012200Y-9756600D01*
X13013100Y-9757500D01*
X13014000Y-9758400D01*
X13014800Y-9759400D01*
X13015600Y-9760400D01*
X13016300Y-9761500D01*
X13016900Y-9762600D01*
X13017500Y-9763800D01*
X13018100Y-9764900D01*
X13018500Y-9766100D01*
X13018900Y-9767300D01*
X13019300Y-9768600D01*
X13019600Y-9769800D01*
X13019800Y-9771100D01*
X13019900Y-9772400D01*
X13020000Y-9773600D01*
X13020000Y-9775000D01*
X13020000Y-9835000D01*
X13020000Y-9836400D01*
X13019900Y-9837600D01*
X13019800Y-9838900D01*
X13019600Y-9840200D01*
X13019300Y-9841400D01*
X13018900Y-9842700D01*
X13018500Y-9843900D01*
X13018100Y-9845100D01*
X13017500Y-9846200D01*
X13016900Y-9847400D01*
X13016300Y-9848500D01*
X13015600Y-9849600D01*
X13014800Y-9850600D01*
X13014000Y-9851600D01*
X13013100Y-9852500D01*
X13012200Y-9853400D01*
X13011300Y-9854300D01*
X13010200Y-9855100D01*
X13009200Y-9855800D01*
X13008100Y-9856500D01*
X13007000Y-9857100D01*
X13005900Y-9857700D01*
X13004700Y-9858200D01*
X13003500Y-9858700D01*
X13002300Y-9859100D01*
X13001000Y-9859400D01*
X12999800Y-9859600D01*
X12998500Y-9859800D01*
X12997200Y-9859900D01*
X12996000Y-9860000D01*
X12944000Y-9860000D01*
X12942800Y-9859900D01*
X12941500Y-9859800D01*
X12940200Y-9859600D01*
X12939000Y-9859400D01*
X12937700Y-9859100D01*
X12936500Y-9858700D01*
X12935300Y-9858200D01*
X12934100Y-9857700D01*
X12933000Y-9857100D01*
X12931900Y-9856500D01*
X12930800Y-9855800D01*
X12929800Y-9855100D01*
X12928700Y-9854300D01*
X12927800Y-9853400D01*
X12926900Y-9852500D01*
X12926000Y-9851600D01*
X12925200Y-9850600D01*
X12924400Y-9849600D01*
X12923700Y-9848500D01*
X12923100Y-9847400D01*
X12922500Y-9846200D01*
X12921900Y-9845100D01*
X12921500Y-9843900D01*
X12921100Y-9842700D01*
X12920700Y-9841400D01*
X12920400Y-9840200D01*
X12920200Y-9838900D01*
X12920100Y-9837600D01*
X12920000Y-9836400D01*
X12920000Y-9835000D01*
X12920000Y-9775000D01*
X12920000Y-9773600D01*
X12920100Y-9772400D01*
X12920200Y-9771100D01*
X12920400Y-9769800D01*
X12920700Y-9768600D01*
X12921100Y-9767300D01*
X12921500Y-9766100D01*
X12921900Y-9764900D01*
X12922500Y-9763800D01*
X12923100Y-9762600D01*
X12923700Y-9761500D01*
X12924400Y-9760400D01*
X12925200Y-9759400D01*
X12926000Y-9758400D01*
X12926900Y-9757500D01*
X12927800Y-9756600D01*
X12928700Y-9755700D01*
X12929800Y-9754900D01*
X12930800Y-9754200D01*
X12931900Y-9753500D01*
X12933000Y-9752900D01*
X12934100Y-9752300D01*
X12935300Y-9751800D01*
X12936500Y-9751300D01*
X12937700Y-9750900D01*
X12939000Y-9750600D01*
X12940200Y-9750400D01*
X12941500Y-9750200D01*
X12942800Y-9750100D01*
X12944000Y-9750000D01*
X12996000Y-9750000D01*
X12997200Y-9750100D01*
G36*
X12997200Y-9750100D02*
G01*
X12998500Y-9750200D01*
X12999800Y-9750400D01*
X13001000Y-9750600D01*
X13002300Y-9750900D01*
X13003500Y-9751300D01*
X13004700Y-9751800D01*
X13005900Y-9752300D01*
X13007000Y-9752900D01*
X13008100Y-9753500D01*
X13009200Y-9754200D01*
X13010200Y-9754900D01*
X13011300Y-9755700D01*
X13012200Y-9756600D01*
X13013100Y-9757500D01*
X13014000Y-9758400D01*
X13014800Y-9759400D01*
X13015600Y-9760400D01*
X13016300Y-9761500D01*
X13016900Y-9762600D01*
X13017500Y-9763800D01*
X13018100Y-9764900D01*
X13018500Y-9766100D01*
X13018900Y-9767300D01*
X13019300Y-9768600D01*
X13019600Y-9769800D01*
X13019800Y-9771100D01*
X13019900Y-9772400D01*
X13020000Y-9773600D01*
X13020000Y-9775000D01*
X13020000Y-9835000D01*
X13020000Y-9836400D01*
X13019900Y-9837600D01*
X13019800Y-9838900D01*
X13019600Y-9840200D01*
X13019300Y-9841400D01*
X13018900Y-9842700D01*
X13018500Y-9843900D01*
X13018100Y-9845100D01*
X13017500Y-9846200D01*
X13016900Y-9847400D01*
X13016300Y-9848500D01*
X13015600Y-9849600D01*
X13014800Y-9850600D01*
X13014000Y-9851600D01*
X13013100Y-9852500D01*
X13012200Y-9853400D01*
X13011300Y-9854300D01*
X13010200Y-9855100D01*
X13009200Y-9855800D01*
X13008100Y-9856500D01*
X13007000Y-9857100D01*
X13005900Y-9857700D01*
X13004700Y-9858200D01*
X13003500Y-9858700D01*
X13002300Y-9859100D01*
X13001000Y-9859400D01*
X12999800Y-9859600D01*
X12998500Y-9859800D01*
X12997200Y-9859900D01*
X12996000Y-9860000D01*
X12944000Y-9860000D01*
X12942800Y-9859900D01*
X12941500Y-9859800D01*
X12940200Y-9859600D01*
X12939000Y-9859400D01*
X12937700Y-9859100D01*
X12936500Y-9858700D01*
X12935300Y-9858200D01*
X12934100Y-9857700D01*
X12933000Y-9857100D01*
X12931900Y-9856500D01*
X12930800Y-9855800D01*
X12929800Y-9855100D01*
X12928700Y-9854300D01*
X12927800Y-9853400D01*
X12926900Y-9852500D01*
X12926000Y-9851600D01*
X12925200Y-9850600D01*
X12924400Y-9849600D01*
X12923700Y-9848500D01*
X12923100Y-9847400D01*
X12922500Y-9846200D01*
X12921900Y-9845100D01*
X12921500Y-9843900D01*
X12921100Y-9842700D01*
X12920700Y-9841400D01*
X12920400Y-9840200D01*
X12920200Y-9838900D01*
X12920100Y-9837600D01*
X12920000Y-9836400D01*
X12920000Y-9835000D01*
X12920000Y-9775000D01*
X12920000Y-9773600D01*
X12920100Y-9772400D01*
X12920200Y-9771100D01*
X12920400Y-9769800D01*
X12920700Y-9768600D01*
X12921100Y-9767300D01*
X12921500Y-9766100D01*
X12921900Y-9764900D01*
X12922500Y-9763800D01*
X12923100Y-9762600D01*
X12923700Y-9761500D01*
X12924400Y-9760400D01*
X12925200Y-9759400D01*
X12926000Y-9758400D01*
X12926900Y-9757500D01*
X12927800Y-9756600D01*
X12928700Y-9755700D01*
X12929800Y-9754900D01*
X12930800Y-9754200D01*
X12931900Y-9753500D01*
X12933000Y-9752900D01*
X12934100Y-9752300D01*
X12935300Y-9751800D01*
X12936500Y-9751300D01*
X12937700Y-9750900D01*
X12939000Y-9750600D01*
X12940200Y-9750400D01*
X12941500Y-9750200D01*
X12942800Y-9750100D01*
X12944000Y-9750000D01*
X12996000Y-9750000D01*
X12997200Y-9750100D01*
G37*
X13357200Y-9880100D02*
X13358500Y-9880200D01*
X13359800Y-9880400D01*
X13361000Y-9880600D01*
X13362300Y-9880900D01*
X13363500Y-9881300D01*
X13364700Y-9881800D01*
X13365900Y-9882300D01*
X13367000Y-9882900D01*
X13368100Y-9883500D01*
X13369200Y-9884200D01*
X13370200Y-9884900D01*
X13371300Y-9885700D01*
X13372200Y-9886600D01*
X13373100Y-9887500D01*
X13374000Y-9888400D01*
X13374800Y-9889400D01*
X13375600Y-9890400D01*
X13376300Y-9891500D01*
X13376900Y-9892600D01*
X13377500Y-9893800D01*
X13378100Y-9894900D01*
X13378500Y-9896100D01*
X13378900Y-9897300D01*
X13379300Y-9898600D01*
X13379600Y-9899800D01*
X13379800Y-9901100D01*
X13379900Y-9902400D01*
X13380000Y-9903600D01*
X13380000Y-9905000D01*
X13380000Y-9965000D01*
X13380000Y-9966400D01*
X13379900Y-9967600D01*
X13379800Y-9968900D01*
X13379600Y-9970200D01*
X13379300Y-9971400D01*
X13378900Y-9972700D01*
X13378500Y-9973900D01*
X13378100Y-9975100D01*
X13377500Y-9976200D01*
X13376900Y-9977400D01*
X13376300Y-9978500D01*
X13375600Y-9979600D01*
X13374800Y-9980600D01*
X13374000Y-9981600D01*
X13373100Y-9982500D01*
X13372200Y-9983400D01*
X13371300Y-9984300D01*
X13370200Y-9985100D01*
X13369200Y-9985800D01*
X13368100Y-9986500D01*
X13367000Y-9987100D01*
X13365900Y-9987700D01*
X13364700Y-9988200D01*
X13363500Y-9988700D01*
X13362300Y-9989100D01*
X13361000Y-9989400D01*
X13359800Y-9989600D01*
X13358500Y-9989800D01*
X13357200Y-9989900D01*
X13356000Y-9990000D01*
X13304000Y-9990000D01*
X13302800Y-9989900D01*
X13301500Y-9989800D01*
X13300200Y-9989600D01*
X13299000Y-9989400D01*
X13297700Y-9989100D01*
X13296500Y-9988700D01*
X13295300Y-9988200D01*
X13294100Y-9987700D01*
X13293000Y-9987100D01*
X13291900Y-9986500D01*
X13290800Y-9985800D01*
X13289800Y-9985100D01*
X13288700Y-9984300D01*
X13287800Y-9983400D01*
X13286900Y-9982500D01*
X13286000Y-9981600D01*
X13285200Y-9980600D01*
X13284400Y-9979600D01*
X13283700Y-9978500D01*
X13283100Y-9977400D01*
X13282500Y-9976200D01*
X13281900Y-9975100D01*
X13281500Y-9973900D01*
X13281100Y-9972700D01*
X13280700Y-9971400D01*
X13280400Y-9970200D01*
X13280200Y-9968900D01*
X13280100Y-9967600D01*
X13280000Y-9966400D01*
X13280000Y-9965000D01*
X13280000Y-9905000D01*
X13280000Y-9903600D01*
X13280100Y-9902400D01*
X13280200Y-9901100D01*
X13280400Y-9899800D01*
X13280700Y-9898600D01*
X13281100Y-9897300D01*
X13281500Y-9896100D01*
X13281900Y-9894900D01*
X13282500Y-9893800D01*
X13283100Y-9892600D01*
X13283700Y-9891500D01*
X13284400Y-9890400D01*
X13285200Y-9889400D01*
X13286000Y-9888400D01*
X13286900Y-9887500D01*
X13287800Y-9886600D01*
X13288700Y-9885700D01*
X13289800Y-9884900D01*
X13290800Y-9884200D01*
X13291900Y-9883500D01*
X13293000Y-9882900D01*
X13294100Y-9882300D01*
X13295300Y-9881800D01*
X13296500Y-9881300D01*
X13297700Y-9880900D01*
X13299000Y-9880600D01*
X13300200Y-9880400D01*
X13301500Y-9880200D01*
X13302800Y-9880100D01*
X13304000Y-9880000D01*
X13356000Y-9880000D01*
X13357200Y-9880100D01*
G36*
X13357200Y-9880100D02*
G01*
X13358500Y-9880200D01*
X13359800Y-9880400D01*
X13361000Y-9880600D01*
X13362300Y-9880900D01*
X13363500Y-9881300D01*
X13364700Y-9881800D01*
X13365900Y-9882300D01*
X13367000Y-9882900D01*
X13368100Y-9883500D01*
X13369200Y-9884200D01*
X13370200Y-9884900D01*
X13371300Y-9885700D01*
X13372200Y-9886600D01*
X13373100Y-9887500D01*
X13374000Y-9888400D01*
X13374800Y-9889400D01*
X13375600Y-9890400D01*
X13376300Y-9891500D01*
X13376900Y-9892600D01*
X13377500Y-9893800D01*
X13378100Y-9894900D01*
X13378500Y-9896100D01*
X13378900Y-9897300D01*
X13379300Y-9898600D01*
X13379600Y-9899800D01*
X13379800Y-9901100D01*
X13379900Y-9902400D01*
X13380000Y-9903600D01*
X13380000Y-9905000D01*
X13380000Y-9965000D01*
X13380000Y-9966400D01*
X13379900Y-9967600D01*
X13379800Y-9968900D01*
X13379600Y-9970200D01*
X13379300Y-9971400D01*
X13378900Y-9972700D01*
X13378500Y-9973900D01*
X13378100Y-9975100D01*
X13377500Y-9976200D01*
X13376900Y-9977400D01*
X13376300Y-9978500D01*
X13375600Y-9979600D01*
X13374800Y-9980600D01*
X13374000Y-9981600D01*
X13373100Y-9982500D01*
X13372200Y-9983400D01*
X13371300Y-9984300D01*
X13370200Y-9985100D01*
X13369200Y-9985800D01*
X13368100Y-9986500D01*
X13367000Y-9987100D01*
X13365900Y-9987700D01*
X13364700Y-9988200D01*
X13363500Y-9988700D01*
X13362300Y-9989100D01*
X13361000Y-9989400D01*
X13359800Y-9989600D01*
X13358500Y-9989800D01*
X13357200Y-9989900D01*
X13356000Y-9990000D01*
X13304000Y-9990000D01*
X13302800Y-9989900D01*
X13301500Y-9989800D01*
X13300200Y-9989600D01*
X13299000Y-9989400D01*
X13297700Y-9989100D01*
X13296500Y-9988700D01*
X13295300Y-9988200D01*
X13294100Y-9987700D01*
X13293000Y-9987100D01*
X13291900Y-9986500D01*
X13290800Y-9985800D01*
X13289800Y-9985100D01*
X13288700Y-9984300D01*
X13287800Y-9983400D01*
X13286900Y-9982500D01*
X13286000Y-9981600D01*
X13285200Y-9980600D01*
X13284400Y-9979600D01*
X13283700Y-9978500D01*
X13283100Y-9977400D01*
X13282500Y-9976200D01*
X13281900Y-9975100D01*
X13281500Y-9973900D01*
X13281100Y-9972700D01*
X13280700Y-9971400D01*
X13280400Y-9970200D01*
X13280200Y-9968900D01*
X13280100Y-9967600D01*
X13280000Y-9966400D01*
X13280000Y-9965000D01*
X13280000Y-9905000D01*
X13280000Y-9903600D01*
X13280100Y-9902400D01*
X13280200Y-9901100D01*
X13280400Y-9899800D01*
X13280700Y-9898600D01*
X13281100Y-9897300D01*
X13281500Y-9896100D01*
X13281900Y-9894900D01*
X13282500Y-9893800D01*
X13283100Y-9892600D01*
X13283700Y-9891500D01*
X13284400Y-9890400D01*
X13285200Y-9889400D01*
X13286000Y-9888400D01*
X13286900Y-9887500D01*
X13287800Y-9886600D01*
X13288700Y-9885700D01*
X13289800Y-9884900D01*
X13290800Y-9884200D01*
X13291900Y-9883500D01*
X13293000Y-9882900D01*
X13294100Y-9882300D01*
X13295300Y-9881800D01*
X13296500Y-9881300D01*
X13297700Y-9880900D01*
X13299000Y-9880600D01*
X13300200Y-9880400D01*
X13301500Y-9880200D01*
X13302800Y-9880100D01*
X13304000Y-9880000D01*
X13356000Y-9880000D01*
X13357200Y-9880100D01*
G37*
X13237200Y-9880100D02*
X13238500Y-9880200D01*
X13239800Y-9880400D01*
X13241000Y-9880600D01*
X13242300Y-9880900D01*
X13243500Y-9881300D01*
X13244700Y-9881800D01*
X13245900Y-9882300D01*
X13247000Y-9882900D01*
X13248100Y-9883500D01*
X13249200Y-9884200D01*
X13250200Y-9884900D01*
X13251300Y-9885700D01*
X13252200Y-9886600D01*
X13253100Y-9887500D01*
X13254000Y-9888400D01*
X13254800Y-9889400D01*
X13255600Y-9890400D01*
X13256300Y-9891500D01*
X13256900Y-9892600D01*
X13257500Y-9893800D01*
X13258100Y-9894900D01*
X13258500Y-9896100D01*
X13258900Y-9897300D01*
X13259300Y-9898600D01*
X13259600Y-9899800D01*
X13259800Y-9901100D01*
X13259900Y-9902400D01*
X13260000Y-9903600D01*
X13260000Y-9905000D01*
X13260000Y-9965000D01*
X13260000Y-9966400D01*
X13259900Y-9967600D01*
X13259800Y-9968900D01*
X13259600Y-9970200D01*
X13259300Y-9971400D01*
X13258900Y-9972700D01*
X13258500Y-9973900D01*
X13258100Y-9975100D01*
X13257500Y-9976200D01*
X13256900Y-9977400D01*
X13256300Y-9978500D01*
X13255600Y-9979600D01*
X13254800Y-9980600D01*
X13254000Y-9981600D01*
X13253100Y-9982500D01*
X13252200Y-9983400D01*
X13251300Y-9984300D01*
X13250200Y-9985100D01*
X13249200Y-9985800D01*
X13248100Y-9986500D01*
X13247000Y-9987100D01*
X13245900Y-9987700D01*
X13244700Y-9988200D01*
X13243500Y-9988700D01*
X13242300Y-9989100D01*
X13241000Y-9989400D01*
X13239800Y-9989600D01*
X13238500Y-9989800D01*
X13237200Y-9989900D01*
X13236000Y-9990000D01*
X13184000Y-9990000D01*
X13182800Y-9989900D01*
X13181500Y-9989800D01*
X13180200Y-9989600D01*
X13179000Y-9989400D01*
X13177700Y-9989100D01*
X13176500Y-9988700D01*
X13175300Y-9988200D01*
X13174100Y-9987700D01*
X13173000Y-9987100D01*
X13171900Y-9986500D01*
X13170800Y-9985800D01*
X13169800Y-9985100D01*
X13168700Y-9984300D01*
X13167800Y-9983400D01*
X13166900Y-9982500D01*
X13166000Y-9981600D01*
X13165200Y-9980600D01*
X13164400Y-9979600D01*
X13163700Y-9978500D01*
X13163100Y-9977400D01*
X13162500Y-9976200D01*
X13161900Y-9975100D01*
X13161500Y-9973900D01*
X13161100Y-9972700D01*
X13160700Y-9971400D01*
X13160400Y-9970200D01*
X13160200Y-9968900D01*
X13160100Y-9967600D01*
X13160000Y-9966400D01*
X13160000Y-9965000D01*
X13160000Y-9905000D01*
X13160000Y-9903600D01*
X13160100Y-9902400D01*
X13160200Y-9901100D01*
X13160400Y-9899800D01*
X13160700Y-9898600D01*
X13161100Y-9897300D01*
X13161500Y-9896100D01*
X13161900Y-9894900D01*
X13162500Y-9893800D01*
X13163100Y-9892600D01*
X13163700Y-9891500D01*
X13164400Y-9890400D01*
X13165200Y-9889400D01*
X13166000Y-9888400D01*
X13166900Y-9887500D01*
X13167800Y-9886600D01*
X13168700Y-9885700D01*
X13169800Y-9884900D01*
X13170800Y-9884200D01*
X13171900Y-9883500D01*
X13173000Y-9882900D01*
X13174100Y-9882300D01*
X13175300Y-9881800D01*
X13176500Y-9881300D01*
X13177700Y-9880900D01*
X13179000Y-9880600D01*
X13180200Y-9880400D01*
X13181500Y-9880200D01*
X13182800Y-9880100D01*
X13184000Y-9880000D01*
X13236000Y-9880000D01*
X13237200Y-9880100D01*
G36*
X13237200Y-9880100D02*
G01*
X13238500Y-9880200D01*
X13239800Y-9880400D01*
X13241000Y-9880600D01*
X13242300Y-9880900D01*
X13243500Y-9881300D01*
X13244700Y-9881800D01*
X13245900Y-9882300D01*
X13247000Y-9882900D01*
X13248100Y-9883500D01*
X13249200Y-9884200D01*
X13250200Y-9884900D01*
X13251300Y-9885700D01*
X13252200Y-9886600D01*
X13253100Y-9887500D01*
X13254000Y-9888400D01*
X13254800Y-9889400D01*
X13255600Y-9890400D01*
X13256300Y-9891500D01*
X13256900Y-9892600D01*
X13257500Y-9893800D01*
X13258100Y-9894900D01*
X13258500Y-9896100D01*
X13258900Y-9897300D01*
X13259300Y-9898600D01*
X13259600Y-9899800D01*
X13259800Y-9901100D01*
X13259900Y-9902400D01*
X13260000Y-9903600D01*
X13260000Y-9905000D01*
X13260000Y-9965000D01*
X13260000Y-9966400D01*
X13259900Y-9967600D01*
X13259800Y-9968900D01*
X13259600Y-9970200D01*
X13259300Y-9971400D01*
X13258900Y-9972700D01*
X13258500Y-9973900D01*
X13258100Y-9975100D01*
X13257500Y-9976200D01*
X13256900Y-9977400D01*
X13256300Y-9978500D01*
X13255600Y-9979600D01*
X13254800Y-9980600D01*
X13254000Y-9981600D01*
X13253100Y-9982500D01*
X13252200Y-9983400D01*
X13251300Y-9984300D01*
X13250200Y-9985100D01*
X13249200Y-9985800D01*
X13248100Y-9986500D01*
X13247000Y-9987100D01*
X13245900Y-9987700D01*
X13244700Y-9988200D01*
X13243500Y-9988700D01*
X13242300Y-9989100D01*
X13241000Y-9989400D01*
X13239800Y-9989600D01*
X13238500Y-9989800D01*
X13237200Y-9989900D01*
X13236000Y-9990000D01*
X13184000Y-9990000D01*
X13182800Y-9989900D01*
X13181500Y-9989800D01*
X13180200Y-9989600D01*
X13179000Y-9989400D01*
X13177700Y-9989100D01*
X13176500Y-9988700D01*
X13175300Y-9988200D01*
X13174100Y-9987700D01*
X13173000Y-9987100D01*
X13171900Y-9986500D01*
X13170800Y-9985800D01*
X13169800Y-9985100D01*
X13168700Y-9984300D01*
X13167800Y-9983400D01*
X13166900Y-9982500D01*
X13166000Y-9981600D01*
X13165200Y-9980600D01*
X13164400Y-9979600D01*
X13163700Y-9978500D01*
X13163100Y-9977400D01*
X13162500Y-9976200D01*
X13161900Y-9975100D01*
X13161500Y-9973900D01*
X13161100Y-9972700D01*
X13160700Y-9971400D01*
X13160400Y-9970200D01*
X13160200Y-9968900D01*
X13160100Y-9967600D01*
X13160000Y-9966400D01*
X13160000Y-9965000D01*
X13160000Y-9905000D01*
X13160000Y-9903600D01*
X13160100Y-9902400D01*
X13160200Y-9901100D01*
X13160400Y-9899800D01*
X13160700Y-9898600D01*
X13161100Y-9897300D01*
X13161500Y-9896100D01*
X13161900Y-9894900D01*
X13162500Y-9893800D01*
X13163100Y-9892600D01*
X13163700Y-9891500D01*
X13164400Y-9890400D01*
X13165200Y-9889400D01*
X13166000Y-9888400D01*
X13166900Y-9887500D01*
X13167800Y-9886600D01*
X13168700Y-9885700D01*
X13169800Y-9884900D01*
X13170800Y-9884200D01*
X13171900Y-9883500D01*
X13173000Y-9882900D01*
X13174100Y-9882300D01*
X13175300Y-9881800D01*
X13176500Y-9881300D01*
X13177700Y-9880900D01*
X13179000Y-9880600D01*
X13180200Y-9880400D01*
X13181500Y-9880200D01*
X13182800Y-9880100D01*
X13184000Y-9880000D01*
X13236000Y-9880000D01*
X13237200Y-9880100D01*
G37*
X13117200Y-9880100D02*
X13118500Y-9880200D01*
X13119800Y-9880400D01*
X13121000Y-9880600D01*
X13122300Y-9880900D01*
X13123500Y-9881300D01*
X13124700Y-9881800D01*
X13125900Y-9882300D01*
X13127000Y-9882900D01*
X13128100Y-9883500D01*
X13129200Y-9884200D01*
X13130200Y-9884900D01*
X13131300Y-9885700D01*
X13132200Y-9886600D01*
X13133100Y-9887500D01*
X13134000Y-9888400D01*
X13134800Y-9889400D01*
X13135600Y-9890400D01*
X13136300Y-9891500D01*
X13136900Y-9892600D01*
X13137500Y-9893800D01*
X13138100Y-9894900D01*
X13138500Y-9896100D01*
X13138900Y-9897300D01*
X13139300Y-9898600D01*
X13139600Y-9899800D01*
X13139800Y-9901100D01*
X13139900Y-9902400D01*
X13140000Y-9903600D01*
X13140000Y-9905000D01*
X13140000Y-9965000D01*
X13140000Y-9966400D01*
X13139900Y-9967600D01*
X13139800Y-9968900D01*
X13139600Y-9970200D01*
X13139300Y-9971400D01*
X13138900Y-9972700D01*
X13138500Y-9973900D01*
X13138100Y-9975100D01*
X13137500Y-9976200D01*
X13136900Y-9977400D01*
X13136300Y-9978500D01*
X13135600Y-9979600D01*
X13134800Y-9980600D01*
X13134000Y-9981600D01*
X13133100Y-9982500D01*
X13132200Y-9983400D01*
X13131300Y-9984300D01*
X13130200Y-9985100D01*
X13129200Y-9985800D01*
X13128100Y-9986500D01*
X13127000Y-9987100D01*
X13125900Y-9987700D01*
X13124700Y-9988200D01*
X13123500Y-9988700D01*
X13122300Y-9989100D01*
X13121000Y-9989400D01*
X13119800Y-9989600D01*
X13118500Y-9989800D01*
X13117200Y-9989900D01*
X13116000Y-9990000D01*
X13064000Y-9990000D01*
X13062800Y-9989900D01*
X13061500Y-9989800D01*
X13060200Y-9989600D01*
X13059000Y-9989400D01*
X13057700Y-9989100D01*
X13056500Y-9988700D01*
X13055300Y-9988200D01*
X13054100Y-9987700D01*
X13053000Y-9987100D01*
X13051900Y-9986500D01*
X13050800Y-9985800D01*
X13049800Y-9985100D01*
X13048700Y-9984300D01*
X13047800Y-9983400D01*
X13046900Y-9982500D01*
X13046000Y-9981600D01*
X13045200Y-9980600D01*
X13044400Y-9979600D01*
X13043700Y-9978500D01*
X13043100Y-9977400D01*
X13042500Y-9976200D01*
X13041900Y-9975100D01*
X13041500Y-9973900D01*
X13041100Y-9972700D01*
X13040700Y-9971400D01*
X13040400Y-9970200D01*
X13040200Y-9968900D01*
X13040100Y-9967600D01*
X13040000Y-9966400D01*
X13040000Y-9965000D01*
X13040000Y-9905000D01*
X13040000Y-9903600D01*
X13040100Y-9902400D01*
X13040200Y-9901100D01*
X13040400Y-9899800D01*
X13040700Y-9898600D01*
X13041100Y-9897300D01*
X13041500Y-9896100D01*
X13041900Y-9894900D01*
X13042500Y-9893800D01*
X13043100Y-9892600D01*
X13043700Y-9891500D01*
X13044400Y-9890400D01*
X13045200Y-9889400D01*
X13046000Y-9888400D01*
X13046900Y-9887500D01*
X13047800Y-9886600D01*
X13048700Y-9885700D01*
X13049800Y-9884900D01*
X13050800Y-9884200D01*
X13051900Y-9883500D01*
X13053000Y-9882900D01*
X13054100Y-9882300D01*
X13055300Y-9881800D01*
X13056500Y-9881300D01*
X13057700Y-9880900D01*
X13059000Y-9880600D01*
X13060200Y-9880400D01*
X13061500Y-9880200D01*
X13062800Y-9880100D01*
X13064000Y-9880000D01*
X13116000Y-9880000D01*
X13117200Y-9880100D01*
G36*
X13117200Y-9880100D02*
G01*
X13118500Y-9880200D01*
X13119800Y-9880400D01*
X13121000Y-9880600D01*
X13122300Y-9880900D01*
X13123500Y-9881300D01*
X13124700Y-9881800D01*
X13125900Y-9882300D01*
X13127000Y-9882900D01*
X13128100Y-9883500D01*
X13129200Y-9884200D01*
X13130200Y-9884900D01*
X13131300Y-9885700D01*
X13132200Y-9886600D01*
X13133100Y-9887500D01*
X13134000Y-9888400D01*
X13134800Y-9889400D01*
X13135600Y-9890400D01*
X13136300Y-9891500D01*
X13136900Y-9892600D01*
X13137500Y-9893800D01*
X13138100Y-9894900D01*
X13138500Y-9896100D01*
X13138900Y-9897300D01*
X13139300Y-9898600D01*
X13139600Y-9899800D01*
X13139800Y-9901100D01*
X13139900Y-9902400D01*
X13140000Y-9903600D01*
X13140000Y-9905000D01*
X13140000Y-9965000D01*
X13140000Y-9966400D01*
X13139900Y-9967600D01*
X13139800Y-9968900D01*
X13139600Y-9970200D01*
X13139300Y-9971400D01*
X13138900Y-9972700D01*
X13138500Y-9973900D01*
X13138100Y-9975100D01*
X13137500Y-9976200D01*
X13136900Y-9977400D01*
X13136300Y-9978500D01*
X13135600Y-9979600D01*
X13134800Y-9980600D01*
X13134000Y-9981600D01*
X13133100Y-9982500D01*
X13132200Y-9983400D01*
X13131300Y-9984300D01*
X13130200Y-9985100D01*
X13129200Y-9985800D01*
X13128100Y-9986500D01*
X13127000Y-9987100D01*
X13125900Y-9987700D01*
X13124700Y-9988200D01*
X13123500Y-9988700D01*
X13122300Y-9989100D01*
X13121000Y-9989400D01*
X13119800Y-9989600D01*
X13118500Y-9989800D01*
X13117200Y-9989900D01*
X13116000Y-9990000D01*
X13064000Y-9990000D01*
X13062800Y-9989900D01*
X13061500Y-9989800D01*
X13060200Y-9989600D01*
X13059000Y-9989400D01*
X13057700Y-9989100D01*
X13056500Y-9988700D01*
X13055300Y-9988200D01*
X13054100Y-9987700D01*
X13053000Y-9987100D01*
X13051900Y-9986500D01*
X13050800Y-9985800D01*
X13049800Y-9985100D01*
X13048700Y-9984300D01*
X13047800Y-9983400D01*
X13046900Y-9982500D01*
X13046000Y-9981600D01*
X13045200Y-9980600D01*
X13044400Y-9979600D01*
X13043700Y-9978500D01*
X13043100Y-9977400D01*
X13042500Y-9976200D01*
X13041900Y-9975100D01*
X13041500Y-9973900D01*
X13041100Y-9972700D01*
X13040700Y-9971400D01*
X13040400Y-9970200D01*
X13040200Y-9968900D01*
X13040100Y-9967600D01*
X13040000Y-9966400D01*
X13040000Y-9965000D01*
X13040000Y-9905000D01*
X13040000Y-9903600D01*
X13040100Y-9902400D01*
X13040200Y-9901100D01*
X13040400Y-9899800D01*
X13040700Y-9898600D01*
X13041100Y-9897300D01*
X13041500Y-9896100D01*
X13041900Y-9894900D01*
X13042500Y-9893800D01*
X13043100Y-9892600D01*
X13043700Y-9891500D01*
X13044400Y-9890400D01*
X13045200Y-9889400D01*
X13046000Y-9888400D01*
X13046900Y-9887500D01*
X13047800Y-9886600D01*
X13048700Y-9885700D01*
X13049800Y-9884900D01*
X13050800Y-9884200D01*
X13051900Y-9883500D01*
X13053000Y-9882900D01*
X13054100Y-9882300D01*
X13055300Y-9881800D01*
X13056500Y-9881300D01*
X13057700Y-9880900D01*
X13059000Y-9880600D01*
X13060200Y-9880400D01*
X13061500Y-9880200D01*
X13062800Y-9880100D01*
X13064000Y-9880000D01*
X13116000Y-9880000D01*
X13117200Y-9880100D01*
G37*
X12997200Y-9880100D02*
X12998500Y-9880200D01*
X12999800Y-9880400D01*
X13001000Y-9880600D01*
X13002300Y-9880900D01*
X13003500Y-9881300D01*
X13004700Y-9881800D01*
X13005900Y-9882300D01*
X13007000Y-9882900D01*
X13008100Y-9883500D01*
X13009200Y-9884200D01*
X13010200Y-9884900D01*
X13011300Y-9885700D01*
X13012200Y-9886600D01*
X13013100Y-9887500D01*
X13014000Y-9888400D01*
X13014800Y-9889400D01*
X13015600Y-9890400D01*
X13016300Y-9891500D01*
X13016900Y-9892600D01*
X13017500Y-9893800D01*
X13018100Y-9894900D01*
X13018500Y-9896100D01*
X13018900Y-9897300D01*
X13019300Y-9898600D01*
X13019600Y-9899800D01*
X13019800Y-9901100D01*
X13019900Y-9902400D01*
X13020000Y-9903600D01*
X13020000Y-9905000D01*
X13020000Y-9965000D01*
X13020000Y-9966400D01*
X13019900Y-9967600D01*
X13019800Y-9968900D01*
X13019600Y-9970200D01*
X13019300Y-9971400D01*
X13018900Y-9972700D01*
X13018500Y-9973900D01*
X13018100Y-9975100D01*
X13017500Y-9976200D01*
X13016900Y-9977400D01*
X13016300Y-9978500D01*
X13015600Y-9979600D01*
X13014800Y-9980600D01*
X13014000Y-9981600D01*
X13013100Y-9982500D01*
X13012200Y-9983400D01*
X13011300Y-9984300D01*
X13010200Y-9985100D01*
X13009200Y-9985800D01*
X13008100Y-9986500D01*
X13007000Y-9987100D01*
X13005900Y-9987700D01*
X13004700Y-9988200D01*
X13003500Y-9988700D01*
X13002300Y-9989100D01*
X13001000Y-9989400D01*
X12999800Y-9989600D01*
X12998500Y-9989800D01*
X12997200Y-9989900D01*
X12996000Y-9990000D01*
X12944000Y-9990000D01*
X12942800Y-9989900D01*
X12941500Y-9989800D01*
X12940200Y-9989600D01*
X12939000Y-9989400D01*
X12937700Y-9989100D01*
X12936500Y-9988700D01*
X12935300Y-9988200D01*
X12934100Y-9987700D01*
X12933000Y-9987100D01*
X12931900Y-9986500D01*
X12930800Y-9985800D01*
X12929800Y-9985100D01*
X12928700Y-9984300D01*
X12927800Y-9983400D01*
X12926900Y-9982500D01*
X12926000Y-9981600D01*
X12925200Y-9980600D01*
X12924400Y-9979600D01*
X12923700Y-9978500D01*
X12923100Y-9977400D01*
X12922500Y-9976200D01*
X12921900Y-9975100D01*
X12921500Y-9973900D01*
X12921100Y-9972700D01*
X12920700Y-9971400D01*
X12920400Y-9970200D01*
X12920200Y-9968900D01*
X12920100Y-9967600D01*
X12920000Y-9966400D01*
X12920000Y-9965000D01*
X12920000Y-9905000D01*
X12920000Y-9903600D01*
X12920100Y-9902400D01*
X12920200Y-9901100D01*
X12920400Y-9899800D01*
X12920700Y-9898600D01*
X12921100Y-9897300D01*
X12921500Y-9896100D01*
X12921900Y-9894900D01*
X12922500Y-9893800D01*
X12923100Y-9892600D01*
X12923700Y-9891500D01*
X12924400Y-9890400D01*
X12925200Y-9889400D01*
X12926000Y-9888400D01*
X12926900Y-9887500D01*
X12927800Y-9886600D01*
X12928700Y-9885700D01*
X12929800Y-9884900D01*
X12930800Y-9884200D01*
X12931900Y-9883500D01*
X12933000Y-9882900D01*
X12934100Y-9882300D01*
X12935300Y-9881800D01*
X12936500Y-9881300D01*
X12937700Y-9880900D01*
X12939000Y-9880600D01*
X12940200Y-9880400D01*
X12941500Y-9880200D01*
X12942800Y-9880100D01*
X12944000Y-9880000D01*
X12996000Y-9880000D01*
X12997200Y-9880100D01*
G36*
X12997200Y-9880100D02*
G01*
X12998500Y-9880200D01*
X12999800Y-9880400D01*
X13001000Y-9880600D01*
X13002300Y-9880900D01*
X13003500Y-9881300D01*
X13004700Y-9881800D01*
X13005900Y-9882300D01*
X13007000Y-9882900D01*
X13008100Y-9883500D01*
X13009200Y-9884200D01*
X13010200Y-9884900D01*
X13011300Y-9885700D01*
X13012200Y-9886600D01*
X13013100Y-9887500D01*
X13014000Y-9888400D01*
X13014800Y-9889400D01*
X13015600Y-9890400D01*
X13016300Y-9891500D01*
X13016900Y-9892600D01*
X13017500Y-9893800D01*
X13018100Y-9894900D01*
X13018500Y-9896100D01*
X13018900Y-9897300D01*
X13019300Y-9898600D01*
X13019600Y-9899800D01*
X13019800Y-9901100D01*
X13019900Y-9902400D01*
X13020000Y-9903600D01*
X13020000Y-9905000D01*
X13020000Y-9965000D01*
X13020000Y-9966400D01*
X13019900Y-9967600D01*
X13019800Y-9968900D01*
X13019600Y-9970200D01*
X13019300Y-9971400D01*
X13018900Y-9972700D01*
X13018500Y-9973900D01*
X13018100Y-9975100D01*
X13017500Y-9976200D01*
X13016900Y-9977400D01*
X13016300Y-9978500D01*
X13015600Y-9979600D01*
X13014800Y-9980600D01*
X13014000Y-9981600D01*
X13013100Y-9982500D01*
X13012200Y-9983400D01*
X13011300Y-9984300D01*
X13010200Y-9985100D01*
X13009200Y-9985800D01*
X13008100Y-9986500D01*
X13007000Y-9987100D01*
X13005900Y-9987700D01*
X13004700Y-9988200D01*
X13003500Y-9988700D01*
X13002300Y-9989100D01*
X13001000Y-9989400D01*
X12999800Y-9989600D01*
X12998500Y-9989800D01*
X12997200Y-9989900D01*
X12996000Y-9990000D01*
X12944000Y-9990000D01*
X12942800Y-9989900D01*
X12941500Y-9989800D01*
X12940200Y-9989600D01*
X12939000Y-9989400D01*
X12937700Y-9989100D01*
X12936500Y-9988700D01*
X12935300Y-9988200D01*
X12934100Y-9987700D01*
X12933000Y-9987100D01*
X12931900Y-9986500D01*
X12930800Y-9985800D01*
X12929800Y-9985100D01*
X12928700Y-9984300D01*
X12927800Y-9983400D01*
X12926900Y-9982500D01*
X12926000Y-9981600D01*
X12925200Y-9980600D01*
X12924400Y-9979600D01*
X12923700Y-9978500D01*
X12923100Y-9977400D01*
X12922500Y-9976200D01*
X12921900Y-9975100D01*
X12921500Y-9973900D01*
X12921100Y-9972700D01*
X12920700Y-9971400D01*
X12920400Y-9970200D01*
X12920200Y-9968900D01*
X12920100Y-9967600D01*
X12920000Y-9966400D01*
X12920000Y-9965000D01*
X12920000Y-9905000D01*
X12920000Y-9903600D01*
X12920100Y-9902400D01*
X12920200Y-9901100D01*
X12920400Y-9899800D01*
X12920700Y-9898600D01*
X12921100Y-9897300D01*
X12921500Y-9896100D01*
X12921900Y-9894900D01*
X12922500Y-9893800D01*
X12923100Y-9892600D01*
X12923700Y-9891500D01*
X12924400Y-9890400D01*
X12925200Y-9889400D01*
X12926000Y-9888400D01*
X12926900Y-9887500D01*
X12927800Y-9886600D01*
X12928700Y-9885700D01*
X12929800Y-9884900D01*
X12930800Y-9884200D01*
X12931900Y-9883500D01*
X12933000Y-9882900D01*
X12934100Y-9882300D01*
X12935300Y-9881800D01*
X12936500Y-9881300D01*
X12937700Y-9880900D01*
X12939000Y-9880600D01*
X12940200Y-9880400D01*
X12941500Y-9880200D01*
X12942800Y-9880100D01*
X12944000Y-9880000D01*
X12996000Y-9880000D01*
X12997200Y-9880100D01*
G37*
D13*
X11855000Y-10503000D03*
X11855000Y-10407000D03*
X11960000Y-10503000D03*
X11960000Y-10407000D03*
D14*
X14890000Y-10498000D03*
X14818000Y-10498000D03*
X14890000Y-10570000D03*
X14818000Y-10570000D03*
D15*
X14929000Y-10390250D03*
X14879000Y-10390250D03*
X14829000Y-10390250D03*
X14779000Y-10390250D03*
D16*
X14710250Y-10459000D03*
X14710250Y-10509000D03*
X14710250Y-10559000D03*
X14710250Y-10609000D03*
D15*
X14779000Y-10677750D03*
X14829000Y-10677750D03*
X14879000Y-10677750D03*
X14929000Y-10677750D03*
D16*
X14997750Y-10609000D03*
X14997750Y-10559000D03*
X14997750Y-10509000D03*
X14997750Y-10459000D03*
D17*
X15241000Y-10490000D03*
X15139000Y-10490000D03*
D18*
X15156000Y-10363000D03*
X15060000Y-10363000D03*
D19*
X14594000Y-10499000D03*
X14594000Y-10601000D03*
D17*
X14341000Y-10368000D03*
X14239000Y-10368000D03*
D20*
X14917000Y-10275000D03*
X15019000Y-10275000D03*
D17*
X14542000Y-10368000D03*
X14440000Y-10368000D03*
D21*
X14662750Y-10734000D03*
X14505250Y-10734000D03*
D18*
X15238000Y-10600000D03*
X15142000Y-10600000D03*
D20*
X15009000Y-10705000D03*
X15111000Y-10705000D03*
D17*
X15161000Y-9130000D03*
X15059000Y-9130000D03*
D19*
X15410000Y-9979000D03*
X15410000Y-10081000D03*
D22*
X13597000Y-10020000D03*
X13693000Y-10020000D03*
D23*
X13830000Y-10132000D03*
X13830000Y-10228000D03*
D21*
X13747500Y-9495000D03*
X13590000Y-9495000D03*
D24*
X13045500Y-9100000D03*
X13114500Y-9100000D03*
D19*
X12255000Y-9149000D03*
X12255000Y-9251000D03*
D25*
X12365000Y-9260000D03*
X12455000Y-9260000D03*
X12545000Y-9260000D03*
X12635000Y-9260000D03*
X12635000Y-9140000D03*
X12545000Y-9140000D03*
X12455000Y-9140000D03*
X12365000Y-9140000D03*
D26*
X12754500Y-9900000D03*
X12685500Y-9900000D03*
D27*
X13370000Y-10117500D03*
X13370000Y-10186500D03*
D17*
X12285000Y-9505000D03*
X12183000Y-9505000D03*
D24*
X13555500Y-9940000D03*
X13624500Y-9940000D03*
D13*
X15410000Y-9848000D03*
X15410000Y-9752000D03*
D28*
X13250000Y-9230000D03*
X13130000Y-9230000D03*
D18*
X13878000Y-10830000D03*
X13782000Y-10830000D03*
D17*
X15117000Y-9985000D03*
X15015000Y-9985000D03*
D27*
X13310000Y-10115500D03*
X13310000Y-10184500D03*
D26*
X13939500Y-10320000D03*
X13870500Y-10320000D03*
D13*
X14859000Y-9688000D03*
X14859000Y-9592000D03*
D29*
X14701000Y-9683500D03*
X14701000Y-9614500D03*
D18*
X12623000Y-9020000D03*
X12527000Y-9020000D03*
D17*
X13936000Y-10410000D03*
X13834000Y-10410000D03*
D20*
X12254000Y-9030000D03*
X12356000Y-9030000D03*
D18*
X14563000Y-9010000D03*
X14467000Y-9010000D03*
D19*
X14290000Y-10517000D03*
X14290000Y-10619000D03*
D26*
X13334500Y-9100000D03*
X13265500Y-9100000D03*
D29*
X14772000Y-9684500D03*
X14772000Y-9615500D03*
D20*
X11885000Y-9600000D03*
X11987000Y-9600000D03*
D30*
X11949000Y-9366000D03*
X12139000Y-9366000D03*
X12044000Y-9178500D03*
D31*
X13985000Y-10783750D03*
X14080000Y-10783750D03*
X14175000Y-10783750D03*
X14175000Y-10556250D03*
X13985000Y-10556250D03*
D27*
X12890000Y-10115500D03*
X12890000Y-10184500D03*
D29*
X12930000Y-9294500D03*
X12930000Y-9225500D03*
D32*
X15004500Y-9800000D03*
X15101500Y-9800000D03*
D33*
X14515000Y-9132500D03*
X14515000Y-9347500D03*
D34*
X13816500Y-9140000D03*
X13661500Y-9140000D03*
D35*
X15212500Y-9270000D03*
X15047500Y-9270000D03*
D27*
X13210000Y-10115500D03*
X13210000Y-10184500D03*
D23*
X12735000Y-9142000D03*
X12735000Y-9238000D03*
D26*
X13254500Y-10350000D03*
X13185500Y-10350000D03*
D36*
X12555000Y-9724000D03*
D37*
X12555000Y-9674000D03*
X12555000Y-9624000D03*
D36*
X12555000Y-9574000D03*
X12455000Y-9574000D03*
D37*
X12455000Y-9624000D03*
X12455000Y-9674000D03*
D36*
X12455000Y-9724000D03*
D13*
X13020000Y-9298000D03*
X13020000Y-9202000D03*
D38*
X14727500Y-9000000D03*
X14882500Y-9000000D03*
X14717500Y-9460000D03*
X14872500Y-9460000D03*
D17*
X13881000Y-10625000D03*
X13779000Y-10625000D03*
D26*
X13259500Y-10600000D03*
X13190500Y-10600000D03*
D23*
X14484000Y-10502000D03*
X14484000Y-10598000D03*
D35*
X15212500Y-9420000D03*
X15047500Y-9420000D03*
D29*
X13839000Y-9576500D03*
X13839000Y-9507500D03*
D38*
X13681000Y-9379000D03*
X13836000Y-9379000D03*
D22*
X13372000Y-9300000D03*
X13468000Y-9300000D03*
D27*
X13255000Y-10440500D03*
X13255000Y-10509500D03*
D39*
X14222500Y-10105000D03*
X14382500Y-10105000D03*
X14382500Y-9695000D03*
X14222500Y-9695000D03*
D40*
X14160000Y-9900000D03*
D22*
X13582000Y-9700000D03*
X13678000Y-9700000D03*
D26*
X15083500Y-9892000D03*
X15014500Y-9892000D03*
D22*
X13562000Y-10355000D03*
X13658000Y-10355000D03*
D26*
X12754500Y-9740000D03*
X12685500Y-9740000D03*
D24*
X13555500Y-9780000D03*
X13624500Y-9780000D03*
D41*
X15250000Y-9780000D03*
X15250000Y-10060000D03*
D20*
X12090000Y-9602000D03*
X12192000Y-9602000D03*
D24*
X13555500Y-9870000D03*
X13624500Y-9870000D03*
D26*
X13971500Y-9277000D03*
X13902500Y-9277000D03*
D42*
X14895000Y-9340000D03*
X14895000Y-9290000D03*
X14895000Y-9240000D03*
X14895000Y-9190000D03*
X14895000Y-9140000D03*
D43*
X14730000Y-9140000D03*
X14730000Y-9190000D03*
X14730000Y-9290000D03*
X14730000Y-9340000D03*
D18*
X13878000Y-10535000D03*
X13782000Y-10535000D03*
D44*
X13567500Y-10247500D03*
X13712500Y-10247500D03*
X13712500Y-10132500D03*
X13567500Y-10132500D03*
D45*
X12335000Y-9845000D03*
X12485000Y-9845000D03*
X12485000Y-9955000D03*
X12335000Y-9955000D03*
D32*
X14827500Y-10179000D03*
X14924500Y-10179000D03*
D46*
X14854500Y-9777000D03*
X14757500Y-9777000D03*
D22*
X13582000Y-9607000D03*
X13678000Y-9607000D03*
D26*
X12754500Y-9620000D03*
X12685500Y-9620000D03*
D47*
X11755000Y-10017000D03*
X11920000Y-10017000D03*
X12085000Y-10017000D03*
X12085000Y-9783000D03*
X11920000Y-9783000D03*
D48*
X11765000Y-9793000D03*
D20*
X14029000Y-10410000D03*
X14131000Y-10410000D03*
D49*
X12510000Y-10670000D03*
X12510000Y-10455000D03*
X12340000Y-10670000D03*
X12340000Y-10455000D03*
D50*
X12695000Y-10753000D03*
X12695000Y-10626000D03*
X12695000Y-10499000D03*
X12695000Y-10372000D03*
X12155000Y-10372000D03*
X12155000Y-10499000D03*
X12155000Y-10626000D03*
X12155000Y-10753000D03*
D26*
X12755500Y-9448000D03*
X12686500Y-9448000D03*
D51*
X13814000Y-9932750D03*
X13814000Y-9775250D03*
D17*
X13880000Y-10730000D03*
X13778000Y-10730000D03*
D19*
X14310000Y-10716000D03*
X14310000Y-10818000D03*
D17*
X12871000Y-9020000D03*
X12769000Y-9020000D03*
D18*
X11783000Y-9600000D03*
X11687000Y-9600000D03*
D34*
X13537500Y-9190000D03*
X13382500Y-9190000D03*
D52*
X14748000Y-10081000D03*
D53*
X14918000Y-10081000D03*
X14918000Y-9881000D03*
X14728000Y-9881000D03*
D17*
X12373000Y-9406000D03*
X12271000Y-9406000D03*
M02*
