G04 #@! TF.GenerationSoftware,KiCad,Pcbnew,7.0.10-7.0.10~ubuntu22.04.1*
G04 #@! TF.CreationDate,2024-02-23T22:34:40+01:00*
G04 #@! TF.ProjectId,dictofun,64696374-6f66-4756-9e2e-6b696361645f,rev?*
G04 #@! TF.SameCoordinates,Original*
G04 #@! TF.FileFunction,Copper,L4,Bot*
G04 #@! TF.FilePolarity,Positive*
%FSLAX45Y45*%
G04 Gerber Fmt 4.5, Leading zero omitted, Abs format (unit mm)*
G04 Created by KiCad (PCBNEW 7.0.10-7.0.10~ubuntu22.04.1) date 2024-02-23 22:34:40*
%MOMM*%
%LPD*%
G01*
G04 APERTURE LIST*
G04 #@! TA.AperFunction,ComponentPad*
%ADD10C,0.500000*%
G04 #@! TD*
G04 #@! TA.AperFunction,SMDPad,CuDef*
%ADD11R,1.450000X1.450000*%
G04 #@! TD*
G04 #@! TA.AperFunction,ComponentPad*
%ADD12R,0.850000X0.850000*%
G04 #@! TD*
G04 #@! TA.AperFunction,ComponentPad*
%ADD13C,0.610000*%
G04 #@! TD*
G04 #@! TA.AperFunction,SMDPad,CuDef*
%ADD14C,1.000000*%
G04 #@! TD*
G04 #@! TA.AperFunction,SMDPad,CuDef*
%ADD15R,1.350000X0.400000*%
G04 #@! TD*
G04 #@! TA.AperFunction,ComponentPad*
%ADD16O,1.900000X1.200000*%
G04 #@! TD*
G04 #@! TA.AperFunction,SMDPad,CuDef*
%ADD17R,1.900000X1.200000*%
G04 #@! TD*
G04 #@! TA.AperFunction,ComponentPad*
%ADD18C,1.450000*%
G04 #@! TD*
G04 #@! TA.AperFunction,SMDPad,CuDef*
%ADD19R,1.900000X1.500000*%
G04 #@! TD*
G04 #@! TA.AperFunction,SMDPad,CuDef*
%ADD20R,0.600000X1.550000*%
G04 #@! TD*
G04 #@! TA.AperFunction,SMDPad,CuDef*
%ADD21R,1.200000X1.800000*%
G04 #@! TD*
G04 #@! TA.AperFunction,SMDPad,CuDef*
%ADD22R,1.550000X0.600000*%
G04 #@! TD*
G04 #@! TA.AperFunction,SMDPad,CuDef*
%ADD23R,1.800000X1.200000*%
G04 #@! TD*
G04 #@! TA.AperFunction,ViaPad*
%ADD24C,0.250000*%
G04 #@! TD*
G04 #@! TA.AperFunction,ViaPad*
%ADD25C,0.300000*%
G04 #@! TD*
G04 #@! TA.AperFunction,ViaPad*
%ADD26C,0.600000*%
G04 #@! TD*
G04 #@! TA.AperFunction,Conductor*
%ADD27C,0.150000*%
G04 #@! TD*
G04 #@! TA.AperFunction,Conductor*
%ADD28C,0.254000*%
G04 #@! TD*
G04 #@! TA.AperFunction,Conductor*
%ADD29C,0.127000*%
G04 #@! TD*
G04 #@! TA.AperFunction,Conductor*
%ADD30C,0.200000*%
G04 #@! TD*
G04 #@! TA.AperFunction,Conductor*
%ADD31C,0.500000*%
G04 #@! TD*
G04 #@! TA.AperFunction,Conductor*
%ADD32C,0.090000*%
G04 #@! TD*
G04 APERTURE END LIST*
D10*
X14901500Y-10486500D03*
X14806500Y-10486500D03*
D11*
X14854000Y-10534000D03*
D10*
X14901500Y-10581500D03*
X14806500Y-10581500D03*
D12*
X13265000Y-10725000D03*
D13*
X12970000Y-9540000D03*
X12970000Y-9673300D03*
X12970000Y-9806700D03*
X12970000Y-9940000D03*
X13090000Y-9540000D03*
X13090000Y-9673300D03*
X13090000Y-9806700D03*
X13090000Y-9940000D03*
X13210000Y-9540000D03*
X13210000Y-9673300D03*
X13210000Y-9806700D03*
X13210000Y-9940000D03*
X13330000Y-9540000D03*
X13330000Y-9673300D03*
X13330000Y-9806700D03*
X13330000Y-9940000D03*
D14*
X13870000Y-10785000D03*
X14377000Y-9900000D03*
X14200000Y-10490000D03*
X14190000Y-10790000D03*
X12360000Y-10665000D03*
X14098000Y-9040000D03*
D15*
X15080000Y-9770000D03*
X15080000Y-9835000D03*
X15080000Y-9900000D03*
X15080000Y-9965000D03*
X15080000Y-10030000D03*
D16*
X15350000Y-9550000D03*
D17*
X15350000Y-9610000D03*
D18*
X15080000Y-9650000D03*
D19*
X15350000Y-9800000D03*
X15350000Y-10000000D03*
D18*
X15080000Y-10150000D03*
D17*
X15350000Y-10190000D03*
D16*
X15350000Y-10250000D03*
D14*
X13265000Y-9040000D03*
X12735000Y-10430000D03*
X13885000Y-9095000D03*
X12361667Y-10430000D03*
X12921667Y-10430000D03*
D20*
X14700000Y-9537500D03*
X14800000Y-9537500D03*
X14900000Y-9537500D03*
D21*
X14570000Y-9150000D03*
X15030000Y-9150000D03*
D14*
X12548333Y-10430000D03*
X12688000Y-9148000D03*
X14035000Y-10790000D03*
X14665000Y-10795000D03*
X12425000Y-9203000D03*
X14300000Y-10655000D03*
X12985000Y-10785000D03*
D22*
X15007500Y-10460000D03*
X15007500Y-10360000D03*
D23*
X14620000Y-10590000D03*
X14620000Y-10230000D03*
D14*
X14470000Y-10750000D03*
X12245532Y-9200000D03*
X13490000Y-9045000D03*
D24*
X14930000Y-9650000D03*
X13695000Y-10535000D03*
D25*
X13820000Y-10300000D03*
D24*
X14180000Y-10325000D03*
X13140000Y-10600000D03*
X13465000Y-9240000D03*
D26*
X15070000Y-10540000D03*
D24*
X13709000Y-9809000D03*
X13390000Y-10240000D03*
X12642000Y-9463000D03*
X12930000Y-9175000D03*
X12705000Y-9290000D03*
D26*
X14390000Y-9020000D03*
D24*
X13725000Y-10355000D03*
D26*
X14880000Y-9000000D03*
D24*
X12890000Y-10230000D03*
X15218000Y-10187000D03*
X13665000Y-9940000D03*
X13731000Y-10776000D03*
D26*
X15308000Y-10450000D03*
D25*
X11925000Y-10325000D03*
D24*
X13770000Y-10410000D03*
X12637368Y-9899251D03*
X13005000Y-9100000D03*
D25*
X14195000Y-9375000D03*
X15027000Y-9514000D03*
D24*
X13655000Y-9060000D03*
X13310000Y-9440000D03*
X13502181Y-9895903D03*
X14925000Y-9804000D03*
D26*
X14760000Y-10310000D03*
X15240000Y-10410000D03*
D24*
X12628000Y-9596000D03*
X13665000Y-9898000D03*
D26*
X14630000Y-10420000D03*
D24*
X14605000Y-10118000D03*
D25*
X12730000Y-10275000D03*
X12410000Y-10555000D03*
D24*
X13945000Y-9342000D03*
X14397000Y-10583000D03*
X13506000Y-9628000D03*
X14701000Y-9553000D03*
D26*
X14810000Y-9240000D03*
D25*
X11918000Y-9245000D03*
D24*
X12470000Y-9063000D03*
D25*
X15205000Y-9520000D03*
D24*
X12540000Y-9325000D03*
D25*
X12435000Y-10245000D03*
D24*
X14366000Y-10776000D03*
X11630000Y-9660000D03*
X11755000Y-10180000D03*
X14967000Y-9988000D03*
X13184000Y-10256000D03*
D25*
X13480000Y-10120000D03*
D24*
X13145000Y-10350000D03*
X12640000Y-9758000D03*
X13390000Y-9100000D03*
X14090000Y-9900000D03*
D25*
X11750000Y-10375000D03*
D24*
X13830000Y-9250000D03*
X12900000Y-9333000D03*
D26*
X15121482Y-9337722D03*
D24*
X12230000Y-9845000D03*
X11990000Y-9525000D03*
X13500000Y-9780000D03*
X13370000Y-10070000D03*
D25*
X13410000Y-9350000D03*
D24*
X12800000Y-9740000D03*
X12737000Y-9540000D03*
X13473000Y-9542000D03*
D26*
X14640000Y-9010000D03*
D25*
X12795000Y-10670000D03*
D24*
X13200000Y-10075000D03*
X12794000Y-9458000D03*
D25*
X12980000Y-10790000D03*
D24*
X12752000Y-9900000D03*
X12140000Y-9090000D03*
D25*
X12890000Y-10070000D03*
D24*
X13430000Y-9960000D03*
X12800000Y-9620000D03*
X14195000Y-9145000D03*
D26*
X14820000Y-9090000D03*
D24*
X13005000Y-10244000D03*
D25*
X12695000Y-10135000D03*
X12830000Y-10800000D03*
D24*
X13023000Y-10315000D03*
D25*
X15007500Y-10360000D03*
X14840000Y-10290000D03*
X14620000Y-10340000D03*
D24*
X12766000Y-10030000D03*
X12870000Y-10001000D03*
X12800000Y-10095000D03*
X12830000Y-9861000D03*
X12520000Y-9672000D03*
X12870000Y-9680000D03*
X13991000Y-9158000D03*
D25*
X15115000Y-10270000D03*
D24*
X14630000Y-9850000D03*
D25*
X15080000Y-10620000D03*
D24*
X14105000Y-9031000D03*
X13110000Y-9440000D03*
X14390000Y-10370000D03*
X14081000Y-10559000D03*
X12767000Y-9800000D03*
X14115000Y-10675000D03*
D25*
X12775000Y-9330000D03*
X12255000Y-9320000D03*
D24*
X12950000Y-9440000D03*
X12416000Y-9024000D03*
X12965000Y-9370000D03*
D25*
X12815000Y-9270000D03*
D24*
X13320000Y-10250000D03*
X13780000Y-10000000D03*
D25*
X12449000Y-9395000D03*
D24*
X12800000Y-9140000D03*
D26*
X15010000Y-9010000D03*
X14840000Y-10800000D03*
X14550000Y-9490000D03*
D24*
X14302500Y-9437500D03*
X13985000Y-10655000D03*
D26*
X14410000Y-10500000D03*
D24*
X13827000Y-10676000D03*
X12545000Y-9140000D03*
X12690000Y-9050000D03*
X15215000Y-10094000D03*
D25*
X14377000Y-9899000D03*
D24*
X14384023Y-10108542D03*
X12314000Y-9750000D03*
X12485000Y-9845000D03*
X14898000Y-10007000D03*
X15196000Y-9914000D03*
X13617000Y-9311000D03*
X13679000Y-9284000D03*
X14917000Y-9883000D03*
X13013000Y-10101000D03*
D25*
X12600000Y-10240000D03*
D24*
X12870000Y-9560000D03*
X12693753Y-9803728D03*
X13310000Y-10118000D03*
X13597000Y-10020000D03*
X13875000Y-9621000D03*
X13620000Y-9666000D03*
X13664000Y-9546000D03*
X13431000Y-9520000D03*
X13506000Y-9508000D03*
X13587000Y-9415000D03*
X13652000Y-9232000D03*
X14933000Y-9748000D03*
X13857500Y-10022500D03*
X13430000Y-9880000D03*
X12968000Y-9042000D03*
D25*
X12094000Y-9521000D03*
X14966647Y-9467129D03*
X15220000Y-9675000D03*
D26*
X14960000Y-9340000D03*
D24*
X14175000Y-8985000D03*
D25*
X14330000Y-10455000D03*
X14060000Y-9370000D03*
D24*
X13431000Y-9680000D03*
D25*
X13970000Y-9650000D03*
X14070000Y-9525000D03*
X14065000Y-9780000D03*
D24*
X13430000Y-9760000D03*
X14965000Y-10154000D03*
D25*
X12211000Y-9405000D03*
X12866000Y-9111300D03*
D24*
X12646000Y-9340000D03*
X13030000Y-9440000D03*
D27*
X14701000Y-9585000D02*
X14700000Y-9586000D01*
X14700000Y-9586000D02*
X14700000Y-9596000D01*
D28*
X15070000Y-10540000D02*
X15070000Y-10522500D01*
X15070000Y-10522500D02*
X15007500Y-10460000D01*
D27*
X14700000Y-9552000D02*
X14701000Y-9553000D01*
D28*
X15007500Y-10460000D02*
X14928000Y-10460000D01*
D27*
X14701000Y-9553000D02*
X14700000Y-9554000D01*
X14700000Y-9537500D02*
X14700000Y-9584000D01*
X13690000Y-9095000D02*
X13655000Y-9060000D01*
X14200000Y-10345000D02*
X14180000Y-10325000D01*
X14740000Y-10420000D02*
X14630000Y-10420000D01*
D29*
X15205000Y-9520000D02*
X15033000Y-9520000D01*
D28*
X14928000Y-10460000D02*
X14854000Y-10534000D01*
D29*
X15033000Y-9520000D02*
X15027000Y-9514000D01*
D30*
X12360000Y-10665000D02*
X12360000Y-10605000D01*
D27*
X13885000Y-9095000D02*
X13690000Y-9095000D01*
X14806500Y-10486500D02*
X14760000Y-10440000D01*
D30*
X12360000Y-10605000D02*
X12410000Y-10555000D01*
D27*
X14806500Y-10486500D02*
X14740000Y-10420000D01*
X14200000Y-10490000D02*
X14200000Y-10345000D01*
D28*
X14760000Y-10220236D02*
X14760000Y-10310000D01*
D27*
X14700000Y-9554000D02*
X14700000Y-9580000D01*
X14700000Y-9584000D02*
X14701000Y-9585000D01*
X14700000Y-9537500D02*
X14700000Y-9552000D01*
D28*
X14967000Y-9988000D02*
X14967000Y-10013236D01*
D27*
X14760000Y-10440000D02*
X14760000Y-10310000D01*
D28*
X14967000Y-10013236D02*
X14760000Y-10220236D01*
D29*
X14820000Y-9100000D02*
X14948650Y-9228650D01*
D31*
X12240833Y-9531000D02*
X12476369Y-9531000D01*
X12150000Y-9975000D02*
X11750000Y-10375000D01*
X12794000Y-9454000D02*
X12794000Y-9458000D01*
X12140000Y-9390000D02*
X12140000Y-9090000D01*
D30*
X12606667Y-10675000D02*
X12790000Y-10675000D01*
D31*
X12794000Y-9458000D02*
X12798000Y-9458000D01*
X12150000Y-9733000D02*
X11990000Y-9573000D01*
D30*
X12361667Y-10430000D02*
X12606667Y-10675000D01*
D29*
X14820000Y-9090000D02*
X14820000Y-9100000D01*
X15045110Y-9261350D02*
X15121482Y-9337722D01*
D31*
X12734500Y-9394500D02*
X12794000Y-9454000D01*
X12150000Y-9845000D02*
X12150000Y-9975000D01*
D28*
X14090000Y-9250000D02*
X13830000Y-9250000D01*
D31*
X12798000Y-9458000D02*
X12800000Y-9460000D01*
X12140000Y-9430167D02*
X12140000Y-9390000D01*
X12140000Y-9430167D02*
X12240833Y-9531000D01*
X12150000Y-9733000D02*
X12207000Y-9676000D01*
X11990000Y-9573000D02*
X11990000Y-9525000D01*
D29*
X14948650Y-9228650D02*
X14948650Y-9261350D01*
D31*
X12207000Y-9676000D02*
X12207000Y-9497167D01*
D28*
X14195000Y-9145000D02*
X14090000Y-9250000D01*
X12612869Y-9394500D02*
X12734500Y-9394500D01*
D31*
X12150000Y-9845000D02*
X12150000Y-9733000D01*
X12118000Y-9701000D02*
X12150000Y-9733000D01*
X12207000Y-9497167D02*
X12140000Y-9430167D01*
X12230000Y-9845000D02*
X12150000Y-9845000D01*
D29*
X14948650Y-9261350D02*
X15045110Y-9261350D01*
D28*
X12476369Y-9531000D02*
X12612869Y-9394500D01*
D30*
X12790000Y-10675000D02*
X12795000Y-10670000D01*
D29*
X12887941Y-10141850D02*
X12939350Y-10090442D01*
X12773744Y-10135000D02*
X12780594Y-10141850D01*
D32*
X12979000Y-10216000D02*
X12765000Y-10430000D01*
X13005000Y-10244000D02*
X13005000Y-10242000D01*
D29*
X13034000Y-10020000D02*
X13074000Y-10060000D01*
X12695000Y-10135000D02*
X12773744Y-10135000D01*
X12939350Y-10052650D02*
X12972000Y-10020000D01*
X12939350Y-10090442D02*
X12939350Y-10052650D01*
D32*
X13005000Y-10190000D02*
X12979000Y-10216000D01*
D29*
X12780594Y-10141850D02*
X12887941Y-10141850D01*
X13074000Y-10141000D02*
X13025000Y-10190000D01*
X13074000Y-10060000D02*
X13074000Y-10141000D01*
X13025000Y-10190000D02*
X13005000Y-10190000D01*
D32*
X13005000Y-10242000D02*
X12979000Y-10216000D01*
D29*
X12972000Y-10020000D02*
X13034000Y-10020000D01*
D32*
X12765000Y-10430000D02*
X12735000Y-10430000D01*
X13023000Y-10315000D02*
X12921667Y-10416333D01*
X12921667Y-10416333D02*
X12921667Y-10430000D01*
X12921667Y-10708333D02*
X12921667Y-10430000D01*
X12830000Y-10800000D02*
X12921667Y-10708333D01*
D27*
X14480000Y-10730000D02*
X14480000Y-10505000D01*
D28*
X15007500Y-10360000D02*
X14900000Y-10350000D01*
D27*
X14480000Y-10505000D02*
X14480000Y-10480000D01*
X14480000Y-10480000D02*
X14620000Y-10340000D01*
D28*
X14900000Y-10350000D02*
X14840000Y-10290000D01*
D27*
X14440000Y-10770000D02*
X14480000Y-10730000D01*
D32*
X12870000Y-10001000D02*
X12870000Y-10000000D01*
X12870000Y-10000000D02*
X12870000Y-10000000D01*
X12840000Y-10030000D02*
X12869000Y-10001000D01*
X12869000Y-10001000D02*
X12870000Y-10001000D01*
X12766000Y-10030000D02*
X12840000Y-10030000D01*
X12808000Y-9838000D02*
X12830000Y-9860000D01*
X12830000Y-9861000D02*
X12831000Y-9861000D01*
X12750000Y-9838000D02*
X12808000Y-9838000D01*
X12830000Y-9860000D02*
X12830000Y-9861000D01*
X12694000Y-10024000D02*
X12694000Y-9894000D01*
X12800000Y-10095000D02*
X12765000Y-10095000D01*
X12694000Y-9894000D02*
X12750000Y-9838000D01*
X12831000Y-9861000D02*
X12830000Y-9860000D01*
X12765000Y-10095000D02*
X12694000Y-10024000D01*
D29*
X12520000Y-9672000D02*
X12520000Y-9680000D01*
X12528000Y-9680000D02*
X12520000Y-9672000D01*
X12870000Y-9680000D02*
X12528000Y-9680000D01*
D32*
X14105000Y-9044000D02*
X13991000Y-9158000D01*
D28*
X15155000Y-10310000D02*
X15115000Y-10270000D01*
X15080000Y-10620000D02*
X15130000Y-10620000D01*
X15155000Y-10595000D02*
X15155000Y-10310000D01*
X15130000Y-10620000D02*
X15155000Y-10595000D01*
D32*
X14105000Y-9031000D02*
X14105000Y-9044000D01*
D27*
X14175000Y-10600000D02*
X14180000Y-10595000D01*
X14081000Y-10559000D02*
X14134000Y-10559000D01*
X14175000Y-10815000D02*
X14175000Y-10600000D01*
X14134000Y-10559000D02*
X14175000Y-10600000D01*
D29*
X13106000Y-10037000D02*
X13026850Y-9957850D01*
X12976398Y-9866000D02*
X12902000Y-9866000D01*
X13026850Y-9957850D02*
X13026850Y-9916452D01*
D27*
X14040000Y-10810000D02*
X14040000Y-10730000D01*
X14095000Y-10675000D02*
X14115000Y-10675000D01*
D29*
X13891850Y-10456850D02*
X13460594Y-10456850D01*
X13026850Y-9916452D02*
X12976398Y-9866000D01*
D27*
X14090000Y-10680000D02*
X14095000Y-10675000D01*
D29*
X12902000Y-9866000D02*
X12836000Y-9800000D01*
X14110000Y-10675000D02*
X13891850Y-10456850D01*
D27*
X14115000Y-10675000D02*
X14110000Y-10675000D01*
D29*
X12836000Y-9800000D02*
X12767000Y-9800000D01*
D27*
X14040000Y-10730000D02*
X14090000Y-10680000D01*
D29*
X13106000Y-10102256D02*
X13106000Y-10037000D01*
X13460594Y-10456850D02*
X13106000Y-10102256D01*
X12255000Y-9209468D02*
X12245532Y-9200000D01*
D32*
X12858000Y-9440000D02*
X12775000Y-9357000D01*
D29*
X12255000Y-9320000D02*
X12255000Y-9209468D01*
D32*
X12950000Y-9440000D02*
X12858000Y-9440000D01*
X12775000Y-9357000D02*
X12775000Y-9330000D01*
X12948640Y-9370000D02*
X12933640Y-9385000D01*
X12824569Y-9347569D02*
X12824569Y-9300431D01*
X12425000Y-9143000D02*
X12425000Y-9203000D01*
X12819138Y-9274139D02*
X12815000Y-9270000D01*
X12686360Y-9245000D02*
X12685360Y-9246000D01*
X12933640Y-9385000D02*
X12862000Y-9385000D01*
X12685360Y-9246000D02*
X12468000Y-9246000D01*
X12824569Y-9300431D02*
X12819138Y-9295000D01*
X12416000Y-9024000D02*
X12416000Y-9134000D01*
X12819138Y-9295000D02*
X12819138Y-9274139D01*
X12968640Y-9373640D02*
X12965000Y-9370000D01*
X12824569Y-9300431D02*
X12769138Y-9245000D01*
X12769138Y-9245000D02*
X12686360Y-9245000D01*
X12965000Y-9370000D02*
X12948640Y-9370000D01*
X12416000Y-9134000D02*
X12425000Y-9143000D01*
X12862000Y-9385000D02*
X12824569Y-9347569D01*
X12468000Y-9246000D02*
X12425000Y-9203000D01*
D29*
X13607000Y-10173000D02*
X13780000Y-10000000D01*
X13320000Y-10250000D02*
X13320000Y-10215000D01*
X13320000Y-10215000D02*
X13362000Y-10173000D01*
X13362000Y-10173000D02*
X13607000Y-10173000D01*
X15159000Y-9400000D02*
X14640000Y-9400000D01*
X15140000Y-9067300D02*
X15140000Y-9080000D01*
X15082700Y-9010000D02*
X15140000Y-9067300D01*
D27*
X14815000Y-10825000D02*
X14840000Y-10800000D01*
D29*
X15182000Y-9122000D02*
X15182000Y-9377000D01*
X15010000Y-9010000D02*
X15082700Y-9010000D01*
X14640000Y-9400000D02*
X14550000Y-9490000D01*
D27*
X14660000Y-10825000D02*
X14815000Y-10825000D01*
D29*
X15140000Y-9080000D02*
X15182000Y-9122000D01*
X15182000Y-9377000D02*
X15159000Y-9400000D01*
D27*
X13895000Y-10744000D02*
X13895000Y-10815000D01*
X13827000Y-10676000D02*
X13895000Y-10744000D01*
D29*
X12545000Y-9140000D02*
X12635000Y-9050000D01*
X12635000Y-9050000D02*
X12690000Y-9050000D01*
X12314000Y-9750000D02*
X12405000Y-9750000D01*
X12405000Y-9750000D02*
X12485000Y-9830000D01*
X12485000Y-9830000D02*
X12485000Y-9845000D01*
D32*
X15196000Y-9874500D02*
X15196000Y-9914000D01*
X15080000Y-9835000D02*
X15156500Y-9835000D01*
X15156500Y-9835000D02*
X15196000Y-9874500D01*
X14934000Y-9900000D02*
X14917000Y-9883000D01*
X15080000Y-9900000D02*
X14934000Y-9900000D01*
X13013000Y-10101000D02*
X13010000Y-10098000D01*
X12993000Y-10101000D02*
X12914000Y-10180000D01*
X12757825Y-10180000D02*
X12697825Y-10240000D01*
D29*
X12548333Y-10430000D02*
X12548333Y-10291667D01*
D32*
X12697825Y-10240000D02*
X12600000Y-10240000D01*
D29*
X12548333Y-10291667D02*
X12600000Y-10240000D01*
D32*
X12914000Y-10180000D02*
X12757825Y-10180000D01*
X13013000Y-10101000D02*
X12993000Y-10101000D01*
X12870000Y-9560000D02*
X12780640Y-9560000D01*
X12686000Y-9585000D02*
X12685000Y-9584000D01*
X12755640Y-9585000D02*
X12686000Y-9585000D01*
X12780640Y-9560000D02*
X12755640Y-9585000D01*
D29*
X13310000Y-10118000D02*
X13315000Y-10035000D01*
X13315000Y-10035000D02*
X13330000Y-10020000D01*
X13330000Y-10020000D02*
X13597000Y-10020000D01*
X13708000Y-9578000D02*
X13828000Y-9578000D01*
X13875000Y-9621000D02*
X13875000Y-9625000D01*
X13620000Y-9666000D02*
X13708000Y-9578000D01*
X13828000Y-9578000D02*
X13871000Y-9621000D01*
X13875000Y-9625000D02*
X13871000Y-9621000D01*
X13871000Y-9621000D02*
X13875000Y-9621000D01*
D32*
X13651000Y-9238000D02*
X13645000Y-9238000D01*
X13652000Y-9232000D02*
X13651000Y-9238000D01*
X13603000Y-9399000D02*
X13603000Y-9360640D01*
X13572000Y-9277000D02*
X13617000Y-9232000D01*
X13572000Y-9329640D02*
X13572000Y-9277000D01*
X13603000Y-9360640D02*
X13572000Y-9329640D01*
X13617000Y-9232000D02*
X13652000Y-9232000D01*
X13587000Y-9415000D02*
X13603000Y-9399000D01*
D28*
X14955000Y-9770000D02*
X14933000Y-9748000D01*
X15080000Y-9770000D02*
X14955000Y-9770000D01*
D30*
X15350000Y-9800000D02*
X15350000Y-9610000D01*
X15350000Y-9610000D02*
X15120000Y-9610000D01*
D28*
X15320000Y-10030000D02*
X15350000Y-10000000D01*
D30*
X15350000Y-10000000D02*
X15350000Y-9800000D01*
X15310000Y-10150000D02*
X15350000Y-10190000D01*
X15350000Y-10190000D02*
X15350000Y-10000000D01*
D28*
X15350000Y-10250000D02*
X15180000Y-10250000D01*
D30*
X15120000Y-9610000D02*
X15080000Y-9650000D01*
D28*
X15180000Y-10250000D02*
X15080000Y-10150000D01*
D32*
X13696640Y-9853000D02*
X13522918Y-9853000D01*
X13520821Y-9850903D02*
X13459097Y-9850903D01*
X13522918Y-9853000D02*
X13520821Y-9850903D01*
X13857500Y-10013860D02*
X13696640Y-9853000D01*
X13857500Y-10022500D02*
X13857500Y-10013860D01*
X13459097Y-9850903D02*
X13430000Y-9880000D01*
D29*
X12926000Y-9000000D02*
X12470256Y-9000000D01*
X14336350Y-10448650D02*
X14381659Y-10448650D01*
X12043000Y-9479000D02*
X12094000Y-9521000D01*
X12968000Y-9042000D02*
X12926000Y-9000000D01*
X14432000Y-8960000D02*
X14488650Y-9016650D01*
X14381659Y-10448650D02*
X14495000Y-10335309D01*
X12315000Y-9028000D02*
X12135744Y-9028000D01*
X14830309Y-9340000D02*
X14960000Y-9340000D01*
X14330000Y-10585000D02*
X14300000Y-10615000D01*
X14200000Y-8960000D02*
X14432000Y-8960000D01*
X14495000Y-10335309D02*
X14495000Y-10119744D01*
X14976850Y-9481850D02*
X14965000Y-9470000D01*
X12043000Y-9181000D02*
X12043000Y-9479000D01*
X14488650Y-9261350D02*
X14751659Y-9261350D01*
X14175000Y-8985000D02*
X14200000Y-8960000D01*
X12094000Y-9521000D02*
X12084000Y-9520000D01*
X12043000Y-9120744D02*
X12043000Y-9181000D01*
X14917894Y-9696850D02*
X14949406Y-9696850D01*
X14949406Y-9696850D02*
X14976850Y-9669406D01*
X14495000Y-10119744D02*
X14917894Y-9696850D01*
X14751659Y-9261350D02*
X14830309Y-9340000D01*
X14330000Y-10455000D02*
X14330000Y-10585000D01*
X12365850Y-8977150D02*
X12315000Y-9028000D01*
X14976850Y-9669406D02*
X14976850Y-9481850D01*
X12447406Y-8977150D02*
X12365850Y-8977150D01*
X12135744Y-9028000D02*
X12043000Y-9120744D01*
X12470256Y-9000000D02*
X12447406Y-8977150D01*
X14330000Y-10455000D02*
X14336350Y-10448650D01*
X14488650Y-9016650D02*
X14488650Y-9261350D01*
X14300000Y-10615000D02*
X14300000Y-10655000D01*
D27*
X13430000Y-9680000D02*
X13430000Y-9679000D01*
X13429000Y-9679000D02*
X13430000Y-9680000D01*
X13970000Y-9705000D02*
X13970000Y-9655000D01*
D30*
X13779500Y-9270918D02*
X13904582Y-9396000D01*
X13904582Y-9396000D02*
X14034000Y-9396000D01*
D27*
X14800000Y-9655000D02*
X14750000Y-9705000D01*
D30*
X13779500Y-9255918D02*
X13779500Y-9270918D01*
X13604500Y-9080500D02*
X13604500Y-9080918D01*
D27*
X13431000Y-9681000D02*
X13431000Y-9680000D01*
X14800000Y-9537500D02*
X14800000Y-9655000D01*
D30*
X13490000Y-9045000D02*
X13569000Y-9045000D01*
X13569000Y-9045000D02*
X13604500Y-9080500D01*
D27*
X14750000Y-9705000D02*
X13970000Y-9705000D01*
X13452000Y-9702000D02*
X13431000Y-9681000D01*
X13970000Y-9705000D02*
X13767309Y-9705000D01*
X13431000Y-9680000D02*
X13430000Y-9680000D01*
D30*
X13604500Y-9080918D02*
X13779500Y-9255918D01*
D27*
X13741309Y-9731000D02*
X13561309Y-9731000D01*
X13767309Y-9705000D02*
X13741309Y-9731000D01*
X13532309Y-9702000D02*
X13452000Y-9702000D01*
D30*
X14034000Y-9396000D02*
X14060000Y-9370000D01*
D27*
X13430000Y-9680000D02*
X13430000Y-9680000D01*
X13561309Y-9731000D02*
X13532309Y-9702000D01*
X13430000Y-9679000D02*
X13429000Y-9679000D01*
D30*
X14075000Y-9525000D02*
X14075000Y-9525000D01*
X14070000Y-9520000D02*
X14070000Y-9525000D01*
D29*
X13563850Y-9461850D02*
X13606406Y-9461850D01*
D27*
X13548882Y-9761000D02*
X13519882Y-9732000D01*
X14065000Y-9740000D02*
X14060000Y-9735000D01*
X13458000Y-9732000D02*
X13430000Y-9760000D01*
D29*
X13967000Y-9458000D02*
X13987500Y-9437500D01*
D30*
X14070000Y-9525000D02*
X14075000Y-9525000D01*
D27*
X14065000Y-9740000D02*
X14065000Y-9780000D01*
X13519882Y-9732000D02*
X13458000Y-9732000D01*
X14900000Y-9537500D02*
X14900000Y-9610000D01*
D29*
X13552000Y-9450000D02*
X13563850Y-9461850D01*
D30*
X13265000Y-9120000D02*
X13265000Y-9040000D01*
D27*
X13915574Y-9777000D02*
X13744882Y-9777000D01*
D29*
X13547000Y-9450000D02*
X13552000Y-9450000D01*
D27*
X13728882Y-9761000D02*
X13548882Y-9761000D01*
D30*
X13503500Y-9358500D02*
X13265000Y-9120000D01*
X13987500Y-9437500D02*
X14070000Y-9520000D01*
D27*
X14900000Y-9610000D02*
X14770000Y-9740000D01*
D29*
X13606406Y-9461850D02*
X13610256Y-9458000D01*
D27*
X13957574Y-9735000D02*
X13915574Y-9777000D01*
D30*
X13547000Y-9450000D02*
X13503500Y-9406500D01*
D27*
X14060000Y-9735000D02*
X13957574Y-9735000D01*
X13744882Y-9777000D02*
X13728882Y-9761000D01*
X14770000Y-9740000D02*
X14065000Y-9740000D01*
D30*
X13503500Y-9406500D02*
X13503500Y-9358500D01*
D29*
X13610256Y-9458000D02*
X13967000Y-9458000D01*
D28*
X15080000Y-10030000D02*
X15013000Y-10030000D01*
X14965000Y-10078000D02*
X14965000Y-10154000D01*
X15013000Y-10030000D02*
X14965000Y-10078000D01*
D29*
X13009500Y-9389500D02*
X13009500Y-9324500D01*
X12211000Y-9418000D02*
X12211000Y-9405000D01*
X12646000Y-9340000D02*
X12640000Y-9335000D01*
X12876500Y-9191500D02*
X12866000Y-9181000D01*
D32*
X13009500Y-9424500D02*
X13009500Y-9389500D01*
D29*
X12601820Y-9340000D02*
X12458820Y-9483000D01*
X13009500Y-9324500D02*
X12876500Y-9191500D01*
D32*
X13025000Y-9440000D02*
X13009500Y-9424500D01*
D29*
X12276000Y-9483000D02*
X12211000Y-9418000D01*
X12866000Y-9181000D02*
X12866000Y-9111300D01*
X12876500Y-9191500D02*
X12731500Y-9191500D01*
X12731500Y-9191500D02*
X12688000Y-9148000D01*
D32*
X13030000Y-9440000D02*
X13025000Y-9440000D01*
D29*
X12646000Y-9340000D02*
X12601820Y-9340000D01*
X12458820Y-9483000D02*
X12276000Y-9483000D01*
G04 #@! TA.AperFunction,Conductor*
G36*
X14337731Y-8988369D02*
G01*
X14342307Y-8993649D01*
X14343301Y-9000565D01*
X14342307Y-9003951D01*
X14341557Y-9005593D01*
X14341483Y-9005755D01*
X14339435Y-9020000D01*
X14341483Y-9034246D01*
X14346849Y-9045995D01*
X14347462Y-9047337D01*
X14356887Y-9058214D01*
X14368995Y-9065995D01*
X14368995Y-9065995D01*
X14368995Y-9065995D01*
X14379500Y-9069080D01*
X14380747Y-9069446D01*
X14382804Y-9070050D01*
X14382804Y-9070050D01*
X14382804Y-9070050D01*
X14397196Y-9070050D01*
X14397196Y-9070050D01*
X14411005Y-9065995D01*
X14423113Y-9058214D01*
X14432538Y-9047337D01*
X14438516Y-9034246D01*
X14438516Y-9034246D01*
X14438571Y-9034127D01*
X14443146Y-9028847D01*
X14449850Y-9026878D01*
X14456554Y-9028847D01*
X14461129Y-9034127D01*
X14462250Y-9039278D01*
X14462250Y-9257528D01*
X14462012Y-9259947D01*
X14461788Y-9261073D01*
X14461733Y-9261350D01*
X14461971Y-9262550D01*
X14462250Y-9263950D01*
X14462250Y-9263951D01*
X14463781Y-9271651D01*
X14463782Y-9271651D01*
X14463782Y-9271651D01*
X14463782Y-9271651D01*
X14469617Y-9280383D01*
X14478349Y-9286218D01*
X14488650Y-9288267D01*
X14490052Y-9287988D01*
X14492471Y-9287750D01*
X14735588Y-9287750D01*
X14742291Y-9289719D01*
X14744356Y-9291382D01*
X14805406Y-9352432D01*
X14808754Y-9358564D01*
X14808256Y-9365533D01*
X14804069Y-9371127D01*
X14797522Y-9373568D01*
X14796638Y-9373600D01*
X14643821Y-9373600D01*
X14641402Y-9373362D01*
X14640000Y-9373083D01*
X14640000Y-9373083D01*
X14640000Y-9373083D01*
X14637997Y-9373481D01*
X14637997Y-9373481D01*
X14637997Y-9373481D01*
X14637400Y-9373600D01*
X14637400Y-9373600D01*
X14634355Y-9374206D01*
X14629699Y-9375132D01*
X14620967Y-9380967D01*
X14620966Y-9380967D01*
X14620172Y-9382156D01*
X14618630Y-9384034D01*
X14566347Y-9436318D01*
X14560214Y-9439667D01*
X14557578Y-9439950D01*
X14542804Y-9439950D01*
X14528995Y-9444005D01*
X14516887Y-9451786D01*
X14507462Y-9462663D01*
X14507462Y-9462663D01*
X14501483Y-9475754D01*
X14499435Y-9490000D01*
X14501483Y-9504246D01*
X14507319Y-9517024D01*
X14507462Y-9517337D01*
X14516887Y-9528214D01*
X14528995Y-9535995D01*
X14528995Y-9535995D01*
X14528995Y-9535995D01*
X14537651Y-9538537D01*
X14542634Y-9540000D01*
X14542804Y-9540050D01*
X14542804Y-9540050D01*
X14542804Y-9540050D01*
X14557196Y-9540050D01*
X14557196Y-9540050D01*
X14571005Y-9535995D01*
X14583113Y-9528214D01*
X14592538Y-9517337D01*
X14598516Y-9504246D01*
X14600565Y-9490000D01*
X14599785Y-9484577D01*
X14600779Y-9477661D01*
X14603290Y-9474045D01*
X14628792Y-9448543D01*
X14634924Y-9445194D01*
X14641894Y-9445693D01*
X14647487Y-9449880D01*
X14649929Y-9456426D01*
X14649916Y-9457416D01*
X14649950Y-9457416D01*
X14649950Y-9616975D01*
X14651113Y-9622823D01*
X14651113Y-9622823D01*
X14655545Y-9629455D01*
X14662177Y-9633887D01*
X14662177Y-9633887D01*
X14668025Y-9635050D01*
X14668025Y-9635050D01*
X14668025Y-9635050D01*
X14731975Y-9635050D01*
X14731975Y-9635050D01*
X14733715Y-9634704D01*
X14737823Y-9633887D01*
X14737823Y-9633887D01*
X14741389Y-9631504D01*
X14743111Y-9630353D01*
X14749778Y-9628266D01*
X14756516Y-9630114D01*
X14756885Y-9630351D01*
X14761588Y-9633493D01*
X14766068Y-9638854D01*
X14766939Y-9645787D01*
X14763924Y-9652090D01*
X14763467Y-9652571D01*
X14742220Y-9673818D01*
X14736088Y-9677167D01*
X14733452Y-9677450D01*
X14015887Y-9677450D01*
X14009183Y-9675482D01*
X14004608Y-9670201D01*
X14003613Y-9663285D01*
X14004094Y-9661217D01*
X14004135Y-9661091D01*
X14005892Y-9650000D01*
X14005892Y-9650000D01*
X14004135Y-9638909D01*
X13999037Y-9628903D01*
X13991096Y-9620963D01*
X13981091Y-9615865D01*
X13970000Y-9614108D01*
X13970000Y-9614108D01*
X13958909Y-9615865D01*
X13948903Y-9620963D01*
X13940963Y-9628903D01*
X13935865Y-9638909D01*
X13934108Y-9650000D01*
X13934108Y-9650000D01*
X13935865Y-9661091D01*
X13935906Y-9661217D01*
X13935910Y-9661380D01*
X13936017Y-9662055D01*
X13935930Y-9662069D01*
X13936106Y-9668202D01*
X13932498Y-9674185D01*
X13926228Y-9677268D01*
X13924113Y-9677450D01*
X13886568Y-9677450D01*
X13879864Y-9675482D01*
X13875289Y-9670201D01*
X13874971Y-9667994D01*
X13874362Y-9670906D01*
X13869461Y-9675886D01*
X13863432Y-9677450D01*
X13771243Y-9677450D01*
X13768825Y-9677212D01*
X13767309Y-9676910D01*
X13767309Y-9676910D01*
X13756559Y-9679048D01*
X13749746Y-9683601D01*
X13749746Y-9683601D01*
X13749039Y-9684073D01*
X13747446Y-9685138D01*
X13746588Y-9686422D01*
X13745046Y-9688301D01*
X13733529Y-9699818D01*
X13727397Y-9703167D01*
X13724761Y-9703450D01*
X13657903Y-9703450D01*
X13651199Y-9701482D01*
X13646624Y-9696201D01*
X13645629Y-9689285D01*
X13647164Y-9684850D01*
X13651440Y-9677443D01*
X13651949Y-9674557D01*
X13655052Y-9668297D01*
X13655393Y-9667942D01*
X13715303Y-9608032D01*
X13721436Y-9604683D01*
X13724071Y-9604400D01*
X13811929Y-9604400D01*
X13818632Y-9606369D01*
X13820697Y-9608032D01*
X13840729Y-9628065D01*
X13842946Y-9631545D01*
X13843017Y-9631504D01*
X13849369Y-9642506D01*
X13849370Y-9642507D01*
X13850659Y-9643588D01*
X13858271Y-9649976D01*
X13867673Y-9653398D01*
X13873299Y-9657541D01*
X13874947Y-9661855D01*
X13877197Y-9656930D01*
X13882327Y-9653398D01*
X13891729Y-9649976D01*
X13900630Y-9642507D01*
X13906440Y-9632443D01*
X13908458Y-9621000D01*
X13908452Y-9620963D01*
X13907553Y-9615865D01*
X13906440Y-9609557D01*
X13900630Y-9599493D01*
X13900630Y-9599493D01*
X13900630Y-9599493D01*
X13891729Y-9592024D01*
X13891729Y-9592024D01*
X13880810Y-9588050D01*
X13880810Y-9588050D01*
X13880521Y-9588050D01*
X13880088Y-9587923D01*
X13879741Y-9587862D01*
X13879748Y-9587823D01*
X13873817Y-9586082D01*
X13871753Y-9584418D01*
X13849370Y-9562035D01*
X13847828Y-9560156D01*
X13847724Y-9560000D01*
X13847033Y-9558967D01*
X13844763Y-9557450D01*
X13844763Y-9557450D01*
X13838301Y-9553132D01*
X13838301Y-9553132D01*
X13833150Y-9552107D01*
X13828000Y-9551083D01*
X13828000Y-9551083D01*
X13828000Y-9551083D01*
X13826910Y-9551300D01*
X13826598Y-9551362D01*
X13824179Y-9551600D01*
X13711821Y-9551600D01*
X13709402Y-9551362D01*
X13708656Y-9551213D01*
X13706802Y-9550845D01*
X13706865Y-9550527D01*
X13702055Y-9549114D01*
X13697480Y-9543834D01*
X13696548Y-9540836D01*
X13696414Y-9540076D01*
X13695440Y-9534557D01*
X13690880Y-9526658D01*
X13689631Y-9524494D01*
X13689631Y-9524494D01*
X13689630Y-9524493D01*
X13689630Y-9524493D01*
X13689630Y-9524493D01*
X13680729Y-9517024D01*
X13680729Y-9517024D01*
X13669810Y-9513050D01*
X13658190Y-9513050D01*
X13647271Y-9517024D01*
X13638888Y-9524058D01*
X13638369Y-9524494D01*
X13638369Y-9524494D01*
X13632560Y-9534556D01*
X13632559Y-9534557D01*
X13630542Y-9546000D01*
X13630542Y-9546000D01*
X13632559Y-9557443D01*
X13632560Y-9557444D01*
X13638369Y-9567506D01*
X13638370Y-9567507D01*
X13642787Y-9571213D01*
X13647271Y-9574976D01*
X13648349Y-9575368D01*
X13653975Y-9579510D01*
X13656469Y-9586037D01*
X13655038Y-9592876D01*
X13652876Y-9595788D01*
X13618374Y-9630291D01*
X13613847Y-9633175D01*
X13603271Y-9637024D01*
X13601025Y-9638909D01*
X13595448Y-9643588D01*
X13594369Y-9644494D01*
X13594369Y-9644494D01*
X13588560Y-9654556D01*
X13588559Y-9654557D01*
X13586542Y-9666000D01*
X13586542Y-9666000D01*
X13588559Y-9677443D01*
X13588560Y-9677444D01*
X13592836Y-9684850D01*
X13594483Y-9691640D01*
X13592198Y-9698243D01*
X13586706Y-9702562D01*
X13582097Y-9703450D01*
X13577856Y-9703450D01*
X13571153Y-9701482D01*
X13569088Y-9699818D01*
X13554571Y-9685301D01*
X13553029Y-9683422D01*
X13552762Y-9683022D01*
X13552171Y-9682138D01*
X13552171Y-9682137D01*
X13550378Y-9680939D01*
X13550377Y-9680939D01*
X13548972Y-9680000D01*
X13546913Y-9678624D01*
X13543058Y-9676049D01*
X13543058Y-9676048D01*
X13543058Y-9676048D01*
X13543058Y-9676048D01*
X13534426Y-9674331D01*
X13534424Y-9674331D01*
X13533605Y-9674168D01*
X13527414Y-9670930D01*
X13523957Y-9664858D01*
X13524331Y-9657881D01*
X13528054Y-9652508D01*
X13531630Y-9649507D01*
X13537440Y-9639443D01*
X13539458Y-9628000D01*
X13537440Y-9616557D01*
X13533399Y-9609557D01*
X13531631Y-9606494D01*
X13531631Y-9606494D01*
X13531630Y-9606493D01*
X13531630Y-9606493D01*
X13531630Y-9606493D01*
X13522729Y-9599024D01*
X13522729Y-9599024D01*
X13511810Y-9595050D01*
X13500190Y-9595050D01*
X13489271Y-9599024D01*
X13482864Y-9604400D01*
X13480369Y-9606494D01*
X13480369Y-9606494D01*
X13474560Y-9616556D01*
X13474559Y-9616557D01*
X13472542Y-9628000D01*
X13472542Y-9628000D01*
X13474559Y-9639443D01*
X13474560Y-9639444D01*
X13480369Y-9649506D01*
X13480369Y-9649506D01*
X13480369Y-9649507D01*
X13483409Y-9652057D01*
X13483998Y-9652551D01*
X13487868Y-9658368D01*
X13487979Y-9665354D01*
X13484295Y-9671291D01*
X13477986Y-9674294D01*
X13476027Y-9674450D01*
X13473002Y-9674450D01*
X13466298Y-9672482D01*
X13462263Y-9668250D01*
X13456631Y-9658494D01*
X13456631Y-9658494D01*
X13456630Y-9658493D01*
X13456630Y-9658493D01*
X13456630Y-9658493D01*
X13447729Y-9651024D01*
X13447729Y-9651024D01*
X13436810Y-9647050D01*
X13425190Y-9647050D01*
X13414271Y-9651024D01*
X13407178Y-9656976D01*
X13405369Y-9658494D01*
X13402124Y-9664115D01*
X13397067Y-9668936D01*
X13390206Y-9670259D01*
X13383720Y-9667662D01*
X13379667Y-9661970D01*
X13379111Y-9659680D01*
X13379001Y-9658912D01*
X13378096Y-9656930D01*
X13372963Y-9645690D01*
X13372962Y-9645690D01*
X13363444Y-9634704D01*
X13351215Y-9626845D01*
X13337517Y-9622823D01*
X13337268Y-9622750D01*
X13337268Y-9622750D01*
X13322732Y-9622750D01*
X13322732Y-9622750D01*
X13317976Y-9624146D01*
X13308785Y-9626845D01*
X13308785Y-9626845D01*
X13308785Y-9626845D01*
X13296556Y-9634704D01*
X13287037Y-9645690D01*
X13287037Y-9645690D01*
X13281279Y-9658298D01*
X13276704Y-9663578D01*
X13270000Y-9665547D01*
X13263296Y-9663578D01*
X13258721Y-9658298D01*
X13258721Y-9658298D01*
X13252963Y-9645690D01*
X13252962Y-9645690D01*
X13243444Y-9634704D01*
X13231215Y-9626845D01*
X13217517Y-9622823D01*
X13217268Y-9622750D01*
X13217268Y-9622750D01*
X13202732Y-9622750D01*
X13202732Y-9622750D01*
X13197976Y-9624146D01*
X13188785Y-9626845D01*
X13188785Y-9626845D01*
X13188785Y-9626845D01*
X13176556Y-9634704D01*
X13167037Y-9645690D01*
X13167037Y-9645690D01*
X13161279Y-9658298D01*
X13156704Y-9663578D01*
X13150000Y-9665547D01*
X13143296Y-9663578D01*
X13138721Y-9658298D01*
X13138721Y-9658298D01*
X13132963Y-9645690D01*
X13132962Y-9645690D01*
X13123444Y-9634704D01*
X13111215Y-9626845D01*
X13097517Y-9622823D01*
X13097268Y-9622750D01*
X13097268Y-9622750D01*
X13082732Y-9622750D01*
X13082732Y-9622750D01*
X13077976Y-9624146D01*
X13068785Y-9626845D01*
X13068785Y-9626845D01*
X13068785Y-9626845D01*
X13056556Y-9634704D01*
X13047037Y-9645690D01*
X13047037Y-9645690D01*
X13041279Y-9658298D01*
X13036704Y-9663578D01*
X13030000Y-9665547D01*
X13023296Y-9663578D01*
X13018721Y-9658298D01*
X13018721Y-9658298D01*
X13012963Y-9645690D01*
X13012962Y-9645690D01*
X13003444Y-9634704D01*
X12991215Y-9626845D01*
X12977517Y-9622823D01*
X12977268Y-9622750D01*
X12977268Y-9622750D01*
X12962732Y-9622750D01*
X12962732Y-9622750D01*
X12957976Y-9624146D01*
X12948785Y-9626845D01*
X12948785Y-9626845D01*
X12948785Y-9626845D01*
X12936556Y-9634704D01*
X12927037Y-9645690D01*
X12927037Y-9645690D01*
X12920999Y-9658912D01*
X12920749Y-9659764D01*
X12920456Y-9659678D01*
X12918185Y-9664649D01*
X12912307Y-9668426D01*
X12905320Y-9668426D01*
X12899442Y-9664648D01*
X12898075Y-9662728D01*
X12895631Y-9658494D01*
X12895631Y-9658494D01*
X12895630Y-9658493D01*
X12895630Y-9658493D01*
X12895630Y-9658493D01*
X12886729Y-9651024D01*
X12886729Y-9651024D01*
X12875810Y-9647050D01*
X12864190Y-9647050D01*
X12860052Y-9648556D01*
X12853270Y-9651024D01*
X12852331Y-9651567D01*
X12852199Y-9651338D01*
X12847258Y-9653500D01*
X12845688Y-9653600D01*
X12635745Y-9653600D01*
X12629042Y-9651632D01*
X12628192Y-9650651D01*
X12628073Y-9650824D01*
X12621629Y-9653524D01*
X12620254Y-9653600D01*
X12553846Y-9653600D01*
X12547142Y-9651632D01*
X12545875Y-9650699D01*
X12543419Y-9648637D01*
X12536729Y-9643024D01*
X12525810Y-9639050D01*
X12514190Y-9639050D01*
X12504693Y-9642507D01*
X12503271Y-9643024D01*
X12494369Y-9650494D01*
X12494369Y-9650494D01*
X12488560Y-9660556D01*
X12488559Y-9660557D01*
X12486542Y-9672000D01*
X12486542Y-9672000D01*
X12488559Y-9683443D01*
X12488560Y-9683444D01*
X12494369Y-9693506D01*
X12494370Y-9693507D01*
X12503271Y-9700976D01*
X12503433Y-9701070D01*
X12505838Y-9702288D01*
X12509699Y-9704868D01*
X12520000Y-9706917D01*
X12521581Y-9706603D01*
X12526419Y-9706603D01*
X12528000Y-9706917D01*
X12529402Y-9706638D01*
X12531821Y-9706400D01*
X12616180Y-9706400D01*
X12622884Y-9708369D01*
X12627459Y-9713649D01*
X12628454Y-9720565D01*
X12625551Y-9726920D01*
X12623998Y-9728203D01*
X12624102Y-9728327D01*
X12623271Y-9729024D01*
X12623271Y-9729024D01*
X12615500Y-9735545D01*
X12614369Y-9736494D01*
X12614369Y-9736494D01*
X12608560Y-9746556D01*
X12608559Y-9746557D01*
X12606542Y-9758000D01*
X12606542Y-9758000D01*
X12608559Y-9769443D01*
X12608560Y-9769444D01*
X12614369Y-9779506D01*
X12614370Y-9779507D01*
X12618473Y-9782950D01*
X12623271Y-9786976D01*
X12634190Y-9790950D01*
X12634190Y-9790950D01*
X12646895Y-9790950D01*
X12646895Y-9791091D01*
X12652685Y-9791736D01*
X12658108Y-9796142D01*
X12660288Y-9802780D01*
X12660295Y-9803174D01*
X12660295Y-9803728D01*
X12662312Y-9815171D01*
X12662312Y-9815171D01*
X12668122Y-9825234D01*
X12668123Y-9825234D01*
X12671276Y-9827880D01*
X12677024Y-9832703D01*
X12687943Y-9836678D01*
X12687944Y-9836678D01*
X12688849Y-9836837D01*
X12695109Y-9839940D01*
X12698698Y-9845935D01*
X12698477Y-9852918D01*
X12695464Y-9857817D01*
X12679214Y-9874067D01*
X12677335Y-9875609D01*
X12675672Y-9876720D01*
X12669004Y-9878808D01*
X12662266Y-9876960D01*
X12660812Y-9875909D01*
X12660454Y-9875609D01*
X12654098Y-9870275D01*
X12643178Y-9866301D01*
X12631558Y-9866301D01*
X12620639Y-9870275D01*
X12611962Y-9877556D01*
X12611738Y-9877744D01*
X12611738Y-9877744D01*
X12605928Y-9887807D01*
X12605928Y-9887808D01*
X12603910Y-9899251D01*
X12603910Y-9899251D01*
X12605928Y-9910694D01*
X12605928Y-9910694D01*
X12611738Y-9920757D01*
X12611738Y-9920758D01*
X12612631Y-9921507D01*
X12620639Y-9928226D01*
X12631558Y-9932201D01*
X12631559Y-9932201D01*
X12643178Y-9932201D01*
X12643178Y-9932201D01*
X12652809Y-9928695D01*
X12659782Y-9928252D01*
X12665887Y-9931649D01*
X12669187Y-9937808D01*
X12669450Y-9940348D01*
X12669450Y-10020361D01*
X12669212Y-10022780D01*
X12668969Y-10024000D01*
X12668969Y-10024000D01*
X12670874Y-10033579D01*
X12670874Y-10033579D01*
X12670874Y-10033579D01*
X12673160Y-10037000D01*
X12673160Y-10037000D01*
X12676300Y-10041700D01*
X12677335Y-10042391D01*
X12679214Y-10043933D01*
X12714816Y-10079535D01*
X12718165Y-10085668D01*
X12717666Y-10092637D01*
X12713479Y-10098230D01*
X12706933Y-10100672D01*
X12704108Y-10100551D01*
X12698798Y-10099710D01*
X12695000Y-10099108D01*
X12695000Y-10099108D01*
X12695000Y-10099108D01*
X12683909Y-10100865D01*
X12673903Y-10105963D01*
X12665963Y-10113903D01*
X12660865Y-10123909D01*
X12659108Y-10135000D01*
X12659108Y-10135000D01*
X12660865Y-10146091D01*
X12665963Y-10156097D01*
X12673903Y-10164037D01*
X12683909Y-10169135D01*
X12695000Y-10170892D01*
X12695000Y-10170892D01*
X12695000Y-10170892D01*
X12698245Y-10170378D01*
X12701524Y-10169859D01*
X12708453Y-10170754D01*
X12713798Y-10175254D01*
X12715862Y-10181929D01*
X12713990Y-10188660D01*
X12712232Y-10190874D01*
X12691288Y-10211818D01*
X12685155Y-10215167D01*
X12682520Y-10215450D01*
X12630720Y-10215450D01*
X12624016Y-10213482D01*
X12621952Y-10211818D01*
X12621096Y-10210963D01*
X12611091Y-10205865D01*
X12600000Y-10204108D01*
X12600000Y-10204108D01*
X12588909Y-10205865D01*
X12578903Y-10210963D01*
X12570963Y-10218903D01*
X12565865Y-10228909D01*
X12565010Y-10234306D01*
X12562017Y-10240619D01*
X12561531Y-10241134D01*
X12532368Y-10270297D01*
X12530489Y-10271839D01*
X12529300Y-10272633D01*
X12526805Y-10276366D01*
X12526805Y-10276367D01*
X12523465Y-10281366D01*
X12521416Y-10291667D01*
X12521695Y-10293069D01*
X12521933Y-10295488D01*
X12521933Y-10357248D01*
X12519965Y-10363952D01*
X12515296Y-10368227D01*
X12508248Y-10371927D01*
X12495881Y-10382883D01*
X12495515Y-10383207D01*
X12485852Y-10397207D01*
X12482288Y-10406604D01*
X12478070Y-10412174D01*
X12471510Y-10414580D01*
X12464691Y-10413057D01*
X12459778Y-10408090D01*
X12458827Y-10405807D01*
X12454502Y-10391546D01*
X12447874Y-10379148D01*
X12397022Y-10430000D01*
X12397022Y-10430000D01*
X12447874Y-10480852D01*
X12447874Y-10480852D01*
X12454502Y-10468454D01*
X12458827Y-10454193D01*
X12462657Y-10448350D01*
X12469038Y-10445504D01*
X12475945Y-10446560D01*
X12481184Y-10451182D01*
X12482288Y-10453396D01*
X12485852Y-10462793D01*
X12485852Y-10462793D01*
X12488128Y-10466091D01*
X12495515Y-10476793D01*
X12502938Y-10483369D01*
X12508248Y-10488074D01*
X12521027Y-10494780D01*
X12523311Y-10495979D01*
X12539828Y-10500050D01*
X12556839Y-10500050D01*
X12573356Y-10495979D01*
X12582668Y-10491092D01*
X12588418Y-10488074D01*
X12588418Y-10488073D01*
X12588419Y-10488073D01*
X12601152Y-10476793D01*
X12610815Y-10462793D01*
X12616847Y-10446887D01*
X12618898Y-10430000D01*
X12616847Y-10413113D01*
X12615667Y-10410000D01*
X12612676Y-10402115D01*
X12610815Y-10397207D01*
X12610272Y-10396420D01*
X12604800Y-10388493D01*
X12601152Y-10383207D01*
X12588419Y-10371927D01*
X12581371Y-10368227D01*
X12576349Y-10363369D01*
X12574733Y-10357248D01*
X12574733Y-10307738D01*
X12576702Y-10301034D01*
X12578365Y-10298970D01*
X12598866Y-10278469D01*
X12604998Y-10275121D01*
X12605690Y-10274991D01*
X12611091Y-10274135D01*
X12621097Y-10269037D01*
X12621952Y-10268182D01*
X12628084Y-10264833D01*
X12630720Y-10264550D01*
X12681862Y-10264550D01*
X12688566Y-10266519D01*
X12693142Y-10271799D01*
X12694110Y-10275010D01*
X12695865Y-10286091D01*
X12700963Y-10296097D01*
X12708903Y-10304037D01*
X12718909Y-10309135D01*
X12730000Y-10310892D01*
X12730000Y-10310892D01*
X12730000Y-10310892D01*
X12741091Y-10309135D01*
X12741091Y-10309135D01*
X12741091Y-10309135D01*
X12751097Y-10304037D01*
X12759037Y-10296097D01*
X12764135Y-10286091D01*
X12764135Y-10286091D01*
X12764135Y-10286091D01*
X12765892Y-10275000D01*
X12765892Y-10275000D01*
X12764135Y-10263909D01*
X12759037Y-10253903D01*
X12751097Y-10245963D01*
X12750063Y-10245436D01*
X12744983Y-10240639D01*
X12743304Y-10233857D01*
X12745557Y-10227243D01*
X12746924Y-10225619D01*
X12753162Y-10219381D01*
X12764362Y-10208182D01*
X12770494Y-10204833D01*
X12773130Y-10204550D01*
X12846251Y-10204550D01*
X12852955Y-10206519D01*
X12857531Y-10211799D01*
X12858525Y-10218715D01*
X12858463Y-10219103D01*
X12856542Y-10230000D01*
X12856542Y-10230000D01*
X12858559Y-10241443D01*
X12858560Y-10241444D01*
X12864369Y-10251506D01*
X12864370Y-10251507D01*
X12867226Y-10253903D01*
X12873271Y-10258976D01*
X12875534Y-10259799D01*
X12881160Y-10263942D01*
X12883654Y-10270469D01*
X12882223Y-10277308D01*
X12880061Y-10280220D01*
X12790239Y-10370042D01*
X12784107Y-10373391D01*
X12777137Y-10372892D01*
X12775708Y-10372254D01*
X12760023Y-10364021D01*
X12743506Y-10359950D01*
X12726494Y-10359950D01*
X12709977Y-10364021D01*
X12694915Y-10371926D01*
X12684172Y-10381443D01*
X12682548Y-10382883D01*
X12682182Y-10383207D01*
X12672518Y-10397207D01*
X12666486Y-10413113D01*
X12666486Y-10413113D01*
X12664435Y-10430000D01*
X12666486Y-10446887D01*
X12666486Y-10446887D01*
X12672518Y-10462793D01*
X12674795Y-10466091D01*
X12682182Y-10476793D01*
X12689604Y-10483369D01*
X12694915Y-10488074D01*
X12707693Y-10494780D01*
X12709977Y-10495979D01*
X12726494Y-10500050D01*
X12743506Y-10500050D01*
X12760022Y-10495979D01*
X12769335Y-10491092D01*
X12775085Y-10488074D01*
X12775085Y-10488073D01*
X12775085Y-10488073D01*
X12787818Y-10476793D01*
X12797482Y-10462793D01*
X12803514Y-10446887D01*
X12805564Y-10430000D01*
X12805564Y-10430000D01*
X12805564Y-10429291D01*
X12807533Y-10422587D01*
X12809196Y-10420522D01*
X12821629Y-10408090D01*
X12834635Y-10395083D01*
X12840767Y-10391735D01*
X12847736Y-10392234D01*
X12853330Y-10396421D01*
X12855772Y-10402967D01*
X12854997Y-10408249D01*
X12853153Y-10413113D01*
X12853153Y-10413113D01*
X12851102Y-10430000D01*
X12853153Y-10446887D01*
X12853153Y-10446887D01*
X12859185Y-10462793D01*
X12861462Y-10466091D01*
X12868848Y-10476793D01*
X12881582Y-10488073D01*
X12881582Y-10488074D01*
X12890479Y-10492743D01*
X12895501Y-10497602D01*
X12897117Y-10503723D01*
X12897117Y-10693028D01*
X12895148Y-10699732D01*
X12893485Y-10701796D01*
X12834243Y-10761038D01*
X12828110Y-10764387D01*
X12827414Y-10764518D01*
X12818909Y-10765865D01*
X12808903Y-10770963D01*
X12800963Y-10778903D01*
X12795865Y-10788909D01*
X12794108Y-10800000D01*
X12794108Y-10800000D01*
X12795865Y-10811091D01*
X12800963Y-10821097D01*
X12808903Y-10829037D01*
X12818909Y-10834135D01*
X12830000Y-10835892D01*
X12830000Y-10835892D01*
X12830000Y-10835892D01*
X12841091Y-10834135D01*
X12841091Y-10834135D01*
X12841091Y-10834135D01*
X12851097Y-10829037D01*
X12859037Y-10821097D01*
X12864135Y-10811091D01*
X12864135Y-10811091D01*
X12864437Y-10810163D01*
X12864757Y-10810267D01*
X12867011Y-10805509D01*
X12872942Y-10801815D01*
X12879928Y-10801914D01*
X12885752Y-10805774D01*
X12888133Y-10810162D01*
X12892165Y-10823454D01*
X12898792Y-10835852D01*
X12949645Y-10785000D01*
X13020355Y-10785000D01*
X13071207Y-10835852D01*
X13071208Y-10835852D01*
X13077835Y-10823454D01*
X13083553Y-10804603D01*
X13085484Y-10785000D01*
X13083553Y-10765397D01*
X13077835Y-10746546D01*
X13071207Y-10734148D01*
X13020355Y-10785000D01*
X13020355Y-10785000D01*
X12949645Y-10785000D01*
X12985000Y-10749645D01*
X13035852Y-10698792D01*
X13023454Y-10692165D01*
X13004603Y-10686447D01*
X13004603Y-10686447D01*
X12985000Y-10684516D01*
X12965396Y-10686447D01*
X12962216Y-10687412D01*
X12955229Y-10687474D01*
X12949318Y-10683749D01*
X12946359Y-10677420D01*
X12946217Y-10675546D01*
X12946217Y-10503723D01*
X12948185Y-10497019D01*
X12952854Y-10492743D01*
X12955475Y-10491368D01*
X12961752Y-10488073D01*
X12974485Y-10476793D01*
X12984149Y-10462793D01*
X12990181Y-10446887D01*
X12992231Y-10430000D01*
X12990181Y-10413113D01*
X12984616Y-10398441D01*
X12984080Y-10391475D01*
X12987395Y-10385324D01*
X12987424Y-10385295D01*
X13021139Y-10351580D01*
X13027271Y-10348231D01*
X13027754Y-10348136D01*
X13028810Y-10347950D01*
X13028810Y-10347950D01*
X13039729Y-10343976D01*
X13048630Y-10336507D01*
X13054440Y-10326443D01*
X13056458Y-10315000D01*
X13056164Y-10313332D01*
X13055289Y-10308368D01*
X13054440Y-10303557D01*
X13050056Y-10295963D01*
X13048631Y-10293494D01*
X13048630Y-10293493D01*
X13039729Y-10286024D01*
X13036211Y-10284744D01*
X13030585Y-10280601D01*
X13028092Y-10274074D01*
X13029523Y-10267236D01*
X13030268Y-10266135D01*
X13030630Y-10265507D01*
X13030630Y-10265507D01*
X13036440Y-10255443D01*
X13038458Y-10244000D01*
X13038226Y-10242685D01*
X13036789Y-10234533D01*
X13036440Y-10232557D01*
X13034561Y-10229301D01*
X13032913Y-10222511D01*
X13035199Y-10215908D01*
X13038410Y-10212791D01*
X13041829Y-10210506D01*
X13041829Y-10210506D01*
X13043921Y-10209108D01*
X13044033Y-10209033D01*
X13044828Y-10207845D01*
X13046369Y-10205966D01*
X13089966Y-10162369D01*
X13091844Y-10160828D01*
X13093033Y-10160033D01*
X13093922Y-10158703D01*
X13093923Y-10158702D01*
X13094506Y-10157829D01*
X13094506Y-10157829D01*
X13098021Y-10152569D01*
X13103382Y-10148089D01*
X13110314Y-10147218D01*
X13116617Y-10150233D01*
X13117099Y-10150690D01*
X13172689Y-10206280D01*
X13176037Y-10212412D01*
X13175539Y-10219381D01*
X13171351Y-10224975D01*
X13168162Y-10226700D01*
X13167271Y-10227024D01*
X13158369Y-10234494D01*
X13158369Y-10234494D01*
X13152560Y-10244556D01*
X13152559Y-10244557D01*
X13150542Y-10256000D01*
X13150542Y-10256000D01*
X13152415Y-10266625D01*
X13152559Y-10267443D01*
X13153105Y-10268388D01*
X13153251Y-10268641D01*
X13154898Y-10275431D01*
X13152613Y-10282033D01*
X13151599Y-10283278D01*
X13150000Y-10285000D01*
X13150000Y-10304739D01*
X13148031Y-10311443D01*
X13142751Y-10316018D01*
X13139754Y-10316951D01*
X13139190Y-10317050D01*
X13128271Y-10321024D01*
X13119369Y-10328494D01*
X13119369Y-10328494D01*
X13113560Y-10338556D01*
X13113559Y-10338557D01*
X13111542Y-10350000D01*
X13111542Y-10350000D01*
X13113559Y-10361443D01*
X13113560Y-10361444D01*
X13119369Y-10371506D01*
X13119370Y-10371507D01*
X13122347Y-10374005D01*
X13128271Y-10378976D01*
X13139190Y-10382950D01*
X13139190Y-10382950D01*
X13139753Y-10383049D01*
X13146013Y-10386152D01*
X13149603Y-10392147D01*
X13150000Y-10395261D01*
X13150000Y-10554650D01*
X13148031Y-10561354D01*
X13142751Y-10565929D01*
X13137600Y-10567050D01*
X13134190Y-10567050D01*
X13123271Y-10571024D01*
X13117226Y-10576097D01*
X13114369Y-10578494D01*
X13114369Y-10578494D01*
X13108560Y-10588556D01*
X13108559Y-10588557D01*
X13106542Y-10600000D01*
X13106542Y-10600000D01*
X13108559Y-10611443D01*
X13108560Y-10611444D01*
X13114369Y-10621506D01*
X13114370Y-10621507D01*
X13115204Y-10622207D01*
X13123271Y-10628976D01*
X13134190Y-10632950D01*
X13134190Y-10632950D01*
X13137600Y-10632950D01*
X13144304Y-10634919D01*
X13148879Y-10640199D01*
X13150000Y-10645350D01*
X13150000Y-10725000D01*
X13240000Y-10815000D01*
X13365000Y-10815000D01*
X13365000Y-10815000D01*
X13413750Y-10776000D01*
X13697542Y-10776000D01*
X13699559Y-10787443D01*
X13699560Y-10787444D01*
X13705369Y-10797506D01*
X13705370Y-10797507D01*
X13708341Y-10800000D01*
X13714271Y-10804976D01*
X13725190Y-10808950D01*
X13725190Y-10808950D01*
X13736810Y-10808950D01*
X13736810Y-10808950D01*
X13747729Y-10804976D01*
X13756630Y-10797507D01*
X13762440Y-10787443D01*
X13764458Y-10776000D01*
X13762440Y-10764557D01*
X13756923Y-10755000D01*
X13756631Y-10754494D01*
X13756631Y-10754494D01*
X13756630Y-10754493D01*
X13756630Y-10754493D01*
X13756630Y-10754493D01*
X13747729Y-10747024D01*
X13747729Y-10747024D01*
X13736810Y-10743050D01*
X13725190Y-10743050D01*
X13714271Y-10747024D01*
X13706836Y-10753263D01*
X13705369Y-10754494D01*
X13705369Y-10754494D01*
X13699560Y-10764556D01*
X13699559Y-10764557D01*
X13697542Y-10776000D01*
X13697542Y-10776000D01*
X13413750Y-10776000D01*
X13440000Y-10755000D01*
X13440000Y-10494780D01*
X13441968Y-10488076D01*
X13447249Y-10483501D01*
X13454165Y-10482506D01*
X13454817Y-10482618D01*
X13457994Y-10483250D01*
X13457994Y-10483250D01*
X13458590Y-10483369D01*
X13458591Y-10483369D01*
X13460594Y-10483767D01*
X13461996Y-10483488D01*
X13464415Y-10483250D01*
X13671440Y-10483250D01*
X13678144Y-10485219D01*
X13682719Y-10490499D01*
X13683713Y-10497415D01*
X13680811Y-10503770D01*
X13679030Y-10505241D01*
X13679102Y-10505327D01*
X13678271Y-10506024D01*
X13678271Y-10506024D01*
X13670359Y-10512663D01*
X13669369Y-10513494D01*
X13669369Y-10513494D01*
X13663560Y-10523556D01*
X13663559Y-10523557D01*
X13661542Y-10535000D01*
X13661542Y-10535000D01*
X13663559Y-10546443D01*
X13663560Y-10546444D01*
X13669369Y-10556506D01*
X13669370Y-10556507D01*
X13672341Y-10559000D01*
X13678271Y-10563976D01*
X13689190Y-10567950D01*
X13689190Y-10567950D01*
X13700810Y-10567950D01*
X13700810Y-10567950D01*
X13711729Y-10563976D01*
X13720630Y-10556507D01*
X13726440Y-10546443D01*
X13728458Y-10535000D01*
X13728265Y-10533903D01*
X13727646Y-10530395D01*
X13726440Y-10523557D01*
X13721300Y-10514653D01*
X13720631Y-10513494D01*
X13720631Y-10513494D01*
X13720630Y-10513493D01*
X13720630Y-10513493D01*
X13720630Y-10513493D01*
X13710898Y-10505327D01*
X13711109Y-10505076D01*
X13707539Y-10501332D01*
X13706217Y-10494471D01*
X13708813Y-10487985D01*
X13714505Y-10483932D01*
X13718560Y-10483250D01*
X13875779Y-10483250D01*
X13882482Y-10485219D01*
X13884547Y-10486882D01*
X13998547Y-10600882D01*
X14001895Y-10607014D01*
X14001397Y-10613983D01*
X13997210Y-10619577D01*
X13990663Y-10622018D01*
X13989779Y-10622050D01*
X13979190Y-10622050D01*
X13978759Y-10622207D01*
X13968271Y-10626024D01*
X13959369Y-10633494D01*
X13959369Y-10633494D01*
X13953560Y-10643556D01*
X13953559Y-10643557D01*
X13951542Y-10655000D01*
X13951542Y-10655000D01*
X13953559Y-10666443D01*
X13953560Y-10666444D01*
X13959369Y-10676506D01*
X13959369Y-10676506D01*
X13959369Y-10676507D01*
X13968271Y-10683976D01*
X13979190Y-10687950D01*
X13979190Y-10687950D01*
X13990810Y-10687950D01*
X13990810Y-10687950D01*
X14001729Y-10683976D01*
X14010630Y-10676507D01*
X14016440Y-10666443D01*
X14018458Y-10655000D01*
X14017965Y-10652201D01*
X14018739Y-10645257D01*
X14023145Y-10639834D01*
X14029783Y-10637654D01*
X14036546Y-10639409D01*
X14038944Y-10641280D01*
X14055583Y-10657919D01*
X14058932Y-10664051D01*
X14058433Y-10671020D01*
X14055583Y-10675455D01*
X14023301Y-10707737D01*
X14021422Y-10709279D01*
X14020138Y-10710137D01*
X14020137Y-10710138D01*
X14013370Y-10720266D01*
X14013080Y-10720072D01*
X14009986Y-10723910D01*
X14008679Y-10724702D01*
X13994915Y-10731927D01*
X13982182Y-10743207D01*
X13972518Y-10757207D01*
X13966486Y-10773113D01*
X13966486Y-10773113D01*
X13965113Y-10784419D01*
X13963510Y-10788143D01*
X13964428Y-10790042D01*
X13964506Y-10790581D01*
X13966486Y-10806887D01*
X13966486Y-10806887D01*
X13972518Y-10822793D01*
X13978730Y-10831793D01*
X13982182Y-10836793D01*
X13994915Y-10848073D01*
X13994915Y-10848074D01*
X13995135Y-10848268D01*
X13998848Y-10854187D01*
X13998771Y-10861174D01*
X13994929Y-10867010D01*
X13988542Y-10869842D01*
X13986912Y-10869950D01*
X13909185Y-10869950D01*
X13902481Y-10867982D01*
X13897906Y-10862701D01*
X13896911Y-10855785D01*
X13899814Y-10849430D01*
X13903422Y-10846570D01*
X13910085Y-10843074D01*
X13910085Y-10843073D01*
X13910085Y-10843073D01*
X13922818Y-10831793D01*
X13932482Y-10817793D01*
X13938514Y-10801887D01*
X13939887Y-10790581D01*
X13941489Y-10786857D01*
X13940571Y-10784958D01*
X13940494Y-10784421D01*
X13938514Y-10768113D01*
X13937802Y-10766236D01*
X13934378Y-10757207D01*
X13932482Y-10752207D01*
X13930713Y-10749645D01*
X13923037Y-10738524D01*
X13921080Y-10733899D01*
X13920951Y-10733251D01*
X13920951Y-10733250D01*
X13920951Y-10733250D01*
X13916062Y-10725933D01*
X13916061Y-10725932D01*
X13914862Y-10724138D01*
X13914862Y-10724137D01*
X13914862Y-10724137D01*
X13913577Y-10723279D01*
X13911698Y-10721737D01*
X13862045Y-10672083D01*
X13858696Y-10665951D01*
X13858601Y-10665468D01*
X13858440Y-10664557D01*
X13858440Y-10664556D01*
X13852631Y-10654494D01*
X13852631Y-10654494D01*
X13852630Y-10654493D01*
X13852630Y-10654493D01*
X13852630Y-10654493D01*
X13845026Y-10648113D01*
X13843729Y-10647024D01*
X13832810Y-10643050D01*
X13821190Y-10643050D01*
X13810271Y-10647024D01*
X13802996Y-10653129D01*
X13801369Y-10654494D01*
X13801369Y-10654494D01*
X13795560Y-10664556D01*
X13795559Y-10664557D01*
X13793542Y-10676000D01*
X13793542Y-10676000D01*
X13795559Y-10687443D01*
X13795560Y-10687444D01*
X13801369Y-10697506D01*
X13801370Y-10697507D01*
X13801711Y-10697793D01*
X13810271Y-10704976D01*
X13818290Y-10707894D01*
X13822817Y-10710779D01*
X13825399Y-10713361D01*
X13828747Y-10719493D01*
X13828249Y-10726462D01*
X13824854Y-10731410D01*
X13817182Y-10738207D01*
X13807518Y-10752207D01*
X13801486Y-10768113D01*
X13801486Y-10768113D01*
X13799435Y-10785000D01*
X13801486Y-10801887D01*
X13801486Y-10801887D01*
X13807518Y-10817793D01*
X13811659Y-10823792D01*
X13817182Y-10831793D01*
X13822826Y-10836793D01*
X13829915Y-10843074D01*
X13836578Y-10846570D01*
X13841599Y-10851429D01*
X13843196Y-10858231D01*
X13840863Y-10864817D01*
X13835339Y-10869095D01*
X13830815Y-10869950D01*
X13039731Y-10869950D01*
X13033027Y-10867982D01*
X13030963Y-10866318D01*
X12985000Y-10820355D01*
X12939037Y-10866318D01*
X12932905Y-10869667D01*
X12930269Y-10869950D01*
X12500195Y-10869950D01*
X12499806Y-10869944D01*
X12439486Y-10868048D01*
X12438708Y-10867999D01*
X12378820Y-10862338D01*
X12378047Y-10862241D01*
X12318635Y-10852831D01*
X12317870Y-10852685D01*
X12259162Y-10839562D01*
X12258408Y-10839368D01*
X12200644Y-10822586D01*
X12199903Y-10822345D01*
X12143305Y-10801969D01*
X12142580Y-10801682D01*
X12111289Y-10788141D01*
X12109642Y-10787276D01*
X11991377Y-10713361D01*
X11914000Y-10665000D01*
X12289435Y-10665000D01*
X12291486Y-10681887D01*
X12291486Y-10681887D01*
X12297518Y-10697793D01*
X12303747Y-10706818D01*
X12307182Y-10711793D01*
X12316170Y-10719756D01*
X12319915Y-10723074D01*
X12334977Y-10730979D01*
X12334977Y-10730979D01*
X12351494Y-10735050D01*
X12368506Y-10735050D01*
X12385022Y-10730979D01*
X12394642Y-10725930D01*
X12400085Y-10723074D01*
X12400085Y-10723073D01*
X12400085Y-10723073D01*
X12412818Y-10711793D01*
X12422482Y-10697793D01*
X12428514Y-10681887D01*
X12430564Y-10665000D01*
X12428514Y-10648113D01*
X12428228Y-10647359D01*
X12422970Y-10633494D01*
X12422482Y-10632207D01*
X12420251Y-10628976D01*
X12412818Y-10618207D01*
X12410202Y-10615889D01*
X12406490Y-10609971D01*
X12406566Y-10602984D01*
X12409657Y-10597840D01*
X12414999Y-10592498D01*
X12420230Y-10589642D01*
X12420163Y-10589437D01*
X12421091Y-10589135D01*
X12421091Y-10589135D01*
X12421091Y-10589135D01*
X12421092Y-10589135D01*
X12431096Y-10584037D01*
X12431096Y-10584037D01*
X12431097Y-10584037D01*
X12439037Y-10576097D01*
X12444135Y-10566091D01*
X12444135Y-10566091D01*
X12444135Y-10566091D01*
X12445892Y-10555000D01*
X12445892Y-10555000D01*
X12444135Y-10543909D01*
X12439037Y-10533903D01*
X12431096Y-10525963D01*
X12424202Y-10522450D01*
X12421091Y-10520865D01*
X12421091Y-10520865D01*
X12421091Y-10520865D01*
X12420419Y-10520758D01*
X12414105Y-10517765D01*
X12413590Y-10517279D01*
X12361667Y-10465355D01*
X12361667Y-10465355D01*
X12310814Y-10516208D01*
X12323213Y-10522835D01*
X12342064Y-10528553D01*
X12342063Y-10528553D01*
X12361667Y-10530484D01*
X12362083Y-10530484D01*
X12368787Y-10532452D01*
X12373362Y-10537733D01*
X12374356Y-10544649D01*
X12371454Y-10551004D01*
X12370851Y-10551652D01*
X12343499Y-10579004D01*
X12342203Y-10580131D01*
X12341577Y-10580604D01*
X12338452Y-10584032D01*
X12338057Y-10584445D01*
X12336783Y-10585720D01*
X12336475Y-10586091D01*
X12335808Y-10586932D01*
X12334008Y-10588907D01*
X12334008Y-10588907D01*
X12333758Y-10589553D01*
X12332426Y-10592080D01*
X12332034Y-10592652D01*
X12332034Y-10592652D01*
X12331423Y-10595252D01*
X12330915Y-10596892D01*
X12330523Y-10597903D01*
X12326266Y-10603443D01*
X12324723Y-10604403D01*
X12319915Y-10606926D01*
X12319915Y-10606927D01*
X12307182Y-10618207D01*
X12307182Y-10618207D01*
X12297518Y-10632207D01*
X12291486Y-10648113D01*
X12291486Y-10648113D01*
X12289435Y-10665000D01*
X11914000Y-10665000D01*
X11872744Y-10639215D01*
X11871117Y-10638002D01*
X11836315Y-10607320D01*
X11835747Y-10606787D01*
X11793213Y-10564253D01*
X11792680Y-10563685D01*
X11752897Y-10518561D01*
X11752401Y-10517960D01*
X11752249Y-10517765D01*
X11742806Y-10505591D01*
X11742504Y-10505185D01*
X11739762Y-10501332D01*
X11688983Y-10430000D01*
X12261183Y-10430000D01*
X12263114Y-10449603D01*
X12268832Y-10468454D01*
X12275459Y-10480852D01*
X12326311Y-10430000D01*
X12275459Y-10379148D01*
X12268832Y-10391547D01*
X12263114Y-10410397D01*
X12261183Y-10430000D01*
X11688983Y-10430000D01*
X11678281Y-10414966D01*
X11677711Y-10414089D01*
X11651637Y-10370000D01*
X11650225Y-10367613D01*
X11649850Y-10366930D01*
X11636128Y-10340000D01*
X11628485Y-10325000D01*
X11889108Y-10325000D01*
X11890865Y-10336091D01*
X11895963Y-10346097D01*
X11903903Y-10354037D01*
X11913909Y-10359135D01*
X11925000Y-10360892D01*
X11925000Y-10360892D01*
X11925000Y-10360892D01*
X11936091Y-10359135D01*
X11936091Y-10359135D01*
X11936091Y-10359135D01*
X11946097Y-10354037D01*
X11954037Y-10346097D01*
X11955211Y-10343792D01*
X12310814Y-10343792D01*
X12361667Y-10394645D01*
X12361667Y-10394645D01*
X12412519Y-10343792D01*
X12400120Y-10337165D01*
X12381270Y-10331447D01*
X12381270Y-10331447D01*
X12361667Y-10329516D01*
X12342063Y-10331447D01*
X12323213Y-10337165D01*
X12310814Y-10343792D01*
X11955211Y-10343792D01*
X11959135Y-10336091D01*
X11959135Y-10336091D01*
X11959135Y-10336091D01*
X11960892Y-10325000D01*
X11960892Y-10325000D01*
X11959135Y-10313909D01*
X11954037Y-10303903D01*
X11946096Y-10295963D01*
X11936091Y-10290865D01*
X11925000Y-10289108D01*
X11925000Y-10289108D01*
X11913909Y-10290865D01*
X11903903Y-10295963D01*
X11895963Y-10303903D01*
X11890865Y-10313909D01*
X11889108Y-10325000D01*
X11889108Y-10325000D01*
X11628485Y-10325000D01*
X11622540Y-10313332D01*
X11622208Y-10312627D01*
X11621546Y-10311097D01*
X11598317Y-10257419D01*
X11598031Y-10256695D01*
X11593821Y-10245000D01*
X12399108Y-10245000D01*
X12400865Y-10256091D01*
X12405963Y-10266097D01*
X12413903Y-10274037D01*
X12423909Y-10279135D01*
X12435000Y-10280892D01*
X12435000Y-10280892D01*
X12435000Y-10280892D01*
X12446091Y-10279135D01*
X12446091Y-10279135D01*
X12446091Y-10279135D01*
X12456097Y-10274037D01*
X12464037Y-10266097D01*
X12469135Y-10256091D01*
X12469135Y-10256091D01*
X12469135Y-10256091D01*
X12470892Y-10245000D01*
X12470892Y-10245000D01*
X12469135Y-10233909D01*
X12464037Y-10223903D01*
X12456096Y-10215963D01*
X12446091Y-10210865D01*
X12435000Y-10209108D01*
X12435000Y-10209108D01*
X12423909Y-10210865D01*
X12413903Y-10215963D01*
X12405963Y-10223903D01*
X12400865Y-10233909D01*
X12399108Y-10245000D01*
X12399108Y-10245000D01*
X11593821Y-10245000D01*
X11577654Y-10200097D01*
X11577414Y-10199356D01*
X11575714Y-10193506D01*
X11573738Y-10186704D01*
X11573541Y-10185935D01*
X11572222Y-10180000D01*
X11721542Y-10180000D01*
X11723559Y-10191443D01*
X11723560Y-10191444D01*
X11729369Y-10201506D01*
X11729369Y-10201506D01*
X11729369Y-10201507D01*
X11738271Y-10208976D01*
X11749190Y-10212950D01*
X11749190Y-10212950D01*
X11760810Y-10212950D01*
X11760810Y-10212950D01*
X11771729Y-10208976D01*
X11780630Y-10201507D01*
X11786440Y-10191443D01*
X11788458Y-10180000D01*
X11786440Y-10168557D01*
X11782309Y-10161400D01*
X11780631Y-10158494D01*
X11780631Y-10158494D01*
X11780630Y-10158493D01*
X11780630Y-10158493D01*
X11780630Y-10158493D01*
X11772059Y-10151301D01*
X11771729Y-10151024D01*
X11760810Y-10147050D01*
X11749190Y-10147050D01*
X11738271Y-10151024D01*
X11729708Y-10158210D01*
X11729369Y-10158494D01*
X11729369Y-10158494D01*
X11723560Y-10168556D01*
X11723559Y-10168557D01*
X11721542Y-10180000D01*
X11721542Y-10180000D01*
X11572222Y-10180000D01*
X11558445Y-10118001D01*
X11558912Y-10111030D01*
X11563074Y-10105418D01*
X11569609Y-10102947D01*
X11570458Y-10102912D01*
X11699000Y-10102000D01*
X11699910Y-9750000D01*
X12280542Y-9750000D01*
X12282559Y-9761443D01*
X12282560Y-9761444D01*
X12288369Y-9771506D01*
X12288370Y-9771507D01*
X12290580Y-9773362D01*
X12297271Y-9778976D01*
X12308190Y-9782950D01*
X12308190Y-9782950D01*
X12319810Y-9782950D01*
X12319810Y-9782950D01*
X12330729Y-9778976D01*
X12330730Y-9778975D01*
X12331669Y-9778433D01*
X12331801Y-9778662D01*
X12336742Y-9776500D01*
X12338312Y-9776400D01*
X12388929Y-9776400D01*
X12395632Y-9778369D01*
X12397697Y-9780032D01*
X12448645Y-9830980D01*
X12451993Y-9837112D01*
X12452088Y-9841901D01*
X12451542Y-9845000D01*
X12451542Y-9845000D01*
X12453559Y-9856443D01*
X12453560Y-9856444D01*
X12459369Y-9866506D01*
X12459370Y-9866507D01*
X12460204Y-9867207D01*
X12468271Y-9873976D01*
X12479190Y-9877950D01*
X12479190Y-9877950D01*
X12490810Y-9877950D01*
X12490810Y-9877950D01*
X12501729Y-9873976D01*
X12510630Y-9866507D01*
X12516440Y-9856443D01*
X12518458Y-9845000D01*
X12516440Y-9833557D01*
X12511642Y-9825246D01*
X12510219Y-9821465D01*
X12509868Y-9819699D01*
X12506363Y-9814453D01*
X12505168Y-9812665D01*
X12505168Y-9812664D01*
X12504033Y-9810967D01*
X12504033Y-9810967D01*
X12504033Y-9810967D01*
X12502844Y-9810172D01*
X12500965Y-9808630D01*
X12426370Y-9734035D01*
X12424828Y-9732156D01*
X12424033Y-9730967D01*
X12424033Y-9730967D01*
X12415301Y-9725132D01*
X12415300Y-9725132D01*
X12407601Y-9723600D01*
X12407600Y-9723600D01*
X12405000Y-9723083D01*
X12405000Y-9723083D01*
X12404109Y-9723260D01*
X12403598Y-9723362D01*
X12401179Y-9723600D01*
X12338312Y-9723600D01*
X12331608Y-9721632D01*
X12330980Y-9721169D01*
X12330729Y-9721025D01*
X12330729Y-9721024D01*
X12330729Y-9721024D01*
X12319810Y-9717050D01*
X12308190Y-9717050D01*
X12297271Y-9721024D01*
X12288945Y-9728011D01*
X12288369Y-9728494D01*
X12288369Y-9728494D01*
X12282560Y-9738556D01*
X12282559Y-9738557D01*
X12280542Y-9750000D01*
X12280542Y-9750000D01*
X11699910Y-9750000D01*
X11700000Y-9715000D01*
X11645552Y-9715000D01*
X11638848Y-9713032D01*
X11634272Y-9707751D01*
X11633278Y-9700835D01*
X11636181Y-9694480D01*
X11641311Y-9690948D01*
X11646729Y-9688976D01*
X11655630Y-9681507D01*
X11661440Y-9671443D01*
X11663458Y-9660000D01*
X11663401Y-9659678D01*
X11662145Y-9652551D01*
X11661440Y-9648557D01*
X11655952Y-9639050D01*
X11655631Y-9638494D01*
X11655631Y-9638494D01*
X11655630Y-9638493D01*
X11655630Y-9638493D01*
X11655630Y-9638493D01*
X11648954Y-9632892D01*
X11646729Y-9631024D01*
X11635810Y-9627050D01*
X11624190Y-9627050D01*
X11613271Y-9631024D01*
X11606120Y-9637024D01*
X11604369Y-9638494D01*
X11604369Y-9638494D01*
X11598560Y-9648556D01*
X11598559Y-9648557D01*
X11596542Y-9660000D01*
X11596542Y-9660000D01*
X11598559Y-9671443D01*
X11598560Y-9671444D01*
X11604369Y-9681506D01*
X11604370Y-9681507D01*
X11608354Y-9684850D01*
X11613271Y-9688976D01*
X11618689Y-9690948D01*
X11624316Y-9695091D01*
X11626809Y-9701617D01*
X11625378Y-9708456D01*
X11620477Y-9713436D01*
X11614448Y-9715000D01*
X11575008Y-9715000D01*
X11568305Y-9713032D01*
X11563729Y-9707751D01*
X11562735Y-9700835D01*
X11562794Y-9700463D01*
X11566822Y-9677443D01*
X11582797Y-9586160D01*
X11583343Y-9584102D01*
X11598032Y-9543303D01*
X11598317Y-9542582D01*
X11613084Y-9508458D01*
X11613957Y-9506798D01*
X11760628Y-9272917D01*
X11761831Y-9271307D01*
X11785023Y-9245000D01*
X11882108Y-9245000D01*
X11883865Y-9256091D01*
X11888963Y-9266097D01*
X11896903Y-9274037D01*
X11906909Y-9279135D01*
X11918000Y-9280892D01*
X11918000Y-9280892D01*
X11918000Y-9280892D01*
X11929091Y-9279135D01*
X11929091Y-9279135D01*
X11929091Y-9279135D01*
X11939097Y-9274037D01*
X11947037Y-9266097D01*
X11952135Y-9256091D01*
X11952135Y-9256091D01*
X11952135Y-9256091D01*
X11953892Y-9245000D01*
X11953892Y-9245000D01*
X11952135Y-9233909D01*
X11947037Y-9223903D01*
X11939096Y-9215963D01*
X11929091Y-9210865D01*
X11918000Y-9209108D01*
X11918000Y-9209108D01*
X11906909Y-9210865D01*
X11896903Y-9215963D01*
X11888963Y-9223903D01*
X11883865Y-9233909D01*
X11882108Y-9245000D01*
X11882108Y-9245000D01*
X11785023Y-9245000D01*
X11790527Y-9238757D01*
X11792414Y-9237018D01*
X12036328Y-9055192D01*
X12042879Y-9052763D01*
X12049704Y-9054262D01*
X12054634Y-9059213D01*
X12056106Y-9066043D01*
X12053651Y-9072584D01*
X12052507Y-9073902D01*
X12027034Y-9099374D01*
X12025156Y-9100916D01*
X12023967Y-9101711D01*
X12021472Y-9105444D01*
X12021472Y-9105444D01*
X12018132Y-9110443D01*
X12016083Y-9120744D01*
X12016362Y-9122146D01*
X12016600Y-9124565D01*
X12016600Y-9477061D01*
X12016538Y-9478297D01*
X12016208Y-9481593D01*
X12017183Y-9484827D01*
X12017472Y-9485987D01*
X12018131Y-9489300D01*
X12018599Y-9490429D01*
X12018580Y-9490437D01*
X12018648Y-9490580D01*
X12018666Y-9490570D01*
X12019239Y-9491648D01*
X12021378Y-9494264D01*
X12022090Y-9495225D01*
X12023967Y-9498033D01*
X12026721Y-9499874D01*
X12027714Y-9500611D01*
X12050582Y-9519444D01*
X12054511Y-9522680D01*
X12057349Y-9526861D01*
X12057656Y-9526697D01*
X12058606Y-9528481D01*
X12059510Y-9531180D01*
X12059563Y-9531163D01*
X12059865Y-9532092D01*
X12064963Y-9542097D01*
X12072903Y-9550037D01*
X12082909Y-9555135D01*
X12094000Y-9556892D01*
X12094000Y-9556892D01*
X12094000Y-9556892D01*
X12105091Y-9555135D01*
X12105091Y-9555135D01*
X12105091Y-9555135D01*
X12115097Y-9550037D01*
X12123037Y-9542097D01*
X12128135Y-9532091D01*
X12128135Y-9532091D01*
X12128135Y-9532091D01*
X12129892Y-9521000D01*
X12129892Y-9521000D01*
X12128135Y-9509909D01*
X12123037Y-9499903D01*
X12115096Y-9491963D01*
X12106566Y-9487616D01*
X12105091Y-9486865D01*
X12105091Y-9486865D01*
X12105091Y-9486865D01*
X12094792Y-9485233D01*
X12088849Y-9482558D01*
X12073917Y-9470261D01*
X12069994Y-9464480D01*
X12069400Y-9460689D01*
X12069400Y-9200000D01*
X12174968Y-9200000D01*
X12177018Y-9216887D01*
X12177018Y-9216887D01*
X12183050Y-9232793D01*
X12187939Y-9239876D01*
X12192714Y-9246793D01*
X12205447Y-9258073D01*
X12220510Y-9265979D01*
X12220510Y-9265979D01*
X12220597Y-9266012D01*
X12220652Y-9266054D01*
X12221174Y-9266328D01*
X12221128Y-9266414D01*
X12226167Y-9270230D01*
X12228573Y-9276789D01*
X12228600Y-9277606D01*
X12228600Y-9291245D01*
X12226631Y-9297948D01*
X12226232Y-9298533D01*
X12225962Y-9298904D01*
X12220865Y-9308909D01*
X12219108Y-9320000D01*
X12219108Y-9320000D01*
X12220865Y-9331091D01*
X12225963Y-9341097D01*
X12233903Y-9349037D01*
X12243909Y-9354135D01*
X12255000Y-9355892D01*
X12255000Y-9355892D01*
X12255000Y-9355892D01*
X12266091Y-9354135D01*
X12266091Y-9354135D01*
X12266091Y-9354135D01*
X12276097Y-9349037D01*
X12284037Y-9341097D01*
X12289135Y-9331091D01*
X12289135Y-9331091D01*
X12289135Y-9331091D01*
X12290892Y-9320000D01*
X12290892Y-9320000D01*
X12289135Y-9308909D01*
X12284037Y-9298904D01*
X12283768Y-9298533D01*
X12281420Y-9291953D01*
X12281400Y-9291245D01*
X12281400Y-9267391D01*
X12283368Y-9260687D01*
X12285577Y-9258109D01*
X12293101Y-9251444D01*
X12298350Y-9246793D01*
X12308014Y-9232793D01*
X12314046Y-9216887D01*
X12316097Y-9200000D01*
X12314046Y-9183113D01*
X12308014Y-9167207D01*
X12306560Y-9165100D01*
X12303715Y-9160979D01*
X12298350Y-9153207D01*
X12288271Y-9144277D01*
X12285617Y-9141926D01*
X12270555Y-9134021D01*
X12254038Y-9129950D01*
X12237027Y-9129950D01*
X12220509Y-9134021D01*
X12205447Y-9141926D01*
X12192714Y-9153207D01*
X12183050Y-9167207D01*
X12177018Y-9183113D01*
X12177018Y-9183113D01*
X12174968Y-9200000D01*
X12069400Y-9200000D01*
X12069400Y-9136815D01*
X12071368Y-9130112D01*
X12073032Y-9128047D01*
X12143047Y-9058032D01*
X12149180Y-9054683D01*
X12151815Y-9054400D01*
X12311179Y-9054400D01*
X12313598Y-9054638D01*
X12315000Y-9054917D01*
X12325301Y-9052868D01*
X12331829Y-9048506D01*
X12331830Y-9048505D01*
X12332032Y-9048371D01*
X12332875Y-9047807D01*
X12334033Y-9047033D01*
X12334828Y-9045845D01*
X12336369Y-9043966D01*
X12361770Y-9018565D01*
X12367902Y-9015217D01*
X12374871Y-9015715D01*
X12380465Y-9019902D01*
X12382750Y-9025180D01*
X12384559Y-9035443D01*
X12384559Y-9035443D01*
X12389789Y-9044501D01*
X12391450Y-9050701D01*
X12391450Y-9130361D01*
X12391212Y-9132780D01*
X12390969Y-9134000D01*
X12390969Y-9134253D01*
X12390813Y-9134785D01*
X12390731Y-9135198D01*
X12390694Y-9135191D01*
X12389000Y-9140957D01*
X12385378Y-9144277D01*
X12385532Y-9144501D01*
X12384915Y-9144927D01*
X12375245Y-9153493D01*
X12372182Y-9156207D01*
X12362518Y-9170207D01*
X12356486Y-9186113D01*
X12356486Y-9186113D01*
X12354435Y-9203000D01*
X12356486Y-9219887D01*
X12356486Y-9219887D01*
X12362518Y-9235793D01*
X12366785Y-9241975D01*
X12372182Y-9249793D01*
X12380392Y-9257067D01*
X12384915Y-9261074D01*
X12399635Y-9268800D01*
X12399977Y-9268979D01*
X12416494Y-9273050D01*
X12433506Y-9273050D01*
X12450751Y-9268800D01*
X12450810Y-9269040D01*
X12456586Y-9268593D01*
X12458098Y-9269061D01*
X12468000Y-9271031D01*
X12468000Y-9271031D01*
X12468000Y-9271031D01*
X12468000Y-9271031D01*
X12469220Y-9270788D01*
X12471639Y-9270550D01*
X12522937Y-9270550D01*
X12529641Y-9272519D01*
X12534216Y-9277799D01*
X12535211Y-9284715D01*
X12532308Y-9291070D01*
X12527178Y-9294602D01*
X12523271Y-9296024D01*
X12516565Y-9301651D01*
X12514369Y-9303494D01*
X12514369Y-9303494D01*
X12508560Y-9313556D01*
X12508559Y-9313557D01*
X12506542Y-9325000D01*
X12506542Y-9325000D01*
X12508559Y-9336443D01*
X12508560Y-9336444D01*
X12514369Y-9346506D01*
X12514370Y-9346507D01*
X12517998Y-9349551D01*
X12523271Y-9353976D01*
X12524951Y-9354587D01*
X12530577Y-9358730D01*
X12533070Y-9365257D01*
X12531639Y-9372095D01*
X12529477Y-9375007D01*
X12505463Y-9399022D01*
X12499330Y-9402371D01*
X12492361Y-9401872D01*
X12486768Y-9397685D01*
X12484447Y-9392194D01*
X12483135Y-9383909D01*
X12478037Y-9373903D01*
X12470096Y-9365963D01*
X12460091Y-9360865D01*
X12449000Y-9359108D01*
X12449000Y-9359108D01*
X12437909Y-9360865D01*
X12427903Y-9365963D01*
X12419963Y-9373903D01*
X12414865Y-9383909D01*
X12413108Y-9395000D01*
X12413108Y-9395000D01*
X12414865Y-9406091D01*
X12419963Y-9416097D01*
X12427903Y-9424037D01*
X12431945Y-9426097D01*
X12437909Y-9429135D01*
X12446194Y-9430447D01*
X12452507Y-9433440D01*
X12456200Y-9439371D01*
X12456101Y-9446358D01*
X12453022Y-9451463D01*
X12451517Y-9452968D01*
X12445385Y-9456317D01*
X12442749Y-9456600D01*
X12292071Y-9456600D01*
X12285368Y-9454632D01*
X12283303Y-9452968D01*
X12249779Y-9419444D01*
X12246431Y-9413312D01*
X12246300Y-9408736D01*
X12246325Y-9408579D01*
X12246892Y-9405000D01*
X12246836Y-9404649D01*
X12245135Y-9393909D01*
X12240037Y-9383903D01*
X12232096Y-9375963D01*
X12222091Y-9370865D01*
X12211000Y-9369108D01*
X12211000Y-9369108D01*
X12199909Y-9370865D01*
X12189903Y-9375963D01*
X12181963Y-9383903D01*
X12176865Y-9393909D01*
X12175108Y-9405000D01*
X12175108Y-9405000D01*
X12176865Y-9416091D01*
X12181962Y-9426096D01*
X12181963Y-9426096D01*
X12181963Y-9426097D01*
X12185698Y-9429832D01*
X12189225Y-9433359D01*
X12190767Y-9435237D01*
X12191967Y-9437033D01*
X12192665Y-9437500D01*
X12193155Y-9437828D01*
X12195034Y-9439370D01*
X12254630Y-9498965D01*
X12256172Y-9500844D01*
X12256966Y-9502033D01*
X12256967Y-9502033D01*
X12256967Y-9502033D01*
X12258278Y-9502910D01*
X12258663Y-9503167D01*
X12258665Y-9503168D01*
X12259171Y-9503506D01*
X12259171Y-9503506D01*
X12265699Y-9507868D01*
X12276000Y-9509917D01*
X12277402Y-9509638D01*
X12279821Y-9509400D01*
X12454999Y-9509400D01*
X12457418Y-9509638D01*
X12458820Y-9509917D01*
X12469121Y-9507868D01*
X12475649Y-9503506D01*
X12475649Y-9503506D01*
X12476747Y-9502772D01*
X12477853Y-9502033D01*
X12478648Y-9500844D01*
X12480190Y-9498965D01*
X12516155Y-9463000D01*
X12608542Y-9463000D01*
X12610559Y-9474443D01*
X12610560Y-9474444D01*
X12616369Y-9484506D01*
X12616370Y-9484507D01*
X12619363Y-9487018D01*
X12625271Y-9491976D01*
X12636190Y-9495950D01*
X12636190Y-9495950D01*
X12647810Y-9495950D01*
X12647810Y-9495950D01*
X12658729Y-9491976D01*
X12667630Y-9484507D01*
X12673440Y-9474443D01*
X12675458Y-9463000D01*
X12675399Y-9462663D01*
X12674280Y-9456317D01*
X12673440Y-9451557D01*
X12667630Y-9441493D01*
X12667630Y-9441493D01*
X12667630Y-9441493D01*
X12660175Y-9435237D01*
X12658729Y-9434024D01*
X12647810Y-9430050D01*
X12636190Y-9430050D01*
X12625271Y-9434024D01*
X12618900Y-9439370D01*
X12616369Y-9441494D01*
X12616369Y-9441494D01*
X12610560Y-9451556D01*
X12610559Y-9451557D01*
X12608542Y-9463000D01*
X12608542Y-9463000D01*
X12516155Y-9463000D01*
X12609123Y-9370032D01*
X12615256Y-9366683D01*
X12617892Y-9366400D01*
X12621688Y-9366400D01*
X12628392Y-9368369D01*
X12629020Y-9368831D01*
X12629270Y-9368975D01*
X12629271Y-9368976D01*
X12640190Y-9372950D01*
X12640190Y-9372950D01*
X12651810Y-9372950D01*
X12651810Y-9372950D01*
X12662729Y-9368976D01*
X12671630Y-9361507D01*
X12677440Y-9351443D01*
X12679458Y-9340000D01*
X12678622Y-9335257D01*
X12679396Y-9328314D01*
X12683802Y-9322891D01*
X12690440Y-9320710D01*
X12695074Y-9321452D01*
X12699190Y-9322950D01*
X12699190Y-9322950D01*
X12710810Y-9322950D01*
X12710810Y-9322950D01*
X12721729Y-9318976D01*
X12721729Y-9318976D01*
X12722467Y-9318707D01*
X12729440Y-9318264D01*
X12735545Y-9321661D01*
X12738845Y-9327820D01*
X12739001Y-9329323D01*
X12740865Y-9341091D01*
X12745963Y-9351097D01*
X12746838Y-9351972D01*
X12750187Y-9358104D01*
X12750232Y-9358321D01*
X12751874Y-9366579D01*
X12751874Y-9366579D01*
X12751874Y-9366579D01*
X12751874Y-9366579D01*
X12753564Y-9369108D01*
X12754160Y-9370000D01*
X12757300Y-9374700D01*
X12758335Y-9375391D01*
X12760214Y-9376933D01*
X12838067Y-9454786D01*
X12839609Y-9456665D01*
X12840300Y-9457699D01*
X12840300Y-9457699D01*
X12840300Y-9457700D01*
X12843293Y-9459699D01*
X12848421Y-9463126D01*
X12848421Y-9463126D01*
X12848421Y-9463126D01*
X12848421Y-9463126D01*
X12858000Y-9465031D01*
X12858000Y-9465031D01*
X12858000Y-9465031D01*
X12858000Y-9465031D01*
X12859220Y-9464788D01*
X12861639Y-9464550D01*
X12923483Y-9464550D01*
X12930187Y-9466519D01*
X12931454Y-9467451D01*
X12933270Y-9468975D01*
X12933270Y-9468975D01*
X12933271Y-9468976D01*
X12944073Y-9472907D01*
X12949699Y-9477050D01*
X12952192Y-9483577D01*
X12950761Y-9490415D01*
X12946535Y-9494991D01*
X12936557Y-9501404D01*
X12936556Y-9501404D01*
X12936556Y-9501404D01*
X12934735Y-9503506D01*
X12927037Y-9512390D01*
X12927037Y-9512390D01*
X12920999Y-9525612D01*
X12920999Y-9525612D01*
X12919557Y-9535641D01*
X12916654Y-9541997D01*
X12910777Y-9545774D01*
X12903790Y-9545774D01*
X12897912Y-9541997D01*
X12896544Y-9540076D01*
X12895631Y-9538494D01*
X12895630Y-9538493D01*
X12887981Y-9532075D01*
X12886729Y-9531024D01*
X12875810Y-9527050D01*
X12864190Y-9527050D01*
X12853271Y-9531024D01*
X12853271Y-9531024D01*
X12853271Y-9531024D01*
X12851454Y-9532549D01*
X12845053Y-9535350D01*
X12843483Y-9535450D01*
X12784279Y-9535450D01*
X12781860Y-9535212D01*
X12780640Y-9534969D01*
X12778819Y-9535331D01*
X12778819Y-9535331D01*
X12778819Y-9535331D01*
X12771061Y-9536874D01*
X12762940Y-9542300D01*
X12762940Y-9542301D01*
X12762248Y-9543336D01*
X12760707Y-9545214D01*
X12749103Y-9556818D01*
X12742970Y-9560167D01*
X12740334Y-9560450D01*
X12693666Y-9560450D01*
X12691247Y-9560212D01*
X12688132Y-9559592D01*
X12685000Y-9558969D01*
X12685000Y-9558969D01*
X12675421Y-9560874D01*
X12675421Y-9560874D01*
X12667300Y-9566300D01*
X12666566Y-9567399D01*
X12661205Y-9571879D01*
X12654272Y-9572750D01*
X12648286Y-9570009D01*
X12644729Y-9567024D01*
X12644729Y-9567024D01*
X12633810Y-9563050D01*
X12622190Y-9563050D01*
X12611271Y-9567024D01*
X12604447Y-9572750D01*
X12602369Y-9574494D01*
X12602369Y-9574494D01*
X12596560Y-9584556D01*
X12596559Y-9584557D01*
X12594542Y-9596000D01*
X12594542Y-9596000D01*
X12596559Y-9607443D01*
X12596560Y-9607444D01*
X12602369Y-9617506D01*
X12602369Y-9617506D01*
X12602369Y-9617507D01*
X12611271Y-9624976D01*
X12622190Y-9628950D01*
X12622191Y-9628950D01*
X12622408Y-9628988D01*
X12622718Y-9629142D01*
X12623209Y-9629321D01*
X12623189Y-9629376D01*
X12628241Y-9631880D01*
X12632252Y-9629302D01*
X12633592Y-9628988D01*
X12633809Y-9628950D01*
X12633810Y-9628950D01*
X12644729Y-9624976D01*
X12653630Y-9617507D01*
X12657264Y-9611213D01*
X12662320Y-9606392D01*
X12669181Y-9605070D01*
X12674891Y-9607103D01*
X12676281Y-9608032D01*
X12676421Y-9608126D01*
X12676421Y-9608126D01*
X12686000Y-9610031D01*
X12686000Y-9610031D01*
X12686000Y-9610031D01*
X12686000Y-9610031D01*
X12687220Y-9609788D01*
X12689639Y-9609550D01*
X12752000Y-9609550D01*
X12754419Y-9609788D01*
X12755640Y-9610031D01*
X12755640Y-9610031D01*
X12755640Y-9610031D01*
X12755640Y-9610031D01*
X12765218Y-9608126D01*
X12765218Y-9608126D01*
X12765219Y-9608126D01*
X12770820Y-9604383D01*
X12773339Y-9602700D01*
X12774031Y-9601665D01*
X12775573Y-9599786D01*
X12787177Y-9588182D01*
X12793309Y-9584833D01*
X12795945Y-9584550D01*
X12843483Y-9584550D01*
X12850187Y-9586519D01*
X12851454Y-9587451D01*
X12853270Y-9588975D01*
X12853270Y-9588975D01*
X12853271Y-9588976D01*
X12864190Y-9592950D01*
X12864190Y-9592950D01*
X12875810Y-9592950D01*
X12875810Y-9592950D01*
X12886729Y-9588976D01*
X12895630Y-9581507D01*
X12901440Y-9571443D01*
X12902133Y-9567514D01*
X12905236Y-9561254D01*
X12911231Y-9557665D01*
X12918214Y-9557887D01*
X12923969Y-9561849D01*
X12925624Y-9564516D01*
X12927037Y-9567610D01*
X12936556Y-9578596D01*
X12948785Y-9586455D01*
X12960332Y-9589845D01*
X12962732Y-9590550D01*
X12962732Y-9590550D01*
X12977268Y-9590550D01*
X12979316Y-9589949D01*
X12991215Y-9586455D01*
X13003444Y-9578596D01*
X13012963Y-9567610D01*
X13018721Y-9555002D01*
X13023296Y-9549722D01*
X13030000Y-9547753D01*
X13036704Y-9549722D01*
X13041279Y-9555002D01*
X13047037Y-9567610D01*
X13056556Y-9578596D01*
X13068785Y-9586455D01*
X13080332Y-9589845D01*
X13082732Y-9590550D01*
X13082732Y-9590550D01*
X13097268Y-9590550D01*
X13099316Y-9589949D01*
X13111215Y-9586455D01*
X13123444Y-9578596D01*
X13132963Y-9567610D01*
X13138721Y-9555002D01*
X13143296Y-9549722D01*
X13150000Y-9547753D01*
X13156704Y-9549722D01*
X13161279Y-9555002D01*
X13167037Y-9567610D01*
X13176556Y-9578596D01*
X13188785Y-9586455D01*
X13200332Y-9589845D01*
X13202732Y-9590550D01*
X13202732Y-9590550D01*
X13217268Y-9590550D01*
X13219316Y-9589949D01*
X13231215Y-9586455D01*
X13243444Y-9578596D01*
X13252963Y-9567610D01*
X13258721Y-9555002D01*
X13263296Y-9549722D01*
X13270000Y-9547753D01*
X13276704Y-9549722D01*
X13281279Y-9555002D01*
X13287037Y-9567610D01*
X13296556Y-9578596D01*
X13308785Y-9586455D01*
X13320332Y-9589845D01*
X13322732Y-9590550D01*
X13322732Y-9590550D01*
X13337268Y-9590550D01*
X13339316Y-9589949D01*
X13351215Y-9586455D01*
X13363444Y-9578596D01*
X13372963Y-9567610D01*
X13379001Y-9554388D01*
X13380642Y-9542972D01*
X13383545Y-9536617D01*
X13389423Y-9532839D01*
X13396410Y-9532839D01*
X13402287Y-9536617D01*
X13403655Y-9538537D01*
X13405369Y-9541506D01*
X13405370Y-9541507D01*
X13408759Y-9544351D01*
X13414271Y-9548976D01*
X13425190Y-9552950D01*
X13425190Y-9552950D01*
X13436810Y-9552950D01*
X13436810Y-9552950D01*
X13447729Y-9548976D01*
X13456630Y-9541507D01*
X13461656Y-9532802D01*
X13466713Y-9527981D01*
X13473573Y-9526658D01*
X13480060Y-9529255D01*
X13480365Y-9529503D01*
X13483635Y-9532247D01*
X13489271Y-9536976D01*
X13500190Y-9540950D01*
X13500190Y-9540950D01*
X13511810Y-9540950D01*
X13511810Y-9540950D01*
X13522729Y-9536976D01*
X13531630Y-9529507D01*
X13537440Y-9519443D01*
X13539458Y-9508000D01*
X13538205Y-9500891D01*
X13538979Y-9493947D01*
X13543385Y-9488525D01*
X13550023Y-9486344D01*
X13552836Y-9486576D01*
X13553549Y-9486718D01*
X13553549Y-9486718D01*
X13561250Y-9488250D01*
X13561846Y-9488369D01*
X13561847Y-9488369D01*
X13563850Y-9488767D01*
X13565252Y-9488488D01*
X13567671Y-9488250D01*
X13602585Y-9488250D01*
X13605004Y-9488488D01*
X13606406Y-9488767D01*
X13616707Y-9486718D01*
X13616919Y-9486576D01*
X13617049Y-9486490D01*
X13623716Y-9484402D01*
X13623938Y-9484400D01*
X13963179Y-9484400D01*
X13965598Y-9484638D01*
X13967000Y-9484917D01*
X13977301Y-9482868D01*
X13977301Y-9482868D01*
X13977301Y-9482868D01*
X13978429Y-9482401D01*
X13978553Y-9482699D01*
X13983340Y-9481199D01*
X13990078Y-9483046D01*
X13992332Y-9484829D01*
X14031561Y-9524058D01*
X14034910Y-9530191D01*
X14035040Y-9530886D01*
X14035865Y-9536091D01*
X14035865Y-9536091D01*
X14035865Y-9536091D01*
X14040963Y-9546097D01*
X14048903Y-9554037D01*
X14058909Y-9559135D01*
X14070000Y-9560892D01*
X14070000Y-9560892D01*
X14070000Y-9560892D01*
X14081091Y-9559135D01*
X14081091Y-9559135D01*
X14081091Y-9559135D01*
X14091097Y-9554037D01*
X14099037Y-9546097D01*
X14104135Y-9536091D01*
X14104135Y-9536091D01*
X14104135Y-9536091D01*
X14105892Y-9525000D01*
X14105892Y-9525000D01*
X14104135Y-9513909D01*
X14099037Y-9503904D01*
X14099037Y-9503904D01*
X14099037Y-9503903D01*
X14091097Y-9495963D01*
X14089595Y-9495198D01*
X14087470Y-9494115D01*
X14084332Y-9491835D01*
X14038054Y-9445557D01*
X14034705Y-9439424D01*
X14034843Y-9437500D01*
X14269042Y-9437500D01*
X14271059Y-9448943D01*
X14271060Y-9448944D01*
X14276869Y-9459006D01*
X14276870Y-9459007D01*
X14279848Y-9461506D01*
X14285771Y-9466476D01*
X14296690Y-9470450D01*
X14296690Y-9470450D01*
X14308310Y-9470450D01*
X14308310Y-9470450D01*
X14319229Y-9466476D01*
X14328130Y-9459007D01*
X14333940Y-9448943D01*
X14335958Y-9437500D01*
X14333940Y-9426057D01*
X14329841Y-9418956D01*
X14328131Y-9415994D01*
X14328131Y-9415994D01*
X14328130Y-9415993D01*
X14328130Y-9415993D01*
X14328130Y-9415993D01*
X14320135Y-9409284D01*
X14319229Y-9408524D01*
X14308310Y-9404550D01*
X14296690Y-9404550D01*
X14285771Y-9408524D01*
X14277519Y-9415449D01*
X14276869Y-9415994D01*
X14276869Y-9415994D01*
X14271060Y-9426056D01*
X14271059Y-9426057D01*
X14269042Y-9437500D01*
X14269042Y-9437500D01*
X14034843Y-9437500D01*
X14035203Y-9432455D01*
X14039391Y-9426862D01*
X14044543Y-9424600D01*
X14045043Y-9424506D01*
X14045043Y-9424506D01*
X14045044Y-9424506D01*
X14047314Y-9423100D01*
X14048832Y-9422300D01*
X14051276Y-9421221D01*
X14051766Y-9420731D01*
X14054007Y-9418956D01*
X14054595Y-9418592D01*
X14056205Y-9416460D01*
X14057332Y-9415165D01*
X14062065Y-9410432D01*
X14064999Y-9407498D01*
X14070230Y-9404642D01*
X14070163Y-9404437D01*
X14071091Y-9404135D01*
X14071091Y-9404135D01*
X14081097Y-9399037D01*
X14089037Y-9391097D01*
X14094135Y-9381091D01*
X14094135Y-9381091D01*
X14094135Y-9381091D01*
X14095100Y-9375000D01*
X14159108Y-9375000D01*
X14160865Y-9386091D01*
X14165963Y-9396097D01*
X14173903Y-9404037D01*
X14183909Y-9409135D01*
X14195000Y-9410892D01*
X14195000Y-9410892D01*
X14195000Y-9410892D01*
X14206091Y-9409135D01*
X14206091Y-9409135D01*
X14206091Y-9409135D01*
X14216097Y-9404037D01*
X14224037Y-9396097D01*
X14229135Y-9386091D01*
X14229135Y-9386091D01*
X14229135Y-9386091D01*
X14230892Y-9375000D01*
X14230892Y-9375000D01*
X14229135Y-9363909D01*
X14224037Y-9353903D01*
X14216096Y-9345963D01*
X14206091Y-9340865D01*
X14195000Y-9339108D01*
X14195000Y-9339108D01*
X14183909Y-9340865D01*
X14173903Y-9345963D01*
X14165963Y-9353903D01*
X14160865Y-9363909D01*
X14159108Y-9375000D01*
X14159108Y-9375000D01*
X14095100Y-9375000D01*
X14095892Y-9370000D01*
X14095892Y-9370000D01*
X14094135Y-9358909D01*
X14089037Y-9348903D01*
X14081096Y-9340963D01*
X14071091Y-9335865D01*
X14060000Y-9334108D01*
X14060000Y-9334108D01*
X14048909Y-9335865D01*
X14038903Y-9340963D01*
X14030963Y-9348903D01*
X14025727Y-9359179D01*
X14020929Y-9364259D01*
X14014678Y-9365950D01*
X13989013Y-9365950D01*
X13982309Y-9363982D01*
X13977734Y-9358701D01*
X13976739Y-9351785D01*
X13976801Y-9351397D01*
X13978458Y-9342000D01*
X13978458Y-9342000D01*
X13977376Y-9335865D01*
X13976440Y-9330557D01*
X13971851Y-9322608D01*
X13970631Y-9320494D01*
X13970631Y-9320494D01*
X13970630Y-9320493D01*
X13970630Y-9320493D01*
X13970630Y-9320493D01*
X13961729Y-9313024D01*
X13961729Y-9313024D01*
X13950810Y-9309050D01*
X13939190Y-9309050D01*
X13928271Y-9313024D01*
X13921022Y-9319107D01*
X13919369Y-9320494D01*
X13919369Y-9320494D01*
X13913560Y-9330556D01*
X13913559Y-9330557D01*
X13912911Y-9334237D01*
X13909808Y-9340497D01*
X13903813Y-9344086D01*
X13896830Y-9343864D01*
X13891931Y-9340852D01*
X13813182Y-9262103D01*
X13809833Y-9255970D01*
X13809550Y-9253334D01*
X13809550Y-9253134D01*
X13809505Y-9252644D01*
X13809382Y-9251586D01*
X13809258Y-9248919D01*
X13808979Y-9248285D01*
X13808133Y-9245555D01*
X13808006Y-9244875D01*
X13806600Y-9242604D01*
X13805799Y-9241085D01*
X13804721Y-9238642D01*
X13804721Y-9238641D01*
X13804721Y-9238641D01*
X13804231Y-9238152D01*
X13802456Y-9235911D01*
X13802383Y-9235793D01*
X13802092Y-9235323D01*
X13802092Y-9235323D01*
X13802092Y-9235322D01*
X13799960Y-9233713D01*
X13798665Y-9232586D01*
X13709797Y-9143718D01*
X13706449Y-9137586D01*
X13706947Y-9130617D01*
X13711134Y-9125023D01*
X13717681Y-9122582D01*
X13718565Y-9122550D01*
X13812391Y-9122550D01*
X13819095Y-9124519D01*
X13822596Y-9127906D01*
X13832182Y-9141793D01*
X13842350Y-9150801D01*
X13844915Y-9153074D01*
X13859977Y-9160979D01*
X13859977Y-9160979D01*
X13876494Y-9165050D01*
X13893506Y-9165050D01*
X13910022Y-9160979D01*
X13925085Y-9153073D01*
X13937818Y-9141793D01*
X13937818Y-9141793D01*
X13937973Y-9141656D01*
X13944296Y-9138684D01*
X13951223Y-9139602D01*
X13956553Y-9144119D01*
X13958595Y-9150801D01*
X13958407Y-9153090D01*
X13957542Y-9158000D01*
X13957542Y-9158000D01*
X13959559Y-9169443D01*
X13959560Y-9169444D01*
X13965369Y-9179506D01*
X13965370Y-9179507D01*
X13966903Y-9180793D01*
X13974271Y-9186976D01*
X13985190Y-9190950D01*
X13985190Y-9190950D01*
X13996810Y-9190950D01*
X13996810Y-9190950D01*
X14007729Y-9186976D01*
X14016630Y-9179507D01*
X14022440Y-9169443D01*
X14023509Y-9163381D01*
X14026612Y-9157121D01*
X14026950Y-9156768D01*
X14071853Y-9111866D01*
X14077985Y-9108517D01*
X14083588Y-9108594D01*
X14089494Y-9110050D01*
X14106506Y-9110050D01*
X14123022Y-9105979D01*
X14132653Y-9100924D01*
X14138085Y-9098074D01*
X14138085Y-9098073D01*
X14138085Y-9098073D01*
X14150818Y-9086793D01*
X14160482Y-9072793D01*
X14166514Y-9056887D01*
X14168564Y-9040000D01*
X14168564Y-9040000D01*
X14167574Y-9031845D01*
X14168720Y-9024952D01*
X14173411Y-9019774D01*
X14179884Y-9017950D01*
X14180810Y-9017950D01*
X14180810Y-9017950D01*
X14191729Y-9013976D01*
X14200630Y-9006507D01*
X14206440Y-8996443D01*
X14206441Y-8996443D01*
X14206811Y-8995424D01*
X14206980Y-8995486D01*
X14209507Y-8990387D01*
X14215502Y-8986798D01*
X14218616Y-8986400D01*
X14331028Y-8986400D01*
X14337731Y-8988369D01*
G37*
G04 #@! TD.AperFunction*
G04 #@! TA.AperFunction,Conductor*
G36*
X13276704Y-9949722D02*
G01*
X13281279Y-9955002D01*
X13287037Y-9967610D01*
X13296556Y-9978596D01*
X13306448Y-9984953D01*
X13311023Y-9990233D01*
X13312018Y-9997149D01*
X13309115Y-10003505D01*
X13308512Y-10004153D01*
X13299870Y-10012794D01*
X13297360Y-10014731D01*
X13297146Y-10014856D01*
X13296232Y-10015667D01*
X13295978Y-10015380D01*
X13292106Y-10018236D01*
X13285134Y-10018686D01*
X13282818Y-10017919D01*
X13265000Y-10010000D01*
X13215000Y-10025000D01*
X13215000Y-10143985D01*
X13213031Y-10150689D01*
X13207751Y-10155264D01*
X13200835Y-10156258D01*
X13194480Y-10153356D01*
X13193832Y-10152753D01*
X13136032Y-10094953D01*
X13132683Y-10088820D01*
X13132400Y-10086185D01*
X13132400Y-10040821D01*
X13132638Y-10038402D01*
X13132917Y-10037000D01*
X13132400Y-10034400D01*
X13132400Y-10034400D01*
X13130868Y-10026699D01*
X13125033Y-10017967D01*
X13125033Y-10017967D01*
X13123844Y-10017172D01*
X13121965Y-10015630D01*
X13110879Y-10004544D01*
X13107530Y-9998412D01*
X13108029Y-9991442D01*
X13112216Y-9985849D01*
X13112941Y-9985345D01*
X13123444Y-9978596D01*
X13132963Y-9967610D01*
X13138721Y-9955002D01*
X13143296Y-9949722D01*
X13150000Y-9947753D01*
X13156704Y-9949722D01*
X13161279Y-9955002D01*
X13167037Y-9967610D01*
X13176556Y-9978596D01*
X13188785Y-9986455D01*
X13199349Y-9989557D01*
X13202732Y-9990550D01*
X13202732Y-9990550D01*
X13217268Y-9990550D01*
X13219316Y-9989949D01*
X13231215Y-9986455D01*
X13243444Y-9978596D01*
X13252963Y-9967610D01*
X13258721Y-9955002D01*
X13263296Y-9949722D01*
X13270000Y-9947753D01*
X13276704Y-9949722D01*
G37*
G04 #@! TD.AperFunction*
G04 #@! TA.AperFunction,Conductor*
G36*
X13276704Y-9683022D02*
G01*
X13281279Y-9688302D01*
X13287037Y-9700910D01*
X13296556Y-9711896D01*
X13308785Y-9719755D01*
X13319923Y-9723025D01*
X13322732Y-9723850D01*
X13322732Y-9723850D01*
X13337268Y-9723850D01*
X13339881Y-9723083D01*
X13351215Y-9719755D01*
X13363444Y-9711896D01*
X13372963Y-9700910D01*
X13377131Y-9691782D01*
X13381707Y-9686502D01*
X13388411Y-9684533D01*
X13395115Y-9686502D01*
X13399149Y-9690733D01*
X13405369Y-9701506D01*
X13405370Y-9701507D01*
X13406344Y-9702324D01*
X13414271Y-9708976D01*
X13414271Y-9708976D01*
X13414277Y-9708979D01*
X13414286Y-9708988D01*
X13415102Y-9709673D01*
X13415025Y-9709764D01*
X13419099Y-9714036D01*
X13420422Y-9720896D01*
X13417825Y-9727383D01*
X13414015Y-9730144D01*
X13414210Y-9730482D01*
X13413271Y-9731024D01*
X13413165Y-9731113D01*
X13405851Y-9737250D01*
X13404369Y-9738494D01*
X13404369Y-9738494D01*
X13398560Y-9748556D01*
X13398559Y-9748557D01*
X13396542Y-9760000D01*
X13396542Y-9760000D01*
X13398559Y-9771443D01*
X13398560Y-9771444D01*
X13404369Y-9781506D01*
X13404370Y-9781507D01*
X13406353Y-9783171D01*
X13413271Y-9788976D01*
X13424190Y-9792950D01*
X13424190Y-9792950D01*
X13435810Y-9792950D01*
X13435810Y-9792950D01*
X13446729Y-9788976D01*
X13455630Y-9781507D01*
X13460195Y-9773600D01*
X13461440Y-9771444D01*
X13461440Y-9771444D01*
X13461440Y-9771444D01*
X13461440Y-9771443D01*
X13461601Y-9770532D01*
X13464703Y-9764272D01*
X13465045Y-9763916D01*
X13465780Y-9763181D01*
X13471913Y-9759833D01*
X13474548Y-9759550D01*
X13503334Y-9759550D01*
X13510038Y-9761519D01*
X13512103Y-9763182D01*
X13526619Y-9777699D01*
X13528161Y-9779578D01*
X13529020Y-9780862D01*
X13530814Y-9782061D01*
X13530815Y-9782062D01*
X13531320Y-9782399D01*
X13531320Y-9782399D01*
X13533575Y-9783906D01*
X13533576Y-9783907D01*
X13533576Y-9783907D01*
X13538133Y-9786952D01*
X13538133Y-9786952D01*
X13538133Y-9786952D01*
X13538133Y-9786952D01*
X13546765Y-9788669D01*
X13546766Y-9788669D01*
X13548882Y-9789090D01*
X13550398Y-9788788D01*
X13552817Y-9788550D01*
X13664370Y-9788550D01*
X13671074Y-9790519D01*
X13675649Y-9795799D01*
X13676644Y-9802715D01*
X13676582Y-9803101D01*
X13676256Y-9804947D01*
X13675542Y-9809000D01*
X13675542Y-9809000D01*
X13676405Y-9813897D01*
X13675631Y-9820841D01*
X13671225Y-9826264D01*
X13664587Y-9828444D01*
X13664193Y-9828450D01*
X13534489Y-9828450D01*
X13531625Y-9827880D01*
X13531598Y-9828016D01*
X13520821Y-9825872D01*
X13520821Y-9825872D01*
X13520821Y-9825872D01*
X13519601Y-9826115D01*
X13517182Y-9826353D01*
X13462736Y-9826353D01*
X13460317Y-9826115D01*
X13459097Y-9825872D01*
X13459096Y-9825872D01*
X13459096Y-9825872D01*
X13449518Y-9827778D01*
X13449518Y-9827778D01*
X13447085Y-9829403D01*
X13447085Y-9829404D01*
X13441397Y-9833204D01*
X13440705Y-9834239D01*
X13439164Y-9836117D01*
X13431861Y-9843420D01*
X13425728Y-9846769D01*
X13425246Y-9846864D01*
X13424190Y-9847050D01*
X13413271Y-9851024D01*
X13405851Y-9857250D01*
X13404369Y-9858494D01*
X13404369Y-9858494D01*
X13398560Y-9868556D01*
X13398559Y-9868557D01*
X13396542Y-9880000D01*
X13396542Y-9880000D01*
X13398559Y-9891443D01*
X13398560Y-9891444D01*
X13404369Y-9901506D01*
X13404370Y-9901507D01*
X13407945Y-9904507D01*
X13413271Y-9908976D01*
X13424190Y-9912950D01*
X13424190Y-9912950D01*
X13435810Y-9912950D01*
X13435810Y-9912950D01*
X13446729Y-9908976D01*
X13452218Y-9904370D01*
X13458618Y-9901569D01*
X13465518Y-9902673D01*
X13470725Y-9907331D01*
X13470926Y-9907668D01*
X13471871Y-9909305D01*
X13476551Y-9917410D01*
X13476551Y-9917410D01*
X13480540Y-9920757D01*
X13485452Y-9924879D01*
X13496371Y-9928853D01*
X13496372Y-9928853D01*
X13507991Y-9928853D01*
X13507991Y-9928853D01*
X13518911Y-9924879D01*
X13527812Y-9917410D01*
X13533622Y-9907347D01*
X13535640Y-9895903D01*
X13534970Y-9892103D01*
X13535744Y-9885159D01*
X13540150Y-9879737D01*
X13546788Y-9877556D01*
X13547181Y-9877550D01*
X13620370Y-9877550D01*
X13627074Y-9879519D01*
X13631649Y-9884799D01*
X13632644Y-9891715D01*
X13632582Y-9892101D01*
X13632169Y-9894443D01*
X13631542Y-9898000D01*
X13631542Y-9898000D01*
X13633559Y-9909443D01*
X13633559Y-9909443D01*
X13635497Y-9912800D01*
X13637145Y-9919590D01*
X13635497Y-9925200D01*
X13633559Y-9928557D01*
X13633559Y-9928557D01*
X13631542Y-9940000D01*
X13631542Y-9940000D01*
X13633559Y-9951443D01*
X13633560Y-9951444D01*
X13639369Y-9961506D01*
X13639369Y-9961506D01*
X13639369Y-9961507D01*
X13648271Y-9968976D01*
X13659190Y-9972950D01*
X13659190Y-9972950D01*
X13670810Y-9972950D01*
X13670810Y-9972950D01*
X13681729Y-9968976D01*
X13690630Y-9961507D01*
X13696440Y-9951443D01*
X13698458Y-9940000D01*
X13696440Y-9928557D01*
X13694502Y-9925200D01*
X13692855Y-9918410D01*
X13694502Y-9912800D01*
X13696385Y-9909539D01*
X13701442Y-9904718D01*
X13708302Y-9903395D01*
X13714789Y-9905992D01*
X13715892Y-9906971D01*
X13762769Y-9953848D01*
X13766117Y-9959980D01*
X13765619Y-9966949D01*
X13761971Y-9972115D01*
X13754370Y-9978493D01*
X13754369Y-9978494D01*
X13748559Y-9988557D01*
X13748050Y-9991443D01*
X13744948Y-9997703D01*
X13744607Y-9998058D01*
X13599697Y-10142968D01*
X13593564Y-10146317D01*
X13590929Y-10146600D01*
X13526163Y-10146600D01*
X13519459Y-10144632D01*
X13514884Y-10139351D01*
X13513889Y-10132435D01*
X13513993Y-10131991D01*
X13514200Y-10130679D01*
X13515892Y-10120000D01*
X13515890Y-10119985D01*
X13514135Y-10108909D01*
X13509037Y-10098903D01*
X13501096Y-10090963D01*
X13491091Y-10085865D01*
X13480000Y-10084108D01*
X13480000Y-10084108D01*
X13468909Y-10085865D01*
X13458903Y-10090963D01*
X13450963Y-10098903D01*
X13445865Y-10108909D01*
X13444108Y-10120000D01*
X13444108Y-10120000D01*
X13446017Y-10132055D01*
X13445679Y-10132109D01*
X13445830Y-10137349D01*
X13442224Y-10143333D01*
X13435954Y-10146418D01*
X13433837Y-10146600D01*
X13365821Y-10146600D01*
X13363402Y-10146362D01*
X13362891Y-10146260D01*
X13362000Y-10146083D01*
X13362000Y-10146083D01*
X13360316Y-10146418D01*
X13354761Y-10147523D01*
X13347802Y-10146900D01*
X13342284Y-10142613D01*
X13339960Y-10136024D01*
X13341258Y-10130532D01*
X13341069Y-10130463D01*
X13341440Y-10129444D01*
X13341440Y-10129443D01*
X13343458Y-10118000D01*
X13343458Y-10118000D01*
X13342422Y-10112121D01*
X13341440Y-10106557D01*
X13339407Y-10103034D01*
X13337759Y-10096244D01*
X13337768Y-10096088D01*
X13337815Y-10095301D01*
X13340059Y-10058054D01*
X13342427Y-10051481D01*
X13347973Y-10047231D01*
X13352437Y-10046400D01*
X13572688Y-10046400D01*
X13579392Y-10048369D01*
X13580020Y-10048831D01*
X13580270Y-10048975D01*
X13580271Y-10048976D01*
X13591190Y-10052950D01*
X13591190Y-10052950D01*
X13602810Y-10052950D01*
X13602810Y-10052950D01*
X13613729Y-10048976D01*
X13622630Y-10041507D01*
X13628440Y-10031443D01*
X13630458Y-10020000D01*
X13630400Y-10019672D01*
X13629126Y-10012444D01*
X13628440Y-10008557D01*
X13624058Y-10000967D01*
X13622631Y-9998494D01*
X13622630Y-9998493D01*
X13614228Y-9991443D01*
X13613729Y-9991024D01*
X13602810Y-9987050D01*
X13591190Y-9987050D01*
X13587051Y-9988557D01*
X13580270Y-9991024D01*
X13579331Y-9991567D01*
X13579199Y-9991338D01*
X13574258Y-9993500D01*
X13572688Y-9993600D01*
X13377595Y-9993600D01*
X13370891Y-9991632D01*
X13366315Y-9986351D01*
X13365321Y-9979435D01*
X13368223Y-9973080D01*
X13372963Y-9967610D01*
X13379001Y-9954388D01*
X13381070Y-9940000D01*
X13379001Y-9925612D01*
X13374589Y-9915950D01*
X13372963Y-9912390D01*
X13372962Y-9912390D01*
X13363444Y-9901404D01*
X13351215Y-9893545D01*
X13339058Y-9889976D01*
X13337268Y-9889450D01*
X13337268Y-9889450D01*
X13322732Y-9889450D01*
X13322732Y-9889450D01*
X13316934Y-9891152D01*
X13308785Y-9893545D01*
X13308785Y-9893545D01*
X13308785Y-9893545D01*
X13296556Y-9901404D01*
X13296556Y-9901404D01*
X13296556Y-9901404D01*
X13296467Y-9901507D01*
X13287037Y-9912390D01*
X13287037Y-9912390D01*
X13281279Y-9924998D01*
X13276704Y-9930278D01*
X13270000Y-9932247D01*
X13263296Y-9930278D01*
X13258721Y-9924998D01*
X13258721Y-9924998D01*
X13252963Y-9912390D01*
X13252962Y-9912390D01*
X13243444Y-9901404D01*
X13231215Y-9893545D01*
X13219058Y-9889976D01*
X13217268Y-9889450D01*
X13217268Y-9889450D01*
X13202732Y-9889450D01*
X13202732Y-9889450D01*
X13196934Y-9891152D01*
X13188785Y-9893545D01*
X13188785Y-9893545D01*
X13188785Y-9893545D01*
X13176556Y-9901404D01*
X13176556Y-9901404D01*
X13176556Y-9901404D01*
X13176467Y-9901507D01*
X13167037Y-9912390D01*
X13167037Y-9912390D01*
X13161279Y-9924998D01*
X13156704Y-9930278D01*
X13150000Y-9932247D01*
X13143296Y-9930278D01*
X13138721Y-9924998D01*
X13138721Y-9924998D01*
X13132963Y-9912390D01*
X13132962Y-9912390D01*
X13123444Y-9901404D01*
X13111215Y-9893545D01*
X13099058Y-9889976D01*
X13097268Y-9889450D01*
X13097268Y-9889450D01*
X13082732Y-9889450D01*
X13082732Y-9889450D01*
X13076934Y-9891152D01*
X13068785Y-9893545D01*
X13068785Y-9893545D01*
X13068785Y-9893545D01*
X13060891Y-9898618D01*
X13054187Y-9900587D01*
X13047483Y-9898618D01*
X13046538Y-9897856D01*
X13044694Y-9896624D01*
X13042815Y-9895082D01*
X13006772Y-9859039D01*
X13003424Y-9852907D01*
X13003922Y-9845937D01*
X13006169Y-9842151D01*
X13012963Y-9834310D01*
X13018721Y-9821702D01*
X13023296Y-9816422D01*
X13030000Y-9814453D01*
X13036704Y-9816422D01*
X13041279Y-9821702D01*
X13047037Y-9834310D01*
X13056556Y-9845296D01*
X13068785Y-9853155D01*
X13078845Y-9856109D01*
X13082732Y-9857250D01*
X13082732Y-9857250D01*
X13097268Y-9857250D01*
X13100016Y-9856443D01*
X13111215Y-9853155D01*
X13123444Y-9845296D01*
X13132963Y-9834310D01*
X13138721Y-9821702D01*
X13143296Y-9816422D01*
X13150000Y-9814453D01*
X13156704Y-9816422D01*
X13161279Y-9821702D01*
X13167037Y-9834310D01*
X13176556Y-9845296D01*
X13188785Y-9853155D01*
X13198845Y-9856109D01*
X13202732Y-9857250D01*
X13202732Y-9857250D01*
X13217268Y-9857250D01*
X13220016Y-9856443D01*
X13231215Y-9853155D01*
X13243444Y-9845296D01*
X13252963Y-9834310D01*
X13258721Y-9821702D01*
X13263296Y-9816422D01*
X13270000Y-9814453D01*
X13276704Y-9816422D01*
X13281279Y-9821702D01*
X13287037Y-9834310D01*
X13296556Y-9845296D01*
X13308785Y-9853155D01*
X13318845Y-9856109D01*
X13322732Y-9857250D01*
X13322732Y-9857250D01*
X13337268Y-9857250D01*
X13340016Y-9856443D01*
X13351215Y-9853155D01*
X13363444Y-9845296D01*
X13372963Y-9834310D01*
X13373091Y-9834029D01*
X13375203Y-9829404D01*
X13379001Y-9821088D01*
X13381070Y-9806700D01*
X13379001Y-9792312D01*
X13374726Y-9782950D01*
X13372963Y-9779090D01*
X13372962Y-9779090D01*
X13372864Y-9778975D01*
X13363444Y-9768104D01*
X13351215Y-9760245D01*
X13341363Y-9757353D01*
X13337268Y-9756150D01*
X13337268Y-9756150D01*
X13322732Y-9756150D01*
X13322732Y-9756150D01*
X13317922Y-9757562D01*
X13308785Y-9760245D01*
X13308785Y-9760245D01*
X13308785Y-9760245D01*
X13296556Y-9768104D01*
X13296556Y-9768104D01*
X13296556Y-9768104D01*
X13295286Y-9769571D01*
X13287037Y-9779090D01*
X13287037Y-9779090D01*
X13281279Y-9791698D01*
X13276704Y-9796978D01*
X13270000Y-9798947D01*
X13263296Y-9796978D01*
X13258721Y-9791698D01*
X13258721Y-9791698D01*
X13252963Y-9779090D01*
X13252962Y-9779090D01*
X13252864Y-9778975D01*
X13243444Y-9768104D01*
X13231215Y-9760245D01*
X13221363Y-9757353D01*
X13217268Y-9756150D01*
X13217268Y-9756150D01*
X13202732Y-9756150D01*
X13202732Y-9756150D01*
X13197922Y-9757562D01*
X13188785Y-9760245D01*
X13188785Y-9760245D01*
X13188785Y-9760245D01*
X13176556Y-9768104D01*
X13176556Y-9768104D01*
X13176556Y-9768104D01*
X13175286Y-9769571D01*
X13167037Y-9779090D01*
X13167037Y-9779090D01*
X13161279Y-9791698D01*
X13156704Y-9796978D01*
X13150000Y-9798947D01*
X13143296Y-9796978D01*
X13138721Y-9791698D01*
X13138721Y-9791698D01*
X13132963Y-9779090D01*
X13132962Y-9779090D01*
X13132864Y-9778975D01*
X13123444Y-9768104D01*
X13111215Y-9760245D01*
X13101363Y-9757353D01*
X13097268Y-9756150D01*
X13097268Y-9756150D01*
X13082732Y-9756150D01*
X13082732Y-9756150D01*
X13077922Y-9757562D01*
X13068785Y-9760245D01*
X13068785Y-9760245D01*
X13068785Y-9760245D01*
X13056556Y-9768104D01*
X13056556Y-9768104D01*
X13056556Y-9768104D01*
X13055286Y-9769571D01*
X13047037Y-9779090D01*
X13047037Y-9779090D01*
X13041279Y-9791698D01*
X13036704Y-9796978D01*
X13030000Y-9798947D01*
X13023296Y-9796978D01*
X13018721Y-9791698D01*
X13018721Y-9791698D01*
X13012963Y-9779090D01*
X13012962Y-9779090D01*
X13012864Y-9778975D01*
X13003444Y-9768104D01*
X12991215Y-9760245D01*
X12981363Y-9757353D01*
X12977268Y-9756150D01*
X12977268Y-9756150D01*
X12962732Y-9756150D01*
X12962732Y-9756150D01*
X12957922Y-9757562D01*
X12948785Y-9760245D01*
X12948785Y-9760245D01*
X12948785Y-9760245D01*
X12936556Y-9768104D01*
X12936556Y-9768104D01*
X12936556Y-9768104D01*
X12935286Y-9769571D01*
X12927037Y-9779090D01*
X12927037Y-9779090D01*
X12920999Y-9792312D01*
X12920999Y-9792312D01*
X12918930Y-9806700D01*
X12920159Y-9815250D01*
X12919165Y-9822165D01*
X12914589Y-9827446D01*
X12907885Y-9829414D01*
X12901182Y-9827446D01*
X12899117Y-9825782D01*
X12857370Y-9784035D01*
X12855828Y-9782156D01*
X12855033Y-9780967D01*
X12846301Y-9775132D01*
X12846300Y-9775132D01*
X12838601Y-9773600D01*
X12838600Y-9773600D01*
X12836000Y-9773083D01*
X12836000Y-9773083D01*
X12835179Y-9773246D01*
X12834598Y-9773362D01*
X12832179Y-9773600D01*
X12791312Y-9773600D01*
X12784608Y-9771632D01*
X12783980Y-9771169D01*
X12783729Y-9771025D01*
X12783729Y-9771024D01*
X12783729Y-9771024D01*
X12772810Y-9767050D01*
X12761190Y-9767050D01*
X12750271Y-9771024D01*
X12741441Y-9778433D01*
X12741369Y-9778494D01*
X12739987Y-9780887D01*
X12734931Y-9785709D01*
X12728070Y-9787031D01*
X12721584Y-9784434D01*
X12719750Y-9782658D01*
X12719383Y-9782221D01*
X12710935Y-9775132D01*
X12710482Y-9774752D01*
X12699563Y-9770778D01*
X12687943Y-9770778D01*
X12686858Y-9770778D01*
X12686858Y-9770637D01*
X12681067Y-9769991D01*
X12675644Y-9765585D01*
X12673464Y-9758946D01*
X12673458Y-9758554D01*
X12673458Y-9758000D01*
X12672048Y-9750000D01*
X12671440Y-9746557D01*
X12665630Y-9736493D01*
X12665630Y-9736493D01*
X12665630Y-9736493D01*
X12655898Y-9728327D01*
X12656163Y-9728011D01*
X12652799Y-9724482D01*
X12651476Y-9717622D01*
X12654073Y-9711135D01*
X12659764Y-9707082D01*
X12663820Y-9706400D01*
X12845688Y-9706400D01*
X12852392Y-9708369D01*
X12853020Y-9708831D01*
X12853270Y-9708975D01*
X12853271Y-9708976D01*
X12864190Y-9712950D01*
X12864190Y-9712950D01*
X12875810Y-9712950D01*
X12875810Y-9712950D01*
X12886729Y-9708976D01*
X12895630Y-9701507D01*
X12901292Y-9691700D01*
X12906349Y-9686879D01*
X12913209Y-9685556D01*
X12919696Y-9688153D01*
X12923310Y-9692749D01*
X12927037Y-9700910D01*
X12936556Y-9711896D01*
X12948785Y-9719755D01*
X12959923Y-9723025D01*
X12962732Y-9723850D01*
X12962732Y-9723850D01*
X12977268Y-9723850D01*
X12979881Y-9723083D01*
X12991215Y-9719755D01*
X13003444Y-9711896D01*
X13012963Y-9700910D01*
X13018721Y-9688302D01*
X13023296Y-9683022D01*
X13030000Y-9681053D01*
X13036704Y-9683022D01*
X13041279Y-9688302D01*
X13047037Y-9700910D01*
X13056556Y-9711896D01*
X13068785Y-9719755D01*
X13079923Y-9723025D01*
X13082732Y-9723850D01*
X13082732Y-9723850D01*
X13097268Y-9723850D01*
X13099881Y-9723083D01*
X13111215Y-9719755D01*
X13123444Y-9711896D01*
X13132963Y-9700910D01*
X13138721Y-9688302D01*
X13143296Y-9683022D01*
X13150000Y-9681053D01*
X13156704Y-9683022D01*
X13161279Y-9688302D01*
X13167037Y-9700910D01*
X13176556Y-9711896D01*
X13188785Y-9719755D01*
X13199923Y-9723025D01*
X13202732Y-9723850D01*
X13202732Y-9723850D01*
X13217268Y-9723850D01*
X13219881Y-9723083D01*
X13231215Y-9719755D01*
X13243444Y-9711896D01*
X13252963Y-9700910D01*
X13258721Y-9688302D01*
X13263296Y-9683022D01*
X13270000Y-9681053D01*
X13276704Y-9683022D01*
G37*
G04 #@! TD.AperFunction*
G04 #@! TA.AperFunction,Conductor*
G36*
X12793114Y-9864519D02*
G01*
X12797690Y-9869799D01*
X12798233Y-9871545D01*
X12798560Y-9872444D01*
X12804369Y-9882506D01*
X12804370Y-9882507D01*
X12807381Y-9885033D01*
X12813271Y-9889976D01*
X12824190Y-9893950D01*
X12824190Y-9893950D01*
X12835810Y-9893950D01*
X12835810Y-9893950D01*
X12846729Y-9889976D01*
X12855630Y-9882507D01*
X12856899Y-9880309D01*
X12861956Y-9875488D01*
X12868816Y-9874165D01*
X12875303Y-9876762D01*
X12876406Y-9877741D01*
X12880630Y-9881965D01*
X12882172Y-9883844D01*
X12882966Y-9885033D01*
X12882967Y-9885033D01*
X12882967Y-9885033D01*
X12884665Y-9886168D01*
X12884665Y-9886168D01*
X12891699Y-9890868D01*
X12891699Y-9890868D01*
X12891699Y-9890868D01*
X12902000Y-9892917D01*
X12903402Y-9892638D01*
X12905821Y-9892400D01*
X12917206Y-9892400D01*
X12923910Y-9894369D01*
X12928486Y-9899649D01*
X12929480Y-9906565D01*
X12927241Y-9911467D01*
X12927517Y-9911644D01*
X12927037Y-9912390D01*
X12920999Y-9925612D01*
X12920999Y-9925612D01*
X12918930Y-9940000D01*
X12920999Y-9954388D01*
X12920999Y-9954388D01*
X12922084Y-9956763D01*
X12927037Y-9967610D01*
X12927037Y-9967610D01*
X12936556Y-9978596D01*
X12947666Y-9985735D01*
X12952241Y-9991016D01*
X12953235Y-9997931D01*
X12950333Y-10004287D01*
X12949730Y-10004935D01*
X12923384Y-10031280D01*
X12921506Y-10032822D01*
X12920317Y-10033617D01*
X12917822Y-10037350D01*
X12917822Y-10037350D01*
X12914482Y-10042349D01*
X12913676Y-10046400D01*
X12912665Y-10051481D01*
X12912433Y-10052650D01*
X12912712Y-10054052D01*
X12912950Y-10056471D01*
X12912950Y-10074370D01*
X12910981Y-10081074D01*
X12909318Y-10083138D01*
X12880638Y-10111818D01*
X12874506Y-10115167D01*
X12871870Y-10115450D01*
X12844630Y-10115450D01*
X12837926Y-10113482D01*
X12833351Y-10108201D01*
X12832356Y-10101285D01*
X12832418Y-10100897D01*
X12832424Y-10100865D01*
X12833458Y-10095000D01*
X12833370Y-10094498D01*
X12832405Y-10089024D01*
X12831440Y-10083557D01*
X12831293Y-10083300D01*
X12825432Y-10073150D01*
X12823785Y-10066360D01*
X12826070Y-10059757D01*
X12831562Y-10055438D01*
X12836171Y-10054550D01*
X12836361Y-10054550D01*
X12838780Y-10054788D01*
X12840000Y-10055031D01*
X12840000Y-10055031D01*
X12840000Y-10055031D01*
X12840000Y-10055031D01*
X12849579Y-10053126D01*
X12849579Y-10053126D01*
X12849579Y-10053126D01*
X12854707Y-10049699D01*
X12857700Y-10047700D01*
X12858391Y-10046665D01*
X12859933Y-10044786D01*
X12867137Y-10037582D01*
X12873270Y-10034233D01*
X12875661Y-10033976D01*
X12875809Y-10033950D01*
X12875810Y-10033950D01*
X12886729Y-10029976D01*
X12895630Y-10022507D01*
X12901440Y-10012443D01*
X12903458Y-10001000D01*
X12903457Y-10000993D01*
X12902452Y-9995293D01*
X12901440Y-9989557D01*
X12895630Y-9979493D01*
X12895630Y-9979493D01*
X12895630Y-9979493D01*
X12887832Y-9972950D01*
X12886729Y-9972024D01*
X12875810Y-9968050D01*
X12864190Y-9968050D01*
X12853271Y-9972024D01*
X12844439Y-9979435D01*
X12844369Y-9979494D01*
X12844369Y-9979494D01*
X12838559Y-9989557D01*
X12837704Y-9994405D01*
X12834602Y-10000665D01*
X12834262Y-10001019D01*
X12833463Y-10001818D01*
X12827331Y-10005167D01*
X12824695Y-10005450D01*
X12792517Y-10005450D01*
X12785813Y-10003482D01*
X12784546Y-10002549D01*
X12782730Y-10001025D01*
X12782729Y-10001024D01*
X12782729Y-10001024D01*
X12771810Y-9997050D01*
X12760190Y-9997050D01*
X12749271Y-10001024D01*
X12740369Y-10008493D01*
X12740369Y-10008494D01*
X12739538Y-10009191D01*
X12739438Y-10009071D01*
X12734631Y-10012269D01*
X12727645Y-10012380D01*
X12721708Y-10008696D01*
X12718706Y-10002387D01*
X12718550Y-10000428D01*
X12718550Y-9909305D01*
X12720518Y-9902601D01*
X12722182Y-9900537D01*
X12756537Y-9866182D01*
X12762669Y-9862833D01*
X12765305Y-9862550D01*
X12786410Y-9862550D01*
X12793114Y-9864519D01*
G37*
G04 #@! TD.AperFunction*
G04 #@! TA.AperFunction,Conductor*
G36*
X14145273Y-8946969D02*
G01*
X14149849Y-8952249D01*
X14150843Y-8959165D01*
X14149308Y-8963600D01*
X14144533Y-8971870D01*
X14139476Y-8976692D01*
X14132616Y-8978014D01*
X14128032Y-8976650D01*
X14123023Y-8974021D01*
X14106506Y-8969950D01*
X14089494Y-8969950D01*
X14072977Y-8974021D01*
X14057915Y-8981926D01*
X14045182Y-8993207D01*
X14035518Y-9007207D01*
X14029486Y-9023113D01*
X14029486Y-9023113D01*
X14027435Y-9040000D01*
X14029486Y-9056887D01*
X14029486Y-9056887D01*
X14032114Y-9063818D01*
X14034157Y-9069203D01*
X14034317Y-9069625D01*
X14034853Y-9076591D01*
X14031539Y-9082742D01*
X14031491Y-9082790D01*
X13992861Y-9121420D01*
X13986728Y-9124769D01*
X13986247Y-9124864D01*
X13985190Y-9125050D01*
X13980550Y-9126739D01*
X13974271Y-9129024D01*
X13974271Y-9129024D01*
X13974271Y-9129024D01*
X13970719Y-9132004D01*
X13964318Y-9134806D01*
X13957419Y-9133702D01*
X13952212Y-9129043D01*
X13950350Y-9122308D01*
X13951154Y-9118109D01*
X13953514Y-9111887D01*
X13955564Y-9095000D01*
X13953514Y-9078113D01*
X13952836Y-9076325D01*
X13950295Y-9069625D01*
X13947482Y-9062207D01*
X13946955Y-9061443D01*
X13942289Y-9054683D01*
X13937818Y-9048207D01*
X13928332Y-9039803D01*
X13925085Y-9036926D01*
X13910023Y-9029021D01*
X13893506Y-9024950D01*
X13876494Y-9024950D01*
X13859977Y-9029021D01*
X13844915Y-9036926D01*
X13833264Y-9047248D01*
X13832293Y-9048109D01*
X13832182Y-9048207D01*
X13822596Y-9062094D01*
X13817168Y-9066493D01*
X13812391Y-9067450D01*
X13706548Y-9067450D01*
X13699844Y-9065482D01*
X13697780Y-9063818D01*
X13690045Y-9056083D01*
X13686696Y-9049951D01*
X13686601Y-9049468D01*
X13686440Y-9048557D01*
X13686440Y-9048556D01*
X13680631Y-9038494D01*
X13680631Y-9038494D01*
X13680630Y-9038493D01*
X13680630Y-9038493D01*
X13680630Y-9038493D01*
X13671729Y-9031024D01*
X13671729Y-9031024D01*
X13660810Y-9027050D01*
X13649190Y-9027050D01*
X13638271Y-9031024D01*
X13629707Y-9038210D01*
X13629369Y-9038494D01*
X13629369Y-9038494D01*
X13628526Y-9039954D01*
X13623469Y-9044776D01*
X13616608Y-9046098D01*
X13610122Y-9043501D01*
X13609019Y-9042522D01*
X13594996Y-9028499D01*
X13593869Y-9027204D01*
X13593395Y-9026577D01*
X13589968Y-9023453D01*
X13589556Y-9023059D01*
X13588280Y-9021783D01*
X13588280Y-9021783D01*
X13588279Y-9021782D01*
X13587908Y-9021474D01*
X13587068Y-9020808D01*
X13585093Y-9019008D01*
X13584447Y-9018758D01*
X13581919Y-9017426D01*
X13581348Y-9017034D01*
X13581348Y-9017034D01*
X13581348Y-9017034D01*
X13578748Y-9016423D01*
X13577109Y-9015915D01*
X13574617Y-9014950D01*
X13574617Y-9014950D01*
X13573925Y-9014950D01*
X13571086Y-9014621D01*
X13570412Y-9014462D01*
X13567767Y-9014831D01*
X13566054Y-9014950D01*
X13560883Y-9014950D01*
X13554179Y-9012982D01*
X13550678Y-9009594D01*
X13542818Y-8998207D01*
X13530085Y-8986927D01*
X13530085Y-8986926D01*
X13515023Y-8979021D01*
X13498506Y-8974950D01*
X13481494Y-8974950D01*
X13464977Y-8979021D01*
X13449915Y-8986926D01*
X13439950Y-8995754D01*
X13437231Y-8998163D01*
X13437182Y-8998207D01*
X13427518Y-9012207D01*
X13421486Y-9028113D01*
X13421486Y-9028113D01*
X13419435Y-9045000D01*
X13420894Y-9057009D01*
X13419747Y-9063901D01*
X13415057Y-9069080D01*
X13408312Y-9070901D01*
X13404343Y-9070156D01*
X13395810Y-9067050D01*
X13384190Y-9067050D01*
X13373271Y-9071024D01*
X13364823Y-9078113D01*
X13364369Y-9078494D01*
X13364369Y-9078494D01*
X13358560Y-9088556D01*
X13358559Y-9088557D01*
X13356542Y-9100000D01*
X13356542Y-9100000D01*
X13358559Y-9111443D01*
X13358560Y-9111444D01*
X13364369Y-9121506D01*
X13364370Y-9121507D01*
X13366711Y-9123471D01*
X13373271Y-9128976D01*
X13384190Y-9132950D01*
X13384190Y-9132950D01*
X13395810Y-9132950D01*
X13395810Y-9132950D01*
X13406729Y-9128976D01*
X13415630Y-9121507D01*
X13421440Y-9111443D01*
X13422716Y-9104209D01*
X13425819Y-9097949D01*
X13431813Y-9094360D01*
X13438797Y-9094581D01*
X13443150Y-9097081D01*
X13449915Y-9103073D01*
X13449915Y-9103074D01*
X13463918Y-9110423D01*
X13464977Y-9110979D01*
X13481494Y-9115050D01*
X13498506Y-9115050D01*
X13515022Y-9110979D01*
X13525568Y-9105444D01*
X13530085Y-9103074D01*
X13530085Y-9103073D01*
X13530085Y-9103073D01*
X13542818Y-9091793D01*
X13546812Y-9086007D01*
X13552241Y-9081608D01*
X13559185Y-9080842D01*
X13565442Y-9083952D01*
X13565785Y-9084283D01*
X13577558Y-9096055D01*
X13579020Y-9097815D01*
X13579279Y-9098194D01*
X13579769Y-9098684D01*
X13581543Y-9100924D01*
X13581908Y-9101513D01*
X13581908Y-9101513D01*
X13581908Y-9101513D01*
X13583974Y-9103073D01*
X13584040Y-9103123D01*
X13585335Y-9104250D01*
X13658967Y-9177882D01*
X13662315Y-9184014D01*
X13661817Y-9190983D01*
X13657630Y-9196577D01*
X13651083Y-9199018D01*
X13650199Y-9199050D01*
X13646190Y-9199050D01*
X13635271Y-9203024D01*
X13635271Y-9203024D01*
X13635271Y-9203024D01*
X13633454Y-9204549D01*
X13627053Y-9207350D01*
X13625483Y-9207450D01*
X13620639Y-9207450D01*
X13618220Y-9207212D01*
X13617000Y-9206969D01*
X13617000Y-9206969D01*
X13617000Y-9206969D01*
X13607421Y-9208874D01*
X13607421Y-9208874D01*
X13607421Y-9208874D01*
X13604998Y-9210493D01*
X13604938Y-9210533D01*
X13599300Y-9214300D01*
X13598609Y-9215336D01*
X13597067Y-9217214D01*
X13557214Y-9257067D01*
X13555335Y-9258609D01*
X13554300Y-9259300D01*
X13554300Y-9259300D01*
X13552129Y-9262550D01*
X13552129Y-9262550D01*
X13548874Y-9267421D01*
X13548874Y-9267421D01*
X13546969Y-9277000D01*
X13546969Y-9277000D01*
X13546969Y-9277000D01*
X13547210Y-9278214D01*
X13547212Y-9278220D01*
X13547450Y-9280639D01*
X13547450Y-9326000D01*
X13547212Y-9328420D01*
X13546731Y-9330838D01*
X13546390Y-9330770D01*
X13545000Y-9335502D01*
X13539720Y-9340077D01*
X13532804Y-9341072D01*
X13527105Y-9338469D01*
X13527009Y-9338597D01*
X13526092Y-9337905D01*
X13523961Y-9336295D01*
X13522665Y-9335168D01*
X13476976Y-9289478D01*
X13473627Y-9283346D01*
X13474125Y-9276377D01*
X13478313Y-9270784D01*
X13481502Y-9269058D01*
X13481729Y-9268976D01*
X13490630Y-9261507D01*
X13496440Y-9251443D01*
X13498458Y-9240000D01*
X13496440Y-9228557D01*
X13491822Y-9220557D01*
X13490631Y-9218494D01*
X13490631Y-9218494D01*
X13490630Y-9218493D01*
X13490630Y-9218493D01*
X13490630Y-9218493D01*
X13481729Y-9211024D01*
X13481729Y-9211024D01*
X13470810Y-9207050D01*
X13459190Y-9207050D01*
X13448271Y-9211024D01*
X13441473Y-9216728D01*
X13439369Y-9218494D01*
X13435232Y-9225660D01*
X13430175Y-9230481D01*
X13423314Y-9231804D01*
X13416828Y-9229207D01*
X13415725Y-9228228D01*
X13304052Y-9116555D01*
X13300704Y-9110423D01*
X13301202Y-9103454D01*
X13304598Y-9098505D01*
X13305085Y-9098074D01*
X13305085Y-9098073D01*
X13317818Y-9086793D01*
X13327482Y-9072793D01*
X13333514Y-9056887D01*
X13335564Y-9040000D01*
X13333514Y-9023113D01*
X13333230Y-9022363D01*
X13331131Y-9016829D01*
X13327482Y-9007207D01*
X13326998Y-9006507D01*
X13321270Y-8998207D01*
X13317818Y-8993207D01*
X13306974Y-8983600D01*
X13305085Y-8981926D01*
X13290023Y-8974021D01*
X13273506Y-8969950D01*
X13256494Y-8969950D01*
X13239977Y-8974021D01*
X13224915Y-8981926D01*
X13212182Y-8993207D01*
X13202518Y-9007207D01*
X13196486Y-9023113D01*
X13196486Y-9023113D01*
X13194435Y-9040000D01*
X13196486Y-9056887D01*
X13196486Y-9056887D01*
X13202518Y-9072793D01*
X13206453Y-9078493D01*
X13212182Y-9086793D01*
X13224915Y-9098073D01*
X13228313Y-9099857D01*
X13233334Y-9104715D01*
X13234950Y-9110836D01*
X13234950Y-9113286D01*
X13234831Y-9114999D01*
X13234723Y-9115777D01*
X13234937Y-9120408D01*
X13234950Y-9120980D01*
X13234950Y-9122784D01*
X13234995Y-9123267D01*
X13235118Y-9124331D01*
X13235241Y-9126999D01*
X13235242Y-9127000D01*
X13235521Y-9127633D01*
X13236366Y-9130362D01*
X13236494Y-9131043D01*
X13236494Y-9131043D01*
X13236494Y-9131043D01*
X13237900Y-9133315D01*
X13238700Y-9134832D01*
X13239779Y-9137277D01*
X13239779Y-9137277D01*
X13239780Y-9137277D01*
X13240269Y-9137766D01*
X13242043Y-9140007D01*
X13242408Y-9140595D01*
X13242408Y-9140595D01*
X13242408Y-9140595D01*
X13242408Y-9140595D01*
X13244171Y-9141926D01*
X13244540Y-9142205D01*
X13245835Y-9143332D01*
X13469818Y-9367315D01*
X13473167Y-9373448D01*
X13473450Y-9376083D01*
X13473450Y-9399786D01*
X13473331Y-9401499D01*
X13473223Y-9402277D01*
X13473437Y-9406908D01*
X13473450Y-9407480D01*
X13473450Y-9409284D01*
X13473495Y-9409767D01*
X13473618Y-9410831D01*
X13473741Y-9413499D01*
X13473742Y-9413500D01*
X13474021Y-9414133D01*
X13474866Y-9416862D01*
X13474994Y-9417543D01*
X13474994Y-9417543D01*
X13475180Y-9417845D01*
X13476400Y-9419815D01*
X13477200Y-9421332D01*
X13478279Y-9423777D01*
X13478279Y-9423777D01*
X13478280Y-9423777D01*
X13478769Y-9424266D01*
X13480543Y-9426507D01*
X13480908Y-9427095D01*
X13480908Y-9427095D01*
X13480908Y-9427095D01*
X13480908Y-9427095D01*
X13482844Y-9428557D01*
X13483040Y-9428705D01*
X13484335Y-9429832D01*
X13508385Y-9453882D01*
X13511733Y-9460014D01*
X13511235Y-9466983D01*
X13507048Y-9472577D01*
X13501238Y-9474744D01*
X13501258Y-9474862D01*
X13500619Y-9474974D01*
X13500501Y-9475018D01*
X13500336Y-9475024D01*
X13500190Y-9475050D01*
X13490695Y-9478506D01*
X13489271Y-9479024D01*
X13480973Y-9485987D01*
X13480369Y-9486494D01*
X13480369Y-9486494D01*
X13475344Y-9495198D01*
X13470287Y-9500020D01*
X13463426Y-9501342D01*
X13456940Y-9498745D01*
X13456635Y-9498497D01*
X13448863Y-9491976D01*
X13447729Y-9491024D01*
X13436810Y-9487050D01*
X13425190Y-9487050D01*
X13414271Y-9491024D01*
X13411225Y-9493580D01*
X13405369Y-9498494D01*
X13405369Y-9498494D01*
X13399560Y-9508556D01*
X13399559Y-9508557D01*
X13398588Y-9514066D01*
X13395485Y-9520326D01*
X13389491Y-9523915D01*
X13382507Y-9523693D01*
X13376752Y-9519731D01*
X13375097Y-9517063D01*
X13372963Y-9512390D01*
X13372962Y-9512390D01*
X13363444Y-9501404D01*
X13351215Y-9493545D01*
X13340475Y-9490392D01*
X13337268Y-9489450D01*
X13337268Y-9489450D01*
X13336398Y-9489450D01*
X13329694Y-9487482D01*
X13325118Y-9482201D01*
X13324124Y-9475285D01*
X13327026Y-9468930D01*
X13328427Y-9467551D01*
X13333701Y-9463126D01*
X13335630Y-9461507D01*
X13341440Y-9451443D01*
X13343458Y-9440000D01*
X13343075Y-9437828D01*
X13342415Y-9434085D01*
X13341440Y-9428557D01*
X13336793Y-9420506D01*
X13335631Y-9418494D01*
X13335631Y-9418494D01*
X13335630Y-9418493D01*
X13335630Y-9418493D01*
X13335630Y-9418493D01*
X13326729Y-9411024D01*
X13326729Y-9411024D01*
X13315810Y-9407050D01*
X13304190Y-9407050D01*
X13293271Y-9411024D01*
X13285143Y-9417845D01*
X13284369Y-9418494D01*
X13284369Y-9418494D01*
X13278560Y-9428556D01*
X13278559Y-9428557D01*
X13276542Y-9440000D01*
X13276542Y-9440000D01*
X13278559Y-9451443D01*
X13278560Y-9451444D01*
X13284369Y-9461506D01*
X13284370Y-9461507D01*
X13293271Y-9468976D01*
X13293271Y-9468976D01*
X13293271Y-9468976D01*
X13304073Y-9472907D01*
X13309699Y-9477050D01*
X13312192Y-9483577D01*
X13310761Y-9490415D01*
X13306535Y-9494991D01*
X13296557Y-9501404D01*
X13296556Y-9501404D01*
X13296556Y-9501404D01*
X13294735Y-9503506D01*
X13287037Y-9512390D01*
X13287037Y-9512390D01*
X13281279Y-9524998D01*
X13276704Y-9530278D01*
X13270000Y-9532247D01*
X13263296Y-9530278D01*
X13258721Y-9524998D01*
X13258721Y-9524998D01*
X13252963Y-9512390D01*
X13252962Y-9512390D01*
X13243444Y-9501404D01*
X13231215Y-9493545D01*
X13220475Y-9490392D01*
X13217268Y-9489450D01*
X13217268Y-9489450D01*
X13202732Y-9489450D01*
X13202732Y-9489450D01*
X13199398Y-9490429D01*
X13188785Y-9493545D01*
X13188785Y-9493545D01*
X13188785Y-9493545D01*
X13176556Y-9501404D01*
X13176556Y-9501404D01*
X13176556Y-9501404D01*
X13175286Y-9502871D01*
X13167037Y-9512390D01*
X13167037Y-9512390D01*
X13161279Y-9524998D01*
X13156704Y-9530278D01*
X13150000Y-9532247D01*
X13143296Y-9530278D01*
X13138721Y-9524998D01*
X13138721Y-9524998D01*
X13132963Y-9512390D01*
X13132962Y-9512390D01*
X13123444Y-9501404D01*
X13123443Y-9501404D01*
X13123443Y-9501404D01*
X13113465Y-9494991D01*
X13108889Y-9489710D01*
X13107895Y-9482795D01*
X13110797Y-9476439D01*
X13115927Y-9472907D01*
X13126729Y-9468976D01*
X13135630Y-9461507D01*
X13141440Y-9451443D01*
X13143458Y-9440000D01*
X13143075Y-9437828D01*
X13142415Y-9434085D01*
X13141440Y-9428557D01*
X13136793Y-9420506D01*
X13135631Y-9418494D01*
X13135631Y-9418494D01*
X13135630Y-9418493D01*
X13135630Y-9418493D01*
X13135630Y-9418493D01*
X13126729Y-9411024D01*
X13126729Y-9411024D01*
X13115810Y-9407050D01*
X13104190Y-9407050D01*
X13093271Y-9411024D01*
X13085143Y-9417845D01*
X13084369Y-9418494D01*
X13084369Y-9418494D01*
X13080739Y-9424782D01*
X13075682Y-9429604D01*
X13068821Y-9430926D01*
X13062335Y-9428329D01*
X13059261Y-9424782D01*
X13055631Y-9418494D01*
X13055631Y-9418494D01*
X13055630Y-9418493D01*
X13055630Y-9418493D01*
X13055630Y-9418493D01*
X13046729Y-9411024D01*
X13043117Y-9409709D01*
X13037490Y-9405567D01*
X13034997Y-9399040D01*
X13035196Y-9395638D01*
X13035900Y-9392101D01*
X13035900Y-9392100D01*
X13035900Y-9328321D01*
X13036138Y-9325902D01*
X13036168Y-9325754D01*
X13036417Y-9324500D01*
X13035900Y-9321900D01*
X13035900Y-9321900D01*
X13034368Y-9314199D01*
X13028533Y-9305467D01*
X13028533Y-9305467D01*
X13027344Y-9304672D01*
X13025465Y-9303130D01*
X12945195Y-9222860D01*
X12941847Y-9216728D01*
X12942345Y-9209759D01*
X12945993Y-9204593D01*
X12946729Y-9203976D01*
X12946729Y-9203976D01*
X12955630Y-9196507D01*
X12961440Y-9186443D01*
X12963458Y-9175000D01*
X12961440Y-9163557D01*
X12955630Y-9153493D01*
X12955630Y-9153493D01*
X12955630Y-9153493D01*
X12947364Y-9146557D01*
X12946729Y-9146024D01*
X12935810Y-9142050D01*
X12924190Y-9142050D01*
X12913271Y-9146024D01*
X12913271Y-9146024D01*
X12912251Y-9146395D01*
X12912145Y-9146103D01*
X12907060Y-9147335D01*
X12900458Y-9145048D01*
X12896140Y-9139555D01*
X12895478Y-9132600D01*
X12896605Y-9129320D01*
X12896746Y-9129043D01*
X12900135Y-9122391D01*
X12900135Y-9122391D01*
X12900135Y-9122391D01*
X12901892Y-9111300D01*
X12901892Y-9111300D01*
X12900135Y-9100209D01*
X12895037Y-9090203D01*
X12887096Y-9082263D01*
X12877091Y-9077165D01*
X12866000Y-9075408D01*
X12866000Y-9075408D01*
X12854909Y-9077165D01*
X12844903Y-9082263D01*
X12836963Y-9090203D01*
X12831865Y-9100209D01*
X12831864Y-9100209D01*
X12831773Y-9100787D01*
X12828780Y-9107100D01*
X12822848Y-9110793D01*
X12815862Y-9110693D01*
X12815285Y-9110499D01*
X12805810Y-9107050D01*
X12794190Y-9107050D01*
X12783271Y-9111024D01*
X12775668Y-9117404D01*
X12774369Y-9118494D01*
X12774369Y-9118494D01*
X12773770Y-9119531D01*
X12768714Y-9124352D01*
X12761853Y-9125674D01*
X12755366Y-9123078D01*
X12751438Y-9117728D01*
X12750482Y-9115207D01*
X12740818Y-9101207D01*
X12728085Y-9089927D01*
X12725475Y-9088557D01*
X12721796Y-9086626D01*
X12716775Y-9081767D01*
X12715177Y-9074965D01*
X12716820Y-9069447D01*
X12721440Y-9061443D01*
X12723458Y-9050000D01*
X12723125Y-9048109D01*
X12722048Y-9042000D01*
X12721863Y-9040953D01*
X12722637Y-9034009D01*
X12727043Y-9028586D01*
X12733681Y-9026406D01*
X12734075Y-9026400D01*
X12909929Y-9026400D01*
X12916632Y-9028369D01*
X12918696Y-9030031D01*
X12932607Y-9043942D01*
X12935955Y-9050075D01*
X12936050Y-9050557D01*
X12936559Y-9053443D01*
X12942369Y-9063506D01*
X12942370Y-9063507D01*
X12944246Y-9065082D01*
X12951271Y-9070976D01*
X12962190Y-9074950D01*
X12962191Y-9074950D01*
X12963259Y-9075138D01*
X12963188Y-9075539D01*
X12967885Y-9076919D01*
X12972460Y-9082199D01*
X12973455Y-9089115D01*
X12973393Y-9089501D01*
X12972705Y-9093403D01*
X12971542Y-9100000D01*
X12971542Y-9100000D01*
X12973559Y-9111443D01*
X12973560Y-9111444D01*
X12979369Y-9121506D01*
X12979370Y-9121507D01*
X12981711Y-9123471D01*
X12988271Y-9128976D01*
X12999190Y-9132950D01*
X12999190Y-9132950D01*
X13010810Y-9132950D01*
X13010810Y-9132950D01*
X13021729Y-9128976D01*
X13030630Y-9121507D01*
X13036440Y-9111443D01*
X13038458Y-9100000D01*
X13038288Y-9099033D01*
X13037744Y-9095950D01*
X13036440Y-9088557D01*
X13032428Y-9081608D01*
X13030631Y-9078494D01*
X13030631Y-9078494D01*
X13030630Y-9078493D01*
X13030630Y-9078493D01*
X13030630Y-9078493D01*
X13021729Y-9071024D01*
X13021729Y-9071024D01*
X13010810Y-9067050D01*
X13010810Y-9067050D01*
X13009741Y-9066862D01*
X13009812Y-9066461D01*
X13005115Y-9065082D01*
X13000540Y-9059801D01*
X12999545Y-9052885D01*
X12999607Y-9052497D01*
X12999773Y-9051557D01*
X13001458Y-9042000D01*
X13001317Y-9041197D01*
X13000070Y-9034127D01*
X12999440Y-9030557D01*
X12995655Y-9024000D01*
X12993631Y-9020494D01*
X12993630Y-9020493D01*
X12984729Y-9013024D01*
X12984729Y-9013024D01*
X12974153Y-9009175D01*
X12969626Y-9006291D01*
X12947370Y-8984035D01*
X12945828Y-8982156D01*
X12945033Y-8980967D01*
X12936301Y-8975132D01*
X12936300Y-8975132D01*
X12928601Y-8973600D01*
X12928600Y-8973600D01*
X12926000Y-8973083D01*
X12926000Y-8973083D01*
X12925109Y-8973260D01*
X12924598Y-8973362D01*
X12922179Y-8973600D01*
X12486328Y-8973600D01*
X12479624Y-8971632D01*
X12477560Y-8969968D01*
X12473759Y-8966168D01*
X12470411Y-8960036D01*
X12470909Y-8953067D01*
X12475096Y-8947473D01*
X12481643Y-8945032D01*
X12482527Y-8945000D01*
X14138569Y-8945000D01*
X14145273Y-8946969D01*
G37*
G04 #@! TD.AperFunction*
G04 #@! TA.AperFunction,Conductor*
G36*
X14831433Y-8945346D02*
G01*
X14836194Y-8946495D01*
X14842249Y-8949981D01*
X14845458Y-8956188D01*
X14844801Y-8963144D01*
X14842656Y-8966669D01*
X14837462Y-8972663D01*
X14837462Y-8972663D01*
X14831483Y-8985754D01*
X14829435Y-9000000D01*
X14831483Y-9014246D01*
X14835938Y-9024000D01*
X14837462Y-9027337D01*
X14846887Y-9038214D01*
X14858995Y-9045995D01*
X14858995Y-9045995D01*
X14858995Y-9045995D01*
X14867085Y-9048371D01*
X14872634Y-9050000D01*
X14872804Y-9050050D01*
X14872804Y-9050050D01*
X14872804Y-9050050D01*
X14887196Y-9050050D01*
X14887196Y-9050050D01*
X14898582Y-9046707D01*
X14901005Y-9045995D01*
X14901005Y-9045995D01*
X14901005Y-9045995D01*
X14913113Y-9038214D01*
X14922538Y-9027337D01*
X14928516Y-9014246D01*
X14930565Y-9000000D01*
X14928592Y-8986282D01*
X14929587Y-8979366D01*
X14934162Y-8974085D01*
X14940866Y-8972117D01*
X14943775Y-8972463D01*
X14954690Y-8975098D01*
X14960745Y-8978584D01*
X14963954Y-8984791D01*
X14963297Y-8991747D01*
X14963060Y-8992302D01*
X14961483Y-8995754D01*
X14961483Y-8995754D01*
X14959435Y-9010000D01*
X14961483Y-9024246D01*
X14961483Y-9024246D01*
X14963164Y-9027926D01*
X14964158Y-9034842D01*
X14961256Y-9041197D01*
X14958774Y-9043387D01*
X14955545Y-9045545D01*
X14951113Y-9052177D01*
X14951113Y-9052177D01*
X14949950Y-9058025D01*
X14949950Y-9241975D01*
X14951113Y-9247823D01*
X14951113Y-9247823D01*
X14955545Y-9254455D01*
X14962177Y-9258887D01*
X14962177Y-9258887D01*
X14968025Y-9260050D01*
X14968025Y-9260050D01*
X14968025Y-9260050D01*
X15091975Y-9260050D01*
X15091975Y-9260050D01*
X15093457Y-9259755D01*
X15097823Y-9258887D01*
X15097823Y-9258887D01*
X15097823Y-9258887D01*
X15104455Y-9254455D01*
X15108887Y-9247823D01*
X15108887Y-9247823D01*
X15108887Y-9247823D01*
X15110050Y-9241975D01*
X15110050Y-9241975D01*
X15110050Y-9117321D01*
X15112018Y-9110618D01*
X15117299Y-9106042D01*
X15124215Y-9105048D01*
X15130570Y-9107950D01*
X15131218Y-9108553D01*
X15151968Y-9129303D01*
X15155317Y-9135436D01*
X15155600Y-9138071D01*
X15155600Y-9360929D01*
X15153631Y-9367633D01*
X15151968Y-9369697D01*
X15151697Y-9369968D01*
X15145564Y-9373317D01*
X15142929Y-9373600D01*
X15018972Y-9373600D01*
X15012268Y-9371632D01*
X15007693Y-9366351D01*
X15006699Y-9359435D01*
X15007693Y-9356049D01*
X15008516Y-9354246D01*
X15010565Y-9340000D01*
X15008516Y-9325754D01*
X15002538Y-9312663D01*
X14993113Y-9301786D01*
X14981005Y-9294005D01*
X14981005Y-9294005D01*
X14981005Y-9294005D01*
X14981005Y-9294005D01*
X14967196Y-9289950D01*
X14967196Y-9289950D01*
X14952804Y-9289950D01*
X14952804Y-9289950D01*
X14938995Y-9294005D01*
X14926887Y-9301786D01*
X14926887Y-9301786D01*
X14926887Y-9301786D01*
X14920715Y-9308909D01*
X14920358Y-9309320D01*
X14914481Y-9313098D01*
X14910987Y-9313600D01*
X14846380Y-9313600D01*
X14839676Y-9311632D01*
X14837612Y-9309968D01*
X14831314Y-9303670D01*
X14827965Y-9297538D01*
X14828464Y-9290568D01*
X14832651Y-9284975D01*
X14833373Y-9284474D01*
X14843113Y-9278214D01*
X14852538Y-9267337D01*
X14858516Y-9254246D01*
X14860565Y-9240000D01*
X14858516Y-9225754D01*
X14852538Y-9212663D01*
X14843113Y-9201786D01*
X14831005Y-9194005D01*
X14831005Y-9194005D01*
X14831005Y-9194005D01*
X14831005Y-9194005D01*
X14817196Y-9189950D01*
X14817196Y-9189950D01*
X14802804Y-9189950D01*
X14802804Y-9189950D01*
X14788995Y-9194005D01*
X14776887Y-9201786D01*
X14767462Y-9212663D01*
X14767462Y-9212663D01*
X14761115Y-9226561D01*
X14760982Y-9226500D01*
X14757723Y-9231571D01*
X14752023Y-9234360D01*
X14751659Y-9234433D01*
X14750256Y-9234712D01*
X14747838Y-9234950D01*
X14662450Y-9234950D01*
X14655746Y-9232982D01*
X14651171Y-9227701D01*
X14650050Y-9222550D01*
X14650050Y-9058025D01*
X14650050Y-9058025D01*
X14648887Y-9052177D01*
X14648887Y-9052177D01*
X14644455Y-9045545D01*
X14637823Y-9041113D01*
X14637823Y-9041113D01*
X14631975Y-9039950D01*
X14631975Y-9039950D01*
X14527450Y-9039950D01*
X14520746Y-9037982D01*
X14516171Y-9032701D01*
X14515050Y-9027550D01*
X14515050Y-9020471D01*
X14515288Y-9018052D01*
X14515309Y-9017950D01*
X14515567Y-9016650D01*
X14513518Y-9006349D01*
X14513518Y-9006349D01*
X14513518Y-9006349D01*
X14508818Y-8999315D01*
X14508818Y-8999315D01*
X14507683Y-8997617D01*
X14507683Y-8997617D01*
X14507683Y-8997617D01*
X14506494Y-8996822D01*
X14504615Y-8995280D01*
X14475503Y-8966168D01*
X14472155Y-8960036D01*
X14472653Y-8953067D01*
X14476840Y-8947473D01*
X14483387Y-8945032D01*
X14484271Y-8945000D01*
X14828525Y-8945000D01*
X14831433Y-8945346D01*
G37*
G04 #@! TD.AperFunction*
G04 #@! TA.AperFunction,Conductor*
G36*
X12867132Y-9219869D02*
G01*
X12869197Y-9221532D01*
X12964140Y-9316476D01*
X12967489Y-9322608D01*
X12966990Y-9329577D01*
X12962803Y-9335170D01*
X12959613Y-9336896D01*
X12948271Y-9341024D01*
X12944429Y-9344248D01*
X12940145Y-9346303D01*
X12940189Y-9346407D01*
X12939061Y-9346874D01*
X12939061Y-9346874D01*
X12939061Y-9346874D01*
X12936314Y-9348710D01*
X12936314Y-9348710D01*
X12930940Y-9352300D01*
X12930248Y-9353336D01*
X12928707Y-9355214D01*
X12927103Y-9356818D01*
X12920971Y-9360167D01*
X12918334Y-9360450D01*
X12877305Y-9360450D01*
X12870601Y-9358482D01*
X12868537Y-9356818D01*
X12852751Y-9341032D01*
X12849403Y-9334900D01*
X12849119Y-9332264D01*
X12849119Y-9304070D01*
X12849357Y-9301651D01*
X12849600Y-9300431D01*
X12848342Y-9294108D01*
X12847695Y-9290852D01*
X12847695Y-9290852D01*
X12847542Y-9290082D01*
X12848164Y-9283123D01*
X12848654Y-9282035D01*
X12849135Y-9281091D01*
X12849247Y-9280383D01*
X12850892Y-9270000D01*
X12850892Y-9270000D01*
X12849135Y-9258909D01*
X12844037Y-9248903D01*
X12836096Y-9240963D01*
X12835307Y-9240389D01*
X12835523Y-9240091D01*
X12831775Y-9236553D01*
X12830094Y-9229771D01*
X12832347Y-9223157D01*
X12837818Y-9218811D01*
X12842483Y-9217900D01*
X12860429Y-9217900D01*
X12867132Y-9219869D01*
G37*
G04 #@! TD.AperFunction*
G04 #@! TA.AperFunction,NonConductor*
G36*
X12323087Y-8965911D02*
G01*
X12326127Y-8972202D01*
X12325284Y-8979138D01*
X12322663Y-8983002D01*
X12307696Y-8997968D01*
X12301564Y-9001317D01*
X12298929Y-9001600D01*
X12266751Y-9001600D01*
X12260047Y-8999632D01*
X12255471Y-8994351D01*
X12254477Y-8987435D01*
X12257380Y-8981080D01*
X12262999Y-8977381D01*
X12270085Y-8975132D01*
X12310143Y-8962415D01*
X12317128Y-8962263D01*
X12323087Y-8965911D01*
G37*
G04 #@! TD.AperFunction*
G04 #@! TA.AperFunction,NonConductor*
G36*
X12598032Y-9028369D02*
G01*
X12602608Y-9033649D01*
X12603602Y-9040565D01*
X12600700Y-9046920D01*
X12600097Y-9047568D01*
X12543374Y-9104291D01*
X12538847Y-9107175D01*
X12528271Y-9111024D01*
X12528271Y-9111024D01*
X12520668Y-9117404D01*
X12519369Y-9118494D01*
X12519369Y-9118494D01*
X12513560Y-9128556D01*
X12513559Y-9128557D01*
X12511542Y-9140000D01*
X12511542Y-9140000D01*
X12513559Y-9151443D01*
X12513560Y-9151444D01*
X12519369Y-9161506D01*
X12519369Y-9161506D01*
X12519369Y-9161507D01*
X12528271Y-9168976D01*
X12539190Y-9172950D01*
X12539190Y-9172950D01*
X12550810Y-9172950D01*
X12550810Y-9172950D01*
X12561729Y-9168976D01*
X12570630Y-9161507D01*
X12576440Y-9151443D01*
X12576949Y-9148557D01*
X12580052Y-9142297D01*
X12580390Y-9141945D01*
X12597983Y-9124352D01*
X12604115Y-9121004D01*
X12611084Y-9121502D01*
X12616678Y-9125689D01*
X12619119Y-9132236D01*
X12619061Y-9134615D01*
X12617516Y-9147335D01*
X12617435Y-9148000D01*
X12617764Y-9150708D01*
X12619486Y-9164887D01*
X12619486Y-9164887D01*
X12625518Y-9180793D01*
X12629786Y-9186976D01*
X12635182Y-9194793D01*
X12640798Y-9199769D01*
X12644511Y-9205687D01*
X12644434Y-9212674D01*
X12640592Y-9218510D01*
X12634205Y-9221342D01*
X12632575Y-9221450D01*
X12507321Y-9221450D01*
X12500617Y-9219482D01*
X12496042Y-9214201D01*
X12495011Y-9207555D01*
X12495564Y-9203000D01*
X12494568Y-9194793D01*
X12493514Y-9186113D01*
X12487482Y-9170207D01*
X12487384Y-9170065D01*
X12481112Y-9160979D01*
X12477818Y-9156207D01*
X12466925Y-9146557D01*
X12465085Y-9144926D01*
X12453479Y-9138835D01*
X12448880Y-9134385D01*
X12448804Y-9134436D01*
X12448568Y-9134083D01*
X12448458Y-9133977D01*
X12448352Y-9133760D01*
X12444875Y-9128557D01*
X12444875Y-9128557D01*
X12443048Y-9125821D01*
X12442700Y-9125300D01*
X12442699Y-9125300D01*
X12442640Y-9125211D01*
X12440552Y-9118543D01*
X12440550Y-9118322D01*
X12440550Y-9105055D01*
X12442518Y-9098351D01*
X12447799Y-9093775D01*
X12454715Y-9092781D01*
X12457190Y-9093402D01*
X12464190Y-9095950D01*
X12464190Y-9095950D01*
X12475810Y-9095950D01*
X12475810Y-9095950D01*
X12486729Y-9091976D01*
X12495630Y-9084507D01*
X12501440Y-9074443D01*
X12503458Y-9063000D01*
X12503318Y-9062207D01*
X12502380Y-9056887D01*
X12501440Y-9051557D01*
X12497655Y-9045000D01*
X12496008Y-9038210D01*
X12498293Y-9031607D01*
X12503785Y-9027288D01*
X12508394Y-9026400D01*
X12591328Y-9026400D01*
X12598032Y-9028369D01*
G37*
G04 #@! TD.AperFunction*
G04 #@! TA.AperFunction,NonConductor*
G36*
X12666897Y-9272519D02*
G01*
X12671473Y-9277799D01*
X12672467Y-9284715D01*
X12672405Y-9285103D01*
X12671542Y-9290000D01*
X12671542Y-9290000D01*
X12672378Y-9294743D01*
X12671603Y-9301686D01*
X12667198Y-9307109D01*
X12660560Y-9309290D01*
X12655925Y-9308548D01*
X12651810Y-9307050D01*
X12640190Y-9307050D01*
X12640190Y-9307050D01*
X12635205Y-9308864D01*
X12634475Y-9309105D01*
X12627490Y-9311166D01*
X12626409Y-9311734D01*
X12626290Y-9311509D01*
X12621438Y-9313527D01*
X12620095Y-9313600D01*
X12605641Y-9313600D01*
X12603222Y-9313362D01*
X12601820Y-9313083D01*
X12601820Y-9313083D01*
X12601820Y-9313083D01*
X12599818Y-9313481D01*
X12599817Y-9313481D01*
X12599817Y-9313481D01*
X12599220Y-9313600D01*
X12599220Y-9313600D01*
X12595337Y-9314372D01*
X12591519Y-9315132D01*
X12588694Y-9317019D01*
X12582027Y-9319107D01*
X12575289Y-9317259D01*
X12571067Y-9312909D01*
X12565631Y-9303494D01*
X12565631Y-9303494D01*
X12565630Y-9303493D01*
X12565630Y-9303493D01*
X12565630Y-9303493D01*
X12558533Y-9297538D01*
X12556729Y-9296024D01*
X12552822Y-9294602D01*
X12547195Y-9290460D01*
X12544702Y-9283933D01*
X12546133Y-9277094D01*
X12551034Y-9272114D01*
X12557063Y-9270550D01*
X12660193Y-9270550D01*
X12666897Y-9272519D01*
G37*
G04 #@! TD.AperFunction*
G04 #@! TA.AperFunction,NonConductor*
G36*
X13553216Y-9346764D02*
G01*
X13553285Y-9346661D01*
X13553920Y-9347085D01*
X13554070Y-9347154D01*
X13554191Y-9347266D01*
X13555335Y-9348031D01*
X13557214Y-9349573D01*
X13573676Y-9366034D01*
X13577024Y-9372167D01*
X13576526Y-9379136D01*
X13572339Y-9384729D01*
X13571108Y-9385541D01*
X13570271Y-9386024D01*
X13570271Y-9386024D01*
X13570271Y-9386024D01*
X13563030Y-9392100D01*
X13561369Y-9393494D01*
X13559062Y-9397490D01*
X13554005Y-9402312D01*
X13547144Y-9403634D01*
X13540658Y-9401037D01*
X13539555Y-9400058D01*
X13537182Y-9397685D01*
X13533833Y-9391553D01*
X13533550Y-9388917D01*
X13533550Y-9365214D01*
X13533669Y-9363501D01*
X13533777Y-9362724D01*
X13533777Y-9362724D01*
X13533563Y-9358092D01*
X13533550Y-9357520D01*
X13533550Y-9356525D01*
X13535518Y-9349821D01*
X13540799Y-9345246D01*
X13547715Y-9344251D01*
X13553216Y-9346764D01*
G37*
G04 #@! TD.AperFunction*
G04 #@! TA.AperFunction,NonConductor*
G36*
X13701544Y-9222345D02*
G01*
X13706443Y-9225358D01*
X13745818Y-9264733D01*
X13749167Y-9270865D01*
X13749450Y-9273501D01*
X13749450Y-9273702D01*
X13749495Y-9274185D01*
X13749618Y-9275248D01*
X13749741Y-9277917D01*
X13749742Y-9277918D01*
X13750021Y-9278551D01*
X13750866Y-9281280D01*
X13750994Y-9281961D01*
X13750994Y-9281961D01*
X13750994Y-9281961D01*
X13752400Y-9284232D01*
X13753200Y-9285749D01*
X13754279Y-9288194D01*
X13754279Y-9288194D01*
X13754280Y-9288195D01*
X13754769Y-9288684D01*
X13756543Y-9290924D01*
X13756908Y-9291513D01*
X13756908Y-9291513D01*
X13756908Y-9291513D01*
X13756908Y-9291513D01*
X13759040Y-9293123D01*
X13760335Y-9294250D01*
X13876517Y-9410432D01*
X13879865Y-9416564D01*
X13879367Y-9423533D01*
X13875180Y-9429127D01*
X13868633Y-9431568D01*
X13867749Y-9431600D01*
X13633942Y-9431600D01*
X13627238Y-9429632D01*
X13622663Y-9424351D01*
X13621668Y-9417435D01*
X13623632Y-9412311D01*
X13624580Y-9410892D01*
X13624580Y-9410892D01*
X13624891Y-9410427D01*
X13626126Y-9408579D01*
X13626344Y-9407480D01*
X13628031Y-9399000D01*
X13628031Y-9399000D01*
X13627788Y-9397780D01*
X13627550Y-9395361D01*
X13627550Y-9364279D01*
X13627788Y-9361860D01*
X13627859Y-9361507D01*
X13628031Y-9360640D01*
X13628004Y-9360506D01*
X13626705Y-9353976D01*
X13626658Y-9353738D01*
X13627281Y-9346779D01*
X13631567Y-9341261D01*
X13632832Y-9340591D01*
X13632790Y-9340518D01*
X13633729Y-9339976D01*
X13634038Y-9339716D01*
X13642630Y-9332507D01*
X13648440Y-9322443D01*
X13648441Y-9322443D01*
X13648811Y-9321424D01*
X13649176Y-9321557D01*
X13651375Y-9317114D01*
X13657368Y-9313522D01*
X13664352Y-9313740D01*
X13664724Y-9313869D01*
X13673190Y-9316950D01*
X13673190Y-9316950D01*
X13684810Y-9316950D01*
X13684810Y-9316950D01*
X13695729Y-9312976D01*
X13704630Y-9305507D01*
X13710440Y-9295443D01*
X13712458Y-9284000D01*
X13710440Y-9272557D01*
X13706643Y-9265979D01*
X13704631Y-9262494D01*
X13704630Y-9262493D01*
X13695729Y-9255024D01*
X13692040Y-9253681D01*
X13686413Y-9249539D01*
X13683920Y-9243012D01*
X13684069Y-9239876D01*
X13685458Y-9232000D01*
X13685458Y-9232000D01*
X13685463Y-9231973D01*
X13688566Y-9225712D01*
X13694560Y-9222123D01*
X13701544Y-9222345D01*
G37*
G04 #@! TD.AperFunction*
G04 #@! TA.AperFunction,NonConductor*
G36*
X15224952Y-9097430D02*
G01*
X15226465Y-9098446D01*
X15255310Y-9121054D01*
X15259372Y-9126739D01*
X15259575Y-9130854D01*
X15259984Y-9130853D01*
X15261000Y-9469000D01*
X15263134Y-9471139D01*
X15266477Y-9477274D01*
X15265972Y-9484243D01*
X15263126Y-9488666D01*
X15252231Y-9499561D01*
X15246099Y-9502910D01*
X15239130Y-9502411D01*
X15234695Y-9499561D01*
X15226096Y-9490963D01*
X15216091Y-9485865D01*
X15205000Y-9484108D01*
X15205000Y-9484108D01*
X15193909Y-9485865D01*
X15183904Y-9490962D01*
X15183533Y-9491232D01*
X15176953Y-9493580D01*
X15176244Y-9493600D01*
X15061870Y-9493600D01*
X15055166Y-9491632D01*
X15053102Y-9489968D01*
X15048096Y-9484963D01*
X15038091Y-9479865D01*
X15027000Y-9478108D01*
X15027000Y-9478108D01*
X15016878Y-9479711D01*
X15009949Y-9478816D01*
X15004604Y-9474316D01*
X15002540Y-9467641D01*
X15002539Y-9467464D01*
X15002539Y-9467129D01*
X15000782Y-9456038D01*
X14995241Y-9445163D01*
X14995371Y-9445096D01*
X14993377Y-9439509D01*
X14994959Y-9432703D01*
X14999969Y-9427833D01*
X15005757Y-9426400D01*
X15155179Y-9426400D01*
X15157598Y-9426638D01*
X15159000Y-9426917D01*
X15169301Y-9424868D01*
X15175829Y-9420506D01*
X15175829Y-9420506D01*
X15177167Y-9419612D01*
X15178033Y-9419033D01*
X15178828Y-9417845D01*
X15180369Y-9415966D01*
X15197965Y-9398370D01*
X15199845Y-9396828D01*
X15201033Y-9396033D01*
X15206868Y-9387301D01*
X15208400Y-9379600D01*
X15208400Y-9379600D01*
X15208917Y-9377000D01*
X15208638Y-9375598D01*
X15208400Y-9373179D01*
X15208400Y-9125821D01*
X15208638Y-9123402D01*
X15208700Y-9123090D01*
X15208917Y-9122000D01*
X15208917Y-9122000D01*
X15206906Y-9111887D01*
X15206868Y-9111699D01*
X15206868Y-9111699D01*
X15206654Y-9110625D01*
X15207277Y-9103665D01*
X15211563Y-9098148D01*
X15218152Y-9095823D01*
X15224952Y-9097430D01*
G37*
G04 #@! TD.AperFunction*
G04 #@! TA.AperFunction,NonConductor*
G36*
X13077665Y-9451671D02*
G01*
X13080738Y-9455218D01*
X13084369Y-9461506D01*
X13084369Y-9461506D01*
X13084370Y-9461507D01*
X13091573Y-9467551D01*
X13095443Y-9473368D01*
X13095554Y-9480354D01*
X13091870Y-9486291D01*
X13085562Y-9489294D01*
X13083602Y-9489450D01*
X13082732Y-9489450D01*
X13079398Y-9490429D01*
X13068785Y-9493545D01*
X13068785Y-9493545D01*
X13068785Y-9493545D01*
X13056556Y-9501404D01*
X13056556Y-9501404D01*
X13056556Y-9501404D01*
X13055286Y-9502871D01*
X13047037Y-9512390D01*
X13047037Y-9512390D01*
X13041279Y-9524998D01*
X13036704Y-9530278D01*
X13030000Y-9532247D01*
X13023296Y-9530278D01*
X13018721Y-9524998D01*
X13018721Y-9524998D01*
X13012963Y-9512390D01*
X13012962Y-9512390D01*
X13003444Y-9501404D01*
X12991215Y-9493545D01*
X12980475Y-9490392D01*
X12977268Y-9489450D01*
X12977268Y-9489450D01*
X12976398Y-9489450D01*
X12969694Y-9487482D01*
X12965118Y-9482201D01*
X12964124Y-9475285D01*
X12967026Y-9468930D01*
X12968427Y-9467551D01*
X12973701Y-9463126D01*
X12975630Y-9461507D01*
X12979261Y-9455218D01*
X12984318Y-9450396D01*
X12991179Y-9449074D01*
X12997665Y-9451671D01*
X13000738Y-9455218D01*
X13004369Y-9461506D01*
X13004369Y-9461506D01*
X13004370Y-9461507D01*
X13007913Y-9464480D01*
X13013271Y-9468976D01*
X13024190Y-9472950D01*
X13024190Y-9472950D01*
X13035810Y-9472950D01*
X13035810Y-9472950D01*
X13046729Y-9468976D01*
X13055630Y-9461507D01*
X13059261Y-9455218D01*
X13064318Y-9450396D01*
X13071179Y-9449074D01*
X13077665Y-9451671D01*
G37*
G04 #@! TD.AperFunction*
G04 #@! TA.AperFunction,NonConductor*
G36*
X15182948Y-9548369D02*
G01*
X15183533Y-9548768D01*
X15183904Y-9549038D01*
X15193909Y-9554135D01*
X15201280Y-9555303D01*
X15207593Y-9558296D01*
X15211286Y-9564227D01*
X15211186Y-9571213D01*
X15207325Y-9577036D01*
X15200929Y-9579848D01*
X15199340Y-9579950D01*
X15145069Y-9579950D01*
X15138365Y-9577982D01*
X15137780Y-9577582D01*
X15126004Y-9569026D01*
X15126118Y-9568869D01*
X15121935Y-9564482D01*
X15120613Y-9557621D01*
X15123210Y-9551135D01*
X15128901Y-9547082D01*
X15132957Y-9546400D01*
X15176244Y-9546400D01*
X15182948Y-9548369D01*
G37*
G04 #@! TD.AperFunction*
G04 #@! TA.AperFunction,NonConductor*
G36*
X14996936Y-9696906D02*
G01*
X15002530Y-9701093D01*
X15003342Y-9702324D01*
X15004331Y-9704037D01*
X15004713Y-9704699D01*
X15008017Y-9708369D01*
X15010287Y-9710890D01*
X15013310Y-9717189D01*
X15012448Y-9724123D01*
X15007974Y-9729489D01*
X15005716Y-9730430D01*
X15005805Y-9730646D01*
X15004677Y-9731113D01*
X14998620Y-9735160D01*
X14991953Y-9737248D01*
X14991731Y-9737250D01*
X14977009Y-9737250D01*
X14970305Y-9735282D01*
X14965729Y-9730001D01*
X14964735Y-9723085D01*
X14967637Y-9716730D01*
X14968241Y-9716082D01*
X14968439Y-9715884D01*
X14968439Y-9715883D01*
X14969234Y-9714695D01*
X14970775Y-9712816D01*
X14983835Y-9699756D01*
X14989967Y-9696408D01*
X14996936Y-9696906D01*
G37*
G04 #@! TD.AperFunction*
G04 #@! TA.AperFunction,NonConductor*
G36*
X15183551Y-9684073D02*
G01*
X15186935Y-9688191D01*
X15190963Y-9696097D01*
X15198903Y-9704037D01*
X15208909Y-9709135D01*
X15220000Y-9710892D01*
X15220000Y-9710892D01*
X15220000Y-9710892D01*
X15220000Y-9710892D01*
X15220610Y-9710795D01*
X15227539Y-9711690D01*
X15232884Y-9716190D01*
X15234949Y-9722865D01*
X15234950Y-9723043D01*
X15234950Y-9848115D01*
X15232981Y-9854818D01*
X15227701Y-9859394D01*
X15220785Y-9860388D01*
X15214430Y-9857486D01*
X15213782Y-9856883D01*
X15213700Y-9856800D01*
X15212665Y-9856109D01*
X15210786Y-9854567D01*
X15176433Y-9820214D01*
X15174891Y-9818335D01*
X15174200Y-9817301D01*
X15174200Y-9817301D01*
X15172884Y-9816422D01*
X15171782Y-9815685D01*
X15167301Y-9810324D01*
X15166509Y-9807793D01*
X15166148Y-9805979D01*
X15166276Y-9805953D01*
X15165668Y-9800299D01*
X15166369Y-9797910D01*
X15166440Y-9797557D01*
X15167550Y-9791975D01*
X15167550Y-9748025D01*
X15167550Y-9748025D01*
X15167550Y-9748025D01*
X15166387Y-9742177D01*
X15166387Y-9742177D01*
X15161955Y-9735545D01*
X15155323Y-9731113D01*
X15154195Y-9730646D01*
X15154367Y-9730230D01*
X15150308Y-9728102D01*
X15146857Y-9722026D01*
X15147238Y-9715050D01*
X15149712Y-9710890D01*
X15155287Y-9704699D01*
X15165014Y-9687851D01*
X15165014Y-9687850D01*
X15165147Y-9687620D01*
X15170204Y-9682799D01*
X15177065Y-9681476D01*
X15183551Y-9684073D01*
G37*
G04 #@! TD.AperFunction*
G04 #@! TA.AperFunction,NonConductor*
G36*
X14986754Y-9804719D02*
G01*
X14991329Y-9809999D01*
X14992450Y-9815150D01*
X14992450Y-9856975D01*
X14992450Y-9856975D01*
X14992450Y-9856975D01*
X14993177Y-9860631D01*
X14992554Y-9867590D01*
X14988268Y-9873108D01*
X14981679Y-9875432D01*
X14981015Y-9875450D01*
X14957847Y-9875450D01*
X14951144Y-9873482D01*
X14947109Y-9869250D01*
X14942631Y-9861494D01*
X14942631Y-9861494D01*
X14942630Y-9861493D01*
X14942630Y-9861493D01*
X14942630Y-9861493D01*
X14935106Y-9855180D01*
X14931236Y-9849363D01*
X14931125Y-9842377D01*
X14934809Y-9836440D01*
X14938836Y-9834029D01*
X14941729Y-9832976D01*
X14950630Y-9825507D01*
X14956440Y-9815443D01*
X14956872Y-9812997D01*
X14959975Y-9806737D01*
X14965969Y-9803147D01*
X14969083Y-9802750D01*
X14980050Y-9802750D01*
X14986754Y-9804719D01*
G37*
G04 #@! TD.AperFunction*
G04 #@! TA.AperFunction,NonConductor*
G36*
X13003053Y-10048369D02*
G01*
X13007629Y-10053649D01*
X13008623Y-10060565D01*
X13005720Y-10066920D01*
X13000590Y-10070452D01*
X12996271Y-10072024D01*
X12996271Y-10072024D01*
X12996271Y-10072024D01*
X12993559Y-10074299D01*
X12988008Y-10076962D01*
X12983617Y-10077835D01*
X12976658Y-10077213D01*
X12971140Y-10072926D01*
X12968815Y-10066337D01*
X12970422Y-10059538D01*
X12972429Y-10056906D01*
X12979304Y-10050032D01*
X12985436Y-10046683D01*
X12988071Y-10046400D01*
X12996349Y-10046400D01*
X13003053Y-10048369D01*
G37*
G04 #@! TD.AperFunction*
G04 #@! TA.AperFunction,NonConductor*
G36*
X15227879Y-9939726D02*
G01*
X15233087Y-9944385D01*
X15234950Y-9950922D01*
X15234950Y-10048766D01*
X15232981Y-10055469D01*
X15227701Y-10060045D01*
X15221895Y-10060880D01*
X15221895Y-10061050D01*
X15220810Y-10061050D01*
X15209190Y-10061050D01*
X15198271Y-10065024D01*
X15189928Y-10072024D01*
X15189369Y-10072494D01*
X15189369Y-10072494D01*
X15183560Y-10082556D01*
X15183559Y-10082557D01*
X15181542Y-10094000D01*
X15181542Y-10094498D01*
X15179573Y-10101202D01*
X15174293Y-10105777D01*
X15167377Y-10106772D01*
X15161021Y-10103869D01*
X15158403Y-10100698D01*
X15156543Y-10097477D01*
X15155287Y-10095301D01*
X15151703Y-10091321D01*
X15149713Y-10089110D01*
X15146690Y-10082811D01*
X15147552Y-10075877D01*
X15152026Y-10070511D01*
X15154288Y-10069581D01*
X15154195Y-10069354D01*
X15155323Y-10068887D01*
X15155323Y-10068887D01*
X15161955Y-10064455D01*
X15166387Y-10057823D01*
X15166387Y-10057823D01*
X15166387Y-10057823D01*
X15167550Y-10051975D01*
X15167550Y-10051975D01*
X15167550Y-10008025D01*
X15167550Y-10008025D01*
X15166148Y-10000979D01*
X15166276Y-10000954D01*
X15165668Y-9995299D01*
X15166369Y-9992910D01*
X15166514Y-9992182D01*
X15167550Y-9986975D01*
X15167550Y-9956419D01*
X15169518Y-9949715D01*
X15174799Y-9945139D01*
X15181715Y-9944145D01*
X15184190Y-9944766D01*
X15190190Y-9946950D01*
X15190190Y-9946950D01*
X15201810Y-9946950D01*
X15201810Y-9946950D01*
X15212729Y-9942976D01*
X15214579Y-9941423D01*
X15220980Y-9938622D01*
X15227879Y-9939726D01*
G37*
G04 #@! TD.AperFunction*
G04 #@! TA.AperFunction,NonConductor*
G36*
X14564854Y-10097477D02*
G01*
X14570447Y-10101664D01*
X14572889Y-10108210D01*
X14572732Y-10111248D01*
X14571542Y-10118000D01*
X14571542Y-10118000D01*
X14573559Y-10129443D01*
X14573560Y-10129444D01*
X14574660Y-10131350D01*
X14576308Y-10138140D01*
X14574022Y-10144743D01*
X14568530Y-10149062D01*
X14563922Y-10149950D01*
X14533800Y-10149950D01*
X14527096Y-10147982D01*
X14522521Y-10142701D01*
X14521400Y-10137550D01*
X14521400Y-10135815D01*
X14523368Y-10129111D01*
X14525031Y-10127048D01*
X14551753Y-10100326D01*
X14557885Y-10096978D01*
X14564854Y-10097477D01*
G37*
G04 #@! TD.AperFunction*
G04 #@! TA.AperFunction,NonConductor*
G36*
X13005507Y-10133337D02*
G01*
X13007190Y-10133950D01*
X13007190Y-10133950D01*
X13013779Y-10133950D01*
X13020482Y-10135919D01*
X13025058Y-10141199D01*
X13026052Y-10148115D01*
X13023150Y-10154470D01*
X13022547Y-10155118D01*
X13017697Y-10159968D01*
X13011564Y-10163317D01*
X13008929Y-10163600D01*
X13002400Y-10163600D01*
X13000202Y-10164037D01*
X12995953Y-10164882D01*
X12988994Y-10164259D01*
X12983477Y-10159973D01*
X12981152Y-10153384D01*
X12982759Y-10146584D01*
X12984766Y-10143953D01*
X12992498Y-10136221D01*
X12998630Y-10132873D01*
X13005507Y-10133337D01*
G37*
G04 #@! TD.AperFunction*
G04 #@! TA.AperFunction,NonConductor*
G36*
X15187368Y-10114542D02*
G01*
X15190512Y-10116465D01*
X15198271Y-10122976D01*
X15209190Y-10126950D01*
X15209190Y-10126950D01*
X15221895Y-10126950D01*
X15221895Y-10127190D01*
X15227339Y-10127797D01*
X15232763Y-10132202D01*
X15234944Y-10138839D01*
X15234950Y-10139234D01*
X15234950Y-10141650D01*
X15232981Y-10148354D01*
X15227701Y-10152929D01*
X15222550Y-10154050D01*
X15212190Y-10154050D01*
X15201271Y-10158024D01*
X15201271Y-10158024D01*
X15201271Y-10158024D01*
X15192917Y-10165034D01*
X15186516Y-10167835D01*
X15179617Y-10166731D01*
X15174410Y-10162073D01*
X15172548Y-10155338D01*
X15172614Y-10154241D01*
X15173060Y-10150000D01*
X15171026Y-10130652D01*
X15170748Y-10129796D01*
X15170548Y-10122812D01*
X15174156Y-10116828D01*
X15180427Y-10113746D01*
X15187368Y-10114542D01*
G37*
G04 #@! TD.AperFunction*
G04 #@! TA.AperFunction,NonConductor*
G36*
X14886588Y-9775742D02*
G01*
X14892182Y-9779929D01*
X14894623Y-9786476D01*
X14893907Y-9791601D01*
X14893559Y-9792556D01*
X14891542Y-9804000D01*
X14891542Y-9804000D01*
X14893559Y-9815443D01*
X14893560Y-9815444D01*
X14899369Y-9825506D01*
X14899370Y-9825507D01*
X14906894Y-9831820D01*
X14910764Y-9837637D01*
X14910875Y-9844623D01*
X14907191Y-9850560D01*
X14903164Y-9852971D01*
X14902516Y-9853207D01*
X14900271Y-9854024D01*
X14891429Y-9861444D01*
X14891369Y-9861494D01*
X14891369Y-9861494D01*
X14885560Y-9871556D01*
X14885559Y-9871557D01*
X14883542Y-9883000D01*
X14883542Y-9883000D01*
X14885559Y-9894443D01*
X14885560Y-9894444D01*
X14891369Y-9904506D01*
X14891370Y-9904507D01*
X14894754Y-9907347D01*
X14900271Y-9911976D01*
X14911190Y-9915950D01*
X14911190Y-9915950D01*
X14912007Y-9916094D01*
X14916743Y-9917996D01*
X14919532Y-9919859D01*
X14924421Y-9923126D01*
X14924421Y-9923126D01*
X14934000Y-9925031D01*
X14934000Y-9925031D01*
X14934000Y-9925031D01*
X14934000Y-9925031D01*
X14935220Y-9924788D01*
X14937639Y-9924550D01*
X14981015Y-9924550D01*
X14987719Y-9926519D01*
X14992295Y-9931799D01*
X14993289Y-9938715D01*
X14993177Y-9939369D01*
X14992450Y-9943025D01*
X14992450Y-9944489D01*
X14990481Y-9951193D01*
X14985201Y-9955769D01*
X14978285Y-9956763D01*
X14975809Y-9956142D01*
X14972810Y-9955050D01*
X14961190Y-9955050D01*
X14950271Y-9959024D01*
X14941983Y-9965979D01*
X14941369Y-9966494D01*
X14941369Y-9966494D01*
X14935579Y-9976522D01*
X14930523Y-9981344D01*
X14923662Y-9982666D01*
X14917176Y-9980069D01*
X14916870Y-9979821D01*
X14914729Y-9978024D01*
X14914729Y-9978024D01*
X14903810Y-9974050D01*
X14892190Y-9974050D01*
X14885303Y-9976557D01*
X14881271Y-9978024D01*
X14872369Y-9985494D01*
X14872369Y-9985494D01*
X14866560Y-9995556D01*
X14866559Y-9995557D01*
X14864542Y-10007000D01*
X14864542Y-10007000D01*
X14866559Y-10018443D01*
X14866560Y-10018444D01*
X14872369Y-10028506D01*
X14872369Y-10028506D01*
X14872369Y-10028507D01*
X14878857Y-10033950D01*
X14879971Y-10034885D01*
X14883841Y-10040702D01*
X14883952Y-10047688D01*
X14880769Y-10053152D01*
X14751218Y-10182703D01*
X14745086Y-10186051D01*
X14738117Y-10185553D01*
X14732523Y-10181366D01*
X14730082Y-10174819D01*
X14730050Y-10173935D01*
X14730050Y-10168025D01*
X14730050Y-10168025D01*
X14728887Y-10162177D01*
X14728887Y-10162177D01*
X14724455Y-10155545D01*
X14717823Y-10151113D01*
X14717823Y-10151113D01*
X14711975Y-10149950D01*
X14711975Y-10149950D01*
X14646078Y-10149950D01*
X14639374Y-10147982D01*
X14634799Y-10142701D01*
X14633805Y-10135785D01*
X14635340Y-10131350D01*
X14635752Y-10130635D01*
X14636440Y-10129443D01*
X14638458Y-10118000D01*
X14638458Y-10118000D01*
X14637422Y-10112121D01*
X14636440Y-10106557D01*
X14633058Y-10100698D01*
X14630631Y-10096494D01*
X14630630Y-10096493D01*
X14622243Y-10089455D01*
X14621729Y-10089024D01*
X14610810Y-10085050D01*
X14599190Y-10085050D01*
X14599190Y-10085050D01*
X14598874Y-10085106D01*
X14598376Y-10085050D01*
X14598105Y-10085050D01*
X14598105Y-10085020D01*
X14591931Y-10084331D01*
X14586508Y-10079926D01*
X14584327Y-10073287D01*
X14586082Y-10066524D01*
X14587953Y-10064126D01*
X14873487Y-9778592D01*
X14879619Y-9775244D01*
X14886588Y-9775742D01*
G37*
G04 #@! TD.AperFunction*
G04 #@! TA.AperFunction,NonConductor*
G36*
X14924183Y-10112620D02*
G01*
X14929777Y-10116807D01*
X14932218Y-10123353D01*
X14932250Y-10124238D01*
X14932250Y-10148898D01*
X14932062Y-10151051D01*
X14931542Y-10154000D01*
X14931542Y-10154000D01*
X14933559Y-10165443D01*
X14933560Y-10165444D01*
X14939369Y-10175506D01*
X14939370Y-10175507D01*
X14943820Y-10179241D01*
X14948271Y-10182976D01*
X14959190Y-10186950D01*
X14959190Y-10186950D01*
X14970810Y-10186950D01*
X14970810Y-10186950D01*
X14980580Y-10183394D01*
X14987553Y-10182951D01*
X14993659Y-10186348D01*
X14995560Y-10188846D01*
X14999252Y-10195241D01*
X15004713Y-10204699D01*
X15008683Y-10209108D01*
X15017730Y-10219156D01*
X15017730Y-10219157D01*
X15017731Y-10219157D01*
X15028559Y-10227024D01*
X15033470Y-10230592D01*
X15037882Y-10232557D01*
X15051243Y-10238505D01*
X15070273Y-10242550D01*
X15070274Y-10242550D01*
X15070425Y-10242566D01*
X15070508Y-10242600D01*
X15070908Y-10242685D01*
X15070893Y-10242758D01*
X15076887Y-10245224D01*
X15080886Y-10250953D01*
X15081152Y-10257935D01*
X15080923Y-10258730D01*
X15080865Y-10258909D01*
X15079108Y-10270000D01*
X15079108Y-10270000D01*
X15080865Y-10281091D01*
X15086383Y-10291921D01*
X15087672Y-10298788D01*
X15085044Y-10305262D01*
X15079334Y-10309287D01*
X15075334Y-10309950D01*
X14928025Y-10309950D01*
X14922177Y-10311113D01*
X14921797Y-10311367D01*
X14915129Y-10313455D01*
X14908391Y-10311606D01*
X14906140Y-10309825D01*
X14874393Y-10278077D01*
X14872112Y-10274939D01*
X14869037Y-10268903D01*
X14861097Y-10260963D01*
X14861096Y-10260963D01*
X14861096Y-10260963D01*
X14851091Y-10255865D01*
X14840000Y-10254108D01*
X14840000Y-10254108D01*
X14828909Y-10255865D01*
X14818903Y-10260963D01*
X14813918Y-10265948D01*
X14807786Y-10269297D01*
X14800817Y-10268798D01*
X14795223Y-10264611D01*
X14792782Y-10258065D01*
X14792750Y-10257180D01*
X14792750Y-10238938D01*
X14794718Y-10232234D01*
X14796382Y-10230170D01*
X14911082Y-10115470D01*
X14917214Y-10112121D01*
X14924183Y-10112620D01*
G37*
G04 #@! TD.AperFunction*
G04 #@! TA.AperFunction,NonConductor*
G36*
X12976195Y-10263775D02*
G01*
X12979832Y-10265894D01*
X12988271Y-10272976D01*
X12991788Y-10274256D01*
X12997415Y-10278399D01*
X12999908Y-10284925D01*
X12998477Y-10291764D01*
X12997732Y-10292865D01*
X12991559Y-10303557D01*
X12990490Y-10309619D01*
X12987388Y-10315880D01*
X12987047Y-10316234D01*
X12945674Y-10357607D01*
X12939542Y-10360955D01*
X12933939Y-10360878D01*
X12931409Y-10360255D01*
X12930172Y-10359950D01*
X12913161Y-10359950D01*
X12913161Y-10359950D01*
X12898763Y-10363499D01*
X12891783Y-10363192D01*
X12886077Y-10359160D01*
X12883456Y-10352683D01*
X12884754Y-10345817D01*
X12887028Y-10342691D01*
X12963093Y-10266625D01*
X12969226Y-10263277D01*
X12976195Y-10263775D01*
G37*
G04 #@! TD.AperFunction*
G04 #@! TA.AperFunction,NonConductor*
G36*
X14705402Y-10312019D02*
G01*
X14709977Y-10317299D01*
X14710972Y-10320685D01*
X14711483Y-10324246D01*
X14717462Y-10337337D01*
X14717462Y-10337337D01*
X14726887Y-10348214D01*
X14726887Y-10348214D01*
X14727557Y-10348795D01*
X14727444Y-10348926D01*
X14731329Y-10353408D01*
X14732450Y-10358560D01*
X14732450Y-10380050D01*
X14730481Y-10386754D01*
X14725201Y-10391329D01*
X14720050Y-10392450D01*
X14678016Y-10392450D01*
X14671312Y-10390482D01*
X14668645Y-10388170D01*
X14663113Y-10381786D01*
X14663112Y-10381786D01*
X14663112Y-10381785D01*
X14654006Y-10375933D01*
X14649430Y-10370653D01*
X14648436Y-10363737D01*
X14649661Y-10359872D01*
X14650366Y-10358489D01*
X14654135Y-10351091D01*
X14654135Y-10351091D01*
X14654135Y-10351091D01*
X14655892Y-10340000D01*
X14655892Y-10340000D01*
X14654135Y-10328909D01*
X14654135Y-10328909D01*
X14654135Y-10328909D01*
X14653712Y-10328079D01*
X14652423Y-10321212D01*
X14655051Y-10314738D01*
X14660761Y-10310713D01*
X14664761Y-10310050D01*
X14698698Y-10310050D01*
X14705402Y-10312019D01*
G37*
G04 #@! TD.AperFunction*
G04 #@! TA.AperFunction,NonConductor*
G36*
X14823939Y-10321603D02*
G01*
X14824938Y-10322112D01*
X14828077Y-10324393D01*
X14873960Y-10370276D01*
X14875389Y-10371988D01*
X14876356Y-10373385D01*
X14876356Y-10373386D01*
X14878311Y-10374771D01*
X14878636Y-10375021D01*
X14881101Y-10376747D01*
X14881157Y-10376787D01*
X14885780Y-10380062D01*
X14885781Y-10380062D01*
X14885782Y-10380063D01*
X14885822Y-10380082D01*
X14885885Y-10380111D01*
X14885943Y-10380139D01*
X14885945Y-10380139D01*
X14885946Y-10380139D01*
X14891402Y-10381601D01*
X14891460Y-10381617D01*
X14894389Y-10382419D01*
X14894787Y-10382509D01*
X14897102Y-10383129D01*
X14897102Y-10383129D01*
X14897102Y-10383129D01*
X14898182Y-10383223D01*
X14898167Y-10383394D01*
X14903776Y-10384520D01*
X14908795Y-10389382D01*
X14910169Y-10393078D01*
X14911113Y-10397823D01*
X14911113Y-10397823D01*
X14914646Y-10403111D01*
X14916734Y-10409779D01*
X14914886Y-10416517D01*
X14914646Y-10416889D01*
X14911113Y-10422177D01*
X14911113Y-10422177D01*
X14909909Y-10428232D01*
X14907246Y-10433784D01*
X14904530Y-10437021D01*
X14898713Y-10440891D01*
X14895031Y-10441450D01*
X14805548Y-10441450D01*
X14798844Y-10439482D01*
X14796780Y-10437818D01*
X14791182Y-10432220D01*
X14787833Y-10426088D01*
X14787550Y-10423452D01*
X14787550Y-10358560D01*
X14789518Y-10351856D01*
X14792506Y-10348869D01*
X14792443Y-10348795D01*
X14793112Y-10348215D01*
X14793113Y-10348214D01*
X14802538Y-10337337D01*
X14802616Y-10337165D01*
X14806387Y-10328909D01*
X14807030Y-10327500D01*
X14811605Y-10322220D01*
X14818309Y-10320252D01*
X14823939Y-10321603D01*
G37*
G04 #@! TD.AperFunction*
G04 #@! TA.AperFunction,NonConductor*
G36*
X14581943Y-10312019D02*
G01*
X14586518Y-10317299D01*
X14587513Y-10324215D01*
X14586287Y-10328079D01*
X14586076Y-10328493D01*
X14585865Y-10328909D01*
X14585316Y-10332373D01*
X14582323Y-10338687D01*
X14581837Y-10339201D01*
X14463301Y-10457737D01*
X14461422Y-10459279D01*
X14460137Y-10460138D01*
X14459514Y-10460761D01*
X14453382Y-10464109D01*
X14446412Y-10463611D01*
X14443938Y-10462142D01*
X14443859Y-10462265D01*
X14442511Y-10461399D01*
X14433378Y-10455530D01*
X14428803Y-10450249D01*
X14427808Y-10443333D01*
X14430711Y-10436978D01*
X14431312Y-10436332D01*
X14510966Y-10356678D01*
X14512844Y-10355137D01*
X14514033Y-10354342D01*
X14514922Y-10353012D01*
X14514922Y-10353012D01*
X14515506Y-10352138D01*
X14515506Y-10352138D01*
X14519868Y-10345610D01*
X14521917Y-10335309D01*
X14521684Y-10334135D01*
X14521638Y-10333906D01*
X14521400Y-10331487D01*
X14521400Y-10322450D01*
X14523368Y-10315746D01*
X14528649Y-10311171D01*
X14533800Y-10310050D01*
X14575239Y-10310050D01*
X14581943Y-10312019D01*
G37*
G04 #@! TD.AperFunction*
G04 #@! TA.AperFunction,NonConductor*
G36*
X14124156Y-10588519D02*
G01*
X14126220Y-10590182D01*
X14143818Y-10607780D01*
X14147167Y-10613912D01*
X14147450Y-10616548D01*
X14147450Y-10634037D01*
X14145481Y-10640741D01*
X14140201Y-10645317D01*
X14133285Y-10646311D01*
X14130809Y-10645690D01*
X14120810Y-10642050D01*
X14120810Y-10642050D01*
X14119521Y-10642050D01*
X14112817Y-10640082D01*
X14110753Y-10638418D01*
X14084059Y-10611724D01*
X14080710Y-10605592D01*
X14081209Y-10598622D01*
X14085396Y-10593029D01*
X14088585Y-10591304D01*
X14097729Y-10587976D01*
X14097729Y-10587976D01*
X14098749Y-10587605D01*
X14098823Y-10587809D01*
X14103521Y-10586550D01*
X14117452Y-10586550D01*
X14124156Y-10588519D01*
G37*
G04 #@! TD.AperFunction*
G04 #@! TA.AperFunction,NonConductor*
G36*
X14143887Y-10707264D02*
G01*
X14147187Y-10713423D01*
X14147450Y-10715963D01*
X14147450Y-10728529D01*
X14145481Y-10735233D01*
X14143273Y-10737811D01*
X14137182Y-10743207D01*
X14127518Y-10757207D01*
X14124094Y-10766236D01*
X14119876Y-10771806D01*
X14113317Y-10774212D01*
X14106498Y-10772689D01*
X14101584Y-10767721D01*
X14100906Y-10766236D01*
X14099378Y-10762207D01*
X14097482Y-10757207D01*
X14095958Y-10755000D01*
X14091270Y-10748207D01*
X14087818Y-10743207D01*
X14085979Y-10741577D01*
X14082266Y-10735659D01*
X14082343Y-10728672D01*
X14085433Y-10723528D01*
X14097673Y-10711288D01*
X14103805Y-10707940D01*
X14108595Y-10707845D01*
X14109190Y-10707950D01*
X14109190Y-10707950D01*
X14109190Y-10707950D01*
X14120810Y-10707950D01*
X14120810Y-10707950D01*
X14130809Y-10704311D01*
X14137782Y-10703867D01*
X14143887Y-10707264D01*
G37*
G04 #@! TD.AperFunction*
G04 #@! TA.AperFunction,NonConductor*
G36*
X14024057Y-9764519D02*
G01*
X14028633Y-9769799D01*
X14029627Y-9776715D01*
X14029601Y-9776890D01*
X14029108Y-9780000D01*
X14029108Y-9780000D01*
X14030865Y-9791091D01*
X14035963Y-9801097D01*
X14043903Y-9809037D01*
X14053909Y-9814135D01*
X14065000Y-9815892D01*
X14065000Y-9815892D01*
X14065000Y-9815892D01*
X14076091Y-9814135D01*
X14076091Y-9814135D01*
X14076091Y-9814135D01*
X14086097Y-9809037D01*
X14094037Y-9801097D01*
X14099135Y-9791091D01*
X14099135Y-9791091D01*
X14099135Y-9791091D01*
X14100892Y-9780000D01*
X14100892Y-9779950D01*
X14100909Y-9779891D01*
X14101045Y-9779036D01*
X14101155Y-9779054D01*
X14102860Y-9773246D01*
X14108141Y-9768671D01*
X14113292Y-9767550D01*
X14766066Y-9767550D01*
X14768485Y-9767788D01*
X14770000Y-9768090D01*
X14772116Y-9767669D01*
X14772117Y-9767669D01*
X14778990Y-9766302D01*
X14785949Y-9766924D01*
X14791467Y-9771211D01*
X14793791Y-9777799D01*
X14792185Y-9784599D01*
X14790177Y-9787231D01*
X14479034Y-10098374D01*
X14477156Y-10099916D01*
X14475967Y-10100711D01*
X14473472Y-10104444D01*
X14473472Y-10104444D01*
X14470132Y-10109443D01*
X14468083Y-10119744D01*
X14468362Y-10121146D01*
X14468600Y-10123565D01*
X14468600Y-10319237D01*
X14466631Y-10325941D01*
X14464968Y-10328006D01*
X14437617Y-10355357D01*
X14431485Y-10358705D01*
X14424515Y-10358207D01*
X14418922Y-10354019D01*
X14418111Y-10352789D01*
X14415630Y-10348493D01*
X14415630Y-10348493D01*
X14415630Y-10348493D01*
X14408954Y-10342892D01*
X14406729Y-10341024D01*
X14395810Y-10337050D01*
X14384190Y-10337050D01*
X14373271Y-10341024D01*
X14367226Y-10346097D01*
X14364369Y-10348494D01*
X14364369Y-10348494D01*
X14358560Y-10358556D01*
X14358559Y-10358557D01*
X14356542Y-10370000D01*
X14356542Y-10370000D01*
X14358559Y-10381443D01*
X14358560Y-10381444D01*
X14364369Y-10391506D01*
X14364370Y-10391507D01*
X14374102Y-10399673D01*
X14373844Y-10399980D01*
X14377236Y-10403536D01*
X14378561Y-10410396D01*
X14375966Y-10416884D01*
X14374985Y-10417989D01*
X14374356Y-10418617D01*
X14368224Y-10421966D01*
X14365588Y-10422250D01*
X14346787Y-10422250D01*
X14342037Y-10421110D01*
X14342019Y-10421166D01*
X14341301Y-10420933D01*
X14341157Y-10420899D01*
X14341091Y-10420865D01*
X14341091Y-10420865D01*
X14330000Y-10419108D01*
X14330000Y-10419108D01*
X14318909Y-10420865D01*
X14308903Y-10425963D01*
X14300963Y-10433903D01*
X14295865Y-10443909D01*
X14294108Y-10455000D01*
X14294108Y-10455000D01*
X14295865Y-10466091D01*
X14300962Y-10476096D01*
X14301231Y-10476466D01*
X14303580Y-10483047D01*
X14303600Y-10483755D01*
X14303600Y-10568929D01*
X14301631Y-10575633D01*
X14299968Y-10577697D01*
X14295558Y-10582107D01*
X14289758Y-10585378D01*
X14274977Y-10589021D01*
X14259915Y-10596926D01*
X14247182Y-10608207D01*
X14237518Y-10622207D01*
X14231486Y-10638113D01*
X14231486Y-10638113D01*
X14229435Y-10655000D01*
X14231486Y-10671887D01*
X14231486Y-10671887D01*
X14237518Y-10687793D01*
X14243533Y-10696507D01*
X14247182Y-10701793D01*
X14255130Y-10708835D01*
X14259915Y-10713074D01*
X14273619Y-10720266D01*
X14274977Y-10720979D01*
X14291494Y-10725050D01*
X14308506Y-10725050D01*
X14325022Y-10720979D01*
X14334580Y-10715963D01*
X14340085Y-10713074D01*
X14340085Y-10713073D01*
X14340085Y-10713073D01*
X14352818Y-10701793D01*
X14362482Y-10687793D01*
X14368514Y-10671887D01*
X14370564Y-10655000D01*
X14368514Y-10638113D01*
X14364728Y-10628131D01*
X14364192Y-10621165D01*
X14367507Y-10615015D01*
X14373620Y-10611633D01*
X14380564Y-10612082D01*
X14391190Y-10615950D01*
X14391190Y-10615950D01*
X14402810Y-10615950D01*
X14402810Y-10615950D01*
X14413729Y-10611976D01*
X14422630Y-10604507D01*
X14428440Y-10594443D01*
X14428440Y-10594443D01*
X14428983Y-10593504D01*
X14429118Y-10593582D01*
X14432540Y-10588934D01*
X14439067Y-10586441D01*
X14445906Y-10587872D01*
X14450886Y-10592773D01*
X14452450Y-10598802D01*
X14452450Y-10672628D01*
X14450481Y-10679332D01*
X14445589Y-10683571D01*
X14445642Y-10683672D01*
X14445212Y-10683898D01*
X14445201Y-10683907D01*
X14445166Y-10683922D01*
X14429915Y-10691926D01*
X14417182Y-10703207D01*
X14407518Y-10717207D01*
X14401486Y-10733113D01*
X14401486Y-10733113D01*
X14400940Y-10737608D01*
X14398178Y-10744026D01*
X14392384Y-10747931D01*
X14385399Y-10748085D01*
X14383673Y-10747368D01*
X14381296Y-10746503D01*
X14371810Y-10743050D01*
X14360190Y-10743050D01*
X14349271Y-10747024D01*
X14341836Y-10753263D01*
X14340369Y-10754494D01*
X14340369Y-10754494D01*
X14334560Y-10764556D01*
X14334559Y-10764557D01*
X14332542Y-10776000D01*
X14332542Y-10776000D01*
X14334559Y-10787443D01*
X14334560Y-10787444D01*
X14340369Y-10797506D01*
X14340370Y-10797507D01*
X14343341Y-10800000D01*
X14349271Y-10804976D01*
X14360190Y-10808950D01*
X14360190Y-10808950D01*
X14371810Y-10808950D01*
X14371810Y-10808950D01*
X14382729Y-10804976D01*
X14391630Y-10797507D01*
X14393688Y-10793942D01*
X14398744Y-10789121D01*
X14405605Y-10787799D01*
X14412092Y-10790396D01*
X14414632Y-10793099D01*
X14417181Y-10796793D01*
X14417182Y-10796793D01*
X14417182Y-10796793D01*
X14423024Y-10801969D01*
X14429915Y-10808074D01*
X14441675Y-10814246D01*
X14444977Y-10815979D01*
X14461494Y-10820050D01*
X14478506Y-10820050D01*
X14495022Y-10815979D01*
X14504336Y-10811091D01*
X14510085Y-10808074D01*
X14510085Y-10808073D01*
X14510085Y-10808073D01*
X14522818Y-10796793D01*
X14532482Y-10782793D01*
X14538514Y-10766887D01*
X14540564Y-10750000D01*
X14538514Y-10733113D01*
X14538064Y-10731927D01*
X14534527Y-10722601D01*
X14532482Y-10717207D01*
X14522818Y-10703207D01*
X14518896Y-10699732D01*
X14511727Y-10693381D01*
X14508015Y-10687462D01*
X14507550Y-10684100D01*
X14507550Y-10681087D01*
X14509518Y-10674383D01*
X14514799Y-10669807D01*
X14521715Y-10668813D01*
X14522369Y-10668925D01*
X14528025Y-10670050D01*
X14528025Y-10670050D01*
X14528025Y-10670050D01*
X14711975Y-10670050D01*
X14711975Y-10670050D01*
X14713457Y-10669755D01*
X14717823Y-10668887D01*
X14717823Y-10668887D01*
X14717823Y-10668887D01*
X14724455Y-10664455D01*
X14728887Y-10657823D01*
X14728887Y-10657823D01*
X14728887Y-10657823D01*
X14729896Y-10652750D01*
X14730050Y-10651975D01*
X14730050Y-10528025D01*
X14730050Y-10528025D01*
X14730050Y-10528025D01*
X14728887Y-10522177D01*
X14728887Y-10522177D01*
X14724455Y-10515545D01*
X14717823Y-10511113D01*
X14717823Y-10511113D01*
X14711975Y-10509950D01*
X14711975Y-10509950D01*
X14528025Y-10509950D01*
X14528025Y-10509950D01*
X14522369Y-10511075D01*
X14515410Y-10510452D01*
X14509892Y-10506166D01*
X14507568Y-10499577D01*
X14507550Y-10498913D01*
X14507550Y-10496548D01*
X14509518Y-10489844D01*
X14511181Y-10487780D01*
X14563598Y-10435363D01*
X14569730Y-10432015D01*
X14576700Y-10432513D01*
X14582293Y-10436700D01*
X14583646Y-10438980D01*
X14587462Y-10447337D01*
X14596887Y-10458214D01*
X14608995Y-10465995D01*
X14608995Y-10465995D01*
X14608995Y-10465995D01*
X14622804Y-10470050D01*
X14622804Y-10470050D01*
X14622804Y-10470050D01*
X14637196Y-10470050D01*
X14637196Y-10470050D01*
X14651005Y-10465995D01*
X14663113Y-10458214D01*
X14668645Y-10451830D01*
X14674523Y-10448052D01*
X14678016Y-10447550D01*
X14723452Y-10447550D01*
X14730156Y-10449519D01*
X14732220Y-10451182D01*
X14737737Y-10456699D01*
X14739279Y-10458578D01*
X14740138Y-10459862D01*
X14741422Y-10460721D01*
X14743301Y-10462263D01*
X14757421Y-10476383D01*
X14760770Y-10482515D01*
X14760881Y-10485613D01*
X14760987Y-10485613D01*
X14760987Y-10486500D01*
X14760987Y-10486500D01*
X14761233Y-10488214D01*
X14761324Y-10488845D01*
X14761450Y-10490609D01*
X14761450Y-10577391D01*
X14761324Y-10579155D01*
X14760987Y-10581500D01*
X14761324Y-10583845D01*
X14761450Y-10585609D01*
X14761450Y-10608475D01*
X14762613Y-10614323D01*
X14762613Y-10614323D01*
X14767045Y-10620955D01*
X14773677Y-10625387D01*
X14773677Y-10625387D01*
X14779525Y-10626550D01*
X14779525Y-10626550D01*
X14779525Y-10626550D01*
X14928475Y-10626550D01*
X14928475Y-10626550D01*
X14929957Y-10626255D01*
X14934323Y-10625387D01*
X14934323Y-10625387D01*
X14934323Y-10625387D01*
X14940955Y-10620955D01*
X14945387Y-10614323D01*
X14945387Y-10614323D01*
X14945387Y-10614323D01*
X14946550Y-10608475D01*
X14946550Y-10608475D01*
X14946550Y-10585609D01*
X14946676Y-10583845D01*
X14947013Y-10581500D01*
X14946676Y-10579155D01*
X14946550Y-10577391D01*
X14946550Y-10522450D01*
X14948518Y-10515746D01*
X14953799Y-10511171D01*
X14958950Y-10510050D01*
X15006098Y-10510050D01*
X15012802Y-10512019D01*
X15014866Y-10513682D01*
X15017780Y-10516596D01*
X15021129Y-10522728D01*
X15021286Y-10527128D01*
X15019435Y-10540000D01*
X15021483Y-10554246D01*
X15026054Y-10564253D01*
X15027462Y-10567337D01*
X15036887Y-10578214D01*
X15045994Y-10584067D01*
X15050570Y-10589347D01*
X15051564Y-10596263D01*
X15050339Y-10600128D01*
X15045865Y-10608909D01*
X15044108Y-10620000D01*
X15044108Y-10620000D01*
X15045865Y-10631091D01*
X15050963Y-10641097D01*
X15058903Y-10649037D01*
X15068909Y-10654135D01*
X15080000Y-10655892D01*
X15080000Y-10655892D01*
X15080000Y-10655892D01*
X15091091Y-10654135D01*
X15091091Y-10654135D01*
X15091091Y-10654135D01*
X15091142Y-10654109D01*
X15091157Y-10654102D01*
X15091301Y-10654067D01*
X15092019Y-10653834D01*
X15092037Y-10653890D01*
X15096787Y-10652750D01*
X15128029Y-10652750D01*
X15129110Y-10652797D01*
X15132898Y-10653129D01*
X15136575Y-10652143D01*
X15137626Y-10651911D01*
X15141374Y-10651250D01*
X15141374Y-10651249D01*
X15141853Y-10651075D01*
X15143592Y-10650355D01*
X15144053Y-10650140D01*
X15144054Y-10650139D01*
X15147170Y-10647958D01*
X15148080Y-10647378D01*
X15151376Y-10645475D01*
X15153822Y-10642559D01*
X15154551Y-10641764D01*
X15176765Y-10619551D01*
X15177560Y-10618822D01*
X15180475Y-10616376D01*
X15182377Y-10613081D01*
X15182958Y-10612170D01*
X15185139Y-10609054D01*
X15185139Y-10609054D01*
X15185355Y-10608592D01*
X15186075Y-10606852D01*
X15186249Y-10606374D01*
X15186249Y-10606374D01*
X15186250Y-10606374D01*
X15186911Y-10602625D01*
X15187143Y-10601574D01*
X15188129Y-10597899D01*
X15187797Y-10594111D01*
X15187750Y-10593030D01*
X15187750Y-10458624D01*
X15189718Y-10451921D01*
X15194999Y-10447345D01*
X15201915Y-10446351D01*
X15206854Y-10448193D01*
X15206887Y-10448214D01*
X15206887Y-10448214D01*
X15211505Y-10451182D01*
X15218995Y-10455995D01*
X15230178Y-10459279D01*
X15232165Y-10459862D01*
X15232804Y-10460050D01*
X15232804Y-10460050D01*
X15232804Y-10460050D01*
X15247196Y-10460050D01*
X15247740Y-10459972D01*
X15254656Y-10460966D01*
X15259936Y-10465541D01*
X15260784Y-10467094D01*
X15263533Y-10473113D01*
X15265462Y-10477337D01*
X15274887Y-10488214D01*
X15286995Y-10495995D01*
X15286995Y-10495995D01*
X15286995Y-10495995D01*
X15296932Y-10498913D01*
X15300634Y-10500000D01*
X15300804Y-10500050D01*
X15300804Y-10500050D01*
X15300804Y-10500050D01*
X15315196Y-10500050D01*
X15315196Y-10500050D01*
X15329005Y-10495995D01*
X15341113Y-10488214D01*
X15350538Y-10477337D01*
X15356516Y-10464246D01*
X15358565Y-10450000D01*
X15356516Y-10435754D01*
X15350538Y-10422663D01*
X15341113Y-10411786D01*
X15329005Y-10404005D01*
X15329005Y-10404005D01*
X15329005Y-10404005D01*
X15329005Y-10404005D01*
X15315196Y-10399950D01*
X15315196Y-10399950D01*
X15300804Y-10399950D01*
X15300804Y-10399950D01*
X15300259Y-10400028D01*
X15293343Y-10399034D01*
X15288063Y-10394458D01*
X15287215Y-10392906D01*
X15282538Y-10382663D01*
X15273113Y-10371786D01*
X15261005Y-10364005D01*
X15261005Y-10364005D01*
X15261005Y-10364005D01*
X15261005Y-10364005D01*
X15247196Y-10359950D01*
X15247196Y-10359950D01*
X15232804Y-10359950D01*
X15232804Y-10359950D01*
X15218995Y-10364005D01*
X15206854Y-10371807D01*
X15200150Y-10373776D01*
X15193446Y-10371807D01*
X15188871Y-10366527D01*
X15187750Y-10361376D01*
X15187750Y-10311970D01*
X15187797Y-10310889D01*
X15187813Y-10310713D01*
X15188129Y-10307102D01*
X15188128Y-10307101D01*
X15188129Y-10307101D01*
X15187144Y-10303428D01*
X15186910Y-10302371D01*
X15186674Y-10301034D01*
X15186250Y-10298626D01*
X15186250Y-10298626D01*
X15186061Y-10297558D01*
X15186407Y-10297497D01*
X15186085Y-10292417D01*
X15189483Y-10286312D01*
X15195642Y-10283013D01*
X15198180Y-10282750D01*
X15234184Y-10282750D01*
X15240888Y-10284719D01*
X15244683Y-10288553D01*
X15251271Y-10299037D01*
X15252018Y-10300226D01*
X15264774Y-10312982D01*
X15272368Y-10317753D01*
X15279843Y-10322450D01*
X15280048Y-10322579D01*
X15295556Y-10328006D01*
X15297074Y-10328537D01*
X15297075Y-10328537D01*
X15305766Y-10329516D01*
X15310504Y-10330050D01*
X15310504Y-10330050D01*
X15310505Y-10330050D01*
X15389496Y-10330050D01*
X15389496Y-10330050D01*
X15396210Y-10329293D01*
X15402925Y-10328537D01*
X15402925Y-10328537D01*
X15402925Y-10328537D01*
X15419952Y-10322579D01*
X15435226Y-10312982D01*
X15437335Y-10310873D01*
X15443467Y-10307525D01*
X15450436Y-10308023D01*
X15456029Y-10312210D01*
X15458471Y-10318757D01*
X15458286Y-10321947D01*
X15453239Y-10348621D01*
X15453033Y-10349525D01*
X15440306Y-10397023D01*
X15440033Y-10397909D01*
X15423792Y-10444322D01*
X15423453Y-10445186D01*
X15403789Y-10490256D01*
X15403387Y-10491092D01*
X15380411Y-10534564D01*
X15379947Y-10535367D01*
X15363780Y-10561098D01*
X15363174Y-10561976D01*
X15301718Y-10643315D01*
X15301223Y-10643928D01*
X15291410Y-10655330D01*
X15290780Y-10656010D01*
X15256010Y-10690780D01*
X15255330Y-10691411D01*
X15218059Y-10723485D01*
X15217334Y-10724063D01*
X15177770Y-10753263D01*
X15177003Y-10753785D01*
X15135367Y-10779947D01*
X15134564Y-10780411D01*
X15091091Y-10803387D01*
X15090256Y-10803789D01*
X15045186Y-10823453D01*
X15044322Y-10823792D01*
X14997909Y-10840033D01*
X14997023Y-10840306D01*
X14949525Y-10853033D01*
X14948621Y-10853239D01*
X14900307Y-10862381D01*
X14899390Y-10862519D01*
X14874412Y-10865333D01*
X14867530Y-10864128D01*
X14862392Y-10859393D01*
X14860629Y-10852632D01*
X14862802Y-10845991D01*
X14866319Y-10842580D01*
X14873113Y-10838214D01*
X14882538Y-10827337D01*
X14888516Y-10814246D01*
X14890565Y-10800000D01*
X14888516Y-10785754D01*
X14882538Y-10772663D01*
X14873113Y-10761786D01*
X14861005Y-10754005D01*
X14861005Y-10754005D01*
X14861005Y-10754005D01*
X14861005Y-10754005D01*
X14847196Y-10749950D01*
X14847196Y-10749950D01*
X14832804Y-10749950D01*
X14832804Y-10749950D01*
X14818995Y-10754005D01*
X14806887Y-10761786D01*
X14806887Y-10761786D01*
X14806887Y-10761786D01*
X14805629Y-10763238D01*
X14797462Y-10772663D01*
X14797462Y-10772663D01*
X14791483Y-10785754D01*
X14791483Y-10785755D01*
X14791331Y-10786815D01*
X14788428Y-10793170D01*
X14782551Y-10796948D01*
X14779057Y-10797450D01*
X14746847Y-10797450D01*
X14740143Y-10795482D01*
X14735568Y-10790201D01*
X14734538Y-10786545D01*
X14734442Y-10785755D01*
X14733514Y-10778113D01*
X14731618Y-10773113D01*
X14728691Y-10765397D01*
X14727482Y-10762207D01*
X14727191Y-10761786D01*
X14722507Y-10755000D01*
X14717818Y-10748207D01*
X14708332Y-10739803D01*
X14705085Y-10736926D01*
X14690023Y-10729021D01*
X14673506Y-10724950D01*
X14656494Y-10724950D01*
X14639977Y-10729021D01*
X14624915Y-10736926D01*
X14612182Y-10748207D01*
X14602518Y-10762207D01*
X14596486Y-10778113D01*
X14596486Y-10778113D01*
X14594435Y-10795000D01*
X14596486Y-10811887D01*
X14596486Y-10811887D01*
X14602518Y-10827793D01*
X14606896Y-10834135D01*
X14610642Y-10839562D01*
X14612182Y-10841793D01*
X14619491Y-10848269D01*
X14623204Y-10854187D01*
X14623127Y-10861174D01*
X14619285Y-10867010D01*
X14612898Y-10869842D01*
X14611268Y-10869950D01*
X14238088Y-10869950D01*
X14231384Y-10867982D01*
X14226808Y-10862701D01*
X14225814Y-10855785D01*
X14228716Y-10849430D01*
X14229865Y-10848268D01*
X14230085Y-10848074D01*
X14230085Y-10848073D01*
X14242818Y-10836793D01*
X14252482Y-10822793D01*
X14258514Y-10806887D01*
X14260564Y-10790000D01*
X14258514Y-10773113D01*
X14258343Y-10772663D01*
X14254378Y-10762207D01*
X14252482Y-10757207D01*
X14250958Y-10755000D01*
X14246270Y-10748207D01*
X14242818Y-10743207D01*
X14231424Y-10733113D01*
X14230085Y-10731926D01*
X14215022Y-10724021D01*
X14211982Y-10723272D01*
X14205944Y-10719756D01*
X14202765Y-10713534D01*
X14202550Y-10711232D01*
X14202550Y-10614602D01*
X14204518Y-10607898D01*
X14204637Y-10607717D01*
X14205951Y-10605749D01*
X14206783Y-10601571D01*
X14208090Y-10595000D01*
X14208090Y-10595000D01*
X14205952Y-10584251D01*
X14205951Y-10584251D01*
X14204519Y-10582107D01*
X14202250Y-10578711D01*
X14200162Y-10572043D01*
X14202010Y-10565305D01*
X14207208Y-10560636D01*
X14209592Y-10559782D01*
X14225022Y-10555979D01*
X14228747Y-10554024D01*
X14240085Y-10548074D01*
X14240085Y-10548073D01*
X14240085Y-10548073D01*
X14252818Y-10536793D01*
X14262482Y-10522793D01*
X14268514Y-10506887D01*
X14270564Y-10490000D01*
X14268514Y-10473113D01*
X14267352Y-10470050D01*
X14265151Y-10464246D01*
X14262482Y-10457207D01*
X14261324Y-10455530D01*
X14256274Y-10448214D01*
X14252818Y-10443207D01*
X14240085Y-10431927D01*
X14234187Y-10428831D01*
X14229166Y-10423973D01*
X14227550Y-10417852D01*
X14227550Y-10348934D01*
X14227788Y-10346515D01*
X14228090Y-10345000D01*
X14227517Y-10342122D01*
X14227517Y-10342122D01*
X14225951Y-10334251D01*
X14225951Y-10334250D01*
X14222914Y-10329705D01*
X14221061Y-10326932D01*
X14221061Y-10326931D01*
X14221060Y-10326931D01*
X14219862Y-10325138D01*
X14219862Y-10325138D01*
X14219862Y-10325138D01*
X14219862Y-10325137D01*
X14218577Y-10324279D01*
X14216698Y-10322737D01*
X14215045Y-10321083D01*
X14211696Y-10314951D01*
X14211601Y-10314468D01*
X14211440Y-10313557D01*
X14211440Y-10313556D01*
X14205631Y-10303494D01*
X14205631Y-10303494D01*
X14205630Y-10303493D01*
X14205630Y-10303493D01*
X14205630Y-10303493D01*
X14196729Y-10296024D01*
X14196729Y-10296024D01*
X14185810Y-10292050D01*
X14174190Y-10292050D01*
X14168099Y-10294267D01*
X14163271Y-10296024D01*
X14154369Y-10303494D01*
X14154369Y-10303494D01*
X14148560Y-10313556D01*
X14148559Y-10313557D01*
X14146542Y-10325000D01*
X14146542Y-10325000D01*
X14148559Y-10336443D01*
X14148560Y-10336444D01*
X14154369Y-10346506D01*
X14154370Y-10346507D01*
X14159833Y-10351091D01*
X14163271Y-10353976D01*
X14164291Y-10354347D01*
X14169917Y-10358489D01*
X14172411Y-10365016D01*
X14172450Y-10365999D01*
X14172450Y-10417852D01*
X14170481Y-10424555D01*
X14165813Y-10428831D01*
X14159915Y-10431927D01*
X14151387Y-10439482D01*
X14147182Y-10443207D01*
X14137518Y-10457207D01*
X14131486Y-10473113D01*
X14131486Y-10473113D01*
X14129435Y-10490000D01*
X14131486Y-10506887D01*
X14131486Y-10506888D01*
X14134431Y-10514653D01*
X14134968Y-10521619D01*
X14131653Y-10527770D01*
X14125539Y-10531152D01*
X14122837Y-10531450D01*
X14103521Y-10531450D01*
X14098823Y-10530191D01*
X14098749Y-10530395D01*
X14097729Y-10530024D01*
X14097729Y-10530024D01*
X14086810Y-10526050D01*
X14075190Y-10526050D01*
X14064271Y-10530024D01*
X14057904Y-10535367D01*
X14055369Y-10537494D01*
X14055369Y-10537494D01*
X14049560Y-10547556D01*
X14049559Y-10547557D01*
X14049249Y-10549319D01*
X14046146Y-10555579D01*
X14040151Y-10559168D01*
X14033168Y-10558947D01*
X14028269Y-10555934D01*
X13913220Y-10440885D01*
X13911678Y-10439006D01*
X13911661Y-10438980D01*
X13910883Y-10437817D01*
X13910883Y-10437817D01*
X13902151Y-10431982D01*
X13902150Y-10431982D01*
X13894451Y-10430450D01*
X13894450Y-10430450D01*
X13891850Y-10429933D01*
X13891850Y-10429933D01*
X13890959Y-10430110D01*
X13890448Y-10430212D01*
X13888029Y-10430450D01*
X13814630Y-10430450D01*
X13807926Y-10428482D01*
X13803351Y-10423201D01*
X13802356Y-10416285D01*
X13802418Y-10415897D01*
X13802583Y-10414966D01*
X13803458Y-10410000D01*
X13801440Y-10398557D01*
X13798178Y-10392906D01*
X13795631Y-10388494D01*
X13795630Y-10388493D01*
X13788682Y-10382663D01*
X13786729Y-10381024D01*
X13775810Y-10377050D01*
X13769348Y-10377050D01*
X13762644Y-10375082D01*
X13758069Y-10369801D01*
X13757074Y-10362885D01*
X13757136Y-10362497D01*
X13757831Y-10358560D01*
X13758458Y-10355000D01*
X13758343Y-10354347D01*
X13757577Y-10350000D01*
X13756440Y-10343557D01*
X13752850Y-10337337D01*
X13750631Y-10333494D01*
X13750631Y-10333494D01*
X13750630Y-10333493D01*
X13750630Y-10333493D01*
X13750630Y-10333493D01*
X13743413Y-10327438D01*
X13741729Y-10326024D01*
X13730810Y-10322050D01*
X13719190Y-10322050D01*
X13710706Y-10325138D01*
X13708271Y-10326024D01*
X13699369Y-10333494D01*
X13699369Y-10333494D01*
X13693560Y-10343556D01*
X13693559Y-10343557D01*
X13691542Y-10355000D01*
X13691542Y-10355000D01*
X13693559Y-10366443D01*
X13693560Y-10366444D01*
X13699369Y-10376506D01*
X13699370Y-10376507D01*
X13699703Y-10376787D01*
X13708271Y-10383976D01*
X13719190Y-10387950D01*
X13719190Y-10387950D01*
X13725652Y-10387950D01*
X13732356Y-10389919D01*
X13736931Y-10395199D01*
X13737926Y-10402115D01*
X13737864Y-10402502D01*
X13736542Y-10410000D01*
X13737417Y-10414966D01*
X13737581Y-10415897D01*
X13736807Y-10422841D01*
X13732401Y-10428264D01*
X13725763Y-10430444D01*
X13725370Y-10430450D01*
X13476665Y-10430450D01*
X13469961Y-10428482D01*
X13467897Y-10426818D01*
X13443632Y-10402553D01*
X13440283Y-10396420D01*
X13440000Y-10393785D01*
X13440000Y-10310000D01*
X13440000Y-10310000D01*
X13425556Y-10300000D01*
X13784108Y-10300000D01*
X13785865Y-10311091D01*
X13790963Y-10321097D01*
X13798903Y-10329037D01*
X13808909Y-10334135D01*
X13820000Y-10335892D01*
X13820000Y-10335892D01*
X13820000Y-10335892D01*
X13831091Y-10334135D01*
X13831091Y-10334135D01*
X13831091Y-10334135D01*
X13841097Y-10329037D01*
X13849037Y-10321097D01*
X13854135Y-10311091D01*
X13854135Y-10311091D01*
X13854135Y-10311091D01*
X13855892Y-10300000D01*
X13855892Y-10300000D01*
X13854135Y-10288909D01*
X13849037Y-10278903D01*
X13841096Y-10270963D01*
X13831091Y-10265865D01*
X13820000Y-10264108D01*
X13820000Y-10264108D01*
X13808909Y-10265865D01*
X13798903Y-10270963D01*
X13790963Y-10278903D01*
X13785865Y-10288909D01*
X13784108Y-10300000D01*
X13784108Y-10300000D01*
X13425556Y-10300000D01*
X13408341Y-10288083D01*
X13403950Y-10282648D01*
X13403194Y-10275702D01*
X13406313Y-10269450D01*
X13407428Y-10268389D01*
X13415630Y-10261507D01*
X13421440Y-10251443D01*
X13423458Y-10240000D01*
X13421440Y-10228557D01*
X13421440Y-10228556D01*
X13415346Y-10218000D01*
X13413698Y-10211210D01*
X13415984Y-10204607D01*
X13421476Y-10200288D01*
X13426084Y-10199400D01*
X13603179Y-10199400D01*
X13605598Y-10199638D01*
X13607000Y-10199917D01*
X13617301Y-10197868D01*
X13623829Y-10193506D01*
X13623829Y-10193506D01*
X13624927Y-10192772D01*
X13626033Y-10192033D01*
X13626828Y-10190845D01*
X13628369Y-10188966D01*
X13708793Y-10108542D01*
X14350565Y-10108542D01*
X14352582Y-10119985D01*
X14352583Y-10119985D01*
X14358392Y-10130048D01*
X14358393Y-10130049D01*
X14361237Y-10132435D01*
X14367294Y-10137518D01*
X14378213Y-10141492D01*
X14378213Y-10141492D01*
X14389833Y-10141492D01*
X14389833Y-10141492D01*
X14400752Y-10137518D01*
X14409653Y-10130048D01*
X14415463Y-10119985D01*
X14417481Y-10108542D01*
X14417026Y-10105963D01*
X14416187Y-10101202D01*
X14415463Y-10097098D01*
X14410684Y-10088820D01*
X14409654Y-10087036D01*
X14409654Y-10087035D01*
X14409653Y-10087035D01*
X14409653Y-10087035D01*
X14409653Y-10087035D01*
X14400752Y-10079566D01*
X14400752Y-10079566D01*
X14389833Y-10075592D01*
X14378213Y-10075592D01*
X14367294Y-10079566D01*
X14359787Y-10085865D01*
X14358392Y-10087035D01*
X14358392Y-10087036D01*
X14352583Y-10097098D01*
X14352582Y-10097099D01*
X14350565Y-10108542D01*
X14350565Y-10108542D01*
X13708793Y-10108542D01*
X13781626Y-10035709D01*
X13786153Y-10032825D01*
X13796729Y-10028976D01*
X13805064Y-10021982D01*
X13811464Y-10019181D01*
X13818363Y-10020285D01*
X13823570Y-10024944D01*
X13825246Y-10029328D01*
X13826059Y-10033943D01*
X13826060Y-10033944D01*
X13831869Y-10044006D01*
X13831870Y-10044007D01*
X13835712Y-10047231D01*
X13840771Y-10051476D01*
X13851690Y-10055450D01*
X13851690Y-10055450D01*
X13863310Y-10055450D01*
X13863310Y-10055450D01*
X13874229Y-10051476D01*
X13883130Y-10044007D01*
X13888940Y-10033943D01*
X13890958Y-10022500D01*
X13890854Y-10021908D01*
X13889588Y-10014731D01*
X13888940Y-10011057D01*
X13884784Y-10003857D01*
X13883131Y-10000994D01*
X13883130Y-10000993D01*
X13874229Y-9993524D01*
X13873123Y-9993122D01*
X13868596Y-9990238D01*
X13778359Y-9900000D01*
X14056542Y-9900000D01*
X14058559Y-9911443D01*
X14058560Y-9911444D01*
X14064369Y-9921506D01*
X14064370Y-9921507D01*
X14067996Y-9924550D01*
X14073271Y-9928976D01*
X14084190Y-9932950D01*
X14084190Y-9932950D01*
X14095810Y-9932950D01*
X14095810Y-9932950D01*
X14106729Y-9928976D01*
X14115630Y-9921507D01*
X14121440Y-9911443D01*
X14123458Y-9900000D01*
X14306435Y-9900000D01*
X14308486Y-9916887D01*
X14308486Y-9916887D01*
X14314518Y-9932793D01*
X14319304Y-9939726D01*
X14324182Y-9946793D01*
X14333448Y-9955002D01*
X14336915Y-9958074D01*
X14351977Y-9965979D01*
X14351977Y-9965979D01*
X14368494Y-9970050D01*
X14385506Y-9970050D01*
X14402022Y-9965979D01*
X14410545Y-9961506D01*
X14417085Y-9958074D01*
X14417085Y-9958073D01*
X14417085Y-9958073D01*
X14429818Y-9946793D01*
X14439482Y-9932793D01*
X14445514Y-9916887D01*
X14447564Y-9900000D01*
X14445514Y-9883113D01*
X14445284Y-9882506D01*
X14441720Y-9873108D01*
X14439482Y-9867207D01*
X14439373Y-9867050D01*
X14435538Y-9861493D01*
X14429818Y-9853207D01*
X14426198Y-9850000D01*
X14596542Y-9850000D01*
X14598559Y-9861443D01*
X14598560Y-9861444D01*
X14604369Y-9871506D01*
X14604370Y-9871507D01*
X14605972Y-9872851D01*
X14613271Y-9878976D01*
X14624190Y-9882950D01*
X14624190Y-9882950D01*
X14635810Y-9882950D01*
X14635810Y-9882950D01*
X14646729Y-9878976D01*
X14655630Y-9871507D01*
X14661440Y-9861443D01*
X14663458Y-9850000D01*
X14661440Y-9838557D01*
X14656162Y-9829414D01*
X14655631Y-9828494D01*
X14655631Y-9828494D01*
X14655630Y-9828493D01*
X14655630Y-9828493D01*
X14655630Y-9828493D01*
X14646729Y-9821024D01*
X14646729Y-9821024D01*
X14635810Y-9817050D01*
X14624190Y-9817050D01*
X14613271Y-9821024D01*
X14604938Y-9828016D01*
X14604369Y-9828494D01*
X14604369Y-9828494D01*
X14598560Y-9838556D01*
X14598559Y-9838557D01*
X14596542Y-9850000D01*
X14596542Y-9850000D01*
X14426198Y-9850000D01*
X14420129Y-9844623D01*
X14417085Y-9841926D01*
X14402023Y-9834021D01*
X14385506Y-9829950D01*
X14368494Y-9829950D01*
X14351977Y-9834021D01*
X14336915Y-9841926D01*
X14327802Y-9850000D01*
X14324241Y-9853155D01*
X14324182Y-9853207D01*
X14314518Y-9867207D01*
X14308486Y-9883113D01*
X14308486Y-9883113D01*
X14306435Y-9900000D01*
X14123458Y-9900000D01*
X14123392Y-9899623D01*
X14122320Y-9893545D01*
X14121440Y-9888557D01*
X14117947Y-9882506D01*
X14115631Y-9878494D01*
X14115631Y-9878494D01*
X14115630Y-9878493D01*
X14115630Y-9878493D01*
X14115630Y-9878493D01*
X14108646Y-9872633D01*
X14106729Y-9871024D01*
X14095810Y-9867050D01*
X14084190Y-9867050D01*
X14073271Y-9871024D01*
X14066983Y-9876300D01*
X14064369Y-9878494D01*
X14064369Y-9878494D01*
X14058560Y-9888556D01*
X14058559Y-9888557D01*
X14056542Y-9900000D01*
X14056542Y-9900000D01*
X13778359Y-9900000D01*
X13730189Y-9851831D01*
X13726841Y-9845699D01*
X13727339Y-9838729D01*
X13730987Y-9833564D01*
X13734630Y-9830507D01*
X13740440Y-9820443D01*
X13741436Y-9814797D01*
X13744539Y-9808536D01*
X13750534Y-9804947D01*
X13753648Y-9804550D01*
X13911639Y-9804550D01*
X13914058Y-9804788D01*
X13915574Y-9805090D01*
X13918287Y-9804550D01*
X13918287Y-9804550D01*
X13922422Y-9803728D01*
X13926323Y-9802952D01*
X13926323Y-9802952D01*
X13926323Y-9802952D01*
X13930946Y-9799862D01*
X13933136Y-9798399D01*
X13933136Y-9798399D01*
X13934479Y-9797502D01*
X13934479Y-9797502D01*
X13935436Y-9796862D01*
X13936294Y-9795578D01*
X13937835Y-9793700D01*
X13965353Y-9766182D01*
X13971486Y-9762833D01*
X13974121Y-9762550D01*
X14017353Y-9762550D01*
X14024057Y-9764519D01*
G37*
G04 #@! TD.AperFunction*
G04 #@! TA.AperFunction,NonConductor*
G36*
X14118502Y-10807311D02*
G01*
X14123416Y-10812279D01*
X14124094Y-10813764D01*
X14124934Y-10815979D01*
X14127518Y-10822793D01*
X14127518Y-10822793D01*
X14133730Y-10831793D01*
X14137182Y-10836793D01*
X14149915Y-10848073D01*
X14149915Y-10848074D01*
X14150135Y-10848268D01*
X14153848Y-10854187D01*
X14153771Y-10861174D01*
X14149929Y-10867010D01*
X14143542Y-10869842D01*
X14141912Y-10869950D01*
X14083088Y-10869950D01*
X14076384Y-10867982D01*
X14071808Y-10862701D01*
X14070814Y-10855785D01*
X14073716Y-10849430D01*
X14074865Y-10848268D01*
X14075085Y-10848074D01*
X14075085Y-10848073D01*
X14087818Y-10836793D01*
X14097482Y-10822793D01*
X14100906Y-10813764D01*
X14105123Y-10808194D01*
X14111683Y-10805788D01*
X14118502Y-10807311D01*
G37*
G04 #@! TD.AperFunction*
M02*
