  0
SECTION
  2
HEADER
  9
$ANGBASE
  50
0.0
  9
$ANGDIR
  70
1
  9
$MEASUREMENT
  70
0
  0
ENDSEC
  0
SECTION
  2
TABLES
  0
TABLE
  2
LTYPE
  70
4
  0
LTYPE
  5
40F
  2
CONTINUOUS
  70
0
  3
Solid line
  72
65
  73
0
  40
0.0
  0
LTYPE
  5
410
  2
DASHDOT
 70
0
  3
Dash Dot ____ _ ____ _
 72
65
 73
4
 40
2.0
 49
1.25
 49
-0.25
 49
0.25
 49
-0.25
  0
LTYPE
  5
411
  2
DASHED
 70
0
  3
Dashed __ __ __ __ __
 72
65
 73
2
 40
0.75
 49
0.5
 49
-0.25
  0
LTYPE
  5
43B
  2
DOTTED
 70
0
  3
Dotted .  .  .  .
 72
65
 73
2
 40
0.2
 49
0.0
 49
-0.2
  0
ENDTAB
  0
TABLE
  2
STYLE
  70
4
  0
STYLE
  2
KICAD
  70
0
  40
0
  41
1
  42
1
  50
0
  71
0
  3
isocp.shx
  0
STYLE
  2
KICADB
  70
0
  40
0
  41
1
  42
1
  50
0
  71
0
  3
isocp.shx
  0
STYLE
  2
KICADI
  70
0
  40
0
  41
1
  42
1
  50
15
  71
0
  3
isocp.shx
  0
STYLE
  2
KICADBI
  70
0
  40
0
  41
1
  42
1
  50
15
  71
0
  3
isocp.shx
  0
ENDTAB
  0
TABLE
  2
LAYER
  70
1
  0
LAYER
  2
BLACK
  70
0
  62
7
  6
CONTINUOUS
  0
ENDTAB
  0
ENDSEC
  0
SECTION
  2
ENTITIES
0
LINE
8
BLACK
6
CONTINUOUS
10
1.39619
20
-1.64726
11
1.37664
21
-1.64501
0
LINE
8
BLACK
6
CONTINUOUS
10
1.37664
20
-1.64501
11
1.35733
21
-1.64126
0
LINE
8
BLACK
6
CONTINUOUS
10
1.35733
20
-1.64126
11
1.33835
21
-1.63604
0
LINE
8
BLACK
6
CONTINUOUS
10
1.33835
20
-1.63604
11
1.31983
21
-1.62939
0
LINE
8
BLACK
6
CONTINUOUS
10
1.31983
20
-1.62939
11
1.30187
21
-1.62134
0
LINE
8
BLACK
6
CONTINUOUS
10
1.30187
20
-1.62134
11
1.28458
21
-1.61194
0
LINE
8
BLACK
6
CONTINUOUS
10
1.28458
20
-1.61194
11
1.26806
21
-1.60124
0
LINE
8
BLACK
6
CONTINUOUS
10
1.26806
20
-1.60124
11
1.25241
21
-1.58931
0
LINE
8
BLACK
6
CONTINUOUS
10
1.25241
20
-1.58931
11
1.23772
21
-1.57622
0
LINE
8
BLACK
6
CONTINUOUS
10
1.23772
20
-1.57622
11
1.22408
21
-1.56204
0
LINE
8
BLACK
6
CONTINUOUS
10
1.22408
20
-1.56204
11
1.21156
21
-1.54686
0
LINE
8
BLACK
6
CONTINUOUS
10
1.21156
20
-1.54686
11
1.20023
21
-1.53076
0
LINE
8
BLACK
6
CONTINUOUS
10
1.20023
20
-1.53076
11
1.19018
21
-1.51385
0
LINE
8
BLACK
6
CONTINUOUS
10
1.19018
20
-1.51385
11
1.18145
21
-1.49621
0
LINE
8
BLACK
6
CONTINUOUS
10
1.18145
20
-1.49621
11
1.17409
21
-1.47796
0
LINE
8
BLACK
6
CONTINUOUS
10
1.17409
20
-1.47796
11
1.16815
21
-1.4592
0
LINE
8
BLACK
6
CONTINUOUS
10
1.16815
20
-1.4592
11
1.16367
21
-1.44004
0
LINE
8
BLACK
6
CONTINUOUS
10
1.16367
20
-1.44004
11
1.16066
21
-1.42059
0
LINE
8
BLACK
6
CONTINUOUS
10
1.16066
20
-1.42059
11
1.15916
21
-1.40097
0
LINE
8
BLACK
6
CONTINUOUS
10
1.15916
20
-1.40097
11
1.15916
21
-1.38129
0
LINE
8
BLACK
6
CONTINUOUS
10
1.15916
20
-1.38129
11
1.16066
21
-1.36166
0
LINE
8
BLACK
6
CONTINUOUS
10
1.16066
20
-1.36166
11
1.16367
21
-1.34222
0
LINE
8
BLACK
6
CONTINUOUS
10
1.16367
20
-1.34222
11
1.16815
21
-1.32305
0
LINE
8
BLACK
6
CONTINUOUS
10
1.16815
20
-1.32305
11
1.17409
21
-1.30429
0
LINE
8
BLACK
6
CONTINUOUS
10
1.17409
20
-1.30429
11
1.18145
21
-1.28604
0
LINE
8
BLACK
6
CONTINUOUS
10
1.18145
20
-1.28604
11
1.19018
21
-1.2684
0
LINE
8
BLACK
6
CONTINUOUS
10
1.19018
20
-1.2684
11
1.20023
21
-1.25149
0
LINE
8
BLACK
6
CONTINUOUS
10
1.20023
20
-1.25149
11
1.21156
21
-1.23539
0
LINE
8
BLACK
6
CONTINUOUS
10
1.21156
20
-1.23539
11
1.22408
21
-1.22021
0
LINE
8
BLACK
6
CONTINUOUS
10
1.22408
20
-1.22021
11
1.23772
21
-1.20603
0
LINE
8
BLACK
6
CONTINUOUS
10
1.23772
20
-1.20603
11
1.25241
21
-1.19294
0
LINE
8
BLACK
6
CONTINUOUS
10
1.25241
20
-1.19294
11
1.26806
21
-1.18101
0
LINE
8
BLACK
6
CONTINUOUS
10
1.26806
20
-1.18101
11
1.28458
21
-1.17031
0
LINE
8
BLACK
6
CONTINUOUS
10
1.28458
20
-1.17031
11
1.30187
21
-1.16091
0
LINE
8
BLACK
6
CONTINUOUS
10
1.30187
20
-1.16091
11
1.31983
21
-1.15286
0
LINE
8
BLACK
6
CONTINUOUS
10
1.31983
20
-1.15286
11
1.33835
21
-1.14621
0
LINE
8
BLACK
6
CONTINUOUS
10
1.33835
20
-1.14621
11
1.35733
21
-1.14099
0
LINE
8
BLACK
6
CONTINUOUS
10
1.35733
20
-1.14099
11
1.37664
21
-1.13725
0
LINE
8
BLACK
6
CONTINUOUS
10
1.37664
20
-1.13725
11
1.39619
21
-1.13499
0
LINE
8
BLACK
6
CONTINUOUS
10
1.39619
20
-1.13499
11
1.41586
21
-1.13424
0
LINE
8
BLACK
6
CONTINUOUS
10
1.41586
20
-1.13424
11
2.59696
21
-1.13424
0
LINE
8
BLACK
6
CONTINUOUS
10
2.59696
20
-1.13424
11
2.61446
21
-1.13488
0
LINE
8
BLACK
6
CONTINUOUS
10
2.61446
20
-1.13488
11
2.63187
21
-1.13682
0
LINE
8
BLACK
6
CONTINUOUS
10
2.63187
20
-1.13682
11
2.64909
21
-1.14003
0
LINE
8
BLACK
6
CONTINUOUS
10
2.64909
20
-1.14003
11
2.66602
21
-1.14451
0
LINE
8
BLACK
6
CONTINUOUS
10
2.66602
20
-1.14451
11
2.68257
21
-1.15022
0
LINE
8
BLACK
6
CONTINUOUS
10
2.68257
20
-1.15022
11
2.69866
21
-1.15714
0
LINE
8
BLACK
6
CONTINUOUS
10
2.69866
20
-1.15714
11
2.7142
21
-1.16523
0
LINE
8
BLACK
6
CONTINUOUS
10
2.7142
20
-1.16523
11
2.72909
21
-1.17445
0
LINE
8
BLACK
6
CONTINUOUS
10
2.72909
20
-1.17445
11
2.74327
21
-1.18473
0
LINE
8
BLACK
6
CONTINUOUS
10
2.74327
20
-1.18473
11
2.75664
21
-1.19604
0
LINE
8
BLACK
6
CONTINUOUS
10
2.75664
20
-1.19604
11
2.76915
21
-1.2083
0
LINE
8
BLACK
6
CONTINUOUS
10
2.76915
20
-1.2083
11
2.78072
21
-1.22145
0
LINE
8
BLACK
6
CONTINUOUS
10
2.78072
20
-1.22145
11
2.79129
21
-1.23541
0
LINE
8
BLACK
6
CONTINUOUS
10
2.79129
20
-1.23541
11
2.79129
21
-1.23541
0
LINE
8
BLACK
6
CONTINUOUS
10
2.79129
20
-1.23541
11
2.79134
21
-1.23563
0
LINE
8
BLACK
6
CONTINUOUS
10
2.79134
20
-1.23563
11
2.79145
21
-1.23582
0
LINE
8
BLACK
6
CONTINUOUS
10
2.79145
20
-1.23582
11
2.79478
21
-1.25706
0
LINE
8
BLACK
6
CONTINUOUS
10
2.79478
20
-1.25706
11
2.79476
21
-1.25713
0
LINE
8
BLACK
6
CONTINUOUS
10
2.79476
20
-1.25713
11
2.7948
21
-1.25721
0
LINE
8
BLACK
6
CONTINUOUS
10
2.7948
20
-1.25721
11
2.7948
21
-1.52771
0
LINE
8
BLACK
6
CONTINUOUS
10
2.7948
20
-1.52771
11
2.79476
21
-1.5278
0
LINE
8
BLACK
6
CONTINUOUS
10
2.79476
20
-1.5278
11
2.79478
21
-1.52789
0
LINE
8
BLACK
6
CONTINUOUS
10
2.79478
20
-1.52789
11
2.79145
21
-1.54645
0
LINE
8
BLACK
6
CONTINUOUS
10
2.79145
20
-1.54645
11
2.79133
21
-1.54663
0
LINE
8
BLACK
6
CONTINUOUS
10
2.79133
20
-1.54663
11
2.79129
21
-1.54684
0
LINE
8
BLACK
6
CONTINUOUS
10
2.79129
20
-1.54684
11
2.79129
21
-1.54684
0
LINE
8
BLACK
6
CONTINUOUS
10
2.79129
20
-1.54684
11
2.78072
21
-1.56081
0
LINE
8
BLACK
6
CONTINUOUS
10
2.78072
20
-1.56081
11
2.76915
21
-1.57396
0
LINE
8
BLACK
6
CONTINUOUS
10
2.76915
20
-1.57396
11
2.75664
21
-1.58622
0
LINE
8
BLACK
6
CONTINUOUS
10
2.75664
20
-1.58622
11
2.74327
21
-1.59752
0
LINE
8
BLACK
6
CONTINUOUS
10
2.74327
20
-1.59752
11
2.72909
21
-1.60781
0
LINE
8
BLACK
6
CONTINUOUS
10
2.72909
20
-1.60781
11
2.7142
21
-1.61702
0
LINE
8
BLACK
6
CONTINUOUS
10
2.7142
20
-1.61702
11
2.69866
21
-1.62511
0
LINE
8
BLACK
6
CONTINUOUS
10
2.69866
20
-1.62511
11
2.68257
21
-1.63203
0
LINE
8
BLACK
6
CONTINUOUS
10
2.68257
20
-1.63203
11
2.66602
21
-1.63774
0
LINE
8
BLACK
6
CONTINUOUS
10
2.66602
20
-1.63774
11
2.64909
21
-1.64222
0
LINE
8
BLACK
6
CONTINUOUS
10
2.64909
20
-1.64222
11
2.63187
21
-1.64543
0
LINE
8
BLACK
6
CONTINUOUS
10
2.63187
20
-1.64543
11
2.61446
21
-1.64737
0
LINE
8
BLACK
6
CONTINUOUS
10
2.61446
20
-1.64737
11
2.59696
21
-1.64802
0
LINE
8
BLACK
6
CONTINUOUS
10
2.59696
20
-1.64802
11
1.41586
21
-1.64802
0
LINE
8
BLACK
6
CONTINUOUS
10
1.41586
20
-1.64802
11
1.39619
21
-1.64726
0
LINE
8
BLACK
6
CONTINUOUS
10
2.61433
20
-1.64557
11
2.6316
21
-1.64364
0
LINE
8
BLACK
6
CONTINUOUS
10
2.6316
20
-1.64364
11
2.64869
21
-1.64045
0
LINE
8
BLACK
6
CONTINUOUS
10
2.64869
20
-1.64045
11
2.66549
21
-1.63601
0
LINE
8
BLACK
6
CONTINUOUS
10
2.66549
20
-1.63601
11
2.68192
21
-1.63034
0
LINE
8
BLACK
6
CONTINUOUS
10
2.68192
20
-1.63034
11
2.69789
21
-1.62347
0
LINE
8
BLACK
6
CONTINUOUS
10
2.69789
20
-1.62347
11
2.7133
21
-1.61545
0
LINE
8
BLACK
6
CONTINUOUS
10
2.7133
20
-1.61545
11
2.72809
21
-1.60631
0
LINE
8
BLACK
6
CONTINUOUS
10
2.72809
20
-1.60631
11
2.74215
21
-1.5961
0
LINE
8
BLACK
6
CONTINUOUS
10
2.74215
20
-1.5961
11
2.75543
21
-1.58488
0
LINE
8
BLACK
6
CONTINUOUS
10
2.75543
20
-1.58488
11
2.76784
21
-1.57271
0
LINE
8
BLACK
6
CONTINUOUS
10
2.76784
20
-1.57271
11
2.77932
21
-1.55966
0
LINE
8
BLACK
6
CONTINUOUS
10
2.77932
20
-1.55966
11
2.78953
21
-1.54617
0
LINE
8
BLACK
6
CONTINUOUS
10
2.78953
20
-1.54617
11
2.78951
21
-1.5461
0
LINE
8
BLACK
6
CONTINUOUS
10
2.78951
20
-1.5461
11
2.79283
21
-1.52763
0
LINE
8
BLACK
6
CONTINUOUS
10
2.79283
20
-1.52763
11
2.79283
21
-1.25729
0
LINE
8
BLACK
6
CONTINUOUS
10
2.79283
20
-1.25729
11
2.78951
21
-1.23613
0
LINE
8
BLACK
6
CONTINUOUS
10
2.78951
20
-1.23613
11
2.78952
21
-1.23607
0
LINE
8
BLACK
6
CONTINUOUS
10
2.78952
20
-1.23607
11
2.77932
21
-1.22259
0
LINE
8
BLACK
6
CONTINUOUS
10
2.77932
20
-1.22259
11
2.76784
21
-1.20954
0
LINE
8
BLACK
6
CONTINUOUS
10
2.76784
20
-1.20954
11
2.75543
21
-1.19737
0
LINE
8
BLACK
6
CONTINUOUS
10
2.75543
20
-1.19737
11
2.74215
21
-1.18615
0
LINE
8
BLACK
6
CONTINUOUS
10
2.74215
20
-1.18615
11
2.72809
21
-1.17595
0
LINE
8
BLACK
6
CONTINUOUS
10
2.72809
20
-1.17595
11
2.7133
21
-1.1668
0
LINE
8
BLACK
6
CONTINUOUS
10
2.7133
20
-1.1668
11
2.69789
21
-1.15878
0
LINE
8
BLACK
6
CONTINUOUS
10
2.69789
20
-1.15878
11
2.68192
21
-1.15191
0
LINE
8
BLACK
6
CONTINUOUS
10
2.68192
20
-1.15191
11
2.66549
21
-1.14624
0
LINE
8
BLACK
6
CONTINUOUS
10
2.66549
20
-1.14624
11
2.64869
21
-1.1418
0
LINE
8
BLACK
6
CONTINUOUS
10
2.64869
20
-1.1418
11
2.6316
21
-1.13861
0
LINE
8
BLACK
6
CONTINUOUS
10
2.6316
20
-1.13861
11
2.61433
21
-1.13669
0
LINE
8
BLACK
6
CONTINUOUS
10
2.61433
20
-1.13669
11
2.59732
21
-1.13606
0
LINE
8
BLACK
6
CONTINUOUS
10
2.59732
20
-1.13606
11
2.59696
21
-1.1362
0
LINE
8
BLACK
6
CONTINUOUS
10
2.59696
20
-1.1362
11
1.41586
21
-1.1362
0
LINE
8
BLACK
6
CONTINUOUS
10
1.41586
20
-1.1362
11
1.41544
21
-1.13603
0
LINE
8
BLACK
6
CONTINUOUS
10
1.41544
20
-1.13603
11
1.39633
21
-1.13677
0
LINE
8
BLACK
6
CONTINUOUS
10
1.39633
20
-1.13677
11
1.37692
21
-1.13901
0
LINE
8
BLACK
6
CONTINUOUS
10
1.37692
20
-1.13901
11
1.35773
21
-1.14273
0
LINE
8
BLACK
6
CONTINUOUS
10
1.35773
20
-1.14273
11
1.33889
21
-1.14791
0
LINE
8
BLACK
6
CONTINUOUS
10
1.33889
20
-1.14791
11
1.32049
21
-1.15451
0
LINE
8
BLACK
6
CONTINUOUS
10
1.32049
20
-1.15451
11
1.30266
21
-1.16251
0
LINE
8
BLACK
6
CONTINUOUS
10
1.30266
20
-1.16251
11
1.28549
21
-1.17184
0
LINE
8
BLACK
6
CONTINUOUS
10
1.28549
20
-1.17184
11
1.26909
21
-1.18247
0
LINE
8
BLACK
6
CONTINUOUS
10
1.26909
20
-1.18247
11
1.25355
21
-1.19431
0
LINE
8
BLACK
6
CONTINUOUS
10
1.25355
20
-1.19431
11
1.23896
21
-1.20731
0
LINE
8
BLACK
6
CONTINUOUS
10
1.23896
20
-1.20731
11
1.22541
21
-1.2214
0
LINE
8
BLACK
6
CONTINUOUS
10
1.22541
20
-1.2214
11
1.21297
21
-1.23647
0
LINE
8
BLACK
6
CONTINUOUS
10
1.21297
20
-1.23647
11
1.20173
21
-1.25246
0
LINE
8
BLACK
6
CONTINUOUS
10
1.20173
20
-1.25246
11
1.19174
21
-1.26926
0
LINE
8
BLACK
6
CONTINUOUS
10
1.19174
20
-1.26926
11
1.18307
21
-1.28677
0
LINE
8
BLACK
6
CONTINUOUS
10
1.18307
20
-1.28677
11
1.17577
21
-1.30489
0
LINE
8
BLACK
6
CONTINUOUS
10
1.17577
20
-1.30489
11
1.16987
21
-1.32353
0
LINE
8
BLACK
6
CONTINUOUS
10
1.16987
20
-1.32353
11
1.16542
21
-1.34256
0
LINE
8
BLACK
6
CONTINUOUS
10
1.16542
20
-1.34256
11
1.16243
21
-1.36187
0
LINE
8
BLACK
6
CONTINUOUS
10
1.16243
20
-1.36187
11
1.16094
21
-1.38135
0
LINE
8
BLACK
6
CONTINUOUS
10
1.16094
20
-1.38135
11
1.16094
21
-1.4009
0
LINE
8
BLACK
6
CONTINUOUS
10
1.16094
20
-1.4009
11
1.16243
21
-1.42038
0
LINE
8
BLACK
6
CONTINUOUS
10
1.16243
20
-1.42038
11
1.16542
21
-1.4397
0
LINE
8
BLACK
6
CONTINUOUS
10
1.16542
20
-1.4397
11
1.16987
21
-1.45873
0
LINE
8
BLACK
6
CONTINUOUS
10
1.16987
20
-1.45873
11
1.17577
21
-1.47736
0
LINE
8
BLACK
6
CONTINUOUS
10
1.17577
20
-1.47736
11
1.18307
21
-1.49548
0
LINE
8
BLACK
6
CONTINUOUS
10
1.18307
20
-1.49548
11
1.19174
21
-1.513
0
LINE
8
BLACK
6
CONTINUOUS
10
1.19174
20
-1.513
11
1.20173
21
-1.52979
0
LINE
8
BLACK
6
CONTINUOUS
10
1.20173
20
-1.52979
11
1.21297
21
-1.54578
0
LINE
8
BLACK
6
CONTINUOUS
10
1.21297
20
-1.54578
11
1.22541
21
-1.56086
0
LINE
8
BLACK
6
CONTINUOUS
10
1.22541
20
-1.56086
11
1.23896
21
-1.57494
0
LINE
8
BLACK
6
CONTINUOUS
10
1.23896
20
-1.57494
11
1.25355
21
-1.58794
0
LINE
8
BLACK
6
CONTINUOUS
10
1.25355
20
-1.58794
11
1.26909
21
-1.59979
0
LINE
8
BLACK
6
CONTINUOUS
10
1.26909
20
-1.59979
11
1.28549
21
-1.61041
0
LINE
8
BLACK
6
CONTINUOUS
10
1.28549
20
-1.61041
11
1.30266
21
-1.61975
0
LINE
8
BLACK
6
CONTINUOUS
10
1.30266
20
-1.61975
11
1.32049
21
-1.62774
0
LINE
8
BLACK
6
CONTINUOUS
10
1.32049
20
-1.62774
11
1.33889
21
-1.63435
0
LINE
8
BLACK
6
CONTINUOUS
10
1.33889
20
-1.63435
11
1.35773
21
-1.63952
0
LINE
8
BLACK
6
CONTINUOUS
10
1.35773
20
-1.63952
11
1.37692
21
-1.64324
0
LINE
8
BLACK
6
CONTINUOUS
10
1.37692
20
-1.64324
11
1.39633
21
-1.64549
0
LINE
8
BLACK
6
CONTINUOUS
10
1.39633
20
-1.64549
11
1.41544
21
-1.64622
0
LINE
8
BLACK
6
CONTINUOUS
10
1.41544
20
-1.64622
11
1.41586
21
-1.64605
0
LINE
8
BLACK
6
CONTINUOUS
10
1.41586
20
-1.64605
11
2.59696
21
-1.64605
0
LINE
8
BLACK
6
CONTINUOUS
10
2.59696
20
-1.64605
11
2.59732
21
-1.64619
0
LINE
8
BLACK
6
CONTINUOUS
10
2.59732
20
-1.64619
11
2.61433
21
-1.64557
  0
ENDSEC
  0
EOF
