G04 #@! TF.GenerationSoftware,KiCad,Pcbnew,5.1.10-88a1d61d58~90~ubuntu20.04.1*
G04 #@! TF.CreationDate,2021-11-22T21:12:46+01:00*
G04 #@! TF.ProjectId,nRF52832_qfaa,6e524635-3238-4333-925f-716661612e6b,rev?*
G04 #@! TF.SameCoordinates,Original*
G04 #@! TF.FileFunction,Paste,Top*
G04 #@! TF.FilePolarity,Positive*
%FSLAX45Y45*%
G04 Gerber Fmt 4.5, Leading zero omitted, Abs format (unit mm)*
G04 Created by KiCad (PCBNEW 5.1.10-88a1d61d58~90~ubuntu20.04.1) date 2021-11-22 21:12:46*
%MOMM*%
%LPD*%
G01*
G04 APERTURE LIST*
%ADD10R,0.550000X1.700000*%
%ADD11R,1.000000X0.900000*%
%ADD12R,0.800000X1.000000*%
%ADD13R,0.850000X0.950000*%
%ADD14R,1.800000X1.000000*%
%ADD15R,4.700000X4.700000*%
%ADD16R,0.400000X0.500000*%
%ADD17R,0.300000X0.500000*%
%ADD18R,0.900000X0.800000*%
%ADD19R,1.060000X0.650000*%
%ADD20C,0.910000*%
G04 APERTURE END LIST*
G36*
G01*
X6468830Y-3184960D02*
X6500330Y-3184960D01*
G75*
G02*
X6516080Y-3200710I0J-15750D01*
G01*
X6516080Y-3232210D01*
G75*
G02*
X6500330Y-3247960I-15750J0D01*
G01*
X6468830Y-3247960D01*
G75*
G02*
X6453080Y-3232210I0J15750D01*
G01*
X6453080Y-3200710D01*
G75*
G02*
X6468830Y-3184960I15750J0D01*
G01*
G37*
G36*
G01*
X6540830Y-3184960D02*
X6572330Y-3184960D01*
G75*
G02*
X6588080Y-3200710I0J-15750D01*
G01*
X6588080Y-3232210D01*
G75*
G02*
X6572330Y-3247960I-15750J0D01*
G01*
X6540830Y-3247960D01*
G75*
G02*
X6525080Y-3232210I0J15750D01*
G01*
X6525080Y-3200710D01*
G75*
G02*
X6540830Y-3184960I15750J0D01*
G01*
G37*
G36*
G01*
X6468830Y-3112960D02*
X6500330Y-3112960D01*
G75*
G02*
X6516080Y-3128710I0J-15750D01*
G01*
X6516080Y-3160210D01*
G75*
G02*
X6500330Y-3175960I-15750J0D01*
G01*
X6468830Y-3175960D01*
G75*
G02*
X6453080Y-3160210I0J15750D01*
G01*
X6453080Y-3128710D01*
G75*
G02*
X6468830Y-3112960I15750J0D01*
G01*
G37*
G36*
G01*
X6540830Y-3112960D02*
X6572330Y-3112960D01*
G75*
G02*
X6588080Y-3128710I0J-15750D01*
G01*
X6588080Y-3160210D01*
G75*
G02*
X6572330Y-3175960I-15750J0D01*
G01*
X6540830Y-3175960D01*
G75*
G02*
X6525080Y-3160210I0J15750D01*
G01*
X6525080Y-3128710D01*
G75*
G02*
X6540830Y-3112960I15750J0D01*
G01*
G37*
G36*
G01*
X6626830Y-3092960D02*
X6701830Y-3092960D01*
G75*
G02*
X6708080Y-3099210I0J-6250D01*
G01*
X6708080Y-3111710D01*
G75*
G02*
X6701830Y-3117960I-6250J0D01*
G01*
X6626830Y-3117960D01*
G75*
G02*
X6620580Y-3111710I0J6250D01*
G01*
X6620580Y-3099210D01*
G75*
G02*
X6626830Y-3092960I6250J0D01*
G01*
G37*
G36*
G01*
X6626830Y-3142960D02*
X6701830Y-3142960D01*
G75*
G02*
X6708080Y-3149210I0J-6250D01*
G01*
X6708080Y-3161710D01*
G75*
G02*
X6701830Y-3167960I-6250J0D01*
G01*
X6626830Y-3167960D01*
G75*
G02*
X6620580Y-3161710I0J6250D01*
G01*
X6620580Y-3149210D01*
G75*
G02*
X6626830Y-3142960I6250J0D01*
G01*
G37*
G36*
G01*
X6626830Y-3192960D02*
X6701830Y-3192960D01*
G75*
G02*
X6708080Y-3199210I0J-6250D01*
G01*
X6708080Y-3211710D01*
G75*
G02*
X6701830Y-3217960I-6250J0D01*
G01*
X6626830Y-3217960D01*
G75*
G02*
X6620580Y-3211710I0J6250D01*
G01*
X6620580Y-3199210D01*
G75*
G02*
X6626830Y-3192960I6250J0D01*
G01*
G37*
G36*
G01*
X6626830Y-3242960D02*
X6701830Y-3242960D01*
G75*
G02*
X6708080Y-3249210I0J-6250D01*
G01*
X6708080Y-3261710D01*
G75*
G02*
X6701830Y-3267960I-6250J0D01*
G01*
X6626830Y-3267960D01*
G75*
G02*
X6620580Y-3261710I0J6250D01*
G01*
X6620580Y-3249210D01*
G75*
G02*
X6626830Y-3242960I6250J0D01*
G01*
G37*
G36*
G01*
X6589330Y-3280460D02*
X6601830Y-3280460D01*
G75*
G02*
X6608080Y-3286710I0J-6250D01*
G01*
X6608080Y-3361710D01*
G75*
G02*
X6601830Y-3367960I-6250J0D01*
G01*
X6589330Y-3367960D01*
G75*
G02*
X6583080Y-3361710I0J6250D01*
G01*
X6583080Y-3286710D01*
G75*
G02*
X6589330Y-3280460I6250J0D01*
G01*
G37*
G36*
G01*
X6539330Y-3280460D02*
X6551830Y-3280460D01*
G75*
G02*
X6558080Y-3286710I0J-6250D01*
G01*
X6558080Y-3361710D01*
G75*
G02*
X6551830Y-3367960I-6250J0D01*
G01*
X6539330Y-3367960D01*
G75*
G02*
X6533080Y-3361710I0J6250D01*
G01*
X6533080Y-3286710D01*
G75*
G02*
X6539330Y-3280460I6250J0D01*
G01*
G37*
G36*
G01*
X6489330Y-3280460D02*
X6501830Y-3280460D01*
G75*
G02*
X6508080Y-3286710I0J-6250D01*
G01*
X6508080Y-3361710D01*
G75*
G02*
X6501830Y-3367960I-6250J0D01*
G01*
X6489330Y-3367960D01*
G75*
G02*
X6483080Y-3361710I0J6250D01*
G01*
X6483080Y-3286710D01*
G75*
G02*
X6489330Y-3280460I6250J0D01*
G01*
G37*
G36*
G01*
X6439330Y-3280460D02*
X6451830Y-3280460D01*
G75*
G02*
X6458080Y-3286710I0J-6250D01*
G01*
X6458080Y-3361710D01*
G75*
G02*
X6451830Y-3367960I-6250J0D01*
G01*
X6439330Y-3367960D01*
G75*
G02*
X6433080Y-3361710I0J6250D01*
G01*
X6433080Y-3286710D01*
G75*
G02*
X6439330Y-3280460I6250J0D01*
G01*
G37*
G36*
G01*
X6339330Y-3242960D02*
X6414330Y-3242960D01*
G75*
G02*
X6420580Y-3249210I0J-6250D01*
G01*
X6420580Y-3261710D01*
G75*
G02*
X6414330Y-3267960I-6250J0D01*
G01*
X6339330Y-3267960D01*
G75*
G02*
X6333080Y-3261710I0J6250D01*
G01*
X6333080Y-3249210D01*
G75*
G02*
X6339330Y-3242960I6250J0D01*
G01*
G37*
G36*
G01*
X6339330Y-3192960D02*
X6414330Y-3192960D01*
G75*
G02*
X6420580Y-3199210I0J-6250D01*
G01*
X6420580Y-3211710D01*
G75*
G02*
X6414330Y-3217960I-6250J0D01*
G01*
X6339330Y-3217960D01*
G75*
G02*
X6333080Y-3211710I0J6250D01*
G01*
X6333080Y-3199210D01*
G75*
G02*
X6339330Y-3192960I6250J0D01*
G01*
G37*
G36*
G01*
X6339330Y-3142960D02*
X6414330Y-3142960D01*
G75*
G02*
X6420580Y-3149210I0J-6250D01*
G01*
X6420580Y-3161710D01*
G75*
G02*
X6414330Y-3167960I-6250J0D01*
G01*
X6339330Y-3167960D01*
G75*
G02*
X6333080Y-3161710I0J6250D01*
G01*
X6333080Y-3149210D01*
G75*
G02*
X6339330Y-3142960I6250J0D01*
G01*
G37*
G36*
G01*
X6339330Y-3092960D02*
X6414330Y-3092960D01*
G75*
G02*
X6420580Y-3099210I0J-6250D01*
G01*
X6420580Y-3111710D01*
G75*
G02*
X6414330Y-3117960I-6250J0D01*
G01*
X6339330Y-3117960D01*
G75*
G02*
X6333080Y-3111710I0J6250D01*
G01*
X6333080Y-3099210D01*
G75*
G02*
X6339330Y-3092960I6250J0D01*
G01*
G37*
G36*
G01*
X6439330Y-2992960D02*
X6451830Y-2992960D01*
G75*
G02*
X6458080Y-2999210I0J-6250D01*
G01*
X6458080Y-3074210D01*
G75*
G02*
X6451830Y-3080460I-6250J0D01*
G01*
X6439330Y-3080460D01*
G75*
G02*
X6433080Y-3074210I0J6250D01*
G01*
X6433080Y-2999210D01*
G75*
G02*
X6439330Y-2992960I6250J0D01*
G01*
G37*
G36*
G01*
X6489330Y-2992960D02*
X6501830Y-2992960D01*
G75*
G02*
X6508080Y-2999210I0J-6250D01*
G01*
X6508080Y-3074210D01*
G75*
G02*
X6501830Y-3080460I-6250J0D01*
G01*
X6489330Y-3080460D01*
G75*
G02*
X6483080Y-3074210I0J6250D01*
G01*
X6483080Y-2999210D01*
G75*
G02*
X6489330Y-2992960I6250J0D01*
G01*
G37*
G36*
G01*
X6539330Y-2992960D02*
X6551830Y-2992960D01*
G75*
G02*
X6558080Y-2999210I0J-6250D01*
G01*
X6558080Y-3074210D01*
G75*
G02*
X6551830Y-3080460I-6250J0D01*
G01*
X6539330Y-3080460D01*
G75*
G02*
X6533080Y-3074210I0J6250D01*
G01*
X6533080Y-2999210D01*
G75*
G02*
X6539330Y-2992960I6250J0D01*
G01*
G37*
G36*
G01*
X6589330Y-2992960D02*
X6601830Y-2992960D01*
G75*
G02*
X6608080Y-2999210I0J-6250D01*
G01*
X6608080Y-3074210D01*
G75*
G02*
X6601830Y-3080460I-6250J0D01*
G01*
X6589330Y-3080460D01*
G75*
G02*
X6583080Y-3074210I0J6250D01*
G01*
X6583080Y-2999210D01*
G75*
G02*
X6589330Y-2992960I6250J0D01*
G01*
G37*
D10*
X3751580Y-3312160D03*
D11*
X3814080Y-3107160D03*
X3974080Y-3107160D03*
X3974080Y-3517160D03*
X3814080Y-3517160D03*
G36*
G01*
X4345880Y-3227560D02*
X4345880Y-3193560D01*
G75*
G02*
X4359880Y-3179560I14000J0D01*
G01*
X4387880Y-3179560D01*
G75*
G02*
X4401880Y-3193560I0J-14000D01*
G01*
X4401880Y-3227560D01*
G75*
G02*
X4387880Y-3241560I-14000J0D01*
G01*
X4359880Y-3241560D01*
G75*
G02*
X4345880Y-3227560I0J14000D01*
G01*
G37*
G36*
G01*
X4249880Y-3227560D02*
X4249880Y-3193560D01*
G75*
G02*
X4263880Y-3179560I14000J0D01*
G01*
X4291880Y-3179560D01*
G75*
G02*
X4305880Y-3193560I0J-14000D01*
G01*
X4305880Y-3227560D01*
G75*
G02*
X4291880Y-3241560I-14000J0D01*
G01*
X4263880Y-3241560D01*
G75*
G02*
X4249880Y-3227560I0J14000D01*
G01*
G37*
G36*
G01*
X4953780Y-3979860D02*
X4987780Y-3979860D01*
G75*
G02*
X5001780Y-3993860I0J-14000D01*
G01*
X5001780Y-4021860D01*
G75*
G02*
X4987780Y-4035860I-14000J0D01*
G01*
X4953780Y-4035860D01*
G75*
G02*
X4939780Y-4021860I0J14000D01*
G01*
X4939780Y-3993860D01*
G75*
G02*
X4953780Y-3979860I14000J0D01*
G01*
G37*
G36*
G01*
X4953780Y-3883860D02*
X4987780Y-3883860D01*
G75*
G02*
X5001780Y-3897860I0J-14000D01*
G01*
X5001780Y-3925860D01*
G75*
G02*
X4987780Y-3939860I-14000J0D01*
G01*
X4953780Y-3939860D01*
G75*
G02*
X4939780Y-3925860I0J14000D01*
G01*
X4939780Y-3897860D01*
G75*
G02*
X4953780Y-3883860I14000J0D01*
G01*
G37*
G36*
G01*
X6376180Y-4030660D02*
X6410180Y-4030660D01*
G75*
G02*
X6424180Y-4044660I0J-14000D01*
G01*
X6424180Y-4072660D01*
G75*
G02*
X6410180Y-4086660I-14000J0D01*
G01*
X6376180Y-4086660D01*
G75*
G02*
X6362180Y-4072660I0J14000D01*
G01*
X6362180Y-4044660D01*
G75*
G02*
X6376180Y-4030660I14000J0D01*
G01*
G37*
G36*
G01*
X6376180Y-3934660D02*
X6410180Y-3934660D01*
G75*
G02*
X6424180Y-3948660I0J-14000D01*
G01*
X6424180Y-3976660D01*
G75*
G02*
X6410180Y-3990660I-14000J0D01*
G01*
X6376180Y-3990660D01*
G75*
G02*
X6362180Y-3976660I0J14000D01*
G01*
X6362180Y-3948660D01*
G75*
G02*
X6376180Y-3934660I14000J0D01*
G01*
G37*
G36*
G01*
X6943580Y-3863660D02*
X6909580Y-3863660D01*
G75*
G02*
X6895580Y-3849660I0J14000D01*
G01*
X6895580Y-3821660D01*
G75*
G02*
X6909580Y-3807660I14000J0D01*
G01*
X6943580Y-3807660D01*
G75*
G02*
X6957580Y-3821660I0J-14000D01*
G01*
X6957580Y-3849660D01*
G75*
G02*
X6943580Y-3863660I-14000J0D01*
G01*
G37*
G36*
G01*
X6943580Y-3959660D02*
X6909580Y-3959660D01*
G75*
G02*
X6895580Y-3945660I0J14000D01*
G01*
X6895580Y-3917660D01*
G75*
G02*
X6909580Y-3903660I14000J0D01*
G01*
X6943580Y-3903660D01*
G75*
G02*
X6957580Y-3917660I0J-14000D01*
G01*
X6957580Y-3945660D01*
G75*
G02*
X6943580Y-3959660I-14000J0D01*
G01*
G37*
G36*
G01*
X6198380Y-3065460D02*
X6232380Y-3065460D01*
G75*
G02*
X6246380Y-3079460I0J-14000D01*
G01*
X6246380Y-3107460D01*
G75*
G02*
X6232380Y-3121460I-14000J0D01*
G01*
X6198380Y-3121460D01*
G75*
G02*
X6184380Y-3107460I0J14000D01*
G01*
X6184380Y-3079460D01*
G75*
G02*
X6198380Y-3065460I14000J0D01*
G01*
G37*
G36*
G01*
X6198380Y-2969460D02*
X6232380Y-2969460D01*
G75*
G02*
X6246380Y-2983460I0J-14000D01*
G01*
X6246380Y-3011460D01*
G75*
G02*
X6232380Y-3025460I-14000J0D01*
G01*
X6198380Y-3025460D01*
G75*
G02*
X6184380Y-3011460I0J14000D01*
G01*
X6184380Y-2983460D01*
G75*
G02*
X6198380Y-2969460I14000J0D01*
G01*
G37*
D12*
X3476380Y-3501460D03*
X3476380Y-3351460D03*
X3366380Y-3351460D03*
X3366380Y-3501460D03*
D13*
X4539680Y-3776760D03*
X4539680Y-3921760D03*
X4424680Y-3921760D03*
X4424680Y-3776760D03*
D14*
X5493280Y-3726460D03*
X5493280Y-3976460D03*
G36*
G01*
X6012380Y-2979260D02*
X6037380Y-2979260D01*
G75*
G02*
X6049880Y-2991760I0J-12500D01*
G01*
X6049880Y-3041760D01*
G75*
G02*
X6037380Y-3054260I-12500J0D01*
G01*
X6012380Y-3054260D01*
G75*
G02*
X5999880Y-3041760I0J12500D01*
G01*
X5999880Y-2991760D01*
G75*
G02*
X6012380Y-2979260I12500J0D01*
G01*
G37*
G36*
G01*
X5885380Y-2979260D02*
X5910380Y-2979260D01*
G75*
G02*
X5922880Y-2991760I0J-12500D01*
G01*
X5922880Y-3041760D01*
G75*
G02*
X5910380Y-3054260I-12500J0D01*
G01*
X5885380Y-3054260D01*
G75*
G02*
X5872880Y-3041760I0J12500D01*
G01*
X5872880Y-2991760D01*
G75*
G02*
X5885380Y-2979260I12500J0D01*
G01*
G37*
G36*
G01*
X5758380Y-2979260D02*
X5783380Y-2979260D01*
G75*
G02*
X5795880Y-2991760I0J-12500D01*
G01*
X5795880Y-3041760D01*
G75*
G02*
X5783380Y-3054260I-12500J0D01*
G01*
X5758380Y-3054260D01*
G75*
G02*
X5745880Y-3041760I0J12500D01*
G01*
X5745880Y-2991760D01*
G75*
G02*
X5758380Y-2979260I12500J0D01*
G01*
G37*
G36*
G01*
X5631380Y-2979260D02*
X5656380Y-2979260D01*
G75*
G02*
X5668880Y-2991760I0J-12500D01*
G01*
X5668880Y-3041760D01*
G75*
G02*
X5656380Y-3054260I-12500J0D01*
G01*
X5631380Y-3054260D01*
G75*
G02*
X5618880Y-3041760I0J12500D01*
G01*
X5618880Y-2991760D01*
G75*
G02*
X5631380Y-2979260I12500J0D01*
G01*
G37*
G36*
G01*
X5631380Y-3519260D02*
X5656380Y-3519260D01*
G75*
G02*
X5668880Y-3531760I0J-12500D01*
G01*
X5668880Y-3581760D01*
G75*
G02*
X5656380Y-3594260I-12500J0D01*
G01*
X5631380Y-3594260D01*
G75*
G02*
X5618880Y-3581760I0J12500D01*
G01*
X5618880Y-3531760D01*
G75*
G02*
X5631380Y-3519260I12500J0D01*
G01*
G37*
G36*
G01*
X5758380Y-3519260D02*
X5783380Y-3519260D01*
G75*
G02*
X5795880Y-3531760I0J-12500D01*
G01*
X5795880Y-3581760D01*
G75*
G02*
X5783380Y-3594260I-12500J0D01*
G01*
X5758380Y-3594260D01*
G75*
G02*
X5745880Y-3581760I0J12500D01*
G01*
X5745880Y-3531760D01*
G75*
G02*
X5758380Y-3519260I12500J0D01*
G01*
G37*
G36*
G01*
X5885380Y-3519260D02*
X5910380Y-3519260D01*
G75*
G02*
X5922880Y-3531760I0J-12500D01*
G01*
X5922880Y-3581760D01*
G75*
G02*
X5910380Y-3594260I-12500J0D01*
G01*
X5885380Y-3594260D01*
G75*
G02*
X5872880Y-3581760I0J12500D01*
G01*
X5872880Y-3531760D01*
G75*
G02*
X5885380Y-3519260I12500J0D01*
G01*
G37*
G36*
G01*
X6012380Y-3519260D02*
X6037380Y-3519260D01*
G75*
G02*
X6049880Y-3531760I0J-12500D01*
G01*
X6049880Y-3581760D01*
G75*
G02*
X6037380Y-3594260I-12500J0D01*
G01*
X6012380Y-3594260D01*
G75*
G02*
X5999880Y-3581760I0J12500D01*
G01*
X5999880Y-3531760D01*
G75*
G02*
X6012380Y-3519260I12500J0D01*
G01*
G37*
G36*
G01*
X5880380Y-3133260D02*
X6003380Y-3133260D01*
G75*
G02*
X6028380Y-3158260I0J-25000D01*
G01*
X6028380Y-3245260D01*
G75*
G02*
X6003380Y-3270260I-25000J0D01*
G01*
X5880380Y-3270260D01*
G75*
G02*
X5855380Y-3245260I0J25000D01*
G01*
X5855380Y-3158260D01*
G75*
G02*
X5880380Y-3133260I25000J0D01*
G01*
G37*
G36*
G01*
X5665380Y-3133260D02*
X5788380Y-3133260D01*
G75*
G02*
X5813380Y-3158260I0J-25000D01*
G01*
X5813380Y-3245260D01*
G75*
G02*
X5788380Y-3270260I-25000J0D01*
G01*
X5665380Y-3270260D01*
G75*
G02*
X5640380Y-3245260I0J25000D01*
G01*
X5640380Y-3158260D01*
G75*
G02*
X5665380Y-3133260I25000J0D01*
G01*
G37*
G36*
G01*
X5880380Y-3303260D02*
X6003380Y-3303260D01*
G75*
G02*
X6028380Y-3328260I0J-25000D01*
G01*
X6028380Y-3415260D01*
G75*
G02*
X6003380Y-3440260I-25000J0D01*
G01*
X5880380Y-3440260D01*
G75*
G02*
X5855380Y-3415260I0J25000D01*
G01*
X5855380Y-3328260D01*
G75*
G02*
X5880380Y-3303260I25000J0D01*
G01*
G37*
G36*
G01*
X5665380Y-3303260D02*
X5788380Y-3303260D01*
G75*
G02*
X5813380Y-3328260I0J-25000D01*
G01*
X5813380Y-3415260D01*
G75*
G02*
X5788380Y-3440260I-25000J0D01*
G01*
X5665380Y-3440260D01*
G75*
G02*
X5640380Y-3415260I0J25000D01*
G01*
X5640380Y-3328260D01*
G75*
G02*
X5665380Y-3303260I25000J0D01*
G01*
G37*
G36*
G01*
X5317580Y-3677560D02*
X5317580Y-3691560D01*
G75*
G02*
X5314580Y-3694560I-3000J0D01*
G01*
X5255580Y-3694560D01*
G75*
G02*
X5252580Y-3691560I0J3000D01*
G01*
X5252580Y-3677560D01*
G75*
G02*
X5255580Y-3674560I3000J0D01*
G01*
X5314580Y-3674560D01*
G75*
G02*
X5317580Y-3677560I0J-3000D01*
G01*
G37*
G36*
G01*
X5317580Y-3637560D02*
X5317580Y-3651560D01*
G75*
G02*
X5314580Y-3654560I-3000J0D01*
G01*
X5255580Y-3654560D01*
G75*
G02*
X5252580Y-3651560I0J3000D01*
G01*
X5252580Y-3637560D01*
G75*
G02*
X5255580Y-3634560I3000J0D01*
G01*
X5314580Y-3634560D01*
G75*
G02*
X5317580Y-3637560I0J-3000D01*
G01*
G37*
G36*
G01*
X5317580Y-3597560D02*
X5317580Y-3611560D01*
G75*
G02*
X5314580Y-3614560I-3000J0D01*
G01*
X5255580Y-3614560D01*
G75*
G02*
X5252580Y-3611560I0J3000D01*
G01*
X5252580Y-3597560D01*
G75*
G02*
X5255580Y-3594560I3000J0D01*
G01*
X5314580Y-3594560D01*
G75*
G02*
X5317580Y-3597560I0J-3000D01*
G01*
G37*
G36*
G01*
X5317580Y-3557560D02*
X5317580Y-3571560D01*
G75*
G02*
X5314580Y-3574560I-3000J0D01*
G01*
X5255580Y-3574560D01*
G75*
G02*
X5252580Y-3571560I0J3000D01*
G01*
X5252580Y-3557560D01*
G75*
G02*
X5255580Y-3554560I3000J0D01*
G01*
X5314580Y-3554560D01*
G75*
G02*
X5317580Y-3557560I0J-3000D01*
G01*
G37*
G36*
G01*
X5317580Y-3517560D02*
X5317580Y-3531560D01*
G75*
G02*
X5314580Y-3534560I-3000J0D01*
G01*
X5255580Y-3534560D01*
G75*
G02*
X5252580Y-3531560I0J3000D01*
G01*
X5252580Y-3517560D01*
G75*
G02*
X5255580Y-3514560I3000J0D01*
G01*
X5314580Y-3514560D01*
G75*
G02*
X5317580Y-3517560I0J-3000D01*
G01*
G37*
G36*
G01*
X5317580Y-3477560D02*
X5317580Y-3491560D01*
G75*
G02*
X5314580Y-3494560I-3000J0D01*
G01*
X5255580Y-3494560D01*
G75*
G02*
X5252580Y-3491560I0J3000D01*
G01*
X5252580Y-3477560D01*
G75*
G02*
X5255580Y-3474560I3000J0D01*
G01*
X5314580Y-3474560D01*
G75*
G02*
X5317580Y-3477560I0J-3000D01*
G01*
G37*
G36*
G01*
X5317580Y-3437560D02*
X5317580Y-3451560D01*
G75*
G02*
X5314580Y-3454560I-3000J0D01*
G01*
X5255580Y-3454560D01*
G75*
G02*
X5252580Y-3451560I0J3000D01*
G01*
X5252580Y-3437560D01*
G75*
G02*
X5255580Y-3434560I3000J0D01*
G01*
X5314580Y-3434560D01*
G75*
G02*
X5317580Y-3437560I0J-3000D01*
G01*
G37*
G36*
G01*
X5317580Y-3397560D02*
X5317580Y-3411560D01*
G75*
G02*
X5314580Y-3414560I-3000J0D01*
G01*
X5255580Y-3414560D01*
G75*
G02*
X5252580Y-3411560I0J3000D01*
G01*
X5252580Y-3397560D01*
G75*
G02*
X5255580Y-3394560I3000J0D01*
G01*
X5314580Y-3394560D01*
G75*
G02*
X5317580Y-3397560I0J-3000D01*
G01*
G37*
G36*
G01*
X5317580Y-3357560D02*
X5317580Y-3371560D01*
G75*
G02*
X5314580Y-3374560I-3000J0D01*
G01*
X5255580Y-3374560D01*
G75*
G02*
X5252580Y-3371560I0J3000D01*
G01*
X5252580Y-3357560D01*
G75*
G02*
X5255580Y-3354560I3000J0D01*
G01*
X5314580Y-3354560D01*
G75*
G02*
X5317580Y-3357560I0J-3000D01*
G01*
G37*
G36*
G01*
X5317580Y-3317560D02*
X5317580Y-3331560D01*
G75*
G02*
X5314580Y-3334560I-3000J0D01*
G01*
X5255580Y-3334560D01*
G75*
G02*
X5252580Y-3331560I0J3000D01*
G01*
X5252580Y-3317560D01*
G75*
G02*
X5255580Y-3314560I3000J0D01*
G01*
X5314580Y-3314560D01*
G75*
G02*
X5317580Y-3317560I0J-3000D01*
G01*
G37*
G36*
G01*
X5317580Y-3277560D02*
X5317580Y-3291560D01*
G75*
G02*
X5314580Y-3294560I-3000J0D01*
G01*
X5255580Y-3294560D01*
G75*
G02*
X5252580Y-3291560I0J3000D01*
G01*
X5252580Y-3277560D01*
G75*
G02*
X5255580Y-3274560I3000J0D01*
G01*
X5314580Y-3274560D01*
G75*
G02*
X5317580Y-3277560I0J-3000D01*
G01*
G37*
G36*
G01*
X5317580Y-3237560D02*
X5317580Y-3251560D01*
G75*
G02*
X5314580Y-3254560I-3000J0D01*
G01*
X5255580Y-3254560D01*
G75*
G02*
X5252580Y-3251560I0J3000D01*
G01*
X5252580Y-3237560D01*
G75*
G02*
X5255580Y-3234560I3000J0D01*
G01*
X5314580Y-3234560D01*
G75*
G02*
X5317580Y-3237560I0J-3000D01*
G01*
G37*
G36*
G01*
X5198080Y-3132060D02*
X5212080Y-3132060D01*
G75*
G02*
X5215080Y-3135060I0J-3000D01*
G01*
X5215080Y-3194060D01*
G75*
G02*
X5212080Y-3197060I-3000J0D01*
G01*
X5198080Y-3197060D01*
G75*
G02*
X5195080Y-3194060I0J3000D01*
G01*
X5195080Y-3135060D01*
G75*
G02*
X5198080Y-3132060I3000J0D01*
G01*
G37*
G36*
G01*
X5158080Y-3132060D02*
X5172080Y-3132060D01*
G75*
G02*
X5175080Y-3135060I0J-3000D01*
G01*
X5175080Y-3194060D01*
G75*
G02*
X5172080Y-3197060I-3000J0D01*
G01*
X5158080Y-3197060D01*
G75*
G02*
X5155080Y-3194060I0J3000D01*
G01*
X5155080Y-3135060D01*
G75*
G02*
X5158080Y-3132060I3000J0D01*
G01*
G37*
G36*
G01*
X5118080Y-3132060D02*
X5132080Y-3132060D01*
G75*
G02*
X5135080Y-3135060I0J-3000D01*
G01*
X5135080Y-3194060D01*
G75*
G02*
X5132080Y-3197060I-3000J0D01*
G01*
X5118080Y-3197060D01*
G75*
G02*
X5115080Y-3194060I0J3000D01*
G01*
X5115080Y-3135060D01*
G75*
G02*
X5118080Y-3132060I3000J0D01*
G01*
G37*
G36*
G01*
X5078080Y-3132060D02*
X5092080Y-3132060D01*
G75*
G02*
X5095080Y-3135060I0J-3000D01*
G01*
X5095080Y-3194060D01*
G75*
G02*
X5092080Y-3197060I-3000J0D01*
G01*
X5078080Y-3197060D01*
G75*
G02*
X5075080Y-3194060I0J3000D01*
G01*
X5075080Y-3135060D01*
G75*
G02*
X5078080Y-3132060I3000J0D01*
G01*
G37*
G36*
G01*
X5038080Y-3132060D02*
X5052080Y-3132060D01*
G75*
G02*
X5055080Y-3135060I0J-3000D01*
G01*
X5055080Y-3194060D01*
G75*
G02*
X5052080Y-3197060I-3000J0D01*
G01*
X5038080Y-3197060D01*
G75*
G02*
X5035080Y-3194060I0J3000D01*
G01*
X5035080Y-3135060D01*
G75*
G02*
X5038080Y-3132060I3000J0D01*
G01*
G37*
G36*
G01*
X4998080Y-3132060D02*
X5012080Y-3132060D01*
G75*
G02*
X5015080Y-3135060I0J-3000D01*
G01*
X5015080Y-3194060D01*
G75*
G02*
X5012080Y-3197060I-3000J0D01*
G01*
X4998080Y-3197060D01*
G75*
G02*
X4995080Y-3194060I0J3000D01*
G01*
X4995080Y-3135060D01*
G75*
G02*
X4998080Y-3132060I3000J0D01*
G01*
G37*
G36*
G01*
X4958080Y-3132060D02*
X4972080Y-3132060D01*
G75*
G02*
X4975080Y-3135060I0J-3000D01*
G01*
X4975080Y-3194060D01*
G75*
G02*
X4972080Y-3197060I-3000J0D01*
G01*
X4958080Y-3197060D01*
G75*
G02*
X4955080Y-3194060I0J3000D01*
G01*
X4955080Y-3135060D01*
G75*
G02*
X4958080Y-3132060I3000J0D01*
G01*
G37*
G36*
G01*
X4918080Y-3132060D02*
X4932080Y-3132060D01*
G75*
G02*
X4935080Y-3135060I0J-3000D01*
G01*
X4935080Y-3194060D01*
G75*
G02*
X4932080Y-3197060I-3000J0D01*
G01*
X4918080Y-3197060D01*
G75*
G02*
X4915080Y-3194060I0J3000D01*
G01*
X4915080Y-3135060D01*
G75*
G02*
X4918080Y-3132060I3000J0D01*
G01*
G37*
G36*
G01*
X4878080Y-3132060D02*
X4892080Y-3132060D01*
G75*
G02*
X4895080Y-3135060I0J-3000D01*
G01*
X4895080Y-3194060D01*
G75*
G02*
X4892080Y-3197060I-3000J0D01*
G01*
X4878080Y-3197060D01*
G75*
G02*
X4875080Y-3194060I0J3000D01*
G01*
X4875080Y-3135060D01*
G75*
G02*
X4878080Y-3132060I3000J0D01*
G01*
G37*
G36*
G01*
X4838080Y-3132060D02*
X4852080Y-3132060D01*
G75*
G02*
X4855080Y-3135060I0J-3000D01*
G01*
X4855080Y-3194060D01*
G75*
G02*
X4852080Y-3197060I-3000J0D01*
G01*
X4838080Y-3197060D01*
G75*
G02*
X4835080Y-3194060I0J3000D01*
G01*
X4835080Y-3135060D01*
G75*
G02*
X4838080Y-3132060I3000J0D01*
G01*
G37*
G36*
G01*
X4798080Y-3132060D02*
X4812080Y-3132060D01*
G75*
G02*
X4815080Y-3135060I0J-3000D01*
G01*
X4815080Y-3194060D01*
G75*
G02*
X4812080Y-3197060I-3000J0D01*
G01*
X4798080Y-3197060D01*
G75*
G02*
X4795080Y-3194060I0J3000D01*
G01*
X4795080Y-3135060D01*
G75*
G02*
X4798080Y-3132060I3000J0D01*
G01*
G37*
G36*
G01*
X4758080Y-3132060D02*
X4772080Y-3132060D01*
G75*
G02*
X4775080Y-3135060I0J-3000D01*
G01*
X4775080Y-3194060D01*
G75*
G02*
X4772080Y-3197060I-3000J0D01*
G01*
X4758080Y-3197060D01*
G75*
G02*
X4755080Y-3194060I0J3000D01*
G01*
X4755080Y-3135060D01*
G75*
G02*
X4758080Y-3132060I3000J0D01*
G01*
G37*
G36*
G01*
X4652580Y-3251560D02*
X4652580Y-3237560D01*
G75*
G02*
X4655580Y-3234560I3000J0D01*
G01*
X4714580Y-3234560D01*
G75*
G02*
X4717580Y-3237560I0J-3000D01*
G01*
X4717580Y-3251560D01*
G75*
G02*
X4714580Y-3254560I-3000J0D01*
G01*
X4655580Y-3254560D01*
G75*
G02*
X4652580Y-3251560I0J3000D01*
G01*
G37*
G36*
G01*
X4652580Y-3291560D02*
X4652580Y-3277560D01*
G75*
G02*
X4655580Y-3274560I3000J0D01*
G01*
X4714580Y-3274560D01*
G75*
G02*
X4717580Y-3277560I0J-3000D01*
G01*
X4717580Y-3291560D01*
G75*
G02*
X4714580Y-3294560I-3000J0D01*
G01*
X4655580Y-3294560D01*
G75*
G02*
X4652580Y-3291560I0J3000D01*
G01*
G37*
G36*
G01*
X4652580Y-3331560D02*
X4652580Y-3317560D01*
G75*
G02*
X4655580Y-3314560I3000J0D01*
G01*
X4714580Y-3314560D01*
G75*
G02*
X4717580Y-3317560I0J-3000D01*
G01*
X4717580Y-3331560D01*
G75*
G02*
X4714580Y-3334560I-3000J0D01*
G01*
X4655580Y-3334560D01*
G75*
G02*
X4652580Y-3331560I0J3000D01*
G01*
G37*
G36*
G01*
X4652580Y-3371560D02*
X4652580Y-3357560D01*
G75*
G02*
X4655580Y-3354560I3000J0D01*
G01*
X4714580Y-3354560D01*
G75*
G02*
X4717580Y-3357560I0J-3000D01*
G01*
X4717580Y-3371560D01*
G75*
G02*
X4714580Y-3374560I-3000J0D01*
G01*
X4655580Y-3374560D01*
G75*
G02*
X4652580Y-3371560I0J3000D01*
G01*
G37*
G36*
G01*
X4652580Y-3411560D02*
X4652580Y-3397560D01*
G75*
G02*
X4655580Y-3394560I3000J0D01*
G01*
X4714580Y-3394560D01*
G75*
G02*
X4717580Y-3397560I0J-3000D01*
G01*
X4717580Y-3411560D01*
G75*
G02*
X4714580Y-3414560I-3000J0D01*
G01*
X4655580Y-3414560D01*
G75*
G02*
X4652580Y-3411560I0J3000D01*
G01*
G37*
G36*
G01*
X4652580Y-3451560D02*
X4652580Y-3437560D01*
G75*
G02*
X4655580Y-3434560I3000J0D01*
G01*
X4714580Y-3434560D01*
G75*
G02*
X4717580Y-3437560I0J-3000D01*
G01*
X4717580Y-3451560D01*
G75*
G02*
X4714580Y-3454560I-3000J0D01*
G01*
X4655580Y-3454560D01*
G75*
G02*
X4652580Y-3451560I0J3000D01*
G01*
G37*
G36*
G01*
X4652580Y-3491560D02*
X4652580Y-3477560D01*
G75*
G02*
X4655580Y-3474560I3000J0D01*
G01*
X4714580Y-3474560D01*
G75*
G02*
X4717580Y-3477560I0J-3000D01*
G01*
X4717580Y-3491560D01*
G75*
G02*
X4714580Y-3494560I-3000J0D01*
G01*
X4655580Y-3494560D01*
G75*
G02*
X4652580Y-3491560I0J3000D01*
G01*
G37*
G36*
G01*
X4652580Y-3531560D02*
X4652580Y-3517560D01*
G75*
G02*
X4655580Y-3514560I3000J0D01*
G01*
X4714580Y-3514560D01*
G75*
G02*
X4717580Y-3517560I0J-3000D01*
G01*
X4717580Y-3531560D01*
G75*
G02*
X4714580Y-3534560I-3000J0D01*
G01*
X4655580Y-3534560D01*
G75*
G02*
X4652580Y-3531560I0J3000D01*
G01*
G37*
G36*
G01*
X4652580Y-3571560D02*
X4652580Y-3557560D01*
G75*
G02*
X4655580Y-3554560I3000J0D01*
G01*
X4714580Y-3554560D01*
G75*
G02*
X4717580Y-3557560I0J-3000D01*
G01*
X4717580Y-3571560D01*
G75*
G02*
X4714580Y-3574560I-3000J0D01*
G01*
X4655580Y-3574560D01*
G75*
G02*
X4652580Y-3571560I0J3000D01*
G01*
G37*
G36*
G01*
X4652580Y-3611560D02*
X4652580Y-3597560D01*
G75*
G02*
X4655580Y-3594560I3000J0D01*
G01*
X4714580Y-3594560D01*
G75*
G02*
X4717580Y-3597560I0J-3000D01*
G01*
X4717580Y-3611560D01*
G75*
G02*
X4714580Y-3614560I-3000J0D01*
G01*
X4655580Y-3614560D01*
G75*
G02*
X4652580Y-3611560I0J3000D01*
G01*
G37*
G36*
G01*
X4652580Y-3651560D02*
X4652580Y-3637560D01*
G75*
G02*
X4655580Y-3634560I3000J0D01*
G01*
X4714580Y-3634560D01*
G75*
G02*
X4717580Y-3637560I0J-3000D01*
G01*
X4717580Y-3651560D01*
G75*
G02*
X4714580Y-3654560I-3000J0D01*
G01*
X4655580Y-3654560D01*
G75*
G02*
X4652580Y-3651560I0J3000D01*
G01*
G37*
G36*
G01*
X4652580Y-3691560D02*
X4652580Y-3677560D01*
G75*
G02*
X4655580Y-3674560I3000J0D01*
G01*
X4714580Y-3674560D01*
G75*
G02*
X4717580Y-3677560I0J-3000D01*
G01*
X4717580Y-3691560D01*
G75*
G02*
X4714580Y-3694560I-3000J0D01*
G01*
X4655580Y-3694560D01*
G75*
G02*
X4652580Y-3691560I0J3000D01*
G01*
G37*
G36*
G01*
X4772080Y-3797060D02*
X4758080Y-3797060D01*
G75*
G02*
X4755080Y-3794060I0J3000D01*
G01*
X4755080Y-3735060D01*
G75*
G02*
X4758080Y-3732060I3000J0D01*
G01*
X4772080Y-3732060D01*
G75*
G02*
X4775080Y-3735060I0J-3000D01*
G01*
X4775080Y-3794060D01*
G75*
G02*
X4772080Y-3797060I-3000J0D01*
G01*
G37*
G36*
G01*
X4812080Y-3797060D02*
X4798080Y-3797060D01*
G75*
G02*
X4795080Y-3794060I0J3000D01*
G01*
X4795080Y-3735060D01*
G75*
G02*
X4798080Y-3732060I3000J0D01*
G01*
X4812080Y-3732060D01*
G75*
G02*
X4815080Y-3735060I0J-3000D01*
G01*
X4815080Y-3794060D01*
G75*
G02*
X4812080Y-3797060I-3000J0D01*
G01*
G37*
G36*
G01*
X4852080Y-3797060D02*
X4838080Y-3797060D01*
G75*
G02*
X4835080Y-3794060I0J3000D01*
G01*
X4835080Y-3735060D01*
G75*
G02*
X4838080Y-3732060I3000J0D01*
G01*
X4852080Y-3732060D01*
G75*
G02*
X4855080Y-3735060I0J-3000D01*
G01*
X4855080Y-3794060D01*
G75*
G02*
X4852080Y-3797060I-3000J0D01*
G01*
G37*
G36*
G01*
X4892080Y-3797060D02*
X4878080Y-3797060D01*
G75*
G02*
X4875080Y-3794060I0J3000D01*
G01*
X4875080Y-3735060D01*
G75*
G02*
X4878080Y-3732060I3000J0D01*
G01*
X4892080Y-3732060D01*
G75*
G02*
X4895080Y-3735060I0J-3000D01*
G01*
X4895080Y-3794060D01*
G75*
G02*
X4892080Y-3797060I-3000J0D01*
G01*
G37*
G36*
G01*
X4932080Y-3797060D02*
X4918080Y-3797060D01*
G75*
G02*
X4915080Y-3794060I0J3000D01*
G01*
X4915080Y-3735060D01*
G75*
G02*
X4918080Y-3732060I3000J0D01*
G01*
X4932080Y-3732060D01*
G75*
G02*
X4935080Y-3735060I0J-3000D01*
G01*
X4935080Y-3794060D01*
G75*
G02*
X4932080Y-3797060I-3000J0D01*
G01*
G37*
G36*
G01*
X4972080Y-3797060D02*
X4958080Y-3797060D01*
G75*
G02*
X4955080Y-3794060I0J3000D01*
G01*
X4955080Y-3735060D01*
G75*
G02*
X4958080Y-3732060I3000J0D01*
G01*
X4972080Y-3732060D01*
G75*
G02*
X4975080Y-3735060I0J-3000D01*
G01*
X4975080Y-3794060D01*
G75*
G02*
X4972080Y-3797060I-3000J0D01*
G01*
G37*
G36*
G01*
X5012080Y-3797060D02*
X4998080Y-3797060D01*
G75*
G02*
X4995080Y-3794060I0J3000D01*
G01*
X4995080Y-3735060D01*
G75*
G02*
X4998080Y-3732060I3000J0D01*
G01*
X5012080Y-3732060D01*
G75*
G02*
X5015080Y-3735060I0J-3000D01*
G01*
X5015080Y-3794060D01*
G75*
G02*
X5012080Y-3797060I-3000J0D01*
G01*
G37*
G36*
G01*
X5052080Y-3797060D02*
X5038080Y-3797060D01*
G75*
G02*
X5035080Y-3794060I0J3000D01*
G01*
X5035080Y-3735060D01*
G75*
G02*
X5038080Y-3732060I3000J0D01*
G01*
X5052080Y-3732060D01*
G75*
G02*
X5055080Y-3735060I0J-3000D01*
G01*
X5055080Y-3794060D01*
G75*
G02*
X5052080Y-3797060I-3000J0D01*
G01*
G37*
G36*
G01*
X5092080Y-3797060D02*
X5078080Y-3797060D01*
G75*
G02*
X5075080Y-3794060I0J3000D01*
G01*
X5075080Y-3735060D01*
G75*
G02*
X5078080Y-3732060I3000J0D01*
G01*
X5092080Y-3732060D01*
G75*
G02*
X5095080Y-3735060I0J-3000D01*
G01*
X5095080Y-3794060D01*
G75*
G02*
X5092080Y-3797060I-3000J0D01*
G01*
G37*
G36*
G01*
X5132080Y-3797060D02*
X5118080Y-3797060D01*
G75*
G02*
X5115080Y-3794060I0J3000D01*
G01*
X5115080Y-3735060D01*
G75*
G02*
X5118080Y-3732060I3000J0D01*
G01*
X5132080Y-3732060D01*
G75*
G02*
X5135080Y-3735060I0J-3000D01*
G01*
X5135080Y-3794060D01*
G75*
G02*
X5132080Y-3797060I-3000J0D01*
G01*
G37*
G36*
G01*
X5172080Y-3797060D02*
X5158080Y-3797060D01*
G75*
G02*
X5155080Y-3794060I0J3000D01*
G01*
X5155080Y-3735060D01*
G75*
G02*
X5158080Y-3732060I3000J0D01*
G01*
X5172080Y-3732060D01*
G75*
G02*
X5175080Y-3735060I0J-3000D01*
G01*
X5175080Y-3794060D01*
G75*
G02*
X5172080Y-3797060I-3000J0D01*
G01*
G37*
G36*
G01*
X5212080Y-3797060D02*
X5198080Y-3797060D01*
G75*
G02*
X5195080Y-3794060I0J3000D01*
G01*
X5195080Y-3735060D01*
G75*
G02*
X5198080Y-3732060I3000J0D01*
G01*
X5212080Y-3732060D01*
G75*
G02*
X5215080Y-3735060I0J-3000D01*
G01*
X5215080Y-3794060D01*
G75*
G02*
X5212080Y-3797060I-3000J0D01*
G01*
G37*
D15*
X4985080Y-3464560D03*
D16*
X3359080Y-3184360D03*
D17*
X3409080Y-3184360D03*
D16*
X3509080Y-3184360D03*
D17*
X3459080Y-3184360D03*
D16*
X3359080Y-3084360D03*
D17*
X3459080Y-3084360D03*
X3409080Y-3084360D03*
D16*
X3509080Y-3084360D03*
G36*
G01*
X4492480Y-3244160D02*
X4458480Y-3244160D01*
G75*
G02*
X4444480Y-3230160I0J14000D01*
G01*
X4444480Y-3202160D01*
G75*
G02*
X4458480Y-3188160I14000J0D01*
G01*
X4492480Y-3188160D01*
G75*
G02*
X4506480Y-3202160I0J-14000D01*
G01*
X4506480Y-3230160D01*
G75*
G02*
X4492480Y-3244160I-14000J0D01*
G01*
G37*
G36*
G01*
X4492480Y-3340160D02*
X4458480Y-3340160D01*
G75*
G02*
X4444480Y-3326160I0J14000D01*
G01*
X4444480Y-3298160D01*
G75*
G02*
X4458480Y-3284160I14000J0D01*
G01*
X4492480Y-3284160D01*
G75*
G02*
X4506480Y-3298160I0J-14000D01*
G01*
X4506480Y-3326160D01*
G75*
G02*
X4492480Y-3340160I-14000J0D01*
G01*
G37*
G36*
G01*
X3223580Y-3714260D02*
X3223580Y-3748260D01*
G75*
G02*
X3209580Y-3762260I-14000J0D01*
G01*
X3181580Y-3762260D01*
G75*
G02*
X3167580Y-3748260I0J14000D01*
G01*
X3167580Y-3714260D01*
G75*
G02*
X3181580Y-3700260I14000J0D01*
G01*
X3209580Y-3700260D01*
G75*
G02*
X3223580Y-3714260I0J-14000D01*
G01*
G37*
G36*
G01*
X3319580Y-3714260D02*
X3319580Y-3748260D01*
G75*
G02*
X3305580Y-3762260I-14000J0D01*
G01*
X3277580Y-3762260D01*
G75*
G02*
X3263580Y-3748260I0J14000D01*
G01*
X3263580Y-3714260D01*
G75*
G02*
X3277580Y-3700260I14000J0D01*
G01*
X3305580Y-3700260D01*
G75*
G02*
X3319580Y-3714260I0J-14000D01*
G01*
G37*
G36*
G01*
X6830380Y-3303060D02*
X6830380Y-3337060D01*
G75*
G02*
X6816380Y-3351060I-14000J0D01*
G01*
X6788380Y-3351060D01*
G75*
G02*
X6774380Y-3337060I0J14000D01*
G01*
X6774380Y-3303060D01*
G75*
G02*
X6788380Y-3289060I14000J0D01*
G01*
X6816380Y-3289060D01*
G75*
G02*
X6830380Y-3303060I0J-14000D01*
G01*
G37*
G36*
G01*
X6926380Y-3303060D02*
X6926380Y-3337060D01*
G75*
G02*
X6912380Y-3351060I-14000J0D01*
G01*
X6884380Y-3351060D01*
G75*
G02*
X6870380Y-3337060I0J14000D01*
G01*
X6870380Y-3303060D01*
G75*
G02*
X6884380Y-3289060I14000J0D01*
G01*
X6912380Y-3289060D01*
G75*
G02*
X6926380Y-3303060I0J-14000D01*
G01*
G37*
G36*
G01*
X6055680Y-3663460D02*
X6055680Y-3697460D01*
G75*
G02*
X6041680Y-3711460I-14000J0D01*
G01*
X6013680Y-3711460D01*
G75*
G02*
X5999680Y-3697460I0J14000D01*
G01*
X5999680Y-3663460D01*
G75*
G02*
X6013680Y-3649460I14000J0D01*
G01*
X6041680Y-3649460D01*
G75*
G02*
X6055680Y-3663460I0J-14000D01*
G01*
G37*
G36*
G01*
X6151680Y-3663460D02*
X6151680Y-3697460D01*
G75*
G02*
X6137680Y-3711460I-14000J0D01*
G01*
X6109680Y-3711460D01*
G75*
G02*
X6095680Y-3697460I0J14000D01*
G01*
X6095680Y-3663460D01*
G75*
G02*
X6109680Y-3649460I14000J0D01*
G01*
X6137680Y-3649460D01*
G75*
G02*
X6151680Y-3663460I0J-14000D01*
G01*
G37*
G36*
G01*
X6245080Y-3609660D02*
X6211080Y-3609660D01*
G75*
G02*
X6197080Y-3595660I0J14000D01*
G01*
X6197080Y-3567660D01*
G75*
G02*
X6211080Y-3553660I14000J0D01*
G01*
X6245080Y-3553660D01*
G75*
G02*
X6259080Y-3567660I0J-14000D01*
G01*
X6259080Y-3595660D01*
G75*
G02*
X6245080Y-3609660I-14000J0D01*
G01*
G37*
G36*
G01*
X6245080Y-3705660D02*
X6211080Y-3705660D01*
G75*
G02*
X6197080Y-3691660I0J14000D01*
G01*
X6197080Y-3663660D01*
G75*
G02*
X6211080Y-3649660I14000J0D01*
G01*
X6245080Y-3649660D01*
G75*
G02*
X6259080Y-3663660I0J-14000D01*
G01*
X6259080Y-3691660D01*
G75*
G02*
X6245080Y-3705660I-14000J0D01*
G01*
G37*
G36*
G01*
X5865180Y-3739660D02*
X5865180Y-3773660D01*
G75*
G02*
X5851180Y-3787660I-14000J0D01*
G01*
X5823180Y-3787660D01*
G75*
G02*
X5809180Y-3773660I0J14000D01*
G01*
X5809180Y-3739660D01*
G75*
G02*
X5823180Y-3725660I14000J0D01*
G01*
X5851180Y-3725660D01*
G75*
G02*
X5865180Y-3739660I0J-14000D01*
G01*
G37*
G36*
G01*
X5961180Y-3739660D02*
X5961180Y-3773660D01*
G75*
G02*
X5947180Y-3787660I-14000J0D01*
G01*
X5919180Y-3787660D01*
G75*
G02*
X5905180Y-3773660I0J14000D01*
G01*
X5905180Y-3739660D01*
G75*
G02*
X5919180Y-3725660I14000J0D01*
G01*
X5947180Y-3725660D01*
G75*
G02*
X5961180Y-3739660I0J-14000D01*
G01*
G37*
G36*
G01*
X5673580Y-3723960D02*
X5639580Y-3723960D01*
G75*
G02*
X5625580Y-3709960I0J14000D01*
G01*
X5625580Y-3681960D01*
G75*
G02*
X5639580Y-3667960I14000J0D01*
G01*
X5673580Y-3667960D01*
G75*
G02*
X5687580Y-3681960I0J-14000D01*
G01*
X5687580Y-3709960D01*
G75*
G02*
X5673580Y-3723960I-14000J0D01*
G01*
G37*
G36*
G01*
X5673580Y-3819960D02*
X5639580Y-3819960D01*
G75*
G02*
X5625580Y-3805960I0J14000D01*
G01*
X5625580Y-3777960D01*
G75*
G02*
X5639580Y-3763960I14000J0D01*
G01*
X5673580Y-3763960D01*
G75*
G02*
X5687580Y-3777960I0J-14000D01*
G01*
X5687580Y-3805960D01*
G75*
G02*
X5673580Y-3819960I-14000J0D01*
G01*
G37*
G36*
G01*
X5639580Y-3954460D02*
X5673580Y-3954460D01*
G75*
G02*
X5687580Y-3968460I0J-14000D01*
G01*
X5687580Y-3996460D01*
G75*
G02*
X5673580Y-4010460I-14000J0D01*
G01*
X5639580Y-4010460D01*
G75*
G02*
X5625580Y-3996460I0J14000D01*
G01*
X5625580Y-3968460D01*
G75*
G02*
X5639580Y-3954460I14000J0D01*
G01*
G37*
G36*
G01*
X5639580Y-3858460D02*
X5673580Y-3858460D01*
G75*
G02*
X5687580Y-3872460I0J-14000D01*
G01*
X5687580Y-3900460D01*
G75*
G02*
X5673580Y-3914460I-14000J0D01*
G01*
X5639580Y-3914460D01*
G75*
G02*
X5625580Y-3900460I0J14000D01*
G01*
X5625580Y-3872460D01*
G75*
G02*
X5639580Y-3858460I14000J0D01*
G01*
G37*
G36*
G01*
X5055380Y-3979860D02*
X5089380Y-3979860D01*
G75*
G02*
X5103380Y-3993860I0J-14000D01*
G01*
X5103380Y-4021860D01*
G75*
G02*
X5089380Y-4035860I-14000J0D01*
G01*
X5055380Y-4035860D01*
G75*
G02*
X5041380Y-4021860I0J14000D01*
G01*
X5041380Y-3993860D01*
G75*
G02*
X5055380Y-3979860I14000J0D01*
G01*
G37*
G36*
G01*
X5055380Y-3883860D02*
X5089380Y-3883860D01*
G75*
G02*
X5103380Y-3897860I0J-14000D01*
G01*
X5103380Y-3925860D01*
G75*
G02*
X5089380Y-3939860I-14000J0D01*
G01*
X5055380Y-3939860D01*
G75*
G02*
X5041380Y-3925860I0J14000D01*
G01*
X5041380Y-3897860D01*
G75*
G02*
X5055380Y-3883860I14000J0D01*
G01*
G37*
G36*
G01*
X5156980Y-3979860D02*
X5190980Y-3979860D01*
G75*
G02*
X5204980Y-3993860I0J-14000D01*
G01*
X5204980Y-4021860D01*
G75*
G02*
X5190980Y-4035860I-14000J0D01*
G01*
X5156980Y-4035860D01*
G75*
G02*
X5142980Y-4021860I0J14000D01*
G01*
X5142980Y-3993860D01*
G75*
G02*
X5156980Y-3979860I14000J0D01*
G01*
G37*
G36*
G01*
X5156980Y-3883860D02*
X5190980Y-3883860D01*
G75*
G02*
X5204980Y-3897860I0J-14000D01*
G01*
X5204980Y-3925860D01*
G75*
G02*
X5190980Y-3939860I-14000J0D01*
G01*
X5156980Y-3939860D01*
G75*
G02*
X5142980Y-3925860I0J14000D01*
G01*
X5142980Y-3897860D01*
G75*
G02*
X5156980Y-3883860I14000J0D01*
G01*
G37*
G36*
G01*
X4661680Y-3878260D02*
X4695680Y-3878260D01*
G75*
G02*
X4709680Y-3892260I0J-14000D01*
G01*
X4709680Y-3920260D01*
G75*
G02*
X4695680Y-3934260I-14000J0D01*
G01*
X4661680Y-3934260D01*
G75*
G02*
X4647680Y-3920260I0J14000D01*
G01*
X4647680Y-3892260D01*
G75*
G02*
X4661680Y-3878260I14000J0D01*
G01*
G37*
G36*
G01*
X4661680Y-3782260D02*
X4695680Y-3782260D01*
G75*
G02*
X4709680Y-3796260I0J-14000D01*
G01*
X4709680Y-3824260D01*
G75*
G02*
X4695680Y-3838260I-14000J0D01*
G01*
X4661680Y-3838260D01*
G75*
G02*
X4647680Y-3824260I0J14000D01*
G01*
X4647680Y-3796260D01*
G75*
G02*
X4661680Y-3782260I14000J0D01*
G01*
G37*
G36*
G01*
X4267780Y-3612660D02*
X4267780Y-3646660D01*
G75*
G02*
X4253780Y-3660660I-14000J0D01*
G01*
X4225780Y-3660660D01*
G75*
G02*
X4211780Y-3646660I0J14000D01*
G01*
X4211780Y-3612660D01*
G75*
G02*
X4225780Y-3598660I14000J0D01*
G01*
X4253780Y-3598660D01*
G75*
G02*
X4267780Y-3612660I0J-14000D01*
G01*
G37*
G36*
G01*
X4363780Y-3612660D02*
X4363780Y-3646660D01*
G75*
G02*
X4349780Y-3660660I-14000J0D01*
G01*
X4321780Y-3660660D01*
G75*
G02*
X4307780Y-3646660I0J14000D01*
G01*
X4307780Y-3612660D01*
G75*
G02*
X4321780Y-3598660I14000J0D01*
G01*
X4349780Y-3598660D01*
G75*
G02*
X4363780Y-3612660I0J-14000D01*
G01*
G37*
G36*
G01*
X4267780Y-3511060D02*
X4267780Y-3545060D01*
G75*
G02*
X4253780Y-3559060I-14000J0D01*
G01*
X4225780Y-3559060D01*
G75*
G02*
X4211780Y-3545060I0J14000D01*
G01*
X4211780Y-3511060D01*
G75*
G02*
X4225780Y-3497060I14000J0D01*
G01*
X4253780Y-3497060D01*
G75*
G02*
X4267780Y-3511060I0J-14000D01*
G01*
G37*
G36*
G01*
X4363780Y-3511060D02*
X4363780Y-3545060D01*
G75*
G02*
X4349780Y-3559060I-14000J0D01*
G01*
X4321780Y-3559060D01*
G75*
G02*
X4307780Y-3545060I0J14000D01*
G01*
X4307780Y-3511060D01*
G75*
G02*
X4321780Y-3497060I14000J0D01*
G01*
X4349780Y-3497060D01*
G75*
G02*
X4363780Y-3511060I0J-14000D01*
G01*
G37*
G36*
G01*
X5356080Y-3076260D02*
X5322080Y-3076260D01*
G75*
G02*
X5308080Y-3062260I0J14000D01*
G01*
X5308080Y-3034260D01*
G75*
G02*
X5322080Y-3020260I14000J0D01*
G01*
X5356080Y-3020260D01*
G75*
G02*
X5370080Y-3034260I0J-14000D01*
G01*
X5370080Y-3062260D01*
G75*
G02*
X5356080Y-3076260I-14000J0D01*
G01*
G37*
G36*
G01*
X5356080Y-3172260D02*
X5322080Y-3172260D01*
G75*
G02*
X5308080Y-3158260I0J14000D01*
G01*
X5308080Y-3130260D01*
G75*
G02*
X5322080Y-3116260I14000J0D01*
G01*
X5356080Y-3116260D01*
G75*
G02*
X5370080Y-3130260I0J-14000D01*
G01*
X5370080Y-3158260D01*
G75*
G02*
X5356080Y-3172260I-14000J0D01*
G01*
G37*
G36*
G01*
X5292580Y-3911660D02*
X5258580Y-3911660D01*
G75*
G02*
X5244580Y-3897660I0J14000D01*
G01*
X5244580Y-3869660D01*
G75*
G02*
X5258580Y-3855660I14000J0D01*
G01*
X5292580Y-3855660D01*
G75*
G02*
X5306580Y-3869660I0J-14000D01*
G01*
X5306580Y-3897660D01*
G75*
G02*
X5292580Y-3911660I-14000J0D01*
G01*
G37*
G36*
G01*
X5292580Y-4007660D02*
X5258580Y-4007660D01*
G75*
G02*
X5244580Y-3993660I0J14000D01*
G01*
X5244580Y-3965660D01*
G75*
G02*
X5258580Y-3951660I14000J0D01*
G01*
X5292580Y-3951660D01*
G75*
G02*
X5306580Y-3965660I0J-14000D01*
G01*
X5306580Y-3993660D01*
G75*
G02*
X5292580Y-4007660I-14000J0D01*
G01*
G37*
G36*
G01*
X4454580Y-3430760D02*
X4454580Y-3396760D01*
G75*
G02*
X4468580Y-3382760I14000J0D01*
G01*
X4496580Y-3382760D01*
G75*
G02*
X4510580Y-3396760I0J-14000D01*
G01*
X4510580Y-3430760D01*
G75*
G02*
X4496580Y-3444760I-14000J0D01*
G01*
X4468580Y-3444760D01*
G75*
G02*
X4454580Y-3430760I0J14000D01*
G01*
G37*
G36*
G01*
X4358580Y-3430760D02*
X4358580Y-3396760D01*
G75*
G02*
X4372580Y-3382760I14000J0D01*
G01*
X4400580Y-3382760D01*
G75*
G02*
X4414580Y-3396760I0J-14000D01*
G01*
X4414580Y-3430760D01*
G75*
G02*
X4400580Y-3444760I-14000J0D01*
G01*
X4372580Y-3444760D01*
G75*
G02*
X4358580Y-3430760I0J14000D01*
G01*
G37*
G36*
G01*
X4439980Y-4031760D02*
X4439980Y-4065760D01*
G75*
G02*
X4425980Y-4079760I-14000J0D01*
G01*
X4397980Y-4079760D01*
G75*
G02*
X4383980Y-4065760I0J14000D01*
G01*
X4383980Y-4031760D01*
G75*
G02*
X4397980Y-4017760I14000J0D01*
G01*
X4425980Y-4017760D01*
G75*
G02*
X4439980Y-4031760I0J-14000D01*
G01*
G37*
G36*
G01*
X4535980Y-4031760D02*
X4535980Y-4065760D01*
G75*
G02*
X4521980Y-4079760I-14000J0D01*
G01*
X4493980Y-4079760D01*
G75*
G02*
X4479980Y-4065760I0J14000D01*
G01*
X4479980Y-4031760D01*
G75*
G02*
X4493980Y-4017760I14000J0D01*
G01*
X4521980Y-4017760D01*
G75*
G02*
X4535980Y-4031760I0J-14000D01*
G01*
G37*
G36*
G01*
X4293380Y-3906460D02*
X4327380Y-3906460D01*
G75*
G02*
X4341380Y-3920460I0J-14000D01*
G01*
X4341380Y-3948460D01*
G75*
G02*
X4327380Y-3962460I-14000J0D01*
G01*
X4293380Y-3962460D01*
G75*
G02*
X4279380Y-3948460I0J14000D01*
G01*
X4279380Y-3920460D01*
G75*
G02*
X4293380Y-3906460I14000J0D01*
G01*
G37*
G36*
G01*
X4293380Y-3810460D02*
X4327380Y-3810460D01*
G75*
G02*
X4341380Y-3824460I0J-14000D01*
G01*
X4341380Y-3852460D01*
G75*
G02*
X4327380Y-3866460I-14000J0D01*
G01*
X4293380Y-3866460D01*
G75*
G02*
X4279380Y-3852460I0J14000D01*
G01*
X4279380Y-3824460D01*
G75*
G02*
X4293380Y-3810460I14000J0D01*
G01*
G37*
D18*
X6264580Y-3921760D03*
X6064580Y-4016760D03*
X6064580Y-3826760D03*
D19*
X6562580Y-3965960D03*
X6562580Y-3775960D03*
X6782580Y-3775960D03*
X6782580Y-3870960D03*
X6782580Y-3965960D03*
G36*
G01*
X6908080Y-3488560D02*
X6945080Y-3488560D01*
G75*
G02*
X6958580Y-3502060I0J-13500D01*
G01*
X6958580Y-3529060D01*
G75*
G02*
X6945080Y-3542560I-13500J0D01*
G01*
X6908080Y-3542560D01*
G75*
G02*
X6894580Y-3529060I0J13500D01*
G01*
X6894580Y-3502060D01*
G75*
G02*
X6908080Y-3488560I13500J0D01*
G01*
G37*
G36*
G01*
X6908080Y-3386560D02*
X6945080Y-3386560D01*
G75*
G02*
X6958580Y-3400060I0J-13500D01*
G01*
X6958580Y-3427060D01*
G75*
G02*
X6945080Y-3440560I-13500J0D01*
G01*
X6908080Y-3440560D01*
G75*
G02*
X6894580Y-3427060I0J13500D01*
G01*
X6894580Y-3400060D01*
G75*
G02*
X6908080Y-3386560I13500J0D01*
G01*
G37*
G36*
G01*
X6463580Y-3564760D02*
X6500580Y-3564760D01*
G75*
G02*
X6514080Y-3578260I0J-13500D01*
G01*
X6514080Y-3605260D01*
G75*
G02*
X6500580Y-3618760I-13500J0D01*
G01*
X6463580Y-3618760D01*
G75*
G02*
X6450080Y-3605260I0J13500D01*
G01*
X6450080Y-3578260D01*
G75*
G02*
X6463580Y-3564760I13500J0D01*
G01*
G37*
G36*
G01*
X6463580Y-3462760D02*
X6500580Y-3462760D01*
G75*
G02*
X6514080Y-3476260I0J-13500D01*
G01*
X6514080Y-3503260D01*
G75*
G02*
X6500580Y-3516760I-13500J0D01*
G01*
X6463580Y-3516760D01*
G75*
G02*
X6450080Y-3503260I0J13500D01*
G01*
X6450080Y-3476260D01*
G75*
G02*
X6463580Y-3462760I13500J0D01*
G01*
G37*
G36*
G01*
X6826380Y-3195960D02*
X6826380Y-3232960D01*
G75*
G02*
X6812880Y-3246460I-13500J0D01*
G01*
X6785880Y-3246460D01*
G75*
G02*
X6772380Y-3232960I0J13500D01*
G01*
X6772380Y-3195960D01*
G75*
G02*
X6785880Y-3182460I13500J0D01*
G01*
X6812880Y-3182460D01*
G75*
G02*
X6826380Y-3195960I0J-13500D01*
G01*
G37*
G36*
G01*
X6928380Y-3195960D02*
X6928380Y-3232960D01*
G75*
G02*
X6914880Y-3246460I-13500J0D01*
G01*
X6887880Y-3246460D01*
G75*
G02*
X6874380Y-3232960I0J13500D01*
G01*
X6874380Y-3195960D01*
G75*
G02*
X6887880Y-3182460I13500J0D01*
G01*
X6914880Y-3182460D01*
G75*
G02*
X6928380Y-3195960I0J-13500D01*
G01*
G37*
G36*
G01*
X5861180Y-3941360D02*
X5861180Y-3978360D01*
G75*
G02*
X5847680Y-3991860I-13500J0D01*
G01*
X5820680Y-3991860D01*
G75*
G02*
X5807180Y-3978360I0J13500D01*
G01*
X5807180Y-3941360D01*
G75*
G02*
X5820680Y-3927860I13500J0D01*
G01*
X5847680Y-3927860D01*
G75*
G02*
X5861180Y-3941360I0J-13500D01*
G01*
G37*
G36*
G01*
X5963180Y-3941360D02*
X5963180Y-3978360D01*
G75*
G02*
X5949680Y-3991860I-13500J0D01*
G01*
X5922680Y-3991860D01*
G75*
G02*
X5909180Y-3978360I0J13500D01*
G01*
X5909180Y-3941360D01*
G75*
G02*
X5922680Y-3927860I13500J0D01*
G01*
X5949680Y-3927860D01*
G75*
G02*
X5963180Y-3941360I0J-13500D01*
G01*
G37*
G36*
G01*
X6374680Y-3844160D02*
X6411680Y-3844160D01*
G75*
G02*
X6425180Y-3857660I0J-13500D01*
G01*
X6425180Y-3884660D01*
G75*
G02*
X6411680Y-3898160I-13500J0D01*
G01*
X6374680Y-3898160D01*
G75*
G02*
X6361180Y-3884660I0J13500D01*
G01*
X6361180Y-3857660D01*
G75*
G02*
X6374680Y-3844160I13500J0D01*
G01*
G37*
G36*
G01*
X6374680Y-3742160D02*
X6411680Y-3742160D01*
G75*
G02*
X6425180Y-3755660I0J-13500D01*
G01*
X6425180Y-3782660D01*
G75*
G02*
X6411680Y-3796160I-13500J0D01*
G01*
X6374680Y-3796160D01*
G75*
G02*
X6361180Y-3782660I0J13500D01*
G01*
X6361180Y-3755660D01*
G75*
G02*
X6374680Y-3742160I13500J0D01*
G01*
G37*
G36*
G01*
X6826380Y-3094360D02*
X6826380Y-3131360D01*
G75*
G02*
X6812880Y-3144860I-13500J0D01*
G01*
X6785880Y-3144860D01*
G75*
G02*
X6772380Y-3131360I0J13500D01*
G01*
X6772380Y-3094360D01*
G75*
G02*
X6785880Y-3080860I13500J0D01*
G01*
X6812880Y-3080860D01*
G75*
G02*
X6826380Y-3094360I0J-13500D01*
G01*
G37*
G36*
G01*
X6928380Y-3094360D02*
X6928380Y-3131360D01*
G75*
G02*
X6914880Y-3144860I-13500J0D01*
G01*
X6887880Y-3144860D01*
G75*
G02*
X6874380Y-3131360I0J13500D01*
G01*
X6874380Y-3094360D01*
G75*
G02*
X6887880Y-3080860I13500J0D01*
G01*
X6914880Y-3080860D01*
G75*
G02*
X6928380Y-3094360I0J-13500D01*
G01*
G37*
G36*
G01*
X6196880Y-3463160D02*
X6233880Y-3463160D01*
G75*
G02*
X6247380Y-3476660I0J-13500D01*
G01*
X6247380Y-3503660D01*
G75*
G02*
X6233880Y-3517160I-13500J0D01*
G01*
X6196880Y-3517160D01*
G75*
G02*
X6183380Y-3503660I0J13500D01*
G01*
X6183380Y-3476660D01*
G75*
G02*
X6196880Y-3463160I13500J0D01*
G01*
G37*
G36*
G01*
X6196880Y-3361160D02*
X6233880Y-3361160D01*
G75*
G02*
X6247380Y-3374660I0J-13500D01*
G01*
X6247380Y-3401660D01*
G75*
G02*
X6233880Y-3415160I-13500J0D01*
G01*
X6196880Y-3415160D01*
G75*
G02*
X6183380Y-3401660I0J13500D01*
G01*
X6183380Y-3374660D01*
G75*
G02*
X6196880Y-3361160I13500J0D01*
G01*
G37*
G36*
G01*
X6196880Y-3259760D02*
X6233880Y-3259760D01*
G75*
G02*
X6247380Y-3273260I0J-13500D01*
G01*
X6247380Y-3300260D01*
G75*
G02*
X6233880Y-3313760I-13500J0D01*
G01*
X6196880Y-3313760D01*
G75*
G02*
X6183380Y-3300260I0J13500D01*
G01*
X6183380Y-3273260D01*
G75*
G02*
X6196880Y-3259760I13500J0D01*
G01*
G37*
G36*
G01*
X6196880Y-3157760D02*
X6233880Y-3157760D01*
G75*
G02*
X6247380Y-3171260I0J-13500D01*
G01*
X6247380Y-3198260D01*
G75*
G02*
X6233880Y-3211760I-13500J0D01*
G01*
X6196880Y-3211760D01*
G75*
G02*
X6183380Y-3198260I0J13500D01*
G01*
X6183380Y-3171260D01*
G75*
G02*
X6196880Y-3157760I13500J0D01*
G01*
G37*
G36*
G01*
X5861180Y-4042960D02*
X5861180Y-4079960D01*
G75*
G02*
X5847680Y-4093460I-13500J0D01*
G01*
X5820680Y-4093460D01*
G75*
G02*
X5807180Y-4079960I0J13500D01*
G01*
X5807180Y-4042960D01*
G75*
G02*
X5820680Y-4029460I13500J0D01*
G01*
X5847680Y-4029460D01*
G75*
G02*
X5861180Y-4042960I0J-13500D01*
G01*
G37*
G36*
G01*
X5963180Y-4042960D02*
X5963180Y-4079960D01*
G75*
G02*
X5949680Y-4093460I-13500J0D01*
G01*
X5922680Y-4093460D01*
G75*
G02*
X5909180Y-4079960I0J13500D01*
G01*
X5909180Y-4042960D01*
G75*
G02*
X5922680Y-4029460I13500J0D01*
G01*
X5949680Y-4029460D01*
G75*
G02*
X5963180Y-4042960I0J-13500D01*
G01*
G37*
G36*
G01*
X3499053Y-3768033D02*
X3499053Y-3768033D01*
G75*
G02*
X3434707Y-3768033I-32173J32173D01*
G01*
X3414707Y-3748033D01*
G75*
G02*
X3414707Y-3683687I32173J32173D01*
G01*
X3414707Y-3683687D01*
G75*
G02*
X3479053Y-3683687I32173J-32173D01*
G01*
X3499053Y-3703687D01*
G75*
G02*
X3499053Y-3768033I-32173J-32173D01*
G01*
G37*
D20*
X3611880Y-3715860D03*
X3776880Y-3715860D03*
X3776880Y-3949860D03*
X3611880Y-3949860D03*
X3446880Y-3949860D03*
G36*
G01*
X6329455Y-3588460D02*
X6380705Y-3588460D01*
G75*
G02*
X6402580Y-3610335I0J-21875D01*
G01*
X6402580Y-3654085D01*
G75*
G02*
X6380705Y-3675960I-21875J0D01*
G01*
X6329455Y-3675960D01*
G75*
G02*
X6307580Y-3654085I0J21875D01*
G01*
X6307580Y-3610335D01*
G75*
G02*
X6329455Y-3588460I21875J0D01*
G01*
G37*
G36*
G01*
X6329455Y-3430960D02*
X6380705Y-3430960D01*
G75*
G02*
X6402580Y-3452835I0J-21875D01*
G01*
X6402580Y-3496585D01*
G75*
G02*
X6380705Y-3518460I-21875J0D01*
G01*
X6329455Y-3518460D01*
G75*
G02*
X6307580Y-3496585I0J21875D01*
G01*
X6307580Y-3452835D01*
G75*
G02*
X6329455Y-3430960I21875J0D01*
G01*
G37*
G36*
G01*
X5866180Y-3841010D02*
X5866180Y-3875510D01*
G75*
G02*
X5851430Y-3890260I-14750J0D01*
G01*
X5821930Y-3890260D01*
G75*
G02*
X5807180Y-3875510I0J14750D01*
G01*
X5807180Y-3841010D01*
G75*
G02*
X5821930Y-3826260I14750J0D01*
G01*
X5851430Y-3826260D01*
G75*
G02*
X5866180Y-3841010I0J-14750D01*
G01*
G37*
G36*
G01*
X5963180Y-3841010D02*
X5963180Y-3875510D01*
G75*
G02*
X5948430Y-3890260I-14750J0D01*
G01*
X5918930Y-3890260D01*
G75*
G02*
X5904180Y-3875510I0J14750D01*
G01*
X5904180Y-3841010D01*
G75*
G02*
X5918930Y-3826260I14750J0D01*
G01*
X5948430Y-3826260D01*
G75*
G02*
X5963180Y-3841010I0J-14750D01*
G01*
G37*
G36*
G01*
X3277130Y-3902660D02*
X3311630Y-3902660D01*
G75*
G02*
X3326380Y-3917410I0J-14750D01*
G01*
X3326380Y-3946910D01*
G75*
G02*
X3311630Y-3961660I-14750J0D01*
G01*
X3277130Y-3961660D01*
G75*
G02*
X3262380Y-3946910I0J14750D01*
G01*
X3262380Y-3917410D01*
G75*
G02*
X3277130Y-3902660I14750J0D01*
G01*
G37*
G36*
G01*
X3277130Y-3805660D02*
X3311630Y-3805660D01*
G75*
G02*
X3326380Y-3820410I0J-14750D01*
G01*
X3326380Y-3849910D01*
G75*
G02*
X3311630Y-3864660I-14750J0D01*
G01*
X3277130Y-3864660D01*
G75*
G02*
X3262380Y-3849910I0J14750D01*
G01*
X3262380Y-3820410D01*
G75*
G02*
X3277130Y-3805660I14750J0D01*
G01*
G37*
M02*
