G04 #@! TF.GenerationSoftware,KiCad,Pcbnew,5.1.10-88a1d61d58~90~ubuntu20.04.1*
G04 #@! TF.CreationDate,2021-11-22T21:12:46+01:00*
G04 #@! TF.ProjectId,nRF52832_qfaa,6e524635-3238-4333-925f-716661612e6b,rev?*
G04 #@! TF.SameCoordinates,Original*
G04 #@! TF.FileFunction,Legend,Bot*
G04 #@! TF.FilePolarity,Positive*
%FSLAX45Y45*%
G04 Gerber Fmt 4.5, Leading zero omitted, Abs format (unit mm)*
G04 Created by KiCad (PCBNEW 5.1.10-88a1d61d58~90~ubuntu20.04.1) date 2021-11-22 21:12:46*
%MOMM*%
%LPD*%
G01*
G04 APERTURE LIST*
%ADD10C,0.150000*%
%ADD11C,0.200000*%
%ADD12C,0.120000*%
G04 APERTURE END LIST*
D10*
X5594547Y-3963831D02*
X5594547Y-4044784D01*
X5599308Y-4054308D01*
X5604070Y-4059069D01*
X5613594Y-4063831D01*
X5627880Y-4063831D01*
X5637404Y-4059069D01*
X5594547Y-4025736D02*
X5604070Y-4030498D01*
X5623118Y-4030498D01*
X5632642Y-4025736D01*
X5637404Y-4020974D01*
X5642166Y-4011450D01*
X5642166Y-3982879D01*
X5637404Y-3973355D01*
X5632642Y-3968593D01*
X5623118Y-3963831D01*
X5604070Y-3963831D01*
X5594547Y-3968593D01*
X5546928Y-4030498D02*
X5546928Y-3963831D01*
X5546928Y-3930498D02*
X5551690Y-3935260D01*
X5546928Y-3940022D01*
X5542166Y-3935260D01*
X5546928Y-3930498D01*
X5546928Y-3940022D01*
X5513594Y-3963831D02*
X5475499Y-3963831D01*
X5499309Y-3930498D02*
X5499309Y-4016212D01*
X5494547Y-4025736D01*
X5485023Y-4030498D01*
X5475499Y-4030498D01*
X5442166Y-4030498D02*
X5442166Y-3930498D01*
X5399309Y-4030498D02*
X5399309Y-3978117D01*
X5404070Y-3968593D01*
X5413594Y-3963831D01*
X5427880Y-3963831D01*
X5437404Y-3968593D01*
X5442166Y-3973355D01*
X5308832Y-3963831D02*
X5308832Y-4030498D01*
X5351690Y-3963831D02*
X5351690Y-4016212D01*
X5346928Y-4025736D01*
X5337404Y-4030498D01*
X5323118Y-4030498D01*
X5313594Y-4025736D01*
X5308832Y-4020974D01*
X5261213Y-4030498D02*
X5261213Y-3930498D01*
X5261213Y-3968593D02*
X5251690Y-3963831D01*
X5232642Y-3963831D01*
X5223118Y-3968593D01*
X5218356Y-3973355D01*
X5213594Y-3982879D01*
X5213594Y-4011450D01*
X5218356Y-4020974D01*
X5223118Y-4025736D01*
X5232642Y-4030498D01*
X5251690Y-4030498D01*
X5261213Y-4025736D01*
X5170737Y-4020974D02*
X5165975Y-4025736D01*
X5170737Y-4030498D01*
X5175499Y-4025736D01*
X5170737Y-4020974D01*
X5170737Y-4030498D01*
X5080261Y-4025736D02*
X5089785Y-4030498D01*
X5108832Y-4030498D01*
X5118356Y-4025736D01*
X5123118Y-4020974D01*
X5127880Y-4011450D01*
X5127880Y-3982879D01*
X5123118Y-3973355D01*
X5118356Y-3968593D01*
X5108832Y-3963831D01*
X5089785Y-3963831D01*
X5080261Y-3968593D01*
X5023118Y-4030498D02*
X5032642Y-4025736D01*
X5037404Y-4020974D01*
X5042166Y-4011450D01*
X5042166Y-3982879D01*
X5037404Y-3973355D01*
X5032642Y-3968593D01*
X5023118Y-3963831D01*
X5008832Y-3963831D01*
X4999309Y-3968593D01*
X4994547Y-3973355D01*
X4989785Y-3982879D01*
X4989785Y-4011450D01*
X4994547Y-4020974D01*
X4999309Y-4025736D01*
X5008832Y-4030498D01*
X5023118Y-4030498D01*
X4946928Y-4030498D02*
X4946928Y-3963831D01*
X4946928Y-3973355D02*
X4942166Y-3968593D01*
X4932642Y-3963831D01*
X4918356Y-3963831D01*
X4908832Y-3968593D01*
X4904070Y-3978117D01*
X4904070Y-4030498D01*
X4904070Y-3978117D02*
X4899309Y-3968593D01*
X4889785Y-3963831D01*
X4875499Y-3963831D01*
X4865975Y-3968593D01*
X4861213Y-3978117D01*
X4861213Y-4030498D01*
X4742166Y-3925736D02*
X4827880Y-4054308D01*
X4708832Y-4030498D02*
X4708832Y-3963831D01*
X4708832Y-3982879D02*
X4704070Y-3973355D01*
X4699309Y-3968593D01*
X4689785Y-3963831D01*
X4680261Y-3963831D01*
X4604070Y-3963831D02*
X4604070Y-4030498D01*
X4646928Y-3963831D02*
X4646928Y-4016212D01*
X4642166Y-4025736D01*
X4632642Y-4030498D01*
X4618356Y-4030498D01*
X4608832Y-4025736D01*
X4604070Y-4020974D01*
X4556451Y-3963831D02*
X4556451Y-4030498D01*
X4556451Y-3973355D02*
X4551690Y-3968593D01*
X4542166Y-3963831D01*
X4527880Y-3963831D01*
X4518356Y-3968593D01*
X4513594Y-3978117D01*
X4513594Y-4030498D01*
X4423118Y-4030498D02*
X4423118Y-3930498D01*
X4423118Y-4025736D02*
X4432642Y-4030498D01*
X4451690Y-4030498D01*
X4461213Y-4025736D01*
X4465975Y-4020974D01*
X4470737Y-4011450D01*
X4470737Y-3982879D01*
X4465975Y-3973355D01*
X4461213Y-3968593D01*
X4451690Y-3963831D01*
X4432642Y-3963831D01*
X4423118Y-3968593D01*
X4375499Y-4030498D02*
X4375499Y-3930498D01*
X4375499Y-3968593D02*
X4365975Y-3963831D01*
X4346928Y-3963831D01*
X4337404Y-3968593D01*
X4332642Y-3973355D01*
X4327880Y-3982879D01*
X4327880Y-4011450D01*
X4332642Y-4020974D01*
X4337404Y-4025736D01*
X4346928Y-4030498D01*
X4365975Y-4030498D01*
X4375499Y-4025736D01*
X4213594Y-3925736D02*
X4299309Y-4054308D01*
X4137404Y-4030498D02*
X4137404Y-3930498D01*
X4137404Y-4025736D02*
X4146928Y-4030498D01*
X4165975Y-4030498D01*
X4175499Y-4025736D01*
X4180261Y-4020974D01*
X4185023Y-4011450D01*
X4185023Y-3982879D01*
X4180261Y-3973355D01*
X4175499Y-3968593D01*
X4165975Y-3963831D01*
X4146928Y-3963831D01*
X4137404Y-3968593D01*
X4089785Y-4030498D02*
X4089785Y-3963831D01*
X4089785Y-3930498D02*
X4094547Y-3935260D01*
X4089785Y-3940022D01*
X4085023Y-3935260D01*
X4089785Y-3930498D01*
X4089785Y-3940022D01*
X3999308Y-4025736D02*
X4008832Y-4030498D01*
X4027880Y-4030498D01*
X4037404Y-4025736D01*
X4042166Y-4020974D01*
X4046928Y-4011450D01*
X4046928Y-3982879D01*
X4042166Y-3973355D01*
X4037404Y-3968593D01*
X4027880Y-3963831D01*
X4008832Y-3963831D01*
X3999308Y-3968593D01*
X3970737Y-3963831D02*
X3932642Y-3963831D01*
X3956451Y-3930498D02*
X3956451Y-4016212D01*
X3951689Y-4025736D01*
X3942166Y-4030498D01*
X3932642Y-4030498D01*
X3885023Y-4030498D02*
X3894547Y-4025736D01*
X3899308Y-4020974D01*
X3904070Y-4011450D01*
X3904070Y-3982879D01*
X3899308Y-3973355D01*
X3894547Y-3968593D01*
X3885023Y-3963831D01*
X3870737Y-3963831D01*
X3861213Y-3968593D01*
X3856451Y-3973355D01*
X3851689Y-3982879D01*
X3851689Y-4011450D01*
X3856451Y-4020974D01*
X3861213Y-4025736D01*
X3870737Y-4030498D01*
X3885023Y-4030498D01*
X3823118Y-3963831D02*
X3785023Y-3963831D01*
X3808832Y-4030498D02*
X3808832Y-3944784D01*
X3804070Y-3935260D01*
X3794547Y-3930498D01*
X3785023Y-3930498D01*
X3708832Y-3963831D02*
X3708832Y-4030498D01*
X3751689Y-3963831D02*
X3751689Y-4016212D01*
X3746928Y-4025736D01*
X3737404Y-4030498D01*
X3723118Y-4030498D01*
X3713594Y-4025736D01*
X3708832Y-4020974D01*
X3661213Y-3963831D02*
X3661213Y-4030498D01*
X3661213Y-3973355D02*
X3656451Y-3968593D01*
X3646928Y-3963831D01*
X3632642Y-3963831D01*
X3623118Y-3968593D01*
X3618356Y-3978117D01*
X3618356Y-4030498D01*
D11*
X5628669Y-3836346D02*
X5613669Y-3716346D01*
X5585098Y-3716346D01*
X5568669Y-3722060D01*
X5558669Y-3733488D01*
X5554384Y-3744917D01*
X5551526Y-3767774D01*
X5553669Y-3784917D01*
X5562241Y-3807774D01*
X5569384Y-3819203D01*
X5582241Y-3830631D01*
X5600098Y-3836346D01*
X5628669Y-3836346D01*
X5508669Y-3836346D02*
X5498669Y-3756346D01*
X5493669Y-3716346D02*
X5500098Y-3722060D01*
X5495098Y-3727774D01*
X5488669Y-3722060D01*
X5493669Y-3716346D01*
X5495098Y-3727774D01*
X5399384Y-3830631D02*
X5411526Y-3836346D01*
X5434384Y-3836346D01*
X5445098Y-3830631D01*
X5450098Y-3824917D01*
X5454384Y-3813488D01*
X5450098Y-3779203D01*
X5442955Y-3767774D01*
X5436526Y-3762060D01*
X5424384Y-3756346D01*
X5401526Y-3756346D01*
X5390812Y-3762060D01*
X5355812Y-3756346D02*
X5310098Y-3756346D01*
X5333669Y-3716346D02*
X5346526Y-3819203D01*
X5342241Y-3830631D01*
X5331526Y-3836346D01*
X5320098Y-3836346D01*
X5262955Y-3836346D02*
X5273669Y-3830631D01*
X5278669Y-3824917D01*
X5282955Y-3813488D01*
X5278669Y-3779203D01*
X5271526Y-3767774D01*
X5265098Y-3762060D01*
X5252955Y-3756346D01*
X5235812Y-3756346D01*
X5225098Y-3762060D01*
X5220098Y-3767774D01*
X5215812Y-3779203D01*
X5220098Y-3813488D01*
X5227241Y-3824917D01*
X5233669Y-3830631D01*
X5245812Y-3836346D01*
X5262955Y-3836346D01*
X5178669Y-3756346D02*
X5132955Y-3756346D01*
X5171526Y-3836346D02*
X5158669Y-3733488D01*
X5151526Y-3722060D01*
X5139384Y-3716346D01*
X5127955Y-3716346D01*
X5041526Y-3756346D02*
X5051526Y-3836346D01*
X5092955Y-3756346D02*
X5100812Y-3819203D01*
X5096526Y-3830631D01*
X5085812Y-3836346D01*
X5068669Y-3836346D01*
X5056526Y-3830631D01*
X5050098Y-3824917D01*
X4984384Y-3756346D02*
X4994384Y-3836346D01*
X4985812Y-3767774D02*
X4979384Y-3762060D01*
X4967241Y-3756346D01*
X4950098Y-3756346D01*
X4939384Y-3762060D01*
X4935098Y-3773488D01*
X4942955Y-3836346D01*
X4731526Y-3836346D02*
X4800098Y-3836346D01*
X4765812Y-3836346D02*
X4750812Y-3716346D01*
X4764384Y-3733488D01*
X4777241Y-3744917D01*
X4789384Y-3750631D01*
X4678669Y-3824917D02*
X4673669Y-3830631D01*
X4680098Y-3836346D01*
X4685098Y-3830631D01*
X4678669Y-3824917D01*
X4680098Y-3836346D01*
X4560098Y-3836346D02*
X4628669Y-3836346D01*
X4594384Y-3836346D02*
X4579384Y-3716346D01*
X4592955Y-3733488D01*
X4605812Y-3744917D01*
X4617955Y-3750631D01*
D10*
X6487628Y-3871798D02*
X6487628Y-3771798D01*
X6487628Y-3867036D02*
X6497151Y-3871798D01*
X6516199Y-3871798D01*
X6525723Y-3867036D01*
X6530485Y-3862274D01*
X6535247Y-3852750D01*
X6535247Y-3824179D01*
X6530485Y-3814655D01*
X6525723Y-3809893D01*
X6516199Y-3805131D01*
X6497151Y-3805131D01*
X6487628Y-3809893D01*
X6440008Y-3871798D02*
X6440008Y-3771798D01*
X6440008Y-3809893D02*
X6430485Y-3805131D01*
X6411437Y-3805131D01*
X6401913Y-3809893D01*
X6397151Y-3814655D01*
X6392389Y-3824179D01*
X6392389Y-3852750D01*
X6397151Y-3862274D01*
X6401913Y-3867036D01*
X6411437Y-3871798D01*
X6430485Y-3871798D01*
X6440008Y-3867036D01*
X6306675Y-3805131D02*
X6306675Y-3886084D01*
X6311437Y-3895608D01*
X6316199Y-3900369D01*
X6325723Y-3905131D01*
X6340008Y-3905131D01*
X6349532Y-3900369D01*
X6306675Y-3867036D02*
X6316199Y-3871798D01*
X6335247Y-3871798D01*
X6344770Y-3867036D01*
X6349532Y-3862274D01*
X6354294Y-3852750D01*
X6354294Y-3824179D01*
X6349532Y-3814655D01*
X6344770Y-3809893D01*
X6335247Y-3805131D01*
X6316199Y-3805131D01*
X6306675Y-3809893D01*
X6470961Y-4036798D02*
X6480485Y-4032036D01*
X6485247Y-4027274D01*
X6490008Y-4017750D01*
X6490008Y-3989179D01*
X6485247Y-3979655D01*
X6480485Y-3974893D01*
X6470961Y-3970131D01*
X6456675Y-3970131D01*
X6447151Y-3974893D01*
X6442389Y-3979655D01*
X6437628Y-3989179D01*
X6437628Y-4017750D01*
X6442389Y-4027274D01*
X6447151Y-4032036D01*
X6456675Y-4036798D01*
X6470961Y-4036798D01*
X6394770Y-3970131D02*
X6394770Y-4036798D01*
X6394770Y-3979655D02*
X6390008Y-3974893D01*
X6380485Y-3970131D01*
X6366199Y-3970131D01*
X6356675Y-3974893D01*
X6351913Y-3984417D01*
X6351913Y-4036798D01*
D12*
X3180080Y-3680460D02*
X3180080Y-3604260D01*
X3256280Y-3642360D02*
X3180080Y-3680460D01*
X3180080Y-3604260D02*
X3256280Y-3642360D01*
D10*
X5446228Y-3303431D02*
X5446228Y-3384384D01*
X5450990Y-3393908D01*
X5455751Y-3398669D01*
X5465275Y-3403431D01*
X5479561Y-3403431D01*
X5489085Y-3398669D01*
X5446228Y-3365336D02*
X5455751Y-3370098D01*
X5474799Y-3370098D01*
X5484323Y-3365336D01*
X5489085Y-3360574D01*
X5493847Y-3351050D01*
X5493847Y-3322479D01*
X5489085Y-3312955D01*
X5484323Y-3308193D01*
X5474799Y-3303431D01*
X5455751Y-3303431D01*
X5446228Y-3308193D01*
X5398609Y-3303431D02*
X5398609Y-3370098D01*
X5398609Y-3312955D02*
X5393847Y-3308193D01*
X5384323Y-3303431D01*
X5370037Y-3303431D01*
X5360513Y-3308193D01*
X5355751Y-3317717D01*
X5355751Y-3370098D01*
X5265275Y-3370098D02*
X5265275Y-3270098D01*
X5265275Y-3365336D02*
X5274799Y-3370098D01*
X5293847Y-3370098D01*
X5303370Y-3365336D01*
X5308132Y-3360574D01*
X5312894Y-3351050D01*
X5312894Y-3322479D01*
X5308132Y-3312955D01*
X5303370Y-3308193D01*
X5293847Y-3303431D01*
X5274799Y-3303431D01*
X5265275Y-3308193D01*
X5056499Y-3204998D02*
X5056499Y-3138331D01*
X5056499Y-3157379D02*
X5051737Y-3147855D01*
X5046975Y-3143093D01*
X5037451Y-3138331D01*
X5027928Y-3138331D01*
X5004118Y-3204998D02*
X4951737Y-3138331D01*
X5004118Y-3138331D02*
X4951737Y-3204998D01*
X5258904Y-3163731D02*
X5220809Y-3163731D01*
X5244618Y-3130398D02*
X5244618Y-3216112D01*
X5239856Y-3225636D01*
X5230332Y-3230398D01*
X5220809Y-3230398D01*
X5196999Y-3230398D02*
X5144618Y-3163731D01*
X5196999Y-3163731D02*
X5144618Y-3230398D01*
D12*
X5447180Y-3197860D02*
G75*
G03*
X5447180Y-3197860I-70000J0D01*
G01*
X5294780Y-3045460D02*
G75*
G03*
X5294780Y-3045460I-70000J0D01*
G01*
X5091580Y-3045460D02*
G75*
G03*
X5091580Y-3045460I-70000J0D01*
G01*
X6966280Y-3358460D02*
G75*
G03*
X6966280Y-3358460I-70000J0D01*
G01*
X6966280Y-3708460D02*
G75*
G03*
X6966280Y-3708460I-70000J0D01*
G01*
X6266280Y-3433460D02*
G75*
G03*
X6266280Y-3433460I-70000J0D01*
G01*
X6266280Y-3133460D02*
G75*
G03*
X6266280Y-3133460I-70000J0D01*
G01*
X6089980Y-3851760D02*
X6089980Y-3991760D01*
X6159980Y-4061760D02*
X6219980Y-4061760D01*
X6289980Y-3991760D02*
X6289980Y-3851760D01*
X6219980Y-3781760D02*
X6159980Y-3781760D01*
X6159980Y-3781760D02*
G75*
G03*
X6089980Y-3851760I0J-70000D01*
G01*
X6289980Y-3851760D02*
G75*
G03*
X6219980Y-3781760I-70000J0D01*
G01*
X6219980Y-4061760D02*
G75*
G03*
X6289980Y-3991760I0J70000D01*
G01*
X6089980Y-3991760D02*
G75*
G03*
X6159980Y-4061760I70000J0D01*
G01*
X3430880Y-3711860D02*
X3783880Y-3711860D01*
X3430880Y-3064860D02*
X3783880Y-3064860D01*
X3298380Y-3705360D02*
X3430880Y-3705360D01*
X3430880Y-3711860D02*
X3430880Y-3705360D01*
X3783880Y-3711860D02*
X3783880Y-3705360D01*
X3430880Y-3071360D02*
X3430880Y-3064860D01*
X3783880Y-3071360D02*
X3783880Y-3064860D01*
D10*
X6965328Y-3212031D02*
X6965328Y-3292984D01*
X6970089Y-3302508D01*
X6974851Y-3307269D01*
X6984375Y-3312031D01*
X6998661Y-3312031D01*
X7008185Y-3307269D01*
X6965328Y-3273936D02*
X6974851Y-3278698D01*
X6993899Y-3278698D01*
X7003423Y-3273936D01*
X7008185Y-3269174D01*
X7012947Y-3259650D01*
X7012947Y-3231079D01*
X7008185Y-3221555D01*
X7003423Y-3216793D01*
X6993899Y-3212031D01*
X6974851Y-3212031D01*
X6965328Y-3216793D01*
X6917708Y-3212031D02*
X6917708Y-3278698D01*
X6917708Y-3221555D02*
X6912947Y-3216793D01*
X6903423Y-3212031D01*
X6889137Y-3212031D01*
X6879613Y-3216793D01*
X6874851Y-3226317D01*
X6874851Y-3278698D01*
X6784375Y-3278698D02*
X6784375Y-3178698D01*
X6784375Y-3273936D02*
X6793899Y-3278698D01*
X6812947Y-3278698D01*
X6822470Y-3273936D01*
X6827232Y-3269174D01*
X6831994Y-3259650D01*
X6831994Y-3231079D01*
X6827232Y-3221555D01*
X6822470Y-3216793D01*
X6812947Y-3212031D01*
X6793899Y-3212031D01*
X6784375Y-3216793D01*
X6962947Y-3903936D02*
X6972470Y-3908698D01*
X6991518Y-3908698D01*
X7001042Y-3903936D01*
X7005804Y-3899174D01*
X7010566Y-3889650D01*
X7010566Y-3861079D01*
X7005804Y-3851555D01*
X7001042Y-3846793D01*
X6991518Y-3842031D01*
X6972470Y-3842031D01*
X6962947Y-3846793D01*
X6920089Y-3908698D02*
X6920089Y-3808698D01*
X6877232Y-3908698D02*
X6877232Y-3856317D01*
X6881994Y-3846793D01*
X6891518Y-3842031D01*
X6905804Y-3842031D01*
X6915328Y-3846793D01*
X6920089Y-3851555D01*
X6786756Y-3842031D02*
X6786756Y-3922984D01*
X6791518Y-3932508D01*
X6796280Y-3937269D01*
X6805804Y-3942031D01*
X6820089Y-3942031D01*
X6829613Y-3937269D01*
X6786756Y-3903936D02*
X6796280Y-3908698D01*
X6815328Y-3908698D01*
X6824851Y-3903936D01*
X6829613Y-3899174D01*
X6834375Y-3889650D01*
X6834375Y-3861079D01*
X6829613Y-3851555D01*
X6824851Y-3846793D01*
X6815328Y-3842031D01*
X6796280Y-3842031D01*
X6786756Y-3846793D01*
X6479613Y-3478698D02*
X6479613Y-3378698D01*
X6479613Y-3416793D02*
X6470089Y-3412031D01*
X6451042Y-3412031D01*
X6441518Y-3416793D01*
X6436756Y-3421555D01*
X6431994Y-3431079D01*
X6431994Y-3459650D01*
X6436756Y-3469174D01*
X6441518Y-3473936D01*
X6451042Y-3478698D01*
X6470089Y-3478698D01*
X6479613Y-3473936D01*
X6389137Y-3440603D02*
X6312947Y-3440603D01*
X6479613Y-3178698D02*
X6479613Y-3078698D01*
X6479613Y-3116793D02*
X6470089Y-3112031D01*
X6451042Y-3112031D01*
X6441518Y-3116793D01*
X6436756Y-3121555D01*
X6431994Y-3131079D01*
X6431994Y-3159650D01*
X6436756Y-3169174D01*
X6441518Y-3173936D01*
X6451042Y-3178698D01*
X6470089Y-3178698D01*
X6479613Y-3173936D01*
X6389137Y-3140603D02*
X6312947Y-3140603D01*
X6351042Y-3178698D02*
X6351042Y-3102508D01*
M02*
