G04 #@! TF.GenerationSoftware,KiCad,Pcbnew,5.1.10-88a1d61d58~90~ubuntu20.04.1*
G04 #@! TF.CreationDate,2021-11-22T21:12:46+01:00*
G04 #@! TF.ProjectId,nRF52832_qfaa,6e524635-3238-4333-925f-716661612e6b,rev?*
G04 #@! TF.SameCoordinates,Original*
G04 #@! TF.FileFunction,Soldermask,Bot*
G04 #@! TF.FilePolarity,Negative*
%FSLAX45Y45*%
G04 Gerber Fmt 4.5, Leading zero omitted, Abs format (unit mm)*
G04 Created by KiCad (PCBNEW 5.1.10-88a1d61d58~90~ubuntu20.04.1) date 2021-11-22 21:12:46*
%MOMM*%
%LPD*%
G01*
G04 APERTURE LIST*
%ADD10C,1.000000*%
%ADD11C,1.111200*%
%ADD12C,0.100000*%
%ADD13R,2.400000X0.740000*%
G04 APERTURE END LIST*
D10*
X5377180Y-3197860D03*
X5224780Y-3045460D03*
X5021580Y-3045460D03*
X3096280Y-3533460D03*
X6696280Y-3533460D03*
D11*
X5165080Y-3644560D03*
X5165080Y-3524560D03*
X5165080Y-3404560D03*
X5165080Y-3284560D03*
X5045080Y-3644560D03*
X5045080Y-3524560D03*
X5045080Y-3404560D03*
X5045080Y-3284560D03*
X4925080Y-3644560D03*
X4925080Y-3524560D03*
X4925080Y-3404560D03*
X4925080Y-3284560D03*
X4805080Y-3644560D03*
X4805080Y-3524560D03*
X4805080Y-3404560D03*
X4805080Y-3284560D03*
D10*
X6896280Y-3358460D03*
X6896280Y-3708460D03*
X6196280Y-3433460D03*
X6196280Y-3133460D03*
D12*
G36*
X6264920Y-3986760D02*
G01*
X6264920Y-3989213D01*
X6264439Y-3994096D01*
X6263482Y-3998909D01*
X6262057Y-4003604D01*
X6260179Y-4008138D01*
X6257866Y-4012465D01*
X6255140Y-4016545D01*
X6252028Y-4020338D01*
X6248558Y-4023808D01*
X6244765Y-4026920D01*
X6240685Y-4029646D01*
X6236358Y-4031959D01*
X6231824Y-4033837D01*
X6227129Y-4035262D01*
X6222316Y-4036219D01*
X6217433Y-4036700D01*
X6214980Y-4036700D01*
X6214980Y-4036760D01*
X6164980Y-4036760D01*
X6164980Y-4036700D01*
X6162527Y-4036700D01*
X6157643Y-4036219D01*
X6152831Y-4035262D01*
X6148135Y-4033837D01*
X6143602Y-4031959D01*
X6139275Y-4029646D01*
X6135195Y-4026920D01*
X6131402Y-4023808D01*
X6127932Y-4020338D01*
X6124820Y-4016545D01*
X6122094Y-4012465D01*
X6119780Y-4008138D01*
X6117903Y-4003604D01*
X6116478Y-3998909D01*
X6115521Y-3994096D01*
X6115040Y-3989213D01*
X6115040Y-3986760D01*
X6114980Y-3986760D01*
X6114980Y-3936760D01*
X6264980Y-3936760D01*
X6264980Y-3986760D01*
X6264920Y-3986760D01*
G37*
G36*
X6114980Y-3906760D02*
G01*
X6114980Y-3856760D01*
X6115040Y-3856760D01*
X6115040Y-3854307D01*
X6115521Y-3849423D01*
X6116478Y-3844611D01*
X6117903Y-3839915D01*
X6119780Y-3835382D01*
X6122094Y-3831055D01*
X6124820Y-3826975D01*
X6127932Y-3823182D01*
X6131402Y-3819712D01*
X6135195Y-3816600D01*
X6139275Y-3813874D01*
X6143602Y-3811560D01*
X6148135Y-3809683D01*
X6152831Y-3808258D01*
X6157643Y-3807301D01*
X6162527Y-3806820D01*
X6164980Y-3806820D01*
X6164980Y-3806760D01*
X6214980Y-3806760D01*
X6214980Y-3806820D01*
X6217433Y-3806820D01*
X6222316Y-3807301D01*
X6227129Y-3808258D01*
X6231824Y-3809683D01*
X6236358Y-3811560D01*
X6240685Y-3813874D01*
X6244765Y-3816600D01*
X6248558Y-3819712D01*
X6252028Y-3823182D01*
X6255140Y-3826975D01*
X6257866Y-3831055D01*
X6260179Y-3835382D01*
X6262057Y-3839915D01*
X6263482Y-3844611D01*
X6264439Y-3849423D01*
X6264920Y-3854307D01*
X6264920Y-3856760D01*
X6264980Y-3856760D01*
X6264980Y-3906760D01*
X6114980Y-3906760D01*
G37*
D13*
X3802380Y-3134360D03*
X3412380Y-3134360D03*
X3802380Y-3261360D03*
X3412380Y-3261360D03*
X3802380Y-3388360D03*
X3412380Y-3388360D03*
X3802380Y-3515360D03*
X3412380Y-3515360D03*
X3802380Y-3642360D03*
X3412380Y-3642360D03*
M02*
