G04 #@! TF.GenerationSoftware,KiCad,Pcbnew,5.1.10-88a1d61d58~90~ubuntu20.04.1*
G04 #@! TF.CreationDate,2021-11-22T21:12:46+01:00*
G04 #@! TF.ProjectId,nRF52832_qfaa,6e524635-3238-4333-925f-716661612e6b,rev?*
G04 #@! TF.SameCoordinates,Original*
G04 #@! TF.FileFunction,Copper,L1,Top*
G04 #@! TF.FilePolarity,Positive*
%FSLAX45Y45*%
G04 Gerber Fmt 4.5, Leading zero omitted, Abs format (unit mm)*
G04 Created by KiCad (PCBNEW 5.1.10-88a1d61d58~90~ubuntu20.04.1) date 2021-11-22 21:12:46*
%MOMM*%
%LPD*%
G01*
G04 APERTURE LIST*
G04 #@! TA.AperFunction,ComponentPad*
%ADD10C,0.500000*%
G04 #@! TD*
G04 #@! TA.AperFunction,SMDPad,CuDef*
%ADD11R,1.450000X1.450000*%
G04 #@! TD*
G04 #@! TA.AperFunction,SMDPad,CuDef*
%ADD12R,0.550000X1.700000*%
G04 #@! TD*
G04 #@! TA.AperFunction,SMDPad,CuDef*
%ADD13R,1.000000X0.900000*%
G04 #@! TD*
G04 #@! TA.AperFunction,SMDPad,CuDef*
%ADD14C,1.000000*%
G04 #@! TD*
G04 #@! TA.AperFunction,SMDPad,CuDef*
%ADD15R,0.800000X1.000000*%
G04 #@! TD*
G04 #@! TA.AperFunction,SMDPad,CuDef*
%ADD16R,0.850000X0.950000*%
G04 #@! TD*
G04 #@! TA.AperFunction,SMDPad,CuDef*
%ADD17R,1.800000X1.000000*%
G04 #@! TD*
G04 #@! TA.AperFunction,SMDPad,CuDef*
%ADD18R,4.300000X3.400000*%
G04 #@! TD*
G04 #@! TA.AperFunction,SMDPad,CuDef*
%ADD19R,4.700000X4.700000*%
G04 #@! TD*
G04 #@! TA.AperFunction,ComponentPad*
%ADD20C,0.908000*%
G04 #@! TD*
G04 #@! TA.AperFunction,SMDPad,CuDef*
%ADD21R,0.400000X0.500000*%
G04 #@! TD*
G04 #@! TA.AperFunction,SMDPad,CuDef*
%ADD22R,0.300000X0.500000*%
G04 #@! TD*
G04 #@! TA.AperFunction,SMDPad,CuDef*
%ADD23R,0.900000X0.800000*%
G04 #@! TD*
G04 #@! TA.AperFunction,SMDPad,CuDef*
%ADD24R,1.060000X0.650000*%
G04 #@! TD*
G04 #@! TA.AperFunction,SMDPad,CuDef*
%ADD25C,0.910000*%
G04 #@! TD*
G04 #@! TA.AperFunction,ViaPad*
%ADD26C,0.600000*%
G04 #@! TD*
G04 #@! TA.AperFunction,ViaPad*
%ADD27C,0.450000*%
G04 #@! TD*
G04 #@! TA.AperFunction,Conductor*
%ADD28C,0.250000*%
G04 #@! TD*
G04 #@! TA.AperFunction,Conductor*
%ADD29C,0.200000*%
G04 #@! TD*
G04 #@! TA.AperFunction,Conductor*
%ADD30C,0.400000*%
G04 #@! TD*
G04 #@! TA.AperFunction,Conductor*
%ADD31C,0.500000*%
G04 #@! TD*
G04 #@! TA.AperFunction,Conductor*
%ADD32C,0.150000*%
G04 #@! TD*
G04 #@! TA.AperFunction,Conductor*
%ADD33C,0.220000*%
G04 #@! TD*
G04 #@! TA.AperFunction,Conductor*
%ADD34C,0.100000*%
G04 #@! TD*
G04 APERTURE END LIST*
D10*
X6473080Y-3227960D03*
X6473080Y-3132960D03*
X6568080Y-3227960D03*
X6568080Y-3132960D03*
D11*
X6520580Y-3180460D03*
G04 #@! TA.AperFunction,SMDPad,CuDef*
G36*
G01*
X6626830Y-3092960D02*
X6701830Y-3092960D01*
G75*
G02*
X6708080Y-3099210I0J-6250D01*
G01*
X6708080Y-3111710D01*
G75*
G02*
X6701830Y-3117960I-6250J0D01*
G01*
X6626830Y-3117960D01*
G75*
G02*
X6620580Y-3111710I0J6250D01*
G01*
X6620580Y-3099210D01*
G75*
G02*
X6626830Y-3092960I6250J0D01*
G01*
G37*
G04 #@! TD.AperFunction*
G04 #@! TA.AperFunction,SMDPad,CuDef*
G36*
G01*
X6626830Y-3142960D02*
X6701830Y-3142960D01*
G75*
G02*
X6708080Y-3149210I0J-6250D01*
G01*
X6708080Y-3161710D01*
G75*
G02*
X6701830Y-3167960I-6250J0D01*
G01*
X6626830Y-3167960D01*
G75*
G02*
X6620580Y-3161710I0J6250D01*
G01*
X6620580Y-3149210D01*
G75*
G02*
X6626830Y-3142960I6250J0D01*
G01*
G37*
G04 #@! TD.AperFunction*
G04 #@! TA.AperFunction,SMDPad,CuDef*
G36*
G01*
X6626830Y-3192960D02*
X6701830Y-3192960D01*
G75*
G02*
X6708080Y-3199210I0J-6250D01*
G01*
X6708080Y-3211710D01*
G75*
G02*
X6701830Y-3217960I-6250J0D01*
G01*
X6626830Y-3217960D01*
G75*
G02*
X6620580Y-3211710I0J6250D01*
G01*
X6620580Y-3199210D01*
G75*
G02*
X6626830Y-3192960I6250J0D01*
G01*
G37*
G04 #@! TD.AperFunction*
G04 #@! TA.AperFunction,SMDPad,CuDef*
G36*
G01*
X6626830Y-3242960D02*
X6701830Y-3242960D01*
G75*
G02*
X6708080Y-3249210I0J-6250D01*
G01*
X6708080Y-3261710D01*
G75*
G02*
X6701830Y-3267960I-6250J0D01*
G01*
X6626830Y-3267960D01*
G75*
G02*
X6620580Y-3261710I0J6250D01*
G01*
X6620580Y-3249210D01*
G75*
G02*
X6626830Y-3242960I6250J0D01*
G01*
G37*
G04 #@! TD.AperFunction*
G04 #@! TA.AperFunction,SMDPad,CuDef*
G36*
G01*
X6589330Y-3280460D02*
X6601830Y-3280460D01*
G75*
G02*
X6608080Y-3286710I0J-6250D01*
G01*
X6608080Y-3361710D01*
G75*
G02*
X6601830Y-3367960I-6250J0D01*
G01*
X6589330Y-3367960D01*
G75*
G02*
X6583080Y-3361710I0J6250D01*
G01*
X6583080Y-3286710D01*
G75*
G02*
X6589330Y-3280460I6250J0D01*
G01*
G37*
G04 #@! TD.AperFunction*
G04 #@! TA.AperFunction,SMDPad,CuDef*
G36*
G01*
X6539330Y-3280460D02*
X6551830Y-3280460D01*
G75*
G02*
X6558080Y-3286710I0J-6250D01*
G01*
X6558080Y-3361710D01*
G75*
G02*
X6551830Y-3367960I-6250J0D01*
G01*
X6539330Y-3367960D01*
G75*
G02*
X6533080Y-3361710I0J6250D01*
G01*
X6533080Y-3286710D01*
G75*
G02*
X6539330Y-3280460I6250J0D01*
G01*
G37*
G04 #@! TD.AperFunction*
G04 #@! TA.AperFunction,SMDPad,CuDef*
G36*
G01*
X6489330Y-3280460D02*
X6501830Y-3280460D01*
G75*
G02*
X6508080Y-3286710I0J-6250D01*
G01*
X6508080Y-3361710D01*
G75*
G02*
X6501830Y-3367960I-6250J0D01*
G01*
X6489330Y-3367960D01*
G75*
G02*
X6483080Y-3361710I0J6250D01*
G01*
X6483080Y-3286710D01*
G75*
G02*
X6489330Y-3280460I6250J0D01*
G01*
G37*
G04 #@! TD.AperFunction*
G04 #@! TA.AperFunction,SMDPad,CuDef*
G36*
G01*
X6439330Y-3280460D02*
X6451830Y-3280460D01*
G75*
G02*
X6458080Y-3286710I0J-6250D01*
G01*
X6458080Y-3361710D01*
G75*
G02*
X6451830Y-3367960I-6250J0D01*
G01*
X6439330Y-3367960D01*
G75*
G02*
X6433080Y-3361710I0J6250D01*
G01*
X6433080Y-3286710D01*
G75*
G02*
X6439330Y-3280460I6250J0D01*
G01*
G37*
G04 #@! TD.AperFunction*
G04 #@! TA.AperFunction,SMDPad,CuDef*
G36*
G01*
X6339330Y-3242960D02*
X6414330Y-3242960D01*
G75*
G02*
X6420580Y-3249210I0J-6250D01*
G01*
X6420580Y-3261710D01*
G75*
G02*
X6414330Y-3267960I-6250J0D01*
G01*
X6339330Y-3267960D01*
G75*
G02*
X6333080Y-3261710I0J6250D01*
G01*
X6333080Y-3249210D01*
G75*
G02*
X6339330Y-3242960I6250J0D01*
G01*
G37*
G04 #@! TD.AperFunction*
G04 #@! TA.AperFunction,SMDPad,CuDef*
G36*
G01*
X6339330Y-3192960D02*
X6414330Y-3192960D01*
G75*
G02*
X6420580Y-3199210I0J-6250D01*
G01*
X6420580Y-3211710D01*
G75*
G02*
X6414330Y-3217960I-6250J0D01*
G01*
X6339330Y-3217960D01*
G75*
G02*
X6333080Y-3211710I0J6250D01*
G01*
X6333080Y-3199210D01*
G75*
G02*
X6339330Y-3192960I6250J0D01*
G01*
G37*
G04 #@! TD.AperFunction*
G04 #@! TA.AperFunction,SMDPad,CuDef*
G36*
G01*
X6339330Y-3142960D02*
X6414330Y-3142960D01*
G75*
G02*
X6420580Y-3149210I0J-6250D01*
G01*
X6420580Y-3161710D01*
G75*
G02*
X6414330Y-3167960I-6250J0D01*
G01*
X6339330Y-3167960D01*
G75*
G02*
X6333080Y-3161710I0J6250D01*
G01*
X6333080Y-3149210D01*
G75*
G02*
X6339330Y-3142960I6250J0D01*
G01*
G37*
G04 #@! TD.AperFunction*
G04 #@! TA.AperFunction,SMDPad,CuDef*
G36*
G01*
X6339330Y-3092960D02*
X6414330Y-3092960D01*
G75*
G02*
X6420580Y-3099210I0J-6250D01*
G01*
X6420580Y-3111710D01*
G75*
G02*
X6414330Y-3117960I-6250J0D01*
G01*
X6339330Y-3117960D01*
G75*
G02*
X6333080Y-3111710I0J6250D01*
G01*
X6333080Y-3099210D01*
G75*
G02*
X6339330Y-3092960I6250J0D01*
G01*
G37*
G04 #@! TD.AperFunction*
G04 #@! TA.AperFunction,SMDPad,CuDef*
G36*
G01*
X6439330Y-2992960D02*
X6451830Y-2992960D01*
G75*
G02*
X6458080Y-2999210I0J-6250D01*
G01*
X6458080Y-3074210D01*
G75*
G02*
X6451830Y-3080460I-6250J0D01*
G01*
X6439330Y-3080460D01*
G75*
G02*
X6433080Y-3074210I0J6250D01*
G01*
X6433080Y-2999210D01*
G75*
G02*
X6439330Y-2992960I6250J0D01*
G01*
G37*
G04 #@! TD.AperFunction*
G04 #@! TA.AperFunction,SMDPad,CuDef*
G36*
G01*
X6489330Y-2992960D02*
X6501830Y-2992960D01*
G75*
G02*
X6508080Y-2999210I0J-6250D01*
G01*
X6508080Y-3074210D01*
G75*
G02*
X6501830Y-3080460I-6250J0D01*
G01*
X6489330Y-3080460D01*
G75*
G02*
X6483080Y-3074210I0J6250D01*
G01*
X6483080Y-2999210D01*
G75*
G02*
X6489330Y-2992960I6250J0D01*
G01*
G37*
G04 #@! TD.AperFunction*
G04 #@! TA.AperFunction,SMDPad,CuDef*
G36*
G01*
X6539330Y-2992960D02*
X6551830Y-2992960D01*
G75*
G02*
X6558080Y-2999210I0J-6250D01*
G01*
X6558080Y-3074210D01*
G75*
G02*
X6551830Y-3080460I-6250J0D01*
G01*
X6539330Y-3080460D01*
G75*
G02*
X6533080Y-3074210I0J6250D01*
G01*
X6533080Y-2999210D01*
G75*
G02*
X6539330Y-2992960I6250J0D01*
G01*
G37*
G04 #@! TD.AperFunction*
G04 #@! TA.AperFunction,SMDPad,CuDef*
G36*
G01*
X6589330Y-2992960D02*
X6601830Y-2992960D01*
G75*
G02*
X6608080Y-2999210I0J-6250D01*
G01*
X6608080Y-3074210D01*
G75*
G02*
X6601830Y-3080460I-6250J0D01*
G01*
X6589330Y-3080460D01*
G75*
G02*
X6583080Y-3074210I0J6250D01*
G01*
X6583080Y-2999210D01*
G75*
G02*
X6589330Y-2992960I6250J0D01*
G01*
G37*
G04 #@! TD.AperFunction*
D12*
X3751580Y-3312160D03*
D13*
X3814080Y-3107160D03*
X3974080Y-3107160D03*
X3974080Y-3517160D03*
X3814080Y-3517160D03*
D14*
X4475480Y-3045460D03*
G04 #@! TA.AperFunction,SMDPad,CuDef*
G36*
G01*
X4345880Y-3227560D02*
X4345880Y-3193560D01*
G75*
G02*
X4359880Y-3179560I14000J0D01*
G01*
X4387880Y-3179560D01*
G75*
G02*
X4401880Y-3193560I0J-14000D01*
G01*
X4401880Y-3227560D01*
G75*
G02*
X4387880Y-3241560I-14000J0D01*
G01*
X4359880Y-3241560D01*
G75*
G02*
X4345880Y-3227560I0J14000D01*
G01*
G37*
G04 #@! TD.AperFunction*
G04 #@! TA.AperFunction,SMDPad,CuDef*
G36*
G01*
X4249880Y-3227560D02*
X4249880Y-3193560D01*
G75*
G02*
X4263880Y-3179560I14000J0D01*
G01*
X4291880Y-3179560D01*
G75*
G02*
X4305880Y-3193560I0J-14000D01*
G01*
X4305880Y-3227560D01*
G75*
G02*
X4291880Y-3241560I-14000J0D01*
G01*
X4263880Y-3241560D01*
G75*
G02*
X4249880Y-3227560I0J14000D01*
G01*
G37*
G04 #@! TD.AperFunction*
G04 #@! TA.AperFunction,SMDPad,CuDef*
G36*
G01*
X4953780Y-3979860D02*
X4987780Y-3979860D01*
G75*
G02*
X5001780Y-3993860I0J-14000D01*
G01*
X5001780Y-4021860D01*
G75*
G02*
X4987780Y-4035860I-14000J0D01*
G01*
X4953780Y-4035860D01*
G75*
G02*
X4939780Y-4021860I0J14000D01*
G01*
X4939780Y-3993860D01*
G75*
G02*
X4953780Y-3979860I14000J0D01*
G01*
G37*
G04 #@! TD.AperFunction*
G04 #@! TA.AperFunction,SMDPad,CuDef*
G36*
G01*
X4953780Y-3883860D02*
X4987780Y-3883860D01*
G75*
G02*
X5001780Y-3897860I0J-14000D01*
G01*
X5001780Y-3925860D01*
G75*
G02*
X4987780Y-3939860I-14000J0D01*
G01*
X4953780Y-3939860D01*
G75*
G02*
X4939780Y-3925860I0J14000D01*
G01*
X4939780Y-3897860D01*
G75*
G02*
X4953780Y-3883860I14000J0D01*
G01*
G37*
G04 #@! TD.AperFunction*
G04 #@! TA.AperFunction,SMDPad,CuDef*
G36*
G01*
X6376180Y-4030660D02*
X6410180Y-4030660D01*
G75*
G02*
X6424180Y-4044660I0J-14000D01*
G01*
X6424180Y-4072660D01*
G75*
G02*
X6410180Y-4086660I-14000J0D01*
G01*
X6376180Y-4086660D01*
G75*
G02*
X6362180Y-4072660I0J14000D01*
G01*
X6362180Y-4044660D01*
G75*
G02*
X6376180Y-4030660I14000J0D01*
G01*
G37*
G04 #@! TD.AperFunction*
G04 #@! TA.AperFunction,SMDPad,CuDef*
G36*
G01*
X6376180Y-3934660D02*
X6410180Y-3934660D01*
G75*
G02*
X6424180Y-3948660I0J-14000D01*
G01*
X6424180Y-3976660D01*
G75*
G02*
X6410180Y-3990660I-14000J0D01*
G01*
X6376180Y-3990660D01*
G75*
G02*
X6362180Y-3976660I0J14000D01*
G01*
X6362180Y-3948660D01*
G75*
G02*
X6376180Y-3934660I14000J0D01*
G01*
G37*
G04 #@! TD.AperFunction*
G04 #@! TA.AperFunction,SMDPad,CuDef*
G36*
G01*
X6943580Y-3863660D02*
X6909580Y-3863660D01*
G75*
G02*
X6895580Y-3849660I0J14000D01*
G01*
X6895580Y-3821660D01*
G75*
G02*
X6909580Y-3807660I14000J0D01*
G01*
X6943580Y-3807660D01*
G75*
G02*
X6957580Y-3821660I0J-14000D01*
G01*
X6957580Y-3849660D01*
G75*
G02*
X6943580Y-3863660I-14000J0D01*
G01*
G37*
G04 #@! TD.AperFunction*
G04 #@! TA.AperFunction,SMDPad,CuDef*
G36*
G01*
X6943580Y-3959660D02*
X6909580Y-3959660D01*
G75*
G02*
X6895580Y-3945660I0J14000D01*
G01*
X6895580Y-3917660D01*
G75*
G02*
X6909580Y-3903660I14000J0D01*
G01*
X6943580Y-3903660D01*
G75*
G02*
X6957580Y-3917660I0J-14000D01*
G01*
X6957580Y-3945660D01*
G75*
G02*
X6943580Y-3959660I-14000J0D01*
G01*
G37*
G04 #@! TD.AperFunction*
G04 #@! TA.AperFunction,SMDPad,CuDef*
G36*
G01*
X6198380Y-3065460D02*
X6232380Y-3065460D01*
G75*
G02*
X6246380Y-3079460I0J-14000D01*
G01*
X6246380Y-3107460D01*
G75*
G02*
X6232380Y-3121460I-14000J0D01*
G01*
X6198380Y-3121460D01*
G75*
G02*
X6184380Y-3107460I0J14000D01*
G01*
X6184380Y-3079460D01*
G75*
G02*
X6198380Y-3065460I14000J0D01*
G01*
G37*
G04 #@! TD.AperFunction*
G04 #@! TA.AperFunction,SMDPad,CuDef*
G36*
G01*
X6198380Y-2969460D02*
X6232380Y-2969460D01*
G75*
G02*
X6246380Y-2983460I0J-14000D01*
G01*
X6246380Y-3011460D01*
G75*
G02*
X6232380Y-3025460I-14000J0D01*
G01*
X6198380Y-3025460D01*
G75*
G02*
X6184380Y-3011460I0J14000D01*
G01*
X6184380Y-2983460D01*
G75*
G02*
X6198380Y-2969460I14000J0D01*
G01*
G37*
G04 #@! TD.AperFunction*
D15*
X3476380Y-3501460D03*
X3476380Y-3351460D03*
X3366380Y-3351460D03*
X3366380Y-3501460D03*
D16*
X4539680Y-3776760D03*
X4539680Y-3921760D03*
X4424680Y-3921760D03*
X4424680Y-3776760D03*
D17*
X5493280Y-3726460D03*
X5493280Y-3976460D03*
G04 #@! TA.AperFunction,SMDPad,CuDef*
G36*
G01*
X6012380Y-2979260D02*
X6037380Y-2979260D01*
G75*
G02*
X6049880Y-2991760I0J-12500D01*
G01*
X6049880Y-3041760D01*
G75*
G02*
X6037380Y-3054260I-12500J0D01*
G01*
X6012380Y-3054260D01*
G75*
G02*
X5999880Y-3041760I0J12500D01*
G01*
X5999880Y-2991760D01*
G75*
G02*
X6012380Y-2979260I12500J0D01*
G01*
G37*
G04 #@! TD.AperFunction*
G04 #@! TA.AperFunction,SMDPad,CuDef*
G36*
G01*
X5885380Y-2979260D02*
X5910380Y-2979260D01*
G75*
G02*
X5922880Y-2991760I0J-12500D01*
G01*
X5922880Y-3041760D01*
G75*
G02*
X5910380Y-3054260I-12500J0D01*
G01*
X5885380Y-3054260D01*
G75*
G02*
X5872880Y-3041760I0J12500D01*
G01*
X5872880Y-2991760D01*
G75*
G02*
X5885380Y-2979260I12500J0D01*
G01*
G37*
G04 #@! TD.AperFunction*
G04 #@! TA.AperFunction,SMDPad,CuDef*
G36*
G01*
X5758380Y-2979260D02*
X5783380Y-2979260D01*
G75*
G02*
X5795880Y-2991760I0J-12500D01*
G01*
X5795880Y-3041760D01*
G75*
G02*
X5783380Y-3054260I-12500J0D01*
G01*
X5758380Y-3054260D01*
G75*
G02*
X5745880Y-3041760I0J12500D01*
G01*
X5745880Y-2991760D01*
G75*
G02*
X5758380Y-2979260I12500J0D01*
G01*
G37*
G04 #@! TD.AperFunction*
G04 #@! TA.AperFunction,SMDPad,CuDef*
G36*
G01*
X5631380Y-2979260D02*
X5656380Y-2979260D01*
G75*
G02*
X5668880Y-2991760I0J-12500D01*
G01*
X5668880Y-3041760D01*
G75*
G02*
X5656380Y-3054260I-12500J0D01*
G01*
X5631380Y-3054260D01*
G75*
G02*
X5618880Y-3041760I0J12500D01*
G01*
X5618880Y-2991760D01*
G75*
G02*
X5631380Y-2979260I12500J0D01*
G01*
G37*
G04 #@! TD.AperFunction*
G04 #@! TA.AperFunction,SMDPad,CuDef*
G36*
G01*
X5631380Y-3519260D02*
X5656380Y-3519260D01*
G75*
G02*
X5668880Y-3531760I0J-12500D01*
G01*
X5668880Y-3581760D01*
G75*
G02*
X5656380Y-3594260I-12500J0D01*
G01*
X5631380Y-3594260D01*
G75*
G02*
X5618880Y-3581760I0J12500D01*
G01*
X5618880Y-3531760D01*
G75*
G02*
X5631380Y-3519260I12500J0D01*
G01*
G37*
G04 #@! TD.AperFunction*
G04 #@! TA.AperFunction,SMDPad,CuDef*
G36*
G01*
X5758380Y-3519260D02*
X5783380Y-3519260D01*
G75*
G02*
X5795880Y-3531760I0J-12500D01*
G01*
X5795880Y-3581760D01*
G75*
G02*
X5783380Y-3594260I-12500J0D01*
G01*
X5758380Y-3594260D01*
G75*
G02*
X5745880Y-3581760I0J12500D01*
G01*
X5745880Y-3531760D01*
G75*
G02*
X5758380Y-3519260I12500J0D01*
G01*
G37*
G04 #@! TD.AperFunction*
G04 #@! TA.AperFunction,SMDPad,CuDef*
G36*
G01*
X5885380Y-3519260D02*
X5910380Y-3519260D01*
G75*
G02*
X5922880Y-3531760I0J-12500D01*
G01*
X5922880Y-3581760D01*
G75*
G02*
X5910380Y-3594260I-12500J0D01*
G01*
X5885380Y-3594260D01*
G75*
G02*
X5872880Y-3581760I0J12500D01*
G01*
X5872880Y-3531760D01*
G75*
G02*
X5885380Y-3519260I12500J0D01*
G01*
G37*
G04 #@! TD.AperFunction*
G04 #@! TA.AperFunction,SMDPad,CuDef*
G36*
G01*
X6012380Y-3519260D02*
X6037380Y-3519260D01*
G75*
G02*
X6049880Y-3531760I0J-12500D01*
G01*
X6049880Y-3581760D01*
G75*
G02*
X6037380Y-3594260I-12500J0D01*
G01*
X6012380Y-3594260D01*
G75*
G02*
X5999880Y-3581760I0J12500D01*
G01*
X5999880Y-3531760D01*
G75*
G02*
X6012380Y-3519260I12500J0D01*
G01*
G37*
G04 #@! TD.AperFunction*
D18*
X5834380Y-3286760D03*
G04 #@! TA.AperFunction,SMDPad,CuDef*
G36*
G01*
X5317580Y-3677560D02*
X5317580Y-3691560D01*
G75*
G02*
X5314580Y-3694560I-3000J0D01*
G01*
X5255580Y-3694560D01*
G75*
G02*
X5252580Y-3691560I0J3000D01*
G01*
X5252580Y-3677560D01*
G75*
G02*
X5255580Y-3674560I3000J0D01*
G01*
X5314580Y-3674560D01*
G75*
G02*
X5317580Y-3677560I0J-3000D01*
G01*
G37*
G04 #@! TD.AperFunction*
G04 #@! TA.AperFunction,SMDPad,CuDef*
G36*
G01*
X5317580Y-3637560D02*
X5317580Y-3651560D01*
G75*
G02*
X5314580Y-3654560I-3000J0D01*
G01*
X5255580Y-3654560D01*
G75*
G02*
X5252580Y-3651560I0J3000D01*
G01*
X5252580Y-3637560D01*
G75*
G02*
X5255580Y-3634560I3000J0D01*
G01*
X5314580Y-3634560D01*
G75*
G02*
X5317580Y-3637560I0J-3000D01*
G01*
G37*
G04 #@! TD.AperFunction*
G04 #@! TA.AperFunction,SMDPad,CuDef*
G36*
G01*
X5317580Y-3597560D02*
X5317580Y-3611560D01*
G75*
G02*
X5314580Y-3614560I-3000J0D01*
G01*
X5255580Y-3614560D01*
G75*
G02*
X5252580Y-3611560I0J3000D01*
G01*
X5252580Y-3597560D01*
G75*
G02*
X5255580Y-3594560I3000J0D01*
G01*
X5314580Y-3594560D01*
G75*
G02*
X5317580Y-3597560I0J-3000D01*
G01*
G37*
G04 #@! TD.AperFunction*
G04 #@! TA.AperFunction,SMDPad,CuDef*
G36*
G01*
X5317580Y-3557560D02*
X5317580Y-3571560D01*
G75*
G02*
X5314580Y-3574560I-3000J0D01*
G01*
X5255580Y-3574560D01*
G75*
G02*
X5252580Y-3571560I0J3000D01*
G01*
X5252580Y-3557560D01*
G75*
G02*
X5255580Y-3554560I3000J0D01*
G01*
X5314580Y-3554560D01*
G75*
G02*
X5317580Y-3557560I0J-3000D01*
G01*
G37*
G04 #@! TD.AperFunction*
G04 #@! TA.AperFunction,SMDPad,CuDef*
G36*
G01*
X5317580Y-3517560D02*
X5317580Y-3531560D01*
G75*
G02*
X5314580Y-3534560I-3000J0D01*
G01*
X5255580Y-3534560D01*
G75*
G02*
X5252580Y-3531560I0J3000D01*
G01*
X5252580Y-3517560D01*
G75*
G02*
X5255580Y-3514560I3000J0D01*
G01*
X5314580Y-3514560D01*
G75*
G02*
X5317580Y-3517560I0J-3000D01*
G01*
G37*
G04 #@! TD.AperFunction*
G04 #@! TA.AperFunction,SMDPad,CuDef*
G36*
G01*
X5317580Y-3477560D02*
X5317580Y-3491560D01*
G75*
G02*
X5314580Y-3494560I-3000J0D01*
G01*
X5255580Y-3494560D01*
G75*
G02*
X5252580Y-3491560I0J3000D01*
G01*
X5252580Y-3477560D01*
G75*
G02*
X5255580Y-3474560I3000J0D01*
G01*
X5314580Y-3474560D01*
G75*
G02*
X5317580Y-3477560I0J-3000D01*
G01*
G37*
G04 #@! TD.AperFunction*
G04 #@! TA.AperFunction,SMDPad,CuDef*
G36*
G01*
X5317580Y-3437560D02*
X5317580Y-3451560D01*
G75*
G02*
X5314580Y-3454560I-3000J0D01*
G01*
X5255580Y-3454560D01*
G75*
G02*
X5252580Y-3451560I0J3000D01*
G01*
X5252580Y-3437560D01*
G75*
G02*
X5255580Y-3434560I3000J0D01*
G01*
X5314580Y-3434560D01*
G75*
G02*
X5317580Y-3437560I0J-3000D01*
G01*
G37*
G04 #@! TD.AperFunction*
G04 #@! TA.AperFunction,SMDPad,CuDef*
G36*
G01*
X5317580Y-3397560D02*
X5317580Y-3411560D01*
G75*
G02*
X5314580Y-3414560I-3000J0D01*
G01*
X5255580Y-3414560D01*
G75*
G02*
X5252580Y-3411560I0J3000D01*
G01*
X5252580Y-3397560D01*
G75*
G02*
X5255580Y-3394560I3000J0D01*
G01*
X5314580Y-3394560D01*
G75*
G02*
X5317580Y-3397560I0J-3000D01*
G01*
G37*
G04 #@! TD.AperFunction*
G04 #@! TA.AperFunction,SMDPad,CuDef*
G36*
G01*
X5317580Y-3357560D02*
X5317580Y-3371560D01*
G75*
G02*
X5314580Y-3374560I-3000J0D01*
G01*
X5255580Y-3374560D01*
G75*
G02*
X5252580Y-3371560I0J3000D01*
G01*
X5252580Y-3357560D01*
G75*
G02*
X5255580Y-3354560I3000J0D01*
G01*
X5314580Y-3354560D01*
G75*
G02*
X5317580Y-3357560I0J-3000D01*
G01*
G37*
G04 #@! TD.AperFunction*
G04 #@! TA.AperFunction,SMDPad,CuDef*
G36*
G01*
X5317580Y-3317560D02*
X5317580Y-3331560D01*
G75*
G02*
X5314580Y-3334560I-3000J0D01*
G01*
X5255580Y-3334560D01*
G75*
G02*
X5252580Y-3331560I0J3000D01*
G01*
X5252580Y-3317560D01*
G75*
G02*
X5255580Y-3314560I3000J0D01*
G01*
X5314580Y-3314560D01*
G75*
G02*
X5317580Y-3317560I0J-3000D01*
G01*
G37*
G04 #@! TD.AperFunction*
G04 #@! TA.AperFunction,SMDPad,CuDef*
G36*
G01*
X5317580Y-3277560D02*
X5317580Y-3291560D01*
G75*
G02*
X5314580Y-3294560I-3000J0D01*
G01*
X5255580Y-3294560D01*
G75*
G02*
X5252580Y-3291560I0J3000D01*
G01*
X5252580Y-3277560D01*
G75*
G02*
X5255580Y-3274560I3000J0D01*
G01*
X5314580Y-3274560D01*
G75*
G02*
X5317580Y-3277560I0J-3000D01*
G01*
G37*
G04 #@! TD.AperFunction*
G04 #@! TA.AperFunction,SMDPad,CuDef*
G36*
G01*
X5317580Y-3237560D02*
X5317580Y-3251560D01*
G75*
G02*
X5314580Y-3254560I-3000J0D01*
G01*
X5255580Y-3254560D01*
G75*
G02*
X5252580Y-3251560I0J3000D01*
G01*
X5252580Y-3237560D01*
G75*
G02*
X5255580Y-3234560I3000J0D01*
G01*
X5314580Y-3234560D01*
G75*
G02*
X5317580Y-3237560I0J-3000D01*
G01*
G37*
G04 #@! TD.AperFunction*
G04 #@! TA.AperFunction,SMDPad,CuDef*
G36*
G01*
X5198080Y-3132060D02*
X5212080Y-3132060D01*
G75*
G02*
X5215080Y-3135060I0J-3000D01*
G01*
X5215080Y-3194060D01*
G75*
G02*
X5212080Y-3197060I-3000J0D01*
G01*
X5198080Y-3197060D01*
G75*
G02*
X5195080Y-3194060I0J3000D01*
G01*
X5195080Y-3135060D01*
G75*
G02*
X5198080Y-3132060I3000J0D01*
G01*
G37*
G04 #@! TD.AperFunction*
G04 #@! TA.AperFunction,SMDPad,CuDef*
G36*
G01*
X5158080Y-3132060D02*
X5172080Y-3132060D01*
G75*
G02*
X5175080Y-3135060I0J-3000D01*
G01*
X5175080Y-3194060D01*
G75*
G02*
X5172080Y-3197060I-3000J0D01*
G01*
X5158080Y-3197060D01*
G75*
G02*
X5155080Y-3194060I0J3000D01*
G01*
X5155080Y-3135060D01*
G75*
G02*
X5158080Y-3132060I3000J0D01*
G01*
G37*
G04 #@! TD.AperFunction*
G04 #@! TA.AperFunction,SMDPad,CuDef*
G36*
G01*
X5118080Y-3132060D02*
X5132080Y-3132060D01*
G75*
G02*
X5135080Y-3135060I0J-3000D01*
G01*
X5135080Y-3194060D01*
G75*
G02*
X5132080Y-3197060I-3000J0D01*
G01*
X5118080Y-3197060D01*
G75*
G02*
X5115080Y-3194060I0J3000D01*
G01*
X5115080Y-3135060D01*
G75*
G02*
X5118080Y-3132060I3000J0D01*
G01*
G37*
G04 #@! TD.AperFunction*
G04 #@! TA.AperFunction,SMDPad,CuDef*
G36*
G01*
X5078080Y-3132060D02*
X5092080Y-3132060D01*
G75*
G02*
X5095080Y-3135060I0J-3000D01*
G01*
X5095080Y-3194060D01*
G75*
G02*
X5092080Y-3197060I-3000J0D01*
G01*
X5078080Y-3197060D01*
G75*
G02*
X5075080Y-3194060I0J3000D01*
G01*
X5075080Y-3135060D01*
G75*
G02*
X5078080Y-3132060I3000J0D01*
G01*
G37*
G04 #@! TD.AperFunction*
G04 #@! TA.AperFunction,SMDPad,CuDef*
G36*
G01*
X5038080Y-3132060D02*
X5052080Y-3132060D01*
G75*
G02*
X5055080Y-3135060I0J-3000D01*
G01*
X5055080Y-3194060D01*
G75*
G02*
X5052080Y-3197060I-3000J0D01*
G01*
X5038080Y-3197060D01*
G75*
G02*
X5035080Y-3194060I0J3000D01*
G01*
X5035080Y-3135060D01*
G75*
G02*
X5038080Y-3132060I3000J0D01*
G01*
G37*
G04 #@! TD.AperFunction*
G04 #@! TA.AperFunction,SMDPad,CuDef*
G36*
G01*
X4998080Y-3132060D02*
X5012080Y-3132060D01*
G75*
G02*
X5015080Y-3135060I0J-3000D01*
G01*
X5015080Y-3194060D01*
G75*
G02*
X5012080Y-3197060I-3000J0D01*
G01*
X4998080Y-3197060D01*
G75*
G02*
X4995080Y-3194060I0J3000D01*
G01*
X4995080Y-3135060D01*
G75*
G02*
X4998080Y-3132060I3000J0D01*
G01*
G37*
G04 #@! TD.AperFunction*
G04 #@! TA.AperFunction,SMDPad,CuDef*
G36*
G01*
X4958080Y-3132060D02*
X4972080Y-3132060D01*
G75*
G02*
X4975080Y-3135060I0J-3000D01*
G01*
X4975080Y-3194060D01*
G75*
G02*
X4972080Y-3197060I-3000J0D01*
G01*
X4958080Y-3197060D01*
G75*
G02*
X4955080Y-3194060I0J3000D01*
G01*
X4955080Y-3135060D01*
G75*
G02*
X4958080Y-3132060I3000J0D01*
G01*
G37*
G04 #@! TD.AperFunction*
G04 #@! TA.AperFunction,SMDPad,CuDef*
G36*
G01*
X4918080Y-3132060D02*
X4932080Y-3132060D01*
G75*
G02*
X4935080Y-3135060I0J-3000D01*
G01*
X4935080Y-3194060D01*
G75*
G02*
X4932080Y-3197060I-3000J0D01*
G01*
X4918080Y-3197060D01*
G75*
G02*
X4915080Y-3194060I0J3000D01*
G01*
X4915080Y-3135060D01*
G75*
G02*
X4918080Y-3132060I3000J0D01*
G01*
G37*
G04 #@! TD.AperFunction*
G04 #@! TA.AperFunction,SMDPad,CuDef*
G36*
G01*
X4878080Y-3132060D02*
X4892080Y-3132060D01*
G75*
G02*
X4895080Y-3135060I0J-3000D01*
G01*
X4895080Y-3194060D01*
G75*
G02*
X4892080Y-3197060I-3000J0D01*
G01*
X4878080Y-3197060D01*
G75*
G02*
X4875080Y-3194060I0J3000D01*
G01*
X4875080Y-3135060D01*
G75*
G02*
X4878080Y-3132060I3000J0D01*
G01*
G37*
G04 #@! TD.AperFunction*
G04 #@! TA.AperFunction,SMDPad,CuDef*
G36*
G01*
X4838080Y-3132060D02*
X4852080Y-3132060D01*
G75*
G02*
X4855080Y-3135060I0J-3000D01*
G01*
X4855080Y-3194060D01*
G75*
G02*
X4852080Y-3197060I-3000J0D01*
G01*
X4838080Y-3197060D01*
G75*
G02*
X4835080Y-3194060I0J3000D01*
G01*
X4835080Y-3135060D01*
G75*
G02*
X4838080Y-3132060I3000J0D01*
G01*
G37*
G04 #@! TD.AperFunction*
G04 #@! TA.AperFunction,SMDPad,CuDef*
G36*
G01*
X4798080Y-3132060D02*
X4812080Y-3132060D01*
G75*
G02*
X4815080Y-3135060I0J-3000D01*
G01*
X4815080Y-3194060D01*
G75*
G02*
X4812080Y-3197060I-3000J0D01*
G01*
X4798080Y-3197060D01*
G75*
G02*
X4795080Y-3194060I0J3000D01*
G01*
X4795080Y-3135060D01*
G75*
G02*
X4798080Y-3132060I3000J0D01*
G01*
G37*
G04 #@! TD.AperFunction*
G04 #@! TA.AperFunction,SMDPad,CuDef*
G36*
G01*
X4758080Y-3132060D02*
X4772080Y-3132060D01*
G75*
G02*
X4775080Y-3135060I0J-3000D01*
G01*
X4775080Y-3194060D01*
G75*
G02*
X4772080Y-3197060I-3000J0D01*
G01*
X4758080Y-3197060D01*
G75*
G02*
X4755080Y-3194060I0J3000D01*
G01*
X4755080Y-3135060D01*
G75*
G02*
X4758080Y-3132060I3000J0D01*
G01*
G37*
G04 #@! TD.AperFunction*
G04 #@! TA.AperFunction,SMDPad,CuDef*
G36*
G01*
X4652580Y-3251560D02*
X4652580Y-3237560D01*
G75*
G02*
X4655580Y-3234560I3000J0D01*
G01*
X4714580Y-3234560D01*
G75*
G02*
X4717580Y-3237560I0J-3000D01*
G01*
X4717580Y-3251560D01*
G75*
G02*
X4714580Y-3254560I-3000J0D01*
G01*
X4655580Y-3254560D01*
G75*
G02*
X4652580Y-3251560I0J3000D01*
G01*
G37*
G04 #@! TD.AperFunction*
G04 #@! TA.AperFunction,SMDPad,CuDef*
G36*
G01*
X4652580Y-3291560D02*
X4652580Y-3277560D01*
G75*
G02*
X4655580Y-3274560I3000J0D01*
G01*
X4714580Y-3274560D01*
G75*
G02*
X4717580Y-3277560I0J-3000D01*
G01*
X4717580Y-3291560D01*
G75*
G02*
X4714580Y-3294560I-3000J0D01*
G01*
X4655580Y-3294560D01*
G75*
G02*
X4652580Y-3291560I0J3000D01*
G01*
G37*
G04 #@! TD.AperFunction*
G04 #@! TA.AperFunction,SMDPad,CuDef*
G36*
G01*
X4652580Y-3331560D02*
X4652580Y-3317560D01*
G75*
G02*
X4655580Y-3314560I3000J0D01*
G01*
X4714580Y-3314560D01*
G75*
G02*
X4717580Y-3317560I0J-3000D01*
G01*
X4717580Y-3331560D01*
G75*
G02*
X4714580Y-3334560I-3000J0D01*
G01*
X4655580Y-3334560D01*
G75*
G02*
X4652580Y-3331560I0J3000D01*
G01*
G37*
G04 #@! TD.AperFunction*
G04 #@! TA.AperFunction,SMDPad,CuDef*
G36*
G01*
X4652580Y-3371560D02*
X4652580Y-3357560D01*
G75*
G02*
X4655580Y-3354560I3000J0D01*
G01*
X4714580Y-3354560D01*
G75*
G02*
X4717580Y-3357560I0J-3000D01*
G01*
X4717580Y-3371560D01*
G75*
G02*
X4714580Y-3374560I-3000J0D01*
G01*
X4655580Y-3374560D01*
G75*
G02*
X4652580Y-3371560I0J3000D01*
G01*
G37*
G04 #@! TD.AperFunction*
G04 #@! TA.AperFunction,SMDPad,CuDef*
G36*
G01*
X4652580Y-3411560D02*
X4652580Y-3397560D01*
G75*
G02*
X4655580Y-3394560I3000J0D01*
G01*
X4714580Y-3394560D01*
G75*
G02*
X4717580Y-3397560I0J-3000D01*
G01*
X4717580Y-3411560D01*
G75*
G02*
X4714580Y-3414560I-3000J0D01*
G01*
X4655580Y-3414560D01*
G75*
G02*
X4652580Y-3411560I0J3000D01*
G01*
G37*
G04 #@! TD.AperFunction*
G04 #@! TA.AperFunction,SMDPad,CuDef*
G36*
G01*
X4652580Y-3451560D02*
X4652580Y-3437560D01*
G75*
G02*
X4655580Y-3434560I3000J0D01*
G01*
X4714580Y-3434560D01*
G75*
G02*
X4717580Y-3437560I0J-3000D01*
G01*
X4717580Y-3451560D01*
G75*
G02*
X4714580Y-3454560I-3000J0D01*
G01*
X4655580Y-3454560D01*
G75*
G02*
X4652580Y-3451560I0J3000D01*
G01*
G37*
G04 #@! TD.AperFunction*
G04 #@! TA.AperFunction,SMDPad,CuDef*
G36*
G01*
X4652580Y-3491560D02*
X4652580Y-3477560D01*
G75*
G02*
X4655580Y-3474560I3000J0D01*
G01*
X4714580Y-3474560D01*
G75*
G02*
X4717580Y-3477560I0J-3000D01*
G01*
X4717580Y-3491560D01*
G75*
G02*
X4714580Y-3494560I-3000J0D01*
G01*
X4655580Y-3494560D01*
G75*
G02*
X4652580Y-3491560I0J3000D01*
G01*
G37*
G04 #@! TD.AperFunction*
G04 #@! TA.AperFunction,SMDPad,CuDef*
G36*
G01*
X4652580Y-3531560D02*
X4652580Y-3517560D01*
G75*
G02*
X4655580Y-3514560I3000J0D01*
G01*
X4714580Y-3514560D01*
G75*
G02*
X4717580Y-3517560I0J-3000D01*
G01*
X4717580Y-3531560D01*
G75*
G02*
X4714580Y-3534560I-3000J0D01*
G01*
X4655580Y-3534560D01*
G75*
G02*
X4652580Y-3531560I0J3000D01*
G01*
G37*
G04 #@! TD.AperFunction*
G04 #@! TA.AperFunction,SMDPad,CuDef*
G36*
G01*
X4652580Y-3571560D02*
X4652580Y-3557560D01*
G75*
G02*
X4655580Y-3554560I3000J0D01*
G01*
X4714580Y-3554560D01*
G75*
G02*
X4717580Y-3557560I0J-3000D01*
G01*
X4717580Y-3571560D01*
G75*
G02*
X4714580Y-3574560I-3000J0D01*
G01*
X4655580Y-3574560D01*
G75*
G02*
X4652580Y-3571560I0J3000D01*
G01*
G37*
G04 #@! TD.AperFunction*
G04 #@! TA.AperFunction,SMDPad,CuDef*
G36*
G01*
X4652580Y-3611560D02*
X4652580Y-3597560D01*
G75*
G02*
X4655580Y-3594560I3000J0D01*
G01*
X4714580Y-3594560D01*
G75*
G02*
X4717580Y-3597560I0J-3000D01*
G01*
X4717580Y-3611560D01*
G75*
G02*
X4714580Y-3614560I-3000J0D01*
G01*
X4655580Y-3614560D01*
G75*
G02*
X4652580Y-3611560I0J3000D01*
G01*
G37*
G04 #@! TD.AperFunction*
G04 #@! TA.AperFunction,SMDPad,CuDef*
G36*
G01*
X4652580Y-3651560D02*
X4652580Y-3637560D01*
G75*
G02*
X4655580Y-3634560I3000J0D01*
G01*
X4714580Y-3634560D01*
G75*
G02*
X4717580Y-3637560I0J-3000D01*
G01*
X4717580Y-3651560D01*
G75*
G02*
X4714580Y-3654560I-3000J0D01*
G01*
X4655580Y-3654560D01*
G75*
G02*
X4652580Y-3651560I0J3000D01*
G01*
G37*
G04 #@! TD.AperFunction*
G04 #@! TA.AperFunction,SMDPad,CuDef*
G36*
G01*
X4652580Y-3691560D02*
X4652580Y-3677560D01*
G75*
G02*
X4655580Y-3674560I3000J0D01*
G01*
X4714580Y-3674560D01*
G75*
G02*
X4717580Y-3677560I0J-3000D01*
G01*
X4717580Y-3691560D01*
G75*
G02*
X4714580Y-3694560I-3000J0D01*
G01*
X4655580Y-3694560D01*
G75*
G02*
X4652580Y-3691560I0J3000D01*
G01*
G37*
G04 #@! TD.AperFunction*
G04 #@! TA.AperFunction,SMDPad,CuDef*
G36*
G01*
X4772080Y-3797060D02*
X4758080Y-3797060D01*
G75*
G02*
X4755080Y-3794060I0J3000D01*
G01*
X4755080Y-3735060D01*
G75*
G02*
X4758080Y-3732060I3000J0D01*
G01*
X4772080Y-3732060D01*
G75*
G02*
X4775080Y-3735060I0J-3000D01*
G01*
X4775080Y-3794060D01*
G75*
G02*
X4772080Y-3797060I-3000J0D01*
G01*
G37*
G04 #@! TD.AperFunction*
G04 #@! TA.AperFunction,SMDPad,CuDef*
G36*
G01*
X4812080Y-3797060D02*
X4798080Y-3797060D01*
G75*
G02*
X4795080Y-3794060I0J3000D01*
G01*
X4795080Y-3735060D01*
G75*
G02*
X4798080Y-3732060I3000J0D01*
G01*
X4812080Y-3732060D01*
G75*
G02*
X4815080Y-3735060I0J-3000D01*
G01*
X4815080Y-3794060D01*
G75*
G02*
X4812080Y-3797060I-3000J0D01*
G01*
G37*
G04 #@! TD.AperFunction*
G04 #@! TA.AperFunction,SMDPad,CuDef*
G36*
G01*
X4852080Y-3797060D02*
X4838080Y-3797060D01*
G75*
G02*
X4835080Y-3794060I0J3000D01*
G01*
X4835080Y-3735060D01*
G75*
G02*
X4838080Y-3732060I3000J0D01*
G01*
X4852080Y-3732060D01*
G75*
G02*
X4855080Y-3735060I0J-3000D01*
G01*
X4855080Y-3794060D01*
G75*
G02*
X4852080Y-3797060I-3000J0D01*
G01*
G37*
G04 #@! TD.AperFunction*
G04 #@! TA.AperFunction,SMDPad,CuDef*
G36*
G01*
X4892080Y-3797060D02*
X4878080Y-3797060D01*
G75*
G02*
X4875080Y-3794060I0J3000D01*
G01*
X4875080Y-3735060D01*
G75*
G02*
X4878080Y-3732060I3000J0D01*
G01*
X4892080Y-3732060D01*
G75*
G02*
X4895080Y-3735060I0J-3000D01*
G01*
X4895080Y-3794060D01*
G75*
G02*
X4892080Y-3797060I-3000J0D01*
G01*
G37*
G04 #@! TD.AperFunction*
G04 #@! TA.AperFunction,SMDPad,CuDef*
G36*
G01*
X4932080Y-3797060D02*
X4918080Y-3797060D01*
G75*
G02*
X4915080Y-3794060I0J3000D01*
G01*
X4915080Y-3735060D01*
G75*
G02*
X4918080Y-3732060I3000J0D01*
G01*
X4932080Y-3732060D01*
G75*
G02*
X4935080Y-3735060I0J-3000D01*
G01*
X4935080Y-3794060D01*
G75*
G02*
X4932080Y-3797060I-3000J0D01*
G01*
G37*
G04 #@! TD.AperFunction*
G04 #@! TA.AperFunction,SMDPad,CuDef*
G36*
G01*
X4972080Y-3797060D02*
X4958080Y-3797060D01*
G75*
G02*
X4955080Y-3794060I0J3000D01*
G01*
X4955080Y-3735060D01*
G75*
G02*
X4958080Y-3732060I3000J0D01*
G01*
X4972080Y-3732060D01*
G75*
G02*
X4975080Y-3735060I0J-3000D01*
G01*
X4975080Y-3794060D01*
G75*
G02*
X4972080Y-3797060I-3000J0D01*
G01*
G37*
G04 #@! TD.AperFunction*
G04 #@! TA.AperFunction,SMDPad,CuDef*
G36*
G01*
X5012080Y-3797060D02*
X4998080Y-3797060D01*
G75*
G02*
X4995080Y-3794060I0J3000D01*
G01*
X4995080Y-3735060D01*
G75*
G02*
X4998080Y-3732060I3000J0D01*
G01*
X5012080Y-3732060D01*
G75*
G02*
X5015080Y-3735060I0J-3000D01*
G01*
X5015080Y-3794060D01*
G75*
G02*
X5012080Y-3797060I-3000J0D01*
G01*
G37*
G04 #@! TD.AperFunction*
G04 #@! TA.AperFunction,SMDPad,CuDef*
G36*
G01*
X5052080Y-3797060D02*
X5038080Y-3797060D01*
G75*
G02*
X5035080Y-3794060I0J3000D01*
G01*
X5035080Y-3735060D01*
G75*
G02*
X5038080Y-3732060I3000J0D01*
G01*
X5052080Y-3732060D01*
G75*
G02*
X5055080Y-3735060I0J-3000D01*
G01*
X5055080Y-3794060D01*
G75*
G02*
X5052080Y-3797060I-3000J0D01*
G01*
G37*
G04 #@! TD.AperFunction*
G04 #@! TA.AperFunction,SMDPad,CuDef*
G36*
G01*
X5092080Y-3797060D02*
X5078080Y-3797060D01*
G75*
G02*
X5075080Y-3794060I0J3000D01*
G01*
X5075080Y-3735060D01*
G75*
G02*
X5078080Y-3732060I3000J0D01*
G01*
X5092080Y-3732060D01*
G75*
G02*
X5095080Y-3735060I0J-3000D01*
G01*
X5095080Y-3794060D01*
G75*
G02*
X5092080Y-3797060I-3000J0D01*
G01*
G37*
G04 #@! TD.AperFunction*
G04 #@! TA.AperFunction,SMDPad,CuDef*
G36*
G01*
X5132080Y-3797060D02*
X5118080Y-3797060D01*
G75*
G02*
X5115080Y-3794060I0J3000D01*
G01*
X5115080Y-3735060D01*
G75*
G02*
X5118080Y-3732060I3000J0D01*
G01*
X5132080Y-3732060D01*
G75*
G02*
X5135080Y-3735060I0J-3000D01*
G01*
X5135080Y-3794060D01*
G75*
G02*
X5132080Y-3797060I-3000J0D01*
G01*
G37*
G04 #@! TD.AperFunction*
G04 #@! TA.AperFunction,SMDPad,CuDef*
G36*
G01*
X5172080Y-3797060D02*
X5158080Y-3797060D01*
G75*
G02*
X5155080Y-3794060I0J3000D01*
G01*
X5155080Y-3735060D01*
G75*
G02*
X5158080Y-3732060I3000J0D01*
G01*
X5172080Y-3732060D01*
G75*
G02*
X5175080Y-3735060I0J-3000D01*
G01*
X5175080Y-3794060D01*
G75*
G02*
X5172080Y-3797060I-3000J0D01*
G01*
G37*
G04 #@! TD.AperFunction*
G04 #@! TA.AperFunction,SMDPad,CuDef*
G36*
G01*
X5212080Y-3797060D02*
X5198080Y-3797060D01*
G75*
G02*
X5195080Y-3794060I0J3000D01*
G01*
X5195080Y-3735060D01*
G75*
G02*
X5198080Y-3732060I3000J0D01*
G01*
X5212080Y-3732060D01*
G75*
G02*
X5215080Y-3735060I0J-3000D01*
G01*
X5215080Y-3794060D01*
G75*
G02*
X5212080Y-3797060I-3000J0D01*
G01*
G37*
G04 #@! TD.AperFunction*
D19*
X4985080Y-3464560D03*
D20*
X5165080Y-3644560D03*
X5165080Y-3524560D03*
X5165080Y-3404560D03*
X5165080Y-3284560D03*
X5045080Y-3644560D03*
X5045080Y-3524560D03*
X5045080Y-3404560D03*
X5045080Y-3284560D03*
X4925080Y-3644560D03*
X4925080Y-3524560D03*
X4925080Y-3404560D03*
X4925080Y-3284560D03*
X4805080Y-3644560D03*
X4805080Y-3524560D03*
X4805080Y-3404560D03*
X4805080Y-3284560D03*
D21*
X3359080Y-3184360D03*
D22*
X3409080Y-3184360D03*
D21*
X3509080Y-3184360D03*
D22*
X3459080Y-3184360D03*
D21*
X3359080Y-3084360D03*
D22*
X3459080Y-3084360D03*
X3409080Y-3084360D03*
D21*
X3509080Y-3084360D03*
G04 #@! TA.AperFunction,SMDPad,CuDef*
G36*
G01*
X4492480Y-3244160D02*
X4458480Y-3244160D01*
G75*
G02*
X4444480Y-3230160I0J14000D01*
G01*
X4444480Y-3202160D01*
G75*
G02*
X4458480Y-3188160I14000J0D01*
G01*
X4492480Y-3188160D01*
G75*
G02*
X4506480Y-3202160I0J-14000D01*
G01*
X4506480Y-3230160D01*
G75*
G02*
X4492480Y-3244160I-14000J0D01*
G01*
G37*
G04 #@! TD.AperFunction*
G04 #@! TA.AperFunction,SMDPad,CuDef*
G36*
G01*
X4492480Y-3340160D02*
X4458480Y-3340160D01*
G75*
G02*
X4444480Y-3326160I0J14000D01*
G01*
X4444480Y-3298160D01*
G75*
G02*
X4458480Y-3284160I14000J0D01*
G01*
X4492480Y-3284160D01*
G75*
G02*
X4506480Y-3298160I0J-14000D01*
G01*
X4506480Y-3326160D01*
G75*
G02*
X4492480Y-3340160I-14000J0D01*
G01*
G37*
G04 #@! TD.AperFunction*
G04 #@! TA.AperFunction,SMDPad,CuDef*
G36*
G01*
X3223580Y-3714260D02*
X3223580Y-3748260D01*
G75*
G02*
X3209580Y-3762260I-14000J0D01*
G01*
X3181580Y-3762260D01*
G75*
G02*
X3167580Y-3748260I0J14000D01*
G01*
X3167580Y-3714260D01*
G75*
G02*
X3181580Y-3700260I14000J0D01*
G01*
X3209580Y-3700260D01*
G75*
G02*
X3223580Y-3714260I0J-14000D01*
G01*
G37*
G04 #@! TD.AperFunction*
G04 #@! TA.AperFunction,SMDPad,CuDef*
G36*
G01*
X3319580Y-3714260D02*
X3319580Y-3748260D01*
G75*
G02*
X3305580Y-3762260I-14000J0D01*
G01*
X3277580Y-3762260D01*
G75*
G02*
X3263580Y-3748260I0J14000D01*
G01*
X3263580Y-3714260D01*
G75*
G02*
X3277580Y-3700260I14000J0D01*
G01*
X3305580Y-3700260D01*
G75*
G02*
X3319580Y-3714260I0J-14000D01*
G01*
G37*
G04 #@! TD.AperFunction*
G04 #@! TA.AperFunction,SMDPad,CuDef*
G36*
G01*
X6830380Y-3303060D02*
X6830380Y-3337060D01*
G75*
G02*
X6816380Y-3351060I-14000J0D01*
G01*
X6788380Y-3351060D01*
G75*
G02*
X6774380Y-3337060I0J14000D01*
G01*
X6774380Y-3303060D01*
G75*
G02*
X6788380Y-3289060I14000J0D01*
G01*
X6816380Y-3289060D01*
G75*
G02*
X6830380Y-3303060I0J-14000D01*
G01*
G37*
G04 #@! TD.AperFunction*
G04 #@! TA.AperFunction,SMDPad,CuDef*
G36*
G01*
X6926380Y-3303060D02*
X6926380Y-3337060D01*
G75*
G02*
X6912380Y-3351060I-14000J0D01*
G01*
X6884380Y-3351060D01*
G75*
G02*
X6870380Y-3337060I0J14000D01*
G01*
X6870380Y-3303060D01*
G75*
G02*
X6884380Y-3289060I14000J0D01*
G01*
X6912380Y-3289060D01*
G75*
G02*
X6926380Y-3303060I0J-14000D01*
G01*
G37*
G04 #@! TD.AperFunction*
G04 #@! TA.AperFunction,SMDPad,CuDef*
G36*
G01*
X6055680Y-3663460D02*
X6055680Y-3697460D01*
G75*
G02*
X6041680Y-3711460I-14000J0D01*
G01*
X6013680Y-3711460D01*
G75*
G02*
X5999680Y-3697460I0J14000D01*
G01*
X5999680Y-3663460D01*
G75*
G02*
X6013680Y-3649460I14000J0D01*
G01*
X6041680Y-3649460D01*
G75*
G02*
X6055680Y-3663460I0J-14000D01*
G01*
G37*
G04 #@! TD.AperFunction*
G04 #@! TA.AperFunction,SMDPad,CuDef*
G36*
G01*
X6151680Y-3663460D02*
X6151680Y-3697460D01*
G75*
G02*
X6137680Y-3711460I-14000J0D01*
G01*
X6109680Y-3711460D01*
G75*
G02*
X6095680Y-3697460I0J14000D01*
G01*
X6095680Y-3663460D01*
G75*
G02*
X6109680Y-3649460I14000J0D01*
G01*
X6137680Y-3649460D01*
G75*
G02*
X6151680Y-3663460I0J-14000D01*
G01*
G37*
G04 #@! TD.AperFunction*
G04 #@! TA.AperFunction,SMDPad,CuDef*
G36*
G01*
X6245080Y-3609660D02*
X6211080Y-3609660D01*
G75*
G02*
X6197080Y-3595660I0J14000D01*
G01*
X6197080Y-3567660D01*
G75*
G02*
X6211080Y-3553660I14000J0D01*
G01*
X6245080Y-3553660D01*
G75*
G02*
X6259080Y-3567660I0J-14000D01*
G01*
X6259080Y-3595660D01*
G75*
G02*
X6245080Y-3609660I-14000J0D01*
G01*
G37*
G04 #@! TD.AperFunction*
G04 #@! TA.AperFunction,SMDPad,CuDef*
G36*
G01*
X6245080Y-3705660D02*
X6211080Y-3705660D01*
G75*
G02*
X6197080Y-3691660I0J14000D01*
G01*
X6197080Y-3663660D01*
G75*
G02*
X6211080Y-3649660I14000J0D01*
G01*
X6245080Y-3649660D01*
G75*
G02*
X6259080Y-3663660I0J-14000D01*
G01*
X6259080Y-3691660D01*
G75*
G02*
X6245080Y-3705660I-14000J0D01*
G01*
G37*
G04 #@! TD.AperFunction*
G04 #@! TA.AperFunction,SMDPad,CuDef*
G36*
G01*
X5865180Y-3739660D02*
X5865180Y-3773660D01*
G75*
G02*
X5851180Y-3787660I-14000J0D01*
G01*
X5823180Y-3787660D01*
G75*
G02*
X5809180Y-3773660I0J14000D01*
G01*
X5809180Y-3739660D01*
G75*
G02*
X5823180Y-3725660I14000J0D01*
G01*
X5851180Y-3725660D01*
G75*
G02*
X5865180Y-3739660I0J-14000D01*
G01*
G37*
G04 #@! TD.AperFunction*
G04 #@! TA.AperFunction,SMDPad,CuDef*
G36*
G01*
X5961180Y-3739660D02*
X5961180Y-3773660D01*
G75*
G02*
X5947180Y-3787660I-14000J0D01*
G01*
X5919180Y-3787660D01*
G75*
G02*
X5905180Y-3773660I0J14000D01*
G01*
X5905180Y-3739660D01*
G75*
G02*
X5919180Y-3725660I14000J0D01*
G01*
X5947180Y-3725660D01*
G75*
G02*
X5961180Y-3739660I0J-14000D01*
G01*
G37*
G04 #@! TD.AperFunction*
G04 #@! TA.AperFunction,SMDPad,CuDef*
G36*
G01*
X5673580Y-3723960D02*
X5639580Y-3723960D01*
G75*
G02*
X5625580Y-3709960I0J14000D01*
G01*
X5625580Y-3681960D01*
G75*
G02*
X5639580Y-3667960I14000J0D01*
G01*
X5673580Y-3667960D01*
G75*
G02*
X5687580Y-3681960I0J-14000D01*
G01*
X5687580Y-3709960D01*
G75*
G02*
X5673580Y-3723960I-14000J0D01*
G01*
G37*
G04 #@! TD.AperFunction*
G04 #@! TA.AperFunction,SMDPad,CuDef*
G36*
G01*
X5673580Y-3819960D02*
X5639580Y-3819960D01*
G75*
G02*
X5625580Y-3805960I0J14000D01*
G01*
X5625580Y-3777960D01*
G75*
G02*
X5639580Y-3763960I14000J0D01*
G01*
X5673580Y-3763960D01*
G75*
G02*
X5687580Y-3777960I0J-14000D01*
G01*
X5687580Y-3805960D01*
G75*
G02*
X5673580Y-3819960I-14000J0D01*
G01*
G37*
G04 #@! TD.AperFunction*
G04 #@! TA.AperFunction,SMDPad,CuDef*
G36*
G01*
X5639580Y-3954460D02*
X5673580Y-3954460D01*
G75*
G02*
X5687580Y-3968460I0J-14000D01*
G01*
X5687580Y-3996460D01*
G75*
G02*
X5673580Y-4010460I-14000J0D01*
G01*
X5639580Y-4010460D01*
G75*
G02*
X5625580Y-3996460I0J14000D01*
G01*
X5625580Y-3968460D01*
G75*
G02*
X5639580Y-3954460I14000J0D01*
G01*
G37*
G04 #@! TD.AperFunction*
G04 #@! TA.AperFunction,SMDPad,CuDef*
G36*
G01*
X5639580Y-3858460D02*
X5673580Y-3858460D01*
G75*
G02*
X5687580Y-3872460I0J-14000D01*
G01*
X5687580Y-3900460D01*
G75*
G02*
X5673580Y-3914460I-14000J0D01*
G01*
X5639580Y-3914460D01*
G75*
G02*
X5625580Y-3900460I0J14000D01*
G01*
X5625580Y-3872460D01*
G75*
G02*
X5639580Y-3858460I14000J0D01*
G01*
G37*
G04 #@! TD.AperFunction*
G04 #@! TA.AperFunction,SMDPad,CuDef*
G36*
G01*
X5055380Y-3979860D02*
X5089380Y-3979860D01*
G75*
G02*
X5103380Y-3993860I0J-14000D01*
G01*
X5103380Y-4021860D01*
G75*
G02*
X5089380Y-4035860I-14000J0D01*
G01*
X5055380Y-4035860D01*
G75*
G02*
X5041380Y-4021860I0J14000D01*
G01*
X5041380Y-3993860D01*
G75*
G02*
X5055380Y-3979860I14000J0D01*
G01*
G37*
G04 #@! TD.AperFunction*
G04 #@! TA.AperFunction,SMDPad,CuDef*
G36*
G01*
X5055380Y-3883860D02*
X5089380Y-3883860D01*
G75*
G02*
X5103380Y-3897860I0J-14000D01*
G01*
X5103380Y-3925860D01*
G75*
G02*
X5089380Y-3939860I-14000J0D01*
G01*
X5055380Y-3939860D01*
G75*
G02*
X5041380Y-3925860I0J14000D01*
G01*
X5041380Y-3897860D01*
G75*
G02*
X5055380Y-3883860I14000J0D01*
G01*
G37*
G04 #@! TD.AperFunction*
G04 #@! TA.AperFunction,SMDPad,CuDef*
G36*
G01*
X5156980Y-3979860D02*
X5190980Y-3979860D01*
G75*
G02*
X5204980Y-3993860I0J-14000D01*
G01*
X5204980Y-4021860D01*
G75*
G02*
X5190980Y-4035860I-14000J0D01*
G01*
X5156980Y-4035860D01*
G75*
G02*
X5142980Y-4021860I0J14000D01*
G01*
X5142980Y-3993860D01*
G75*
G02*
X5156980Y-3979860I14000J0D01*
G01*
G37*
G04 #@! TD.AperFunction*
G04 #@! TA.AperFunction,SMDPad,CuDef*
G36*
G01*
X5156980Y-3883860D02*
X5190980Y-3883860D01*
G75*
G02*
X5204980Y-3897860I0J-14000D01*
G01*
X5204980Y-3925860D01*
G75*
G02*
X5190980Y-3939860I-14000J0D01*
G01*
X5156980Y-3939860D01*
G75*
G02*
X5142980Y-3925860I0J14000D01*
G01*
X5142980Y-3897860D01*
G75*
G02*
X5156980Y-3883860I14000J0D01*
G01*
G37*
G04 #@! TD.AperFunction*
G04 #@! TA.AperFunction,SMDPad,CuDef*
G36*
G01*
X4661680Y-3878260D02*
X4695680Y-3878260D01*
G75*
G02*
X4709680Y-3892260I0J-14000D01*
G01*
X4709680Y-3920260D01*
G75*
G02*
X4695680Y-3934260I-14000J0D01*
G01*
X4661680Y-3934260D01*
G75*
G02*
X4647680Y-3920260I0J14000D01*
G01*
X4647680Y-3892260D01*
G75*
G02*
X4661680Y-3878260I14000J0D01*
G01*
G37*
G04 #@! TD.AperFunction*
G04 #@! TA.AperFunction,SMDPad,CuDef*
G36*
G01*
X4661680Y-3782260D02*
X4695680Y-3782260D01*
G75*
G02*
X4709680Y-3796260I0J-14000D01*
G01*
X4709680Y-3824260D01*
G75*
G02*
X4695680Y-3838260I-14000J0D01*
G01*
X4661680Y-3838260D01*
G75*
G02*
X4647680Y-3824260I0J14000D01*
G01*
X4647680Y-3796260D01*
G75*
G02*
X4661680Y-3782260I14000J0D01*
G01*
G37*
G04 #@! TD.AperFunction*
G04 #@! TA.AperFunction,SMDPad,CuDef*
G36*
G01*
X4267780Y-3612660D02*
X4267780Y-3646660D01*
G75*
G02*
X4253780Y-3660660I-14000J0D01*
G01*
X4225780Y-3660660D01*
G75*
G02*
X4211780Y-3646660I0J14000D01*
G01*
X4211780Y-3612660D01*
G75*
G02*
X4225780Y-3598660I14000J0D01*
G01*
X4253780Y-3598660D01*
G75*
G02*
X4267780Y-3612660I0J-14000D01*
G01*
G37*
G04 #@! TD.AperFunction*
G04 #@! TA.AperFunction,SMDPad,CuDef*
G36*
G01*
X4363780Y-3612660D02*
X4363780Y-3646660D01*
G75*
G02*
X4349780Y-3660660I-14000J0D01*
G01*
X4321780Y-3660660D01*
G75*
G02*
X4307780Y-3646660I0J14000D01*
G01*
X4307780Y-3612660D01*
G75*
G02*
X4321780Y-3598660I14000J0D01*
G01*
X4349780Y-3598660D01*
G75*
G02*
X4363780Y-3612660I0J-14000D01*
G01*
G37*
G04 #@! TD.AperFunction*
G04 #@! TA.AperFunction,SMDPad,CuDef*
G36*
G01*
X4267780Y-3511060D02*
X4267780Y-3545060D01*
G75*
G02*
X4253780Y-3559060I-14000J0D01*
G01*
X4225780Y-3559060D01*
G75*
G02*
X4211780Y-3545060I0J14000D01*
G01*
X4211780Y-3511060D01*
G75*
G02*
X4225780Y-3497060I14000J0D01*
G01*
X4253780Y-3497060D01*
G75*
G02*
X4267780Y-3511060I0J-14000D01*
G01*
G37*
G04 #@! TD.AperFunction*
G04 #@! TA.AperFunction,SMDPad,CuDef*
G36*
G01*
X4363780Y-3511060D02*
X4363780Y-3545060D01*
G75*
G02*
X4349780Y-3559060I-14000J0D01*
G01*
X4321780Y-3559060D01*
G75*
G02*
X4307780Y-3545060I0J14000D01*
G01*
X4307780Y-3511060D01*
G75*
G02*
X4321780Y-3497060I14000J0D01*
G01*
X4349780Y-3497060D01*
G75*
G02*
X4363780Y-3511060I0J-14000D01*
G01*
G37*
G04 #@! TD.AperFunction*
G04 #@! TA.AperFunction,SMDPad,CuDef*
G36*
G01*
X5356080Y-3076260D02*
X5322080Y-3076260D01*
G75*
G02*
X5308080Y-3062260I0J14000D01*
G01*
X5308080Y-3034260D01*
G75*
G02*
X5322080Y-3020260I14000J0D01*
G01*
X5356080Y-3020260D01*
G75*
G02*
X5370080Y-3034260I0J-14000D01*
G01*
X5370080Y-3062260D01*
G75*
G02*
X5356080Y-3076260I-14000J0D01*
G01*
G37*
G04 #@! TD.AperFunction*
G04 #@! TA.AperFunction,SMDPad,CuDef*
G36*
G01*
X5356080Y-3172260D02*
X5322080Y-3172260D01*
G75*
G02*
X5308080Y-3158260I0J14000D01*
G01*
X5308080Y-3130260D01*
G75*
G02*
X5322080Y-3116260I14000J0D01*
G01*
X5356080Y-3116260D01*
G75*
G02*
X5370080Y-3130260I0J-14000D01*
G01*
X5370080Y-3158260D01*
G75*
G02*
X5356080Y-3172260I-14000J0D01*
G01*
G37*
G04 #@! TD.AperFunction*
G04 #@! TA.AperFunction,SMDPad,CuDef*
G36*
G01*
X5292580Y-3911660D02*
X5258580Y-3911660D01*
G75*
G02*
X5244580Y-3897660I0J14000D01*
G01*
X5244580Y-3869660D01*
G75*
G02*
X5258580Y-3855660I14000J0D01*
G01*
X5292580Y-3855660D01*
G75*
G02*
X5306580Y-3869660I0J-14000D01*
G01*
X5306580Y-3897660D01*
G75*
G02*
X5292580Y-3911660I-14000J0D01*
G01*
G37*
G04 #@! TD.AperFunction*
G04 #@! TA.AperFunction,SMDPad,CuDef*
G36*
G01*
X5292580Y-4007660D02*
X5258580Y-4007660D01*
G75*
G02*
X5244580Y-3993660I0J14000D01*
G01*
X5244580Y-3965660D01*
G75*
G02*
X5258580Y-3951660I14000J0D01*
G01*
X5292580Y-3951660D01*
G75*
G02*
X5306580Y-3965660I0J-14000D01*
G01*
X5306580Y-3993660D01*
G75*
G02*
X5292580Y-4007660I-14000J0D01*
G01*
G37*
G04 #@! TD.AperFunction*
G04 #@! TA.AperFunction,SMDPad,CuDef*
G36*
G01*
X4454580Y-3430760D02*
X4454580Y-3396760D01*
G75*
G02*
X4468580Y-3382760I14000J0D01*
G01*
X4496580Y-3382760D01*
G75*
G02*
X4510580Y-3396760I0J-14000D01*
G01*
X4510580Y-3430760D01*
G75*
G02*
X4496580Y-3444760I-14000J0D01*
G01*
X4468580Y-3444760D01*
G75*
G02*
X4454580Y-3430760I0J14000D01*
G01*
G37*
G04 #@! TD.AperFunction*
G04 #@! TA.AperFunction,SMDPad,CuDef*
G36*
G01*
X4358580Y-3430760D02*
X4358580Y-3396760D01*
G75*
G02*
X4372580Y-3382760I14000J0D01*
G01*
X4400580Y-3382760D01*
G75*
G02*
X4414580Y-3396760I0J-14000D01*
G01*
X4414580Y-3430760D01*
G75*
G02*
X4400580Y-3444760I-14000J0D01*
G01*
X4372580Y-3444760D01*
G75*
G02*
X4358580Y-3430760I0J14000D01*
G01*
G37*
G04 #@! TD.AperFunction*
G04 #@! TA.AperFunction,SMDPad,CuDef*
G36*
G01*
X4439980Y-4031760D02*
X4439980Y-4065760D01*
G75*
G02*
X4425980Y-4079760I-14000J0D01*
G01*
X4397980Y-4079760D01*
G75*
G02*
X4383980Y-4065760I0J14000D01*
G01*
X4383980Y-4031760D01*
G75*
G02*
X4397980Y-4017760I14000J0D01*
G01*
X4425980Y-4017760D01*
G75*
G02*
X4439980Y-4031760I0J-14000D01*
G01*
G37*
G04 #@! TD.AperFunction*
G04 #@! TA.AperFunction,SMDPad,CuDef*
G36*
G01*
X4535980Y-4031760D02*
X4535980Y-4065760D01*
G75*
G02*
X4521980Y-4079760I-14000J0D01*
G01*
X4493980Y-4079760D01*
G75*
G02*
X4479980Y-4065760I0J14000D01*
G01*
X4479980Y-4031760D01*
G75*
G02*
X4493980Y-4017760I14000J0D01*
G01*
X4521980Y-4017760D01*
G75*
G02*
X4535980Y-4031760I0J-14000D01*
G01*
G37*
G04 #@! TD.AperFunction*
G04 #@! TA.AperFunction,SMDPad,CuDef*
G36*
G01*
X4293380Y-3906460D02*
X4327380Y-3906460D01*
G75*
G02*
X4341380Y-3920460I0J-14000D01*
G01*
X4341380Y-3948460D01*
G75*
G02*
X4327380Y-3962460I-14000J0D01*
G01*
X4293380Y-3962460D01*
G75*
G02*
X4279380Y-3948460I0J14000D01*
G01*
X4279380Y-3920460D01*
G75*
G02*
X4293380Y-3906460I14000J0D01*
G01*
G37*
G04 #@! TD.AperFunction*
G04 #@! TA.AperFunction,SMDPad,CuDef*
G36*
G01*
X4293380Y-3810460D02*
X4327380Y-3810460D01*
G75*
G02*
X4341380Y-3824460I0J-14000D01*
G01*
X4341380Y-3852460D01*
G75*
G02*
X4327380Y-3866460I-14000J0D01*
G01*
X4293380Y-3866460D01*
G75*
G02*
X4279380Y-3852460I0J14000D01*
G01*
X4279380Y-3824460D01*
G75*
G02*
X4293380Y-3810460I14000J0D01*
G01*
G37*
G04 #@! TD.AperFunction*
D23*
X6264580Y-3921760D03*
X6064580Y-4016760D03*
X6064580Y-3826760D03*
D24*
X6562580Y-3965960D03*
X6562580Y-3775960D03*
X6782580Y-3775960D03*
X6782580Y-3870960D03*
X6782580Y-3965960D03*
G04 #@! TA.AperFunction,SMDPad,CuDef*
G36*
G01*
X6908080Y-3488560D02*
X6945080Y-3488560D01*
G75*
G02*
X6958580Y-3502060I0J-13500D01*
G01*
X6958580Y-3529060D01*
G75*
G02*
X6945080Y-3542560I-13500J0D01*
G01*
X6908080Y-3542560D01*
G75*
G02*
X6894580Y-3529060I0J13500D01*
G01*
X6894580Y-3502060D01*
G75*
G02*
X6908080Y-3488560I13500J0D01*
G01*
G37*
G04 #@! TD.AperFunction*
G04 #@! TA.AperFunction,SMDPad,CuDef*
G36*
G01*
X6908080Y-3386560D02*
X6945080Y-3386560D01*
G75*
G02*
X6958580Y-3400060I0J-13500D01*
G01*
X6958580Y-3427060D01*
G75*
G02*
X6945080Y-3440560I-13500J0D01*
G01*
X6908080Y-3440560D01*
G75*
G02*
X6894580Y-3427060I0J13500D01*
G01*
X6894580Y-3400060D01*
G75*
G02*
X6908080Y-3386560I13500J0D01*
G01*
G37*
G04 #@! TD.AperFunction*
G04 #@! TA.AperFunction,SMDPad,CuDef*
G36*
G01*
X6463580Y-3564760D02*
X6500580Y-3564760D01*
G75*
G02*
X6514080Y-3578260I0J-13500D01*
G01*
X6514080Y-3605260D01*
G75*
G02*
X6500580Y-3618760I-13500J0D01*
G01*
X6463580Y-3618760D01*
G75*
G02*
X6450080Y-3605260I0J13500D01*
G01*
X6450080Y-3578260D01*
G75*
G02*
X6463580Y-3564760I13500J0D01*
G01*
G37*
G04 #@! TD.AperFunction*
G04 #@! TA.AperFunction,SMDPad,CuDef*
G36*
G01*
X6463580Y-3462760D02*
X6500580Y-3462760D01*
G75*
G02*
X6514080Y-3476260I0J-13500D01*
G01*
X6514080Y-3503260D01*
G75*
G02*
X6500580Y-3516760I-13500J0D01*
G01*
X6463580Y-3516760D01*
G75*
G02*
X6450080Y-3503260I0J13500D01*
G01*
X6450080Y-3476260D01*
G75*
G02*
X6463580Y-3462760I13500J0D01*
G01*
G37*
G04 #@! TD.AperFunction*
G04 #@! TA.AperFunction,SMDPad,CuDef*
G36*
G01*
X6826380Y-3195960D02*
X6826380Y-3232960D01*
G75*
G02*
X6812880Y-3246460I-13500J0D01*
G01*
X6785880Y-3246460D01*
G75*
G02*
X6772380Y-3232960I0J13500D01*
G01*
X6772380Y-3195960D01*
G75*
G02*
X6785880Y-3182460I13500J0D01*
G01*
X6812880Y-3182460D01*
G75*
G02*
X6826380Y-3195960I0J-13500D01*
G01*
G37*
G04 #@! TD.AperFunction*
G04 #@! TA.AperFunction,SMDPad,CuDef*
G36*
G01*
X6928380Y-3195960D02*
X6928380Y-3232960D01*
G75*
G02*
X6914880Y-3246460I-13500J0D01*
G01*
X6887880Y-3246460D01*
G75*
G02*
X6874380Y-3232960I0J13500D01*
G01*
X6874380Y-3195960D01*
G75*
G02*
X6887880Y-3182460I13500J0D01*
G01*
X6914880Y-3182460D01*
G75*
G02*
X6928380Y-3195960I0J-13500D01*
G01*
G37*
G04 #@! TD.AperFunction*
G04 #@! TA.AperFunction,SMDPad,CuDef*
G36*
G01*
X5861180Y-3941360D02*
X5861180Y-3978360D01*
G75*
G02*
X5847680Y-3991860I-13500J0D01*
G01*
X5820680Y-3991860D01*
G75*
G02*
X5807180Y-3978360I0J13500D01*
G01*
X5807180Y-3941360D01*
G75*
G02*
X5820680Y-3927860I13500J0D01*
G01*
X5847680Y-3927860D01*
G75*
G02*
X5861180Y-3941360I0J-13500D01*
G01*
G37*
G04 #@! TD.AperFunction*
G04 #@! TA.AperFunction,SMDPad,CuDef*
G36*
G01*
X5963180Y-3941360D02*
X5963180Y-3978360D01*
G75*
G02*
X5949680Y-3991860I-13500J0D01*
G01*
X5922680Y-3991860D01*
G75*
G02*
X5909180Y-3978360I0J13500D01*
G01*
X5909180Y-3941360D01*
G75*
G02*
X5922680Y-3927860I13500J0D01*
G01*
X5949680Y-3927860D01*
G75*
G02*
X5963180Y-3941360I0J-13500D01*
G01*
G37*
G04 #@! TD.AperFunction*
G04 #@! TA.AperFunction,SMDPad,CuDef*
G36*
G01*
X6374680Y-3844160D02*
X6411680Y-3844160D01*
G75*
G02*
X6425180Y-3857660I0J-13500D01*
G01*
X6425180Y-3884660D01*
G75*
G02*
X6411680Y-3898160I-13500J0D01*
G01*
X6374680Y-3898160D01*
G75*
G02*
X6361180Y-3884660I0J13500D01*
G01*
X6361180Y-3857660D01*
G75*
G02*
X6374680Y-3844160I13500J0D01*
G01*
G37*
G04 #@! TD.AperFunction*
G04 #@! TA.AperFunction,SMDPad,CuDef*
G36*
G01*
X6374680Y-3742160D02*
X6411680Y-3742160D01*
G75*
G02*
X6425180Y-3755660I0J-13500D01*
G01*
X6425180Y-3782660D01*
G75*
G02*
X6411680Y-3796160I-13500J0D01*
G01*
X6374680Y-3796160D01*
G75*
G02*
X6361180Y-3782660I0J13500D01*
G01*
X6361180Y-3755660D01*
G75*
G02*
X6374680Y-3742160I13500J0D01*
G01*
G37*
G04 #@! TD.AperFunction*
G04 #@! TA.AperFunction,SMDPad,CuDef*
G36*
G01*
X6826380Y-3094360D02*
X6826380Y-3131360D01*
G75*
G02*
X6812880Y-3144860I-13500J0D01*
G01*
X6785880Y-3144860D01*
G75*
G02*
X6772380Y-3131360I0J13500D01*
G01*
X6772380Y-3094360D01*
G75*
G02*
X6785880Y-3080860I13500J0D01*
G01*
X6812880Y-3080860D01*
G75*
G02*
X6826380Y-3094360I0J-13500D01*
G01*
G37*
G04 #@! TD.AperFunction*
G04 #@! TA.AperFunction,SMDPad,CuDef*
G36*
G01*
X6928380Y-3094360D02*
X6928380Y-3131360D01*
G75*
G02*
X6914880Y-3144860I-13500J0D01*
G01*
X6887880Y-3144860D01*
G75*
G02*
X6874380Y-3131360I0J13500D01*
G01*
X6874380Y-3094360D01*
G75*
G02*
X6887880Y-3080860I13500J0D01*
G01*
X6914880Y-3080860D01*
G75*
G02*
X6928380Y-3094360I0J-13500D01*
G01*
G37*
G04 #@! TD.AperFunction*
G04 #@! TA.AperFunction,SMDPad,CuDef*
G36*
G01*
X6196880Y-3463160D02*
X6233880Y-3463160D01*
G75*
G02*
X6247380Y-3476660I0J-13500D01*
G01*
X6247380Y-3503660D01*
G75*
G02*
X6233880Y-3517160I-13500J0D01*
G01*
X6196880Y-3517160D01*
G75*
G02*
X6183380Y-3503660I0J13500D01*
G01*
X6183380Y-3476660D01*
G75*
G02*
X6196880Y-3463160I13500J0D01*
G01*
G37*
G04 #@! TD.AperFunction*
G04 #@! TA.AperFunction,SMDPad,CuDef*
G36*
G01*
X6196880Y-3361160D02*
X6233880Y-3361160D01*
G75*
G02*
X6247380Y-3374660I0J-13500D01*
G01*
X6247380Y-3401660D01*
G75*
G02*
X6233880Y-3415160I-13500J0D01*
G01*
X6196880Y-3415160D01*
G75*
G02*
X6183380Y-3401660I0J13500D01*
G01*
X6183380Y-3374660D01*
G75*
G02*
X6196880Y-3361160I13500J0D01*
G01*
G37*
G04 #@! TD.AperFunction*
G04 #@! TA.AperFunction,SMDPad,CuDef*
G36*
G01*
X6196880Y-3259760D02*
X6233880Y-3259760D01*
G75*
G02*
X6247380Y-3273260I0J-13500D01*
G01*
X6247380Y-3300260D01*
G75*
G02*
X6233880Y-3313760I-13500J0D01*
G01*
X6196880Y-3313760D01*
G75*
G02*
X6183380Y-3300260I0J13500D01*
G01*
X6183380Y-3273260D01*
G75*
G02*
X6196880Y-3259760I13500J0D01*
G01*
G37*
G04 #@! TD.AperFunction*
G04 #@! TA.AperFunction,SMDPad,CuDef*
G36*
G01*
X6196880Y-3157760D02*
X6233880Y-3157760D01*
G75*
G02*
X6247380Y-3171260I0J-13500D01*
G01*
X6247380Y-3198260D01*
G75*
G02*
X6233880Y-3211760I-13500J0D01*
G01*
X6196880Y-3211760D01*
G75*
G02*
X6183380Y-3198260I0J13500D01*
G01*
X6183380Y-3171260D01*
G75*
G02*
X6196880Y-3157760I13500J0D01*
G01*
G37*
G04 #@! TD.AperFunction*
G04 #@! TA.AperFunction,SMDPad,CuDef*
G36*
G01*
X5861180Y-4042960D02*
X5861180Y-4079960D01*
G75*
G02*
X5847680Y-4093460I-13500J0D01*
G01*
X5820680Y-4093460D01*
G75*
G02*
X5807180Y-4079960I0J13500D01*
G01*
X5807180Y-4042960D01*
G75*
G02*
X5820680Y-4029460I13500J0D01*
G01*
X5847680Y-4029460D01*
G75*
G02*
X5861180Y-4042960I0J-13500D01*
G01*
G37*
G04 #@! TD.AperFunction*
G04 #@! TA.AperFunction,SMDPad,CuDef*
G36*
G01*
X5963180Y-4042960D02*
X5963180Y-4079960D01*
G75*
G02*
X5949680Y-4093460I-13500J0D01*
G01*
X5922680Y-4093460D01*
G75*
G02*
X5909180Y-4079960I0J13500D01*
G01*
X5909180Y-4042960D01*
G75*
G02*
X5922680Y-4029460I13500J0D01*
G01*
X5949680Y-4029460D01*
G75*
G02*
X5963180Y-4042960I0J-13500D01*
G01*
G37*
G04 #@! TD.AperFunction*
G04 #@! TA.AperFunction,SMDPad,CuDef*
G36*
G01*
X3499053Y-3768033D02*
X3499053Y-3768033D01*
G75*
G02*
X3434707Y-3768033I-32173J32173D01*
G01*
X3414707Y-3748033D01*
G75*
G02*
X3414707Y-3683687I32173J32173D01*
G01*
X3414707Y-3683687D01*
G75*
G02*
X3479053Y-3683687I32173J-32173D01*
G01*
X3499053Y-3703687D01*
G75*
G02*
X3499053Y-3768033I-32173J-32173D01*
G01*
G37*
G04 #@! TD.AperFunction*
D25*
X3611880Y-3715860D03*
X3776880Y-3715860D03*
X3776880Y-3949860D03*
X3611880Y-3949860D03*
X3446880Y-3949860D03*
G04 #@! TA.AperFunction,SMDPad,CuDef*
G36*
G01*
X6329455Y-3588460D02*
X6380705Y-3588460D01*
G75*
G02*
X6402580Y-3610335I0J-21875D01*
G01*
X6402580Y-3654085D01*
G75*
G02*
X6380705Y-3675960I-21875J0D01*
G01*
X6329455Y-3675960D01*
G75*
G02*
X6307580Y-3654085I0J21875D01*
G01*
X6307580Y-3610335D01*
G75*
G02*
X6329455Y-3588460I21875J0D01*
G01*
G37*
G04 #@! TD.AperFunction*
G04 #@! TA.AperFunction,SMDPad,CuDef*
G36*
G01*
X6329455Y-3430960D02*
X6380705Y-3430960D01*
G75*
G02*
X6402580Y-3452835I0J-21875D01*
G01*
X6402580Y-3496585D01*
G75*
G02*
X6380705Y-3518460I-21875J0D01*
G01*
X6329455Y-3518460D01*
G75*
G02*
X6307580Y-3496585I0J21875D01*
G01*
X6307580Y-3452835D01*
G75*
G02*
X6329455Y-3430960I21875J0D01*
G01*
G37*
G04 #@! TD.AperFunction*
G04 #@! TA.AperFunction,SMDPad,CuDef*
G36*
G01*
X5866180Y-3841010D02*
X5866180Y-3875510D01*
G75*
G02*
X5851430Y-3890260I-14750J0D01*
G01*
X5821930Y-3890260D01*
G75*
G02*
X5807180Y-3875510I0J14750D01*
G01*
X5807180Y-3841010D01*
G75*
G02*
X5821930Y-3826260I14750J0D01*
G01*
X5851430Y-3826260D01*
G75*
G02*
X5866180Y-3841010I0J-14750D01*
G01*
G37*
G04 #@! TD.AperFunction*
G04 #@! TA.AperFunction,SMDPad,CuDef*
G36*
G01*
X5963180Y-3841010D02*
X5963180Y-3875510D01*
G75*
G02*
X5948430Y-3890260I-14750J0D01*
G01*
X5918930Y-3890260D01*
G75*
G02*
X5904180Y-3875510I0J14750D01*
G01*
X5904180Y-3841010D01*
G75*
G02*
X5918930Y-3826260I14750J0D01*
G01*
X5948430Y-3826260D01*
G75*
G02*
X5963180Y-3841010I0J-14750D01*
G01*
G37*
G04 #@! TD.AperFunction*
G04 #@! TA.AperFunction,SMDPad,CuDef*
G36*
G01*
X3277130Y-3902660D02*
X3311630Y-3902660D01*
G75*
G02*
X3326380Y-3917410I0J-14750D01*
G01*
X3326380Y-3946910D01*
G75*
G02*
X3311630Y-3961660I-14750J0D01*
G01*
X3277130Y-3961660D01*
G75*
G02*
X3262380Y-3946910I0J14750D01*
G01*
X3262380Y-3917410D01*
G75*
G02*
X3277130Y-3902660I14750J0D01*
G01*
G37*
G04 #@! TD.AperFunction*
G04 #@! TA.AperFunction,SMDPad,CuDef*
G36*
G01*
X3277130Y-3805660D02*
X3311630Y-3805660D01*
G75*
G02*
X3326380Y-3820410I0J-14750D01*
G01*
X3326380Y-3849910D01*
G75*
G02*
X3311630Y-3864660I-14750J0D01*
G01*
X3277130Y-3864660D01*
G75*
G02*
X3262380Y-3849910I0J14750D01*
G01*
X3262380Y-3820410D01*
G75*
G02*
X3277130Y-3805660I14750J0D01*
G01*
G37*
G04 #@! TD.AperFunction*
D26*
X6977380Y-3223260D03*
X4297680Y-3413760D03*
X4297680Y-3312160D03*
X5758180Y-3858260D03*
X5935980Y-3667760D03*
X5542280Y-3845560D03*
X4310380Y-4036060D03*
X3192780Y-3832860D03*
X5758180Y-3680460D03*
D27*
X4612107Y-3080487D03*
X4564451Y-3274131D03*
X4538980Y-3693160D03*
X4564309Y-3375589D03*
X4157980Y-3655060D03*
X4145280Y-3451860D03*
D26*
X3180080Y-3197860D03*
X4132580Y-3832860D03*
D27*
X4653280Y-4023360D03*
X4094480Y-3083560D03*
X4348480Y-3083560D03*
X4310380Y-3134360D03*
X4221480Y-3147060D03*
X3611880Y-3134360D03*
X3256280Y-3134360D03*
X3611880Y-3350260D03*
X3611880Y-3528060D03*
X6786880Y-3020060D03*
X6964680Y-3121660D03*
X3700780Y-3870960D03*
X3522980Y-3870960D03*
X3878580Y-4010660D03*
X4196080Y-4036060D03*
X6278880Y-2980960D03*
X5339080Y-2981965D03*
X5580380Y-3020060D03*
X4107180Y-3286760D03*
X6177280Y-3528060D03*
X6558280Y-3832860D03*
X6329681Y-4061460D03*
X5605780Y-4087763D03*
X5072380Y-4087763D03*
X5173980Y-4087763D03*
X6723380Y-3870960D03*
X6384681Y-3312160D03*
X6101080Y-3210560D03*
D26*
X6570980Y-4036060D03*
X6634480Y-4036060D03*
X4678680Y-3743960D03*
X3345180Y-3997960D03*
X3180080Y-3337560D03*
D27*
X4894580Y-3906760D03*
X5186680Y-3858260D03*
X5427980Y-3070860D03*
X6118480Y-3612260D03*
X6482080Y-3883660D03*
D26*
X3789680Y-3807460D03*
D27*
X4894580Y-3845560D03*
X4614380Y-3321790D03*
X4618380Y-3233560D03*
X4653280Y-3134360D03*
X4716780Y-3134360D03*
D26*
X6520180Y-3007360D03*
X6189980Y-3134360D03*
D27*
X5834380Y-3629660D03*
X5574379Y-3426460D03*
X6088380Y-3020060D03*
X5567680Y-3223260D03*
X5844148Y-3070860D03*
X5516880Y-3159760D03*
X3573780Y-3013640D03*
X4716780Y-3012313D03*
X3409080Y-3013974D03*
X4780280Y-2987759D03*
X3573780Y-3083560D03*
X4665980Y-3045460D03*
X6946280Y-3616960D03*
X6846580Y-3616960D03*
X6691806Y-3305635D03*
D26*
X6507480Y-3426460D03*
X4056381Y-3921760D03*
X6307867Y-3155460D03*
D27*
X5072380Y-3007360D03*
X5224780Y-3045460D03*
D26*
X6310630Y-3813810D03*
D27*
X6692286Y-3712575D03*
D26*
X6012180Y-3858259D03*
D27*
X4729480Y-4048760D03*
D26*
X3967288Y-3818769D03*
X6177280Y-4036060D03*
D27*
X4792980Y-4074160D03*
D26*
X6113780Y-3337560D03*
D27*
X5415280Y-3528060D03*
X4856480Y-4036060D03*
X5745480Y-4036060D03*
D26*
X3611880Y-3820160D03*
D27*
X4970780Y-3845560D03*
D28*
X6901380Y-3317060D02*
X6898380Y-3320060D01*
X6901380Y-3112860D02*
X6901380Y-3317060D01*
X6968580Y-3214460D02*
X6977380Y-3223260D01*
X6901380Y-3214460D02*
X6968580Y-3214460D01*
X6926580Y-3515560D02*
X6977180Y-3515560D01*
X6977180Y-3515560D02*
X6990080Y-3502660D01*
X6923064Y-3320060D02*
X6898380Y-3320060D01*
X6990080Y-3387076D02*
X6923064Y-3320060D01*
X6990080Y-3502660D02*
X6990080Y-3387076D01*
X6891280Y-3870960D02*
X6782580Y-3870960D01*
X6926580Y-3835660D02*
X6891280Y-3870960D01*
X6667660Y-3205460D02*
X6667660Y-3177380D01*
X6667660Y-3177380D02*
X6667660Y-3155460D01*
D29*
X6445580Y-3255460D02*
X6520580Y-3180460D01*
X6376830Y-3255460D02*
X6445580Y-3255460D01*
X6541280Y-3159760D02*
X6520580Y-3180460D01*
X6545580Y-3155460D02*
X6520580Y-3180460D01*
X6664330Y-3155460D02*
X6545580Y-3155460D01*
X6545580Y-3205460D02*
X6520580Y-3180460D01*
X6664330Y-3205460D02*
X6545580Y-3205460D01*
X4386580Y-3464560D02*
X4386580Y-3413760D01*
X4406580Y-3484560D02*
X4386580Y-3464560D01*
X4685080Y-3484560D02*
X4406580Y-3484560D01*
X4277880Y-3216160D02*
X4277880Y-3210560D01*
X4297680Y-3413760D02*
X4297680Y-3312160D01*
X4297680Y-3230360D02*
X4277880Y-3210560D01*
X4297680Y-3312160D02*
X4297680Y-3230360D01*
X4284980Y-3203460D02*
X4277880Y-3210560D01*
X4297680Y-3413760D02*
X4386580Y-3413760D01*
D28*
X6562580Y-3775960D02*
X6562580Y-3828559D01*
X6562580Y-3828559D02*
X6558280Y-3832859D01*
X6262380Y-2997460D02*
X6278880Y-2980960D01*
X6215380Y-2997460D02*
X6262380Y-2997460D01*
X6393180Y-4058660D02*
X6332481Y-4058660D01*
X6332481Y-4058660D02*
X6329681Y-4061460D01*
X6373500Y-3255460D02*
X6373500Y-3300979D01*
X6373500Y-3300979D02*
X6384681Y-3312160D01*
D30*
X6228080Y-3578860D02*
X6177280Y-3528060D01*
X6228080Y-3581660D02*
X6228080Y-3578860D01*
X6215180Y-3490160D02*
X6177280Y-3528060D01*
X6215380Y-3490160D02*
X6215180Y-3490160D01*
D28*
X4386580Y-3464560D02*
X4234180Y-3464560D01*
X4234180Y-3464560D02*
X4221480Y-3451860D01*
X4221480Y-3451860D02*
X4221480Y-3147060D01*
D29*
X4965080Y-3484560D02*
X4985080Y-3464560D01*
X4685080Y-3484560D02*
X4965080Y-3484560D01*
X5656580Y-3886460D02*
X5656580Y-3791960D01*
X5656580Y-3845560D02*
X5542280Y-3845560D01*
X5656580Y-3791960D02*
X5656580Y-3845560D01*
X5085080Y-3564560D02*
X4985080Y-3464560D01*
X5285080Y-3564560D02*
X5085080Y-3564560D01*
X5205080Y-3484560D02*
X5165080Y-3524560D01*
X5285080Y-3484560D02*
X5205080Y-3484560D01*
X5247380Y-4007860D02*
X5275580Y-3979660D01*
X5173980Y-4007860D02*
X5247380Y-4007860D01*
X5085080Y-3684560D02*
X5045080Y-3644560D01*
X5085080Y-3764560D02*
X5085080Y-3684560D01*
D28*
X4564380Y-3134360D02*
X4602480Y-3096260D01*
X4615180Y-2981960D02*
X4602480Y-2969260D01*
X4615180Y-3058160D02*
X4615180Y-2981960D01*
X4602480Y-3083560D02*
X4615180Y-3070860D01*
X4602480Y-3096260D02*
X4602480Y-3083560D01*
X4615180Y-3058160D02*
X4615180Y-3070860D01*
D29*
X4310380Y-3934460D02*
X4411980Y-3934460D01*
X4539680Y-3681160D02*
X4538980Y-3680460D01*
X4539680Y-3776760D02*
X4539680Y-3681160D01*
X4323080Y-4048760D02*
X4310380Y-4036060D01*
X4411980Y-4048760D02*
X4323080Y-4048760D01*
X4310380Y-3934460D02*
X4310380Y-4036060D01*
X4411980Y-3934460D02*
X4424680Y-3921760D01*
X4411980Y-4048760D02*
X4411980Y-3934460D01*
X3776880Y-3949860D02*
X3446880Y-3949860D01*
X3195580Y-3830060D02*
X3192780Y-3832860D01*
X3195580Y-3731260D02*
X3195580Y-3830060D01*
X4183382Y-3629660D02*
X4157980Y-3655062D01*
X4239780Y-3629660D02*
X4183382Y-3629660D01*
X4239780Y-3528060D02*
X4183380Y-3528060D01*
X4157980Y-3553460D02*
X4157980Y-3655062D01*
X4183380Y-3528060D02*
X4157980Y-3553460D01*
D31*
X5910580Y-3210560D02*
X5834380Y-3286760D01*
X6101080Y-3210560D02*
X6101080Y-3210560D01*
X5935980Y-3286760D02*
X5834380Y-3286760D01*
X6177280Y-3528060D02*
X5935980Y-3286760D01*
D29*
X5291480Y-3566160D02*
X5337598Y-3566160D01*
X5289880Y-3564560D02*
X5291480Y-3566160D01*
X5285080Y-3564560D02*
X5289880Y-3564560D01*
X5370380Y-3564560D02*
X5397380Y-3591560D01*
X5285080Y-3564560D02*
X5370380Y-3564560D01*
X5397380Y-3591560D02*
X5491480Y-3591560D01*
X5339080Y-3048260D02*
X5339080Y-2981965D01*
X4671479Y-3913461D02*
X4678680Y-3906260D01*
X4671479Y-3992461D02*
X4671479Y-3913461D01*
X5275580Y-3979660D02*
X5279080Y-3979660D01*
D30*
X4296029Y-3147060D02*
X4347654Y-3095434D01*
X4221480Y-3147060D02*
X4296029Y-3147060D01*
X4348480Y-3094509D02*
X4348530Y-3094559D01*
D29*
X4564380Y-3375660D02*
X4564380Y-3375660D01*
X4610207Y-3088533D02*
X4610207Y-3082388D01*
X4564380Y-3134360D02*
X4610207Y-3088533D01*
X4615180Y-3070860D02*
X4615180Y-3077415D01*
X4615180Y-3077415D02*
X4612107Y-3080487D01*
X4612107Y-3080487D02*
X4610207Y-3082388D01*
D30*
X4347654Y-3095434D02*
X4348530Y-3094559D01*
D28*
X4564380Y-3134360D02*
X4564380Y-3274060D01*
X4564380Y-3274060D02*
X4564451Y-3274131D01*
X4564451Y-3274131D02*
X4564309Y-3274272D01*
D29*
X4564380Y-3134360D02*
X4564380Y-3375519D01*
X4564380Y-3375519D02*
X4564309Y-3375589D01*
X4615180Y-3401060D02*
X4589780Y-3401060D01*
X4589780Y-3401060D02*
X4564309Y-3375589D01*
D28*
X4564309Y-3274272D02*
X4564309Y-3375589D01*
D29*
X4347654Y-3008186D02*
X4347654Y-3095434D01*
X4389880Y-2965960D02*
X4347654Y-3008186D01*
X4599180Y-2965960D02*
X4389880Y-2965960D01*
X4602480Y-2969260D02*
X4599180Y-2965960D01*
D28*
X4970780Y-4007860D02*
X5173980Y-4007860D01*
D29*
X5834180Y-4061460D02*
X5825881Y-4061460D01*
D28*
X6278880Y-2980960D02*
X6278880Y-2980960D01*
D29*
X5339080Y-2981965D02*
X5339080Y-2981965D01*
D32*
X5583680Y-3016760D02*
X5580380Y-3020060D01*
X5643880Y-3016760D02*
X5583680Y-3016760D01*
D28*
X6329681Y-4061460D02*
X6329681Y-4061460D01*
X5173980Y-4007860D02*
X5173980Y-4087763D01*
X5072380Y-4007860D02*
X5072380Y-4087763D01*
D32*
X5834180Y-4061460D02*
X5807877Y-4087763D01*
X5807877Y-4087763D02*
X5605780Y-4087763D01*
D29*
X5377379Y-3484560D02*
X5382378Y-3479561D01*
X5285080Y-3484560D02*
X5377379Y-3484560D01*
X4984383Y-4087763D02*
X5072380Y-4087763D01*
X4970780Y-4074160D02*
X4984383Y-4087763D01*
X4970780Y-4007860D02*
X4970780Y-4074160D01*
D32*
X4411980Y-4048760D02*
X4411980Y-4086860D01*
X4427381Y-4102261D02*
X4561679Y-4102261D01*
X4411980Y-4086860D02*
X4427381Y-4102261D01*
X4427381Y-4102261D02*
X4325781Y-4102261D01*
X4310380Y-4086860D02*
X4310380Y-4036060D01*
X4325781Y-4102261D02*
X4310380Y-4086860D01*
D28*
X6384681Y-3312160D02*
X6384681Y-3312160D01*
D32*
X6445580Y-3036710D02*
X6445580Y-2983560D01*
X6442980Y-2980960D02*
X6278880Y-2980960D01*
X6445580Y-2983560D02*
X6442980Y-2980960D01*
X6278880Y-2994660D02*
X6278880Y-2980960D01*
X6291580Y-3007360D02*
X6278880Y-2994660D01*
X6291580Y-3045535D02*
X6291580Y-3007360D01*
X6351505Y-3105460D02*
X6291580Y-3045535D01*
X6376830Y-3105460D02*
X6351505Y-3105460D01*
D31*
X6101080Y-3210560D02*
X5910580Y-3210560D01*
D28*
X6393180Y-3871160D02*
X6393180Y-3962660D01*
X6396480Y-3965960D02*
X6393180Y-3962660D01*
X6562580Y-3965960D02*
X6396480Y-3965960D01*
X6469580Y-3871160D02*
X6482080Y-3883660D01*
X6393180Y-3871160D02*
X6469580Y-3871160D01*
X6202680Y-3677660D02*
X6149080Y-3677660D01*
X6149080Y-3677660D02*
X6151880Y-3680460D01*
D30*
X6126480Y-3677660D02*
X6123680Y-3680460D01*
X6228080Y-3677660D02*
X6126480Y-3677660D01*
X6177280Y-3671060D02*
X6118480Y-3612260D01*
D29*
X4678680Y-3810260D02*
X4678680Y-3743960D01*
X4685080Y-3737560D02*
X4678680Y-3743960D01*
X4685080Y-3684560D02*
X4685080Y-3737560D01*
X3294380Y-3947160D02*
X3345180Y-3997960D01*
X3294380Y-3932160D02*
X3294380Y-3947160D01*
X5205080Y-3839860D02*
X5205080Y-3764560D01*
X3343980Y-3501460D02*
X3180080Y-3337560D01*
X3366380Y-3501460D02*
X3343980Y-3501460D01*
D28*
X6570980Y-4036060D02*
X6634480Y-4036060D01*
D30*
X6570980Y-3974360D02*
X6562580Y-3965960D01*
X6570980Y-4036060D02*
X6570980Y-3974360D01*
D28*
X4899680Y-3911860D02*
X4894580Y-3906760D01*
X4970780Y-3911860D02*
X4899680Y-3911860D01*
X5173980Y-3870960D02*
X5186680Y-3858260D01*
X5173980Y-3911860D02*
X5173980Y-3870960D01*
D29*
X5186680Y-3858260D02*
X5205080Y-3839860D01*
X5354580Y-3144260D02*
X5427980Y-3070860D01*
X5205080Y-3164560D02*
X5334280Y-3164560D01*
X5334280Y-3164560D02*
X5427980Y-3070860D01*
X5339080Y-3144260D02*
X5354580Y-3144260D01*
D30*
X6118480Y-3612260D02*
X6062980Y-3556760D01*
X6062980Y-3556760D02*
X6024880Y-3556760D01*
X6123680Y-3617460D02*
X6118480Y-3612260D01*
X6123680Y-3680460D02*
X6123680Y-3617460D01*
D28*
X6482080Y-3883660D02*
X6482080Y-3883660D01*
D29*
X5125080Y-3822160D02*
X5125080Y-3764560D01*
X5072380Y-3874860D02*
X5125080Y-3822160D01*
X5072380Y-3911860D02*
X5072380Y-3874860D01*
X3776880Y-3715860D02*
X3776880Y-3794660D01*
X3776880Y-3794660D02*
X3789680Y-3807460D01*
X4885080Y-3836060D02*
X4894580Y-3845560D01*
X4885080Y-3764560D02*
X4885080Y-3836060D01*
X4685080Y-3564560D02*
X4451680Y-3564560D01*
X4386580Y-3629660D02*
X4335780Y-3629660D01*
X4451680Y-3564560D02*
X4386580Y-3629660D01*
X4339280Y-3524560D02*
X4335780Y-3528060D01*
X4685080Y-3524560D02*
X4339280Y-3524560D01*
D32*
X4651610Y-3284560D02*
X4614380Y-3321790D01*
X4685080Y-3284560D02*
X4651610Y-3284560D01*
X4629380Y-3244560D02*
X4618380Y-3233560D01*
X4685080Y-3244560D02*
X4629380Y-3244560D01*
X4653280Y-3166180D02*
X4653280Y-3134360D01*
X4672260Y-3185160D02*
X4653280Y-3166180D01*
X4765080Y-3185160D02*
X4672260Y-3185160D01*
X4765080Y-3164560D02*
X4765080Y-3185160D01*
X4885080Y-3131996D02*
X4862643Y-3109559D01*
X4862643Y-3109559D02*
X4747517Y-3109559D01*
X4885080Y-3164560D02*
X4885080Y-3131996D01*
X4747517Y-3109559D02*
X4722716Y-3134360D01*
X4722716Y-3134360D02*
X4716780Y-3134360D01*
D29*
X5523780Y-3695960D02*
X5493280Y-3726460D01*
X5656580Y-3695960D02*
X5523780Y-3695960D01*
X5473980Y-3726460D02*
X5493280Y-3726460D01*
X5352080Y-3604560D02*
X5473980Y-3726460D01*
X5285080Y-3604560D02*
X5352080Y-3604560D01*
X5499280Y-3982460D02*
X5493280Y-3976460D01*
X5656580Y-3982460D02*
X5499280Y-3982460D01*
X5478180Y-3896360D02*
X5478180Y-3961360D01*
X5364480Y-3782660D02*
X5478180Y-3896360D01*
X5364480Y-3680460D02*
X5364480Y-3782660D01*
X5328580Y-3644560D02*
X5364480Y-3680460D01*
X5478180Y-3961360D02*
X5493280Y-3976460D01*
X5285080Y-3644560D02*
X5328580Y-3644560D01*
D28*
X5300980Y-3858260D02*
X5300980Y-3693160D01*
X5275580Y-3883660D02*
X5300980Y-3858260D01*
X6215380Y-3108960D02*
X6189980Y-3134360D01*
X6215380Y-3093460D02*
X6215380Y-3108960D01*
X6215380Y-3159760D02*
X6189980Y-3134360D01*
X6215380Y-3184760D02*
X6215380Y-3159760D01*
X6545580Y-3032760D02*
X6545580Y-3033380D01*
X6520180Y-3007360D02*
X6545580Y-3032760D01*
X6495580Y-3031960D02*
X6520180Y-3007360D01*
X6495580Y-3033380D02*
X6495580Y-3031960D01*
D29*
X5822880Y-3481760D02*
X5897880Y-3556760D01*
X5285080Y-3404560D02*
X5471078Y-3404560D01*
X5471078Y-3404560D02*
X5548279Y-3481760D01*
X5548279Y-3481760D02*
X5822880Y-3481760D01*
X5821680Y-3629660D02*
X5834380Y-3629660D01*
X5770880Y-3578860D02*
X5821680Y-3629660D01*
X5770880Y-3556760D02*
X5770880Y-3578860D01*
X5285080Y-3364560D02*
X5512479Y-3364560D01*
X5512479Y-3364560D02*
X5574379Y-3426460D01*
X5834380Y-3629660D02*
X5834380Y-3629660D01*
X5574379Y-3426460D02*
X5574379Y-3426460D01*
X5433380Y-3444560D02*
X5285080Y-3444560D01*
X5545580Y-3556760D02*
X5433380Y-3444560D01*
X5643880Y-3556760D02*
X5545580Y-3556760D01*
X6085080Y-3016760D02*
X6088380Y-3020060D01*
X6024880Y-3016760D02*
X6085080Y-3016760D01*
X5516880Y-3223260D02*
X5567680Y-3223260D01*
X5415580Y-3324560D02*
X5516880Y-3223260D01*
X5285080Y-3324560D02*
X5415580Y-3324560D01*
X6088380Y-3020060D02*
X6088380Y-3020060D01*
X5567680Y-3223260D02*
X5567680Y-3223260D01*
X5504180Y-3159760D02*
X5516880Y-3159760D01*
X5379380Y-3284560D02*
X5504180Y-3159760D01*
X5285080Y-3284560D02*
X5379380Y-3284560D01*
X5897880Y-3016760D02*
X5849642Y-3064998D01*
X5849642Y-3064998D02*
X5847080Y-3064998D01*
X5516880Y-3159760D02*
X5516880Y-3159760D01*
X5495980Y-3091760D02*
X5695880Y-3091760D01*
X5343180Y-3244560D02*
X5495980Y-3091760D01*
X5695880Y-3091760D02*
X5770880Y-3016760D01*
X5285080Y-3244560D02*
X5343180Y-3244560D01*
X3541380Y-3436460D02*
X3476380Y-3501460D01*
X3541380Y-3218660D02*
X3541380Y-3436460D01*
X3509080Y-3186360D02*
X3541380Y-3218660D01*
X3509080Y-3184360D02*
X3509080Y-3186360D01*
X3459080Y-3334160D02*
X3459080Y-3184360D01*
X3476380Y-3351460D02*
X3459080Y-3334160D01*
X3409080Y-3224360D02*
X3409080Y-3184360D01*
X3366380Y-3267060D02*
X3409080Y-3224360D01*
X3366380Y-3351460D02*
X3366380Y-3267060D01*
D32*
X3484200Y-3013640D02*
X3573780Y-3013640D01*
X3459080Y-3084360D02*
X3459080Y-3038760D01*
X3459080Y-3038760D02*
X3484200Y-3013640D01*
X4953752Y-3032760D02*
X4737227Y-3032760D01*
X5045080Y-3124088D02*
X4953752Y-3032760D01*
X4737227Y-3032760D02*
X4716780Y-3012313D01*
X5045080Y-3164560D02*
X5045080Y-3124088D01*
D29*
X3409080Y-3013974D02*
X3409080Y-3013974D01*
X3409080Y-3084360D02*
X3409080Y-3013974D01*
X3409080Y-3013974D02*
X3409522Y-3013532D01*
D32*
X4970299Y-2987759D02*
X4780280Y-2987759D01*
X5085080Y-3164560D02*
X5085080Y-3102540D01*
X5085080Y-3102540D02*
X4970299Y-2987759D01*
X3572980Y-3084360D02*
X3573780Y-3083560D01*
X3509080Y-3084360D02*
X3572980Y-3084360D01*
X5005080Y-3126516D02*
X4948226Y-3069661D01*
X4690181Y-3069661D02*
X4665980Y-3045460D01*
X4948226Y-3069661D02*
X4690181Y-3069661D01*
X5005080Y-3164560D02*
X5005080Y-3126516D01*
D28*
X6706231Y-3320060D02*
X6802380Y-3320060D01*
X6667660Y-3281489D02*
X6706231Y-3320060D01*
X6667660Y-3255460D02*
X6667660Y-3281489D01*
X6757180Y-3978660D02*
X6816080Y-3978660D01*
X6892280Y-3965960D02*
X6926580Y-3931660D01*
X6782580Y-3965960D02*
X6892280Y-3965960D01*
X6373500Y-3155460D02*
X6307867Y-3155460D01*
D29*
X6482080Y-3451860D02*
X6507480Y-3426460D01*
X6482080Y-3489760D02*
X6482080Y-3451860D01*
D28*
X6545580Y-3413760D02*
X6520180Y-3413760D01*
X6520180Y-3413760D02*
X6507480Y-3426460D01*
D29*
X3811280Y-3517160D02*
X3811280Y-3107160D01*
X3980180Y-3921760D02*
X4056381Y-3921760D01*
X3891280Y-3832860D02*
X3980180Y-3921760D01*
X3891280Y-3642360D02*
X3891280Y-3832860D01*
X3811280Y-3562360D02*
X3891280Y-3642360D01*
X3811280Y-3517160D02*
X3811280Y-3562360D01*
D28*
X6782580Y-3965960D02*
X6704580Y-3965960D01*
X6704580Y-3965960D02*
X6643080Y-3904460D01*
X6643080Y-3721460D02*
X6545580Y-3623960D01*
X6643080Y-3904460D02*
X6643080Y-3721460D01*
X6545580Y-3623960D02*
X6545580Y-3413760D01*
X6495580Y-3351060D02*
X6495580Y-3327540D01*
X6507480Y-3362960D02*
X6495580Y-3351060D01*
X6545580Y-3362960D02*
X6507480Y-3362960D01*
X6545580Y-3413760D02*
X6545580Y-3362960D01*
D32*
X5125080Y-3060060D02*
X5072380Y-3007360D01*
X5125080Y-3164560D02*
X5125080Y-3060060D01*
X5165080Y-3105160D02*
X5224780Y-3045460D01*
X5165080Y-3164560D02*
X5165080Y-3105160D01*
D28*
X6355280Y-3769160D02*
X6393180Y-3769160D01*
X6264580Y-3921760D02*
X6264580Y-3859860D01*
X5941280Y-3954760D02*
X5936180Y-3959860D01*
X6310630Y-3813810D02*
X6355280Y-3769160D01*
X6264580Y-3859860D02*
X6310630Y-3813810D01*
D29*
X5991980Y-3959860D02*
X5936180Y-3959860D01*
X6030080Y-3921760D02*
X5991980Y-3959860D01*
X6264580Y-3921760D02*
X6030080Y-3921760D01*
D28*
X6782580Y-3775960D02*
X6758035Y-3775960D01*
X6758035Y-3775960D02*
X6700502Y-3718427D01*
X5933180Y-3857760D02*
X5933680Y-3858260D01*
X5936980Y-3826760D02*
X5933180Y-3822960D01*
X5933180Y-3822960D02*
X5933180Y-3857760D01*
X5933180Y-3756660D02*
X5933180Y-3822960D01*
D29*
X3971280Y-3517160D02*
X3971280Y-3107160D01*
X6043679Y-3826760D02*
X6012180Y-3858259D01*
X6064580Y-3826760D02*
X6043679Y-3826760D01*
X6012179Y-3858260D02*
X6012180Y-3858259D01*
X5933680Y-3858260D02*
X6012179Y-3858260D01*
D32*
X4765080Y-3951945D02*
X4765080Y-3764560D01*
X4729480Y-3987545D02*
X4765080Y-3951945D01*
X4729480Y-4048760D02*
X4729480Y-3987545D01*
D29*
X3971280Y-3814777D02*
X3967288Y-3818769D01*
X3971280Y-3517160D02*
X3971280Y-3814777D01*
D28*
X6064580Y-4016760D02*
X6062980Y-4016760D01*
X6157980Y-4016760D02*
X6177280Y-4036060D01*
X6064580Y-4016760D02*
X6157980Y-4016760D01*
D29*
X6019880Y-4061460D02*
X6064580Y-4016760D01*
X5936180Y-4061460D02*
X6019880Y-4061460D01*
D32*
X4805080Y-3954373D02*
X4805080Y-3764560D01*
X4792980Y-3966473D02*
X4805080Y-3954373D01*
X4792980Y-4074160D02*
X4792980Y-3966473D01*
D28*
X6215380Y-3337560D02*
X6113780Y-3337560D01*
X6215380Y-3388160D02*
X6215380Y-3337560D01*
D29*
X6215380Y-3286760D02*
X6215380Y-3337560D01*
X5285080Y-3524560D02*
X5411780Y-3524560D01*
X5411780Y-3524560D02*
X5415280Y-3528060D01*
X5415280Y-3528060D02*
X5415280Y-3528060D01*
D32*
X4845080Y-3764560D02*
X4845080Y-4024660D01*
X4845080Y-4024660D02*
X4856480Y-4036060D01*
D29*
X5821680Y-3959860D02*
X5745480Y-4036060D01*
X5834180Y-3959860D02*
X5821680Y-3959860D01*
X5736981Y-4044559D02*
X5745480Y-4036060D01*
X4539680Y-4017060D02*
X4507980Y-4048760D01*
X4539680Y-3921760D02*
X4539680Y-4017060D01*
X4607180Y-3854260D02*
X4539680Y-3921760D01*
X4607180Y-3686360D02*
X4607180Y-3854260D01*
X4648981Y-3644560D02*
X4607180Y-3686360D01*
X4680980Y-3644560D02*
X4648981Y-3644560D01*
X4310380Y-3838460D02*
X4310380Y-3807460D01*
X4341080Y-3776760D02*
X4424680Y-3776760D01*
X4310380Y-3807460D02*
X4341080Y-3776760D01*
X4424680Y-3693160D02*
X4424680Y-3776760D01*
X4513280Y-3604560D02*
X4424680Y-3693160D01*
X4685080Y-3604560D02*
X4513280Y-3604560D01*
X4513380Y-3444560D02*
X4482580Y-3413760D01*
X4634280Y-3444560D02*
X4513380Y-3444560D01*
D30*
X4482580Y-3319260D02*
X4475480Y-3312160D01*
X4482580Y-3413760D02*
X4482580Y-3319260D01*
D29*
X4684080Y-3444560D02*
X4513380Y-3444560D01*
X4685080Y-3444560D02*
X4684080Y-3444560D01*
X3294380Y-3734060D02*
X3291580Y-3731260D01*
X3294380Y-3835160D02*
X3294380Y-3734060D01*
X3431480Y-3731260D02*
X3446880Y-3715860D01*
X3291580Y-3731260D02*
X3431480Y-3731260D01*
D28*
X6441630Y-3632210D02*
X6482080Y-3591760D01*
X6355080Y-3632210D02*
X6441630Y-3632210D01*
X6445580Y-3384210D02*
X6355080Y-3474710D01*
X6445580Y-3324210D02*
X6445580Y-3384210D01*
X6744879Y-3170609D02*
X6788730Y-3214460D01*
X6788730Y-3214460D02*
X6799380Y-3214460D01*
X6720300Y-3105460D02*
X6744879Y-3130039D01*
X6744879Y-3130039D02*
X6744879Y-3170609D01*
X6667660Y-3105460D02*
X6720300Y-3105460D01*
X6724000Y-3033380D02*
X6595580Y-3033380D01*
X6799380Y-3108760D02*
X6724000Y-3033380D01*
X6799380Y-3112860D02*
X6799380Y-3108760D01*
X6888280Y-3413560D02*
X6926580Y-3413560D01*
X6863080Y-3388360D02*
X6888280Y-3413560D01*
X6621780Y-3388360D02*
X6863080Y-3388360D01*
X6595580Y-3362160D02*
X6621780Y-3388360D01*
X6595580Y-3327540D02*
X6595580Y-3362160D01*
D29*
X4475480Y-3216160D02*
X4475480Y-3070860D01*
D30*
X4475480Y-3216160D02*
X4475480Y-3045460D01*
X4469880Y-3210560D02*
X4475480Y-3216160D01*
X4373880Y-3210560D02*
X4469880Y-3210560D01*
D29*
X3611880Y-3715860D02*
X3611880Y-3820160D01*
D32*
X4925080Y-3799860D02*
X4970780Y-3845560D01*
X4925080Y-3764560D02*
X4925080Y-3799860D01*
D33*
X4680180Y-3904760D02*
X4682180Y-3904760D01*
X4682180Y-3907760D01*
X4680180Y-3907760D01*
X4680180Y-3965010D01*
X4690430Y-3975260D01*
X4692966Y-3975286D01*
X4691537Y-3979998D01*
X4690794Y-3987545D01*
X4690980Y-3989436D01*
X4690980Y-4011599D01*
X4687924Y-4014656D01*
X4682069Y-4023418D01*
X4678036Y-4033155D01*
X4675980Y-4043491D01*
X4675980Y-4054029D01*
X4678036Y-4064365D01*
X4682069Y-4074102D01*
X4687924Y-4082864D01*
X4695376Y-4090316D01*
X4704138Y-4096171D01*
X4713285Y-4099960D01*
X4551135Y-4099960D01*
X4553906Y-4097686D01*
X4559521Y-4090844D01*
X4563693Y-4083038D01*
X4566262Y-4074568D01*
X4567130Y-4065760D01*
X4567130Y-4047593D01*
X4567247Y-4047475D01*
X4568812Y-4046192D01*
X4572443Y-4041766D01*
X4573935Y-4039949D01*
X4577742Y-4032826D01*
X4578675Y-4029751D01*
X4580087Y-4025097D01*
X4580680Y-4019073D01*
X4580680Y-4019073D01*
X4580878Y-4017060D01*
X4580680Y-4015047D01*
X4580680Y-4000410D01*
X4582180Y-4000410D01*
X4588257Y-3999811D01*
X4594101Y-3998039D01*
X4599486Y-3995160D01*
X4604206Y-3991286D01*
X4608080Y-3986566D01*
X4610959Y-3981181D01*
X4612731Y-3975337D01*
X4613330Y-3969260D01*
X4613330Y-3956971D01*
X4613425Y-3957149D01*
X4618548Y-3963392D01*
X4624791Y-3968515D01*
X4631914Y-3972322D01*
X4639643Y-3974667D01*
X4647680Y-3975458D01*
X4666930Y-3975260D01*
X4677180Y-3965010D01*
X4677180Y-3907760D01*
X4675180Y-3907760D01*
X4675180Y-3904760D01*
X4677180Y-3904760D01*
X4677180Y-3902760D01*
X4680180Y-3902760D01*
X4680180Y-3904760D01*
G04 #@! TA.AperFunction,Conductor*
D34*
G36*
X4680180Y-3904760D02*
G01*
X4682180Y-3904760D01*
X4682180Y-3907760D01*
X4680180Y-3907760D01*
X4680180Y-3965010D01*
X4690430Y-3975260D01*
X4692966Y-3975286D01*
X4691537Y-3979998D01*
X4690794Y-3987545D01*
X4690980Y-3989436D01*
X4690980Y-4011599D01*
X4687924Y-4014656D01*
X4682069Y-4023418D01*
X4678036Y-4033155D01*
X4675980Y-4043491D01*
X4675980Y-4054029D01*
X4678036Y-4064365D01*
X4682069Y-4074102D01*
X4687924Y-4082864D01*
X4695376Y-4090316D01*
X4704138Y-4096171D01*
X4713285Y-4099960D01*
X4551135Y-4099960D01*
X4553906Y-4097686D01*
X4559521Y-4090844D01*
X4563693Y-4083038D01*
X4566262Y-4074568D01*
X4567130Y-4065760D01*
X4567130Y-4047593D01*
X4567247Y-4047475D01*
X4568812Y-4046192D01*
X4572443Y-4041766D01*
X4573935Y-4039949D01*
X4577742Y-4032826D01*
X4578675Y-4029751D01*
X4580087Y-4025097D01*
X4580680Y-4019073D01*
X4580680Y-4019073D01*
X4580878Y-4017060D01*
X4580680Y-4015047D01*
X4580680Y-4000410D01*
X4582180Y-4000410D01*
X4588257Y-3999811D01*
X4594101Y-3998039D01*
X4599486Y-3995160D01*
X4604206Y-3991286D01*
X4608080Y-3986566D01*
X4610959Y-3981181D01*
X4612731Y-3975337D01*
X4613330Y-3969260D01*
X4613330Y-3956971D01*
X4613425Y-3957149D01*
X4618548Y-3963392D01*
X4624791Y-3968515D01*
X4631914Y-3972322D01*
X4639643Y-3974667D01*
X4647680Y-3975458D01*
X4666930Y-3975260D01*
X4677180Y-3965010D01*
X4677180Y-3907760D01*
X4675180Y-3907760D01*
X4675180Y-3904760D01*
X4677180Y-3904760D01*
X4677180Y-3902760D01*
X4680180Y-3902760D01*
X4680180Y-3904760D01*
G37*
G04 #@! TD.AperFunction*
D33*
X6331898Y-3985468D02*
X6334467Y-3993938D01*
X6336854Y-3998405D01*
X6333048Y-4001528D01*
X6327925Y-4007771D01*
X6324118Y-4014894D01*
X6321773Y-4022623D01*
X6320982Y-4030660D01*
X6321180Y-4046910D01*
X6331430Y-4057160D01*
X6391680Y-4057160D01*
X6391680Y-4055160D01*
X6394680Y-4055160D01*
X6394680Y-4057160D01*
X6454930Y-4057160D01*
X6465180Y-4046910D01*
X6465378Y-4030660D01*
X6464587Y-4022623D01*
X6462242Y-4014894D01*
X6459338Y-4009460D01*
X6480522Y-4009460D01*
X6480801Y-4010381D01*
X6483680Y-4015766D01*
X6487554Y-4020486D01*
X6492274Y-4024360D01*
X6497659Y-4027239D01*
X6503503Y-4029011D01*
X6509580Y-4029610D01*
X6510068Y-4029610D01*
X6509980Y-4030052D01*
X6509980Y-4042068D01*
X6512324Y-4053853D01*
X6516922Y-4064954D01*
X6523598Y-4074945D01*
X6532095Y-4083442D01*
X6542086Y-4090117D01*
X6553187Y-4094716D01*
X6564972Y-4097060D01*
X6576988Y-4097060D01*
X6588773Y-4094716D01*
X6599874Y-4090117D01*
X6602730Y-4088209D01*
X6605586Y-4090117D01*
X6616687Y-4094716D01*
X6628472Y-4097060D01*
X6636540Y-4097060D01*
X6595109Y-4099960D01*
X6462990Y-4099960D01*
X6464587Y-4094697D01*
X6465378Y-4086660D01*
X6465180Y-4070410D01*
X6454930Y-4060160D01*
X6394680Y-4060160D01*
X6394680Y-4062160D01*
X6391680Y-4062160D01*
X6391680Y-4060160D01*
X6331430Y-4060160D01*
X6321180Y-4070410D01*
X6320982Y-4086660D01*
X6321773Y-4094697D01*
X6323370Y-4099960D01*
X6034203Y-4099960D01*
X6035646Y-4099522D01*
X6042768Y-4095715D01*
X6049012Y-4090592D01*
X6050296Y-4089027D01*
X6051413Y-4087910D01*
X6109580Y-4087910D01*
X6115657Y-4087311D01*
X6121501Y-4085539D01*
X6126886Y-4082660D01*
X6131606Y-4078786D01*
X6132568Y-4077615D01*
X6138395Y-4083442D01*
X6148386Y-4090117D01*
X6159487Y-4094716D01*
X6171272Y-4097060D01*
X6183288Y-4097060D01*
X6195073Y-4094716D01*
X6206174Y-4090117D01*
X6216165Y-4083442D01*
X6224662Y-4074945D01*
X6231337Y-4064954D01*
X6235936Y-4053853D01*
X6238280Y-4042068D01*
X6238280Y-4030052D01*
X6235936Y-4018267D01*
X6231337Y-4007166D01*
X6224662Y-3997175D01*
X6220397Y-3992910D01*
X6309580Y-3992910D01*
X6315657Y-3992311D01*
X6321501Y-3990539D01*
X6326886Y-3987660D01*
X6331606Y-3983786D01*
X6331718Y-3983650D01*
X6331898Y-3985468D01*
G04 #@! TA.AperFunction,Conductor*
D34*
G36*
X6331898Y-3985468D02*
G01*
X6334467Y-3993938D01*
X6336854Y-3998405D01*
X6333048Y-4001528D01*
X6327925Y-4007771D01*
X6324118Y-4014894D01*
X6321773Y-4022623D01*
X6320982Y-4030660D01*
X6321180Y-4046910D01*
X6331430Y-4057160D01*
X6391680Y-4057160D01*
X6391680Y-4055160D01*
X6394680Y-4055160D01*
X6394680Y-4057160D01*
X6454930Y-4057160D01*
X6465180Y-4046910D01*
X6465378Y-4030660D01*
X6464587Y-4022623D01*
X6462242Y-4014894D01*
X6459338Y-4009460D01*
X6480522Y-4009460D01*
X6480801Y-4010381D01*
X6483680Y-4015766D01*
X6487554Y-4020486D01*
X6492274Y-4024360D01*
X6497659Y-4027239D01*
X6503503Y-4029011D01*
X6509580Y-4029610D01*
X6510068Y-4029610D01*
X6509980Y-4030052D01*
X6509980Y-4042068D01*
X6512324Y-4053853D01*
X6516922Y-4064954D01*
X6523598Y-4074945D01*
X6532095Y-4083442D01*
X6542086Y-4090117D01*
X6553187Y-4094716D01*
X6564972Y-4097060D01*
X6576988Y-4097060D01*
X6588773Y-4094716D01*
X6599874Y-4090117D01*
X6602730Y-4088209D01*
X6605586Y-4090117D01*
X6616687Y-4094716D01*
X6628472Y-4097060D01*
X6636540Y-4097060D01*
X6595109Y-4099960D01*
X6462990Y-4099960D01*
X6464587Y-4094697D01*
X6465378Y-4086660D01*
X6465180Y-4070410D01*
X6454930Y-4060160D01*
X6394680Y-4060160D01*
X6394680Y-4062160D01*
X6391680Y-4062160D01*
X6391680Y-4060160D01*
X6331430Y-4060160D01*
X6321180Y-4070410D01*
X6320982Y-4086660D01*
X6321773Y-4094697D01*
X6323370Y-4099960D01*
X6034203Y-4099960D01*
X6035646Y-4099522D01*
X6042768Y-4095715D01*
X6049012Y-4090592D01*
X6050296Y-4089027D01*
X6051413Y-4087910D01*
X6109580Y-4087910D01*
X6115657Y-4087311D01*
X6121501Y-4085539D01*
X6126886Y-4082660D01*
X6131606Y-4078786D01*
X6132568Y-4077615D01*
X6138395Y-4083442D01*
X6148386Y-4090117D01*
X6159487Y-4094716D01*
X6171272Y-4097060D01*
X6183288Y-4097060D01*
X6195073Y-4094716D01*
X6206174Y-4090117D01*
X6216165Y-4083442D01*
X6224662Y-4074945D01*
X6231337Y-4064954D01*
X6235936Y-4053853D01*
X6238280Y-4042068D01*
X6238280Y-4030052D01*
X6235936Y-4018267D01*
X6231337Y-4007166D01*
X6224662Y-3997175D01*
X6220397Y-3992910D01*
X6309580Y-3992910D01*
X6315657Y-3992311D01*
X6321501Y-3990539D01*
X6326886Y-3987660D01*
X6331606Y-3983786D01*
X6331718Y-3983650D01*
X6331898Y-3985468D01*
G37*
G04 #@! TD.AperFunction*
D33*
X5391580Y-3867743D02*
X5391580Y-3897614D01*
X5391359Y-3897681D01*
X5385974Y-3900560D01*
X5381254Y-3904434D01*
X5377380Y-3909154D01*
X5374501Y-3914539D01*
X5372729Y-3920383D01*
X5372130Y-3926460D01*
X5372130Y-4026460D01*
X5372729Y-4032537D01*
X5374501Y-4038381D01*
X5377380Y-4043766D01*
X5381254Y-4048486D01*
X5385974Y-4052360D01*
X5391359Y-4055239D01*
X5397203Y-4057011D01*
X5403280Y-4057610D01*
X5583280Y-4057610D01*
X5589357Y-4057011D01*
X5595201Y-4055239D01*
X5600586Y-4052360D01*
X5605306Y-4048486D01*
X5609180Y-4043766D01*
X5612059Y-4038381D01*
X5613278Y-4034360D01*
X5615168Y-4034360D01*
X5622302Y-4038173D01*
X5630772Y-4040742D01*
X5639580Y-4041610D01*
X5673580Y-4041610D01*
X5682388Y-4040742D01*
X5690858Y-4038173D01*
X5691980Y-4037573D01*
X5691980Y-4041329D01*
X5694036Y-4051665D01*
X5698069Y-4061402D01*
X5703924Y-4070164D01*
X5711376Y-4077616D01*
X5720138Y-4083471D01*
X5729875Y-4087504D01*
X5740211Y-4089560D01*
X5750749Y-4089560D01*
X5761085Y-4087504D01*
X5766060Y-4085443D01*
X5765982Y-4093460D01*
X5766622Y-4099960D01*
X4840085Y-4099960D01*
X4840391Y-4099502D01*
X4844424Y-4089765D01*
X4844722Y-4088269D01*
X4851211Y-4089560D01*
X4861749Y-4089560D01*
X4872085Y-4087504D01*
X4881822Y-4083471D01*
X4890584Y-4077616D01*
X4898036Y-4070164D01*
X4903891Y-4061402D01*
X4905224Y-4058185D01*
X4905525Y-4058749D01*
X4910648Y-4064992D01*
X4916891Y-4070115D01*
X4924014Y-4073922D01*
X4931743Y-4076267D01*
X4939780Y-4077058D01*
X4959030Y-4076860D01*
X4969280Y-4066610D01*
X4969280Y-4009360D01*
X4972280Y-4009360D01*
X4972280Y-4066610D01*
X4982530Y-4076860D01*
X5001780Y-4077058D01*
X5009817Y-4076267D01*
X5017546Y-4073922D01*
X5021580Y-4071766D01*
X5025614Y-4073922D01*
X5033343Y-4076267D01*
X5041380Y-4077058D01*
X5060630Y-4076860D01*
X5070880Y-4066610D01*
X5070880Y-4009360D01*
X5073880Y-4009360D01*
X5073880Y-4066610D01*
X5084130Y-4076860D01*
X5103380Y-4077058D01*
X5111417Y-4076267D01*
X5119146Y-4073922D01*
X5123180Y-4071766D01*
X5127214Y-4073922D01*
X5134943Y-4076267D01*
X5142980Y-4077058D01*
X5162230Y-4076860D01*
X5172480Y-4066610D01*
X5172480Y-4009360D01*
X5073880Y-4009360D01*
X5070880Y-4009360D01*
X4972280Y-4009360D01*
X4969280Y-4009360D01*
X4967280Y-4009360D01*
X4967280Y-4006360D01*
X4969280Y-4006360D01*
X4969280Y-4004360D01*
X4972280Y-4004360D01*
X4972280Y-4006360D01*
X5070880Y-4006360D01*
X5070880Y-4004360D01*
X5073880Y-4004360D01*
X5073880Y-4006360D01*
X5172480Y-4006360D01*
X5172480Y-4004360D01*
X5175480Y-4004360D01*
X5175480Y-4006360D01*
X5177480Y-4006360D01*
X5177480Y-4009360D01*
X5175480Y-4009360D01*
X5175480Y-4066610D01*
X5185730Y-4076860D01*
X5204980Y-4077058D01*
X5213017Y-4076267D01*
X5220746Y-4073922D01*
X5227869Y-4070115D01*
X5234112Y-4064992D01*
X5239235Y-4058749D01*
X5243042Y-4051626D01*
X5243902Y-4048792D01*
X5244580Y-4048858D01*
X5263830Y-4048660D01*
X5274080Y-4038410D01*
X5274080Y-3981160D01*
X5277080Y-3981160D01*
X5277080Y-4038410D01*
X5287330Y-4048660D01*
X5306580Y-4048858D01*
X5314617Y-4048067D01*
X5322346Y-4045722D01*
X5329469Y-4041915D01*
X5335712Y-4036792D01*
X5340835Y-4030549D01*
X5344642Y-4023426D01*
X5346987Y-4015697D01*
X5347778Y-4007660D01*
X5347580Y-3991410D01*
X5337330Y-3981160D01*
X5277080Y-3981160D01*
X5274080Y-3981160D01*
X5272080Y-3981160D01*
X5272080Y-3978160D01*
X5274080Y-3978160D01*
X5274080Y-3976160D01*
X5277080Y-3976160D01*
X5277080Y-3978160D01*
X5337330Y-3978160D01*
X5347580Y-3967910D01*
X5347778Y-3951660D01*
X5346987Y-3943623D01*
X5344642Y-3935894D01*
X5340835Y-3928771D01*
X5335712Y-3922528D01*
X5331906Y-3919405D01*
X5334293Y-3914938D01*
X5336862Y-3906468D01*
X5337730Y-3897660D01*
X5337730Y-3881785D01*
X5341363Y-3874987D01*
X5343242Y-3868792D01*
X5343851Y-3866788D01*
X5344026Y-3865005D01*
X5344480Y-3860396D01*
X5344480Y-3860395D01*
X5344690Y-3858260D01*
X5344480Y-3856125D01*
X5344480Y-3820643D01*
X5391580Y-3867743D01*
G04 #@! TA.AperFunction,Conductor*
D34*
G36*
X5391580Y-3867743D02*
G01*
X5391580Y-3897614D01*
X5391359Y-3897681D01*
X5385974Y-3900560D01*
X5381254Y-3904434D01*
X5377380Y-3909154D01*
X5374501Y-3914539D01*
X5372729Y-3920383D01*
X5372130Y-3926460D01*
X5372130Y-4026460D01*
X5372729Y-4032537D01*
X5374501Y-4038381D01*
X5377380Y-4043766D01*
X5381254Y-4048486D01*
X5385974Y-4052360D01*
X5391359Y-4055239D01*
X5397203Y-4057011D01*
X5403280Y-4057610D01*
X5583280Y-4057610D01*
X5589357Y-4057011D01*
X5595201Y-4055239D01*
X5600586Y-4052360D01*
X5605306Y-4048486D01*
X5609180Y-4043766D01*
X5612059Y-4038381D01*
X5613278Y-4034360D01*
X5615168Y-4034360D01*
X5622302Y-4038173D01*
X5630772Y-4040742D01*
X5639580Y-4041610D01*
X5673580Y-4041610D01*
X5682388Y-4040742D01*
X5690858Y-4038173D01*
X5691980Y-4037573D01*
X5691980Y-4041329D01*
X5694036Y-4051665D01*
X5698069Y-4061402D01*
X5703924Y-4070164D01*
X5711376Y-4077616D01*
X5720138Y-4083471D01*
X5729875Y-4087504D01*
X5740211Y-4089560D01*
X5750749Y-4089560D01*
X5761085Y-4087504D01*
X5766060Y-4085443D01*
X5765982Y-4093460D01*
X5766622Y-4099960D01*
X4840085Y-4099960D01*
X4840391Y-4099502D01*
X4844424Y-4089765D01*
X4844722Y-4088269D01*
X4851211Y-4089560D01*
X4861749Y-4089560D01*
X4872085Y-4087504D01*
X4881822Y-4083471D01*
X4890584Y-4077616D01*
X4898036Y-4070164D01*
X4903891Y-4061402D01*
X4905224Y-4058185D01*
X4905525Y-4058749D01*
X4910648Y-4064992D01*
X4916891Y-4070115D01*
X4924014Y-4073922D01*
X4931743Y-4076267D01*
X4939780Y-4077058D01*
X4959030Y-4076860D01*
X4969280Y-4066610D01*
X4969280Y-4009360D01*
X4972280Y-4009360D01*
X4972280Y-4066610D01*
X4982530Y-4076860D01*
X5001780Y-4077058D01*
X5009817Y-4076267D01*
X5017546Y-4073922D01*
X5021580Y-4071766D01*
X5025614Y-4073922D01*
X5033343Y-4076267D01*
X5041380Y-4077058D01*
X5060630Y-4076860D01*
X5070880Y-4066610D01*
X5070880Y-4009360D01*
X5073880Y-4009360D01*
X5073880Y-4066610D01*
X5084130Y-4076860D01*
X5103380Y-4077058D01*
X5111417Y-4076267D01*
X5119146Y-4073922D01*
X5123180Y-4071766D01*
X5127214Y-4073922D01*
X5134943Y-4076267D01*
X5142980Y-4077058D01*
X5162230Y-4076860D01*
X5172480Y-4066610D01*
X5172480Y-4009360D01*
X5073880Y-4009360D01*
X5070880Y-4009360D01*
X4972280Y-4009360D01*
X4969280Y-4009360D01*
X4967280Y-4009360D01*
X4967280Y-4006360D01*
X4969280Y-4006360D01*
X4969280Y-4004360D01*
X4972280Y-4004360D01*
X4972280Y-4006360D01*
X5070880Y-4006360D01*
X5070880Y-4004360D01*
X5073880Y-4004360D01*
X5073880Y-4006360D01*
X5172480Y-4006360D01*
X5172480Y-4004360D01*
X5175480Y-4004360D01*
X5175480Y-4006360D01*
X5177480Y-4006360D01*
X5177480Y-4009360D01*
X5175480Y-4009360D01*
X5175480Y-4066610D01*
X5185730Y-4076860D01*
X5204980Y-4077058D01*
X5213017Y-4076267D01*
X5220746Y-4073922D01*
X5227869Y-4070115D01*
X5234112Y-4064992D01*
X5239235Y-4058749D01*
X5243042Y-4051626D01*
X5243902Y-4048792D01*
X5244580Y-4048858D01*
X5263830Y-4048660D01*
X5274080Y-4038410D01*
X5274080Y-3981160D01*
X5277080Y-3981160D01*
X5277080Y-4038410D01*
X5287330Y-4048660D01*
X5306580Y-4048858D01*
X5314617Y-4048067D01*
X5322346Y-4045722D01*
X5329469Y-4041915D01*
X5335712Y-4036792D01*
X5340835Y-4030549D01*
X5344642Y-4023426D01*
X5346987Y-4015697D01*
X5347778Y-4007660D01*
X5347580Y-3991410D01*
X5337330Y-3981160D01*
X5277080Y-3981160D01*
X5274080Y-3981160D01*
X5272080Y-3981160D01*
X5272080Y-3978160D01*
X5274080Y-3978160D01*
X5274080Y-3976160D01*
X5277080Y-3976160D01*
X5277080Y-3978160D01*
X5337330Y-3978160D01*
X5347580Y-3967910D01*
X5347778Y-3951660D01*
X5346987Y-3943623D01*
X5344642Y-3935894D01*
X5340835Y-3928771D01*
X5335712Y-3922528D01*
X5331906Y-3919405D01*
X5334293Y-3914938D01*
X5336862Y-3906468D01*
X5337730Y-3897660D01*
X5337730Y-3881785D01*
X5341363Y-3874987D01*
X5343242Y-3868792D01*
X5343851Y-3866788D01*
X5344026Y-3865005D01*
X5344480Y-3860396D01*
X5344480Y-3860395D01*
X5344690Y-3858260D01*
X5344480Y-3856125D01*
X5344480Y-3820643D01*
X5391580Y-3867743D01*
G37*
G04 #@! TD.AperFunction*
D33*
X4451853Y-2967573D02*
X4437112Y-2973679D01*
X4423846Y-2982543D01*
X4412563Y-2993825D01*
X4403699Y-3007092D01*
X4397593Y-3021833D01*
X4394480Y-3037482D01*
X4394480Y-3053438D01*
X4396479Y-3063487D01*
X4388391Y-3120104D01*
X4388280Y-3121660D01*
X4388280Y-3148449D01*
X4387880Y-3148410D01*
X4359880Y-3148410D01*
X4351072Y-3149278D01*
X4342602Y-3151847D01*
X4338135Y-3154234D01*
X4335012Y-3150428D01*
X4328769Y-3145305D01*
X4321646Y-3141498D01*
X4313917Y-3139153D01*
X4305880Y-3138362D01*
X4289630Y-3138560D01*
X4279380Y-3148810D01*
X4279380Y-3209060D01*
X4281380Y-3209060D01*
X4281380Y-3212060D01*
X4279380Y-3212060D01*
X4279380Y-3272310D01*
X4289630Y-3282560D01*
X4305880Y-3282758D01*
X4313917Y-3281967D01*
X4321646Y-3279622D01*
X4328769Y-3275815D01*
X4335012Y-3270692D01*
X4338135Y-3266886D01*
X4342602Y-3269273D01*
X4351072Y-3271842D01*
X4359880Y-3272710D01*
X4387880Y-3272710D01*
X4388280Y-3272670D01*
X4388280Y-3351810D01*
X4388080Y-3352010D01*
X4388080Y-3412260D01*
X4388280Y-3412260D01*
X4388280Y-3415260D01*
X4388080Y-3415260D01*
X4388080Y-3417260D01*
X4385080Y-3417260D01*
X4385080Y-3415260D01*
X4327830Y-3415260D01*
X4317580Y-3425510D01*
X4317382Y-3444760D01*
X4318173Y-3452797D01*
X4320518Y-3460526D01*
X4323396Y-3465910D01*
X4321780Y-3465910D01*
X4312972Y-3466778D01*
X4304502Y-3469347D01*
X4300035Y-3471734D01*
X4296912Y-3467928D01*
X4290669Y-3462805D01*
X4283546Y-3458998D01*
X4275817Y-3456653D01*
X4267780Y-3455862D01*
X4251530Y-3456060D01*
X4241280Y-3466310D01*
X4241280Y-3526560D01*
X4243280Y-3526560D01*
X4243280Y-3529560D01*
X4241280Y-3529560D01*
X4241280Y-3628160D01*
X4243280Y-3628160D01*
X4243280Y-3631160D01*
X4241280Y-3631160D01*
X4241280Y-3691410D01*
X4251530Y-3701660D01*
X4267780Y-3701858D01*
X4275817Y-3701067D01*
X4283546Y-3698722D01*
X4290669Y-3694915D01*
X4296912Y-3689792D01*
X4300035Y-3685986D01*
X4304502Y-3688373D01*
X4312972Y-3690942D01*
X4321780Y-3691810D01*
X4349780Y-3691810D01*
X4358588Y-3690942D01*
X4367058Y-3688373D01*
X4374864Y-3684201D01*
X4381706Y-3678586D01*
X4387321Y-3671744D01*
X4387862Y-3670732D01*
X4388593Y-3670660D01*
X4388593Y-3670660D01*
X4390308Y-3670491D01*
X4388597Y-3673692D01*
X4386618Y-3677394D01*
X4384273Y-3685123D01*
X4383680Y-3691147D01*
X4383482Y-3693160D01*
X4383680Y-3695173D01*
X4383680Y-3698110D01*
X4382180Y-3698110D01*
X4376103Y-3698709D01*
X4370259Y-3700481D01*
X4364874Y-3703360D01*
X4360154Y-3707234D01*
X4356280Y-3711954D01*
X4353401Y-3717339D01*
X4351629Y-3723183D01*
X4351030Y-3729260D01*
X4351030Y-3735760D01*
X4343093Y-3735760D01*
X4341080Y-3735562D01*
X4339067Y-3735760D01*
X4339067Y-3735760D01*
X4333043Y-3736353D01*
X4327887Y-3737917D01*
X4325314Y-3738698D01*
X4318191Y-3742505D01*
X4316418Y-3743960D01*
X4311948Y-3747628D01*
X4310665Y-3749193D01*
X4282813Y-3777045D01*
X4281249Y-3778328D01*
X4279965Y-3779892D01*
X4279965Y-3779892D01*
X4278126Y-3782133D01*
X4276102Y-3782747D01*
X4268296Y-3786919D01*
X4261454Y-3792534D01*
X4255839Y-3799376D01*
X4251667Y-3807182D01*
X4249098Y-3815652D01*
X4248230Y-3824460D01*
X4248230Y-3852460D01*
X4249098Y-3861268D01*
X4251667Y-3869738D01*
X4254054Y-3874205D01*
X4250248Y-3877328D01*
X4245125Y-3883571D01*
X4241318Y-3890694D01*
X4238973Y-3898423D01*
X4238182Y-3906460D01*
X4238380Y-3922710D01*
X4248630Y-3932960D01*
X4308880Y-3932960D01*
X4308880Y-3930960D01*
X4311880Y-3930960D01*
X4311880Y-3932960D01*
X4313880Y-3932960D01*
X4313880Y-3935960D01*
X4311880Y-3935960D01*
X4311880Y-3993210D01*
X4322130Y-4003460D01*
X4341380Y-4003658D01*
X4345537Y-4003249D01*
X4343573Y-4009723D01*
X4342782Y-4017760D01*
X4342980Y-4037010D01*
X4353230Y-4047260D01*
X4410480Y-4047260D01*
X4410480Y-4045260D01*
X4413480Y-4045260D01*
X4413480Y-4047260D01*
X4415480Y-4047260D01*
X4415480Y-4050260D01*
X4413480Y-4050260D01*
X4413480Y-4052260D01*
X4410480Y-4052260D01*
X4410480Y-4050260D01*
X4353230Y-4050260D01*
X4342980Y-4060510D01*
X4342782Y-4079760D01*
X4343573Y-4087797D01*
X4345918Y-4095526D01*
X4348288Y-4099960D01*
X3597655Y-4099960D01*
X3503774Y-4092241D01*
X3413753Y-4069630D01*
X3373651Y-4052193D01*
X3374074Y-4052017D01*
X3384065Y-4045342D01*
X3392562Y-4036845D01*
X3399237Y-4026854D01*
X3400766Y-4023164D01*
X3411858Y-4029411D01*
X3428051Y-4034715D01*
X3444967Y-4036758D01*
X3461956Y-4035461D01*
X3478367Y-4030875D01*
X3493567Y-4023176D01*
X3496748Y-4021050D01*
X3500022Y-4005123D01*
X3558738Y-4005123D01*
X3562012Y-4021050D01*
X3576858Y-4029411D01*
X3593051Y-4034715D01*
X3609967Y-4036758D01*
X3626956Y-4035461D01*
X3643367Y-4030875D01*
X3658567Y-4023176D01*
X3661748Y-4021050D01*
X3665022Y-4005123D01*
X3723738Y-4005123D01*
X3727012Y-4021050D01*
X3741858Y-4029411D01*
X3758051Y-4034715D01*
X3774967Y-4036758D01*
X3791956Y-4035461D01*
X3808367Y-4030875D01*
X3823567Y-4023176D01*
X3826748Y-4021050D01*
X3830022Y-4005123D01*
X3776880Y-3951981D01*
X3723738Y-4005123D01*
X3665022Y-4005123D01*
X3611880Y-3951981D01*
X3558738Y-4005123D01*
X3500022Y-4005123D01*
X3446880Y-3951981D01*
X3445466Y-3953396D01*
X3443344Y-3951274D01*
X3444759Y-3949860D01*
X3449001Y-3949860D01*
X3502143Y-4003002D01*
X3518070Y-3999728D01*
X3526431Y-3984882D01*
X3529356Y-3975949D01*
X3530865Y-3981347D01*
X3538564Y-3996547D01*
X3540690Y-3999728D01*
X3556617Y-4003002D01*
X3609759Y-3949860D01*
X3614001Y-3949860D01*
X3667143Y-4003002D01*
X3683070Y-3999728D01*
X3691431Y-3984882D01*
X3694356Y-3975949D01*
X3695865Y-3981347D01*
X3703564Y-3996547D01*
X3705690Y-3999728D01*
X3721617Y-4003002D01*
X3774759Y-3949860D01*
X3779001Y-3949860D01*
X3832143Y-4003002D01*
X3848070Y-3999728D01*
X3856431Y-3984882D01*
X3861735Y-3968689D01*
X3863778Y-3951773D01*
X3862481Y-3934783D01*
X3857895Y-3918373D01*
X3850196Y-3903173D01*
X3848070Y-3899992D01*
X3832143Y-3896718D01*
X3779001Y-3949860D01*
X3774759Y-3949860D01*
X3721617Y-3896718D01*
X3705690Y-3899992D01*
X3697329Y-3914838D01*
X3694403Y-3923771D01*
X3692895Y-3918373D01*
X3685196Y-3903173D01*
X3683070Y-3899992D01*
X3667143Y-3896718D01*
X3614001Y-3949860D01*
X3609759Y-3949860D01*
X3556617Y-3896718D01*
X3540690Y-3899992D01*
X3532329Y-3914838D01*
X3529403Y-3923771D01*
X3527895Y-3918373D01*
X3520196Y-3903173D01*
X3518070Y-3899992D01*
X3502143Y-3896718D01*
X3449001Y-3949860D01*
X3444759Y-3949860D01*
X3391617Y-3896718D01*
X3375690Y-3899992D01*
X3367329Y-3914838D01*
X3362025Y-3931031D01*
X3361072Y-3938926D01*
X3357530Y-3938221D01*
X3357530Y-3917410D01*
X3356648Y-3908455D01*
X3354036Y-3899845D01*
X3351231Y-3894597D01*
X3393738Y-3894597D01*
X3446880Y-3947739D01*
X3500022Y-3894597D01*
X3496748Y-3878670D01*
X3481902Y-3870309D01*
X3465709Y-3865005D01*
X3448793Y-3862962D01*
X3431803Y-3864259D01*
X3415393Y-3868845D01*
X3400193Y-3876544D01*
X3397012Y-3878670D01*
X3393738Y-3894597D01*
X3351231Y-3894597D01*
X3349794Y-3891909D01*
X3344086Y-3884954D01*
X3342509Y-3883660D01*
X3344086Y-3882366D01*
X3349794Y-3875411D01*
X3354036Y-3867475D01*
X3356648Y-3858865D01*
X3357530Y-3849910D01*
X3357530Y-3820410D01*
X3356648Y-3811455D01*
X3354036Y-3802845D01*
X3349794Y-3794909D01*
X3344086Y-3787954D01*
X3337131Y-3782246D01*
X3335838Y-3781555D01*
X3337506Y-3780186D01*
X3343121Y-3773344D01*
X3343700Y-3772260D01*
X3395093Y-3772260D01*
X3415444Y-3792611D01*
X3424173Y-3799775D01*
X3437463Y-3806879D01*
X3451883Y-3811253D01*
X3466880Y-3812730D01*
X3481877Y-3811253D01*
X3496297Y-3806879D01*
X3509587Y-3799775D01*
X3521235Y-3790215D01*
X3530795Y-3778567D01*
X3537899Y-3765277D01*
X3542273Y-3750857D01*
X3542523Y-3748321D01*
X3544086Y-3752096D01*
X3552458Y-3764626D01*
X3563114Y-3775281D01*
X3567536Y-3778236D01*
X3564498Y-3781275D01*
X3557822Y-3791266D01*
X3553224Y-3802367D01*
X3550880Y-3814152D01*
X3550880Y-3826168D01*
X3553224Y-3837953D01*
X3557822Y-3849054D01*
X3564498Y-3859045D01*
X3572995Y-3867542D01*
X3577294Y-3870415D01*
X3565193Y-3876544D01*
X3562012Y-3878670D01*
X3558738Y-3894597D01*
X3611880Y-3947739D01*
X3665022Y-3894597D01*
X3661748Y-3878670D01*
X3646902Y-3870309D01*
X3646715Y-3870248D01*
X3650765Y-3867542D01*
X3659262Y-3859045D01*
X3665937Y-3849054D01*
X3670536Y-3837953D01*
X3672880Y-3826168D01*
X3672880Y-3814152D01*
X3670536Y-3802367D01*
X3665937Y-3791266D01*
X3659262Y-3781275D01*
X3656223Y-3778236D01*
X3660646Y-3775281D01*
X3671301Y-3764626D01*
X3679673Y-3752096D01*
X3685440Y-3738174D01*
X3688380Y-3723395D01*
X3688380Y-3708325D01*
X3700380Y-3708325D01*
X3700380Y-3723395D01*
X3703320Y-3738174D01*
X3709086Y-3752096D01*
X3717458Y-3764626D01*
X3728114Y-3775281D01*
X3735060Y-3779923D01*
X3731024Y-3789667D01*
X3728680Y-3801452D01*
X3728680Y-3813468D01*
X3731024Y-3825253D01*
X3735622Y-3836354D01*
X3742298Y-3846345D01*
X3750795Y-3854842D01*
X3760786Y-3861517D01*
X3766533Y-3863898D01*
X3761803Y-3864259D01*
X3745393Y-3868845D01*
X3730193Y-3876544D01*
X3727012Y-3878670D01*
X3723738Y-3894597D01*
X3776880Y-3947739D01*
X3830022Y-3894597D01*
X3826748Y-3878670D01*
X3811902Y-3870309D01*
X3802263Y-3867152D01*
X3807473Y-3866116D01*
X3818574Y-3861517D01*
X3828565Y-3854842D01*
X3837062Y-3846345D01*
X3843737Y-3836354D01*
X3848336Y-3825253D01*
X3850280Y-3815478D01*
X3850280Y-3830846D01*
X3850082Y-3832860D01*
X3850597Y-3838094D01*
X3850873Y-3840897D01*
X3852770Y-3847149D01*
X3853218Y-3848626D01*
X3857025Y-3855748D01*
X3859250Y-3858460D01*
X3862148Y-3861992D01*
X3863713Y-3863275D01*
X3949765Y-3949327D01*
X3951048Y-3950892D01*
X3952724Y-3952267D01*
X3957291Y-3956015D01*
X3959943Y-3957432D01*
X3964414Y-3959822D01*
X3972143Y-3962167D01*
X3978167Y-3962760D01*
X3978167Y-3962760D01*
X3980180Y-3962958D01*
X3982193Y-3962760D01*
X4011114Y-3962760D01*
X4017496Y-3969142D01*
X4027487Y-3975817D01*
X4038588Y-3980416D01*
X4050373Y-3982760D01*
X4062389Y-3982760D01*
X4074174Y-3980416D01*
X4085276Y-3975817D01*
X4095266Y-3969142D01*
X4101948Y-3962460D01*
X4238182Y-3962460D01*
X4238973Y-3970497D01*
X4241318Y-3978226D01*
X4245125Y-3985349D01*
X4250248Y-3991592D01*
X4256491Y-3996715D01*
X4263614Y-4000522D01*
X4271343Y-4002867D01*
X4279380Y-4003658D01*
X4298630Y-4003460D01*
X4308880Y-3993210D01*
X4308880Y-3935960D01*
X4248630Y-3935960D01*
X4238380Y-3946210D01*
X4238182Y-3962460D01*
X4101948Y-3962460D01*
X4103763Y-3960645D01*
X4110439Y-3950654D01*
X4115037Y-3939553D01*
X4117381Y-3927768D01*
X4117381Y-3915752D01*
X4115037Y-3903967D01*
X4110439Y-3892866D01*
X4103763Y-3882875D01*
X4095266Y-3874378D01*
X4085276Y-3867702D01*
X4074174Y-3863104D01*
X4062389Y-3860760D01*
X4050373Y-3860760D01*
X4038588Y-3863104D01*
X4027487Y-3867702D01*
X4017496Y-3874378D01*
X4011114Y-3880760D01*
X3997163Y-3880760D01*
X3991266Y-3874863D01*
X3996182Y-3872826D01*
X4006173Y-3866151D01*
X4014669Y-3857654D01*
X4021345Y-3847663D01*
X4025943Y-3836562D01*
X4028288Y-3824777D01*
X4028288Y-3812761D01*
X4025943Y-3800976D01*
X4021345Y-3789875D01*
X4014669Y-3779884D01*
X4012280Y-3777494D01*
X4012280Y-3660660D01*
X4170582Y-3660660D01*
X4171373Y-3668697D01*
X4173718Y-3676426D01*
X4177525Y-3683549D01*
X4182648Y-3689792D01*
X4188891Y-3694915D01*
X4196014Y-3698722D01*
X4203743Y-3701067D01*
X4211780Y-3701858D01*
X4228030Y-3701660D01*
X4238280Y-3691410D01*
X4238280Y-3631160D01*
X4181030Y-3631160D01*
X4170780Y-3641410D01*
X4170582Y-3660660D01*
X4012280Y-3660660D01*
X4012280Y-3593310D01*
X4024080Y-3593310D01*
X4030157Y-3592711D01*
X4036001Y-3590939D01*
X4041386Y-3588060D01*
X4046106Y-3584186D01*
X4049980Y-3579466D01*
X4052859Y-3574081D01*
X4054631Y-3568237D01*
X4055230Y-3562160D01*
X4055230Y-3559060D01*
X4170582Y-3559060D01*
X4171373Y-3567097D01*
X4173718Y-3574826D01*
X4175874Y-3578860D01*
X4173718Y-3582894D01*
X4171373Y-3590623D01*
X4170582Y-3598660D01*
X4170780Y-3617910D01*
X4181030Y-3628160D01*
X4238280Y-3628160D01*
X4238280Y-3529560D01*
X4181030Y-3529560D01*
X4170780Y-3539810D01*
X4170582Y-3559060D01*
X4055230Y-3559060D01*
X4055230Y-3497060D01*
X4170582Y-3497060D01*
X4170780Y-3516310D01*
X4181030Y-3526560D01*
X4238280Y-3526560D01*
X4238280Y-3466310D01*
X4228030Y-3456060D01*
X4211780Y-3455862D01*
X4203743Y-3456653D01*
X4196014Y-3458998D01*
X4188891Y-3462805D01*
X4182648Y-3467928D01*
X4177525Y-3474171D01*
X4173718Y-3481294D01*
X4171373Y-3489023D01*
X4170582Y-3497060D01*
X4055230Y-3497060D01*
X4055230Y-3472160D01*
X4054631Y-3466083D01*
X4052859Y-3460239D01*
X4049980Y-3454854D01*
X4046106Y-3450134D01*
X4041386Y-3446260D01*
X4036001Y-3443381D01*
X4030157Y-3441609D01*
X4024080Y-3441010D01*
X4012280Y-3441010D01*
X4012280Y-3382760D01*
X4317382Y-3382760D01*
X4317580Y-3402010D01*
X4327830Y-3412260D01*
X4385080Y-3412260D01*
X4385080Y-3352010D01*
X4374830Y-3341760D01*
X4358580Y-3341562D01*
X4350543Y-3342353D01*
X4342814Y-3344698D01*
X4335691Y-3348505D01*
X4329448Y-3353628D01*
X4324325Y-3359871D01*
X4320518Y-3366994D01*
X4318173Y-3374723D01*
X4317382Y-3382760D01*
X4012280Y-3382760D01*
X4012280Y-3241560D01*
X4208682Y-3241560D01*
X4209473Y-3249597D01*
X4211818Y-3257326D01*
X4215625Y-3264449D01*
X4220748Y-3270692D01*
X4226991Y-3275815D01*
X4234114Y-3279622D01*
X4241843Y-3281967D01*
X4249880Y-3282758D01*
X4266130Y-3282560D01*
X4276380Y-3272310D01*
X4276380Y-3212060D01*
X4219130Y-3212060D01*
X4208880Y-3222310D01*
X4208682Y-3241560D01*
X4012280Y-3241560D01*
X4012280Y-3183310D01*
X4024080Y-3183310D01*
X4030157Y-3182711D01*
X4036001Y-3180939D01*
X4038580Y-3179560D01*
X4208682Y-3179560D01*
X4208880Y-3198810D01*
X4219130Y-3209060D01*
X4276380Y-3209060D01*
X4276380Y-3148810D01*
X4266130Y-3138560D01*
X4249880Y-3138362D01*
X4241843Y-3139153D01*
X4234114Y-3141498D01*
X4226991Y-3145305D01*
X4220748Y-3150428D01*
X4215625Y-3156671D01*
X4211818Y-3163794D01*
X4209473Y-3171523D01*
X4208682Y-3179560D01*
X4038580Y-3179560D01*
X4041386Y-3178060D01*
X4046106Y-3174186D01*
X4049980Y-3169466D01*
X4052859Y-3164081D01*
X4054631Y-3158237D01*
X4055230Y-3152160D01*
X4055230Y-3062160D01*
X4054631Y-3056083D01*
X4052859Y-3050239D01*
X4049980Y-3044854D01*
X4046106Y-3040134D01*
X4041386Y-3036260D01*
X4036001Y-3033381D01*
X4030157Y-3031609D01*
X4024080Y-3031010D01*
X3924080Y-3031010D01*
X3918003Y-3031609D01*
X3912159Y-3033381D01*
X3906774Y-3036260D01*
X3902054Y-3040134D01*
X3898180Y-3044854D01*
X3895301Y-3050239D01*
X3894080Y-3054265D01*
X3892859Y-3050239D01*
X3889980Y-3044854D01*
X3886106Y-3040134D01*
X3881386Y-3036260D01*
X3876001Y-3033381D01*
X3870157Y-3031609D01*
X3864080Y-3031010D01*
X3764080Y-3031010D01*
X3758003Y-3031609D01*
X3752159Y-3033381D01*
X3746774Y-3036260D01*
X3742054Y-3040134D01*
X3738180Y-3044854D01*
X3735301Y-3050239D01*
X3733529Y-3056083D01*
X3732930Y-3062160D01*
X3732930Y-3152160D01*
X3733529Y-3158237D01*
X3735301Y-3164081D01*
X3738180Y-3169466D01*
X3742054Y-3174186D01*
X3746774Y-3178060D01*
X3752159Y-3180939D01*
X3758003Y-3182711D01*
X3764080Y-3183310D01*
X3770280Y-3183310D01*
X3770280Y-3186072D01*
X3763330Y-3186160D01*
X3753080Y-3196410D01*
X3753080Y-3310660D01*
X3755080Y-3310660D01*
X3755080Y-3313660D01*
X3753080Y-3313660D01*
X3753080Y-3427910D01*
X3763330Y-3438160D01*
X3770280Y-3438247D01*
X3770280Y-3441010D01*
X3764080Y-3441010D01*
X3758003Y-3441609D01*
X3752159Y-3443381D01*
X3746774Y-3446260D01*
X3742054Y-3450134D01*
X3738180Y-3454854D01*
X3735301Y-3460239D01*
X3733529Y-3466083D01*
X3732930Y-3472160D01*
X3732930Y-3562160D01*
X3733529Y-3568237D01*
X3735301Y-3574081D01*
X3738180Y-3579466D01*
X3742054Y-3584186D01*
X3746774Y-3588060D01*
X3752159Y-3590939D01*
X3758003Y-3592711D01*
X3764080Y-3593310D01*
X3784247Y-3593310D01*
X3850280Y-3659343D01*
X3850280Y-3693159D01*
X3844673Y-3679624D01*
X3836301Y-3667094D01*
X3825646Y-3656438D01*
X3813116Y-3648066D01*
X3799194Y-3642300D01*
X3784415Y-3639360D01*
X3769345Y-3639360D01*
X3754566Y-3642300D01*
X3740644Y-3648066D01*
X3728114Y-3656438D01*
X3717458Y-3667094D01*
X3709086Y-3679624D01*
X3703320Y-3693546D01*
X3700380Y-3708325D01*
X3688380Y-3708325D01*
X3685440Y-3693546D01*
X3679673Y-3679624D01*
X3671301Y-3667094D01*
X3660646Y-3656438D01*
X3648116Y-3648066D01*
X3634194Y-3642300D01*
X3619415Y-3639360D01*
X3604345Y-3639360D01*
X3589566Y-3642300D01*
X3575644Y-3648066D01*
X3563114Y-3656438D01*
X3552458Y-3667094D01*
X3544086Y-3679624D01*
X3538320Y-3693546D01*
X3536336Y-3703519D01*
X3530795Y-3693153D01*
X3523631Y-3684424D01*
X3498316Y-3659109D01*
X3489587Y-3651945D01*
X3476297Y-3644841D01*
X3461877Y-3640467D01*
X3446880Y-3638990D01*
X3431883Y-3640467D01*
X3417463Y-3644841D01*
X3404173Y-3651945D01*
X3392525Y-3661505D01*
X3382965Y-3673153D01*
X3375861Y-3686443D01*
X3374703Y-3690260D01*
X3343700Y-3690260D01*
X3343121Y-3689176D01*
X3337506Y-3682334D01*
X3330664Y-3676719D01*
X3322858Y-3672547D01*
X3314388Y-3669978D01*
X3305580Y-3669110D01*
X3277580Y-3669110D01*
X3268772Y-3669978D01*
X3260302Y-3672547D01*
X3255835Y-3674934D01*
X3252712Y-3671128D01*
X3246469Y-3666005D01*
X3239346Y-3662198D01*
X3231617Y-3659853D01*
X3223580Y-3659062D01*
X3207330Y-3659260D01*
X3197080Y-3669510D01*
X3197080Y-3729760D01*
X3199080Y-3729760D01*
X3199080Y-3732760D01*
X3197080Y-3732760D01*
X3197080Y-3793010D01*
X3207330Y-3803260D01*
X3223580Y-3803458D01*
X3231617Y-3802667D01*
X3235439Y-3801508D01*
X3234724Y-3802845D01*
X3232112Y-3811455D01*
X3231230Y-3820410D01*
X3231230Y-3849910D01*
X3232112Y-3858865D01*
X3234724Y-3867475D01*
X3238966Y-3875411D01*
X3244674Y-3882366D01*
X3246250Y-3883660D01*
X3244674Y-3884954D01*
X3238966Y-3891909D01*
X3234724Y-3899845D01*
X3232112Y-3908455D01*
X3231230Y-3917410D01*
X3231230Y-3946910D01*
X3232112Y-3955865D01*
X3234724Y-3964475D01*
X3238042Y-3970684D01*
X3182051Y-3919735D01*
X3124524Y-3846894D01*
X3079667Y-3765635D01*
X3078472Y-3762260D01*
X3126382Y-3762260D01*
X3127173Y-3770297D01*
X3129518Y-3778026D01*
X3133325Y-3785149D01*
X3138448Y-3791392D01*
X3144691Y-3796515D01*
X3151814Y-3800322D01*
X3159543Y-3802667D01*
X3167580Y-3803458D01*
X3183830Y-3803260D01*
X3194080Y-3793010D01*
X3194080Y-3732760D01*
X3136830Y-3732760D01*
X3126580Y-3743010D01*
X3126382Y-3762260D01*
X3078472Y-3762260D01*
X3056517Y-3700260D01*
X3126382Y-3700260D01*
X3126580Y-3719510D01*
X3136830Y-3729760D01*
X3194080Y-3729760D01*
X3194080Y-3669510D01*
X3183830Y-3659260D01*
X3167580Y-3659062D01*
X3159543Y-3659853D01*
X3151814Y-3662198D01*
X3144691Y-3666005D01*
X3138448Y-3671128D01*
X3133325Y-3677371D01*
X3129518Y-3684494D01*
X3127173Y-3692223D01*
X3126382Y-3700260D01*
X3056517Y-3700260D01*
X3048684Y-3678141D01*
X3032407Y-3586761D01*
X3032368Y-3583605D01*
X3033363Y-3585094D01*
X3044645Y-3596377D01*
X3057912Y-3605241D01*
X3072653Y-3611347D01*
X3088302Y-3614460D01*
X3104258Y-3614460D01*
X3119907Y-3611347D01*
X3134648Y-3605241D01*
X3147914Y-3596377D01*
X3159197Y-3585094D01*
X3168061Y-3571828D01*
X3174167Y-3557087D01*
X3177280Y-3541438D01*
X3177280Y-3525482D01*
X3174167Y-3509833D01*
X3168061Y-3495092D01*
X3159197Y-3481825D01*
X3147914Y-3470543D01*
X3134648Y-3461679D01*
X3119907Y-3455573D01*
X3104258Y-3452460D01*
X3088302Y-3452460D01*
X3072653Y-3455573D01*
X3057912Y-3461679D01*
X3044645Y-3470543D01*
X3033363Y-3481825D01*
X3033058Y-3482282D01*
X3045312Y-3402201D01*
X3074149Y-3313976D01*
X3117007Y-3231645D01*
X3172737Y-3157421D01*
X3239841Y-3093294D01*
X3312160Y-3043962D01*
X3310301Y-3047439D01*
X3308529Y-3053283D01*
X3307930Y-3059360D01*
X3307930Y-3109360D01*
X3308529Y-3115437D01*
X3310301Y-3121281D01*
X3313180Y-3126666D01*
X3317054Y-3131386D01*
X3320677Y-3134360D01*
X3317054Y-3137334D01*
X3313180Y-3142054D01*
X3310301Y-3147439D01*
X3308529Y-3153283D01*
X3307930Y-3159360D01*
X3307930Y-3209360D01*
X3308529Y-3215437D01*
X3310301Y-3221281D01*
X3313180Y-3226666D01*
X3317054Y-3231386D01*
X3321774Y-3235260D01*
X3327159Y-3238139D01*
X3333003Y-3239911D01*
X3335425Y-3240150D01*
X3332125Y-3244172D01*
X3328476Y-3250998D01*
X3328318Y-3251294D01*
X3325973Y-3259023D01*
X3325940Y-3259365D01*
X3325182Y-3267060D01*
X3325380Y-3269074D01*
X3325380Y-3270409D01*
X3320303Y-3270909D01*
X3314459Y-3272681D01*
X3309074Y-3275560D01*
X3304354Y-3279434D01*
X3300480Y-3284154D01*
X3297601Y-3289539D01*
X3295829Y-3295383D01*
X3295230Y-3301460D01*
X3295230Y-3394727D01*
X3241080Y-3340577D01*
X3241080Y-3331552D01*
X3238736Y-3319767D01*
X3234137Y-3308666D01*
X3227462Y-3298675D01*
X3218965Y-3290178D01*
X3208974Y-3283502D01*
X3197873Y-3278904D01*
X3186088Y-3276560D01*
X3174072Y-3276560D01*
X3162287Y-3278904D01*
X3151186Y-3283502D01*
X3141195Y-3290178D01*
X3132698Y-3298675D01*
X3126022Y-3308666D01*
X3121424Y-3319767D01*
X3119080Y-3331552D01*
X3119080Y-3343568D01*
X3121424Y-3355353D01*
X3126022Y-3366454D01*
X3132698Y-3376445D01*
X3141195Y-3384942D01*
X3151186Y-3391617D01*
X3162287Y-3396216D01*
X3174072Y-3398560D01*
X3183097Y-3398560D01*
X3295230Y-3510693D01*
X3295230Y-3551460D01*
X3295829Y-3557537D01*
X3297601Y-3563381D01*
X3300480Y-3568766D01*
X3304354Y-3573486D01*
X3309074Y-3577360D01*
X3314459Y-3580239D01*
X3320303Y-3582011D01*
X3326380Y-3582610D01*
X3406380Y-3582610D01*
X3412457Y-3582011D01*
X3418301Y-3580239D01*
X3421380Y-3578593D01*
X3424459Y-3580239D01*
X3430303Y-3582011D01*
X3436380Y-3582610D01*
X3516380Y-3582610D01*
X3522457Y-3582011D01*
X3528301Y-3580239D01*
X3533686Y-3577360D01*
X3538406Y-3573486D01*
X3542280Y-3568766D01*
X3545159Y-3563381D01*
X3546931Y-3557537D01*
X3547530Y-3551460D01*
X3547530Y-3488293D01*
X3568948Y-3466875D01*
X3570512Y-3465591D01*
X3571795Y-3464028D01*
X3575635Y-3459348D01*
X3578331Y-3454305D01*
X3579442Y-3452226D01*
X3581787Y-3444497D01*
X3582380Y-3438473D01*
X3582380Y-3438472D01*
X3582578Y-3436460D01*
X3582380Y-3434448D01*
X3582380Y-3397160D01*
X3682882Y-3397160D01*
X3683673Y-3405197D01*
X3686018Y-3412926D01*
X3689825Y-3420049D01*
X3694948Y-3426292D01*
X3701191Y-3431415D01*
X3708314Y-3435222D01*
X3716043Y-3437567D01*
X3724080Y-3438358D01*
X3739830Y-3438160D01*
X3750080Y-3427910D01*
X3750080Y-3313660D01*
X3693330Y-3313660D01*
X3683080Y-3323910D01*
X3682882Y-3397160D01*
X3582380Y-3397160D01*
X3582380Y-3227160D01*
X3682882Y-3227160D01*
X3683080Y-3300410D01*
X3693330Y-3310660D01*
X3750080Y-3310660D01*
X3750080Y-3196410D01*
X3739830Y-3186160D01*
X3724080Y-3185962D01*
X3716043Y-3186753D01*
X3708314Y-3189098D01*
X3701191Y-3192905D01*
X3694948Y-3198028D01*
X3689825Y-3204271D01*
X3686018Y-3211394D01*
X3683673Y-3219123D01*
X3682882Y-3227160D01*
X3582380Y-3227160D01*
X3582380Y-3220672D01*
X3582578Y-3218660D01*
X3582380Y-3216648D01*
X3582380Y-3216647D01*
X3581787Y-3210623D01*
X3579442Y-3202894D01*
X3577259Y-3198810D01*
X3575635Y-3195771D01*
X3571795Y-3191092D01*
X3571795Y-3191092D01*
X3570512Y-3189528D01*
X3568948Y-3188245D01*
X3560230Y-3179527D01*
X3560230Y-3159360D01*
X3559631Y-3153283D01*
X3557859Y-3147439D01*
X3554980Y-3142054D01*
X3551106Y-3137334D01*
X3547483Y-3134360D01*
X3550548Y-3131845D01*
X3558175Y-3135004D01*
X3568511Y-3137060D01*
X3579049Y-3137060D01*
X3589385Y-3135004D01*
X3599122Y-3130971D01*
X3607884Y-3125116D01*
X3615336Y-3117664D01*
X3621191Y-3108902D01*
X3625224Y-3099165D01*
X3627280Y-3088829D01*
X3627280Y-3078291D01*
X3625224Y-3067955D01*
X3621191Y-3058218D01*
X3615336Y-3049456D01*
X3614480Y-3048600D01*
X3615336Y-3047744D01*
X3621191Y-3038982D01*
X3625224Y-3029245D01*
X3627280Y-3018909D01*
X3627280Y-3008371D01*
X3625224Y-2998035D01*
X3621191Y-2988298D01*
X3615336Y-2979536D01*
X3607884Y-2972084D01*
X3600216Y-2966960D01*
X4454934Y-2966960D01*
X4451853Y-2967573D01*
G04 #@! TA.AperFunction,Conductor*
D34*
G36*
X4451853Y-2967573D02*
G01*
X4437112Y-2973679D01*
X4423846Y-2982543D01*
X4412563Y-2993825D01*
X4403699Y-3007092D01*
X4397593Y-3021833D01*
X4394480Y-3037482D01*
X4394480Y-3053438D01*
X4396479Y-3063487D01*
X4388391Y-3120104D01*
X4388280Y-3121660D01*
X4388280Y-3148449D01*
X4387880Y-3148410D01*
X4359880Y-3148410D01*
X4351072Y-3149278D01*
X4342602Y-3151847D01*
X4338135Y-3154234D01*
X4335012Y-3150428D01*
X4328769Y-3145305D01*
X4321646Y-3141498D01*
X4313917Y-3139153D01*
X4305880Y-3138362D01*
X4289630Y-3138560D01*
X4279380Y-3148810D01*
X4279380Y-3209060D01*
X4281380Y-3209060D01*
X4281380Y-3212060D01*
X4279380Y-3212060D01*
X4279380Y-3272310D01*
X4289630Y-3282560D01*
X4305880Y-3282758D01*
X4313917Y-3281967D01*
X4321646Y-3279622D01*
X4328769Y-3275815D01*
X4335012Y-3270692D01*
X4338135Y-3266886D01*
X4342602Y-3269273D01*
X4351072Y-3271842D01*
X4359880Y-3272710D01*
X4387880Y-3272710D01*
X4388280Y-3272670D01*
X4388280Y-3351810D01*
X4388080Y-3352010D01*
X4388080Y-3412260D01*
X4388280Y-3412260D01*
X4388280Y-3415260D01*
X4388080Y-3415260D01*
X4388080Y-3417260D01*
X4385080Y-3417260D01*
X4385080Y-3415260D01*
X4327830Y-3415260D01*
X4317580Y-3425510D01*
X4317382Y-3444760D01*
X4318173Y-3452797D01*
X4320518Y-3460526D01*
X4323396Y-3465910D01*
X4321780Y-3465910D01*
X4312972Y-3466778D01*
X4304502Y-3469347D01*
X4300035Y-3471734D01*
X4296912Y-3467928D01*
X4290669Y-3462805D01*
X4283546Y-3458998D01*
X4275817Y-3456653D01*
X4267780Y-3455862D01*
X4251530Y-3456060D01*
X4241280Y-3466310D01*
X4241280Y-3526560D01*
X4243280Y-3526560D01*
X4243280Y-3529560D01*
X4241280Y-3529560D01*
X4241280Y-3628160D01*
X4243280Y-3628160D01*
X4243280Y-3631160D01*
X4241280Y-3631160D01*
X4241280Y-3691410D01*
X4251530Y-3701660D01*
X4267780Y-3701858D01*
X4275817Y-3701067D01*
X4283546Y-3698722D01*
X4290669Y-3694915D01*
X4296912Y-3689792D01*
X4300035Y-3685986D01*
X4304502Y-3688373D01*
X4312972Y-3690942D01*
X4321780Y-3691810D01*
X4349780Y-3691810D01*
X4358588Y-3690942D01*
X4367058Y-3688373D01*
X4374864Y-3684201D01*
X4381706Y-3678586D01*
X4387321Y-3671744D01*
X4387862Y-3670732D01*
X4388593Y-3670660D01*
X4388593Y-3670660D01*
X4390308Y-3670491D01*
X4388597Y-3673692D01*
X4386618Y-3677394D01*
X4384273Y-3685123D01*
X4383680Y-3691147D01*
X4383482Y-3693160D01*
X4383680Y-3695173D01*
X4383680Y-3698110D01*
X4382180Y-3698110D01*
X4376103Y-3698709D01*
X4370259Y-3700481D01*
X4364874Y-3703360D01*
X4360154Y-3707234D01*
X4356280Y-3711954D01*
X4353401Y-3717339D01*
X4351629Y-3723183D01*
X4351030Y-3729260D01*
X4351030Y-3735760D01*
X4343093Y-3735760D01*
X4341080Y-3735562D01*
X4339067Y-3735760D01*
X4339067Y-3735760D01*
X4333043Y-3736353D01*
X4327887Y-3737917D01*
X4325314Y-3738698D01*
X4318191Y-3742505D01*
X4316418Y-3743960D01*
X4311948Y-3747628D01*
X4310665Y-3749193D01*
X4282813Y-3777045D01*
X4281249Y-3778328D01*
X4279965Y-3779892D01*
X4279965Y-3779892D01*
X4278126Y-3782133D01*
X4276102Y-3782747D01*
X4268296Y-3786919D01*
X4261454Y-3792534D01*
X4255839Y-3799376D01*
X4251667Y-3807182D01*
X4249098Y-3815652D01*
X4248230Y-3824460D01*
X4248230Y-3852460D01*
X4249098Y-3861268D01*
X4251667Y-3869738D01*
X4254054Y-3874205D01*
X4250248Y-3877328D01*
X4245125Y-3883571D01*
X4241318Y-3890694D01*
X4238973Y-3898423D01*
X4238182Y-3906460D01*
X4238380Y-3922710D01*
X4248630Y-3932960D01*
X4308880Y-3932960D01*
X4308880Y-3930960D01*
X4311880Y-3930960D01*
X4311880Y-3932960D01*
X4313880Y-3932960D01*
X4313880Y-3935960D01*
X4311880Y-3935960D01*
X4311880Y-3993210D01*
X4322130Y-4003460D01*
X4341380Y-4003658D01*
X4345537Y-4003249D01*
X4343573Y-4009723D01*
X4342782Y-4017760D01*
X4342980Y-4037010D01*
X4353230Y-4047260D01*
X4410480Y-4047260D01*
X4410480Y-4045260D01*
X4413480Y-4045260D01*
X4413480Y-4047260D01*
X4415480Y-4047260D01*
X4415480Y-4050260D01*
X4413480Y-4050260D01*
X4413480Y-4052260D01*
X4410480Y-4052260D01*
X4410480Y-4050260D01*
X4353230Y-4050260D01*
X4342980Y-4060510D01*
X4342782Y-4079760D01*
X4343573Y-4087797D01*
X4345918Y-4095526D01*
X4348288Y-4099960D01*
X3597655Y-4099960D01*
X3503774Y-4092241D01*
X3413753Y-4069630D01*
X3373651Y-4052193D01*
X3374074Y-4052017D01*
X3384065Y-4045342D01*
X3392562Y-4036845D01*
X3399237Y-4026854D01*
X3400766Y-4023164D01*
X3411858Y-4029411D01*
X3428051Y-4034715D01*
X3444967Y-4036758D01*
X3461956Y-4035461D01*
X3478367Y-4030875D01*
X3493567Y-4023176D01*
X3496748Y-4021050D01*
X3500022Y-4005123D01*
X3558738Y-4005123D01*
X3562012Y-4021050D01*
X3576858Y-4029411D01*
X3593051Y-4034715D01*
X3609967Y-4036758D01*
X3626956Y-4035461D01*
X3643367Y-4030875D01*
X3658567Y-4023176D01*
X3661748Y-4021050D01*
X3665022Y-4005123D01*
X3723738Y-4005123D01*
X3727012Y-4021050D01*
X3741858Y-4029411D01*
X3758051Y-4034715D01*
X3774967Y-4036758D01*
X3791956Y-4035461D01*
X3808367Y-4030875D01*
X3823567Y-4023176D01*
X3826748Y-4021050D01*
X3830022Y-4005123D01*
X3776880Y-3951981D01*
X3723738Y-4005123D01*
X3665022Y-4005123D01*
X3611880Y-3951981D01*
X3558738Y-4005123D01*
X3500022Y-4005123D01*
X3446880Y-3951981D01*
X3445466Y-3953396D01*
X3443344Y-3951274D01*
X3444759Y-3949860D01*
X3449001Y-3949860D01*
X3502143Y-4003002D01*
X3518070Y-3999728D01*
X3526431Y-3984882D01*
X3529356Y-3975949D01*
X3530865Y-3981347D01*
X3538564Y-3996547D01*
X3540690Y-3999728D01*
X3556617Y-4003002D01*
X3609759Y-3949860D01*
X3614001Y-3949860D01*
X3667143Y-4003002D01*
X3683070Y-3999728D01*
X3691431Y-3984882D01*
X3694356Y-3975949D01*
X3695865Y-3981347D01*
X3703564Y-3996547D01*
X3705690Y-3999728D01*
X3721617Y-4003002D01*
X3774759Y-3949860D01*
X3779001Y-3949860D01*
X3832143Y-4003002D01*
X3848070Y-3999728D01*
X3856431Y-3984882D01*
X3861735Y-3968689D01*
X3863778Y-3951773D01*
X3862481Y-3934783D01*
X3857895Y-3918373D01*
X3850196Y-3903173D01*
X3848070Y-3899992D01*
X3832143Y-3896718D01*
X3779001Y-3949860D01*
X3774759Y-3949860D01*
X3721617Y-3896718D01*
X3705690Y-3899992D01*
X3697329Y-3914838D01*
X3694403Y-3923771D01*
X3692895Y-3918373D01*
X3685196Y-3903173D01*
X3683070Y-3899992D01*
X3667143Y-3896718D01*
X3614001Y-3949860D01*
X3609759Y-3949860D01*
X3556617Y-3896718D01*
X3540690Y-3899992D01*
X3532329Y-3914838D01*
X3529403Y-3923771D01*
X3527895Y-3918373D01*
X3520196Y-3903173D01*
X3518070Y-3899992D01*
X3502143Y-3896718D01*
X3449001Y-3949860D01*
X3444759Y-3949860D01*
X3391617Y-3896718D01*
X3375690Y-3899992D01*
X3367329Y-3914838D01*
X3362025Y-3931031D01*
X3361072Y-3938926D01*
X3357530Y-3938221D01*
X3357530Y-3917410D01*
X3356648Y-3908455D01*
X3354036Y-3899845D01*
X3351231Y-3894597D01*
X3393738Y-3894597D01*
X3446880Y-3947739D01*
X3500022Y-3894597D01*
X3496748Y-3878670D01*
X3481902Y-3870309D01*
X3465709Y-3865005D01*
X3448793Y-3862962D01*
X3431803Y-3864259D01*
X3415393Y-3868845D01*
X3400193Y-3876544D01*
X3397012Y-3878670D01*
X3393738Y-3894597D01*
X3351231Y-3894597D01*
X3349794Y-3891909D01*
X3344086Y-3884954D01*
X3342509Y-3883660D01*
X3344086Y-3882366D01*
X3349794Y-3875411D01*
X3354036Y-3867475D01*
X3356648Y-3858865D01*
X3357530Y-3849910D01*
X3357530Y-3820410D01*
X3356648Y-3811455D01*
X3354036Y-3802845D01*
X3349794Y-3794909D01*
X3344086Y-3787954D01*
X3337131Y-3782246D01*
X3335838Y-3781555D01*
X3337506Y-3780186D01*
X3343121Y-3773344D01*
X3343700Y-3772260D01*
X3395093Y-3772260D01*
X3415444Y-3792611D01*
X3424173Y-3799775D01*
X3437463Y-3806879D01*
X3451883Y-3811253D01*
X3466880Y-3812730D01*
X3481877Y-3811253D01*
X3496297Y-3806879D01*
X3509587Y-3799775D01*
X3521235Y-3790215D01*
X3530795Y-3778567D01*
X3537899Y-3765277D01*
X3542273Y-3750857D01*
X3542523Y-3748321D01*
X3544086Y-3752096D01*
X3552458Y-3764626D01*
X3563114Y-3775281D01*
X3567536Y-3778236D01*
X3564498Y-3781275D01*
X3557822Y-3791266D01*
X3553224Y-3802367D01*
X3550880Y-3814152D01*
X3550880Y-3826168D01*
X3553224Y-3837953D01*
X3557822Y-3849054D01*
X3564498Y-3859045D01*
X3572995Y-3867542D01*
X3577294Y-3870415D01*
X3565193Y-3876544D01*
X3562012Y-3878670D01*
X3558738Y-3894597D01*
X3611880Y-3947739D01*
X3665022Y-3894597D01*
X3661748Y-3878670D01*
X3646902Y-3870309D01*
X3646715Y-3870248D01*
X3650765Y-3867542D01*
X3659262Y-3859045D01*
X3665937Y-3849054D01*
X3670536Y-3837953D01*
X3672880Y-3826168D01*
X3672880Y-3814152D01*
X3670536Y-3802367D01*
X3665937Y-3791266D01*
X3659262Y-3781275D01*
X3656223Y-3778236D01*
X3660646Y-3775281D01*
X3671301Y-3764626D01*
X3679673Y-3752096D01*
X3685440Y-3738174D01*
X3688380Y-3723395D01*
X3688380Y-3708325D01*
X3700380Y-3708325D01*
X3700380Y-3723395D01*
X3703320Y-3738174D01*
X3709086Y-3752096D01*
X3717458Y-3764626D01*
X3728114Y-3775281D01*
X3735060Y-3779923D01*
X3731024Y-3789667D01*
X3728680Y-3801452D01*
X3728680Y-3813468D01*
X3731024Y-3825253D01*
X3735622Y-3836354D01*
X3742298Y-3846345D01*
X3750795Y-3854842D01*
X3760786Y-3861517D01*
X3766533Y-3863898D01*
X3761803Y-3864259D01*
X3745393Y-3868845D01*
X3730193Y-3876544D01*
X3727012Y-3878670D01*
X3723738Y-3894597D01*
X3776880Y-3947739D01*
X3830022Y-3894597D01*
X3826748Y-3878670D01*
X3811902Y-3870309D01*
X3802263Y-3867152D01*
X3807473Y-3866116D01*
X3818574Y-3861517D01*
X3828565Y-3854842D01*
X3837062Y-3846345D01*
X3843737Y-3836354D01*
X3848336Y-3825253D01*
X3850280Y-3815478D01*
X3850280Y-3830846D01*
X3850082Y-3832860D01*
X3850597Y-3838094D01*
X3850873Y-3840897D01*
X3852770Y-3847149D01*
X3853218Y-3848626D01*
X3857025Y-3855748D01*
X3859250Y-3858460D01*
X3862148Y-3861992D01*
X3863713Y-3863275D01*
X3949765Y-3949327D01*
X3951048Y-3950892D01*
X3952724Y-3952267D01*
X3957291Y-3956015D01*
X3959943Y-3957432D01*
X3964414Y-3959822D01*
X3972143Y-3962167D01*
X3978167Y-3962760D01*
X3978167Y-3962760D01*
X3980180Y-3962958D01*
X3982193Y-3962760D01*
X4011114Y-3962760D01*
X4017496Y-3969142D01*
X4027487Y-3975817D01*
X4038588Y-3980416D01*
X4050373Y-3982760D01*
X4062389Y-3982760D01*
X4074174Y-3980416D01*
X4085276Y-3975817D01*
X4095266Y-3969142D01*
X4101948Y-3962460D01*
X4238182Y-3962460D01*
X4238973Y-3970497D01*
X4241318Y-3978226D01*
X4245125Y-3985349D01*
X4250248Y-3991592D01*
X4256491Y-3996715D01*
X4263614Y-4000522D01*
X4271343Y-4002867D01*
X4279380Y-4003658D01*
X4298630Y-4003460D01*
X4308880Y-3993210D01*
X4308880Y-3935960D01*
X4248630Y-3935960D01*
X4238380Y-3946210D01*
X4238182Y-3962460D01*
X4101948Y-3962460D01*
X4103763Y-3960645D01*
X4110439Y-3950654D01*
X4115037Y-3939553D01*
X4117381Y-3927768D01*
X4117381Y-3915752D01*
X4115037Y-3903967D01*
X4110439Y-3892866D01*
X4103763Y-3882875D01*
X4095266Y-3874378D01*
X4085276Y-3867702D01*
X4074174Y-3863104D01*
X4062389Y-3860760D01*
X4050373Y-3860760D01*
X4038588Y-3863104D01*
X4027487Y-3867702D01*
X4017496Y-3874378D01*
X4011114Y-3880760D01*
X3997163Y-3880760D01*
X3991266Y-3874863D01*
X3996182Y-3872826D01*
X4006173Y-3866151D01*
X4014669Y-3857654D01*
X4021345Y-3847663D01*
X4025943Y-3836562D01*
X4028288Y-3824777D01*
X4028288Y-3812761D01*
X4025943Y-3800976D01*
X4021345Y-3789875D01*
X4014669Y-3779884D01*
X4012280Y-3777494D01*
X4012280Y-3660660D01*
X4170582Y-3660660D01*
X4171373Y-3668697D01*
X4173718Y-3676426D01*
X4177525Y-3683549D01*
X4182648Y-3689792D01*
X4188891Y-3694915D01*
X4196014Y-3698722D01*
X4203743Y-3701067D01*
X4211780Y-3701858D01*
X4228030Y-3701660D01*
X4238280Y-3691410D01*
X4238280Y-3631160D01*
X4181030Y-3631160D01*
X4170780Y-3641410D01*
X4170582Y-3660660D01*
X4012280Y-3660660D01*
X4012280Y-3593310D01*
X4024080Y-3593310D01*
X4030157Y-3592711D01*
X4036001Y-3590939D01*
X4041386Y-3588060D01*
X4046106Y-3584186D01*
X4049980Y-3579466D01*
X4052859Y-3574081D01*
X4054631Y-3568237D01*
X4055230Y-3562160D01*
X4055230Y-3559060D01*
X4170582Y-3559060D01*
X4171373Y-3567097D01*
X4173718Y-3574826D01*
X4175874Y-3578860D01*
X4173718Y-3582894D01*
X4171373Y-3590623D01*
X4170582Y-3598660D01*
X4170780Y-3617910D01*
X4181030Y-3628160D01*
X4238280Y-3628160D01*
X4238280Y-3529560D01*
X4181030Y-3529560D01*
X4170780Y-3539810D01*
X4170582Y-3559060D01*
X4055230Y-3559060D01*
X4055230Y-3497060D01*
X4170582Y-3497060D01*
X4170780Y-3516310D01*
X4181030Y-3526560D01*
X4238280Y-3526560D01*
X4238280Y-3466310D01*
X4228030Y-3456060D01*
X4211780Y-3455862D01*
X4203743Y-3456653D01*
X4196014Y-3458998D01*
X4188891Y-3462805D01*
X4182648Y-3467928D01*
X4177525Y-3474171D01*
X4173718Y-3481294D01*
X4171373Y-3489023D01*
X4170582Y-3497060D01*
X4055230Y-3497060D01*
X4055230Y-3472160D01*
X4054631Y-3466083D01*
X4052859Y-3460239D01*
X4049980Y-3454854D01*
X4046106Y-3450134D01*
X4041386Y-3446260D01*
X4036001Y-3443381D01*
X4030157Y-3441609D01*
X4024080Y-3441010D01*
X4012280Y-3441010D01*
X4012280Y-3382760D01*
X4317382Y-3382760D01*
X4317580Y-3402010D01*
X4327830Y-3412260D01*
X4385080Y-3412260D01*
X4385080Y-3352010D01*
X4374830Y-3341760D01*
X4358580Y-3341562D01*
X4350543Y-3342353D01*
X4342814Y-3344698D01*
X4335691Y-3348505D01*
X4329448Y-3353628D01*
X4324325Y-3359871D01*
X4320518Y-3366994D01*
X4318173Y-3374723D01*
X4317382Y-3382760D01*
X4012280Y-3382760D01*
X4012280Y-3241560D01*
X4208682Y-3241560D01*
X4209473Y-3249597D01*
X4211818Y-3257326D01*
X4215625Y-3264449D01*
X4220748Y-3270692D01*
X4226991Y-3275815D01*
X4234114Y-3279622D01*
X4241843Y-3281967D01*
X4249880Y-3282758D01*
X4266130Y-3282560D01*
X4276380Y-3272310D01*
X4276380Y-3212060D01*
X4219130Y-3212060D01*
X4208880Y-3222310D01*
X4208682Y-3241560D01*
X4012280Y-3241560D01*
X4012280Y-3183310D01*
X4024080Y-3183310D01*
X4030157Y-3182711D01*
X4036001Y-3180939D01*
X4038580Y-3179560D01*
X4208682Y-3179560D01*
X4208880Y-3198810D01*
X4219130Y-3209060D01*
X4276380Y-3209060D01*
X4276380Y-3148810D01*
X4266130Y-3138560D01*
X4249880Y-3138362D01*
X4241843Y-3139153D01*
X4234114Y-3141498D01*
X4226991Y-3145305D01*
X4220748Y-3150428D01*
X4215625Y-3156671D01*
X4211818Y-3163794D01*
X4209473Y-3171523D01*
X4208682Y-3179560D01*
X4038580Y-3179560D01*
X4041386Y-3178060D01*
X4046106Y-3174186D01*
X4049980Y-3169466D01*
X4052859Y-3164081D01*
X4054631Y-3158237D01*
X4055230Y-3152160D01*
X4055230Y-3062160D01*
X4054631Y-3056083D01*
X4052859Y-3050239D01*
X4049980Y-3044854D01*
X4046106Y-3040134D01*
X4041386Y-3036260D01*
X4036001Y-3033381D01*
X4030157Y-3031609D01*
X4024080Y-3031010D01*
X3924080Y-3031010D01*
X3918003Y-3031609D01*
X3912159Y-3033381D01*
X3906774Y-3036260D01*
X3902054Y-3040134D01*
X3898180Y-3044854D01*
X3895301Y-3050239D01*
X3894080Y-3054265D01*
X3892859Y-3050239D01*
X3889980Y-3044854D01*
X3886106Y-3040134D01*
X3881386Y-3036260D01*
X3876001Y-3033381D01*
X3870157Y-3031609D01*
X3864080Y-3031010D01*
X3764080Y-3031010D01*
X3758003Y-3031609D01*
X3752159Y-3033381D01*
X3746774Y-3036260D01*
X3742054Y-3040134D01*
X3738180Y-3044854D01*
X3735301Y-3050239D01*
X3733529Y-3056083D01*
X3732930Y-3062160D01*
X3732930Y-3152160D01*
X3733529Y-3158237D01*
X3735301Y-3164081D01*
X3738180Y-3169466D01*
X3742054Y-3174186D01*
X3746774Y-3178060D01*
X3752159Y-3180939D01*
X3758003Y-3182711D01*
X3764080Y-3183310D01*
X3770280Y-3183310D01*
X3770280Y-3186072D01*
X3763330Y-3186160D01*
X3753080Y-3196410D01*
X3753080Y-3310660D01*
X3755080Y-3310660D01*
X3755080Y-3313660D01*
X3753080Y-3313660D01*
X3753080Y-3427910D01*
X3763330Y-3438160D01*
X3770280Y-3438247D01*
X3770280Y-3441010D01*
X3764080Y-3441010D01*
X3758003Y-3441609D01*
X3752159Y-3443381D01*
X3746774Y-3446260D01*
X3742054Y-3450134D01*
X3738180Y-3454854D01*
X3735301Y-3460239D01*
X3733529Y-3466083D01*
X3732930Y-3472160D01*
X3732930Y-3562160D01*
X3733529Y-3568237D01*
X3735301Y-3574081D01*
X3738180Y-3579466D01*
X3742054Y-3584186D01*
X3746774Y-3588060D01*
X3752159Y-3590939D01*
X3758003Y-3592711D01*
X3764080Y-3593310D01*
X3784247Y-3593310D01*
X3850280Y-3659343D01*
X3850280Y-3693159D01*
X3844673Y-3679624D01*
X3836301Y-3667094D01*
X3825646Y-3656438D01*
X3813116Y-3648066D01*
X3799194Y-3642300D01*
X3784415Y-3639360D01*
X3769345Y-3639360D01*
X3754566Y-3642300D01*
X3740644Y-3648066D01*
X3728114Y-3656438D01*
X3717458Y-3667094D01*
X3709086Y-3679624D01*
X3703320Y-3693546D01*
X3700380Y-3708325D01*
X3688380Y-3708325D01*
X3685440Y-3693546D01*
X3679673Y-3679624D01*
X3671301Y-3667094D01*
X3660646Y-3656438D01*
X3648116Y-3648066D01*
X3634194Y-3642300D01*
X3619415Y-3639360D01*
X3604345Y-3639360D01*
X3589566Y-3642300D01*
X3575644Y-3648066D01*
X3563114Y-3656438D01*
X3552458Y-3667094D01*
X3544086Y-3679624D01*
X3538320Y-3693546D01*
X3536336Y-3703519D01*
X3530795Y-3693153D01*
X3523631Y-3684424D01*
X3498316Y-3659109D01*
X3489587Y-3651945D01*
X3476297Y-3644841D01*
X3461877Y-3640467D01*
X3446880Y-3638990D01*
X3431883Y-3640467D01*
X3417463Y-3644841D01*
X3404173Y-3651945D01*
X3392525Y-3661505D01*
X3382965Y-3673153D01*
X3375861Y-3686443D01*
X3374703Y-3690260D01*
X3343700Y-3690260D01*
X3343121Y-3689176D01*
X3337506Y-3682334D01*
X3330664Y-3676719D01*
X3322858Y-3672547D01*
X3314388Y-3669978D01*
X3305580Y-3669110D01*
X3277580Y-3669110D01*
X3268772Y-3669978D01*
X3260302Y-3672547D01*
X3255835Y-3674934D01*
X3252712Y-3671128D01*
X3246469Y-3666005D01*
X3239346Y-3662198D01*
X3231617Y-3659853D01*
X3223580Y-3659062D01*
X3207330Y-3659260D01*
X3197080Y-3669510D01*
X3197080Y-3729760D01*
X3199080Y-3729760D01*
X3199080Y-3732760D01*
X3197080Y-3732760D01*
X3197080Y-3793010D01*
X3207330Y-3803260D01*
X3223580Y-3803458D01*
X3231617Y-3802667D01*
X3235439Y-3801508D01*
X3234724Y-3802845D01*
X3232112Y-3811455D01*
X3231230Y-3820410D01*
X3231230Y-3849910D01*
X3232112Y-3858865D01*
X3234724Y-3867475D01*
X3238966Y-3875411D01*
X3244674Y-3882366D01*
X3246250Y-3883660D01*
X3244674Y-3884954D01*
X3238966Y-3891909D01*
X3234724Y-3899845D01*
X3232112Y-3908455D01*
X3231230Y-3917410D01*
X3231230Y-3946910D01*
X3232112Y-3955865D01*
X3234724Y-3964475D01*
X3238042Y-3970684D01*
X3182051Y-3919735D01*
X3124524Y-3846894D01*
X3079667Y-3765635D01*
X3078472Y-3762260D01*
X3126382Y-3762260D01*
X3127173Y-3770297D01*
X3129518Y-3778026D01*
X3133325Y-3785149D01*
X3138448Y-3791392D01*
X3144691Y-3796515D01*
X3151814Y-3800322D01*
X3159543Y-3802667D01*
X3167580Y-3803458D01*
X3183830Y-3803260D01*
X3194080Y-3793010D01*
X3194080Y-3732760D01*
X3136830Y-3732760D01*
X3126580Y-3743010D01*
X3126382Y-3762260D01*
X3078472Y-3762260D01*
X3056517Y-3700260D01*
X3126382Y-3700260D01*
X3126580Y-3719510D01*
X3136830Y-3729760D01*
X3194080Y-3729760D01*
X3194080Y-3669510D01*
X3183830Y-3659260D01*
X3167580Y-3659062D01*
X3159543Y-3659853D01*
X3151814Y-3662198D01*
X3144691Y-3666005D01*
X3138448Y-3671128D01*
X3133325Y-3677371D01*
X3129518Y-3684494D01*
X3127173Y-3692223D01*
X3126382Y-3700260D01*
X3056517Y-3700260D01*
X3048684Y-3678141D01*
X3032407Y-3586761D01*
X3032368Y-3583605D01*
X3033363Y-3585094D01*
X3044645Y-3596377D01*
X3057912Y-3605241D01*
X3072653Y-3611347D01*
X3088302Y-3614460D01*
X3104258Y-3614460D01*
X3119907Y-3611347D01*
X3134648Y-3605241D01*
X3147914Y-3596377D01*
X3159197Y-3585094D01*
X3168061Y-3571828D01*
X3174167Y-3557087D01*
X3177280Y-3541438D01*
X3177280Y-3525482D01*
X3174167Y-3509833D01*
X3168061Y-3495092D01*
X3159197Y-3481825D01*
X3147914Y-3470543D01*
X3134648Y-3461679D01*
X3119907Y-3455573D01*
X3104258Y-3452460D01*
X3088302Y-3452460D01*
X3072653Y-3455573D01*
X3057912Y-3461679D01*
X3044645Y-3470543D01*
X3033363Y-3481825D01*
X3033058Y-3482282D01*
X3045312Y-3402201D01*
X3074149Y-3313976D01*
X3117007Y-3231645D01*
X3172737Y-3157421D01*
X3239841Y-3093294D01*
X3312160Y-3043962D01*
X3310301Y-3047439D01*
X3308529Y-3053283D01*
X3307930Y-3059360D01*
X3307930Y-3109360D01*
X3308529Y-3115437D01*
X3310301Y-3121281D01*
X3313180Y-3126666D01*
X3317054Y-3131386D01*
X3320677Y-3134360D01*
X3317054Y-3137334D01*
X3313180Y-3142054D01*
X3310301Y-3147439D01*
X3308529Y-3153283D01*
X3307930Y-3159360D01*
X3307930Y-3209360D01*
X3308529Y-3215437D01*
X3310301Y-3221281D01*
X3313180Y-3226666D01*
X3317054Y-3231386D01*
X3321774Y-3235260D01*
X3327159Y-3238139D01*
X3333003Y-3239911D01*
X3335425Y-3240150D01*
X3332125Y-3244172D01*
X3328476Y-3250998D01*
X3328318Y-3251294D01*
X3325973Y-3259023D01*
X3325940Y-3259365D01*
X3325182Y-3267060D01*
X3325380Y-3269074D01*
X3325380Y-3270409D01*
X3320303Y-3270909D01*
X3314459Y-3272681D01*
X3309074Y-3275560D01*
X3304354Y-3279434D01*
X3300480Y-3284154D01*
X3297601Y-3289539D01*
X3295829Y-3295383D01*
X3295230Y-3301460D01*
X3295230Y-3394727D01*
X3241080Y-3340577D01*
X3241080Y-3331552D01*
X3238736Y-3319767D01*
X3234137Y-3308666D01*
X3227462Y-3298675D01*
X3218965Y-3290178D01*
X3208974Y-3283502D01*
X3197873Y-3278904D01*
X3186088Y-3276560D01*
X3174072Y-3276560D01*
X3162287Y-3278904D01*
X3151186Y-3283502D01*
X3141195Y-3290178D01*
X3132698Y-3298675D01*
X3126022Y-3308666D01*
X3121424Y-3319767D01*
X3119080Y-3331552D01*
X3119080Y-3343568D01*
X3121424Y-3355353D01*
X3126022Y-3366454D01*
X3132698Y-3376445D01*
X3141195Y-3384942D01*
X3151186Y-3391617D01*
X3162287Y-3396216D01*
X3174072Y-3398560D01*
X3183097Y-3398560D01*
X3295230Y-3510693D01*
X3295230Y-3551460D01*
X3295829Y-3557537D01*
X3297601Y-3563381D01*
X3300480Y-3568766D01*
X3304354Y-3573486D01*
X3309074Y-3577360D01*
X3314459Y-3580239D01*
X3320303Y-3582011D01*
X3326380Y-3582610D01*
X3406380Y-3582610D01*
X3412457Y-3582011D01*
X3418301Y-3580239D01*
X3421380Y-3578593D01*
X3424459Y-3580239D01*
X3430303Y-3582011D01*
X3436380Y-3582610D01*
X3516380Y-3582610D01*
X3522457Y-3582011D01*
X3528301Y-3580239D01*
X3533686Y-3577360D01*
X3538406Y-3573486D01*
X3542280Y-3568766D01*
X3545159Y-3563381D01*
X3546931Y-3557537D01*
X3547530Y-3551460D01*
X3547530Y-3488293D01*
X3568948Y-3466875D01*
X3570512Y-3465591D01*
X3571795Y-3464028D01*
X3575635Y-3459348D01*
X3578331Y-3454305D01*
X3579442Y-3452226D01*
X3581787Y-3444497D01*
X3582380Y-3438473D01*
X3582380Y-3438472D01*
X3582578Y-3436460D01*
X3582380Y-3434448D01*
X3582380Y-3397160D01*
X3682882Y-3397160D01*
X3683673Y-3405197D01*
X3686018Y-3412926D01*
X3689825Y-3420049D01*
X3694948Y-3426292D01*
X3701191Y-3431415D01*
X3708314Y-3435222D01*
X3716043Y-3437567D01*
X3724080Y-3438358D01*
X3739830Y-3438160D01*
X3750080Y-3427910D01*
X3750080Y-3313660D01*
X3693330Y-3313660D01*
X3683080Y-3323910D01*
X3682882Y-3397160D01*
X3582380Y-3397160D01*
X3582380Y-3227160D01*
X3682882Y-3227160D01*
X3683080Y-3300410D01*
X3693330Y-3310660D01*
X3750080Y-3310660D01*
X3750080Y-3196410D01*
X3739830Y-3186160D01*
X3724080Y-3185962D01*
X3716043Y-3186753D01*
X3708314Y-3189098D01*
X3701191Y-3192905D01*
X3694948Y-3198028D01*
X3689825Y-3204271D01*
X3686018Y-3211394D01*
X3683673Y-3219123D01*
X3682882Y-3227160D01*
X3582380Y-3227160D01*
X3582380Y-3220672D01*
X3582578Y-3218660D01*
X3582380Y-3216648D01*
X3582380Y-3216647D01*
X3581787Y-3210623D01*
X3579442Y-3202894D01*
X3577259Y-3198810D01*
X3575635Y-3195771D01*
X3571795Y-3191092D01*
X3571795Y-3191092D01*
X3570512Y-3189528D01*
X3568948Y-3188245D01*
X3560230Y-3179527D01*
X3560230Y-3159360D01*
X3559631Y-3153283D01*
X3557859Y-3147439D01*
X3554980Y-3142054D01*
X3551106Y-3137334D01*
X3547483Y-3134360D01*
X3550548Y-3131845D01*
X3558175Y-3135004D01*
X3568511Y-3137060D01*
X3579049Y-3137060D01*
X3589385Y-3135004D01*
X3599122Y-3130971D01*
X3607884Y-3125116D01*
X3615336Y-3117664D01*
X3621191Y-3108902D01*
X3625224Y-3099165D01*
X3627280Y-3088829D01*
X3627280Y-3078291D01*
X3625224Y-3067955D01*
X3621191Y-3058218D01*
X3615336Y-3049456D01*
X3614480Y-3048600D01*
X3615336Y-3047744D01*
X3621191Y-3038982D01*
X3625224Y-3029245D01*
X3627280Y-3018909D01*
X3627280Y-3008371D01*
X3625224Y-2998035D01*
X3621191Y-2988298D01*
X3615336Y-2979536D01*
X3607884Y-2972084D01*
X3600216Y-2966960D01*
X4454934Y-2966960D01*
X4451853Y-2967573D01*
G37*
G04 #@! TD.AperFunction*
D33*
X5835680Y-4059960D02*
X5837680Y-4059960D01*
X5837680Y-4062960D01*
X5835680Y-4062960D01*
X5835680Y-4064960D01*
X5832680Y-4064960D01*
X5832680Y-4062960D01*
X5830680Y-4062960D01*
X5830680Y-4059960D01*
X5832680Y-4059960D01*
X5832680Y-4057960D01*
X5835680Y-4057960D01*
X5835680Y-4059960D01*
G04 #@! TA.AperFunction,Conductor*
D34*
G36*
X5835680Y-4059960D02*
G01*
X5837680Y-4059960D01*
X5837680Y-4062960D01*
X5835680Y-4062960D01*
X5835680Y-4064960D01*
X5832680Y-4064960D01*
X5832680Y-4062960D01*
X5830680Y-4062960D01*
X5830680Y-4059960D01*
X5832680Y-4059960D01*
X5832680Y-4057960D01*
X5835680Y-4057960D01*
X5835680Y-4059960D01*
G37*
G04 #@! TD.AperFunction*
D33*
X5985169Y-3497896D02*
X5981515Y-3500895D01*
X5976086Y-3507509D01*
X5972053Y-3515056D01*
X5969569Y-3523244D01*
X5968730Y-3531760D01*
X5968730Y-3581760D01*
X5969569Y-3590276D01*
X5972053Y-3598464D01*
X5976086Y-3606011D01*
X5981515Y-3612625D01*
X5981555Y-3612658D01*
X5976791Y-3615205D01*
X5970548Y-3620328D01*
X5965425Y-3626571D01*
X5961618Y-3633694D01*
X5959273Y-3641423D01*
X5958482Y-3649460D01*
X5958680Y-3668710D01*
X5968930Y-3678960D01*
X6026180Y-3678960D01*
X6026180Y-3676960D01*
X6029180Y-3676960D01*
X6029180Y-3678960D01*
X6031180Y-3678960D01*
X6031180Y-3681960D01*
X6029180Y-3681960D01*
X6029180Y-3742210D01*
X6039430Y-3752460D01*
X6055680Y-3752658D01*
X6063717Y-3751867D01*
X6071446Y-3749522D01*
X6078569Y-3745715D01*
X6084812Y-3740592D01*
X6087935Y-3736786D01*
X6092402Y-3739173D01*
X6100872Y-3741742D01*
X6109680Y-3742610D01*
X6137680Y-3742610D01*
X6146488Y-3741742D01*
X6154958Y-3739173D01*
X6162764Y-3735001D01*
X6169606Y-3729386D01*
X6170201Y-3728660D01*
X6185337Y-3728660D01*
X6185996Y-3729201D01*
X6193802Y-3733373D01*
X6202272Y-3735942D01*
X6211080Y-3736810D01*
X6245080Y-3736810D01*
X6253888Y-3735942D01*
X6262358Y-3733373D01*
X6270164Y-3729201D01*
X6277006Y-3723586D01*
X6282621Y-3716744D01*
X6286793Y-3708938D01*
X6289362Y-3700468D01*
X6290230Y-3691660D01*
X6290230Y-3689470D01*
X6291961Y-3691579D01*
X6299996Y-3698174D01*
X6309163Y-3703074D01*
X6319110Y-3706091D01*
X6329455Y-3707110D01*
X6380705Y-3707110D01*
X6391050Y-3706091D01*
X6400997Y-3703074D01*
X6410164Y-3698174D01*
X6418199Y-3691579D01*
X6424794Y-3683544D01*
X6428981Y-3675710D01*
X6439495Y-3675710D01*
X6441630Y-3675920D01*
X6443765Y-3675710D01*
X6443766Y-3675710D01*
X6450157Y-3675080D01*
X6458357Y-3672593D01*
X6465914Y-3668554D01*
X6472538Y-3663118D01*
X6473900Y-3661458D01*
X6485448Y-3649910D01*
X6500580Y-3649910D01*
X6509291Y-3649052D01*
X6509778Y-3648904D01*
X6514672Y-3654868D01*
X6516332Y-3656230D01*
X6562562Y-3702460D01*
X6561080Y-3702460D01*
X6561080Y-3712710D01*
X6550830Y-3702460D01*
X6509580Y-3702262D01*
X6501543Y-3703053D01*
X6493814Y-3705398D01*
X6486691Y-3709205D01*
X6480448Y-3714328D01*
X6475325Y-3720571D01*
X6471518Y-3727694D01*
X6469173Y-3735423D01*
X6468382Y-3743460D01*
X6468580Y-3764210D01*
X6478830Y-3774460D01*
X6561080Y-3774460D01*
X6561080Y-3772460D01*
X6564080Y-3772460D01*
X6564080Y-3774460D01*
X6566080Y-3774460D01*
X6566080Y-3777460D01*
X6564080Y-3777460D01*
X6564080Y-3839210D01*
X6574330Y-3849460D01*
X6599580Y-3849581D01*
X6599580Y-3902310D01*
X6532263Y-3902310D01*
X6533524Y-3899265D01*
X6535580Y-3888929D01*
X6535580Y-3878391D01*
X6533524Y-3868055D01*
X6529491Y-3858318D01*
X6523660Y-3849591D01*
X6550830Y-3849460D01*
X6561080Y-3839210D01*
X6561080Y-3777460D01*
X6478830Y-3777460D01*
X6468580Y-3787710D01*
X6468382Y-3808460D01*
X6469173Y-3816497D01*
X6471518Y-3824226D01*
X6473444Y-3827830D01*
X6471716Y-3827660D01*
X6471715Y-3827660D01*
X6469580Y-3827450D01*
X6467445Y-3827660D01*
X6444542Y-3827660D01*
X6443252Y-3826088D01*
X6436486Y-3820535D01*
X6435785Y-3820160D01*
X6436486Y-3819785D01*
X6443252Y-3814232D01*
X6448805Y-3807466D01*
X6452931Y-3799747D01*
X6455472Y-3791371D01*
X6456330Y-3782660D01*
X6456330Y-3755660D01*
X6455472Y-3746949D01*
X6452931Y-3738573D01*
X6448805Y-3730854D01*
X6443252Y-3724088D01*
X6436486Y-3718535D01*
X6428767Y-3714409D01*
X6420391Y-3711868D01*
X6411680Y-3711010D01*
X6374680Y-3711010D01*
X6365969Y-3711868D01*
X6357593Y-3714409D01*
X6349874Y-3718535D01*
X6343108Y-3724088D01*
X6339494Y-3728491D01*
X6338553Y-3728777D01*
X6330996Y-3732816D01*
X6324372Y-3738252D01*
X6323010Y-3739911D01*
X6310112Y-3752810D01*
X6304622Y-3752810D01*
X6292837Y-3755154D01*
X6281736Y-3759752D01*
X6271745Y-3766428D01*
X6263248Y-3774925D01*
X6256572Y-3784916D01*
X6251974Y-3796017D01*
X6249630Y-3807802D01*
X6249630Y-3813292D01*
X6235331Y-3827590D01*
X6233672Y-3828952D01*
X6232311Y-3830611D01*
X6232310Y-3830611D01*
X6231316Y-3831823D01*
X6228236Y-3835576D01*
X6224747Y-3842104D01*
X6224197Y-3843133D01*
X6221929Y-3850610D01*
X6219580Y-3850610D01*
X6213503Y-3851209D01*
X6207659Y-3852981D01*
X6202274Y-3855860D01*
X6197554Y-3859734D01*
X6193680Y-3864454D01*
X6190801Y-3869839D01*
X6189029Y-3875683D01*
X6188529Y-3880760D01*
X6137247Y-3880760D01*
X6138359Y-3878681D01*
X6140131Y-3872837D01*
X6140730Y-3866760D01*
X6140730Y-3786760D01*
X6140131Y-3780683D01*
X6138359Y-3774839D01*
X6135480Y-3769454D01*
X6131606Y-3764734D01*
X6126886Y-3760860D01*
X6121501Y-3757981D01*
X6115657Y-3756209D01*
X6109580Y-3755610D01*
X6019580Y-3755610D01*
X6013503Y-3756209D01*
X6007659Y-3757981D01*
X6002274Y-3760860D01*
X5997554Y-3764734D01*
X5993680Y-3769454D01*
X5992330Y-3771979D01*
X5992330Y-3751934D01*
X5999680Y-3752658D01*
X6015930Y-3752460D01*
X6026180Y-3742210D01*
X6026180Y-3681960D01*
X5968930Y-3681960D01*
X5958680Y-3692210D01*
X5958639Y-3696182D01*
X5955988Y-3695378D01*
X5947180Y-3694510D01*
X5919180Y-3694510D01*
X5910372Y-3695378D01*
X5901902Y-3697947D01*
X5897435Y-3700334D01*
X5894312Y-3696528D01*
X5888069Y-3691405D01*
X5880946Y-3687598D01*
X5873217Y-3685253D01*
X5865180Y-3684462D01*
X5848930Y-3684660D01*
X5838680Y-3694910D01*
X5838680Y-3755160D01*
X5840680Y-3755160D01*
X5840680Y-3758160D01*
X5838680Y-3758160D01*
X5838680Y-3795010D01*
X5838180Y-3795510D01*
X5838180Y-3856760D01*
X5840180Y-3856760D01*
X5840180Y-3859760D01*
X5838180Y-3859760D01*
X5838180Y-3861760D01*
X5835180Y-3861760D01*
X5835180Y-3859760D01*
X5776430Y-3859760D01*
X5766180Y-3870010D01*
X5765982Y-3890260D01*
X5766773Y-3898297D01*
X5769118Y-3906026D01*
X5772925Y-3913149D01*
X5778048Y-3919392D01*
X5780822Y-3921668D01*
X5779429Y-3924273D01*
X5776888Y-3932649D01*
X5776030Y-3941360D01*
X5776030Y-3947527D01*
X5740997Y-3982560D01*
X5740211Y-3982560D01*
X5729875Y-3984616D01*
X5720138Y-3988649D01*
X5718730Y-3989590D01*
X5718730Y-3968460D01*
X5718380Y-3964907D01*
X5718380Y-3941559D01*
X5721835Y-3937349D01*
X5725642Y-3930226D01*
X5727987Y-3922497D01*
X5728778Y-3914460D01*
X5728580Y-3898210D01*
X5718380Y-3888010D01*
X5718380Y-3884910D01*
X5728580Y-3874710D01*
X5728778Y-3858460D01*
X5727987Y-3850423D01*
X5725642Y-3842694D01*
X5723780Y-3839210D01*
X5725642Y-3835726D01*
X5727987Y-3827997D01*
X5728158Y-3826260D01*
X5765982Y-3826260D01*
X5766180Y-3846510D01*
X5776430Y-3856760D01*
X5835180Y-3856760D01*
X5835180Y-3818910D01*
X5835680Y-3818410D01*
X5835680Y-3758160D01*
X5778430Y-3758160D01*
X5768180Y-3768410D01*
X5767982Y-3787660D01*
X5768773Y-3795697D01*
X5771118Y-3803426D01*
X5772007Y-3805089D01*
X5769118Y-3810494D01*
X5766773Y-3818223D01*
X5765982Y-3826260D01*
X5728158Y-3826260D01*
X5728778Y-3819960D01*
X5728580Y-3803710D01*
X5718380Y-3793510D01*
X5718380Y-3790410D01*
X5728580Y-3780210D01*
X5728778Y-3763960D01*
X5727987Y-3755923D01*
X5725642Y-3748194D01*
X5721835Y-3741071D01*
X5718380Y-3736861D01*
X5718380Y-3725660D01*
X5767982Y-3725660D01*
X5768180Y-3744910D01*
X5778430Y-3755160D01*
X5835680Y-3755160D01*
X5835680Y-3694910D01*
X5825430Y-3684660D01*
X5809180Y-3684462D01*
X5801143Y-3685253D01*
X5793414Y-3687598D01*
X5786291Y-3691405D01*
X5780048Y-3696528D01*
X5774925Y-3702771D01*
X5771118Y-3709894D01*
X5768773Y-3717623D01*
X5767982Y-3725660D01*
X5718380Y-3725660D01*
X5718380Y-3713513D01*
X5718730Y-3709960D01*
X5718730Y-3681960D01*
X5718380Y-3678407D01*
X5718380Y-3642360D01*
X5718169Y-3640214D01*
X5717543Y-3638150D01*
X5716526Y-3636249D01*
X5715158Y-3634582D01*
X5713491Y-3633214D01*
X5711589Y-3632197D01*
X5709526Y-3631571D01*
X5707380Y-3631360D01*
X5436863Y-3631360D01*
X5382496Y-3576993D01*
X5381212Y-3575428D01*
X5374969Y-3570305D01*
X5367846Y-3566498D01*
X5364755Y-3565560D01*
X5377120Y-3565560D01*
X5381176Y-3569616D01*
X5389938Y-3575471D01*
X5399675Y-3579504D01*
X5410011Y-3581560D01*
X5420549Y-3581560D01*
X5430885Y-3579504D01*
X5440622Y-3575471D01*
X5449384Y-3569616D01*
X5456836Y-3562164D01*
X5462691Y-3553401D01*
X5466724Y-3543665D01*
X5468015Y-3537177D01*
X5515165Y-3584327D01*
X5516448Y-3585892D01*
X5519091Y-3588060D01*
X5522691Y-3591015D01*
X5529814Y-3594822D01*
X5531613Y-3595368D01*
X5537543Y-3597167D01*
X5543567Y-3597760D01*
X5543567Y-3597760D01*
X5545580Y-3597958D01*
X5547593Y-3597760D01*
X5590839Y-3597760D01*
X5591053Y-3598464D01*
X5595086Y-3606011D01*
X5600515Y-3612625D01*
X5607129Y-3618054D01*
X5614676Y-3622087D01*
X5622864Y-3624571D01*
X5631380Y-3625410D01*
X5656380Y-3625410D01*
X5664896Y-3624571D01*
X5673084Y-3622087D01*
X5680631Y-3618054D01*
X5687245Y-3612625D01*
X5692674Y-3606011D01*
X5696707Y-3598464D01*
X5699191Y-3590276D01*
X5700030Y-3581760D01*
X5700030Y-3531760D01*
X5699191Y-3523244D01*
X5699044Y-3522760D01*
X5715716Y-3522760D01*
X5715569Y-3523244D01*
X5714730Y-3531760D01*
X5714730Y-3581760D01*
X5715569Y-3590276D01*
X5718053Y-3598464D01*
X5722086Y-3606011D01*
X5727515Y-3612625D01*
X5734129Y-3618054D01*
X5741676Y-3622087D01*
X5749864Y-3624571D01*
X5758380Y-3625410D01*
X5759447Y-3625410D01*
X5785505Y-3651468D01*
X5786969Y-3655002D01*
X5792824Y-3663764D01*
X5800276Y-3671216D01*
X5809038Y-3677071D01*
X5818775Y-3681104D01*
X5829111Y-3683160D01*
X5839649Y-3683160D01*
X5849985Y-3681104D01*
X5859722Y-3677071D01*
X5868484Y-3671216D01*
X5875936Y-3663764D01*
X5881791Y-3655002D01*
X5885824Y-3645265D01*
X5887880Y-3634929D01*
X5887880Y-3625410D01*
X5910380Y-3625410D01*
X5918896Y-3624571D01*
X5927084Y-3622087D01*
X5934631Y-3618054D01*
X5941245Y-3612625D01*
X5946674Y-3606011D01*
X5950707Y-3598464D01*
X5953191Y-3590276D01*
X5954030Y-3581760D01*
X5954030Y-3531760D01*
X5953191Y-3523244D01*
X5950707Y-3515056D01*
X5946674Y-3507509D01*
X5941245Y-3500895D01*
X5937534Y-3497849D01*
X5985169Y-3497896D01*
G04 #@! TA.AperFunction,Conductor*
D34*
G36*
X5985169Y-3497896D02*
G01*
X5981515Y-3500895D01*
X5976086Y-3507509D01*
X5972053Y-3515056D01*
X5969569Y-3523244D01*
X5968730Y-3531760D01*
X5968730Y-3581760D01*
X5969569Y-3590276D01*
X5972053Y-3598464D01*
X5976086Y-3606011D01*
X5981515Y-3612625D01*
X5981555Y-3612658D01*
X5976791Y-3615205D01*
X5970548Y-3620328D01*
X5965425Y-3626571D01*
X5961618Y-3633694D01*
X5959273Y-3641423D01*
X5958482Y-3649460D01*
X5958680Y-3668710D01*
X5968930Y-3678960D01*
X6026180Y-3678960D01*
X6026180Y-3676960D01*
X6029180Y-3676960D01*
X6029180Y-3678960D01*
X6031180Y-3678960D01*
X6031180Y-3681960D01*
X6029180Y-3681960D01*
X6029180Y-3742210D01*
X6039430Y-3752460D01*
X6055680Y-3752658D01*
X6063717Y-3751867D01*
X6071446Y-3749522D01*
X6078569Y-3745715D01*
X6084812Y-3740592D01*
X6087935Y-3736786D01*
X6092402Y-3739173D01*
X6100872Y-3741742D01*
X6109680Y-3742610D01*
X6137680Y-3742610D01*
X6146488Y-3741742D01*
X6154958Y-3739173D01*
X6162764Y-3735001D01*
X6169606Y-3729386D01*
X6170201Y-3728660D01*
X6185337Y-3728660D01*
X6185996Y-3729201D01*
X6193802Y-3733373D01*
X6202272Y-3735942D01*
X6211080Y-3736810D01*
X6245080Y-3736810D01*
X6253888Y-3735942D01*
X6262358Y-3733373D01*
X6270164Y-3729201D01*
X6277006Y-3723586D01*
X6282621Y-3716744D01*
X6286793Y-3708938D01*
X6289362Y-3700468D01*
X6290230Y-3691660D01*
X6290230Y-3689470D01*
X6291961Y-3691579D01*
X6299996Y-3698174D01*
X6309163Y-3703074D01*
X6319110Y-3706091D01*
X6329455Y-3707110D01*
X6380705Y-3707110D01*
X6391050Y-3706091D01*
X6400997Y-3703074D01*
X6410164Y-3698174D01*
X6418199Y-3691579D01*
X6424794Y-3683544D01*
X6428981Y-3675710D01*
X6439495Y-3675710D01*
X6441630Y-3675920D01*
X6443765Y-3675710D01*
X6443766Y-3675710D01*
X6450157Y-3675080D01*
X6458357Y-3672593D01*
X6465914Y-3668554D01*
X6472538Y-3663118D01*
X6473900Y-3661458D01*
X6485448Y-3649910D01*
X6500580Y-3649910D01*
X6509291Y-3649052D01*
X6509778Y-3648904D01*
X6514672Y-3654868D01*
X6516332Y-3656230D01*
X6562562Y-3702460D01*
X6561080Y-3702460D01*
X6561080Y-3712710D01*
X6550830Y-3702460D01*
X6509580Y-3702262D01*
X6501543Y-3703053D01*
X6493814Y-3705398D01*
X6486691Y-3709205D01*
X6480448Y-3714328D01*
X6475325Y-3720571D01*
X6471518Y-3727694D01*
X6469173Y-3735423D01*
X6468382Y-3743460D01*
X6468580Y-3764210D01*
X6478830Y-3774460D01*
X6561080Y-3774460D01*
X6561080Y-3772460D01*
X6564080Y-3772460D01*
X6564080Y-3774460D01*
X6566080Y-3774460D01*
X6566080Y-3777460D01*
X6564080Y-3777460D01*
X6564080Y-3839210D01*
X6574330Y-3849460D01*
X6599580Y-3849581D01*
X6599580Y-3902310D01*
X6532263Y-3902310D01*
X6533524Y-3899265D01*
X6535580Y-3888929D01*
X6535580Y-3878391D01*
X6533524Y-3868055D01*
X6529491Y-3858318D01*
X6523660Y-3849591D01*
X6550830Y-3849460D01*
X6561080Y-3839210D01*
X6561080Y-3777460D01*
X6478830Y-3777460D01*
X6468580Y-3787710D01*
X6468382Y-3808460D01*
X6469173Y-3816497D01*
X6471518Y-3824226D01*
X6473444Y-3827830D01*
X6471716Y-3827660D01*
X6471715Y-3827660D01*
X6469580Y-3827450D01*
X6467445Y-3827660D01*
X6444542Y-3827660D01*
X6443252Y-3826088D01*
X6436486Y-3820535D01*
X6435785Y-3820160D01*
X6436486Y-3819785D01*
X6443252Y-3814232D01*
X6448805Y-3807466D01*
X6452931Y-3799747D01*
X6455472Y-3791371D01*
X6456330Y-3782660D01*
X6456330Y-3755660D01*
X6455472Y-3746949D01*
X6452931Y-3738573D01*
X6448805Y-3730854D01*
X6443252Y-3724088D01*
X6436486Y-3718535D01*
X6428767Y-3714409D01*
X6420391Y-3711868D01*
X6411680Y-3711010D01*
X6374680Y-3711010D01*
X6365969Y-3711868D01*
X6357593Y-3714409D01*
X6349874Y-3718535D01*
X6343108Y-3724088D01*
X6339494Y-3728491D01*
X6338553Y-3728777D01*
X6330996Y-3732816D01*
X6324372Y-3738252D01*
X6323010Y-3739911D01*
X6310112Y-3752810D01*
X6304622Y-3752810D01*
X6292837Y-3755154D01*
X6281736Y-3759752D01*
X6271745Y-3766428D01*
X6263248Y-3774925D01*
X6256572Y-3784916D01*
X6251974Y-3796017D01*
X6249630Y-3807802D01*
X6249630Y-3813292D01*
X6235331Y-3827590D01*
X6233672Y-3828952D01*
X6232311Y-3830611D01*
X6232310Y-3830611D01*
X6231316Y-3831823D01*
X6228236Y-3835576D01*
X6224747Y-3842104D01*
X6224197Y-3843133D01*
X6221929Y-3850610D01*
X6219580Y-3850610D01*
X6213503Y-3851209D01*
X6207659Y-3852981D01*
X6202274Y-3855860D01*
X6197554Y-3859734D01*
X6193680Y-3864454D01*
X6190801Y-3869839D01*
X6189029Y-3875683D01*
X6188529Y-3880760D01*
X6137247Y-3880760D01*
X6138359Y-3878681D01*
X6140131Y-3872837D01*
X6140730Y-3866760D01*
X6140730Y-3786760D01*
X6140131Y-3780683D01*
X6138359Y-3774839D01*
X6135480Y-3769454D01*
X6131606Y-3764734D01*
X6126886Y-3760860D01*
X6121501Y-3757981D01*
X6115657Y-3756209D01*
X6109580Y-3755610D01*
X6019580Y-3755610D01*
X6013503Y-3756209D01*
X6007659Y-3757981D01*
X6002274Y-3760860D01*
X5997554Y-3764734D01*
X5993680Y-3769454D01*
X5992330Y-3771979D01*
X5992330Y-3751934D01*
X5999680Y-3752658D01*
X6015930Y-3752460D01*
X6026180Y-3742210D01*
X6026180Y-3681960D01*
X5968930Y-3681960D01*
X5958680Y-3692210D01*
X5958639Y-3696182D01*
X5955988Y-3695378D01*
X5947180Y-3694510D01*
X5919180Y-3694510D01*
X5910372Y-3695378D01*
X5901902Y-3697947D01*
X5897435Y-3700334D01*
X5894312Y-3696528D01*
X5888069Y-3691405D01*
X5880946Y-3687598D01*
X5873217Y-3685253D01*
X5865180Y-3684462D01*
X5848930Y-3684660D01*
X5838680Y-3694910D01*
X5838680Y-3755160D01*
X5840680Y-3755160D01*
X5840680Y-3758160D01*
X5838680Y-3758160D01*
X5838680Y-3795010D01*
X5838180Y-3795510D01*
X5838180Y-3856760D01*
X5840180Y-3856760D01*
X5840180Y-3859760D01*
X5838180Y-3859760D01*
X5838180Y-3861760D01*
X5835180Y-3861760D01*
X5835180Y-3859760D01*
X5776430Y-3859760D01*
X5766180Y-3870010D01*
X5765982Y-3890260D01*
X5766773Y-3898297D01*
X5769118Y-3906026D01*
X5772925Y-3913149D01*
X5778048Y-3919392D01*
X5780822Y-3921668D01*
X5779429Y-3924273D01*
X5776888Y-3932649D01*
X5776030Y-3941360D01*
X5776030Y-3947527D01*
X5740997Y-3982560D01*
X5740211Y-3982560D01*
X5729875Y-3984616D01*
X5720138Y-3988649D01*
X5718730Y-3989590D01*
X5718730Y-3968460D01*
X5718380Y-3964907D01*
X5718380Y-3941559D01*
X5721835Y-3937349D01*
X5725642Y-3930226D01*
X5727987Y-3922497D01*
X5728778Y-3914460D01*
X5728580Y-3898210D01*
X5718380Y-3888010D01*
X5718380Y-3884910D01*
X5728580Y-3874710D01*
X5728778Y-3858460D01*
X5727987Y-3850423D01*
X5725642Y-3842694D01*
X5723780Y-3839210D01*
X5725642Y-3835726D01*
X5727987Y-3827997D01*
X5728158Y-3826260D01*
X5765982Y-3826260D01*
X5766180Y-3846510D01*
X5776430Y-3856760D01*
X5835180Y-3856760D01*
X5835180Y-3818910D01*
X5835680Y-3818410D01*
X5835680Y-3758160D01*
X5778430Y-3758160D01*
X5768180Y-3768410D01*
X5767982Y-3787660D01*
X5768773Y-3795697D01*
X5771118Y-3803426D01*
X5772007Y-3805089D01*
X5769118Y-3810494D01*
X5766773Y-3818223D01*
X5765982Y-3826260D01*
X5728158Y-3826260D01*
X5728778Y-3819960D01*
X5728580Y-3803710D01*
X5718380Y-3793510D01*
X5718380Y-3790410D01*
X5728580Y-3780210D01*
X5728778Y-3763960D01*
X5727987Y-3755923D01*
X5725642Y-3748194D01*
X5721835Y-3741071D01*
X5718380Y-3736861D01*
X5718380Y-3725660D01*
X5767982Y-3725660D01*
X5768180Y-3744910D01*
X5778430Y-3755160D01*
X5835680Y-3755160D01*
X5835680Y-3694910D01*
X5825430Y-3684660D01*
X5809180Y-3684462D01*
X5801143Y-3685253D01*
X5793414Y-3687598D01*
X5786291Y-3691405D01*
X5780048Y-3696528D01*
X5774925Y-3702771D01*
X5771118Y-3709894D01*
X5768773Y-3717623D01*
X5767982Y-3725660D01*
X5718380Y-3725660D01*
X5718380Y-3713513D01*
X5718730Y-3709960D01*
X5718730Y-3681960D01*
X5718380Y-3678407D01*
X5718380Y-3642360D01*
X5718169Y-3640214D01*
X5717543Y-3638150D01*
X5716526Y-3636249D01*
X5715158Y-3634582D01*
X5713491Y-3633214D01*
X5711589Y-3632197D01*
X5709526Y-3631571D01*
X5707380Y-3631360D01*
X5436863Y-3631360D01*
X5382496Y-3576993D01*
X5381212Y-3575428D01*
X5374969Y-3570305D01*
X5367846Y-3566498D01*
X5364755Y-3565560D01*
X5377120Y-3565560D01*
X5381176Y-3569616D01*
X5389938Y-3575471D01*
X5399675Y-3579504D01*
X5410011Y-3581560D01*
X5420549Y-3581560D01*
X5430885Y-3579504D01*
X5440622Y-3575471D01*
X5449384Y-3569616D01*
X5456836Y-3562164D01*
X5462691Y-3553401D01*
X5466724Y-3543665D01*
X5468015Y-3537177D01*
X5515165Y-3584327D01*
X5516448Y-3585892D01*
X5519091Y-3588060D01*
X5522691Y-3591015D01*
X5529814Y-3594822D01*
X5531613Y-3595368D01*
X5537543Y-3597167D01*
X5543567Y-3597760D01*
X5543567Y-3597760D01*
X5545580Y-3597958D01*
X5547593Y-3597760D01*
X5590839Y-3597760D01*
X5591053Y-3598464D01*
X5595086Y-3606011D01*
X5600515Y-3612625D01*
X5607129Y-3618054D01*
X5614676Y-3622087D01*
X5622864Y-3624571D01*
X5631380Y-3625410D01*
X5656380Y-3625410D01*
X5664896Y-3624571D01*
X5673084Y-3622087D01*
X5680631Y-3618054D01*
X5687245Y-3612625D01*
X5692674Y-3606011D01*
X5696707Y-3598464D01*
X5699191Y-3590276D01*
X5700030Y-3581760D01*
X5700030Y-3531760D01*
X5699191Y-3523244D01*
X5699044Y-3522760D01*
X5715716Y-3522760D01*
X5715569Y-3523244D01*
X5714730Y-3531760D01*
X5714730Y-3581760D01*
X5715569Y-3590276D01*
X5718053Y-3598464D01*
X5722086Y-3606011D01*
X5727515Y-3612625D01*
X5734129Y-3618054D01*
X5741676Y-3622087D01*
X5749864Y-3624571D01*
X5758380Y-3625410D01*
X5759447Y-3625410D01*
X5785505Y-3651468D01*
X5786969Y-3655002D01*
X5792824Y-3663764D01*
X5800276Y-3671216D01*
X5809038Y-3677071D01*
X5818775Y-3681104D01*
X5829111Y-3683160D01*
X5839649Y-3683160D01*
X5849985Y-3681104D01*
X5859722Y-3677071D01*
X5868484Y-3671216D01*
X5875936Y-3663764D01*
X5881791Y-3655002D01*
X5885824Y-3645265D01*
X5887880Y-3634929D01*
X5887880Y-3625410D01*
X5910380Y-3625410D01*
X5918896Y-3624571D01*
X5927084Y-3622087D01*
X5934631Y-3618054D01*
X5941245Y-3612625D01*
X5946674Y-3606011D01*
X5950707Y-3598464D01*
X5953191Y-3590276D01*
X5954030Y-3581760D01*
X5954030Y-3531760D01*
X5953191Y-3523244D01*
X5950707Y-3515056D01*
X5946674Y-3507509D01*
X5941245Y-3500895D01*
X5937534Y-3497849D01*
X5985169Y-3497896D01*
G37*
G04 #@! TD.AperFunction*
D33*
X7010661Y-3147323D02*
X7056502Y-3203940D01*
X7062780Y-3236646D01*
X7062780Y-3331815D01*
X7062780Y-3331815D01*
X7062780Y-3731814D01*
X7062780Y-3731815D01*
X7062780Y-3830273D01*
X7056543Y-3862767D01*
X7001003Y-3929684D01*
X6988730Y-3940318D01*
X6988730Y-3917660D01*
X6987862Y-3908852D01*
X6985293Y-3900382D01*
X6982906Y-3895915D01*
X6986712Y-3892792D01*
X6991835Y-3886549D01*
X6995642Y-3879426D01*
X6997987Y-3871697D01*
X6998778Y-3863660D01*
X6998580Y-3847410D01*
X6988330Y-3837160D01*
X6928080Y-3837160D01*
X6928080Y-3839160D01*
X6925080Y-3839160D01*
X6925080Y-3837160D01*
X6923080Y-3837160D01*
X6923080Y-3834160D01*
X6925080Y-3834160D01*
X6925080Y-3776910D01*
X6928080Y-3776910D01*
X6928080Y-3834160D01*
X6988330Y-3834160D01*
X6998580Y-3823910D01*
X6998778Y-3807660D01*
X6997987Y-3799623D01*
X6995642Y-3791894D01*
X6991835Y-3784771D01*
X6986712Y-3778528D01*
X6980469Y-3773405D01*
X6973346Y-3769598D01*
X6965617Y-3767253D01*
X6957580Y-3766462D01*
X6938330Y-3766660D01*
X6928080Y-3776910D01*
X6925080Y-3776910D01*
X6914830Y-3766660D01*
X6895580Y-3766462D01*
X6887543Y-3767253D01*
X6879814Y-3769598D01*
X6872691Y-3773405D01*
X6866730Y-3778297D01*
X6866730Y-3743460D01*
X6866131Y-3737383D01*
X6864359Y-3731539D01*
X6861480Y-3726154D01*
X6857606Y-3721434D01*
X6852886Y-3717560D01*
X6847501Y-3714681D01*
X6841657Y-3712909D01*
X6835580Y-3712310D01*
X6755903Y-3712310D01*
X6744516Y-3700923D01*
X6743730Y-3696970D01*
X6739697Y-3687234D01*
X6733842Y-3678471D01*
X6726390Y-3671019D01*
X6717627Y-3665164D01*
X6707891Y-3661131D01*
X6697555Y-3659075D01*
X6687016Y-3659075D01*
X6676680Y-3661131D01*
X6666944Y-3665164D01*
X6658181Y-3671019D01*
X6656169Y-3673031D01*
X6589080Y-3605942D01*
X6589080Y-3525482D01*
X6615280Y-3525482D01*
X6615280Y-3541438D01*
X6618393Y-3557087D01*
X6624499Y-3571828D01*
X6633363Y-3585094D01*
X6644645Y-3596377D01*
X6657912Y-3605241D01*
X6672653Y-3611347D01*
X6688302Y-3614460D01*
X6704258Y-3614460D01*
X6718180Y-3611691D01*
X6793080Y-3611691D01*
X6793080Y-3622229D01*
X6795136Y-3632565D01*
X6799169Y-3642302D01*
X6805024Y-3651064D01*
X6812476Y-3658516D01*
X6821238Y-3664371D01*
X6830975Y-3668404D01*
X6841311Y-3670460D01*
X6851849Y-3670460D01*
X6862185Y-3668404D01*
X6871922Y-3664371D01*
X6880684Y-3658516D01*
X6888136Y-3651064D01*
X6893991Y-3642302D01*
X6896430Y-3636414D01*
X6898869Y-3642302D01*
X6904724Y-3651064D01*
X6912176Y-3658516D01*
X6920938Y-3664371D01*
X6930675Y-3668404D01*
X6941011Y-3670460D01*
X6951549Y-3670460D01*
X6961885Y-3668404D01*
X6971622Y-3664371D01*
X6980384Y-3658516D01*
X6987836Y-3651064D01*
X6993691Y-3642302D01*
X6997724Y-3632565D01*
X6999780Y-3622229D01*
X6999780Y-3611691D01*
X6997724Y-3601355D01*
X6993691Y-3591618D01*
X6987836Y-3582856D01*
X6981648Y-3576668D01*
X6987712Y-3571692D01*
X6992835Y-3565449D01*
X6996642Y-3558326D01*
X6998987Y-3550597D01*
X6999778Y-3542560D01*
X6999580Y-3527310D01*
X6989330Y-3517060D01*
X6928080Y-3517060D01*
X6928080Y-3519060D01*
X6925080Y-3519060D01*
X6925080Y-3517060D01*
X6863830Y-3517060D01*
X6853580Y-3527310D01*
X6853382Y-3542560D01*
X6854173Y-3550597D01*
X6856518Y-3558326D01*
X6860144Y-3565110D01*
X6851849Y-3563460D01*
X6841311Y-3563460D01*
X6830975Y-3565516D01*
X6821238Y-3569549D01*
X6812476Y-3575404D01*
X6805024Y-3582856D01*
X6799169Y-3591618D01*
X6795136Y-3601355D01*
X6793080Y-3611691D01*
X6718180Y-3611691D01*
X6719907Y-3611347D01*
X6734648Y-3605241D01*
X6747914Y-3596377D01*
X6759197Y-3585094D01*
X6768061Y-3571828D01*
X6774167Y-3557087D01*
X6777280Y-3541438D01*
X6777280Y-3525482D01*
X6774167Y-3509833D01*
X6768061Y-3495092D01*
X6759197Y-3481825D01*
X6747914Y-3470543D01*
X6734648Y-3461679D01*
X6719907Y-3455573D01*
X6704258Y-3452460D01*
X6688302Y-3452460D01*
X6672653Y-3455573D01*
X6657912Y-3461679D01*
X6644645Y-3470543D01*
X6633363Y-3481825D01*
X6624499Y-3495092D01*
X6618393Y-3509833D01*
X6615280Y-3525482D01*
X6589080Y-3525482D01*
X6589080Y-3417178D01*
X6589510Y-3417608D01*
X6590872Y-3419268D01*
X6597496Y-3424704D01*
X6605053Y-3428743D01*
X6613252Y-3431230D01*
X6621780Y-3432070D01*
X6623916Y-3431860D01*
X6845062Y-3431860D01*
X6856010Y-3442808D01*
X6857372Y-3444468D01*
X6863996Y-3449904D01*
X6871553Y-3453943D01*
X6872073Y-3454101D01*
X6871691Y-3454305D01*
X6865448Y-3459428D01*
X6860325Y-3465671D01*
X6856518Y-3472794D01*
X6854173Y-3480523D01*
X6853382Y-3488560D01*
X6853580Y-3503810D01*
X6863830Y-3514060D01*
X6925080Y-3514060D01*
X6925080Y-3512060D01*
X6928080Y-3512060D01*
X6928080Y-3514060D01*
X6989330Y-3514060D01*
X6999580Y-3503810D01*
X6999778Y-3488560D01*
X6998987Y-3480523D01*
X6996642Y-3472794D01*
X6992835Y-3465671D01*
X6987712Y-3459428D01*
X6981469Y-3454305D01*
X6980589Y-3453835D01*
X6982205Y-3451866D01*
X6986331Y-3444147D01*
X6988872Y-3435771D01*
X6989730Y-3427060D01*
X6989730Y-3400060D01*
X6988872Y-3391349D01*
X6986331Y-3382973D01*
X6982205Y-3375254D01*
X6976652Y-3368488D01*
X6969886Y-3362935D01*
X6966217Y-3360974D01*
X6966787Y-3359097D01*
X6967578Y-3351060D01*
X6967380Y-3331810D01*
X6957130Y-3321560D01*
X6899880Y-3321560D01*
X6899880Y-3323560D01*
X6896880Y-3323560D01*
X6896880Y-3321560D01*
X6894880Y-3321560D01*
X6894880Y-3318560D01*
X6896880Y-3318560D01*
X6896880Y-3316560D01*
X6899880Y-3316560D01*
X6899880Y-3318560D01*
X6957130Y-3318560D01*
X6967380Y-3308310D01*
X6967578Y-3289060D01*
X6966787Y-3281023D01*
X6964442Y-3273294D01*
X6962452Y-3269571D01*
X6962635Y-3269349D01*
X6966442Y-3262226D01*
X6968787Y-3254497D01*
X6969578Y-3246460D01*
X6969380Y-3226210D01*
X6959130Y-3215960D01*
X6902880Y-3215960D01*
X6902880Y-3217960D01*
X6899880Y-3217960D01*
X6899880Y-3215960D01*
X6897880Y-3215960D01*
X6897880Y-3212960D01*
X6899880Y-3212960D01*
X6899880Y-3114360D01*
X6902880Y-3114360D01*
X6902880Y-3212960D01*
X6959130Y-3212960D01*
X6969380Y-3202710D01*
X6969578Y-3182460D01*
X6968787Y-3174423D01*
X6966442Y-3166694D01*
X6964821Y-3163660D01*
X6966442Y-3160626D01*
X6968787Y-3152897D01*
X6969578Y-3144860D01*
X6969380Y-3124610D01*
X6959130Y-3114360D01*
X6902880Y-3114360D01*
X6899880Y-3114360D01*
X6897880Y-3114360D01*
X6897880Y-3111360D01*
X6899880Y-3111360D01*
X6899880Y-3109360D01*
X6902880Y-3109360D01*
X6902880Y-3111360D01*
X6959130Y-3111360D01*
X6964851Y-3105639D01*
X7010661Y-3147323D01*
G04 #@! TA.AperFunction,Conductor*
D34*
G36*
X7010661Y-3147323D02*
G01*
X7056502Y-3203940D01*
X7062780Y-3236646D01*
X7062780Y-3331815D01*
X7062780Y-3331815D01*
X7062780Y-3731814D01*
X7062780Y-3731815D01*
X7062780Y-3830273D01*
X7056543Y-3862767D01*
X7001003Y-3929684D01*
X6988730Y-3940318D01*
X6988730Y-3917660D01*
X6987862Y-3908852D01*
X6985293Y-3900382D01*
X6982906Y-3895915D01*
X6986712Y-3892792D01*
X6991835Y-3886549D01*
X6995642Y-3879426D01*
X6997987Y-3871697D01*
X6998778Y-3863660D01*
X6998580Y-3847410D01*
X6988330Y-3837160D01*
X6928080Y-3837160D01*
X6928080Y-3839160D01*
X6925080Y-3839160D01*
X6925080Y-3837160D01*
X6923080Y-3837160D01*
X6923080Y-3834160D01*
X6925080Y-3834160D01*
X6925080Y-3776910D01*
X6928080Y-3776910D01*
X6928080Y-3834160D01*
X6988330Y-3834160D01*
X6998580Y-3823910D01*
X6998778Y-3807660D01*
X6997987Y-3799623D01*
X6995642Y-3791894D01*
X6991835Y-3784771D01*
X6986712Y-3778528D01*
X6980469Y-3773405D01*
X6973346Y-3769598D01*
X6965617Y-3767253D01*
X6957580Y-3766462D01*
X6938330Y-3766660D01*
X6928080Y-3776910D01*
X6925080Y-3776910D01*
X6914830Y-3766660D01*
X6895580Y-3766462D01*
X6887543Y-3767253D01*
X6879814Y-3769598D01*
X6872691Y-3773405D01*
X6866730Y-3778297D01*
X6866730Y-3743460D01*
X6866131Y-3737383D01*
X6864359Y-3731539D01*
X6861480Y-3726154D01*
X6857606Y-3721434D01*
X6852886Y-3717560D01*
X6847501Y-3714681D01*
X6841657Y-3712909D01*
X6835580Y-3712310D01*
X6755903Y-3712310D01*
X6744516Y-3700923D01*
X6743730Y-3696970D01*
X6739697Y-3687234D01*
X6733842Y-3678471D01*
X6726390Y-3671019D01*
X6717627Y-3665164D01*
X6707891Y-3661131D01*
X6697555Y-3659075D01*
X6687016Y-3659075D01*
X6676680Y-3661131D01*
X6666944Y-3665164D01*
X6658181Y-3671019D01*
X6656169Y-3673031D01*
X6589080Y-3605942D01*
X6589080Y-3525482D01*
X6615280Y-3525482D01*
X6615280Y-3541438D01*
X6618393Y-3557087D01*
X6624499Y-3571828D01*
X6633363Y-3585094D01*
X6644645Y-3596377D01*
X6657912Y-3605241D01*
X6672653Y-3611347D01*
X6688302Y-3614460D01*
X6704258Y-3614460D01*
X6718180Y-3611691D01*
X6793080Y-3611691D01*
X6793080Y-3622229D01*
X6795136Y-3632565D01*
X6799169Y-3642302D01*
X6805024Y-3651064D01*
X6812476Y-3658516D01*
X6821238Y-3664371D01*
X6830975Y-3668404D01*
X6841311Y-3670460D01*
X6851849Y-3670460D01*
X6862185Y-3668404D01*
X6871922Y-3664371D01*
X6880684Y-3658516D01*
X6888136Y-3651064D01*
X6893991Y-3642302D01*
X6896430Y-3636414D01*
X6898869Y-3642302D01*
X6904724Y-3651064D01*
X6912176Y-3658516D01*
X6920938Y-3664371D01*
X6930675Y-3668404D01*
X6941011Y-3670460D01*
X6951549Y-3670460D01*
X6961885Y-3668404D01*
X6971622Y-3664371D01*
X6980384Y-3658516D01*
X6987836Y-3651064D01*
X6993691Y-3642302D01*
X6997724Y-3632565D01*
X6999780Y-3622229D01*
X6999780Y-3611691D01*
X6997724Y-3601355D01*
X6993691Y-3591618D01*
X6987836Y-3582856D01*
X6981648Y-3576668D01*
X6987712Y-3571692D01*
X6992835Y-3565449D01*
X6996642Y-3558326D01*
X6998987Y-3550597D01*
X6999778Y-3542560D01*
X6999580Y-3527310D01*
X6989330Y-3517060D01*
X6928080Y-3517060D01*
X6928080Y-3519060D01*
X6925080Y-3519060D01*
X6925080Y-3517060D01*
X6863830Y-3517060D01*
X6853580Y-3527310D01*
X6853382Y-3542560D01*
X6854173Y-3550597D01*
X6856518Y-3558326D01*
X6860144Y-3565110D01*
X6851849Y-3563460D01*
X6841311Y-3563460D01*
X6830975Y-3565516D01*
X6821238Y-3569549D01*
X6812476Y-3575404D01*
X6805024Y-3582856D01*
X6799169Y-3591618D01*
X6795136Y-3601355D01*
X6793080Y-3611691D01*
X6718180Y-3611691D01*
X6719907Y-3611347D01*
X6734648Y-3605241D01*
X6747914Y-3596377D01*
X6759197Y-3585094D01*
X6768061Y-3571828D01*
X6774167Y-3557087D01*
X6777280Y-3541438D01*
X6777280Y-3525482D01*
X6774167Y-3509833D01*
X6768061Y-3495092D01*
X6759197Y-3481825D01*
X6747914Y-3470543D01*
X6734648Y-3461679D01*
X6719907Y-3455573D01*
X6704258Y-3452460D01*
X6688302Y-3452460D01*
X6672653Y-3455573D01*
X6657912Y-3461679D01*
X6644645Y-3470543D01*
X6633363Y-3481825D01*
X6624499Y-3495092D01*
X6618393Y-3509833D01*
X6615280Y-3525482D01*
X6589080Y-3525482D01*
X6589080Y-3417178D01*
X6589510Y-3417608D01*
X6590872Y-3419268D01*
X6597496Y-3424704D01*
X6605053Y-3428743D01*
X6613252Y-3431230D01*
X6621780Y-3432070D01*
X6623916Y-3431860D01*
X6845062Y-3431860D01*
X6856010Y-3442808D01*
X6857372Y-3444468D01*
X6863996Y-3449904D01*
X6871553Y-3453943D01*
X6872073Y-3454101D01*
X6871691Y-3454305D01*
X6865448Y-3459428D01*
X6860325Y-3465671D01*
X6856518Y-3472794D01*
X6854173Y-3480523D01*
X6853382Y-3488560D01*
X6853580Y-3503810D01*
X6863830Y-3514060D01*
X6925080Y-3514060D01*
X6925080Y-3512060D01*
X6928080Y-3512060D01*
X6928080Y-3514060D01*
X6989330Y-3514060D01*
X6999580Y-3503810D01*
X6999778Y-3488560D01*
X6998987Y-3480523D01*
X6996642Y-3472794D01*
X6992835Y-3465671D01*
X6987712Y-3459428D01*
X6981469Y-3454305D01*
X6980589Y-3453835D01*
X6982205Y-3451866D01*
X6986331Y-3444147D01*
X6988872Y-3435771D01*
X6989730Y-3427060D01*
X6989730Y-3400060D01*
X6988872Y-3391349D01*
X6986331Y-3382973D01*
X6982205Y-3375254D01*
X6976652Y-3368488D01*
X6969886Y-3362935D01*
X6966217Y-3360974D01*
X6966787Y-3359097D01*
X6967578Y-3351060D01*
X6967380Y-3331810D01*
X6957130Y-3321560D01*
X6899880Y-3321560D01*
X6899880Y-3323560D01*
X6896880Y-3323560D01*
X6896880Y-3321560D01*
X6894880Y-3321560D01*
X6894880Y-3318560D01*
X6896880Y-3318560D01*
X6896880Y-3316560D01*
X6899880Y-3316560D01*
X6899880Y-3318560D01*
X6957130Y-3318560D01*
X6967380Y-3308310D01*
X6967578Y-3289060D01*
X6966787Y-3281023D01*
X6964442Y-3273294D01*
X6962452Y-3269571D01*
X6962635Y-3269349D01*
X6966442Y-3262226D01*
X6968787Y-3254497D01*
X6969578Y-3246460D01*
X6969380Y-3226210D01*
X6959130Y-3215960D01*
X6902880Y-3215960D01*
X6902880Y-3217960D01*
X6899880Y-3217960D01*
X6899880Y-3215960D01*
X6897880Y-3215960D01*
X6897880Y-3212960D01*
X6899880Y-3212960D01*
X6899880Y-3114360D01*
X6902880Y-3114360D01*
X6902880Y-3212960D01*
X6959130Y-3212960D01*
X6969380Y-3202710D01*
X6969578Y-3182460D01*
X6968787Y-3174423D01*
X6966442Y-3166694D01*
X6964821Y-3163660D01*
X6966442Y-3160626D01*
X6968787Y-3152897D01*
X6969578Y-3144860D01*
X6969380Y-3124610D01*
X6959130Y-3114360D01*
X6902880Y-3114360D01*
X6899880Y-3114360D01*
X6897880Y-3114360D01*
X6897880Y-3111360D01*
X6899880Y-3111360D01*
X6899880Y-3109360D01*
X6902880Y-3109360D01*
X6902880Y-3111360D01*
X6959130Y-3111360D01*
X6964851Y-3105639D01*
X7010661Y-3147323D01*
G37*
G04 #@! TD.AperFunction*
D33*
X4426180Y-3920260D02*
X4428180Y-3920260D01*
X4428180Y-3923260D01*
X4426180Y-3923260D01*
X4426180Y-3925260D01*
X4423180Y-3925260D01*
X4423180Y-3923260D01*
X4421180Y-3923260D01*
X4421180Y-3920260D01*
X4423180Y-3920260D01*
X4423180Y-3918260D01*
X4426180Y-3918260D01*
X4426180Y-3920260D01*
G04 #@! TA.AperFunction,Conductor*
D34*
G36*
X4426180Y-3920260D02*
G01*
X4428180Y-3920260D01*
X4428180Y-3923260D01*
X4426180Y-3923260D01*
X4426180Y-3925260D01*
X4423180Y-3925260D01*
X4423180Y-3923260D01*
X4421180Y-3923260D01*
X4421180Y-3920260D01*
X4423180Y-3920260D01*
X4423180Y-3918260D01*
X4426180Y-3918260D01*
X4426180Y-3920260D01*
G37*
G04 #@! TD.AperFunction*
D33*
X6698430Y-3777873D02*
X6698430Y-3808460D01*
X6698723Y-3811431D01*
X6695325Y-3815571D01*
X6691518Y-3822694D01*
X6689173Y-3830423D01*
X6688382Y-3838460D01*
X6688580Y-3859210D01*
X6698830Y-3869460D01*
X6781080Y-3869460D01*
X6781080Y-3867460D01*
X6784080Y-3867460D01*
X6784080Y-3869460D01*
X6786080Y-3869460D01*
X6786080Y-3872460D01*
X6784080Y-3872460D01*
X6784080Y-3874460D01*
X6781080Y-3874460D01*
X6781080Y-3872460D01*
X6698830Y-3872460D01*
X6688580Y-3882710D01*
X6688526Y-3888387D01*
X6686580Y-3886442D01*
X6686580Y-3766023D01*
X6698430Y-3777873D01*
G04 #@! TA.AperFunction,Conductor*
D34*
G36*
X6698430Y-3777873D02*
G01*
X6698430Y-3808460D01*
X6698723Y-3811431D01*
X6695325Y-3815571D01*
X6691518Y-3822694D01*
X6689173Y-3830423D01*
X6688382Y-3838460D01*
X6688580Y-3859210D01*
X6698830Y-3869460D01*
X6781080Y-3869460D01*
X6781080Y-3867460D01*
X6784080Y-3867460D01*
X6784080Y-3869460D01*
X6786080Y-3869460D01*
X6786080Y-3872460D01*
X6784080Y-3872460D01*
X6784080Y-3874460D01*
X6781080Y-3874460D01*
X6781080Y-3872460D01*
X6698830Y-3872460D01*
X6688580Y-3882710D01*
X6688526Y-3888387D01*
X6686580Y-3886442D01*
X6686580Y-3766023D01*
X6698430Y-3777873D01*
G37*
G04 #@! TD.AperFunction*
D33*
X4579613Y-3655945D02*
X4578049Y-3657229D01*
X4575507Y-3660326D01*
X4572925Y-3663472D01*
X4571593Y-3665965D01*
X4569118Y-3670595D01*
X4566773Y-3678323D01*
X4566259Y-3683544D01*
X4565982Y-3686360D01*
X4566160Y-3688165D01*
X4551430Y-3688260D01*
X4541180Y-3698510D01*
X4541180Y-3775260D01*
X4543180Y-3775260D01*
X4543180Y-3778260D01*
X4541180Y-3778260D01*
X4541180Y-3780260D01*
X4538180Y-3780260D01*
X4538180Y-3778260D01*
X4536180Y-3778260D01*
X4536180Y-3775260D01*
X4538180Y-3775260D01*
X4538180Y-3698510D01*
X4527930Y-3688260D01*
X4497180Y-3688062D01*
X4489143Y-3688853D01*
X4486023Y-3689799D01*
X4530263Y-3645560D01*
X4589998Y-3645560D01*
X4579613Y-3655945D01*
G04 #@! TA.AperFunction,Conductor*
D34*
G36*
X4579613Y-3655945D02*
G01*
X4578049Y-3657229D01*
X4575507Y-3660326D01*
X4572925Y-3663472D01*
X4571593Y-3665965D01*
X4569118Y-3670595D01*
X4566773Y-3678323D01*
X4566259Y-3683544D01*
X4565982Y-3686360D01*
X4566160Y-3688165D01*
X4551430Y-3688260D01*
X4541180Y-3698510D01*
X4541180Y-3775260D01*
X4543180Y-3775260D01*
X4543180Y-3778260D01*
X4541180Y-3778260D01*
X4541180Y-3780260D01*
X4538180Y-3780260D01*
X4538180Y-3778260D01*
X4536180Y-3778260D01*
X4536180Y-3775260D01*
X4538180Y-3775260D01*
X4538180Y-3698510D01*
X4527930Y-3688260D01*
X4497180Y-3688062D01*
X4489143Y-3688853D01*
X4486023Y-3689799D01*
X4530263Y-3645560D01*
X4589998Y-3645560D01*
X4579613Y-3655945D01*
G37*
G04 #@! TD.AperFunction*
D33*
X6229580Y-3580160D02*
X6231580Y-3580160D01*
X6231580Y-3583160D01*
X6229580Y-3583160D01*
X6229580Y-3585160D01*
X6226580Y-3585160D01*
X6226580Y-3583160D01*
X6224580Y-3583160D01*
X6224580Y-3580160D01*
X6226580Y-3580160D01*
X6226580Y-3578160D01*
X6229580Y-3578160D01*
X6229580Y-3580160D01*
G04 #@! TA.AperFunction,Conductor*
D34*
G36*
X6229580Y-3580160D02*
G01*
X6231580Y-3580160D01*
X6231580Y-3583160D01*
X6229580Y-3583160D01*
X6229580Y-3585160D01*
X6226580Y-3585160D01*
X6226580Y-3583160D01*
X6224580Y-3583160D01*
X6224580Y-3580160D01*
X6226580Y-3580160D01*
X6226580Y-3578160D01*
X6229580Y-3578160D01*
X6229580Y-3580160D01*
G37*
G04 #@! TD.AperFunction*
D33*
X6152230Y-3401660D02*
X6153088Y-3410371D01*
X6155629Y-3418747D01*
X6159755Y-3426466D01*
X6161371Y-3428435D01*
X6160491Y-3428905D01*
X6154248Y-3434028D01*
X6149125Y-3440271D01*
X6145318Y-3447394D01*
X6142973Y-3455123D01*
X6142182Y-3463160D01*
X6142380Y-3478410D01*
X6152630Y-3488660D01*
X6213880Y-3488660D01*
X6213880Y-3486660D01*
X6216880Y-3486660D01*
X6216880Y-3488660D01*
X6218880Y-3488660D01*
X6218880Y-3491660D01*
X6216880Y-3491660D01*
X6216880Y-3493660D01*
X6213880Y-3493660D01*
X6213880Y-3491660D01*
X6152630Y-3491660D01*
X6142380Y-3501910D01*
X6142182Y-3517160D01*
X6142973Y-3525197D01*
X6145318Y-3532926D01*
X6149125Y-3540049D01*
X6154248Y-3546292D01*
X6156431Y-3548083D01*
X6155882Y-3553660D01*
X6156080Y-3569910D01*
X6166330Y-3580160D01*
X6161375Y-3580160D01*
X6160036Y-3578156D01*
X6152584Y-3570704D01*
X6143822Y-3564849D01*
X6142750Y-3564405D01*
X6100814Y-3522469D01*
X6099217Y-3520523D01*
X6091451Y-3514150D01*
X6082591Y-3509414D01*
X6072978Y-3506498D01*
X6072832Y-3506484D01*
X6068245Y-3500895D01*
X6062006Y-3495775D01*
X6065146Y-3494822D01*
X6072269Y-3491015D01*
X6078512Y-3485892D01*
X6083635Y-3479649D01*
X6087442Y-3472526D01*
X6089787Y-3464797D01*
X6090578Y-3456760D01*
X6090500Y-3393943D01*
X6095987Y-3396216D01*
X6107772Y-3398560D01*
X6119788Y-3398560D01*
X6131573Y-3396216D01*
X6142674Y-3391617D01*
X6152230Y-3385233D01*
X6152230Y-3401660D01*
G04 #@! TA.AperFunction,Conductor*
D34*
G36*
X6152230Y-3401660D02*
G01*
X6153088Y-3410371D01*
X6155629Y-3418747D01*
X6159755Y-3426466D01*
X6161371Y-3428435D01*
X6160491Y-3428905D01*
X6154248Y-3434028D01*
X6149125Y-3440271D01*
X6145318Y-3447394D01*
X6142973Y-3455123D01*
X6142182Y-3463160D01*
X6142380Y-3478410D01*
X6152630Y-3488660D01*
X6213880Y-3488660D01*
X6213880Y-3486660D01*
X6216880Y-3486660D01*
X6216880Y-3488660D01*
X6218880Y-3488660D01*
X6218880Y-3491660D01*
X6216880Y-3491660D01*
X6216880Y-3493660D01*
X6213880Y-3493660D01*
X6213880Y-3491660D01*
X6152630Y-3491660D01*
X6142380Y-3501910D01*
X6142182Y-3517160D01*
X6142973Y-3525197D01*
X6145318Y-3532926D01*
X6149125Y-3540049D01*
X6154248Y-3546292D01*
X6156431Y-3548083D01*
X6155882Y-3553660D01*
X6156080Y-3569910D01*
X6166330Y-3580160D01*
X6161375Y-3580160D01*
X6160036Y-3578156D01*
X6152584Y-3570704D01*
X6143822Y-3564849D01*
X6142750Y-3564405D01*
X6100814Y-3522469D01*
X6099217Y-3520523D01*
X6091451Y-3514150D01*
X6082591Y-3509414D01*
X6072978Y-3506498D01*
X6072832Y-3506484D01*
X6068245Y-3500895D01*
X6062006Y-3495775D01*
X6065146Y-3494822D01*
X6072269Y-3491015D01*
X6078512Y-3485892D01*
X6083635Y-3479649D01*
X6087442Y-3472526D01*
X6089787Y-3464797D01*
X6090578Y-3456760D01*
X6090500Y-3393943D01*
X6095987Y-3396216D01*
X6107772Y-3398560D01*
X6119788Y-3398560D01*
X6131573Y-3396216D01*
X6142674Y-3391617D01*
X6152230Y-3385233D01*
X6152230Y-3401660D01*
G37*
G04 #@! TD.AperFunction*
D33*
X4396130Y-3483560D02*
X4388080Y-3483560D01*
X4388080Y-3475510D01*
X4396130Y-3483560D01*
G04 #@! TA.AperFunction,Conductor*
D34*
G36*
X4396130Y-3483560D02*
G01*
X4388080Y-3483560D01*
X4388080Y-3475510D01*
X4396130Y-3483560D01*
G37*
G04 #@! TD.AperFunction*
D33*
X4986580Y-3463060D02*
X4988580Y-3463060D01*
X4988580Y-3466060D01*
X4986580Y-3466060D01*
X4986580Y-3468060D01*
X4983580Y-3468060D01*
X4983580Y-3466060D01*
X4981580Y-3466060D01*
X4981580Y-3463060D01*
X4983580Y-3463060D01*
X4983580Y-3461060D01*
X4986580Y-3461060D01*
X4986580Y-3463060D01*
G04 #@! TA.AperFunction,Conductor*
D34*
G36*
X4986580Y-3463060D02*
G01*
X4988580Y-3463060D01*
X4988580Y-3466060D01*
X4986580Y-3466060D01*
X4986580Y-3468060D01*
X4983580Y-3468060D01*
X4983580Y-3466060D01*
X4981580Y-3466060D01*
X4981580Y-3463060D01*
X4983580Y-3463060D01*
X4983580Y-3461060D01*
X4986580Y-3461060D01*
X4986580Y-3463060D01*
G37*
G04 #@! TD.AperFunction*
D33*
X6278973Y-3209517D02*
X6290074Y-3214116D01*
X6301798Y-3216448D01*
X6298825Y-3220071D01*
X6295018Y-3227194D01*
X6292673Y-3234923D01*
X6291882Y-3242960D01*
X6292080Y-3243710D01*
X6302330Y-3253960D01*
X6375330Y-3253960D01*
X6375330Y-3251960D01*
X6378330Y-3251960D01*
X6378330Y-3253960D01*
X6380330Y-3253960D01*
X6380330Y-3256960D01*
X6378330Y-3256960D01*
X6378330Y-3298710D01*
X6388580Y-3308960D01*
X6401930Y-3309043D01*
X6401930Y-3361710D01*
X6402080Y-3363233D01*
X6402080Y-3366192D01*
X6368462Y-3399810D01*
X6329455Y-3399810D01*
X6319110Y-3400829D01*
X6309163Y-3403846D01*
X6299996Y-3408746D01*
X6291961Y-3415341D01*
X6285366Y-3423376D01*
X6280466Y-3432543D01*
X6279070Y-3437146D01*
X6276512Y-3434028D01*
X6270269Y-3428905D01*
X6269389Y-3428435D01*
X6271005Y-3426466D01*
X6275131Y-3418747D01*
X6277672Y-3410371D01*
X6278530Y-3401660D01*
X6278530Y-3374660D01*
X6277672Y-3365949D01*
X6275131Y-3357573D01*
X6271005Y-3349854D01*
X6265452Y-3343088D01*
X6259062Y-3337844D01*
X6259090Y-3337560D01*
X6259044Y-3337091D01*
X6265452Y-3331832D01*
X6271005Y-3325066D01*
X6275131Y-3317347D01*
X6277672Y-3308971D01*
X6278530Y-3300260D01*
X6278530Y-3273260D01*
X6278008Y-3267960D01*
X6291882Y-3267960D01*
X6292673Y-3275997D01*
X6295018Y-3283726D01*
X6298825Y-3290849D01*
X6303948Y-3297092D01*
X6310191Y-3302215D01*
X6317314Y-3306022D01*
X6325043Y-3308367D01*
X6333080Y-3309158D01*
X6365080Y-3308960D01*
X6375330Y-3298710D01*
X6375330Y-3256960D01*
X6302330Y-3256960D01*
X6292080Y-3267210D01*
X6291882Y-3267960D01*
X6278008Y-3267960D01*
X6277672Y-3264549D01*
X6275131Y-3256173D01*
X6271005Y-3248454D01*
X6265452Y-3241688D01*
X6258686Y-3236135D01*
X6257985Y-3235760D01*
X6258686Y-3235385D01*
X6265452Y-3229832D01*
X6271005Y-3223066D01*
X6275131Y-3215347D01*
X6277249Y-3208366D01*
X6278973Y-3209517D01*
G04 #@! TA.AperFunction,Conductor*
D34*
G36*
X6278973Y-3209517D02*
G01*
X6290074Y-3214116D01*
X6301798Y-3216448D01*
X6298825Y-3220071D01*
X6295018Y-3227194D01*
X6292673Y-3234923D01*
X6291882Y-3242960D01*
X6292080Y-3243710D01*
X6302330Y-3253960D01*
X6375330Y-3253960D01*
X6375330Y-3251960D01*
X6378330Y-3251960D01*
X6378330Y-3253960D01*
X6380330Y-3253960D01*
X6380330Y-3256960D01*
X6378330Y-3256960D01*
X6378330Y-3298710D01*
X6388580Y-3308960D01*
X6401930Y-3309043D01*
X6401930Y-3361710D01*
X6402080Y-3363233D01*
X6402080Y-3366192D01*
X6368462Y-3399810D01*
X6329455Y-3399810D01*
X6319110Y-3400829D01*
X6309163Y-3403846D01*
X6299996Y-3408746D01*
X6291961Y-3415341D01*
X6285366Y-3423376D01*
X6280466Y-3432543D01*
X6279070Y-3437146D01*
X6276512Y-3434028D01*
X6270269Y-3428905D01*
X6269389Y-3428435D01*
X6271005Y-3426466D01*
X6275131Y-3418747D01*
X6277672Y-3410371D01*
X6278530Y-3401660D01*
X6278530Y-3374660D01*
X6277672Y-3365949D01*
X6275131Y-3357573D01*
X6271005Y-3349854D01*
X6265452Y-3343088D01*
X6259062Y-3337844D01*
X6259090Y-3337560D01*
X6259044Y-3337091D01*
X6265452Y-3331832D01*
X6271005Y-3325066D01*
X6275131Y-3317347D01*
X6277672Y-3308971D01*
X6278530Y-3300260D01*
X6278530Y-3273260D01*
X6278008Y-3267960D01*
X6291882Y-3267960D01*
X6292673Y-3275997D01*
X6295018Y-3283726D01*
X6298825Y-3290849D01*
X6303948Y-3297092D01*
X6310191Y-3302215D01*
X6317314Y-3306022D01*
X6325043Y-3308367D01*
X6333080Y-3309158D01*
X6365080Y-3308960D01*
X6375330Y-3298710D01*
X6375330Y-3256960D01*
X6302330Y-3256960D01*
X6292080Y-3267210D01*
X6291882Y-3267960D01*
X6278008Y-3267960D01*
X6277672Y-3264549D01*
X6275131Y-3256173D01*
X6271005Y-3248454D01*
X6265452Y-3241688D01*
X6258686Y-3236135D01*
X6257985Y-3235760D01*
X6258686Y-3235385D01*
X6265452Y-3229832D01*
X6271005Y-3223066D01*
X6275131Y-3215347D01*
X6277249Y-3208366D01*
X6278973Y-3209517D01*
G37*
G04 #@! TD.AperFunction*
D33*
X4682676Y-2970757D02*
X4675224Y-2978209D01*
X4669369Y-2986972D01*
X4667303Y-2991960D01*
X4660711Y-2991960D01*
X4650375Y-2994016D01*
X4640638Y-2998049D01*
X4631876Y-3003904D01*
X4624424Y-3011356D01*
X4618569Y-3020118D01*
X4614536Y-3029855D01*
X4612480Y-3040191D01*
X4612480Y-3050729D01*
X4614536Y-3061065D01*
X4618569Y-3070802D01*
X4624424Y-3079564D01*
X4630675Y-3085815D01*
X4627938Y-3086949D01*
X4619176Y-3092804D01*
X4611724Y-3100256D01*
X4605869Y-3109018D01*
X4601836Y-3118755D01*
X4599780Y-3129091D01*
X4599780Y-3139629D01*
X4601836Y-3149965D01*
X4605869Y-3159702D01*
X4611724Y-3168464D01*
X4615157Y-3171897D01*
X4615337Y-3173727D01*
X4617258Y-3180060D01*
X4613111Y-3180060D01*
X4602775Y-3182116D01*
X4593038Y-3186149D01*
X4584276Y-3192004D01*
X4576824Y-3199456D01*
X4570969Y-3208218D01*
X4566936Y-3217954D01*
X4564880Y-3228291D01*
X4564880Y-3238829D01*
X4566936Y-3249165D01*
X4570969Y-3258902D01*
X4576824Y-3267664D01*
X4584276Y-3275116D01*
X4586105Y-3276338D01*
X4580276Y-3280234D01*
X4572824Y-3287685D01*
X4566969Y-3296448D01*
X4562936Y-3306184D01*
X4560880Y-3316520D01*
X4560880Y-3327059D01*
X4562936Y-3337395D01*
X4566969Y-3347132D01*
X4572824Y-3355894D01*
X4580276Y-3363346D01*
X4589038Y-3369201D01*
X4598775Y-3373234D01*
X4609111Y-3375290D01*
X4619649Y-3375290D01*
X4621756Y-3374871D01*
X4622086Y-3378222D01*
X4624009Y-3384560D01*
X4622086Y-3390898D01*
X4621430Y-3397560D01*
X4621430Y-3402760D01*
X4581636Y-3402760D01*
X4549980Y-3371104D01*
X4549980Y-3077264D01*
X4553367Y-3069087D01*
X4556480Y-3053438D01*
X4556480Y-3037482D01*
X4553367Y-3021833D01*
X4547261Y-3007092D01*
X4538397Y-2993825D01*
X4527115Y-2982543D01*
X4513848Y-2973679D01*
X4499107Y-2967573D01*
X4496026Y-2966960D01*
X4688359Y-2966960D01*
X4682676Y-2970757D01*
G04 #@! TA.AperFunction,Conductor*
D34*
G36*
X4682676Y-2970757D02*
G01*
X4675224Y-2978209D01*
X4669369Y-2986972D01*
X4667303Y-2991960D01*
X4660711Y-2991960D01*
X4650375Y-2994016D01*
X4640638Y-2998049D01*
X4631876Y-3003904D01*
X4624424Y-3011356D01*
X4618569Y-3020118D01*
X4614536Y-3029855D01*
X4612480Y-3040191D01*
X4612480Y-3050729D01*
X4614536Y-3061065D01*
X4618569Y-3070802D01*
X4624424Y-3079564D01*
X4630675Y-3085815D01*
X4627938Y-3086949D01*
X4619176Y-3092804D01*
X4611724Y-3100256D01*
X4605869Y-3109018D01*
X4601836Y-3118755D01*
X4599780Y-3129091D01*
X4599780Y-3139629D01*
X4601836Y-3149965D01*
X4605869Y-3159702D01*
X4611724Y-3168464D01*
X4615157Y-3171897D01*
X4615337Y-3173727D01*
X4617258Y-3180060D01*
X4613111Y-3180060D01*
X4602775Y-3182116D01*
X4593038Y-3186149D01*
X4584276Y-3192004D01*
X4576824Y-3199456D01*
X4570969Y-3208218D01*
X4566936Y-3217954D01*
X4564880Y-3228291D01*
X4564880Y-3238829D01*
X4566936Y-3249165D01*
X4570969Y-3258902D01*
X4576824Y-3267664D01*
X4584276Y-3275116D01*
X4586105Y-3276338D01*
X4580276Y-3280234D01*
X4572824Y-3287685D01*
X4566969Y-3296448D01*
X4562936Y-3306184D01*
X4560880Y-3316520D01*
X4560880Y-3327059D01*
X4562936Y-3337395D01*
X4566969Y-3347132D01*
X4572824Y-3355894D01*
X4580276Y-3363346D01*
X4589038Y-3369201D01*
X4598775Y-3373234D01*
X4609111Y-3375290D01*
X4619649Y-3375290D01*
X4621756Y-3374871D01*
X4622086Y-3378222D01*
X4624009Y-3384560D01*
X4622086Y-3390898D01*
X4621430Y-3397560D01*
X4621430Y-3402760D01*
X4581636Y-3402760D01*
X4549980Y-3371104D01*
X4549980Y-3077264D01*
X4553367Y-3069087D01*
X4556480Y-3053438D01*
X4556480Y-3037482D01*
X4553367Y-3021833D01*
X4547261Y-3007092D01*
X4538397Y-2993825D01*
X4527115Y-2982543D01*
X4513848Y-2973679D01*
X4499107Y-2967573D01*
X4496026Y-2966960D01*
X4688359Y-2966960D01*
X4682676Y-2970757D01*
G37*
G04 #@! TD.AperFunction*
D33*
X5533576Y-3264816D02*
X5542338Y-3270671D01*
X5552075Y-3274704D01*
X5562411Y-3276760D01*
X5572949Y-3276760D01*
X5578939Y-3275569D01*
X5588630Y-3285260D01*
X5832880Y-3285260D01*
X5832880Y-3283260D01*
X5835880Y-3283260D01*
X5835880Y-3285260D01*
X5837880Y-3285260D01*
X5837880Y-3288260D01*
X5835880Y-3288260D01*
X5835880Y-3290260D01*
X5832880Y-3290260D01*
X5832880Y-3288260D01*
X5588630Y-3288260D01*
X5578380Y-3298510D01*
X5578287Y-3372386D01*
X5542894Y-3336993D01*
X5541610Y-3335428D01*
X5535367Y-3330305D01*
X5528245Y-3326498D01*
X5520516Y-3324153D01*
X5514492Y-3323560D01*
X5514492Y-3323560D01*
X5512479Y-3323362D01*
X5510466Y-3323560D01*
X5474563Y-3323560D01*
X5533441Y-3264682D01*
X5533576Y-3264816D01*
G04 #@! TA.AperFunction,Conductor*
D34*
G36*
X5533576Y-3264816D02*
G01*
X5542338Y-3270671D01*
X5552075Y-3274704D01*
X5562411Y-3276760D01*
X5572949Y-3276760D01*
X5578939Y-3275569D01*
X5588630Y-3285260D01*
X5832880Y-3285260D01*
X5832880Y-3283260D01*
X5835880Y-3283260D01*
X5835880Y-3285260D01*
X5837880Y-3285260D01*
X5837880Y-3288260D01*
X5835880Y-3288260D01*
X5835880Y-3290260D01*
X5832880Y-3290260D01*
X5832880Y-3288260D01*
X5588630Y-3288260D01*
X5578380Y-3298510D01*
X5578287Y-3372386D01*
X5542894Y-3336993D01*
X5541610Y-3335428D01*
X5535367Y-3330305D01*
X5528245Y-3326498D01*
X5520516Y-3324153D01*
X5514492Y-3323560D01*
X5514492Y-3323560D01*
X5512479Y-3323362D01*
X5510466Y-3323560D01*
X5474563Y-3323560D01*
X5533441Y-3264682D01*
X5533576Y-3264816D01*
G37*
G04 #@! TD.AperFunction*
D33*
X6143182Y-2969460D02*
X6143380Y-2985710D01*
X6153630Y-2995960D01*
X6213880Y-2995960D01*
X6213880Y-2993960D01*
X6216880Y-2993960D01*
X6216880Y-2995960D01*
X6277130Y-2995960D01*
X6287380Y-2985710D01*
X6287578Y-2969460D01*
X6287332Y-2966960D01*
X6293280Y-2966960D01*
X6293280Y-2999432D01*
X6281521Y-3003351D01*
X6277130Y-2998960D01*
X6216880Y-2998960D01*
X6216880Y-3000960D01*
X6213880Y-3000960D01*
X6213880Y-2998960D01*
X6153630Y-2998960D01*
X6143380Y-3009210D01*
X6143182Y-3025460D01*
X6143973Y-3033497D01*
X6146318Y-3041226D01*
X6150125Y-3048349D01*
X6155248Y-3054592D01*
X6159054Y-3057715D01*
X6156667Y-3062182D01*
X6154098Y-3070652D01*
X6153230Y-3079460D01*
X6153230Y-3085551D01*
X6151095Y-3086978D01*
X6142598Y-3095475D01*
X6135922Y-3105466D01*
X6131324Y-3116567D01*
X6128980Y-3128352D01*
X6128980Y-3140368D01*
X6131324Y-3152153D01*
X6135922Y-3163254D01*
X6142598Y-3173245D01*
X6151095Y-3181742D01*
X6152230Y-3182500D01*
X6152230Y-3198260D01*
X6153088Y-3206971D01*
X6155629Y-3215347D01*
X6159755Y-3223066D01*
X6165308Y-3229832D01*
X6172074Y-3235385D01*
X6172775Y-3235760D01*
X6172074Y-3236135D01*
X6165308Y-3241688D01*
X6159755Y-3248454D01*
X6155629Y-3256173D01*
X6153088Y-3264549D01*
X6152230Y-3273260D01*
X6152230Y-3289887D01*
X6142674Y-3283502D01*
X6131573Y-3278904D01*
X6119788Y-3276560D01*
X6107772Y-3276560D01*
X6095987Y-3278904D01*
X6084886Y-3283502D01*
X6082256Y-3285260D01*
X6080130Y-3285260D01*
X6090380Y-3275010D01*
X6090578Y-3116760D01*
X6089787Y-3108723D01*
X6087442Y-3100994D01*
X6083635Y-3093871D01*
X6078512Y-3087628D01*
X6072269Y-3082505D01*
X6065146Y-3078698D01*
X6062006Y-3077745D01*
X6068245Y-3072625D01*
X6070081Y-3070388D01*
X6072775Y-3071504D01*
X6083111Y-3073560D01*
X6093649Y-3073560D01*
X6103985Y-3071504D01*
X6113722Y-3067471D01*
X6122484Y-3061616D01*
X6129936Y-3054164D01*
X6135791Y-3045402D01*
X6139824Y-3035665D01*
X6141880Y-3025329D01*
X6141880Y-3014791D01*
X6139824Y-3004455D01*
X6135791Y-2994718D01*
X6129936Y-2985956D01*
X6122484Y-2978504D01*
X6113722Y-2972649D01*
X6103985Y-2968616D01*
X6095660Y-2966960D01*
X6143428Y-2966960D01*
X6143182Y-2969460D01*
G04 #@! TA.AperFunction,Conductor*
D34*
G36*
X6143182Y-2969460D02*
G01*
X6143380Y-2985710D01*
X6153630Y-2995960D01*
X6213880Y-2995960D01*
X6213880Y-2993960D01*
X6216880Y-2993960D01*
X6216880Y-2995960D01*
X6277130Y-2995960D01*
X6287380Y-2985710D01*
X6287578Y-2969460D01*
X6287332Y-2966960D01*
X6293280Y-2966960D01*
X6293280Y-2999432D01*
X6281521Y-3003351D01*
X6277130Y-2998960D01*
X6216880Y-2998960D01*
X6216880Y-3000960D01*
X6213880Y-3000960D01*
X6213880Y-2998960D01*
X6153630Y-2998960D01*
X6143380Y-3009210D01*
X6143182Y-3025460D01*
X6143973Y-3033497D01*
X6146318Y-3041226D01*
X6150125Y-3048349D01*
X6155248Y-3054592D01*
X6159054Y-3057715D01*
X6156667Y-3062182D01*
X6154098Y-3070652D01*
X6153230Y-3079460D01*
X6153230Y-3085551D01*
X6151095Y-3086978D01*
X6142598Y-3095475D01*
X6135922Y-3105466D01*
X6131324Y-3116567D01*
X6128980Y-3128352D01*
X6128980Y-3140368D01*
X6131324Y-3152153D01*
X6135922Y-3163254D01*
X6142598Y-3173245D01*
X6151095Y-3181742D01*
X6152230Y-3182500D01*
X6152230Y-3198260D01*
X6153088Y-3206971D01*
X6155629Y-3215347D01*
X6159755Y-3223066D01*
X6165308Y-3229832D01*
X6172074Y-3235385D01*
X6172775Y-3235760D01*
X6172074Y-3236135D01*
X6165308Y-3241688D01*
X6159755Y-3248454D01*
X6155629Y-3256173D01*
X6153088Y-3264549D01*
X6152230Y-3273260D01*
X6152230Y-3289887D01*
X6142674Y-3283502D01*
X6131573Y-3278904D01*
X6119788Y-3276560D01*
X6107772Y-3276560D01*
X6095987Y-3278904D01*
X6084886Y-3283502D01*
X6082256Y-3285260D01*
X6080130Y-3285260D01*
X6090380Y-3275010D01*
X6090578Y-3116760D01*
X6089787Y-3108723D01*
X6087442Y-3100994D01*
X6083635Y-3093871D01*
X6078512Y-3087628D01*
X6072269Y-3082505D01*
X6065146Y-3078698D01*
X6062006Y-3077745D01*
X6068245Y-3072625D01*
X6070081Y-3070388D01*
X6072775Y-3071504D01*
X6083111Y-3073560D01*
X6093649Y-3073560D01*
X6103985Y-3071504D01*
X6113722Y-3067471D01*
X6122484Y-3061616D01*
X6129936Y-3054164D01*
X6135791Y-3045402D01*
X6139824Y-3035665D01*
X6141880Y-3025329D01*
X6141880Y-3014791D01*
X6139824Y-3004455D01*
X6135791Y-2994718D01*
X6129936Y-2985956D01*
X6122484Y-2978504D01*
X6113722Y-2972649D01*
X6103985Y-2968616D01*
X6095660Y-2966960D01*
X6143428Y-2966960D01*
X6143182Y-2969460D01*
G37*
G04 #@! TD.AperFunction*
D33*
X6665830Y-3153960D02*
X6667830Y-3153960D01*
X6667830Y-3156960D01*
X6665830Y-3156960D01*
X6665830Y-3203960D01*
X6667830Y-3203960D01*
X6667830Y-3206960D01*
X6665830Y-3206960D01*
X6665830Y-3208960D01*
X6662830Y-3208960D01*
X6662830Y-3206960D01*
X6660830Y-3206960D01*
X6660830Y-3203960D01*
X6662830Y-3203960D01*
X6662830Y-3156960D01*
X6660830Y-3156960D01*
X6660830Y-3153960D01*
X6662830Y-3153960D01*
X6662830Y-3151960D01*
X6665830Y-3151960D01*
X6665830Y-3153960D01*
G04 #@! TA.AperFunction,Conductor*
D34*
G36*
X6665830Y-3153960D02*
G01*
X6667830Y-3153960D01*
X6667830Y-3156960D01*
X6665830Y-3156960D01*
X6665830Y-3203960D01*
X6667830Y-3203960D01*
X6667830Y-3206960D01*
X6665830Y-3206960D01*
X6665830Y-3208960D01*
X6662830Y-3208960D01*
X6662830Y-3206960D01*
X6660830Y-3206960D01*
X6660830Y-3203960D01*
X6662830Y-3203960D01*
X6662830Y-3156960D01*
X6660830Y-3156960D01*
X6660830Y-3153960D01*
X6662830Y-3153960D01*
X6662830Y-3151960D01*
X6665830Y-3151960D01*
X6665830Y-3153960D01*
G37*
G04 #@! TD.AperFunction*
D33*
X6522080Y-3178960D02*
X6524080Y-3178960D01*
X6524080Y-3181960D01*
X6522080Y-3181960D01*
X6522080Y-3183960D01*
X6519080Y-3183960D01*
X6519080Y-3181960D01*
X6517080Y-3181960D01*
X6517080Y-3178960D01*
X6519080Y-3178960D01*
X6519080Y-3176960D01*
X6522080Y-3176960D01*
X6522080Y-3178960D01*
G04 #@! TA.AperFunction,Conductor*
D34*
G36*
X6522080Y-3178960D02*
G01*
X6524080Y-3178960D01*
X6524080Y-3181960D01*
X6522080Y-3181960D01*
X6522080Y-3183960D01*
X6519080Y-3183960D01*
X6519080Y-3181960D01*
X6517080Y-3181960D01*
X6517080Y-3178960D01*
X6519080Y-3178960D01*
X6519080Y-3176960D01*
X6522080Y-3176960D01*
X6522080Y-3178960D01*
G37*
G04 #@! TD.AperFunction*
D33*
X6688785Y-2974678D02*
X6778807Y-2997290D01*
X6863926Y-3034301D01*
X6872499Y-3039847D01*
X6866343Y-3040453D01*
X6858614Y-3042798D01*
X6851491Y-3046605D01*
X6845248Y-3051728D01*
X6840125Y-3057971D01*
X6839655Y-3058851D01*
X6837686Y-3057235D01*
X6829967Y-3053109D01*
X6821591Y-3050568D01*
X6812880Y-3049710D01*
X6801848Y-3049710D01*
X6756270Y-3004132D01*
X6754908Y-3002472D01*
X6748284Y-2997036D01*
X6740727Y-2992997D01*
X6732527Y-2990509D01*
X6726136Y-2989880D01*
X6726135Y-2989880D01*
X6724000Y-2989670D01*
X6721865Y-2989880D01*
X6637894Y-2989880D01*
X6636383Y-2984898D01*
X6632927Y-2978432D01*
X6628276Y-2972764D01*
X6624131Y-2969363D01*
X6688785Y-2974678D01*
G04 #@! TA.AperFunction,Conductor*
D34*
G36*
X6688785Y-2974678D02*
G01*
X6778807Y-2997290D01*
X6863926Y-3034301D01*
X6872499Y-3039847D01*
X6866343Y-3040453D01*
X6858614Y-3042798D01*
X6851491Y-3046605D01*
X6845248Y-3051728D01*
X6840125Y-3057971D01*
X6839655Y-3058851D01*
X6837686Y-3057235D01*
X6829967Y-3053109D01*
X6821591Y-3050568D01*
X6812880Y-3049710D01*
X6801848Y-3049710D01*
X6756270Y-3004132D01*
X6754908Y-3002472D01*
X6748284Y-2997036D01*
X6740727Y-2992997D01*
X6732527Y-2990509D01*
X6726136Y-2989880D01*
X6726135Y-2989880D01*
X6724000Y-2989670D01*
X6721865Y-2989880D01*
X6637894Y-2989880D01*
X6636383Y-2984898D01*
X6632927Y-2978432D01*
X6628276Y-2972764D01*
X6624131Y-2969363D01*
X6688785Y-2974678D01*
G37*
G04 #@! TD.AperFunction*
D33*
X5578473Y-2971223D02*
X5577682Y-2979260D01*
X5577880Y-3005010D01*
X5588130Y-3015260D01*
X5642380Y-3015260D01*
X5642380Y-3013260D01*
X5645380Y-3013260D01*
X5645380Y-3015260D01*
X5699630Y-3015260D01*
X5709880Y-3005010D01*
X5710078Y-2979260D01*
X5709287Y-2971223D01*
X5707994Y-2966960D01*
X5722537Y-2966960D01*
X5722086Y-2967509D01*
X5718053Y-2975056D01*
X5715569Y-2983244D01*
X5714730Y-2991760D01*
X5714730Y-3014927D01*
X5705514Y-3024144D01*
X5699630Y-3018260D01*
X5645380Y-3018260D01*
X5645380Y-3020260D01*
X5642380Y-3020260D01*
X5642380Y-3018260D01*
X5588130Y-3018260D01*
X5577880Y-3028510D01*
X5577709Y-3050760D01*
X5497993Y-3050760D01*
X5495980Y-3050562D01*
X5493967Y-3050760D01*
X5493967Y-3050760D01*
X5487943Y-3051353D01*
X5482490Y-3053007D01*
X5480214Y-3053698D01*
X5479039Y-3054326D01*
X5475391Y-3045518D01*
X5469536Y-3036756D01*
X5462084Y-3029304D01*
X5453322Y-3023449D01*
X5443585Y-3019416D01*
X5433249Y-3017360D01*
X5422711Y-3017360D01*
X5412375Y-3019416D01*
X5411242Y-3019885D01*
X5410487Y-3012223D01*
X5408142Y-3004494D01*
X5404335Y-2997371D01*
X5399212Y-2991128D01*
X5392969Y-2986005D01*
X5385846Y-2982198D01*
X5378117Y-2979853D01*
X5370080Y-2979062D01*
X5350830Y-2979260D01*
X5340580Y-2989510D01*
X5340580Y-3046760D01*
X5342580Y-3046760D01*
X5342580Y-3049760D01*
X5340580Y-3049760D01*
X5340580Y-3051760D01*
X5337580Y-3051760D01*
X5337580Y-3049760D01*
X5335580Y-3049760D01*
X5335580Y-3046760D01*
X5337580Y-3046760D01*
X5337580Y-2989510D01*
X5327330Y-2979260D01*
X5308080Y-2979062D01*
X5300043Y-2979853D01*
X5292314Y-2982198D01*
X5285191Y-2986005D01*
X5278948Y-2991128D01*
X5273825Y-2997371D01*
X5270018Y-3004494D01*
X5267673Y-3012223D01*
X5267576Y-3013211D01*
X5266336Y-3011356D01*
X5258884Y-3003904D01*
X5250122Y-2998049D01*
X5240385Y-2994016D01*
X5230049Y-2991960D01*
X5219511Y-2991960D01*
X5209175Y-2994016D01*
X5199438Y-2998049D01*
X5190676Y-3003904D01*
X5183224Y-3011356D01*
X5177369Y-3020118D01*
X5173336Y-3029855D01*
X5171280Y-3040191D01*
X5171280Y-3044513D01*
X5163046Y-3052747D01*
X5163023Y-3052513D01*
X5160821Y-3045255D01*
X5160030Y-3043774D01*
X5157246Y-3038567D01*
X5154698Y-3035462D01*
X5152435Y-3032705D01*
X5150967Y-3031499D01*
X5125880Y-3006413D01*
X5125880Y-3002091D01*
X5123824Y-2991755D01*
X5119791Y-2982018D01*
X5113936Y-2973256D01*
X5107641Y-2966960D01*
X5579766Y-2966960D01*
X5578473Y-2971223D01*
G04 #@! TA.AperFunction,Conductor*
D34*
G36*
X5578473Y-2971223D02*
G01*
X5577682Y-2979260D01*
X5577880Y-3005010D01*
X5588130Y-3015260D01*
X5642380Y-3015260D01*
X5642380Y-3013260D01*
X5645380Y-3013260D01*
X5645380Y-3015260D01*
X5699630Y-3015260D01*
X5709880Y-3005010D01*
X5710078Y-2979260D01*
X5709287Y-2971223D01*
X5707994Y-2966960D01*
X5722537Y-2966960D01*
X5722086Y-2967509D01*
X5718053Y-2975056D01*
X5715569Y-2983244D01*
X5714730Y-2991760D01*
X5714730Y-3014927D01*
X5705514Y-3024144D01*
X5699630Y-3018260D01*
X5645380Y-3018260D01*
X5645380Y-3020260D01*
X5642380Y-3020260D01*
X5642380Y-3018260D01*
X5588130Y-3018260D01*
X5577880Y-3028510D01*
X5577709Y-3050760D01*
X5497993Y-3050760D01*
X5495980Y-3050562D01*
X5493967Y-3050760D01*
X5493967Y-3050760D01*
X5487943Y-3051353D01*
X5482490Y-3053007D01*
X5480214Y-3053698D01*
X5479039Y-3054326D01*
X5475391Y-3045518D01*
X5469536Y-3036756D01*
X5462084Y-3029304D01*
X5453322Y-3023449D01*
X5443585Y-3019416D01*
X5433249Y-3017360D01*
X5422711Y-3017360D01*
X5412375Y-3019416D01*
X5411242Y-3019885D01*
X5410487Y-3012223D01*
X5408142Y-3004494D01*
X5404335Y-2997371D01*
X5399212Y-2991128D01*
X5392969Y-2986005D01*
X5385846Y-2982198D01*
X5378117Y-2979853D01*
X5370080Y-2979062D01*
X5350830Y-2979260D01*
X5340580Y-2989510D01*
X5340580Y-3046760D01*
X5342580Y-3046760D01*
X5342580Y-3049760D01*
X5340580Y-3049760D01*
X5340580Y-3051760D01*
X5337580Y-3051760D01*
X5337580Y-3049760D01*
X5335580Y-3049760D01*
X5335580Y-3046760D01*
X5337580Y-3046760D01*
X5337580Y-2989510D01*
X5327330Y-2979260D01*
X5308080Y-2979062D01*
X5300043Y-2979853D01*
X5292314Y-2982198D01*
X5285191Y-2986005D01*
X5278948Y-2991128D01*
X5273825Y-2997371D01*
X5270018Y-3004494D01*
X5267673Y-3012223D01*
X5267576Y-3013211D01*
X5266336Y-3011356D01*
X5258884Y-3003904D01*
X5250122Y-2998049D01*
X5240385Y-2994016D01*
X5230049Y-2991960D01*
X5219511Y-2991960D01*
X5209175Y-2994016D01*
X5199438Y-2998049D01*
X5190676Y-3003904D01*
X5183224Y-3011356D01*
X5177369Y-3020118D01*
X5173336Y-3029855D01*
X5171280Y-3040191D01*
X5171280Y-3044513D01*
X5163046Y-3052747D01*
X5163023Y-3052513D01*
X5160821Y-3045255D01*
X5160030Y-3043774D01*
X5157246Y-3038567D01*
X5154698Y-3035462D01*
X5152435Y-3032705D01*
X5150967Y-3031499D01*
X5125880Y-3006413D01*
X5125880Y-3002091D01*
X5123824Y-2991755D01*
X5119791Y-2982018D01*
X5113936Y-2973256D01*
X5107641Y-2966960D01*
X5579766Y-2966960D01*
X5578473Y-2971223D01*
G37*
G04 #@! TD.AperFunction*
M02*
