G04 #@! TF.GenerationSoftware,KiCad,Pcbnew,6.0.9-8da3e8f707~116~ubuntu22.04.1*
G04 #@! TF.CreationDate,2022-12-14T17:19:13+01:00*
G04 #@! TF.ProjectId,nRF52832_qfaa,6e524635-3238-4333-925f-716661612e6b,rev?*
G04 #@! TF.SameCoordinates,Original*
G04 #@! TF.FileFunction,Copper,L2,Inr*
G04 #@! TF.FilePolarity,Positive*
%FSLAX45Y45*%
G04 Gerber Fmt 4.5, Leading zero omitted, Abs format (unit mm)*
G04 Created by KiCad (PCBNEW 6.0.9-8da3e8f707~116~ubuntu22.04.1) date 2022-12-14 17:19:13*
%MOMM*%
%LPD*%
G01*
G04 APERTURE LIST*
G04 #@! TA.AperFunction,ComponentPad*
%ADD10C,0.500000*%
G04 #@! TD*
G04 #@! TA.AperFunction,ComponentPad*
%ADD11C,0.908000*%
G04 #@! TD*
G04 #@! TA.AperFunction,ComponentPad*
%ADD12C,0.850000*%
G04 #@! TD*
G04 #@! TA.AperFunction,ViaPad*
%ADD13C,0.600000*%
G04 #@! TD*
G04 #@! TA.AperFunction,ViaPad*
%ADD14C,0.450000*%
G04 #@! TD*
G04 #@! TA.AperFunction,ViaPad*
%ADD15C,0.800000*%
G04 #@! TD*
G04 #@! TA.AperFunction,Conductor*
%ADD16C,0.400000*%
G04 #@! TD*
G04 #@! TA.AperFunction,Conductor*
%ADD17C,0.150000*%
G04 #@! TD*
G04 #@! TA.AperFunction,Conductor*
%ADD18C,0.127000*%
G04 #@! TD*
G04 #@! TA.AperFunction,Conductor*
%ADD19C,0.200000*%
G04 #@! TD*
G04 APERTURE END LIST*
D10*
X6473080Y-3097020D03*
X6568080Y-3097020D03*
X6568080Y-3192020D03*
X6473080Y-3192020D03*
D11*
X4745584Y-3644560D03*
X4745584Y-3524560D03*
X4745584Y-3404560D03*
X4745584Y-3284560D03*
X4625584Y-3644560D03*
X4625584Y-3524560D03*
X4625584Y-3404560D03*
X4625584Y-3284560D03*
X4505584Y-3644560D03*
X4505584Y-3524560D03*
X4505584Y-3404560D03*
X4505584Y-3284560D03*
X4385584Y-3644560D03*
X4385584Y-3524560D03*
X4385584Y-3404560D03*
X4385584Y-3284560D03*
D12*
X4051300Y-3022600D03*
D13*
X5935980Y-3667760D03*
X5684520Y-3695146D03*
D14*
X4100688Y-3663696D03*
X4233784Y-4023360D03*
X3928984Y-3083560D03*
X3890884Y-3134360D03*
X3801984Y-3147060D03*
X6845300Y-3037840D03*
X6964680Y-3121660D03*
X6628550Y-3464560D03*
X6977380Y-3365500D03*
X6441440Y-4064000D03*
X4144955Y-3274131D03*
D13*
X3326384Y-3282696D03*
D14*
X5305883Y-3831459D03*
X4754484Y-4087763D03*
X6537950Y-3881120D03*
D13*
X4151884Y-4120896D03*
D14*
X4192611Y-3080487D03*
D13*
X5713984Y-3858260D03*
D14*
X6537950Y-3716020D03*
D13*
X5104384Y-4019296D03*
D14*
X4919584Y-2997200D03*
D13*
X3192780Y-3832860D03*
D14*
X6017260Y-4130040D03*
X6101080Y-3210560D03*
D13*
X3631184Y-3981196D03*
D15*
X5702300Y-2933700D03*
D14*
X6384681Y-3312160D03*
X4652884Y-4087763D03*
X5003800Y-3223260D03*
D13*
X5468620Y-3434080D03*
X5051759Y-3637796D03*
D14*
X6537950Y-3827780D03*
D13*
X3638682Y-3483950D03*
X6464477Y-3998197D03*
D14*
X6537950Y-3769360D03*
X6177280Y-3528060D03*
D13*
X6977380Y-3223260D03*
D14*
X4144813Y-3375589D03*
X6278880Y-2980960D03*
X6654800Y-4132580D03*
X4498960Y-3936380D03*
X5292123Y-4143998D03*
D13*
X3262884Y-3904996D03*
X4930140Y-3192780D03*
D14*
X5867400Y-4046220D03*
X6809740Y-4058920D03*
X6370320Y-4104640D03*
X6738620Y-4112260D03*
X4805406Y-3821416D03*
D13*
X3162300Y-3251200D03*
X4259184Y-3743960D03*
D14*
X6736080Y-4010660D03*
X6184900Y-4130040D03*
X6609080Y-4071620D03*
X6327140Y-4140200D03*
X6118480Y-3612260D03*
D13*
X4381500Y-4099560D03*
X3568700Y-3905246D03*
D14*
X4461867Y-3846470D03*
X4194884Y-3321790D03*
D13*
X3732784Y-3790696D03*
D14*
X4198884Y-3233560D03*
D13*
X3732784Y-3663696D03*
D14*
X4214988Y-3143610D03*
D13*
X3701475Y-3282549D03*
X6520180Y-2939796D03*
D14*
X6284280Y-3045460D03*
D13*
X6189980Y-3134360D03*
X5255774Y-3459994D03*
D14*
X5834380Y-3629660D03*
D13*
X5532120Y-3540760D03*
D14*
X5581930Y-3208939D03*
X6088380Y-3020060D03*
X5531644Y-3241579D03*
X5844148Y-3070860D03*
D13*
X5842000Y-2933700D03*
D14*
X5514904Y-3141757D03*
D13*
X5067300Y-3294380D03*
D14*
X4411027Y-2965148D03*
D13*
X3873201Y-2975961D03*
X3770884Y-2952496D03*
D14*
X4328192Y-2918423D03*
D13*
X3847143Y-3066796D03*
D14*
X4372339Y-3010945D03*
X6691806Y-3305635D03*
X4709160Y-2991350D03*
X4757210Y-3027201D03*
X5460815Y-3306917D03*
D13*
X5180584Y-3689096D03*
X5955284Y-3810046D03*
D14*
X4284980Y-4061460D03*
D13*
X5177559Y-3278387D03*
D14*
X5016300Y-3578471D03*
D13*
X6113780Y-3337560D03*
D14*
X4424682Y-4009105D03*
X5701284Y-4036060D03*
X4520866Y-3835832D03*
D13*
X3662890Y-3868931D03*
X3707384Y-3536696D03*
D14*
X4265788Y-3103599D03*
X5581886Y-3353834D03*
X5390500Y-3128310D03*
X5171550Y-3172460D03*
X4361538Y-4000543D03*
X5681600Y-4110100D03*
X4540634Y-3054210D03*
X5430140Y-4110100D03*
X4483100Y-3078480D03*
X4604136Y-3834516D03*
X5440680Y-3690620D03*
X5302163Y-3900083D03*
X5763260Y-3665220D03*
D13*
X5332984Y-3282696D03*
D14*
X6677660Y-3561080D03*
X6624320Y-3393440D03*
X6268720Y-4102100D03*
X6296660Y-3134360D03*
D13*
X6521150Y-3352800D03*
D14*
X5398520Y-2975860D03*
D13*
X5332984Y-3689096D03*
D14*
X5184140Y-3004820D03*
X6146800Y-3967480D03*
D16*
X6184900Y-4130040D02*
X6184900Y-4094480D01*
X6235700Y-4043680D02*
X6309360Y-4043680D01*
X6309360Y-4043680D02*
X6370320Y-4104640D01*
X6184900Y-4094480D02*
X6235700Y-4043680D01*
D17*
X4194884Y-3321790D02*
X4243884Y-3272790D01*
X4243884Y-3272790D02*
X4243884Y-3246576D01*
X4243884Y-3246576D02*
X4544060Y-2946400D01*
X4544060Y-2946400D02*
X5143500Y-2946400D01*
X4531360Y-2915564D02*
X4213364Y-3233560D01*
X4213364Y-3233560D02*
X4198884Y-3233560D01*
X5201480Y-2908300D02*
X4531360Y-2908300D01*
X4531360Y-2908300D02*
X4531360Y-2915564D01*
D18*
X3924502Y-2997211D02*
X3854918Y-3066796D01*
X3968857Y-2908300D02*
X3924502Y-2952654D01*
X3854918Y-3066796D02*
X3847143Y-3066796D01*
X3924502Y-2952654D02*
X3924502Y-2997211D01*
X4178300Y-2908300D02*
X3968857Y-2908300D01*
X4372339Y-3010945D02*
X4280945Y-3010945D01*
X4280945Y-3010945D02*
X4178300Y-2908300D01*
X4875784Y-3689096D02*
X5180584Y-3689096D01*
X4391660Y-3891280D02*
X4673600Y-3891280D01*
X4284980Y-3997960D02*
X4391660Y-3891280D01*
X4673600Y-3891280D02*
X4875784Y-3689096D01*
X4284980Y-4061460D02*
X4284980Y-3997960D01*
D19*
X5414400Y-3379080D02*
X5491402Y-3379080D01*
X5521002Y-3408680D02*
X6042660Y-3408680D01*
X5016300Y-3578471D02*
X5045375Y-3549396D01*
X5491402Y-3379080D02*
X5521002Y-3408680D01*
X5244084Y-3549396D02*
X5414400Y-3379080D01*
X5045375Y-3549396D02*
X5244084Y-3549396D01*
X6042660Y-3408680D02*
X6113780Y-3337560D01*
D17*
X5295900Y-4036060D02*
X5701284Y-4036060D01*
X4498265Y-4009105D02*
X4587240Y-3920130D01*
X4424682Y-4009105D02*
X4498265Y-4009105D01*
X4587240Y-3920130D02*
X5179970Y-3920130D01*
X5179970Y-3920130D02*
X5295900Y-4036060D01*
G04 #@! TA.AperFunction,Conductor*
G36*
X3729605Y-2905592D02*
G01*
X3733564Y-2911042D01*
X3733564Y-2917778D01*
X3731368Y-2921625D01*
X3728622Y-2924735D01*
X3728292Y-2925438D01*
X3728292Y-2925438D01*
X3722859Y-2937009D01*
X3722859Y-2937009D01*
X3722529Y-2937712D01*
X3722409Y-2938480D01*
X3720896Y-2948200D01*
X3720323Y-2951878D01*
X3722182Y-2966094D01*
X3727956Y-2979216D01*
X3728455Y-2979810D01*
X3728455Y-2979811D01*
X3736681Y-2989597D01*
X3737181Y-2990191D01*
X3749115Y-2998135D01*
X3749856Y-2998366D01*
X3762059Y-3002179D01*
X3762059Y-3002179D01*
X3762800Y-3002410D01*
X3770557Y-3002552D01*
X3776358Y-3002659D01*
X3776358Y-3002659D01*
X3777134Y-3002673D01*
X3790966Y-2998902D01*
X3803183Y-2991400D01*
X3806787Y-2987419D01*
X3812629Y-2984066D01*
X3819327Y-2984788D01*
X3824321Y-2989309D01*
X3824844Y-2990344D01*
X3830273Y-3002682D01*
X3830773Y-3003276D01*
X3830773Y-3003276D01*
X3830985Y-3003529D01*
X3831088Y-3003782D01*
X3831183Y-3003936D01*
X3831157Y-3003952D01*
X3833514Y-3009772D01*
X3831890Y-3016310D01*
X3827134Y-3020456D01*
X3826496Y-3020639D01*
X3825839Y-3021053D01*
X3825838Y-3021053D01*
X3815027Y-3027875D01*
X3814371Y-3028289D01*
X3804880Y-3039035D01*
X3804550Y-3039738D01*
X3804550Y-3039738D01*
X3799118Y-3051309D01*
X3799117Y-3051309D01*
X3798787Y-3052012D01*
X3796582Y-3066178D01*
X3798441Y-3080394D01*
X3804215Y-3093516D01*
X3804714Y-3094110D01*
X3804714Y-3094111D01*
X3812218Y-3103038D01*
X3813440Y-3104491D01*
X3825374Y-3112435D01*
X3826115Y-3112666D01*
X3838317Y-3116479D01*
X3838318Y-3116479D01*
X3839058Y-3116710D01*
X3846816Y-3116852D01*
X3852617Y-3116959D01*
X3852617Y-3116959D01*
X3853393Y-3116973D01*
X3867224Y-3113202D01*
X3879442Y-3105700D01*
X3889063Y-3095071D01*
X3895314Y-3082169D01*
X3897692Y-3068031D01*
X3897707Y-3066796D01*
X3897677Y-3066581D01*
X3899325Y-3060102D01*
X3900834Y-3058215D01*
X3937109Y-3021940D01*
X3988294Y-3021940D01*
X3989955Y-3036988D01*
X3995158Y-3051206D01*
X3995524Y-3051751D01*
X3995525Y-3051751D01*
X4002448Y-3062053D01*
X4003602Y-3063772D01*
X4004088Y-3064213D01*
X4004088Y-3064213D01*
X4012323Y-3071707D01*
X4014800Y-3073961D01*
X4028105Y-3081185D01*
X4042749Y-3085026D01*
X4049439Y-3085131D01*
X4057229Y-3085254D01*
X4057229Y-3085254D01*
X4057886Y-3085264D01*
X4058527Y-3085117D01*
X4058527Y-3085117D01*
X4072004Y-3082031D01*
X4072644Y-3081884D01*
X4073230Y-3081589D01*
X4073230Y-3081589D01*
X4085582Y-3075377D01*
X4085582Y-3075377D01*
X4086169Y-3075082D01*
X4097681Y-3065249D01*
X4106516Y-3052955D01*
X4106997Y-3051759D01*
X4111917Y-3039518D01*
X4112162Y-3038908D01*
X4112348Y-3037606D01*
X4114245Y-3024272D01*
X4114245Y-3024271D01*
X4114296Y-3023920D01*
X4114309Y-3022600D01*
X4114122Y-3021053D01*
X4113227Y-3013656D01*
X4112491Y-3007570D01*
X4112258Y-3006956D01*
X4112258Y-3006955D01*
X4107992Y-2995664D01*
X4107139Y-2993408D01*
X4100756Y-2984120D01*
X4098936Y-2981472D01*
X4098564Y-2980931D01*
X4098074Y-2980494D01*
X4098074Y-2980494D01*
X4087751Y-2971297D01*
X4087751Y-2971297D01*
X4087260Y-2970860D01*
X4078577Y-2966262D01*
X4074461Y-2964083D01*
X4074460Y-2964083D01*
X4073880Y-2963776D01*
X4073244Y-2963616D01*
X4073244Y-2963616D01*
X4064887Y-2961517D01*
X4059197Y-2960087D01*
X4051679Y-2960048D01*
X4044715Y-2960012D01*
X4044714Y-2960012D01*
X4044058Y-2960008D01*
X4043419Y-2960162D01*
X4043419Y-2960162D01*
X4042164Y-2960463D01*
X4029337Y-2963542D01*
X4028753Y-2963844D01*
X4028753Y-2963844D01*
X4016467Y-2970185D01*
X4016467Y-2970185D01*
X4015883Y-2970486D01*
X4014349Y-2971825D01*
X4007361Y-2977921D01*
X4004475Y-2980438D01*
X4000405Y-2986229D01*
X3996696Y-2991507D01*
X3995770Y-2992825D01*
X3990270Y-3006930D01*
X3990184Y-3007582D01*
X3990184Y-3007582D01*
X3988795Y-3018133D01*
X3988294Y-3021940D01*
X3937109Y-3021940D01*
X3940573Y-3018476D01*
X3942224Y-3017121D01*
X3942643Y-3016841D01*
X3943536Y-3016244D01*
X3945008Y-3014040D01*
X3945009Y-3014040D01*
X3945634Y-3013104D01*
X3947232Y-3010713D01*
X3949371Y-3007512D01*
X3949608Y-3006317D01*
X3951210Y-2998264D01*
X3951420Y-2997211D01*
X3951112Y-2995664D01*
X3950902Y-2993537D01*
X3950902Y-2968105D01*
X3952984Y-2961698D01*
X3954095Y-2960397D01*
X3976599Y-2937892D01*
X3982602Y-2934834D01*
X3984307Y-2934700D01*
X4162850Y-2934700D01*
X4169257Y-2936782D01*
X4170557Y-2937892D01*
X4259680Y-3027015D01*
X4261035Y-3028667D01*
X4261912Y-3029978D01*
X4270644Y-3035813D01*
X4278345Y-3037345D01*
X4278345Y-3037345D01*
X4278345Y-3037345D01*
X4279892Y-3037653D01*
X4279892Y-3037653D01*
X4280945Y-3037862D01*
X4282492Y-3037554D01*
X4284618Y-3037345D01*
X4334050Y-3037345D01*
X4340456Y-3039427D01*
X4341757Y-3040537D01*
X4346884Y-3045664D01*
X4349942Y-3051666D01*
X4348888Y-3058320D01*
X4346883Y-3061079D01*
X4321053Y-3086909D01*
X4315051Y-3089968D01*
X4308397Y-3088914D01*
X4303633Y-3084150D01*
X4301030Y-3079041D01*
X4301030Y-3079041D01*
X4300641Y-3078277D01*
X4291110Y-3068746D01*
X4290248Y-3068307D01*
X4286070Y-3066178D01*
X4279101Y-3062627D01*
X4278253Y-3062493D01*
X4278253Y-3062493D01*
X4266635Y-3060653D01*
X4265788Y-3060519D01*
X4264941Y-3060653D01*
X4253323Y-3062493D01*
X4253323Y-3062493D01*
X4252475Y-3062627D01*
X4245506Y-3066178D01*
X4241329Y-3068307D01*
X4240466Y-3068746D01*
X4230935Y-3078277D01*
X4230546Y-3079041D01*
X4230546Y-3079041D01*
X4229857Y-3080394D01*
X4224816Y-3090286D01*
X4224629Y-3091469D01*
X4224475Y-3091770D01*
X4224417Y-3091950D01*
X4224389Y-3091940D01*
X4221571Y-3097471D01*
X4215569Y-3100529D01*
X4215180Y-3100560D01*
X4214988Y-3100529D01*
X4214416Y-3100620D01*
X4214415Y-3100620D01*
X4202523Y-3102504D01*
X4202523Y-3102504D01*
X4201675Y-3102638D01*
X4189666Y-3108757D01*
X4180135Y-3118288D01*
X4179746Y-3119052D01*
X4179746Y-3119052D01*
X4179479Y-3119576D01*
X4174016Y-3130297D01*
X4173882Y-3131144D01*
X4173882Y-3131145D01*
X4172858Y-3137607D01*
X4171908Y-3143610D01*
X4172042Y-3144457D01*
X4173882Y-3156075D01*
X4173882Y-3156075D01*
X4174016Y-3156922D01*
X4177394Y-3163552D01*
X4179644Y-3167967D01*
X4180135Y-3168932D01*
X4187033Y-3175830D01*
X4190091Y-3181832D01*
X4189037Y-3188486D01*
X4184274Y-3193249D01*
X4174327Y-3198317D01*
X4174326Y-3198318D01*
X4173562Y-3198707D01*
X4164031Y-3208238D01*
X4157912Y-3220247D01*
X4157778Y-3221095D01*
X4157778Y-3221095D01*
X4156638Y-3228291D01*
X4155804Y-3233560D01*
X4155938Y-3234407D01*
X4157778Y-3246025D01*
X4157778Y-3246025D01*
X4157912Y-3246872D01*
X4164031Y-3258882D01*
X4173562Y-3268413D01*
X4173381Y-3268594D01*
X4176603Y-3273030D01*
X4176603Y-3279766D01*
X4172643Y-3285216D01*
X4171185Y-3286110D01*
X4170326Y-3286548D01*
X4170326Y-3286548D01*
X4169562Y-3286937D01*
X4160031Y-3296468D01*
X4159642Y-3297232D01*
X4159642Y-3297232D01*
X4159290Y-3297922D01*
X4153912Y-3308477D01*
X4153778Y-3309324D01*
X4153778Y-3309325D01*
X4152516Y-3317292D01*
X4151804Y-3321790D01*
X4151938Y-3322637D01*
X4153778Y-3334255D01*
X4153778Y-3334255D01*
X4153912Y-3335102D01*
X4160031Y-3347112D01*
X4169562Y-3356643D01*
X4170326Y-3357032D01*
X4170326Y-3357032D01*
X4172614Y-3358198D01*
X4181571Y-3362762D01*
X4182419Y-3362896D01*
X4182419Y-3362896D01*
X4194037Y-3364736D01*
X4194884Y-3364870D01*
X4195731Y-3364736D01*
X4207349Y-3362896D01*
X4207349Y-3362896D01*
X4208197Y-3362762D01*
X4217154Y-3358198D01*
X4219442Y-3357032D01*
X4219442Y-3357032D01*
X4220206Y-3356643D01*
X4229737Y-3347112D01*
X4235856Y-3335102D01*
X4235990Y-3334255D01*
X4235990Y-3334255D01*
X4237830Y-3322637D01*
X4237964Y-3321790D01*
X4238001Y-3321795D01*
X4239912Y-3315913D01*
X4241023Y-3314613D01*
X4260688Y-3294948D01*
X4262132Y-3293762D01*
X5016739Y-3293762D01*
X5018598Y-3307978D01*
X5024372Y-3321100D01*
X5024871Y-3321694D01*
X5024872Y-3321695D01*
X5032015Y-3330193D01*
X5033597Y-3332075D01*
X5045531Y-3340019D01*
X5046272Y-3340250D01*
X5058475Y-3344063D01*
X5058475Y-3344063D01*
X5059216Y-3344294D01*
X5066974Y-3344436D01*
X5072774Y-3344543D01*
X5072774Y-3344543D01*
X5073550Y-3344557D01*
X5087382Y-3340786D01*
X5099599Y-3333284D01*
X5100290Y-3332522D01*
X5107879Y-3324137D01*
X5109220Y-3322655D01*
X5115471Y-3309753D01*
X5115600Y-3308987D01*
X5115741Y-3308546D01*
X5119672Y-3303076D01*
X5126068Y-3300960D01*
X5132485Y-3303008D01*
X5134530Y-3305193D01*
X5134631Y-3305108D01*
X5142336Y-3314274D01*
X5143856Y-3316082D01*
X5155790Y-3324026D01*
X5156531Y-3324258D01*
X5168734Y-3328070D01*
X5168734Y-3328070D01*
X5169475Y-3328302D01*
X5177233Y-3328444D01*
X5183033Y-3328550D01*
X5183033Y-3328550D01*
X5183809Y-3328564D01*
X5197641Y-3324793D01*
X5209858Y-3317292D01*
X5219479Y-3306663D01*
X5225730Y-3293761D01*
X5227696Y-3282078D01*
X5282423Y-3282078D01*
X5284282Y-3296294D01*
X5290056Y-3309416D01*
X5290555Y-3310010D01*
X5290556Y-3310011D01*
X5298710Y-3319712D01*
X5299281Y-3320391D01*
X5311215Y-3328335D01*
X5311956Y-3328566D01*
X5324159Y-3332379D01*
X5324159Y-3332379D01*
X5324900Y-3332610D01*
X5332658Y-3332752D01*
X5338458Y-3332859D01*
X5338458Y-3332859D01*
X5339234Y-3332873D01*
X5353066Y-3329102D01*
X5365283Y-3321600D01*
X5374904Y-3310971D01*
X5381155Y-3298069D01*
X5382799Y-3288301D01*
X5383464Y-3284347D01*
X5383464Y-3284347D01*
X5383534Y-3283931D01*
X5383549Y-3282696D01*
X5381516Y-3268504D01*
X5375582Y-3255453D01*
X5366224Y-3244592D01*
X5354194Y-3236794D01*
X5352133Y-3236178D01*
X5341202Y-3232909D01*
X5341202Y-3232909D01*
X5340458Y-3232687D01*
X5333290Y-3232643D01*
X5326898Y-3232604D01*
X5326898Y-3232604D01*
X5326122Y-3232599D01*
X5325375Y-3232812D01*
X5325375Y-3232812D01*
X5313083Y-3236325D01*
X5313083Y-3236325D01*
X5312337Y-3236539D01*
X5311680Y-3236953D01*
X5301102Y-3243628D01*
X5300212Y-3244189D01*
X5290722Y-3254935D01*
X5290392Y-3255638D01*
X5290392Y-3255638D01*
X5284959Y-3267209D01*
X5284959Y-3267209D01*
X5284629Y-3267912D01*
X5284509Y-3268680D01*
X5282978Y-3278515D01*
X5282423Y-3282078D01*
X5227696Y-3282078D01*
X5228039Y-3280038D01*
X5228039Y-3280038D01*
X5228109Y-3279623D01*
X5228124Y-3278387D01*
X5226091Y-3264196D01*
X5220157Y-3251145D01*
X5210799Y-3240284D01*
X5198769Y-3232486D01*
X5192518Y-3230617D01*
X5186976Y-3226786D01*
X5184744Y-3220430D01*
X5186674Y-3213976D01*
X5190692Y-3210462D01*
X5196108Y-3207702D01*
X5196108Y-3207702D01*
X5196872Y-3207313D01*
X5206403Y-3197782D01*
X5212522Y-3185773D01*
X5212656Y-3184925D01*
X5212656Y-3184925D01*
X5214496Y-3173307D01*
X5214630Y-3172460D01*
X5214148Y-3169416D01*
X5212656Y-3159995D01*
X5212656Y-3159995D01*
X5212522Y-3159147D01*
X5206403Y-3147138D01*
X5196872Y-3137607D01*
X5184863Y-3131488D01*
X5184015Y-3131354D01*
X5184015Y-3131354D01*
X5172397Y-3129514D01*
X5171550Y-3129380D01*
X5170703Y-3129514D01*
X5159085Y-3131354D01*
X5159085Y-3131354D01*
X5158237Y-3131488D01*
X5146228Y-3137607D01*
X5136697Y-3147138D01*
X5130578Y-3159147D01*
X5130444Y-3159995D01*
X5130444Y-3159995D01*
X5128952Y-3169416D01*
X5128470Y-3172460D01*
X5128604Y-3173307D01*
X5130444Y-3184925D01*
X5130444Y-3184925D01*
X5130578Y-3185773D01*
X5136697Y-3197782D01*
X5146228Y-3207313D01*
X5146992Y-3207702D01*
X5146992Y-3207702D01*
X5148044Y-3208238D01*
X5156787Y-3212693D01*
X5157074Y-3212839D01*
X5161838Y-3217603D01*
X5162891Y-3224256D01*
X5159833Y-3230259D01*
X5157011Y-3232202D01*
X5156912Y-3232230D01*
X5155989Y-3232812D01*
X5147103Y-3238419D01*
X5144787Y-3239880D01*
X5135297Y-3250626D01*
X5134967Y-3251329D01*
X5134967Y-3251329D01*
X5129633Y-3262689D01*
X5129204Y-3263604D01*
X5129113Y-3264188D01*
X5125298Y-3269637D01*
X5118928Y-3271830D01*
X5112486Y-3269861D01*
X5109921Y-3267186D01*
X5109898Y-3267137D01*
X5109246Y-3266380D01*
X5101047Y-3256864D01*
X5100540Y-3256276D01*
X5088510Y-3248478D01*
X5085696Y-3247637D01*
X5075518Y-3244593D01*
X5075518Y-3244593D01*
X5074774Y-3244371D01*
X5067606Y-3244327D01*
X5061214Y-3244288D01*
X5061214Y-3244288D01*
X5060438Y-3244283D01*
X5059691Y-3244496D01*
X5059691Y-3244496D01*
X5047399Y-3248009D01*
X5047399Y-3248009D01*
X5046653Y-3248223D01*
X5045996Y-3248637D01*
X5036015Y-3254935D01*
X5034528Y-3255873D01*
X5025038Y-3266619D01*
X5024708Y-3267322D01*
X5024708Y-3267322D01*
X5019275Y-3278893D01*
X5019275Y-3278893D01*
X5018945Y-3279596D01*
X5018825Y-3280364D01*
X5017016Y-3291985D01*
X5016739Y-3293762D01*
X4262132Y-3293762D01*
X4262339Y-3293592D01*
X4262854Y-3293249D01*
X4262854Y-3293248D01*
X4263747Y-3292652D01*
X4265676Y-3289765D01*
X4269836Y-3283539D01*
X4270156Y-3281931D01*
X4271434Y-3275503D01*
X4271434Y-3275503D01*
X4271434Y-3275502D01*
X4271434Y-3275502D01*
X4271974Y-3272790D01*
X4271644Y-3271129D01*
X4271434Y-3269003D01*
X4271434Y-3262502D01*
X4273516Y-3256095D01*
X4274627Y-3254795D01*
X4337259Y-3192162D01*
X4879579Y-3192162D01*
X4881438Y-3206378D01*
X4887212Y-3219500D01*
X4887711Y-3220094D01*
X4887712Y-3220095D01*
X4894580Y-3228266D01*
X4896437Y-3230475D01*
X4908371Y-3238419D01*
X4909112Y-3238650D01*
X4921315Y-3242463D01*
X4921315Y-3242463D01*
X4922056Y-3242694D01*
X4929814Y-3242836D01*
X4935614Y-3242943D01*
X4935614Y-3242943D01*
X4936390Y-3242957D01*
X4950222Y-3239186D01*
X4962439Y-3231684D01*
X4963730Y-3230259D01*
X4971539Y-3221631D01*
X4972060Y-3221055D01*
X4978311Y-3208153D01*
X4980276Y-3196474D01*
X4980620Y-3194431D01*
X4980620Y-3194431D01*
X4980690Y-3194015D01*
X4980705Y-3192780D01*
X4978672Y-3178588D01*
X4972738Y-3165537D01*
X4963380Y-3154676D01*
X4951350Y-3146878D01*
X4948624Y-3146063D01*
X4938358Y-3142993D01*
X4938358Y-3142993D01*
X4937614Y-3142771D01*
X4930446Y-3142727D01*
X4924054Y-3142688D01*
X4924054Y-3142688D01*
X4923278Y-3142683D01*
X4922531Y-3142896D01*
X4922531Y-3142896D01*
X4910239Y-3146409D01*
X4910239Y-3146409D01*
X4909493Y-3146623D01*
X4908836Y-3147037D01*
X4906250Y-3148669D01*
X4897368Y-3154273D01*
X4887878Y-3165019D01*
X4887548Y-3165722D01*
X4887548Y-3165722D01*
X4882115Y-3177293D01*
X4882115Y-3177293D01*
X4881785Y-3177996D01*
X4881665Y-3178764D01*
X4879752Y-3191050D01*
X4879579Y-3192162D01*
X4337259Y-3192162D01*
X4401112Y-3128310D01*
X5347420Y-3128310D01*
X5347554Y-3129157D01*
X5349394Y-3140775D01*
X5349394Y-3140775D01*
X5349528Y-3141623D01*
X5355647Y-3153632D01*
X5365178Y-3163163D01*
X5365942Y-3163552D01*
X5365942Y-3163552D01*
X5367678Y-3164437D01*
X5377187Y-3169282D01*
X5378035Y-3169416D01*
X5378035Y-3169416D01*
X5389653Y-3171256D01*
X5390500Y-3171390D01*
X5391347Y-3171256D01*
X5402965Y-3169416D01*
X5402965Y-3169416D01*
X5403813Y-3169282D01*
X5413322Y-3164437D01*
X5415058Y-3163552D01*
X5415058Y-3163552D01*
X5415822Y-3163163D01*
X5425353Y-3153632D01*
X5431472Y-3141623D01*
X5431606Y-3140775D01*
X5431606Y-3140775D01*
X5433446Y-3129157D01*
X5433580Y-3128310D01*
X5433005Y-3124677D01*
X5431606Y-3115845D01*
X5431606Y-3115845D01*
X5431472Y-3114997D01*
X5425353Y-3102988D01*
X5415822Y-3093457D01*
X5403813Y-3087338D01*
X5402965Y-3087204D01*
X5402965Y-3087204D01*
X5391347Y-3085364D01*
X5390500Y-3085230D01*
X5389653Y-3085364D01*
X5378035Y-3087204D01*
X5378035Y-3087204D01*
X5377187Y-3087338D01*
X5365178Y-3093457D01*
X5355647Y-3102988D01*
X5349528Y-3114997D01*
X5349394Y-3115845D01*
X5349394Y-3115845D01*
X5347995Y-3124677D01*
X5347420Y-3128310D01*
X4401112Y-3128310D01*
X4430001Y-3099421D01*
X4436003Y-3096362D01*
X4442657Y-3097416D01*
X4447420Y-3102179D01*
X4447858Y-3103038D01*
X4447858Y-3103038D01*
X4448247Y-3103802D01*
X4457778Y-3113333D01*
X4458542Y-3113722D01*
X4458542Y-3113722D01*
X4459545Y-3114233D01*
X4469787Y-3119452D01*
X4470635Y-3119586D01*
X4470635Y-3119586D01*
X4482253Y-3121426D01*
X4483100Y-3121560D01*
X4483947Y-3121426D01*
X4495565Y-3119586D01*
X4495565Y-3119586D01*
X4496413Y-3119452D01*
X4506656Y-3114233D01*
X4507658Y-3113722D01*
X4507658Y-3113722D01*
X4508422Y-3113333D01*
X4517953Y-3103802D01*
X4518342Y-3103038D01*
X4518342Y-3103038D01*
X4519121Y-3101509D01*
X4523885Y-3096745D01*
X4530538Y-3095691D01*
X4540634Y-3097290D01*
X4541481Y-3097156D01*
X4553099Y-3095316D01*
X4553099Y-3095316D01*
X4553947Y-3095182D01*
X4563555Y-3090286D01*
X4565192Y-3089452D01*
X4565192Y-3089452D01*
X4565956Y-3089063D01*
X4575487Y-3079532D01*
X4579906Y-3070860D01*
X5801068Y-3070860D01*
X5801202Y-3071707D01*
X5803042Y-3083325D01*
X5803042Y-3083325D01*
X5803177Y-3084173D01*
X5805867Y-3089452D01*
X5808588Y-3094792D01*
X5809296Y-3096182D01*
X5818826Y-3105713D01*
X5819590Y-3106102D01*
X5819590Y-3106102D01*
X5821583Y-3107117D01*
X5830836Y-3111832D01*
X5831683Y-3111966D01*
X5831683Y-3111966D01*
X5843301Y-3113806D01*
X5844148Y-3113940D01*
X5844996Y-3113806D01*
X5856613Y-3111966D01*
X5856614Y-3111966D01*
X5857461Y-3111832D01*
X5866714Y-3107117D01*
X5868706Y-3106102D01*
X5868707Y-3106102D01*
X5869470Y-3105713D01*
X5879001Y-3096182D01*
X5879709Y-3094792D01*
X5882430Y-3089452D01*
X5885120Y-3084173D01*
X5885255Y-3083325D01*
X5885255Y-3083325D01*
X5887095Y-3071707D01*
X5887229Y-3070860D01*
X5886821Y-3068287D01*
X5885255Y-3058395D01*
X5885255Y-3058395D01*
X5885120Y-3057547D01*
X5879001Y-3045538D01*
X5869470Y-3036007D01*
X5857461Y-3029888D01*
X5856614Y-3029754D01*
X5856613Y-3029754D01*
X5844996Y-3027914D01*
X5844148Y-3027780D01*
X5843301Y-3027914D01*
X5831683Y-3029754D01*
X5831683Y-3029754D01*
X5830836Y-3029888D01*
X5818826Y-3036007D01*
X5809296Y-3045538D01*
X5803177Y-3057547D01*
X5803042Y-3058395D01*
X5803042Y-3058395D01*
X5801476Y-3068287D01*
X5801068Y-3070860D01*
X4579906Y-3070860D01*
X4581606Y-3067523D01*
X4581740Y-3066675D01*
X4581740Y-3066675D01*
X4583580Y-3055057D01*
X4583714Y-3054210D01*
X4583141Y-3050589D01*
X4581740Y-3041745D01*
X4581740Y-3041745D01*
X4581606Y-3040897D01*
X4576346Y-3030575D01*
X4575876Y-3029652D01*
X4575876Y-3029652D01*
X4575487Y-3028888D01*
X4565956Y-3019357D01*
X4564227Y-3018476D01*
X4559976Y-3016310D01*
X4553947Y-3013238D01*
X4544561Y-3011752D01*
X4542476Y-3011421D01*
X4536474Y-3008363D01*
X4533415Y-3002361D01*
X4534469Y-2995707D01*
X4536474Y-2992948D01*
X4552279Y-2977142D01*
X4558282Y-2974084D01*
X4559987Y-2973950D01*
X4656073Y-2973950D01*
X4662480Y-2976032D01*
X4666440Y-2981482D01*
X4666839Y-2986555D01*
X4666080Y-2991350D01*
X4666214Y-2992197D01*
X4668054Y-3003815D01*
X4668054Y-3003815D01*
X4668188Y-3004663D01*
X4671469Y-3011102D01*
X4673321Y-3014736D01*
X4674307Y-3016672D01*
X4683838Y-3026203D01*
X4684602Y-3026592D01*
X4684602Y-3026592D01*
X4685339Y-3026967D01*
X4695847Y-3032322D01*
X4703195Y-3033486D01*
X4708090Y-3034261D01*
X4714092Y-3037319D01*
X4716094Y-3040586D01*
X4716238Y-3040513D01*
X4722357Y-3052523D01*
X4731888Y-3062053D01*
X4732652Y-3062443D01*
X4732652Y-3062443D01*
X4734190Y-3063226D01*
X4743897Y-3068172D01*
X4744744Y-3068307D01*
X4744745Y-3068307D01*
X4756362Y-3070147D01*
X4757210Y-3070281D01*
X4758057Y-3070147D01*
X4769675Y-3068307D01*
X4769675Y-3068307D01*
X4770522Y-3068172D01*
X4780229Y-3063226D01*
X4781768Y-3062443D01*
X4781768Y-3062443D01*
X4782532Y-3062053D01*
X4792063Y-3052523D01*
X4798182Y-3040513D01*
X4798316Y-3039666D01*
X4798316Y-3039666D01*
X4800156Y-3028048D01*
X4800290Y-3027201D01*
X4799797Y-3024085D01*
X4798316Y-3014736D01*
X4798316Y-3014735D01*
X4798182Y-3013888D01*
X4793119Y-3003952D01*
X4792452Y-3002643D01*
X4792452Y-3002642D01*
X4792063Y-3001879D01*
X4782741Y-2992557D01*
X4779683Y-2986555D01*
X4780737Y-2979901D01*
X4785500Y-2975138D01*
X4790449Y-2973950D01*
X5134327Y-2973950D01*
X5140734Y-2976032D01*
X5144693Y-2981482D01*
X5144693Y-2988218D01*
X5144039Y-2989798D01*
X5143839Y-2990191D01*
X5143168Y-2991507D01*
X5143034Y-2992355D01*
X5143034Y-2992355D01*
X5141997Y-2998902D01*
X5141060Y-3004820D01*
X5141194Y-3005667D01*
X5143034Y-3017285D01*
X5143034Y-3017285D01*
X5143168Y-3018133D01*
X5146483Y-3024639D01*
X5148132Y-3027875D01*
X5149287Y-3030142D01*
X5158818Y-3039673D01*
X5159582Y-3040062D01*
X5159582Y-3040062D01*
X5160611Y-3040586D01*
X5170827Y-3045792D01*
X5171675Y-3045926D01*
X5171675Y-3045926D01*
X5183293Y-3047766D01*
X5184140Y-3047900D01*
X5184987Y-3047766D01*
X5196605Y-3045926D01*
X5196605Y-3045926D01*
X5197453Y-3045792D01*
X5207669Y-3040586D01*
X5208698Y-3040062D01*
X5208698Y-3040062D01*
X5209462Y-3039673D01*
X5218993Y-3030142D01*
X5220148Y-3027875D01*
X5221797Y-3024639D01*
X5224130Y-3020060D01*
X6045300Y-3020060D01*
X6045434Y-3020907D01*
X6047274Y-3032525D01*
X6047274Y-3032525D01*
X6047408Y-3033373D01*
X6053527Y-3045382D01*
X6063058Y-3054913D01*
X6075067Y-3061032D01*
X6075915Y-3061166D01*
X6075915Y-3061166D01*
X6087533Y-3063006D01*
X6088380Y-3063140D01*
X6089227Y-3063006D01*
X6100845Y-3061166D01*
X6100845Y-3061166D01*
X6101693Y-3061032D01*
X6113702Y-3054913D01*
X6123233Y-3045382D01*
X6129352Y-3033373D01*
X6129486Y-3032525D01*
X6129486Y-3032525D01*
X6131326Y-3020907D01*
X6131460Y-3020060D01*
X6130446Y-3013656D01*
X6129486Y-3007595D01*
X6129486Y-3007595D01*
X6129352Y-3006747D01*
X6123233Y-2994738D01*
X6113702Y-2985207D01*
X6111569Y-2984120D01*
X6108317Y-2982463D01*
X6101693Y-2979088D01*
X6100845Y-2978954D01*
X6100845Y-2978954D01*
X6089227Y-2977114D01*
X6088380Y-2976980D01*
X6087533Y-2977114D01*
X6075915Y-2978954D01*
X6075915Y-2978954D01*
X6075067Y-2979088D01*
X6068443Y-2982463D01*
X6065191Y-2984120D01*
X6063058Y-2985207D01*
X6053527Y-2994738D01*
X6047408Y-3006747D01*
X6047274Y-3007595D01*
X6047274Y-3007595D01*
X6046314Y-3013656D01*
X6045300Y-3020060D01*
X5224130Y-3020060D01*
X5225112Y-3018133D01*
X5225246Y-3017285D01*
X5225246Y-3017285D01*
X5227086Y-3005667D01*
X5227220Y-3004820D01*
X5226283Y-2998902D01*
X5225246Y-2992355D01*
X5225246Y-2992355D01*
X5225112Y-2991507D01*
X5220504Y-2982463D01*
X5219382Y-2980262D01*
X5219382Y-2980262D01*
X5218993Y-2979498D01*
X5215355Y-2975860D01*
X5355440Y-2975860D01*
X5355574Y-2976707D01*
X5357414Y-2988325D01*
X5357414Y-2988325D01*
X5357548Y-2989173D01*
X5363667Y-3001182D01*
X5373198Y-3010713D01*
X5373962Y-3011102D01*
X5373962Y-3011102D01*
X5374589Y-3011421D01*
X5385207Y-3016832D01*
X5386055Y-3016966D01*
X5386055Y-3016966D01*
X5397673Y-3018806D01*
X5398520Y-3018940D01*
X5399367Y-3018806D01*
X5410985Y-3016966D01*
X5410985Y-3016966D01*
X5411833Y-3016832D01*
X5422451Y-3011421D01*
X5423078Y-3011102D01*
X5423078Y-3011102D01*
X5423842Y-3010713D01*
X5433373Y-3001182D01*
X5439492Y-2989173D01*
X5439626Y-2988325D01*
X5439626Y-2988325D01*
X5441466Y-2976707D01*
X5441600Y-2975860D01*
X5441298Y-2973950D01*
X5439626Y-2963395D01*
X5439626Y-2963395D01*
X5439492Y-2962547D01*
X5433373Y-2950538D01*
X5423842Y-2941007D01*
X5423063Y-2940610D01*
X5418746Y-2938411D01*
X5411833Y-2934888D01*
X5410985Y-2934754D01*
X5410985Y-2934754D01*
X5399367Y-2932914D01*
X5398520Y-2932780D01*
X5397673Y-2932914D01*
X5386055Y-2934754D01*
X5386055Y-2934754D01*
X5385207Y-2934888D01*
X5378294Y-2938411D01*
X5373977Y-2940610D01*
X5373198Y-2941007D01*
X5363667Y-2950538D01*
X5357548Y-2962547D01*
X5357414Y-2963395D01*
X5357414Y-2963395D01*
X5355742Y-2973950D01*
X5355440Y-2975860D01*
X5215355Y-2975860D01*
X5209462Y-2969967D01*
X5197453Y-2963848D01*
X5196605Y-2963714D01*
X5196605Y-2963714D01*
X5184987Y-2961874D01*
X5184140Y-2961740D01*
X5183293Y-2961874D01*
X5182435Y-2961874D01*
X5182435Y-2961679D01*
X5176824Y-2960791D01*
X5172061Y-2956027D01*
X5171082Y-2948952D01*
X5171380Y-2947453D01*
X5171380Y-2947453D01*
X5171590Y-2946400D01*
X5171553Y-2946217D01*
X5173462Y-2940343D01*
X5178912Y-2936383D01*
X5182280Y-2935850D01*
X5204193Y-2935850D01*
X5204718Y-2935746D01*
X5204718Y-2935746D01*
X5209029Y-2934888D01*
X5212230Y-2934251D01*
X5221343Y-2928162D01*
X5227432Y-2919049D01*
X5227725Y-2917575D01*
X5228777Y-2912284D01*
X5232069Y-2906406D01*
X5238187Y-2903586D01*
X5239468Y-2903510D01*
X5783739Y-2903510D01*
X5790146Y-2905592D01*
X5794106Y-2911042D01*
X5794163Y-2917597D01*
X5793975Y-2918213D01*
X5793645Y-2918916D01*
X5792515Y-2926175D01*
X5791885Y-2930219D01*
X5791439Y-2933082D01*
X5793298Y-2947298D01*
X5799072Y-2960420D01*
X5799571Y-2961014D01*
X5799571Y-2961015D01*
X5807607Y-2970573D01*
X5808297Y-2971395D01*
X5820231Y-2979339D01*
X5820972Y-2979570D01*
X5833175Y-2983383D01*
X5833175Y-2983383D01*
X5833916Y-2983614D01*
X5841673Y-2983756D01*
X5847474Y-2983863D01*
X5847474Y-2983863D01*
X5848250Y-2983877D01*
X5862082Y-2980106D01*
X5874299Y-2972604D01*
X5883920Y-2961975D01*
X5890171Y-2949073D01*
X5892010Y-2938141D01*
X5892480Y-2935351D01*
X5892480Y-2935351D01*
X5892550Y-2934935D01*
X5892565Y-2933700D01*
X5890532Y-2919508D01*
X5890211Y-2918801D01*
X5889993Y-2918056D01*
X5890162Y-2918006D01*
X5889509Y-2912228D01*
X5892831Y-2906368D01*
X5898963Y-2903579D01*
X5900188Y-2903510D01*
X6464761Y-2903510D01*
X6471168Y-2905592D01*
X6475127Y-2911042D01*
X6475127Y-2917778D01*
X6474628Y-2919042D01*
X6472155Y-2924309D01*
X6472155Y-2924309D01*
X6471825Y-2925012D01*
X6471705Y-2925780D01*
X6469797Y-2938036D01*
X6469619Y-2939178D01*
X6471478Y-2953394D01*
X6477252Y-2966516D01*
X6477751Y-2967110D01*
X6477751Y-2967111D01*
X6485818Y-2976707D01*
X6486477Y-2977491D01*
X6498411Y-2985435D01*
X6499152Y-2985666D01*
X6511355Y-2989479D01*
X6511355Y-2989479D01*
X6512096Y-2989710D01*
X6519853Y-2989852D01*
X6525654Y-2989959D01*
X6525654Y-2989959D01*
X6526430Y-2989973D01*
X6540262Y-2986202D01*
X6552479Y-2978700D01*
X6562100Y-2968071D01*
X6568351Y-2955169D01*
X6570185Y-2944269D01*
X6570660Y-2941447D01*
X6570660Y-2941447D01*
X6570730Y-2941031D01*
X6570745Y-2939796D01*
X6568712Y-2925604D01*
X6568123Y-2924309D01*
X6565674Y-2918921D01*
X6564917Y-2912227D01*
X6568239Y-2906367D01*
X6574372Y-2903579D01*
X6575596Y-2903510D01*
X6592765Y-2903510D01*
X6594881Y-2903750D01*
X6595048Y-2903750D01*
X6596244Y-2904026D01*
X6597441Y-2903755D01*
X6598313Y-2903756D01*
X6599629Y-2903634D01*
X6638670Y-2905076D01*
X6639471Y-2905135D01*
X6681230Y-2909780D01*
X6682024Y-2909898D01*
X6723328Y-2917612D01*
X6724110Y-2917788D01*
X6764731Y-2928528D01*
X6765500Y-2928762D01*
X6783386Y-2934935D01*
X6805217Y-2942470D01*
X6805967Y-2942760D01*
X6844564Y-2959361D01*
X6845290Y-2959705D01*
X6882558Y-2979109D01*
X6883257Y-2979506D01*
X6901228Y-2990621D01*
X6918991Y-3001607D01*
X6919659Y-3002055D01*
X6927276Y-3007582D01*
X6953665Y-3026731D01*
X6954297Y-3027227D01*
X6986344Y-3054306D01*
X6986390Y-3054345D01*
X6986983Y-3054886D01*
X7016989Y-3084299D01*
X7017541Y-3084883D01*
X7045294Y-3116429D01*
X7045802Y-3117053D01*
X7067136Y-3145253D01*
X7069211Y-3150139D01*
X7075905Y-3192803D01*
X7076098Y-3194034D01*
X7076230Y-3195724D01*
X7076230Y-3877641D01*
X7076059Y-3879566D01*
X7070139Y-3912548D01*
X7069388Y-3916731D01*
X7067353Y-3921381D01*
X7045802Y-3949868D01*
X7045293Y-3950491D01*
X7042059Y-3954167D01*
X7017541Y-3982037D01*
X7016989Y-3982620D01*
X6986983Y-4012034D01*
X6986390Y-4012574D01*
X6957600Y-4036902D01*
X6954298Y-4039693D01*
X6953665Y-4040189D01*
X6931983Y-4055922D01*
X6919659Y-4064865D01*
X6918991Y-4065313D01*
X6912214Y-4069505D01*
X6883407Y-4087321D01*
X6883257Y-4087413D01*
X6882558Y-4087811D01*
X6859182Y-4099981D01*
X6858121Y-4100534D01*
X6851477Y-4101646D01*
X6845448Y-4098641D01*
X6842337Y-4092666D01*
X6843332Y-4086003D01*
X6844105Y-4084730D01*
X6844593Y-4084242D01*
X6850712Y-4072233D01*
X6850846Y-4071385D01*
X6850846Y-4071385D01*
X6852686Y-4059767D01*
X6852820Y-4058920D01*
X6852589Y-4057459D01*
X6850846Y-4046455D01*
X6850846Y-4046455D01*
X6850712Y-4045607D01*
X6845032Y-4034460D01*
X6844982Y-4034362D01*
X6844982Y-4034362D01*
X6844593Y-4033598D01*
X6835062Y-4024067D01*
X6833302Y-4023170D01*
X6828842Y-4020898D01*
X6823053Y-4017948D01*
X6822205Y-4017814D01*
X6822205Y-4017814D01*
X6810587Y-4015974D01*
X6809740Y-4015840D01*
X6808893Y-4015974D01*
X6797275Y-4017814D01*
X6797275Y-4017814D01*
X6796427Y-4017948D01*
X6795663Y-4018338D01*
X6795663Y-4018338D01*
X6794874Y-4018739D01*
X6788221Y-4019793D01*
X6782219Y-4016734D01*
X6779160Y-4010732D01*
X6779157Y-4010684D01*
X6779160Y-4010660D01*
X6778490Y-4006428D01*
X6777186Y-3998195D01*
X6777186Y-3998195D01*
X6777052Y-3997347D01*
X6770933Y-3985338D01*
X6761402Y-3975807D01*
X6760251Y-3975221D01*
X6758040Y-3974094D01*
X6749393Y-3969688D01*
X6748545Y-3969554D01*
X6748545Y-3969554D01*
X6736927Y-3967714D01*
X6736080Y-3967580D01*
X6735233Y-3967714D01*
X6723615Y-3969554D01*
X6723615Y-3969554D01*
X6722767Y-3969688D01*
X6714120Y-3974094D01*
X6711909Y-3975221D01*
X6710758Y-3975807D01*
X6701227Y-3985338D01*
X6695108Y-3997347D01*
X6694974Y-3998195D01*
X6694974Y-3998195D01*
X6693670Y-4006428D01*
X6693000Y-4010660D01*
X6693134Y-4011507D01*
X6694974Y-4023125D01*
X6694974Y-4023125D01*
X6695108Y-4023973D01*
X6701227Y-4035982D01*
X6710758Y-4045513D01*
X6711522Y-4045902D01*
X6711522Y-4045902D01*
X6713798Y-4047062D01*
X6722767Y-4051632D01*
X6723192Y-4051699D01*
X6728466Y-4055531D01*
X6730548Y-4061938D01*
X6728467Y-4068345D01*
X6724597Y-4071650D01*
X6716968Y-4075537D01*
X6713298Y-4077407D01*
X6703767Y-4086938D01*
X6703378Y-4087702D01*
X6703378Y-4087702D01*
X6698955Y-4096382D01*
X6694192Y-4101145D01*
X6687538Y-4102199D01*
X6681536Y-4099141D01*
X6680122Y-4097727D01*
X6678278Y-4096787D01*
X6676760Y-4096014D01*
X6668113Y-4091608D01*
X6660228Y-4090359D01*
X6654226Y-4087301D01*
X6651168Y-4081299D01*
X6651168Y-4077888D01*
X6652026Y-4072467D01*
X6652160Y-4071620D01*
X6651766Y-4069128D01*
X6650186Y-4059155D01*
X6650186Y-4059155D01*
X6650052Y-4058307D01*
X6643933Y-4046298D01*
X6634402Y-4036767D01*
X6633167Y-4036138D01*
X6631040Y-4035054D01*
X6622393Y-4030648D01*
X6621545Y-4030514D01*
X6621545Y-4030514D01*
X6609927Y-4028674D01*
X6609080Y-4028540D01*
X6608233Y-4028674D01*
X6596615Y-4030514D01*
X6596615Y-4030514D01*
X6595767Y-4030648D01*
X6587120Y-4035054D01*
X6584993Y-4036138D01*
X6583758Y-4036767D01*
X6574227Y-4046298D01*
X6568108Y-4058307D01*
X6567974Y-4059155D01*
X6567974Y-4059155D01*
X6566394Y-4069128D01*
X6566000Y-4071620D01*
X6566134Y-4072467D01*
X6567974Y-4084085D01*
X6567974Y-4084085D01*
X6568108Y-4084933D01*
X6574227Y-4096942D01*
X6583758Y-4106473D01*
X6595767Y-4112592D01*
X6603652Y-4113841D01*
X6609654Y-4116899D01*
X6612712Y-4122901D01*
X6612712Y-4126311D01*
X6612134Y-4129962D01*
X6611720Y-4132580D01*
X6611854Y-4133427D01*
X6613694Y-4145045D01*
X6613694Y-4145045D01*
X6613828Y-4145893D01*
X6614218Y-4146657D01*
X6614218Y-4146658D01*
X6614514Y-4147239D01*
X6615568Y-4153893D01*
X6612509Y-4159895D01*
X6606507Y-4162953D01*
X6605205Y-4163080D01*
X6603472Y-4163144D01*
X6599683Y-4163284D01*
X6598491Y-4163171D01*
X6597512Y-4163169D01*
X6596316Y-4162894D01*
X6595119Y-4163165D01*
X6595011Y-4163165D01*
X6592820Y-4163410D01*
X6394104Y-4163410D01*
X6387697Y-4161328D01*
X6383737Y-4155878D01*
X6383737Y-4149142D01*
X6387697Y-4143692D01*
X6389155Y-4142798D01*
X6394878Y-4139882D01*
X6394878Y-4139882D01*
X6395642Y-4139493D01*
X6405173Y-4129962D01*
X6411292Y-4117953D01*
X6411426Y-4117105D01*
X6411426Y-4117105D01*
X6413266Y-4105487D01*
X6413400Y-4104640D01*
X6412982Y-4102000D01*
X6411426Y-4092175D01*
X6411426Y-4092175D01*
X6411292Y-4091327D01*
X6406182Y-4081299D01*
X6405562Y-4080082D01*
X6405562Y-4080082D01*
X6405173Y-4079318D01*
X6395642Y-4069787D01*
X6394450Y-4069180D01*
X6389972Y-4066898D01*
X6387213Y-4064894D01*
X6335451Y-4013132D01*
X6335450Y-4013131D01*
X6333194Y-4010875D01*
X6331115Y-4009815D01*
X6329657Y-4008922D01*
X6327769Y-4007550D01*
X6325549Y-4006829D01*
X6323970Y-4006175D01*
X6321890Y-4005115D01*
X6319585Y-4004750D01*
X6317922Y-4004351D01*
X6316519Y-4003895D01*
X6316519Y-4003895D01*
X6315703Y-4003630D01*
X6232548Y-4003630D01*
X6232548Y-4003630D01*
X6229357Y-4003630D01*
X6228541Y-4003895D01*
X6228541Y-4003895D01*
X6227138Y-4004351D01*
X6225475Y-4004750D01*
X6224017Y-4004981D01*
X6224016Y-4004981D01*
X6223170Y-4005115D01*
X6221782Y-4005822D01*
X6221090Y-4006175D01*
X6219510Y-4006829D01*
X6217291Y-4007550D01*
X6215865Y-4008586D01*
X6215403Y-4008922D01*
X6213945Y-4009815D01*
X6211866Y-4010875D01*
X6209609Y-4013132D01*
X6154352Y-4068389D01*
X6154351Y-4068389D01*
X6152095Y-4070646D01*
X6151036Y-4072725D01*
X6150142Y-4074183D01*
X6148770Y-4076071D01*
X6148505Y-4076887D01*
X6148049Y-4078291D01*
X6147395Y-4079870D01*
X6146335Y-4081950D01*
X6145970Y-4084255D01*
X6145571Y-4085917D01*
X6144850Y-4088137D01*
X6144850Y-4112598D01*
X6144317Y-4115964D01*
X6143928Y-4116727D01*
X6141820Y-4130040D01*
X6141954Y-4130887D01*
X6143794Y-4142505D01*
X6143794Y-4142505D01*
X6143928Y-4143353D01*
X6144318Y-4144117D01*
X6144318Y-4144117D01*
X6146073Y-4147562D01*
X6147126Y-4154215D01*
X6144068Y-4160217D01*
X6138066Y-4163276D01*
X6136361Y-4163410D01*
X5714780Y-4163410D01*
X5708373Y-4161328D01*
X5704413Y-4155878D01*
X5704413Y-4149142D01*
X5707072Y-4144802D01*
X5716453Y-4135422D01*
X5722572Y-4123413D01*
X5722706Y-4122565D01*
X5722706Y-4122565D01*
X5724546Y-4110947D01*
X5724680Y-4110100D01*
X5723816Y-4104640D01*
X5722706Y-4097635D01*
X5722706Y-4097635D01*
X5722572Y-4096787D01*
X5718601Y-4088994D01*
X5717885Y-4087590D01*
X5716832Y-4080936D01*
X5719890Y-4074934D01*
X5722649Y-4072929D01*
X5725842Y-4071302D01*
X5725842Y-4071302D01*
X5726606Y-4070913D01*
X5736137Y-4061382D01*
X5742256Y-4049373D01*
X5742390Y-4048525D01*
X5742390Y-4048525D01*
X5742755Y-4046220D01*
X5824320Y-4046220D01*
X5824454Y-4047067D01*
X5826294Y-4058685D01*
X5826294Y-4058685D01*
X5826428Y-4059533D01*
X5829160Y-4064894D01*
X5832091Y-4070646D01*
X5832547Y-4071542D01*
X5842078Y-4081073D01*
X5854087Y-4087192D01*
X5854935Y-4087326D01*
X5854935Y-4087326D01*
X5866553Y-4089166D01*
X5867400Y-4089300D01*
X5868247Y-4089166D01*
X5879865Y-4087326D01*
X5879865Y-4087326D01*
X5880713Y-4087192D01*
X5892722Y-4081073D01*
X5902253Y-4071542D01*
X5902709Y-4070646D01*
X5905640Y-4064894D01*
X5908372Y-4059533D01*
X5908506Y-4058685D01*
X5908506Y-4058685D01*
X5910346Y-4047067D01*
X5910480Y-4046220D01*
X5910262Y-4044843D01*
X5908506Y-4033755D01*
X5908506Y-4033755D01*
X5908372Y-4032907D01*
X5903627Y-4023595D01*
X5902642Y-4021662D01*
X5902642Y-4021662D01*
X5902253Y-4020898D01*
X5892722Y-4011367D01*
X5891487Y-4010738D01*
X5887870Y-4008895D01*
X5880713Y-4005248D01*
X5879865Y-4005114D01*
X5879865Y-4005114D01*
X5868247Y-4003274D01*
X5867400Y-4003140D01*
X5866553Y-4003274D01*
X5854935Y-4005114D01*
X5854935Y-4005114D01*
X5854087Y-4005248D01*
X5846930Y-4008895D01*
X5843313Y-4010738D01*
X5842078Y-4011367D01*
X5832547Y-4020898D01*
X5832158Y-4021662D01*
X5832158Y-4021662D01*
X5831173Y-4023595D01*
X5826428Y-4032907D01*
X5826294Y-4033755D01*
X5826294Y-4033755D01*
X5824538Y-4044843D01*
X5824320Y-4046220D01*
X5742755Y-4046220D01*
X5744230Y-4036907D01*
X5744364Y-4036060D01*
X5743587Y-4031150D01*
X5742390Y-4023595D01*
X5742390Y-4023595D01*
X5742256Y-4022747D01*
X5737356Y-4013132D01*
X5736526Y-4011502D01*
X5736526Y-4011502D01*
X5736137Y-4010738D01*
X5726606Y-4001207D01*
X5714597Y-3995088D01*
X5713749Y-3994954D01*
X5713749Y-3994954D01*
X5702131Y-3993114D01*
X5701284Y-3992980D01*
X5700437Y-3993114D01*
X5688819Y-3994954D01*
X5688819Y-3994954D01*
X5687971Y-3995088D01*
X5675962Y-4001207D01*
X5671852Y-4005317D01*
X5665849Y-4008376D01*
X5664144Y-4008510D01*
X5311827Y-4008510D01*
X5305420Y-4006428D01*
X5304119Y-4005317D01*
X5266282Y-3967480D01*
X6103720Y-3967480D01*
X6103854Y-3968327D01*
X6105694Y-3979945D01*
X6105694Y-3979945D01*
X6105828Y-3980793D01*
X6111947Y-3992802D01*
X6121478Y-4002333D01*
X6133487Y-4008452D01*
X6134335Y-4008586D01*
X6134335Y-4008586D01*
X6145953Y-4010426D01*
X6146800Y-4010560D01*
X6147647Y-4010426D01*
X6159265Y-4008586D01*
X6159265Y-4008586D01*
X6160113Y-4008452D01*
X6172122Y-4002333D01*
X6181653Y-3992802D01*
X6187772Y-3980793D01*
X6187906Y-3979945D01*
X6187906Y-3979945D01*
X6189746Y-3968327D01*
X6189880Y-3967480D01*
X6188950Y-3961607D01*
X6187906Y-3955015D01*
X6187906Y-3955015D01*
X6187772Y-3954167D01*
X6182668Y-3944150D01*
X6182042Y-3942922D01*
X6182042Y-3942922D01*
X6181653Y-3942158D01*
X6172122Y-3932627D01*
X6160113Y-3926508D01*
X6159265Y-3926374D01*
X6159265Y-3926374D01*
X6147647Y-3924534D01*
X6146800Y-3924400D01*
X6145953Y-3924534D01*
X6134335Y-3926374D01*
X6134335Y-3926374D01*
X6133487Y-3926508D01*
X6121478Y-3932627D01*
X6111947Y-3942158D01*
X6111558Y-3942922D01*
X6111558Y-3942922D01*
X6110932Y-3944150D01*
X6105828Y-3954167D01*
X6105694Y-3955015D01*
X6105694Y-3955015D01*
X6104650Y-3961607D01*
X6103720Y-3967480D01*
X5266282Y-3967480D01*
X5202128Y-3903327D01*
X5200773Y-3901675D01*
X5200429Y-3901160D01*
X5200429Y-3901160D01*
X5199832Y-3900268D01*
X5199556Y-3900083D01*
X5259082Y-3900083D01*
X5259217Y-3900930D01*
X5261057Y-3912548D01*
X5261057Y-3912548D01*
X5261191Y-3913395D01*
X5267310Y-3925405D01*
X5276841Y-3934936D01*
X5277605Y-3935325D01*
X5277605Y-3935325D01*
X5279676Y-3936380D01*
X5288850Y-3941055D01*
X5289698Y-3941189D01*
X5289698Y-3941189D01*
X5301316Y-3943029D01*
X5302163Y-3943163D01*
X5303010Y-3943029D01*
X5314628Y-3941189D01*
X5314628Y-3941189D01*
X5315475Y-3941055D01*
X5324650Y-3936380D01*
X5326721Y-3935325D01*
X5326721Y-3935325D01*
X5327485Y-3934936D01*
X5337016Y-3925405D01*
X5343135Y-3913395D01*
X5343269Y-3912548D01*
X5343269Y-3912548D01*
X5345109Y-3900930D01*
X5345243Y-3900083D01*
X5345062Y-3898938D01*
X5343269Y-3887618D01*
X5343269Y-3887617D01*
X5343135Y-3886770D01*
X5338483Y-3877641D01*
X5337405Y-3875525D01*
X5337405Y-3875525D01*
X5337016Y-3874761D01*
X5327485Y-3865230D01*
X5326387Y-3864671D01*
X5322712Y-3862798D01*
X5315475Y-3859111D01*
X5314628Y-3858977D01*
X5314628Y-3858977D01*
X5303010Y-3857137D01*
X5302163Y-3857002D01*
X5301316Y-3857137D01*
X5289698Y-3858977D01*
X5289698Y-3858977D01*
X5288850Y-3859111D01*
X5281613Y-3862798D01*
X5277939Y-3864671D01*
X5276841Y-3865230D01*
X5267310Y-3874761D01*
X5266921Y-3875525D01*
X5266921Y-3875525D01*
X5265843Y-3877641D01*
X5261191Y-3886770D01*
X5261057Y-3887617D01*
X5261057Y-3887618D01*
X5259264Y-3898938D01*
X5259082Y-3900083D01*
X5199556Y-3900083D01*
X5197532Y-3898731D01*
X5197532Y-3898730D01*
X5194147Y-3896468D01*
X5194147Y-3896468D01*
X5190720Y-3894178D01*
X5182683Y-3892580D01*
X5182683Y-3892580D01*
X5182683Y-3892580D01*
X5181023Y-3892250D01*
X5181023Y-3892250D01*
X5179970Y-3892040D01*
X5178917Y-3892250D01*
X5178310Y-3892371D01*
X5176183Y-3892580D01*
X4735950Y-3892580D01*
X4729543Y-3890498D01*
X4725584Y-3885048D01*
X4725584Y-3878312D01*
X4728243Y-3873972D01*
X4737545Y-3864671D01*
X4755308Y-3846908D01*
X4761310Y-3843849D01*
X4767964Y-3844903D01*
X4770723Y-3846908D01*
X4780084Y-3856269D01*
X4780848Y-3856658D01*
X4780848Y-3856659D01*
X4783446Y-3857982D01*
X4792094Y-3862388D01*
X4792941Y-3862523D01*
X4792941Y-3862523D01*
X4804559Y-3864363D01*
X4805406Y-3864497D01*
X4806253Y-3864363D01*
X4817871Y-3862523D01*
X4817871Y-3862523D01*
X4818719Y-3862388D01*
X4827366Y-3857982D01*
X4829964Y-3856659D01*
X4829964Y-3856658D01*
X4830728Y-3856269D01*
X4840259Y-3846738D01*
X4846378Y-3834729D01*
X4846512Y-3833882D01*
X4846512Y-3833881D01*
X4848352Y-3822264D01*
X4848487Y-3821416D01*
X4848145Y-3819259D01*
X4846588Y-3809428D01*
X5904723Y-3809428D01*
X5906582Y-3823644D01*
X5912356Y-3836766D01*
X5912855Y-3837360D01*
X5912855Y-3837361D01*
X5920738Y-3846738D01*
X5921581Y-3847741D01*
X5933515Y-3855685D01*
X5934256Y-3855916D01*
X5946459Y-3859729D01*
X5946459Y-3859729D01*
X5947200Y-3859960D01*
X5954957Y-3860102D01*
X5960758Y-3860209D01*
X5960758Y-3860209D01*
X5961534Y-3860223D01*
X5975366Y-3856452D01*
X5987583Y-3848950D01*
X5997204Y-3838321D01*
X6003455Y-3825419D01*
X6005001Y-3816230D01*
X6005764Y-3811697D01*
X6005764Y-3811697D01*
X6005834Y-3811281D01*
X6005849Y-3810046D01*
X6003816Y-3795854D01*
X5997882Y-3782803D01*
X5988524Y-3771942D01*
X5976493Y-3764144D01*
X5970502Y-3762353D01*
X5963502Y-3760259D01*
X5963502Y-3760259D01*
X5962758Y-3760037D01*
X5955590Y-3759993D01*
X5949198Y-3759954D01*
X5949198Y-3759954D01*
X5948422Y-3759949D01*
X5947675Y-3760162D01*
X5947675Y-3760162D01*
X5935383Y-3763675D01*
X5935383Y-3763675D01*
X5934637Y-3763889D01*
X5933980Y-3764303D01*
X5923873Y-3770680D01*
X5922512Y-3771539D01*
X5913022Y-3782285D01*
X5912692Y-3782988D01*
X5912692Y-3782988D01*
X5907259Y-3794559D01*
X5907259Y-3794559D01*
X5906929Y-3795262D01*
X5904723Y-3809428D01*
X4846588Y-3809428D01*
X4846512Y-3808951D01*
X4846512Y-3808951D01*
X4846378Y-3808104D01*
X4840259Y-3796094D01*
X4830897Y-3786733D01*
X4827839Y-3780731D01*
X4828893Y-3774077D01*
X4830897Y-3771318D01*
X4883527Y-3718688D01*
X4889529Y-3715630D01*
X4891234Y-3715496D01*
X5132310Y-3715496D01*
X5138717Y-3717578D01*
X5140654Y-3719382D01*
X5145773Y-3725473D01*
X5146881Y-3726791D01*
X5158815Y-3734735D01*
X5159556Y-3734966D01*
X5171759Y-3738779D01*
X5171759Y-3738779D01*
X5172500Y-3739010D01*
X5180258Y-3739152D01*
X5186058Y-3739259D01*
X5186058Y-3739259D01*
X5186834Y-3739273D01*
X5200666Y-3735502D01*
X5212883Y-3728000D01*
X5222504Y-3717371D01*
X5228755Y-3704469D01*
X5230301Y-3695280D01*
X5231064Y-3690747D01*
X5231064Y-3690747D01*
X5231134Y-3690331D01*
X5231149Y-3689096D01*
X5231060Y-3688478D01*
X5282423Y-3688478D01*
X5284282Y-3702694D01*
X5290056Y-3715816D01*
X5290555Y-3716410D01*
X5290556Y-3716411D01*
X5298173Y-3725473D01*
X5299281Y-3726791D01*
X5311215Y-3734735D01*
X5311956Y-3734966D01*
X5324159Y-3738779D01*
X5324159Y-3738779D01*
X5324900Y-3739010D01*
X5332658Y-3739152D01*
X5338458Y-3739259D01*
X5338458Y-3739259D01*
X5339234Y-3739273D01*
X5353066Y-3735502D01*
X5365283Y-3728000D01*
X5374904Y-3717371D01*
X5375472Y-3716199D01*
X5380768Y-3705269D01*
X5385435Y-3700410D01*
X5392066Y-3699223D01*
X5398128Y-3702161D01*
X5400289Y-3705073D01*
X5404766Y-3713859D01*
X5405827Y-3715942D01*
X5415358Y-3725473D01*
X5427367Y-3731592D01*
X5428215Y-3731726D01*
X5428215Y-3731726D01*
X5439833Y-3733566D01*
X5440680Y-3733700D01*
X5441527Y-3733566D01*
X5453145Y-3731726D01*
X5453145Y-3731726D01*
X5453993Y-3731592D01*
X5466002Y-3725473D01*
X5475533Y-3715942D01*
X5476594Y-3713859D01*
X5479426Y-3708300D01*
X5481652Y-3703933D01*
X5481786Y-3703085D01*
X5481786Y-3703085D01*
X5483626Y-3691467D01*
X5483760Y-3690620D01*
X5482226Y-3680931D01*
X5481786Y-3678155D01*
X5481786Y-3678155D01*
X5481652Y-3677307D01*
X5475533Y-3665298D01*
X5475455Y-3665220D01*
X5720180Y-3665220D01*
X5720314Y-3666067D01*
X5722154Y-3677685D01*
X5722154Y-3677685D01*
X5722288Y-3678533D01*
X5728407Y-3690542D01*
X5737938Y-3700073D01*
X5749947Y-3706192D01*
X5750795Y-3706326D01*
X5750795Y-3706326D01*
X5762413Y-3708166D01*
X5763260Y-3708300D01*
X5764107Y-3708166D01*
X5775725Y-3706326D01*
X5775725Y-3706326D01*
X5776573Y-3706192D01*
X5788582Y-3700073D01*
X5798113Y-3690542D01*
X5804232Y-3678533D01*
X5804366Y-3677685D01*
X5804631Y-3676869D01*
X5804886Y-3676952D01*
X5807359Y-3672099D01*
X5813361Y-3669041D01*
X5819476Y-3670010D01*
X5819487Y-3669977D01*
X5819695Y-3670045D01*
X5820015Y-3670096D01*
X5820303Y-3670242D01*
X5820303Y-3670242D01*
X5821067Y-3670632D01*
X5821915Y-3670766D01*
X5821915Y-3670766D01*
X5833533Y-3672606D01*
X5834380Y-3672740D01*
X5835227Y-3672606D01*
X5846845Y-3670766D01*
X5846845Y-3670766D01*
X5847693Y-3670632D01*
X5858161Y-3665298D01*
X5858938Y-3664902D01*
X5858938Y-3664902D01*
X5859702Y-3664513D01*
X5869233Y-3654982D01*
X5875352Y-3642973D01*
X5875486Y-3642125D01*
X5875486Y-3642125D01*
X5877326Y-3630507D01*
X5877460Y-3629660D01*
X5876844Y-3625771D01*
X5875486Y-3617195D01*
X5875486Y-3617195D01*
X5875352Y-3616347D01*
X5873269Y-3612260D01*
X6075400Y-3612260D01*
X6075534Y-3613107D01*
X6077374Y-3624725D01*
X6077374Y-3624725D01*
X6077508Y-3625573D01*
X6083627Y-3637582D01*
X6093158Y-3647113D01*
X6105167Y-3653232D01*
X6106015Y-3653366D01*
X6106015Y-3653366D01*
X6117633Y-3655206D01*
X6118480Y-3655340D01*
X6119327Y-3655206D01*
X6130945Y-3653366D01*
X6130945Y-3653366D01*
X6131793Y-3653232D01*
X6143802Y-3647113D01*
X6153333Y-3637582D01*
X6159452Y-3625573D01*
X6159586Y-3624725D01*
X6159586Y-3624725D01*
X6161426Y-3613107D01*
X6161560Y-3612260D01*
X6160965Y-3608499D01*
X6159586Y-3599795D01*
X6159586Y-3599795D01*
X6159452Y-3598947D01*
X6153333Y-3586938D01*
X6143802Y-3577407D01*
X6131793Y-3571288D01*
X6130945Y-3571154D01*
X6130945Y-3571154D01*
X6119327Y-3569314D01*
X6118480Y-3569180D01*
X6117633Y-3569314D01*
X6106015Y-3571154D01*
X6106015Y-3571154D01*
X6105167Y-3571288D01*
X6093158Y-3577407D01*
X6083627Y-3586938D01*
X6077508Y-3598947D01*
X6077374Y-3599795D01*
X6077374Y-3599795D01*
X6075995Y-3608499D01*
X6075400Y-3612260D01*
X5873269Y-3612260D01*
X5870586Y-3606994D01*
X5869622Y-3605102D01*
X5869622Y-3605102D01*
X5869233Y-3604338D01*
X5859702Y-3594807D01*
X5847693Y-3588688D01*
X5846845Y-3588554D01*
X5846845Y-3588554D01*
X5835227Y-3586714D01*
X5834380Y-3586580D01*
X5833533Y-3586714D01*
X5821915Y-3588554D01*
X5821915Y-3588554D01*
X5821067Y-3588688D01*
X5809058Y-3594807D01*
X5799527Y-3604338D01*
X5799138Y-3605102D01*
X5799138Y-3605102D01*
X5798174Y-3606994D01*
X5793408Y-3616347D01*
X5793274Y-3617195D01*
X5793009Y-3618010D01*
X5792754Y-3617928D01*
X5790281Y-3622781D01*
X5784278Y-3625839D01*
X5778164Y-3624870D01*
X5778153Y-3624903D01*
X5777945Y-3624835D01*
X5777625Y-3624784D01*
X5777337Y-3624638D01*
X5777337Y-3624637D01*
X5776573Y-3624248D01*
X5775725Y-3624114D01*
X5775725Y-3624114D01*
X5764107Y-3622274D01*
X5763260Y-3622140D01*
X5762413Y-3622274D01*
X5750795Y-3624114D01*
X5750795Y-3624114D01*
X5749947Y-3624248D01*
X5741300Y-3628654D01*
X5739326Y-3629660D01*
X5737938Y-3630367D01*
X5728407Y-3639898D01*
X5722288Y-3651907D01*
X5722154Y-3652755D01*
X5722154Y-3652755D01*
X5720713Y-3661853D01*
X5720180Y-3665220D01*
X5475455Y-3665220D01*
X5466002Y-3655767D01*
X5453993Y-3649648D01*
X5453145Y-3649514D01*
X5453145Y-3649514D01*
X5441527Y-3647674D01*
X5440680Y-3647540D01*
X5439833Y-3647674D01*
X5428215Y-3649514D01*
X5428215Y-3649514D01*
X5427367Y-3649648D01*
X5415358Y-3655767D01*
X5405827Y-3665298D01*
X5405438Y-3666062D01*
X5405438Y-3666062D01*
X5403308Y-3670242D01*
X5401166Y-3674447D01*
X5400943Y-3674884D01*
X5396179Y-3679647D01*
X5389526Y-3680701D01*
X5383523Y-3677643D01*
X5381308Y-3674447D01*
X5381195Y-3674197D01*
X5375582Y-3661853D01*
X5366224Y-3650992D01*
X5354194Y-3643194D01*
X5345725Y-3640662D01*
X5341202Y-3639309D01*
X5341202Y-3639309D01*
X5340458Y-3639087D01*
X5333290Y-3639043D01*
X5326898Y-3639004D01*
X5326898Y-3639004D01*
X5326122Y-3638999D01*
X5325375Y-3639212D01*
X5325375Y-3639212D01*
X5313083Y-3642725D01*
X5313083Y-3642725D01*
X5312337Y-3642939D01*
X5311680Y-3643353D01*
X5301086Y-3650038D01*
X5300212Y-3650589D01*
X5290722Y-3661335D01*
X5290392Y-3662038D01*
X5290392Y-3662038D01*
X5284959Y-3673609D01*
X5284959Y-3673609D01*
X5284629Y-3674312D01*
X5284509Y-3675080D01*
X5283634Y-3680701D01*
X5282423Y-3688478D01*
X5231060Y-3688478D01*
X5229116Y-3674904D01*
X5223182Y-3661853D01*
X5213824Y-3650992D01*
X5201794Y-3643194D01*
X5193325Y-3640662D01*
X5188802Y-3639309D01*
X5188802Y-3639309D01*
X5188058Y-3639087D01*
X5180890Y-3639043D01*
X5174498Y-3639004D01*
X5174498Y-3639004D01*
X5173722Y-3638999D01*
X5172975Y-3639212D01*
X5172975Y-3639212D01*
X5160683Y-3642725D01*
X5160683Y-3642725D01*
X5159937Y-3642939D01*
X5159280Y-3643353D01*
X5148686Y-3650038D01*
X5147812Y-3650589D01*
X5146648Y-3651907D01*
X5140374Y-3659011D01*
X5134572Y-3662436D01*
X5132204Y-3662696D01*
X4879458Y-3662696D01*
X4877332Y-3662487D01*
X4876837Y-3662388D01*
X4876837Y-3662388D01*
X4875784Y-3662179D01*
X4873184Y-3662696D01*
X4865483Y-3664228D01*
X4864591Y-3664824D01*
X4864591Y-3664824D01*
X4863881Y-3665298D01*
X4862884Y-3665964D01*
X4858955Y-3668590D01*
X4858955Y-3668590D01*
X4856751Y-3670063D01*
X4856154Y-3670955D01*
X4855875Y-3671374D01*
X4854519Y-3673026D01*
X4665857Y-3861687D01*
X4659855Y-3864746D01*
X4658150Y-3864880D01*
X4654207Y-3864880D01*
X4647800Y-3862798D01*
X4643841Y-3857348D01*
X4643841Y-3850612D01*
X4644495Y-3849032D01*
X4644718Y-3848593D01*
X4644718Y-3848593D01*
X4645108Y-3847829D01*
X4645242Y-3846981D01*
X4645242Y-3846981D01*
X4647082Y-3835363D01*
X4647216Y-3834516D01*
X4646660Y-3831006D01*
X4645242Y-3822051D01*
X4645242Y-3822051D01*
X4645108Y-3821203D01*
X4640411Y-3811985D01*
X4639378Y-3809958D01*
X4639378Y-3809958D01*
X4638989Y-3809194D01*
X4629458Y-3799663D01*
X4617449Y-3793544D01*
X4616601Y-3793410D01*
X4616601Y-3793410D01*
X4604983Y-3791570D01*
X4604136Y-3791436D01*
X4603289Y-3791570D01*
X4591671Y-3793410D01*
X4591671Y-3793410D01*
X4590823Y-3793544D01*
X4578814Y-3799663D01*
X4578208Y-3800269D01*
X4578207Y-3800270D01*
X4569550Y-3808927D01*
X4563548Y-3811985D01*
X4556895Y-3810931D01*
X4554135Y-3808927D01*
X4546188Y-3800980D01*
X4544795Y-3800270D01*
X4542826Y-3799267D01*
X4534179Y-3794861D01*
X4533332Y-3794726D01*
X4533331Y-3794726D01*
X4521714Y-3792886D01*
X4520866Y-3792752D01*
X4520019Y-3792886D01*
X4508401Y-3794726D01*
X4508401Y-3794726D01*
X4507554Y-3794861D01*
X4498906Y-3799267D01*
X4496938Y-3800270D01*
X4495544Y-3800980D01*
X4491277Y-3805247D01*
X4485274Y-3808305D01*
X4478621Y-3807251D01*
X4476790Y-3806318D01*
X4475944Y-3805888D01*
X4475944Y-3805888D01*
X4475180Y-3805498D01*
X4474333Y-3805364D01*
X4474332Y-3805364D01*
X4462715Y-3803524D01*
X4461867Y-3803390D01*
X4461020Y-3803524D01*
X4449402Y-3805364D01*
X4449402Y-3805364D01*
X4448555Y-3805498D01*
X4436545Y-3811617D01*
X4427015Y-3821148D01*
X4420895Y-3833158D01*
X4420761Y-3834005D01*
X4420761Y-3834005D01*
X4419673Y-3840873D01*
X4418787Y-3846470D01*
X4419443Y-3850612D01*
X4419706Y-3852275D01*
X4418653Y-3858928D01*
X4413889Y-3863692D01*
X4408941Y-3864880D01*
X4395333Y-3864880D01*
X4393207Y-3864671D01*
X4392713Y-3864572D01*
X4391660Y-3864363D01*
X4390607Y-3864572D01*
X4390607Y-3864572D01*
X4389061Y-3864880D01*
X4389060Y-3864880D01*
X4389060Y-3864880D01*
X4381359Y-3866412D01*
X4372627Y-3872247D01*
X4372030Y-3873139D01*
X4371750Y-3873558D01*
X4370395Y-3875210D01*
X4268910Y-3976695D01*
X4267258Y-3978050D01*
X4265947Y-3978927D01*
X4264474Y-3981131D01*
X4260112Y-3987659D01*
X4259241Y-3992038D01*
X4258661Y-3994954D01*
X4258063Y-3997960D01*
X4258272Y-3999013D01*
X4258272Y-3999013D01*
X4258371Y-3999507D01*
X4258580Y-4001634D01*
X4258580Y-4023170D01*
X4256498Y-4029577D01*
X4255388Y-4030878D01*
X4250127Y-4036138D01*
X4244008Y-4048147D01*
X4243874Y-4048995D01*
X4243874Y-4048995D01*
X4242533Y-4057459D01*
X4241900Y-4061460D01*
X4242034Y-4062307D01*
X4243874Y-4073925D01*
X4243874Y-4073925D01*
X4244008Y-4074773D01*
X4250127Y-4086782D01*
X4259658Y-4096313D01*
X4260422Y-4096702D01*
X4260422Y-4096702D01*
X4262434Y-4097727D01*
X4271667Y-4102432D01*
X4272515Y-4102566D01*
X4272515Y-4102566D01*
X4284133Y-4104406D01*
X4284980Y-4104540D01*
X4285827Y-4104406D01*
X4297445Y-4102566D01*
X4297445Y-4102566D01*
X4298293Y-4102432D01*
X4307526Y-4097727D01*
X4309538Y-4096702D01*
X4309538Y-4096702D01*
X4310302Y-4096313D01*
X4312602Y-4094013D01*
X4318604Y-4090954D01*
X4325258Y-4092008D01*
X4330022Y-4096772D01*
X4331118Y-4100307D01*
X4331845Y-4105866D01*
X4332798Y-4113158D01*
X4338572Y-4126280D01*
X4339071Y-4126874D01*
X4339072Y-4126875D01*
X4347298Y-4136661D01*
X4347797Y-4137255D01*
X4351159Y-4139493D01*
X4357083Y-4143436D01*
X4361263Y-4148719D01*
X4361539Y-4155450D01*
X4357807Y-4161058D01*
X4351044Y-4163410D01*
X3599795Y-4163410D01*
X3597679Y-4163170D01*
X3597512Y-4163169D01*
X3596316Y-4162894D01*
X3595118Y-4163165D01*
X3594185Y-4163164D01*
X3592936Y-4163279D01*
X3547282Y-4161485D01*
X3546429Y-4161418D01*
X3536288Y-4160217D01*
X3498160Y-4155705D01*
X3497316Y-4155571D01*
X3464993Y-4149142D01*
X3449641Y-4146088D01*
X3448809Y-4145888D01*
X3408049Y-4134393D01*
X3402027Y-4132694D01*
X3401213Y-4132430D01*
X3399323Y-4131733D01*
X3378412Y-4124018D01*
X3355611Y-4115606D01*
X3354820Y-4115279D01*
X3310677Y-4094929D01*
X3309915Y-4094540D01*
X3267505Y-4070790D01*
X3266776Y-4070342D01*
X3235527Y-4049463D01*
X3226360Y-4043338D01*
X3225668Y-4042835D01*
X3224965Y-4042281D01*
X3204142Y-4025865D01*
X3187497Y-4012743D01*
X3186846Y-4012187D01*
X3151153Y-3979193D01*
X3150547Y-3978587D01*
X3117553Y-3942894D01*
X3116997Y-3942243D01*
X3090217Y-3908273D01*
X3087147Y-3904378D01*
X3212323Y-3904378D01*
X3214182Y-3918594D01*
X3219956Y-3931716D01*
X3220455Y-3932310D01*
X3220455Y-3932311D01*
X3227478Y-3940665D01*
X3229181Y-3942691D01*
X3241115Y-3950635D01*
X3241856Y-3950866D01*
X3254059Y-3954679D01*
X3254059Y-3954679D01*
X3254800Y-3954910D01*
X3262557Y-3955052D01*
X3268358Y-3955159D01*
X3268358Y-3955159D01*
X3269134Y-3955173D01*
X3282966Y-3951402D01*
X3295183Y-3943900D01*
X3304804Y-3933271D01*
X3311055Y-3920369D01*
X3312902Y-3909390D01*
X3313364Y-3906647D01*
X3313364Y-3906647D01*
X3313434Y-3906231D01*
X3313449Y-3904996D01*
X3313396Y-3904628D01*
X3518139Y-3904628D01*
X3519998Y-3918844D01*
X3525772Y-3931966D01*
X3526271Y-3932560D01*
X3526271Y-3932561D01*
X3533829Y-3941552D01*
X3534997Y-3942941D01*
X3546931Y-3950885D01*
X3547672Y-3951116D01*
X3559875Y-3954929D01*
X3559875Y-3954929D01*
X3560616Y-3955160D01*
X3568373Y-3955302D01*
X3574174Y-3955409D01*
X3574174Y-3955409D01*
X3574950Y-3955423D01*
X3588782Y-3951652D01*
X3600999Y-3944150D01*
X3601931Y-3943121D01*
X3610099Y-3934097D01*
X3610620Y-3933521D01*
X3616871Y-3920619D01*
X3617438Y-3917246D01*
X3620554Y-3911273D01*
X3626586Y-3908273D01*
X3633229Y-3909390D01*
X3634227Y-3909981D01*
X3640474Y-3914139D01*
X3640475Y-3914140D01*
X3641121Y-3914570D01*
X3641862Y-3914801D01*
X3654064Y-3918613D01*
X3654064Y-3918613D01*
X3654805Y-3918845D01*
X3662563Y-3918987D01*
X3668364Y-3919094D01*
X3668364Y-3919094D01*
X3669140Y-3919108D01*
X3682971Y-3915337D01*
X3695189Y-3907835D01*
X3704810Y-3897206D01*
X3711061Y-3884304D01*
X3713439Y-3870166D01*
X3713454Y-3868931D01*
X3711422Y-3854739D01*
X3711119Y-3854074D01*
X3711319Y-3847361D01*
X3715438Y-3842031D01*
X3721904Y-3840140D01*
X3723323Y-3840276D01*
X3723958Y-3840379D01*
X3724700Y-3840610D01*
X3732457Y-3840752D01*
X3738258Y-3840859D01*
X3738258Y-3840859D01*
X3739034Y-3840873D01*
X3752866Y-3837102D01*
X3765083Y-3829600D01*
X3774704Y-3818971D01*
X3780955Y-3806069D01*
X3782997Y-3793933D01*
X3783264Y-3792347D01*
X3783264Y-3792347D01*
X3783334Y-3791931D01*
X3783349Y-3790696D01*
X3781316Y-3776504D01*
X3775382Y-3763453D01*
X3766024Y-3752592D01*
X3753993Y-3744794D01*
X3749138Y-3743342D01*
X4208623Y-3743342D01*
X4210482Y-3757558D01*
X4216256Y-3770680D01*
X4216755Y-3771274D01*
X4216756Y-3771275D01*
X4221798Y-3777273D01*
X4225481Y-3781655D01*
X4237415Y-3789599D01*
X4238156Y-3789830D01*
X4250359Y-3793643D01*
X4250359Y-3793643D01*
X4251100Y-3793874D01*
X4258858Y-3794016D01*
X4264658Y-3794123D01*
X4264658Y-3794123D01*
X4265434Y-3794137D01*
X4279266Y-3790366D01*
X4291483Y-3782864D01*
X4301104Y-3772235D01*
X4307355Y-3759333D01*
X4309734Y-3745195D01*
X4309749Y-3743960D01*
X4307716Y-3729768D01*
X4301782Y-3716717D01*
X4292424Y-3705856D01*
X4280394Y-3698058D01*
X4278820Y-3697588D01*
X4267402Y-3694173D01*
X4267402Y-3694173D01*
X4266658Y-3693951D01*
X4259490Y-3693907D01*
X4253098Y-3693868D01*
X4253098Y-3693868D01*
X4252322Y-3693863D01*
X4251575Y-3694076D01*
X4251575Y-3694076D01*
X4239283Y-3697589D01*
X4239283Y-3697589D01*
X4238537Y-3697803D01*
X4237880Y-3698217D01*
X4230165Y-3703085D01*
X4226412Y-3705453D01*
X4216922Y-3716199D01*
X4216592Y-3716902D01*
X4216592Y-3716902D01*
X4211159Y-3728473D01*
X4211159Y-3728473D01*
X4210829Y-3729176D01*
X4210709Y-3729944D01*
X4209907Y-3735096D01*
X4208623Y-3743342D01*
X3749138Y-3743342D01*
X3746571Y-3742575D01*
X3741002Y-3740909D01*
X3741002Y-3740909D01*
X3740258Y-3740687D01*
X3733090Y-3740643D01*
X3726698Y-3740604D01*
X3726698Y-3740604D01*
X3725922Y-3740599D01*
X3725175Y-3740812D01*
X3725175Y-3740812D01*
X3712883Y-3744325D01*
X3712883Y-3744325D01*
X3712137Y-3744539D01*
X3711480Y-3744953D01*
X3710438Y-3745611D01*
X3700012Y-3752189D01*
X3690522Y-3762935D01*
X3690192Y-3763638D01*
X3690192Y-3763638D01*
X3684759Y-3775209D01*
X3684759Y-3775209D01*
X3684429Y-3775912D01*
X3684309Y-3776680D01*
X3682744Y-3786733D01*
X3682223Y-3790078D01*
X3684082Y-3804294D01*
X3684395Y-3805005D01*
X3684597Y-3805730D01*
X3684315Y-3812461D01*
X3680131Y-3817740D01*
X3673642Y-3819552D01*
X3671876Y-3819256D01*
X3671876Y-3819259D01*
X3671108Y-3819144D01*
X3670364Y-3818921D01*
X3663195Y-3818878D01*
X3656804Y-3818839D01*
X3656804Y-3818839D01*
X3656027Y-3818834D01*
X3655281Y-3819047D01*
X3655281Y-3819047D01*
X3642989Y-3822560D01*
X3642989Y-3822560D01*
X3642243Y-3822774D01*
X3641586Y-3823188D01*
X3630778Y-3830007D01*
X3630118Y-3830424D01*
X3620627Y-3841170D01*
X3620297Y-3841872D01*
X3620297Y-3841873D01*
X3614864Y-3853444D01*
X3614864Y-3853444D01*
X3614534Y-3854147D01*
X3614415Y-3854915D01*
X3614129Y-3856750D01*
X3611087Y-3862760D01*
X3605092Y-3865834D01*
X3598436Y-3864797D01*
X3597430Y-3864219D01*
X3595179Y-3862760D01*
X3589909Y-3859344D01*
X3587505Y-3858625D01*
X3576918Y-3855459D01*
X3576918Y-3855459D01*
X3576174Y-3855237D01*
X3569006Y-3855193D01*
X3562614Y-3855154D01*
X3562614Y-3855154D01*
X3561838Y-3855149D01*
X3561091Y-3855362D01*
X3561091Y-3855362D01*
X3548799Y-3858875D01*
X3548799Y-3858875D01*
X3548053Y-3859089D01*
X3547396Y-3859503D01*
X3536981Y-3866075D01*
X3535928Y-3866739D01*
X3526438Y-3877485D01*
X3526108Y-3878188D01*
X3526108Y-3878188D01*
X3520675Y-3889759D01*
X3520675Y-3889759D01*
X3520345Y-3890462D01*
X3520225Y-3891230D01*
X3518342Y-3903327D01*
X3518139Y-3904628D01*
X3313396Y-3904628D01*
X3311416Y-3890804D01*
X3305482Y-3877753D01*
X3296124Y-3866892D01*
X3284093Y-3859094D01*
X3278255Y-3857348D01*
X3271102Y-3855209D01*
X3271102Y-3855209D01*
X3270358Y-3854987D01*
X3263190Y-3854943D01*
X3256798Y-3854904D01*
X3256798Y-3854904D01*
X3256022Y-3854899D01*
X3255275Y-3855112D01*
X3255275Y-3855112D01*
X3242983Y-3858625D01*
X3242983Y-3858625D01*
X3242237Y-3858839D01*
X3241580Y-3859253D01*
X3231146Y-3865836D01*
X3230112Y-3866489D01*
X3220622Y-3877235D01*
X3220292Y-3877938D01*
X3220292Y-3877938D01*
X3214859Y-3889509D01*
X3214859Y-3889509D01*
X3214529Y-3890212D01*
X3212323Y-3904378D01*
X3087147Y-3904378D01*
X3086905Y-3904071D01*
X3086402Y-3903380D01*
X3084919Y-3901160D01*
X3074793Y-3886006D01*
X3059397Y-3862964D01*
X3058950Y-3862235D01*
X3035200Y-3819825D01*
X3034811Y-3819063D01*
X3014461Y-3774920D01*
X3014134Y-3774129D01*
X3001765Y-3740604D01*
X2997310Y-3728527D01*
X2997046Y-3727713D01*
X2983852Y-3680931D01*
X2983652Y-3680099D01*
X2980266Y-3663078D01*
X3682223Y-3663078D01*
X3684082Y-3677294D01*
X3689856Y-3690416D01*
X3690355Y-3691010D01*
X3690355Y-3691011D01*
X3698300Y-3700462D01*
X3699081Y-3701391D01*
X3711015Y-3709335D01*
X3711756Y-3709566D01*
X3723959Y-3713379D01*
X3723959Y-3713379D01*
X3724700Y-3713610D01*
X3732457Y-3713752D01*
X3738258Y-3713859D01*
X3738258Y-3713859D01*
X3739034Y-3713873D01*
X3752866Y-3710102D01*
X3765083Y-3702600D01*
X3774704Y-3691971D01*
X3780955Y-3679069D01*
X3783334Y-3664931D01*
X3783349Y-3663696D01*
X3781316Y-3649504D01*
X3775382Y-3636453D01*
X3766024Y-3625592D01*
X3753993Y-3617794D01*
X3747358Y-3615810D01*
X3741002Y-3613909D01*
X3741002Y-3613909D01*
X3740258Y-3613687D01*
X3733090Y-3613643D01*
X3726698Y-3613604D01*
X3726698Y-3613604D01*
X3725922Y-3613599D01*
X3725175Y-3613812D01*
X3725175Y-3613812D01*
X3712883Y-3617325D01*
X3712883Y-3617325D01*
X3712137Y-3617539D01*
X3711480Y-3617953D01*
X3700886Y-3624638D01*
X3700012Y-3625189D01*
X3690522Y-3635935D01*
X3690192Y-3636638D01*
X3690192Y-3636638D01*
X3684759Y-3648209D01*
X3684759Y-3648209D01*
X3684429Y-3648912D01*
X3684309Y-3649680D01*
X3682495Y-3661335D01*
X3682223Y-3663078D01*
X2980266Y-3663078D01*
X2978735Y-3655378D01*
X2974169Y-3632424D01*
X2974035Y-3631579D01*
X2973846Y-3629978D01*
X2968322Y-3583311D01*
X2968255Y-3582458D01*
X2968161Y-3580071D01*
X2966490Y-3537546D01*
X3020830Y-3537546D01*
X3023793Y-3554794D01*
X3024041Y-3555377D01*
X3029917Y-3569186D01*
X3030645Y-3570897D01*
X3041018Y-3584992D01*
X3054355Y-3596323D01*
X3054919Y-3596611D01*
X3054920Y-3596611D01*
X3069378Y-3603994D01*
X3069378Y-3603994D01*
X3069942Y-3604282D01*
X3070556Y-3604432D01*
X3070556Y-3604432D01*
X3086469Y-3608326D01*
X3086469Y-3608326D01*
X3086941Y-3608441D01*
X3087425Y-3608471D01*
X3087425Y-3608472D01*
X3087724Y-3608490D01*
X3088045Y-3608510D01*
X3100662Y-3608510D01*
X3110262Y-3607391D01*
X3113034Y-3607068D01*
X3113034Y-3607068D01*
X3113663Y-3606994D01*
X3114257Y-3606778D01*
X3114258Y-3606778D01*
X3129518Y-3601239D01*
X3129518Y-3601239D01*
X3130113Y-3601023D01*
X3142804Y-3592703D01*
X3144219Y-3591775D01*
X3144219Y-3591775D01*
X3144748Y-3591428D01*
X3156784Y-3578723D01*
X3165574Y-3563590D01*
X3166077Y-3561927D01*
X3170463Y-3547447D01*
X3170463Y-3547447D01*
X3170647Y-3546841D01*
X3171277Y-3536674D01*
X3171314Y-3536078D01*
X3656823Y-3536078D01*
X3658682Y-3550294D01*
X3664456Y-3563416D01*
X3664955Y-3564010D01*
X3664955Y-3564011D01*
X3669800Y-3569774D01*
X3673681Y-3574391D01*
X3685615Y-3582335D01*
X3686356Y-3582566D01*
X3698559Y-3586379D01*
X3698559Y-3586379D01*
X3699300Y-3586610D01*
X3707057Y-3586752D01*
X3712858Y-3586859D01*
X3712858Y-3586859D01*
X3713634Y-3586873D01*
X3727466Y-3583102D01*
X3735007Y-3578471D01*
X4973219Y-3578471D01*
X4973353Y-3579319D01*
X4975193Y-3590936D01*
X4975194Y-3590937D01*
X4975328Y-3591784D01*
X4981447Y-3603793D01*
X4990978Y-3613324D01*
X5002987Y-3619443D01*
X5003834Y-3619578D01*
X5003835Y-3619578D01*
X5015452Y-3621418D01*
X5016300Y-3621552D01*
X5017147Y-3621418D01*
X5028765Y-3619578D01*
X5028765Y-3619578D01*
X5029612Y-3619443D01*
X5041622Y-3613324D01*
X5051152Y-3603793D01*
X5052238Y-3601662D01*
X5056882Y-3592548D01*
X5056882Y-3592548D01*
X5057272Y-3591784D01*
X5057406Y-3590936D01*
X5057769Y-3588641D01*
X5060828Y-3582638D01*
X5066830Y-3579580D01*
X5068535Y-3579446D01*
X5238776Y-3579446D01*
X5239134Y-3579472D01*
X5239618Y-3579638D01*
X5244541Y-3579454D01*
X5244950Y-3579446D01*
X5246879Y-3579446D01*
X5247333Y-3579361D01*
X5247790Y-3579332D01*
X5248736Y-3579296D01*
X5249799Y-3579256D01*
X5249799Y-3579256D01*
X5250805Y-3579219D01*
X5251760Y-3578808D01*
X5254066Y-3578107D01*
X5255089Y-3577917D01*
X5257294Y-3576558D01*
X5258711Y-3575822D01*
X5259226Y-3575600D01*
X5261090Y-3574800D01*
X5261579Y-3574398D01*
X5261933Y-3574045D01*
X5263526Y-3572785D01*
X5263762Y-3572571D01*
X5264619Y-3572043D01*
X5266344Y-3569774D01*
X5267313Y-3568664D01*
X5295835Y-3540142D01*
X5481559Y-3540142D01*
X5483418Y-3554358D01*
X5489192Y-3567480D01*
X5489691Y-3568074D01*
X5489692Y-3568075D01*
X5497521Y-3577389D01*
X5498417Y-3578455D01*
X5510351Y-3586399D01*
X5511092Y-3586630D01*
X5523295Y-3590443D01*
X5523295Y-3590443D01*
X5524036Y-3590674D01*
X5531794Y-3590816D01*
X5537594Y-3590923D01*
X5537594Y-3590923D01*
X5538370Y-3590937D01*
X5552202Y-3587166D01*
X5564419Y-3579664D01*
X5574040Y-3569035D01*
X5577894Y-3561080D01*
X6634580Y-3561080D01*
X6634714Y-3561927D01*
X6636554Y-3573545D01*
X6636554Y-3573545D01*
X6636688Y-3574393D01*
X6640919Y-3582696D01*
X6641829Y-3584482D01*
X6642807Y-3586402D01*
X6652338Y-3595933D01*
X6664347Y-3602052D01*
X6665195Y-3602186D01*
X6665195Y-3602186D01*
X6676813Y-3604026D01*
X6677660Y-3604160D01*
X6678507Y-3604026D01*
X6690125Y-3602186D01*
X6690125Y-3602186D01*
X6690973Y-3602052D01*
X6702982Y-3595933D01*
X6712513Y-3586402D01*
X6712568Y-3586293D01*
X6717717Y-3582552D01*
X6724454Y-3582552D01*
X6729864Y-3586458D01*
X6734158Y-3592292D01*
X6747495Y-3603623D01*
X6748059Y-3603911D01*
X6748060Y-3603911D01*
X6762518Y-3611294D01*
X6762518Y-3611294D01*
X6763082Y-3611582D01*
X6763696Y-3611732D01*
X6763696Y-3611732D01*
X6779609Y-3615626D01*
X6779609Y-3615626D01*
X6780081Y-3615741D01*
X6780565Y-3615771D01*
X6780565Y-3615772D01*
X6780864Y-3615790D01*
X6781185Y-3615810D01*
X6793802Y-3615810D01*
X6803402Y-3614691D01*
X6806174Y-3614368D01*
X6806174Y-3614368D01*
X6806803Y-3614294D01*
X6807397Y-3614078D01*
X6807398Y-3614078D01*
X6822658Y-3608539D01*
X6822658Y-3608539D01*
X6823253Y-3608323D01*
X6837888Y-3598728D01*
X6849924Y-3586023D01*
X6858714Y-3570890D01*
X6859232Y-3569180D01*
X6863603Y-3554747D01*
X6863603Y-3554747D01*
X6863787Y-3554141D01*
X6863886Y-3552543D01*
X6864831Y-3537306D01*
X6864831Y-3537306D01*
X6864870Y-3536674D01*
X6861907Y-3519426D01*
X6858486Y-3511386D01*
X6855303Y-3503905D01*
X6855302Y-3503905D01*
X6855055Y-3503323D01*
X6844682Y-3489228D01*
X6831344Y-3477897D01*
X6830780Y-3477609D01*
X6830780Y-3477609D01*
X6816322Y-3470226D01*
X6816322Y-3470226D01*
X6815758Y-3469938D01*
X6815144Y-3469788D01*
X6815143Y-3469788D01*
X6799231Y-3465894D01*
X6799231Y-3465894D01*
X6798759Y-3465778D01*
X6798275Y-3465748D01*
X6798275Y-3465748D01*
X6797976Y-3465730D01*
X6797655Y-3465710D01*
X6785038Y-3465710D01*
X6775438Y-3466829D01*
X6772666Y-3467152D01*
X6772666Y-3467152D01*
X6772037Y-3467226D01*
X6771443Y-3467441D01*
X6771442Y-3467442D01*
X6763544Y-3470309D01*
X6755587Y-3473197D01*
X6740951Y-3482792D01*
X6728916Y-3495497D01*
X6720126Y-3510630D01*
X6719942Y-3511236D01*
X6717517Y-3519244D01*
X6713668Y-3524772D01*
X6707304Y-3526982D01*
X6702137Y-3525796D01*
X6699447Y-3524426D01*
X6690973Y-3520108D01*
X6690125Y-3519974D01*
X6690125Y-3519974D01*
X6678507Y-3518134D01*
X6677660Y-3518000D01*
X6676813Y-3518134D01*
X6665195Y-3519974D01*
X6665195Y-3519974D01*
X6664347Y-3520108D01*
X6652338Y-3526227D01*
X6642807Y-3535758D01*
X6642418Y-3536522D01*
X6642418Y-3536522D01*
X6641896Y-3537546D01*
X6636688Y-3547767D01*
X6636554Y-3548615D01*
X6636554Y-3548615D01*
X6635483Y-3555377D01*
X6634580Y-3561080D01*
X5577894Y-3561080D01*
X5580291Y-3556133D01*
X5582670Y-3541995D01*
X5582685Y-3540760D01*
X5580652Y-3526568D01*
X5574718Y-3513517D01*
X5565360Y-3502656D01*
X5553330Y-3494858D01*
X5551756Y-3494388D01*
X5540338Y-3490973D01*
X5540338Y-3490973D01*
X5539594Y-3490751D01*
X5532426Y-3490707D01*
X5526034Y-3490668D01*
X5526034Y-3490668D01*
X5525258Y-3490663D01*
X5524511Y-3490876D01*
X5524511Y-3490876D01*
X5512219Y-3494389D01*
X5512219Y-3494389D01*
X5511473Y-3494603D01*
X5510816Y-3495017D01*
X5505899Y-3498120D01*
X5499348Y-3502253D01*
X5489858Y-3512999D01*
X5489528Y-3513702D01*
X5489528Y-3513702D01*
X5484095Y-3525273D01*
X5484095Y-3525273D01*
X5483765Y-3525976D01*
X5483645Y-3526744D01*
X5481971Y-3537500D01*
X5481559Y-3540142D01*
X5295835Y-3540142D01*
X5423655Y-3412322D01*
X5429657Y-3409264D01*
X5431362Y-3409130D01*
X5474440Y-3409130D01*
X5480847Y-3411212D01*
X5482147Y-3412322D01*
X5489193Y-3419368D01*
X5496000Y-3426175D01*
X5496235Y-3426447D01*
X5496459Y-3426907D01*
X5497197Y-3427591D01*
X5500070Y-3430257D01*
X5500365Y-3430540D01*
X5501729Y-3431905D01*
X5502110Y-3432166D01*
X5502456Y-3432469D01*
X5503763Y-3433682D01*
X5504666Y-3434520D01*
X5505601Y-3434893D01*
X5505601Y-3434893D01*
X5505632Y-3434905D01*
X5507759Y-3436041D01*
X5508616Y-3436629D01*
X5511136Y-3437227D01*
X5512658Y-3437708D01*
X5515064Y-3438668D01*
X5515693Y-3438730D01*
X5516193Y-3438730D01*
X5518210Y-3438966D01*
X5518529Y-3438982D01*
X5519508Y-3439214D01*
X5520506Y-3439078D01*
X5520506Y-3439078D01*
X5522333Y-3438830D01*
X5523803Y-3438730D01*
X6037352Y-3438730D01*
X6037710Y-3438756D01*
X6038194Y-3438922D01*
X6043117Y-3438738D01*
X6043526Y-3438730D01*
X6045455Y-3438730D01*
X6045909Y-3438645D01*
X6046366Y-3438616D01*
X6047312Y-3438580D01*
X6048375Y-3438540D01*
X6048375Y-3438540D01*
X6049381Y-3438503D01*
X6050336Y-3438092D01*
X6052642Y-3437391D01*
X6053665Y-3437201D01*
X6055870Y-3435842D01*
X6057287Y-3435106D01*
X6057733Y-3434914D01*
X6059666Y-3434084D01*
X6060155Y-3433682D01*
X6060508Y-3433329D01*
X6062102Y-3432069D01*
X6062338Y-3431855D01*
X6063195Y-3431327D01*
X6064920Y-3429058D01*
X6065889Y-3427948D01*
X6103075Y-3390762D01*
X6109078Y-3387703D01*
X6110982Y-3387571D01*
X6114520Y-3387636D01*
X6119254Y-3387723D01*
X6119254Y-3387723D01*
X6120030Y-3387737D01*
X6133862Y-3383966D01*
X6146079Y-3376464D01*
X6155700Y-3365835D01*
X6161951Y-3352933D01*
X6162077Y-3352182D01*
X6470589Y-3352182D01*
X6472448Y-3366398D01*
X6478222Y-3379520D01*
X6478721Y-3380114D01*
X6478721Y-3380115D01*
X6485117Y-3387723D01*
X6487447Y-3390495D01*
X6499381Y-3398439D01*
X6500122Y-3398670D01*
X6512325Y-3402483D01*
X6512325Y-3402483D01*
X6513066Y-3402714D01*
X6520823Y-3402856D01*
X6526624Y-3402963D01*
X6526624Y-3402963D01*
X6527400Y-3402977D01*
X6541232Y-3399206D01*
X6553449Y-3391704D01*
X6557040Y-3387737D01*
X6562891Y-3381273D01*
X6568734Y-3377920D01*
X6575432Y-3378642D01*
X6580426Y-3383162D01*
X6581738Y-3390293D01*
X6581450Y-3392111D01*
X6581240Y-3393440D01*
X6581374Y-3394287D01*
X6583214Y-3405905D01*
X6583214Y-3405905D01*
X6583348Y-3406753D01*
X6589467Y-3418762D01*
X6598998Y-3428293D01*
X6611007Y-3434412D01*
X6611855Y-3434546D01*
X6611855Y-3434546D01*
X6623473Y-3436386D01*
X6624320Y-3436520D01*
X6625167Y-3436386D01*
X6636785Y-3434546D01*
X6636785Y-3434546D01*
X6637633Y-3434412D01*
X6649642Y-3428293D01*
X6659173Y-3418762D01*
X6665292Y-3406753D01*
X6665426Y-3405905D01*
X6665426Y-3405905D01*
X6667266Y-3394287D01*
X6667400Y-3393440D01*
X6666840Y-3389901D01*
X6665426Y-3380975D01*
X6665426Y-3380975D01*
X6665292Y-3380127D01*
X6659173Y-3368118D01*
X6649642Y-3358587D01*
X6637633Y-3352468D01*
X6636785Y-3352334D01*
X6636785Y-3352334D01*
X6625167Y-3350494D01*
X6624320Y-3350360D01*
X6623473Y-3350494D01*
X6611855Y-3352334D01*
X6611855Y-3352334D01*
X6611007Y-3352468D01*
X6598998Y-3358587D01*
X6589467Y-3368118D01*
X6589220Y-3367871D01*
X6585023Y-3370920D01*
X6578286Y-3370919D01*
X6572837Y-3366958D01*
X6570756Y-3360551D01*
X6570907Y-3358744D01*
X6570914Y-3358702D01*
X6571700Y-3354035D01*
X6571715Y-3352800D01*
X6569917Y-3340250D01*
X6569792Y-3339377D01*
X6569792Y-3339377D01*
X6569682Y-3338608D01*
X6563748Y-3325557D01*
X6554390Y-3314696D01*
X6542359Y-3306898D01*
X6538134Y-3305635D01*
X6648725Y-3305635D01*
X6648860Y-3306482D01*
X6650700Y-3318100D01*
X6650700Y-3318100D01*
X6650834Y-3318947D01*
X6655240Y-3327595D01*
X6655482Y-3328070D01*
X6656953Y-3330957D01*
X6666484Y-3340488D01*
X6667248Y-3340877D01*
X6667248Y-3340877D01*
X6669846Y-3342201D01*
X6678493Y-3346607D01*
X6679341Y-3346741D01*
X6679341Y-3346741D01*
X6690959Y-3348581D01*
X6691806Y-3348715D01*
X6692653Y-3348581D01*
X6704271Y-3346741D01*
X6704271Y-3346741D01*
X6705118Y-3346607D01*
X6713766Y-3342201D01*
X6716364Y-3340877D01*
X6716364Y-3340877D01*
X6717128Y-3340488D01*
X6726659Y-3330957D01*
X6728130Y-3328070D01*
X6728372Y-3327595D01*
X6732778Y-3318947D01*
X6732912Y-3318100D01*
X6732912Y-3318100D01*
X6734752Y-3306482D01*
X6734886Y-3305635D01*
X6734470Y-3303008D01*
X6732912Y-3293170D01*
X6732912Y-3293170D01*
X6732778Y-3292322D01*
X6727766Y-3282486D01*
X6727048Y-3281077D01*
X6727048Y-3281077D01*
X6726659Y-3280313D01*
X6717128Y-3270782D01*
X6715320Y-3269861D01*
X6712478Y-3268413D01*
X6705118Y-3264663D01*
X6704271Y-3264529D01*
X6704271Y-3264529D01*
X6692653Y-3262689D01*
X6691806Y-3262554D01*
X6690959Y-3262689D01*
X6679341Y-3264529D01*
X6679341Y-3264529D01*
X6678493Y-3264663D01*
X6671134Y-3268413D01*
X6668292Y-3269861D01*
X6666484Y-3270782D01*
X6656953Y-3280313D01*
X6656564Y-3281077D01*
X6656564Y-3281077D01*
X6655846Y-3282486D01*
X6650834Y-3292322D01*
X6650700Y-3293170D01*
X6650700Y-3293170D01*
X6649141Y-3303008D01*
X6648725Y-3305635D01*
X6538134Y-3305635D01*
X6536372Y-3305108D01*
X6529368Y-3303013D01*
X6529368Y-3303013D01*
X6528624Y-3302791D01*
X6521456Y-3302747D01*
X6515064Y-3302708D01*
X6515064Y-3302708D01*
X6514288Y-3302703D01*
X6513541Y-3302916D01*
X6513541Y-3302916D01*
X6501249Y-3306429D01*
X6501249Y-3306429D01*
X6500503Y-3306643D01*
X6499846Y-3307057D01*
X6492963Y-3311400D01*
X6488378Y-3314293D01*
X6478888Y-3325039D01*
X6478558Y-3325742D01*
X6478558Y-3325742D01*
X6473125Y-3337313D01*
X6473125Y-3337313D01*
X6472795Y-3338016D01*
X6472675Y-3338784D01*
X6470760Y-3351087D01*
X6470589Y-3352182D01*
X6162077Y-3352182D01*
X6164045Y-3340488D01*
X6164260Y-3339211D01*
X6164260Y-3339211D01*
X6164330Y-3338795D01*
X6164345Y-3337560D01*
X6162312Y-3323368D01*
X6156378Y-3310317D01*
X6147020Y-3299456D01*
X6134989Y-3291658D01*
X6129793Y-3290104D01*
X6121998Y-3287773D01*
X6121998Y-3287773D01*
X6121254Y-3287551D01*
X6114086Y-3287507D01*
X6107694Y-3287468D01*
X6107694Y-3287468D01*
X6106918Y-3287463D01*
X6106171Y-3287676D01*
X6106171Y-3287676D01*
X6093879Y-3291189D01*
X6093879Y-3291189D01*
X6093133Y-3291403D01*
X6092476Y-3291817D01*
X6083301Y-3297606D01*
X6081008Y-3299053D01*
X6071518Y-3309799D01*
X6071188Y-3310502D01*
X6071188Y-3310502D01*
X6065755Y-3322073D01*
X6065755Y-3322073D01*
X6065425Y-3322776D01*
X6065305Y-3323544D01*
X6063771Y-3333398D01*
X6063219Y-3336942D01*
X6063320Y-3337712D01*
X6063320Y-3337713D01*
X6063527Y-3339296D01*
X6062293Y-3345919D01*
X6060426Y-3348416D01*
X6033405Y-3375437D01*
X6027403Y-3378496D01*
X6025698Y-3378630D01*
X5633801Y-3378630D01*
X5627394Y-3376548D01*
X5623435Y-3371098D01*
X5623035Y-3366025D01*
X5624832Y-3354681D01*
X5624832Y-3354681D01*
X5624966Y-3353834D01*
X5624531Y-3351087D01*
X5622992Y-3341369D01*
X5622992Y-3341369D01*
X5622858Y-3340521D01*
X5616739Y-3328512D01*
X5607208Y-3318981D01*
X5605742Y-3318234D01*
X5599149Y-3314875D01*
X5595198Y-3312862D01*
X5594351Y-3312728D01*
X5594351Y-3312728D01*
X5582733Y-3310888D01*
X5581886Y-3310754D01*
X5581039Y-3310888D01*
X5569421Y-3312728D01*
X5569421Y-3312728D01*
X5568573Y-3312862D01*
X5564623Y-3314875D01*
X5558030Y-3318234D01*
X5556564Y-3318981D01*
X5547033Y-3328512D01*
X5540914Y-3340521D01*
X5540780Y-3341369D01*
X5540780Y-3341369D01*
X5539241Y-3351087D01*
X5538806Y-3353834D01*
X5539232Y-3356527D01*
X5538178Y-3363181D01*
X5533415Y-3367944D01*
X5526761Y-3368998D01*
X5520759Y-3365940D01*
X5516404Y-3361585D01*
X5516169Y-3361313D01*
X5515944Y-3360853D01*
X5512332Y-3357502D01*
X5512037Y-3357218D01*
X5510674Y-3355855D01*
X5510293Y-3355594D01*
X5509948Y-3355290D01*
X5509291Y-3354681D01*
X5507737Y-3353240D01*
X5506772Y-3352855D01*
X5504645Y-3351719D01*
X5504617Y-3351700D01*
X5504617Y-3351700D01*
X5503787Y-3351131D01*
X5501267Y-3350533D01*
X5499746Y-3350052D01*
X5499439Y-3349929D01*
X5494260Y-3345622D01*
X5492601Y-3339093D01*
X5494659Y-3333398D01*
X5495061Y-3332845D01*
X5495668Y-3332239D01*
X5501787Y-3320230D01*
X5501921Y-3319382D01*
X5501921Y-3319382D01*
X5503761Y-3307764D01*
X5503895Y-3306917D01*
X5501787Y-3293604D01*
X5502161Y-3293545D01*
X5502166Y-3288451D01*
X5506130Y-3283004D01*
X5512538Y-3280928D01*
X5516737Y-3281938D01*
X5516751Y-3281896D01*
X5517286Y-3282070D01*
X5517478Y-3282116D01*
X5517567Y-3282161D01*
X5517567Y-3282161D01*
X5518331Y-3282551D01*
X5519179Y-3282685D01*
X5519179Y-3282685D01*
X5530797Y-3284525D01*
X5531644Y-3284659D01*
X5532491Y-3284525D01*
X5544109Y-3282685D01*
X5544109Y-3282685D01*
X5544956Y-3282551D01*
X5554044Y-3277920D01*
X5556202Y-3276821D01*
X5556202Y-3276821D01*
X5556966Y-3276431D01*
X5566497Y-3266901D01*
X5566937Y-3266037D01*
X5569990Y-3260045D01*
X5571115Y-3257837D01*
X5575878Y-3253074D01*
X5580827Y-3251886D01*
X5581083Y-3251886D01*
X5581930Y-3252020D01*
X5582777Y-3251886D01*
X5594395Y-3250046D01*
X5594395Y-3250045D01*
X5595243Y-3249911D01*
X5605682Y-3244592D01*
X5606488Y-3244181D01*
X5606488Y-3244181D01*
X5607252Y-3243792D01*
X5616783Y-3234261D01*
X5617588Y-3232682D01*
X5619825Y-3228291D01*
X5622902Y-3222252D01*
X5623036Y-3221405D01*
X5623036Y-3221404D01*
X5624876Y-3209787D01*
X5625010Y-3208939D01*
X5624660Y-3206726D01*
X5623036Y-3196474D01*
X5623036Y-3196474D01*
X5622902Y-3195627D01*
X5617404Y-3184837D01*
X5617172Y-3184381D01*
X5617172Y-3184381D01*
X5616783Y-3183617D01*
X5607252Y-3174087D01*
X5606436Y-3173671D01*
X5601697Y-3171256D01*
X5595243Y-3167967D01*
X5594395Y-3167833D01*
X5594395Y-3167833D01*
X5582777Y-3165993D01*
X5581930Y-3165859D01*
X5568617Y-3167967D01*
X5568578Y-3167717D01*
X5563086Y-3167717D01*
X5557636Y-3163758D01*
X5555554Y-3157351D01*
X5555914Y-3155075D01*
X5555876Y-3155069D01*
X5557850Y-3142604D01*
X5557984Y-3141757D01*
X5557327Y-3137607D01*
X5556715Y-3133742D01*
X6139419Y-3133742D01*
X6141278Y-3147958D01*
X6147052Y-3161080D01*
X6147551Y-3161674D01*
X6147551Y-3161675D01*
X6153946Y-3169282D01*
X6156277Y-3172055D01*
X6168211Y-3179999D01*
X6168952Y-3180230D01*
X6181155Y-3184043D01*
X6181155Y-3184043D01*
X6181896Y-3184274D01*
X6189653Y-3184416D01*
X6195454Y-3184523D01*
X6195454Y-3184523D01*
X6196230Y-3184537D01*
X6210062Y-3180766D01*
X6222279Y-3173264D01*
X6231900Y-3162635D01*
X6237647Y-3150774D01*
X6242314Y-3145915D01*
X6248945Y-3144728D01*
X6255007Y-3147666D01*
X6257168Y-3150578D01*
X6259800Y-3155743D01*
X6261807Y-3159682D01*
X6271338Y-3169213D01*
X6283347Y-3175332D01*
X6284195Y-3175466D01*
X6284195Y-3175466D01*
X6295813Y-3177306D01*
X6296660Y-3177440D01*
X6297507Y-3177306D01*
X6309125Y-3175466D01*
X6309125Y-3175466D01*
X6309973Y-3175332D01*
X6321982Y-3169213D01*
X6331513Y-3159682D01*
X6337632Y-3147673D01*
X6337766Y-3146825D01*
X6337766Y-3146825D01*
X6339606Y-3135207D01*
X6339740Y-3134360D01*
X6339521Y-3132975D01*
X6337766Y-3121895D01*
X6337766Y-3121895D01*
X6337632Y-3121047D01*
X6331513Y-3109038D01*
X6321982Y-3099507D01*
X6315602Y-3096256D01*
X6314433Y-3095661D01*
X6309669Y-3090897D01*
X6308615Y-3084243D01*
X6311674Y-3078241D01*
X6319133Y-3070782D01*
X6320170Y-3068746D01*
X6321870Y-3065411D01*
X6325252Y-3058773D01*
X6325386Y-3057925D01*
X6325386Y-3057925D01*
X6327226Y-3046307D01*
X6327360Y-3045460D01*
X6326588Y-3040586D01*
X6325386Y-3032995D01*
X6325386Y-3032995D01*
X6325252Y-3032147D01*
X6319133Y-3020138D01*
X6309602Y-3010607D01*
X6308619Y-3010106D01*
X6306240Y-3008894D01*
X6297593Y-3004488D01*
X6296745Y-3004354D01*
X6296745Y-3004354D01*
X6285127Y-3002514D01*
X6284280Y-3002380D01*
X6283433Y-3002514D01*
X6271815Y-3004354D01*
X6271815Y-3004354D01*
X6270967Y-3004488D01*
X6262320Y-3008894D01*
X6259941Y-3010106D01*
X6258958Y-3010607D01*
X6249427Y-3020138D01*
X6243308Y-3032147D01*
X6243174Y-3032995D01*
X6243174Y-3032995D01*
X6241971Y-3040586D01*
X6241200Y-3045460D01*
X6241334Y-3046307D01*
X6243174Y-3057925D01*
X6243174Y-3057925D01*
X6243308Y-3058773D01*
X6246690Y-3065411D01*
X6248390Y-3068746D01*
X6249427Y-3070782D01*
X6258958Y-3080313D01*
X6262330Y-3082031D01*
X6266507Y-3084159D01*
X6271271Y-3088923D01*
X6272325Y-3095577D01*
X6269266Y-3101579D01*
X6261807Y-3109038D01*
X6261418Y-3109802D01*
X6261418Y-3109802D01*
X6257094Y-3118289D01*
X6252330Y-3123052D01*
X6245676Y-3124106D01*
X6239674Y-3121048D01*
X6237459Y-3117852D01*
X6232900Y-3107825D01*
X6232900Y-3107824D01*
X6232578Y-3107117D01*
X6223220Y-3096256D01*
X6211189Y-3088458D01*
X6206994Y-3087204D01*
X6198198Y-3084573D01*
X6198198Y-3084573D01*
X6197454Y-3084351D01*
X6190286Y-3084307D01*
X6183894Y-3084268D01*
X6183894Y-3084268D01*
X6183118Y-3084263D01*
X6182371Y-3084476D01*
X6182371Y-3084476D01*
X6170079Y-3087989D01*
X6170079Y-3087989D01*
X6169333Y-3088203D01*
X6168676Y-3088617D01*
X6158271Y-3095182D01*
X6157208Y-3095853D01*
X6147718Y-3106599D01*
X6147388Y-3107302D01*
X6147388Y-3107302D01*
X6141955Y-3118873D01*
X6141955Y-3118873D01*
X6141625Y-3119576D01*
X6141505Y-3120344D01*
X6140098Y-3129380D01*
X6139419Y-3133742D01*
X5556715Y-3133742D01*
X5556010Y-3129292D01*
X5556010Y-3129291D01*
X5555876Y-3128444D01*
X5549756Y-3116435D01*
X5540226Y-3106904D01*
X5537888Y-3105713D01*
X5534324Y-3103897D01*
X5528216Y-3100785D01*
X5527369Y-3100650D01*
X5527369Y-3100650D01*
X5515751Y-3098810D01*
X5514904Y-3098676D01*
X5514056Y-3098810D01*
X5502439Y-3100650D01*
X5502438Y-3100650D01*
X5501591Y-3100785D01*
X5495484Y-3103897D01*
X5491919Y-3105713D01*
X5489582Y-3106904D01*
X5480051Y-3116435D01*
X5473932Y-3128444D01*
X5473798Y-3129291D01*
X5473797Y-3129292D01*
X5472480Y-3137607D01*
X5471823Y-3141757D01*
X5471957Y-3142604D01*
X5473797Y-3154222D01*
X5473798Y-3154222D01*
X5473932Y-3155069D01*
X5476995Y-3161080D01*
X5479626Y-3166244D01*
X5480051Y-3167079D01*
X5489582Y-3176609D01*
X5501591Y-3182728D01*
X5507995Y-3183743D01*
X5513998Y-3186801D01*
X5517056Y-3192803D01*
X5516002Y-3199457D01*
X5511239Y-3204221D01*
X5508517Y-3205608D01*
X5506322Y-3206726D01*
X5496791Y-3216257D01*
X5490672Y-3228266D01*
X5490538Y-3229113D01*
X5490538Y-3229114D01*
X5489975Y-3232665D01*
X5488563Y-3241579D01*
X5488698Y-3242426D01*
X5490672Y-3254891D01*
X5490297Y-3254951D01*
X5490293Y-3260045D01*
X5486329Y-3265491D01*
X5479921Y-3267568D01*
X5475721Y-3266558D01*
X5475708Y-3266600D01*
X5475173Y-3266426D01*
X5474980Y-3266380D01*
X5474892Y-3266335D01*
X5474892Y-3266335D01*
X5474127Y-3265945D01*
X5473280Y-3265811D01*
X5473280Y-3265811D01*
X5461662Y-3263971D01*
X5460815Y-3263837D01*
X5459968Y-3263971D01*
X5448350Y-3265811D01*
X5448350Y-3265811D01*
X5447502Y-3265945D01*
X5439817Y-3269861D01*
X5437327Y-3271129D01*
X5435493Y-3272064D01*
X5425962Y-3281595D01*
X5425573Y-3282359D01*
X5425573Y-3282359D01*
X5424986Y-3283510D01*
X5419843Y-3293604D01*
X5419709Y-3294452D01*
X5419709Y-3294452D01*
X5418651Y-3301128D01*
X5417734Y-3306917D01*
X5417869Y-3307764D01*
X5419709Y-3319382D01*
X5419709Y-3319382D01*
X5419843Y-3320230D01*
X5425710Y-3331744D01*
X5425710Y-3331744D01*
X5425962Y-3332239D01*
X5425884Y-3332279D01*
X5427745Y-3338005D01*
X5425663Y-3344412D01*
X5420213Y-3348372D01*
X5417253Y-3348898D01*
X5413943Y-3349022D01*
X5413534Y-3349030D01*
X5411605Y-3349030D01*
X5411151Y-3349115D01*
X5410694Y-3349144D01*
X5409748Y-3349180D01*
X5408685Y-3349220D01*
X5408685Y-3349220D01*
X5407679Y-3349257D01*
X5406724Y-3349668D01*
X5404418Y-3350369D01*
X5403395Y-3350559D01*
X5402539Y-3351087D01*
X5402538Y-3351087D01*
X5401190Y-3351918D01*
X5399773Y-3352654D01*
X5397394Y-3353676D01*
X5396905Y-3354078D01*
X5396552Y-3354431D01*
X5394958Y-3355691D01*
X5394722Y-3355905D01*
X5393865Y-3356433D01*
X5393256Y-3357234D01*
X5392140Y-3358702D01*
X5391171Y-3359812D01*
X5315625Y-3435357D01*
X5309623Y-3438416D01*
X5302969Y-3437362D01*
X5298735Y-3433523D01*
X5298694Y-3433458D01*
X5298373Y-3432752D01*
X5297643Y-3431905D01*
X5293747Y-3427383D01*
X5289014Y-3421891D01*
X5276984Y-3414093D01*
X5271064Y-3412322D01*
X5263992Y-3410208D01*
X5263992Y-3410208D01*
X5263248Y-3409985D01*
X5256080Y-3409941D01*
X5249689Y-3409902D01*
X5249688Y-3409902D01*
X5248912Y-3409897D01*
X5248165Y-3410111D01*
X5248165Y-3410111D01*
X5235874Y-3413624D01*
X5235874Y-3413624D01*
X5235127Y-3413837D01*
X5223002Y-3421487D01*
X5213512Y-3432233D01*
X5213182Y-3432936D01*
X5213182Y-3432936D01*
X5207749Y-3444507D01*
X5207749Y-3444508D01*
X5207419Y-3445211D01*
X5205214Y-3459377D01*
X5207072Y-3473592D01*
X5212846Y-3486715D01*
X5213346Y-3487309D01*
X5213346Y-3487309D01*
X5221572Y-3497095D01*
X5222071Y-3497689D01*
X5222718Y-3498119D01*
X5222718Y-3498120D01*
X5224600Y-3499372D01*
X5228780Y-3504655D01*
X5229056Y-3511386D01*
X5225323Y-3516994D01*
X5218560Y-3519346D01*
X5050684Y-3519346D01*
X5050325Y-3519320D01*
X5049841Y-3519153D01*
X5044916Y-3519338D01*
X5044507Y-3519346D01*
X5042580Y-3519346D01*
X5042127Y-3519430D01*
X5041669Y-3519460D01*
X5039660Y-3519536D01*
X5039660Y-3519536D01*
X5038654Y-3519573D01*
X5037699Y-3519984D01*
X5035393Y-3520685D01*
X5034370Y-3520875D01*
X5033514Y-3521403D01*
X5033514Y-3521403D01*
X5032165Y-3522234D01*
X5030748Y-3522970D01*
X5029075Y-3523689D01*
X5029075Y-3523689D01*
X5028369Y-3523992D01*
X5027880Y-3524394D01*
X5027526Y-3524748D01*
X5025934Y-3526006D01*
X5025697Y-3526221D01*
X5024840Y-3526749D01*
X5024231Y-3527550D01*
X5023115Y-3529018D01*
X5022146Y-3530128D01*
X5019497Y-3532777D01*
X5013494Y-3535835D01*
X5003835Y-3537365D01*
X5003834Y-3537365D01*
X5002987Y-3537500D01*
X4990978Y-3543619D01*
X4981447Y-3553149D01*
X4981058Y-3553913D01*
X4981058Y-3553913D01*
X4980927Y-3554170D01*
X4975328Y-3565159D01*
X4975194Y-3566006D01*
X4975193Y-3566006D01*
X4973589Y-3576138D01*
X4973219Y-3578471D01*
X3735007Y-3578471D01*
X3739683Y-3575600D01*
X3749304Y-3564971D01*
X3755555Y-3552069D01*
X3757458Y-3540760D01*
X3757864Y-3538347D01*
X3757864Y-3538347D01*
X3757934Y-3537931D01*
X3757949Y-3536696D01*
X3755916Y-3522504D01*
X3749982Y-3509453D01*
X3740624Y-3498592D01*
X3728593Y-3490794D01*
X3725060Y-3489738D01*
X3715602Y-3486909D01*
X3715602Y-3486909D01*
X3714858Y-3486687D01*
X3707690Y-3486643D01*
X3701298Y-3486604D01*
X3701298Y-3486604D01*
X3700522Y-3486599D01*
X3699775Y-3486812D01*
X3699775Y-3486812D01*
X3687483Y-3490325D01*
X3687483Y-3490325D01*
X3686737Y-3490539D01*
X3686080Y-3490953D01*
X3678854Y-3495513D01*
X3674612Y-3498189D01*
X3665122Y-3508935D01*
X3664792Y-3509638D01*
X3664792Y-3509638D01*
X3659359Y-3521209D01*
X3659359Y-3521209D01*
X3659029Y-3521912D01*
X3658909Y-3522680D01*
X3657231Y-3533460D01*
X3656823Y-3536078D01*
X3171314Y-3536078D01*
X3171691Y-3530006D01*
X3171691Y-3530006D01*
X3171730Y-3529374D01*
X3168767Y-3512126D01*
X3164389Y-3501839D01*
X3162163Y-3496605D01*
X3162162Y-3496605D01*
X3161915Y-3496023D01*
X3151542Y-3481928D01*
X3138204Y-3470597D01*
X3137640Y-3470309D01*
X3137640Y-3470309D01*
X3123182Y-3462926D01*
X3123182Y-3462926D01*
X3122618Y-3462638D01*
X3122004Y-3462488D01*
X3122003Y-3462488D01*
X3106091Y-3458594D01*
X3106091Y-3458594D01*
X3105619Y-3458478D01*
X3105135Y-3458448D01*
X3105135Y-3458448D01*
X3104836Y-3458430D01*
X3104515Y-3458410D01*
X3091898Y-3458410D01*
X3082298Y-3459529D01*
X3079526Y-3459852D01*
X3079526Y-3459852D01*
X3078897Y-3459926D01*
X3078303Y-3460141D01*
X3078302Y-3460142D01*
X3066594Y-3464392D01*
X3062447Y-3465897D01*
X3047811Y-3475492D01*
X3035776Y-3488197D01*
X3026986Y-3503330D01*
X3026802Y-3503937D01*
X3026802Y-3503937D01*
X3022111Y-3519426D01*
X3021913Y-3520079D01*
X3021874Y-3520711D01*
X3020921Y-3536078D01*
X3020830Y-3537546D01*
X2966490Y-3537546D01*
X2966347Y-3533888D01*
X2966347Y-3533032D01*
X2966590Y-3526833D01*
X2968255Y-3484462D01*
X2968322Y-3483609D01*
X2969940Y-3469938D01*
X2974035Y-3435340D01*
X2974169Y-3434495D01*
X2974186Y-3434412D01*
X2980491Y-3402714D01*
X2983652Y-3386821D01*
X2983852Y-3385989D01*
X2997046Y-3339207D01*
X2997310Y-3338393D01*
X2999863Y-3331474D01*
X3009083Y-3306482D01*
X3014134Y-3292791D01*
X3014461Y-3292000D01*
X3033555Y-3250582D01*
X3111739Y-3250582D01*
X3113598Y-3264798D01*
X3119372Y-3277920D01*
X3119871Y-3278514D01*
X3119871Y-3278515D01*
X3127573Y-3287676D01*
X3128597Y-3288895D01*
X3140531Y-3296839D01*
X3141272Y-3297070D01*
X3153475Y-3300883D01*
X3153475Y-3300883D01*
X3154216Y-3301114D01*
X3161973Y-3301256D01*
X3167774Y-3301363D01*
X3167774Y-3301363D01*
X3168550Y-3301377D01*
X3182382Y-3297606D01*
X3194599Y-3290104D01*
X3199024Y-3285216D01*
X3201997Y-3281931D01*
X3650914Y-3281931D01*
X3652773Y-3296147D01*
X3658547Y-3309269D01*
X3659047Y-3309863D01*
X3659047Y-3309863D01*
X3667221Y-3319588D01*
X3667772Y-3320244D01*
X3679707Y-3328188D01*
X3680448Y-3328419D01*
X3692650Y-3332232D01*
X3692650Y-3332232D01*
X3693391Y-3332463D01*
X3701149Y-3332605D01*
X3706949Y-3332712D01*
X3706949Y-3332712D01*
X3707725Y-3332726D01*
X3721557Y-3328955D01*
X3733774Y-3321453D01*
X3735274Y-3319797D01*
X3742874Y-3311400D01*
X3743395Y-3310824D01*
X3749646Y-3297922D01*
X3751916Y-3284432D01*
X3751955Y-3284200D01*
X3751955Y-3284200D01*
X3752025Y-3283784D01*
X3752040Y-3282549D01*
X3750008Y-3268357D01*
X3744074Y-3255306D01*
X3734715Y-3244445D01*
X3722685Y-3236647D01*
X3715194Y-3234407D01*
X3709693Y-3232762D01*
X3709693Y-3232762D01*
X3708949Y-3232540D01*
X3701781Y-3232496D01*
X3695390Y-3232457D01*
X3695389Y-3232457D01*
X3694613Y-3232452D01*
X3693866Y-3232665D01*
X3693866Y-3232665D01*
X3681575Y-3236178D01*
X3681574Y-3236178D01*
X3680828Y-3236392D01*
X3680171Y-3236806D01*
X3670423Y-3242957D01*
X3668703Y-3244042D01*
X3659213Y-3254788D01*
X3658883Y-3255490D01*
X3658883Y-3255491D01*
X3653450Y-3267062D01*
X3653450Y-3267062D01*
X3653120Y-3267765D01*
X3653001Y-3268533D01*
X3651297Y-3279475D01*
X3650914Y-3281931D01*
X3201997Y-3281931D01*
X3202029Y-3281896D01*
X3204220Y-3279475D01*
X3210471Y-3266573D01*
X3212104Y-3256864D01*
X3212780Y-3252851D01*
X3212780Y-3252851D01*
X3212850Y-3252435D01*
X3212865Y-3251200D01*
X3210832Y-3237008D01*
X3204898Y-3223957D01*
X3195540Y-3213096D01*
X3183509Y-3205298D01*
X3180211Y-3204312D01*
X3170518Y-3201413D01*
X3170518Y-3201413D01*
X3169774Y-3201191D01*
X3162606Y-3201147D01*
X3156214Y-3201108D01*
X3156214Y-3201108D01*
X3155438Y-3201103D01*
X3154691Y-3201316D01*
X3154691Y-3201316D01*
X3142399Y-3204829D01*
X3142399Y-3204829D01*
X3141653Y-3205043D01*
X3140996Y-3205457D01*
X3137438Y-3207702D01*
X3129528Y-3212693D01*
X3120038Y-3223439D01*
X3119708Y-3224142D01*
X3119708Y-3224142D01*
X3114275Y-3235713D01*
X3114275Y-3235713D01*
X3113945Y-3236416D01*
X3113825Y-3237184D01*
X3112067Y-3248478D01*
X3111739Y-3250582D01*
X3033555Y-3250582D01*
X3034811Y-3247857D01*
X3035200Y-3247095D01*
X3058950Y-3204685D01*
X3059397Y-3203956D01*
X3082826Y-3168892D01*
X3086402Y-3163540D01*
X3086905Y-3162848D01*
X3087830Y-3161675D01*
X3101403Y-3144457D01*
X3116997Y-3124677D01*
X3117553Y-3124026D01*
X3150547Y-3088333D01*
X3151153Y-3087727D01*
X3186846Y-3054733D01*
X3187497Y-3054177D01*
X3218477Y-3029754D01*
X3225668Y-3024085D01*
X3226360Y-3023582D01*
X3226388Y-3023563D01*
X3240640Y-3014040D01*
X3266776Y-2996577D01*
X3267505Y-2996130D01*
X3309915Y-2972380D01*
X3310677Y-2971991D01*
X3354820Y-2951641D01*
X3355611Y-2951314D01*
X3383548Y-2941007D01*
X3401213Y-2934490D01*
X3402027Y-2934226D01*
X3448809Y-2921032D01*
X3449641Y-2920832D01*
X3466199Y-2917538D01*
X3497316Y-2911349D01*
X3498160Y-2911215D01*
X3542741Y-2905939D01*
X3546429Y-2905502D01*
X3547282Y-2905435D01*
X3582708Y-2904043D01*
X3592881Y-2903643D01*
X3594003Y-2903749D01*
X3595047Y-2903750D01*
X3596244Y-2904026D01*
X3597442Y-2903755D01*
X3597549Y-2903755D01*
X3599740Y-2903510D01*
X3723198Y-2903510D01*
X3729605Y-2905592D01*
G37*
G04 #@! TD.AperFunction*
G04 #@! TA.AperFunction,Conductor*
G36*
X5170450Y-3949762D02*
G01*
X5171751Y-3950872D01*
X5273742Y-4052863D01*
X5275097Y-4054515D01*
X5275441Y-4055029D01*
X5275441Y-4055030D01*
X5276038Y-4055922D01*
X5276930Y-4056519D01*
X5278338Y-4057459D01*
X5278338Y-4057459D01*
X5280524Y-4058920D01*
X5283716Y-4061053D01*
X5285151Y-4062011D01*
X5293187Y-4063610D01*
X5293187Y-4063610D01*
X5293187Y-4063610D01*
X5294847Y-4063940D01*
X5294847Y-4063940D01*
X5295900Y-4064150D01*
X5296953Y-4063940D01*
X5296953Y-4063940D01*
X5297561Y-4063819D01*
X5299687Y-4063610D01*
X5390140Y-4063610D01*
X5396547Y-4065692D01*
X5400507Y-4071142D01*
X5400507Y-4077878D01*
X5397848Y-4082217D01*
X5395287Y-4084778D01*
X5394898Y-4085542D01*
X5394898Y-4085542D01*
X5394002Y-4087301D01*
X5389168Y-4096787D01*
X5389034Y-4097635D01*
X5389034Y-4097635D01*
X5387924Y-4104640D01*
X5387060Y-4110100D01*
X5387194Y-4110947D01*
X5389034Y-4122565D01*
X5389034Y-4122565D01*
X5389168Y-4123413D01*
X5395287Y-4135422D01*
X5404668Y-4144802D01*
X5407726Y-4150805D01*
X5406672Y-4157458D01*
X5401909Y-4162222D01*
X5396960Y-4163410D01*
X5344891Y-4163410D01*
X5338485Y-4161328D01*
X5334525Y-4155878D01*
X5334126Y-4150805D01*
X5335070Y-4144845D01*
X5335204Y-4143998D01*
X5334552Y-4139882D01*
X5333230Y-4131533D01*
X5333229Y-4131533D01*
X5333095Y-4130685D01*
X5326976Y-4118676D01*
X5317445Y-4109145D01*
X5305436Y-4103026D01*
X5304589Y-4102892D01*
X5304588Y-4102892D01*
X5292971Y-4101052D01*
X5292123Y-4100918D01*
X5291276Y-4101052D01*
X5279658Y-4102892D01*
X5279658Y-4102892D01*
X5278811Y-4103026D01*
X5266801Y-4109145D01*
X5257271Y-4118676D01*
X5251151Y-4130685D01*
X5251017Y-4131533D01*
X5251017Y-4131533D01*
X5249695Y-4139882D01*
X5249043Y-4143998D01*
X5249177Y-4144845D01*
X5250121Y-4150805D01*
X5249067Y-4157458D01*
X5244304Y-4162222D01*
X5239355Y-4163410D01*
X4411755Y-4163410D01*
X4405348Y-4161328D01*
X4401389Y-4155878D01*
X4401389Y-4149142D01*
X4405348Y-4143692D01*
X4406052Y-4143221D01*
X4406167Y-4143151D01*
X4413799Y-4138464D01*
X4423420Y-4127835D01*
X4429671Y-4114933D01*
X4431847Y-4102000D01*
X4431980Y-4101211D01*
X4431980Y-4101211D01*
X4432050Y-4100795D01*
X4432065Y-4099560D01*
X4430032Y-4085368D01*
X4424098Y-4072317D01*
X4421675Y-4069504D01*
X4419070Y-4063292D01*
X4420614Y-4056735D01*
X4425717Y-4052338D01*
X4428227Y-4051624D01*
X4437995Y-4050077D01*
X4446767Y-4045607D01*
X4449240Y-4044347D01*
X4449240Y-4044347D01*
X4450004Y-4043958D01*
X4454115Y-4039847D01*
X4460117Y-4036789D01*
X4461822Y-4036655D01*
X4494478Y-4036655D01*
X4496605Y-4036864D01*
X4498265Y-4037195D01*
X4499318Y-4036985D01*
X4499318Y-4036985D01*
X4500978Y-4036655D01*
X4500978Y-4036655D01*
X4500978Y-4036655D01*
X4509015Y-4035056D01*
X4514862Y-4031150D01*
X4515827Y-4030504D01*
X4516083Y-4030888D01*
X4516084Y-4030887D01*
X4515827Y-4030504D01*
X4517235Y-4029564D01*
X4518128Y-4028967D01*
X4518724Y-4028075D01*
X4518724Y-4028074D01*
X4519068Y-4027560D01*
X4520423Y-4025908D01*
X4595459Y-3950872D01*
X4601462Y-3947814D01*
X4603167Y-3947680D01*
X5164043Y-3947680D01*
X5170450Y-3949762D01*
G37*
G04 #@! TD.AperFunction*
M02*
