G04 #@! TF.GenerationSoftware,KiCad,Pcbnew,6.0.9-8da3e8f707~116~ubuntu22.04.1*
G04 #@! TF.CreationDate,2022-12-14T17:19:13+01:00*
G04 #@! TF.ProjectId,nRF52832_qfaa,6e524635-3238-4333-925f-716661612e6b,rev?*
G04 #@! TF.SameCoordinates,Original*
G04 #@! TF.FileFunction,Soldermask,Bot*
G04 #@! TF.FilePolarity,Negative*
%FSLAX45Y45*%
G04 Gerber Fmt 4.5, Leading zero omitted, Abs format (unit mm)*
G04 Created by KiCad (PCBNEW 6.0.9-8da3e8f707~116~ubuntu22.04.1) date 2022-12-14 17:19:13*
%MOMM*%
%LPD*%
G01*
G04 APERTURE LIST*
%ADD10C,1.111200*%
%ADD11C,1.000000*%
%ADD12C,0.850000*%
%ADD13R,2.400000X0.740000*%
G04 APERTURE END LIST*
D10*
X4745584Y-3644560D03*
X4745584Y-3524560D03*
X4745584Y-3404560D03*
X4745584Y-3284560D03*
X4625584Y-3644560D03*
X4625584Y-3524560D03*
X4625584Y-3404560D03*
X4625584Y-3284560D03*
X4505584Y-3644560D03*
X4505584Y-3524560D03*
X4505584Y-3404560D03*
X4505584Y-3284560D03*
X4385584Y-3644560D03*
X4385584Y-3524560D03*
X4385584Y-3404560D03*
X4385584Y-3284560D03*
D11*
X3096280Y-3533460D03*
X6789420Y-3540760D03*
D12*
X4051300Y-3022600D03*
D13*
X3410784Y-3790696D03*
X3800784Y-3790696D03*
X3410784Y-3663696D03*
X3800784Y-3663696D03*
X3410784Y-3536696D03*
X3800784Y-3536696D03*
X3410784Y-3409696D03*
X3800784Y-3409696D03*
X3410784Y-3282696D03*
X3800784Y-3282696D03*
D11*
X6196280Y-3133460D03*
X6896280Y-3708460D03*
X6896280Y-3358460D03*
X6196280Y-3433460D03*
X5057140Y-2974340D03*
X6753860Y-4043680D03*
X5656580Y-3329940D03*
X5976620Y-3919220D03*
X3797300Y-4076700D03*
X4000500Y-4071620D03*
X4988560Y-4081780D03*
X3472180Y-3017520D03*
X5257800Y-3098800D03*
X4655820Y-4079240D03*
X3581400Y-4076700D03*
X6316980Y-4008120D03*
X4381500Y-4099560D03*
X6703060Y-3723640D03*
X5547360Y-2992120D03*
X5588000Y-3939540D03*
X6667500Y-2971800D03*
X4815840Y-2966720D03*
M02*
