G04 #@! TF.GenerationSoftware,KiCad,Pcbnew,6.0.9-8da3e8f707~116~ubuntu22.04.1*
G04 #@! TF.CreationDate,2022-12-14T17:19:13+01:00*
G04 #@! TF.ProjectId,nRF52832_qfaa,6e524635-3238-4333-925f-716661612e6b,rev?*
G04 #@! TF.SameCoordinates,Original*
G04 #@! TF.FileFunction,Soldermask,Top*
G04 #@! TF.FilePolarity,Negative*
%FSLAX45Y45*%
G04 Gerber Fmt 4.5, Leading zero omitted, Abs format (unit mm)*
G04 Created by KiCad (PCBNEW 6.0.9-8da3e8f707~116~ubuntu22.04.1) date 2022-12-14 17:19:13*
%MOMM*%
%LPD*%
G01*
G04 APERTURE LIST*
G04 Aperture macros list*
%AMRoundRect*
0 Rectangle with rounded corners*
0 $1 Rounding radius*
0 $2 $3 $4 $5 $6 $7 $8 $9 X,Y pos of 4 corners*
0 Add a 4 corners polygon primitive as box body*
4,1,4,$2,$3,$4,$5,$6,$7,$8,$9,$2,$3,0*
0 Add four circle primitives for the rounded corners*
1,1,$1+$1,$2,$3*
1,1,$1+$1,$4,$5*
1,1,$1+$1,$6,$7*
1,1,$1+$1,$8,$9*
0 Add four rect primitives between the rounded corners*
20,1,$1+$1,$2,$3,$4,$5,0*
20,1,$1+$1,$4,$5,$6,$7,0*
20,1,$1+$1,$6,$7,$8,$9,0*
20,1,$1+$1,$8,$9,$2,$3,0*%
%AMHorizOval*
0 Thick line with rounded ends*
0 $1 width*
0 $2 $3 position (X,Y) of the first rounded end (center of the circle)*
0 $4 $5 position (X,Y) of the second rounded end (center of the circle)*
0 Add line between two ends*
20,1,$1,$2,$3,$4,$5,0*
0 Add two circle primitives to create the rounded ends*
1,1,$1,$2,$3*
1,1,$1,$4,$5*%
G04 Aperture macros list end*
%ADD10C,0.010000*%
%ADD11RoundRect,0.101600X-0.425000X0.475000X-0.425000X-0.475000X0.425000X-0.475000X0.425000X0.475000X0*%
%ADD12RoundRect,0.140000X0.170000X-0.140000X0.170000X0.140000X-0.170000X0.140000X-0.170000X-0.140000X0*%
%ADD13RoundRect,0.140000X0.140000X0.170000X-0.140000X0.170000X-0.140000X-0.170000X0.140000X-0.170000X0*%
%ADD14RoundRect,0.140000X-0.170000X0.140000X-0.170000X-0.140000X0.170000X-0.140000X0.170000X0.140000X0*%
%ADD15RoundRect,0.140000X-0.140000X-0.170000X0.140000X-0.170000X0.140000X0.170000X-0.140000X0.170000X0*%
%ADD16RoundRect,0.101600X-0.500000X-0.900000X0.500000X-0.900000X0.500000X0.900000X-0.500000X0.900000X0*%
%ADD17R,1.000000X0.800000*%
%ADD18R,0.500000X0.400000*%
%ADD19R,0.500000X0.300000*%
%ADD20RoundRect,0.147500X0.147500X0.172500X-0.147500X0.172500X-0.147500X-0.172500X0.147500X-0.172500X0*%
%ADD21RoundRect,0.062500X-0.062500X0.375000X-0.062500X-0.375000X0.062500X-0.375000X0.062500X0.375000X0*%
%ADD22RoundRect,0.062500X-0.375000X0.062500X-0.375000X-0.062500X0.375000X-0.062500X0.375000X0.062500X0*%
%ADD23R,1.450000X1.450000*%
%ADD24RoundRect,0.135000X0.135000X0.185000X-0.135000X0.185000X-0.135000X-0.185000X0.135000X-0.185000X0*%
%ADD25RoundRect,0.135000X-0.185000X0.135000X-0.185000X-0.135000X0.185000X-0.135000X0.185000X0.135000X0*%
%ADD26RoundRect,0.218750X-0.256250X0.218750X-0.256250X-0.218750X0.256250X-0.218750X0.256250X0.218750X0*%
%ADD27RoundRect,0.131600X0.295000X0.070000X-0.295000X0.070000X-0.295000X-0.070000X0.295000X-0.070000X0*%
%ADD28RoundRect,0.131600X-0.070000X0.295000X-0.070000X-0.295000X0.070000X-0.295000X0.070000X0.295000X0*%
%ADD29RoundRect,0.131600X-0.295000X-0.070000X0.295000X-0.070000X0.295000X0.070000X-0.295000X0.070000X0*%
%ADD30RoundRect,0.131600X0.070000X-0.295000X0.070000X0.295000X-0.070000X0.295000X-0.070000X-0.295000X0*%
%ADD31RoundRect,0.101600X2.350000X-2.350000X2.350000X2.350000X-2.350000X2.350000X-2.350000X-2.350000X0*%
%ADD32C,1.111200*%
%ADD33C,0.910000*%
%ADD34HorizOval,0.910000X0.100000X0.100000X-0.100000X-0.100000X0*%
%ADD35C,1.000000*%
%ADD36RoundRect,0.125000X-0.125000X0.250000X-0.125000X-0.250000X0.125000X-0.250000X0.125000X0.250000X0*%
%ADD37R,4.300000X3.400000*%
%ADD38RoundRect,0.135000X-0.135000X-0.185000X0.135000X-0.185000X0.135000X0.185000X-0.135000X0.185000X0*%
%ADD39R,1.000000X0.900000*%
%ADD40R,0.550000X1.700000*%
%ADD41RoundRect,0.135000X0.185000X-0.135000X0.185000X0.135000X-0.185000X0.135000X-0.185000X-0.135000X0*%
%ADD42C,0.850000*%
%ADD43RoundRect,0.250000X0.850000X-0.375000X0.850000X0.375000X-0.850000X0.375000X-0.850000X-0.375000X0*%
%ADD44RoundRect,0.225000X0.225000X0.250000X-0.225000X0.250000X-0.225000X-0.250000X0.225000X-0.250000X0*%
%ADD45R,0.800000X0.500000*%
%ADD46RoundRect,0.150000X-0.512500X-0.150000X0.512500X-0.150000X0.512500X0.150000X-0.512500X0.150000X0*%
G04 APERTURE END LIST*
G36*
X6664420Y-3725360D02*
G01*
X6665020Y-3725360D01*
X6665620Y-3725560D01*
X6666220Y-3725660D01*
X6668020Y-3726260D01*
X6668520Y-3726560D01*
X6669120Y-3726860D01*
X6669620Y-3727160D01*
X6670220Y-3727560D01*
X6670720Y-3727960D01*
X6671120Y-3728360D01*
X6671620Y-3728760D01*
X6672020Y-3729260D01*
X6672420Y-3729660D01*
X6672820Y-3730160D01*
X6673220Y-3730760D01*
X6673520Y-3731260D01*
X6673820Y-3731860D01*
X6674120Y-3732360D01*
X6674720Y-3734160D01*
X6674820Y-3734760D01*
X6675020Y-3735360D01*
X6675020Y-3735960D01*
X6675120Y-3736660D01*
X6675120Y-3752860D01*
X6675020Y-3753560D01*
X6675020Y-3754160D01*
X6674820Y-3754760D01*
X6674720Y-3755360D01*
X6674120Y-3757160D01*
X6673820Y-3757660D01*
X6673520Y-3758260D01*
X6673220Y-3758760D01*
X6672820Y-3759360D01*
X6672420Y-3759860D01*
X6672020Y-3760260D01*
X6671620Y-3760760D01*
X6671120Y-3761160D01*
X6670720Y-3761560D01*
X6670220Y-3761960D01*
X6669620Y-3762360D01*
X6669120Y-3762660D01*
X6668520Y-3762960D01*
X6668020Y-3763260D01*
X6666220Y-3763860D01*
X6665620Y-3763960D01*
X6665020Y-3764160D01*
X6664420Y-3764160D01*
X6663720Y-3764260D01*
X6582520Y-3764260D01*
X6581820Y-3764160D01*
X6581220Y-3764160D01*
X6580620Y-3763960D01*
X6580020Y-3763860D01*
X6578220Y-3763260D01*
X6577720Y-3762960D01*
X6577120Y-3762660D01*
X6576620Y-3762360D01*
X6576020Y-3761960D01*
X6575520Y-3761560D01*
X6575120Y-3761160D01*
X6574620Y-3760760D01*
X6574220Y-3760260D01*
X6573820Y-3759860D01*
X6573420Y-3759360D01*
X6573020Y-3758760D01*
X6572720Y-3758260D01*
X6572420Y-3757660D01*
X6572120Y-3757160D01*
X6571520Y-3755360D01*
X6571420Y-3754760D01*
X6571220Y-3754160D01*
X6571220Y-3753560D01*
X6571120Y-3752860D01*
X6571120Y-3736660D01*
X6571220Y-3735960D01*
X6571220Y-3735360D01*
X6571420Y-3734760D01*
X6571520Y-3734160D01*
X6572120Y-3732360D01*
X6572420Y-3731860D01*
X6572720Y-3731260D01*
X6573020Y-3730760D01*
X6573420Y-3730160D01*
X6573820Y-3729660D01*
X6574220Y-3729260D01*
X6574620Y-3728760D01*
X6575120Y-3728360D01*
X6575520Y-3727960D01*
X6576020Y-3727560D01*
X6576620Y-3727160D01*
X6577120Y-3726860D01*
X6577720Y-3726560D01*
X6578220Y-3726260D01*
X6580020Y-3725660D01*
X6580620Y-3725560D01*
X6581220Y-3725360D01*
X6581820Y-3725360D01*
X6582520Y-3725260D01*
X6663720Y-3725260D01*
X6664420Y-3725360D01*
G37*
D10*
X6664420Y-3725360D02*
X6665020Y-3725360D01*
X6665620Y-3725560D01*
X6666220Y-3725660D01*
X6668020Y-3726260D01*
X6668520Y-3726560D01*
X6669120Y-3726860D01*
X6669620Y-3727160D01*
X6670220Y-3727560D01*
X6670720Y-3727960D01*
X6671120Y-3728360D01*
X6671620Y-3728760D01*
X6672020Y-3729260D01*
X6672420Y-3729660D01*
X6672820Y-3730160D01*
X6673220Y-3730760D01*
X6673520Y-3731260D01*
X6673820Y-3731860D01*
X6674120Y-3732360D01*
X6674720Y-3734160D01*
X6674820Y-3734760D01*
X6675020Y-3735360D01*
X6675020Y-3735960D01*
X6675120Y-3736660D01*
X6675120Y-3752860D01*
X6675020Y-3753560D01*
X6675020Y-3754160D01*
X6674820Y-3754760D01*
X6674720Y-3755360D01*
X6674120Y-3757160D01*
X6673820Y-3757660D01*
X6673520Y-3758260D01*
X6673220Y-3758760D01*
X6672820Y-3759360D01*
X6672420Y-3759860D01*
X6672020Y-3760260D01*
X6671620Y-3760760D01*
X6671120Y-3761160D01*
X6670720Y-3761560D01*
X6670220Y-3761960D01*
X6669620Y-3762360D01*
X6669120Y-3762660D01*
X6668520Y-3762960D01*
X6668020Y-3763260D01*
X6666220Y-3763860D01*
X6665620Y-3763960D01*
X6665020Y-3764160D01*
X6664420Y-3764160D01*
X6663720Y-3764260D01*
X6582520Y-3764260D01*
X6581820Y-3764160D01*
X6581220Y-3764160D01*
X6580620Y-3763960D01*
X6580020Y-3763860D01*
X6578220Y-3763260D01*
X6577720Y-3762960D01*
X6577120Y-3762660D01*
X6576620Y-3762360D01*
X6576020Y-3761960D01*
X6575520Y-3761560D01*
X6575120Y-3761160D01*
X6574620Y-3760760D01*
X6574220Y-3760260D01*
X6573820Y-3759860D01*
X6573420Y-3759360D01*
X6573020Y-3758760D01*
X6572720Y-3758260D01*
X6572420Y-3757660D01*
X6572120Y-3757160D01*
X6571520Y-3755360D01*
X6571420Y-3754760D01*
X6571220Y-3754160D01*
X6571220Y-3753560D01*
X6571120Y-3752860D01*
X6571120Y-3736660D01*
X6571220Y-3735960D01*
X6571220Y-3735360D01*
X6571420Y-3734760D01*
X6571520Y-3734160D01*
X6572120Y-3732360D01*
X6572420Y-3731860D01*
X6572720Y-3731260D01*
X6573020Y-3730760D01*
X6573420Y-3730160D01*
X6573820Y-3729660D01*
X6574220Y-3729260D01*
X6574620Y-3728760D01*
X6575120Y-3728360D01*
X6575520Y-3727960D01*
X6576020Y-3727560D01*
X6576620Y-3727160D01*
X6577120Y-3726860D01*
X6577720Y-3726560D01*
X6578220Y-3726260D01*
X6580020Y-3725660D01*
X6580620Y-3725560D01*
X6581220Y-3725360D01*
X6581820Y-3725360D01*
X6582520Y-3725260D01*
X6663720Y-3725260D01*
X6664420Y-3725360D01*
G36*
X6484420Y-3675360D02*
G01*
X6485020Y-3675360D01*
X6485620Y-3675560D01*
X6486220Y-3675660D01*
X6488020Y-3676260D01*
X6488520Y-3676560D01*
X6489120Y-3676860D01*
X6489620Y-3677160D01*
X6490220Y-3677560D01*
X6490720Y-3677960D01*
X6491120Y-3678360D01*
X6491620Y-3678760D01*
X6492020Y-3679260D01*
X6492420Y-3679660D01*
X6492820Y-3680160D01*
X6493220Y-3680760D01*
X6493520Y-3681260D01*
X6493820Y-3681860D01*
X6494120Y-3682360D01*
X6494720Y-3684160D01*
X6494820Y-3684760D01*
X6495020Y-3685360D01*
X6495020Y-3685960D01*
X6495120Y-3686660D01*
X6495120Y-3702860D01*
X6495020Y-3703560D01*
X6495020Y-3704160D01*
X6494820Y-3704760D01*
X6494720Y-3705360D01*
X6494120Y-3707160D01*
X6493820Y-3707660D01*
X6493520Y-3708260D01*
X6493220Y-3708760D01*
X6492820Y-3709360D01*
X6492420Y-3709860D01*
X6492020Y-3710260D01*
X6491620Y-3710760D01*
X6491120Y-3711160D01*
X6490720Y-3711560D01*
X6490220Y-3711960D01*
X6489620Y-3712360D01*
X6489120Y-3712660D01*
X6488520Y-3712960D01*
X6488020Y-3713260D01*
X6486220Y-3713860D01*
X6485620Y-3713960D01*
X6485020Y-3714160D01*
X6484420Y-3714160D01*
X6483720Y-3714260D01*
X6432520Y-3714260D01*
X6431820Y-3714160D01*
X6431220Y-3714160D01*
X6430620Y-3713960D01*
X6430020Y-3713860D01*
X6428220Y-3713260D01*
X6427720Y-3712960D01*
X6427120Y-3712660D01*
X6426620Y-3712360D01*
X6426020Y-3711960D01*
X6425520Y-3711560D01*
X6425120Y-3711160D01*
X6424620Y-3710760D01*
X6424220Y-3710260D01*
X6423820Y-3709860D01*
X6423420Y-3709360D01*
X6423020Y-3708760D01*
X6422720Y-3708260D01*
X6422420Y-3707660D01*
X6422120Y-3707160D01*
X6421520Y-3705360D01*
X6421420Y-3704760D01*
X6421220Y-3704160D01*
X6421220Y-3703560D01*
X6421120Y-3702860D01*
X6421120Y-3686660D01*
X6421220Y-3685960D01*
X6421220Y-3685360D01*
X6421420Y-3684760D01*
X6421520Y-3684160D01*
X6422120Y-3682360D01*
X6422420Y-3681860D01*
X6422720Y-3681260D01*
X6423020Y-3680760D01*
X6423420Y-3680160D01*
X6423820Y-3679660D01*
X6424220Y-3679260D01*
X6424620Y-3678760D01*
X6425120Y-3678360D01*
X6425520Y-3677960D01*
X6426020Y-3677560D01*
X6426620Y-3677160D01*
X6427120Y-3676860D01*
X6427720Y-3676560D01*
X6428220Y-3676260D01*
X6430020Y-3675660D01*
X6430620Y-3675560D01*
X6431220Y-3675360D01*
X6431820Y-3675360D01*
X6432520Y-3675260D01*
X6483720Y-3675260D01*
X6484420Y-3675360D01*
G37*
X6484420Y-3675360D02*
X6485020Y-3675360D01*
X6485620Y-3675560D01*
X6486220Y-3675660D01*
X6488020Y-3676260D01*
X6488520Y-3676560D01*
X6489120Y-3676860D01*
X6489620Y-3677160D01*
X6490220Y-3677560D01*
X6490720Y-3677960D01*
X6491120Y-3678360D01*
X6491620Y-3678760D01*
X6492020Y-3679260D01*
X6492420Y-3679660D01*
X6492820Y-3680160D01*
X6493220Y-3680760D01*
X6493520Y-3681260D01*
X6493820Y-3681860D01*
X6494120Y-3682360D01*
X6494720Y-3684160D01*
X6494820Y-3684760D01*
X6495020Y-3685360D01*
X6495020Y-3685960D01*
X6495120Y-3686660D01*
X6495120Y-3702860D01*
X6495020Y-3703560D01*
X6495020Y-3704160D01*
X6494820Y-3704760D01*
X6494720Y-3705360D01*
X6494120Y-3707160D01*
X6493820Y-3707660D01*
X6493520Y-3708260D01*
X6493220Y-3708760D01*
X6492820Y-3709360D01*
X6492420Y-3709860D01*
X6492020Y-3710260D01*
X6491620Y-3710760D01*
X6491120Y-3711160D01*
X6490720Y-3711560D01*
X6490220Y-3711960D01*
X6489620Y-3712360D01*
X6489120Y-3712660D01*
X6488520Y-3712960D01*
X6488020Y-3713260D01*
X6486220Y-3713860D01*
X6485620Y-3713960D01*
X6485020Y-3714160D01*
X6484420Y-3714160D01*
X6483720Y-3714260D01*
X6432520Y-3714260D01*
X6431820Y-3714160D01*
X6431220Y-3714160D01*
X6430620Y-3713960D01*
X6430020Y-3713860D01*
X6428220Y-3713260D01*
X6427720Y-3712960D01*
X6427120Y-3712660D01*
X6426620Y-3712360D01*
X6426020Y-3711960D01*
X6425520Y-3711560D01*
X6425120Y-3711160D01*
X6424620Y-3710760D01*
X6424220Y-3710260D01*
X6423820Y-3709860D01*
X6423420Y-3709360D01*
X6423020Y-3708760D01*
X6422720Y-3708260D01*
X6422420Y-3707660D01*
X6422120Y-3707160D01*
X6421520Y-3705360D01*
X6421420Y-3704760D01*
X6421220Y-3704160D01*
X6421220Y-3703560D01*
X6421120Y-3702860D01*
X6421120Y-3686660D01*
X6421220Y-3685960D01*
X6421220Y-3685360D01*
X6421420Y-3684760D01*
X6421520Y-3684160D01*
X6422120Y-3682360D01*
X6422420Y-3681860D01*
X6422720Y-3681260D01*
X6423020Y-3680760D01*
X6423420Y-3680160D01*
X6423820Y-3679660D01*
X6424220Y-3679260D01*
X6424620Y-3678760D01*
X6425120Y-3678360D01*
X6425520Y-3677960D01*
X6426020Y-3677560D01*
X6426620Y-3677160D01*
X6427120Y-3676860D01*
X6427720Y-3676560D01*
X6428220Y-3676260D01*
X6430020Y-3675660D01*
X6430620Y-3675560D01*
X6431220Y-3675360D01*
X6431820Y-3675360D01*
X6432520Y-3675260D01*
X6483720Y-3675260D01*
X6484420Y-3675360D01*
G36*
X6484420Y-3725360D02*
G01*
X6485020Y-3725360D01*
X6485620Y-3725560D01*
X6486220Y-3725660D01*
X6488020Y-3726260D01*
X6488520Y-3726560D01*
X6489120Y-3726860D01*
X6489620Y-3727160D01*
X6490220Y-3727560D01*
X6490720Y-3727960D01*
X6491120Y-3728360D01*
X6491620Y-3728760D01*
X6492020Y-3729260D01*
X6492420Y-3729660D01*
X6492820Y-3730160D01*
X6493220Y-3730760D01*
X6493520Y-3731260D01*
X6493820Y-3731860D01*
X6494120Y-3732360D01*
X6494720Y-3734160D01*
X6494820Y-3734760D01*
X6495020Y-3735360D01*
X6495020Y-3735960D01*
X6495120Y-3736660D01*
X6495120Y-3752860D01*
X6495020Y-3753560D01*
X6495020Y-3754160D01*
X6494820Y-3754760D01*
X6494720Y-3755360D01*
X6494120Y-3757160D01*
X6493820Y-3757660D01*
X6493520Y-3758260D01*
X6493220Y-3758760D01*
X6492820Y-3759360D01*
X6492420Y-3759860D01*
X6492020Y-3760260D01*
X6491620Y-3760760D01*
X6491120Y-3761160D01*
X6490720Y-3761560D01*
X6490220Y-3761960D01*
X6489620Y-3762360D01*
X6489120Y-3762660D01*
X6488520Y-3762960D01*
X6488020Y-3763260D01*
X6486220Y-3763860D01*
X6485620Y-3763960D01*
X6485020Y-3764160D01*
X6484420Y-3764160D01*
X6483720Y-3764260D01*
X6432520Y-3764260D01*
X6431820Y-3764160D01*
X6431220Y-3764160D01*
X6430620Y-3763960D01*
X6430020Y-3763860D01*
X6428220Y-3763260D01*
X6427720Y-3762960D01*
X6427120Y-3762660D01*
X6426620Y-3762360D01*
X6426020Y-3761960D01*
X6425520Y-3761560D01*
X6425120Y-3761160D01*
X6424620Y-3760760D01*
X6424220Y-3760260D01*
X6423820Y-3759860D01*
X6423420Y-3759360D01*
X6423020Y-3758760D01*
X6422720Y-3758260D01*
X6422420Y-3757660D01*
X6422120Y-3757160D01*
X6421520Y-3755360D01*
X6421420Y-3754760D01*
X6421220Y-3754160D01*
X6421220Y-3753560D01*
X6421120Y-3752860D01*
X6421120Y-3736660D01*
X6421220Y-3735960D01*
X6421220Y-3735360D01*
X6421420Y-3734760D01*
X6421520Y-3734160D01*
X6422120Y-3732360D01*
X6422420Y-3731860D01*
X6422720Y-3731260D01*
X6423020Y-3730760D01*
X6423420Y-3730160D01*
X6423820Y-3729660D01*
X6424220Y-3729260D01*
X6424620Y-3728760D01*
X6425120Y-3728360D01*
X6425520Y-3727960D01*
X6426020Y-3727560D01*
X6426620Y-3727160D01*
X6427120Y-3726860D01*
X6427720Y-3726560D01*
X6428220Y-3726260D01*
X6430020Y-3725660D01*
X6430620Y-3725560D01*
X6431220Y-3725360D01*
X6431820Y-3725360D01*
X6432520Y-3725260D01*
X6483720Y-3725260D01*
X6484420Y-3725360D01*
G37*
X6484420Y-3725360D02*
X6485020Y-3725360D01*
X6485620Y-3725560D01*
X6486220Y-3725660D01*
X6488020Y-3726260D01*
X6488520Y-3726560D01*
X6489120Y-3726860D01*
X6489620Y-3727160D01*
X6490220Y-3727560D01*
X6490720Y-3727960D01*
X6491120Y-3728360D01*
X6491620Y-3728760D01*
X6492020Y-3729260D01*
X6492420Y-3729660D01*
X6492820Y-3730160D01*
X6493220Y-3730760D01*
X6493520Y-3731260D01*
X6493820Y-3731860D01*
X6494120Y-3732360D01*
X6494720Y-3734160D01*
X6494820Y-3734760D01*
X6495020Y-3735360D01*
X6495020Y-3735960D01*
X6495120Y-3736660D01*
X6495120Y-3752860D01*
X6495020Y-3753560D01*
X6495020Y-3754160D01*
X6494820Y-3754760D01*
X6494720Y-3755360D01*
X6494120Y-3757160D01*
X6493820Y-3757660D01*
X6493520Y-3758260D01*
X6493220Y-3758760D01*
X6492820Y-3759360D01*
X6492420Y-3759860D01*
X6492020Y-3760260D01*
X6491620Y-3760760D01*
X6491120Y-3761160D01*
X6490720Y-3761560D01*
X6490220Y-3761960D01*
X6489620Y-3762360D01*
X6489120Y-3762660D01*
X6488520Y-3762960D01*
X6488020Y-3763260D01*
X6486220Y-3763860D01*
X6485620Y-3763960D01*
X6485020Y-3764160D01*
X6484420Y-3764160D01*
X6483720Y-3764260D01*
X6432520Y-3764260D01*
X6431820Y-3764160D01*
X6431220Y-3764160D01*
X6430620Y-3763960D01*
X6430020Y-3763860D01*
X6428220Y-3763260D01*
X6427720Y-3762960D01*
X6427120Y-3762660D01*
X6426620Y-3762360D01*
X6426020Y-3761960D01*
X6425520Y-3761560D01*
X6425120Y-3761160D01*
X6424620Y-3760760D01*
X6424220Y-3760260D01*
X6423820Y-3759860D01*
X6423420Y-3759360D01*
X6423020Y-3758760D01*
X6422720Y-3758260D01*
X6422420Y-3757660D01*
X6422120Y-3757160D01*
X6421520Y-3755360D01*
X6421420Y-3754760D01*
X6421220Y-3754160D01*
X6421220Y-3753560D01*
X6421120Y-3752860D01*
X6421120Y-3736660D01*
X6421220Y-3735960D01*
X6421220Y-3735360D01*
X6421420Y-3734760D01*
X6421520Y-3734160D01*
X6422120Y-3732360D01*
X6422420Y-3731860D01*
X6422720Y-3731260D01*
X6423020Y-3730760D01*
X6423420Y-3730160D01*
X6423820Y-3729660D01*
X6424220Y-3729260D01*
X6424620Y-3728760D01*
X6425120Y-3728360D01*
X6425520Y-3727960D01*
X6426020Y-3727560D01*
X6426620Y-3727160D01*
X6427120Y-3726860D01*
X6427720Y-3726560D01*
X6428220Y-3726260D01*
X6430020Y-3725660D01*
X6430620Y-3725560D01*
X6431220Y-3725360D01*
X6431820Y-3725360D01*
X6432520Y-3725260D01*
X6483720Y-3725260D01*
X6484420Y-3725360D01*
G36*
X6664420Y-3675360D02*
G01*
X6665020Y-3675360D01*
X6665620Y-3675560D01*
X6666220Y-3675660D01*
X6668020Y-3676260D01*
X6668520Y-3676560D01*
X6669120Y-3676860D01*
X6669620Y-3677160D01*
X6670220Y-3677560D01*
X6670720Y-3677960D01*
X6671120Y-3678360D01*
X6671620Y-3678760D01*
X6672020Y-3679260D01*
X6672420Y-3679660D01*
X6672820Y-3680160D01*
X6673220Y-3680760D01*
X6673520Y-3681260D01*
X6673820Y-3681860D01*
X6674120Y-3682360D01*
X6674720Y-3684160D01*
X6674820Y-3684760D01*
X6675020Y-3685360D01*
X6675020Y-3685960D01*
X6675120Y-3686660D01*
X6675120Y-3702860D01*
X6675020Y-3703560D01*
X6675020Y-3704160D01*
X6674820Y-3704760D01*
X6674720Y-3705360D01*
X6674120Y-3707160D01*
X6673820Y-3707660D01*
X6673520Y-3708260D01*
X6673220Y-3708760D01*
X6672820Y-3709360D01*
X6672420Y-3709860D01*
X6672020Y-3710260D01*
X6671620Y-3710760D01*
X6671120Y-3711160D01*
X6670720Y-3711560D01*
X6670220Y-3711960D01*
X6669620Y-3712360D01*
X6669120Y-3712660D01*
X6668520Y-3712960D01*
X6668020Y-3713260D01*
X6666220Y-3713860D01*
X6665620Y-3713960D01*
X6665020Y-3714160D01*
X6664420Y-3714160D01*
X6663720Y-3714260D01*
X6582520Y-3714260D01*
X6581820Y-3714160D01*
X6581220Y-3714160D01*
X6580620Y-3713960D01*
X6580020Y-3713860D01*
X6578220Y-3713260D01*
X6577720Y-3712960D01*
X6577120Y-3712660D01*
X6576620Y-3712360D01*
X6576020Y-3711960D01*
X6575520Y-3711560D01*
X6575120Y-3711160D01*
X6574620Y-3710760D01*
X6574220Y-3710260D01*
X6573820Y-3709860D01*
X6573420Y-3709360D01*
X6573020Y-3708760D01*
X6572720Y-3708260D01*
X6572420Y-3707660D01*
X6572120Y-3707160D01*
X6571520Y-3705360D01*
X6571420Y-3704760D01*
X6571220Y-3704160D01*
X6571220Y-3703560D01*
X6571120Y-3702860D01*
X6571120Y-3686660D01*
X6571220Y-3685960D01*
X6571220Y-3685360D01*
X6571420Y-3684760D01*
X6571520Y-3684160D01*
X6572120Y-3682360D01*
X6572420Y-3681860D01*
X6572720Y-3681260D01*
X6573020Y-3680760D01*
X6573420Y-3680160D01*
X6573820Y-3679660D01*
X6574220Y-3679260D01*
X6574620Y-3678760D01*
X6575120Y-3678360D01*
X6575520Y-3677960D01*
X6576020Y-3677560D01*
X6576620Y-3677160D01*
X6577120Y-3676860D01*
X6577720Y-3676560D01*
X6578220Y-3676260D01*
X6580020Y-3675660D01*
X6580620Y-3675560D01*
X6581220Y-3675360D01*
X6581820Y-3675360D01*
X6582520Y-3675260D01*
X6663720Y-3675260D01*
X6664420Y-3675360D01*
G37*
X6664420Y-3675360D02*
X6665020Y-3675360D01*
X6665620Y-3675560D01*
X6666220Y-3675660D01*
X6668020Y-3676260D01*
X6668520Y-3676560D01*
X6669120Y-3676860D01*
X6669620Y-3677160D01*
X6670220Y-3677560D01*
X6670720Y-3677960D01*
X6671120Y-3678360D01*
X6671620Y-3678760D01*
X6672020Y-3679260D01*
X6672420Y-3679660D01*
X6672820Y-3680160D01*
X6673220Y-3680760D01*
X6673520Y-3681260D01*
X6673820Y-3681860D01*
X6674120Y-3682360D01*
X6674720Y-3684160D01*
X6674820Y-3684760D01*
X6675020Y-3685360D01*
X6675020Y-3685960D01*
X6675120Y-3686660D01*
X6675120Y-3702860D01*
X6675020Y-3703560D01*
X6675020Y-3704160D01*
X6674820Y-3704760D01*
X6674720Y-3705360D01*
X6674120Y-3707160D01*
X6673820Y-3707660D01*
X6673520Y-3708260D01*
X6673220Y-3708760D01*
X6672820Y-3709360D01*
X6672420Y-3709860D01*
X6672020Y-3710260D01*
X6671620Y-3710760D01*
X6671120Y-3711160D01*
X6670720Y-3711560D01*
X6670220Y-3711960D01*
X6669620Y-3712360D01*
X6669120Y-3712660D01*
X6668520Y-3712960D01*
X6668020Y-3713260D01*
X6666220Y-3713860D01*
X6665620Y-3713960D01*
X6665020Y-3714160D01*
X6664420Y-3714160D01*
X6663720Y-3714260D01*
X6582520Y-3714260D01*
X6581820Y-3714160D01*
X6581220Y-3714160D01*
X6580620Y-3713960D01*
X6580020Y-3713860D01*
X6578220Y-3713260D01*
X6577720Y-3712960D01*
X6577120Y-3712660D01*
X6576620Y-3712360D01*
X6576020Y-3711960D01*
X6575520Y-3711560D01*
X6575120Y-3711160D01*
X6574620Y-3710760D01*
X6574220Y-3710260D01*
X6573820Y-3709860D01*
X6573420Y-3709360D01*
X6573020Y-3708760D01*
X6572720Y-3708260D01*
X6572420Y-3707660D01*
X6572120Y-3707160D01*
X6571520Y-3705360D01*
X6571420Y-3704760D01*
X6571220Y-3704160D01*
X6571220Y-3703560D01*
X6571120Y-3702860D01*
X6571120Y-3686660D01*
X6571220Y-3685960D01*
X6571220Y-3685360D01*
X6571420Y-3684760D01*
X6571520Y-3684160D01*
X6572120Y-3682360D01*
X6572420Y-3681860D01*
X6572720Y-3681260D01*
X6573020Y-3680760D01*
X6573420Y-3680160D01*
X6573820Y-3679660D01*
X6574220Y-3679260D01*
X6574620Y-3678760D01*
X6575120Y-3678360D01*
X6575520Y-3677960D01*
X6576020Y-3677560D01*
X6576620Y-3677160D01*
X6577120Y-3676860D01*
X6577720Y-3676560D01*
X6578220Y-3676260D01*
X6580020Y-3675660D01*
X6580620Y-3675560D01*
X6581220Y-3675360D01*
X6581820Y-3675360D01*
X6582520Y-3675260D01*
X6663720Y-3675260D01*
X6664420Y-3675360D01*
G36*
X6664420Y-3775360D02*
G01*
X6665020Y-3775360D01*
X6665620Y-3775560D01*
X6666220Y-3775660D01*
X6668020Y-3776260D01*
X6668520Y-3776560D01*
X6669120Y-3776860D01*
X6669620Y-3777160D01*
X6670220Y-3777560D01*
X6670720Y-3777960D01*
X6671120Y-3778360D01*
X6671620Y-3778760D01*
X6672020Y-3779260D01*
X6672420Y-3779660D01*
X6672820Y-3780160D01*
X6673220Y-3780760D01*
X6673520Y-3781260D01*
X6673820Y-3781860D01*
X6674120Y-3782360D01*
X6674720Y-3784160D01*
X6674820Y-3784760D01*
X6675020Y-3785360D01*
X6675020Y-3785960D01*
X6675120Y-3786660D01*
X6675120Y-3802860D01*
X6675020Y-3803560D01*
X6675020Y-3804160D01*
X6674820Y-3804760D01*
X6674720Y-3805360D01*
X6674120Y-3807160D01*
X6673820Y-3807660D01*
X6673520Y-3808260D01*
X6673220Y-3808760D01*
X6672820Y-3809360D01*
X6672420Y-3809860D01*
X6672020Y-3810260D01*
X6671620Y-3810760D01*
X6671120Y-3811160D01*
X6670720Y-3811560D01*
X6670220Y-3811960D01*
X6669620Y-3812360D01*
X6669120Y-3812660D01*
X6668520Y-3812960D01*
X6668020Y-3813260D01*
X6666220Y-3813860D01*
X6665620Y-3813960D01*
X6665020Y-3814160D01*
X6664420Y-3814160D01*
X6663720Y-3814260D01*
X6542520Y-3814260D01*
X6541820Y-3814160D01*
X6541220Y-3814160D01*
X6540620Y-3813960D01*
X6540020Y-3813860D01*
X6538220Y-3813260D01*
X6537720Y-3812960D01*
X6537120Y-3812660D01*
X6536620Y-3812360D01*
X6536020Y-3811960D01*
X6535520Y-3811560D01*
X6535120Y-3811160D01*
X6534620Y-3810760D01*
X6534220Y-3810260D01*
X6533820Y-3809860D01*
X6533420Y-3809360D01*
X6533020Y-3808760D01*
X6532720Y-3808260D01*
X6532420Y-3807660D01*
X6532120Y-3807160D01*
X6531520Y-3805360D01*
X6531420Y-3804760D01*
X6531220Y-3804160D01*
X6531220Y-3803560D01*
X6531120Y-3802860D01*
X6531120Y-3786660D01*
X6531220Y-3785960D01*
X6531220Y-3785360D01*
X6531420Y-3784760D01*
X6531520Y-3784160D01*
X6532120Y-3782360D01*
X6532420Y-3781860D01*
X6532720Y-3781260D01*
X6533020Y-3780760D01*
X6533420Y-3780160D01*
X6533820Y-3779660D01*
X6534220Y-3779260D01*
X6534620Y-3778760D01*
X6535120Y-3778360D01*
X6535520Y-3777960D01*
X6536020Y-3777560D01*
X6536620Y-3777160D01*
X6537120Y-3776860D01*
X6537720Y-3776560D01*
X6538220Y-3776260D01*
X6540020Y-3775660D01*
X6540620Y-3775560D01*
X6541220Y-3775360D01*
X6541820Y-3775360D01*
X6542520Y-3775260D01*
X6663720Y-3775260D01*
X6664420Y-3775360D01*
G37*
X6664420Y-3775360D02*
X6665020Y-3775360D01*
X6665620Y-3775560D01*
X6666220Y-3775660D01*
X6668020Y-3776260D01*
X6668520Y-3776560D01*
X6669120Y-3776860D01*
X6669620Y-3777160D01*
X6670220Y-3777560D01*
X6670720Y-3777960D01*
X6671120Y-3778360D01*
X6671620Y-3778760D01*
X6672020Y-3779260D01*
X6672420Y-3779660D01*
X6672820Y-3780160D01*
X6673220Y-3780760D01*
X6673520Y-3781260D01*
X6673820Y-3781860D01*
X6674120Y-3782360D01*
X6674720Y-3784160D01*
X6674820Y-3784760D01*
X6675020Y-3785360D01*
X6675020Y-3785960D01*
X6675120Y-3786660D01*
X6675120Y-3802860D01*
X6675020Y-3803560D01*
X6675020Y-3804160D01*
X6674820Y-3804760D01*
X6674720Y-3805360D01*
X6674120Y-3807160D01*
X6673820Y-3807660D01*
X6673520Y-3808260D01*
X6673220Y-3808760D01*
X6672820Y-3809360D01*
X6672420Y-3809860D01*
X6672020Y-3810260D01*
X6671620Y-3810760D01*
X6671120Y-3811160D01*
X6670720Y-3811560D01*
X6670220Y-3811960D01*
X6669620Y-3812360D01*
X6669120Y-3812660D01*
X6668520Y-3812960D01*
X6668020Y-3813260D01*
X6666220Y-3813860D01*
X6665620Y-3813960D01*
X6665020Y-3814160D01*
X6664420Y-3814160D01*
X6663720Y-3814260D01*
X6542520Y-3814260D01*
X6541820Y-3814160D01*
X6541220Y-3814160D01*
X6540620Y-3813960D01*
X6540020Y-3813860D01*
X6538220Y-3813260D01*
X6537720Y-3812960D01*
X6537120Y-3812660D01*
X6536620Y-3812360D01*
X6536020Y-3811960D01*
X6535520Y-3811560D01*
X6535120Y-3811160D01*
X6534620Y-3810760D01*
X6534220Y-3810260D01*
X6533820Y-3809860D01*
X6533420Y-3809360D01*
X6533020Y-3808760D01*
X6532720Y-3808260D01*
X6532420Y-3807660D01*
X6532120Y-3807160D01*
X6531520Y-3805360D01*
X6531420Y-3804760D01*
X6531220Y-3804160D01*
X6531220Y-3803560D01*
X6531120Y-3802860D01*
X6531120Y-3786660D01*
X6531220Y-3785960D01*
X6531220Y-3785360D01*
X6531420Y-3784760D01*
X6531520Y-3784160D01*
X6532120Y-3782360D01*
X6532420Y-3781860D01*
X6532720Y-3781260D01*
X6533020Y-3780760D01*
X6533420Y-3780160D01*
X6533820Y-3779660D01*
X6534220Y-3779260D01*
X6534620Y-3778760D01*
X6535120Y-3778360D01*
X6535520Y-3777960D01*
X6536020Y-3777560D01*
X6536620Y-3777160D01*
X6537120Y-3776860D01*
X6537720Y-3776560D01*
X6538220Y-3776260D01*
X6540020Y-3775660D01*
X6540620Y-3775560D01*
X6541220Y-3775360D01*
X6541820Y-3775360D01*
X6542520Y-3775260D01*
X6663720Y-3775260D01*
X6664420Y-3775360D01*
G36*
X6484420Y-3775360D02*
G01*
X6485020Y-3775360D01*
X6485620Y-3775560D01*
X6486220Y-3775660D01*
X6488020Y-3776260D01*
X6488520Y-3776560D01*
X6489120Y-3776860D01*
X6489620Y-3777160D01*
X6490220Y-3777560D01*
X6490720Y-3777960D01*
X6491120Y-3778360D01*
X6491620Y-3778760D01*
X6492020Y-3779260D01*
X6492420Y-3779660D01*
X6492820Y-3780160D01*
X6493220Y-3780760D01*
X6493520Y-3781260D01*
X6493820Y-3781860D01*
X6494120Y-3782360D01*
X6494720Y-3784160D01*
X6494820Y-3784760D01*
X6495020Y-3785360D01*
X6495020Y-3785960D01*
X6495120Y-3786660D01*
X6495120Y-3802860D01*
X6495020Y-3803560D01*
X6495020Y-3804160D01*
X6494820Y-3804760D01*
X6494720Y-3805360D01*
X6494120Y-3807160D01*
X6493820Y-3807660D01*
X6493520Y-3808260D01*
X6493220Y-3808760D01*
X6492820Y-3809360D01*
X6492420Y-3809860D01*
X6492020Y-3810260D01*
X6491620Y-3810760D01*
X6491120Y-3811160D01*
X6490720Y-3811560D01*
X6490220Y-3811960D01*
X6489620Y-3812360D01*
X6489120Y-3812660D01*
X6488520Y-3812960D01*
X6488020Y-3813260D01*
X6486220Y-3813860D01*
X6485620Y-3813960D01*
X6485020Y-3814160D01*
X6484420Y-3814160D01*
X6483720Y-3814260D01*
X6432520Y-3814260D01*
X6431820Y-3814160D01*
X6431220Y-3814160D01*
X6430620Y-3813960D01*
X6430020Y-3813860D01*
X6428220Y-3813260D01*
X6427720Y-3812960D01*
X6427120Y-3812660D01*
X6426620Y-3812360D01*
X6426020Y-3811960D01*
X6425520Y-3811560D01*
X6425120Y-3811160D01*
X6424620Y-3810760D01*
X6424220Y-3810260D01*
X6423820Y-3809860D01*
X6423420Y-3809360D01*
X6423020Y-3808760D01*
X6422720Y-3808260D01*
X6422420Y-3807660D01*
X6422120Y-3807160D01*
X6421520Y-3805360D01*
X6421420Y-3804760D01*
X6421220Y-3804160D01*
X6421220Y-3803560D01*
X6421120Y-3802860D01*
X6421120Y-3786660D01*
X6421220Y-3785960D01*
X6421220Y-3785360D01*
X6421420Y-3784760D01*
X6421520Y-3784160D01*
X6422120Y-3782360D01*
X6422420Y-3781860D01*
X6422720Y-3781260D01*
X6423020Y-3780760D01*
X6423420Y-3780160D01*
X6423820Y-3779660D01*
X6424220Y-3779260D01*
X6424620Y-3778760D01*
X6425120Y-3778360D01*
X6425520Y-3777960D01*
X6426020Y-3777560D01*
X6426620Y-3777160D01*
X6427120Y-3776860D01*
X6427720Y-3776560D01*
X6428220Y-3776260D01*
X6430020Y-3775660D01*
X6430620Y-3775560D01*
X6431220Y-3775360D01*
X6431820Y-3775360D01*
X6432520Y-3775260D01*
X6483720Y-3775260D01*
X6484420Y-3775360D01*
G37*
X6484420Y-3775360D02*
X6485020Y-3775360D01*
X6485620Y-3775560D01*
X6486220Y-3775660D01*
X6488020Y-3776260D01*
X6488520Y-3776560D01*
X6489120Y-3776860D01*
X6489620Y-3777160D01*
X6490220Y-3777560D01*
X6490720Y-3777960D01*
X6491120Y-3778360D01*
X6491620Y-3778760D01*
X6492020Y-3779260D01*
X6492420Y-3779660D01*
X6492820Y-3780160D01*
X6493220Y-3780760D01*
X6493520Y-3781260D01*
X6493820Y-3781860D01*
X6494120Y-3782360D01*
X6494720Y-3784160D01*
X6494820Y-3784760D01*
X6495020Y-3785360D01*
X6495020Y-3785960D01*
X6495120Y-3786660D01*
X6495120Y-3802860D01*
X6495020Y-3803560D01*
X6495020Y-3804160D01*
X6494820Y-3804760D01*
X6494720Y-3805360D01*
X6494120Y-3807160D01*
X6493820Y-3807660D01*
X6493520Y-3808260D01*
X6493220Y-3808760D01*
X6492820Y-3809360D01*
X6492420Y-3809860D01*
X6492020Y-3810260D01*
X6491620Y-3810760D01*
X6491120Y-3811160D01*
X6490720Y-3811560D01*
X6490220Y-3811960D01*
X6489620Y-3812360D01*
X6489120Y-3812660D01*
X6488520Y-3812960D01*
X6488020Y-3813260D01*
X6486220Y-3813860D01*
X6485620Y-3813960D01*
X6485020Y-3814160D01*
X6484420Y-3814160D01*
X6483720Y-3814260D01*
X6432520Y-3814260D01*
X6431820Y-3814160D01*
X6431220Y-3814160D01*
X6430620Y-3813960D01*
X6430020Y-3813860D01*
X6428220Y-3813260D01*
X6427720Y-3812960D01*
X6427120Y-3812660D01*
X6426620Y-3812360D01*
X6426020Y-3811960D01*
X6425520Y-3811560D01*
X6425120Y-3811160D01*
X6424620Y-3810760D01*
X6424220Y-3810260D01*
X6423820Y-3809860D01*
X6423420Y-3809360D01*
X6423020Y-3808760D01*
X6422720Y-3808260D01*
X6422420Y-3807660D01*
X6422120Y-3807160D01*
X6421520Y-3805360D01*
X6421420Y-3804760D01*
X6421220Y-3804160D01*
X6421220Y-3803560D01*
X6421120Y-3802860D01*
X6421120Y-3786660D01*
X6421220Y-3785960D01*
X6421220Y-3785360D01*
X6421420Y-3784760D01*
X6421520Y-3784160D01*
X6422120Y-3782360D01*
X6422420Y-3781860D01*
X6422720Y-3781260D01*
X6423020Y-3780760D01*
X6423420Y-3780160D01*
X6423820Y-3779660D01*
X6424220Y-3779260D01*
X6424620Y-3778760D01*
X6425120Y-3778360D01*
X6425520Y-3777960D01*
X6426020Y-3777560D01*
X6426620Y-3777160D01*
X6427120Y-3776860D01*
X6427720Y-3776560D01*
X6428220Y-3776260D01*
X6430020Y-3775660D01*
X6430620Y-3775560D01*
X6431220Y-3775360D01*
X6431820Y-3775360D01*
X6432520Y-3775260D01*
X6483720Y-3775260D01*
X6484420Y-3775360D01*
G36*
X6484420Y-3825360D02*
G01*
X6485020Y-3825360D01*
X6485620Y-3825560D01*
X6486220Y-3825660D01*
X6488020Y-3826260D01*
X6488520Y-3826560D01*
X6489120Y-3826860D01*
X6489620Y-3827160D01*
X6490220Y-3827560D01*
X6490720Y-3827960D01*
X6491120Y-3828360D01*
X6491620Y-3828760D01*
X6492020Y-3829260D01*
X6492420Y-3829660D01*
X6492820Y-3830160D01*
X6493220Y-3830760D01*
X6493520Y-3831260D01*
X6493820Y-3831860D01*
X6494120Y-3832360D01*
X6494720Y-3834160D01*
X6494820Y-3834760D01*
X6495020Y-3835360D01*
X6495020Y-3835960D01*
X6495120Y-3836660D01*
X6495120Y-3852860D01*
X6495020Y-3853560D01*
X6495020Y-3854160D01*
X6494820Y-3854760D01*
X6494720Y-3855360D01*
X6494120Y-3857160D01*
X6493820Y-3857660D01*
X6493520Y-3858260D01*
X6493220Y-3858760D01*
X6492820Y-3859360D01*
X6492420Y-3859860D01*
X6492020Y-3860260D01*
X6491620Y-3860760D01*
X6491120Y-3861160D01*
X6490720Y-3861560D01*
X6490220Y-3861960D01*
X6489620Y-3862360D01*
X6489120Y-3862660D01*
X6488520Y-3862960D01*
X6488020Y-3863260D01*
X6486220Y-3863860D01*
X6485620Y-3863960D01*
X6485020Y-3864160D01*
X6484420Y-3864160D01*
X6483720Y-3864260D01*
X6432520Y-3864260D01*
X6431820Y-3864160D01*
X6431220Y-3864160D01*
X6430620Y-3863960D01*
X6430020Y-3863860D01*
X6428220Y-3863260D01*
X6427720Y-3862960D01*
X6427120Y-3862660D01*
X6426620Y-3862360D01*
X6426020Y-3861960D01*
X6425520Y-3861560D01*
X6425120Y-3861160D01*
X6424620Y-3860760D01*
X6424220Y-3860260D01*
X6423820Y-3859860D01*
X6423420Y-3859360D01*
X6423020Y-3858760D01*
X6422720Y-3858260D01*
X6422420Y-3857660D01*
X6422120Y-3857160D01*
X6421520Y-3855360D01*
X6421420Y-3854760D01*
X6421220Y-3854160D01*
X6421220Y-3853560D01*
X6421120Y-3852860D01*
X6421120Y-3836660D01*
X6421220Y-3835960D01*
X6421220Y-3835360D01*
X6421420Y-3834760D01*
X6421520Y-3834160D01*
X6422120Y-3832360D01*
X6422420Y-3831860D01*
X6422720Y-3831260D01*
X6423020Y-3830760D01*
X6423420Y-3830160D01*
X6423820Y-3829660D01*
X6424220Y-3829260D01*
X6424620Y-3828760D01*
X6425120Y-3828360D01*
X6425520Y-3827960D01*
X6426020Y-3827560D01*
X6426620Y-3827160D01*
X6427120Y-3826860D01*
X6427720Y-3826560D01*
X6428220Y-3826260D01*
X6430020Y-3825660D01*
X6430620Y-3825560D01*
X6431220Y-3825360D01*
X6431820Y-3825360D01*
X6432520Y-3825260D01*
X6483720Y-3825260D01*
X6484420Y-3825360D01*
G37*
X6484420Y-3825360D02*
X6485020Y-3825360D01*
X6485620Y-3825560D01*
X6486220Y-3825660D01*
X6488020Y-3826260D01*
X6488520Y-3826560D01*
X6489120Y-3826860D01*
X6489620Y-3827160D01*
X6490220Y-3827560D01*
X6490720Y-3827960D01*
X6491120Y-3828360D01*
X6491620Y-3828760D01*
X6492020Y-3829260D01*
X6492420Y-3829660D01*
X6492820Y-3830160D01*
X6493220Y-3830760D01*
X6493520Y-3831260D01*
X6493820Y-3831860D01*
X6494120Y-3832360D01*
X6494720Y-3834160D01*
X6494820Y-3834760D01*
X6495020Y-3835360D01*
X6495020Y-3835960D01*
X6495120Y-3836660D01*
X6495120Y-3852860D01*
X6495020Y-3853560D01*
X6495020Y-3854160D01*
X6494820Y-3854760D01*
X6494720Y-3855360D01*
X6494120Y-3857160D01*
X6493820Y-3857660D01*
X6493520Y-3858260D01*
X6493220Y-3858760D01*
X6492820Y-3859360D01*
X6492420Y-3859860D01*
X6492020Y-3860260D01*
X6491620Y-3860760D01*
X6491120Y-3861160D01*
X6490720Y-3861560D01*
X6490220Y-3861960D01*
X6489620Y-3862360D01*
X6489120Y-3862660D01*
X6488520Y-3862960D01*
X6488020Y-3863260D01*
X6486220Y-3863860D01*
X6485620Y-3863960D01*
X6485020Y-3864160D01*
X6484420Y-3864160D01*
X6483720Y-3864260D01*
X6432520Y-3864260D01*
X6431820Y-3864160D01*
X6431220Y-3864160D01*
X6430620Y-3863960D01*
X6430020Y-3863860D01*
X6428220Y-3863260D01*
X6427720Y-3862960D01*
X6427120Y-3862660D01*
X6426620Y-3862360D01*
X6426020Y-3861960D01*
X6425520Y-3861560D01*
X6425120Y-3861160D01*
X6424620Y-3860760D01*
X6424220Y-3860260D01*
X6423820Y-3859860D01*
X6423420Y-3859360D01*
X6423020Y-3858760D01*
X6422720Y-3858260D01*
X6422420Y-3857660D01*
X6422120Y-3857160D01*
X6421520Y-3855360D01*
X6421420Y-3854760D01*
X6421220Y-3854160D01*
X6421220Y-3853560D01*
X6421120Y-3852860D01*
X6421120Y-3836660D01*
X6421220Y-3835960D01*
X6421220Y-3835360D01*
X6421420Y-3834760D01*
X6421520Y-3834160D01*
X6422120Y-3832360D01*
X6422420Y-3831860D01*
X6422720Y-3831260D01*
X6423020Y-3830760D01*
X6423420Y-3830160D01*
X6423820Y-3829660D01*
X6424220Y-3829260D01*
X6424620Y-3828760D01*
X6425120Y-3828360D01*
X6425520Y-3827960D01*
X6426020Y-3827560D01*
X6426620Y-3827160D01*
X6427120Y-3826860D01*
X6427720Y-3826560D01*
X6428220Y-3826260D01*
X6430020Y-3825660D01*
X6430620Y-3825560D01*
X6431220Y-3825360D01*
X6431820Y-3825360D01*
X6432520Y-3825260D01*
X6483720Y-3825260D01*
X6484420Y-3825360D01*
G36*
X6484420Y-3875360D02*
G01*
X6485020Y-3875360D01*
X6485620Y-3875560D01*
X6486220Y-3875660D01*
X6488020Y-3876260D01*
X6488520Y-3876560D01*
X6489120Y-3876860D01*
X6489620Y-3877160D01*
X6490220Y-3877560D01*
X6490720Y-3877960D01*
X6491120Y-3878360D01*
X6491620Y-3878760D01*
X6492020Y-3879260D01*
X6492420Y-3879660D01*
X6492820Y-3880160D01*
X6493220Y-3880760D01*
X6493520Y-3881260D01*
X6493820Y-3881860D01*
X6494120Y-3882360D01*
X6494720Y-3884160D01*
X6494820Y-3884760D01*
X6495020Y-3885360D01*
X6495020Y-3885960D01*
X6495120Y-3886660D01*
X6495120Y-3902860D01*
X6495020Y-3903560D01*
X6495020Y-3904160D01*
X6494820Y-3904760D01*
X6494720Y-3905360D01*
X6494120Y-3907160D01*
X6493820Y-3907660D01*
X6493520Y-3908260D01*
X6493220Y-3908760D01*
X6492820Y-3909360D01*
X6492420Y-3909860D01*
X6492020Y-3910260D01*
X6491620Y-3910760D01*
X6491120Y-3911160D01*
X6490720Y-3911560D01*
X6490220Y-3911960D01*
X6489620Y-3912360D01*
X6489120Y-3912660D01*
X6488520Y-3912960D01*
X6488020Y-3913260D01*
X6486220Y-3913860D01*
X6485620Y-3913960D01*
X6485020Y-3914160D01*
X6484420Y-3914160D01*
X6483720Y-3914260D01*
X6432520Y-3914260D01*
X6431820Y-3914160D01*
X6431220Y-3914160D01*
X6430620Y-3913960D01*
X6430020Y-3913860D01*
X6428220Y-3913260D01*
X6427720Y-3912960D01*
X6427120Y-3912660D01*
X6426620Y-3912360D01*
X6426020Y-3911960D01*
X6425520Y-3911560D01*
X6425120Y-3911160D01*
X6424620Y-3910760D01*
X6424220Y-3910260D01*
X6423820Y-3909860D01*
X6423420Y-3909360D01*
X6423020Y-3908760D01*
X6422720Y-3908260D01*
X6422420Y-3907660D01*
X6422120Y-3907160D01*
X6421520Y-3905360D01*
X6421420Y-3904760D01*
X6421220Y-3904160D01*
X6421220Y-3903560D01*
X6421120Y-3902860D01*
X6421120Y-3886660D01*
X6421220Y-3885960D01*
X6421220Y-3885360D01*
X6421420Y-3884760D01*
X6421520Y-3884160D01*
X6422120Y-3882360D01*
X6422420Y-3881860D01*
X6422720Y-3881260D01*
X6423020Y-3880760D01*
X6423420Y-3880160D01*
X6423820Y-3879660D01*
X6424220Y-3879260D01*
X6424620Y-3878760D01*
X6425120Y-3878360D01*
X6425520Y-3877960D01*
X6426020Y-3877560D01*
X6426620Y-3877160D01*
X6427120Y-3876860D01*
X6427720Y-3876560D01*
X6428220Y-3876260D01*
X6430020Y-3875660D01*
X6430620Y-3875560D01*
X6431220Y-3875360D01*
X6431820Y-3875360D01*
X6432520Y-3875260D01*
X6483720Y-3875260D01*
X6484420Y-3875360D01*
G37*
X6484420Y-3875360D02*
X6485020Y-3875360D01*
X6485620Y-3875560D01*
X6486220Y-3875660D01*
X6488020Y-3876260D01*
X6488520Y-3876560D01*
X6489120Y-3876860D01*
X6489620Y-3877160D01*
X6490220Y-3877560D01*
X6490720Y-3877960D01*
X6491120Y-3878360D01*
X6491620Y-3878760D01*
X6492020Y-3879260D01*
X6492420Y-3879660D01*
X6492820Y-3880160D01*
X6493220Y-3880760D01*
X6493520Y-3881260D01*
X6493820Y-3881860D01*
X6494120Y-3882360D01*
X6494720Y-3884160D01*
X6494820Y-3884760D01*
X6495020Y-3885360D01*
X6495020Y-3885960D01*
X6495120Y-3886660D01*
X6495120Y-3902860D01*
X6495020Y-3903560D01*
X6495020Y-3904160D01*
X6494820Y-3904760D01*
X6494720Y-3905360D01*
X6494120Y-3907160D01*
X6493820Y-3907660D01*
X6493520Y-3908260D01*
X6493220Y-3908760D01*
X6492820Y-3909360D01*
X6492420Y-3909860D01*
X6492020Y-3910260D01*
X6491620Y-3910760D01*
X6491120Y-3911160D01*
X6490720Y-3911560D01*
X6490220Y-3911960D01*
X6489620Y-3912360D01*
X6489120Y-3912660D01*
X6488520Y-3912960D01*
X6488020Y-3913260D01*
X6486220Y-3913860D01*
X6485620Y-3913960D01*
X6485020Y-3914160D01*
X6484420Y-3914160D01*
X6483720Y-3914260D01*
X6432520Y-3914260D01*
X6431820Y-3914160D01*
X6431220Y-3914160D01*
X6430620Y-3913960D01*
X6430020Y-3913860D01*
X6428220Y-3913260D01*
X6427720Y-3912960D01*
X6427120Y-3912660D01*
X6426620Y-3912360D01*
X6426020Y-3911960D01*
X6425520Y-3911560D01*
X6425120Y-3911160D01*
X6424620Y-3910760D01*
X6424220Y-3910260D01*
X6423820Y-3909860D01*
X6423420Y-3909360D01*
X6423020Y-3908760D01*
X6422720Y-3908260D01*
X6422420Y-3907660D01*
X6422120Y-3907160D01*
X6421520Y-3905360D01*
X6421420Y-3904760D01*
X6421220Y-3904160D01*
X6421220Y-3903560D01*
X6421120Y-3902860D01*
X6421120Y-3886660D01*
X6421220Y-3885960D01*
X6421220Y-3885360D01*
X6421420Y-3884760D01*
X6421520Y-3884160D01*
X6422120Y-3882360D01*
X6422420Y-3881860D01*
X6422720Y-3881260D01*
X6423020Y-3880760D01*
X6423420Y-3880160D01*
X6423820Y-3879660D01*
X6424220Y-3879260D01*
X6424620Y-3878760D01*
X6425120Y-3878360D01*
X6425520Y-3877960D01*
X6426020Y-3877560D01*
X6426620Y-3877160D01*
X6427120Y-3876860D01*
X6427720Y-3876560D01*
X6428220Y-3876260D01*
X6430020Y-3875660D01*
X6430620Y-3875560D01*
X6431220Y-3875360D01*
X6431820Y-3875360D01*
X6432520Y-3875260D01*
X6483720Y-3875260D01*
X6484420Y-3875360D01*
G36*
X6664420Y-3875360D02*
G01*
X6665020Y-3875360D01*
X6665620Y-3875560D01*
X6666220Y-3875660D01*
X6668020Y-3876260D01*
X6668520Y-3876560D01*
X6669120Y-3876860D01*
X6669620Y-3877160D01*
X6670220Y-3877560D01*
X6670720Y-3877960D01*
X6671120Y-3878360D01*
X6671620Y-3878760D01*
X6672020Y-3879260D01*
X6672420Y-3879660D01*
X6672820Y-3880160D01*
X6673220Y-3880760D01*
X6673520Y-3881260D01*
X6673820Y-3881860D01*
X6674120Y-3882360D01*
X6674720Y-3884160D01*
X6674820Y-3884760D01*
X6675020Y-3885360D01*
X6675020Y-3885960D01*
X6675120Y-3886660D01*
X6675120Y-3902860D01*
X6675020Y-3903560D01*
X6675020Y-3904160D01*
X6674820Y-3904760D01*
X6674720Y-3905360D01*
X6674120Y-3907160D01*
X6673820Y-3907660D01*
X6673520Y-3908260D01*
X6673220Y-3908760D01*
X6672820Y-3909360D01*
X6672420Y-3909860D01*
X6672020Y-3910260D01*
X6671620Y-3910760D01*
X6671120Y-3911160D01*
X6670720Y-3911560D01*
X6670220Y-3911960D01*
X6669620Y-3912360D01*
X6669120Y-3912660D01*
X6668520Y-3912960D01*
X6668020Y-3913260D01*
X6666220Y-3913860D01*
X6665620Y-3913960D01*
X6665020Y-3914160D01*
X6664420Y-3914160D01*
X6663720Y-3914260D01*
X6582520Y-3914260D01*
X6581820Y-3914160D01*
X6581220Y-3914160D01*
X6580620Y-3913960D01*
X6580020Y-3913860D01*
X6578220Y-3913260D01*
X6577720Y-3912960D01*
X6577120Y-3912660D01*
X6576620Y-3912360D01*
X6576020Y-3911960D01*
X6575520Y-3911560D01*
X6575120Y-3911160D01*
X6574620Y-3910760D01*
X6574220Y-3910260D01*
X6573820Y-3909860D01*
X6573420Y-3909360D01*
X6573020Y-3908760D01*
X6572720Y-3908260D01*
X6572420Y-3907660D01*
X6572120Y-3907160D01*
X6571520Y-3905360D01*
X6571420Y-3904760D01*
X6571220Y-3904160D01*
X6571220Y-3903560D01*
X6571120Y-3902860D01*
X6571120Y-3886660D01*
X6571220Y-3885960D01*
X6571220Y-3885360D01*
X6571420Y-3884760D01*
X6571520Y-3884160D01*
X6572120Y-3882360D01*
X6572420Y-3881860D01*
X6572720Y-3881260D01*
X6573020Y-3880760D01*
X6573420Y-3880160D01*
X6573820Y-3879660D01*
X6574220Y-3879260D01*
X6574620Y-3878760D01*
X6575120Y-3878360D01*
X6575520Y-3877960D01*
X6576020Y-3877560D01*
X6576620Y-3877160D01*
X6577120Y-3876860D01*
X6577720Y-3876560D01*
X6578220Y-3876260D01*
X6580020Y-3875660D01*
X6580620Y-3875560D01*
X6581220Y-3875360D01*
X6581820Y-3875360D01*
X6582520Y-3875260D01*
X6663720Y-3875260D01*
X6664420Y-3875360D01*
G37*
X6664420Y-3875360D02*
X6665020Y-3875360D01*
X6665620Y-3875560D01*
X6666220Y-3875660D01*
X6668020Y-3876260D01*
X6668520Y-3876560D01*
X6669120Y-3876860D01*
X6669620Y-3877160D01*
X6670220Y-3877560D01*
X6670720Y-3877960D01*
X6671120Y-3878360D01*
X6671620Y-3878760D01*
X6672020Y-3879260D01*
X6672420Y-3879660D01*
X6672820Y-3880160D01*
X6673220Y-3880760D01*
X6673520Y-3881260D01*
X6673820Y-3881860D01*
X6674120Y-3882360D01*
X6674720Y-3884160D01*
X6674820Y-3884760D01*
X6675020Y-3885360D01*
X6675020Y-3885960D01*
X6675120Y-3886660D01*
X6675120Y-3902860D01*
X6675020Y-3903560D01*
X6675020Y-3904160D01*
X6674820Y-3904760D01*
X6674720Y-3905360D01*
X6674120Y-3907160D01*
X6673820Y-3907660D01*
X6673520Y-3908260D01*
X6673220Y-3908760D01*
X6672820Y-3909360D01*
X6672420Y-3909860D01*
X6672020Y-3910260D01*
X6671620Y-3910760D01*
X6671120Y-3911160D01*
X6670720Y-3911560D01*
X6670220Y-3911960D01*
X6669620Y-3912360D01*
X6669120Y-3912660D01*
X6668520Y-3912960D01*
X6668020Y-3913260D01*
X6666220Y-3913860D01*
X6665620Y-3913960D01*
X6665020Y-3914160D01*
X6664420Y-3914160D01*
X6663720Y-3914260D01*
X6582520Y-3914260D01*
X6581820Y-3914160D01*
X6581220Y-3914160D01*
X6580620Y-3913960D01*
X6580020Y-3913860D01*
X6578220Y-3913260D01*
X6577720Y-3912960D01*
X6577120Y-3912660D01*
X6576620Y-3912360D01*
X6576020Y-3911960D01*
X6575520Y-3911560D01*
X6575120Y-3911160D01*
X6574620Y-3910760D01*
X6574220Y-3910260D01*
X6573820Y-3909860D01*
X6573420Y-3909360D01*
X6573020Y-3908760D01*
X6572720Y-3908260D01*
X6572420Y-3907660D01*
X6572120Y-3907160D01*
X6571520Y-3905360D01*
X6571420Y-3904760D01*
X6571220Y-3904160D01*
X6571220Y-3903560D01*
X6571120Y-3902860D01*
X6571120Y-3886660D01*
X6571220Y-3885960D01*
X6571220Y-3885360D01*
X6571420Y-3884760D01*
X6571520Y-3884160D01*
X6572120Y-3882360D01*
X6572420Y-3881860D01*
X6572720Y-3881260D01*
X6573020Y-3880760D01*
X6573420Y-3880160D01*
X6573820Y-3879660D01*
X6574220Y-3879260D01*
X6574620Y-3878760D01*
X6575120Y-3878360D01*
X6575520Y-3877960D01*
X6576020Y-3877560D01*
X6576620Y-3877160D01*
X6577120Y-3876860D01*
X6577720Y-3876560D01*
X6578220Y-3876260D01*
X6580020Y-3875660D01*
X6580620Y-3875560D01*
X6581220Y-3875360D01*
X6581820Y-3875360D01*
X6582520Y-3875260D01*
X6663720Y-3875260D01*
X6664420Y-3875360D01*
G36*
X6664420Y-3825360D02*
G01*
X6665020Y-3825360D01*
X6665620Y-3825560D01*
X6666220Y-3825660D01*
X6668020Y-3826260D01*
X6668520Y-3826560D01*
X6669120Y-3826860D01*
X6669620Y-3827160D01*
X6670220Y-3827560D01*
X6670720Y-3827960D01*
X6671120Y-3828360D01*
X6671620Y-3828760D01*
X6672020Y-3829260D01*
X6672420Y-3829660D01*
X6672820Y-3830160D01*
X6673220Y-3830760D01*
X6673520Y-3831260D01*
X6673820Y-3831860D01*
X6674120Y-3832360D01*
X6674720Y-3834160D01*
X6674820Y-3834760D01*
X6675020Y-3835360D01*
X6675020Y-3835960D01*
X6675120Y-3836660D01*
X6675120Y-3852860D01*
X6675020Y-3853560D01*
X6675020Y-3854160D01*
X6674820Y-3854760D01*
X6674720Y-3855360D01*
X6674120Y-3857160D01*
X6673820Y-3857660D01*
X6673520Y-3858260D01*
X6673220Y-3858760D01*
X6672820Y-3859360D01*
X6672420Y-3859860D01*
X6672020Y-3860260D01*
X6671620Y-3860760D01*
X6671120Y-3861160D01*
X6670720Y-3861560D01*
X6670220Y-3861960D01*
X6669620Y-3862360D01*
X6669120Y-3862660D01*
X6668520Y-3862960D01*
X6668020Y-3863260D01*
X6666220Y-3863860D01*
X6665620Y-3863960D01*
X6665020Y-3864160D01*
X6664420Y-3864160D01*
X6663720Y-3864260D01*
X6582520Y-3864260D01*
X6581820Y-3864160D01*
X6581220Y-3864160D01*
X6580620Y-3863960D01*
X6580020Y-3863860D01*
X6578220Y-3863260D01*
X6577720Y-3862960D01*
X6577120Y-3862660D01*
X6576620Y-3862360D01*
X6576020Y-3861960D01*
X6575520Y-3861560D01*
X6575120Y-3861160D01*
X6574620Y-3860760D01*
X6574220Y-3860260D01*
X6573820Y-3859860D01*
X6573420Y-3859360D01*
X6573020Y-3858760D01*
X6572720Y-3858260D01*
X6572420Y-3857660D01*
X6572120Y-3857160D01*
X6571520Y-3855360D01*
X6571420Y-3854760D01*
X6571220Y-3854160D01*
X6571220Y-3853560D01*
X6571120Y-3852860D01*
X6571120Y-3836660D01*
X6571220Y-3835960D01*
X6571220Y-3835360D01*
X6571420Y-3834760D01*
X6571520Y-3834160D01*
X6572120Y-3832360D01*
X6572420Y-3831860D01*
X6572720Y-3831260D01*
X6573020Y-3830760D01*
X6573420Y-3830160D01*
X6573820Y-3829660D01*
X6574220Y-3829260D01*
X6574620Y-3828760D01*
X6575120Y-3828360D01*
X6575520Y-3827960D01*
X6576020Y-3827560D01*
X6576620Y-3827160D01*
X6577120Y-3826860D01*
X6577720Y-3826560D01*
X6578220Y-3826260D01*
X6580020Y-3825660D01*
X6580620Y-3825560D01*
X6581220Y-3825360D01*
X6581820Y-3825360D01*
X6582520Y-3825260D01*
X6663720Y-3825260D01*
X6664420Y-3825360D01*
G37*
X6664420Y-3825360D02*
X6665020Y-3825360D01*
X6665620Y-3825560D01*
X6666220Y-3825660D01*
X6668020Y-3826260D01*
X6668520Y-3826560D01*
X6669120Y-3826860D01*
X6669620Y-3827160D01*
X6670220Y-3827560D01*
X6670720Y-3827960D01*
X6671120Y-3828360D01*
X6671620Y-3828760D01*
X6672020Y-3829260D01*
X6672420Y-3829660D01*
X6672820Y-3830160D01*
X6673220Y-3830760D01*
X6673520Y-3831260D01*
X6673820Y-3831860D01*
X6674120Y-3832360D01*
X6674720Y-3834160D01*
X6674820Y-3834760D01*
X6675020Y-3835360D01*
X6675020Y-3835960D01*
X6675120Y-3836660D01*
X6675120Y-3852860D01*
X6675020Y-3853560D01*
X6675020Y-3854160D01*
X6674820Y-3854760D01*
X6674720Y-3855360D01*
X6674120Y-3857160D01*
X6673820Y-3857660D01*
X6673520Y-3858260D01*
X6673220Y-3858760D01*
X6672820Y-3859360D01*
X6672420Y-3859860D01*
X6672020Y-3860260D01*
X6671620Y-3860760D01*
X6671120Y-3861160D01*
X6670720Y-3861560D01*
X6670220Y-3861960D01*
X6669620Y-3862360D01*
X6669120Y-3862660D01*
X6668520Y-3862960D01*
X6668020Y-3863260D01*
X6666220Y-3863860D01*
X6665620Y-3863960D01*
X6665020Y-3864160D01*
X6664420Y-3864160D01*
X6663720Y-3864260D01*
X6582520Y-3864260D01*
X6581820Y-3864160D01*
X6581220Y-3864160D01*
X6580620Y-3863960D01*
X6580020Y-3863860D01*
X6578220Y-3863260D01*
X6577720Y-3862960D01*
X6577120Y-3862660D01*
X6576620Y-3862360D01*
X6576020Y-3861960D01*
X6575520Y-3861560D01*
X6575120Y-3861160D01*
X6574620Y-3860760D01*
X6574220Y-3860260D01*
X6573820Y-3859860D01*
X6573420Y-3859360D01*
X6573020Y-3858760D01*
X6572720Y-3858260D01*
X6572420Y-3857660D01*
X6572120Y-3857160D01*
X6571520Y-3855360D01*
X6571420Y-3854760D01*
X6571220Y-3854160D01*
X6571220Y-3853560D01*
X6571120Y-3852860D01*
X6571120Y-3836660D01*
X6571220Y-3835960D01*
X6571220Y-3835360D01*
X6571420Y-3834760D01*
X6571520Y-3834160D01*
X6572120Y-3832360D01*
X6572420Y-3831860D01*
X6572720Y-3831260D01*
X6573020Y-3830760D01*
X6573420Y-3830160D01*
X6573820Y-3829660D01*
X6574220Y-3829260D01*
X6574620Y-3828760D01*
X6575120Y-3828360D01*
X6575520Y-3827960D01*
X6576020Y-3827560D01*
X6576620Y-3827160D01*
X6577120Y-3826860D01*
X6577720Y-3826560D01*
X6578220Y-3826260D01*
X6580020Y-3825660D01*
X6580620Y-3825560D01*
X6581220Y-3825360D01*
X6581820Y-3825360D01*
X6582520Y-3825260D01*
X6663720Y-3825260D01*
X6664420Y-3825360D01*
D11*
X3966988Y-3776760D03*
X3966988Y-3921760D03*
X4081988Y-3921760D03*
X4081988Y-3776760D03*
D12*
X4055984Y-3312160D03*
X4055984Y-3216160D03*
D13*
X4088484Y-4048760D03*
X3992484Y-4048760D03*
D14*
X3872088Y-3838460D03*
X3872088Y-3934460D03*
D15*
X3967084Y-3413760D03*
X4063084Y-3413760D03*
D12*
X4848860Y-3982460D03*
X4848860Y-3886460D03*
X4919584Y-3144260D03*
X4919584Y-3048260D03*
D14*
X4214988Y-3810260D03*
X4214988Y-3906260D03*
D13*
X3932788Y-3528060D03*
X3836788Y-3528060D03*
X3945488Y-3629660D03*
X3849488Y-3629660D03*
D14*
X4754484Y-3911860D03*
X4754484Y-4007860D03*
X4652884Y-3911860D03*
X4652884Y-4007860D03*
D16*
X4962620Y-3912496D03*
X5212620Y-3912496D03*
D13*
X5059420Y-4075796D03*
X4963420Y-4075796D03*
D15*
X5153920Y-4075796D03*
X5249920Y-4075796D03*
D17*
X3302184Y-3062596D03*
X3452184Y-3062596D03*
X3452184Y-3172596D03*
X3302184Y-3172596D03*
D18*
X3693884Y-3129096D03*
D19*
X3693884Y-3079096D03*
X3693884Y-3029096D03*
D18*
X3693884Y-2979096D03*
X3593884Y-2979096D03*
D19*
X3593884Y-3029096D03*
X3593884Y-3079096D03*
D18*
X3593884Y-3129096D03*
D12*
X6215380Y-3680200D03*
X6215380Y-3584200D03*
D13*
X6123680Y-3680460D03*
X6027680Y-3680460D03*
D15*
X3468884Y-3981196D03*
X3564884Y-3981196D03*
D13*
X5888984Y-3756660D03*
X5792984Y-3756660D03*
D20*
X5889484Y-3858260D03*
X5792484Y-3858260D03*
D21*
X6595580Y-3000770D03*
X6545580Y-3000770D03*
X6495580Y-3000770D03*
X6445580Y-3000770D03*
D22*
X6376830Y-3069520D03*
X6376830Y-3119520D03*
X6376830Y-3169520D03*
X6376830Y-3219520D03*
D21*
X6445580Y-3288270D03*
X6495580Y-3288270D03*
X6545580Y-3288270D03*
X6595580Y-3288270D03*
D22*
X6664330Y-3219520D03*
X6664330Y-3169520D03*
X6664330Y-3119520D03*
X6664330Y-3069520D03*
D23*
X6520580Y-3144520D03*
D24*
X6901380Y-3214460D03*
X6799380Y-3214460D03*
D14*
X6215380Y-2997460D03*
X6215380Y-3093460D03*
D25*
X6456680Y-3390700D03*
X6456680Y-3492700D03*
X6215380Y-3388160D03*
X6215380Y-3490160D03*
D24*
X6901380Y-3112860D03*
X6799380Y-3112860D03*
D25*
X6215380Y-3184760D03*
X6215380Y-3286760D03*
D26*
X6337300Y-3390890D03*
X6337300Y-3548390D03*
D27*
X4865584Y-3684560D03*
X4865584Y-3644560D03*
X4865584Y-3604560D03*
X4865584Y-3564560D03*
X4865584Y-3524560D03*
X4865584Y-3484560D03*
X4865584Y-3444560D03*
X4865584Y-3404560D03*
X4865584Y-3364560D03*
X4865584Y-3324560D03*
X4865584Y-3284560D03*
X4865584Y-3244560D03*
D28*
X4785584Y-3164560D03*
X4745584Y-3164560D03*
X4705584Y-3164560D03*
X4665584Y-3164560D03*
X4625584Y-3164560D03*
X4585584Y-3164560D03*
X4545584Y-3164560D03*
X4505584Y-3164560D03*
X4465584Y-3164560D03*
X4425584Y-3164560D03*
X4385584Y-3164560D03*
X4345584Y-3164560D03*
D29*
X4265584Y-3244560D03*
X4265584Y-3284560D03*
X4265584Y-3324560D03*
X4265584Y-3364560D03*
X4265584Y-3404560D03*
X4265584Y-3444560D03*
X4265584Y-3484560D03*
X4265584Y-3524560D03*
X4265584Y-3564560D03*
X4265584Y-3604560D03*
X4265584Y-3644560D03*
X4265584Y-3684560D03*
D30*
X4345584Y-3764560D03*
X4385584Y-3764560D03*
X4425584Y-3764560D03*
X4465584Y-3764560D03*
X4505584Y-3764560D03*
X4545584Y-3764560D03*
X4585584Y-3764560D03*
X4625584Y-3764560D03*
X4665584Y-3764560D03*
X4705584Y-3764560D03*
X4745584Y-3764560D03*
X4785584Y-3764560D03*
D31*
X4565584Y-3464560D03*
D32*
X4745584Y-3644560D03*
X4745584Y-3524560D03*
X4745584Y-3404560D03*
X4745584Y-3284560D03*
X4625584Y-3644560D03*
X4625584Y-3524560D03*
X4625584Y-3404560D03*
X4625584Y-3284560D03*
X4505584Y-3644560D03*
X4505584Y-3524560D03*
X4505584Y-3404560D03*
X4505584Y-3284560D03*
X4385584Y-3644560D03*
X4385584Y-3524560D03*
X4385584Y-3404560D03*
X4385584Y-3284560D03*
D33*
X3310984Y-3460596D03*
X3310984Y-3625596D03*
X3310984Y-3790596D03*
X3544984Y-3790596D03*
X3544984Y-3625596D03*
D34*
X3534984Y-3470596D03*
D35*
X3096280Y-3533460D03*
D36*
X6024880Y-3016760D03*
X5897880Y-3016760D03*
X5770880Y-3016760D03*
X5643880Y-3016760D03*
X5643880Y-3556760D03*
X5770880Y-3556760D03*
X5897880Y-3556760D03*
X6024880Y-3556760D03*
D37*
X5834380Y-3286760D03*
D13*
X6898380Y-3320060D03*
X6802380Y-3320060D03*
D38*
X6801920Y-3421380D03*
X6903920Y-3421380D03*
D35*
X6789420Y-3540760D03*
D15*
X3858384Y-3210560D03*
X3954384Y-3210560D03*
D20*
X3336784Y-3981196D03*
X3239784Y-3981196D03*
D39*
X5336784Y-3280896D03*
X5176784Y-3280896D03*
X5176784Y-3690896D03*
X5336784Y-3690896D03*
D40*
X5399284Y-3485896D03*
D41*
X6230620Y-4059120D03*
X6230620Y-3957120D03*
D42*
X4051300Y-3022600D03*
D25*
X4316588Y-3841296D03*
X4316588Y-3943296D03*
D24*
X5859980Y-4104640D03*
X5757980Y-4104640D03*
D15*
X5506980Y-3751580D03*
X5602980Y-3751580D03*
D24*
X5880300Y-3967480D03*
X5778300Y-3967480D03*
D14*
X5974080Y-3975360D03*
X5974080Y-4071360D03*
D25*
X5369560Y-4007920D03*
X5369560Y-4109920D03*
D41*
X5443220Y-3259020D03*
X5443220Y-3157020D03*
D13*
X6583420Y-4091940D03*
X6487420Y-4091940D03*
D43*
X6812280Y-3904800D03*
X6812280Y-3689800D03*
D41*
X6332220Y-4056580D03*
X6332220Y-3954580D03*
D14*
X5379720Y-3797560D03*
X5379720Y-3893560D03*
D44*
X6609080Y-3987800D03*
X6454080Y-3987800D03*
X6623080Y-3601720D03*
X6468080Y-3601720D03*
D14*
X6573520Y-3396240D03*
X6573520Y-3492240D03*
D38*
X6243120Y-3845560D03*
X6345120Y-3845560D03*
D24*
X4866840Y-2941320D03*
X4764840Y-2941320D03*
D45*
X5612440Y-4110100D03*
X5612440Y-4020100D03*
X5612440Y-3930100D03*
X5612440Y-3840100D03*
X5492440Y-3840100D03*
X5492440Y-3930100D03*
X5492440Y-4020100D03*
X5492440Y-4110100D03*
D46*
X5067850Y-2975860D03*
X5067850Y-3070860D03*
X5067850Y-3165860D03*
X5295350Y-3165860D03*
X5295350Y-2975860D03*
D14*
X5458460Y-2974600D03*
X5458460Y-3070600D03*
D38*
X5506320Y-3657600D03*
X5608320Y-3657600D03*
D25*
X6070600Y-3972360D03*
X6070600Y-4074360D03*
M02*
