G04 #@! TF.GenerationSoftware,KiCad,Pcbnew,6.0.9-8da3e8f707~116~ubuntu22.04.1*
G04 #@! TF.CreationDate,2022-12-14T17:19:13+01:00*
G04 #@! TF.ProjectId,nRF52832_qfaa,6e524635-3238-4333-925f-716661612e6b,rev?*
G04 #@! TF.SameCoordinates,Original*
G04 #@! TF.FileFunction,Paste,Top*
G04 #@! TF.FilePolarity,Positive*
%FSLAX45Y45*%
G04 Gerber Fmt 4.5, Leading zero omitted, Abs format (unit mm)*
G04 Created by KiCad (PCBNEW 6.0.9-8da3e8f707~116~ubuntu22.04.1) date 2022-12-14 17:19:13*
%MOMM*%
%LPD*%
G01*
G04 APERTURE LIST*
G04 Aperture macros list*
%AMRoundRect*
0 Rectangle with rounded corners*
0 $1 Rounding radius*
0 $2 $3 $4 $5 $6 $7 $8 $9 X,Y pos of 4 corners*
0 Add a 4 corners polygon primitive as box body*
4,1,4,$2,$3,$4,$5,$6,$7,$8,$9,$2,$3,0*
0 Add four circle primitives for the rounded corners*
1,1,$1+$1,$2,$3*
1,1,$1+$1,$4,$5*
1,1,$1+$1,$6,$7*
1,1,$1+$1,$8,$9*
0 Add four rect primitives between the rounded corners*
20,1,$1+$1,$2,$3,$4,$5,0*
20,1,$1+$1,$4,$5,$6,$7,0*
20,1,$1+$1,$6,$7,$8,$9,0*
20,1,$1+$1,$8,$9,$2,$3,0*%
%AMHorizOval*
0 Thick line with rounded ends*
0 $1 width*
0 $2 $3 position (X,Y) of the first rounded end (center of the circle)*
0 $4 $5 position (X,Y) of the second rounded end (center of the circle)*
0 Add line between two ends*
20,1,$1,$2,$3,$4,$5,0*
0 Add two circle primitives to create the rounded ends*
1,1,$1,$2,$3*
1,1,$1,$4,$5*%
G04 Aperture macros list end*
%ADD10C,0.010000*%
%ADD11R,0.850000X0.950000*%
%ADD12RoundRect,0.140000X0.170000X-0.140000X0.170000X0.140000X-0.170000X0.140000X-0.170000X-0.140000X0*%
%ADD13RoundRect,0.140000X0.140000X0.170000X-0.140000X0.170000X-0.140000X-0.170000X0.140000X-0.170000X0*%
%ADD14RoundRect,0.140000X-0.170000X0.140000X-0.170000X-0.140000X0.170000X-0.140000X0.170000X0.140000X0*%
%ADD15RoundRect,0.140000X-0.140000X-0.170000X0.140000X-0.170000X0.140000X0.170000X-0.140000X0.170000X0*%
%ADD16R,1.000000X1.800000*%
%ADD17R,1.000000X0.800000*%
%ADD18R,0.500000X0.400000*%
%ADD19R,0.500000X0.300000*%
%ADD20RoundRect,0.147500X0.147500X0.172500X-0.147500X0.172500X-0.147500X-0.172500X0.147500X-0.172500X0*%
%ADD21RoundRect,0.157500X-0.157500X0.157500X-0.157500X-0.157500X0.157500X-0.157500X0.157500X0.157500X0*%
%ADD22RoundRect,0.062500X-0.062500X0.375000X-0.062500X-0.375000X0.062500X-0.375000X0.062500X0.375000X0*%
%ADD23RoundRect,0.062500X-0.375000X0.062500X-0.375000X-0.062500X0.375000X-0.062500X0.375000X0.062500X0*%
%ADD24RoundRect,0.135000X0.135000X0.185000X-0.135000X0.185000X-0.135000X-0.185000X0.135000X-0.185000X0*%
%ADD25RoundRect,0.135000X-0.185000X0.135000X-0.185000X-0.135000X0.185000X-0.135000X0.185000X0.135000X0*%
%ADD26RoundRect,0.218750X-0.256250X0.218750X-0.256250X-0.218750X0.256250X-0.218750X0.256250X0.218750X0*%
%ADD27RoundRect,0.030000X0.295000X0.070000X-0.295000X0.070000X-0.295000X-0.070000X0.295000X-0.070000X0*%
%ADD28RoundRect,0.030000X-0.070000X0.295000X-0.070000X-0.295000X0.070000X-0.295000X0.070000X0.295000X0*%
%ADD29RoundRect,0.030000X-0.295000X-0.070000X0.295000X-0.070000X0.295000X0.070000X-0.295000X0.070000X0*%
%ADD30RoundRect,0.030000X0.070000X-0.295000X0.070000X0.295000X-0.070000X0.295000X-0.070000X-0.295000X0*%
%ADD31R,4.700000X4.700000*%
%ADD32C,0.910000*%
%ADD33HorizOval,0.910000X0.100000X0.100000X-0.100000X-0.100000X0*%
%ADD34RoundRect,0.250000X-0.615000X0.435000X-0.615000X-0.435000X0.615000X-0.435000X0.615000X0.435000X0*%
%ADD35RoundRect,0.125000X-0.125000X0.250000X-0.125000X-0.250000X0.125000X-0.250000X0.125000X0.250000X0*%
%ADD36RoundRect,0.135000X-0.135000X-0.185000X0.135000X-0.185000X0.135000X0.185000X-0.135000X0.185000X0*%
%ADD37R,1.000000X0.900000*%
%ADD38R,0.550000X1.700000*%
%ADD39RoundRect,0.135000X0.185000X-0.135000X0.185000X0.135000X-0.185000X0.135000X-0.185000X-0.135000X0*%
%ADD40RoundRect,0.250000X0.850000X-0.375000X0.850000X0.375000X-0.850000X0.375000X-0.850000X-0.375000X0*%
%ADD41RoundRect,0.225000X0.225000X0.250000X-0.225000X0.250000X-0.225000X-0.250000X0.225000X-0.250000X0*%
%ADD42R,0.800000X0.500000*%
%ADD43RoundRect,0.012500X-0.287500X-0.112500X0.287500X-0.112500X0.287500X0.112500X-0.287500X0.112500X0*%
%ADD44RoundRect,0.012500X-0.437500X-0.112500X0.437500X-0.112500X0.437500X0.112500X-0.437500X0.112500X0*%
%ADD45RoundRect,0.150000X-0.512500X-0.150000X0.512500X-0.150000X0.512500X0.150000X-0.512500X0.150000X0*%
G04 APERTURE END LIST*
G36*
X6588920Y-3782360D02*
G01*
X6589120Y-3782360D01*
X6589420Y-3782460D01*
X6589620Y-3782460D01*
X6589920Y-3782560D01*
X6590120Y-3782660D01*
X6590420Y-3782760D01*
X6590620Y-3782960D01*
X6590820Y-3783060D01*
X6591020Y-3783260D01*
X6591220Y-3783360D01*
X6592020Y-3784160D01*
X6592120Y-3784360D01*
X6592320Y-3784560D01*
X6592420Y-3784760D01*
X6592620Y-3784960D01*
X6592720Y-3785260D01*
X6592820Y-3785460D01*
X6592920Y-3785760D01*
X6592920Y-3785960D01*
X6593020Y-3786260D01*
X6593020Y-3786460D01*
X6593120Y-3786760D01*
X6593120Y-3802760D01*
X6593020Y-3803060D01*
X6593020Y-3803260D01*
X6592920Y-3803560D01*
X6592920Y-3803760D01*
X6592820Y-3804060D01*
X6592720Y-3804260D01*
X6592620Y-3804560D01*
X6592420Y-3804760D01*
X6592320Y-3804960D01*
X6592120Y-3805160D01*
X6592020Y-3805360D01*
X6591220Y-3806160D01*
X6591020Y-3806260D01*
X6590820Y-3806460D01*
X6590620Y-3806560D01*
X6590420Y-3806760D01*
X6590120Y-3806860D01*
X6589920Y-3806960D01*
X6589620Y-3807060D01*
X6589420Y-3807060D01*
X6589120Y-3807160D01*
X6588920Y-3807160D01*
X6588620Y-3807260D01*
X6542620Y-3807260D01*
X6542320Y-3807160D01*
X6542120Y-3807160D01*
X6541820Y-3807060D01*
X6541620Y-3807060D01*
X6541320Y-3806960D01*
X6541120Y-3806860D01*
X6540820Y-3806760D01*
X6540620Y-3806560D01*
X6540420Y-3806460D01*
X6540220Y-3806260D01*
X6540020Y-3806160D01*
X6539220Y-3805360D01*
X6539120Y-3805160D01*
X6538920Y-3804960D01*
X6538820Y-3804760D01*
X6538620Y-3804560D01*
X6538520Y-3804260D01*
X6538420Y-3804060D01*
X6538320Y-3803760D01*
X6538320Y-3803560D01*
X6538220Y-3803260D01*
X6538220Y-3803060D01*
X6538120Y-3802760D01*
X6538120Y-3786760D01*
X6538220Y-3786460D01*
X6538220Y-3786260D01*
X6538320Y-3785960D01*
X6538320Y-3785760D01*
X6538420Y-3785460D01*
X6538520Y-3785260D01*
X6538620Y-3784960D01*
X6538820Y-3784760D01*
X6538920Y-3784560D01*
X6539120Y-3784360D01*
X6539220Y-3784160D01*
X6540020Y-3783360D01*
X6540220Y-3783260D01*
X6540420Y-3783060D01*
X6540620Y-3782960D01*
X6540820Y-3782760D01*
X6541120Y-3782660D01*
X6541320Y-3782560D01*
X6541620Y-3782460D01*
X6541820Y-3782460D01*
X6542120Y-3782360D01*
X6542320Y-3782360D01*
X6542620Y-3782260D01*
X6588620Y-3782260D01*
X6588920Y-3782360D01*
G37*
D10*
X6588920Y-3782360D02*
X6589120Y-3782360D01*
X6589420Y-3782460D01*
X6589620Y-3782460D01*
X6589920Y-3782560D01*
X6590120Y-3782660D01*
X6590420Y-3782760D01*
X6590620Y-3782960D01*
X6590820Y-3783060D01*
X6591020Y-3783260D01*
X6591220Y-3783360D01*
X6592020Y-3784160D01*
X6592120Y-3784360D01*
X6592320Y-3784560D01*
X6592420Y-3784760D01*
X6592620Y-3784960D01*
X6592720Y-3785260D01*
X6592820Y-3785460D01*
X6592920Y-3785760D01*
X6592920Y-3785960D01*
X6593020Y-3786260D01*
X6593020Y-3786460D01*
X6593120Y-3786760D01*
X6593120Y-3802760D01*
X6593020Y-3803060D01*
X6593020Y-3803260D01*
X6592920Y-3803560D01*
X6592920Y-3803760D01*
X6592820Y-3804060D01*
X6592720Y-3804260D01*
X6592620Y-3804560D01*
X6592420Y-3804760D01*
X6592320Y-3804960D01*
X6592120Y-3805160D01*
X6592020Y-3805360D01*
X6591220Y-3806160D01*
X6591020Y-3806260D01*
X6590820Y-3806460D01*
X6590620Y-3806560D01*
X6590420Y-3806760D01*
X6590120Y-3806860D01*
X6589920Y-3806960D01*
X6589620Y-3807060D01*
X6589420Y-3807060D01*
X6589120Y-3807160D01*
X6588920Y-3807160D01*
X6588620Y-3807260D01*
X6542620Y-3807260D01*
X6542320Y-3807160D01*
X6542120Y-3807160D01*
X6541820Y-3807060D01*
X6541620Y-3807060D01*
X6541320Y-3806960D01*
X6541120Y-3806860D01*
X6540820Y-3806760D01*
X6540620Y-3806560D01*
X6540420Y-3806460D01*
X6540220Y-3806260D01*
X6540020Y-3806160D01*
X6539220Y-3805360D01*
X6539120Y-3805160D01*
X6538920Y-3804960D01*
X6538820Y-3804760D01*
X6538620Y-3804560D01*
X6538520Y-3804260D01*
X6538420Y-3804060D01*
X6538320Y-3803760D01*
X6538320Y-3803560D01*
X6538220Y-3803260D01*
X6538220Y-3803060D01*
X6538120Y-3802760D01*
X6538120Y-3786760D01*
X6538220Y-3786460D01*
X6538220Y-3786260D01*
X6538320Y-3785960D01*
X6538320Y-3785760D01*
X6538420Y-3785460D01*
X6538520Y-3785260D01*
X6538620Y-3784960D01*
X6538820Y-3784760D01*
X6538920Y-3784560D01*
X6539120Y-3784360D01*
X6539220Y-3784160D01*
X6540020Y-3783360D01*
X6540220Y-3783260D01*
X6540420Y-3783060D01*
X6540620Y-3782960D01*
X6540820Y-3782760D01*
X6541120Y-3782660D01*
X6541320Y-3782560D01*
X6541620Y-3782460D01*
X6541820Y-3782460D01*
X6542120Y-3782360D01*
X6542320Y-3782360D01*
X6542620Y-3782260D01*
X6588620Y-3782260D01*
X6588920Y-3782360D01*
G36*
X6663920Y-3782360D02*
G01*
X6664120Y-3782360D01*
X6664420Y-3782460D01*
X6664620Y-3782460D01*
X6664920Y-3782560D01*
X6665120Y-3782660D01*
X6665420Y-3782760D01*
X6665620Y-3782960D01*
X6665820Y-3783060D01*
X6666020Y-3783260D01*
X6666220Y-3783360D01*
X6667020Y-3784160D01*
X6667120Y-3784360D01*
X6667320Y-3784560D01*
X6667420Y-3784760D01*
X6667620Y-3784960D01*
X6667720Y-3785260D01*
X6667820Y-3785460D01*
X6667920Y-3785760D01*
X6667920Y-3785960D01*
X6668020Y-3786260D01*
X6668020Y-3786460D01*
X6668120Y-3786760D01*
X6668120Y-3802760D01*
X6668020Y-3803060D01*
X6668020Y-3803260D01*
X6667920Y-3803560D01*
X6667920Y-3803760D01*
X6667820Y-3804060D01*
X6667720Y-3804260D01*
X6667620Y-3804560D01*
X6667420Y-3804760D01*
X6667320Y-3804960D01*
X6667120Y-3805160D01*
X6667020Y-3805360D01*
X6666220Y-3806160D01*
X6666020Y-3806260D01*
X6665820Y-3806460D01*
X6665620Y-3806560D01*
X6665420Y-3806760D01*
X6665120Y-3806860D01*
X6664920Y-3806960D01*
X6664620Y-3807060D01*
X6664420Y-3807060D01*
X6664120Y-3807160D01*
X6663920Y-3807160D01*
X6663620Y-3807260D01*
X6617620Y-3807260D01*
X6617320Y-3807160D01*
X6617120Y-3807160D01*
X6616820Y-3807060D01*
X6616620Y-3807060D01*
X6616320Y-3806960D01*
X6616120Y-3806860D01*
X6615820Y-3806760D01*
X6615620Y-3806560D01*
X6615420Y-3806460D01*
X6615220Y-3806260D01*
X6615020Y-3806160D01*
X6614220Y-3805360D01*
X6614120Y-3805160D01*
X6613920Y-3804960D01*
X6613820Y-3804760D01*
X6613620Y-3804560D01*
X6613520Y-3804260D01*
X6613420Y-3804060D01*
X6613320Y-3803760D01*
X6613320Y-3803560D01*
X6613220Y-3803260D01*
X6613220Y-3803060D01*
X6613120Y-3802760D01*
X6613120Y-3786760D01*
X6613220Y-3786460D01*
X6613220Y-3786260D01*
X6613320Y-3785960D01*
X6613320Y-3785760D01*
X6613420Y-3785460D01*
X6613520Y-3785260D01*
X6613620Y-3784960D01*
X6613820Y-3784760D01*
X6613920Y-3784560D01*
X6614120Y-3784360D01*
X6614220Y-3784160D01*
X6615020Y-3783360D01*
X6615220Y-3783260D01*
X6615420Y-3783060D01*
X6615620Y-3782960D01*
X6615820Y-3782760D01*
X6616120Y-3782660D01*
X6616320Y-3782560D01*
X6616620Y-3782460D01*
X6616820Y-3782460D01*
X6617120Y-3782360D01*
X6617320Y-3782360D01*
X6617620Y-3782260D01*
X6663620Y-3782260D01*
X6663920Y-3782360D01*
G37*
X6663920Y-3782360D02*
X6664120Y-3782360D01*
X6664420Y-3782460D01*
X6664620Y-3782460D01*
X6664920Y-3782560D01*
X6665120Y-3782660D01*
X6665420Y-3782760D01*
X6665620Y-3782960D01*
X6665820Y-3783060D01*
X6666020Y-3783260D01*
X6666220Y-3783360D01*
X6667020Y-3784160D01*
X6667120Y-3784360D01*
X6667320Y-3784560D01*
X6667420Y-3784760D01*
X6667620Y-3784960D01*
X6667720Y-3785260D01*
X6667820Y-3785460D01*
X6667920Y-3785760D01*
X6667920Y-3785960D01*
X6668020Y-3786260D01*
X6668020Y-3786460D01*
X6668120Y-3786760D01*
X6668120Y-3802760D01*
X6668020Y-3803060D01*
X6668020Y-3803260D01*
X6667920Y-3803560D01*
X6667920Y-3803760D01*
X6667820Y-3804060D01*
X6667720Y-3804260D01*
X6667620Y-3804560D01*
X6667420Y-3804760D01*
X6667320Y-3804960D01*
X6667120Y-3805160D01*
X6667020Y-3805360D01*
X6666220Y-3806160D01*
X6666020Y-3806260D01*
X6665820Y-3806460D01*
X6665620Y-3806560D01*
X6665420Y-3806760D01*
X6665120Y-3806860D01*
X6664920Y-3806960D01*
X6664620Y-3807060D01*
X6664420Y-3807060D01*
X6664120Y-3807160D01*
X6663920Y-3807160D01*
X6663620Y-3807260D01*
X6617620Y-3807260D01*
X6617320Y-3807160D01*
X6617120Y-3807160D01*
X6616820Y-3807060D01*
X6616620Y-3807060D01*
X6616320Y-3806960D01*
X6616120Y-3806860D01*
X6615820Y-3806760D01*
X6615620Y-3806560D01*
X6615420Y-3806460D01*
X6615220Y-3806260D01*
X6615020Y-3806160D01*
X6614220Y-3805360D01*
X6614120Y-3805160D01*
X6613920Y-3804960D01*
X6613820Y-3804760D01*
X6613620Y-3804560D01*
X6613520Y-3804260D01*
X6613420Y-3804060D01*
X6613320Y-3803760D01*
X6613320Y-3803560D01*
X6613220Y-3803260D01*
X6613220Y-3803060D01*
X6613120Y-3802760D01*
X6613120Y-3786760D01*
X6613220Y-3786460D01*
X6613220Y-3786260D01*
X6613320Y-3785960D01*
X6613320Y-3785760D01*
X6613420Y-3785460D01*
X6613520Y-3785260D01*
X6613620Y-3784960D01*
X6613820Y-3784760D01*
X6613920Y-3784560D01*
X6614120Y-3784360D01*
X6614220Y-3784160D01*
X6615020Y-3783360D01*
X6615220Y-3783260D01*
X6615420Y-3783060D01*
X6615620Y-3782960D01*
X6615820Y-3782760D01*
X6616120Y-3782660D01*
X6616320Y-3782560D01*
X6616620Y-3782460D01*
X6616820Y-3782460D01*
X6617120Y-3782360D01*
X6617320Y-3782360D01*
X6617620Y-3782260D01*
X6663620Y-3782260D01*
X6663920Y-3782360D01*
D11*
X3966988Y-3776760D03*
X3966988Y-3921760D03*
X4081988Y-3921760D03*
X4081988Y-3776760D03*
D12*
X4055984Y-3312160D03*
X4055984Y-3216160D03*
D13*
X4088484Y-4048760D03*
X3992484Y-4048760D03*
D14*
X3872088Y-3838460D03*
X3872088Y-3934460D03*
D15*
X3967084Y-3413760D03*
X4063084Y-3413760D03*
D12*
X4848860Y-3982460D03*
X4848860Y-3886460D03*
X4919584Y-3144260D03*
X4919584Y-3048260D03*
D14*
X4214988Y-3810260D03*
X4214988Y-3906260D03*
D13*
X3932788Y-3528060D03*
X3836788Y-3528060D03*
X3945488Y-3629660D03*
X3849488Y-3629660D03*
D14*
X4754484Y-3911860D03*
X4754484Y-4007860D03*
X4652884Y-3911860D03*
X4652884Y-4007860D03*
D16*
X4962620Y-3912496D03*
X5212620Y-3912496D03*
D13*
X5059420Y-4075796D03*
X4963420Y-4075796D03*
D15*
X5153920Y-4075796D03*
X5249920Y-4075796D03*
D17*
X3302184Y-3062596D03*
X3452184Y-3062596D03*
X3452184Y-3172596D03*
X3302184Y-3172596D03*
D18*
X3693884Y-3129096D03*
D19*
X3693884Y-3079096D03*
X3693884Y-3029096D03*
D18*
X3693884Y-2979096D03*
X3593884Y-2979096D03*
D19*
X3593884Y-3029096D03*
X3593884Y-3079096D03*
D18*
X3593884Y-3129096D03*
D12*
X6215380Y-3680200D03*
X6215380Y-3584200D03*
D13*
X6123680Y-3680460D03*
X6027680Y-3680460D03*
D15*
X3468884Y-3981196D03*
X3564884Y-3981196D03*
D13*
X5888984Y-3756660D03*
X5792984Y-3756660D03*
D20*
X5889484Y-3858260D03*
X5792484Y-3858260D03*
D21*
X6556580Y-3108520D03*
X6556580Y-3180520D03*
X6484580Y-3108520D03*
X6484580Y-3180520D03*
D22*
X6595580Y-3000770D03*
X6545580Y-3000770D03*
X6495580Y-3000770D03*
X6445580Y-3000770D03*
D23*
X6376830Y-3069520D03*
X6376830Y-3119520D03*
X6376830Y-3169520D03*
X6376830Y-3219520D03*
D22*
X6445580Y-3288270D03*
X6495580Y-3288270D03*
X6545580Y-3288270D03*
X6595580Y-3288270D03*
D23*
X6664330Y-3219520D03*
X6664330Y-3169520D03*
X6664330Y-3119520D03*
X6664330Y-3069520D03*
D24*
X6901380Y-3214460D03*
X6799380Y-3214460D03*
D14*
X6215380Y-2997460D03*
X6215380Y-3093460D03*
D25*
X6456680Y-3390700D03*
X6456680Y-3492700D03*
X6215380Y-3388160D03*
X6215380Y-3490160D03*
D24*
X6901380Y-3112860D03*
X6799380Y-3112860D03*
D25*
X6215380Y-3184760D03*
X6215380Y-3286760D03*
D26*
X6337300Y-3390890D03*
X6337300Y-3548390D03*
D27*
X4865584Y-3684560D03*
X4865584Y-3644560D03*
X4865584Y-3604560D03*
X4865584Y-3564560D03*
X4865584Y-3524560D03*
X4865584Y-3484560D03*
X4865584Y-3444560D03*
X4865584Y-3404560D03*
X4865584Y-3364560D03*
X4865584Y-3324560D03*
X4865584Y-3284560D03*
X4865584Y-3244560D03*
D28*
X4785584Y-3164560D03*
X4745584Y-3164560D03*
X4705584Y-3164560D03*
X4665584Y-3164560D03*
X4625584Y-3164560D03*
X4585584Y-3164560D03*
X4545584Y-3164560D03*
X4505584Y-3164560D03*
X4465584Y-3164560D03*
X4425584Y-3164560D03*
X4385584Y-3164560D03*
X4345584Y-3164560D03*
D29*
X4265584Y-3244560D03*
X4265584Y-3284560D03*
X4265584Y-3324560D03*
X4265584Y-3364560D03*
X4265584Y-3404560D03*
X4265584Y-3444560D03*
X4265584Y-3484560D03*
X4265584Y-3524560D03*
X4265584Y-3564560D03*
X4265584Y-3604560D03*
X4265584Y-3644560D03*
X4265584Y-3684560D03*
D30*
X4345584Y-3764560D03*
X4385584Y-3764560D03*
X4425584Y-3764560D03*
X4465584Y-3764560D03*
X4505584Y-3764560D03*
X4545584Y-3764560D03*
X4585584Y-3764560D03*
X4625584Y-3764560D03*
X4665584Y-3764560D03*
X4705584Y-3764560D03*
X4745584Y-3764560D03*
X4785584Y-3764560D03*
D31*
X4565584Y-3464560D03*
D32*
X3310984Y-3460596D03*
X3310984Y-3625596D03*
X3310984Y-3790596D03*
X3544984Y-3790596D03*
X3544984Y-3625596D03*
D33*
X3534984Y-3470596D03*
D34*
X5726880Y-3371760D03*
X5726880Y-3201760D03*
X5941880Y-3371760D03*
X5941880Y-3201760D03*
D35*
X6024880Y-3016760D03*
X5897880Y-3016760D03*
X5770880Y-3016760D03*
X5643880Y-3016760D03*
X5643880Y-3556760D03*
X5770880Y-3556760D03*
X5897880Y-3556760D03*
X6024880Y-3556760D03*
D13*
X6898380Y-3320060D03*
X6802380Y-3320060D03*
D36*
X6801920Y-3421380D03*
X6903920Y-3421380D03*
D15*
X3858384Y-3210560D03*
X3954384Y-3210560D03*
D20*
X3336784Y-3981196D03*
X3239784Y-3981196D03*
D37*
X5336784Y-3280896D03*
X5176784Y-3280896D03*
X5176784Y-3690896D03*
X5336784Y-3690896D03*
D38*
X5399284Y-3485896D03*
D39*
X6230620Y-4059120D03*
X6230620Y-3957120D03*
D25*
X4316588Y-3841296D03*
X4316588Y-3943296D03*
D24*
X5859980Y-4104640D03*
X5757980Y-4104640D03*
D15*
X5506980Y-3751580D03*
X5602980Y-3751580D03*
D24*
X5880300Y-3967480D03*
X5778300Y-3967480D03*
D14*
X5974080Y-3975360D03*
X5974080Y-4071360D03*
D25*
X5369560Y-4007920D03*
X5369560Y-4109920D03*
D39*
X5443220Y-3259020D03*
X5443220Y-3157020D03*
D13*
X6583420Y-4091940D03*
X6487420Y-4091940D03*
D40*
X6812280Y-3904800D03*
X6812280Y-3689800D03*
D39*
X6332220Y-4056580D03*
X6332220Y-3954580D03*
D14*
X5379720Y-3797560D03*
X5379720Y-3893560D03*
D41*
X6609080Y-3987800D03*
X6454080Y-3987800D03*
X6623080Y-3601720D03*
X6468080Y-3601720D03*
D14*
X6573520Y-3396240D03*
X6573520Y-3492240D03*
D36*
X6243120Y-3845560D03*
X6345120Y-3845560D03*
D24*
X4866840Y-2941320D03*
X4764840Y-2941320D03*
D42*
X5612440Y-4110100D03*
X5612440Y-4020100D03*
X5612440Y-3930100D03*
X5612440Y-3840100D03*
X5492440Y-3840100D03*
X5492440Y-3930100D03*
X5492440Y-4020100D03*
X5492440Y-4110100D03*
D43*
X6458120Y-3694760D03*
X6458120Y-3744760D03*
X6458120Y-3794760D03*
X6458120Y-3844760D03*
X6458120Y-3894760D03*
D44*
X6623120Y-3894760D03*
X6623120Y-3844760D03*
X6623120Y-3744760D03*
X6623120Y-3694760D03*
D45*
X5067850Y-2975860D03*
X5067850Y-3070860D03*
X5067850Y-3165860D03*
X5295350Y-3165860D03*
X5295350Y-2975860D03*
D14*
X5458460Y-2974600D03*
X5458460Y-3070600D03*
D36*
X5506320Y-3657600D03*
X5608320Y-3657600D03*
D25*
X6070600Y-3972360D03*
X6070600Y-4074360D03*
M02*
