G04 #@! TF.GenerationSoftware,KiCad,Pcbnew,6.0.9-8da3e8f707~116~ubuntu22.04.1*
G04 #@! TF.CreationDate,2022-12-14T18:32:49+01:00*
G04 #@! TF.ProjectId,nRF52832_qfaa,6e524635-3238-4333-925f-716661612e6b,rev?*
G04 #@! TF.SameCoordinates,Original*
G04 #@! TF.FileFunction,Legend,Bot*
G04 #@! TF.FilePolarity,Positive*
%FSLAX45Y45*%
G04 Gerber Fmt 4.5, Leading zero omitted, Abs format (unit mm)*
G04 Created by KiCad (PCBNEW 6.0.9-8da3e8f707~116~ubuntu22.04.1) date 2022-12-14 18:32:49*
%MOMM*%
%LPD*%
G01*
G04 APERTURE LIST*
%ADD10C,0.120000*%
%ADD11C,0.300000*%
%ADD12C,0.150000*%
G04 APERTURE END LIST*
D10*
X3180080Y-3680460D02*
X3180080Y-3604260D01*
X3180080Y-3604260D02*
X3256280Y-3642360D01*
X3256280Y-3642360D02*
X3180080Y-3680460D01*
D11*
X6029189Y-3534086D02*
X6014189Y-3414086D01*
X5985618Y-3414086D01*
X5969189Y-3419800D01*
X5959189Y-3431228D01*
X5954903Y-3442657D01*
X5952046Y-3465514D01*
X5954189Y-3482657D01*
X5962761Y-3505514D01*
X5969903Y-3516943D01*
X5982761Y-3528371D01*
X6000618Y-3534086D01*
X6029189Y-3534086D01*
X5909189Y-3534086D02*
X5899189Y-3454086D01*
X5894189Y-3414086D02*
X5900618Y-3419800D01*
X5895618Y-3425514D01*
X5889189Y-3419800D01*
X5894189Y-3414086D01*
X5895618Y-3425514D01*
X5799903Y-3528371D02*
X5812046Y-3534086D01*
X5834903Y-3534086D01*
X5845618Y-3528371D01*
X5850618Y-3522657D01*
X5854903Y-3511228D01*
X5850618Y-3476943D01*
X5843475Y-3465514D01*
X5837046Y-3459800D01*
X5824903Y-3454086D01*
X5802046Y-3454086D01*
X5791332Y-3459800D01*
X5756332Y-3454086D02*
X5710618Y-3454086D01*
X5734189Y-3414086D02*
X5747046Y-3516943D01*
X5742761Y-3528371D01*
X5732046Y-3534086D01*
X5720618Y-3534086D01*
X5663475Y-3534086D02*
X5674189Y-3528371D01*
X5679189Y-3522657D01*
X5683475Y-3511228D01*
X5679189Y-3476943D01*
X5672046Y-3465514D01*
X5665618Y-3459800D01*
X5653475Y-3454086D01*
X5636332Y-3454086D01*
X5625618Y-3459800D01*
X5620618Y-3465514D01*
X5616332Y-3476943D01*
X5620618Y-3511228D01*
X5627761Y-3522657D01*
X5634189Y-3528371D01*
X5646332Y-3534086D01*
X5663475Y-3534086D01*
X5579189Y-3454086D02*
X5533475Y-3454086D01*
X5572046Y-3534086D02*
X5559189Y-3431228D01*
X5552046Y-3419800D01*
X5539904Y-3414086D01*
X5528475Y-3414086D01*
X5442046Y-3454086D02*
X5452046Y-3534086D01*
X5493475Y-3454086D02*
X5501332Y-3516943D01*
X5497046Y-3528371D01*
X5486332Y-3534086D01*
X5469189Y-3534086D01*
X5457046Y-3528371D01*
X5450618Y-3522657D01*
X5384904Y-3454086D02*
X5394904Y-3534086D01*
X5386332Y-3465514D02*
X5379904Y-3459800D01*
X5367761Y-3454086D01*
X5350618Y-3454086D01*
X5339904Y-3459800D01*
X5335618Y-3471228D01*
X5343475Y-3534086D01*
X5132046Y-3534086D02*
X5200618Y-3534086D01*
X5166332Y-3534086D02*
X5151332Y-3414086D01*
X5164904Y-3431228D01*
X5177761Y-3442657D01*
X5189904Y-3448371D01*
X5079189Y-3522657D02*
X5074189Y-3528371D01*
X5080618Y-3534086D01*
X5085618Y-3528371D01*
X5079189Y-3522657D01*
X5080618Y-3534086D01*
X5019904Y-3414086D02*
X4945618Y-3414086D01*
X4991332Y-3459800D01*
X4974189Y-3459800D01*
X4963475Y-3465514D01*
X4958475Y-3471228D01*
X4954189Y-3482657D01*
X4957761Y-3511228D01*
X4964904Y-3522657D01*
X4971332Y-3528371D01*
X4983475Y-3534086D01*
X5017761Y-3534086D01*
X5028475Y-3528371D01*
X5033475Y-3522657D01*
D12*
X5311201Y-3915571D02*
X5321320Y-3996524D01*
X5327272Y-4006048D01*
X5332629Y-4010809D01*
X5342748Y-4015571D01*
X5357034Y-4015571D01*
X5365963Y-4010809D01*
X5318939Y-3977476D02*
X5329058Y-3982238D01*
X5348105Y-3982238D01*
X5357034Y-3977476D01*
X5361201Y-3972714D01*
X5364772Y-3963190D01*
X5361201Y-3934619D01*
X5355248Y-3925095D01*
X5349891Y-3920333D01*
X5339772Y-3915571D01*
X5320724Y-3915571D01*
X5311796Y-3920333D01*
X5271915Y-3982238D02*
X5263582Y-3915571D01*
X5259415Y-3882238D02*
X5264772Y-3887000D01*
X5260605Y-3891762D01*
X5255248Y-3887000D01*
X5259415Y-3882238D01*
X5260605Y-3891762D01*
X5230248Y-3915571D02*
X5192153Y-3915571D01*
X5211796Y-3882238D02*
X5222510Y-3967952D01*
X5218939Y-3977476D01*
X5210010Y-3982238D01*
X5200486Y-3982238D01*
X5167153Y-3982238D02*
X5154653Y-3882238D01*
X5124296Y-3982238D02*
X5117748Y-3929857D01*
X5121320Y-3920333D01*
X5130248Y-3915571D01*
X5144534Y-3915571D01*
X5154653Y-3920333D01*
X5160010Y-3925095D01*
X5025486Y-3915571D02*
X5033820Y-3982238D01*
X5068343Y-3915571D02*
X5074891Y-3967952D01*
X5071320Y-3977476D01*
X5062391Y-3982238D01*
X5048105Y-3982238D01*
X5037986Y-3977476D01*
X5032629Y-3972714D01*
X4986201Y-3982238D02*
X4973701Y-3882238D01*
X4978463Y-3920333D02*
X4968343Y-3915571D01*
X4949296Y-3915571D01*
X4940367Y-3920333D01*
X4936201Y-3925095D01*
X4932629Y-3934619D01*
X4936201Y-3963190D01*
X4942153Y-3972714D01*
X4947510Y-3977476D01*
X4957629Y-3982238D01*
X4976677Y-3982238D01*
X4985605Y-3977476D01*
X4894534Y-3972714D02*
X4890367Y-3977476D01*
X4895724Y-3982238D01*
X4899891Y-3977476D01*
X4894534Y-3972714D01*
X4895724Y-3982238D01*
X4804653Y-3977476D02*
X4814772Y-3982238D01*
X4833820Y-3982238D01*
X4842748Y-3977476D01*
X4846915Y-3972714D01*
X4850486Y-3963190D01*
X4846915Y-3934619D01*
X4840963Y-3925095D01*
X4835605Y-3920333D01*
X4825486Y-3915571D01*
X4806439Y-3915571D01*
X4797510Y-3920333D01*
X4748105Y-3982238D02*
X4757034Y-3977476D01*
X4761201Y-3972714D01*
X4764772Y-3963190D01*
X4761201Y-3934619D01*
X4755248Y-3925095D01*
X4749891Y-3920333D01*
X4739772Y-3915571D01*
X4725486Y-3915571D01*
X4716558Y-3920333D01*
X4712391Y-3925095D01*
X4708820Y-3934619D01*
X4712391Y-3963190D01*
X4718343Y-3972714D01*
X4723701Y-3977476D01*
X4733820Y-3982238D01*
X4748105Y-3982238D01*
X4671915Y-3982238D02*
X4663582Y-3915571D01*
X4664772Y-3925095D02*
X4659415Y-3920333D01*
X4649296Y-3915571D01*
X4635010Y-3915571D01*
X4626082Y-3920333D01*
X4622510Y-3929857D01*
X4629058Y-3982238D01*
X4622510Y-3929857D02*
X4616558Y-3920333D01*
X4606439Y-3915571D01*
X4592153Y-3915571D01*
X4583224Y-3920333D01*
X4579653Y-3929857D01*
X4586201Y-3982238D01*
X4454058Y-3877476D02*
X4555843Y-4006048D01*
X4433820Y-3982238D02*
X4425486Y-3915571D01*
X4427867Y-3934619D02*
X4421915Y-3925095D01*
X4416558Y-3920333D01*
X4406439Y-3915571D01*
X4396915Y-3915571D01*
X4320724Y-3915571D02*
X4329058Y-3982238D01*
X4363582Y-3915571D02*
X4370129Y-3967952D01*
X4366558Y-3977476D01*
X4357629Y-3982238D01*
X4343343Y-3982238D01*
X4333224Y-3977476D01*
X4327867Y-3972714D01*
X4273105Y-3915571D02*
X4281439Y-3982238D01*
X4274296Y-3925095D02*
X4268939Y-3920333D01*
X4258820Y-3915571D01*
X4244534Y-3915571D01*
X4235605Y-3920333D01*
X4232034Y-3929857D01*
X4238582Y-3982238D01*
X4148105Y-3982238D02*
X4135605Y-3882238D01*
X4147510Y-3977476D02*
X4157629Y-3982238D01*
X4176677Y-3982238D01*
X4185605Y-3977476D01*
X4189772Y-3972714D01*
X4193343Y-3963190D01*
X4189772Y-3934619D01*
X4183820Y-3925095D01*
X4178462Y-3920333D01*
X4168343Y-3915571D01*
X4149296Y-3915571D01*
X4140367Y-3920333D01*
X4100486Y-3982238D02*
X4087986Y-3882238D01*
X4092748Y-3920333D02*
X4082629Y-3915571D01*
X4063581Y-3915571D01*
X4054653Y-3920333D01*
X4050486Y-3925095D01*
X4046915Y-3934619D01*
X4050486Y-3963190D01*
X4056439Y-3972714D01*
X4061796Y-3977476D01*
X4071915Y-3982238D01*
X4090962Y-3982238D01*
X4099891Y-3977476D01*
X3925486Y-3877476D02*
X4027272Y-4006048D01*
X3862391Y-3982238D02*
X3849891Y-3882238D01*
X3861796Y-3977476D02*
X3871915Y-3982238D01*
X3890962Y-3982238D01*
X3899891Y-3977476D01*
X3904058Y-3972714D01*
X3907629Y-3963190D01*
X3904058Y-3934619D01*
X3898105Y-3925095D01*
X3892748Y-3920333D01*
X3882629Y-3915571D01*
X3863581Y-3915571D01*
X3854653Y-3920333D01*
X3814772Y-3982238D02*
X3806439Y-3915571D01*
X3802272Y-3882238D02*
X3807629Y-3887000D01*
X3803462Y-3891762D01*
X3798105Y-3887000D01*
X3802272Y-3882238D01*
X3803462Y-3891762D01*
X3723700Y-3977476D02*
X3733820Y-3982238D01*
X3752867Y-3982238D01*
X3761796Y-3977476D01*
X3765962Y-3972714D01*
X3769534Y-3963190D01*
X3765962Y-3934619D01*
X3760010Y-3925095D01*
X3754653Y-3920333D01*
X3744534Y-3915571D01*
X3725486Y-3915571D01*
X3716558Y-3920333D01*
X3687391Y-3915571D02*
X3649296Y-3915571D01*
X3668939Y-3882238D02*
X3679653Y-3967952D01*
X3676081Y-3977476D01*
X3667153Y-3982238D01*
X3657629Y-3982238D01*
X3610010Y-3982238D02*
X3618939Y-3977476D01*
X3623105Y-3972714D01*
X3626677Y-3963190D01*
X3623105Y-3934619D01*
X3617153Y-3925095D01*
X3611796Y-3920333D01*
X3601677Y-3915571D01*
X3587391Y-3915571D01*
X3578462Y-3920333D01*
X3574296Y-3925095D01*
X3570724Y-3934619D01*
X3574296Y-3963190D01*
X3580248Y-3972714D01*
X3585605Y-3977476D01*
X3595724Y-3982238D01*
X3610010Y-3982238D01*
X3539772Y-3915571D02*
X3501677Y-3915571D01*
X3533820Y-3982238D02*
X3523105Y-3896524D01*
X3517153Y-3887000D01*
X3507034Y-3882238D01*
X3497510Y-3882238D01*
X3425486Y-3915571D02*
X3433820Y-3982238D01*
X3468343Y-3915571D02*
X3474891Y-3967952D01*
X3471320Y-3977476D01*
X3462391Y-3982238D01*
X3448105Y-3982238D01*
X3437986Y-3977476D01*
X3432629Y-3972714D01*
X3377867Y-3915571D02*
X3386200Y-3982238D01*
X3379058Y-3925095D02*
X3373700Y-3920333D01*
X3363581Y-3915571D01*
X3349296Y-3915571D01*
X3340367Y-3920333D01*
X3336796Y-3929857D01*
X3343343Y-3982238D01*
X6479613Y-3178698D02*
X6479613Y-3078698D01*
X6479613Y-3116793D02*
X6470089Y-3112031D01*
X6451042Y-3112031D01*
X6441518Y-3116793D01*
X6436756Y-3121555D01*
X6431994Y-3131079D01*
X6431994Y-3159650D01*
X6436756Y-3169174D01*
X6441518Y-3173936D01*
X6451042Y-3178698D01*
X6470089Y-3178698D01*
X6479613Y-3173936D01*
X6389137Y-3140603D02*
X6312947Y-3140603D01*
X6351042Y-3178698D02*
X6351042Y-3102508D01*
X6962947Y-3903936D02*
X6972470Y-3908698D01*
X6991518Y-3908698D01*
X7001042Y-3903936D01*
X7005804Y-3899174D01*
X7010566Y-3889650D01*
X7010566Y-3861079D01*
X7005804Y-3851555D01*
X7001042Y-3846793D01*
X6991518Y-3842031D01*
X6972470Y-3842031D01*
X6962947Y-3846793D01*
X6920089Y-3908698D02*
X6920089Y-3808698D01*
X6877232Y-3908698D02*
X6877232Y-3856317D01*
X6881994Y-3846793D01*
X6891518Y-3842031D01*
X6905804Y-3842031D01*
X6915328Y-3846793D01*
X6920089Y-3851555D01*
X6786756Y-3842031D02*
X6786756Y-3922984D01*
X6791518Y-3932508D01*
X6796280Y-3937269D01*
X6805804Y-3942031D01*
X6820089Y-3942031D01*
X6829613Y-3937269D01*
X6786756Y-3903936D02*
X6796280Y-3908698D01*
X6815328Y-3908698D01*
X6824851Y-3903936D01*
X6829613Y-3899174D01*
X6834375Y-3889650D01*
X6834375Y-3861079D01*
X6829613Y-3851555D01*
X6824851Y-3846793D01*
X6815328Y-3842031D01*
X6796280Y-3842031D01*
X6786756Y-3846793D01*
X6965328Y-3212031D02*
X6965328Y-3292984D01*
X6970089Y-3302508D01*
X6974851Y-3307269D01*
X6984375Y-3312031D01*
X6998661Y-3312031D01*
X7008185Y-3307269D01*
X6965328Y-3273936D02*
X6974851Y-3278698D01*
X6993899Y-3278698D01*
X7003423Y-3273936D01*
X7008185Y-3269174D01*
X7012947Y-3259650D01*
X7012947Y-3231079D01*
X7008185Y-3221555D01*
X7003423Y-3216793D01*
X6993899Y-3212031D01*
X6974851Y-3212031D01*
X6965328Y-3216793D01*
X6917708Y-3212031D02*
X6917708Y-3278698D01*
X6917708Y-3221555D02*
X6912947Y-3216793D01*
X6903423Y-3212031D01*
X6889137Y-3212031D01*
X6879613Y-3216793D01*
X6874851Y-3226317D01*
X6874851Y-3278698D01*
X6784375Y-3278698D02*
X6784375Y-3178698D01*
X6784375Y-3273936D02*
X6793899Y-3278698D01*
X6812947Y-3278698D01*
X6822470Y-3273936D01*
X6827232Y-3269174D01*
X6831994Y-3259650D01*
X6831994Y-3231079D01*
X6827232Y-3221555D01*
X6822470Y-3216793D01*
X6812947Y-3212031D01*
X6793899Y-3212031D01*
X6784375Y-3216793D01*
X6479613Y-3478698D02*
X6479613Y-3378698D01*
X6479613Y-3416793D02*
X6470089Y-3412031D01*
X6451042Y-3412031D01*
X6441518Y-3416793D01*
X6436756Y-3421555D01*
X6431994Y-3431079D01*
X6431994Y-3459650D01*
X6436756Y-3469174D01*
X6441518Y-3473936D01*
X6451042Y-3478698D01*
X6470089Y-3478698D01*
X6479613Y-3473936D01*
X6389137Y-3440603D02*
X6312947Y-3440603D01*
D10*
X3429284Y-3219696D02*
X3429284Y-3213196D01*
X3782284Y-3860196D02*
X3782284Y-3853696D01*
X3296784Y-3853696D02*
X3429284Y-3853696D01*
X3429284Y-3213196D02*
X3782284Y-3213196D01*
X3429284Y-3860196D02*
X3782284Y-3860196D01*
X3782284Y-3219696D02*
X3782284Y-3213196D01*
X3429284Y-3860196D02*
X3429284Y-3853696D01*
X6266280Y-3133460D02*
G75*
G03*
X6266280Y-3133460I-70000J0D01*
G01*
X6966280Y-3708460D02*
G75*
G03*
X6966280Y-3708460I-70000J0D01*
G01*
X6966280Y-3358460D02*
G75*
G03*
X6966280Y-3358460I-70000J0D01*
G01*
X6266280Y-3433460D02*
G75*
G03*
X6266280Y-3433460I-70000J0D01*
G01*
X5127140Y-2974340D02*
G75*
G03*
X5127140Y-2974340I-70000J0D01*
G01*
X6823860Y-4043680D02*
G75*
G03*
X6823860Y-4043680I-70000J0D01*
G01*
X5726580Y-3329940D02*
G75*
G03*
X5726580Y-3329940I-70000J0D01*
G01*
X6046620Y-3919220D02*
G75*
G03*
X6046620Y-3919220I-70000J0D01*
G01*
X3867300Y-4076700D02*
G75*
G03*
X3867300Y-4076700I-70000J0D01*
G01*
X4070500Y-4071620D02*
G75*
G03*
X4070500Y-4071620I-70000J0D01*
G01*
X5058560Y-4081780D02*
G75*
G03*
X5058560Y-4081780I-70000J0D01*
G01*
X3542180Y-3017520D02*
G75*
G03*
X3542180Y-3017520I-70000J0D01*
G01*
X5327800Y-3098800D02*
G75*
G03*
X5327800Y-3098800I-70000J0D01*
G01*
X4725820Y-4079240D02*
G75*
G03*
X4725820Y-4079240I-70000J0D01*
G01*
X3651400Y-4076700D02*
G75*
G03*
X3651400Y-4076700I-70000J0D01*
G01*
X6386980Y-4008120D02*
G75*
G03*
X6386980Y-4008120I-70000J0D01*
G01*
X4451500Y-4099560D02*
G75*
G03*
X4451500Y-4099560I-70000J0D01*
G01*
X6773060Y-3723640D02*
G75*
G03*
X6773060Y-3723640I-70000J0D01*
G01*
X5617360Y-2992120D02*
G75*
G03*
X5617360Y-2992120I-70000J0D01*
G01*
X5658000Y-3939540D02*
G75*
G03*
X5658000Y-3939540I-70000J0D01*
G01*
X6737500Y-2971800D02*
G75*
G03*
X6737500Y-2971800I-70000J0D01*
G01*
X4885840Y-2966720D02*
G75*
G03*
X4885840Y-2966720I-70000J0D01*
G01*
M02*
