G04 #@! TF.GenerationSoftware,KiCad,Pcbnew,6.0.9-8da3e8f707~116~ubuntu22.04.1*
G04 #@! TF.CreationDate,2022-12-14T17:19:13+01:00*
G04 #@! TF.ProjectId,nRF52832_qfaa,6e524635-3238-4333-925f-716661612e6b,rev?*
G04 #@! TF.SameCoordinates,Original*
G04 #@! TF.FileFunction,Copper,L1,Top*
G04 #@! TF.FilePolarity,Positive*
%FSLAX45Y45*%
G04 Gerber Fmt 4.5, Leading zero omitted, Abs format (unit mm)*
G04 Created by KiCad (PCBNEW 6.0.9-8da3e8f707~116~ubuntu22.04.1) date 2022-12-14 17:19:13*
%MOMM*%
%LPD*%
G01*
G04 APERTURE LIST*
G04 Aperture macros list*
%AMRoundRect*
0 Rectangle with rounded corners*
0 $1 Rounding radius*
0 $2 $3 $4 $5 $6 $7 $8 $9 X,Y pos of 4 corners*
0 Add a 4 corners polygon primitive as box body*
4,1,4,$2,$3,$4,$5,$6,$7,$8,$9,$2,$3,0*
0 Add four circle primitives for the rounded corners*
1,1,$1+$1,$2,$3*
1,1,$1+$1,$4,$5*
1,1,$1+$1,$6,$7*
1,1,$1+$1,$8,$9*
0 Add four rect primitives between the rounded corners*
20,1,$1+$1,$2,$3,$4,$5,0*
20,1,$1+$1,$4,$5,$6,$7,0*
20,1,$1+$1,$6,$7,$8,$9,0*
20,1,$1+$1,$8,$9,$2,$3,0*%
%AMHorizOval*
0 Thick line with rounded ends*
0 $1 width*
0 $2 $3 position (X,Y) of the first rounded end (center of the circle)*
0 $4 $5 position (X,Y) of the second rounded end (center of the circle)*
0 Add line between two ends*
20,1,$1,$2,$3,$4,$5,0*
0 Add two circle primitives to create the rounded ends*
1,1,$1,$2,$3*
1,1,$1,$4,$5*%
G04 Aperture macros list end*
G04 #@! TA.AperFunction,SMDPad,CuDef*
%ADD10R,0.850000X0.950000*%
G04 #@! TD*
G04 #@! TA.AperFunction,SMDPad,CuDef*
%ADD11RoundRect,0.140000X0.170000X-0.140000X0.170000X0.140000X-0.170000X0.140000X-0.170000X-0.140000X0*%
G04 #@! TD*
G04 #@! TA.AperFunction,SMDPad,CuDef*
%ADD12RoundRect,0.140000X0.140000X0.170000X-0.140000X0.170000X-0.140000X-0.170000X0.140000X-0.170000X0*%
G04 #@! TD*
G04 #@! TA.AperFunction,SMDPad,CuDef*
%ADD13RoundRect,0.140000X-0.170000X0.140000X-0.170000X-0.140000X0.170000X-0.140000X0.170000X0.140000X0*%
G04 #@! TD*
G04 #@! TA.AperFunction,SMDPad,CuDef*
%ADD14RoundRect,0.140000X-0.140000X-0.170000X0.140000X-0.170000X0.140000X0.170000X-0.140000X0.170000X0*%
G04 #@! TD*
G04 #@! TA.AperFunction,SMDPad,CuDef*
%ADD15R,1.000000X1.800000*%
G04 #@! TD*
G04 #@! TA.AperFunction,SMDPad,CuDef*
%ADD16R,1.000000X0.800000*%
G04 #@! TD*
G04 #@! TA.AperFunction,SMDPad,CuDef*
%ADD17R,0.500000X0.400000*%
G04 #@! TD*
G04 #@! TA.AperFunction,SMDPad,CuDef*
%ADD18R,0.500000X0.300000*%
G04 #@! TD*
G04 #@! TA.AperFunction,SMDPad,CuDef*
%ADD19RoundRect,0.147500X0.147500X0.172500X-0.147500X0.172500X-0.147500X-0.172500X0.147500X-0.172500X0*%
G04 #@! TD*
G04 #@! TA.AperFunction,SMDPad,CuDef*
%ADD20RoundRect,0.062500X-0.062500X0.375000X-0.062500X-0.375000X0.062500X-0.375000X0.062500X0.375000X0*%
G04 #@! TD*
G04 #@! TA.AperFunction,SMDPad,CuDef*
%ADD21RoundRect,0.062500X-0.375000X0.062500X-0.375000X-0.062500X0.375000X-0.062500X0.375000X0.062500X0*%
G04 #@! TD*
G04 #@! TA.AperFunction,ComponentPad*
%ADD22C,0.500000*%
G04 #@! TD*
G04 #@! TA.AperFunction,SMDPad,CuDef*
%ADD23R,1.450000X1.450000*%
G04 #@! TD*
G04 #@! TA.AperFunction,SMDPad,CuDef*
%ADD24RoundRect,0.135000X0.135000X0.185000X-0.135000X0.185000X-0.135000X-0.185000X0.135000X-0.185000X0*%
G04 #@! TD*
G04 #@! TA.AperFunction,SMDPad,CuDef*
%ADD25RoundRect,0.135000X-0.185000X0.135000X-0.185000X-0.135000X0.185000X-0.135000X0.185000X0.135000X0*%
G04 #@! TD*
G04 #@! TA.AperFunction,SMDPad,CuDef*
%ADD26RoundRect,0.218750X-0.256250X0.218750X-0.256250X-0.218750X0.256250X-0.218750X0.256250X0.218750X0*%
G04 #@! TD*
G04 #@! TA.AperFunction,SMDPad,CuDef*
%ADD27RoundRect,0.030000X0.295000X0.070000X-0.295000X0.070000X-0.295000X-0.070000X0.295000X-0.070000X0*%
G04 #@! TD*
G04 #@! TA.AperFunction,SMDPad,CuDef*
%ADD28RoundRect,0.030000X-0.070000X0.295000X-0.070000X-0.295000X0.070000X-0.295000X0.070000X0.295000X0*%
G04 #@! TD*
G04 #@! TA.AperFunction,SMDPad,CuDef*
%ADD29RoundRect,0.030000X-0.295000X-0.070000X0.295000X-0.070000X0.295000X0.070000X-0.295000X0.070000X0*%
G04 #@! TD*
G04 #@! TA.AperFunction,SMDPad,CuDef*
%ADD30RoundRect,0.030000X0.070000X-0.295000X0.070000X0.295000X-0.070000X0.295000X-0.070000X-0.295000X0*%
G04 #@! TD*
G04 #@! TA.AperFunction,SMDPad,CuDef*
%ADD31R,4.700000X4.700000*%
G04 #@! TD*
G04 #@! TA.AperFunction,ComponentPad*
%ADD32C,0.908000*%
G04 #@! TD*
G04 #@! TA.AperFunction,SMDPad,CuDef*
%ADD33C,0.910000*%
G04 #@! TD*
G04 #@! TA.AperFunction,SMDPad,CuDef*
%ADD34HorizOval,0.910000X0.100000X0.100000X-0.100000X-0.100000X0*%
G04 #@! TD*
G04 #@! TA.AperFunction,SMDPad,CuDef*
%ADD35RoundRect,0.125000X-0.125000X0.250000X-0.125000X-0.250000X0.125000X-0.250000X0.125000X0.250000X0*%
G04 #@! TD*
G04 #@! TA.AperFunction,SMDPad,CuDef*
%ADD36R,4.300000X3.400000*%
G04 #@! TD*
G04 #@! TA.AperFunction,SMDPad,CuDef*
%ADD37RoundRect,0.135000X-0.135000X-0.185000X0.135000X-0.185000X0.135000X0.185000X-0.135000X0.185000X0*%
G04 #@! TD*
G04 #@! TA.AperFunction,SMDPad,CuDef*
%ADD38R,1.000000X0.900000*%
G04 #@! TD*
G04 #@! TA.AperFunction,SMDPad,CuDef*
%ADD39R,0.550000X1.700000*%
G04 #@! TD*
G04 #@! TA.AperFunction,SMDPad,CuDef*
%ADD40RoundRect,0.135000X0.185000X-0.135000X0.185000X0.135000X-0.185000X0.135000X-0.185000X-0.135000X0*%
G04 #@! TD*
G04 #@! TA.AperFunction,ComponentPad*
%ADD41C,0.850000*%
G04 #@! TD*
G04 #@! TA.AperFunction,SMDPad,CuDef*
%ADD42RoundRect,0.250000X0.850000X-0.375000X0.850000X0.375000X-0.850000X0.375000X-0.850000X-0.375000X0*%
G04 #@! TD*
G04 #@! TA.AperFunction,SMDPad,CuDef*
%ADD43RoundRect,0.225000X0.225000X0.250000X-0.225000X0.250000X-0.225000X-0.250000X0.225000X-0.250000X0*%
G04 #@! TD*
G04 #@! TA.AperFunction,SMDPad,CuDef*
%ADD44R,0.800000X0.500000*%
G04 #@! TD*
G04 #@! TA.AperFunction,SMDPad,CuDef*
%ADD45RoundRect,0.012500X-0.287500X-0.112500X0.287500X-0.112500X0.287500X0.112500X-0.287500X0.112500X0*%
G04 #@! TD*
G04 #@! TA.AperFunction,SMDPad,CuDef*
%ADD46RoundRect,0.012500X-0.437500X-0.112500X0.437500X-0.112500X0.437500X0.112500X-0.437500X0.112500X0*%
G04 #@! TD*
G04 #@! TA.AperFunction,SMDPad,CuDef*
%ADD47RoundRect,0.012500X-0.637500X-0.112500X0.637500X-0.112500X0.637500X0.112500X-0.637500X0.112500X0*%
G04 #@! TD*
G04 #@! TA.AperFunction,SMDPad,CuDef*
%ADD48RoundRect,0.150000X-0.512500X-0.150000X0.512500X-0.150000X0.512500X0.150000X-0.512500X0.150000X0*%
G04 #@! TD*
G04 #@! TA.AperFunction,ViaPad*
%ADD49C,0.600000*%
G04 #@! TD*
G04 #@! TA.AperFunction,ViaPad*
%ADD50C,0.450000*%
G04 #@! TD*
G04 #@! TA.AperFunction,ViaPad*
%ADD51C,0.800000*%
G04 #@! TD*
G04 #@! TA.AperFunction,Conductor*
%ADD52C,0.200000*%
G04 #@! TD*
G04 #@! TA.AperFunction,Conductor*
%ADD53C,0.250000*%
G04 #@! TD*
G04 #@! TA.AperFunction,Conductor*
%ADD54C,0.500000*%
G04 #@! TD*
G04 #@! TA.AperFunction,Conductor*
%ADD55C,0.400000*%
G04 #@! TD*
G04 #@! TA.AperFunction,Conductor*
%ADD56C,0.150000*%
G04 #@! TD*
G04 #@! TA.AperFunction,Conductor*
%ADD57C,0.127000*%
G04 #@! TD*
G04 #@! TA.AperFunction,Conductor*
%ADD58C,0.254000*%
G04 #@! TD*
G04 #@! TA.AperFunction,Conductor*
%ADD59C,0.700000*%
G04 #@! TD*
G04 APERTURE END LIST*
D10*
X3966988Y-3776760D03*
X3966988Y-3921760D03*
X4081988Y-3921760D03*
X4081988Y-3776760D03*
D11*
X4055984Y-3312160D03*
X4055984Y-3216160D03*
D12*
X4088484Y-4048760D03*
X3992484Y-4048760D03*
D13*
X3872088Y-3838460D03*
X3872088Y-3934460D03*
D14*
X3967084Y-3413760D03*
X4063084Y-3413760D03*
D11*
X4848860Y-3982460D03*
X4848860Y-3886460D03*
X4919584Y-3144260D03*
X4919584Y-3048260D03*
D13*
X4214988Y-3810260D03*
X4214988Y-3906260D03*
D12*
X3932788Y-3528060D03*
X3836788Y-3528060D03*
X3945488Y-3629660D03*
X3849488Y-3629660D03*
D13*
X4754484Y-3911860D03*
X4754484Y-4007860D03*
X4652884Y-3911860D03*
X4652884Y-4007860D03*
D15*
X4962620Y-3912496D03*
X5212620Y-3912496D03*
D12*
X5059420Y-4075796D03*
X4963420Y-4075796D03*
D14*
X5153920Y-4075796D03*
X5249920Y-4075796D03*
D16*
X3302184Y-3062596D03*
X3452184Y-3062596D03*
X3452184Y-3172596D03*
X3302184Y-3172596D03*
D17*
X3693884Y-3129096D03*
D18*
X3693884Y-3079096D03*
X3693884Y-3029096D03*
D17*
X3693884Y-2979096D03*
X3593884Y-2979096D03*
D18*
X3593884Y-3029096D03*
X3593884Y-3079096D03*
D17*
X3593884Y-3129096D03*
D11*
X6215380Y-3680200D03*
X6215380Y-3584200D03*
D12*
X6123680Y-3680460D03*
X6027680Y-3680460D03*
D14*
X3468884Y-3981196D03*
X3564884Y-3981196D03*
D12*
X5888984Y-3756660D03*
X5792984Y-3756660D03*
D19*
X5889484Y-3858260D03*
X5792484Y-3858260D03*
D20*
X6595580Y-3000770D03*
X6545580Y-3000770D03*
X6495580Y-3000770D03*
X6445580Y-3000770D03*
D21*
X6376830Y-3069520D03*
X6376830Y-3119520D03*
X6376830Y-3169520D03*
X6376830Y-3219520D03*
D20*
X6445580Y-3288270D03*
X6495580Y-3288270D03*
X6545580Y-3288270D03*
X6595580Y-3288270D03*
D21*
X6664330Y-3219520D03*
X6664330Y-3169520D03*
X6664330Y-3119520D03*
X6664330Y-3069520D03*
D22*
X6473080Y-3097020D03*
X6568080Y-3097020D03*
X6568080Y-3192020D03*
D23*
X6520580Y-3144520D03*
D22*
X6473080Y-3192020D03*
D24*
X6901380Y-3214460D03*
X6799380Y-3214460D03*
D13*
X6215380Y-2997460D03*
X6215380Y-3093460D03*
D25*
X6456680Y-3390700D03*
X6456680Y-3492700D03*
X6215380Y-3388160D03*
X6215380Y-3490160D03*
D24*
X6901380Y-3112860D03*
X6799380Y-3112860D03*
D25*
X6215380Y-3184760D03*
X6215380Y-3286760D03*
D26*
X6337300Y-3390890D03*
X6337300Y-3548390D03*
D27*
X4865584Y-3684560D03*
X4865584Y-3644560D03*
X4865584Y-3604560D03*
X4865584Y-3564560D03*
X4865584Y-3524560D03*
X4865584Y-3484560D03*
X4865584Y-3444560D03*
X4865584Y-3404560D03*
X4865584Y-3364560D03*
X4865584Y-3324560D03*
X4865584Y-3284560D03*
X4865584Y-3244560D03*
D28*
X4785584Y-3164560D03*
X4745584Y-3164560D03*
X4705584Y-3164560D03*
X4665584Y-3164560D03*
X4625584Y-3164560D03*
X4585584Y-3164560D03*
X4545584Y-3164560D03*
X4505584Y-3164560D03*
X4465584Y-3164560D03*
X4425584Y-3164560D03*
X4385584Y-3164560D03*
X4345584Y-3164560D03*
D29*
X4265584Y-3244560D03*
X4265584Y-3284560D03*
X4265584Y-3324560D03*
X4265584Y-3364560D03*
X4265584Y-3404560D03*
X4265584Y-3444560D03*
X4265584Y-3484560D03*
X4265584Y-3524560D03*
X4265584Y-3564560D03*
X4265584Y-3604560D03*
X4265584Y-3644560D03*
X4265584Y-3684560D03*
D30*
X4345584Y-3764560D03*
X4385584Y-3764560D03*
X4425584Y-3764560D03*
X4465584Y-3764560D03*
X4505584Y-3764560D03*
X4545584Y-3764560D03*
X4585584Y-3764560D03*
X4625584Y-3764560D03*
X4665584Y-3764560D03*
X4705584Y-3764560D03*
X4745584Y-3764560D03*
X4785584Y-3764560D03*
D31*
X4565584Y-3464560D03*
D32*
X4745584Y-3644560D03*
X4745584Y-3524560D03*
X4745584Y-3404560D03*
X4745584Y-3284560D03*
X4625584Y-3644560D03*
X4625584Y-3524560D03*
X4625584Y-3404560D03*
X4625584Y-3284560D03*
X4505584Y-3644560D03*
X4505584Y-3524560D03*
X4505584Y-3404560D03*
X4505584Y-3284560D03*
X4385584Y-3644560D03*
X4385584Y-3524560D03*
X4385584Y-3404560D03*
X4385584Y-3284560D03*
D33*
X3310984Y-3460596D03*
X3310984Y-3625596D03*
X3310984Y-3790596D03*
X3544984Y-3790596D03*
X3544984Y-3625596D03*
D34*
X3534984Y-3470596D03*
D35*
X6024880Y-3016760D03*
X5897880Y-3016760D03*
X5770880Y-3016760D03*
X5643880Y-3016760D03*
X5643880Y-3556760D03*
X5770880Y-3556760D03*
X5897880Y-3556760D03*
X6024880Y-3556760D03*
D36*
X5834380Y-3286760D03*
D12*
X6898380Y-3320060D03*
X6802380Y-3320060D03*
D37*
X6801920Y-3421380D03*
X6903920Y-3421380D03*
D14*
X3858384Y-3210560D03*
X3954384Y-3210560D03*
D19*
X3336784Y-3981196D03*
X3239784Y-3981196D03*
D38*
X5336784Y-3280896D03*
X5176784Y-3280896D03*
X5176784Y-3690896D03*
X5336784Y-3690896D03*
D39*
X5399284Y-3485896D03*
D40*
X6230620Y-4059120D03*
X6230620Y-3957120D03*
D41*
X4051300Y-3022600D03*
D25*
X4316588Y-3841296D03*
X4316588Y-3943296D03*
D24*
X5859980Y-4104640D03*
X5757980Y-4104640D03*
D14*
X5506980Y-3751580D03*
X5602980Y-3751580D03*
D24*
X5880300Y-3967480D03*
X5778300Y-3967480D03*
D13*
X5974080Y-3975360D03*
X5974080Y-4071360D03*
D25*
X5369560Y-4007920D03*
X5369560Y-4109920D03*
D40*
X5443220Y-3259020D03*
X5443220Y-3157020D03*
D12*
X6583420Y-4091940D03*
X6487420Y-4091940D03*
D42*
X6812280Y-3904800D03*
X6812280Y-3689800D03*
D40*
X6332220Y-4056580D03*
X6332220Y-3954580D03*
D13*
X5379720Y-3797560D03*
X5379720Y-3893560D03*
D43*
X6609080Y-3987800D03*
X6454080Y-3987800D03*
X6623080Y-3601720D03*
X6468080Y-3601720D03*
D13*
X6573520Y-3396240D03*
X6573520Y-3492240D03*
D37*
X6243120Y-3845560D03*
X6345120Y-3845560D03*
D24*
X4866840Y-2941320D03*
X4764840Y-2941320D03*
D44*
X5612440Y-4110100D03*
X5612440Y-4020100D03*
X5612440Y-3930100D03*
X5612440Y-3840100D03*
X5492440Y-3840100D03*
X5492440Y-3930100D03*
X5492440Y-4020100D03*
X5492440Y-4110100D03*
D45*
X6458120Y-3694760D03*
X6458120Y-3744760D03*
X6458120Y-3794760D03*
X6458120Y-3844760D03*
X6458120Y-3894760D03*
D46*
X6623120Y-3894760D03*
X6623120Y-3844760D03*
D47*
X6603120Y-3794760D03*
D46*
X6623120Y-3744760D03*
X6623120Y-3694760D03*
D48*
X5067850Y-2975860D03*
X5067850Y-3070860D03*
X5067850Y-3165860D03*
X5295350Y-3165860D03*
X5295350Y-2975860D03*
D13*
X5458460Y-2974600D03*
X5458460Y-3070600D03*
D37*
X5506320Y-3657600D03*
X5608320Y-3657600D03*
D25*
X6070600Y-3972360D03*
X6070600Y-4074360D03*
D49*
X5935980Y-3667760D03*
X5684520Y-3695146D03*
D50*
X4100688Y-3663696D03*
X4233784Y-4023360D03*
X3928984Y-3083560D03*
X3890884Y-3134360D03*
X3801984Y-3147060D03*
X6845300Y-3037840D03*
X6964680Y-3121660D03*
X6628550Y-3464560D03*
X6977380Y-3365500D03*
X6441440Y-4064000D03*
X4144955Y-3274131D03*
D49*
X3326384Y-3282696D03*
D50*
X5305883Y-3831459D03*
X4754484Y-4087763D03*
X6537950Y-3881120D03*
D49*
X4151884Y-4120896D03*
D50*
X4192611Y-3080487D03*
D49*
X5713984Y-3858260D03*
D50*
X6537950Y-3716020D03*
D49*
X5104384Y-4019296D03*
D50*
X4919584Y-2997200D03*
D49*
X3192780Y-3832860D03*
D50*
X6017260Y-4130040D03*
X6101080Y-3210560D03*
D49*
X3631184Y-3981196D03*
D51*
X5702300Y-2933700D03*
D50*
X6384681Y-3312160D03*
X4652884Y-4087763D03*
X5003800Y-3223260D03*
D49*
X5468620Y-3434080D03*
X5051759Y-3637796D03*
D50*
X6537950Y-3827780D03*
D49*
X3638682Y-3483950D03*
X6464477Y-3998197D03*
D50*
X6537950Y-3769360D03*
X6177280Y-3528060D03*
D49*
X6977380Y-3223260D03*
D50*
X4144813Y-3375589D03*
X6278880Y-2980960D03*
X6654800Y-4132580D03*
X4498960Y-3936380D03*
X5292123Y-4143998D03*
D49*
X3262884Y-3904996D03*
X4930140Y-3192780D03*
D50*
X5867400Y-4046220D03*
X6809740Y-4058920D03*
X6370320Y-4104640D03*
X6738620Y-4112260D03*
X4805406Y-3821416D03*
D49*
X3162300Y-3251200D03*
X4259184Y-3743960D03*
D50*
X6736080Y-4010660D03*
X6184900Y-4130040D03*
X6609080Y-4071620D03*
X6327140Y-4140200D03*
X6118480Y-3612260D03*
D49*
X4381500Y-4099560D03*
X3568700Y-3905246D03*
D50*
X4461867Y-3846470D03*
X4194884Y-3321790D03*
D49*
X3732784Y-3790696D03*
D50*
X4198884Y-3233560D03*
D49*
X3732784Y-3663696D03*
D50*
X4214988Y-3143610D03*
D49*
X3701475Y-3282549D03*
X6520180Y-2939796D03*
D50*
X6284280Y-3045460D03*
D49*
X6189980Y-3134360D03*
X5255774Y-3459994D03*
D50*
X5834380Y-3629660D03*
D49*
X5532120Y-3540760D03*
D50*
X5581930Y-3208939D03*
X6088380Y-3020060D03*
X5531644Y-3241579D03*
X5844148Y-3070860D03*
D49*
X5842000Y-2933700D03*
D50*
X5514904Y-3141757D03*
D49*
X5067300Y-3294380D03*
D50*
X4411027Y-2965148D03*
D49*
X3873201Y-2975961D03*
X3770884Y-2952496D03*
D50*
X4328192Y-2918423D03*
D49*
X3847143Y-3066796D03*
D50*
X4372339Y-3010945D03*
X6691806Y-3305635D03*
X4709160Y-2991350D03*
X4757210Y-3027201D03*
X5460815Y-3306917D03*
D49*
X5180584Y-3689096D03*
X5955284Y-3810046D03*
D50*
X4284980Y-4061460D03*
D49*
X5177559Y-3278387D03*
D50*
X5016300Y-3578471D03*
D49*
X6113780Y-3337560D03*
D50*
X4424682Y-4009105D03*
X5701284Y-4036060D03*
X4520866Y-3835832D03*
D49*
X3662890Y-3868931D03*
X3707384Y-3536696D03*
D50*
X4265788Y-3103599D03*
X5581886Y-3353834D03*
X5390500Y-3128310D03*
X5171550Y-3172460D03*
X4361538Y-4000543D03*
X5681600Y-4110100D03*
X4540634Y-3054210D03*
X5430140Y-4110100D03*
X4483100Y-3078480D03*
X4604136Y-3834516D03*
X5440680Y-3690620D03*
X5302163Y-3900083D03*
X5763260Y-3665220D03*
D49*
X5332984Y-3282696D03*
D50*
X6677660Y-3561080D03*
X6624320Y-3393440D03*
X6268720Y-4102100D03*
X6296660Y-3134360D03*
D49*
X6521150Y-3352800D03*
D50*
X5398520Y-2975860D03*
D49*
X5332984Y-3689096D03*
D50*
X5184140Y-3004820D03*
X6146800Y-3967480D03*
D52*
X3878184Y-3413760D02*
X3878184Y-3312160D01*
D53*
X6384681Y-3312160D02*
X6384681Y-3312160D01*
D54*
X6101080Y-3210560D02*
X5910580Y-3210560D01*
D52*
X4192611Y-3080487D02*
X4190711Y-3082388D01*
D55*
X3928158Y-3095434D02*
X3929033Y-3094559D01*
D53*
X6278880Y-2980960D02*
X6278880Y-2980960D01*
D56*
X6428740Y-2936240D02*
X6323600Y-2936240D01*
X6278880Y-2994660D02*
X6278880Y-2980960D01*
D52*
X4170284Y-3401060D02*
X4144813Y-3375589D01*
X4871984Y-3566160D02*
X4870384Y-3564560D01*
X4564887Y-4087763D02*
X4652884Y-4087763D01*
D54*
X5910580Y-3210560D02*
X5834380Y-3286760D01*
D56*
X3890884Y-4086860D02*
X3890884Y-4036060D01*
D57*
X5713984Y-3790696D02*
X5713984Y-3858260D01*
D53*
X5974080Y-4117340D02*
X5986780Y-4130040D01*
D52*
X6531520Y-3169520D02*
X6520580Y-3180460D01*
D57*
X5748020Y-3756660D02*
X5713984Y-3790696D01*
X5643880Y-2992120D02*
X5702300Y-2933700D01*
D52*
X4233784Y-3912356D02*
X4227688Y-3906260D01*
X6384681Y-3312160D02*
X6382141Y-3314700D01*
D53*
X6537950Y-3827780D02*
X6537950Y-3794770D01*
D52*
X3649436Y-3473196D02*
X3638682Y-3483950D01*
X6534760Y-3668400D02*
X6468080Y-3601720D01*
D53*
X6537950Y-3881120D02*
X6537950Y-3827780D01*
D52*
X3872088Y-3934460D02*
X3872088Y-4017264D01*
D55*
X6215180Y-3490160D02*
X6177280Y-3528060D01*
D57*
X5067850Y-3165860D02*
X5003800Y-3165860D01*
D58*
X3192780Y-3733800D02*
X3192780Y-3832860D01*
D52*
X6365240Y-3825440D02*
X6345120Y-3845560D01*
X4665584Y-3684560D02*
X4625584Y-3644560D01*
D57*
X5416804Y-3485896D02*
X5468620Y-3434080D01*
D53*
X3801984Y-3454796D02*
X3801984Y-3147060D01*
D52*
X3992484Y-4048760D02*
X3903584Y-4048760D01*
D55*
X6456680Y-4104640D02*
X6441440Y-4089400D01*
X3928984Y-3094509D02*
X3929033Y-3094559D01*
D58*
X5612440Y-3930100D02*
X5642144Y-3930100D01*
D57*
X4966373Y-3484210D02*
X5012764Y-3530600D01*
D56*
X4133249Y-4102261D02*
X4151884Y-4120896D01*
D57*
X5379720Y-3893560D02*
X5376920Y-3893560D01*
D52*
X6664330Y-3119520D02*
X6663930Y-3119120D01*
X3878184Y-3413760D02*
X3967084Y-3413760D01*
D57*
X5110084Y-4075796D02*
X5059420Y-4075796D01*
D54*
X6573520Y-3492240D02*
X6600870Y-3492240D01*
D52*
X3195580Y-3830060D02*
X3192780Y-3832860D01*
X4081988Y-3682396D02*
X4081988Y-3776760D01*
X4002644Y-2933700D02*
X3928158Y-3008186D01*
D53*
X6262380Y-2997460D02*
X6278880Y-2980960D01*
X6454080Y-3992880D02*
X6459160Y-3992880D01*
X6537950Y-3769360D02*
X6537950Y-3716020D01*
D52*
X4195684Y-3077415D02*
X4192611Y-3080487D01*
X3783584Y-3473196D02*
X3783584Y-3524504D01*
D57*
X4865584Y-3484560D02*
X4865934Y-3484210D01*
D52*
X3878184Y-3312160D02*
X3878184Y-3230360D01*
D53*
X4754484Y-4007860D02*
X4754484Y-4087763D01*
D58*
X6903920Y-3428800D02*
X6903720Y-3429000D01*
X5684520Y-3695146D02*
X5630626Y-3749040D01*
D52*
X4870384Y-3564560D02*
X4865584Y-3564560D01*
D53*
X4144813Y-3274272D02*
X4144813Y-3375589D01*
D57*
X4772460Y-2943860D02*
X4772460Y-2946200D01*
D58*
X3192780Y-3543300D02*
X3192780Y-3568700D01*
D53*
X6070600Y-4107180D02*
X6070600Y-4074360D01*
D52*
X4865584Y-3484560D02*
X4785584Y-3484560D01*
D54*
X6600870Y-3492240D02*
X6628550Y-3464560D01*
D52*
X6581920Y-3119120D02*
X6520580Y-3180460D01*
D56*
X6323600Y-2936240D02*
X6278880Y-2980960D01*
D57*
X5399284Y-3485896D02*
X5416804Y-3485896D01*
D52*
X3783584Y-3473196D02*
X3649436Y-3473196D01*
X4195684Y-3070860D02*
X4195684Y-3077415D01*
D57*
X5792984Y-3756660D02*
X5748020Y-3756660D01*
X3787140Y-3528060D02*
X3783584Y-3524504D01*
X5153920Y-4075796D02*
X5110084Y-4075796D01*
D53*
X6968580Y-3214460D02*
X6977380Y-3223260D01*
D55*
X3876532Y-3147060D02*
X3928158Y-3095434D01*
D56*
X3906285Y-4102261D02*
X3890884Y-4086860D01*
D52*
X4233784Y-4023360D02*
X4233784Y-3912356D01*
X6325800Y-3219520D02*
X6450660Y-3219520D01*
X4665584Y-3564560D02*
X4565584Y-3464560D01*
X6659250Y-3169520D02*
X6531520Y-3169520D01*
D56*
X4007885Y-4102261D02*
X4133249Y-4102261D01*
D58*
X5630626Y-3749040D02*
X5602980Y-3749040D01*
D52*
X6537940Y-3794760D02*
X6537950Y-3794770D01*
X4144884Y-3375519D02*
X4144813Y-3375589D01*
D53*
X6464477Y-3998197D02*
X6530340Y-3932333D01*
D57*
X5316220Y-3832860D02*
X5311140Y-3827780D01*
D55*
X6441440Y-4005520D02*
X6454080Y-3992880D01*
D53*
X6901380Y-3317060D02*
X6898380Y-3320060D01*
D52*
X4190711Y-3088533D02*
X4190711Y-3082388D01*
X4144884Y-3375660D02*
X4144884Y-3375660D01*
D53*
X3796284Y-3460496D02*
X3801984Y-3454796D01*
D55*
X6228080Y-3581660D02*
X6228080Y-3578860D01*
D52*
X4936884Y-3566160D02*
X4871984Y-3566160D01*
D57*
X5792484Y-3858260D02*
X5713984Y-3858260D01*
D52*
X6534760Y-3672220D02*
X6534760Y-3668400D01*
X6299200Y-3246120D02*
X6325800Y-3219520D01*
D53*
X6530340Y-3888730D02*
X6537950Y-3881120D01*
D58*
X3310984Y-3625596D02*
X3298284Y-3638296D01*
D52*
X4856084Y-3979660D02*
X4859584Y-3979660D01*
D58*
X3192780Y-3568700D02*
X3192780Y-3733800D01*
D52*
X3872088Y-4017264D02*
X3890884Y-4036060D01*
D55*
X6228080Y-3578860D02*
X6177280Y-3528060D01*
D57*
X5003800Y-3165860D02*
X5003800Y-3223260D01*
D53*
X6445580Y-3069520D02*
X6473080Y-3097020D01*
D52*
X3878184Y-3230360D02*
X3858384Y-3210560D01*
D53*
X6537950Y-3716020D02*
X6537950Y-3671600D01*
D55*
X6441440Y-4064000D02*
X6441440Y-4005520D01*
D58*
X3199384Y-3638296D02*
X3192780Y-3631692D01*
D52*
X3796284Y-3460496D02*
X3783584Y-3473196D01*
D57*
X4828540Y-3002280D02*
X4914504Y-3002280D01*
D52*
X3858384Y-3216160D02*
X3858384Y-3210560D01*
X4919584Y-3048260D02*
X4919584Y-2997200D01*
D53*
X6376830Y-3069520D02*
X6445580Y-3069520D01*
X6537950Y-3794770D02*
X6537950Y-3769360D01*
D58*
X3254188Y-3733800D02*
X3192780Y-3733800D01*
D52*
X4195684Y-3401060D02*
X4170284Y-3401060D01*
X3967084Y-3464560D02*
X3967084Y-3413760D01*
D55*
X6484880Y-4104640D02*
X6456680Y-4104640D01*
D53*
X3800348Y-3464560D02*
X3967084Y-3464560D01*
X6047740Y-4130040D02*
X6070600Y-4107180D01*
D58*
X3564884Y-3981196D02*
X3631184Y-3981196D01*
D53*
X5643880Y-3016760D02*
X5643880Y-2992120D01*
D52*
X6299200Y-3289300D02*
X6299200Y-3246120D01*
X4182984Y-2969260D02*
X4147424Y-2933700D01*
D53*
X4144955Y-3274131D02*
X4144813Y-3274272D01*
D57*
X3836788Y-3528060D02*
X3787140Y-3528060D01*
D52*
X4144884Y-3134360D02*
X4144884Y-3375519D01*
D58*
X5642144Y-3930100D02*
X5713984Y-3858260D01*
D57*
X4865934Y-3484210D02*
X4966373Y-3484210D01*
D52*
X4865584Y-3564560D02*
X4665584Y-3564560D01*
D58*
X3310984Y-3790596D02*
X3254188Y-3733800D01*
D53*
X6901380Y-3214460D02*
X6968580Y-3214460D01*
X4144884Y-3134360D02*
X4182984Y-3096260D01*
D56*
X4007885Y-4102261D02*
X3906285Y-4102261D01*
D57*
X5376920Y-3893560D02*
X5316220Y-3832860D01*
D58*
X6903720Y-3429000D02*
X6913880Y-3429000D01*
D52*
X4665584Y-3764560D02*
X4665584Y-3684560D01*
X3928158Y-3008186D02*
X3928158Y-3095434D01*
X6324600Y-3314700D02*
X6299200Y-3289300D01*
D53*
X4195684Y-3058160D02*
X4195684Y-3070860D01*
X4652884Y-4007860D02*
X4652884Y-4087763D01*
X5986780Y-4130040D02*
X6017260Y-4130040D01*
D52*
X3903584Y-4048760D02*
X3890884Y-4036060D01*
D58*
X6913880Y-3429000D02*
X6977380Y-3365500D01*
D53*
X6017260Y-4130040D02*
X6047740Y-4130040D01*
X6530340Y-3932333D02*
X6530340Y-3888730D01*
D52*
X6503940Y-3197100D02*
X6520580Y-3180460D01*
D56*
X6445580Y-2953080D02*
X6428740Y-2936240D01*
D53*
X4144884Y-3134360D02*
X4144884Y-3274060D01*
D57*
X5104384Y-4070096D02*
X5104384Y-4019296D01*
D52*
X4265584Y-3484560D02*
X3987084Y-3484560D01*
D53*
X6537950Y-3671600D02*
X6532220Y-3665870D01*
D52*
X3865484Y-3203460D02*
X3858384Y-3210560D01*
D54*
X6101080Y-3210560D02*
X6101080Y-3210560D01*
D52*
X4785584Y-3484560D02*
X4745584Y-3524560D01*
X5008520Y-3637796D02*
X4936884Y-3566160D01*
D58*
X6903920Y-3421380D02*
X6903920Y-3428800D01*
D53*
X4144884Y-3274060D02*
X4144955Y-3274131D01*
D58*
X3298284Y-3638296D02*
X3199384Y-3638296D01*
D52*
X4827884Y-4007860D02*
X4856084Y-3979660D01*
D57*
X5311140Y-3827780D02*
X5305883Y-3831459D01*
D54*
X6177280Y-3528060D02*
X5935980Y-3286760D01*
D52*
X6382141Y-3314700D02*
X6324600Y-3314700D01*
X6416240Y-3794760D02*
X6458120Y-3794760D01*
X4147424Y-2933700D02*
X4002644Y-2933700D01*
D55*
X3801984Y-3147060D02*
X3876532Y-3147060D01*
D53*
X6931940Y-3320060D02*
X6977380Y-3365500D01*
D52*
X3783584Y-3563756D02*
X3849488Y-3629660D01*
D58*
X3192780Y-3631692D02*
X3192780Y-3568700D01*
D52*
X5051759Y-3637796D02*
X5008520Y-3637796D01*
X4144884Y-3134360D02*
X4190711Y-3088533D01*
D57*
X4772460Y-2946200D02*
X4828540Y-3002280D01*
D52*
X3992484Y-3934460D02*
X3872088Y-3934460D01*
D53*
X6901380Y-3112860D02*
X6901380Y-3317060D01*
X5974080Y-4071360D02*
X5974080Y-4117340D01*
D55*
X6441440Y-4089400D02*
X6441440Y-4064000D01*
D58*
X3275484Y-3460596D02*
X3192780Y-3543300D01*
D57*
X5110084Y-4075796D02*
X5104384Y-4070096D01*
D53*
X4182984Y-3096260D02*
X4182984Y-3083560D01*
D52*
X3987084Y-3484560D02*
X3967084Y-3464560D01*
X6458120Y-3794760D02*
X6537940Y-3794760D01*
X6450660Y-3219520D02*
X6473080Y-3197100D01*
D53*
X4182984Y-3083560D02*
X4195684Y-3070860D01*
X4195684Y-3058160D02*
X4195684Y-2981960D01*
D52*
X3992484Y-3934460D02*
X4005184Y-3921760D01*
X4754484Y-4007860D02*
X4827884Y-4007860D01*
D56*
X6445580Y-3036710D02*
X6445580Y-2953080D01*
D52*
X6458120Y-3744760D02*
X6403340Y-3743960D01*
D57*
X4914504Y-3002280D02*
X4919584Y-2997200D01*
D53*
X6898380Y-3320060D02*
X6931940Y-3320060D01*
D52*
X6385560Y-3825440D02*
X6365240Y-3825440D01*
D56*
X3992484Y-4086860D02*
X4007885Y-4102261D01*
D53*
X4579224Y-4007860D02*
X4754484Y-4007860D01*
X6459160Y-3992880D02*
X6464477Y-3998197D01*
D56*
X3992484Y-4048760D02*
X3992484Y-4086860D01*
D52*
X4545584Y-3484560D02*
X4565584Y-3464560D01*
X6473080Y-3197100D02*
X6503940Y-3197100D01*
X3783584Y-3524504D02*
X3783584Y-3563756D01*
D53*
X6445580Y-3000770D02*
X6445580Y-3069520D01*
D52*
X4265584Y-3484560D02*
X4545584Y-3484560D01*
X6403340Y-3743960D02*
X6385560Y-3761740D01*
D53*
X3796284Y-3460496D02*
X3800348Y-3464560D01*
D52*
X4100688Y-3663696D02*
X4081988Y-3682396D01*
D55*
X6215380Y-3490160D02*
X6215180Y-3490160D01*
D52*
X4551284Y-4035800D02*
X4551284Y-4074160D01*
X6663930Y-3119120D02*
X6581920Y-3119120D01*
D53*
X4195684Y-2981960D02*
X4182984Y-2969260D01*
D57*
X5305883Y-3831459D02*
X5300980Y-3827780D01*
D52*
X6541280Y-3159760D02*
X6520580Y-3180460D01*
D58*
X3310984Y-3460596D02*
X3275484Y-3460596D01*
D53*
X6215380Y-2997460D02*
X6262380Y-2997460D01*
D52*
X4551284Y-4074160D02*
X4564887Y-4087763D01*
D54*
X5935980Y-3286760D02*
X5834380Y-3286760D01*
D52*
X3992484Y-4048760D02*
X3992484Y-3934460D01*
X6385560Y-3761740D02*
X6385560Y-3825440D01*
X6385560Y-3825440D02*
X6416240Y-3794760D01*
D53*
X4551284Y-4035800D02*
X4579224Y-4007860D01*
D55*
X6118480Y-3612260D02*
X6062980Y-3556760D01*
D52*
X4785584Y-3801594D02*
X4785584Y-3764560D01*
D58*
X3239784Y-3981196D02*
X3239784Y-3928096D01*
X5867400Y-4046220D02*
X5867400Y-4043680D01*
D52*
X4259184Y-3778764D02*
X4259184Y-3743960D01*
D56*
X4785584Y-3118500D02*
X4799188Y-3104896D01*
D57*
X3267084Y-3062596D02*
X3302184Y-3062596D01*
D53*
X6609080Y-3908800D02*
X6609080Y-3992880D01*
D57*
X3161284Y-3168396D02*
X3267084Y-3062596D01*
D56*
X4785584Y-3164560D02*
X4785584Y-3118500D01*
D58*
X5305620Y-4125400D02*
X5292123Y-4143998D01*
D53*
X6417820Y-4152140D02*
X6370320Y-4104640D01*
D55*
X6123680Y-3680460D02*
X6123680Y-3617460D01*
D53*
X6609080Y-4076440D02*
X6580880Y-4104640D01*
D56*
X4265584Y-3684560D02*
X4219524Y-3684560D01*
X4202288Y-3727196D02*
X4219052Y-3743960D01*
D58*
X5859980Y-4104640D02*
X5859980Y-4051100D01*
D55*
X6332220Y-4066540D02*
X6370320Y-4104640D01*
D53*
X6609080Y-4071620D02*
X6609080Y-4076440D01*
D52*
X4919584Y-3144260D02*
X4935084Y-3144260D01*
D53*
X6580880Y-4104640D02*
X6580880Y-4112520D01*
D56*
X4930140Y-3192780D02*
X4930140Y-3154816D01*
D57*
X3162300Y-3251200D02*
X3161284Y-3250184D01*
D55*
X6062980Y-3556760D02*
X6024880Y-3556760D01*
D53*
X4754484Y-3872339D02*
X4754484Y-3911860D01*
D58*
X5369560Y-4007920D02*
X5329120Y-4007920D01*
D53*
X6202680Y-3677660D02*
X6149080Y-3677660D01*
D57*
X3161284Y-3250184D02*
X3161284Y-3168396D01*
D58*
X3239784Y-3928096D02*
X3262884Y-3904996D01*
D53*
X6149080Y-3677660D02*
X6151880Y-3680460D01*
X6609080Y-3992880D02*
X6609080Y-4071620D01*
X4805406Y-3821416D02*
X4754484Y-3872339D01*
D52*
X4805406Y-3821416D02*
X4785584Y-3801594D01*
D56*
X4799188Y-3104896D02*
X4880220Y-3104896D01*
D58*
X5292123Y-4143998D02*
X5288280Y-4142740D01*
X5329120Y-4007920D02*
X5313680Y-4023360D01*
D52*
X4265584Y-3737560D02*
X4259184Y-3743960D01*
D55*
X6332220Y-4056580D02*
X6332220Y-4066540D01*
D56*
X4880220Y-3104896D02*
X4919584Y-3144260D01*
D58*
X5859980Y-4051100D02*
X5867400Y-4046220D01*
D56*
X4930140Y-3154816D02*
X4919584Y-3144260D01*
X4219052Y-3743960D02*
X4259184Y-3743960D01*
D53*
X4498960Y-3936380D02*
X4502380Y-3939800D01*
D56*
X4219524Y-3684560D02*
X4202288Y-3701796D01*
X4202288Y-3701796D02*
X4202288Y-3727196D01*
D53*
X6623120Y-3894760D02*
X6609080Y-3908800D01*
D55*
X6123680Y-3617460D02*
X6118480Y-3612260D01*
X6126480Y-3677660D02*
X6123680Y-3680460D01*
D58*
X5305620Y-4031420D02*
X5305620Y-4125400D01*
X5313680Y-4023360D02*
X5305620Y-4031420D01*
D53*
X6541260Y-4152140D02*
X6417820Y-4152140D01*
D52*
X4227688Y-3810260D02*
X4259184Y-3778764D01*
D53*
X6580880Y-4112520D02*
X6541260Y-4152140D01*
D55*
X6228080Y-3677660D02*
X6126480Y-3677660D01*
D57*
X4455160Y-3977569D02*
X4455160Y-3918167D01*
X4401820Y-4099560D02*
X4468532Y-4032848D01*
X4468532Y-4032848D02*
X4468532Y-3990942D01*
X4480797Y-3892530D02*
X4517123Y-3892530D01*
X4381500Y-4099560D02*
X4401820Y-4099560D01*
D52*
X4705584Y-3822160D02*
X4705584Y-3764560D01*
X4652884Y-3911860D02*
X4652884Y-3874860D01*
D57*
X4381500Y-4099560D02*
X4381500Y-4114800D01*
X4468532Y-3990942D02*
X4455160Y-3977569D01*
X4529154Y-3880499D02*
X4591699Y-3880499D01*
D52*
X4652884Y-3874860D02*
X4705584Y-3822160D01*
D57*
X4455160Y-3918167D02*
X4480797Y-3892530D01*
X4591699Y-3880499D02*
X4623060Y-3911860D01*
X4517123Y-3892530D02*
X4529154Y-3880499D01*
X4623060Y-3911860D02*
X4652884Y-3911860D01*
D58*
X3544984Y-3856896D02*
X3544984Y-3790596D01*
X3568700Y-3905246D02*
X3568700Y-3880612D01*
D52*
X4461867Y-3846470D02*
X4465584Y-3842753D01*
D58*
X3568700Y-3880612D02*
X3544984Y-3856896D01*
X3544984Y-3790596D02*
X3570484Y-3816096D01*
D52*
X4465584Y-3842753D02*
X4465584Y-3764560D01*
X4265584Y-3564560D02*
X4072824Y-3564560D01*
X4072824Y-3564560D02*
X4007724Y-3629660D01*
X4007724Y-3629660D02*
X3945488Y-3629660D01*
X3936288Y-3524560D02*
X3932788Y-3528060D01*
X4265584Y-3524560D02*
X3936288Y-3524560D01*
D56*
X4232114Y-3284560D02*
X4194884Y-3321790D01*
X4265584Y-3284560D02*
X4232114Y-3284560D01*
X4209884Y-3244560D02*
X4198884Y-3233560D01*
X4265584Y-3244560D02*
X4209884Y-3244560D01*
D57*
X4865584Y-3644560D02*
X4920148Y-3644560D01*
X4977384Y-3701796D02*
X4977384Y-3904532D01*
X4977384Y-3904532D02*
X4969420Y-3912496D01*
X4920148Y-3644560D02*
X4977384Y-3701796D01*
X4969420Y-4069796D02*
X4963420Y-4075796D01*
D52*
X4990084Y-3891832D02*
X4969420Y-3912496D01*
D57*
X4969420Y-3912496D02*
X4969420Y-4069796D01*
X5256784Y-4006596D02*
X5256784Y-4068932D01*
X5219420Y-3912496D02*
X5219420Y-3969232D01*
X4865584Y-3604560D02*
X4930948Y-3604560D01*
X5219420Y-3893032D02*
X5219420Y-3912496D01*
X5256784Y-4068932D02*
X5249920Y-4075796D01*
X5219420Y-3969232D02*
X5256784Y-4006596D01*
X4930948Y-3604560D02*
X5219420Y-3893032D01*
D56*
X4345584Y-3164560D02*
X4345584Y-3185160D01*
X4342944Y-3118552D02*
X4345584Y-3121192D01*
X4345584Y-3121192D02*
X4345584Y-3164560D01*
X4310739Y-3122219D02*
X4310739Y-3118552D01*
X4284409Y-3148549D02*
X4310739Y-3122219D01*
X4310739Y-3118552D02*
X4342944Y-3118552D01*
X4219927Y-3148549D02*
X4284409Y-3148549D01*
X4214988Y-3143610D02*
X4219927Y-3148549D01*
X4909348Y-3684560D02*
X4939284Y-3714496D01*
X4939284Y-3714496D02*
X4939284Y-3727196D01*
X4856084Y-3810396D02*
X4856084Y-3883660D01*
X4865584Y-3684560D02*
X4909348Y-3684560D01*
X4939284Y-3727196D02*
X4856084Y-3810396D01*
D52*
X6495580Y-2964396D02*
X6520180Y-2939796D01*
D53*
X6215380Y-3184760D02*
X6215380Y-3159760D01*
X6215380Y-3093460D02*
X6215380Y-3108960D01*
D52*
X6495580Y-3005850D02*
X6495580Y-2964396D01*
D53*
X6215380Y-3159760D02*
X6189980Y-3134360D01*
X6215380Y-3108960D02*
X6189980Y-3134360D01*
D52*
X6545580Y-3005850D02*
X6545580Y-2965196D01*
X6545580Y-2965196D02*
X6520180Y-2939796D01*
D57*
X4926020Y-3404560D02*
X4865584Y-3404560D01*
X5508244Y-3485896D02*
X5448134Y-3546006D01*
X5153417Y-3592246D02*
X4978031Y-3416860D01*
X4938320Y-3416860D02*
X4926020Y-3404560D01*
X5897880Y-3556760D02*
X5827016Y-3485896D01*
X5448134Y-3592246D02*
X5153417Y-3592246D01*
X4978031Y-3416860D02*
X4938320Y-3416860D01*
X5827016Y-3485896D02*
X5508244Y-3485896D01*
X5448134Y-3546006D02*
X5448134Y-3592246D01*
D52*
X5834380Y-3629660D02*
X5834380Y-3629660D01*
X5770880Y-3556760D02*
X5770880Y-3578860D01*
D57*
X4989504Y-3389160D02*
X4956340Y-3389160D01*
D52*
X5821680Y-3629660D02*
X5834380Y-3629660D01*
X5770880Y-3578860D02*
X5821680Y-3629660D01*
D57*
X5255774Y-3459994D02*
X5060339Y-3459994D01*
X4956340Y-3389160D02*
X4931740Y-3364560D01*
X4931740Y-3364560D02*
X4865584Y-3364560D01*
X5060339Y-3459994D02*
X4989504Y-3389160D01*
X5548120Y-3556760D02*
X5643880Y-3556760D01*
X5475834Y-3581806D02*
X5475834Y-3603720D01*
X5475834Y-3603720D02*
X5459608Y-3619946D01*
X5516880Y-3540760D02*
X5475834Y-3581806D01*
X5141943Y-3619946D02*
X4966557Y-3444560D01*
X5459608Y-3619946D02*
X5141943Y-3619946D01*
X4966557Y-3444560D02*
X4865584Y-3444560D01*
X5532120Y-3540760D02*
X5548120Y-3556760D01*
X5532120Y-3540760D02*
X5516880Y-3540760D01*
D52*
X6088380Y-3020060D02*
X6088380Y-3020060D01*
D57*
X5489373Y-3379546D02*
X5263603Y-3379546D01*
D52*
X6085080Y-3016760D02*
X6088380Y-3020060D01*
D57*
X5211609Y-3431540D02*
X5071058Y-3431540D01*
X5071058Y-3431540D02*
X5000978Y-3361460D01*
X4967814Y-3361460D02*
X4930914Y-3324560D01*
D52*
X6024880Y-3016760D02*
X6085080Y-3016760D01*
D57*
X5581930Y-3286989D02*
X5489373Y-3379546D01*
X5000978Y-3361460D02*
X4967814Y-3361460D01*
X5263603Y-3379546D02*
X5211609Y-3431540D01*
X4930914Y-3324560D02*
X4865584Y-3324560D01*
X5581930Y-3208939D02*
X5581930Y-3286989D01*
X4973320Y-3327400D02*
X4930480Y-3284560D01*
D52*
X5867400Y-2933700D02*
X5842000Y-2933700D01*
D57*
X5011420Y-3327400D02*
X4973320Y-3327400D01*
D52*
X5897880Y-3016760D02*
X5849642Y-3064998D01*
X5849642Y-3064998D02*
X5847080Y-3064998D01*
D57*
X5477899Y-3351846D02*
X5035866Y-3351846D01*
X5531644Y-3241579D02*
X5531644Y-3298101D01*
X4930480Y-3284560D02*
X4865584Y-3284560D01*
X5035866Y-3351846D02*
X5011420Y-3327400D01*
D52*
X5897880Y-3016760D02*
X5897880Y-2964180D01*
D57*
X5531644Y-3298101D02*
X5477899Y-3351846D01*
D52*
X5897880Y-2964180D02*
X5867400Y-2933700D01*
D57*
X5507113Y-3149547D02*
X5514904Y-3141757D01*
X4991100Y-3294380D02*
X5067300Y-3294380D01*
X5514904Y-3141757D02*
X5526976Y-3141757D01*
X4941280Y-3244560D02*
X4991100Y-3294380D01*
X4865584Y-3244560D02*
X4941280Y-3244560D01*
X5695880Y-3091760D02*
X5770880Y-3016760D01*
X5526976Y-3141757D02*
X5576973Y-3091760D01*
X5576973Y-3091760D02*
X5695880Y-3091760D01*
X3542284Y-3231896D02*
X3516884Y-3257296D01*
X3542284Y-3168396D02*
X3542284Y-3231896D01*
X3581584Y-3129096D02*
X3542284Y-3168396D01*
X3593884Y-3129096D02*
X3581584Y-3129096D01*
X3386884Y-3257296D02*
X3302184Y-3172596D01*
X3516884Y-3257296D02*
X3386884Y-3257296D01*
X3555384Y-3079096D02*
X3593884Y-3079096D01*
X3452184Y-3172596D02*
X3474786Y-3172596D01*
X3523485Y-3110995D02*
X3555384Y-3079096D01*
X3523485Y-3123897D02*
X3523485Y-3110995D01*
X3474786Y-3172596D02*
X3523485Y-3123897D01*
X3593884Y-3029096D02*
X3485684Y-3029096D01*
X3485684Y-3029096D02*
X3452184Y-3062596D01*
X3873201Y-2975961D02*
X3854228Y-2994935D01*
D56*
X4427752Y-2948423D02*
X4594343Y-2948423D01*
X4625584Y-3164560D02*
X4625584Y-3124088D01*
D57*
X3854228Y-2994935D02*
X3825893Y-2994935D01*
D56*
X4411027Y-2965148D02*
X4427752Y-2948423D01*
X4625584Y-2979664D02*
X4625584Y-3164560D01*
D57*
X3825893Y-2994935D02*
X3741732Y-3079096D01*
D56*
X4594343Y-2948423D02*
X4625584Y-2979664D01*
D57*
X3741732Y-3079096D02*
X3693884Y-3079096D01*
X3758184Y-2965196D02*
X3770884Y-2952496D01*
X3758184Y-3002496D02*
X3758184Y-2965196D01*
X3693884Y-3029096D02*
X3731584Y-3029096D01*
D56*
X4664160Y-2962360D02*
X4664160Y-3163136D01*
X4328192Y-2918423D02*
X4620223Y-2918423D01*
X4620223Y-2918423D02*
X4664160Y-2962360D01*
D57*
X3731584Y-3029096D02*
X3758184Y-3002496D01*
D56*
X4664160Y-3163136D02*
X4665584Y-3164560D01*
D57*
X3733984Y-3129096D02*
X3693884Y-3129096D01*
D56*
X4372339Y-3010945D02*
X4428870Y-3010945D01*
X4585584Y-2993004D02*
X4585584Y-3164560D01*
X4428870Y-3010945D02*
X4461392Y-2978423D01*
D57*
X3847143Y-3066796D02*
X3796284Y-3066796D01*
D56*
X4571003Y-2978423D02*
X4585584Y-2993004D01*
D57*
X3796284Y-3066796D02*
X3733984Y-3129096D01*
D56*
X4461392Y-2978423D02*
X4571003Y-2978423D01*
D57*
X3847143Y-3066796D02*
X3847084Y-3066737D01*
D52*
X6728460Y-3268981D02*
X6691806Y-3305635D01*
D53*
X6787955Y-3305635D02*
X6802380Y-3320060D01*
D52*
X6669410Y-3219520D02*
X6706940Y-3219520D01*
D53*
X6691806Y-3305635D02*
X6787955Y-3305635D01*
D52*
X6728460Y-3241040D02*
X6728460Y-3268981D01*
X6706940Y-3219520D02*
X6728460Y-3241040D01*
D53*
X6794971Y-3320060D02*
X6802380Y-3320060D01*
D56*
X4709160Y-2991350D02*
X4705584Y-2994926D01*
X4705584Y-2994926D02*
X4705584Y-3164560D01*
X4757210Y-3027201D02*
X4745584Y-3038826D01*
X4745584Y-3038826D02*
X4745584Y-3164560D01*
D57*
X5450840Y-3304540D02*
X5460815Y-3306917D01*
X5450840Y-3259020D02*
X5450840Y-3304540D01*
X6283522Y-3703210D02*
X6252932Y-3733800D01*
X5901898Y-3756660D02*
X5955284Y-3810046D01*
X5888984Y-3756660D02*
X5901898Y-3756660D01*
X5889484Y-3858260D02*
X5907070Y-3858260D01*
X5460815Y-3306917D02*
X5461000Y-3314700D01*
X5907070Y-3858260D02*
X5955284Y-3810046D01*
X6252932Y-3733800D02*
X6031530Y-3733800D01*
D56*
X4284980Y-4061460D02*
X4316588Y-4029852D01*
D57*
X6383960Y-3694760D02*
X6375510Y-3703210D01*
X6458120Y-3694760D02*
X6383960Y-3694760D01*
X6031530Y-3733800D02*
X5955284Y-3810046D01*
D56*
X4316588Y-4029852D02*
X4316588Y-3943296D01*
D57*
X6375510Y-3703210D02*
X6283522Y-3703210D01*
D52*
X6215380Y-3286760D02*
X6215380Y-3337560D01*
D53*
X6215380Y-3337560D02*
X6113780Y-3337560D01*
X6215380Y-3388160D02*
X6215380Y-3337560D01*
D52*
X5016300Y-3578471D02*
X4962388Y-3524560D01*
X4962388Y-3524560D02*
X4865584Y-3524560D01*
D56*
X4416867Y-4001290D02*
X4416867Y-3827830D01*
D53*
X5778300Y-3967480D02*
X5769864Y-3967480D01*
D56*
X4425584Y-3819114D02*
X4425584Y-3764560D01*
D53*
X5769864Y-3967480D02*
X5701284Y-4036060D01*
D56*
X4416867Y-3827830D02*
X4425584Y-3819114D01*
X4424682Y-4009105D02*
X4416867Y-4001290D01*
X4081988Y-4042264D02*
X4088484Y-4048760D01*
D52*
X4151488Y-3676396D02*
X4151488Y-3852260D01*
X4151488Y-3852260D02*
X4081988Y-3921760D01*
D56*
X4081988Y-3921760D02*
X4081988Y-4042264D01*
D52*
X4183324Y-3644560D02*
X4151488Y-3676396D01*
X4261484Y-3644560D02*
X4183324Y-3644560D01*
X4083624Y-3604560D02*
X3979688Y-3708496D01*
X3921584Y-3776760D02*
X3890884Y-3807460D01*
X3890884Y-3807460D02*
X3890884Y-3838460D01*
X3979688Y-3708496D02*
X3979688Y-3776760D01*
X4265584Y-3604560D02*
X4083624Y-3604560D01*
X3979688Y-3776760D02*
X3921584Y-3776760D01*
X4214784Y-3444560D02*
X4093884Y-3444560D01*
D55*
X4063084Y-3319260D02*
X4055984Y-3312160D01*
X4063084Y-3413760D02*
X4063084Y-3319260D01*
D52*
X4265584Y-3444560D02*
X4264584Y-3444560D01*
X4093884Y-3444560D02*
X4063084Y-3413760D01*
X4264584Y-3444560D02*
X4093884Y-3444560D01*
D58*
X3336784Y-3981196D02*
X3468884Y-3981196D01*
X3544984Y-3460596D02*
X3415284Y-3590296D01*
X3415284Y-3590296D02*
X3415284Y-3981196D01*
X6459220Y-3497780D02*
X6387910Y-3497780D01*
X6387910Y-3497780D02*
X6337300Y-3548390D01*
D57*
X6445580Y-3315640D02*
X6370330Y-3390890D01*
X6445580Y-3293350D02*
X6445580Y-3315640D01*
X6370330Y-3390890D02*
X6337300Y-3390890D01*
D53*
X6788730Y-3214460D02*
X6744879Y-3170609D01*
X6799380Y-3214460D02*
X6788730Y-3214460D01*
X6744879Y-3170609D02*
X6744879Y-3089819D01*
X6744879Y-3089819D02*
X6724580Y-3069520D01*
X6724580Y-3069520D02*
X6664330Y-3069520D01*
X6595580Y-2959900D02*
X6595580Y-3033380D01*
X6799380Y-3062631D02*
X6797040Y-3053080D01*
X6696456Y-2952496D02*
X6602984Y-2952496D01*
X6602984Y-2952496D02*
X6595580Y-2959900D01*
X6797040Y-3053080D02*
X6696456Y-2952496D01*
X6799380Y-3112860D02*
X6799380Y-3062631D01*
D58*
X6595580Y-3293350D02*
X6715790Y-3413560D01*
X6715790Y-3413560D02*
X6794100Y-3413560D01*
X6794100Y-3413560D02*
X6801920Y-3421380D01*
D55*
X4055984Y-3216160D02*
X4055984Y-3045460D01*
X3954384Y-3210560D02*
X4050384Y-3210560D01*
X4050384Y-3210560D02*
X4055984Y-3216160D01*
D52*
X4055984Y-3216160D02*
X4055984Y-3070860D01*
D57*
X3662890Y-3868931D02*
X3643884Y-3849925D01*
X3643884Y-3849925D02*
X3643884Y-3724496D01*
D56*
X4505584Y-3820550D02*
X4505584Y-3764560D01*
D57*
X3643884Y-3724496D02*
X3544984Y-3625596D01*
D56*
X4520866Y-3835832D02*
X4505584Y-3820550D01*
X4265788Y-3103599D02*
X4280787Y-3088600D01*
X4465584Y-3132065D02*
X4465584Y-3164560D01*
X4422119Y-3088600D02*
X4465584Y-3132065D01*
X4280787Y-3088600D02*
X4422119Y-3088600D01*
D57*
X5390500Y-3128310D02*
X5419210Y-3157020D01*
X5352950Y-3165860D02*
X5390500Y-3128310D01*
X5419210Y-3157020D02*
X5450840Y-3157020D01*
X5295350Y-3165860D02*
X5352950Y-3165860D01*
X4385584Y-3976497D02*
X4385584Y-3764560D01*
X4975860Y-3025140D02*
X5021580Y-3070860D01*
X4930140Y-2943860D02*
X4975860Y-2989580D01*
X5155450Y-3156360D02*
X5155450Y-3135803D01*
X4874460Y-2943860D02*
X4930140Y-2943860D01*
X4361538Y-4000543D02*
X4385584Y-3976497D01*
X5021580Y-3070860D02*
X5067850Y-3070860D01*
X5155450Y-3135803D02*
X5090507Y-3070860D01*
X4975860Y-2989580D02*
X4975860Y-3025140D01*
X5171550Y-3172460D02*
X5155450Y-3156360D01*
X4361538Y-4000543D02*
X4366260Y-4005265D01*
X5090507Y-3070860D02*
X5067850Y-3070860D01*
D56*
X4545584Y-3797501D02*
X4548333Y-3800251D01*
X4545584Y-3764560D02*
X4545584Y-3797501D01*
X4625584Y-3764560D02*
X4626187Y-3765163D01*
X4745584Y-3831600D02*
X4710288Y-3866896D01*
X4745584Y-3764560D02*
X4745584Y-3831600D01*
X4345584Y-3812300D02*
X4316588Y-3841296D01*
X4345584Y-3764560D02*
X4345584Y-3812300D01*
D57*
X4545584Y-3059160D02*
X4545584Y-3164560D01*
X4540634Y-3054210D02*
X4545584Y-3059160D01*
D58*
X5612440Y-4110100D02*
X5681600Y-4110100D01*
X5681600Y-4110100D02*
X5752520Y-4110100D01*
X5752520Y-4110100D02*
X5757980Y-4104640D01*
X5492440Y-4110100D02*
X5430140Y-4110100D01*
D56*
X4483100Y-3078480D02*
X4505584Y-3100964D01*
D58*
X5369740Y-4110100D02*
X5369560Y-4109920D01*
D56*
X4505584Y-3100964D02*
X4505584Y-3164560D01*
D58*
X5430140Y-4110100D02*
X5369740Y-4110100D01*
D56*
X4483100Y-3078480D02*
X4490276Y-3071304D01*
X4585584Y-3815964D02*
X4585584Y-3764560D01*
D57*
X5481320Y-3649980D02*
X5440680Y-3690620D01*
X5511600Y-3649980D02*
X5481320Y-3649980D01*
D56*
X4604136Y-3834516D02*
X4585584Y-3815964D01*
D57*
X5613600Y-3655060D02*
X5613600Y-3657428D01*
X5613600Y-3649980D02*
X5656580Y-3649980D01*
X5328920Y-3952240D02*
X5430520Y-3952240D01*
X5430520Y-3952240D02*
X5452660Y-3930100D01*
X5664200Y-3642360D02*
X5740400Y-3642360D01*
X5740400Y-3642360D02*
X5763260Y-3665220D01*
X5656580Y-3649980D02*
X5664200Y-3642360D01*
X5492440Y-3930100D02*
X5513710Y-3930100D01*
X5302163Y-3900083D02*
X5300980Y-3898900D01*
X5302163Y-3925483D02*
X5328920Y-3952240D01*
X5302163Y-3900083D02*
X5302163Y-3925483D01*
X5452660Y-3930100D02*
X5492440Y-3930100D01*
X5300980Y-3898900D02*
X5300980Y-3888740D01*
D58*
X6752240Y-3844760D02*
X6812280Y-3904800D01*
X6623120Y-3844760D02*
X6752240Y-3844760D01*
X6757320Y-3744760D02*
X6812280Y-3689800D01*
X6623120Y-3744760D02*
X6757320Y-3744760D01*
D57*
X6253280Y-3957120D02*
X6230620Y-3957120D01*
X6385570Y-3982710D02*
X6365240Y-4003040D01*
X6458120Y-3894760D02*
X6432880Y-3894760D01*
X6432880Y-3894760D02*
X6385570Y-3942070D01*
X6365240Y-4003040D02*
X6299200Y-4003040D01*
X6385570Y-3942070D02*
X6385570Y-3982710D01*
X6299200Y-4003040D02*
X6253280Y-3957120D01*
X6301250Y-3903690D02*
X6243120Y-3845560D01*
X6427205Y-3844760D02*
X6368275Y-3903690D01*
X6368275Y-3903690D02*
X6357330Y-3903690D01*
X6357330Y-3903690D02*
X6332220Y-3928800D01*
X6357330Y-3903690D02*
X6301250Y-3903690D01*
X6458120Y-3844760D02*
X6427205Y-3844760D01*
X6332220Y-3928800D02*
X6332220Y-3954580D01*
X6332220Y-3954580D02*
X6339840Y-3954580D01*
D58*
X5446020Y-3749040D02*
X5411600Y-3783460D01*
D52*
X6495580Y-3293350D02*
X6495580Y-3327230D01*
D53*
X6623120Y-3694760D02*
X6621460Y-3603330D01*
D57*
X5398520Y-2975860D02*
X5457200Y-2975860D01*
D52*
X6495580Y-3293350D02*
X6495580Y-3359420D01*
D59*
X6637020Y-3601720D02*
X6677660Y-3561080D01*
D53*
X6532880Y-3364530D02*
X6521150Y-3352800D01*
D52*
X6459220Y-3395780D02*
X6478170Y-3395780D01*
D55*
X6230620Y-4064000D02*
X6268720Y-4102100D01*
D52*
X6495580Y-3327230D02*
X6521150Y-3352800D01*
D58*
X6311500Y-3119520D02*
X6296660Y-3134360D01*
X6545580Y-3293350D02*
X6545580Y-3328370D01*
D57*
X5457200Y-2975860D02*
X5458460Y-2974600D01*
D52*
X6495580Y-3359420D02*
X6459220Y-3395780D01*
D57*
X5295350Y-2975860D02*
X5398520Y-2975860D01*
D52*
X6621520Y-3396240D02*
X6624320Y-3393440D01*
X6573520Y-3396240D02*
X6564590Y-3396240D01*
D55*
X6230620Y-4059120D02*
X6230620Y-4064000D01*
D58*
X6376830Y-3119520D02*
X6311500Y-3119520D01*
X6545580Y-3328370D02*
X6521150Y-3352800D01*
D52*
X6573520Y-3396240D02*
X6621520Y-3396240D01*
D58*
X5372100Y-3797560D02*
X5386200Y-3783460D01*
X5336784Y-3708644D02*
X5336784Y-3690896D01*
X5492440Y-3840100D02*
X5414640Y-3840100D01*
D59*
X6623080Y-3601720D02*
X6637020Y-3601720D01*
D58*
X6545580Y-3368300D02*
X6573520Y-3396240D01*
X5506980Y-3749040D02*
X5446020Y-3749040D01*
X5386200Y-3783460D02*
X5411600Y-3783460D01*
X5411600Y-3783460D02*
X5336784Y-3708644D01*
X5414640Y-3840100D02*
X5372100Y-3797560D01*
X6545580Y-3293350D02*
X6545580Y-3368300D01*
D53*
X5880300Y-3967480D02*
X6065720Y-3967480D01*
D57*
X6075480Y-3967480D02*
X6070600Y-3972360D01*
X5155180Y-2975860D02*
X5184140Y-3004820D01*
D53*
X6065720Y-3967480D02*
X6070600Y-3972360D01*
D57*
X6146800Y-3967480D02*
X6075480Y-3967480D01*
X5067850Y-2975860D02*
X5155180Y-2975860D01*
G04 #@! TA.AperFunction,Conductor*
G36*
X6189203Y-3995904D02*
G01*
X6191323Y-3997444D01*
X6191905Y-3997852D01*
X6192580Y-3998526D01*
X6193444Y-3998930D01*
X6193817Y-3999191D01*
X6197872Y-4004571D01*
X6197989Y-4011307D01*
X6193817Y-4017049D01*
X6193444Y-4017310D01*
X6192580Y-4017713D01*
X6184213Y-4026080D01*
X6179213Y-4036803D01*
X6179104Y-4037629D01*
X6179104Y-4037630D01*
X6178616Y-4041335D01*
X6178570Y-4041688D01*
X6178570Y-4076552D01*
X6178617Y-4076905D01*
X6178617Y-4076906D01*
X6178698Y-4077527D01*
X6177470Y-4084150D01*
X6172584Y-4088787D01*
X6172073Y-4088991D01*
X6171587Y-4089068D01*
X6170823Y-4089457D01*
X6170823Y-4089457D01*
X6160848Y-4094540D01*
X6159578Y-4095187D01*
X6150970Y-4103796D01*
X6144967Y-4106854D01*
X6138314Y-4105800D01*
X6133550Y-4101037D01*
X6132410Y-4095062D01*
X6132576Y-4093314D01*
X6132600Y-4092800D01*
X6132600Y-4088586D01*
X6132146Y-4087190D01*
X6131692Y-4086860D01*
X6084826Y-4086860D01*
X6083430Y-4087314D01*
X6083100Y-4087768D01*
X6083100Y-4129634D01*
X6083554Y-4131030D01*
X6084008Y-4131360D01*
X6094040Y-4131360D01*
X6094554Y-4131336D01*
X6096682Y-4131135D01*
X6097970Y-4130852D01*
X6108916Y-4127008D01*
X6110340Y-4126254D01*
X6119551Y-4119451D01*
X6120691Y-4118311D01*
X6123437Y-4114593D01*
X6128918Y-4110676D01*
X6135654Y-4110729D01*
X6141073Y-4114731D01*
X6143104Y-4121154D01*
X6142970Y-4122774D01*
X6142008Y-4128849D01*
X6141820Y-4130040D01*
X6141954Y-4130887D01*
X6143794Y-4142505D01*
X6143794Y-4142505D01*
X6143928Y-4143353D01*
X6144318Y-4144117D01*
X6144318Y-4144117D01*
X6146073Y-4147562D01*
X6147126Y-4154215D01*
X6144068Y-4160217D01*
X6138066Y-4163276D01*
X6136361Y-4163410D01*
X5906972Y-4163410D01*
X5900565Y-4161328D01*
X5896605Y-4155878D01*
X5896605Y-4149142D01*
X5899264Y-4144802D01*
X5901386Y-4142680D01*
X5906387Y-4131957D01*
X5906509Y-4131030D01*
X5906983Y-4127425D01*
X5906983Y-4127425D01*
X5907030Y-4127072D01*
X5907030Y-4124382D01*
X5909112Y-4117975D01*
X5914562Y-4114015D01*
X5921298Y-4114015D01*
X5925637Y-4116674D01*
X5926272Y-4117308D01*
X5935603Y-4124201D01*
X5937027Y-4124955D01*
X5948115Y-4128849D01*
X5949404Y-4129131D01*
X5951566Y-4129336D01*
X5952080Y-4129360D01*
X5959854Y-4129360D01*
X5961250Y-4128906D01*
X5961580Y-4128452D01*
X5961580Y-4127634D01*
X5986580Y-4127634D01*
X5987034Y-4129030D01*
X5987488Y-4129360D01*
X5996081Y-4129360D01*
X5996592Y-4129336D01*
X5998756Y-4129131D01*
X6000045Y-4128849D01*
X6011133Y-4124955D01*
X6012557Y-4124201D01*
X6013843Y-4123251D01*
X6020233Y-4121119D01*
X6026794Y-4123251D01*
X6030860Y-4126254D01*
X6032284Y-4127008D01*
X6043230Y-4130852D01*
X6044518Y-4131135D01*
X6046646Y-4131336D01*
X6047160Y-4131360D01*
X6056374Y-4131360D01*
X6057770Y-4130906D01*
X6058100Y-4130452D01*
X6058100Y-4088586D01*
X6057646Y-4087190D01*
X6057192Y-4086860D01*
X6011363Y-4086860D01*
X6004956Y-4084778D01*
X6003692Y-4083860D01*
X5988306Y-4083860D01*
X5986910Y-4084314D01*
X5986580Y-4084768D01*
X5986580Y-4127634D01*
X5961580Y-4127634D01*
X5961580Y-4069760D01*
X5963662Y-4063353D01*
X5969112Y-4059393D01*
X5972480Y-4058860D01*
X6032317Y-4058860D01*
X6038724Y-4060942D01*
X6039988Y-4061860D01*
X6130874Y-4061860D01*
X6132270Y-4061406D01*
X6132600Y-4060952D01*
X6132600Y-4055920D01*
X6132576Y-4055406D01*
X6132375Y-4053278D01*
X6132092Y-4051990D01*
X6128248Y-4041044D01*
X6127494Y-4039620D01*
X6120691Y-4030409D01*
X6119551Y-4029269D01*
X6114543Y-4025570D01*
X6110626Y-4020089D01*
X6110679Y-4013353D01*
X6113312Y-4009095D01*
X6114948Y-4007459D01*
X6120951Y-4004400D01*
X6127604Y-4005454D01*
X6132723Y-4008062D01*
X6132723Y-4008062D01*
X6133487Y-4008452D01*
X6134335Y-4008586D01*
X6134335Y-4008586D01*
X6145953Y-4010426D01*
X6146800Y-4010560D01*
X6147647Y-4010426D01*
X6159265Y-4008586D01*
X6159265Y-4008586D01*
X6160113Y-4008452D01*
X6169533Y-4003652D01*
X6171358Y-4002722D01*
X6171358Y-4002722D01*
X6172122Y-4002333D01*
X6174425Y-4000030D01*
X6176547Y-3997908D01*
X6182549Y-3994850D01*
X6189203Y-3995904D01*
G37*
G04 #@! TD.AperFunction*
G04 #@! TA.AperFunction,Conductor*
G36*
X4281118Y-2905592D02*
G01*
X4285078Y-2911042D01*
X4285477Y-2916115D01*
X4285112Y-2918423D01*
X4285246Y-2919270D01*
X4287086Y-2930888D01*
X4287086Y-2930888D01*
X4287220Y-2931735D01*
X4290340Y-2937858D01*
X4292182Y-2941473D01*
X4293339Y-2943745D01*
X4302870Y-2953276D01*
X4303634Y-2953665D01*
X4303634Y-2953665D01*
X4305435Y-2954582D01*
X4314879Y-2959395D01*
X4315727Y-2959529D01*
X4315727Y-2959529D01*
X4327345Y-2961369D01*
X4328192Y-2961503D01*
X4334761Y-2960463D01*
X4341414Y-2961517D01*
X4346178Y-2966280D01*
X4347232Y-2972934D01*
X4344173Y-2978936D01*
X4337487Y-2985623D01*
X4337097Y-2986387D01*
X4337097Y-2986387D01*
X4336306Y-2987940D01*
X4331367Y-2997632D01*
X4331233Y-2998480D01*
X4331233Y-2998480D01*
X4329562Y-3009034D01*
X4329259Y-3010945D01*
X4329393Y-3011792D01*
X4331233Y-3023410D01*
X4331233Y-3023410D01*
X4331367Y-3024257D01*
X4334408Y-3030224D01*
X4336904Y-3035123D01*
X4337487Y-3036267D01*
X4343662Y-3042442D01*
X4346720Y-3048445D01*
X4345667Y-3055098D01*
X4340903Y-3059862D01*
X4335955Y-3061050D01*
X4284574Y-3061050D01*
X4282448Y-3060841D01*
X4281840Y-3060720D01*
X4280787Y-3060510D01*
X4278165Y-3061032D01*
X4278074Y-3061050D01*
X4276047Y-3061453D01*
X4276026Y-3061457D01*
X4272192Y-3061533D01*
X4271714Y-3061457D01*
X4265788Y-3060519D01*
X4264941Y-3060653D01*
X4253323Y-3062493D01*
X4253323Y-3062493D01*
X4252475Y-3062627D01*
X4245993Y-3065930D01*
X4241607Y-3068165D01*
X4240466Y-3068746D01*
X4230935Y-3078277D01*
X4230546Y-3079041D01*
X4230546Y-3079041D01*
X4229645Y-3080808D01*
X4224816Y-3090286D01*
X4224629Y-3091469D01*
X4224475Y-3091770D01*
X4224417Y-3091950D01*
X4224389Y-3091940D01*
X4221571Y-3097471D01*
X4215569Y-3100529D01*
X4215180Y-3100560D01*
X4214988Y-3100529D01*
X4214416Y-3100620D01*
X4214415Y-3100620D01*
X4202523Y-3102504D01*
X4202523Y-3102504D01*
X4201675Y-3102638D01*
X4189666Y-3108757D01*
X4180135Y-3118288D01*
X4174016Y-3130297D01*
X4173882Y-3131144D01*
X4173882Y-3131145D01*
X4172443Y-3140230D01*
X4171908Y-3143610D01*
X4172042Y-3144457D01*
X4173882Y-3156075D01*
X4173882Y-3156075D01*
X4174016Y-3156922D01*
X4177449Y-3163660D01*
X4179644Y-3167967D01*
X4180135Y-3168932D01*
X4187033Y-3175830D01*
X4190091Y-3181832D01*
X4189037Y-3188486D01*
X4184274Y-3193249D01*
X4174327Y-3198317D01*
X4174326Y-3198318D01*
X4173562Y-3198707D01*
X4164031Y-3208238D01*
X4163642Y-3209002D01*
X4163642Y-3209002D01*
X4162787Y-3210680D01*
X4157912Y-3220247D01*
X4157778Y-3221095D01*
X4157778Y-3221095D01*
X4156183Y-3231167D01*
X4155804Y-3233560D01*
X4155938Y-3234407D01*
X4157778Y-3246025D01*
X4157778Y-3246025D01*
X4157912Y-3246872D01*
X4161649Y-3254206D01*
X4163408Y-3257659D01*
X4164031Y-3258882D01*
X4173562Y-3268413D01*
X4173381Y-3268594D01*
X4176603Y-3273030D01*
X4176603Y-3279766D01*
X4172643Y-3285216D01*
X4171185Y-3286110D01*
X4170326Y-3286548D01*
X4170326Y-3286548D01*
X4169562Y-3286937D01*
X4160031Y-3296468D01*
X4159642Y-3297232D01*
X4159642Y-3297232D01*
X4159290Y-3297922D01*
X4153912Y-3308477D01*
X4153778Y-3309324D01*
X4153778Y-3309325D01*
X4153257Y-3312615D01*
X4151804Y-3321790D01*
X4151938Y-3322637D01*
X4153778Y-3334255D01*
X4153778Y-3334255D01*
X4153912Y-3335102D01*
X4160031Y-3347112D01*
X4169562Y-3356643D01*
X4170326Y-3357032D01*
X4170326Y-3357032D01*
X4171374Y-3357566D01*
X4181571Y-3362762D01*
X4182419Y-3362896D01*
X4182419Y-3362896D01*
X4194037Y-3364736D01*
X4194884Y-3364870D01*
X4200519Y-3363978D01*
X4207173Y-3365031D01*
X4211936Y-3369795D01*
X4213034Y-3373547D01*
X4213034Y-3373830D01*
X4213139Y-3374355D01*
X4213558Y-3376464D01*
X4214371Y-3380554D01*
X4214566Y-3380844D01*
X4215058Y-3387104D01*
X4214784Y-3387949D01*
X4214371Y-3388566D01*
X4213034Y-3395290D01*
X4213034Y-3402860D01*
X4210952Y-3409267D01*
X4205502Y-3413226D01*
X4202134Y-3413760D01*
X4162099Y-3413760D01*
X4155692Y-3411678D01*
X4154391Y-3410567D01*
X4122676Y-3378852D01*
X4119618Y-3372850D01*
X4119484Y-3371145D01*
X4119484Y-3032760D01*
X4118674Y-3032760D01*
X4114824Y-3027461D01*
X4114401Y-3023921D01*
X4114296Y-3023920D01*
X4114306Y-3022956D01*
X4114306Y-3022956D01*
X4114309Y-3022600D01*
X4114141Y-3021205D01*
X4113235Y-3013724D01*
X4112491Y-3007570D01*
X4112258Y-3006956D01*
X4112258Y-3006955D01*
X4108098Y-2995946D01*
X4107139Y-2993408D01*
X4098564Y-2980931D01*
X4098074Y-2980494D01*
X4098074Y-2980494D01*
X4087751Y-2971297D01*
X4087751Y-2971297D01*
X4087260Y-2970860D01*
X4079380Y-2966688D01*
X4074461Y-2964083D01*
X4074460Y-2964083D01*
X4073880Y-2963776D01*
X4073244Y-2963616D01*
X4073244Y-2963616D01*
X4064887Y-2961517D01*
X4059197Y-2960087D01*
X4051679Y-2960048D01*
X4044715Y-2960012D01*
X4044714Y-2960012D01*
X4044058Y-2960008D01*
X4043419Y-2960162D01*
X4043419Y-2960162D01*
X4042164Y-2960463D01*
X4029337Y-2963542D01*
X4028753Y-2963844D01*
X4028753Y-2963844D01*
X4016467Y-2970185D01*
X4016467Y-2970185D01*
X4015883Y-2970486D01*
X4004475Y-2980438D01*
X3995770Y-2992825D01*
X3990270Y-3006930D01*
X3990184Y-3007582D01*
X3990184Y-3007582D01*
X3988555Y-3019960D01*
X3988294Y-3021940D01*
X3988366Y-3022593D01*
X3988372Y-3022650D01*
X3989955Y-3036988D01*
X3990398Y-3038197D01*
X3990952Y-3043484D01*
X3979784Y-3121660D01*
X3979784Y-3148610D01*
X3977702Y-3155017D01*
X3972252Y-3158976D01*
X3968884Y-3159510D01*
X3939733Y-3159510D01*
X3936394Y-3159510D01*
X3931435Y-3160163D01*
X3930680Y-3160515D01*
X3930679Y-3160515D01*
X3928193Y-3161675D01*
X3920552Y-3165238D01*
X3919878Y-3165912D01*
X3919876Y-3165914D01*
X3913433Y-3167883D01*
X3907064Y-3165690D01*
X3904856Y-3163461D01*
X3904333Y-3162752D01*
X3903192Y-3161612D01*
X3893861Y-3154719D01*
X3892437Y-3153965D01*
X3881349Y-3150071D01*
X3880060Y-3149789D01*
X3877898Y-3149584D01*
X3877384Y-3149560D01*
X3872610Y-3149560D01*
X3871214Y-3150014D01*
X3870884Y-3150468D01*
X3870884Y-3269834D01*
X3871338Y-3271230D01*
X3871792Y-3271560D01*
X3877385Y-3271560D01*
X3877896Y-3271536D01*
X3880060Y-3271331D01*
X3881349Y-3271049D01*
X3892437Y-3267155D01*
X3893861Y-3266401D01*
X3903192Y-3259508D01*
X3904333Y-3258368D01*
X3904856Y-3257659D01*
X3910337Y-3253743D01*
X3917073Y-3253796D01*
X3919876Y-3255206D01*
X3919878Y-3255208D01*
X3920552Y-3255882D01*
X3931435Y-3260957D01*
X3932262Y-3261066D01*
X3932262Y-3261066D01*
X3936040Y-3261563D01*
X3936041Y-3261563D01*
X3936394Y-3261610D01*
X3939731Y-3261610D01*
X3968884Y-3261610D01*
X3975291Y-3263692D01*
X3979250Y-3269142D01*
X3979784Y-3272510D01*
X3979784Y-3351497D01*
X3979650Y-3353202D01*
X3979584Y-3353618D01*
X3979584Y-3415360D01*
X3977502Y-3421767D01*
X3972052Y-3425726D01*
X3968684Y-3426260D01*
X3910810Y-3426260D01*
X3909414Y-3426714D01*
X3909084Y-3427168D01*
X3909084Y-3435761D01*
X3909108Y-3436272D01*
X3909313Y-3438436D01*
X3909595Y-3439725D01*
X3913489Y-3450813D01*
X3914243Y-3452236D01*
X3919986Y-3460011D01*
X3922118Y-3466402D01*
X3920086Y-3472825D01*
X3914668Y-3476827D01*
X3912640Y-3477294D01*
X3909839Y-3477663D01*
X3909084Y-3478015D01*
X3909083Y-3478015D01*
X3904288Y-3480252D01*
X3898956Y-3482738D01*
X3898282Y-3483412D01*
X3898280Y-3483414D01*
X3891837Y-3485383D01*
X3885468Y-3483190D01*
X3883260Y-3480961D01*
X3882737Y-3480252D01*
X3881596Y-3479112D01*
X3872265Y-3472219D01*
X3870841Y-3471465D01*
X3859753Y-3467571D01*
X3858464Y-3467289D01*
X3856302Y-3467084D01*
X3855788Y-3467060D01*
X3851014Y-3467060D01*
X3849618Y-3467514D01*
X3849288Y-3467968D01*
X3849288Y-3529660D01*
X3847206Y-3536067D01*
X3841756Y-3540026D01*
X3838388Y-3540560D01*
X3780514Y-3540560D01*
X3779118Y-3541014D01*
X3778256Y-3542199D01*
X3778788Y-3544461D01*
X3778788Y-3550061D01*
X3778812Y-3550572D01*
X3779017Y-3552736D01*
X3779299Y-3554025D01*
X3783193Y-3565113D01*
X3783947Y-3566537D01*
X3790840Y-3575869D01*
X3791979Y-3577008D01*
X3793182Y-3577897D01*
X3797099Y-3583378D01*
X3797046Y-3590114D01*
X3796339Y-3591765D01*
X3795893Y-3592607D01*
X3791999Y-3603695D01*
X3791717Y-3604984D01*
X3791512Y-3607146D01*
X3791488Y-3607660D01*
X3791488Y-3615434D01*
X3791942Y-3616830D01*
X3792396Y-3617160D01*
X3851088Y-3617160D01*
X3857495Y-3619242D01*
X3861454Y-3624692D01*
X3861988Y-3628060D01*
X3861988Y-3688934D01*
X3862442Y-3690330D01*
X3862896Y-3690660D01*
X3868489Y-3690660D01*
X3869000Y-3690636D01*
X3871164Y-3690431D01*
X3872453Y-3690149D01*
X3883541Y-3686255D01*
X3884965Y-3685501D01*
X3894296Y-3678608D01*
X3895437Y-3677468D01*
X3895960Y-3676759D01*
X3901441Y-3672843D01*
X3908177Y-3672896D01*
X3910980Y-3674306D01*
X3910982Y-3674308D01*
X3911656Y-3674982D01*
X3922539Y-3680057D01*
X3923366Y-3680166D01*
X3923366Y-3680166D01*
X3927144Y-3680663D01*
X3927145Y-3680663D01*
X3927498Y-3680710D01*
X3942012Y-3680710D01*
X3948419Y-3682792D01*
X3952379Y-3688242D01*
X3952379Y-3694978D01*
X3952206Y-3695429D01*
X3951739Y-3696111D01*
X3951506Y-3697089D01*
X3951141Y-3698631D01*
X3950660Y-3700152D01*
X3949783Y-3702349D01*
X3945475Y-3707528D01*
X3939659Y-3709210D01*
X3922513Y-3709210D01*
X3921989Y-3709314D01*
X3921989Y-3709314D01*
X3920071Y-3709696D01*
X3916665Y-3710373D01*
X3915772Y-3710970D01*
X3915772Y-3710970D01*
X3911733Y-3713669D01*
X3910033Y-3714805D01*
X3909436Y-3715697D01*
X3906824Y-3719607D01*
X3905601Y-3721437D01*
X3905270Y-3723103D01*
X3904644Y-3726252D01*
X3904438Y-3727285D01*
X3904438Y-3746459D01*
X3902356Y-3752866D01*
X3901470Y-3753854D01*
X3901049Y-3754113D01*
X3900440Y-3754914D01*
X3900440Y-3754914D01*
X3899324Y-3756382D01*
X3898355Y-3757492D01*
X3873390Y-3782457D01*
X3873117Y-3782693D01*
X3872657Y-3782917D01*
X3871973Y-3783655D01*
X3869306Y-3786530D01*
X3869022Y-3786824D01*
X3868629Y-3787218D01*
X3862627Y-3790276D01*
X3860922Y-3790410D01*
X3851098Y-3790410D01*
X3846139Y-3791063D01*
X3845384Y-3791415D01*
X3845383Y-3791415D01*
X3843385Y-3792347D01*
X3835256Y-3796138D01*
X3826766Y-3804628D01*
X3821691Y-3815511D01*
X3821582Y-3816338D01*
X3821582Y-3816338D01*
X3821106Y-3819956D01*
X3821038Y-3820470D01*
X3821038Y-3856450D01*
X3821691Y-3861409D01*
X3822043Y-3862164D01*
X3822043Y-3862164D01*
X3823473Y-3865230D01*
X3826766Y-3872292D01*
X3827440Y-3872966D01*
X3827442Y-3872968D01*
X3829411Y-3879411D01*
X3827218Y-3885780D01*
X3824989Y-3887988D01*
X3824280Y-3888511D01*
X3823140Y-3889652D01*
X3816247Y-3898983D01*
X3815493Y-3900407D01*
X3811599Y-3911495D01*
X3811317Y-3912784D01*
X3811112Y-3914946D01*
X3811088Y-3915460D01*
X3811088Y-3920234D01*
X3811542Y-3921630D01*
X3811996Y-3921960D01*
X3873688Y-3921960D01*
X3880095Y-3924042D01*
X3884054Y-3929492D01*
X3884588Y-3932860D01*
X3884588Y-3990734D01*
X3885042Y-3992130D01*
X3885496Y-3992460D01*
X3894089Y-3992460D01*
X3894600Y-3992436D01*
X3896765Y-3992231D01*
X3897899Y-3991982D01*
X3904603Y-3992642D01*
X3906393Y-3993635D01*
X3908166Y-3994849D01*
X3916717Y-3998630D01*
X3918281Y-3999056D01*
X3919716Y-3999223D01*
X3920347Y-3999260D01*
X3927880Y-3999260D01*
X3934287Y-4001342D01*
X3938246Y-4006792D01*
X3938164Y-4013772D01*
X3934995Y-4022795D01*
X3934713Y-4024084D01*
X3934508Y-4026246D01*
X3934484Y-4026760D01*
X3934484Y-4034534D01*
X3934938Y-4035930D01*
X3935392Y-4036260D01*
X3994084Y-4036260D01*
X4000491Y-4038342D01*
X4004450Y-4043792D01*
X4004984Y-4047160D01*
X4004984Y-4108034D01*
X4005438Y-4109430D01*
X4005892Y-4109760D01*
X4011485Y-4109760D01*
X4011996Y-4109736D01*
X4014160Y-4109531D01*
X4015449Y-4109249D01*
X4026537Y-4105355D01*
X4027961Y-4104601D01*
X4037292Y-4097708D01*
X4038433Y-4096568D01*
X4038956Y-4095859D01*
X4044437Y-4091943D01*
X4051173Y-4091996D01*
X4053976Y-4093406D01*
X4053978Y-4093408D01*
X4054652Y-4094082D01*
X4065535Y-4099157D01*
X4066362Y-4099266D01*
X4066362Y-4099266D01*
X4070140Y-4099763D01*
X4070141Y-4099763D01*
X4070494Y-4099810D01*
X4088479Y-4099810D01*
X4106474Y-4099810D01*
X4111433Y-4099157D01*
X4112188Y-4098805D01*
X4112188Y-4098805D01*
X4117188Y-4096473D01*
X4122316Y-4094082D01*
X4130806Y-4085592D01*
X4135881Y-4074709D01*
X4136237Y-4072009D01*
X4136487Y-4070103D01*
X4136487Y-4070103D01*
X4136534Y-4069750D01*
X4136534Y-4027770D01*
X4135881Y-4022811D01*
X4134980Y-4020878D01*
X4131209Y-4012793D01*
X4130806Y-4011928D01*
X4125640Y-4006762D01*
X4122581Y-4000759D01*
X4123635Y-3994106D01*
X4128399Y-3989342D01*
X4131221Y-3988364D01*
X4131258Y-3988356D01*
X4131258Y-3988356D01*
X4132311Y-3988147D01*
X4133503Y-3987350D01*
X4138050Y-3984312D01*
X4138943Y-3983715D01*
X4140263Y-3981740D01*
X4142778Y-3977976D01*
X4142778Y-3977976D01*
X4143375Y-3977083D01*
X4144149Y-3973189D01*
X4144434Y-3971759D01*
X4144434Y-3971759D01*
X4144538Y-3971235D01*
X4144538Y-3955061D01*
X4146620Y-3948654D01*
X4152070Y-3944695D01*
X4158806Y-3944695D01*
X4164206Y-3948585D01*
X4166040Y-3951068D01*
X4167180Y-3952208D01*
X4176511Y-3959101D01*
X4177935Y-3959855D01*
X4189023Y-3963749D01*
X4190312Y-3964031D01*
X4192474Y-3964236D01*
X4192988Y-3964260D01*
X4200762Y-3964260D01*
X4202158Y-3963806D01*
X4202488Y-3963352D01*
X4202488Y-3904660D01*
X4204570Y-3898253D01*
X4210020Y-3894293D01*
X4213388Y-3893760D01*
X4216588Y-3893760D01*
X4222995Y-3895842D01*
X4226955Y-3901292D01*
X4227488Y-3904660D01*
X4227488Y-3962534D01*
X4227942Y-3963930D01*
X4228396Y-3964260D01*
X4236990Y-3964260D01*
X4237500Y-3964236D01*
X4239665Y-3964031D01*
X4240953Y-3963749D01*
X4251708Y-3959972D01*
X4258443Y-3959813D01*
X4263984Y-3963643D01*
X4265198Y-3965649D01*
X4270182Y-3976336D01*
X4278548Y-3984702D01*
X4282745Y-3986660D01*
X4287671Y-3991254D01*
X4289038Y-3996538D01*
X4289038Y-4008427D01*
X4286956Y-4014834D01*
X4281506Y-4018794D01*
X4279843Y-4019193D01*
X4272515Y-4020354D01*
X4272515Y-4020354D01*
X4271667Y-4020488D01*
X4263432Y-4024684D01*
X4260694Y-4026080D01*
X4259658Y-4026607D01*
X4250127Y-4036138D01*
X4249738Y-4036902D01*
X4249738Y-4036902D01*
X4248805Y-4038734D01*
X4244008Y-4048147D01*
X4243874Y-4048995D01*
X4243874Y-4048995D01*
X4242311Y-4058860D01*
X4241900Y-4061460D01*
X4242034Y-4062307D01*
X4243874Y-4073925D01*
X4243874Y-4073925D01*
X4244008Y-4074773D01*
X4247797Y-4082208D01*
X4249521Y-4085592D01*
X4250127Y-4086782D01*
X4259658Y-4096313D01*
X4271667Y-4102432D01*
X4272515Y-4102566D01*
X4272515Y-4102566D01*
X4284133Y-4104406D01*
X4284980Y-4104540D01*
X4285827Y-4104406D01*
X4297445Y-4102566D01*
X4297445Y-4102566D01*
X4298293Y-4102432D01*
X4310302Y-4096313D01*
X4312602Y-4094013D01*
X4318604Y-4090954D01*
X4325258Y-4092008D01*
X4330022Y-4096772D01*
X4331118Y-4100307D01*
X4332104Y-4107853D01*
X4332798Y-4113158D01*
X4338572Y-4126280D01*
X4339071Y-4126874D01*
X4339072Y-4126875D01*
X4347219Y-4136567D01*
X4347797Y-4137255D01*
X4349614Y-4138464D01*
X4357083Y-4143436D01*
X4361263Y-4148719D01*
X4361539Y-4155450D01*
X4357807Y-4161058D01*
X4351044Y-4163410D01*
X3599795Y-4163410D01*
X3597679Y-4163170D01*
X3597512Y-4163169D01*
X3596316Y-4162894D01*
X3595118Y-4163165D01*
X3594185Y-4163164D01*
X3592936Y-4163279D01*
X3547282Y-4161485D01*
X3546429Y-4161418D01*
X3536288Y-4160217D01*
X3498160Y-4155705D01*
X3497316Y-4155571D01*
X3464993Y-4149142D01*
X3449641Y-4146088D01*
X3448809Y-4145888D01*
X3402027Y-4132694D01*
X3401213Y-4132430D01*
X3399932Y-4131957D01*
X3372717Y-4121917D01*
X3355611Y-4115606D01*
X3354820Y-4115279D01*
X3310677Y-4094929D01*
X3309915Y-4094540D01*
X3267505Y-4070790D01*
X3267459Y-4070761D01*
X3934484Y-4070761D01*
X3934508Y-4071272D01*
X3934713Y-4073436D01*
X3934995Y-4074725D01*
X3938889Y-4085813D01*
X3939643Y-4087237D01*
X3946536Y-4096568D01*
X3947676Y-4097708D01*
X3957007Y-4104601D01*
X3958431Y-4105355D01*
X3969519Y-4109249D01*
X3970808Y-4109531D01*
X3972970Y-4109736D01*
X3973484Y-4109760D01*
X3978258Y-4109760D01*
X3979654Y-4109306D01*
X3979984Y-4108852D01*
X3979984Y-4062986D01*
X3979530Y-4061590D01*
X3979076Y-4061260D01*
X3936210Y-4061260D01*
X3934814Y-4061714D01*
X3934484Y-4062168D01*
X3934484Y-4070761D01*
X3267459Y-4070761D01*
X3266776Y-4070342D01*
X3246324Y-4056677D01*
X3241133Y-4053209D01*
X3236963Y-4047919D01*
X3236698Y-4041187D01*
X3240441Y-4035586D01*
X3247189Y-4033246D01*
X3257833Y-4033246D01*
X3263046Y-4032478D01*
X3263834Y-4032362D01*
X3264672Y-4032239D01*
X3275072Y-4027133D01*
X3276137Y-4026066D01*
X3280567Y-4021628D01*
X3286567Y-4018565D01*
X3293221Y-4019613D01*
X3295982Y-4021615D01*
X3301546Y-4027169D01*
X3311955Y-4032257D01*
X3314529Y-4032632D01*
X3318344Y-4033189D01*
X3318345Y-4033189D01*
X3318735Y-4033246D01*
X3354833Y-4033246D01*
X3360046Y-4032478D01*
X3360834Y-4032362D01*
X3361672Y-4032239D01*
X3372072Y-4027133D01*
X3373137Y-4026066D01*
X3379621Y-4019571D01*
X3380257Y-4018934D01*
X3380511Y-4018414D01*
X3385788Y-4014509D01*
X3389247Y-4013946D01*
X3418232Y-4013946D01*
X3424638Y-4016028D01*
X3426524Y-4017946D01*
X3426562Y-4018028D01*
X3435052Y-4026518D01*
X3445935Y-4031593D01*
X3446762Y-4031702D01*
X3446762Y-4031702D01*
X3450540Y-4032199D01*
X3450541Y-4032199D01*
X3450894Y-4032246D01*
X3468879Y-4032246D01*
X3486874Y-4032246D01*
X3491833Y-4031593D01*
X3492588Y-4031241D01*
X3492588Y-4031241D01*
X3498905Y-4028295D01*
X3502716Y-4026518D01*
X3503390Y-4025844D01*
X3503392Y-4025842D01*
X3509835Y-4023873D01*
X3516204Y-4026066D01*
X3518412Y-4028295D01*
X3518935Y-4029004D01*
X3520076Y-4030144D01*
X3529407Y-4037037D01*
X3530831Y-4037791D01*
X3541919Y-4041685D01*
X3543208Y-4041967D01*
X3545370Y-4042172D01*
X3545884Y-4042196D01*
X3550658Y-4042196D01*
X3552054Y-4041742D01*
X3552384Y-4041288D01*
X3552384Y-4040470D01*
X3577384Y-4040470D01*
X3577838Y-4041866D01*
X3578292Y-4042196D01*
X3583885Y-4042196D01*
X3584396Y-4042172D01*
X3586560Y-4041967D01*
X3587849Y-4041685D01*
X3598937Y-4037791D01*
X3600361Y-4037037D01*
X3609692Y-4030144D01*
X3610832Y-4029004D01*
X3617725Y-4019673D01*
X3618479Y-4018249D01*
X3622373Y-4007161D01*
X3622655Y-4005872D01*
X3622860Y-4003710D01*
X3622884Y-4003196D01*
X3622884Y-3995422D01*
X3622430Y-3994026D01*
X3621976Y-3993696D01*
X3579110Y-3993696D01*
X3577714Y-3994150D01*
X3577384Y-3994604D01*
X3577384Y-4040470D01*
X3552384Y-4040470D01*
X3552384Y-3979596D01*
X3554466Y-3973189D01*
X3559916Y-3969229D01*
X3563284Y-3968696D01*
X3621158Y-3968696D01*
X3622554Y-3968242D01*
X3622884Y-3967788D01*
X3622884Y-3959194D01*
X3622860Y-3958684D01*
X3622655Y-3956519D01*
X3622373Y-3955231D01*
X3621751Y-3953461D01*
X3811088Y-3953461D01*
X3811112Y-3953972D01*
X3811317Y-3956136D01*
X3811599Y-3957425D01*
X3815493Y-3968513D01*
X3816247Y-3969937D01*
X3823140Y-3979268D01*
X3824280Y-3980408D01*
X3833611Y-3987301D01*
X3835035Y-3988055D01*
X3846123Y-3991949D01*
X3847412Y-3992231D01*
X3849574Y-3992436D01*
X3850088Y-3992460D01*
X3857862Y-3992460D01*
X3859258Y-3992006D01*
X3859588Y-3991552D01*
X3859588Y-3948686D01*
X3859134Y-3947290D01*
X3858680Y-3946960D01*
X3812814Y-3946960D01*
X3811418Y-3947414D01*
X3811088Y-3947868D01*
X3811088Y-3953461D01*
X3621751Y-3953461D01*
X3618479Y-3944143D01*
X3617725Y-3942719D01*
X3614657Y-3938566D01*
X3612525Y-3932176D01*
X3613616Y-3927338D01*
X3614228Y-3926074D01*
X3616871Y-3920619D01*
X3617438Y-3917246D01*
X3620554Y-3911273D01*
X3626586Y-3908273D01*
X3633229Y-3909390D01*
X3634227Y-3909981D01*
X3640474Y-3914139D01*
X3640475Y-3914140D01*
X3641121Y-3914570D01*
X3641862Y-3914801D01*
X3654064Y-3918613D01*
X3654064Y-3918613D01*
X3654805Y-3918845D01*
X3662563Y-3918987D01*
X3668364Y-3919094D01*
X3668364Y-3919094D01*
X3669140Y-3919108D01*
X3682971Y-3915337D01*
X3695189Y-3907835D01*
X3696124Y-3906803D01*
X3702206Y-3900083D01*
X3704810Y-3897206D01*
X3711061Y-3884304D01*
X3712774Y-3874119D01*
X3713369Y-3870582D01*
X3713369Y-3870581D01*
X3713439Y-3870166D01*
X3713454Y-3868931D01*
X3711422Y-3854739D01*
X3711119Y-3854074D01*
X3711319Y-3847361D01*
X3715438Y-3842031D01*
X3721904Y-3840140D01*
X3723323Y-3840276D01*
X3723958Y-3840379D01*
X3724700Y-3840610D01*
X3732457Y-3840752D01*
X3738258Y-3840859D01*
X3738258Y-3840859D01*
X3739034Y-3840873D01*
X3752866Y-3837102D01*
X3765083Y-3829600D01*
X3774704Y-3818971D01*
X3780955Y-3806069D01*
X3783334Y-3791931D01*
X3783349Y-3790696D01*
X3781316Y-3776504D01*
X3775382Y-3763453D01*
X3766024Y-3752592D01*
X3753993Y-3744794D01*
X3746877Y-3742666D01*
X3741002Y-3740909D01*
X3741002Y-3740909D01*
X3740258Y-3740687D01*
X3733090Y-3740643D01*
X3726698Y-3740604D01*
X3726698Y-3740604D01*
X3725922Y-3740599D01*
X3725175Y-3740812D01*
X3725175Y-3740812D01*
X3712883Y-3744325D01*
X3712883Y-3744325D01*
X3712137Y-3744539D01*
X3711480Y-3744953D01*
X3700696Y-3751758D01*
X3700012Y-3752189D01*
X3699109Y-3753212D01*
X3691036Y-3762352D01*
X3691036Y-3762353D01*
X3690522Y-3762935D01*
X3690247Y-3763519D01*
X3685037Y-3767693D01*
X3678308Y-3768011D01*
X3672677Y-3764312D01*
X3670284Y-3757497D01*
X3670284Y-3728169D01*
X3670493Y-3726043D01*
X3670592Y-3725549D01*
X3670801Y-3724496D01*
X3670284Y-3721896D01*
X3670284Y-3721896D01*
X3668752Y-3714195D01*
X3662917Y-3705463D01*
X3661606Y-3704586D01*
X3659954Y-3703231D01*
X3619801Y-3663078D01*
X3682223Y-3663078D01*
X3684082Y-3677294D01*
X3689856Y-3690416D01*
X3690355Y-3691010D01*
X3690355Y-3691011D01*
X3697567Y-3699590D01*
X3699081Y-3701391D01*
X3711015Y-3709335D01*
X3711756Y-3709566D01*
X3723959Y-3713379D01*
X3723959Y-3713379D01*
X3724700Y-3713610D01*
X3732457Y-3713752D01*
X3738258Y-3713859D01*
X3738258Y-3713859D01*
X3739034Y-3713873D01*
X3752866Y-3710102D01*
X3765083Y-3702600D01*
X3774704Y-3691971D01*
X3780955Y-3679069D01*
X3781104Y-3678183D01*
X3781151Y-3678094D01*
X3781320Y-3677564D01*
X3781412Y-3677593D01*
X3784220Y-3672211D01*
X3790252Y-3669211D01*
X3796895Y-3670328D01*
X3800621Y-3673516D01*
X3803540Y-3677468D01*
X3804680Y-3678608D01*
X3814011Y-3685501D01*
X3815435Y-3686255D01*
X3826523Y-3690149D01*
X3827812Y-3690431D01*
X3829974Y-3690636D01*
X3830488Y-3690660D01*
X3835262Y-3690660D01*
X3836658Y-3690206D01*
X3836988Y-3689752D01*
X3836988Y-3643886D01*
X3836534Y-3642490D01*
X3836080Y-3642160D01*
X3793214Y-3642160D01*
X3789199Y-3643465D01*
X3782462Y-3643465D01*
X3777012Y-3639505D01*
X3775908Y-3637609D01*
X3775902Y-3637596D01*
X3775382Y-3636453D01*
X3766024Y-3625592D01*
X3753993Y-3617794D01*
X3748022Y-3616009D01*
X3741002Y-3613909D01*
X3741002Y-3613909D01*
X3740258Y-3613687D01*
X3733090Y-3613643D01*
X3726698Y-3613604D01*
X3726698Y-3613604D01*
X3725922Y-3613599D01*
X3725175Y-3613812D01*
X3725175Y-3613812D01*
X3712883Y-3617325D01*
X3712883Y-3617325D01*
X3712137Y-3617539D01*
X3711480Y-3617953D01*
X3700800Y-3624692D01*
X3700012Y-3625189D01*
X3690522Y-3635935D01*
X3690192Y-3636638D01*
X3690192Y-3636638D01*
X3684759Y-3648209D01*
X3684759Y-3648209D01*
X3684429Y-3648912D01*
X3684309Y-3649680D01*
X3683022Y-3657946D01*
X3682223Y-3663078D01*
X3619801Y-3663078D01*
X3611174Y-3654450D01*
X3608115Y-3648448D01*
X3608353Y-3643922D01*
X3608520Y-3643296D01*
X3608765Y-3642686D01*
X3608867Y-3641971D01*
X3610431Y-3630982D01*
X3611001Y-3626979D01*
X3611015Y-3625596D01*
X3609109Y-3609845D01*
X3608877Y-3609231D01*
X3608877Y-3609230D01*
X3603734Y-3595619D01*
X3603501Y-3595004D01*
X3597958Y-3586938D01*
X3594887Y-3582470D01*
X3594515Y-3581929D01*
X3594025Y-3581492D01*
X3594025Y-3581492D01*
X3583159Y-3571811D01*
X3583159Y-3571811D01*
X3582669Y-3571374D01*
X3582088Y-3571067D01*
X3582088Y-3571067D01*
X3569229Y-3564258D01*
X3569229Y-3564258D01*
X3568647Y-3563950D01*
X3555169Y-3560565D01*
X3549462Y-3556985D01*
X3546949Y-3550735D01*
X3548591Y-3544201D01*
X3552276Y-3540611D01*
X3559940Y-3536078D01*
X3656823Y-3536078D01*
X3658682Y-3550294D01*
X3664456Y-3563416D01*
X3664955Y-3564010D01*
X3664955Y-3564011D01*
X3672986Y-3573565D01*
X3673681Y-3574391D01*
X3685615Y-3582335D01*
X3686356Y-3582566D01*
X3698559Y-3586379D01*
X3698559Y-3586379D01*
X3699300Y-3586610D01*
X3707057Y-3586752D01*
X3712858Y-3586859D01*
X3712858Y-3586859D01*
X3713634Y-3586873D01*
X3727466Y-3583102D01*
X3739683Y-3575600D01*
X3741121Y-3574012D01*
X3748783Y-3565547D01*
X3749304Y-3564971D01*
X3755555Y-3552069D01*
X3757139Y-3542653D01*
X3758759Y-3539549D01*
X3757957Y-3537332D01*
X3757943Y-3537117D01*
X3757949Y-3536696D01*
X3755916Y-3522504D01*
X3751974Y-3513834D01*
X3778788Y-3513834D01*
X3779242Y-3515230D01*
X3779696Y-3515560D01*
X3822562Y-3515560D01*
X3823958Y-3515106D01*
X3824288Y-3514652D01*
X3824288Y-3468786D01*
X3823834Y-3467390D01*
X3823380Y-3467060D01*
X3817786Y-3467060D01*
X3817276Y-3467084D01*
X3815111Y-3467289D01*
X3813823Y-3467571D01*
X3802735Y-3471465D01*
X3801311Y-3472219D01*
X3791980Y-3479112D01*
X3790840Y-3480252D01*
X3783947Y-3489583D01*
X3783193Y-3491007D01*
X3779299Y-3502095D01*
X3779017Y-3503384D01*
X3778812Y-3505546D01*
X3778788Y-3506060D01*
X3778788Y-3513834D01*
X3751974Y-3513834D01*
X3749982Y-3509453D01*
X3740624Y-3498592D01*
X3728593Y-3490794D01*
X3724543Y-3489583D01*
X3715602Y-3486909D01*
X3715602Y-3486909D01*
X3714858Y-3486687D01*
X3707690Y-3486643D01*
X3701298Y-3486604D01*
X3701298Y-3486604D01*
X3700522Y-3486599D01*
X3699775Y-3486812D01*
X3699775Y-3486812D01*
X3687483Y-3490325D01*
X3687483Y-3490325D01*
X3686737Y-3490539D01*
X3686080Y-3490953D01*
X3675280Y-3497767D01*
X3674612Y-3498189D01*
X3665122Y-3508935D01*
X3664792Y-3509638D01*
X3664792Y-3509638D01*
X3659359Y-3521209D01*
X3659359Y-3521209D01*
X3659029Y-3521912D01*
X3658909Y-3522680D01*
X3657231Y-3533460D01*
X3656823Y-3536078D01*
X3559940Y-3536078D01*
X3564889Y-3533151D01*
X3564889Y-3533151D01*
X3565479Y-3532802D01*
X3594251Y-3504031D01*
X3601854Y-3494229D01*
X3602392Y-3492986D01*
X3608123Y-3479742D01*
X3608432Y-3479029D01*
X3611022Y-3462671D01*
X3610925Y-3461645D01*
X3610187Y-3453830D01*
X3609464Y-3446183D01*
X3608520Y-3443560D01*
X3604086Y-3431246D01*
X3604086Y-3431245D01*
X3603854Y-3430600D01*
X3602907Y-3429207D01*
X3594930Y-3417470D01*
X3594930Y-3417470D01*
X3594545Y-3416902D01*
X3583487Y-3407154D01*
X3582636Y-3406403D01*
X3582636Y-3406403D01*
X3582121Y-3405950D01*
X3569529Y-3399534D01*
X3909084Y-3399534D01*
X3909538Y-3400930D01*
X3909992Y-3401260D01*
X3952858Y-3401260D01*
X3954254Y-3400806D01*
X3954584Y-3400352D01*
X3954584Y-3354486D01*
X3954130Y-3353090D01*
X3953676Y-3352760D01*
X3948082Y-3352760D01*
X3947572Y-3352784D01*
X3945407Y-3352989D01*
X3944119Y-3353271D01*
X3933031Y-3357165D01*
X3931607Y-3357919D01*
X3922276Y-3364812D01*
X3921136Y-3365952D01*
X3914243Y-3375283D01*
X3913489Y-3376707D01*
X3909595Y-3387795D01*
X3909313Y-3389084D01*
X3909108Y-3391246D01*
X3909084Y-3391760D01*
X3909084Y-3399534D01*
X3569529Y-3399534D01*
X3567365Y-3398431D01*
X3554385Y-3395530D01*
X3551871Y-3394968D01*
X3551871Y-3394968D01*
X3551202Y-3394818D01*
X3550517Y-3394840D01*
X3550517Y-3394840D01*
X3543889Y-3395048D01*
X3534648Y-3395338D01*
X3533990Y-3395530D01*
X3533990Y-3395530D01*
X3519402Y-3399768D01*
X3519402Y-3399768D01*
X3518744Y-3399959D01*
X3515382Y-3401947D01*
X3507746Y-3406463D01*
X3504489Y-3408390D01*
X3475717Y-3437161D01*
X3468114Y-3446963D01*
X3467842Y-3447592D01*
X3467841Y-3447593D01*
X3463927Y-3456638D01*
X3461536Y-3462163D01*
X3458946Y-3478521D01*
X3459010Y-3479203D01*
X3459010Y-3479203D01*
X3459576Y-3485192D01*
X3460345Y-3493322D01*
X3460345Y-3493330D01*
X3458876Y-3499904D01*
X3457201Y-3502063D01*
X3393473Y-3565791D01*
X3392773Y-3566433D01*
X3389809Y-3568920D01*
X3388368Y-3571417D01*
X3387875Y-3572270D01*
X3387364Y-3573072D01*
X3387019Y-3573565D01*
X3385751Y-3575376D01*
X3385145Y-3576242D01*
X3385097Y-3576418D01*
X3380798Y-3581028D01*
X3374754Y-3582369D01*
X3372451Y-3582208D01*
X3371527Y-3582730D01*
X3329882Y-3624375D01*
X3329216Y-3625684D01*
X3329303Y-3626238D01*
X3371284Y-3668218D01*
X3374995Y-3670109D01*
X3376582Y-3670360D01*
X3381346Y-3675124D01*
X3382534Y-3680073D01*
X3382534Y-3736224D01*
X3380452Y-3742631D01*
X3375002Y-3746590D01*
X3373137Y-3746819D01*
X3371527Y-3747730D01*
X3329882Y-3789375D01*
X3329216Y-3790684D01*
X3329303Y-3791238D01*
X3371284Y-3833218D01*
X3374995Y-3835109D01*
X3376582Y-3835360D01*
X3381346Y-3840124D01*
X3382534Y-3845073D01*
X3382534Y-3922901D01*
X3380452Y-3929308D01*
X3375002Y-3933267D01*
X3368266Y-3933267D01*
X3366847Y-3932693D01*
X3362374Y-3930507D01*
X3362373Y-3930507D01*
X3361613Y-3930135D01*
X3359039Y-3929760D01*
X3355224Y-3929203D01*
X3355223Y-3929203D01*
X3354833Y-3929146D01*
X3322465Y-3929146D01*
X3316058Y-3927064D01*
X3312099Y-3921614D01*
X3311716Y-3916438D01*
X3313364Y-3906647D01*
X3313364Y-3906647D01*
X3313434Y-3906231D01*
X3313449Y-3904996D01*
X3311416Y-3890804D01*
X3309329Y-3886213D01*
X3307104Y-3881319D01*
X3306347Y-3874625D01*
X3309669Y-3868764D01*
X3316038Y-3865952D01*
X3325654Y-3865077D01*
X3326841Y-3864833D01*
X3341791Y-3859976D01*
X3342894Y-3859475D01*
X3353498Y-3853154D01*
X3354407Y-3852116D01*
X3353891Y-3851180D01*
X3312205Y-3809494D01*
X3310896Y-3808828D01*
X3310342Y-3808915D01*
X3267528Y-3851730D01*
X3261526Y-3854788D01*
X3259754Y-3854922D01*
X3256798Y-3854904D01*
X3256798Y-3854904D01*
X3256022Y-3854899D01*
X3255275Y-3855112D01*
X3254719Y-3855189D01*
X3254605Y-3855168D01*
X3253706Y-3855561D01*
X3250618Y-3856443D01*
X3242983Y-3858625D01*
X3242983Y-3858625D01*
X3242237Y-3858839D01*
X3241580Y-3859253D01*
X3234071Y-3863991D01*
X3230112Y-3866489D01*
X3220622Y-3877235D01*
X3220292Y-3877938D01*
X3220292Y-3877938D01*
X3214859Y-3889509D01*
X3214859Y-3889509D01*
X3214529Y-3890212D01*
X3214409Y-3890980D01*
X3212537Y-3903002D01*
X3212323Y-3904378D01*
X3212424Y-3905148D01*
X3212414Y-3905925D01*
X3212264Y-3905923D01*
X3211184Y-3911723D01*
X3210538Y-3912765D01*
X3209645Y-3914042D01*
X3209398Y-3914963D01*
X3209184Y-3915421D01*
X3209011Y-3915896D01*
X3208534Y-3916722D01*
X3208080Y-3919300D01*
X3207862Y-3920532D01*
X3207657Y-3921460D01*
X3206903Y-3924274D01*
X3206655Y-3925198D01*
X3206738Y-3926147D01*
X3206738Y-3926148D01*
X3206848Y-3927402D01*
X3205333Y-3933966D01*
X3203704Y-3936052D01*
X3199246Y-3940518D01*
X3196311Y-3943458D01*
X3191223Y-3953867D01*
X3190892Y-3956136D01*
X3190319Y-3960061D01*
X3190234Y-3960647D01*
X3190234Y-3990400D01*
X3188152Y-3996807D01*
X3182702Y-4000766D01*
X3175966Y-4000766D01*
X3171935Y-3998404D01*
X3171891Y-3998363D01*
X3154958Y-3982710D01*
X3151153Y-3979193D01*
X3150547Y-3978587D01*
X3117553Y-3942894D01*
X3116997Y-3942243D01*
X3096483Y-3916222D01*
X3086905Y-3904071D01*
X3086402Y-3903380D01*
X3086150Y-3903002D01*
X3075752Y-3887440D01*
X3059397Y-3862964D01*
X3058950Y-3862235D01*
X3035200Y-3819825D01*
X3034811Y-3819063D01*
X3021478Y-3790141D01*
X3235073Y-3790141D01*
X3236607Y-3805787D01*
X3236859Y-3806971D01*
X3241821Y-3821886D01*
X3242329Y-3822986D01*
X3248445Y-3833086D01*
X3249500Y-3833996D01*
X3250416Y-3833486D01*
X3292086Y-3791817D01*
X3292752Y-3790508D01*
X3292665Y-3789954D01*
X3250654Y-3747943D01*
X3249368Y-3747288D01*
X3248651Y-3747937D01*
X3243260Y-3756301D01*
X3242721Y-3757386D01*
X3237345Y-3772158D01*
X3237060Y-3773335D01*
X3235090Y-3788931D01*
X3235073Y-3790141D01*
X3021478Y-3790141D01*
X3014461Y-3774920D01*
X3014134Y-3774129D01*
X3002526Y-3742666D01*
X2997538Y-3729145D01*
X3267604Y-3729145D01*
X3268107Y-3730042D01*
X3309763Y-3771698D01*
X3311072Y-3772364D01*
X3311626Y-3772277D01*
X3353656Y-3730246D01*
X3354305Y-3728972D01*
X3353640Y-3728241D01*
X3344805Y-3722634D01*
X3343716Y-3722103D01*
X3333127Y-3718332D01*
X3327789Y-3714222D01*
X3325887Y-3707760D01*
X3328147Y-3701413D01*
X3333415Y-3697698D01*
X3341791Y-3694976D01*
X3342894Y-3694475D01*
X3353498Y-3688154D01*
X3354407Y-3687116D01*
X3353891Y-3686180D01*
X3312205Y-3644494D01*
X3310896Y-3643828D01*
X3310342Y-3643915D01*
X3268348Y-3685910D01*
X3267687Y-3687206D01*
X3268320Y-3687911D01*
X3276217Y-3693079D01*
X3277299Y-3693625D01*
X3288869Y-3697928D01*
X3294148Y-3702112D01*
X3295960Y-3708601D01*
X3293612Y-3714915D01*
X3288582Y-3718463D01*
X3279211Y-3721653D01*
X3278115Y-3722169D01*
X3268515Y-3728075D01*
X3267604Y-3729145D01*
X2997538Y-3729145D01*
X2997310Y-3728527D01*
X2997046Y-3727713D01*
X2996872Y-3727096D01*
X2992617Y-3712010D01*
X2983852Y-3680931D01*
X2983652Y-3680099D01*
X2979272Y-3658078D01*
X2974169Y-3632424D01*
X2974035Y-3631579D01*
X2973964Y-3630982D01*
X2973273Y-3625141D01*
X3235073Y-3625141D01*
X3236607Y-3640787D01*
X3236859Y-3641971D01*
X3241821Y-3656886D01*
X3242329Y-3657986D01*
X3248445Y-3668086D01*
X3249500Y-3668996D01*
X3250416Y-3668486D01*
X3292086Y-3626817D01*
X3292752Y-3625508D01*
X3292665Y-3624954D01*
X3250654Y-3582943D01*
X3249368Y-3582288D01*
X3248651Y-3582937D01*
X3243260Y-3591301D01*
X3242721Y-3592386D01*
X3237345Y-3607158D01*
X3237060Y-3608335D01*
X3235090Y-3623931D01*
X3235073Y-3625141D01*
X2973273Y-3625141D01*
X2968322Y-3583311D01*
X2968255Y-3582458D01*
X2968233Y-3581905D01*
X2966490Y-3537546D01*
X3020830Y-3537546D01*
X3023793Y-3554794D01*
X3024041Y-3555377D01*
X3029804Y-3568920D01*
X3030645Y-3570897D01*
X3041018Y-3584992D01*
X3054355Y-3596323D01*
X3054919Y-3596611D01*
X3054920Y-3596611D01*
X3069378Y-3603994D01*
X3069378Y-3603994D01*
X3069942Y-3604282D01*
X3070556Y-3604432D01*
X3070556Y-3604432D01*
X3086469Y-3608326D01*
X3086469Y-3608326D01*
X3086941Y-3608441D01*
X3087425Y-3608471D01*
X3087425Y-3608472D01*
X3087724Y-3608490D01*
X3088045Y-3608510D01*
X3100662Y-3608510D01*
X3110489Y-3607364D01*
X3113034Y-3607068D01*
X3113034Y-3607068D01*
X3113663Y-3606994D01*
X3114257Y-3606778D01*
X3114258Y-3606778D01*
X3129518Y-3601239D01*
X3129518Y-3601239D01*
X3130113Y-3601023D01*
X3143190Y-3592449D01*
X3144219Y-3591775D01*
X3144219Y-3591775D01*
X3144748Y-3591428D01*
X3156784Y-3578723D01*
X3165251Y-3564145D01*
X3267604Y-3564145D01*
X3268107Y-3565042D01*
X3309763Y-3606698D01*
X3311072Y-3607364D01*
X3311626Y-3607277D01*
X3353656Y-3565246D01*
X3354305Y-3563972D01*
X3353640Y-3563241D01*
X3344805Y-3557634D01*
X3343716Y-3557103D01*
X3333127Y-3553332D01*
X3327789Y-3549222D01*
X3325887Y-3542760D01*
X3328147Y-3536413D01*
X3333415Y-3532698D01*
X3341791Y-3529976D01*
X3342894Y-3529475D01*
X3353498Y-3523154D01*
X3354407Y-3522116D01*
X3353891Y-3521180D01*
X3312205Y-3479494D01*
X3310896Y-3478828D01*
X3310342Y-3478915D01*
X3268348Y-3520910D01*
X3267687Y-3522206D01*
X3268320Y-3522911D01*
X3276217Y-3528079D01*
X3277299Y-3528625D01*
X3288869Y-3532928D01*
X3294148Y-3537112D01*
X3295960Y-3543601D01*
X3293612Y-3549915D01*
X3288582Y-3553463D01*
X3279211Y-3556653D01*
X3278115Y-3557169D01*
X3268515Y-3563075D01*
X3267604Y-3564145D01*
X3165251Y-3564145D01*
X3165574Y-3563590D01*
X3167327Y-3557802D01*
X3170463Y-3547447D01*
X3170463Y-3547447D01*
X3170647Y-3546841D01*
X3171454Y-3533830D01*
X3171691Y-3530006D01*
X3171691Y-3530006D01*
X3171730Y-3529374D01*
X3168767Y-3512126D01*
X3165322Y-3504031D01*
X3162163Y-3496605D01*
X3162162Y-3496605D01*
X3161915Y-3496023D01*
X3151542Y-3481928D01*
X3138204Y-3470597D01*
X3137640Y-3470309D01*
X3137640Y-3470309D01*
X3123182Y-3462926D01*
X3123182Y-3462926D01*
X3122618Y-3462638D01*
X3122004Y-3462488D01*
X3122003Y-3462488D01*
X3112414Y-3460141D01*
X3235073Y-3460141D01*
X3236607Y-3475787D01*
X3236859Y-3476971D01*
X3241821Y-3491886D01*
X3242329Y-3492986D01*
X3248445Y-3503086D01*
X3249500Y-3503996D01*
X3250416Y-3503486D01*
X3292086Y-3461817D01*
X3292663Y-3460684D01*
X3329216Y-3460684D01*
X3329303Y-3461238D01*
X3371284Y-3503218D01*
X3372591Y-3503884D01*
X3373283Y-3503268D01*
X3378222Y-3495833D01*
X3378776Y-3494755D01*
X3384358Y-3480061D01*
X3384659Y-3478887D01*
X3386884Y-3463057D01*
X3386937Y-3462374D01*
X3386957Y-3460939D01*
X3386924Y-3460256D01*
X3385141Y-3444369D01*
X3384873Y-3443188D01*
X3379704Y-3428343D01*
X3379180Y-3427250D01*
X3373491Y-3418146D01*
X3372404Y-3417234D01*
X3371527Y-3417730D01*
X3329882Y-3459375D01*
X3329216Y-3460684D01*
X3292663Y-3460684D01*
X3292752Y-3460508D01*
X3292665Y-3459954D01*
X3250654Y-3417943D01*
X3249368Y-3417288D01*
X3248651Y-3417937D01*
X3243260Y-3426301D01*
X3242721Y-3427386D01*
X3237345Y-3442158D01*
X3237060Y-3443335D01*
X3235090Y-3458931D01*
X3235073Y-3460141D01*
X3112414Y-3460141D01*
X3106091Y-3458594D01*
X3106091Y-3458594D01*
X3105619Y-3458478D01*
X3105135Y-3458448D01*
X3105135Y-3458448D01*
X3104836Y-3458430D01*
X3104515Y-3458410D01*
X3091898Y-3458410D01*
X3083617Y-3459375D01*
X3079526Y-3459852D01*
X3079526Y-3459852D01*
X3078897Y-3459926D01*
X3078303Y-3460141D01*
X3078302Y-3460142D01*
X3070570Y-3462948D01*
X3062447Y-3465897D01*
X3047811Y-3475492D01*
X3035776Y-3488197D01*
X3026986Y-3503330D01*
X3026802Y-3503937D01*
X3026802Y-3503937D01*
X3022111Y-3519426D01*
X3021913Y-3520079D01*
X3021763Y-3522504D01*
X3020900Y-3536413D01*
X3020830Y-3537546D01*
X2966490Y-3537546D01*
X2966347Y-3533888D01*
X2966347Y-3533032D01*
X2966360Y-3532698D01*
X2968255Y-3484462D01*
X2968322Y-3483609D01*
X2969555Y-3473197D01*
X2974035Y-3435340D01*
X2974169Y-3434495D01*
X2974186Y-3434412D01*
X2981022Y-3400042D01*
X2981201Y-3399145D01*
X3267604Y-3399145D01*
X3268107Y-3400042D01*
X3309763Y-3441698D01*
X3311072Y-3442364D01*
X3311626Y-3442277D01*
X3353656Y-3400246D01*
X3354305Y-3398972D01*
X3353640Y-3398241D01*
X3344805Y-3392634D01*
X3343716Y-3392103D01*
X3328908Y-3386830D01*
X3327728Y-3386553D01*
X3312119Y-3384692D01*
X3310909Y-3384684D01*
X3295275Y-3386327D01*
X3294092Y-3386587D01*
X3279211Y-3391653D01*
X3278115Y-3392169D01*
X3268515Y-3398075D01*
X3267604Y-3399145D01*
X2981201Y-3399145D01*
X2983652Y-3386821D01*
X2983852Y-3385989D01*
X2997046Y-3339207D01*
X2997310Y-3338393D01*
X2999842Y-3331530D01*
X3012495Y-3297232D01*
X3014134Y-3292791D01*
X3014461Y-3292000D01*
X3034811Y-3247857D01*
X3035200Y-3247095D01*
X3058950Y-3204685D01*
X3059397Y-3203956D01*
X3078984Y-3174642D01*
X3086402Y-3163540D01*
X3086905Y-3162848D01*
X3086981Y-3162752D01*
X3101403Y-3144457D01*
X3116997Y-3124677D01*
X3117553Y-3124026D01*
X3150547Y-3088333D01*
X3151153Y-3087727D01*
X3186846Y-3054733D01*
X3187497Y-3054177D01*
X3211666Y-3035123D01*
X3214486Y-3032900D01*
X3220806Y-3030569D01*
X3227290Y-3032397D01*
X3231460Y-3037688D01*
X3232134Y-3041460D01*
X3232134Y-3055696D01*
X3230052Y-3062103D01*
X3228941Y-3063403D01*
X3145214Y-3147131D01*
X3143562Y-3148486D01*
X3142251Y-3149363D01*
X3140778Y-3151567D01*
X3136416Y-3158095D01*
X3135909Y-3160641D01*
X3134579Y-3167328D01*
X3134367Y-3168396D01*
X3134576Y-3169449D01*
X3134576Y-3169449D01*
X3134675Y-3169943D01*
X3134884Y-3172070D01*
X3134884Y-3203303D01*
X3132802Y-3209710D01*
X3130697Y-3211682D01*
X3130776Y-3211775D01*
X3130185Y-3212279D01*
X3129528Y-3212693D01*
X3120038Y-3223439D01*
X3119708Y-3224142D01*
X3119708Y-3224142D01*
X3114275Y-3235713D01*
X3114275Y-3235713D01*
X3113945Y-3236416D01*
X3113825Y-3237184D01*
X3112067Y-3248478D01*
X3111739Y-3250582D01*
X3113598Y-3264798D01*
X3119372Y-3277920D01*
X3119871Y-3278514D01*
X3119871Y-3278515D01*
X3127573Y-3287676D01*
X3128597Y-3288895D01*
X3140531Y-3296839D01*
X3141272Y-3297070D01*
X3153475Y-3300883D01*
X3153475Y-3300883D01*
X3154216Y-3301114D01*
X3161973Y-3301256D01*
X3167774Y-3301363D01*
X3167774Y-3301363D01*
X3168550Y-3301377D01*
X3182382Y-3297606D01*
X3194599Y-3290104D01*
X3199024Y-3285216D01*
X3201997Y-3281931D01*
X3204220Y-3279475D01*
X3210471Y-3266573D01*
X3212160Y-3256534D01*
X3212780Y-3252851D01*
X3212780Y-3252851D01*
X3212850Y-3252435D01*
X3212865Y-3251200D01*
X3210832Y-3237008D01*
X3204898Y-3223957D01*
X3195540Y-3213096D01*
X3192655Y-3211227D01*
X3188411Y-3205995D01*
X3187684Y-3202080D01*
X3187684Y-3183846D01*
X3189766Y-3177439D01*
X3190876Y-3176139D01*
X3213526Y-3153489D01*
X3219529Y-3150430D01*
X3226182Y-3151484D01*
X3230946Y-3156248D01*
X3232134Y-3161196D01*
X3232134Y-3214571D01*
X3232238Y-3215095D01*
X3232238Y-3215095D01*
X3232639Y-3217110D01*
X3233297Y-3220419D01*
X3233894Y-3221312D01*
X3233894Y-3221312D01*
X3237013Y-3225980D01*
X3237729Y-3227051D01*
X3238621Y-3227648D01*
X3239258Y-3228073D01*
X3244361Y-3231483D01*
X3247062Y-3232020D01*
X3249685Y-3232542D01*
X3249685Y-3232542D01*
X3250209Y-3232646D01*
X3320384Y-3232646D01*
X3326791Y-3234728D01*
X3328091Y-3235838D01*
X3365619Y-3273366D01*
X3366974Y-3275018D01*
X3367851Y-3276329D01*
X3370055Y-3277802D01*
X3376583Y-3282164D01*
X3386884Y-3284213D01*
X3387937Y-3284004D01*
X3387937Y-3284004D01*
X3388431Y-3283905D01*
X3390558Y-3283696D01*
X3513210Y-3283696D01*
X3515336Y-3283905D01*
X3515831Y-3284004D01*
X3515831Y-3284004D01*
X3516884Y-3284213D01*
X3517937Y-3284004D01*
X3518431Y-3283905D01*
X3519484Y-3283696D01*
X3526132Y-3282374D01*
X3526132Y-3282374D01*
X3527185Y-3282164D01*
X3527534Y-3281931D01*
X3650914Y-3281931D01*
X3652773Y-3296147D01*
X3658547Y-3309269D01*
X3659047Y-3309863D01*
X3659047Y-3309863D01*
X3666711Y-3318981D01*
X3667772Y-3320244D01*
X3679707Y-3328188D01*
X3680448Y-3328419D01*
X3692650Y-3332232D01*
X3692650Y-3332232D01*
X3693391Y-3332463D01*
X3701149Y-3332605D01*
X3706949Y-3332712D01*
X3706949Y-3332712D01*
X3707725Y-3332726D01*
X3721557Y-3328955D01*
X3733774Y-3321453D01*
X3743395Y-3310824D01*
X3749646Y-3297922D01*
X3751456Y-3287166D01*
X3751955Y-3284200D01*
X3751955Y-3284200D01*
X3752025Y-3283784D01*
X3752040Y-3282549D01*
X3750008Y-3268357D01*
X3744074Y-3255306D01*
X3734715Y-3244445D01*
X3722685Y-3236647D01*
X3718145Y-3235290D01*
X3709693Y-3232762D01*
X3709693Y-3232762D01*
X3709022Y-3232561D01*
X3800384Y-3232561D01*
X3800408Y-3233072D01*
X3800613Y-3235236D01*
X3800895Y-3236525D01*
X3804789Y-3247613D01*
X3805543Y-3249037D01*
X3812436Y-3258368D01*
X3813576Y-3259508D01*
X3822907Y-3266401D01*
X3824331Y-3267155D01*
X3835419Y-3271049D01*
X3836708Y-3271331D01*
X3838870Y-3271536D01*
X3839384Y-3271560D01*
X3844158Y-3271560D01*
X3845554Y-3271106D01*
X3845884Y-3270652D01*
X3845884Y-3224786D01*
X3845430Y-3223390D01*
X3844976Y-3223060D01*
X3802110Y-3223060D01*
X3800714Y-3223514D01*
X3800384Y-3223968D01*
X3800384Y-3232561D01*
X3709022Y-3232561D01*
X3708949Y-3232540D01*
X3701781Y-3232496D01*
X3695390Y-3232457D01*
X3695389Y-3232457D01*
X3694613Y-3232452D01*
X3693866Y-3232665D01*
X3693866Y-3232665D01*
X3681575Y-3236178D01*
X3681574Y-3236178D01*
X3680828Y-3236392D01*
X3680171Y-3236806D01*
X3674251Y-3240542D01*
X3668703Y-3244042D01*
X3659213Y-3254788D01*
X3658883Y-3255490D01*
X3658883Y-3255491D01*
X3653450Y-3267062D01*
X3653450Y-3267062D01*
X3653120Y-3267765D01*
X3653001Y-3268533D01*
X3651199Y-3280104D01*
X3650914Y-3281931D01*
X3527534Y-3281931D01*
X3528422Y-3281337D01*
X3533713Y-3277802D01*
X3535917Y-3276329D01*
X3536794Y-3275018D01*
X3538149Y-3273366D01*
X3558354Y-3253161D01*
X3560006Y-3251806D01*
X3560425Y-3251526D01*
X3561317Y-3250929D01*
X3567152Y-3242197D01*
X3568684Y-3234496D01*
X3568684Y-3234496D01*
X3569201Y-3231896D01*
X3568893Y-3230349D01*
X3568684Y-3228223D01*
X3568684Y-3196334D01*
X3800384Y-3196334D01*
X3800838Y-3197730D01*
X3801292Y-3198060D01*
X3844158Y-3198060D01*
X3845554Y-3197606D01*
X3845884Y-3197152D01*
X3845884Y-3151286D01*
X3845430Y-3149890D01*
X3844976Y-3149560D01*
X3839382Y-3149560D01*
X3838872Y-3149584D01*
X3836707Y-3149789D01*
X3835419Y-3150071D01*
X3824331Y-3153965D01*
X3822907Y-3154719D01*
X3813576Y-3161612D01*
X3812436Y-3162752D01*
X3805543Y-3172083D01*
X3804789Y-3173507D01*
X3800895Y-3184595D01*
X3800613Y-3185884D01*
X3800408Y-3188046D01*
X3800384Y-3188560D01*
X3800384Y-3196334D01*
X3568684Y-3196334D01*
X3568684Y-3183846D01*
X3570766Y-3177439D01*
X3571876Y-3176139D01*
X3575677Y-3172338D01*
X3581679Y-3169280D01*
X3583384Y-3169146D01*
X3620859Y-3169146D01*
X3621383Y-3169042D01*
X3621383Y-3169042D01*
X3623886Y-3168544D01*
X3626707Y-3167983D01*
X3627686Y-3167328D01*
X3632446Y-3164148D01*
X3633339Y-3163551D01*
X3633936Y-3162658D01*
X3633936Y-3162658D01*
X3634821Y-3161334D01*
X3640111Y-3157163D01*
X3646843Y-3156899D01*
X3652444Y-3160641D01*
X3652947Y-3161334D01*
X3653832Y-3162658D01*
X3653832Y-3162658D01*
X3654429Y-3163551D01*
X3655321Y-3164148D01*
X3660082Y-3167328D01*
X3661061Y-3167983D01*
X3663882Y-3168544D01*
X3666385Y-3169042D01*
X3666385Y-3169042D01*
X3666909Y-3169146D01*
X3720859Y-3169146D01*
X3721383Y-3169042D01*
X3721383Y-3169042D01*
X3723886Y-3168544D01*
X3726707Y-3167983D01*
X3727686Y-3167328D01*
X3732446Y-3164148D01*
X3733339Y-3163551D01*
X3733936Y-3162658D01*
X3733936Y-3162658D01*
X3736541Y-3158760D01*
X3741831Y-3154589D01*
X3743077Y-3154238D01*
X3743232Y-3154174D01*
X3744285Y-3153964D01*
X3745716Y-3153008D01*
X3752125Y-3148726D01*
X3753017Y-3148129D01*
X3753894Y-3146818D01*
X3755249Y-3145166D01*
X3797037Y-3103378D01*
X3803039Y-3100320D01*
X3809693Y-3101374D01*
X3812301Y-3103447D01*
X3812361Y-3103379D01*
X3812940Y-3103896D01*
X3813440Y-3104491D01*
X3825374Y-3112435D01*
X3826115Y-3112666D01*
X3838317Y-3116479D01*
X3838318Y-3116479D01*
X3839058Y-3116710D01*
X3846816Y-3116852D01*
X3852617Y-3116959D01*
X3852617Y-3116959D01*
X3853393Y-3116973D01*
X3867224Y-3113202D01*
X3879442Y-3105700D01*
X3880464Y-3104571D01*
X3885048Y-3099507D01*
X3889063Y-3095071D01*
X3895314Y-3082169D01*
X3897500Y-3069173D01*
X3897622Y-3068447D01*
X3897622Y-3068447D01*
X3897692Y-3068031D01*
X3897707Y-3066796D01*
X3895675Y-3052604D01*
X3889741Y-3039553D01*
X3889234Y-3038964D01*
X3888816Y-3038311D01*
X3889045Y-3038164D01*
X3886914Y-3033083D01*
X3888458Y-3026525D01*
X3893203Y-3022389D01*
X3893283Y-3022367D01*
X3905500Y-3014866D01*
X3907985Y-3012121D01*
X3914600Y-3004813D01*
X3915121Y-3004237D01*
X3921372Y-2991335D01*
X3923115Y-2980976D01*
X3923681Y-2977612D01*
X3923681Y-2977612D01*
X3923751Y-2977197D01*
X3923766Y-2975961D01*
X3921734Y-2961770D01*
X3915800Y-2948719D01*
X3906441Y-2937858D01*
X3894411Y-2930060D01*
X3890264Y-2928820D01*
X3881419Y-2926175D01*
X3881419Y-2926175D01*
X3880675Y-2925952D01*
X3873507Y-2925908D01*
X3867116Y-2925869D01*
X3867115Y-2925869D01*
X3866339Y-2925865D01*
X3865592Y-2926078D01*
X3865592Y-2926078D01*
X3853301Y-2929591D01*
X3853300Y-2929591D01*
X3852554Y-2929804D01*
X3851897Y-2930219D01*
X3843880Y-2935277D01*
X3840429Y-2937454D01*
X3837434Y-2940845D01*
X3831633Y-2944269D01*
X3824927Y-2943630D01*
X3819878Y-2939170D01*
X3819342Y-2938141D01*
X3816904Y-2932778D01*
X3813482Y-2925253D01*
X3810270Y-2921525D01*
X3807665Y-2915313D01*
X3809209Y-2908755D01*
X3814312Y-2904358D01*
X3818527Y-2903510D01*
X4274711Y-2903510D01*
X4281118Y-2905592D01*
G37*
G04 #@! TD.AperFunction*
G04 #@! TA.AperFunction,Conductor*
G36*
X4582656Y-3908981D02*
G01*
X4583956Y-3910091D01*
X4598933Y-3925068D01*
X4602032Y-3931353D01*
X4602487Y-3934809D01*
X4602839Y-3935564D01*
X4602839Y-3935564D01*
X4604596Y-3939331D01*
X4607562Y-3945692D01*
X4608236Y-3946366D01*
X4608238Y-3946368D01*
X4610207Y-3952811D01*
X4608014Y-3959180D01*
X4605785Y-3961388D01*
X4605076Y-3961911D01*
X4603936Y-3963052D01*
X4597043Y-3972383D01*
X4596289Y-3973807D01*
X4592395Y-3984895D01*
X4592113Y-3986184D01*
X4591908Y-3988346D01*
X4591884Y-3988860D01*
X4591884Y-3993634D01*
X4592338Y-3995030D01*
X4592792Y-3995360D01*
X4756084Y-3995360D01*
X4762491Y-3997442D01*
X4766451Y-4002892D01*
X4766984Y-4006260D01*
X4766984Y-4064134D01*
X4767438Y-4065530D01*
X4767892Y-4065860D01*
X4776486Y-4065860D01*
X4776996Y-4065836D01*
X4779161Y-4065631D01*
X4780449Y-4065349D01*
X4791537Y-4061455D01*
X4792961Y-4060701D01*
X4802292Y-4053808D01*
X4803432Y-4052669D01*
X4810118Y-4043617D01*
X4815599Y-4039700D01*
X4822497Y-4039809D01*
X4822895Y-4039948D01*
X4824184Y-4040231D01*
X4826346Y-4040436D01*
X4826860Y-4040460D01*
X4834634Y-4040460D01*
X4836030Y-4040006D01*
X4836360Y-4039552D01*
X4836360Y-3980860D01*
X4838442Y-3974453D01*
X4843892Y-3970493D01*
X4847260Y-3969960D01*
X4850460Y-3969960D01*
X4856867Y-3972042D01*
X4860827Y-3977492D01*
X4861360Y-3980860D01*
X4861360Y-4038734D01*
X4861814Y-4040130D01*
X4862268Y-4040460D01*
X4870862Y-4040460D01*
X4871372Y-4040436D01*
X4873537Y-4040231D01*
X4874825Y-4039949D01*
X4880068Y-4038107D01*
X4886803Y-4037948D01*
X4892345Y-4041779D01*
X4894580Y-4048391D01*
X4894580Y-4120896D01*
X4926695Y-4120896D01*
X4931301Y-4121917D01*
X4940471Y-4126193D01*
X4941298Y-4126302D01*
X4941298Y-4126302D01*
X4945077Y-4126799D01*
X4945077Y-4126799D01*
X4945430Y-4126846D01*
X4963415Y-4126846D01*
X4981410Y-4126846D01*
X4986369Y-4126193D01*
X4995539Y-4121917D01*
X5000145Y-4120896D01*
X5006248Y-4120896D01*
X5012655Y-4122978D01*
X5013956Y-4124088D01*
X5014612Y-4124744D01*
X5023943Y-4131637D01*
X5025367Y-4132391D01*
X5036455Y-4136285D01*
X5037744Y-4136567D01*
X5039906Y-4136772D01*
X5040420Y-4136796D01*
X5045194Y-4136796D01*
X5046590Y-4136342D01*
X5046920Y-4135888D01*
X5046920Y-4131796D01*
X5049002Y-4125389D01*
X5054452Y-4121429D01*
X5057820Y-4120896D01*
X5061020Y-4120896D01*
X5067427Y-4122978D01*
X5071387Y-4128428D01*
X5071920Y-4131796D01*
X5071920Y-4135070D01*
X5072374Y-4136466D01*
X5072828Y-4136796D01*
X5078422Y-4136796D01*
X5078932Y-4136772D01*
X5081097Y-4136567D01*
X5082385Y-4136285D01*
X5093473Y-4132391D01*
X5094897Y-4131637D01*
X5100194Y-4127724D01*
X5106584Y-4125592D01*
X5113146Y-4127724D01*
X5118444Y-4131637D01*
X5119867Y-4132391D01*
X5130955Y-4136285D01*
X5132244Y-4136567D01*
X5134406Y-4136772D01*
X5134920Y-4136796D01*
X5139694Y-4136796D01*
X5141090Y-4136342D01*
X5141420Y-4135888D01*
X5141420Y-4131796D01*
X5143502Y-4125389D01*
X5148952Y-4121429D01*
X5152320Y-4120896D01*
X5155520Y-4120896D01*
X5161927Y-4122978D01*
X5165887Y-4128428D01*
X5166420Y-4131796D01*
X5166420Y-4135070D01*
X5166874Y-4136466D01*
X5167328Y-4136796D01*
X5172922Y-4136796D01*
X5173432Y-4136772D01*
X5175597Y-4136567D01*
X5176885Y-4136285D01*
X5187973Y-4132391D01*
X5189397Y-4131637D01*
X5198728Y-4124744D01*
X5199384Y-4124088D01*
X5205387Y-4121030D01*
X5207092Y-4120896D01*
X5213195Y-4120896D01*
X5217801Y-4121917D01*
X5226971Y-4126193D01*
X5227798Y-4126302D01*
X5227798Y-4126302D01*
X5231577Y-4126799D01*
X5231577Y-4126799D01*
X5231930Y-4126846D01*
X5238997Y-4126846D01*
X5245404Y-4128928D01*
X5249364Y-4134378D01*
X5249763Y-4139451D01*
X5249043Y-4143998D01*
X5249177Y-4144845D01*
X5250121Y-4150805D01*
X5249067Y-4157458D01*
X5244304Y-4162222D01*
X5239355Y-4163410D01*
X4411755Y-4163410D01*
X4405348Y-4161328D01*
X4401389Y-4155878D01*
X4401389Y-4149142D01*
X4405348Y-4143692D01*
X4406052Y-4143221D01*
X4406429Y-4142990D01*
X4413799Y-4138464D01*
X4415516Y-4136567D01*
X4422899Y-4128411D01*
X4423420Y-4127835D01*
X4429671Y-4114933D01*
X4430284Y-4111289D01*
X4433326Y-4105390D01*
X4484602Y-4054113D01*
X4486254Y-4052757D01*
X4486673Y-4052477D01*
X4487566Y-4051881D01*
X4493401Y-4043148D01*
X4494932Y-4035448D01*
X4494932Y-4035447D01*
X4495449Y-4032848D01*
X4495142Y-4031301D01*
X4494932Y-4029174D01*
X4494932Y-4026861D01*
X4591884Y-4026861D01*
X4591908Y-4027372D01*
X4592113Y-4029536D01*
X4592395Y-4030825D01*
X4596289Y-4041913D01*
X4597043Y-4043337D01*
X4603936Y-4052668D01*
X4605076Y-4053808D01*
X4614407Y-4060701D01*
X4615831Y-4061455D01*
X4626919Y-4065349D01*
X4628208Y-4065631D01*
X4630370Y-4065836D01*
X4630884Y-4065860D01*
X4638658Y-4065860D01*
X4640054Y-4065406D01*
X4640384Y-4064952D01*
X4640384Y-4064134D01*
X4665384Y-4064134D01*
X4665838Y-4065530D01*
X4666292Y-4065860D01*
X4674886Y-4065860D01*
X4675396Y-4065836D01*
X4677561Y-4065631D01*
X4678849Y-4065349D01*
X4689937Y-4061455D01*
X4691361Y-4060701D01*
X4697208Y-4056382D01*
X4703598Y-4054250D01*
X4710160Y-4056382D01*
X4716007Y-4060701D01*
X4717431Y-4061455D01*
X4728519Y-4065349D01*
X4729808Y-4065631D01*
X4731970Y-4065836D01*
X4732484Y-4065860D01*
X4740258Y-4065860D01*
X4741654Y-4065406D01*
X4741984Y-4064952D01*
X4741984Y-4022086D01*
X4741530Y-4020690D01*
X4741076Y-4020360D01*
X4667110Y-4020360D01*
X4665714Y-4020814D01*
X4665384Y-4021268D01*
X4665384Y-4064134D01*
X4640384Y-4064134D01*
X4640384Y-4022086D01*
X4639930Y-4020690D01*
X4639476Y-4020360D01*
X4593610Y-4020360D01*
X4592214Y-4020814D01*
X4591884Y-4021268D01*
X4591884Y-4026861D01*
X4494932Y-4026861D01*
X4494932Y-3994615D01*
X4495142Y-3992489D01*
X4495240Y-3991994D01*
X4495240Y-3991994D01*
X4495450Y-3990942D01*
X4495240Y-3989889D01*
X4495240Y-3989359D01*
X4497322Y-3982952D01*
X4502772Y-3978992D01*
X4504434Y-3978593D01*
X4512273Y-3977352D01*
X4522024Y-3972383D01*
X4523518Y-3971622D01*
X4523518Y-3971622D01*
X4524282Y-3971233D01*
X4533813Y-3961702D01*
X4534350Y-3960647D01*
X4536453Y-3956519D01*
X4539932Y-3949693D01*
X4540066Y-3948845D01*
X4540066Y-3948845D01*
X4541906Y-3937227D01*
X4542040Y-3936380D01*
X4541859Y-3935235D01*
X4540066Y-3923915D01*
X4540066Y-3923915D01*
X4539932Y-3923067D01*
X4539542Y-3922303D01*
X4539277Y-3921487D01*
X4539555Y-3921397D01*
X4538715Y-3916092D01*
X4541774Y-3910090D01*
X4547777Y-3907033D01*
X4549481Y-3906899D01*
X4576249Y-3906899D01*
X4582656Y-3908981D01*
G37*
G04 #@! TD.AperFunction*
G04 #@! TA.AperFunction,Conductor*
G36*
X6740980Y-2922249D02*
G01*
X6764731Y-2928528D01*
X6765500Y-2928762D01*
X6784291Y-2935248D01*
X6805217Y-2942470D01*
X6805967Y-2942760D01*
X6844564Y-2959361D01*
X6845290Y-2959705D01*
X6882558Y-2979109D01*
X6883257Y-2979506D01*
X6902382Y-2991335D01*
X6918991Y-3001607D01*
X6919659Y-3002055D01*
X6929276Y-3009034D01*
X6953665Y-3026731D01*
X6954297Y-3027227D01*
X6986095Y-3054096D01*
X6986390Y-3054345D01*
X6986983Y-3054886D01*
X7016989Y-3084299D01*
X7017541Y-3084883D01*
X7045294Y-3116429D01*
X7045802Y-3117053D01*
X7067136Y-3145253D01*
X7069211Y-3150139D01*
X7075905Y-3192803D01*
X7076098Y-3194034D01*
X7076230Y-3195724D01*
X7076230Y-3877641D01*
X7076059Y-3879566D01*
X7070328Y-3911495D01*
X7069388Y-3916731D01*
X7067353Y-3921381D01*
X7057204Y-3934796D01*
X7048450Y-3946368D01*
X7045802Y-3949868D01*
X7045293Y-3950491D01*
X7017541Y-3982037D01*
X7016989Y-3982620D01*
X6986983Y-4012034D01*
X6986390Y-4012574D01*
X6954384Y-4039620D01*
X6954298Y-4039693D01*
X6953665Y-4040189D01*
X6935203Y-4053586D01*
X6919659Y-4064865D01*
X6918991Y-4065313D01*
X6905856Y-4073436D01*
X6902460Y-4075537D01*
X6897723Y-4078466D01*
X6891179Y-4080066D01*
X6884945Y-4077514D01*
X6881402Y-4071784D01*
X6881090Y-4069196D01*
X6881090Y-4000400D01*
X6881059Y-4000110D01*
X6881059Y-4000109D01*
X6880984Y-3999415D01*
X6882369Y-3992823D01*
X6887364Y-3988303D01*
X6891822Y-3987350D01*
X6902663Y-3987350D01*
X6902919Y-3987326D01*
X6902920Y-3987326D01*
X6903987Y-3987225D01*
X6905817Y-3987052D01*
X6906934Y-3986660D01*
X6917830Y-3982833D01*
X6917830Y-3982833D01*
X6918598Y-3982563D01*
X6919311Y-3982037D01*
X6928839Y-3974999D01*
X6929495Y-3974515D01*
X6937543Y-3963618D01*
X6940483Y-3955247D01*
X6941812Y-3951464D01*
X6941812Y-3951464D01*
X6942032Y-3950837D01*
X6942330Y-3947683D01*
X6942330Y-3861917D01*
X6942283Y-3861418D01*
X6942170Y-3860223D01*
X6942032Y-3858763D01*
X6941802Y-3858108D01*
X6937813Y-3846750D01*
X6937543Y-3845982D01*
X6937045Y-3845306D01*
X6929979Y-3835741D01*
X6929495Y-3835085D01*
X6918598Y-3827037D01*
X6911812Y-3824653D01*
X6906444Y-3822768D01*
X6906444Y-3822768D01*
X6905817Y-3822548D01*
X6903987Y-3822375D01*
X6902920Y-3822274D01*
X6902919Y-3822274D01*
X6902663Y-3822250D01*
X6780859Y-3822250D01*
X6774452Y-3820168D01*
X6774176Y-3819953D01*
X6773616Y-3819285D01*
X6772790Y-3818808D01*
X6772790Y-3818808D01*
X6770501Y-3817487D01*
X6770265Y-3817350D01*
X6769464Y-3816840D01*
X6766294Y-3814621D01*
X6765373Y-3814374D01*
X6764915Y-3814160D01*
X6764440Y-3813987D01*
X6763614Y-3813510D01*
X6760004Y-3812874D01*
X6759804Y-3812838D01*
X6758876Y-3812633D01*
X6756060Y-3811878D01*
X6756059Y-3811878D01*
X6755138Y-3811631D01*
X6754189Y-3811714D01*
X6754188Y-3811714D01*
X6751285Y-3811968D01*
X6750334Y-3812010D01*
X6707022Y-3812010D01*
X6700615Y-3809928D01*
X6700313Y-3809512D01*
X6697212Y-3807260D01*
X6456520Y-3807260D01*
X6450113Y-3805178D01*
X6446153Y-3799728D01*
X6445620Y-3796360D01*
X6445620Y-3758986D01*
X6445166Y-3757590D01*
X6444712Y-3757260D01*
X6399846Y-3757260D01*
X6398450Y-3757714D01*
X6398120Y-3758168D01*
X6398120Y-3759315D01*
X6398167Y-3760026D01*
X6398610Y-3763396D01*
X6399072Y-3764979D01*
X6399153Y-3765153D01*
X6399175Y-3765334D01*
X6399305Y-3765779D01*
X6399232Y-3765800D01*
X6399974Y-3771840D01*
X6399153Y-3774366D01*
X6399072Y-3774541D01*
X6398610Y-3776124D01*
X6398166Y-3779494D01*
X6398120Y-3780205D01*
X6398120Y-3780551D01*
X6396038Y-3786958D01*
X6390588Y-3790918D01*
X6383852Y-3790918D01*
X6380744Y-3789319D01*
X6379860Y-3788666D01*
X6378436Y-3787912D01*
X6367490Y-3784068D01*
X6366202Y-3783785D01*
X6364074Y-3783584D01*
X6363560Y-3783560D01*
X6359346Y-3783560D01*
X6357950Y-3784014D01*
X6357620Y-3784468D01*
X6357620Y-3847160D01*
X6355538Y-3853567D01*
X6350088Y-3857526D01*
X6346720Y-3858060D01*
X6343520Y-3858060D01*
X6337113Y-3855978D01*
X6333153Y-3850528D01*
X6332620Y-3847160D01*
X6332620Y-3785286D01*
X6332166Y-3783890D01*
X6331712Y-3783560D01*
X6326680Y-3783560D01*
X6326166Y-3783584D01*
X6324038Y-3783785D01*
X6322750Y-3784068D01*
X6311804Y-3787912D01*
X6310380Y-3788666D01*
X6301169Y-3795469D01*
X6300029Y-3796609D01*
X6296330Y-3801617D01*
X6290849Y-3805534D01*
X6284113Y-3805481D01*
X6279855Y-3802848D01*
X6276160Y-3799153D01*
X6265437Y-3794153D01*
X6264611Y-3794044D01*
X6264610Y-3794044D01*
X6260905Y-3793556D01*
X6260905Y-3793556D01*
X6260552Y-3793510D01*
X6225688Y-3793510D01*
X6225335Y-3793556D01*
X6225335Y-3793556D01*
X6221630Y-3794044D01*
X6221629Y-3794044D01*
X6220803Y-3794153D01*
X6210080Y-3799153D01*
X6201713Y-3807520D01*
X6196713Y-3818243D01*
X6196604Y-3819069D01*
X6196604Y-3819070D01*
X6196146Y-3822548D01*
X6196070Y-3823128D01*
X6196070Y-3867992D01*
X6196116Y-3868345D01*
X6196116Y-3868345D01*
X6196477Y-3871081D01*
X6196713Y-3872877D01*
X6201713Y-3883600D01*
X6210080Y-3891966D01*
X6209829Y-3892217D01*
X6212880Y-3896267D01*
X6212997Y-3903002D01*
X6209133Y-3908520D01*
X6204896Y-3910254D01*
X6204930Y-3910371D01*
X6204130Y-3910604D01*
X6203303Y-3910713D01*
X6192580Y-3915713D01*
X6184213Y-3924080D01*
X6183811Y-3924944D01*
X6183810Y-3924944D01*
X6183442Y-3925735D01*
X6178847Y-3930661D01*
X6172234Y-3931947D01*
X6168614Y-3930840D01*
X6168534Y-3930799D01*
X6167231Y-3930135D01*
X6160877Y-3926898D01*
X6160877Y-3926897D01*
X6160113Y-3926508D01*
X6159265Y-3926374D01*
X6159265Y-3926374D01*
X6147647Y-3924534D01*
X6146800Y-3924400D01*
X6145953Y-3924534D01*
X6134335Y-3926374D01*
X6134335Y-3926374D01*
X6133487Y-3926508D01*
X6121478Y-3932627D01*
X6121351Y-3932378D01*
X6116208Y-3934048D01*
X6109957Y-3932077D01*
X6109314Y-3931628D01*
X6108640Y-3930953D01*
X6107716Y-3930523D01*
X6102486Y-3928084D01*
X6097917Y-3925953D01*
X6097091Y-3925844D01*
X6097090Y-3925844D01*
X6093385Y-3925356D01*
X6093385Y-3925356D01*
X6093032Y-3925310D01*
X6048168Y-3925310D01*
X6047815Y-3925356D01*
X6047815Y-3925356D01*
X6044110Y-3925844D01*
X6044109Y-3925844D01*
X6043283Y-3925953D01*
X6032560Y-3930953D01*
X6031776Y-3931737D01*
X6031603Y-3931825D01*
X6031104Y-3932175D01*
X6031055Y-3932105D01*
X6025773Y-3934796D01*
X6024068Y-3934930D01*
X6016762Y-3934930D01*
X6010981Y-3933107D01*
X6010912Y-3933038D01*
X6000029Y-3927963D01*
X5999202Y-3927854D01*
X5999202Y-3927854D01*
X5995423Y-3927356D01*
X5995423Y-3927356D01*
X5995070Y-3927310D01*
X5974086Y-3927310D01*
X5953090Y-3927310D01*
X5948131Y-3927963D01*
X5947376Y-3928315D01*
X5947375Y-3928315D01*
X5944084Y-3929850D01*
X5937248Y-3933038D01*
X5937179Y-3933107D01*
X5931398Y-3934930D01*
X5931023Y-3934930D01*
X5924616Y-3932848D01*
X5922104Y-3930292D01*
X5921706Y-3929440D01*
X5916561Y-3924294D01*
X5913503Y-3918292D01*
X5914557Y-3911638D01*
X5919465Y-3906803D01*
X5924772Y-3904197D01*
X5932957Y-3895998D01*
X5938045Y-3885589D01*
X5938461Y-3882736D01*
X5938977Y-3879200D01*
X5938977Y-3879199D01*
X5939034Y-3878809D01*
X5939034Y-3870912D01*
X5941116Y-3864505D01*
X5946566Y-3860546D01*
X5950134Y-3860014D01*
X5960758Y-3860209D01*
X5960758Y-3860209D01*
X5961534Y-3860223D01*
X5975366Y-3856452D01*
X5987583Y-3848950D01*
X5997204Y-3838321D01*
X6003455Y-3825419D01*
X6005115Y-3815550D01*
X6005764Y-3811697D01*
X6005764Y-3811697D01*
X6005834Y-3811281D01*
X6005849Y-3810046D01*
X6005561Y-3808041D01*
X6004964Y-3803871D01*
X6006117Y-3797234D01*
X6008047Y-3794618D01*
X6039273Y-3763392D01*
X6045275Y-3760334D01*
X6046980Y-3760200D01*
X6249258Y-3760200D01*
X6251385Y-3760409D01*
X6251880Y-3760508D01*
X6251880Y-3760508D01*
X6252932Y-3760717D01*
X6253985Y-3760508D01*
X6254480Y-3760409D01*
X6255533Y-3760200D01*
X6263233Y-3758668D01*
X6271966Y-3752833D01*
X6272842Y-3751522D01*
X6274198Y-3749870D01*
X6291265Y-3732802D01*
X6297267Y-3729744D01*
X6298973Y-3729610D01*
X6371836Y-3729610D01*
X6373962Y-3729819D01*
X6374457Y-3729918D01*
X6374457Y-3729918D01*
X6375510Y-3730127D01*
X6376563Y-3729918D01*
X6377057Y-3729819D01*
X6378110Y-3729610D01*
X6382655Y-3728706D01*
X6385428Y-3728154D01*
X6385428Y-3728154D01*
X6385811Y-3728078D01*
X6385820Y-3728124D01*
X6391714Y-3727660D01*
X6395578Y-3730028D01*
X6395708Y-3729849D01*
X6399028Y-3732260D01*
X6516394Y-3732260D01*
X6517790Y-3731806D01*
X6518120Y-3731352D01*
X6518120Y-3730205D01*
X6518073Y-3729494D01*
X6517630Y-3726124D01*
X6517168Y-3724541D01*
X6513266Y-3716173D01*
X6512189Y-3714635D01*
X6511362Y-3713808D01*
X6508304Y-3707806D01*
X6508170Y-3706101D01*
X6508170Y-3683632D01*
X6510252Y-3677225D01*
X6515057Y-3673498D01*
X6515903Y-3673162D01*
X6517187Y-3672439D01*
X6527460Y-3664642D01*
X6528502Y-3663600D01*
X6536299Y-3653327D01*
X6537022Y-3652044D01*
X6540688Y-3642786D01*
X6544982Y-3637596D01*
X6551506Y-3635920D01*
X6557770Y-3638400D01*
X6560534Y-3641850D01*
X6565337Y-3651277D01*
X6565338Y-3651278D01*
X6565727Y-3652042D01*
X6566333Y-3652648D01*
X6566535Y-3652925D01*
X6568616Y-3659332D01*
X6566534Y-3665739D01*
X6565424Y-3667039D01*
X6564906Y-3667557D01*
X6564013Y-3668153D01*
X6559306Y-3675199D01*
X6559096Y-3676252D01*
X6559096Y-3676252D01*
X6558748Y-3678005D01*
X6558070Y-3681412D01*
X6558070Y-3708108D01*
X6558314Y-3709335D01*
X6558847Y-3712014D01*
X6559306Y-3714321D01*
X6559902Y-3715213D01*
X6560058Y-3715589D01*
X6560586Y-3722304D01*
X6560058Y-3723931D01*
X6559902Y-3724307D01*
X6559306Y-3725199D01*
X6559096Y-3726252D01*
X6559096Y-3726252D01*
X6558665Y-3728421D01*
X6558070Y-3731412D01*
X6558070Y-3741360D01*
X6555988Y-3747767D01*
X6550538Y-3751727D01*
X6547170Y-3752260D01*
X6536065Y-3752260D01*
X6535354Y-3752307D01*
X6531984Y-3752750D01*
X6530401Y-3753212D01*
X6523610Y-3756379D01*
X6518120Y-3757150D01*
X6518120Y-3757260D01*
X6517337Y-3757260D01*
X6517297Y-3757266D01*
X6517262Y-3757260D01*
X6472346Y-3757260D01*
X6470950Y-3757714D01*
X6470620Y-3758168D01*
X6470620Y-3780534D01*
X6471074Y-3781930D01*
X6471528Y-3782260D01*
X6696394Y-3782260D01*
X6698022Y-3781731D01*
X6703097Y-3778043D01*
X6706465Y-3777510D01*
X6755414Y-3777510D01*
X6756365Y-3777551D01*
X6759268Y-3777806D01*
X6759269Y-3777806D01*
X6760218Y-3777889D01*
X6761139Y-3777642D01*
X6761140Y-3777642D01*
X6763956Y-3776887D01*
X6764884Y-3776682D01*
X6765382Y-3776594D01*
X6768694Y-3776010D01*
X6769520Y-3775533D01*
X6769995Y-3775360D01*
X6770453Y-3775146D01*
X6771374Y-3774899D01*
X6772155Y-3774353D01*
X6772156Y-3774352D01*
X6772200Y-3774321D01*
X6772269Y-3774300D01*
X6773020Y-3773949D01*
X6773066Y-3774048D01*
X6778452Y-3772350D01*
X6902663Y-3772350D01*
X6902919Y-3772326D01*
X6902920Y-3772326D01*
X6903987Y-3772225D01*
X6905817Y-3772052D01*
X6906826Y-3771698D01*
X6917830Y-3767833D01*
X6917830Y-3767833D01*
X6918598Y-3767563D01*
X6920977Y-3765806D01*
X6928839Y-3759999D01*
X6929495Y-3759515D01*
X6935475Y-3751419D01*
X6937059Y-3749274D01*
X6937059Y-3749274D01*
X6937543Y-3748618D01*
X6942032Y-3735837D01*
X6942330Y-3732683D01*
X6942330Y-3646917D01*
X6942032Y-3643763D01*
X6941457Y-3642125D01*
X6938210Y-3632880D01*
X6937543Y-3630982D01*
X6936567Y-3629660D01*
X6930578Y-3621552D01*
X6929495Y-3620085D01*
X6921134Y-3613909D01*
X6919254Y-3612521D01*
X6919254Y-3612521D01*
X6918598Y-3612037D01*
X6910628Y-3609238D01*
X6906444Y-3607768D01*
X6906444Y-3607768D01*
X6905817Y-3607548D01*
X6903987Y-3607375D01*
X6902920Y-3607274D01*
X6902919Y-3607274D01*
X6902663Y-3607250D01*
X6855155Y-3607250D01*
X6848748Y-3605168D01*
X6844789Y-3599718D01*
X6844789Y-3592982D01*
X6847242Y-3588854D01*
X6849489Y-3586482D01*
X6849924Y-3586023D01*
X6858714Y-3570890D01*
X6860032Y-3566537D01*
X6863603Y-3554747D01*
X6863603Y-3554747D01*
X6863787Y-3554141D01*
X6863837Y-3553332D01*
X6864831Y-3537306D01*
X6864831Y-3537306D01*
X6864870Y-3536674D01*
X6861907Y-3519426D01*
X6858800Y-3512126D01*
X6855303Y-3503905D01*
X6855302Y-3503905D01*
X6855055Y-3503323D01*
X6844682Y-3489228D01*
X6836843Y-3482568D01*
X6833308Y-3476834D01*
X6833819Y-3470116D01*
X6836193Y-3466554D01*
X6838655Y-3464092D01*
X6844658Y-3461033D01*
X6851311Y-3462087D01*
X6855130Y-3465323D01*
X6858829Y-3470331D01*
X6859969Y-3471471D01*
X6869180Y-3478274D01*
X6870604Y-3479028D01*
X6881550Y-3482872D01*
X6882838Y-3483155D01*
X6884966Y-3483356D01*
X6885480Y-3483380D01*
X6889694Y-3483380D01*
X6891090Y-3482926D01*
X6891420Y-3482472D01*
X6891420Y-3481654D01*
X6916420Y-3481654D01*
X6916874Y-3483050D01*
X6917328Y-3483380D01*
X6922360Y-3483380D01*
X6922874Y-3483356D01*
X6925002Y-3483155D01*
X6926290Y-3482872D01*
X6937236Y-3479028D01*
X6938660Y-3478274D01*
X6947871Y-3471471D01*
X6949011Y-3470331D01*
X6955814Y-3461120D01*
X6956568Y-3459696D01*
X6960412Y-3448750D01*
X6960695Y-3447462D01*
X6960896Y-3445334D01*
X6960920Y-3444820D01*
X6960920Y-3435606D01*
X6960466Y-3434210D01*
X6960012Y-3433880D01*
X6918146Y-3433880D01*
X6916750Y-3434334D01*
X6916420Y-3434788D01*
X6916420Y-3481654D01*
X6891420Y-3481654D01*
X6891420Y-3386786D01*
X6890966Y-3385390D01*
X6890373Y-3384959D01*
X6886413Y-3379509D01*
X6885880Y-3376140D01*
X6885880Y-3353654D01*
X6910880Y-3353654D01*
X6911334Y-3355050D01*
X6911927Y-3355481D01*
X6915886Y-3360931D01*
X6916420Y-3364299D01*
X6916420Y-3407154D01*
X6916874Y-3408550D01*
X6917328Y-3408880D01*
X6959194Y-3408880D01*
X6960590Y-3408426D01*
X6960920Y-3407972D01*
X6960920Y-3397940D01*
X6960896Y-3397426D01*
X6960695Y-3395298D01*
X6960412Y-3394010D01*
X6956568Y-3383064D01*
X6955814Y-3381640D01*
X6949768Y-3373455D01*
X6947636Y-3367065D01*
X6949769Y-3360503D01*
X6951221Y-3358537D01*
X6951975Y-3357113D01*
X6955869Y-3346025D01*
X6956151Y-3344736D01*
X6956356Y-3342574D01*
X6956380Y-3342060D01*
X6956380Y-3334286D01*
X6955926Y-3332890D01*
X6955472Y-3332560D01*
X6912606Y-3332560D01*
X6911210Y-3333014D01*
X6910880Y-3333468D01*
X6910880Y-3353654D01*
X6885880Y-3353654D01*
X6885880Y-3305834D01*
X6910880Y-3305834D01*
X6911334Y-3307230D01*
X6911788Y-3307560D01*
X6954654Y-3307560D01*
X6956050Y-3307106D01*
X6956380Y-3306652D01*
X6956380Y-3298058D01*
X6956356Y-3297548D01*
X6956151Y-3295383D01*
X6955869Y-3294095D01*
X6951975Y-3283007D01*
X6951221Y-3281583D01*
X6946918Y-3275757D01*
X6944786Y-3269367D01*
X6946918Y-3262805D01*
X6953274Y-3254200D01*
X6954028Y-3252776D01*
X6957872Y-3241830D01*
X6958155Y-3240542D01*
X6958356Y-3238414D01*
X6958380Y-3237900D01*
X6958380Y-3228686D01*
X6957926Y-3227290D01*
X6957472Y-3226960D01*
X6915606Y-3226960D01*
X6914210Y-3227414D01*
X6913880Y-3227868D01*
X6913880Y-3273697D01*
X6911798Y-3280104D01*
X6910880Y-3281368D01*
X6910880Y-3305834D01*
X6885880Y-3305834D01*
X6885880Y-3261823D01*
X6887962Y-3255416D01*
X6888880Y-3254152D01*
X6888880Y-3200234D01*
X6913880Y-3200234D01*
X6914334Y-3201630D01*
X6914788Y-3201960D01*
X6956654Y-3201960D01*
X6958050Y-3201506D01*
X6958380Y-3201052D01*
X6958380Y-3191020D01*
X6958356Y-3190506D01*
X6958155Y-3188378D01*
X6957872Y-3187090D01*
X6954028Y-3176144D01*
X6953274Y-3174720D01*
X6949888Y-3170136D01*
X6947756Y-3163746D01*
X6949888Y-3157184D01*
X6953274Y-3152600D01*
X6954028Y-3151176D01*
X6957872Y-3140230D01*
X6958155Y-3138942D01*
X6958356Y-3136814D01*
X6958380Y-3136300D01*
X6958380Y-3127086D01*
X6957926Y-3125690D01*
X6957472Y-3125360D01*
X6915606Y-3125360D01*
X6914210Y-3125814D01*
X6913880Y-3126268D01*
X6913880Y-3200234D01*
X6888880Y-3200234D01*
X6888880Y-3098634D01*
X6913880Y-3098634D01*
X6914334Y-3100030D01*
X6914788Y-3100360D01*
X6956654Y-3100360D01*
X6958050Y-3099906D01*
X6958380Y-3099452D01*
X6958380Y-3089420D01*
X6958356Y-3088906D01*
X6958155Y-3086778D01*
X6957872Y-3085490D01*
X6954028Y-3074544D01*
X6953274Y-3073120D01*
X6946471Y-3063909D01*
X6945331Y-3062769D01*
X6936120Y-3055966D01*
X6934696Y-3055212D01*
X6923750Y-3051368D01*
X6922462Y-3051085D01*
X6920334Y-3050884D01*
X6919820Y-3050860D01*
X6915606Y-3050860D01*
X6914210Y-3051314D01*
X6913880Y-3051768D01*
X6913880Y-3098634D01*
X6888880Y-3098634D01*
X6888880Y-3052586D01*
X6888426Y-3051190D01*
X6887972Y-3050860D01*
X6882940Y-3050860D01*
X6882426Y-3050884D01*
X6880298Y-3051085D01*
X6879010Y-3051368D01*
X6868064Y-3055212D01*
X6866640Y-3055966D01*
X6857429Y-3062769D01*
X6856289Y-3063909D01*
X6852590Y-3068917D01*
X6847109Y-3072834D01*
X6840373Y-3072781D01*
X6836115Y-3070148D01*
X6835140Y-3069173D01*
X6832081Y-3063170D01*
X6831971Y-3062180D01*
X6831967Y-3062121D01*
X6831953Y-3061918D01*
X6831930Y-3061204D01*
X6831930Y-3059783D01*
X6831846Y-3059306D01*
X6831704Y-3058132D01*
X6831704Y-3058125D01*
X6831704Y-3058125D01*
X6831672Y-3057650D01*
X6831518Y-3057020D01*
X6831335Y-3056272D01*
X6831187Y-3055572D01*
X6830800Y-3053373D01*
X6830439Y-3051326D01*
X6830160Y-3050844D01*
X6830015Y-3050186D01*
X6829966Y-3050199D01*
X6828601Y-3045104D01*
X6828543Y-3044877D01*
X6828090Y-3043030D01*
X6828090Y-3043030D01*
X6827977Y-3042568D01*
X6827857Y-3042295D01*
X6827785Y-3042058D01*
X6827242Y-3040033D01*
X6827242Y-3040032D01*
X6826995Y-3039112D01*
X6826449Y-3038331D01*
X6826448Y-3038330D01*
X6826154Y-3037910D01*
X6825107Y-3036051D01*
X6824901Y-3035582D01*
X6824901Y-3035582D01*
X6824516Y-3034709D01*
X6822406Y-3032506D01*
X6822242Y-3032323D01*
X6822070Y-3032077D01*
X6820384Y-3030392D01*
X6820220Y-3030224D01*
X6819297Y-3029260D01*
X6816576Y-3026420D01*
X6816297Y-3026282D01*
X6816140Y-3026148D01*
X6730487Y-2940494D01*
X6727428Y-2934492D01*
X6728482Y-2927838D01*
X6733246Y-2923075D01*
X6739899Y-2922021D01*
X6740980Y-2922249D01*
G37*
G04 #@! TD.AperFunction*
G04 #@! TA.AperFunction,Conductor*
G36*
X5717838Y-3670842D02*
G01*
X5721797Y-3676292D01*
X5722069Y-3677425D01*
X5722154Y-3677685D01*
X5722288Y-3678533D01*
X5728407Y-3690542D01*
X5737938Y-3700073D01*
X5738702Y-3700462D01*
X5739270Y-3700875D01*
X5743230Y-3706324D01*
X5743230Y-3713061D01*
X5741631Y-3716169D01*
X5740143Y-3718183D01*
X5739389Y-3719607D01*
X5735495Y-3730695D01*
X5735213Y-3731984D01*
X5735008Y-3734146D01*
X5734984Y-3734660D01*
X5734984Y-3742434D01*
X5735438Y-3743830D01*
X5735892Y-3744160D01*
X5794584Y-3744160D01*
X5800991Y-3746242D01*
X5804950Y-3751692D01*
X5805484Y-3755060D01*
X5805484Y-3818503D01*
X5805350Y-3820208D01*
X5804984Y-3822518D01*
X5804984Y-3859860D01*
X5802902Y-3866267D01*
X5797452Y-3870226D01*
X5794084Y-3870760D01*
X5734710Y-3870760D01*
X5733314Y-3871214D01*
X5732984Y-3871668D01*
X5732984Y-3880600D01*
X5733008Y-3881114D01*
X5733217Y-3883328D01*
X5733500Y-3884617D01*
X5737469Y-3895917D01*
X5738223Y-3897342D01*
X5745719Y-3907491D01*
X5747851Y-3913881D01*
X5745820Y-3920304D01*
X5744659Y-3921674D01*
X5736893Y-3929440D01*
X5731893Y-3940163D01*
X5731784Y-3940989D01*
X5731784Y-3940990D01*
X5731296Y-3944695D01*
X5731250Y-3945048D01*
X5731250Y-3955546D01*
X5729168Y-3961953D01*
X5728057Y-3963254D01*
X5700280Y-3991031D01*
X5694278Y-3994089D01*
X5692646Y-3994348D01*
X5687971Y-3995088D01*
X5687099Y-3995532D01*
X5686980Y-3995551D01*
X5686391Y-3995743D01*
X5686361Y-3995649D01*
X5680446Y-3996586D01*
X5674443Y-3993528D01*
X5672150Y-3989237D01*
X5671947Y-3989321D01*
X5671536Y-3988329D01*
X5671387Y-3987583D01*
X5671387Y-3987582D01*
X5671327Y-3987277D01*
X5671363Y-3987269D01*
X5670897Y-3981346D01*
X5673781Y-3976190D01*
X5676911Y-3973055D01*
X5678029Y-3971422D01*
X5681810Y-3962871D01*
X5682236Y-3961307D01*
X5682403Y-3959872D01*
X5682440Y-3959241D01*
X5682440Y-3944326D01*
X5681986Y-3942930D01*
X5681532Y-3942600D01*
X5610840Y-3942600D01*
X5604433Y-3940518D01*
X5600473Y-3935068D01*
X5599940Y-3931700D01*
X5599940Y-3928500D01*
X5602022Y-3922093D01*
X5607472Y-3918133D01*
X5610840Y-3917600D01*
X5680714Y-3917600D01*
X5682110Y-3917146D01*
X5682440Y-3916692D01*
X5682440Y-3900965D01*
X5682402Y-3900323D01*
X5682225Y-3898839D01*
X5681797Y-3897280D01*
X5678001Y-3888733D01*
X5676880Y-3887103D01*
X5673795Y-3884023D01*
X5670731Y-3878023D01*
X5671333Y-3872924D01*
X5671327Y-3872923D01*
X5671342Y-3872847D01*
X5671956Y-3869760D01*
X5672386Y-3867599D01*
X5672386Y-3867599D01*
X5672490Y-3867075D01*
X5672490Y-3844034D01*
X5732984Y-3844034D01*
X5733438Y-3845430D01*
X5733892Y-3845760D01*
X5778258Y-3845760D01*
X5779654Y-3845306D01*
X5779984Y-3844852D01*
X5779984Y-3795417D01*
X5780118Y-3793712D01*
X5780484Y-3791402D01*
X5780484Y-3770886D01*
X5780030Y-3769490D01*
X5779576Y-3769160D01*
X5736710Y-3769160D01*
X5735314Y-3769614D01*
X5734984Y-3770068D01*
X5734984Y-3778661D01*
X5735008Y-3779172D01*
X5735213Y-3781336D01*
X5735495Y-3782625D01*
X5739389Y-3793713D01*
X5740143Y-3795136D01*
X5743278Y-3799381D01*
X5745410Y-3805772D01*
X5743278Y-3812333D01*
X5738223Y-3819178D01*
X5737469Y-3820603D01*
X5733500Y-3831903D01*
X5733217Y-3833192D01*
X5733008Y-3835406D01*
X5732984Y-3835920D01*
X5732984Y-3844034D01*
X5672490Y-3844034D01*
X5672490Y-3813125D01*
X5672260Y-3811968D01*
X5671653Y-3808915D01*
X5671327Y-3807277D01*
X5670162Y-3805534D01*
X5667492Y-3801537D01*
X5666895Y-3800645D01*
X5666002Y-3800048D01*
X5666002Y-3800048D01*
X5662150Y-3797474D01*
X5657979Y-3792183D01*
X5657921Y-3784799D01*
X5660469Y-3777545D01*
X5660751Y-3776256D01*
X5660956Y-3774094D01*
X5660980Y-3773580D01*
X5660980Y-3765806D01*
X5660526Y-3764410D01*
X5660072Y-3764080D01*
X5601380Y-3764080D01*
X5594973Y-3761998D01*
X5591014Y-3756548D01*
X5590480Y-3753180D01*
X5590480Y-3749980D01*
X5592562Y-3743573D01*
X5598012Y-3739613D01*
X5601380Y-3739080D01*
X5659254Y-3739080D01*
X5660650Y-3738626D01*
X5660980Y-3738172D01*
X5660980Y-3729578D01*
X5660956Y-3729068D01*
X5660751Y-3726903D01*
X5660469Y-3725615D01*
X5656575Y-3714527D01*
X5655821Y-3713103D01*
X5650942Y-3706498D01*
X5648810Y-3700108D01*
X5649831Y-3695416D01*
X5653177Y-3688242D01*
X5654727Y-3684917D01*
X5654836Y-3684090D01*
X5655069Y-3683290D01*
X5655416Y-3683391D01*
X5657643Y-3678723D01*
X5663422Y-3675536D01*
X5665827Y-3675058D01*
X5665828Y-3675058D01*
X5666881Y-3674848D01*
X5672990Y-3670766D01*
X5673243Y-3670597D01*
X5679299Y-3668760D01*
X5711431Y-3668760D01*
X5717838Y-3670842D01*
G37*
G04 #@! TD.AperFunction*
G04 #@! TA.AperFunction,Conductor*
G36*
X6523677Y-3833173D02*
G01*
X6530401Y-3836308D01*
X6531984Y-3836770D01*
X6535354Y-3837213D01*
X6536065Y-3837260D01*
X6547170Y-3837260D01*
X6553577Y-3839342D01*
X6557536Y-3844792D01*
X6558070Y-3848160D01*
X6558070Y-3858108D01*
X6558407Y-3859805D01*
X6558893Y-3862247D01*
X6559306Y-3864321D01*
X6559902Y-3865213D01*
X6560058Y-3865589D01*
X6560586Y-3872304D01*
X6560058Y-3873931D01*
X6559902Y-3874307D01*
X6559306Y-3875199D01*
X6559096Y-3876252D01*
X6559096Y-3876252D01*
X6558935Y-3877063D01*
X6558070Y-3881412D01*
X6558070Y-3908108D01*
X6558325Y-3909390D01*
X6559027Y-3912917D01*
X6559306Y-3914321D01*
X6559902Y-3915214D01*
X6560576Y-3916222D01*
X6562404Y-3922706D01*
X6560073Y-3929026D01*
X6559220Y-3929985D01*
X6551727Y-3937478D01*
X6551338Y-3938242D01*
X6551338Y-3938242D01*
X6546534Y-3947670D01*
X6541771Y-3952433D01*
X6535117Y-3953487D01*
X6529115Y-3950429D01*
X6526688Y-3946734D01*
X6523022Y-3937476D01*
X6522299Y-3936193D01*
X6514502Y-3925920D01*
X6513460Y-3924878D01*
X6511396Y-3923312D01*
X6507551Y-3917780D01*
X6507296Y-3912503D01*
X6507468Y-3911638D01*
X6508170Y-3908108D01*
X6508170Y-3881412D01*
X6507305Y-3877063D01*
X6507144Y-3876252D01*
X6507143Y-3876252D01*
X6506934Y-3875199D01*
X6506338Y-3874307D01*
X6506182Y-3873931D01*
X6505654Y-3867215D01*
X6506182Y-3865589D01*
X6506338Y-3865213D01*
X6506934Y-3864321D01*
X6507347Y-3862247D01*
X6507832Y-3859805D01*
X6508170Y-3858108D01*
X6508170Y-3843051D01*
X6510252Y-3836644D01*
X6515702Y-3832685D01*
X6522438Y-3832685D01*
X6523677Y-3833173D01*
G37*
G04 #@! TD.AperFunction*
G04 #@! TA.AperFunction,Conductor*
G36*
X5262110Y-3734210D02*
G01*
X5266683Y-3739157D01*
X5267475Y-3741594D01*
X5267598Y-3742214D01*
X5267897Y-3743719D01*
X5268494Y-3744612D01*
X5268494Y-3744612D01*
X5270129Y-3747058D01*
X5272329Y-3750351D01*
X5273222Y-3750948D01*
X5277590Y-3753866D01*
X5278961Y-3754783D01*
X5281782Y-3755344D01*
X5284285Y-3755842D01*
X5284285Y-3755842D01*
X5284809Y-3755946D01*
X5320917Y-3755946D01*
X5327324Y-3758028D01*
X5331284Y-3763478D01*
X5331284Y-3770214D01*
X5330796Y-3771452D01*
X5329323Y-3774611D01*
X5329214Y-3775438D01*
X5329214Y-3775438D01*
X5328829Y-3778360D01*
X5328670Y-3779570D01*
X5328670Y-3815550D01*
X5329323Y-3820509D01*
X5329675Y-3821264D01*
X5329675Y-3821264D01*
X5331279Y-3824703D01*
X5334398Y-3831392D01*
X5335072Y-3832066D01*
X5335074Y-3832068D01*
X5337043Y-3838511D01*
X5334850Y-3844880D01*
X5332621Y-3847088D01*
X5331912Y-3847611D01*
X5330771Y-3848752D01*
X5326223Y-3854910D01*
X5320742Y-3858827D01*
X5315524Y-3858806D01*
X5315475Y-3859111D01*
X5313055Y-3858728D01*
X5302163Y-3857002D01*
X5295275Y-3858093D01*
X5288622Y-3857039D01*
X5283858Y-3852276D01*
X5282670Y-3847327D01*
X5282670Y-3820521D01*
X5282507Y-3819700D01*
X5281838Y-3816338D01*
X5281507Y-3814673D01*
X5280473Y-3813125D01*
X5277672Y-3808933D01*
X5277075Y-3808041D01*
X5275842Y-3807217D01*
X5271336Y-3804206D01*
X5271336Y-3804206D01*
X5270443Y-3803609D01*
X5267622Y-3803048D01*
X5265119Y-3802550D01*
X5265119Y-3802550D01*
X5264595Y-3802446D01*
X5170684Y-3802446D01*
X5164277Y-3800364D01*
X5162977Y-3799253D01*
X5138277Y-3774553D01*
X5135218Y-3768551D01*
X5136272Y-3761897D01*
X5141036Y-3757134D01*
X5145984Y-3755946D01*
X5228759Y-3755946D01*
X5229283Y-3755842D01*
X5229283Y-3755842D01*
X5231786Y-3755344D01*
X5234607Y-3754783D01*
X5235979Y-3753866D01*
X5240347Y-3750948D01*
X5241239Y-3750351D01*
X5243439Y-3747058D01*
X5245074Y-3744612D01*
X5245074Y-3744612D01*
X5245671Y-3743719D01*
X5245970Y-3742214D01*
X5246093Y-3741594D01*
X5249385Y-3735716D01*
X5255503Y-3732896D01*
X5262110Y-3734210D01*
G37*
G04 #@! TD.AperFunction*
G04 #@! TA.AperFunction,Conductor*
G36*
X4130685Y-3636692D02*
G01*
X4134644Y-3642142D01*
X4134644Y-3648878D01*
X4132269Y-3652923D01*
X4131068Y-3654218D01*
X4129910Y-3655466D01*
X4129626Y-3655760D01*
X4128263Y-3657124D01*
X4128002Y-3657504D01*
X4127698Y-3657850D01*
X4125648Y-3660061D01*
X4125275Y-3660995D01*
X4125263Y-3661026D01*
X4124127Y-3663153D01*
X4124108Y-3663181D01*
X4124108Y-3663181D01*
X4123539Y-3664011D01*
X4122950Y-3666492D01*
X4122941Y-3666531D01*
X4122460Y-3668052D01*
X4121500Y-3670458D01*
X4121438Y-3671087D01*
X4121438Y-3671587D01*
X4121202Y-3673604D01*
X4121186Y-3673923D01*
X4120954Y-3674903D01*
X4121090Y-3675900D01*
X4121090Y-3675900D01*
X4121338Y-3677727D01*
X4121438Y-3679197D01*
X4121438Y-3688360D01*
X4119356Y-3694767D01*
X4113906Y-3698726D01*
X4110538Y-3699260D01*
X4096214Y-3699260D01*
X4094818Y-3699714D01*
X4094488Y-3700168D01*
X4094488Y-3778360D01*
X4092406Y-3784767D01*
X4086956Y-3788726D01*
X4083588Y-3789260D01*
X4080388Y-3789260D01*
X4073981Y-3787178D01*
X4070021Y-3781728D01*
X4069488Y-3778360D01*
X4069488Y-3700986D01*
X4069034Y-3699590D01*
X4068580Y-3699260D01*
X4057736Y-3699260D01*
X4051329Y-3697178D01*
X4047370Y-3691728D01*
X4047370Y-3684992D01*
X4050029Y-3680652D01*
X4092879Y-3637802D01*
X4098881Y-3634744D01*
X4100586Y-3634610D01*
X4124278Y-3634610D01*
X4130685Y-3636692D01*
G37*
G04 #@! TD.AperFunction*
G04 #@! TA.AperFunction,Conductor*
G36*
X5991439Y-3488842D02*
G01*
X5995399Y-3494292D01*
X5995399Y-3501028D01*
X5992740Y-3505367D01*
X5985305Y-3512802D01*
X5980454Y-3523205D01*
X5980345Y-3524032D01*
X5980345Y-3524032D01*
X5979876Y-3527593D01*
X5979830Y-3527946D01*
X5979830Y-3585574D01*
X5980454Y-3590314D01*
X5980806Y-3591070D01*
X5980806Y-3591070D01*
X5982461Y-3594618D01*
X5985305Y-3600718D01*
X5993030Y-3608443D01*
X5996088Y-3614445D01*
X5995035Y-3621099D01*
X5991799Y-3624918D01*
X5982872Y-3631512D01*
X5981732Y-3632652D01*
X5974839Y-3641983D01*
X5974085Y-3643407D01*
X5970191Y-3654495D01*
X5969909Y-3655784D01*
X5969704Y-3657946D01*
X5969680Y-3658460D01*
X5969680Y-3666234D01*
X5970134Y-3667630D01*
X5970588Y-3667960D01*
X6029280Y-3667960D01*
X6035687Y-3670042D01*
X6039646Y-3675492D01*
X6040180Y-3678860D01*
X6040180Y-3682060D01*
X6038098Y-3688467D01*
X6032648Y-3692426D01*
X6029280Y-3692960D01*
X5971406Y-3692960D01*
X5970010Y-3693414D01*
X5969680Y-3693868D01*
X5969680Y-3702461D01*
X5969704Y-3702972D01*
X5969909Y-3705136D01*
X5970191Y-3706425D01*
X5974085Y-3717513D01*
X5974839Y-3718937D01*
X5981732Y-3728268D01*
X5983021Y-3729558D01*
X5986080Y-3735561D01*
X5985026Y-3742214D01*
X5983021Y-3744973D01*
X5971070Y-3756925D01*
X5965068Y-3759983D01*
X5962758Y-3759993D01*
X5962758Y-3760037D01*
X5948422Y-3759949D01*
X5948423Y-3759746D01*
X5942783Y-3758731D01*
X5938120Y-3753869D01*
X5937034Y-3749125D01*
X5937034Y-3735670D01*
X5936381Y-3730711D01*
X5935979Y-3729849D01*
X5932398Y-3722169D01*
X5931306Y-3719828D01*
X5922816Y-3711338D01*
X5911933Y-3706263D01*
X5911106Y-3706154D01*
X5911106Y-3706154D01*
X5907327Y-3705656D01*
X5907327Y-3705656D01*
X5906974Y-3705610D01*
X5888989Y-3705610D01*
X5870994Y-3705610D01*
X5866035Y-3706263D01*
X5865280Y-3706615D01*
X5865279Y-3706615D01*
X5860483Y-3708852D01*
X5855152Y-3711338D01*
X5854478Y-3712012D01*
X5854476Y-3712014D01*
X5848033Y-3713983D01*
X5841664Y-3711790D01*
X5839456Y-3709561D01*
X5838933Y-3708852D01*
X5837792Y-3707712D01*
X5828461Y-3700819D01*
X5827037Y-3700065D01*
X5815949Y-3696171D01*
X5814660Y-3695889D01*
X5812242Y-3695660D01*
X5806059Y-3692984D01*
X5802630Y-3687186D01*
X5803556Y-3679860D01*
X5803780Y-3679420D01*
X5804232Y-3678533D01*
X5804366Y-3677685D01*
X5804631Y-3676869D01*
X5804886Y-3676952D01*
X5807359Y-3672099D01*
X5813361Y-3669041D01*
X5819476Y-3670010D01*
X5819487Y-3669977D01*
X5819695Y-3670045D01*
X5820015Y-3670096D01*
X5820137Y-3670158D01*
X5820303Y-3670242D01*
X5820303Y-3670242D01*
X5821067Y-3670632D01*
X5821915Y-3670766D01*
X5821915Y-3670766D01*
X5833533Y-3672606D01*
X5834380Y-3672740D01*
X5835227Y-3672606D01*
X5846845Y-3670766D01*
X5846845Y-3670766D01*
X5847693Y-3670632D01*
X5857295Y-3665739D01*
X5858938Y-3664902D01*
X5858938Y-3664902D01*
X5859702Y-3664513D01*
X5869233Y-3654982D01*
X5875352Y-3642973D01*
X5875486Y-3642125D01*
X5875486Y-3642125D01*
X5877326Y-3630507D01*
X5877460Y-3629660D01*
X5877026Y-3626915D01*
X5878079Y-3620262D01*
X5882843Y-3615498D01*
X5887791Y-3614310D01*
X5912424Y-3614310D01*
X5914194Y-3614310D01*
X5918934Y-3613686D01*
X5919690Y-3613334D01*
X5919690Y-3613333D01*
X5926316Y-3610244D01*
X5929338Y-3608835D01*
X5937455Y-3600718D01*
X5942306Y-3590314D01*
X5942498Y-3588854D01*
X5942883Y-3585927D01*
X5942883Y-3585927D01*
X5942930Y-3585574D01*
X5942930Y-3527946D01*
X5942306Y-3523205D01*
X5941953Y-3522449D01*
X5938529Y-3515106D01*
X5937455Y-3512802D01*
X5930020Y-3505367D01*
X5926962Y-3499365D01*
X5928016Y-3492711D01*
X5932779Y-3487948D01*
X5937728Y-3486760D01*
X5985032Y-3486760D01*
X5991439Y-3488842D01*
G37*
G04 #@! TD.AperFunction*
G04 #@! TA.AperFunction,Conductor*
G36*
X5074352Y-3589690D02*
G01*
X5107515Y-3622853D01*
X5110573Y-3628856D01*
X5109519Y-3635509D01*
X5108870Y-3636617D01*
X5108494Y-3637180D01*
X5108494Y-3637180D01*
X5107897Y-3638073D01*
X5107358Y-3640787D01*
X5106923Y-3642973D01*
X5106734Y-3643921D01*
X5106734Y-3716696D01*
X5104652Y-3723103D01*
X5099202Y-3727062D01*
X5092466Y-3727062D01*
X5088127Y-3724403D01*
X5003158Y-3639434D01*
X5000099Y-3633432D01*
X5001153Y-3626778D01*
X5005917Y-3622015D01*
X5012570Y-3620961D01*
X5016300Y-3621552D01*
X5017147Y-3621418D01*
X5028765Y-3619578D01*
X5028765Y-3619578D01*
X5029612Y-3619443D01*
X5040474Y-3613909D01*
X5040858Y-3613714D01*
X5040858Y-3613713D01*
X5041622Y-3613324D01*
X5051152Y-3603793D01*
X5055523Y-3595215D01*
X5056933Y-3592449D01*
X5061696Y-3587686D01*
X5068350Y-3586632D01*
X5074352Y-3589690D01*
G37*
G04 #@! TD.AperFunction*
G04 #@! TA.AperFunction,Conductor*
G36*
X6158255Y-3376003D02*
G01*
X6162558Y-3381186D01*
X6163330Y-3385216D01*
X6163330Y-3405592D01*
X6163376Y-3405945D01*
X6163376Y-3405945D01*
X6163814Y-3409267D01*
X6163973Y-3410477D01*
X6168973Y-3421200D01*
X6172668Y-3424895D01*
X6175727Y-3430898D01*
X6174673Y-3437551D01*
X6171437Y-3441370D01*
X6166429Y-3445069D01*
X6165289Y-3446209D01*
X6158486Y-3455420D01*
X6157732Y-3456844D01*
X6153888Y-3467790D01*
X6153605Y-3469078D01*
X6153404Y-3471206D01*
X6153380Y-3471720D01*
X6153380Y-3475934D01*
X6153834Y-3477330D01*
X6154288Y-3477660D01*
X6216980Y-3477660D01*
X6223387Y-3479742D01*
X6227346Y-3485192D01*
X6227880Y-3488560D01*
X6227880Y-3585800D01*
X6225798Y-3592207D01*
X6220348Y-3596166D01*
X6216980Y-3596700D01*
X6213780Y-3596700D01*
X6207373Y-3594618D01*
X6203413Y-3589168D01*
X6202880Y-3585800D01*
X6202880Y-3504386D01*
X6202426Y-3502990D01*
X6201972Y-3502660D01*
X6155106Y-3502660D01*
X6153710Y-3503114D01*
X6153380Y-3503568D01*
X6153380Y-3508600D01*
X6153404Y-3509114D01*
X6153605Y-3511242D01*
X6153888Y-3512530D01*
X6157732Y-3523476D01*
X6158486Y-3524900D01*
X6163027Y-3531049D01*
X6165159Y-3537439D01*
X6163027Y-3544000D01*
X6159539Y-3548723D01*
X6158785Y-3550147D01*
X6154891Y-3561235D01*
X6154609Y-3562524D01*
X6154404Y-3564686D01*
X6154368Y-3565456D01*
X6154237Y-3565450D01*
X6152298Y-3571417D01*
X6146848Y-3575376D01*
X6140112Y-3575376D01*
X6138531Y-3574721D01*
X6138131Y-3574518D01*
X6135373Y-3572514D01*
X6089071Y-3526212D01*
X6089070Y-3526211D01*
X6086814Y-3523955D01*
X6084735Y-3522895D01*
X6083277Y-3522002D01*
X6081389Y-3520630D01*
X6079169Y-3519909D01*
X6077590Y-3519255D01*
X6075510Y-3518195D01*
X6073205Y-3517830D01*
X6071543Y-3517431D01*
X6070262Y-3517015D01*
X6069770Y-3516855D01*
X6064540Y-3512985D01*
X6064455Y-3512802D01*
X6056338Y-3504685D01*
X6055906Y-3504484D01*
X6052014Y-3499318D01*
X6051896Y-3492583D01*
X6055760Y-3487064D01*
X6057895Y-3485808D01*
X6065747Y-3482321D01*
X6067378Y-3481200D01*
X6073851Y-3474715D01*
X6074969Y-3473082D01*
X6078750Y-3464531D01*
X6079176Y-3462967D01*
X6079343Y-3461532D01*
X6079380Y-3460901D01*
X6079380Y-3394078D01*
X6081462Y-3387671D01*
X6086912Y-3383711D01*
X6093530Y-3383674D01*
X6104955Y-3387243D01*
X6104955Y-3387243D01*
X6105696Y-3387474D01*
X6113453Y-3387616D01*
X6119254Y-3387723D01*
X6119254Y-3387723D01*
X6120030Y-3387737D01*
X6133862Y-3383966D01*
X6146079Y-3376464D01*
X6146139Y-3376562D01*
X6151727Y-3374338D01*
X6158255Y-3376003D01*
G37*
G04 #@! TD.AperFunction*
G04 #@! TA.AperFunction,Conductor*
G36*
X4951833Y-3556692D02*
G01*
X4953134Y-3557802D01*
X4970605Y-3575274D01*
X4973663Y-3581276D01*
X4973810Y-3582201D01*
X4972756Y-3588854D01*
X4967993Y-3593618D01*
X4961339Y-3594672D01*
X4955337Y-3591613D01*
X4952213Y-3588490D01*
X4950858Y-3586838D01*
X4950578Y-3586419D01*
X4949981Y-3585527D01*
X4941249Y-3579692D01*
X4938324Y-3579110D01*
X4936858Y-3578818D01*
X4930980Y-3575527D01*
X4928160Y-3569409D01*
X4928084Y-3568128D01*
X4928084Y-3565510D01*
X4930166Y-3559103D01*
X4935616Y-3555143D01*
X4938984Y-3554610D01*
X4945426Y-3554610D01*
X4951833Y-3556692D01*
G37*
G04 #@! TD.AperFunction*
G04 #@! TA.AperFunction,Conductor*
G36*
X5337291Y-3408028D02*
G01*
X5341251Y-3413478D01*
X5341784Y-3416846D01*
X5341784Y-3471670D01*
X5342238Y-3473066D01*
X5342692Y-3473396D01*
X5400884Y-3473396D01*
X5407291Y-3475478D01*
X5411251Y-3480928D01*
X5411784Y-3484296D01*
X5411784Y-3487496D01*
X5409702Y-3493903D01*
X5404252Y-3497862D01*
X5400884Y-3498396D01*
X5343510Y-3498396D01*
X5342114Y-3498850D01*
X5341784Y-3499304D01*
X5341784Y-3554946D01*
X5339702Y-3561353D01*
X5334252Y-3565312D01*
X5330884Y-3565846D01*
X5168867Y-3565846D01*
X5162460Y-3563764D01*
X5161159Y-3562653D01*
X5103508Y-3505002D01*
X5100450Y-3498999D01*
X5101503Y-3492346D01*
X5106267Y-3487582D01*
X5111215Y-3486394D01*
X5207500Y-3486394D01*
X5213907Y-3488476D01*
X5215844Y-3490281D01*
X5221165Y-3496611D01*
X5222071Y-3497689D01*
X5234006Y-3505633D01*
X5234747Y-3505865D01*
X5246949Y-3509677D01*
X5246949Y-3509677D01*
X5247690Y-3509909D01*
X5255448Y-3510051D01*
X5261248Y-3510157D01*
X5261249Y-3510157D01*
X5262024Y-3510171D01*
X5275856Y-3506400D01*
X5288074Y-3498899D01*
X5297694Y-3488270D01*
X5303945Y-3475368D01*
X5305843Y-3464092D01*
X5306254Y-3461645D01*
X5306254Y-3461645D01*
X5306324Y-3461230D01*
X5306339Y-3459994D01*
X5304307Y-3445803D01*
X5298373Y-3432752D01*
X5292815Y-3426301D01*
X5290798Y-3423961D01*
X5288193Y-3417749D01*
X5289737Y-3411191D01*
X5294841Y-3406794D01*
X5299056Y-3405946D01*
X5330884Y-3405946D01*
X5337291Y-3408028D01*
G37*
G04 #@! TD.AperFunction*
G04 #@! TA.AperFunction,Conductor*
G36*
X6674625Y-3418711D02*
G01*
X6691285Y-3435371D01*
X6691928Y-3436072D01*
X6693336Y-3437750D01*
X6694414Y-3439035D01*
X6695609Y-3439725D01*
X6697764Y-3440969D01*
X6698566Y-3441480D01*
X6701736Y-3443699D01*
X6702657Y-3443946D01*
X6703115Y-3444160D01*
X6703590Y-3444333D01*
X6704416Y-3444810D01*
X6707388Y-3445334D01*
X6708226Y-3445482D01*
X6709154Y-3445687D01*
X6711970Y-3446442D01*
X6711971Y-3446442D01*
X6712892Y-3446689D01*
X6713841Y-3446606D01*
X6713841Y-3446606D01*
X6716745Y-3446351D01*
X6717695Y-3446310D01*
X6747456Y-3446310D01*
X6753863Y-3448392D01*
X6757335Y-3452603D01*
X6760340Y-3459049D01*
X6761161Y-3465735D01*
X6757895Y-3471627D01*
X6755691Y-3473159D01*
X6755587Y-3473197D01*
X6755057Y-3473544D01*
X6755057Y-3473544D01*
X6742896Y-3481517D01*
X6740951Y-3482792D01*
X6728916Y-3495497D01*
X6724431Y-3503218D01*
X6720674Y-3509687D01*
X6715656Y-3514182D01*
X6708954Y-3514868D01*
X6705216Y-3513292D01*
X6703465Y-3512128D01*
X6701845Y-3511051D01*
X6701138Y-3510822D01*
X6701138Y-3510822D01*
X6688207Y-3506620D01*
X6688207Y-3506620D01*
X6687500Y-3506391D01*
X6676957Y-3505949D01*
X6673173Y-3505790D01*
X6673173Y-3505790D01*
X6672431Y-3505759D01*
X6671708Y-3505929D01*
X6671707Y-3505929D01*
X6659461Y-3508801D01*
X6657746Y-3509203D01*
X6650340Y-3513275D01*
X6643723Y-3514537D01*
X6637628Y-3511669D01*
X6634723Y-3507091D01*
X6634066Y-3505070D01*
X6633612Y-3504740D01*
X6571920Y-3504740D01*
X6565513Y-3502658D01*
X6561553Y-3497208D01*
X6561020Y-3493840D01*
X6561020Y-3490640D01*
X6563102Y-3484233D01*
X6568552Y-3480273D01*
X6571920Y-3479740D01*
X6632794Y-3479740D01*
X6634190Y-3479286D01*
X6634520Y-3478832D01*
X6634520Y-3473238D01*
X6634496Y-3472728D01*
X6634291Y-3470563D01*
X6634009Y-3469275D01*
X6630115Y-3458187D01*
X6629361Y-3456763D01*
X6626109Y-3452360D01*
X6623977Y-3445970D01*
X6626008Y-3439547D01*
X6631427Y-3435545D01*
X6633171Y-3435118D01*
X6636785Y-3434546D01*
X6636785Y-3434546D01*
X6637633Y-3434412D01*
X6649642Y-3428293D01*
X6659173Y-3418762D01*
X6659445Y-3419034D01*
X6663543Y-3416053D01*
X6670280Y-3416050D01*
X6674625Y-3418711D01*
G37*
G04 #@! TD.AperFunction*
G04 #@! TA.AperFunction,Conductor*
G36*
X4043903Y-3464653D02*
G01*
X4044740Y-3464763D01*
X4044741Y-3464764D01*
X4045094Y-3464810D01*
X4047095Y-3464810D01*
X4067166Y-3464810D01*
X4073573Y-3466892D01*
X4074132Y-3467327D01*
X4074257Y-3467430D01*
X4074612Y-3467785D01*
X4074993Y-3468046D01*
X4075338Y-3468349D01*
X4077549Y-3470400D01*
X4078483Y-3470773D01*
X4078483Y-3470773D01*
X4078514Y-3470785D01*
X4080641Y-3471921D01*
X4081499Y-3472509D01*
X4082477Y-3472741D01*
X4082477Y-3472742D01*
X4083585Y-3473004D01*
X4089338Y-3476509D01*
X4091933Y-3482726D01*
X4090377Y-3489281D01*
X4085266Y-3493669D01*
X4081068Y-3494510D01*
X3996289Y-3494510D01*
X3989882Y-3492428D01*
X3985922Y-3486978D01*
X3985922Y-3480242D01*
X3989882Y-3474792D01*
X3992677Y-3473326D01*
X4001137Y-3470355D01*
X4002561Y-3469601D01*
X4006499Y-3466692D01*
X4012975Y-3464560D01*
X4042480Y-3464560D01*
X4043903Y-3464653D01*
G37*
G04 #@! TD.AperFunction*
G04 #@! TA.AperFunction,Conductor*
G36*
X5542372Y-3374534D02*
G01*
X5546242Y-3377839D01*
X5546644Y-3378392D01*
X5547033Y-3379156D01*
X5556564Y-3388687D01*
X5557328Y-3389076D01*
X5557328Y-3389076D01*
X5558394Y-3389620D01*
X5568573Y-3394806D01*
X5580185Y-3396645D01*
X5586187Y-3399703D01*
X5589246Y-3405706D01*
X5589380Y-3407411D01*
X5589380Y-3448596D01*
X5587298Y-3455003D01*
X5581848Y-3458962D01*
X5578480Y-3459496D01*
X5511918Y-3459496D01*
X5509792Y-3459287D01*
X5509297Y-3459188D01*
X5509297Y-3459188D01*
X5508244Y-3458979D01*
X5507191Y-3459188D01*
X5498996Y-3460818D01*
X5498996Y-3460818D01*
X5497943Y-3461028D01*
X5494470Y-3463348D01*
X5492517Y-3464653D01*
X5491415Y-3465390D01*
X5491415Y-3465390D01*
X5489211Y-3466863D01*
X5488614Y-3467755D01*
X5488335Y-3468174D01*
X5486979Y-3469826D01*
X5475392Y-3481413D01*
X5469389Y-3484471D01*
X5462736Y-3483418D01*
X5457972Y-3478654D01*
X5456784Y-3473706D01*
X5456784Y-3416846D01*
X5458866Y-3410439D01*
X5464316Y-3406479D01*
X5467684Y-3405946D01*
X5485699Y-3405946D01*
X5487825Y-3406155D01*
X5488320Y-3406254D01*
X5488320Y-3406254D01*
X5489373Y-3406463D01*
X5491973Y-3405946D01*
X5492512Y-3405839D01*
X5499674Y-3404414D01*
X5506202Y-3400052D01*
X5508406Y-3398579D01*
X5509283Y-3397268D01*
X5510638Y-3395616D01*
X5529716Y-3376538D01*
X5535718Y-3373480D01*
X5542372Y-3374534D01*
G37*
G04 #@! TD.AperFunction*
G04 #@! TA.AperFunction,Conductor*
G36*
X6281840Y-3174701D02*
G01*
X6282583Y-3174942D01*
X6283347Y-3175332D01*
X6284195Y-3175466D01*
X6284195Y-3175466D01*
X6295314Y-3177227D01*
X6296660Y-3177440D01*
X6297507Y-3177306D01*
X6298365Y-3177306D01*
X6298365Y-3177459D01*
X6304107Y-3178368D01*
X6308871Y-3183132D01*
X6309924Y-3189786D01*
X6308951Y-3192867D01*
X6304482Y-3202011D01*
X6303988Y-3203608D01*
X6303740Y-3205312D01*
X6303987Y-3206759D01*
X6304099Y-3206869D01*
X6304747Y-3207020D01*
X6378430Y-3207020D01*
X6384837Y-3209102D01*
X6388796Y-3214552D01*
X6389330Y-3217920D01*
X6389330Y-3260294D01*
X6389784Y-3261690D01*
X6390238Y-3262020D01*
X6402130Y-3262020D01*
X6408537Y-3264102D01*
X6412496Y-3269552D01*
X6413030Y-3272920D01*
X6413030Y-3306340D01*
X6410948Y-3312746D01*
X6409838Y-3314047D01*
X6394360Y-3329525D01*
X6388357Y-3332583D01*
X6381704Y-3331530D01*
X6377769Y-3329525D01*
X6376042Y-3328645D01*
X6368392Y-3327433D01*
X6366648Y-3327157D01*
X6366648Y-3327157D01*
X6366225Y-3327090D01*
X6308375Y-3327090D01*
X6307952Y-3327157D01*
X6307952Y-3327157D01*
X6306208Y-3327433D01*
X6298558Y-3328645D01*
X6286725Y-3334674D01*
X6277334Y-3344065D01*
X6276945Y-3344829D01*
X6276945Y-3344829D01*
X6275166Y-3348320D01*
X6270402Y-3353084D01*
X6263749Y-3354138D01*
X6257746Y-3351079D01*
X6253420Y-3346753D01*
X6252596Y-3346369D01*
X6248557Y-3341009D01*
X6248439Y-3334273D01*
X6252597Y-3328550D01*
X6253420Y-3328166D01*
X6261786Y-3319800D01*
X6266787Y-3309077D01*
X6266966Y-3307713D01*
X6267383Y-3304545D01*
X6267383Y-3304545D01*
X6267430Y-3304192D01*
X6267430Y-3269328D01*
X6267330Y-3268566D01*
X6266896Y-3265270D01*
X6266896Y-3265269D01*
X6266787Y-3264443D01*
X6261786Y-3253720D01*
X6253420Y-3245353D01*
X6252556Y-3244950D01*
X6252182Y-3244689D01*
X6248128Y-3239309D01*
X6248023Y-3233267D01*
X6303678Y-3233267D01*
X6304005Y-3235493D01*
X6304502Y-3237091D01*
X6309050Y-3246355D01*
X6310085Y-3247800D01*
X6317351Y-3255053D01*
X6318798Y-3256085D01*
X6328071Y-3260618D01*
X6329668Y-3261112D01*
X6335503Y-3261963D01*
X6336289Y-3262020D01*
X6362604Y-3262020D01*
X6364000Y-3261566D01*
X6364330Y-3261112D01*
X6364330Y-3233746D01*
X6363876Y-3232350D01*
X6363422Y-3232020D01*
X6305220Y-3232020D01*
X6303824Y-3232474D01*
X6303734Y-3232597D01*
X6303678Y-3233267D01*
X6248023Y-3233267D01*
X6248010Y-3232573D01*
X6252182Y-3226831D01*
X6252556Y-3226570D01*
X6253420Y-3226166D01*
X6261786Y-3217800D01*
X6266787Y-3207077D01*
X6267029Y-3205239D01*
X6267383Y-3202545D01*
X6267383Y-3202545D01*
X6267430Y-3202192D01*
X6267430Y-3185009D01*
X6269512Y-3178602D01*
X6274962Y-3174642D01*
X6281698Y-3174642D01*
X6281840Y-3174701D01*
G37*
G04 #@! TD.AperFunction*
G04 #@! TA.AperFunction,Conductor*
G36*
X6471168Y-2905592D02*
G01*
X6475127Y-2911042D01*
X6475127Y-2917778D01*
X6474628Y-2919042D01*
X6473318Y-2921831D01*
X6468711Y-2926746D01*
X6461878Y-2927985D01*
X6459788Y-2927680D01*
X6458341Y-2927927D01*
X6458231Y-2928039D01*
X6458080Y-2928687D01*
X6458080Y-3071069D01*
X6456002Y-3077470D01*
X6455965Y-3077522D01*
X6450517Y-3081485D01*
X6447143Y-3082020D01*
X6375230Y-3082020D01*
X6368823Y-3079938D01*
X6364863Y-3074488D01*
X6364330Y-3071120D01*
X6364330Y-3055294D01*
X6389330Y-3055294D01*
X6389784Y-3056690D01*
X6390238Y-3057020D01*
X6431354Y-3057020D01*
X6432750Y-3056566D01*
X6433080Y-3056112D01*
X6433080Y-3014996D01*
X6432626Y-3013600D01*
X6432172Y-3013270D01*
X6404806Y-3013270D01*
X6403410Y-3013724D01*
X6403080Y-3014178D01*
X6403080Y-3016120D01*
X6400998Y-3022527D01*
X6395548Y-3026486D01*
X6392180Y-3027020D01*
X6391056Y-3027020D01*
X6389660Y-3027474D01*
X6389330Y-3027928D01*
X6389330Y-3055294D01*
X6364330Y-3055294D01*
X6364330Y-3028746D01*
X6363876Y-3027350D01*
X6363422Y-3027020D01*
X6336292Y-3027020D01*
X6335500Y-3027078D01*
X6331309Y-3027695D01*
X6324668Y-3026568D01*
X6320010Y-3021860D01*
X6319522Y-3020902D01*
X6319522Y-3020902D01*
X6319133Y-3020138D01*
X6309602Y-3010607D01*
X6297593Y-3004488D01*
X6296745Y-3004354D01*
X6296745Y-3004354D01*
X6285127Y-3002514D01*
X6284280Y-3002380D01*
X6284056Y-3002415D01*
X6277952Y-3000432D01*
X6274258Y-2995347D01*
X6274258Y-2999228D01*
X6270298Y-3004678D01*
X6268840Y-3005572D01*
X6262560Y-3008772D01*
X6257611Y-3009960D01*
X6156106Y-3009960D01*
X6154710Y-3010414D01*
X6154380Y-3010868D01*
X6154380Y-3016461D01*
X6154404Y-3016972D01*
X6154609Y-3019136D01*
X6154891Y-3020425D01*
X6158785Y-3031513D01*
X6159539Y-3032937D01*
X6166432Y-3042268D01*
X6167572Y-3043409D01*
X6168281Y-3043932D01*
X6172197Y-3049413D01*
X6172144Y-3056149D01*
X6170734Y-3058952D01*
X6170732Y-3058954D01*
X6170058Y-3059628D01*
X6164983Y-3070511D01*
X6164874Y-3071338D01*
X6164874Y-3071338D01*
X6164376Y-3075116D01*
X6164330Y-3075470D01*
X6164330Y-3085348D01*
X6162248Y-3091755D01*
X6159247Y-3094567D01*
X6157208Y-3095853D01*
X6147718Y-3106599D01*
X6147388Y-3107302D01*
X6147388Y-3107302D01*
X6141955Y-3118873D01*
X6141955Y-3118873D01*
X6141625Y-3119576D01*
X6139419Y-3133742D01*
X6141278Y-3147958D01*
X6147052Y-3161080D01*
X6147551Y-3161674D01*
X6147551Y-3161675D01*
X6155491Y-3171120D01*
X6156277Y-3172055D01*
X6156923Y-3172485D01*
X6156923Y-3172485D01*
X6158470Y-3173514D01*
X6162650Y-3178797D01*
X6163330Y-3182588D01*
X6163330Y-3202192D01*
X6163376Y-3202545D01*
X6163376Y-3202545D01*
X6163731Y-3205239D01*
X6163973Y-3207077D01*
X6168973Y-3217800D01*
X6177340Y-3226166D01*
X6178204Y-3226570D01*
X6178577Y-3226831D01*
X6182632Y-3232211D01*
X6182749Y-3238947D01*
X6178577Y-3244689D01*
X6178204Y-3244950D01*
X6177340Y-3245353D01*
X6168973Y-3253720D01*
X6163973Y-3264443D01*
X6163864Y-3265269D01*
X6163864Y-3265270D01*
X6163430Y-3268566D01*
X6163330Y-3269328D01*
X6163330Y-3289973D01*
X6161248Y-3296380D01*
X6155798Y-3300340D01*
X6149062Y-3300340D01*
X6146502Y-3299120D01*
X6134989Y-3291658D01*
X6129793Y-3290104D01*
X6121998Y-3287773D01*
X6121998Y-3287773D01*
X6121254Y-3287551D01*
X6114086Y-3287507D01*
X6107694Y-3287468D01*
X6107694Y-3287468D01*
X6106918Y-3287463D01*
X6106171Y-3287676D01*
X6106171Y-3287676D01*
X6093879Y-3291189D01*
X6093879Y-3291189D01*
X6093133Y-3291403D01*
X6083345Y-3297579D01*
X6077529Y-3299260D01*
X5832780Y-3299260D01*
X5826373Y-3297178D01*
X5822413Y-3291728D01*
X5821880Y-3288360D01*
X5821880Y-3285160D01*
X5823962Y-3278753D01*
X5829412Y-3274793D01*
X5832780Y-3274260D01*
X6077654Y-3274260D01*
X6079050Y-3273806D01*
X6079380Y-3273352D01*
X6079380Y-3112625D01*
X6079342Y-3111983D01*
X6079165Y-3110499D01*
X6078737Y-3108940D01*
X6074941Y-3100393D01*
X6073820Y-3098762D01*
X6067335Y-3092289D01*
X6065702Y-3091171D01*
X6057906Y-3087724D01*
X6052888Y-3083230D01*
X6051470Y-3076644D01*
X6054194Y-3070483D01*
X6055735Y-3069116D01*
X6056338Y-3068835D01*
X6062229Y-3062943D01*
X6068231Y-3059885D01*
X6073382Y-3060701D01*
X6073487Y-3060377D01*
X6074303Y-3060642D01*
X6075067Y-3061032D01*
X6075915Y-3061166D01*
X6075915Y-3061166D01*
X6087533Y-3063006D01*
X6088380Y-3063140D01*
X6089227Y-3063006D01*
X6100845Y-3061166D01*
X6100845Y-3061166D01*
X6101693Y-3061032D01*
X6111033Y-3056273D01*
X6112938Y-3055302D01*
X6112938Y-3055302D01*
X6113702Y-3054913D01*
X6123233Y-3045382D01*
X6124578Y-3042742D01*
X6125943Y-3040062D01*
X6129352Y-3033373D01*
X6129486Y-3032525D01*
X6129486Y-3032525D01*
X6131326Y-3020907D01*
X6131460Y-3020060D01*
X6130638Y-3014866D01*
X6129486Y-3007595D01*
X6129486Y-3007595D01*
X6129352Y-3006747D01*
X6123233Y-2994738D01*
X6113702Y-2985207D01*
X6111569Y-2984120D01*
X6109829Y-2983234D01*
X6154380Y-2983234D01*
X6154834Y-2984630D01*
X6155288Y-2984960D01*
X6201154Y-2984960D01*
X6202550Y-2984506D01*
X6202880Y-2984052D01*
X6202880Y-2983234D01*
X6227880Y-2983234D01*
X6228334Y-2984630D01*
X6228788Y-2984960D01*
X6263892Y-2984960D01*
X6270298Y-2987042D01*
X6273993Y-2992127D01*
X6273993Y-2988245D01*
X6274860Y-2986544D01*
X6403080Y-2986544D01*
X6403534Y-2987940D01*
X6403988Y-2988270D01*
X6431354Y-2988270D01*
X6432750Y-2987816D01*
X6433080Y-2987362D01*
X6433080Y-2929160D01*
X6432626Y-2927764D01*
X6432503Y-2927674D01*
X6431833Y-2927618D01*
X6429607Y-2927945D01*
X6428009Y-2928442D01*
X6418745Y-2932990D01*
X6417300Y-2934025D01*
X6410047Y-2941291D01*
X6409015Y-2942738D01*
X6404482Y-2952011D01*
X6403988Y-2953608D01*
X6403137Y-2959443D01*
X6403080Y-2960229D01*
X6403080Y-2986544D01*
X6274860Y-2986544D01*
X6275541Y-2985207D01*
X6276380Y-2984052D01*
X6276380Y-2978458D01*
X6276356Y-2977948D01*
X6276151Y-2975783D01*
X6275869Y-2974495D01*
X6271975Y-2963407D01*
X6271221Y-2961983D01*
X6264328Y-2952652D01*
X6263188Y-2951512D01*
X6253857Y-2944619D01*
X6252433Y-2943865D01*
X6241345Y-2939971D01*
X6240056Y-2939689D01*
X6237894Y-2939484D01*
X6237380Y-2939460D01*
X6229606Y-2939460D01*
X6228210Y-2939914D01*
X6227880Y-2940368D01*
X6227880Y-2983234D01*
X6202880Y-2983234D01*
X6202880Y-2941186D01*
X6202426Y-2939790D01*
X6201972Y-2939460D01*
X6193378Y-2939460D01*
X6192868Y-2939484D01*
X6190703Y-2939689D01*
X6189415Y-2939971D01*
X6178327Y-2943865D01*
X6176903Y-2944619D01*
X6167572Y-2951512D01*
X6166432Y-2952652D01*
X6159539Y-2961983D01*
X6158785Y-2963407D01*
X6154891Y-2974495D01*
X6154609Y-2975784D01*
X6154404Y-2977946D01*
X6154380Y-2978460D01*
X6154380Y-2983234D01*
X6109829Y-2983234D01*
X6109032Y-2982828D01*
X6101693Y-2979088D01*
X6100845Y-2978954D01*
X6100845Y-2978954D01*
X6089227Y-2977114D01*
X6088380Y-2976980D01*
X6076021Y-2978937D01*
X6069368Y-2977883D01*
X6065388Y-2974423D01*
X6064858Y-2973666D01*
X6064455Y-2972802D01*
X6056338Y-2964685D01*
X6045934Y-2959834D01*
X6045108Y-2959725D01*
X6045108Y-2959725D01*
X6041547Y-2959256D01*
X6041547Y-2959256D01*
X6041194Y-2959210D01*
X6024885Y-2959210D01*
X6008566Y-2959210D01*
X6003825Y-2959834D01*
X6003070Y-2960186D01*
X6003070Y-2960186D01*
X5998322Y-2962400D01*
X5993422Y-2964685D01*
X5985305Y-2972802D01*
X5980454Y-2983205D01*
X5980345Y-2984032D01*
X5980345Y-2984032D01*
X5979876Y-2987593D01*
X5979830Y-2987946D01*
X5979830Y-3045574D01*
X5980454Y-3050314D01*
X5980806Y-3051070D01*
X5980806Y-3051070D01*
X5982184Y-3054025D01*
X5985305Y-3060718D01*
X5992740Y-3068152D01*
X5995798Y-3074155D01*
X5994744Y-3080808D01*
X5989981Y-3085572D01*
X5985032Y-3086760D01*
X5937728Y-3086760D01*
X5931321Y-3084678D01*
X5927361Y-3079228D01*
X5927361Y-3072492D01*
X5930020Y-3068152D01*
X5937455Y-3060718D01*
X5942306Y-3050314D01*
X5942489Y-3048923D01*
X5942883Y-3045927D01*
X5942884Y-3045926D01*
X5942930Y-3045574D01*
X5942930Y-2987946D01*
X5942306Y-2983205D01*
X5941953Y-2982449D01*
X5939124Y-2976383D01*
X5937455Y-2972802D01*
X5930945Y-2966292D01*
X5927887Y-2960290D01*
X5927760Y-2958994D01*
X5927740Y-2958465D01*
X5927740Y-2958465D01*
X5927703Y-2957459D01*
X5927292Y-2956503D01*
X5926591Y-2954196D01*
X5926585Y-2954164D01*
X5926401Y-2953175D01*
X5925345Y-2951462D01*
X5925042Y-2950970D01*
X5924306Y-2949553D01*
X5924209Y-2949327D01*
X5923284Y-2947174D01*
X5922882Y-2946685D01*
X5922529Y-2946331D01*
X5921269Y-2944738D01*
X5921055Y-2944502D01*
X5920527Y-2943645D01*
X5918258Y-2941920D01*
X5917148Y-2940951D01*
X5898315Y-2922117D01*
X5895256Y-2916115D01*
X5896310Y-2909461D01*
X5901074Y-2904698D01*
X5906022Y-2903510D01*
X6464761Y-2903510D01*
X6471168Y-2905592D01*
G37*
G04 #@! TD.AperFunction*
G04 #@! TA.AperFunction,Conductor*
G36*
X4988739Y-3216228D02*
G01*
X4994650Y-3220595D01*
X4996074Y-3221348D01*
X5007446Y-3225342D01*
X5008734Y-3225625D01*
X5010967Y-3225836D01*
X5011480Y-3225860D01*
X5047095Y-3225860D01*
X5053502Y-3227942D01*
X5057462Y-3233392D01*
X5057462Y-3240128D01*
X5053502Y-3245578D01*
X5050090Y-3247240D01*
X5046653Y-3248223D01*
X5045996Y-3248637D01*
X5035252Y-3255416D01*
X5034528Y-3255873D01*
X5034014Y-3256455D01*
X5034014Y-3256455D01*
X5027090Y-3264295D01*
X5021288Y-3267720D01*
X5018920Y-3267980D01*
X5006550Y-3267980D01*
X5000143Y-3265898D01*
X4998843Y-3264787D01*
X4971341Y-3237285D01*
X4968282Y-3231283D01*
X4969336Y-3224629D01*
X4970967Y-3222263D01*
X4971539Y-3221631D01*
X4972060Y-3221055D01*
X4972453Y-3220244D01*
X4972525Y-3220169D01*
X4972833Y-3219713D01*
X4972912Y-3219766D01*
X4977120Y-3215386D01*
X4983751Y-3214198D01*
X4988739Y-3216228D01*
G37*
G04 #@! TD.AperFunction*
G04 #@! TA.AperFunction,Conductor*
G36*
X6672337Y-3109102D02*
G01*
X6676296Y-3114552D01*
X6676830Y-3117920D01*
X6676830Y-3171120D01*
X6674748Y-3177527D01*
X6669298Y-3181486D01*
X6665930Y-3182020D01*
X6662730Y-3182020D01*
X6656323Y-3179938D01*
X6652363Y-3174488D01*
X6651830Y-3171120D01*
X6651830Y-3117920D01*
X6653912Y-3111513D01*
X6659362Y-3107553D01*
X6662730Y-3107020D01*
X6665930Y-3107020D01*
X6672337Y-3109102D01*
G37*
G04 #@! TD.AperFunction*
G04 #@! TA.AperFunction,Conductor*
G36*
X5790146Y-2905592D02*
G01*
X5794106Y-2911042D01*
X5794163Y-2917597D01*
X5793975Y-2918213D01*
X5793645Y-2918916D01*
X5792433Y-2926701D01*
X5791885Y-2930219D01*
X5791439Y-2933082D01*
X5791540Y-2933852D01*
X5793245Y-2946897D01*
X5792012Y-2953519D01*
X5787121Y-2958152D01*
X5782437Y-2959210D01*
X5756844Y-2959210D01*
X5754566Y-2959210D01*
X5749825Y-2959834D01*
X5749070Y-2960186D01*
X5749070Y-2960186D01*
X5744322Y-2962400D01*
X5739422Y-2964685D01*
X5731305Y-2972802D01*
X5726454Y-2983205D01*
X5726345Y-2984032D01*
X5726345Y-2984032D01*
X5725876Y-2987593D01*
X5725830Y-2987946D01*
X5725830Y-3006107D01*
X5725830Y-3019960D01*
X5723748Y-3026366D01*
X5722638Y-3027667D01*
X5716470Y-3033835D01*
X5710467Y-3036893D01*
X5703814Y-3035840D01*
X5699050Y-3031076D01*
X5698438Y-3029598D01*
X5697972Y-3029260D01*
X5590606Y-3029260D01*
X5589210Y-3029714D01*
X5588880Y-3030168D01*
X5588880Y-3044677D01*
X5588947Y-3045528D01*
X5590049Y-3052484D01*
X5588995Y-3059137D01*
X5584231Y-3063901D01*
X5579099Y-3064611D01*
X5579099Y-3065052D01*
X5578025Y-3065052D01*
X5576973Y-3064843D01*
X5575920Y-3065052D01*
X5575920Y-3065052D01*
X5574373Y-3065360D01*
X5574373Y-3065360D01*
X5574372Y-3065360D01*
X5566672Y-3066892D01*
X5557939Y-3072727D01*
X5557343Y-3073619D01*
X5557063Y-3074038D01*
X5555707Y-3075690D01*
X5538068Y-3093330D01*
X5532065Y-3096388D01*
X5525412Y-3095334D01*
X5520648Y-3090571D01*
X5519460Y-3085622D01*
X5519460Y-3084826D01*
X5519006Y-3083430D01*
X5518552Y-3083100D01*
X5399186Y-3083100D01*
X5394636Y-3084578D01*
X5394289Y-3084830D01*
X5391134Y-3085330D01*
X5390500Y-3085230D01*
X5389653Y-3085364D01*
X5378035Y-3087204D01*
X5378035Y-3087204D01*
X5377187Y-3087338D01*
X5365178Y-3093457D01*
X5355647Y-3102988D01*
X5355258Y-3103752D01*
X5355258Y-3103752D01*
X5352147Y-3109858D01*
X5347383Y-3114622D01*
X5342435Y-3115810D01*
X5240778Y-3115810D01*
X5233889Y-3116824D01*
X5223415Y-3121967D01*
X5215171Y-3130225D01*
X5214775Y-3131034D01*
X5214775Y-3131034D01*
X5213352Y-3133945D01*
X5208668Y-3138787D01*
X5202033Y-3139951D01*
X5197302Y-3138037D01*
X5196872Y-3137607D01*
X5185541Y-3131834D01*
X5180777Y-3127070D01*
X5180518Y-3126509D01*
X5180318Y-3125502D01*
X5175956Y-3118974D01*
X5174483Y-3116770D01*
X5173172Y-3115894D01*
X5171520Y-3114538D01*
X5157001Y-3100019D01*
X5153943Y-3094017D01*
X5153923Y-3090738D01*
X5154150Y-3089182D01*
X5154150Y-3055082D01*
X5156232Y-3048675D01*
X5161682Y-3044715D01*
X5168418Y-3044715D01*
X5169998Y-3045369D01*
X5170063Y-3045402D01*
X5170063Y-3045402D01*
X5170827Y-3045792D01*
X5171675Y-3045926D01*
X5171675Y-3045926D01*
X5183293Y-3047766D01*
X5184140Y-3047900D01*
X5184987Y-3047766D01*
X5196605Y-3045926D01*
X5196605Y-3045926D01*
X5197453Y-3045792D01*
X5207307Y-3040771D01*
X5208698Y-3040062D01*
X5208698Y-3040062D01*
X5209462Y-3039673D01*
X5218993Y-3030142D01*
X5219382Y-3029378D01*
X5219887Y-3028684D01*
X5220075Y-3028821D01*
X5224004Y-3024892D01*
X5230658Y-3023838D01*
X5232355Y-3024374D01*
X5232380Y-3024292D01*
X5233188Y-3024542D01*
X5233948Y-3024914D01*
X5234785Y-3025036D01*
X5234786Y-3025036D01*
X5240387Y-3025853D01*
X5240388Y-3025853D01*
X5240778Y-3025910D01*
X5349922Y-3025910D01*
X5355860Y-3025036D01*
X5355973Y-3025019D01*
X5356811Y-3024896D01*
X5367286Y-3019753D01*
X5367922Y-3019116D01*
X5367922Y-3019115D01*
X5369661Y-3017374D01*
X5375661Y-3014310D01*
X5382324Y-3015363D01*
X5384443Y-3016442D01*
X5384443Y-3016442D01*
X5385207Y-3016832D01*
X5386055Y-3016966D01*
X5386055Y-3016966D01*
X5395167Y-3018409D01*
X5401169Y-3021468D01*
X5404227Y-3027470D01*
X5403174Y-3034124D01*
X5402998Y-3034407D01*
X5401865Y-3036547D01*
X5397971Y-3047635D01*
X5397689Y-3048924D01*
X5397484Y-3051086D01*
X5397460Y-3051600D01*
X5397460Y-3056374D01*
X5397914Y-3057770D01*
X5398368Y-3058100D01*
X5517734Y-3058100D01*
X5519130Y-3057646D01*
X5519460Y-3057192D01*
X5519460Y-3051598D01*
X5519436Y-3051088D01*
X5519231Y-3048923D01*
X5518949Y-3047635D01*
X5515055Y-3036547D01*
X5514301Y-3035123D01*
X5507408Y-3025792D01*
X5506268Y-3024651D01*
X5505559Y-3024128D01*
X5501643Y-3018647D01*
X5501696Y-3011910D01*
X5503106Y-3009108D01*
X5503108Y-3009106D01*
X5503782Y-3008432D01*
X5506533Y-3002534D01*
X5588880Y-3002534D01*
X5589334Y-3003930D01*
X5589788Y-3004260D01*
X5629654Y-3004260D01*
X5631050Y-3003806D01*
X5631380Y-3003352D01*
X5631380Y-3002534D01*
X5656380Y-3002534D01*
X5656834Y-3003930D01*
X5657288Y-3004260D01*
X5697154Y-3004260D01*
X5698550Y-3003806D01*
X5698880Y-3003352D01*
X5698880Y-2988843D01*
X5698813Y-2987992D01*
X5697438Y-2979311D01*
X5696914Y-2977699D01*
X5691581Y-2967232D01*
X5690585Y-2965861D01*
X5682279Y-2957554D01*
X5680908Y-2956559D01*
X5670441Y-2951226D01*
X5668829Y-2950702D01*
X5660148Y-2949327D01*
X5659297Y-2949260D01*
X5658106Y-2949260D01*
X5656710Y-2949714D01*
X5656380Y-2950168D01*
X5656380Y-3002534D01*
X5631380Y-3002534D01*
X5631380Y-2950986D01*
X5630926Y-2949590D01*
X5630472Y-2949260D01*
X5628463Y-2949260D01*
X5627612Y-2949327D01*
X5618931Y-2950702D01*
X5617319Y-2951226D01*
X5606852Y-2956559D01*
X5605481Y-2957554D01*
X5597174Y-2965861D01*
X5596179Y-2967232D01*
X5590846Y-2977699D01*
X5590322Y-2979311D01*
X5588947Y-2987992D01*
X5588880Y-2988843D01*
X5588880Y-3002534D01*
X5506533Y-3002534D01*
X5508857Y-2997549D01*
X5509017Y-2996339D01*
X5509464Y-2992943D01*
X5509464Y-2992943D01*
X5509510Y-2992590D01*
X5509510Y-2956610D01*
X5508857Y-2951651D01*
X5508445Y-2950768D01*
X5506164Y-2945875D01*
X5503782Y-2940768D01*
X5495292Y-2932278D01*
X5484409Y-2927203D01*
X5483582Y-2927094D01*
X5483582Y-2927094D01*
X5479804Y-2926596D01*
X5479803Y-2926596D01*
X5479450Y-2926550D01*
X5458466Y-2926550D01*
X5437470Y-2926550D01*
X5432511Y-2927203D01*
X5431756Y-2927555D01*
X5431756Y-2927555D01*
X5423147Y-2931569D01*
X5421628Y-2932278D01*
X5420954Y-2932952D01*
X5420488Y-2933278D01*
X5414046Y-2935248D01*
X5411834Y-2934877D01*
X5411833Y-2934888D01*
X5399367Y-2932914D01*
X5398520Y-2932780D01*
X5397673Y-2932914D01*
X5387720Y-2934490D01*
X5385207Y-2934888D01*
X5382319Y-2936360D01*
X5375666Y-2937413D01*
X5369670Y-2934362D01*
X5369333Y-2934025D01*
X5367235Y-2931931D01*
X5356752Y-2926806D01*
X5353323Y-2926306D01*
X5350313Y-2925867D01*
X5350312Y-2925867D01*
X5349922Y-2925810D01*
X5240778Y-2925810D01*
X5235541Y-2926581D01*
X5235436Y-2926596D01*
X5233889Y-2926824D01*
X5223415Y-2931967D01*
X5222778Y-2932605D01*
X5222431Y-2932952D01*
X5215171Y-2940225D01*
X5210046Y-2950708D01*
X5209605Y-2953731D01*
X5209481Y-2954582D01*
X5206497Y-2960622D01*
X5200532Y-2963753D01*
X5196990Y-2963775D01*
X5184140Y-2961740D01*
X5183373Y-2961861D01*
X5177005Y-2959792D01*
X5175657Y-2958390D01*
X5175569Y-2958478D01*
X5174810Y-2957719D01*
X5174213Y-2956827D01*
X5165481Y-2950992D01*
X5157780Y-2949460D01*
X5157270Y-2949358D01*
X5151392Y-2946067D01*
X5149612Y-2943472D01*
X5147993Y-2940174D01*
X5146987Y-2939170D01*
X5141833Y-2934025D01*
X5139735Y-2931931D01*
X5129252Y-2926806D01*
X5125823Y-2926306D01*
X5122813Y-2925867D01*
X5122812Y-2925867D01*
X5122422Y-2925810D01*
X5013278Y-2925810D01*
X5008041Y-2926581D01*
X5007936Y-2926596D01*
X5006389Y-2926824D01*
X4995915Y-2931967D01*
X4995278Y-2932605D01*
X4994931Y-2932952D01*
X4987671Y-2940225D01*
X4986560Y-2942498D01*
X4986551Y-2942515D01*
X4981868Y-2947357D01*
X4975233Y-2948521D01*
X4969051Y-2945436D01*
X4951405Y-2927790D01*
X4950050Y-2926138D01*
X4949770Y-2925719D01*
X4949173Y-2924827D01*
X4948281Y-2924230D01*
X4948280Y-2924230D01*
X4947147Y-2923473D01*
X4942977Y-2918182D01*
X4942713Y-2911451D01*
X4946455Y-2905850D01*
X4953203Y-2903510D01*
X5783739Y-2903510D01*
X5790146Y-2905592D01*
G37*
G04 #@! TD.AperFunction*
G04 #@! TA.AperFunction,Conductor*
G36*
X4825847Y-2981399D02*
G01*
X4830105Y-2984032D01*
X4833800Y-2987726D01*
X4844523Y-2992727D01*
X4845349Y-2992836D01*
X4845350Y-2992836D01*
X4849055Y-2993323D01*
X4849055Y-2993323D01*
X4849408Y-2993370D01*
X4856480Y-2993370D01*
X4862887Y-2995452D01*
X4866847Y-3000902D01*
X4866847Y-3007638D01*
X4865248Y-3010746D01*
X4863743Y-3012783D01*
X4862989Y-3014207D01*
X4859095Y-3025295D01*
X4858813Y-3026584D01*
X4858608Y-3028746D01*
X4858584Y-3029260D01*
X4858584Y-3034034D01*
X4859038Y-3035430D01*
X4859492Y-3035760D01*
X4921184Y-3035760D01*
X4927591Y-3037842D01*
X4931551Y-3043292D01*
X4932084Y-3046660D01*
X4932084Y-3049860D01*
X4930002Y-3056267D01*
X4924552Y-3060226D01*
X4921184Y-3060760D01*
X4860310Y-3060760D01*
X4858914Y-3061214D01*
X4858584Y-3061668D01*
X4858584Y-3066446D01*
X4856502Y-3072853D01*
X4851052Y-3076812D01*
X4847684Y-3077346D01*
X4802975Y-3077346D01*
X4800849Y-3077137D01*
X4800241Y-3077016D01*
X4799188Y-3076806D01*
X4795222Y-3077595D01*
X4788532Y-3076803D01*
X4783585Y-3072231D01*
X4782271Y-3065623D01*
X4785388Y-3059197D01*
X4792063Y-3052523D01*
X4792742Y-3051190D01*
X4794553Y-3047635D01*
X4798182Y-3040513D01*
X4798316Y-3039666D01*
X4798316Y-3039666D01*
X4800156Y-3028048D01*
X4800290Y-3027201D01*
X4800141Y-3026260D01*
X4798316Y-3014736D01*
X4798316Y-3014735D01*
X4798182Y-3013888D01*
X4796954Y-3011479D01*
X4795901Y-3004826D01*
X4798959Y-2998824D01*
X4800190Y-2997763D01*
X4808791Y-2991411D01*
X4809931Y-2990271D01*
X4813630Y-2985263D01*
X4819111Y-2981346D01*
X4825847Y-2981399D01*
G37*
G04 #@! TD.AperFunction*
G04 #@! TA.AperFunction,Conductor*
G36*
X4772847Y-2930902D02*
G01*
X4776807Y-2936352D01*
X4777340Y-2939720D01*
X4777340Y-2942920D01*
X4775258Y-2949327D01*
X4769808Y-2953286D01*
X4766440Y-2953820D01*
X4731845Y-2953820D01*
X4726896Y-2952632D01*
X4723237Y-2950768D01*
X4723237Y-2950767D01*
X4722473Y-2950378D01*
X4721625Y-2950244D01*
X4721141Y-2950087D01*
X4715691Y-2946127D01*
X4713609Y-2939720D01*
X4715691Y-2933313D01*
X4721141Y-2929353D01*
X4724509Y-2928820D01*
X4766440Y-2928820D01*
X4772847Y-2930902D01*
G37*
G04 #@! TD.AperFunction*
G04 #@! TA.AperFunction,Conductor*
G36*
X6351832Y-4033180D02*
G01*
X6356481Y-4038546D01*
X6357620Y-4043780D01*
X6357620Y-4132537D01*
X6358054Y-4134016D01*
X6359220Y-4134222D01*
X6360218Y-4134144D01*
X6361476Y-4133914D01*
X6375698Y-4129782D01*
X6377142Y-4129157D01*
X6389760Y-4121695D01*
X6391004Y-4120730D01*
X6394658Y-4117076D01*
X6400889Y-4113674D01*
X6407970Y-4114180D01*
X6412477Y-4117076D01*
X6423875Y-4128474D01*
X6432846Y-4137445D01*
X6433729Y-4137895D01*
X6433729Y-4137895D01*
X6434806Y-4138444D01*
X6436491Y-4139476D01*
X6438060Y-4140616D01*
X6442395Y-4146239D01*
X6443003Y-4153312D01*
X6439690Y-4159591D01*
X6433508Y-4163083D01*
X6430654Y-4163410D01*
X6309084Y-4163410D01*
X6302272Y-4161410D01*
X6298280Y-4157293D01*
X6295916Y-4153353D01*
X6294120Y-4146870D01*
X6294120Y-4146723D01*
X6296120Y-4139910D01*
X6301486Y-4135261D01*
X6304130Y-4134392D01*
X6306523Y-4133889D01*
X6306820Y-4132743D01*
X6306820Y-4124074D01*
X6308193Y-4118354D01*
X6309242Y-4116296D01*
X6309242Y-4116296D01*
X6309692Y-4115413D01*
X6309967Y-4113674D01*
X6311645Y-4103079D01*
X6311800Y-4102100D01*
X6310580Y-4094392D01*
X6309847Y-4089766D01*
X6309847Y-4089766D01*
X6309692Y-4088787D01*
X6309100Y-4087625D01*
X6308193Y-4085846D01*
X6306820Y-4080126D01*
X6306820Y-4043780D01*
X6308820Y-4036968D01*
X6314186Y-4032319D01*
X6319420Y-4031180D01*
X6345020Y-4031180D01*
X6351832Y-4033180D01*
G37*
G04 #@! TD.AperFunction*
G04 #@! TA.AperFunction,Conductor*
G36*
X6634480Y-4064728D02*
G01*
X6634927Y-4066252D01*
X6635066Y-4066373D01*
X6635835Y-4066540D01*
X6654082Y-4066540D01*
X6660894Y-4068540D01*
X6665543Y-4073906D01*
X6666172Y-4075590D01*
X6666617Y-4077108D01*
X6666680Y-4077117D01*
X6667325Y-4076882D01*
X6676798Y-4071021D01*
X6677937Y-4070118D01*
X6688979Y-4059057D01*
X6689880Y-4057916D01*
X6698080Y-4044612D01*
X6698695Y-4043294D01*
X6703629Y-4028419D01*
X6703916Y-4027081D01*
X6704847Y-4017990D01*
X6704880Y-4017349D01*
X6704880Y-4000400D01*
X6706880Y-3993588D01*
X6712246Y-3988939D01*
X6717480Y-3987800D01*
X6847940Y-3987800D01*
X6854752Y-3989800D01*
X6859401Y-3995166D01*
X6860540Y-4000400D01*
X6860540Y-4091629D01*
X6858540Y-4098442D01*
X6853759Y-4102805D01*
X6845346Y-4107185D01*
X6844507Y-4107584D01*
X6806025Y-4124135D01*
X6805159Y-4124470D01*
X6795412Y-4127834D01*
X6765559Y-4138137D01*
X6764669Y-4138408D01*
X6724173Y-4149115D01*
X6723265Y-4149320D01*
X6715428Y-4150783D01*
X6682086Y-4157010D01*
X6681167Y-4157147D01*
X6666679Y-4158758D01*
X6659687Y-4157523D01*
X6654473Y-4152705D01*
X6652692Y-4145832D01*
X6654440Y-4139822D01*
X6656960Y-4135562D01*
X6657584Y-4134118D01*
X6661751Y-4119776D01*
X6661897Y-4118979D01*
X6661615Y-4117637D01*
X6660469Y-4117340D01*
X6570620Y-4117340D01*
X6563808Y-4115340D01*
X6559159Y-4109974D01*
X6558020Y-4104740D01*
X6558020Y-4094392D01*
X6591300Y-4089400D01*
X6591300Y-3987800D01*
X6634480Y-3987800D01*
X6634480Y-4064728D01*
G37*
G04 #@! TD.AperFunction*
M02*
