M48
; DRILL file {KiCad 6.0.9-8da3e8f707~116~ubuntu22.04.1} date Mi 14 Dez 2022 17:19:30 CET
; FORMAT={-:-/ absolute / inch / decimal}
; #@! TF.CreationDate,2022-12-14T17:19:30+01:00
; #@! TF.GenerationSoftware,Kicad,Pcbnew,6.0.9-8da3e8f707~116~ubuntu22.04.1
; #@! TF.FileFunction,Plated,1,4,PTH
FMAT,2
INCH
; #@! TA.AperFunction,Plated,PTH,ViaDrill
T1C0.0079
; #@! TA.AperFunction,Plated,PTH,ComponentDrill
T2C0.0079
; #@! TA.AperFunction,Plated,PTH,ViaDrill
T3C0.0118
; #@! TA.AperFunction,Plated,PTH,ViaDrill
T4C0.0157
; #@! TA.AperFunction,Plated,PTH,ComponentDrill
T5C0.0157
; #@! TA.AperFunction,Plated,PTH,ComponentDrill
T6C0.0197
%
G90
G05
T1
X1.4968Y-1.239
X1.5318Y-1.234
X1.5468Y-1.214
X1.6144Y-1.4424
X1.6318Y-1.329
X1.6319Y-1.289
X1.6506Y-1.2128
X1.6515Y-1.3078
X1.6531Y-1.2731
X1.6594Y-1.2376
X1.6668Y-1.584
X1.6794Y-1.2219
X1.687Y-1.599
X1.704Y-1.149
X1.7171Y-1.575
X1.7214Y-1.1854
X1.7366Y-1.1674
X1.742Y-1.5784
X1.7566Y-1.5144
X1.765Y-1.212
X1.7712Y-1.5498
X1.7799Y-1.5102
X1.7877Y-1.2024
X1.8127Y-1.5097
X1.8318Y-1.6094
X1.854Y-1.1777
X1.8718Y-1.6094
X1.8729Y-1.1918
X1.8919Y-1.5045
X1.9368Y-1.18
X1.97Y-1.269
X1.9749Y-1.4088
X2.036Y-1.249
X2.041Y-1.183
X2.0835Y-1.6315
X2.0875Y-1.5355
X2.0889Y-1.5084
X2.1222Y-1.2316
X2.1254Y-1.1716
X2.1379Y-1.6181
X2.142Y-1.453
X2.1499Y-1.3019
X2.1712Y-1.2369
X2.1778Y-1.2762
X2.1976Y-1.3204
X2.1976Y-1.2634
X2.2369Y-1.6181
X2.2446Y-1.589
X2.269Y-1.443
X2.297Y-1.429
X2.3008Y-1.209
X2.31Y-1.593
X2.369Y-1.626
X2.397Y-1.189
X2.402Y-1.264
X2.4089Y-1.4221
X2.42Y-1.562
X2.432Y-1.389
X2.435Y-1.626
X2.468Y-1.615
X2.472Y-1.1736
X2.4741Y-1.199
X2.479Y-1.234
X2.491Y-1.63
X2.508Y-1.616
X2.5137Y-1.304
X2.536Y-1.6
X2.574Y-1.463
X2.574Y-1.484
X2.574Y-1.507
X2.574Y-1.528
X2.602Y-1.603
X2.608Y-1.336
X2.6097Y-1.364
X2.62Y-1.627
X2.629Y-1.402
X2.6346Y-1.3014
X2.652Y-1.579
X2.653Y-1.619
X2.681Y-1.598
X2.695Y-1.196
X2.742Y-1.229
X2.747Y-1.325
T2
X2.5485Y-1.2193
X2.5485Y-1.2567
X2.5859Y-1.2193
X2.5859Y-1.2567
T3
X1.245Y-1.28
X1.257Y-1.509
X1.2846Y-1.5374
X1.3096Y-1.2924
X1.405Y-1.5375
X1.4296Y-1.5674
X1.4326Y-1.3716
X1.4421Y-1.5232
X1.4573Y-1.2923
X1.4596Y-1.3924
X1.4696Y-1.4424
X1.4696Y-1.4924
X1.4846Y-1.1624
X1.5146Y-1.2074
X1.5249Y-1.1716
X1.6346Y-1.6224
X1.6768Y-1.474
X1.725Y-1.614
X1.941Y-1.257
X1.9889Y-1.4322
X1.995Y-1.297
X2.0096Y-1.5824
X2.0384Y-1.2907
X2.0396Y-1.4524
X2.0692Y-1.3622
X2.0996Y-1.2924
X2.0996Y-1.4524
X2.153Y-1.352
X2.178Y-1.394
X2.238Y-1.4548
X2.2496Y-1.519
X2.3Y-1.155
X2.337Y-1.444
X2.3446Y-1.5
X2.407Y-1.314
X2.437Y-1.234
X2.5451Y-1.5741
X2.567Y-1.1574
X2.5674Y-1.32
X2.747Y-1.269
T4
X2.245Y-1.155
T5
X1.7266Y-1.2931
X1.7266Y-1.3404
X1.7266Y-1.3876
X1.7266Y-1.4349
X1.7739Y-1.2931
X1.7739Y-1.3404
X1.7739Y-1.3876
X1.7739Y-1.4349
X1.8211Y-1.2931
X1.8211Y-1.3404
X1.8211Y-1.3876
X1.8211Y-1.4349
X1.8683Y-1.2931
X1.8683Y-1.3404
X1.8683Y-1.3876
X1.8683Y-1.4349
T6
X1.595Y-1.19
T0
M30
