G04 #@! TF.GenerationSoftware,KiCad,Pcbnew,(5.1.5)-3*
G04 #@! TF.CreationDate,2021-08-20T07:44:17+02:00*
G04 #@! TF.ProjectId,nRF52832_qfaa,6e524635-3238-4333-925f-716661612e6b,rev?*
G04 #@! TF.SameCoordinates,Original*
G04 #@! TF.FileFunction,Legend,Bot*
G04 #@! TF.FilePolarity,Positive*
%FSLAX46Y46*%
G04 Gerber Fmt 4.6, Leading zero omitted, Abs format (unit mm)*
G04 Created by KiCad (PCBNEW (5.1.5)-3) date 2021-08-20 07:44:17*
%MOMM*%
%LPD*%
G04 APERTURE LIST*
%ADD10C,0.500000*%
%ADD11C,0.250000*%
G04 APERTURE END LIST*
D10*
X137083704Y-98720257D02*
X135559895Y-98720257D01*
X137083704Y-105959257D02*
X135559895Y-105959257D01*
X136321800Y-106721161D02*
X136321800Y-105197352D01*
D11*
X144776644Y-97595980D02*
X144651644Y-96595980D01*
X144770691Y-97548361D02*
X144871882Y-97595980D01*
X145062358Y-97595980D01*
X145151644Y-97548361D01*
X145193310Y-97500742D01*
X145229025Y-97405504D01*
X145193310Y-97119790D01*
X145133786Y-97024552D01*
X145080215Y-96976933D01*
X144979025Y-96929314D01*
X144788548Y-96929314D01*
X144699263Y-96976933D01*
X144300453Y-97595980D02*
X144217120Y-96929314D01*
X144175453Y-96595980D02*
X144229025Y-96643600D01*
X144187358Y-96691219D01*
X144133786Y-96643600D01*
X144175453Y-96595980D01*
X144187358Y-96691219D01*
X143389739Y-97548361D02*
X143490929Y-97595980D01*
X143681405Y-97595980D01*
X143770691Y-97548361D01*
X143812358Y-97500742D01*
X143848072Y-97405504D01*
X143812358Y-97119790D01*
X143752834Y-97024552D01*
X143699263Y-96976933D01*
X143598072Y-96929314D01*
X143407596Y-96929314D01*
X143318310Y-96976933D01*
X143026644Y-96929314D02*
X142645691Y-96929314D01*
X142842120Y-96595980D02*
X142949263Y-97453123D01*
X142913548Y-97548361D01*
X142824263Y-97595980D01*
X142729025Y-97595980D01*
X142252834Y-97595980D02*
X142342120Y-97548361D01*
X142383786Y-97500742D01*
X142419501Y-97405504D01*
X142383786Y-97119790D01*
X142324263Y-97024552D01*
X142270691Y-96976933D01*
X142169501Y-96929314D01*
X142026644Y-96929314D01*
X141937358Y-96976933D01*
X141895691Y-97024552D01*
X141859977Y-97119790D01*
X141895691Y-97405504D01*
X141955215Y-97500742D01*
X142008786Y-97548361D01*
X142109977Y-97595980D01*
X142252834Y-97595980D01*
X141550453Y-96929314D02*
X141169501Y-96929314D01*
X141490929Y-97595980D02*
X141383786Y-96738838D01*
X141324263Y-96643600D01*
X141223072Y-96595980D01*
X141127834Y-96595980D01*
X140407596Y-96929314D02*
X140490929Y-97595980D01*
X140836167Y-96929314D02*
X140901644Y-97453123D01*
X140865929Y-97548361D01*
X140776644Y-97595980D01*
X140633786Y-97595980D01*
X140532596Y-97548361D01*
X140479025Y-97500742D01*
X139931405Y-96929314D02*
X140014739Y-97595980D01*
X139943310Y-97024552D02*
X139889739Y-96976933D01*
X139788548Y-96929314D01*
X139645691Y-96929314D01*
X139556405Y-96976933D01*
X139520691Y-97072171D01*
X139586167Y-97595980D01*
X140967120Y-99345980D02*
X141538548Y-99345980D01*
X141252834Y-99345980D02*
X141127834Y-98345980D01*
X141240929Y-98488838D01*
X141348072Y-98584076D01*
X141449263Y-98631695D01*
X140526644Y-99250742D02*
X140484977Y-99298361D01*
X140538548Y-99345980D01*
X140580215Y-99298361D01*
X140526644Y-99250742D01*
X140538548Y-99345980D01*
X139746882Y-98345980D02*
X139651644Y-98345980D01*
X139562358Y-98393600D01*
X139520691Y-98441219D01*
X139484977Y-98536457D01*
X139461167Y-98726933D01*
X139490929Y-98965028D01*
X139562358Y-99155504D01*
X139621882Y-99250742D01*
X139675453Y-99298361D01*
X139776644Y-99345980D01*
X139871882Y-99345980D01*
X139961167Y-99298361D01*
X140002834Y-99250742D01*
X140038548Y-99155504D01*
X140062358Y-98965028D01*
X140032596Y-98726933D01*
X139961167Y-98536457D01*
X139901644Y-98441219D01*
X139848072Y-98393600D01*
X139746882Y-98345980D01*
M02*
