G04 #@! TF.GenerationSoftware,KiCad,Pcbnew,(5.1.5)-3*
G04 #@! TF.CreationDate,2021-08-20T07:44:16+02:00*
G04 #@! TF.ProjectId,nRF52832_qfaa,6e524635-3238-4333-925f-716661612e6b,rev?*
G04 #@! TF.SameCoordinates,Original*
G04 #@! TF.FileFunction,Copper,L2,Inr*
G04 #@! TF.FilePolarity,Positive*
%FSLAX46Y46*%
G04 Gerber Fmt 4.6, Leading zero omitted, Abs format (unit mm)*
G04 Created by KiCad (PCBNEW (5.1.5)-3) date 2021-08-20 07:44:16*
%MOMM*%
%LPD*%
G04 APERTURE LIST*
%ADD10O,1.700000X1.700000*%
%ADD11R,1.700000X1.700000*%
%ADD12C,0.908000*%
%ADD13C,0.800000*%
%ADD14C,0.250000*%
%ADD15C,0.200000*%
%ADD16C,0.254000*%
G04 APERTURE END LIST*
D10*
X136271000Y-103632000D03*
D11*
X136271000Y-101092000D03*
D10*
X149631400Y-127685800D03*
X147091400Y-127685800D03*
D11*
X144551400Y-127685800D03*
D12*
X151301100Y-107803600D03*
X151301100Y-106603600D03*
X151301100Y-105403600D03*
X151301100Y-104203600D03*
X150101100Y-107803600D03*
X150101100Y-106603600D03*
X150101100Y-105403600D03*
X150101100Y-104203600D03*
X148901100Y-107803600D03*
X148901100Y-106603600D03*
X148901100Y-105403600D03*
X148901100Y-104203600D03*
X147701100Y-107803600D03*
X147701100Y-106603600D03*
X147701100Y-105403600D03*
X147701100Y-104203600D03*
D13*
X148259800Y-97967800D03*
X148412200Y-99669600D03*
X143992600Y-112090200D03*
X142901100Y-102303600D03*
X152401100Y-99303600D03*
X156801100Y-102703600D03*
X156801100Y-103703600D03*
X143401100Y-103503600D03*
X157601100Y-102303600D03*
X153501100Y-99303600D03*
X154254200Y-107950000D03*
X154254200Y-108966000D03*
X154254200Y-109905800D03*
X156946600Y-109855000D03*
X156946600Y-107975400D03*
X158191200Y-108966000D03*
X156946600Y-106908600D03*
X156210000Y-105994200D03*
X155321000Y-105105200D03*
X154254200Y-106883200D03*
X154601100Y-99103600D03*
X139598400Y-109728000D03*
X145973800Y-111760000D03*
X141224000Y-105460800D03*
X137363200Y-114147600D03*
X143611600Y-117221000D03*
X142011400Y-108127800D03*
X143179800Y-121742200D03*
X145059400Y-118668800D03*
X144983200Y-125501400D03*
X144983200Y-122961400D03*
X144983200Y-121615200D03*
X151084000Y-99004400D03*
X151257000Y-95275400D03*
X137160000Y-99466400D03*
X138404600Y-102565200D03*
X149860000Y-101346000D03*
X152501100Y-102303600D03*
X138506200Y-109601000D03*
X146837400Y-111048800D03*
X145592800Y-115138200D03*
X141986000Y-107061000D03*
X144983200Y-120421400D03*
X145719800Y-101015800D03*
X148920200Y-120472200D03*
X148920200Y-121742200D03*
X148920200Y-125526800D03*
X150545800Y-119354600D03*
X150926800Y-115468400D03*
X148920200Y-122961400D03*
X150469600Y-114147600D03*
X150241000Y-112852200D03*
X148920200Y-124256800D03*
X144983200Y-124231400D03*
X138912600Y-97869600D03*
X147066000Y-97358200D03*
X151942800Y-97078800D03*
X138912600Y-99669600D03*
X148336000Y-96037400D03*
X147802600Y-110210600D03*
X135077200Y-109296200D03*
X151358600Y-101803200D03*
X143205200Y-115951000D03*
X145516600Y-113817400D03*
X141935200Y-116103400D03*
X145338800Y-108508800D03*
X140665200Y-116027200D03*
X144348200Y-108280200D03*
X142849600Y-106603800D03*
X136118600Y-109601000D03*
D14*
X148336000Y-96037400D02*
X148336000Y-96494600D01*
X148336000Y-96494600D02*
X149250400Y-97409000D01*
X149250400Y-98831400D02*
X148412200Y-99669600D01*
X149250400Y-97409000D02*
X149250400Y-98831400D01*
D15*
X145516600Y-113817400D02*
X143357600Y-113817400D01*
X143205200Y-113969800D02*
X143205200Y-115951000D01*
X143357600Y-113817400D02*
X143205200Y-113969800D01*
X143840200Y-109397800D02*
X141935200Y-111302800D01*
X145338800Y-108585000D02*
X144526000Y-109397800D01*
X144526000Y-109397800D02*
X143840200Y-109397800D01*
X145338800Y-108508800D02*
X145338800Y-108585000D01*
X141935200Y-111302800D02*
X141935200Y-116103400D01*
X140665200Y-112014000D02*
X140665200Y-116027200D01*
X144348200Y-108280200D02*
X144348200Y-108331000D01*
X144348200Y-108331000D02*
X140665200Y-112014000D01*
D16*
G36*
X152413603Y-94407955D02*
G01*
X152546081Y-94437203D01*
X155314759Y-95571360D01*
X155927698Y-96039141D01*
X156116582Y-96232359D01*
X158101050Y-99967830D01*
X158165605Y-100295355D01*
X158216679Y-101107667D01*
X158077042Y-110134400D01*
X153416000Y-110134400D01*
X153391224Y-110136840D01*
X153367399Y-110144067D01*
X153345443Y-110155803D01*
X153326197Y-110171597D01*
X153310403Y-110190843D01*
X153298667Y-110212799D01*
X153291440Y-110236624D01*
X153289000Y-110261400D01*
X153289000Y-117175250D01*
X152545495Y-117442619D01*
X151767010Y-117523643D01*
X151612199Y-117526200D01*
X151543419Y-117526200D01*
X151511000Y-117523007D01*
X151460569Y-117527974D01*
X151381617Y-117535750D01*
X151257207Y-117573490D01*
X151142550Y-117634775D01*
X151042052Y-117717252D01*
X150959575Y-117817750D01*
X150898401Y-117932200D01*
X142522376Y-117932200D01*
X142461225Y-117817793D01*
X142378748Y-117717295D01*
X142278249Y-117634818D01*
X142163592Y-117573533D01*
X142039182Y-117535793D01*
X141909800Y-117523050D01*
X141901274Y-117523890D01*
X140930997Y-117453488D01*
X140733715Y-117409932D01*
X138669725Y-116680239D01*
X138197047Y-116417689D01*
X137551812Y-115925261D01*
X139630200Y-115925261D01*
X139630200Y-116129139D01*
X139669974Y-116329098D01*
X139747995Y-116517456D01*
X139861263Y-116686974D01*
X140005426Y-116831137D01*
X140174944Y-116944405D01*
X140363302Y-117022426D01*
X140563261Y-117062200D01*
X140767139Y-117062200D01*
X140967098Y-117022426D01*
X141155456Y-116944405D01*
X141249594Y-116881505D01*
X141275426Y-116907337D01*
X141444944Y-117020605D01*
X141633302Y-117098626D01*
X141833261Y-117138400D01*
X142037139Y-117138400D01*
X142237098Y-117098626D01*
X142425456Y-117020605D01*
X142594974Y-116907337D01*
X142666485Y-116835826D01*
X142714944Y-116868205D01*
X142903302Y-116946226D01*
X143103261Y-116986000D01*
X143307139Y-116986000D01*
X143507098Y-116946226D01*
X143695456Y-116868205D01*
X143864974Y-116754937D01*
X144009137Y-116610774D01*
X144122405Y-116441256D01*
X144200426Y-116252898D01*
X144240200Y-116052939D01*
X144240200Y-115849061D01*
X144200426Y-115649102D01*
X144122405Y-115460744D01*
X144009137Y-115291226D01*
X143940200Y-115222289D01*
X143940200Y-114552400D01*
X144739435Y-114552400D01*
X144675595Y-114647944D01*
X144597574Y-114836302D01*
X144557800Y-115036261D01*
X144557800Y-115240139D01*
X144597574Y-115440098D01*
X144675595Y-115628456D01*
X144788863Y-115797974D01*
X144933026Y-115942137D01*
X145102544Y-116055405D01*
X145290902Y-116133426D01*
X145490861Y-116173200D01*
X145694739Y-116173200D01*
X145894698Y-116133426D01*
X146083056Y-116055405D01*
X146252574Y-115942137D01*
X146396737Y-115797974D01*
X146510005Y-115628456D01*
X146588026Y-115440098D01*
X146627800Y-115240139D01*
X146627800Y-115036261D01*
X146588026Y-114836302D01*
X146510005Y-114647944D01*
X146396737Y-114478426D01*
X146350557Y-114432246D01*
X146433805Y-114307656D01*
X146511826Y-114119298D01*
X146551600Y-113919339D01*
X146551600Y-113715461D01*
X146511826Y-113515502D01*
X146433805Y-113327144D01*
X146320537Y-113157626D01*
X146176374Y-113013463D01*
X146006856Y-112900195D01*
X145818498Y-112822174D01*
X145618539Y-112782400D01*
X145414661Y-112782400D01*
X145214702Y-112822174D01*
X145026344Y-112900195D01*
X144856826Y-113013463D01*
X144787889Y-113082400D01*
X143393696Y-113082400D01*
X143357599Y-113078845D01*
X143321502Y-113082400D01*
X143321495Y-113082400D01*
X143227732Y-113091635D01*
X143213514Y-113093035D01*
X143181268Y-113102817D01*
X143074967Y-113135063D01*
X142947280Y-113203313D01*
X142835362Y-113295162D01*
X142812341Y-113323213D01*
X142711008Y-113424546D01*
X142682962Y-113447563D01*
X142670200Y-113463113D01*
X142670200Y-112750261D01*
X149206000Y-112750261D01*
X149206000Y-112954139D01*
X149245774Y-113154098D01*
X149323795Y-113342456D01*
X149437063Y-113511974D01*
X149564427Y-113639338D01*
X149552395Y-113657344D01*
X149474374Y-113845702D01*
X149434600Y-114045661D01*
X149434600Y-114249539D01*
X149474374Y-114449498D01*
X149552395Y-114637856D01*
X149665663Y-114807374D01*
X149809826Y-114951537D01*
X149974922Y-115061851D01*
X149931574Y-115166502D01*
X149891800Y-115366461D01*
X149891800Y-115570339D01*
X149931574Y-115770298D01*
X150009595Y-115958656D01*
X150122863Y-116128174D01*
X150267026Y-116272337D01*
X150436544Y-116385605D01*
X150624902Y-116463626D01*
X150824861Y-116503400D01*
X151028739Y-116503400D01*
X151228698Y-116463626D01*
X151417056Y-116385605D01*
X151586574Y-116272337D01*
X151730737Y-116128174D01*
X151844005Y-115958656D01*
X151922026Y-115770298D01*
X151961800Y-115570339D01*
X151961800Y-115366461D01*
X151922026Y-115166502D01*
X151844005Y-114978144D01*
X151730737Y-114808626D01*
X151586574Y-114664463D01*
X151421478Y-114554149D01*
X151464826Y-114449498D01*
X151504600Y-114249539D01*
X151504600Y-114045661D01*
X151464826Y-113845702D01*
X151386805Y-113657344D01*
X151273537Y-113487826D01*
X151146173Y-113360462D01*
X151158205Y-113342456D01*
X151236226Y-113154098D01*
X151276000Y-112954139D01*
X151276000Y-112750261D01*
X151236226Y-112550302D01*
X151158205Y-112361944D01*
X151044937Y-112192426D01*
X150900774Y-112048263D01*
X150731256Y-111934995D01*
X150542898Y-111856974D01*
X150342939Y-111817200D01*
X150139061Y-111817200D01*
X149939102Y-111856974D01*
X149750744Y-111934995D01*
X149581226Y-112048263D01*
X149437063Y-112192426D01*
X149323795Y-112361944D01*
X149245774Y-112550302D01*
X149206000Y-112750261D01*
X142670200Y-112750261D01*
X142670200Y-111607246D01*
X143330585Y-110946861D01*
X145802400Y-110946861D01*
X145802400Y-111150739D01*
X145842174Y-111350698D01*
X145920195Y-111539056D01*
X146033463Y-111708574D01*
X146177626Y-111852737D01*
X146347144Y-111966005D01*
X146535502Y-112044026D01*
X146735461Y-112083800D01*
X146939339Y-112083800D01*
X147139298Y-112044026D01*
X147327656Y-111966005D01*
X147497174Y-111852737D01*
X147641337Y-111708574D01*
X147754605Y-111539056D01*
X147832626Y-111350698D01*
X147853531Y-111245600D01*
X147904539Y-111245600D01*
X148104498Y-111205826D01*
X148292856Y-111127805D01*
X148462374Y-111014537D01*
X148606537Y-110870374D01*
X148719805Y-110700856D01*
X148797826Y-110512498D01*
X148837600Y-110312539D01*
X148837600Y-110108661D01*
X148797826Y-109908702D01*
X148719805Y-109720344D01*
X148606537Y-109550826D01*
X148462374Y-109406663D01*
X148292856Y-109293395D01*
X148104498Y-109215374D01*
X147904539Y-109175600D01*
X147700661Y-109175600D01*
X147500702Y-109215374D01*
X147312344Y-109293395D01*
X147142826Y-109406663D01*
X146998663Y-109550826D01*
X146885395Y-109720344D01*
X146807374Y-109908702D01*
X146786469Y-110013800D01*
X146735461Y-110013800D01*
X146535502Y-110053574D01*
X146347144Y-110131595D01*
X146177626Y-110244863D01*
X146033463Y-110389026D01*
X145920195Y-110558544D01*
X145842174Y-110746902D01*
X145802400Y-110946861D01*
X143330585Y-110946861D01*
X144144647Y-110132800D01*
X144489895Y-110132800D01*
X144526000Y-110136356D01*
X144562105Y-110132800D01*
X144670085Y-110122165D01*
X144808633Y-110080137D01*
X144936320Y-110011887D01*
X145048238Y-109920038D01*
X145071258Y-109891988D01*
X145419446Y-109543800D01*
X145440739Y-109543800D01*
X145640698Y-109504026D01*
X145829056Y-109426005D01*
X145998574Y-109312737D01*
X146142737Y-109168574D01*
X146256005Y-108999056D01*
X146334026Y-108810698D01*
X146373800Y-108610739D01*
X146373800Y-108406861D01*
X146334026Y-108206902D01*
X146256005Y-108018544D01*
X146142737Y-107849026D01*
X145998574Y-107704863D01*
X145829056Y-107591595D01*
X145640698Y-107513574D01*
X145440739Y-107473800D01*
X145236861Y-107473800D01*
X145043894Y-107512183D01*
X145007974Y-107476263D01*
X144838456Y-107362995D01*
X144650098Y-107284974D01*
X144450139Y-107245200D01*
X144246261Y-107245200D01*
X144046302Y-107284974D01*
X143857944Y-107362995D01*
X143688426Y-107476263D01*
X143544263Y-107620426D01*
X143430995Y-107789944D01*
X143352974Y-107978302D01*
X143313200Y-108178261D01*
X143313200Y-108326553D01*
X140171008Y-111468746D01*
X140142962Y-111491763D01*
X140051113Y-111603681D01*
X139982863Y-111731368D01*
X139972665Y-111764987D01*
X139940835Y-111869915D01*
X139926644Y-112014000D01*
X139930200Y-112050105D01*
X139930201Y-115298488D01*
X139861263Y-115367426D01*
X139747995Y-115536944D01*
X139669974Y-115725302D01*
X139630200Y-115925261D01*
X137551812Y-115925261D01*
X137416899Y-115822299D01*
X136843566Y-115235808D01*
X135167585Y-111384617D01*
X135127600Y-110748676D01*
X135127600Y-110331200D01*
X135179139Y-110331200D01*
X135350920Y-110297031D01*
X135458826Y-110404937D01*
X135628344Y-110518205D01*
X135816702Y-110596226D01*
X136016661Y-110636000D01*
X136220539Y-110636000D01*
X136420498Y-110596226D01*
X136608856Y-110518205D01*
X136778374Y-110404937D01*
X136922537Y-110260774D01*
X137035805Y-110091256D01*
X137113826Y-109902898D01*
X137153600Y-109702939D01*
X137153600Y-109499061D01*
X137471200Y-109499061D01*
X137471200Y-109702939D01*
X137510974Y-109902898D01*
X137588995Y-110091256D01*
X137702263Y-110260774D01*
X137846426Y-110404937D01*
X138015944Y-110518205D01*
X138204302Y-110596226D01*
X138404261Y-110636000D01*
X138608139Y-110636000D01*
X138808098Y-110596226D01*
X138996456Y-110518205D01*
X139165974Y-110404937D01*
X139310137Y-110260774D01*
X139423405Y-110091256D01*
X139501426Y-109902898D01*
X139541200Y-109702939D01*
X139541200Y-109499061D01*
X139501426Y-109299102D01*
X139423405Y-109110744D01*
X139310137Y-108941226D01*
X139165974Y-108797063D01*
X138996456Y-108683795D01*
X138808098Y-108605774D01*
X138608139Y-108566000D01*
X138404261Y-108566000D01*
X138204302Y-108605774D01*
X138015944Y-108683795D01*
X137846426Y-108797063D01*
X137702263Y-108941226D01*
X137588995Y-109110744D01*
X137510974Y-109299102D01*
X137471200Y-109499061D01*
X137153600Y-109499061D01*
X137113826Y-109299102D01*
X137035805Y-109110744D01*
X136922537Y-108941226D01*
X136778374Y-108797063D01*
X136608856Y-108683795D01*
X136420498Y-108605774D01*
X136220539Y-108566000D01*
X136016661Y-108566000D01*
X135844880Y-108600169D01*
X135736974Y-108492263D01*
X135567456Y-108378995D01*
X135379098Y-108300974D01*
X135179139Y-108261200D01*
X135127600Y-108261200D01*
X135127600Y-106959061D01*
X140951000Y-106959061D01*
X140951000Y-107162939D01*
X140990774Y-107362898D01*
X141068795Y-107551256D01*
X141182063Y-107720774D01*
X141326226Y-107864937D01*
X141495744Y-107978205D01*
X141684102Y-108056226D01*
X141884061Y-108096000D01*
X142087939Y-108096000D01*
X142287898Y-108056226D01*
X142476256Y-107978205D01*
X142645774Y-107864937D01*
X142789937Y-107720774D01*
X142844710Y-107638800D01*
X142951539Y-107638800D01*
X143151498Y-107599026D01*
X143339856Y-107521005D01*
X143509374Y-107407737D01*
X143653537Y-107263574D01*
X143766805Y-107094056D01*
X143844826Y-106905698D01*
X143884600Y-106705739D01*
X143884600Y-106501861D01*
X143844826Y-106301902D01*
X143766805Y-106113544D01*
X143653537Y-105944026D01*
X143509374Y-105799863D01*
X143339856Y-105686595D01*
X143151498Y-105608574D01*
X142951539Y-105568800D01*
X142747661Y-105568800D01*
X142547702Y-105608574D01*
X142359344Y-105686595D01*
X142189826Y-105799863D01*
X142045663Y-105944026D01*
X141990890Y-106026000D01*
X141884061Y-106026000D01*
X141684102Y-106065774D01*
X141495744Y-106143795D01*
X141326226Y-106257063D01*
X141182063Y-106401226D01*
X141068795Y-106570744D01*
X140990774Y-106759102D01*
X140951000Y-106959061D01*
X135127600Y-106959061D01*
X135127600Y-104588707D01*
X135324368Y-104785475D01*
X135567589Y-104947990D01*
X135837842Y-105059932D01*
X136124740Y-105117000D01*
X136417260Y-105117000D01*
X136704158Y-105059932D01*
X136974411Y-104947990D01*
X137217632Y-104785475D01*
X137424475Y-104578632D01*
X137586990Y-104335411D01*
X137698932Y-104065158D01*
X137756000Y-103778260D01*
X137756000Y-103485740D01*
X137698932Y-103198842D01*
X137586990Y-102928589D01*
X137424475Y-102685368D01*
X137292620Y-102553513D01*
X137365180Y-102531502D01*
X137475494Y-102472537D01*
X137572185Y-102393185D01*
X137651537Y-102296494D01*
X137710502Y-102186180D01*
X137746812Y-102066482D01*
X137759072Y-101942000D01*
X137756000Y-101377750D01*
X137597250Y-101219000D01*
X136398000Y-101219000D01*
X136398000Y-101239000D01*
X136144000Y-101239000D01*
X136144000Y-101219000D01*
X136124000Y-101219000D01*
X136124000Y-100965000D01*
X136144000Y-100965000D01*
X136144000Y-99765750D01*
X136398000Y-99765750D01*
X136398000Y-100965000D01*
X137597250Y-100965000D01*
X137648389Y-100913861D01*
X144684800Y-100913861D01*
X144684800Y-101117739D01*
X144724574Y-101317698D01*
X144802595Y-101506056D01*
X144915863Y-101675574D01*
X145060026Y-101819737D01*
X145229544Y-101933005D01*
X145417902Y-102011026D01*
X145617861Y-102050800D01*
X145821739Y-102050800D01*
X146021698Y-102011026D01*
X146210056Y-101933005D01*
X146379574Y-101819737D01*
X146498050Y-101701261D01*
X150323600Y-101701261D01*
X150323600Y-101905139D01*
X150363374Y-102105098D01*
X150441395Y-102293456D01*
X150554663Y-102462974D01*
X150698826Y-102607137D01*
X150868344Y-102720405D01*
X151056702Y-102798426D01*
X151256661Y-102838200D01*
X151460539Y-102838200D01*
X151595577Y-102811339D01*
X151697163Y-102963374D01*
X151841326Y-103107537D01*
X152010844Y-103220805D01*
X152199202Y-103298826D01*
X152399161Y-103338600D01*
X152603039Y-103338600D01*
X152802998Y-103298826D01*
X152991356Y-103220805D01*
X153160874Y-103107537D01*
X153305037Y-102963374D01*
X153418305Y-102793856D01*
X153496326Y-102605498D01*
X153536100Y-102405539D01*
X153536100Y-102201661D01*
X153496326Y-102001702D01*
X153418305Y-101813344D01*
X153305037Y-101643826D01*
X153160874Y-101499663D01*
X152991356Y-101386395D01*
X152802998Y-101308374D01*
X152603039Y-101268600D01*
X152399161Y-101268600D01*
X152264123Y-101295461D01*
X152162537Y-101143426D01*
X152018374Y-100999263D01*
X151848856Y-100885995D01*
X151660498Y-100807974D01*
X151460539Y-100768200D01*
X151256661Y-100768200D01*
X151056702Y-100807974D01*
X150868344Y-100885995D01*
X150698826Y-100999263D01*
X150554663Y-101143426D01*
X150441395Y-101312944D01*
X150363374Y-101501302D01*
X150323600Y-101701261D01*
X146498050Y-101701261D01*
X146523737Y-101675574D01*
X146637005Y-101506056D01*
X146715026Y-101317698D01*
X146754800Y-101117739D01*
X146754800Y-100913861D01*
X146715026Y-100713902D01*
X146637005Y-100525544D01*
X146523737Y-100356026D01*
X146379574Y-100211863D01*
X146210056Y-100098595D01*
X146021698Y-100020574D01*
X145821739Y-99980800D01*
X145617861Y-99980800D01*
X145417902Y-100020574D01*
X145229544Y-100098595D01*
X145060026Y-100211863D01*
X144915863Y-100356026D01*
X144802595Y-100525544D01*
X144724574Y-100713902D01*
X144684800Y-100913861D01*
X137648389Y-100913861D01*
X137756000Y-100806250D01*
X137759072Y-100242000D01*
X137746812Y-100117518D01*
X137710502Y-99997820D01*
X137651537Y-99887506D01*
X137572185Y-99790815D01*
X137475494Y-99711463D01*
X137365180Y-99652498D01*
X137245482Y-99616188D01*
X137121000Y-99603928D01*
X136556750Y-99607000D01*
X136398000Y-99765750D01*
X136144000Y-99765750D01*
X135985250Y-99607000D01*
X135508898Y-99604407D01*
X136323023Y-97767661D01*
X137877600Y-97767661D01*
X137877600Y-97971539D01*
X137917374Y-98171498D01*
X137995395Y-98359856D01*
X138108663Y-98529374D01*
X138252826Y-98673537D01*
X138396595Y-98769600D01*
X138252826Y-98865663D01*
X138108663Y-99009826D01*
X137995395Y-99179344D01*
X137917374Y-99367702D01*
X137877600Y-99567661D01*
X137877600Y-99771539D01*
X137917374Y-99971498D01*
X137995395Y-100159856D01*
X138108663Y-100329374D01*
X138252826Y-100473537D01*
X138422344Y-100586805D01*
X138610702Y-100664826D01*
X138810661Y-100704600D01*
X139014539Y-100704600D01*
X139214498Y-100664826D01*
X139402856Y-100586805D01*
X139572374Y-100473537D01*
X139716537Y-100329374D01*
X139829805Y-100159856D01*
X139907826Y-99971498D01*
X139947600Y-99771539D01*
X139947600Y-99567661D01*
X139907826Y-99367702D01*
X139829805Y-99179344D01*
X139716537Y-99009826D01*
X139572374Y-98865663D01*
X139428605Y-98769600D01*
X139572374Y-98673537D01*
X139716537Y-98529374D01*
X139829805Y-98359856D01*
X139907826Y-98171498D01*
X139947600Y-97971539D01*
X139947600Y-97767661D01*
X139907826Y-97567702D01*
X139829805Y-97379344D01*
X139747564Y-97256261D01*
X146031000Y-97256261D01*
X146031000Y-97460139D01*
X146070774Y-97660098D01*
X146148795Y-97848456D01*
X146262063Y-98017974D01*
X146406226Y-98162137D01*
X146575744Y-98275405D01*
X146764102Y-98353426D01*
X146964061Y-98393200D01*
X147167939Y-98393200D01*
X147304481Y-98366040D01*
X147342595Y-98458056D01*
X147455863Y-98627574D01*
X147600026Y-98771737D01*
X147747688Y-98870401D01*
X147608263Y-99009826D01*
X147494995Y-99179344D01*
X147416974Y-99367702D01*
X147377200Y-99567661D01*
X147377200Y-99771539D01*
X147416974Y-99971498D01*
X147494995Y-100159856D01*
X147608263Y-100329374D01*
X147752426Y-100473537D01*
X147921944Y-100586805D01*
X148110302Y-100664826D01*
X148310261Y-100704600D01*
X148514139Y-100704600D01*
X148714098Y-100664826D01*
X148902456Y-100586805D01*
X149071974Y-100473537D01*
X149216137Y-100329374D01*
X149329405Y-100159856D01*
X149407426Y-99971498D01*
X149447200Y-99771539D01*
X149447200Y-99709402D01*
X149761403Y-99395199D01*
X149790401Y-99371401D01*
X149885374Y-99255676D01*
X149955946Y-99123647D01*
X149999403Y-98980386D01*
X150010400Y-98868733D01*
X150010400Y-98868723D01*
X150014076Y-98831400D01*
X150010400Y-98794077D01*
X150010400Y-97446323D01*
X150014076Y-97409000D01*
X150010400Y-97371677D01*
X150010400Y-97371667D01*
X149999403Y-97260014D01*
X149955946Y-97116753D01*
X149941680Y-97090063D01*
X149885374Y-96984723D01*
X149878922Y-96976861D01*
X150907800Y-96976861D01*
X150907800Y-97180739D01*
X150947574Y-97380698D01*
X151025595Y-97569056D01*
X151138863Y-97738574D01*
X151283026Y-97882737D01*
X151452544Y-97996005D01*
X151640902Y-98074026D01*
X151840861Y-98113800D01*
X152044739Y-98113800D01*
X152244698Y-98074026D01*
X152433056Y-97996005D01*
X152602574Y-97882737D01*
X152746737Y-97738574D01*
X152860005Y-97569056D01*
X152938026Y-97380698D01*
X152977800Y-97180739D01*
X152977800Y-96976861D01*
X152938026Y-96776902D01*
X152860005Y-96588544D01*
X152746737Y-96419026D01*
X152602574Y-96274863D01*
X152433056Y-96161595D01*
X152244698Y-96083574D01*
X152044739Y-96043800D01*
X151840861Y-96043800D01*
X151640902Y-96083574D01*
X151452544Y-96161595D01*
X151283026Y-96274863D01*
X151138863Y-96419026D01*
X151025595Y-96588544D01*
X150947574Y-96776902D01*
X150907800Y-96976861D01*
X149878922Y-96976861D01*
X149814199Y-96897997D01*
X149790401Y-96868999D01*
X149761404Y-96845202D01*
X149309046Y-96392845D01*
X149331226Y-96339298D01*
X149371000Y-96139339D01*
X149371000Y-95935461D01*
X149331226Y-95735502D01*
X149253205Y-95547144D01*
X149139937Y-95377626D01*
X148995774Y-95233463D01*
X148826256Y-95120195D01*
X148637898Y-95042174D01*
X148437939Y-95002400D01*
X148234061Y-95002400D01*
X148034102Y-95042174D01*
X147845744Y-95120195D01*
X147676226Y-95233463D01*
X147532063Y-95377626D01*
X147418795Y-95547144D01*
X147340774Y-95735502D01*
X147301000Y-95935461D01*
X147301000Y-96139339D01*
X147340774Y-96339298D01*
X147349026Y-96359220D01*
X147167939Y-96323200D01*
X146964061Y-96323200D01*
X146764102Y-96362974D01*
X146575744Y-96440995D01*
X146406226Y-96554263D01*
X146262063Y-96698426D01*
X146148795Y-96867944D01*
X146070774Y-97056302D01*
X146031000Y-97256261D01*
X139747564Y-97256261D01*
X139716537Y-97209826D01*
X139572374Y-97065663D01*
X139402856Y-96952395D01*
X139214498Y-96874374D01*
X139014539Y-96834600D01*
X138810661Y-96834600D01*
X138610702Y-96874374D01*
X138422344Y-96952395D01*
X138252826Y-97065663D01*
X138108663Y-97209826D01*
X137995395Y-97379344D01*
X137917374Y-97567702D01*
X137877600Y-97767661D01*
X136323023Y-97767661D01*
X136827199Y-96630191D01*
X136831541Y-96624502D01*
X137432822Y-96036710D01*
X140976541Y-94408515D01*
X141087755Y-94386595D01*
X141905167Y-94335200D01*
X151410894Y-94335200D01*
X152413603Y-94407955D01*
G37*
X152413603Y-94407955D02*
X152546081Y-94437203D01*
X155314759Y-95571360D01*
X155927698Y-96039141D01*
X156116582Y-96232359D01*
X158101050Y-99967830D01*
X158165605Y-100295355D01*
X158216679Y-101107667D01*
X158077042Y-110134400D01*
X153416000Y-110134400D01*
X153391224Y-110136840D01*
X153367399Y-110144067D01*
X153345443Y-110155803D01*
X153326197Y-110171597D01*
X153310403Y-110190843D01*
X153298667Y-110212799D01*
X153291440Y-110236624D01*
X153289000Y-110261400D01*
X153289000Y-117175250D01*
X152545495Y-117442619D01*
X151767010Y-117523643D01*
X151612199Y-117526200D01*
X151543419Y-117526200D01*
X151511000Y-117523007D01*
X151460569Y-117527974D01*
X151381617Y-117535750D01*
X151257207Y-117573490D01*
X151142550Y-117634775D01*
X151042052Y-117717252D01*
X150959575Y-117817750D01*
X150898401Y-117932200D01*
X142522376Y-117932200D01*
X142461225Y-117817793D01*
X142378748Y-117717295D01*
X142278249Y-117634818D01*
X142163592Y-117573533D01*
X142039182Y-117535793D01*
X141909800Y-117523050D01*
X141901274Y-117523890D01*
X140930997Y-117453488D01*
X140733715Y-117409932D01*
X138669725Y-116680239D01*
X138197047Y-116417689D01*
X137551812Y-115925261D01*
X139630200Y-115925261D01*
X139630200Y-116129139D01*
X139669974Y-116329098D01*
X139747995Y-116517456D01*
X139861263Y-116686974D01*
X140005426Y-116831137D01*
X140174944Y-116944405D01*
X140363302Y-117022426D01*
X140563261Y-117062200D01*
X140767139Y-117062200D01*
X140967098Y-117022426D01*
X141155456Y-116944405D01*
X141249594Y-116881505D01*
X141275426Y-116907337D01*
X141444944Y-117020605D01*
X141633302Y-117098626D01*
X141833261Y-117138400D01*
X142037139Y-117138400D01*
X142237098Y-117098626D01*
X142425456Y-117020605D01*
X142594974Y-116907337D01*
X142666485Y-116835826D01*
X142714944Y-116868205D01*
X142903302Y-116946226D01*
X143103261Y-116986000D01*
X143307139Y-116986000D01*
X143507098Y-116946226D01*
X143695456Y-116868205D01*
X143864974Y-116754937D01*
X144009137Y-116610774D01*
X144122405Y-116441256D01*
X144200426Y-116252898D01*
X144240200Y-116052939D01*
X144240200Y-115849061D01*
X144200426Y-115649102D01*
X144122405Y-115460744D01*
X144009137Y-115291226D01*
X143940200Y-115222289D01*
X143940200Y-114552400D01*
X144739435Y-114552400D01*
X144675595Y-114647944D01*
X144597574Y-114836302D01*
X144557800Y-115036261D01*
X144557800Y-115240139D01*
X144597574Y-115440098D01*
X144675595Y-115628456D01*
X144788863Y-115797974D01*
X144933026Y-115942137D01*
X145102544Y-116055405D01*
X145290902Y-116133426D01*
X145490861Y-116173200D01*
X145694739Y-116173200D01*
X145894698Y-116133426D01*
X146083056Y-116055405D01*
X146252574Y-115942137D01*
X146396737Y-115797974D01*
X146510005Y-115628456D01*
X146588026Y-115440098D01*
X146627800Y-115240139D01*
X146627800Y-115036261D01*
X146588026Y-114836302D01*
X146510005Y-114647944D01*
X146396737Y-114478426D01*
X146350557Y-114432246D01*
X146433805Y-114307656D01*
X146511826Y-114119298D01*
X146551600Y-113919339D01*
X146551600Y-113715461D01*
X146511826Y-113515502D01*
X146433805Y-113327144D01*
X146320537Y-113157626D01*
X146176374Y-113013463D01*
X146006856Y-112900195D01*
X145818498Y-112822174D01*
X145618539Y-112782400D01*
X145414661Y-112782400D01*
X145214702Y-112822174D01*
X145026344Y-112900195D01*
X144856826Y-113013463D01*
X144787889Y-113082400D01*
X143393696Y-113082400D01*
X143357599Y-113078845D01*
X143321502Y-113082400D01*
X143321495Y-113082400D01*
X143227732Y-113091635D01*
X143213514Y-113093035D01*
X143181268Y-113102817D01*
X143074967Y-113135063D01*
X142947280Y-113203313D01*
X142835362Y-113295162D01*
X142812341Y-113323213D01*
X142711008Y-113424546D01*
X142682962Y-113447563D01*
X142670200Y-113463113D01*
X142670200Y-112750261D01*
X149206000Y-112750261D01*
X149206000Y-112954139D01*
X149245774Y-113154098D01*
X149323795Y-113342456D01*
X149437063Y-113511974D01*
X149564427Y-113639338D01*
X149552395Y-113657344D01*
X149474374Y-113845702D01*
X149434600Y-114045661D01*
X149434600Y-114249539D01*
X149474374Y-114449498D01*
X149552395Y-114637856D01*
X149665663Y-114807374D01*
X149809826Y-114951537D01*
X149974922Y-115061851D01*
X149931574Y-115166502D01*
X149891800Y-115366461D01*
X149891800Y-115570339D01*
X149931574Y-115770298D01*
X150009595Y-115958656D01*
X150122863Y-116128174D01*
X150267026Y-116272337D01*
X150436544Y-116385605D01*
X150624902Y-116463626D01*
X150824861Y-116503400D01*
X151028739Y-116503400D01*
X151228698Y-116463626D01*
X151417056Y-116385605D01*
X151586574Y-116272337D01*
X151730737Y-116128174D01*
X151844005Y-115958656D01*
X151922026Y-115770298D01*
X151961800Y-115570339D01*
X151961800Y-115366461D01*
X151922026Y-115166502D01*
X151844005Y-114978144D01*
X151730737Y-114808626D01*
X151586574Y-114664463D01*
X151421478Y-114554149D01*
X151464826Y-114449498D01*
X151504600Y-114249539D01*
X151504600Y-114045661D01*
X151464826Y-113845702D01*
X151386805Y-113657344D01*
X151273537Y-113487826D01*
X151146173Y-113360462D01*
X151158205Y-113342456D01*
X151236226Y-113154098D01*
X151276000Y-112954139D01*
X151276000Y-112750261D01*
X151236226Y-112550302D01*
X151158205Y-112361944D01*
X151044937Y-112192426D01*
X150900774Y-112048263D01*
X150731256Y-111934995D01*
X150542898Y-111856974D01*
X150342939Y-111817200D01*
X150139061Y-111817200D01*
X149939102Y-111856974D01*
X149750744Y-111934995D01*
X149581226Y-112048263D01*
X149437063Y-112192426D01*
X149323795Y-112361944D01*
X149245774Y-112550302D01*
X149206000Y-112750261D01*
X142670200Y-112750261D01*
X142670200Y-111607246D01*
X143330585Y-110946861D01*
X145802400Y-110946861D01*
X145802400Y-111150739D01*
X145842174Y-111350698D01*
X145920195Y-111539056D01*
X146033463Y-111708574D01*
X146177626Y-111852737D01*
X146347144Y-111966005D01*
X146535502Y-112044026D01*
X146735461Y-112083800D01*
X146939339Y-112083800D01*
X147139298Y-112044026D01*
X147327656Y-111966005D01*
X147497174Y-111852737D01*
X147641337Y-111708574D01*
X147754605Y-111539056D01*
X147832626Y-111350698D01*
X147853531Y-111245600D01*
X147904539Y-111245600D01*
X148104498Y-111205826D01*
X148292856Y-111127805D01*
X148462374Y-111014537D01*
X148606537Y-110870374D01*
X148719805Y-110700856D01*
X148797826Y-110512498D01*
X148837600Y-110312539D01*
X148837600Y-110108661D01*
X148797826Y-109908702D01*
X148719805Y-109720344D01*
X148606537Y-109550826D01*
X148462374Y-109406663D01*
X148292856Y-109293395D01*
X148104498Y-109215374D01*
X147904539Y-109175600D01*
X147700661Y-109175600D01*
X147500702Y-109215374D01*
X147312344Y-109293395D01*
X147142826Y-109406663D01*
X146998663Y-109550826D01*
X146885395Y-109720344D01*
X146807374Y-109908702D01*
X146786469Y-110013800D01*
X146735461Y-110013800D01*
X146535502Y-110053574D01*
X146347144Y-110131595D01*
X146177626Y-110244863D01*
X146033463Y-110389026D01*
X145920195Y-110558544D01*
X145842174Y-110746902D01*
X145802400Y-110946861D01*
X143330585Y-110946861D01*
X144144647Y-110132800D01*
X144489895Y-110132800D01*
X144526000Y-110136356D01*
X144562105Y-110132800D01*
X144670085Y-110122165D01*
X144808633Y-110080137D01*
X144936320Y-110011887D01*
X145048238Y-109920038D01*
X145071258Y-109891988D01*
X145419446Y-109543800D01*
X145440739Y-109543800D01*
X145640698Y-109504026D01*
X145829056Y-109426005D01*
X145998574Y-109312737D01*
X146142737Y-109168574D01*
X146256005Y-108999056D01*
X146334026Y-108810698D01*
X146373800Y-108610739D01*
X146373800Y-108406861D01*
X146334026Y-108206902D01*
X146256005Y-108018544D01*
X146142737Y-107849026D01*
X145998574Y-107704863D01*
X145829056Y-107591595D01*
X145640698Y-107513574D01*
X145440739Y-107473800D01*
X145236861Y-107473800D01*
X145043894Y-107512183D01*
X145007974Y-107476263D01*
X144838456Y-107362995D01*
X144650098Y-107284974D01*
X144450139Y-107245200D01*
X144246261Y-107245200D01*
X144046302Y-107284974D01*
X143857944Y-107362995D01*
X143688426Y-107476263D01*
X143544263Y-107620426D01*
X143430995Y-107789944D01*
X143352974Y-107978302D01*
X143313200Y-108178261D01*
X143313200Y-108326553D01*
X140171008Y-111468746D01*
X140142962Y-111491763D01*
X140051113Y-111603681D01*
X139982863Y-111731368D01*
X139972665Y-111764987D01*
X139940835Y-111869915D01*
X139926644Y-112014000D01*
X139930200Y-112050105D01*
X139930201Y-115298488D01*
X139861263Y-115367426D01*
X139747995Y-115536944D01*
X139669974Y-115725302D01*
X139630200Y-115925261D01*
X137551812Y-115925261D01*
X137416899Y-115822299D01*
X136843566Y-115235808D01*
X135167585Y-111384617D01*
X135127600Y-110748676D01*
X135127600Y-110331200D01*
X135179139Y-110331200D01*
X135350920Y-110297031D01*
X135458826Y-110404937D01*
X135628344Y-110518205D01*
X135816702Y-110596226D01*
X136016661Y-110636000D01*
X136220539Y-110636000D01*
X136420498Y-110596226D01*
X136608856Y-110518205D01*
X136778374Y-110404937D01*
X136922537Y-110260774D01*
X137035805Y-110091256D01*
X137113826Y-109902898D01*
X137153600Y-109702939D01*
X137153600Y-109499061D01*
X137471200Y-109499061D01*
X137471200Y-109702939D01*
X137510974Y-109902898D01*
X137588995Y-110091256D01*
X137702263Y-110260774D01*
X137846426Y-110404937D01*
X138015944Y-110518205D01*
X138204302Y-110596226D01*
X138404261Y-110636000D01*
X138608139Y-110636000D01*
X138808098Y-110596226D01*
X138996456Y-110518205D01*
X139165974Y-110404937D01*
X139310137Y-110260774D01*
X139423405Y-110091256D01*
X139501426Y-109902898D01*
X139541200Y-109702939D01*
X139541200Y-109499061D01*
X139501426Y-109299102D01*
X139423405Y-109110744D01*
X139310137Y-108941226D01*
X139165974Y-108797063D01*
X138996456Y-108683795D01*
X138808098Y-108605774D01*
X138608139Y-108566000D01*
X138404261Y-108566000D01*
X138204302Y-108605774D01*
X138015944Y-108683795D01*
X137846426Y-108797063D01*
X137702263Y-108941226D01*
X137588995Y-109110744D01*
X137510974Y-109299102D01*
X137471200Y-109499061D01*
X137153600Y-109499061D01*
X137113826Y-109299102D01*
X137035805Y-109110744D01*
X136922537Y-108941226D01*
X136778374Y-108797063D01*
X136608856Y-108683795D01*
X136420498Y-108605774D01*
X136220539Y-108566000D01*
X136016661Y-108566000D01*
X135844880Y-108600169D01*
X135736974Y-108492263D01*
X135567456Y-108378995D01*
X135379098Y-108300974D01*
X135179139Y-108261200D01*
X135127600Y-108261200D01*
X135127600Y-106959061D01*
X140951000Y-106959061D01*
X140951000Y-107162939D01*
X140990774Y-107362898D01*
X141068795Y-107551256D01*
X141182063Y-107720774D01*
X141326226Y-107864937D01*
X141495744Y-107978205D01*
X141684102Y-108056226D01*
X141884061Y-108096000D01*
X142087939Y-108096000D01*
X142287898Y-108056226D01*
X142476256Y-107978205D01*
X142645774Y-107864937D01*
X142789937Y-107720774D01*
X142844710Y-107638800D01*
X142951539Y-107638800D01*
X143151498Y-107599026D01*
X143339856Y-107521005D01*
X143509374Y-107407737D01*
X143653537Y-107263574D01*
X143766805Y-107094056D01*
X143844826Y-106905698D01*
X143884600Y-106705739D01*
X143884600Y-106501861D01*
X143844826Y-106301902D01*
X143766805Y-106113544D01*
X143653537Y-105944026D01*
X143509374Y-105799863D01*
X143339856Y-105686595D01*
X143151498Y-105608574D01*
X142951539Y-105568800D01*
X142747661Y-105568800D01*
X142547702Y-105608574D01*
X142359344Y-105686595D01*
X142189826Y-105799863D01*
X142045663Y-105944026D01*
X141990890Y-106026000D01*
X141884061Y-106026000D01*
X141684102Y-106065774D01*
X141495744Y-106143795D01*
X141326226Y-106257063D01*
X141182063Y-106401226D01*
X141068795Y-106570744D01*
X140990774Y-106759102D01*
X140951000Y-106959061D01*
X135127600Y-106959061D01*
X135127600Y-104588707D01*
X135324368Y-104785475D01*
X135567589Y-104947990D01*
X135837842Y-105059932D01*
X136124740Y-105117000D01*
X136417260Y-105117000D01*
X136704158Y-105059932D01*
X136974411Y-104947990D01*
X137217632Y-104785475D01*
X137424475Y-104578632D01*
X137586990Y-104335411D01*
X137698932Y-104065158D01*
X137756000Y-103778260D01*
X137756000Y-103485740D01*
X137698932Y-103198842D01*
X137586990Y-102928589D01*
X137424475Y-102685368D01*
X137292620Y-102553513D01*
X137365180Y-102531502D01*
X137475494Y-102472537D01*
X137572185Y-102393185D01*
X137651537Y-102296494D01*
X137710502Y-102186180D01*
X137746812Y-102066482D01*
X137759072Y-101942000D01*
X137756000Y-101377750D01*
X137597250Y-101219000D01*
X136398000Y-101219000D01*
X136398000Y-101239000D01*
X136144000Y-101239000D01*
X136144000Y-101219000D01*
X136124000Y-101219000D01*
X136124000Y-100965000D01*
X136144000Y-100965000D01*
X136144000Y-99765750D01*
X136398000Y-99765750D01*
X136398000Y-100965000D01*
X137597250Y-100965000D01*
X137648389Y-100913861D01*
X144684800Y-100913861D01*
X144684800Y-101117739D01*
X144724574Y-101317698D01*
X144802595Y-101506056D01*
X144915863Y-101675574D01*
X145060026Y-101819737D01*
X145229544Y-101933005D01*
X145417902Y-102011026D01*
X145617861Y-102050800D01*
X145821739Y-102050800D01*
X146021698Y-102011026D01*
X146210056Y-101933005D01*
X146379574Y-101819737D01*
X146498050Y-101701261D01*
X150323600Y-101701261D01*
X150323600Y-101905139D01*
X150363374Y-102105098D01*
X150441395Y-102293456D01*
X150554663Y-102462974D01*
X150698826Y-102607137D01*
X150868344Y-102720405D01*
X151056702Y-102798426D01*
X151256661Y-102838200D01*
X151460539Y-102838200D01*
X151595577Y-102811339D01*
X151697163Y-102963374D01*
X151841326Y-103107537D01*
X152010844Y-103220805D01*
X152199202Y-103298826D01*
X152399161Y-103338600D01*
X152603039Y-103338600D01*
X152802998Y-103298826D01*
X152991356Y-103220805D01*
X153160874Y-103107537D01*
X153305037Y-102963374D01*
X153418305Y-102793856D01*
X153496326Y-102605498D01*
X153536100Y-102405539D01*
X153536100Y-102201661D01*
X153496326Y-102001702D01*
X153418305Y-101813344D01*
X153305037Y-101643826D01*
X153160874Y-101499663D01*
X152991356Y-101386395D01*
X152802998Y-101308374D01*
X152603039Y-101268600D01*
X152399161Y-101268600D01*
X152264123Y-101295461D01*
X152162537Y-101143426D01*
X152018374Y-100999263D01*
X151848856Y-100885995D01*
X151660498Y-100807974D01*
X151460539Y-100768200D01*
X151256661Y-100768200D01*
X151056702Y-100807974D01*
X150868344Y-100885995D01*
X150698826Y-100999263D01*
X150554663Y-101143426D01*
X150441395Y-101312944D01*
X150363374Y-101501302D01*
X150323600Y-101701261D01*
X146498050Y-101701261D01*
X146523737Y-101675574D01*
X146637005Y-101506056D01*
X146715026Y-101317698D01*
X146754800Y-101117739D01*
X146754800Y-100913861D01*
X146715026Y-100713902D01*
X146637005Y-100525544D01*
X146523737Y-100356026D01*
X146379574Y-100211863D01*
X146210056Y-100098595D01*
X146021698Y-100020574D01*
X145821739Y-99980800D01*
X145617861Y-99980800D01*
X145417902Y-100020574D01*
X145229544Y-100098595D01*
X145060026Y-100211863D01*
X144915863Y-100356026D01*
X144802595Y-100525544D01*
X144724574Y-100713902D01*
X144684800Y-100913861D01*
X137648389Y-100913861D01*
X137756000Y-100806250D01*
X137759072Y-100242000D01*
X137746812Y-100117518D01*
X137710502Y-99997820D01*
X137651537Y-99887506D01*
X137572185Y-99790815D01*
X137475494Y-99711463D01*
X137365180Y-99652498D01*
X137245482Y-99616188D01*
X137121000Y-99603928D01*
X136556750Y-99607000D01*
X136398000Y-99765750D01*
X136144000Y-99765750D01*
X135985250Y-99607000D01*
X135508898Y-99604407D01*
X136323023Y-97767661D01*
X137877600Y-97767661D01*
X137877600Y-97971539D01*
X137917374Y-98171498D01*
X137995395Y-98359856D01*
X138108663Y-98529374D01*
X138252826Y-98673537D01*
X138396595Y-98769600D01*
X138252826Y-98865663D01*
X138108663Y-99009826D01*
X137995395Y-99179344D01*
X137917374Y-99367702D01*
X137877600Y-99567661D01*
X137877600Y-99771539D01*
X137917374Y-99971498D01*
X137995395Y-100159856D01*
X138108663Y-100329374D01*
X138252826Y-100473537D01*
X138422344Y-100586805D01*
X138610702Y-100664826D01*
X138810661Y-100704600D01*
X139014539Y-100704600D01*
X139214498Y-100664826D01*
X139402856Y-100586805D01*
X139572374Y-100473537D01*
X139716537Y-100329374D01*
X139829805Y-100159856D01*
X139907826Y-99971498D01*
X139947600Y-99771539D01*
X139947600Y-99567661D01*
X139907826Y-99367702D01*
X139829805Y-99179344D01*
X139716537Y-99009826D01*
X139572374Y-98865663D01*
X139428605Y-98769600D01*
X139572374Y-98673537D01*
X139716537Y-98529374D01*
X139829805Y-98359856D01*
X139907826Y-98171498D01*
X139947600Y-97971539D01*
X139947600Y-97767661D01*
X139907826Y-97567702D01*
X139829805Y-97379344D01*
X139747564Y-97256261D01*
X146031000Y-97256261D01*
X146031000Y-97460139D01*
X146070774Y-97660098D01*
X146148795Y-97848456D01*
X146262063Y-98017974D01*
X146406226Y-98162137D01*
X146575744Y-98275405D01*
X146764102Y-98353426D01*
X146964061Y-98393200D01*
X147167939Y-98393200D01*
X147304481Y-98366040D01*
X147342595Y-98458056D01*
X147455863Y-98627574D01*
X147600026Y-98771737D01*
X147747688Y-98870401D01*
X147608263Y-99009826D01*
X147494995Y-99179344D01*
X147416974Y-99367702D01*
X147377200Y-99567661D01*
X147377200Y-99771539D01*
X147416974Y-99971498D01*
X147494995Y-100159856D01*
X147608263Y-100329374D01*
X147752426Y-100473537D01*
X147921944Y-100586805D01*
X148110302Y-100664826D01*
X148310261Y-100704600D01*
X148514139Y-100704600D01*
X148714098Y-100664826D01*
X148902456Y-100586805D01*
X149071974Y-100473537D01*
X149216137Y-100329374D01*
X149329405Y-100159856D01*
X149407426Y-99971498D01*
X149447200Y-99771539D01*
X149447200Y-99709402D01*
X149761403Y-99395199D01*
X149790401Y-99371401D01*
X149885374Y-99255676D01*
X149955946Y-99123647D01*
X149999403Y-98980386D01*
X150010400Y-98868733D01*
X150010400Y-98868723D01*
X150014076Y-98831400D01*
X150010400Y-98794077D01*
X150010400Y-97446323D01*
X150014076Y-97409000D01*
X150010400Y-97371677D01*
X150010400Y-97371667D01*
X149999403Y-97260014D01*
X149955946Y-97116753D01*
X149941680Y-97090063D01*
X149885374Y-96984723D01*
X149878922Y-96976861D01*
X150907800Y-96976861D01*
X150907800Y-97180739D01*
X150947574Y-97380698D01*
X151025595Y-97569056D01*
X151138863Y-97738574D01*
X151283026Y-97882737D01*
X151452544Y-97996005D01*
X151640902Y-98074026D01*
X151840861Y-98113800D01*
X152044739Y-98113800D01*
X152244698Y-98074026D01*
X152433056Y-97996005D01*
X152602574Y-97882737D01*
X152746737Y-97738574D01*
X152860005Y-97569056D01*
X152938026Y-97380698D01*
X152977800Y-97180739D01*
X152977800Y-96976861D01*
X152938026Y-96776902D01*
X152860005Y-96588544D01*
X152746737Y-96419026D01*
X152602574Y-96274863D01*
X152433056Y-96161595D01*
X152244698Y-96083574D01*
X152044739Y-96043800D01*
X151840861Y-96043800D01*
X151640902Y-96083574D01*
X151452544Y-96161595D01*
X151283026Y-96274863D01*
X151138863Y-96419026D01*
X151025595Y-96588544D01*
X150947574Y-96776902D01*
X150907800Y-96976861D01*
X149878922Y-96976861D01*
X149814199Y-96897997D01*
X149790401Y-96868999D01*
X149761404Y-96845202D01*
X149309046Y-96392845D01*
X149331226Y-96339298D01*
X149371000Y-96139339D01*
X149371000Y-95935461D01*
X149331226Y-95735502D01*
X149253205Y-95547144D01*
X149139937Y-95377626D01*
X148995774Y-95233463D01*
X148826256Y-95120195D01*
X148637898Y-95042174D01*
X148437939Y-95002400D01*
X148234061Y-95002400D01*
X148034102Y-95042174D01*
X147845744Y-95120195D01*
X147676226Y-95233463D01*
X147532063Y-95377626D01*
X147418795Y-95547144D01*
X147340774Y-95735502D01*
X147301000Y-95935461D01*
X147301000Y-96139339D01*
X147340774Y-96339298D01*
X147349026Y-96359220D01*
X147167939Y-96323200D01*
X146964061Y-96323200D01*
X146764102Y-96362974D01*
X146575744Y-96440995D01*
X146406226Y-96554263D01*
X146262063Y-96698426D01*
X146148795Y-96867944D01*
X146070774Y-97056302D01*
X146031000Y-97256261D01*
X139747564Y-97256261D01*
X139716537Y-97209826D01*
X139572374Y-97065663D01*
X139402856Y-96952395D01*
X139214498Y-96874374D01*
X139014539Y-96834600D01*
X138810661Y-96834600D01*
X138610702Y-96874374D01*
X138422344Y-96952395D01*
X138252826Y-97065663D01*
X138108663Y-97209826D01*
X137995395Y-97379344D01*
X137917374Y-97567702D01*
X137877600Y-97767661D01*
X136323023Y-97767661D01*
X136827199Y-96630191D01*
X136831541Y-96624502D01*
X137432822Y-96036710D01*
X140976541Y-94408515D01*
X141087755Y-94386595D01*
X141905167Y-94335200D01*
X151410894Y-94335200D01*
X152413603Y-94407955D01*
M02*
