M48
; DRILL file {KiCad (5.1.5)-3} date 8/20/2021 7:44:21 AM
; FORMAT={-:-/ absolute / inch / decimal}
; #@! TF.CreationDate,2021-08-20T07:44:21+02:00
; #@! TF.GenerationSoftware,Kicad,Pcbnew,(5.1.5)-3
; #@! TF.FileFunction,Plated,1,4,PTH
FMAT,2
INCH
T1C0.0157
T2C0.0394
%
G90
G05
T1
X5.318Y-4.303
X5.359Y-4.315
X5.4Y-3.916
X5.408Y-4.494
X5.449Y-4.038
X5.453Y-4.315
X5.469Y-3.8531
X5.469Y-3.924
X5.496Y-4.32
X5.538Y-4.568
X5.56Y-4.152
X5.588Y-4.571
X5.59Y-4.215
X5.591Y-4.257
X5.624Y-4.197
X5.626Y-4.0277
X5.637Y-4.793
X5.638Y-4.565
X5.6457Y-4.0749
X5.654Y-4.615
X5.669Y-4.413
X5.683Y-4.263
X5.708Y-4.741
X5.708Y-4.788
X5.708Y-4.841
X5.708Y-4.891
X5.708Y-4.941
X5.711Y-4.672
X5.722Y-4.272
X5.729Y-4.481
X5.732Y-4.533
X5.737Y-3.977
X5.747Y-4.4
X5.781Y-4.372
X5.79Y-3.833
X5.819Y-4.339
X5.837Y-3.857
X5.84Y-3.781
X5.843Y-3.924
X5.863Y-4.743
X5.863Y-4.793
X5.863Y-4.841
X5.863Y-4.892
X5.863Y-4.942
X5.9Y-3.99
X5.915Y-4.443
X5.924Y-4.494
X5.927Y-4.699
X5.942Y-4.546
X5.9482Y-3.8978
X5.955Y-3.751
X5.959Y-4.008
X5.982Y-3.822
X6.0Y-3.9096
X6.004Y-4.0277
X6.0434Y-3.9096
X6.073Y-4.208
X6.073Y-4.25
X6.073Y-4.29
X6.073Y-4.327
X6.0867Y-3.9017
X6.115Y-4.138
X6.15Y-4.173
X6.1733Y-4.0434
X6.1733Y-4.0828
X6.179Y-4.209
X6.179Y-4.251
X6.179Y-4.325
X6.2048Y-4.0277
X6.228Y-4.29
X5.815Y-4.1025
X5.815Y-4.1497
X5.815Y-4.197
X5.815Y-4.2442
X5.8622Y-4.1025
X5.8622Y-4.1497
X5.8622Y-4.197
X5.8622Y-4.2442
X5.9095Y-4.1025
X5.9095Y-4.1497
X5.9095Y-4.197
X5.9095Y-4.2442
X5.9567Y-4.1025
X5.9567Y-4.1497
X5.9567Y-4.197
X5.9567Y-4.2442
T2
X5.365Y-3.98
X5.365Y-4.08
X5.691Y-5.027
X5.791Y-5.027
X5.891Y-5.027
T0
M30
