G04 #@! TF.GenerationSoftware,KiCad,Pcbnew,(5.1.5)-3*
G04 #@! TF.CreationDate,2021-08-20T07:44:17+02:00*
G04 #@! TF.ProjectId,nRF52832_qfaa,6e524635-3238-4333-925f-716661612e6b,rev?*
G04 #@! TF.SameCoordinates,Original*
G04 #@! TF.FileFunction,Soldermask,Bot*
G04 #@! TF.FilePolarity,Negative*
%FSLAX46Y46*%
G04 Gerber Fmt 4.6, Leading zero omitted, Abs format (unit mm)*
G04 Created by KiCad (PCBNEW (5.1.5)-3) date 2021-08-20 07:44:17*
%MOMM*%
%LPD*%
G04 APERTURE LIST*
%ADD10C,0.250000*%
%ADD11C,0.100000*%
G04 APERTURE END LIST*
D10*
X144776644Y-97595980D02*
X144651644Y-96595980D01*
X144770691Y-97548361D02*
X144871882Y-97595980D01*
X145062358Y-97595980D01*
X145151644Y-97548361D01*
X145193310Y-97500742D01*
X145229025Y-97405504D01*
X145193310Y-97119790D01*
X145133786Y-97024552D01*
X145080215Y-96976933D01*
X144979025Y-96929314D01*
X144788548Y-96929314D01*
X144699263Y-96976933D01*
X144300453Y-97595980D02*
X144217120Y-96929314D01*
X144175453Y-96595980D02*
X144229025Y-96643600D01*
X144187358Y-96691219D01*
X144133786Y-96643600D01*
X144175453Y-96595980D01*
X144187358Y-96691219D01*
X143389739Y-97548361D02*
X143490929Y-97595980D01*
X143681405Y-97595980D01*
X143770691Y-97548361D01*
X143812358Y-97500742D01*
X143848072Y-97405504D01*
X143812358Y-97119790D01*
X143752834Y-97024552D01*
X143699263Y-96976933D01*
X143598072Y-96929314D01*
X143407596Y-96929314D01*
X143318310Y-96976933D01*
X143026644Y-96929314D02*
X142645691Y-96929314D01*
X142842120Y-96595980D02*
X142949263Y-97453123D01*
X142913548Y-97548361D01*
X142824263Y-97595980D01*
X142729025Y-97595980D01*
X142252834Y-97595980D02*
X142342120Y-97548361D01*
X142383786Y-97500742D01*
X142419501Y-97405504D01*
X142383786Y-97119790D01*
X142324263Y-97024552D01*
X142270691Y-96976933D01*
X142169501Y-96929314D01*
X142026644Y-96929314D01*
X141937358Y-96976933D01*
X141895691Y-97024552D01*
X141859977Y-97119790D01*
X141895691Y-97405504D01*
X141955215Y-97500742D01*
X142008786Y-97548361D01*
X142109977Y-97595980D01*
X142252834Y-97595980D01*
X141550453Y-96929314D02*
X141169501Y-96929314D01*
X141490929Y-97595980D02*
X141383786Y-96738838D01*
X141324263Y-96643600D01*
X141223072Y-96595980D01*
X141127834Y-96595980D01*
X140407596Y-96929314D02*
X140490929Y-97595980D01*
X140836167Y-96929314D02*
X140901644Y-97453123D01*
X140865929Y-97548361D01*
X140776644Y-97595980D01*
X140633786Y-97595980D01*
X140532596Y-97548361D01*
X140479025Y-97500742D01*
X139931405Y-96929314D02*
X140014739Y-97595980D01*
X139943310Y-97024552D02*
X139889739Y-96976933D01*
X139788548Y-96929314D01*
X139645691Y-96929314D01*
X139556405Y-96976933D01*
X139520691Y-97072171D01*
X139586167Y-97595980D01*
X140967120Y-99345980D02*
X141538548Y-99345980D01*
X141252834Y-99345980D02*
X141127834Y-98345980D01*
X141240929Y-98488838D01*
X141348072Y-98584076D01*
X141449263Y-98631695D01*
X140526644Y-99250742D02*
X140484977Y-99298361D01*
X140538548Y-99345980D01*
X140580215Y-99298361D01*
X140526644Y-99250742D01*
X140538548Y-99345980D01*
X139746882Y-98345980D02*
X139651644Y-98345980D01*
X139562358Y-98393600D01*
X139520691Y-98441219D01*
X139484977Y-98536457D01*
X139461167Y-98726933D01*
X139490929Y-98965028D01*
X139562358Y-99155504D01*
X139621882Y-99250742D01*
X139675453Y-99298361D01*
X139776644Y-99345980D01*
X139871882Y-99345980D01*
X139961167Y-99298361D01*
X140002834Y-99250742D01*
X140038548Y-99155504D01*
X140062358Y-98965028D01*
X140032596Y-98726933D01*
X139961167Y-98536457D01*
X139901644Y-98441219D01*
X139848072Y-98393600D01*
X139746882Y-98345980D01*
D11*
G36*
X145452400Y-128586800D02*
G01*
X143650400Y-128586800D01*
X143650400Y-126784800D01*
X145452400Y-126784800D01*
X145452400Y-128586800D01*
G37*
G36*
X149744912Y-126789727D02*
G01*
X149894212Y-126819424D01*
X150058184Y-126887344D01*
X150205754Y-126985947D01*
X150331253Y-127111446D01*
X150429856Y-127259016D01*
X150497776Y-127422988D01*
X150532400Y-127597059D01*
X150532400Y-127774541D01*
X150497776Y-127948612D01*
X150429856Y-128112584D01*
X150331253Y-128260154D01*
X150205754Y-128385653D01*
X150058184Y-128484256D01*
X149894212Y-128552176D01*
X149744912Y-128581873D01*
X149720142Y-128586800D01*
X149542658Y-128586800D01*
X149517888Y-128581873D01*
X149368588Y-128552176D01*
X149204616Y-128484256D01*
X149057046Y-128385653D01*
X148931547Y-128260154D01*
X148832944Y-128112584D01*
X148765024Y-127948612D01*
X148730400Y-127774541D01*
X148730400Y-127597059D01*
X148765024Y-127422988D01*
X148832944Y-127259016D01*
X148931547Y-127111446D01*
X149057046Y-126985947D01*
X149204616Y-126887344D01*
X149368588Y-126819424D01*
X149517888Y-126789727D01*
X149542658Y-126784800D01*
X149720142Y-126784800D01*
X149744912Y-126789727D01*
G37*
G36*
X147204912Y-126789727D02*
G01*
X147354212Y-126819424D01*
X147518184Y-126887344D01*
X147665754Y-126985947D01*
X147791253Y-127111446D01*
X147889856Y-127259016D01*
X147957776Y-127422988D01*
X147992400Y-127597059D01*
X147992400Y-127774541D01*
X147957776Y-127948612D01*
X147889856Y-128112584D01*
X147791253Y-128260154D01*
X147665754Y-128385653D01*
X147518184Y-128484256D01*
X147354212Y-128552176D01*
X147204912Y-128581873D01*
X147180142Y-128586800D01*
X147002658Y-128586800D01*
X146977888Y-128581873D01*
X146828588Y-128552176D01*
X146664616Y-128484256D01*
X146517046Y-128385653D01*
X146391547Y-128260154D01*
X146292944Y-128112584D01*
X146225024Y-127948612D01*
X146190400Y-127774541D01*
X146190400Y-127597059D01*
X146225024Y-127422988D01*
X146292944Y-127259016D01*
X146391547Y-127111446D01*
X146517046Y-126985947D01*
X146664616Y-126887344D01*
X146828588Y-126819424D01*
X146977888Y-126789727D01*
X147002658Y-126784800D01*
X147180142Y-126784800D01*
X147204912Y-126789727D01*
G37*
G36*
X147863161Y-103669351D02*
G01*
X147964273Y-103711233D01*
X147964275Y-103711234D01*
X148010083Y-103741842D01*
X148055273Y-103772037D01*
X148132663Y-103849427D01*
X148197167Y-103945964D01*
X148212712Y-103964906D01*
X148231654Y-103980451D01*
X148253265Y-103992002D01*
X148276714Y-103999115D01*
X148301100Y-104001517D01*
X148325486Y-103999115D01*
X148348935Y-103992002D01*
X148370546Y-103980451D01*
X148389488Y-103964906D01*
X148405033Y-103945964D01*
X148469537Y-103849427D01*
X148546927Y-103772037D01*
X148592117Y-103741842D01*
X148637925Y-103711234D01*
X148637927Y-103711233D01*
X148739039Y-103669351D01*
X148846377Y-103648000D01*
X148955823Y-103648000D01*
X149063161Y-103669351D01*
X149164273Y-103711233D01*
X149164275Y-103711234D01*
X149210083Y-103741842D01*
X149255273Y-103772037D01*
X149332663Y-103849427D01*
X149397167Y-103945964D01*
X149412712Y-103964906D01*
X149431654Y-103980451D01*
X149453265Y-103992002D01*
X149476714Y-103999115D01*
X149501100Y-104001517D01*
X149525486Y-103999115D01*
X149548935Y-103992002D01*
X149570546Y-103980451D01*
X149589488Y-103964906D01*
X149605033Y-103945964D01*
X149669537Y-103849427D01*
X149746927Y-103772037D01*
X149792117Y-103741842D01*
X149837925Y-103711234D01*
X149837927Y-103711233D01*
X149939039Y-103669351D01*
X150046377Y-103648000D01*
X150155823Y-103648000D01*
X150263161Y-103669351D01*
X150364273Y-103711233D01*
X150364275Y-103711234D01*
X150410083Y-103741842D01*
X150455273Y-103772037D01*
X150532663Y-103849427D01*
X150597167Y-103945964D01*
X150612712Y-103964906D01*
X150631654Y-103980451D01*
X150653265Y-103992002D01*
X150676714Y-103999115D01*
X150701100Y-104001517D01*
X150725486Y-103999115D01*
X150748935Y-103992002D01*
X150770546Y-103980451D01*
X150789488Y-103964906D01*
X150805033Y-103945964D01*
X150869537Y-103849427D01*
X150946927Y-103772037D01*
X150992117Y-103741842D01*
X151037925Y-103711234D01*
X151037927Y-103711233D01*
X151139039Y-103669351D01*
X151246377Y-103648000D01*
X151355823Y-103648000D01*
X151463161Y-103669351D01*
X151564273Y-103711233D01*
X151564275Y-103711234D01*
X151610083Y-103741842D01*
X151655273Y-103772037D01*
X151732663Y-103849427D01*
X151793467Y-103940427D01*
X151835349Y-104041539D01*
X151856700Y-104148877D01*
X151856700Y-104258323D01*
X151835349Y-104365661D01*
X151793467Y-104466773D01*
X151732663Y-104557773D01*
X151655273Y-104635163D01*
X151558736Y-104699667D01*
X151539794Y-104715212D01*
X151524249Y-104734154D01*
X151512698Y-104755765D01*
X151505585Y-104779214D01*
X151503183Y-104803600D01*
X151505585Y-104827986D01*
X151512698Y-104851435D01*
X151524249Y-104873046D01*
X151539794Y-104891988D01*
X151558736Y-104907533D01*
X151655273Y-104972037D01*
X151732663Y-105049427D01*
X151793467Y-105140427D01*
X151835349Y-105241539D01*
X151856700Y-105348877D01*
X151856700Y-105458323D01*
X151835349Y-105565661D01*
X151793467Y-105666773D01*
X151732663Y-105757773D01*
X151655273Y-105835163D01*
X151558736Y-105899667D01*
X151539794Y-105915212D01*
X151524249Y-105934154D01*
X151512698Y-105955765D01*
X151505585Y-105979214D01*
X151503183Y-106003600D01*
X151505585Y-106027986D01*
X151512698Y-106051435D01*
X151524249Y-106073046D01*
X151539794Y-106091988D01*
X151558736Y-106107533D01*
X151655273Y-106172037D01*
X151732663Y-106249427D01*
X151793467Y-106340427D01*
X151835349Y-106441539D01*
X151856700Y-106548877D01*
X151856700Y-106658323D01*
X151835349Y-106765661D01*
X151793467Y-106866773D01*
X151732663Y-106957773D01*
X151655273Y-107035163D01*
X151558736Y-107099667D01*
X151539794Y-107115212D01*
X151524249Y-107134154D01*
X151512698Y-107155765D01*
X151505585Y-107179214D01*
X151503183Y-107203600D01*
X151505585Y-107227986D01*
X151512698Y-107251435D01*
X151524249Y-107273046D01*
X151539794Y-107291988D01*
X151558736Y-107307533D01*
X151655273Y-107372037D01*
X151732663Y-107449427D01*
X151793467Y-107540427D01*
X151835349Y-107641539D01*
X151856700Y-107748877D01*
X151856700Y-107858323D01*
X151835349Y-107965661D01*
X151793467Y-108066773D01*
X151793466Y-108066775D01*
X151732662Y-108157774D01*
X151655274Y-108235162D01*
X151564275Y-108295966D01*
X151564274Y-108295967D01*
X151564273Y-108295967D01*
X151463161Y-108337849D01*
X151355823Y-108359200D01*
X151246377Y-108359200D01*
X151139039Y-108337849D01*
X151037927Y-108295967D01*
X151037926Y-108295967D01*
X151037925Y-108295966D01*
X150946926Y-108235162D01*
X150869538Y-108157774D01*
X150808734Y-108066775D01*
X150808733Y-108066773D01*
X150805033Y-108061236D01*
X150789488Y-108042294D01*
X150770546Y-108026749D01*
X150748935Y-108015198D01*
X150725486Y-108008085D01*
X150701100Y-108005683D01*
X150676714Y-108008085D01*
X150653265Y-108015198D01*
X150631654Y-108026749D01*
X150612712Y-108042294D01*
X150597167Y-108061236D01*
X150593467Y-108066773D01*
X150593466Y-108066775D01*
X150532662Y-108157774D01*
X150455274Y-108235162D01*
X150364275Y-108295966D01*
X150364274Y-108295967D01*
X150364273Y-108295967D01*
X150263161Y-108337849D01*
X150155823Y-108359200D01*
X150046377Y-108359200D01*
X149939039Y-108337849D01*
X149837927Y-108295967D01*
X149837926Y-108295967D01*
X149837925Y-108295966D01*
X149746926Y-108235162D01*
X149669538Y-108157774D01*
X149608734Y-108066775D01*
X149608733Y-108066773D01*
X149605033Y-108061236D01*
X149589488Y-108042294D01*
X149570546Y-108026749D01*
X149548935Y-108015198D01*
X149525486Y-108008085D01*
X149501100Y-108005683D01*
X149476714Y-108008085D01*
X149453265Y-108015198D01*
X149431654Y-108026749D01*
X149412712Y-108042294D01*
X149397167Y-108061236D01*
X149393467Y-108066773D01*
X149393466Y-108066775D01*
X149332662Y-108157774D01*
X149255274Y-108235162D01*
X149164275Y-108295966D01*
X149164274Y-108295967D01*
X149164273Y-108295967D01*
X149063161Y-108337849D01*
X148955823Y-108359200D01*
X148846377Y-108359200D01*
X148739039Y-108337849D01*
X148637927Y-108295967D01*
X148637926Y-108295967D01*
X148637925Y-108295966D01*
X148546926Y-108235162D01*
X148469538Y-108157774D01*
X148408734Y-108066775D01*
X148408733Y-108066773D01*
X148405033Y-108061236D01*
X148389488Y-108042294D01*
X148370546Y-108026749D01*
X148348935Y-108015198D01*
X148325486Y-108008085D01*
X148301100Y-108005683D01*
X148276714Y-108008085D01*
X148253265Y-108015198D01*
X148231654Y-108026749D01*
X148212712Y-108042294D01*
X148197167Y-108061236D01*
X148193467Y-108066773D01*
X148193466Y-108066775D01*
X148132662Y-108157774D01*
X148055274Y-108235162D01*
X147964275Y-108295966D01*
X147964274Y-108295967D01*
X147964273Y-108295967D01*
X147863161Y-108337849D01*
X147755823Y-108359200D01*
X147646377Y-108359200D01*
X147539039Y-108337849D01*
X147437927Y-108295967D01*
X147437926Y-108295967D01*
X147437925Y-108295966D01*
X147346926Y-108235162D01*
X147269538Y-108157774D01*
X147208734Y-108066775D01*
X147208733Y-108066773D01*
X147166851Y-107965661D01*
X147145500Y-107858323D01*
X147145500Y-107748877D01*
X147166851Y-107641539D01*
X147208733Y-107540427D01*
X147269537Y-107449427D01*
X147346927Y-107372037D01*
X147443464Y-107307533D01*
X147462406Y-107291988D01*
X147477951Y-107273046D01*
X147489502Y-107251435D01*
X147496615Y-107227986D01*
X147499017Y-107203600D01*
X147903183Y-107203600D01*
X147905585Y-107227986D01*
X147912698Y-107251435D01*
X147924249Y-107273046D01*
X147939794Y-107291988D01*
X147958736Y-107307533D01*
X148055273Y-107372037D01*
X148132663Y-107449427D01*
X148197167Y-107545964D01*
X148212712Y-107564906D01*
X148231654Y-107580451D01*
X148253265Y-107592002D01*
X148276714Y-107599115D01*
X148301100Y-107601517D01*
X148325486Y-107599115D01*
X148348935Y-107592002D01*
X148370546Y-107580451D01*
X148389488Y-107564906D01*
X148405033Y-107545964D01*
X148469537Y-107449427D01*
X148546927Y-107372037D01*
X148643464Y-107307533D01*
X148662406Y-107291988D01*
X148677951Y-107273046D01*
X148689502Y-107251435D01*
X148696615Y-107227986D01*
X148699017Y-107203600D01*
X149103183Y-107203600D01*
X149105585Y-107227986D01*
X149112698Y-107251435D01*
X149124249Y-107273046D01*
X149139794Y-107291988D01*
X149158736Y-107307533D01*
X149255273Y-107372037D01*
X149332663Y-107449427D01*
X149397167Y-107545964D01*
X149412712Y-107564906D01*
X149431654Y-107580451D01*
X149453265Y-107592002D01*
X149476714Y-107599115D01*
X149501100Y-107601517D01*
X149525486Y-107599115D01*
X149548935Y-107592002D01*
X149570546Y-107580451D01*
X149589488Y-107564906D01*
X149605033Y-107545964D01*
X149669537Y-107449427D01*
X149746927Y-107372037D01*
X149843464Y-107307533D01*
X149862406Y-107291988D01*
X149877951Y-107273046D01*
X149889502Y-107251435D01*
X149896615Y-107227986D01*
X149899017Y-107203600D01*
X150303183Y-107203600D01*
X150305585Y-107227986D01*
X150312698Y-107251435D01*
X150324249Y-107273046D01*
X150339794Y-107291988D01*
X150358736Y-107307533D01*
X150455273Y-107372037D01*
X150532663Y-107449427D01*
X150597167Y-107545964D01*
X150612712Y-107564906D01*
X150631654Y-107580451D01*
X150653265Y-107592002D01*
X150676714Y-107599115D01*
X150701100Y-107601517D01*
X150725486Y-107599115D01*
X150748935Y-107592002D01*
X150770546Y-107580451D01*
X150789488Y-107564906D01*
X150805033Y-107545964D01*
X150869537Y-107449427D01*
X150946927Y-107372037D01*
X151043464Y-107307533D01*
X151062406Y-107291988D01*
X151077951Y-107273046D01*
X151089502Y-107251435D01*
X151096615Y-107227986D01*
X151099017Y-107203600D01*
X151096615Y-107179214D01*
X151089502Y-107155765D01*
X151077951Y-107134154D01*
X151062406Y-107115212D01*
X151043464Y-107099667D01*
X150946927Y-107035163D01*
X150869537Y-106957773D01*
X150805033Y-106861236D01*
X150789488Y-106842294D01*
X150770546Y-106826749D01*
X150748935Y-106815198D01*
X150725486Y-106808085D01*
X150701100Y-106805683D01*
X150676714Y-106808085D01*
X150653265Y-106815198D01*
X150631654Y-106826749D01*
X150612712Y-106842294D01*
X150597167Y-106861236D01*
X150532663Y-106957773D01*
X150455273Y-107035163D01*
X150358736Y-107099667D01*
X150339794Y-107115212D01*
X150324249Y-107134154D01*
X150312698Y-107155765D01*
X150305585Y-107179214D01*
X150303183Y-107203600D01*
X149899017Y-107203600D01*
X149896615Y-107179214D01*
X149889502Y-107155765D01*
X149877951Y-107134154D01*
X149862406Y-107115212D01*
X149843464Y-107099667D01*
X149746927Y-107035163D01*
X149669537Y-106957773D01*
X149605033Y-106861236D01*
X149589488Y-106842294D01*
X149570546Y-106826749D01*
X149548935Y-106815198D01*
X149525486Y-106808085D01*
X149501100Y-106805683D01*
X149476714Y-106808085D01*
X149453265Y-106815198D01*
X149431654Y-106826749D01*
X149412712Y-106842294D01*
X149397167Y-106861236D01*
X149332663Y-106957773D01*
X149255273Y-107035163D01*
X149158736Y-107099667D01*
X149139794Y-107115212D01*
X149124249Y-107134154D01*
X149112698Y-107155765D01*
X149105585Y-107179214D01*
X149103183Y-107203600D01*
X148699017Y-107203600D01*
X148696615Y-107179214D01*
X148689502Y-107155765D01*
X148677951Y-107134154D01*
X148662406Y-107115212D01*
X148643464Y-107099667D01*
X148546927Y-107035163D01*
X148469537Y-106957773D01*
X148405033Y-106861236D01*
X148389488Y-106842294D01*
X148370546Y-106826749D01*
X148348935Y-106815198D01*
X148325486Y-106808085D01*
X148301100Y-106805683D01*
X148276714Y-106808085D01*
X148253265Y-106815198D01*
X148231654Y-106826749D01*
X148212712Y-106842294D01*
X148197167Y-106861236D01*
X148132663Y-106957773D01*
X148055273Y-107035163D01*
X147958736Y-107099667D01*
X147939794Y-107115212D01*
X147924249Y-107134154D01*
X147912698Y-107155765D01*
X147905585Y-107179214D01*
X147903183Y-107203600D01*
X147499017Y-107203600D01*
X147496615Y-107179214D01*
X147489502Y-107155765D01*
X147477951Y-107134154D01*
X147462406Y-107115212D01*
X147443464Y-107099667D01*
X147346927Y-107035163D01*
X147269537Y-106957773D01*
X147208733Y-106866773D01*
X147166851Y-106765661D01*
X147145500Y-106658323D01*
X147145500Y-106548877D01*
X147166851Y-106441539D01*
X147208733Y-106340427D01*
X147269537Y-106249427D01*
X147346927Y-106172037D01*
X147443464Y-106107533D01*
X147462406Y-106091988D01*
X147477951Y-106073046D01*
X147489502Y-106051435D01*
X147496615Y-106027986D01*
X147499017Y-106003600D01*
X147903183Y-106003600D01*
X147905585Y-106027986D01*
X147912698Y-106051435D01*
X147924249Y-106073046D01*
X147939794Y-106091988D01*
X147958736Y-106107533D01*
X148055273Y-106172037D01*
X148132663Y-106249427D01*
X148197167Y-106345964D01*
X148212712Y-106364906D01*
X148231654Y-106380451D01*
X148253265Y-106392002D01*
X148276714Y-106399115D01*
X148301100Y-106401517D01*
X148325486Y-106399115D01*
X148348935Y-106392002D01*
X148370546Y-106380451D01*
X148389488Y-106364906D01*
X148405033Y-106345964D01*
X148469537Y-106249427D01*
X148546927Y-106172037D01*
X148643464Y-106107533D01*
X148662406Y-106091988D01*
X148677951Y-106073046D01*
X148689502Y-106051435D01*
X148696615Y-106027986D01*
X148699017Y-106003600D01*
X149103183Y-106003600D01*
X149105585Y-106027986D01*
X149112698Y-106051435D01*
X149124249Y-106073046D01*
X149139794Y-106091988D01*
X149158736Y-106107533D01*
X149255273Y-106172037D01*
X149332663Y-106249427D01*
X149397167Y-106345964D01*
X149412712Y-106364906D01*
X149431654Y-106380451D01*
X149453265Y-106392002D01*
X149476714Y-106399115D01*
X149501100Y-106401517D01*
X149525486Y-106399115D01*
X149548935Y-106392002D01*
X149570546Y-106380451D01*
X149589488Y-106364906D01*
X149605033Y-106345964D01*
X149669537Y-106249427D01*
X149746927Y-106172037D01*
X149843464Y-106107533D01*
X149862406Y-106091988D01*
X149877951Y-106073046D01*
X149889502Y-106051435D01*
X149896615Y-106027986D01*
X149899017Y-106003600D01*
X150303183Y-106003600D01*
X150305585Y-106027986D01*
X150312698Y-106051435D01*
X150324249Y-106073046D01*
X150339794Y-106091988D01*
X150358736Y-106107533D01*
X150455273Y-106172037D01*
X150532663Y-106249427D01*
X150597167Y-106345964D01*
X150612712Y-106364906D01*
X150631654Y-106380451D01*
X150653265Y-106392002D01*
X150676714Y-106399115D01*
X150701100Y-106401517D01*
X150725486Y-106399115D01*
X150748935Y-106392002D01*
X150770546Y-106380451D01*
X150789488Y-106364906D01*
X150805033Y-106345964D01*
X150869537Y-106249427D01*
X150946927Y-106172037D01*
X151043464Y-106107533D01*
X151062406Y-106091988D01*
X151077951Y-106073046D01*
X151089502Y-106051435D01*
X151096615Y-106027986D01*
X151099017Y-106003600D01*
X151096615Y-105979214D01*
X151089502Y-105955765D01*
X151077951Y-105934154D01*
X151062406Y-105915212D01*
X151043464Y-105899667D01*
X150946927Y-105835163D01*
X150869537Y-105757773D01*
X150805033Y-105661236D01*
X150789488Y-105642294D01*
X150770546Y-105626749D01*
X150748935Y-105615198D01*
X150725486Y-105608085D01*
X150701100Y-105605683D01*
X150676714Y-105608085D01*
X150653265Y-105615198D01*
X150631654Y-105626749D01*
X150612712Y-105642294D01*
X150597167Y-105661236D01*
X150532663Y-105757773D01*
X150455273Y-105835163D01*
X150358736Y-105899667D01*
X150339794Y-105915212D01*
X150324249Y-105934154D01*
X150312698Y-105955765D01*
X150305585Y-105979214D01*
X150303183Y-106003600D01*
X149899017Y-106003600D01*
X149896615Y-105979214D01*
X149889502Y-105955765D01*
X149877951Y-105934154D01*
X149862406Y-105915212D01*
X149843464Y-105899667D01*
X149746927Y-105835163D01*
X149669537Y-105757773D01*
X149605033Y-105661236D01*
X149589488Y-105642294D01*
X149570546Y-105626749D01*
X149548935Y-105615198D01*
X149525486Y-105608085D01*
X149501100Y-105605683D01*
X149476714Y-105608085D01*
X149453265Y-105615198D01*
X149431654Y-105626749D01*
X149412712Y-105642294D01*
X149397167Y-105661236D01*
X149332663Y-105757773D01*
X149255273Y-105835163D01*
X149158736Y-105899667D01*
X149139794Y-105915212D01*
X149124249Y-105934154D01*
X149112698Y-105955765D01*
X149105585Y-105979214D01*
X149103183Y-106003600D01*
X148699017Y-106003600D01*
X148696615Y-105979214D01*
X148689502Y-105955765D01*
X148677951Y-105934154D01*
X148662406Y-105915212D01*
X148643464Y-105899667D01*
X148546927Y-105835163D01*
X148469537Y-105757773D01*
X148405033Y-105661236D01*
X148389488Y-105642294D01*
X148370546Y-105626749D01*
X148348935Y-105615198D01*
X148325486Y-105608085D01*
X148301100Y-105605683D01*
X148276714Y-105608085D01*
X148253265Y-105615198D01*
X148231654Y-105626749D01*
X148212712Y-105642294D01*
X148197167Y-105661236D01*
X148132663Y-105757773D01*
X148055273Y-105835163D01*
X147958736Y-105899667D01*
X147939794Y-105915212D01*
X147924249Y-105934154D01*
X147912698Y-105955765D01*
X147905585Y-105979214D01*
X147903183Y-106003600D01*
X147499017Y-106003600D01*
X147496615Y-105979214D01*
X147489502Y-105955765D01*
X147477951Y-105934154D01*
X147462406Y-105915212D01*
X147443464Y-105899667D01*
X147346927Y-105835163D01*
X147269537Y-105757773D01*
X147208733Y-105666773D01*
X147166851Y-105565661D01*
X147145500Y-105458323D01*
X147145500Y-105348877D01*
X147166851Y-105241539D01*
X147208733Y-105140427D01*
X147269537Y-105049427D01*
X147346927Y-104972037D01*
X147443464Y-104907533D01*
X147462406Y-104891988D01*
X147477951Y-104873046D01*
X147489502Y-104851435D01*
X147496615Y-104827986D01*
X147499017Y-104803600D01*
X147903183Y-104803600D01*
X147905585Y-104827986D01*
X147912698Y-104851435D01*
X147924249Y-104873046D01*
X147939794Y-104891988D01*
X147958736Y-104907533D01*
X148055273Y-104972037D01*
X148132663Y-105049427D01*
X148197167Y-105145964D01*
X148212712Y-105164906D01*
X148231654Y-105180451D01*
X148253265Y-105192002D01*
X148276714Y-105199115D01*
X148301100Y-105201517D01*
X148325486Y-105199115D01*
X148348935Y-105192002D01*
X148370546Y-105180451D01*
X148389488Y-105164906D01*
X148405033Y-105145964D01*
X148469537Y-105049427D01*
X148546927Y-104972037D01*
X148643464Y-104907533D01*
X148662406Y-104891988D01*
X148677951Y-104873046D01*
X148689502Y-104851435D01*
X148696615Y-104827986D01*
X148699017Y-104803600D01*
X149103183Y-104803600D01*
X149105585Y-104827986D01*
X149112698Y-104851435D01*
X149124249Y-104873046D01*
X149139794Y-104891988D01*
X149158736Y-104907533D01*
X149255273Y-104972037D01*
X149332663Y-105049427D01*
X149397167Y-105145964D01*
X149412712Y-105164906D01*
X149431654Y-105180451D01*
X149453265Y-105192002D01*
X149476714Y-105199115D01*
X149501100Y-105201517D01*
X149525486Y-105199115D01*
X149548935Y-105192002D01*
X149570546Y-105180451D01*
X149589488Y-105164906D01*
X149605033Y-105145964D01*
X149669537Y-105049427D01*
X149746927Y-104972037D01*
X149843464Y-104907533D01*
X149862406Y-104891988D01*
X149877951Y-104873046D01*
X149889502Y-104851435D01*
X149896615Y-104827986D01*
X149899017Y-104803600D01*
X150303183Y-104803600D01*
X150305585Y-104827986D01*
X150312698Y-104851435D01*
X150324249Y-104873046D01*
X150339794Y-104891988D01*
X150358736Y-104907533D01*
X150455273Y-104972037D01*
X150532663Y-105049427D01*
X150597167Y-105145964D01*
X150612712Y-105164906D01*
X150631654Y-105180451D01*
X150653265Y-105192002D01*
X150676714Y-105199115D01*
X150701100Y-105201517D01*
X150725486Y-105199115D01*
X150748935Y-105192002D01*
X150770546Y-105180451D01*
X150789488Y-105164906D01*
X150805033Y-105145964D01*
X150869537Y-105049427D01*
X150946927Y-104972037D01*
X151043464Y-104907533D01*
X151062406Y-104891988D01*
X151077951Y-104873046D01*
X151089502Y-104851435D01*
X151096615Y-104827986D01*
X151099017Y-104803600D01*
X151096615Y-104779214D01*
X151089502Y-104755765D01*
X151077951Y-104734154D01*
X151062406Y-104715212D01*
X151043464Y-104699667D01*
X150946927Y-104635163D01*
X150869537Y-104557773D01*
X150805033Y-104461236D01*
X150789488Y-104442294D01*
X150770546Y-104426749D01*
X150748935Y-104415198D01*
X150725486Y-104408085D01*
X150701100Y-104405683D01*
X150676714Y-104408085D01*
X150653265Y-104415198D01*
X150631654Y-104426749D01*
X150612712Y-104442294D01*
X150597167Y-104461236D01*
X150532663Y-104557773D01*
X150455273Y-104635163D01*
X150358736Y-104699667D01*
X150339794Y-104715212D01*
X150324249Y-104734154D01*
X150312698Y-104755765D01*
X150305585Y-104779214D01*
X150303183Y-104803600D01*
X149899017Y-104803600D01*
X149896615Y-104779214D01*
X149889502Y-104755765D01*
X149877951Y-104734154D01*
X149862406Y-104715212D01*
X149843464Y-104699667D01*
X149746927Y-104635163D01*
X149669537Y-104557773D01*
X149605033Y-104461236D01*
X149589488Y-104442294D01*
X149570546Y-104426749D01*
X149548935Y-104415198D01*
X149525486Y-104408085D01*
X149501100Y-104405683D01*
X149476714Y-104408085D01*
X149453265Y-104415198D01*
X149431654Y-104426749D01*
X149412712Y-104442294D01*
X149397167Y-104461236D01*
X149332663Y-104557773D01*
X149255273Y-104635163D01*
X149158736Y-104699667D01*
X149139794Y-104715212D01*
X149124249Y-104734154D01*
X149112698Y-104755765D01*
X149105585Y-104779214D01*
X149103183Y-104803600D01*
X148699017Y-104803600D01*
X148696615Y-104779214D01*
X148689502Y-104755765D01*
X148677951Y-104734154D01*
X148662406Y-104715212D01*
X148643464Y-104699667D01*
X148546927Y-104635163D01*
X148469537Y-104557773D01*
X148405033Y-104461236D01*
X148389488Y-104442294D01*
X148370546Y-104426749D01*
X148348935Y-104415198D01*
X148325486Y-104408085D01*
X148301100Y-104405683D01*
X148276714Y-104408085D01*
X148253265Y-104415198D01*
X148231654Y-104426749D01*
X148212712Y-104442294D01*
X148197167Y-104461236D01*
X148132663Y-104557773D01*
X148055273Y-104635163D01*
X147958736Y-104699667D01*
X147939794Y-104715212D01*
X147924249Y-104734154D01*
X147912698Y-104755765D01*
X147905585Y-104779214D01*
X147903183Y-104803600D01*
X147499017Y-104803600D01*
X147496615Y-104779214D01*
X147489502Y-104755765D01*
X147477951Y-104734154D01*
X147462406Y-104715212D01*
X147443464Y-104699667D01*
X147346927Y-104635163D01*
X147269537Y-104557773D01*
X147208733Y-104466773D01*
X147166851Y-104365661D01*
X147145500Y-104258323D01*
X147145500Y-104148877D01*
X147166851Y-104041539D01*
X147208733Y-103940427D01*
X147269537Y-103849427D01*
X147346927Y-103772037D01*
X147392117Y-103741842D01*
X147437925Y-103711234D01*
X147437927Y-103711233D01*
X147539039Y-103669351D01*
X147646377Y-103648000D01*
X147755823Y-103648000D01*
X147863161Y-103669351D01*
G37*
G36*
X136384512Y-102735927D02*
G01*
X136533812Y-102765624D01*
X136697784Y-102833544D01*
X136845354Y-102932147D01*
X136970853Y-103057646D01*
X137069456Y-103205216D01*
X137137376Y-103369188D01*
X137172000Y-103543259D01*
X137172000Y-103720741D01*
X137137376Y-103894812D01*
X137069456Y-104058784D01*
X136970853Y-104206354D01*
X136845354Y-104331853D01*
X136697784Y-104430456D01*
X136533812Y-104498376D01*
X136384512Y-104528073D01*
X136359742Y-104533000D01*
X136182258Y-104533000D01*
X136157488Y-104528073D01*
X136008188Y-104498376D01*
X135844216Y-104430456D01*
X135696646Y-104331853D01*
X135571147Y-104206354D01*
X135472544Y-104058784D01*
X135404624Y-103894812D01*
X135370000Y-103720741D01*
X135370000Y-103543259D01*
X135404624Y-103369188D01*
X135472544Y-103205216D01*
X135571147Y-103057646D01*
X135696646Y-102932147D01*
X135844216Y-102833544D01*
X136008188Y-102765624D01*
X136157488Y-102735927D01*
X136182258Y-102731000D01*
X136359742Y-102731000D01*
X136384512Y-102735927D01*
G37*
G36*
X137172000Y-101993000D02*
G01*
X135370000Y-101993000D01*
X135370000Y-100191000D01*
X137172000Y-100191000D01*
X137172000Y-101993000D01*
G37*
M02*
