G04 #@! TF.GenerationSoftware,KiCad,Pcbnew,(6.0.4)*
G04 #@! TF.CreationDate,2022-04-30T14:08:03+02:00*
G04 #@! TF.ProjectId,nRF52832_qfaa,6e524635-3238-4333-925f-716661612e6b,rev?*
G04 #@! TF.SameCoordinates,Original*
G04 #@! TF.FileFunction,Legend,Top*
G04 #@! TF.FilePolarity,Positive*
%FSLAX45Y45*%
G04 Gerber Fmt 4.5, Leading zero omitted, Abs format (unit mm)*
G04 Created by KiCad (PCBNEW (6.0.4)) date 2022-04-30 14:08:03*
%MOMM*%
%LPD*%
G01*
G04 APERTURE LIST*
%ADD10C,0.120000*%
%ADD11C,0.150000*%
%ADD12C,0.200000*%
%ADD13C,0.127000*%
%ADD14C,0.254000*%
G04 APERTURE END LIST*
D10*
X6126480Y-3020060D02*
X6126480Y-2969260D01*
X3413940Y-4048760D02*
G75*
G03*
X3413940Y-4048760I-17961J0D01*
G01*
X6101080Y-2994660D02*
X6126480Y-3020060D01*
X3294380Y-3591560D02*
G75*
G03*
X3294380Y-3591560I-12700J0D01*
G01*
X6761480Y-2981960D02*
G75*
G03*
X6761480Y-2981960I-12700J0D01*
G01*
X6126480Y-2969260D02*
X6101080Y-2994660D01*
D11*
X4181799Y-3103398D02*
X4181799Y-3051017D01*
X4177037Y-3041493D01*
X4167513Y-3036731D01*
X4148466Y-3036731D01*
X4138942Y-3041493D01*
X4181799Y-3098636D02*
X4172275Y-3103398D01*
X4148466Y-3103398D01*
X4138942Y-3098636D01*
X4134180Y-3089112D01*
X4134180Y-3079588D01*
X4138942Y-3070065D01*
X4148466Y-3065303D01*
X4172275Y-3065303D01*
X4181799Y-3060541D01*
X4229418Y-3036731D02*
X4229418Y-3103398D01*
X4229418Y-3046255D02*
X4234180Y-3041493D01*
X4243704Y-3036731D01*
X4257990Y-3036731D01*
X4267513Y-3041493D01*
X4272275Y-3051017D01*
X4272275Y-3103398D01*
X4305609Y-3036731D02*
X4343704Y-3036731D01*
X4319894Y-3003398D02*
X4319894Y-3089112D01*
X4324656Y-3098636D01*
X4334180Y-3103398D01*
X4343704Y-3103398D01*
D12*
X3914488Y-3699260D02*
G75*
G03*
X3914488Y-3699260I-10000J0D01*
G01*
D10*
X4019984Y-3274944D02*
X4019984Y-3253376D01*
X4091984Y-3274944D02*
X4091984Y-3253376D01*
X4051268Y-4012760D02*
X4029700Y-4012760D01*
X4051268Y-4084760D02*
X4029700Y-4084760D01*
X3908088Y-3875676D02*
X3908088Y-3897244D01*
X3836088Y-3875676D02*
X3836088Y-3897244D01*
X4004300Y-3377760D02*
X4025868Y-3377760D01*
X4004300Y-3449760D02*
X4025868Y-3449760D01*
X4892084Y-3942444D02*
X4892084Y-3920876D01*
X4820084Y-3942444D02*
X4820084Y-3920876D01*
X4883584Y-3107044D02*
X4883584Y-3085476D01*
X4955584Y-3107044D02*
X4955584Y-3085476D01*
X4250988Y-3847476D02*
X4250988Y-3869044D01*
X4178988Y-3847476D02*
X4178988Y-3869044D01*
X3895572Y-3564060D02*
X3874004Y-3564060D01*
X3895572Y-3492060D02*
X3874004Y-3492060D01*
X3908272Y-3593660D02*
X3886704Y-3593660D01*
X3908272Y-3665660D02*
X3886704Y-3665660D01*
X4790484Y-3949076D02*
X4790484Y-3970644D01*
X4718484Y-3949076D02*
X4718484Y-3970644D01*
X4616884Y-3949076D02*
X4616884Y-3970644D01*
X4688884Y-3949076D02*
X4688884Y-3970644D01*
X5022204Y-4039796D02*
X5000636Y-4039796D01*
X5022204Y-4111796D02*
X5000636Y-4111796D01*
X5191136Y-4039796D02*
X5212704Y-4039796D01*
X5191136Y-4111796D02*
X5212704Y-4111796D01*
X3232184Y-3002596D02*
X3522184Y-3002596D01*
X3232184Y-3062596D02*
X3232184Y-3002596D01*
X3232184Y-3232596D02*
X3522184Y-3232596D01*
X3618884Y-3172096D02*
X3668884Y-3172096D01*
X3618884Y-2936096D02*
X3668884Y-2936096D01*
X6264080Y-3640444D02*
X6264080Y-3618876D01*
X6192080Y-3640444D02*
X6192080Y-3618876D01*
X6086464Y-3716460D02*
X6064896Y-3716460D01*
X6086464Y-3644460D02*
X6064896Y-3644460D01*
X3506100Y-3945196D02*
X3527668Y-3945196D01*
X3506100Y-4017196D02*
X3527668Y-4017196D01*
X5851768Y-3720660D02*
X5830200Y-3720660D01*
X5851768Y-3792660D02*
X5830200Y-3792660D01*
X6582580Y-4031960D02*
X6827580Y-4031960D01*
X6762580Y-3709960D02*
X6582580Y-3709960D01*
X6359580Y-3293960D02*
X6359580Y-3341460D01*
X6359580Y-3066960D02*
X6359580Y-3019460D01*
X6681580Y-3293960D02*
X6681580Y-3341460D01*
X6681580Y-3341460D02*
X6634080Y-3341460D01*
X6359580Y-3019460D02*
X6407080Y-3019460D01*
X6359580Y-3341460D02*
X6407080Y-3341460D01*
X6681580Y-3066960D02*
X6681580Y-3019460D01*
X6865744Y-3252460D02*
X6835016Y-3252460D01*
X6865744Y-3176460D02*
X6835016Y-3176460D01*
X5856348Y-3921860D02*
X5825620Y-3921860D01*
X5856348Y-3997860D02*
X5825620Y-3997860D01*
X6251380Y-3034676D02*
X6251380Y-3056244D01*
X6179380Y-3034676D02*
X6179380Y-3056244D01*
X6962580Y-3894444D02*
X6962580Y-3872876D01*
X6890580Y-3894444D02*
X6890580Y-3872876D01*
X6444080Y-3525396D02*
X6444080Y-3556124D01*
X6520080Y-3525396D02*
X6520080Y-3556124D01*
X6177380Y-3423796D02*
X6177380Y-3454524D01*
X6253380Y-3423796D02*
X6253380Y-3454524D01*
X6865744Y-3150860D02*
X6835016Y-3150860D01*
X6865744Y-3074860D02*
X6835016Y-3074860D01*
X6253380Y-3220396D02*
X6253380Y-3251124D01*
X6177380Y-3220396D02*
X6177380Y-3251124D01*
X6428580Y-3633460D02*
X6428580Y-3404960D01*
X6281580Y-3404960D02*
X6281580Y-3633460D01*
X6428580Y-3404960D02*
X6281580Y-3404960D01*
X6240580Y-3763760D02*
X6024580Y-3763760D01*
X6240580Y-4079760D02*
X6094580Y-4079760D01*
X6240580Y-4079760D02*
X6240580Y-3986760D01*
X6240580Y-3763760D02*
X6240580Y-3856760D01*
D13*
X4245584Y-3144560D02*
X4245584Y-3204560D01*
X4245584Y-3724560D02*
X4245584Y-3784560D01*
X4885584Y-3204560D02*
X4885584Y-3144560D01*
X4245584Y-3784560D02*
X4305584Y-3784560D01*
X4885584Y-3784560D02*
X4885584Y-3724560D01*
X4825584Y-3784560D02*
X4885584Y-3784560D01*
X4885584Y-3144560D02*
X4825584Y-3144560D01*
X4305584Y-3144560D02*
X4245584Y-3144560D01*
D14*
X4938284Y-3764560D02*
G75*
G03*
X4938284Y-3764560I-12700J0D01*
G01*
D10*
X3627984Y-3375596D02*
X3627984Y-3875596D01*
X3227984Y-3875596D02*
X3227984Y-3475596D01*
X3327984Y-3375596D02*
X3627984Y-3375596D01*
X3627984Y-3875596D02*
X3227984Y-3875596D01*
X5573380Y-2986760D02*
X5573380Y-3586760D01*
X6095380Y-3286760D02*
X6095380Y-3586760D01*
X6861164Y-3284060D02*
X6839596Y-3284060D01*
X6861164Y-3356060D02*
X6839596Y-3356060D01*
X6964580Y-3449196D02*
X6964580Y-3479924D01*
X6888580Y-3449196D02*
X6888580Y-3479924D01*
X6357180Y-3999876D02*
X6357180Y-4021444D01*
X6429180Y-3999876D02*
X6429180Y-4021444D01*
X4587284Y-3977016D02*
X4587284Y-3998584D01*
X4515284Y-3977016D02*
X4515284Y-3998584D01*
X3895600Y-3246560D02*
X3917168Y-3246560D01*
X3895600Y-3174560D02*
X3917168Y-3174560D01*
D12*
X5116784Y-3365896D02*
X5116784Y-3605896D01*
D10*
X4112128Y-3091100D02*
X4120800Y-3091100D01*
X3981800Y-3091100D02*
X4120800Y-3091100D01*
X3981800Y-2954100D02*
X4051300Y-2954100D01*
X4120800Y-3091100D02*
X4120800Y-3078600D01*
X3981800Y-3022600D02*
X3981800Y-2954100D01*
X3981800Y-3091100D02*
X3981800Y-3078600D01*
X3981800Y-3091100D02*
X3990472Y-3091100D01*
X5581800Y-3733800D02*
G75*
G03*
X5581800Y-3733800I-70000J0D01*
G01*
X4354588Y-3876932D02*
X4354588Y-3907660D01*
X4278588Y-3876932D02*
X4278588Y-3907660D01*
X7016900Y-3670300D02*
G75*
G03*
X7016900Y-3670300I-70000J0D01*
G01*
X6376484Y-3779912D02*
X6376484Y-3801480D01*
X6448484Y-3779912D02*
X6448484Y-3801480D01*
X5404000Y-3022600D02*
G75*
G03*
X5404000Y-3022600I-70000J0D01*
G01*
X5454800Y-4013200D02*
G75*
G03*
X5454800Y-4013200I-70000J0D01*
G01*
X5658000Y-4076700D02*
G75*
G03*
X5658000Y-4076700I-70000J0D01*
G01*
X5569100Y-3048000D02*
G75*
G03*
X5569100Y-3048000I-70000J0D01*
G01*
X5099200Y-3009900D02*
G75*
G03*
X5099200Y-3009900I-70000J0D01*
G01*
X5632600Y-3898900D02*
G75*
G03*
X5632600Y-3898900I-70000J0D01*
G01*
X5238900Y-3086100D02*
G75*
G03*
X5238900Y-3086100I-70000J0D01*
G01*
M02*
