G04 #@! TF.GenerationSoftware,KiCad,Pcbnew,(6.0.4)*
G04 #@! TF.CreationDate,2022-04-30T14:08:03+02:00*
G04 #@! TF.ProjectId,nRF52832_qfaa,6e524635-3238-4333-925f-716661612e6b,rev?*
G04 #@! TF.SameCoordinates,Original*
G04 #@! TF.FileFunction,Copper,L2,Inr*
G04 #@! TF.FilePolarity,Positive*
%FSLAX45Y45*%
G04 Gerber Fmt 4.5, Leading zero omitted, Abs format (unit mm)*
G04 Created by KiCad (PCBNEW (6.0.4)) date 2022-04-30 14:08:03*
%MOMM*%
%LPD*%
G01*
G04 APERTURE LIST*
G04 #@! TA.AperFunction,ComponentPad*
%ADD10C,0.500000*%
G04 #@! TD*
G04 #@! TA.AperFunction,ComponentPad*
%ADD11C,0.908000*%
G04 #@! TD*
G04 #@! TA.AperFunction,ComponentPad*
%ADD12C,0.850000*%
G04 #@! TD*
G04 #@! TA.AperFunction,ViaPad*
%ADD13C,0.600000*%
G04 #@! TD*
G04 #@! TA.AperFunction,ViaPad*
%ADD14C,0.450000*%
G04 #@! TD*
G04 #@! TA.AperFunction,Conductor*
%ADD15C,0.150000*%
G04 #@! TD*
G04 #@! TA.AperFunction,Conductor*
%ADD16C,0.127000*%
G04 #@! TD*
G04 #@! TA.AperFunction,Conductor*
%ADD17C,0.200000*%
G04 #@! TD*
G04 APERTURE END LIST*
D10*
X6473080Y-3132960D03*
X6568080Y-3132960D03*
X6568080Y-3227960D03*
X6473080Y-3227960D03*
D11*
X4745584Y-3644560D03*
X4745584Y-3524560D03*
X4745584Y-3404560D03*
X4745584Y-3284560D03*
X4625584Y-3644560D03*
X4625584Y-3524560D03*
X4625584Y-3404560D03*
X4625584Y-3284560D03*
X4505584Y-3644560D03*
X4505584Y-3524560D03*
X4505584Y-3404560D03*
X4505584Y-3284560D03*
X4385584Y-3644560D03*
X4385584Y-3524560D03*
X4385584Y-3404560D03*
X4385584Y-3284560D03*
D12*
X4051300Y-3022600D03*
D13*
X5935980Y-3667760D03*
X5758180Y-3680460D03*
D14*
X4100688Y-3663696D03*
X4233784Y-4023360D03*
X3928984Y-3083560D03*
X3890884Y-3134360D03*
X3801984Y-3147060D03*
X6786880Y-3020060D03*
X6964680Y-3121660D03*
X5580380Y-3020060D03*
X4144955Y-3274131D03*
D13*
X3326384Y-3282696D03*
D14*
X6723380Y-3870960D03*
X4754484Y-4087763D03*
D13*
X4151884Y-4120896D03*
D14*
X4192611Y-3080487D03*
D13*
X5713984Y-3858260D03*
X5104384Y-4019296D03*
D14*
X6558280Y-3832860D03*
X4919584Y-2997200D03*
D13*
X5423908Y-2954722D03*
X3192780Y-3832860D03*
D14*
X6101080Y-3210560D03*
D13*
X3631184Y-3981196D03*
D14*
X6384681Y-3312160D03*
X4652884Y-4087763D03*
D13*
X5472684Y-3485896D03*
X5015484Y-3612896D03*
D14*
X6310884Y-4070096D03*
D13*
X3638682Y-3483950D03*
X5499100Y-4089400D03*
D14*
X6177280Y-3528060D03*
D13*
X6977380Y-3223260D03*
D14*
X4144813Y-3375589D03*
X6278880Y-2980960D03*
X4508500Y-3924300D03*
D13*
X3262884Y-3904996D03*
X4978400Y-3136900D03*
X6570980Y-4036060D03*
X5384800Y-3873500D03*
D14*
X4786488Y-3854196D03*
D13*
X3162300Y-3251200D03*
X5054600Y-3048000D03*
X4259184Y-3743960D03*
X6634480Y-4036060D03*
D14*
X6482080Y-3904996D03*
X6118480Y-3612260D03*
D13*
X4381500Y-4114800D03*
X3568700Y-3905246D03*
D14*
X4447904Y-3838304D03*
X4194884Y-3321790D03*
D13*
X3732784Y-3790696D03*
X5162550Y-2965450D03*
X5232971Y-2939791D03*
D14*
X4198884Y-3233560D03*
D13*
X3732784Y-3663696D03*
D14*
X4214988Y-3143610D03*
D13*
X3701475Y-3282549D03*
X6520180Y-2939796D03*
X6189980Y-3134360D03*
X5344925Y-4104570D03*
X5256784Y-3371596D03*
D14*
X5834380Y-3629660D03*
D13*
X5525318Y-3602050D03*
D14*
X5567680Y-3223260D03*
X6088380Y-3020060D03*
X5535667Y-3172573D03*
X5844148Y-3070860D03*
D13*
X5842000Y-2933700D03*
D14*
X4297284Y-3012313D03*
D13*
X3873201Y-2975961D03*
X3770884Y-2952496D03*
D14*
X4367388Y-2977896D03*
D13*
X3847143Y-3066796D03*
D14*
X4246484Y-3045460D03*
X6691806Y-3305635D03*
X6946280Y-3616960D03*
X6846580Y-3616960D03*
D13*
X5332984Y-3282696D03*
X6307867Y-3155460D03*
X6507480Y-3426460D03*
X5332984Y-3689096D03*
D14*
X4648200Y-2991350D03*
X4813300Y-2997200D03*
X6692286Y-3712575D03*
D13*
X5904143Y-4075936D03*
X6298184Y-3777996D03*
X5180584Y-3689096D03*
X5955284Y-3810046D03*
D14*
X4309984Y-4048760D03*
D13*
X5177559Y-3278387D03*
D14*
X4995784Y-3528060D03*
D13*
X6113780Y-3337560D03*
D14*
X4436984Y-4036060D03*
X5701284Y-4036060D03*
X4520866Y-3835832D03*
D13*
X3662890Y-3868931D03*
X3707384Y-3536696D03*
D14*
X4265788Y-3103599D03*
D15*
X4234710Y-3321790D02*
X4610100Y-2946400D01*
X4610100Y-2946400D02*
X5143500Y-2946400D01*
X4194884Y-3321790D02*
X4234710Y-3321790D01*
X5162550Y-2965450D02*
X5168900Y-2971800D01*
X5143500Y-2946400D02*
X5162550Y-2965450D01*
X4584700Y-2908300D02*
X4259440Y-3233560D01*
X5201480Y-2908300D02*
X4584700Y-2908300D01*
X5232971Y-2939791D02*
X5201480Y-2908300D01*
X4259440Y-3233560D02*
X4198884Y-3233560D01*
D16*
X3968857Y-2908300D02*
X4178300Y-2908300D01*
X3854918Y-3066796D02*
X3924502Y-2997211D01*
X4246484Y-2976484D02*
X4246484Y-3045460D01*
X3924502Y-2997211D02*
X3924502Y-2952654D01*
X3924502Y-2952654D02*
X3968857Y-2908300D01*
X3847143Y-3066796D02*
X3854918Y-3066796D01*
X4178300Y-2908300D02*
X4246484Y-2976484D01*
D17*
X5455920Y-3337560D02*
X5244084Y-3549396D01*
X6113780Y-3337560D02*
X5455920Y-3337560D01*
X5244084Y-3549396D02*
X5017120Y-3549396D01*
X5017120Y-3549396D02*
X4995784Y-3528060D01*
G04 #@! TA.AperFunction,Conductor*
G36*
X3729605Y-2905592D02*
G01*
X3733564Y-2911042D01*
X3733564Y-2917778D01*
X3731368Y-2921625D01*
X3728622Y-2924735D01*
X3728292Y-2925438D01*
X3728292Y-2925438D01*
X3722859Y-2937009D01*
X3722859Y-2937009D01*
X3722529Y-2937712D01*
X3722409Y-2938480D01*
X3720896Y-2948200D01*
X3720323Y-2951878D01*
X3722182Y-2966094D01*
X3727956Y-2979216D01*
X3728455Y-2979810D01*
X3728455Y-2979811D01*
X3736681Y-2989597D01*
X3737181Y-2990191D01*
X3749115Y-2998135D01*
X3749856Y-2998366D01*
X3762059Y-3002179D01*
X3762059Y-3002179D01*
X3762800Y-3002410D01*
X3770458Y-3002551D01*
X3776358Y-3002659D01*
X3776358Y-3002659D01*
X3777134Y-3002673D01*
X3790966Y-2998902D01*
X3803183Y-2991400D01*
X3806787Y-2987419D01*
X3812629Y-2984066D01*
X3819327Y-2984788D01*
X3824321Y-2989309D01*
X3824844Y-2990344D01*
X3830273Y-3002682D01*
X3830773Y-3003276D01*
X3830773Y-3003276D01*
X3830985Y-3003529D01*
X3831088Y-3003782D01*
X3831183Y-3003936D01*
X3831157Y-3003952D01*
X3833514Y-3009772D01*
X3831890Y-3016310D01*
X3827134Y-3020456D01*
X3826496Y-3020639D01*
X3825839Y-3021053D01*
X3825838Y-3021053D01*
X3815027Y-3027875D01*
X3814371Y-3028289D01*
X3804880Y-3039035D01*
X3804550Y-3039738D01*
X3804550Y-3039738D01*
X3799118Y-3051309D01*
X3799117Y-3051309D01*
X3798787Y-3052012D01*
X3798668Y-3052780D01*
X3797295Y-3061598D01*
X3796582Y-3066178D01*
X3798441Y-3080394D01*
X3804215Y-3093516D01*
X3804714Y-3094110D01*
X3804714Y-3094111D01*
X3812728Y-3103644D01*
X3813440Y-3104491D01*
X3825374Y-3112435D01*
X3826115Y-3112666D01*
X3838317Y-3116479D01*
X3838318Y-3116479D01*
X3839058Y-3116710D01*
X3846816Y-3116852D01*
X3852617Y-3116959D01*
X3852617Y-3116959D01*
X3853393Y-3116973D01*
X3867224Y-3113202D01*
X3879442Y-3105700D01*
X3880577Y-3104446D01*
X3887458Y-3096844D01*
X3889063Y-3095071D01*
X3895314Y-3082169D01*
X3897692Y-3068031D01*
X3897707Y-3066796D01*
X3897677Y-3066581D01*
X3899325Y-3060102D01*
X3900834Y-3058215D01*
X3937109Y-3021940D01*
X3988294Y-3021940D01*
X3989955Y-3036988D01*
X3995158Y-3051206D01*
X3995524Y-3051751D01*
X3995525Y-3051751D01*
X4003088Y-3063006D01*
X4003602Y-3063772D01*
X4004088Y-3064213D01*
X4004088Y-3064213D01*
X4013953Y-3073190D01*
X4014800Y-3073961D01*
X4028105Y-3081185D01*
X4042749Y-3085026D01*
X4049439Y-3085131D01*
X4057229Y-3085254D01*
X4057229Y-3085254D01*
X4057886Y-3085264D01*
X4058527Y-3085117D01*
X4058527Y-3085117D01*
X4072004Y-3082031D01*
X4072644Y-3081884D01*
X4073230Y-3081589D01*
X4073230Y-3081589D01*
X4085582Y-3075377D01*
X4085582Y-3075377D01*
X4086169Y-3075082D01*
X4097681Y-3065249D01*
X4106516Y-3052955D01*
X4107177Y-3051309D01*
X4111611Y-3040280D01*
X4112162Y-3038908D01*
X4112257Y-3038242D01*
X4114245Y-3024272D01*
X4114245Y-3024271D01*
X4114296Y-3023920D01*
X4114309Y-3022600D01*
X4114122Y-3021053D01*
X4112691Y-3009227D01*
X4112491Y-3007570D01*
X4112258Y-3006956D01*
X4112258Y-3006955D01*
X4107992Y-2995664D01*
X4107139Y-2993408D01*
X4100829Y-2984227D01*
X4098936Y-2981472D01*
X4098564Y-2980931D01*
X4098074Y-2980494D01*
X4098074Y-2980494D01*
X4087751Y-2971297D01*
X4087751Y-2971297D01*
X4087260Y-2970860D01*
X4078427Y-2966183D01*
X4074461Y-2964083D01*
X4074460Y-2964083D01*
X4073880Y-2963776D01*
X4073244Y-2963616D01*
X4073244Y-2963616D01*
X4065608Y-2961698D01*
X4059197Y-2960087D01*
X4051679Y-2960048D01*
X4044715Y-2960012D01*
X4044714Y-2960012D01*
X4044058Y-2960008D01*
X4043419Y-2960162D01*
X4043419Y-2960162D01*
X4040677Y-2960820D01*
X4029337Y-2963542D01*
X4028753Y-2963844D01*
X4028753Y-2963844D01*
X4016467Y-2970185D01*
X4016467Y-2970185D01*
X4015883Y-2970486D01*
X4014115Y-2972029D01*
X4007361Y-2977921D01*
X4004475Y-2980438D01*
X4000284Y-2986401D01*
X3996230Y-2992170D01*
X3995770Y-2992825D01*
X3990270Y-3006930D01*
X3990184Y-3007582D01*
X3990184Y-3007582D01*
X3988431Y-3020902D01*
X3988294Y-3021940D01*
X3937109Y-3021940D01*
X3940573Y-3018476D01*
X3942224Y-3017121D01*
X3942643Y-3016841D01*
X3943536Y-3016244D01*
X3945008Y-3014040D01*
X3945009Y-3014040D01*
X3945318Y-3013577D01*
X3947268Y-3010659D01*
X3949371Y-3007512D01*
X3949608Y-3006317D01*
X3951210Y-2998264D01*
X3951420Y-2997211D01*
X3951112Y-2995664D01*
X3950902Y-2993537D01*
X3950902Y-2968105D01*
X3952984Y-2961698D01*
X3954095Y-2960397D01*
X3976599Y-2937892D01*
X3982602Y-2934834D01*
X3984307Y-2934700D01*
X4162850Y-2934700D01*
X4169257Y-2936782D01*
X4170557Y-2937892D01*
X4216892Y-2984227D01*
X4219950Y-2990229D01*
X4220084Y-2991934D01*
X4220084Y-3007170D01*
X4218002Y-3013577D01*
X4216892Y-3014878D01*
X4211631Y-3020138D01*
X4211242Y-3020902D01*
X4211242Y-3020902D01*
X4210806Y-3021758D01*
X4205512Y-3032147D01*
X4205378Y-3032995D01*
X4205378Y-3032995D01*
X4203962Y-3041935D01*
X4203404Y-3045460D01*
X4203538Y-3046307D01*
X4205378Y-3057925D01*
X4205378Y-3057925D01*
X4205512Y-3058773D01*
X4208894Y-3065411D01*
X4210594Y-3068746D01*
X4211631Y-3070782D01*
X4221162Y-3080313D01*
X4221048Y-3080426D01*
X4224451Y-3085110D01*
X4224450Y-3090228D01*
X4224816Y-3090286D01*
X4224816Y-3090286D01*
X4224816Y-3090286D01*
X4224629Y-3091469D01*
X4224450Y-3091819D01*
X4224450Y-3091846D01*
X4224417Y-3091950D01*
X4224388Y-3091941D01*
X4221571Y-3097471D01*
X4215569Y-3100529D01*
X4215180Y-3100560D01*
X4214988Y-3100529D01*
X4214416Y-3100620D01*
X4214415Y-3100620D01*
X4202523Y-3102504D01*
X4202523Y-3102504D01*
X4201675Y-3102638D01*
X4189666Y-3108757D01*
X4180135Y-3118288D01*
X4179746Y-3119052D01*
X4179746Y-3119052D01*
X4178785Y-3120937D01*
X4174016Y-3130297D01*
X4173882Y-3131144D01*
X4173882Y-3131145D01*
X4172744Y-3138326D01*
X4171908Y-3143610D01*
X4172042Y-3144457D01*
X4173882Y-3156075D01*
X4173882Y-3156075D01*
X4174016Y-3156922D01*
X4177429Y-3163620D01*
X4178515Y-3165751D01*
X4180135Y-3168932D01*
X4187033Y-3175830D01*
X4190091Y-3181832D01*
X4189037Y-3188486D01*
X4184274Y-3193249D01*
X4174327Y-3198317D01*
X4174326Y-3198318D01*
X4173562Y-3198707D01*
X4164031Y-3208238D01*
X4157912Y-3220247D01*
X4157778Y-3221095D01*
X4157778Y-3221095D01*
X4156048Y-3232017D01*
X4155804Y-3233560D01*
X4155938Y-3234407D01*
X4157778Y-3246025D01*
X4157778Y-3246025D01*
X4157912Y-3246872D01*
X4164031Y-3258882D01*
X4173562Y-3268413D01*
X4173381Y-3268594D01*
X4176603Y-3273030D01*
X4176603Y-3279766D01*
X4172643Y-3285216D01*
X4171185Y-3286110D01*
X4170326Y-3286548D01*
X4170326Y-3286548D01*
X4169562Y-3286937D01*
X4160031Y-3296468D01*
X4159642Y-3297232D01*
X4159642Y-3297232D01*
X4159290Y-3297922D01*
X4153912Y-3308477D01*
X4153778Y-3309324D01*
X4153778Y-3309325D01*
X4152893Y-3314913D01*
X4151804Y-3321790D01*
X4151938Y-3322637D01*
X4153778Y-3334255D01*
X4153778Y-3334255D01*
X4153912Y-3335102D01*
X4156854Y-3340877D01*
X4158986Y-3345060D01*
X4160031Y-3347112D01*
X4169562Y-3356643D01*
X4170326Y-3357032D01*
X4170326Y-3357032D01*
X4172566Y-3358173D01*
X4181571Y-3362762D01*
X4182419Y-3362896D01*
X4182419Y-3362896D01*
X4194037Y-3364736D01*
X4194884Y-3364870D01*
X4195731Y-3364736D01*
X4207349Y-3362896D01*
X4207349Y-3362896D01*
X4208197Y-3362762D01*
X4217202Y-3358173D01*
X4219442Y-3357032D01*
X4219442Y-3357032D01*
X4220206Y-3356643D01*
X4224134Y-3352715D01*
X4230136Y-3349657D01*
X4232584Y-3349705D01*
X4232584Y-3349670D01*
X4233658Y-3349670D01*
X4234710Y-3349879D01*
X4235763Y-3349670D01*
X4235763Y-3349670D01*
X4237423Y-3349340D01*
X4237424Y-3349340D01*
X4237424Y-3349340D01*
X4245460Y-3347741D01*
X4251300Y-3343839D01*
X4252272Y-3343189D01*
X4252273Y-3343189D01*
X4254573Y-3341652D01*
X4255169Y-3340759D01*
X4255169Y-3340759D01*
X4255513Y-3340245D01*
X4256869Y-3338593D01*
X4317692Y-3277770D01*
X5126998Y-3277770D01*
X5128857Y-3291985D01*
X5134631Y-3305108D01*
X5135130Y-3305702D01*
X5135131Y-3305702D01*
X5143357Y-3315488D01*
X5143856Y-3316082D01*
X5155790Y-3324026D01*
X5156531Y-3324258D01*
X5168734Y-3328070D01*
X5168734Y-3328070D01*
X5169475Y-3328302D01*
X5177233Y-3328444D01*
X5183033Y-3328550D01*
X5183033Y-3328550D01*
X5183809Y-3328564D01*
X5197641Y-3324793D01*
X5198302Y-3324387D01*
X5209107Y-3317753D01*
X5210096Y-3317515D01*
X5211070Y-3315953D01*
X5218609Y-3307624D01*
X5219479Y-3306663D01*
X5225730Y-3293761D01*
X5227696Y-3282078D01*
X5228039Y-3280038D01*
X5228039Y-3280038D01*
X5228109Y-3279623D01*
X5228124Y-3278387D01*
X5226091Y-3264196D01*
X5220157Y-3251145D01*
X5210799Y-3240284D01*
X5198769Y-3232486D01*
X5197195Y-3232015D01*
X5185777Y-3228601D01*
X5185777Y-3228601D01*
X5185033Y-3228378D01*
X5177865Y-3228334D01*
X5171473Y-3228295D01*
X5171473Y-3228295D01*
X5170697Y-3228291D01*
X5169950Y-3228504D01*
X5169950Y-3228504D01*
X5157658Y-3232017D01*
X5157658Y-3232017D01*
X5156912Y-3232230D01*
X5156255Y-3232645D01*
X5148818Y-3237337D01*
X5144787Y-3239880D01*
X5135297Y-3250626D01*
X5134967Y-3251329D01*
X5134967Y-3251329D01*
X5129534Y-3262901D01*
X5129534Y-3262901D01*
X5129204Y-3263604D01*
X5129084Y-3264371D01*
X5127174Y-3276640D01*
X5126998Y-3277770D01*
X4317692Y-3277770D01*
X4459179Y-3136282D01*
X4927839Y-3136282D01*
X4929698Y-3150498D01*
X4935472Y-3163620D01*
X4935971Y-3164214D01*
X4935972Y-3164215D01*
X4943920Y-3173671D01*
X4944697Y-3174595D01*
X4956631Y-3182539D01*
X4957372Y-3182770D01*
X4969575Y-3186583D01*
X4969575Y-3186583D01*
X4970316Y-3186814D01*
X4978074Y-3186956D01*
X4983874Y-3187063D01*
X4983874Y-3187063D01*
X4984650Y-3187077D01*
X4998482Y-3183306D01*
X5010699Y-3175804D01*
X5013624Y-3172573D01*
X5492587Y-3172573D01*
X5492721Y-3173420D01*
X5494561Y-3185038D01*
X5494561Y-3185038D01*
X5494695Y-3185885D01*
X5500814Y-3197895D01*
X5510345Y-3207426D01*
X5511109Y-3207815D01*
X5511109Y-3207815D01*
X5518800Y-3211734D01*
X5523563Y-3216497D01*
X5524365Y-3221555D01*
X5524734Y-3221555D01*
X5524734Y-3222413D01*
X5524600Y-3223260D01*
X5524734Y-3224107D01*
X5526574Y-3235725D01*
X5526574Y-3235725D01*
X5526708Y-3236573D01*
X5532827Y-3248582D01*
X5542358Y-3258113D01*
X5554367Y-3264232D01*
X5555215Y-3264366D01*
X5555215Y-3264366D01*
X5566833Y-3266206D01*
X5567680Y-3266340D01*
X5568527Y-3266206D01*
X5580145Y-3264366D01*
X5580145Y-3264366D01*
X5580993Y-3264232D01*
X5593002Y-3258113D01*
X5602533Y-3248582D01*
X5608652Y-3236573D01*
X5608786Y-3235725D01*
X5608786Y-3235725D01*
X5610626Y-3224107D01*
X5610760Y-3223260D01*
X5609689Y-3216497D01*
X5608786Y-3210795D01*
X5608786Y-3210795D01*
X5608652Y-3209947D01*
X5602533Y-3197938D01*
X5593002Y-3188407D01*
X5592238Y-3188018D01*
X5592238Y-3188018D01*
X5584547Y-3184099D01*
X5579784Y-3179336D01*
X5578982Y-3174278D01*
X5578613Y-3174278D01*
X5578613Y-3173420D01*
X5578747Y-3172573D01*
X5577330Y-3163620D01*
X5576773Y-3160108D01*
X5576773Y-3160107D01*
X5576639Y-3159260D01*
X5571992Y-3150139D01*
X5570909Y-3148015D01*
X5570909Y-3148015D01*
X5570520Y-3147251D01*
X5560989Y-3137720D01*
X5557874Y-3136133D01*
X5556819Y-3135595D01*
X5553182Y-3133742D01*
X6139419Y-3133742D01*
X6141278Y-3147958D01*
X6147052Y-3161080D01*
X6147551Y-3161674D01*
X6147551Y-3161675D01*
X6154161Y-3169538D01*
X6156277Y-3172055D01*
X6168211Y-3179999D01*
X6168952Y-3180230D01*
X6181155Y-3184043D01*
X6181155Y-3184043D01*
X6181896Y-3184274D01*
X6189653Y-3184416D01*
X6195454Y-3184523D01*
X6195454Y-3184523D01*
X6196230Y-3184537D01*
X6210062Y-3180766D01*
X6222279Y-3173264D01*
X6231900Y-3162635D01*
X6232653Y-3161080D01*
X6236818Y-3152485D01*
X6241484Y-3147627D01*
X6248116Y-3146440D01*
X6254178Y-3149377D01*
X6257435Y-3155825D01*
X6259165Y-3169058D01*
X6264939Y-3182180D01*
X6265439Y-3182774D01*
X6265439Y-3182775D01*
X6271915Y-3190479D01*
X6274164Y-3193155D01*
X6286099Y-3201099D01*
X6286840Y-3201330D01*
X6299042Y-3205143D01*
X6299042Y-3205143D01*
X6299783Y-3205374D01*
X6307541Y-3205516D01*
X6313341Y-3205623D01*
X6313341Y-3205623D01*
X6314117Y-3205637D01*
X6327949Y-3201866D01*
X6340166Y-3194364D01*
X6349787Y-3183735D01*
X6356038Y-3170833D01*
X6358417Y-3156695D01*
X6358432Y-3155460D01*
X6356400Y-3141268D01*
X6350466Y-3128217D01*
X6341107Y-3117356D01*
X6329077Y-3109558D01*
X6325095Y-3108368D01*
X6316085Y-3105673D01*
X6316085Y-3105673D01*
X6315341Y-3105451D01*
X6308173Y-3105407D01*
X6301782Y-3105368D01*
X6301781Y-3105368D01*
X6301005Y-3105363D01*
X6300258Y-3105576D01*
X6300258Y-3105576D01*
X6287967Y-3109089D01*
X6287966Y-3109089D01*
X6287220Y-3109303D01*
X6286563Y-3109717D01*
X6277559Y-3115398D01*
X6275095Y-3116953D01*
X6265605Y-3127699D01*
X6265275Y-3128402D01*
X6265275Y-3128402D01*
X6261161Y-3137165D01*
X6256553Y-3142079D01*
X6249937Y-3143347D01*
X6243839Y-3140484D01*
X6240504Y-3134077D01*
X6240205Y-3131990D01*
X6238512Y-3120168D01*
X6232578Y-3107117D01*
X6223220Y-3096256D01*
X6211189Y-3088458D01*
X6205931Y-3086886D01*
X6198198Y-3084573D01*
X6198198Y-3084573D01*
X6197454Y-3084351D01*
X6190286Y-3084307D01*
X6183894Y-3084268D01*
X6183894Y-3084268D01*
X6183118Y-3084263D01*
X6182371Y-3084476D01*
X6182371Y-3084476D01*
X6170079Y-3087989D01*
X6170079Y-3087989D01*
X6169333Y-3088203D01*
X6168676Y-3088617D01*
X6158447Y-3095071D01*
X6157208Y-3095853D01*
X6147718Y-3106599D01*
X6147388Y-3107302D01*
X6147388Y-3107302D01*
X6141955Y-3118873D01*
X6141955Y-3118873D01*
X6141625Y-3119576D01*
X6141505Y-3120344D01*
X6140360Y-3127699D01*
X6139419Y-3133742D01*
X5553182Y-3133742D01*
X5548980Y-3131601D01*
X5548132Y-3131467D01*
X5548132Y-3131467D01*
X5536514Y-3129627D01*
X5535667Y-3129492D01*
X5534820Y-3129627D01*
X5523202Y-3131467D01*
X5523202Y-3131467D01*
X5522354Y-3131601D01*
X5514515Y-3135595D01*
X5513460Y-3136133D01*
X5510345Y-3137720D01*
X5500814Y-3147251D01*
X5500425Y-3148015D01*
X5500425Y-3148015D01*
X5499343Y-3150139D01*
X5494695Y-3159260D01*
X5494561Y-3160107D01*
X5494561Y-3160108D01*
X5494005Y-3163620D01*
X5492587Y-3172573D01*
X5013624Y-3172573D01*
X5020320Y-3165175D01*
X5026571Y-3152273D01*
X5028950Y-3138135D01*
X5028965Y-3136900D01*
X5026932Y-3122708D01*
X5025456Y-3119461D01*
X5021320Y-3110364D01*
X5021320Y-3110364D01*
X5020998Y-3109657D01*
X5021053Y-3109632D01*
X5019494Y-3103644D01*
X5021952Y-3097372D01*
X5027627Y-3093743D01*
X5033625Y-3093887D01*
X5045775Y-3097683D01*
X5045775Y-3097683D01*
X5046516Y-3097914D01*
X5054274Y-3098056D01*
X5060074Y-3098163D01*
X5060074Y-3098163D01*
X5060850Y-3098177D01*
X5074682Y-3094406D01*
X5086899Y-3086904D01*
X5089667Y-3083847D01*
X5092763Y-3080426D01*
X5096520Y-3076275D01*
X5099144Y-3070860D01*
X5801068Y-3070860D01*
X5801202Y-3071707D01*
X5803042Y-3083325D01*
X5803042Y-3083325D01*
X5803177Y-3084173D01*
X5806655Y-3090998D01*
X5808374Y-3094372D01*
X5809296Y-3096182D01*
X5818826Y-3105713D01*
X5819590Y-3106102D01*
X5819590Y-3106102D01*
X5821583Y-3107117D01*
X5830836Y-3111832D01*
X5831683Y-3111966D01*
X5831683Y-3111966D01*
X5843301Y-3113806D01*
X5844148Y-3113940D01*
X5844996Y-3113806D01*
X5856613Y-3111966D01*
X5856614Y-3111966D01*
X5857461Y-3111832D01*
X5866714Y-3107117D01*
X5868706Y-3106102D01*
X5868707Y-3106102D01*
X5869470Y-3105713D01*
X5879001Y-3096182D01*
X5879923Y-3094372D01*
X5881642Y-3090998D01*
X5885120Y-3084173D01*
X5885255Y-3083325D01*
X5885255Y-3083325D01*
X5887095Y-3071707D01*
X5887229Y-3070860D01*
X5886106Y-3063772D01*
X5885255Y-3058395D01*
X5885255Y-3058395D01*
X5885120Y-3057547D01*
X5879550Y-3046615D01*
X5879391Y-3046302D01*
X5879390Y-3046302D01*
X5879001Y-3045538D01*
X5869470Y-3036007D01*
X5857461Y-3029888D01*
X5856614Y-3029754D01*
X5856613Y-3029754D01*
X5844996Y-3027914D01*
X5844148Y-3027780D01*
X5843301Y-3027914D01*
X5831683Y-3029754D01*
X5831683Y-3029754D01*
X5830836Y-3029888D01*
X5818826Y-3036007D01*
X5809296Y-3045538D01*
X5808906Y-3046302D01*
X5808906Y-3046302D01*
X5808747Y-3046615D01*
X5803177Y-3057547D01*
X5803042Y-3058395D01*
X5803042Y-3058395D01*
X5802191Y-3063772D01*
X5801068Y-3070860D01*
X5099144Y-3070860D01*
X5102771Y-3063373D01*
X5104818Y-3051206D01*
X5105080Y-3049651D01*
X5105080Y-3049651D01*
X5105150Y-3049235D01*
X5105165Y-3048000D01*
X5103132Y-3033808D01*
X5097198Y-3020757D01*
X5096598Y-3020060D01*
X6045300Y-3020060D01*
X6045434Y-3020907D01*
X6047274Y-3032525D01*
X6047274Y-3032525D01*
X6047408Y-3033373D01*
X6053527Y-3045382D01*
X6063058Y-3054913D01*
X6075067Y-3061032D01*
X6075915Y-3061166D01*
X6075915Y-3061166D01*
X6087533Y-3063006D01*
X6088380Y-3063140D01*
X6089227Y-3063006D01*
X6100845Y-3061166D01*
X6100845Y-3061166D01*
X6101693Y-3061032D01*
X6113702Y-3054913D01*
X6123233Y-3045382D01*
X6129352Y-3033373D01*
X6129486Y-3032525D01*
X6129486Y-3032525D01*
X6131326Y-3020907D01*
X6131460Y-3020060D01*
X6130758Y-3015627D01*
X6129486Y-3007595D01*
X6129486Y-3007595D01*
X6129352Y-3006747D01*
X6123233Y-2994738D01*
X6113702Y-2985207D01*
X6111459Y-2984064D01*
X6110121Y-2983383D01*
X6101693Y-2979088D01*
X6100845Y-2978954D01*
X6100845Y-2978954D01*
X6089227Y-2977114D01*
X6088380Y-2976980D01*
X6087533Y-2977114D01*
X6075915Y-2978954D01*
X6075915Y-2978954D01*
X6075067Y-2979088D01*
X6066639Y-2983383D01*
X6065301Y-2984064D01*
X6063058Y-2985207D01*
X6053527Y-2994738D01*
X6047408Y-3006747D01*
X6047274Y-3007595D01*
X6047274Y-3007595D01*
X6046002Y-3015627D01*
X6045300Y-3020060D01*
X5096598Y-3020060D01*
X5087840Y-3009896D01*
X5075810Y-3002098D01*
X5065804Y-2999106D01*
X5062818Y-2998213D01*
X5062818Y-2998213D01*
X5062074Y-2997991D01*
X5054906Y-2997947D01*
X5048514Y-2997908D01*
X5048514Y-2997908D01*
X5047738Y-2997903D01*
X5046991Y-2998116D01*
X5046991Y-2998116D01*
X5034699Y-3001629D01*
X5034699Y-3001629D01*
X5033953Y-3001843D01*
X5033296Y-3002257D01*
X5024836Y-3007595D01*
X5021828Y-3009493D01*
X5012338Y-3020239D01*
X5012008Y-3020942D01*
X5012008Y-3020942D01*
X5006575Y-3032513D01*
X5006575Y-3032513D01*
X5006245Y-3033216D01*
X5006125Y-3033984D01*
X5004326Y-3045538D01*
X5004039Y-3047382D01*
X5005898Y-3061598D01*
X5011672Y-3074720D01*
X5011869Y-3074955D01*
X5013435Y-3081284D01*
X5010901Y-3087526D01*
X5005181Y-3091086D01*
X4999440Y-3090948D01*
X4986618Y-3087113D01*
X4986618Y-3087113D01*
X4985874Y-3086891D01*
X4978706Y-3086847D01*
X4972314Y-3086808D01*
X4972314Y-3086808D01*
X4971538Y-3086803D01*
X4970791Y-3087016D01*
X4970791Y-3087016D01*
X4958499Y-3090529D01*
X4958499Y-3090529D01*
X4957753Y-3090743D01*
X4957096Y-3091157D01*
X4946364Y-3097928D01*
X4945628Y-3098393D01*
X4936138Y-3109139D01*
X4935808Y-3109842D01*
X4935808Y-3109842D01*
X4930375Y-3121413D01*
X4930375Y-3121413D01*
X4930045Y-3122116D01*
X4929925Y-3122884D01*
X4929187Y-3127629D01*
X4927839Y-3136282D01*
X4459179Y-3136282D01*
X4591074Y-3004387D01*
X4597077Y-3001329D01*
X4603730Y-3002383D01*
X4608494Y-3007146D01*
X4609478Y-3009079D01*
X4612433Y-3014878D01*
X4613347Y-3016672D01*
X4622878Y-3026203D01*
X4623642Y-3026592D01*
X4623642Y-3026592D01*
X4624379Y-3026967D01*
X4634887Y-3032322D01*
X4635735Y-3032456D01*
X4635735Y-3032456D01*
X4647353Y-3034296D01*
X4648200Y-3034430D01*
X4649047Y-3034296D01*
X4660665Y-3032456D01*
X4660665Y-3032456D01*
X4661513Y-3032322D01*
X4672021Y-3026967D01*
X4672758Y-3026592D01*
X4672758Y-3026592D01*
X4673522Y-3026203D01*
X4683053Y-3016672D01*
X4683967Y-3014878D01*
X4686117Y-3010659D01*
X4689172Y-3004663D01*
X4689306Y-3003815D01*
X4689306Y-3003815D01*
X4691146Y-2992197D01*
X4691280Y-2991350D01*
X4691060Y-2989959D01*
X4690521Y-2986555D01*
X4691575Y-2979901D01*
X4696338Y-2975138D01*
X4701287Y-2973950D01*
X4761140Y-2973950D01*
X4767547Y-2976032D01*
X4771506Y-2981482D01*
X4771906Y-2986555D01*
X4770220Y-2997200D01*
X4770354Y-2998047D01*
X4772194Y-3009665D01*
X4772194Y-3009665D01*
X4772328Y-3010513D01*
X4776386Y-3018476D01*
X4777488Y-3020639D01*
X4778447Y-3022522D01*
X4787978Y-3032053D01*
X4788742Y-3032442D01*
X4788742Y-3032442D01*
X4791340Y-3033766D01*
X4799987Y-3038172D01*
X4800835Y-3038306D01*
X4800835Y-3038306D01*
X4812453Y-3040146D01*
X4813300Y-3040280D01*
X4814147Y-3040146D01*
X4825765Y-3038306D01*
X4825765Y-3038306D01*
X4826613Y-3038172D01*
X4835260Y-3033766D01*
X4837858Y-3032442D01*
X4837858Y-3032442D01*
X4838622Y-3032053D01*
X4848153Y-3022522D01*
X4849112Y-3020639D01*
X4850214Y-3018476D01*
X4854272Y-3010513D01*
X4854406Y-3009665D01*
X4854406Y-3009665D01*
X4856246Y-2998047D01*
X4856380Y-2997200D01*
X4854694Y-2986555D01*
X4855748Y-2979901D01*
X4860512Y-2975138D01*
X4865460Y-2973950D01*
X5104493Y-2973950D01*
X5110899Y-2976032D01*
X5114469Y-2980460D01*
X5119622Y-2992170D01*
X5120121Y-2992764D01*
X5120122Y-2992765D01*
X5128348Y-3002551D01*
X5128847Y-3003145D01*
X5140781Y-3011089D01*
X5141522Y-3011320D01*
X5153725Y-3015133D01*
X5153725Y-3015133D01*
X5154466Y-3015364D01*
X5162224Y-3015506D01*
X5168024Y-3015613D01*
X5168024Y-3015613D01*
X5168800Y-3015627D01*
X5182632Y-3011856D01*
X5194849Y-3004354D01*
X5197006Y-3001971D01*
X5202293Y-2996130D01*
X5204470Y-2993725D01*
X5204809Y-2993026D01*
X5205243Y-2992383D01*
X5205389Y-2992481D01*
X5209418Y-2988288D01*
X5216049Y-2987101D01*
X5217811Y-2987494D01*
X5224146Y-2989474D01*
X5224146Y-2989474D01*
X5224887Y-2989705D01*
X5232645Y-2989847D01*
X5238445Y-2989954D01*
X5238445Y-2989954D01*
X5239221Y-2989968D01*
X5253053Y-2986197D01*
X5265270Y-2978695D01*
X5265971Y-2977921D01*
X5274370Y-2968642D01*
X5274891Y-2968066D01*
X5281142Y-2955164D01*
X5283521Y-2941026D01*
X5283536Y-2939791D01*
X5281503Y-2925599D01*
X5278814Y-2919684D01*
X5278467Y-2918921D01*
X5277710Y-2912227D01*
X5281033Y-2906367D01*
X5287165Y-2903579D01*
X5288390Y-2903510D01*
X5783739Y-2903510D01*
X5790146Y-2905592D01*
X5794106Y-2911042D01*
X5794163Y-2917597D01*
X5793975Y-2918213D01*
X5793645Y-2918916D01*
X5792515Y-2926175D01*
X5791885Y-2930219D01*
X5791439Y-2933082D01*
X5793298Y-2947298D01*
X5799072Y-2960420D01*
X5799571Y-2961014D01*
X5799571Y-2961015D01*
X5807689Y-2970671D01*
X5808297Y-2971395D01*
X5820231Y-2979339D01*
X5820972Y-2979570D01*
X5833175Y-2983383D01*
X5833175Y-2983383D01*
X5833916Y-2983614D01*
X5841673Y-2983756D01*
X5847474Y-2983863D01*
X5847474Y-2983863D01*
X5848250Y-2983877D01*
X5862082Y-2980106D01*
X5874299Y-2972604D01*
X5883920Y-2961975D01*
X5890171Y-2949073D01*
X5892010Y-2938141D01*
X5892480Y-2935351D01*
X5892480Y-2935351D01*
X5892550Y-2934935D01*
X5892565Y-2933700D01*
X5890532Y-2919508D01*
X5890211Y-2918801D01*
X5889993Y-2918056D01*
X5890162Y-2918006D01*
X5889509Y-2912228D01*
X5892831Y-2906368D01*
X5898963Y-2903579D01*
X5900188Y-2903510D01*
X6464761Y-2903510D01*
X6471168Y-2905592D01*
X6475127Y-2911042D01*
X6475127Y-2917778D01*
X6474628Y-2919042D01*
X6472155Y-2924309D01*
X6472155Y-2924309D01*
X6471825Y-2925012D01*
X6471705Y-2925780D01*
X6469797Y-2938036D01*
X6469619Y-2939178D01*
X6471478Y-2953394D01*
X6477252Y-2966516D01*
X6477751Y-2967110D01*
X6477751Y-2967111D01*
X6485250Y-2976032D01*
X6486477Y-2977491D01*
X6498411Y-2985435D01*
X6499152Y-2985666D01*
X6511355Y-2989479D01*
X6511355Y-2989479D01*
X6512096Y-2989710D01*
X6519853Y-2989852D01*
X6525654Y-2989959D01*
X6525654Y-2989959D01*
X6526430Y-2989973D01*
X6540262Y-2986202D01*
X6552479Y-2978700D01*
X6562100Y-2968071D01*
X6568351Y-2955169D01*
X6570185Y-2944269D01*
X6570660Y-2941447D01*
X6570660Y-2941447D01*
X6570730Y-2941031D01*
X6570745Y-2939796D01*
X6568712Y-2925604D01*
X6568123Y-2924309D01*
X6565674Y-2918921D01*
X6564917Y-2912227D01*
X6568239Y-2906367D01*
X6574372Y-2903579D01*
X6575596Y-2903510D01*
X6592765Y-2903510D01*
X6594881Y-2903750D01*
X6595048Y-2903750D01*
X6596244Y-2904026D01*
X6597441Y-2903755D01*
X6598313Y-2903756D01*
X6599629Y-2903634D01*
X6638670Y-2905076D01*
X6639471Y-2905135D01*
X6681230Y-2909780D01*
X6682024Y-2909898D01*
X6723328Y-2917612D01*
X6724110Y-2917788D01*
X6764731Y-2928528D01*
X6765500Y-2928762D01*
X6783039Y-2934816D01*
X6805217Y-2942470D01*
X6805967Y-2942760D01*
X6844564Y-2959361D01*
X6845290Y-2959705D01*
X6882558Y-2979109D01*
X6883257Y-2979506D01*
X6903414Y-2991973D01*
X6918991Y-3001607D01*
X6919659Y-3002055D01*
X6927276Y-3007582D01*
X6953665Y-3026731D01*
X6954297Y-3027227D01*
X6985294Y-3053420D01*
X6986390Y-3054345D01*
X6986983Y-3054886D01*
X7016989Y-3084299D01*
X7017541Y-3084883D01*
X7045294Y-3116429D01*
X7045802Y-3117053D01*
X7067136Y-3145253D01*
X7069211Y-3150139D01*
X7076060Y-3193789D01*
X7076098Y-3194034D01*
X7076230Y-3195724D01*
X7076230Y-3877641D01*
X7076059Y-3879566D01*
X7070305Y-3911625D01*
X7069388Y-3916731D01*
X7067353Y-3921381D01*
X7045802Y-3949868D01*
X7045293Y-3950491D01*
X7044272Y-3951652D01*
X7017541Y-3982037D01*
X7016989Y-3982620D01*
X6986983Y-4012034D01*
X6986390Y-4012574D01*
X6956499Y-4037833D01*
X6954298Y-4039693D01*
X6953665Y-4040189D01*
X6937206Y-4052132D01*
X6919659Y-4064865D01*
X6918991Y-4065313D01*
X6915908Y-4067220D01*
X6885159Y-4086237D01*
X6883257Y-4087413D01*
X6882558Y-4087811D01*
X6847199Y-4106221D01*
X6845291Y-4107214D01*
X6844564Y-4107559D01*
X6805967Y-4124159D01*
X6805217Y-4124450D01*
X6791718Y-4129109D01*
X6765500Y-4138158D01*
X6764731Y-4138392D01*
X6724110Y-4149132D01*
X6723328Y-4149308D01*
X6682024Y-4157022D01*
X6681230Y-4157140D01*
X6639471Y-4161785D01*
X6638670Y-4161844D01*
X6599683Y-4163284D01*
X6598491Y-4163171D01*
X6597512Y-4163169D01*
X6596316Y-4162894D01*
X6595119Y-4163165D01*
X6595011Y-4163165D01*
X6592820Y-4163410D01*
X5383232Y-4163410D01*
X5376825Y-4161328D01*
X5372866Y-4155878D01*
X5372866Y-4149142D01*
X5376270Y-4144123D01*
X5376562Y-4143881D01*
X5377224Y-4143474D01*
X5378993Y-4141520D01*
X5386324Y-4133421D01*
X5386845Y-4132845D01*
X5393096Y-4119943D01*
X5395206Y-4107400D01*
X5395404Y-4106221D01*
X5395404Y-4106221D01*
X5395474Y-4105805D01*
X5395489Y-4104570D01*
X5393457Y-4090378D01*
X5387523Y-4077327D01*
X5378165Y-4066466D01*
X5366134Y-4058668D01*
X5362872Y-4057693D01*
X5353143Y-4054783D01*
X5353142Y-4054783D01*
X5352399Y-4054561D01*
X5345230Y-4054517D01*
X5338839Y-4054478D01*
X5338839Y-4054478D01*
X5338062Y-4054473D01*
X5337316Y-4054686D01*
X5337316Y-4054686D01*
X5325024Y-4058199D01*
X5325024Y-4058199D01*
X5324278Y-4058413D01*
X5323621Y-4058827D01*
X5314308Y-4064703D01*
X5312153Y-4066063D01*
X5302662Y-4076809D01*
X5302332Y-4077511D01*
X5302332Y-4077512D01*
X5296899Y-4089083D01*
X5296899Y-4089083D01*
X5296569Y-4089786D01*
X5294364Y-4103952D01*
X5296223Y-4118168D01*
X5301997Y-4131290D01*
X5302496Y-4131884D01*
X5302496Y-4131884D01*
X5310722Y-4141670D01*
X5311222Y-4142265D01*
X5311868Y-4142695D01*
X5311868Y-4142695D01*
X5312982Y-4143436D01*
X5317162Y-4148719D01*
X5317438Y-4155450D01*
X5313705Y-4161058D01*
X5306942Y-4163410D01*
X4429582Y-4163410D01*
X4423176Y-4161328D01*
X4419216Y-4155878D01*
X4419216Y-4149142D01*
X4421501Y-4145195D01*
X4422899Y-4143651D01*
X4422899Y-4143651D01*
X4423420Y-4143075D01*
X4429671Y-4130173D01*
X4431571Y-4118879D01*
X4431980Y-4116451D01*
X4431980Y-4116451D01*
X4432050Y-4116035D01*
X4432065Y-4114800D01*
X4430032Y-4100608D01*
X4429190Y-4098756D01*
X4427218Y-4094418D01*
X4426461Y-4087724D01*
X4429783Y-4081863D01*
X4435916Y-4079075D01*
X4436400Y-4079048D01*
X4436984Y-4079140D01*
X4437831Y-4079006D01*
X4449449Y-4077166D01*
X4449449Y-4077166D01*
X4450297Y-4077032D01*
X4458944Y-4072626D01*
X4461542Y-4071302D01*
X4461542Y-4071302D01*
X4462306Y-4070913D01*
X4471837Y-4061382D01*
X4473220Y-4058668D01*
X4474401Y-4056349D01*
X4477956Y-4049373D01*
X4478090Y-4048525D01*
X4478090Y-4048525D01*
X4479930Y-4036907D01*
X4480064Y-4036060D01*
X5658204Y-4036060D01*
X5658338Y-4036907D01*
X5660178Y-4048525D01*
X5660178Y-4048525D01*
X5660312Y-4049373D01*
X5663867Y-4056349D01*
X5665049Y-4058668D01*
X5666431Y-4061382D01*
X5675962Y-4070913D01*
X5676726Y-4071302D01*
X5676726Y-4071302D01*
X5679324Y-4072626D01*
X5687971Y-4077032D01*
X5688819Y-4077166D01*
X5688819Y-4077166D01*
X5700437Y-4079006D01*
X5701284Y-4079140D01*
X5702131Y-4079006D01*
X5713749Y-4077166D01*
X5713749Y-4077166D01*
X5714597Y-4077032D01*
X5717959Y-4075319D01*
X5853582Y-4075319D01*
X5855441Y-4089534D01*
X5861215Y-4102657D01*
X5861714Y-4103251D01*
X5861714Y-4103251D01*
X5865046Y-4107214D01*
X5870440Y-4113631D01*
X5882374Y-4121575D01*
X5883115Y-4121807D01*
X5895317Y-4125619D01*
X5895318Y-4125619D01*
X5896058Y-4125850D01*
X5903816Y-4125993D01*
X5909617Y-4126099D01*
X5909617Y-4126099D01*
X5910393Y-4126113D01*
X5924224Y-4122342D01*
X5936442Y-4114841D01*
X5946063Y-4104212D01*
X5952314Y-4091310D01*
X5953870Y-4082060D01*
X5954622Y-4077587D01*
X5954622Y-4077587D01*
X5954692Y-4077172D01*
X5954707Y-4075936D01*
X5952675Y-4061744D01*
X5946741Y-4048693D01*
X5937383Y-4037833D01*
X5933695Y-4035442D01*
X6520419Y-4035442D01*
X6522278Y-4049658D01*
X6528052Y-4062780D01*
X6528551Y-4063374D01*
X6528551Y-4063375D01*
X6535215Y-4071302D01*
X6537277Y-4073755D01*
X6549211Y-4081699D01*
X6549952Y-4081930D01*
X6562155Y-4085743D01*
X6562155Y-4085743D01*
X6562896Y-4085974D01*
X6570653Y-4086116D01*
X6576454Y-4086223D01*
X6576454Y-4086223D01*
X6577230Y-4086237D01*
X6591062Y-4082466D01*
X6596983Y-4078830D01*
X6603531Y-4077252D01*
X6608725Y-4079046D01*
X6612711Y-4081699D01*
X6618837Y-4083613D01*
X6625655Y-4085743D01*
X6625655Y-4085743D01*
X6626396Y-4085974D01*
X6634153Y-4086116D01*
X6639954Y-4086223D01*
X6639954Y-4086223D01*
X6640730Y-4086237D01*
X6654562Y-4082466D01*
X6666779Y-4074964D01*
X6676400Y-4064335D01*
X6682651Y-4051433D01*
X6684543Y-4040189D01*
X6684960Y-4037711D01*
X6684960Y-4037711D01*
X6685030Y-4037295D01*
X6685045Y-4036060D01*
X6683012Y-4021868D01*
X6677078Y-4008817D01*
X6667720Y-3997956D01*
X6655689Y-3990158D01*
X6653584Y-3989529D01*
X6642698Y-3986273D01*
X6642698Y-3986273D01*
X6641954Y-3986051D01*
X6634786Y-3986007D01*
X6628394Y-3985968D01*
X6628394Y-3985968D01*
X6627618Y-3985963D01*
X6626871Y-3986176D01*
X6626871Y-3986176D01*
X6614579Y-3989689D01*
X6614579Y-3989689D01*
X6613833Y-3989903D01*
X6613176Y-3990317D01*
X6613176Y-3990317D01*
X6608561Y-3993229D01*
X6602032Y-3994887D01*
X6596816Y-3993157D01*
X6595489Y-3992297D01*
X6592189Y-3990158D01*
X6590084Y-3989529D01*
X6579198Y-3986273D01*
X6579198Y-3986273D01*
X6578454Y-3986051D01*
X6571286Y-3986007D01*
X6564894Y-3985968D01*
X6564894Y-3985968D01*
X6564118Y-3985963D01*
X6563371Y-3986176D01*
X6563371Y-3986176D01*
X6551079Y-3989689D01*
X6551079Y-3989689D01*
X6550333Y-3989903D01*
X6549676Y-3990317D01*
X6549676Y-3990317D01*
X6541497Y-3995478D01*
X6538208Y-3997553D01*
X6528718Y-4008299D01*
X6528388Y-4009002D01*
X6528388Y-4009002D01*
X6522955Y-4020573D01*
X6522955Y-4020573D01*
X6522625Y-4021276D01*
X6522505Y-4022044D01*
X6522047Y-4024985D01*
X6520419Y-4035442D01*
X5933695Y-4035442D01*
X5925352Y-4030035D01*
X5923778Y-4029564D01*
X5912361Y-4026149D01*
X5912361Y-4026149D01*
X5911617Y-4025927D01*
X5904449Y-4025883D01*
X5898057Y-4025844D01*
X5898057Y-4025844D01*
X5897280Y-4025839D01*
X5896534Y-4026053D01*
X5896534Y-4026053D01*
X5884242Y-4029566D01*
X5884242Y-4029566D01*
X5883496Y-4029779D01*
X5882839Y-4030193D01*
X5873169Y-4036295D01*
X5871371Y-4037429D01*
X5861880Y-4048175D01*
X5861550Y-4048878D01*
X5861550Y-4048878D01*
X5856118Y-4060449D01*
X5856117Y-4060450D01*
X5855787Y-4061153D01*
X5855668Y-4061920D01*
X5854207Y-4071302D01*
X5853582Y-4075319D01*
X5717959Y-4075319D01*
X5723244Y-4072626D01*
X5725842Y-4071302D01*
X5725842Y-4071302D01*
X5726606Y-4070913D01*
X5736137Y-4061382D01*
X5737519Y-4058668D01*
X5738701Y-4056349D01*
X5742256Y-4049373D01*
X5742390Y-4048525D01*
X5742390Y-4048525D01*
X5744230Y-4036907D01*
X5744364Y-4036060D01*
X5743477Y-4030457D01*
X5742390Y-4023595D01*
X5742390Y-4023595D01*
X5742256Y-4022747D01*
X5737158Y-4012743D01*
X5736526Y-4011502D01*
X5736526Y-4011502D01*
X5736137Y-4010738D01*
X5726606Y-4001207D01*
X5714597Y-3995088D01*
X5713749Y-3994954D01*
X5713749Y-3994954D01*
X5702131Y-3993114D01*
X5701284Y-3992980D01*
X5700437Y-3993114D01*
X5688819Y-3994954D01*
X5688819Y-3994954D01*
X5687971Y-3995088D01*
X5675962Y-4001207D01*
X5666431Y-4010738D01*
X5666042Y-4011502D01*
X5666042Y-4011502D01*
X5665410Y-4012743D01*
X5660312Y-4022747D01*
X5660178Y-4023595D01*
X5660178Y-4023595D01*
X5659091Y-4030457D01*
X5658204Y-4036060D01*
X4480064Y-4036060D01*
X4479177Y-4030457D01*
X4478090Y-4023595D01*
X4478090Y-4023595D01*
X4477956Y-4022747D01*
X4472858Y-4012743D01*
X4472226Y-4011502D01*
X4472226Y-4011502D01*
X4471837Y-4010738D01*
X4462306Y-4001207D01*
X4450297Y-3995088D01*
X4449449Y-3994954D01*
X4449449Y-3994954D01*
X4437831Y-3993114D01*
X4436984Y-3992980D01*
X4436137Y-3993114D01*
X4424519Y-3994954D01*
X4424519Y-3994954D01*
X4423671Y-3995088D01*
X4411662Y-4001207D01*
X4402131Y-4010738D01*
X4401742Y-4011502D01*
X4401742Y-4011502D01*
X4401110Y-4012743D01*
X4396012Y-4022747D01*
X4395878Y-4023595D01*
X4395878Y-4023595D01*
X4394791Y-4030457D01*
X4393904Y-4036060D01*
X4396012Y-4049373D01*
X4396402Y-4050137D01*
X4396521Y-4050505D01*
X4396521Y-4057242D01*
X4392561Y-4062692D01*
X4386088Y-4064773D01*
X4381555Y-4064745D01*
X4375414Y-4064708D01*
X4375414Y-4064708D01*
X4374638Y-4064703D01*
X4373891Y-4064916D01*
X4373891Y-4064916D01*
X4365832Y-4067220D01*
X4359099Y-4066979D01*
X4353795Y-4062827D01*
X4351943Y-4056349D01*
X4352071Y-4055035D01*
X4353064Y-4048760D01*
X4352880Y-4047593D01*
X4351090Y-4036295D01*
X4351090Y-4036295D01*
X4350956Y-4035447D01*
X4344837Y-4023438D01*
X4335306Y-4013907D01*
X4323297Y-4007788D01*
X4322449Y-4007654D01*
X4322449Y-4007654D01*
X4310831Y-4005814D01*
X4309984Y-4005680D01*
X4309137Y-4005814D01*
X4297519Y-4007654D01*
X4297519Y-4007654D01*
X4296671Y-4007788D01*
X4284662Y-4013907D01*
X4275131Y-4023438D01*
X4269012Y-4035447D01*
X4268878Y-4036295D01*
X4268878Y-4036295D01*
X4267088Y-4047593D01*
X4266904Y-4048760D01*
X4267038Y-4049607D01*
X4267038Y-4049607D01*
X4268878Y-4061225D01*
X4268878Y-4061225D01*
X4269012Y-4062073D01*
X4275131Y-4074082D01*
X4284662Y-4083613D01*
X4296671Y-4089732D01*
X4297519Y-4089866D01*
X4297519Y-4089866D01*
X4309137Y-4091706D01*
X4309984Y-4091840D01*
X4320258Y-4090213D01*
X4326912Y-4091267D01*
X4331676Y-4096030D01*
X4332734Y-4102656D01*
X4331970Y-4107559D01*
X4330939Y-4114182D01*
X4332798Y-4128398D01*
X4338572Y-4141520D01*
X4339072Y-4142115D01*
X4339072Y-4142115D01*
X4341914Y-4145496D01*
X4344443Y-4151740D01*
X4342819Y-4158278D01*
X4337663Y-4162613D01*
X4333570Y-4163410D01*
X3599795Y-4163410D01*
X3597679Y-4163170D01*
X3597512Y-4163169D01*
X3596316Y-4162894D01*
X3595118Y-4163165D01*
X3594185Y-4163164D01*
X3592936Y-4163279D01*
X3547282Y-4161485D01*
X3546429Y-4161418D01*
X3541950Y-4160888D01*
X3498160Y-4155705D01*
X3497316Y-4155571D01*
X3464941Y-4149131D01*
X3449641Y-4146088D01*
X3448809Y-4145888D01*
X3402027Y-4132694D01*
X3401213Y-4132430D01*
X3400444Y-4132146D01*
X3370624Y-4121145D01*
X3355611Y-4115606D01*
X3354820Y-4115279D01*
X3310677Y-4094929D01*
X3309915Y-4094540D01*
X3267505Y-4070790D01*
X3266776Y-4070342D01*
X3235743Y-4049607D01*
X3226360Y-4043338D01*
X3225668Y-4042835D01*
X3224965Y-4042281D01*
X3204109Y-4025839D01*
X3187497Y-4012743D01*
X3186846Y-4012187D01*
X3151153Y-3979193D01*
X3150547Y-3978587D01*
X3117553Y-3942894D01*
X3116997Y-3942243D01*
X3093794Y-3912811D01*
X3087147Y-3904378D01*
X3212323Y-3904378D01*
X3214182Y-3918594D01*
X3219956Y-3931716D01*
X3220455Y-3932310D01*
X3220455Y-3932311D01*
X3227119Y-3940238D01*
X3229181Y-3942691D01*
X3241115Y-3950635D01*
X3241856Y-3950866D01*
X3254059Y-3954679D01*
X3254059Y-3954679D01*
X3254800Y-3954910D01*
X3262557Y-3955052D01*
X3268358Y-3955159D01*
X3268358Y-3955159D01*
X3269134Y-3955173D01*
X3282966Y-3951402D01*
X3295183Y-3943900D01*
X3304804Y-3933271D01*
X3311055Y-3920369D01*
X3312902Y-3909390D01*
X3313364Y-3906647D01*
X3313364Y-3906647D01*
X3313434Y-3906231D01*
X3313449Y-3904996D01*
X3313396Y-3904628D01*
X3518139Y-3904628D01*
X3519998Y-3918844D01*
X3525772Y-3931966D01*
X3526271Y-3932560D01*
X3526271Y-3932561D01*
X3534287Y-3942097D01*
X3534997Y-3942941D01*
X3546931Y-3950885D01*
X3547672Y-3951116D01*
X3559875Y-3954929D01*
X3559875Y-3954929D01*
X3560616Y-3955160D01*
X3568373Y-3955302D01*
X3574174Y-3955409D01*
X3574174Y-3955409D01*
X3574950Y-3955423D01*
X3588782Y-3951652D01*
X3600999Y-3944150D01*
X3601931Y-3943121D01*
X3610099Y-3934097D01*
X3610620Y-3933521D01*
X3616871Y-3920619D01*
X3617438Y-3917246D01*
X3620554Y-3911273D01*
X3626586Y-3908273D01*
X3633229Y-3909390D01*
X3634227Y-3909981D01*
X3640474Y-3914139D01*
X3640475Y-3914140D01*
X3641121Y-3914570D01*
X3641862Y-3914801D01*
X3654064Y-3918613D01*
X3654064Y-3918613D01*
X3654805Y-3918845D01*
X3662563Y-3918987D01*
X3668364Y-3919094D01*
X3668364Y-3919094D01*
X3669140Y-3919108D01*
X3682971Y-3915337D01*
X3695189Y-3907835D01*
X3704810Y-3897206D01*
X3711061Y-3884304D01*
X3713111Y-3872115D01*
X3713369Y-3870582D01*
X3713369Y-3870581D01*
X3713439Y-3870166D01*
X3713454Y-3868931D01*
X3711422Y-3854739D01*
X3711119Y-3854074D01*
X3711319Y-3847361D01*
X3715438Y-3842031D01*
X3721904Y-3840140D01*
X3723323Y-3840276D01*
X3723958Y-3840379D01*
X3724700Y-3840610D01*
X3732457Y-3840752D01*
X3738258Y-3840859D01*
X3738258Y-3840859D01*
X3739034Y-3840873D01*
X3748458Y-3838304D01*
X4404823Y-3838304D01*
X4404958Y-3839151D01*
X4406798Y-3850769D01*
X4406798Y-3850769D01*
X4406932Y-3851616D01*
X4410793Y-3859194D01*
X4412610Y-3862760D01*
X4413051Y-3863626D01*
X4422582Y-3873156D01*
X4423346Y-3873546D01*
X4423346Y-3873546D01*
X4424083Y-3873921D01*
X4434591Y-3879276D01*
X4435438Y-3879410D01*
X4435439Y-3879410D01*
X4447056Y-3881250D01*
X4447904Y-3881384D01*
X4448751Y-3881250D01*
X4460369Y-3879410D01*
X4460369Y-3879410D01*
X4461216Y-3879276D01*
X4464425Y-3877641D01*
X4465412Y-3877138D01*
X4472066Y-3876084D01*
X4478068Y-3879142D01*
X4481126Y-3885145D01*
X4480072Y-3891798D01*
X4478068Y-3894557D01*
X4473647Y-3898978D01*
X4473258Y-3899742D01*
X4473258Y-3899742D01*
X4471934Y-3902340D01*
X4467528Y-3910987D01*
X4467394Y-3911835D01*
X4467394Y-3911835D01*
X4466003Y-3920619D01*
X4465420Y-3924300D01*
X4465554Y-3925147D01*
X4467394Y-3936765D01*
X4467394Y-3936765D01*
X4467528Y-3937613D01*
X4473647Y-3949622D01*
X4483178Y-3959153D01*
X4495187Y-3965272D01*
X4496035Y-3965406D01*
X4496035Y-3965406D01*
X4507653Y-3967246D01*
X4508500Y-3967380D01*
X4509347Y-3967246D01*
X4520965Y-3965406D01*
X4520965Y-3965406D01*
X4521813Y-3965272D01*
X4533822Y-3959153D01*
X4543353Y-3949622D01*
X4549472Y-3937613D01*
X4549606Y-3936765D01*
X4549606Y-3936765D01*
X4551446Y-3925147D01*
X4551580Y-3924300D01*
X4550997Y-3920619D01*
X4549606Y-3911835D01*
X4549606Y-3911835D01*
X4549472Y-3910987D01*
X4545066Y-3902340D01*
X4543742Y-3899742D01*
X4543742Y-3899742D01*
X4543353Y-3898978D01*
X4536176Y-3891801D01*
X4533117Y-3885798D01*
X4534171Y-3879145D01*
X4538935Y-3874381D01*
X4545424Y-3871075D01*
X4545424Y-3871075D01*
X4546188Y-3870685D01*
X4555719Y-3861154D01*
X4556641Y-3859344D01*
X4557963Y-3856750D01*
X4559265Y-3854196D01*
X4743408Y-3854196D01*
X4743542Y-3855043D01*
X4745382Y-3866661D01*
X4745382Y-3866661D01*
X4745516Y-3867509D01*
X4749410Y-3875151D01*
X4751173Y-3878611D01*
X4751635Y-3879518D01*
X4761166Y-3889049D01*
X4761930Y-3889438D01*
X4761930Y-3889438D01*
X4762193Y-3889572D01*
X4773175Y-3895168D01*
X4774023Y-3895302D01*
X4774023Y-3895302D01*
X4785641Y-3897142D01*
X4786488Y-3897276D01*
X4787335Y-3897142D01*
X4798953Y-3895302D01*
X4798953Y-3895302D01*
X4799801Y-3895168D01*
X4810783Y-3889572D01*
X4811046Y-3889438D01*
X4811046Y-3889438D01*
X4811810Y-3889049D01*
X4821341Y-3879518D01*
X4821803Y-3878611D01*
X4823566Y-3875151D01*
X4824722Y-3872882D01*
X5334239Y-3872882D01*
X5336098Y-3887098D01*
X5341872Y-3900220D01*
X5342371Y-3900814D01*
X5342372Y-3900815D01*
X5348641Y-3908273D01*
X5351097Y-3911195D01*
X5363031Y-3919139D01*
X5363772Y-3919370D01*
X5375975Y-3923183D01*
X5375975Y-3923183D01*
X5376716Y-3923414D01*
X5384474Y-3923556D01*
X5390274Y-3923663D01*
X5390274Y-3923663D01*
X5391050Y-3923677D01*
X5404882Y-3919906D01*
X5417099Y-3912404D01*
X5423805Y-3904996D01*
X6439000Y-3904996D01*
X6439134Y-3905843D01*
X6440974Y-3917461D01*
X6440974Y-3917461D01*
X6441108Y-3918309D01*
X6447227Y-3930318D01*
X6456758Y-3939849D01*
X6468767Y-3945968D01*
X6469615Y-3946102D01*
X6469615Y-3946102D01*
X6481233Y-3947942D01*
X6482080Y-3948076D01*
X6482927Y-3947942D01*
X6494545Y-3946102D01*
X6494545Y-3946102D01*
X6495393Y-3945968D01*
X6507402Y-3939849D01*
X6516933Y-3930318D01*
X6523052Y-3918309D01*
X6523186Y-3917461D01*
X6523186Y-3917461D01*
X6525026Y-3905843D01*
X6525160Y-3904996D01*
X6524291Y-3899509D01*
X6523186Y-3892531D01*
X6523186Y-3892531D01*
X6523052Y-3891683D01*
X6517972Y-3881713D01*
X6517322Y-3880438D01*
X6517322Y-3880438D01*
X6516933Y-3879674D01*
X6507402Y-3870143D01*
X6495393Y-3864024D01*
X6494545Y-3863890D01*
X6494545Y-3863890D01*
X6482927Y-3862050D01*
X6482080Y-3861916D01*
X6481233Y-3862050D01*
X6469615Y-3863890D01*
X6469615Y-3863890D01*
X6468767Y-3864024D01*
X6456758Y-3870143D01*
X6447227Y-3879674D01*
X6446838Y-3880438D01*
X6446838Y-3880438D01*
X6446188Y-3881713D01*
X6441108Y-3891683D01*
X6440974Y-3892531D01*
X6440974Y-3892531D01*
X6439869Y-3899509D01*
X6439000Y-3904996D01*
X5423805Y-3904996D01*
X5426720Y-3901775D01*
X5432971Y-3888873D01*
X5434545Y-3879518D01*
X5435280Y-3875151D01*
X5435280Y-3875151D01*
X5435350Y-3874735D01*
X5435365Y-3873500D01*
X5433332Y-3859308D01*
X5427398Y-3846257D01*
X5418040Y-3835396D01*
X5406010Y-3827598D01*
X5400125Y-3825839D01*
X5393018Y-3823713D01*
X5393018Y-3823713D01*
X5392274Y-3823491D01*
X5385106Y-3823447D01*
X5378714Y-3823408D01*
X5378714Y-3823408D01*
X5377938Y-3823403D01*
X5377191Y-3823616D01*
X5377191Y-3823616D01*
X5364899Y-3827129D01*
X5364899Y-3827129D01*
X5364153Y-3827343D01*
X5352028Y-3834993D01*
X5342538Y-3845739D01*
X5342208Y-3846442D01*
X5342208Y-3846442D01*
X5336775Y-3858013D01*
X5336775Y-3858013D01*
X5336445Y-3858716D01*
X5336325Y-3859484D01*
X5334728Y-3869745D01*
X5334239Y-3872882D01*
X4824722Y-3872882D01*
X4827460Y-3867509D01*
X4827594Y-3866661D01*
X4827594Y-3866661D01*
X4829434Y-3855043D01*
X4829568Y-3854196D01*
X4828634Y-3848297D01*
X4827594Y-3841731D01*
X4827594Y-3841731D01*
X4827460Y-3840883D01*
X4821919Y-3830009D01*
X4821730Y-3829638D01*
X4821730Y-3829638D01*
X4821341Y-3828874D01*
X4811810Y-3819343D01*
X4810973Y-3818917D01*
X4807016Y-3816900D01*
X4799801Y-3813224D01*
X4798953Y-3813090D01*
X4798953Y-3813090D01*
X4787335Y-3811250D01*
X4786488Y-3811116D01*
X4785641Y-3811250D01*
X4774023Y-3813090D01*
X4774023Y-3813090D01*
X4773175Y-3813224D01*
X4765960Y-3816900D01*
X4762003Y-3818917D01*
X4761166Y-3819343D01*
X4751635Y-3828874D01*
X4751246Y-3829638D01*
X4751246Y-3829638D01*
X4751057Y-3830009D01*
X4745516Y-3840883D01*
X4745382Y-3841731D01*
X4745382Y-3841731D01*
X4744342Y-3848297D01*
X4743408Y-3854196D01*
X4559265Y-3854196D01*
X4561838Y-3849145D01*
X4561972Y-3848298D01*
X4561972Y-3848297D01*
X4563812Y-3836680D01*
X4563947Y-3835832D01*
X4563154Y-3830827D01*
X4561972Y-3823367D01*
X4561972Y-3823367D01*
X4561838Y-3822520D01*
X4557300Y-3813614D01*
X4556108Y-3811274D01*
X4556108Y-3811274D01*
X4555719Y-3810510D01*
X4554637Y-3809428D01*
X5904723Y-3809428D01*
X5906582Y-3823644D01*
X5912356Y-3836766D01*
X5912855Y-3837360D01*
X5912855Y-3837361D01*
X5921081Y-3847147D01*
X5921581Y-3847741D01*
X5933515Y-3855685D01*
X5934256Y-3855916D01*
X5946459Y-3859729D01*
X5946459Y-3859729D01*
X5947200Y-3859960D01*
X5954957Y-3860102D01*
X5960758Y-3860209D01*
X5960758Y-3860209D01*
X5961534Y-3860223D01*
X5975366Y-3856452D01*
X5987583Y-3848950D01*
X5997204Y-3838321D01*
X6003455Y-3825419D01*
X6005507Y-3813224D01*
X6005764Y-3811697D01*
X6005764Y-3811697D01*
X6005834Y-3811281D01*
X6005849Y-3810046D01*
X6003816Y-3795854D01*
X5997882Y-3782803D01*
X5993208Y-3777378D01*
X6247623Y-3777378D01*
X6249482Y-3791594D01*
X6255256Y-3804716D01*
X6255755Y-3805310D01*
X6255755Y-3805311D01*
X6263981Y-3815097D01*
X6264481Y-3815691D01*
X6276415Y-3823635D01*
X6277156Y-3823866D01*
X6289359Y-3827679D01*
X6289359Y-3827679D01*
X6290100Y-3827910D01*
X6297857Y-3828052D01*
X6303658Y-3828159D01*
X6303658Y-3828159D01*
X6304434Y-3828173D01*
X6318266Y-3824402D01*
X6330483Y-3816900D01*
X6340104Y-3806271D01*
X6346355Y-3793369D01*
X6348734Y-3779231D01*
X6348749Y-3777996D01*
X6346716Y-3763804D01*
X6340782Y-3750753D01*
X6331424Y-3739892D01*
X6319393Y-3732094D01*
X6314186Y-3730537D01*
X6306402Y-3728209D01*
X6306402Y-3728209D01*
X6305658Y-3727987D01*
X6298490Y-3727943D01*
X6292098Y-3727904D01*
X6292098Y-3727904D01*
X6291322Y-3727899D01*
X6290575Y-3728112D01*
X6290575Y-3728112D01*
X6278283Y-3731625D01*
X6278283Y-3731625D01*
X6277537Y-3731839D01*
X6276880Y-3732253D01*
X6266148Y-3739024D01*
X6265412Y-3739489D01*
X6255922Y-3750235D01*
X6255592Y-3750938D01*
X6255592Y-3750938D01*
X6250159Y-3762509D01*
X6250159Y-3762509D01*
X6249829Y-3763212D01*
X6249709Y-3763980D01*
X6247851Y-3775912D01*
X6247623Y-3777378D01*
X5993208Y-3777378D01*
X5988524Y-3771942D01*
X5976493Y-3764144D01*
X5970502Y-3762353D01*
X5963502Y-3760259D01*
X5963502Y-3760259D01*
X5962758Y-3760037D01*
X5955590Y-3759993D01*
X5949198Y-3759954D01*
X5949198Y-3759954D01*
X5948422Y-3759949D01*
X5947675Y-3760162D01*
X5947675Y-3760162D01*
X5935383Y-3763675D01*
X5935383Y-3763675D01*
X5934637Y-3763889D01*
X5933980Y-3764303D01*
X5923873Y-3770680D01*
X5922512Y-3771539D01*
X5913022Y-3782285D01*
X5912692Y-3782988D01*
X5912692Y-3782988D01*
X5907259Y-3794559D01*
X5907259Y-3794559D01*
X5906929Y-3795262D01*
X5906809Y-3796030D01*
X5905323Y-3805572D01*
X5904723Y-3809428D01*
X4554637Y-3809428D01*
X4546188Y-3800980D01*
X4534179Y-3794861D01*
X4533332Y-3794726D01*
X4533331Y-3794726D01*
X4521714Y-3792886D01*
X4520866Y-3792752D01*
X4520019Y-3792886D01*
X4508401Y-3794726D01*
X4508401Y-3794726D01*
X4507554Y-3794861D01*
X4495544Y-3800980D01*
X4494938Y-3801586D01*
X4494938Y-3801586D01*
X4490857Y-3805667D01*
X4484855Y-3808725D01*
X4478201Y-3807672D01*
X4475442Y-3805667D01*
X4473226Y-3803451D01*
X4461216Y-3797332D01*
X4460369Y-3797198D01*
X4460369Y-3797197D01*
X4448751Y-3795357D01*
X4447904Y-3795223D01*
X4447056Y-3795357D01*
X4435439Y-3797197D01*
X4435438Y-3797198D01*
X4434591Y-3797332D01*
X4422582Y-3803451D01*
X4413051Y-3812982D01*
X4406932Y-3824991D01*
X4406798Y-3825838D01*
X4406798Y-3825839D01*
X4405349Y-3834985D01*
X4404823Y-3838304D01*
X3748458Y-3838304D01*
X3752866Y-3837102D01*
X3765083Y-3829600D01*
X3774704Y-3818971D01*
X3780955Y-3806069D01*
X3782997Y-3793933D01*
X3783264Y-3792347D01*
X3783264Y-3792347D01*
X3783334Y-3791931D01*
X3783349Y-3790696D01*
X3781316Y-3776504D01*
X3775382Y-3763453D01*
X3766024Y-3752592D01*
X3753993Y-3744794D01*
X3749138Y-3743342D01*
X4208623Y-3743342D01*
X4210482Y-3757558D01*
X4216256Y-3770680D01*
X4216755Y-3771274D01*
X4216756Y-3771275D01*
X4224982Y-3781061D01*
X4225481Y-3781655D01*
X4237415Y-3789599D01*
X4238156Y-3789830D01*
X4250359Y-3793643D01*
X4250359Y-3793643D01*
X4251100Y-3793874D01*
X4258858Y-3794016D01*
X4264658Y-3794123D01*
X4264658Y-3794123D01*
X4265434Y-3794137D01*
X4279266Y-3790366D01*
X4291483Y-3782864D01*
X4301104Y-3772235D01*
X4307355Y-3759333D01*
X4309358Y-3747428D01*
X4309664Y-3745611D01*
X4309664Y-3745611D01*
X4309734Y-3745195D01*
X4309749Y-3743960D01*
X4307716Y-3729768D01*
X4301782Y-3716717D01*
X4292424Y-3705856D01*
X4280394Y-3698058D01*
X4278820Y-3697588D01*
X4267402Y-3694173D01*
X4267402Y-3694173D01*
X4266658Y-3693951D01*
X4259490Y-3693907D01*
X4253098Y-3693868D01*
X4253098Y-3693868D01*
X4252322Y-3693863D01*
X4251575Y-3694076D01*
X4251575Y-3694076D01*
X4239283Y-3697589D01*
X4239283Y-3697589D01*
X4238537Y-3697803D01*
X4237880Y-3698217D01*
X4230289Y-3703007D01*
X4226412Y-3705453D01*
X4216922Y-3716199D01*
X4216592Y-3716902D01*
X4216592Y-3716902D01*
X4211159Y-3728473D01*
X4211159Y-3728473D01*
X4210829Y-3729176D01*
X4210709Y-3729944D01*
X4209160Y-3739892D01*
X4208623Y-3743342D01*
X3749138Y-3743342D01*
X3746571Y-3742575D01*
X3741002Y-3740909D01*
X3741002Y-3740909D01*
X3740258Y-3740687D01*
X3733090Y-3740643D01*
X3726698Y-3740604D01*
X3726698Y-3740604D01*
X3725922Y-3740599D01*
X3725175Y-3740812D01*
X3725175Y-3740812D01*
X3712883Y-3744325D01*
X3712883Y-3744325D01*
X3712137Y-3744539D01*
X3711480Y-3744953D01*
X3701167Y-3751460D01*
X3700012Y-3752189D01*
X3690522Y-3762935D01*
X3690192Y-3763638D01*
X3690192Y-3763638D01*
X3684759Y-3775209D01*
X3684759Y-3775209D01*
X3684429Y-3775912D01*
X3684309Y-3776680D01*
X3683447Y-3782215D01*
X3682223Y-3790078D01*
X3684082Y-3804294D01*
X3684395Y-3805005D01*
X3684597Y-3805730D01*
X3684315Y-3812461D01*
X3680131Y-3817740D01*
X3673642Y-3819552D01*
X3671876Y-3819256D01*
X3671876Y-3819259D01*
X3671108Y-3819144D01*
X3670364Y-3818921D01*
X3663195Y-3818878D01*
X3656804Y-3818839D01*
X3656804Y-3818839D01*
X3656027Y-3818834D01*
X3655281Y-3819047D01*
X3655281Y-3819047D01*
X3642989Y-3822560D01*
X3642989Y-3822560D01*
X3642243Y-3822774D01*
X3641586Y-3823188D01*
X3630778Y-3830007D01*
X3630118Y-3830424D01*
X3620627Y-3841170D01*
X3620297Y-3841872D01*
X3620297Y-3841873D01*
X3614864Y-3853444D01*
X3614864Y-3853444D01*
X3614534Y-3854147D01*
X3614415Y-3854915D01*
X3614129Y-3856750D01*
X3611087Y-3862760D01*
X3605092Y-3865834D01*
X3598436Y-3864797D01*
X3597430Y-3864219D01*
X3595179Y-3862760D01*
X3589909Y-3859344D01*
X3585458Y-3858013D01*
X3576918Y-3855459D01*
X3576918Y-3855459D01*
X3576174Y-3855237D01*
X3569006Y-3855193D01*
X3562614Y-3855154D01*
X3562614Y-3855154D01*
X3561838Y-3855149D01*
X3561091Y-3855362D01*
X3561091Y-3855362D01*
X3548799Y-3858875D01*
X3548799Y-3858875D01*
X3548053Y-3859089D01*
X3547396Y-3859503D01*
X3536981Y-3866075D01*
X3535928Y-3866739D01*
X3526438Y-3877485D01*
X3526108Y-3878188D01*
X3526108Y-3878188D01*
X3520675Y-3889759D01*
X3520675Y-3889759D01*
X3520345Y-3890462D01*
X3520225Y-3891230D01*
X3518494Y-3902351D01*
X3518139Y-3904628D01*
X3313396Y-3904628D01*
X3311416Y-3890804D01*
X3305482Y-3877753D01*
X3296124Y-3866892D01*
X3284093Y-3859094D01*
X3282444Y-3858601D01*
X3271102Y-3855209D01*
X3271102Y-3855209D01*
X3270358Y-3854987D01*
X3263190Y-3854943D01*
X3256798Y-3854904D01*
X3256798Y-3854904D01*
X3256022Y-3854899D01*
X3255275Y-3855112D01*
X3255275Y-3855112D01*
X3242983Y-3858625D01*
X3242983Y-3858625D01*
X3242237Y-3858839D01*
X3241580Y-3859253D01*
X3231150Y-3865834D01*
X3230112Y-3866489D01*
X3220622Y-3877235D01*
X3220292Y-3877938D01*
X3220292Y-3877938D01*
X3214859Y-3889509D01*
X3214859Y-3889509D01*
X3214529Y-3890212D01*
X3214409Y-3890980D01*
X3212878Y-3900815D01*
X3212323Y-3904378D01*
X3087147Y-3904378D01*
X3086905Y-3904071D01*
X3086402Y-3903380D01*
X3084291Y-3900220D01*
X3073144Y-3883538D01*
X3059397Y-3862964D01*
X3058950Y-3862235D01*
X3035200Y-3819825D01*
X3034811Y-3819063D01*
X3014461Y-3774920D01*
X3014134Y-3774129D01*
X3001765Y-3740604D01*
X2997310Y-3728527D01*
X2997046Y-3727713D01*
X2983852Y-3680931D01*
X2983652Y-3680099D01*
X2980266Y-3663078D01*
X3682223Y-3663078D01*
X3684082Y-3677294D01*
X3689856Y-3690416D01*
X3690355Y-3691010D01*
X3690355Y-3691011D01*
X3696650Y-3698498D01*
X3699081Y-3701391D01*
X3711015Y-3709335D01*
X3711756Y-3709566D01*
X3723959Y-3713379D01*
X3723959Y-3713379D01*
X3724700Y-3713610D01*
X3732457Y-3713752D01*
X3738258Y-3713859D01*
X3738258Y-3713859D01*
X3739034Y-3713873D01*
X3752866Y-3710102D01*
X3765083Y-3702600D01*
X3774704Y-3691971D01*
X3776396Y-3688478D01*
X5130023Y-3688478D01*
X5131882Y-3702694D01*
X5137656Y-3715816D01*
X5138155Y-3716410D01*
X5138156Y-3716411D01*
X5139008Y-3717424D01*
X5146881Y-3726791D01*
X5158815Y-3734735D01*
X5159556Y-3734966D01*
X5171759Y-3738779D01*
X5171759Y-3738779D01*
X5172500Y-3739010D01*
X5180258Y-3739152D01*
X5186058Y-3739259D01*
X5186058Y-3739259D01*
X5186834Y-3739273D01*
X5200666Y-3735502D01*
X5212883Y-3728000D01*
X5214103Y-3726653D01*
X5221983Y-3717947D01*
X5222504Y-3717371D01*
X5228755Y-3704469D01*
X5230301Y-3695280D01*
X5231064Y-3690747D01*
X5231064Y-3690747D01*
X5231134Y-3690331D01*
X5231149Y-3689096D01*
X5231060Y-3688478D01*
X5282423Y-3688478D01*
X5284282Y-3702694D01*
X5290056Y-3715816D01*
X5290555Y-3716410D01*
X5290556Y-3716411D01*
X5291408Y-3717424D01*
X5299281Y-3726791D01*
X5311215Y-3734735D01*
X5311956Y-3734966D01*
X5324159Y-3738779D01*
X5324159Y-3738779D01*
X5324900Y-3739010D01*
X5332658Y-3739152D01*
X5338458Y-3739259D01*
X5338458Y-3739259D01*
X5339234Y-3739273D01*
X5353066Y-3735502D01*
X5365283Y-3728000D01*
X5366503Y-3726653D01*
X5374383Y-3717947D01*
X5374904Y-3717371D01*
X5377228Y-3712575D01*
X6649205Y-3712575D01*
X6649339Y-3713423D01*
X6651179Y-3725040D01*
X6651179Y-3725041D01*
X6651314Y-3725888D01*
X6657433Y-3737897D01*
X6666964Y-3747428D01*
X6678973Y-3753547D01*
X6679820Y-3753682D01*
X6679821Y-3753682D01*
X6691438Y-3755522D01*
X6692286Y-3755656D01*
X6693133Y-3755522D01*
X6704751Y-3753682D01*
X6704751Y-3753682D01*
X6705598Y-3753547D01*
X6717608Y-3747428D01*
X6727138Y-3737897D01*
X6733257Y-3725888D01*
X6733392Y-3725041D01*
X6733392Y-3725040D01*
X6735232Y-3713423D01*
X6735366Y-3712575D01*
X6734785Y-3708905D01*
X6733392Y-3700110D01*
X6733392Y-3700110D01*
X6733257Y-3699263D01*
X6727138Y-3687253D01*
X6717608Y-3677723D01*
X6716766Y-3677294D01*
X6710688Y-3674197D01*
X6705598Y-3671604D01*
X6704751Y-3671469D01*
X6704751Y-3671469D01*
X6693133Y-3669629D01*
X6692286Y-3669495D01*
X6691438Y-3669629D01*
X6679821Y-3671469D01*
X6679820Y-3671469D01*
X6678973Y-3671604D01*
X6673883Y-3674197D01*
X6667805Y-3677294D01*
X6666964Y-3677723D01*
X6657433Y-3687253D01*
X6651314Y-3699263D01*
X6651179Y-3700110D01*
X6651179Y-3700110D01*
X6649787Y-3708905D01*
X6649205Y-3712575D01*
X5377228Y-3712575D01*
X5381155Y-3704469D01*
X5382701Y-3695280D01*
X5383464Y-3690747D01*
X5383464Y-3690747D01*
X5383534Y-3690331D01*
X5383549Y-3689096D01*
X5381516Y-3674904D01*
X5375582Y-3661853D01*
X5366224Y-3650992D01*
X5354194Y-3643194D01*
X5350617Y-3642125D01*
X5341202Y-3639309D01*
X5341202Y-3639309D01*
X5340458Y-3639087D01*
X5333290Y-3639043D01*
X5326898Y-3639004D01*
X5326898Y-3639004D01*
X5326122Y-3638999D01*
X5325375Y-3639212D01*
X5325375Y-3639212D01*
X5313083Y-3642725D01*
X5313083Y-3642725D01*
X5312337Y-3642939D01*
X5311680Y-3643353D01*
X5303270Y-3648660D01*
X5300212Y-3650589D01*
X5290722Y-3661335D01*
X5290392Y-3662038D01*
X5290392Y-3662038D01*
X5284959Y-3673609D01*
X5284959Y-3673609D01*
X5284629Y-3674312D01*
X5284509Y-3675080D01*
X5283662Y-3680519D01*
X5282423Y-3688478D01*
X5231060Y-3688478D01*
X5229116Y-3674904D01*
X5223182Y-3661853D01*
X5213824Y-3650992D01*
X5201794Y-3643194D01*
X5198217Y-3642125D01*
X5188802Y-3639309D01*
X5188802Y-3639309D01*
X5188058Y-3639087D01*
X5180890Y-3639043D01*
X5174498Y-3639004D01*
X5174498Y-3639004D01*
X5173722Y-3638999D01*
X5172975Y-3639212D01*
X5172975Y-3639212D01*
X5160683Y-3642725D01*
X5160683Y-3642725D01*
X5159937Y-3642939D01*
X5159280Y-3643353D01*
X5150870Y-3648660D01*
X5147812Y-3650589D01*
X5138322Y-3661335D01*
X5137992Y-3662038D01*
X5137992Y-3662038D01*
X5132559Y-3673609D01*
X5132559Y-3673609D01*
X5132229Y-3674312D01*
X5132109Y-3675080D01*
X5131262Y-3680519D01*
X5130023Y-3688478D01*
X3776396Y-3688478D01*
X3780955Y-3679069D01*
X3783334Y-3664931D01*
X3783349Y-3663696D01*
X3781316Y-3649504D01*
X3775382Y-3636453D01*
X3766024Y-3625592D01*
X3753993Y-3617794D01*
X3751203Y-3616960D01*
X3741002Y-3613909D01*
X3741002Y-3613909D01*
X3740258Y-3613687D01*
X3733090Y-3613643D01*
X3726698Y-3613604D01*
X3726698Y-3613604D01*
X3725922Y-3613599D01*
X3725175Y-3613812D01*
X3725175Y-3613812D01*
X3712883Y-3617325D01*
X3712883Y-3617325D01*
X3712137Y-3617539D01*
X3700012Y-3625189D01*
X3690522Y-3635935D01*
X3690192Y-3636638D01*
X3690192Y-3636638D01*
X3684759Y-3648209D01*
X3684759Y-3648209D01*
X3684429Y-3648912D01*
X3684309Y-3649680D01*
X3682495Y-3661335D01*
X3682223Y-3663078D01*
X2980266Y-3663078D01*
X2979662Y-3660040D01*
X2974169Y-3632424D01*
X2974035Y-3631579D01*
X2973887Y-3630325D01*
X2968322Y-3583311D01*
X2968255Y-3582458D01*
X2968156Y-3579930D01*
X2966490Y-3537546D01*
X3020830Y-3537546D01*
X3023793Y-3554794D01*
X3024041Y-3555377D01*
X3029917Y-3569186D01*
X3030645Y-3570897D01*
X3041018Y-3584992D01*
X3054355Y-3596323D01*
X3054919Y-3596611D01*
X3054920Y-3596611D01*
X3069378Y-3603994D01*
X3069378Y-3603994D01*
X3069942Y-3604282D01*
X3070556Y-3604432D01*
X3070556Y-3604432D01*
X3086469Y-3608326D01*
X3086469Y-3608326D01*
X3086941Y-3608441D01*
X3087425Y-3608471D01*
X3087425Y-3608472D01*
X3087724Y-3608490D01*
X3088045Y-3608510D01*
X3100662Y-3608510D01*
X3110262Y-3607391D01*
X3113034Y-3607068D01*
X3113034Y-3607068D01*
X3113663Y-3606994D01*
X3114257Y-3606778D01*
X3114258Y-3606778D01*
X3128986Y-3601432D01*
X5474758Y-3601432D01*
X5476616Y-3615648D01*
X5482390Y-3628770D01*
X5482890Y-3629364D01*
X5482890Y-3629364D01*
X5490307Y-3638188D01*
X5491615Y-3639745D01*
X5503550Y-3647689D01*
X5504291Y-3647920D01*
X5516493Y-3651732D01*
X5516493Y-3651732D01*
X5517234Y-3651964D01*
X5524992Y-3652106D01*
X5530792Y-3652213D01*
X5530793Y-3652213D01*
X5531568Y-3652227D01*
X5545400Y-3648456D01*
X5557618Y-3640954D01*
X5567238Y-3630325D01*
X5567561Y-3629660D01*
X5791300Y-3629660D01*
X5791434Y-3630507D01*
X5793274Y-3642125D01*
X5793274Y-3642125D01*
X5793408Y-3642973D01*
X5797585Y-3651171D01*
X5798123Y-3652227D01*
X5799527Y-3654982D01*
X5809058Y-3664513D01*
X5821067Y-3670632D01*
X5821915Y-3670766D01*
X5821915Y-3670766D01*
X5833533Y-3672606D01*
X5834380Y-3672740D01*
X5835227Y-3672606D01*
X5846845Y-3670766D01*
X5846845Y-3670766D01*
X5847693Y-3670632D01*
X5859702Y-3664513D01*
X5869233Y-3654982D01*
X5870637Y-3652227D01*
X5871175Y-3651171D01*
X5875352Y-3642973D01*
X5875486Y-3642125D01*
X5875486Y-3642125D01*
X5877326Y-3630507D01*
X5877460Y-3629660D01*
X5876844Y-3625771D01*
X5875486Y-3617195D01*
X5875486Y-3617195D01*
X5875352Y-3616347D01*
X5873269Y-3612260D01*
X6075400Y-3612260D01*
X6075534Y-3613107D01*
X6077374Y-3624725D01*
X6077374Y-3624725D01*
X6077508Y-3625573D01*
X6083627Y-3637582D01*
X6093158Y-3647113D01*
X6093922Y-3647502D01*
X6093922Y-3647502D01*
X6096464Y-3648797D01*
X6105167Y-3653232D01*
X6106015Y-3653366D01*
X6106015Y-3653366D01*
X6117633Y-3655206D01*
X6118480Y-3655340D01*
X6119327Y-3655206D01*
X6130945Y-3653366D01*
X6130945Y-3653366D01*
X6131793Y-3653232D01*
X6140496Y-3648797D01*
X6143038Y-3647502D01*
X6143038Y-3647502D01*
X6143802Y-3647113D01*
X6153333Y-3637582D01*
X6159452Y-3625573D01*
X6159586Y-3624725D01*
X6159586Y-3624725D01*
X6160816Y-3616960D01*
X6803500Y-3616960D01*
X6803634Y-3617807D01*
X6805474Y-3629425D01*
X6805474Y-3629425D01*
X6805608Y-3630273D01*
X6811727Y-3642282D01*
X6821258Y-3651813D01*
X6822022Y-3652202D01*
X6822022Y-3652202D01*
X6822070Y-3652227D01*
X6833267Y-3657932D01*
X6834115Y-3658066D01*
X6834115Y-3658066D01*
X6845733Y-3659906D01*
X6846580Y-3660040D01*
X6847427Y-3659906D01*
X6859045Y-3658066D01*
X6859045Y-3658066D01*
X6859893Y-3657932D01*
X6871089Y-3652227D01*
X6871138Y-3652202D01*
X6871138Y-3652202D01*
X6871902Y-3651813D01*
X6881433Y-3642282D01*
X6883519Y-3638188D01*
X6886718Y-3631909D01*
X6891481Y-3627146D01*
X6898135Y-3626092D01*
X6904137Y-3629150D01*
X6906142Y-3631909D01*
X6909341Y-3638188D01*
X6911427Y-3642282D01*
X6920958Y-3651813D01*
X6921722Y-3652202D01*
X6921722Y-3652202D01*
X6921770Y-3652227D01*
X6932967Y-3657932D01*
X6933815Y-3658066D01*
X6933815Y-3658066D01*
X6945433Y-3659906D01*
X6946280Y-3660040D01*
X6947127Y-3659906D01*
X6958745Y-3658066D01*
X6958745Y-3658066D01*
X6959593Y-3657932D01*
X6970789Y-3652227D01*
X6970838Y-3652202D01*
X6970838Y-3652202D01*
X6971602Y-3651813D01*
X6981133Y-3642282D01*
X6987252Y-3630273D01*
X6987386Y-3629425D01*
X6987386Y-3629425D01*
X6989226Y-3617807D01*
X6989360Y-3616960D01*
X6989142Y-3615583D01*
X6987386Y-3604495D01*
X6987386Y-3604495D01*
X6987252Y-3603647D01*
X6981133Y-3591638D01*
X6971602Y-3582107D01*
X6959593Y-3575988D01*
X6958745Y-3575854D01*
X6958745Y-3575854D01*
X6947127Y-3574014D01*
X6946280Y-3573880D01*
X6945433Y-3574014D01*
X6933815Y-3575854D01*
X6933815Y-3575854D01*
X6932967Y-3575988D01*
X6920958Y-3582107D01*
X6911427Y-3591638D01*
X6906335Y-3601632D01*
X6906142Y-3602011D01*
X6901378Y-3606774D01*
X6894725Y-3607828D01*
X6888722Y-3604770D01*
X6886718Y-3602011D01*
X6886525Y-3601632D01*
X6881433Y-3591638D01*
X6871902Y-3582107D01*
X6859893Y-3575988D01*
X6859045Y-3575854D01*
X6859045Y-3575854D01*
X6847427Y-3574014D01*
X6846580Y-3573880D01*
X6845733Y-3574014D01*
X6834115Y-3575854D01*
X6834115Y-3575854D01*
X6833267Y-3575988D01*
X6821258Y-3582107D01*
X6811727Y-3591638D01*
X6805608Y-3603647D01*
X6805474Y-3604495D01*
X6805474Y-3604495D01*
X6803718Y-3615583D01*
X6803500Y-3616960D01*
X6160816Y-3616960D01*
X6161426Y-3613107D01*
X6161560Y-3612260D01*
X6160965Y-3608499D01*
X6159586Y-3599795D01*
X6159586Y-3599795D01*
X6159452Y-3598947D01*
X6154224Y-3588688D01*
X6153722Y-3587702D01*
X6153722Y-3587702D01*
X6153333Y-3586938D01*
X6143802Y-3577407D01*
X6131793Y-3571288D01*
X6130945Y-3571154D01*
X6130945Y-3571154D01*
X6119327Y-3569314D01*
X6118480Y-3569180D01*
X6117633Y-3569314D01*
X6106015Y-3571154D01*
X6106015Y-3571154D01*
X6105167Y-3571288D01*
X6093158Y-3577407D01*
X6083627Y-3586938D01*
X6083238Y-3587702D01*
X6083238Y-3587702D01*
X6082735Y-3588688D01*
X6077508Y-3598947D01*
X6077374Y-3599795D01*
X6077374Y-3599795D01*
X6075995Y-3608499D01*
X6075400Y-3612260D01*
X5873269Y-3612260D01*
X5870586Y-3606994D01*
X5869622Y-3605102D01*
X5869622Y-3605102D01*
X5869233Y-3604338D01*
X5859702Y-3594807D01*
X5847693Y-3588688D01*
X5846845Y-3588554D01*
X5846845Y-3588554D01*
X5835227Y-3586714D01*
X5834380Y-3586580D01*
X5833533Y-3586714D01*
X5821915Y-3588554D01*
X5821915Y-3588554D01*
X5821067Y-3588688D01*
X5809058Y-3594807D01*
X5799527Y-3604338D01*
X5799138Y-3605102D01*
X5799138Y-3605102D01*
X5798174Y-3606994D01*
X5793408Y-3616347D01*
X5793274Y-3617195D01*
X5793274Y-3617195D01*
X5791916Y-3625771D01*
X5791300Y-3629660D01*
X5567561Y-3629660D01*
X5573489Y-3617423D01*
X5575281Y-3606774D01*
X5575798Y-3603701D01*
X5575798Y-3603700D01*
X5575868Y-3603285D01*
X5575883Y-3602050D01*
X5573851Y-3587858D01*
X5567917Y-3574807D01*
X5558558Y-3563946D01*
X5546528Y-3556148D01*
X5541999Y-3554794D01*
X5533536Y-3552263D01*
X5533536Y-3552263D01*
X5532792Y-3552040D01*
X5525624Y-3551997D01*
X5519233Y-3551958D01*
X5519232Y-3551958D01*
X5518456Y-3551953D01*
X5517709Y-3552166D01*
X5517709Y-3552166D01*
X5505418Y-3555679D01*
X5505418Y-3555679D01*
X5504671Y-3555893D01*
X5504015Y-3556307D01*
X5493433Y-3562983D01*
X5492546Y-3563543D01*
X5483056Y-3574289D01*
X5482726Y-3574991D01*
X5482726Y-3574992D01*
X5477293Y-3586563D01*
X5477293Y-3586563D01*
X5476963Y-3587266D01*
X5476844Y-3588034D01*
X5475144Y-3598947D01*
X5474758Y-3601432D01*
X3128986Y-3601432D01*
X3129518Y-3601239D01*
X3129518Y-3601239D01*
X3130113Y-3601023D01*
X3141122Y-3593805D01*
X3144219Y-3591775D01*
X3144219Y-3591775D01*
X3144748Y-3591428D01*
X3156784Y-3578723D01*
X3165574Y-3563590D01*
X3167700Y-3556571D01*
X3170463Y-3547447D01*
X3170463Y-3547447D01*
X3170647Y-3546841D01*
X3171314Y-3536078D01*
X3656823Y-3536078D01*
X3658682Y-3550294D01*
X3664456Y-3563416D01*
X3664955Y-3564010D01*
X3664955Y-3564011D01*
X3672632Y-3573143D01*
X3673681Y-3574391D01*
X3685615Y-3582335D01*
X3686356Y-3582566D01*
X3698559Y-3586379D01*
X3698559Y-3586379D01*
X3699300Y-3586610D01*
X3707057Y-3586752D01*
X3712858Y-3586859D01*
X3712858Y-3586859D01*
X3713634Y-3586873D01*
X3727466Y-3583102D01*
X3739683Y-3575600D01*
X3740234Y-3574992D01*
X3748783Y-3565547D01*
X3749304Y-3564971D01*
X3755555Y-3552069D01*
X3757934Y-3537931D01*
X3757949Y-3536696D01*
X3756712Y-3528060D01*
X4952704Y-3528060D01*
X4952838Y-3528907D01*
X4954678Y-3540525D01*
X4954678Y-3540525D01*
X4954812Y-3541372D01*
X4959218Y-3550020D01*
X4959872Y-3551303D01*
X4960931Y-3553382D01*
X4970462Y-3562912D01*
X4971226Y-3563302D01*
X4971226Y-3563302D01*
X4972491Y-3563946D01*
X4982471Y-3569031D01*
X4993214Y-3570733D01*
X4998922Y-3573508D01*
X4999882Y-3574398D01*
X5000785Y-3575236D01*
X5001720Y-3575609D01*
X5001720Y-3575609D01*
X5001751Y-3575621D01*
X5003878Y-3576757D01*
X5004735Y-3577345D01*
X5007255Y-3577943D01*
X5008777Y-3578424D01*
X5011183Y-3579384D01*
X5011812Y-3579446D01*
X5012312Y-3579446D01*
X5014328Y-3579682D01*
X5014648Y-3579698D01*
X5015627Y-3579930D01*
X5016624Y-3579794D01*
X5016624Y-3579794D01*
X5018452Y-3579546D01*
X5019921Y-3579446D01*
X5238776Y-3579446D01*
X5239134Y-3579472D01*
X5239618Y-3579638D01*
X5244541Y-3579454D01*
X5244950Y-3579446D01*
X5246879Y-3579446D01*
X5247333Y-3579361D01*
X5247790Y-3579332D01*
X5248736Y-3579296D01*
X5249799Y-3579256D01*
X5249799Y-3579256D01*
X5250805Y-3579219D01*
X5251760Y-3578808D01*
X5254066Y-3578107D01*
X5255089Y-3577917D01*
X5257294Y-3576558D01*
X5258711Y-3575822D01*
X5258808Y-3575780D01*
X5261090Y-3574800D01*
X5261579Y-3574398D01*
X5261933Y-3574045D01*
X5263526Y-3572785D01*
X5263762Y-3572571D01*
X5264619Y-3572043D01*
X5266344Y-3569774D01*
X5267313Y-3568664D01*
X5298431Y-3537546D01*
X6620830Y-3537546D01*
X6623793Y-3554794D01*
X6624041Y-3555377D01*
X6629917Y-3569186D01*
X6630645Y-3570897D01*
X6641018Y-3584992D01*
X6654355Y-3596323D01*
X6654919Y-3596611D01*
X6654920Y-3596611D01*
X6669378Y-3603994D01*
X6669378Y-3603994D01*
X6669942Y-3604282D01*
X6670556Y-3604432D01*
X6670556Y-3604432D01*
X6686469Y-3608326D01*
X6686469Y-3608326D01*
X6686941Y-3608441D01*
X6687425Y-3608471D01*
X6687425Y-3608472D01*
X6687724Y-3608490D01*
X6688045Y-3608510D01*
X6700662Y-3608510D01*
X6710262Y-3607391D01*
X6713034Y-3607068D01*
X6713034Y-3607068D01*
X6713663Y-3606994D01*
X6714257Y-3606778D01*
X6714258Y-3606778D01*
X6729518Y-3601239D01*
X6729518Y-3601239D01*
X6730113Y-3601023D01*
X6741122Y-3593805D01*
X6744219Y-3591775D01*
X6744219Y-3591775D01*
X6744748Y-3591428D01*
X6756784Y-3578723D01*
X6765574Y-3563590D01*
X6767700Y-3556571D01*
X6770463Y-3547447D01*
X6770463Y-3547447D01*
X6770647Y-3546841D01*
X6771477Y-3533460D01*
X6771691Y-3530006D01*
X6771691Y-3530006D01*
X6771730Y-3529374D01*
X6768767Y-3512126D01*
X6761915Y-3496023D01*
X6751542Y-3481928D01*
X6738204Y-3470597D01*
X6737640Y-3470309D01*
X6737640Y-3470309D01*
X6723182Y-3462926D01*
X6723182Y-3462926D01*
X6722618Y-3462638D01*
X6722004Y-3462488D01*
X6722003Y-3462488D01*
X6706091Y-3458594D01*
X6706091Y-3458594D01*
X6705619Y-3458478D01*
X6705135Y-3458448D01*
X6705135Y-3458448D01*
X6704836Y-3458430D01*
X6704515Y-3458410D01*
X6691898Y-3458410D01*
X6682298Y-3459529D01*
X6679526Y-3459852D01*
X6679526Y-3459852D01*
X6678897Y-3459926D01*
X6678303Y-3460141D01*
X6678302Y-3460142D01*
X6667246Y-3464155D01*
X6662447Y-3465897D01*
X6647811Y-3475492D01*
X6635776Y-3488197D01*
X6626986Y-3503330D01*
X6626802Y-3503937D01*
X6626802Y-3503937D01*
X6624133Y-3512750D01*
X6621913Y-3520079D01*
X6621874Y-3520711D01*
X6620921Y-3536078D01*
X6620830Y-3537546D01*
X5298431Y-3537546D01*
X5410135Y-3425842D01*
X6456919Y-3425842D01*
X6458778Y-3440058D01*
X6464552Y-3453180D01*
X6465051Y-3453774D01*
X6465051Y-3453775D01*
X6472502Y-3462638D01*
X6473777Y-3464155D01*
X6485711Y-3472099D01*
X6486452Y-3472330D01*
X6498655Y-3476143D01*
X6498655Y-3476143D01*
X6499396Y-3476374D01*
X6507153Y-3476516D01*
X6512954Y-3476623D01*
X6512954Y-3476623D01*
X6513730Y-3476637D01*
X6527562Y-3472866D01*
X6539779Y-3465364D01*
X6549400Y-3454735D01*
X6555651Y-3441833D01*
X6558030Y-3427695D01*
X6558045Y-3426460D01*
X6556012Y-3412268D01*
X6550078Y-3399217D01*
X6540720Y-3388356D01*
X6528689Y-3380558D01*
X6527116Y-3380088D01*
X6515698Y-3376673D01*
X6515698Y-3376673D01*
X6514954Y-3376451D01*
X6507786Y-3376407D01*
X6501394Y-3376368D01*
X6501394Y-3376368D01*
X6500618Y-3376363D01*
X6499871Y-3376576D01*
X6499871Y-3376576D01*
X6487579Y-3380089D01*
X6487579Y-3380089D01*
X6486833Y-3380303D01*
X6486176Y-3380717D01*
X6475444Y-3387488D01*
X6474708Y-3387953D01*
X6465218Y-3398699D01*
X6464888Y-3399402D01*
X6464888Y-3399402D01*
X6459455Y-3410973D01*
X6459455Y-3410973D01*
X6459125Y-3411676D01*
X6459005Y-3412444D01*
X6458203Y-3417596D01*
X6456919Y-3425842D01*
X5410135Y-3425842D01*
X5465175Y-3370802D01*
X5471177Y-3367744D01*
X5472882Y-3367610D01*
X6068574Y-3367610D01*
X6074981Y-3369692D01*
X6076918Y-3371496D01*
X6079577Y-3374660D01*
X6079577Y-3374661D01*
X6080077Y-3375255D01*
X6092011Y-3383199D01*
X6092752Y-3383430D01*
X6104955Y-3387243D01*
X6104955Y-3387243D01*
X6105696Y-3387474D01*
X6113453Y-3387616D01*
X6119254Y-3387723D01*
X6119254Y-3387723D01*
X6120030Y-3387737D01*
X6133862Y-3383966D01*
X6146079Y-3376464D01*
X6155700Y-3365835D01*
X6161951Y-3352933D01*
X6164147Y-3339881D01*
X6164260Y-3339211D01*
X6164260Y-3339211D01*
X6164330Y-3338795D01*
X6164345Y-3337560D01*
X6162312Y-3323368D01*
X6156378Y-3310317D01*
X6152344Y-3305635D01*
X6648725Y-3305635D01*
X6648860Y-3306482D01*
X6650700Y-3318100D01*
X6650700Y-3318100D01*
X6650834Y-3318947D01*
X6654272Y-3325694D01*
X6655482Y-3328070D01*
X6656953Y-3330957D01*
X6666484Y-3340488D01*
X6667248Y-3340877D01*
X6667248Y-3340877D01*
X6669846Y-3342201D01*
X6678493Y-3346607D01*
X6679341Y-3346741D01*
X6679341Y-3346741D01*
X6690959Y-3348581D01*
X6691806Y-3348715D01*
X6692653Y-3348581D01*
X6704271Y-3346741D01*
X6704271Y-3346741D01*
X6705118Y-3346607D01*
X6713766Y-3342201D01*
X6716364Y-3340877D01*
X6716364Y-3340877D01*
X6717128Y-3340488D01*
X6726659Y-3330957D01*
X6728130Y-3328070D01*
X6729340Y-3325694D01*
X6732778Y-3318947D01*
X6732912Y-3318100D01*
X6732912Y-3318100D01*
X6734752Y-3306482D01*
X6734886Y-3305635D01*
X6734180Y-3301173D01*
X6732912Y-3293170D01*
X6732912Y-3293170D01*
X6732778Y-3292322D01*
X6726659Y-3280313D01*
X6717128Y-3270782D01*
X6705118Y-3264663D01*
X6704271Y-3264529D01*
X6704271Y-3264529D01*
X6692653Y-3262689D01*
X6691806Y-3262554D01*
X6690959Y-3262689D01*
X6679341Y-3264529D01*
X6679341Y-3264529D01*
X6678493Y-3264663D01*
X6666484Y-3270782D01*
X6656953Y-3280313D01*
X6650834Y-3292322D01*
X6650700Y-3293170D01*
X6650700Y-3293170D01*
X6649432Y-3301173D01*
X6648725Y-3305635D01*
X6152344Y-3305635D01*
X6147020Y-3299456D01*
X6134989Y-3291658D01*
X6129793Y-3290104D01*
X6121998Y-3287773D01*
X6121998Y-3287773D01*
X6121254Y-3287551D01*
X6114086Y-3287507D01*
X6107694Y-3287468D01*
X6107694Y-3287468D01*
X6106918Y-3287463D01*
X6106171Y-3287676D01*
X6106171Y-3287676D01*
X6093879Y-3291189D01*
X6093879Y-3291189D01*
X6093133Y-3291403D01*
X6081008Y-3299053D01*
X6080494Y-3299635D01*
X6076793Y-3303825D01*
X6070992Y-3307250D01*
X6068623Y-3307510D01*
X5461229Y-3307510D01*
X5460870Y-3307484D01*
X5460386Y-3307317D01*
X5455594Y-3307497D01*
X5455462Y-3307502D01*
X5455054Y-3307510D01*
X5453125Y-3307510D01*
X5452671Y-3307595D01*
X5452214Y-3307624D01*
X5451174Y-3307663D01*
X5450205Y-3307700D01*
X5450205Y-3307700D01*
X5449199Y-3307737D01*
X5448244Y-3308148D01*
X5445936Y-3308849D01*
X5445905Y-3308855D01*
X5444915Y-3309039D01*
X5444058Y-3309567D01*
X5444058Y-3309567D01*
X5442710Y-3310398D01*
X5441293Y-3311134D01*
X5438914Y-3312156D01*
X5438425Y-3312558D01*
X5438072Y-3312911D01*
X5436478Y-3314171D01*
X5436242Y-3314385D01*
X5435385Y-3314913D01*
X5434776Y-3315714D01*
X5433660Y-3317182D01*
X5432691Y-3318292D01*
X5234829Y-3516153D01*
X5228827Y-3519212D01*
X5227122Y-3519346D01*
X5045779Y-3519346D01*
X5039372Y-3517264D01*
X5036067Y-3513394D01*
X5033344Y-3508050D01*
X5030637Y-3502738D01*
X5021106Y-3493207D01*
X5009097Y-3487088D01*
X5008249Y-3486953D01*
X5008249Y-3486953D01*
X4996631Y-3485113D01*
X4995784Y-3484979D01*
X4994937Y-3485113D01*
X4983319Y-3486953D01*
X4983319Y-3486953D01*
X4982471Y-3487088D01*
X4970462Y-3493207D01*
X4960931Y-3502738D01*
X4960542Y-3503501D01*
X4960542Y-3503502D01*
X4960320Y-3503937D01*
X4954812Y-3514747D01*
X4954678Y-3515594D01*
X4954678Y-3515595D01*
X4953789Y-3521209D01*
X4952704Y-3528060D01*
X3756712Y-3528060D01*
X3755916Y-3522504D01*
X3749982Y-3509453D01*
X3740624Y-3498592D01*
X3728593Y-3490794D01*
X3727020Y-3490324D01*
X3715602Y-3486909D01*
X3715602Y-3486909D01*
X3714858Y-3486687D01*
X3707690Y-3486643D01*
X3701298Y-3486604D01*
X3701298Y-3486604D01*
X3700522Y-3486599D01*
X3699775Y-3486812D01*
X3699775Y-3486812D01*
X3687483Y-3490325D01*
X3687483Y-3490325D01*
X3686737Y-3490539D01*
X3686080Y-3490953D01*
X3678854Y-3495513D01*
X3674612Y-3498189D01*
X3665122Y-3508935D01*
X3664792Y-3509638D01*
X3664792Y-3509638D01*
X3659359Y-3521209D01*
X3659359Y-3521209D01*
X3659029Y-3521912D01*
X3658909Y-3522680D01*
X3657231Y-3533460D01*
X3656823Y-3536078D01*
X3171314Y-3536078D01*
X3171477Y-3533460D01*
X3171691Y-3530006D01*
X3171691Y-3530006D01*
X3171730Y-3529374D01*
X3168767Y-3512126D01*
X3161915Y-3496023D01*
X3151542Y-3481928D01*
X3138204Y-3470597D01*
X3137640Y-3470309D01*
X3137640Y-3470309D01*
X3123182Y-3462926D01*
X3123182Y-3462926D01*
X3122618Y-3462638D01*
X3122004Y-3462488D01*
X3122003Y-3462488D01*
X3106091Y-3458594D01*
X3106091Y-3458594D01*
X3105619Y-3458478D01*
X3105135Y-3458448D01*
X3105135Y-3458448D01*
X3104836Y-3458430D01*
X3104515Y-3458410D01*
X3091898Y-3458410D01*
X3082298Y-3459529D01*
X3079526Y-3459852D01*
X3079526Y-3459852D01*
X3078897Y-3459926D01*
X3078303Y-3460141D01*
X3078302Y-3460142D01*
X3067246Y-3464155D01*
X3062447Y-3465897D01*
X3047811Y-3475492D01*
X3035776Y-3488197D01*
X3026986Y-3503330D01*
X3026802Y-3503937D01*
X3026802Y-3503937D01*
X3024133Y-3512750D01*
X3021913Y-3520079D01*
X3021874Y-3520711D01*
X3020921Y-3536078D01*
X3020830Y-3537546D01*
X2966490Y-3537546D01*
X2966347Y-3533888D01*
X2966347Y-3533032D01*
X2967316Y-3508353D01*
X2968255Y-3484462D01*
X2968322Y-3483609D01*
X2969896Y-3470309D01*
X2974035Y-3435340D01*
X2974169Y-3434495D01*
X2974362Y-3433524D01*
X2983519Y-3387488D01*
X2983652Y-3386821D01*
X2983852Y-3385989D01*
X2988085Y-3370978D01*
X5206223Y-3370978D01*
X5208082Y-3385194D01*
X5213856Y-3398316D01*
X5214355Y-3398910D01*
X5214356Y-3398911D01*
X5215208Y-3399924D01*
X5223081Y-3409291D01*
X5235015Y-3417235D01*
X5235756Y-3417466D01*
X5247959Y-3421279D01*
X5247959Y-3421279D01*
X5248700Y-3421510D01*
X5256458Y-3421652D01*
X5262258Y-3421759D01*
X5262258Y-3421759D01*
X5263034Y-3421773D01*
X5276866Y-3418002D01*
X5289083Y-3410500D01*
X5298704Y-3399871D01*
X5304955Y-3386969D01*
X5306654Y-3376871D01*
X5307264Y-3373247D01*
X5307264Y-3373247D01*
X5307334Y-3372831D01*
X5307349Y-3371596D01*
X5305316Y-3357404D01*
X5302935Y-3352167D01*
X5299704Y-3345060D01*
X5299704Y-3345060D01*
X5299382Y-3344353D01*
X5299437Y-3344328D01*
X5297878Y-3338340D01*
X5300336Y-3332068D01*
X5306011Y-3328439D01*
X5312009Y-3328583D01*
X5324159Y-3332379D01*
X5324159Y-3332379D01*
X5324900Y-3332610D01*
X5332650Y-3332752D01*
X5338458Y-3332859D01*
X5338458Y-3332859D01*
X5339234Y-3332873D01*
X5353066Y-3329102D01*
X5365283Y-3321600D01*
X5374904Y-3310971D01*
X5381155Y-3298069D01*
X5382799Y-3288301D01*
X5383464Y-3284347D01*
X5383464Y-3284347D01*
X5383534Y-3283931D01*
X5383549Y-3282696D01*
X5381516Y-3268504D01*
X5375582Y-3255453D01*
X5366224Y-3244592D01*
X5354194Y-3236794D01*
X5350617Y-3235725D01*
X5341202Y-3232909D01*
X5341202Y-3232909D01*
X5340458Y-3232687D01*
X5333290Y-3232643D01*
X5326898Y-3232604D01*
X5326898Y-3232604D01*
X5326122Y-3232599D01*
X5325375Y-3232812D01*
X5325375Y-3232812D01*
X5313083Y-3236325D01*
X5313083Y-3236325D01*
X5312337Y-3236539D01*
X5311680Y-3236953D01*
X5301102Y-3243628D01*
X5300212Y-3244189D01*
X5290722Y-3254935D01*
X5290392Y-3255638D01*
X5290392Y-3255638D01*
X5284959Y-3267209D01*
X5284959Y-3267209D01*
X5284629Y-3267912D01*
X5284509Y-3268680D01*
X5282978Y-3278515D01*
X5282423Y-3282078D01*
X5284282Y-3296294D01*
X5290056Y-3309416D01*
X5290253Y-3309651D01*
X5291819Y-3315980D01*
X5289285Y-3322222D01*
X5283565Y-3325782D01*
X5277824Y-3325644D01*
X5265002Y-3321809D01*
X5265002Y-3321809D01*
X5264258Y-3321587D01*
X5257090Y-3321543D01*
X5250698Y-3321504D01*
X5250698Y-3321504D01*
X5249922Y-3321499D01*
X5249175Y-3321712D01*
X5249175Y-3321712D01*
X5236883Y-3325225D01*
X5236883Y-3325225D01*
X5236137Y-3325439D01*
X5230331Y-3329102D01*
X5224968Y-3332486D01*
X5223919Y-3332752D01*
X5222980Y-3334257D01*
X5214522Y-3343835D01*
X5214192Y-3344538D01*
X5214192Y-3344538D01*
X5208759Y-3356109D01*
X5208759Y-3356109D01*
X5208429Y-3356812D01*
X5206223Y-3370978D01*
X2988085Y-3370978D01*
X2995542Y-3344538D01*
X2997046Y-3339207D01*
X2997310Y-3338393D01*
X2999267Y-3333089D01*
X3012495Y-3297232D01*
X3014134Y-3292791D01*
X3014461Y-3292000D01*
X3033555Y-3250582D01*
X3111739Y-3250582D01*
X3113598Y-3264798D01*
X3119372Y-3277920D01*
X3119871Y-3278514D01*
X3119871Y-3278515D01*
X3127573Y-3287676D01*
X3128597Y-3288895D01*
X3140531Y-3296839D01*
X3141272Y-3297070D01*
X3153475Y-3300883D01*
X3153475Y-3300883D01*
X3154216Y-3301114D01*
X3161973Y-3301256D01*
X3167774Y-3301363D01*
X3167774Y-3301363D01*
X3168550Y-3301377D01*
X3182382Y-3297606D01*
X3194599Y-3290104D01*
X3199024Y-3285216D01*
X3201997Y-3281931D01*
X3650914Y-3281931D01*
X3652773Y-3296147D01*
X3658547Y-3309269D01*
X3659047Y-3309863D01*
X3659047Y-3309863D01*
X3666132Y-3318292D01*
X3667772Y-3320244D01*
X3679707Y-3328188D01*
X3680448Y-3328419D01*
X3692650Y-3332232D01*
X3692650Y-3332232D01*
X3693391Y-3332463D01*
X3701149Y-3332605D01*
X3706949Y-3332712D01*
X3706949Y-3332712D01*
X3707725Y-3332726D01*
X3721557Y-3328955D01*
X3733774Y-3321453D01*
X3743395Y-3310824D01*
X3749646Y-3297922D01*
X3751784Y-3285216D01*
X3751955Y-3284200D01*
X3751955Y-3284200D01*
X3752025Y-3283784D01*
X3752040Y-3282549D01*
X3750008Y-3268357D01*
X3744074Y-3255306D01*
X3734715Y-3244445D01*
X3722685Y-3236647D01*
X3712361Y-3233560D01*
X3709693Y-3232762D01*
X3709693Y-3232762D01*
X3708949Y-3232540D01*
X3701781Y-3232496D01*
X3695390Y-3232457D01*
X3695389Y-3232457D01*
X3694613Y-3232452D01*
X3693866Y-3232665D01*
X3693866Y-3232665D01*
X3681575Y-3236178D01*
X3681574Y-3236178D01*
X3680828Y-3236392D01*
X3680171Y-3236806D01*
X3674660Y-3240284D01*
X3668703Y-3244042D01*
X3659213Y-3254788D01*
X3658883Y-3255490D01*
X3658883Y-3255491D01*
X3653450Y-3267062D01*
X3653450Y-3267062D01*
X3653120Y-3267765D01*
X3653001Y-3268533D01*
X3651297Y-3279475D01*
X3650914Y-3281931D01*
X3201997Y-3281931D01*
X3203699Y-3280051D01*
X3204220Y-3279475D01*
X3210471Y-3266573D01*
X3212223Y-3256160D01*
X3212780Y-3252851D01*
X3212780Y-3252851D01*
X3212850Y-3252435D01*
X3212865Y-3251200D01*
X3210832Y-3237008D01*
X3204898Y-3223957D01*
X3195540Y-3213096D01*
X3183509Y-3205298D01*
X3180211Y-3204312D01*
X3170518Y-3201413D01*
X3170518Y-3201413D01*
X3169774Y-3201191D01*
X3162606Y-3201147D01*
X3156214Y-3201108D01*
X3156214Y-3201108D01*
X3155438Y-3201103D01*
X3154691Y-3201316D01*
X3154691Y-3201316D01*
X3142399Y-3204829D01*
X3142399Y-3204829D01*
X3141653Y-3205043D01*
X3140996Y-3205457D01*
X3131049Y-3211734D01*
X3129528Y-3212693D01*
X3120038Y-3223439D01*
X3119708Y-3224142D01*
X3119708Y-3224142D01*
X3114275Y-3235713D01*
X3114275Y-3235713D01*
X3113945Y-3236416D01*
X3111739Y-3250582D01*
X3033555Y-3250582D01*
X3034811Y-3247857D01*
X3035200Y-3247095D01*
X3058950Y-3204685D01*
X3059397Y-3203956D01*
X3081529Y-3170833D01*
X3086402Y-3163540D01*
X3086905Y-3162848D01*
X3087830Y-3161675D01*
X3101403Y-3144457D01*
X3116997Y-3124677D01*
X3117553Y-3124026D01*
X3150547Y-3088333D01*
X3151153Y-3087727D01*
X3186846Y-3054733D01*
X3187497Y-3054177D01*
X3212545Y-3034430D01*
X3225668Y-3024085D01*
X3226360Y-3023582D01*
X3226388Y-3023563D01*
X3240640Y-3014040D01*
X3266776Y-2996577D01*
X3267505Y-2996130D01*
X3309915Y-2972380D01*
X3310677Y-2971991D01*
X3354820Y-2951641D01*
X3355611Y-2951314D01*
X3383496Y-2941026D01*
X3401213Y-2934490D01*
X3402027Y-2934226D01*
X3448809Y-2921032D01*
X3449641Y-2920832D01*
X3466199Y-2917538D01*
X3497316Y-2911349D01*
X3498160Y-2911215D01*
X3542741Y-2905939D01*
X3546429Y-2905502D01*
X3547282Y-2905435D01*
X3579615Y-2904165D01*
X3592881Y-2903643D01*
X3594003Y-2903749D01*
X3595047Y-2903750D01*
X3596244Y-2904026D01*
X3597442Y-2903755D01*
X3597549Y-2903755D01*
X3599740Y-2903510D01*
X3723198Y-2903510D01*
X3729605Y-2905592D01*
G37*
G04 #@! TD.AperFunction*
M02*
