G04 #@! TF.GenerationSoftware,KiCad,Pcbnew,(6.0.4)*
G04 #@! TF.CreationDate,2022-04-30T14:08:03+02:00*
G04 #@! TF.ProjectId,nRF52832_qfaa,6e524635-3238-4333-925f-716661612e6b,rev?*
G04 #@! TF.SameCoordinates,Original*
G04 #@! TF.FileFunction,Soldermask,Bot*
G04 #@! TF.FilePolarity,Negative*
%FSLAX45Y45*%
G04 Gerber Fmt 4.5, Leading zero omitted, Abs format (unit mm)*
G04 Created by KiCad (PCBNEW (6.0.4)) date 2022-04-30 14:08:03*
%MOMM*%
%LPD*%
G01*
G04 APERTURE LIST*
%ADD10C,1.111200*%
%ADD11C,1.000000*%
%ADD12C,0.850000*%
%ADD13R,2.400000X0.740000*%
G04 APERTURE END LIST*
D10*
X4745584Y-3644560D03*
X4745584Y-3524560D03*
X4745584Y-3404560D03*
X4745584Y-3284560D03*
X4625584Y-3644560D03*
X4625584Y-3524560D03*
X4625584Y-3404560D03*
X4625584Y-3284560D03*
X4505584Y-3644560D03*
X4505584Y-3524560D03*
X4505584Y-3404560D03*
X4505584Y-3284560D03*
X4385584Y-3644560D03*
X4385584Y-3524560D03*
X4385584Y-3404560D03*
X4385584Y-3284560D03*
D11*
X3096280Y-3533460D03*
X6696280Y-3533460D03*
D12*
X4051300Y-3022600D03*
D13*
X3410784Y-3790696D03*
X3800784Y-3790696D03*
X3410784Y-3663696D03*
X3800784Y-3663696D03*
X3410784Y-3536696D03*
X3800784Y-3536696D03*
X3410784Y-3409696D03*
X3800784Y-3409696D03*
X3410784Y-3282696D03*
X3800784Y-3282696D03*
D11*
X6196280Y-3133460D03*
X6896280Y-3708460D03*
X6896280Y-3358460D03*
X6196280Y-3433460D03*
X4610100Y-2971800D03*
X4813300Y-2997200D03*
X5054600Y-2946400D03*
X5613400Y-3619500D03*
X5956300Y-2997200D03*
X5499100Y-4089400D03*
X3797300Y-4076700D03*
X5715000Y-2997200D03*
X5905500Y-4076700D03*
X3581400Y-4076700D03*
X4381500Y-4114800D03*
X5308600Y-2997200D03*
X5448300Y-3276600D03*
X5397500Y-3873500D03*
M02*
