M48
; DRILL file {KiCad (6.0.4)} date Sat Apr 30 14:08:10 2022
; FORMAT={-:-/ absolute / inch / decimal}
; #@! TF.CreationDate,2022-04-30T14:08:10+02:00
; #@! TF.GenerationSoftware,Kicad,Pcbnew,(6.0.4)
; #@! TF.FileFunction,Plated,1,4,PTH
FMAT,2
INCH
; #@! TA.AperFunction,Plated,PTH,ViaDrill
T1C0.0079
; #@! TA.AperFunction,Plated,PTH,ComponentDrill
T2C0.0079
; #@! TA.AperFunction,Plated,PTH,ViaDrill
T3C0.0118
; #@! TA.AperFunction,Plated,PTH,ComponentDrill
T4C0.0157
; #@! TA.AperFunction,Plated,PTH,ComponentDrill
T5C0.0197
%
G90
G05
T1
X1.4968Y-1.239
X1.5318Y-1.234
X1.5468Y-1.214
X1.6144Y-1.4424
X1.6318Y-1.329
X1.6319Y-1.289
X1.6506Y-1.2128
X1.6515Y-1.3078
X1.6531Y-1.2731
X1.6594Y-1.2376
X1.6668Y-1.584
X1.6718Y-1.199
X1.6794Y-1.2219
X1.6918Y-1.186
X1.6968Y-1.594
X1.7194Y-1.1724
X1.7468Y-1.589
X1.7511Y-1.5111
X1.775Y-1.545
X1.7799Y-1.5102
X1.83Y-1.1777
X1.8318Y-1.6094
X1.8718Y-1.6094
X1.8844Y-1.5174
X1.895Y-1.18
X1.9368Y-1.18
X1.9668Y-1.389
X2.1794Y-1.249
X2.192Y-1.269
X2.197Y-1.189
X2.2446Y-1.589
X2.297Y-1.429
X2.3008Y-1.209
X2.397Y-1.189
X2.402Y-1.264
X2.4089Y-1.4221
X2.432Y-1.389
X2.472Y-1.1736
X2.4846Y-1.6024
X2.5137Y-1.304
X2.552Y-1.5374
X2.582Y-1.509
X2.6346Y-1.3014
X2.6348Y-1.4616
X2.647Y-1.524
X2.672Y-1.189
X2.6955Y-1.424
X2.7348Y-1.424
X2.742Y-1.229
T2
X2.5485Y-1.2334
X2.5485Y-1.2709
X2.5859Y-1.2334
X2.5859Y-1.2709
T3
X1.245Y-1.28
X1.257Y-1.509
X1.2846Y-1.5374
X1.3096Y-1.2924
X1.405Y-1.5375
X1.4296Y-1.5674
X1.4326Y-1.3716
X1.4421Y-1.5232
X1.4573Y-1.2923
X1.4596Y-1.3924
X1.4696Y-1.4424
X1.4696Y-1.4924
X1.4846Y-1.1624
X1.5146Y-1.2074
X1.5249Y-1.1716
X1.6346Y-1.6224
X1.6768Y-1.474
X1.725Y-1.62
X1.96Y-1.235
X1.9746Y-1.4224
X1.99Y-1.2
X2.0096Y-1.5824
X2.0325Y-1.1675
X2.0384Y-1.2907
X2.0396Y-1.4524
X2.0602Y-1.1574
X2.0696Y-1.3274
X2.0996Y-1.2924
X2.0996Y-1.4524
X2.1043Y-1.616
X2.12Y-1.525
X2.1354Y-1.1633
X2.1546Y-1.3724
X2.165Y-1.61
X2.1753Y-1.4181
X2.2496Y-1.519
X2.267Y-1.449
X2.3Y-1.155
X2.3245Y-1.6047
X2.337Y-1.444
X2.3446Y-1.5
X2.407Y-1.314
X2.437Y-1.234
X2.4796Y-1.4874
X2.4834Y-1.2423
X2.562Y-1.349
X2.567Y-1.1574
X2.587Y-1.589
X2.612Y-1.589
X2.747Y-1.269
T4
X1.7266Y-1.2931
X1.7266Y-1.3404
X1.7266Y-1.3876
X1.7266Y-1.4349
X1.7739Y-1.2931
X1.7739Y-1.3404
X1.7739Y-1.3876
X1.7739Y-1.4349
X1.8211Y-1.2931
X1.8211Y-1.3404
X1.8211Y-1.3876
X1.8211Y-1.4349
X1.8683Y-1.2931
X1.8683Y-1.3404
X1.8683Y-1.3876
X1.8683Y-1.4349
T5
X1.595Y-1.19
T0
M30
