G04 #@! TF.GenerationSoftware,KiCad,Pcbnew,(6.0.4)*
G04 #@! TF.CreationDate,2022-04-30T14:08:03+02:00*
G04 #@! TF.ProjectId,nRF52832_qfaa,6e524635-3238-4333-925f-716661612e6b,rev?*
G04 #@! TF.SameCoordinates,Original*
G04 #@! TF.FileFunction,Paste,Top*
G04 #@! TF.FilePolarity,Positive*
%FSLAX45Y45*%
G04 Gerber Fmt 4.5, Leading zero omitted, Abs format (unit mm)*
G04 Created by KiCad (PCBNEW (6.0.4)) date 2022-04-30 14:08:03*
%MOMM*%
%LPD*%
G01*
G04 APERTURE LIST*
G04 Aperture macros list*
%AMRoundRect*
0 Rectangle with rounded corners*
0 $1 Rounding radius*
0 $2 $3 $4 $5 $6 $7 $8 $9 X,Y pos of 4 corners*
0 Add a 4 corners polygon primitive as box body*
4,1,4,$2,$3,$4,$5,$6,$7,$8,$9,$2,$3,0*
0 Add four circle primitives for the rounded corners*
1,1,$1+$1,$2,$3*
1,1,$1+$1,$4,$5*
1,1,$1+$1,$6,$7*
1,1,$1+$1,$8,$9*
0 Add four rect primitives between the rounded corners*
20,1,$1+$1,$2,$3,$4,$5,0*
20,1,$1+$1,$4,$5,$6,$7,0*
20,1,$1+$1,$6,$7,$8,$9,0*
20,1,$1+$1,$8,$9,$2,$3,0*%
%AMHorizOval*
0 Thick line with rounded ends*
0 $1 width*
0 $2 $3 position (X,Y) of the first rounded end (center of the circle)*
0 $4 $5 position (X,Y) of the second rounded end (center of the circle)*
0 Add line between two ends*
20,1,$1,$2,$3,$4,$5,0*
0 Add two circle primitives to create the rounded ends*
1,1,$1,$2,$3*
1,1,$1,$4,$5*%
G04 Aperture macros list end*
%ADD10R,0.850000X0.950000*%
%ADD11RoundRect,0.140000X0.170000X-0.140000X0.170000X0.140000X-0.170000X0.140000X-0.170000X-0.140000X0*%
%ADD12RoundRect,0.140000X0.140000X0.170000X-0.140000X0.170000X-0.140000X-0.170000X0.140000X-0.170000X0*%
%ADD13RoundRect,0.140000X-0.170000X0.140000X-0.170000X-0.140000X0.170000X-0.140000X0.170000X0.140000X0*%
%ADD14RoundRect,0.140000X-0.140000X-0.170000X0.140000X-0.170000X0.140000X0.170000X-0.140000X0.170000X0*%
%ADD15R,1.000000X1.800000*%
%ADD16R,1.000000X0.800000*%
%ADD17R,0.500000X0.400000*%
%ADD18R,0.500000X0.300000*%
%ADD19RoundRect,0.147500X0.147500X0.172500X-0.147500X0.172500X-0.147500X-0.172500X0.147500X-0.172500X0*%
%ADD20R,1.060000X0.650000*%
%ADD21RoundRect,0.157500X-0.157500X0.157500X-0.157500X-0.157500X0.157500X-0.157500X0.157500X0.157500X0*%
%ADD22RoundRect,0.062500X-0.062500X0.375000X-0.062500X-0.375000X0.062500X-0.375000X0.062500X0.375000X0*%
%ADD23RoundRect,0.062500X-0.375000X0.062500X-0.375000X-0.062500X0.375000X-0.062500X0.375000X0.062500X0*%
%ADD24RoundRect,0.135000X0.135000X0.185000X-0.135000X0.185000X-0.135000X-0.185000X0.135000X-0.185000X0*%
%ADD25RoundRect,0.135000X-0.185000X0.135000X-0.185000X-0.135000X0.185000X-0.135000X0.185000X0.135000X0*%
%ADD26RoundRect,0.218750X-0.256250X0.218750X-0.256250X-0.218750X0.256250X-0.218750X0.256250X0.218750X0*%
%ADD27R,0.900000X0.800000*%
%ADD28RoundRect,0.030000X0.295000X0.070000X-0.295000X0.070000X-0.295000X-0.070000X0.295000X-0.070000X0*%
%ADD29RoundRect,0.030000X-0.070000X0.295000X-0.070000X-0.295000X0.070000X-0.295000X0.070000X0.295000X0*%
%ADD30RoundRect,0.030000X-0.295000X-0.070000X0.295000X-0.070000X0.295000X0.070000X-0.295000X0.070000X0*%
%ADD31RoundRect,0.030000X0.070000X-0.295000X0.070000X0.295000X-0.070000X0.295000X-0.070000X-0.295000X0*%
%ADD32R,4.700000X4.700000*%
%ADD33C,0.910000*%
%ADD34HorizOval,0.910000X0.100000X0.100000X-0.100000X-0.100000X0*%
%ADD35RoundRect,0.250000X-0.615000X0.435000X-0.615000X-0.435000X0.615000X-0.435000X0.615000X0.435000X0*%
%ADD36RoundRect,0.125000X-0.125000X0.250000X-0.125000X-0.250000X0.125000X-0.250000X0.125000X0.250000X0*%
%ADD37R,1.000000X0.900000*%
%ADD38R,0.550000X1.700000*%
G04 APERTURE END LIST*
D10*
X3966988Y-3776760D03*
X3966988Y-3921760D03*
X4081988Y-3921760D03*
X4081988Y-3776760D03*
D11*
X4055984Y-3312160D03*
X4055984Y-3216160D03*
D12*
X4088484Y-4048760D03*
X3992484Y-4048760D03*
D13*
X3872088Y-3838460D03*
X3872088Y-3934460D03*
D14*
X3967084Y-3413760D03*
X4063084Y-3413760D03*
D11*
X4856084Y-3979660D03*
X4856084Y-3883660D03*
X4919584Y-3144260D03*
X4919584Y-3048260D03*
D13*
X4214988Y-3810260D03*
X4214988Y-3906260D03*
D12*
X3932788Y-3528060D03*
X3836788Y-3528060D03*
X3945488Y-3629660D03*
X3849488Y-3629660D03*
D13*
X4754484Y-3911860D03*
X4754484Y-4007860D03*
X4652884Y-3911860D03*
X4652884Y-4007860D03*
D15*
X4969420Y-3912496D03*
X5219420Y-3912496D03*
D12*
X5059420Y-4075796D03*
X4963420Y-4075796D03*
D14*
X5153920Y-4075796D03*
X5249920Y-4075796D03*
D16*
X3302184Y-3062596D03*
X3452184Y-3062596D03*
X3452184Y-3172596D03*
X3302184Y-3172596D03*
D17*
X3693884Y-3129096D03*
D18*
X3693884Y-3079096D03*
X3693884Y-3029096D03*
D17*
X3693884Y-2979096D03*
X3593884Y-2979096D03*
D18*
X3593884Y-3029096D03*
X3593884Y-3079096D03*
D17*
X3593884Y-3129096D03*
D11*
X6228080Y-3677660D03*
X6228080Y-3581660D03*
D12*
X6123680Y-3680460D03*
X6027680Y-3680460D03*
D14*
X3468884Y-3981196D03*
X3564884Y-3981196D03*
D12*
X5888984Y-3756660D03*
X5792984Y-3756660D03*
D19*
X5889484Y-3858260D03*
X5792484Y-3858260D03*
D20*
X6782580Y-3965960D03*
X6782580Y-3870960D03*
X6782580Y-3775960D03*
X6562580Y-3775960D03*
X6562580Y-3965960D03*
D21*
X6556580Y-3144460D03*
X6556580Y-3216460D03*
X6484580Y-3144460D03*
X6484580Y-3216460D03*
D22*
X6595580Y-3036710D03*
X6545580Y-3036710D03*
X6495580Y-3036710D03*
X6445580Y-3036710D03*
D23*
X6376830Y-3105460D03*
X6376830Y-3155460D03*
X6376830Y-3205460D03*
X6376830Y-3255460D03*
D22*
X6445580Y-3324210D03*
X6495580Y-3324210D03*
X6545580Y-3324210D03*
X6595580Y-3324210D03*
D23*
X6664330Y-3255460D03*
X6664330Y-3205460D03*
X6664330Y-3155460D03*
X6664330Y-3105460D03*
D24*
X6901380Y-3214460D03*
X6799380Y-3214460D03*
X5891984Y-3959860D03*
X5789984Y-3959860D03*
D13*
X6215380Y-2997460D03*
X6215380Y-3093460D03*
D11*
X6926580Y-3931660D03*
X6926580Y-3835660D03*
D25*
X6482080Y-3489760D03*
X6482080Y-3591760D03*
X6215380Y-3388160D03*
X6215380Y-3490160D03*
D24*
X6901380Y-3112860D03*
X6799380Y-3112860D03*
D25*
X6215380Y-3184760D03*
X6215380Y-3286760D03*
D26*
X6355080Y-3474710D03*
X6355080Y-3632210D03*
D27*
X6064580Y-3826760D03*
X6064580Y-4016760D03*
X6264580Y-3921760D03*
D28*
X4865584Y-3684560D03*
X4865584Y-3644560D03*
X4865584Y-3604560D03*
X4865584Y-3564560D03*
X4865584Y-3524560D03*
X4865584Y-3484560D03*
X4865584Y-3444560D03*
X4865584Y-3404560D03*
X4865584Y-3364560D03*
X4865584Y-3324560D03*
X4865584Y-3284560D03*
X4865584Y-3244560D03*
D29*
X4785584Y-3164560D03*
X4745584Y-3164560D03*
X4705584Y-3164560D03*
X4665584Y-3164560D03*
X4625584Y-3164560D03*
X4585584Y-3164560D03*
X4545584Y-3164560D03*
X4505584Y-3164560D03*
X4465584Y-3164560D03*
X4425584Y-3164560D03*
X4385584Y-3164560D03*
X4345584Y-3164560D03*
D30*
X4265584Y-3244560D03*
X4265584Y-3284560D03*
X4265584Y-3324560D03*
X4265584Y-3364560D03*
X4265584Y-3404560D03*
X4265584Y-3444560D03*
X4265584Y-3484560D03*
X4265584Y-3524560D03*
X4265584Y-3564560D03*
X4265584Y-3604560D03*
X4265584Y-3644560D03*
X4265584Y-3684560D03*
D31*
X4345584Y-3764560D03*
X4385584Y-3764560D03*
X4425584Y-3764560D03*
X4465584Y-3764560D03*
X4505584Y-3764560D03*
X4545584Y-3764560D03*
X4585584Y-3764560D03*
X4625584Y-3764560D03*
X4665584Y-3764560D03*
X4705584Y-3764560D03*
X4745584Y-3764560D03*
X4785584Y-3764560D03*
D32*
X4565584Y-3464560D03*
D33*
X3310984Y-3460596D03*
X3310984Y-3625596D03*
X3310984Y-3790596D03*
X3544984Y-3790596D03*
X3544984Y-3625596D03*
D34*
X3534984Y-3470596D03*
D35*
X5726880Y-3371760D03*
X5726880Y-3201760D03*
X5941880Y-3371760D03*
X5941880Y-3201760D03*
D36*
X6024880Y-3016760D03*
X5897880Y-3016760D03*
X5770880Y-3016760D03*
X5643880Y-3016760D03*
X5643880Y-3556760D03*
X5770880Y-3556760D03*
X5897880Y-3556760D03*
X6024880Y-3556760D03*
D12*
X6898380Y-3320060D03*
X6802380Y-3320060D03*
D25*
X6926580Y-3413560D03*
X6926580Y-3515560D03*
D13*
X6393180Y-3962660D03*
X6393180Y-4058660D03*
X4551284Y-3939800D03*
X4551284Y-4035800D03*
D14*
X3858384Y-3210560D03*
X3954384Y-3210560D03*
D19*
X3336784Y-3981196D03*
X3239784Y-3981196D03*
D37*
X5336784Y-3280896D03*
X5176784Y-3280896D03*
X5176784Y-3690896D03*
X5336784Y-3690896D03*
D38*
X5399284Y-3485896D03*
D25*
X4316588Y-3841296D03*
X4316588Y-3943296D03*
D13*
X6412484Y-3742696D03*
X6412484Y-3838696D03*
M02*
