G04 #@! TF.GenerationSoftware,KiCad,Pcbnew,(6.0.4)*
G04 #@! TF.CreationDate,2022-04-30T14:08:03+02:00*
G04 #@! TF.ProjectId,nRF52832_qfaa,6e524635-3238-4333-925f-716661612e6b,rev?*
G04 #@! TF.SameCoordinates,Original*
G04 #@! TF.FileFunction,Copper,L4,Bot*
G04 #@! TF.FilePolarity,Positive*
%FSLAX45Y45*%
G04 Gerber Fmt 4.5, Leading zero omitted, Abs format (unit mm)*
G04 Created by KiCad (PCBNEW (6.0.4)) date 2022-04-30 14:08:03*
%MOMM*%
%LPD*%
G01*
G04 APERTURE LIST*
G04 #@! TA.AperFunction,SMDPad,CuDef*
%ADD10R,1.450000X1.450000*%
G04 #@! TD*
G04 #@! TA.AperFunction,ComponentPad*
%ADD11C,0.500000*%
G04 #@! TD*
G04 #@! TA.AperFunction,ComponentPad*
%ADD12C,0.908000*%
G04 #@! TD*
G04 #@! TA.AperFunction,ComponentPad*
%ADD13C,0.850000*%
G04 #@! TD*
G04 #@! TA.AperFunction,SMDPad,CuDef*
%ADD14R,2.400000X0.740000*%
G04 #@! TD*
G04 #@! TA.AperFunction,SMDPad,CuDef*
%ADD15C,1.000000*%
G04 #@! TD*
G04 #@! TA.AperFunction,ViaPad*
%ADD16C,0.600000*%
G04 #@! TD*
G04 #@! TA.AperFunction,ViaPad*
%ADD17C,0.450000*%
G04 #@! TD*
G04 #@! TA.AperFunction,Conductor*
%ADD18C,0.400000*%
G04 #@! TD*
G04 #@! TA.AperFunction,Conductor*
%ADD19C,0.250000*%
G04 #@! TD*
G04 #@! TA.AperFunction,Conductor*
%ADD20C,0.254000*%
G04 #@! TD*
G04 #@! TA.AperFunction,Conductor*
%ADD21C,0.127000*%
G04 #@! TD*
G04 #@! TA.AperFunction,Conductor*
%ADD22C,0.150000*%
G04 #@! TD*
G04 #@! TA.AperFunction,Conductor*
%ADD23C,0.200000*%
G04 #@! TD*
G04 #@! TA.AperFunction,Conductor*
%ADD24C,0.500000*%
G04 #@! TD*
G04 APERTURE END LIST*
D10*
X6520580Y-3180460D03*
D11*
X6473080Y-3132960D03*
X6568080Y-3132960D03*
X6568080Y-3227960D03*
X6473080Y-3227960D03*
D12*
X4745584Y-3644560D03*
X4745584Y-3524560D03*
X4745584Y-3404560D03*
X4745584Y-3284560D03*
X4625584Y-3644560D03*
X4625584Y-3524560D03*
X4625584Y-3404560D03*
X4625584Y-3284560D03*
X4505584Y-3644560D03*
X4505584Y-3524560D03*
X4505584Y-3404560D03*
X4505584Y-3284560D03*
X4385584Y-3644560D03*
X4385584Y-3524560D03*
X4385584Y-3404560D03*
X4385584Y-3284560D03*
D13*
X4051300Y-3022600D03*
D14*
X3410784Y-3790696D03*
X3800784Y-3790696D03*
X3410784Y-3663696D03*
X3800784Y-3663696D03*
X3410784Y-3536696D03*
X3800784Y-3536696D03*
X3410784Y-3409696D03*
X3800784Y-3409696D03*
X3410784Y-3282696D03*
X3800784Y-3282696D03*
D15*
X6196280Y-3133460D03*
X6896280Y-3708460D03*
X6896280Y-3358460D03*
X6196280Y-3433460D03*
X4610100Y-2971800D03*
X4813300Y-2997200D03*
X5054600Y-2946400D03*
X5613400Y-3619500D03*
X5956300Y-2997200D03*
X5499100Y-4089400D03*
X3797300Y-4076700D03*
X5715000Y-2997200D03*
X5905500Y-4076700D03*
X3581400Y-4076700D03*
X4381500Y-4114800D03*
X5308600Y-2997200D03*
X5448300Y-3276600D03*
X5397500Y-3873500D03*
D16*
X5935980Y-3667760D03*
X5758180Y-3680460D03*
D17*
X4100688Y-3663696D03*
X4233784Y-4023360D03*
X3928984Y-3083560D03*
X3890884Y-3134360D03*
X3801984Y-3147060D03*
X6786880Y-3020060D03*
X6964680Y-3121660D03*
X5580380Y-3020060D03*
X4144955Y-3274131D03*
D16*
X3326384Y-3282696D03*
D17*
X6723380Y-3870960D03*
X4754484Y-4087763D03*
D16*
X4151884Y-4120896D03*
D17*
X4192611Y-3080487D03*
D16*
X5713984Y-3858260D03*
X5104384Y-4019296D03*
D17*
X6558280Y-3832860D03*
X4919584Y-2997200D03*
D16*
X5423908Y-2954722D03*
X3192780Y-3832860D03*
D17*
X6101080Y-3210560D03*
D16*
X3631184Y-3981196D03*
D17*
X6384681Y-3312160D03*
X4652884Y-4087763D03*
D16*
X5472684Y-3485896D03*
X5015484Y-3612896D03*
D17*
X6310884Y-4070096D03*
D16*
X3638682Y-3483950D03*
X5499100Y-4089400D03*
D17*
X6177280Y-3528060D03*
D16*
X6977380Y-3223260D03*
D17*
X4144813Y-3375589D03*
X6278880Y-2980960D03*
X4508500Y-3924300D03*
D16*
X3262884Y-3904996D03*
X4978400Y-3136900D03*
X6570980Y-4036060D03*
X5384800Y-3873500D03*
D17*
X4786488Y-3854196D03*
D16*
X3162300Y-3251200D03*
X5054600Y-3048000D03*
X4259184Y-3743960D03*
X6634480Y-4036060D03*
D17*
X6482080Y-3904996D03*
X6118480Y-3612260D03*
D16*
X4381500Y-4114800D03*
X3568700Y-3905246D03*
D17*
X4447904Y-3838304D03*
X4194884Y-3321790D03*
D16*
X3732784Y-3790696D03*
X5162550Y-2965450D03*
X5232971Y-2939791D03*
D17*
X4198884Y-3233560D03*
D16*
X3732784Y-3663696D03*
D17*
X4214988Y-3143610D03*
D16*
X3701475Y-3282549D03*
X6520180Y-2939796D03*
X6189980Y-3134360D03*
X5344925Y-4104570D03*
X5256784Y-3371596D03*
D17*
X5834380Y-3629660D03*
D16*
X5525318Y-3602050D03*
D17*
X5567680Y-3223260D03*
X6088380Y-3020060D03*
X5535667Y-3172573D03*
X5844148Y-3070860D03*
D16*
X5842000Y-2933700D03*
D17*
X4297284Y-3012313D03*
D16*
X3873201Y-2975961D03*
X3770884Y-2952496D03*
D17*
X4367388Y-2977896D03*
D16*
X3847143Y-3066796D03*
D17*
X4246484Y-3045460D03*
X6691806Y-3305635D03*
X6946280Y-3616960D03*
X6846580Y-3616960D03*
D16*
X5332984Y-3282696D03*
X6307867Y-3155460D03*
X6507480Y-3426460D03*
X5332984Y-3689096D03*
D17*
X4648200Y-2991350D03*
X4813300Y-2997200D03*
X6692286Y-3712575D03*
D16*
X5904143Y-4075936D03*
X6298184Y-3777996D03*
X5180584Y-3689096D03*
X5955284Y-3810046D03*
D17*
X4309984Y-4048760D03*
D16*
X5177559Y-3278387D03*
D17*
X4995784Y-3528060D03*
D16*
X6113780Y-3337560D03*
D17*
X4436984Y-4036060D03*
X5701284Y-4036060D03*
X4520866Y-3835832D03*
D16*
X3662890Y-3868931D03*
X3707384Y-3536696D03*
D17*
X4265788Y-3103599D03*
D18*
X6177280Y-3528060D02*
X6177280Y-3528060D01*
D19*
X6558280Y-3832860D02*
X6558280Y-3832859D01*
D20*
X3257804Y-3282696D02*
X3213100Y-3327400D01*
D19*
X6558280Y-3832860D02*
X6596381Y-3870960D01*
D20*
X3219704Y-3536696D02*
X3410784Y-3536696D01*
D19*
X6596381Y-3870960D02*
X6723380Y-3870960D01*
D18*
X6196280Y-3433460D02*
X6196280Y-3509060D01*
D20*
X3231896Y-3663696D02*
X3213100Y-3644900D01*
D18*
X6196280Y-3509060D02*
X6177280Y-3528060D01*
D19*
X6730080Y-3870960D02*
X6723380Y-3870960D01*
X6896280Y-3291660D02*
X6896280Y-3358460D01*
D20*
X3213100Y-3327400D02*
X3213100Y-3568700D01*
D19*
X4919584Y-2997200D02*
X4970384Y-2946400D01*
X6977380Y-3223260D02*
X6964680Y-3223260D01*
D20*
X3213100Y-3644900D02*
X3213100Y-3568700D01*
D19*
X4970384Y-2946400D02*
X5054600Y-2946400D01*
D20*
X3213100Y-3543300D02*
X3219704Y-3536696D01*
D19*
X6964680Y-3223260D02*
X6896280Y-3291660D01*
D20*
X3326384Y-3282696D02*
X3257804Y-3282696D01*
X3410784Y-3663696D02*
X3231896Y-3663696D01*
X3213100Y-3568700D02*
X3213100Y-3543300D01*
X3262884Y-3904996D02*
X3262884Y-3811016D01*
X3262884Y-3811016D02*
X3283204Y-3790696D01*
X3283204Y-3790696D02*
X3410784Y-3790696D01*
D21*
X3593349Y-3929895D02*
X4330185Y-3929895D01*
X4330185Y-3929895D02*
X4421776Y-3838304D01*
X3568700Y-3905246D02*
X3593349Y-3929895D01*
X4421776Y-3838304D02*
X4447904Y-3838304D01*
X3797300Y-4076700D02*
X3746500Y-4025900D01*
X3746500Y-4025900D02*
X3746500Y-3937000D01*
D22*
X4194884Y-3505929D02*
X3910117Y-3790696D01*
X4194884Y-3321790D02*
X4194884Y-3505929D01*
X3910117Y-3790696D02*
X3800784Y-3790696D01*
X4116500Y-3229179D02*
X4050284Y-3295396D01*
X4050284Y-3497196D02*
X3883784Y-3663696D01*
X4198884Y-3233560D02*
X4194504Y-3229179D01*
X4050284Y-3295396D02*
X4050284Y-3497196D01*
X4194504Y-3229179D02*
X4116500Y-3229179D01*
X3883784Y-3663696D02*
X3800784Y-3663696D01*
X3923284Y-3282696D02*
X3800784Y-3282696D01*
X4062370Y-3143610D02*
X3923284Y-3282696D01*
X4214988Y-3143610D02*
X4062370Y-3143610D01*
D19*
X6196280Y-3133460D02*
X6190880Y-3133460D01*
X6520180Y-2939796D02*
X6597396Y-2939796D01*
X5344925Y-4104570D02*
X5346700Y-4102100D01*
X6460056Y-3687244D02*
X6256856Y-3687244D01*
X6190880Y-3133460D02*
X6189980Y-3134360D01*
X6256856Y-3687244D02*
X6007100Y-3937000D01*
X6578600Y-3568700D02*
X6460056Y-3687244D01*
X6578600Y-3327400D02*
X6578600Y-3568700D01*
X5473700Y-3937000D02*
X5346700Y-4064000D01*
X6007100Y-3937000D02*
X5473700Y-3937000D01*
X6520180Y-2939796D02*
X6414516Y-3045460D01*
X5346700Y-4064000D02*
X5344925Y-4104570D01*
X6284280Y-3045460D02*
X6196280Y-3133460D01*
X6654800Y-2997200D02*
X6654800Y-3251200D01*
X6414516Y-3045460D02*
X6284280Y-3045460D01*
X6654800Y-3251200D02*
X6578600Y-3327400D01*
X6597396Y-2939796D02*
X6654800Y-2997200D01*
D21*
X5448300Y-3365500D02*
X5442204Y-3371596D01*
X5448300Y-3276600D02*
X5448300Y-3365500D01*
D23*
X5442204Y-3371596D02*
X5256784Y-3371596D01*
X5796280Y-3629660D02*
X5538216Y-3371596D01*
X5834380Y-3629660D02*
X5796280Y-3629660D01*
X5538216Y-3371596D02*
X5442204Y-3371596D01*
D21*
X5613400Y-3619500D02*
X5542769Y-3619500D01*
X5542769Y-3619500D02*
X5525318Y-3602050D01*
X5518436Y-3223260D02*
X5473079Y-3177903D01*
X5537200Y-2946400D02*
X5664200Y-2946400D01*
X5567680Y-3223260D02*
X5518436Y-3223260D01*
X5664200Y-2946400D02*
X5715000Y-2997200D01*
D23*
X5605780Y-3223260D02*
X5567680Y-3223260D01*
D21*
X5473079Y-3010521D02*
X5537200Y-2946400D01*
D23*
X6088380Y-3020060D02*
X5885180Y-3223260D01*
X5885180Y-3223260D02*
X5605780Y-3223260D01*
D21*
X5473079Y-3177903D02*
X5473079Y-3010521D01*
D23*
X5742436Y-3172573D02*
X5844148Y-3070860D01*
X5535667Y-3172573D02*
X5742436Y-3172573D01*
X5844148Y-3067929D02*
X5844148Y-3070860D01*
X5892800Y-2933700D02*
X5956300Y-2997200D01*
X5842000Y-2933700D02*
X5892800Y-2933700D01*
X5847080Y-3064998D02*
X5844148Y-3067929D01*
D22*
X3910911Y-2938252D02*
X3873201Y-2975961D01*
X4297284Y-3012313D02*
X4223223Y-2938252D01*
X4223223Y-2938252D02*
X3910911Y-2938252D01*
X4297792Y-2908300D02*
X3815080Y-2908300D01*
X3815080Y-2908300D02*
X3770884Y-2952496D01*
X4367388Y-2977896D02*
X4297792Y-2908300D01*
D24*
X6896280Y-3634560D02*
X6896280Y-3708460D01*
X6946280Y-3633460D02*
X6946280Y-3633460D01*
X6846580Y-3633460D02*
X6946280Y-3633460D01*
X6946280Y-3808460D02*
X6946280Y-3658460D01*
D19*
X6714305Y-3328134D02*
X6714305Y-3328134D01*
X6717030Y-3330859D02*
X6714305Y-3328134D01*
D24*
X6946280Y-3633460D02*
X6896280Y-3633460D01*
X6896280Y-3808460D02*
X6846280Y-3808460D01*
D19*
X6896280Y-3633460D02*
X6896280Y-3510109D01*
D24*
X6896280Y-3808460D02*
X6946280Y-3808460D01*
X6896280Y-3708460D02*
X6896280Y-3808460D01*
D19*
X6714305Y-3328134D02*
X6691806Y-3305635D01*
X6896280Y-3510109D02*
X6714305Y-3328134D01*
D24*
X6896280Y-3633460D02*
X6896280Y-3634560D01*
X6846280Y-3633460D02*
X6846580Y-3633460D01*
X6846280Y-3808460D02*
X6846280Y-3633460D01*
D19*
X6507480Y-3426460D02*
X6413380Y-3426460D01*
X6307867Y-3155460D02*
X6307867Y-3320947D01*
X6128004Y-3752596D02*
X5396484Y-3752596D01*
D21*
X5332984Y-3282696D02*
X5308600Y-3258312D01*
D19*
X6507480Y-3426460D02*
X6418580Y-3426460D01*
X6418580Y-3462020D02*
X6128004Y-3752596D01*
X6307867Y-3320947D02*
X6413380Y-3426460D01*
D21*
X5308600Y-3258312D02*
X5308600Y-2997200D01*
D19*
X5396484Y-3752596D02*
X5332984Y-3689096D01*
X6418580Y-3426460D02*
X6418580Y-3462020D01*
X6348984Y-3727196D02*
X6677665Y-3727196D01*
X6700502Y-3718427D02*
X6698137Y-3718427D01*
X6677665Y-3727196D02*
X6692286Y-3712575D01*
X6298184Y-3777996D02*
X6348984Y-3727196D01*
X6698137Y-3718427D02*
X6692286Y-3712575D01*
D21*
X4558284Y-3968496D02*
X4342384Y-3968496D01*
X4309984Y-4000896D02*
X4309984Y-4048760D01*
X4837684Y-3689096D02*
X4558284Y-3968496D01*
X5180584Y-3689096D02*
X4837684Y-3689096D01*
X5180584Y-3689096D02*
X5277886Y-3786398D01*
X4342384Y-3968496D02*
X4309984Y-4000896D01*
X5277886Y-3786398D02*
X5931636Y-3786398D01*
X5177559Y-3686071D02*
X5180584Y-3689096D01*
X5177559Y-3278387D02*
X5177559Y-3686071D01*
X5931636Y-3786398D02*
X5955284Y-3810046D01*
X3662890Y-3868931D02*
X3647904Y-3853945D01*
X3686255Y-3892296D02*
X3662890Y-3868931D01*
X4520866Y-3835832D02*
X4475730Y-3790696D01*
X3479800Y-3898900D02*
X3479800Y-3975100D01*
X3524755Y-3853945D02*
X3479800Y-3898900D01*
X4475730Y-3790696D02*
X4418584Y-3790696D01*
X4316984Y-3892296D02*
X3686255Y-3892296D01*
X3647904Y-3853945D02*
X3524755Y-3853945D01*
X4418584Y-3790696D02*
X4316984Y-3892296D01*
X3479800Y-3975100D02*
X3581400Y-4076700D01*
D22*
X4265788Y-3156380D02*
X4233560Y-3188609D01*
X3999484Y-3269996D02*
X3999484Y-3473196D01*
X4080871Y-3188609D02*
X3999484Y-3269996D01*
X3935984Y-3536696D02*
X3800784Y-3536696D01*
X4233560Y-3188609D02*
X4080871Y-3188609D01*
X4265788Y-3103599D02*
X4265788Y-3156380D01*
X3999484Y-3473196D02*
X3935984Y-3536696D01*
G04 #@! TA.AperFunction,Conductor*
G36*
X3525755Y-3931927D02*
G01*
X3525772Y-3931966D01*
X3526238Y-3932520D01*
X3526238Y-3932520D01*
X3534287Y-3942097D01*
X3534997Y-3942941D01*
X3546931Y-3950885D01*
X3547672Y-3951116D01*
X3559875Y-3954929D01*
X3559875Y-3954929D01*
X3560616Y-3955160D01*
X3568165Y-3955299D01*
X3574174Y-3955409D01*
X3574174Y-3955409D01*
X3574950Y-3955423D01*
X3575699Y-3955219D01*
X3575699Y-3955219D01*
X3577529Y-3954720D01*
X3582988Y-3955066D01*
X3583048Y-3954763D01*
X3590749Y-3956295D01*
X3590749Y-3956295D01*
X3590749Y-3956295D01*
X3592296Y-3956603D01*
X3592296Y-3956603D01*
X3593349Y-3956812D01*
X3594896Y-3956504D01*
X3597022Y-3956295D01*
X3709200Y-3956295D01*
X3715607Y-3958377D01*
X3719566Y-3963827D01*
X3720100Y-3967195D01*
X3720100Y-4022226D01*
X3719891Y-4024352D01*
X3719583Y-4025900D01*
X3720100Y-4028500D01*
X3721632Y-4036201D01*
X3727467Y-4044933D01*
X3727775Y-4045139D01*
X3730631Y-4050746D01*
X3730021Y-4056410D01*
X3728952Y-4059151D01*
X3728867Y-4059802D01*
X3728867Y-4059803D01*
X3726871Y-4074964D01*
X3726739Y-4075961D01*
X3728600Y-4092813D01*
X3728826Y-4093431D01*
X3728826Y-4093431D01*
X3733506Y-4106221D01*
X3734427Y-4108736D01*
X3743883Y-4122808D01*
X3744369Y-4123250D01*
X3744369Y-4123250D01*
X3754913Y-4132845D01*
X3756423Y-4134219D01*
X3757001Y-4134533D01*
X3770746Y-4141996D01*
X3770746Y-4141996D01*
X3771323Y-4142309D01*
X3771765Y-4142425D01*
X3776896Y-4146670D01*
X3778571Y-4153194D01*
X3776091Y-4159458D01*
X3770403Y-4163068D01*
X3767693Y-4163410D01*
X3610838Y-4163410D01*
X3604431Y-4161328D01*
X3600471Y-4155878D01*
X3600471Y-4149142D01*
X3604431Y-4143692D01*
X3605939Y-4142773D01*
X3620450Y-4135475D01*
X3633342Y-4124463D01*
X3643236Y-4110695D01*
X3645035Y-4106221D01*
X3649315Y-4095573D01*
X3649315Y-4095572D01*
X3649560Y-4094963D01*
X3651949Y-4078178D01*
X3651964Y-4076700D01*
X3649928Y-4059868D01*
X3649695Y-4059253D01*
X3649695Y-4059253D01*
X3644577Y-4045709D01*
X3643934Y-4044008D01*
X3634331Y-4030035D01*
X3633841Y-4029598D01*
X3633841Y-4029598D01*
X3622163Y-4019193D01*
X3622162Y-4019193D01*
X3621672Y-4018756D01*
X3606688Y-4010822D01*
X3606051Y-4010662D01*
X3606051Y-4010662D01*
X3590881Y-4006852D01*
X3590881Y-4006852D01*
X3590244Y-4006692D01*
X3581714Y-4006647D01*
X3573946Y-4006606D01*
X3573946Y-4006606D01*
X3573289Y-4006603D01*
X3559346Y-4009951D01*
X3552631Y-4009422D01*
X3549094Y-4007059D01*
X3509392Y-3967357D01*
X3506334Y-3961355D01*
X3506200Y-3959650D01*
X3506200Y-3938453D01*
X3508282Y-3932046D01*
X3513732Y-3928086D01*
X3520468Y-3928086D01*
X3525755Y-3931927D01*
G37*
G04 #@! TD.AperFunction*
G04 #@! TA.AperFunction,Conductor*
G36*
X4297342Y-3958377D02*
G01*
X4301301Y-3963827D01*
X4301301Y-3970563D01*
X4298642Y-3974902D01*
X4293914Y-3979631D01*
X4292262Y-3980986D01*
X4290951Y-3981863D01*
X4289478Y-3984067D01*
X4285116Y-3990595D01*
X4284293Y-3994730D01*
X4283814Y-3997139D01*
X4283067Y-4000896D01*
X4283276Y-4001949D01*
X4283276Y-4001949D01*
X4283375Y-4002443D01*
X4283584Y-4004570D01*
X4283584Y-4010470D01*
X4281502Y-4016877D01*
X4280392Y-4018178D01*
X4275131Y-4023438D01*
X4269012Y-4035447D01*
X4268878Y-4036295D01*
X4268878Y-4036295D01*
X4267276Y-4046406D01*
X4266904Y-4048760D01*
X4267038Y-4049607D01*
X4268878Y-4061225D01*
X4268878Y-4061225D01*
X4269012Y-4062073D01*
X4270663Y-4065313D01*
X4273599Y-4071075D01*
X4275131Y-4074082D01*
X4284662Y-4083613D01*
X4296671Y-4089732D01*
X4303298Y-4090781D01*
X4309300Y-4093840D01*
X4312359Y-4099842D01*
X4312400Y-4102970D01*
X4311383Y-4110695D01*
X4310939Y-4114061D01*
X4312800Y-4130913D01*
X4313026Y-4131531D01*
X4313026Y-4131531D01*
X4314469Y-4135475D01*
X4318627Y-4146836D01*
X4318993Y-4147381D01*
X4319085Y-4147562D01*
X4320139Y-4154215D01*
X4317081Y-4160217D01*
X4311078Y-4163276D01*
X4309373Y-4163410D01*
X3826738Y-4163410D01*
X3820331Y-4161328D01*
X3816371Y-4155878D01*
X3816371Y-4149142D01*
X3820331Y-4143692D01*
X3821839Y-4142773D01*
X3836350Y-4135475D01*
X3849242Y-4124463D01*
X3859136Y-4110695D01*
X3860935Y-4106221D01*
X3865215Y-4095573D01*
X3865215Y-4095572D01*
X3865460Y-4094963D01*
X3867849Y-4078178D01*
X3867864Y-4076700D01*
X3865828Y-4059868D01*
X3865595Y-4059253D01*
X3865595Y-4059253D01*
X3860477Y-4045709D01*
X3859834Y-4044008D01*
X3850231Y-4030035D01*
X3849741Y-4029598D01*
X3849741Y-4029598D01*
X3838063Y-4019193D01*
X3838062Y-4019193D01*
X3837572Y-4018756D01*
X3822588Y-4010822D01*
X3821951Y-4010662D01*
X3821951Y-4010662D01*
X3806781Y-4006852D01*
X3806781Y-4006852D01*
X3806144Y-4006692D01*
X3797614Y-4006647D01*
X3789846Y-4006606D01*
X3789846Y-4006606D01*
X3789189Y-4006603D01*
X3787289Y-4007059D01*
X3786345Y-4007286D01*
X3779629Y-4006758D01*
X3774506Y-4002382D01*
X3772900Y-3996687D01*
X3772900Y-3967195D01*
X3774982Y-3960788D01*
X3780432Y-3956828D01*
X3783800Y-3956295D01*
X4290935Y-3956295D01*
X4297342Y-3958377D01*
G37*
G04 #@! TD.AperFunction*
G04 #@! TA.AperFunction,Conductor*
G36*
X6637503Y-2905033D02*
G01*
X6638670Y-2905076D01*
X6639471Y-2905135D01*
X6681230Y-2909780D01*
X6682024Y-2909898D01*
X6723328Y-2917612D01*
X6724110Y-2917788D01*
X6764731Y-2928528D01*
X6765500Y-2928762D01*
X6776310Y-2932493D01*
X6805217Y-2942470D01*
X6805967Y-2942760D01*
X6844564Y-2959361D01*
X6845290Y-2959705D01*
X6882558Y-2979109D01*
X6883257Y-2979506D01*
X6904513Y-2992653D01*
X6918991Y-3001607D01*
X6919659Y-3002055D01*
X6927276Y-3007582D01*
X6953665Y-3026731D01*
X6954297Y-3027227D01*
X6985239Y-3053373D01*
X6986390Y-3054345D01*
X6986983Y-3054886D01*
X7016989Y-3084299D01*
X7017541Y-3084883D01*
X7045294Y-3116429D01*
X7045802Y-3117053D01*
X7067136Y-3145253D01*
X7069211Y-3150139D01*
X7075018Y-3187151D01*
X7076098Y-3194034D01*
X7076230Y-3195724D01*
X7076230Y-3877641D01*
X7076059Y-3879566D01*
X7072311Y-3900447D01*
X7069388Y-3916731D01*
X7067353Y-3921381D01*
X7045802Y-3949868D01*
X7045293Y-3950491D01*
X7042502Y-3953664D01*
X7017541Y-3982037D01*
X7016989Y-3982620D01*
X6986983Y-4012034D01*
X6986390Y-4012574D01*
X6955154Y-4038969D01*
X6954298Y-4039693D01*
X6953665Y-4040189D01*
X6932992Y-4055190D01*
X6919659Y-4064865D01*
X6918991Y-4065313D01*
X6910917Y-4070306D01*
X6885159Y-4086237D01*
X6883257Y-4087413D01*
X6882558Y-4087811D01*
X6847199Y-4106221D01*
X6845291Y-4107214D01*
X6844564Y-4107559D01*
X6805967Y-4124159D01*
X6805217Y-4124450D01*
X6805178Y-4124463D01*
X6765500Y-4138158D01*
X6764731Y-4138392D01*
X6724110Y-4149132D01*
X6723328Y-4149308D01*
X6682024Y-4157022D01*
X6681230Y-4157140D01*
X6639471Y-4161785D01*
X6638670Y-4161844D01*
X6599683Y-4163284D01*
X6598491Y-4163171D01*
X6597512Y-4163169D01*
X6596316Y-4162894D01*
X6595119Y-4163165D01*
X6595011Y-4163165D01*
X6592820Y-4163410D01*
X5934938Y-4163410D01*
X5928531Y-4161328D01*
X5924571Y-4155878D01*
X5924571Y-4149142D01*
X5928531Y-4143692D01*
X5930039Y-4142773D01*
X5944550Y-4135475D01*
X5957442Y-4124463D01*
X5967336Y-4110695D01*
X5969135Y-4106221D01*
X5973415Y-4095573D01*
X5973415Y-4095572D01*
X5973660Y-4094963D01*
X5976049Y-4078178D01*
X5976064Y-4076700D01*
X5974028Y-4059868D01*
X5973795Y-4059253D01*
X5973795Y-4059253D01*
X5968677Y-4045709D01*
X5968034Y-4044008D01*
X5962148Y-4035442D01*
X6520419Y-4035442D01*
X6522278Y-4049658D01*
X6528052Y-4062780D01*
X6528551Y-4063374D01*
X6528551Y-4063375D01*
X6535215Y-4071302D01*
X6537277Y-4073755D01*
X6549211Y-4081699D01*
X6549952Y-4081930D01*
X6562155Y-4085743D01*
X6562155Y-4085743D01*
X6562896Y-4085974D01*
X6570653Y-4086116D01*
X6576454Y-4086223D01*
X6576454Y-4086223D01*
X6577230Y-4086237D01*
X6591062Y-4082466D01*
X6596983Y-4078830D01*
X6603531Y-4077252D01*
X6608725Y-4079046D01*
X6612711Y-4081699D01*
X6618837Y-4083613D01*
X6625655Y-4085743D01*
X6625655Y-4085743D01*
X6626396Y-4085974D01*
X6634153Y-4086116D01*
X6639954Y-4086223D01*
X6639954Y-4086223D01*
X6640730Y-4086237D01*
X6654562Y-4082466D01*
X6666779Y-4074964D01*
X6676400Y-4064335D01*
X6682651Y-4051433D01*
X6684543Y-4040189D01*
X6684960Y-4037711D01*
X6684960Y-4037711D01*
X6685030Y-4037295D01*
X6685045Y-4036060D01*
X6683012Y-4021868D01*
X6677078Y-4008817D01*
X6667720Y-3997956D01*
X6655689Y-3990158D01*
X6648893Y-3988126D01*
X6642698Y-3986273D01*
X6642698Y-3986273D01*
X6641954Y-3986051D01*
X6634786Y-3986007D01*
X6628394Y-3985968D01*
X6628394Y-3985968D01*
X6627618Y-3985963D01*
X6626871Y-3986176D01*
X6626871Y-3986176D01*
X6614579Y-3989689D01*
X6614579Y-3989689D01*
X6613833Y-3989903D01*
X6613176Y-3990317D01*
X6613176Y-3990317D01*
X6608561Y-3993229D01*
X6602032Y-3994887D01*
X6596816Y-3993157D01*
X6592863Y-3990595D01*
X6592189Y-3990158D01*
X6585393Y-3988126D01*
X6579198Y-3986273D01*
X6579198Y-3986273D01*
X6578454Y-3986051D01*
X6571286Y-3986007D01*
X6564894Y-3985968D01*
X6564894Y-3985968D01*
X6564118Y-3985963D01*
X6563371Y-3986176D01*
X6563371Y-3986176D01*
X6551079Y-3989689D01*
X6551079Y-3989689D01*
X6550333Y-3989903D01*
X6549676Y-3990317D01*
X6549676Y-3990317D01*
X6539580Y-3996687D01*
X6538208Y-3997553D01*
X6528718Y-4008299D01*
X6528388Y-4009002D01*
X6528388Y-4009002D01*
X6522955Y-4020573D01*
X6522955Y-4020573D01*
X6522625Y-4021276D01*
X6522505Y-4022044D01*
X6522047Y-4024985D01*
X6520419Y-4035442D01*
X5962148Y-4035442D01*
X5958431Y-4030035D01*
X5957941Y-4029598D01*
X5957941Y-4029598D01*
X5946263Y-4019193D01*
X5946262Y-4019193D01*
X5945772Y-4018756D01*
X5930788Y-4010822D01*
X5930151Y-4010662D01*
X5930151Y-4010662D01*
X5914981Y-4006852D01*
X5914981Y-4006852D01*
X5914344Y-4006692D01*
X5905814Y-4006647D01*
X5898046Y-4006606D01*
X5898046Y-4006606D01*
X5897389Y-4006603D01*
X5880903Y-4010561D01*
X5880319Y-4010863D01*
X5880319Y-4010863D01*
X5872332Y-4014985D01*
X5865837Y-4018337D01*
X5865342Y-4018769D01*
X5865342Y-4018769D01*
X5854187Y-4028500D01*
X5853060Y-4029483D01*
X5852682Y-4030021D01*
X5843721Y-4042772D01*
X5843311Y-4043355D01*
X5837152Y-4059151D01*
X5837067Y-4059802D01*
X5837067Y-4059803D01*
X5835071Y-4074964D01*
X5834939Y-4075961D01*
X5836800Y-4092813D01*
X5837026Y-4093431D01*
X5837026Y-4093431D01*
X5841706Y-4106221D01*
X5842627Y-4108736D01*
X5852083Y-4122808D01*
X5852569Y-4123250D01*
X5852569Y-4123250D01*
X5863113Y-4132845D01*
X5864623Y-4134219D01*
X5865201Y-4134533D01*
X5878946Y-4141996D01*
X5878946Y-4141996D01*
X5879523Y-4142309D01*
X5879965Y-4142425D01*
X5885096Y-4146670D01*
X5886771Y-4153194D01*
X5884291Y-4159458D01*
X5878603Y-4163068D01*
X5875893Y-4163410D01*
X5556957Y-4163410D01*
X5550550Y-4161328D01*
X5547531Y-4157174D01*
X5547466Y-4157210D01*
X5547176Y-4156684D01*
X5546590Y-4155878D01*
X5546554Y-4155559D01*
X5545289Y-4153267D01*
X5500321Y-4108298D01*
X5499012Y-4107632D01*
X5498458Y-4107719D01*
X5453213Y-4152965D01*
X5450949Y-4157408D01*
X5450940Y-4157465D01*
X5446174Y-4162225D01*
X5441231Y-4163410D01*
X5383232Y-4163410D01*
X5376825Y-4161328D01*
X5372866Y-4155878D01*
X5372866Y-4149142D01*
X5376270Y-4144123D01*
X5376562Y-4143881D01*
X5377224Y-4143474D01*
X5386845Y-4132845D01*
X5393096Y-4119943D01*
X5395206Y-4107400D01*
X5395404Y-4106221D01*
X5395404Y-4106221D01*
X5395474Y-4105805D01*
X5395489Y-4104570D01*
X5393457Y-4090378D01*
X5389616Y-4081931D01*
X5388113Y-4078624D01*
X5387356Y-4071930D01*
X5390328Y-4066405D01*
X5405878Y-4050855D01*
X5411880Y-4047796D01*
X5418534Y-4048850D01*
X5423297Y-4053614D01*
X5424351Y-4060267D01*
X5423828Y-4062290D01*
X5421060Y-4069897D01*
X5420775Y-4071075D01*
X5418678Y-4087671D01*
X5418661Y-4088882D01*
X5420294Y-4105532D01*
X5420545Y-4106716D01*
X5425826Y-4122590D01*
X5426334Y-4123690D01*
X5433285Y-4135167D01*
X5434339Y-4136077D01*
X5435255Y-4135567D01*
X5481335Y-4089488D01*
X5517332Y-4089488D01*
X5517419Y-4090042D01*
X5562646Y-4135269D01*
X5563953Y-4135934D01*
X5564645Y-4135318D01*
X5570367Y-4126706D01*
X5570920Y-4125630D01*
X5576861Y-4109991D01*
X5577162Y-4108817D01*
X5579527Y-4091988D01*
X5579580Y-4091305D01*
X5579601Y-4089743D01*
X5579568Y-4089060D01*
X5577674Y-4072169D01*
X5577405Y-4070989D01*
X5571904Y-4055190D01*
X5571380Y-4054097D01*
X5564873Y-4043684D01*
X5563786Y-4042772D01*
X5562909Y-4043268D01*
X5517998Y-4088179D01*
X5517332Y-4089488D01*
X5481335Y-4089488D01*
X5534762Y-4036060D01*
X5658204Y-4036060D01*
X5658338Y-4036907D01*
X5660178Y-4048525D01*
X5660178Y-4048525D01*
X5660312Y-4049373D01*
X5666431Y-4061382D01*
X5675962Y-4070913D01*
X5676726Y-4071302D01*
X5676726Y-4071302D01*
X5678428Y-4072169D01*
X5687971Y-4077032D01*
X5688819Y-4077166D01*
X5688819Y-4077166D01*
X5700437Y-4079006D01*
X5701284Y-4079140D01*
X5702131Y-4079006D01*
X5713749Y-4077166D01*
X5713749Y-4077166D01*
X5714597Y-4077032D01*
X5724140Y-4072169D01*
X5725842Y-4071302D01*
X5725842Y-4071302D01*
X5726606Y-4070913D01*
X5736137Y-4061382D01*
X5742256Y-4049373D01*
X5742390Y-4048525D01*
X5742390Y-4048525D01*
X5744230Y-4036907D01*
X5744364Y-4036060D01*
X5743410Y-4030035D01*
X5742390Y-4023595D01*
X5742390Y-4023595D01*
X5742256Y-4022747D01*
X5737158Y-4012743D01*
X5736526Y-4011502D01*
X5736526Y-4011502D01*
X5736137Y-4010738D01*
X5726606Y-4001207D01*
X5714597Y-3995088D01*
X5713749Y-3994954D01*
X5713749Y-3994954D01*
X5702131Y-3993114D01*
X5701284Y-3992980D01*
X5700437Y-3993114D01*
X5688819Y-3994954D01*
X5688819Y-3994954D01*
X5687971Y-3995088D01*
X5675962Y-4001207D01*
X5666431Y-4010738D01*
X5666042Y-4011502D01*
X5666042Y-4011502D01*
X5665410Y-4012743D01*
X5660312Y-4022747D01*
X5660178Y-4023595D01*
X5660178Y-4023595D01*
X5659158Y-4030035D01*
X5658204Y-4036060D01*
X5534762Y-4036060D01*
X5545033Y-4025790D01*
X5545682Y-4024515D01*
X5545017Y-4023784D01*
X5534906Y-4017368D01*
X5533817Y-4016837D01*
X5518058Y-4011225D01*
X5516878Y-4010949D01*
X5500267Y-4008968D01*
X5499056Y-4008959D01*
X5482419Y-4010708D01*
X5481235Y-4010968D01*
X5471798Y-4014181D01*
X5465062Y-4014275D01*
X5459557Y-4010392D01*
X5457386Y-4004015D01*
X5459378Y-3997579D01*
X5460578Y-3996155D01*
X5483990Y-3972742D01*
X5489993Y-3969684D01*
X5491698Y-3969550D01*
X6005203Y-3969550D01*
X6006153Y-3969591D01*
X6009030Y-3969843D01*
X6009031Y-3969843D01*
X6009981Y-3969926D01*
X6013694Y-3968931D01*
X6014621Y-3968726D01*
X6017465Y-3968224D01*
X6018404Y-3968059D01*
X6019230Y-3967582D01*
X6019698Y-3967412D01*
X6020147Y-3967202D01*
X6021068Y-3966955D01*
X6024216Y-3964751D01*
X6025017Y-3964241D01*
X6028345Y-3962319D01*
X6028958Y-3961589D01*
X6028959Y-3961589D01*
X6030816Y-3959376D01*
X6031458Y-3958675D01*
X6085137Y-3904996D01*
X6439000Y-3904996D01*
X6439134Y-3905843D01*
X6440974Y-3917461D01*
X6440974Y-3917461D01*
X6441108Y-3918309D01*
X6447227Y-3930318D01*
X6456758Y-3939849D01*
X6468767Y-3945968D01*
X6469615Y-3946102D01*
X6469615Y-3946102D01*
X6481233Y-3947942D01*
X6482080Y-3948076D01*
X6482927Y-3947942D01*
X6494545Y-3946102D01*
X6494545Y-3946102D01*
X6495393Y-3945968D01*
X6507402Y-3939849D01*
X6516933Y-3930318D01*
X6523052Y-3918309D01*
X6523186Y-3917461D01*
X6523186Y-3917461D01*
X6525026Y-3905843D01*
X6525160Y-3904996D01*
X6524440Y-3900447D01*
X6523186Y-3892531D01*
X6523186Y-3892531D01*
X6523052Y-3891683D01*
X6517972Y-3881713D01*
X6517322Y-3880438D01*
X6517322Y-3880438D01*
X6516933Y-3879674D01*
X6507402Y-3870143D01*
X6505925Y-3869390D01*
X6502231Y-3867509D01*
X6495393Y-3864024D01*
X6494545Y-3863890D01*
X6494545Y-3863890D01*
X6482927Y-3862050D01*
X6482080Y-3861916D01*
X6481233Y-3862050D01*
X6469615Y-3863890D01*
X6469615Y-3863890D01*
X6468767Y-3864024D01*
X6461929Y-3867509D01*
X6458235Y-3869390D01*
X6456758Y-3870143D01*
X6447227Y-3879674D01*
X6446838Y-3880438D01*
X6446838Y-3880438D01*
X6446188Y-3881713D01*
X6441108Y-3891683D01*
X6440974Y-3892531D01*
X6440974Y-3892531D01*
X6439720Y-3900447D01*
X6439000Y-3904996D01*
X6085137Y-3904996D01*
X6230437Y-3759695D01*
X6236440Y-3756637D01*
X6243093Y-3757691D01*
X6247857Y-3762454D01*
X6248915Y-3769080D01*
X6248066Y-3774531D01*
X6247623Y-3777378D01*
X6249482Y-3791594D01*
X6255256Y-3804716D01*
X6255755Y-3805310D01*
X6255755Y-3805311D01*
X6263910Y-3815011D01*
X6264481Y-3815691D01*
X6276415Y-3823635D01*
X6277156Y-3823866D01*
X6289359Y-3827679D01*
X6289359Y-3827679D01*
X6290100Y-3827910D01*
X6297857Y-3828052D01*
X6303658Y-3828159D01*
X6303658Y-3828159D01*
X6304434Y-3828173D01*
X6318266Y-3824402D01*
X6330483Y-3816900D01*
X6334515Y-3812446D01*
X6339583Y-3806847D01*
X6340104Y-3806271D01*
X6346355Y-3793369D01*
X6348734Y-3779231D01*
X6348749Y-3777996D01*
X6348939Y-3777998D01*
X6350424Y-3772166D01*
X6351931Y-3770281D01*
X6359274Y-3762938D01*
X6365277Y-3759880D01*
X6366982Y-3759746D01*
X6675768Y-3759746D01*
X6676718Y-3759787D01*
X6679596Y-3760039D01*
X6679596Y-3760039D01*
X6680546Y-3760122D01*
X6684259Y-3759127D01*
X6685186Y-3758922D01*
X6688030Y-3758420D01*
X6688970Y-3758255D01*
X6689795Y-3757778D01*
X6690262Y-3757608D01*
X6690712Y-3757398D01*
X6691633Y-3757151D01*
X6692415Y-3756604D01*
X6693279Y-3756201D01*
X6693332Y-3756315D01*
X6696688Y-3754959D01*
X6705598Y-3753547D01*
X6717608Y-3747428D01*
X6719911Y-3745125D01*
X6720612Y-3744483D01*
X6720921Y-3744223D01*
X6721747Y-3743746D01*
X6723828Y-3741267D01*
X6724470Y-3740566D01*
X6727138Y-3737897D01*
X6727528Y-3737133D01*
X6728032Y-3736439D01*
X6728043Y-3736448D01*
X6728266Y-3736111D01*
X6728513Y-3735683D01*
X6729126Y-3734953D01*
X6730116Y-3732233D01*
X6730646Y-3731013D01*
X6732199Y-3727965D01*
X6733257Y-3725888D01*
X6733392Y-3725041D01*
X6733392Y-3725040D01*
X6735232Y-3713423D01*
X6735366Y-3712575D01*
X6734468Y-3706903D01*
X6733392Y-3700110D01*
X6733392Y-3700110D01*
X6733257Y-3699263D01*
X6728374Y-3689678D01*
X6727528Y-3688017D01*
X6727528Y-3688017D01*
X6727138Y-3687253D01*
X6717608Y-3677723D01*
X6716393Y-3677104D01*
X6710688Y-3674197D01*
X6705598Y-3671604D01*
X6704751Y-3671469D01*
X6704751Y-3671469D01*
X6693133Y-3669629D01*
X6692286Y-3669495D01*
X6691438Y-3669629D01*
X6679821Y-3671469D01*
X6679820Y-3671469D01*
X6678973Y-3671604D01*
X6673883Y-3674197D01*
X6668179Y-3677104D01*
X6666964Y-3677723D01*
X6657433Y-3687253D01*
X6657043Y-3688017D01*
X6657043Y-3688018D01*
X6656699Y-3688694D01*
X6651935Y-3693458D01*
X6646987Y-3694646D01*
X6525002Y-3694646D01*
X6518595Y-3692564D01*
X6514635Y-3687114D01*
X6514635Y-3680378D01*
X6517294Y-3676038D01*
X6549716Y-3643617D01*
X6600275Y-3593057D01*
X6600977Y-3592415D01*
X6603189Y-3590558D01*
X6603189Y-3590558D01*
X6603919Y-3589945D01*
X6605841Y-3586617D01*
X6606351Y-3585816D01*
X6608008Y-3583449D01*
X6608008Y-3583449D01*
X6608555Y-3582668D01*
X6608802Y-3581747D01*
X6609012Y-3581297D01*
X6609182Y-3580830D01*
X6609659Y-3580004D01*
X6610208Y-3576889D01*
X6610326Y-3576220D01*
X6610532Y-3575292D01*
X6610705Y-3574647D01*
X6610927Y-3573817D01*
X6614596Y-3568167D01*
X6620885Y-3565753D01*
X6627392Y-3567496D01*
X6630620Y-3570916D01*
X6630645Y-3570897D01*
X6641018Y-3584992D01*
X6654355Y-3596323D01*
X6654919Y-3596611D01*
X6654920Y-3596611D01*
X6669378Y-3603994D01*
X6669378Y-3603994D01*
X6669942Y-3604282D01*
X6670556Y-3604432D01*
X6670556Y-3604432D01*
X6686469Y-3608326D01*
X6686469Y-3608326D01*
X6686941Y-3608441D01*
X6687425Y-3608471D01*
X6687425Y-3608472D01*
X6687724Y-3608490D01*
X6688045Y-3608510D01*
X6700662Y-3608510D01*
X6710262Y-3607391D01*
X6713034Y-3607068D01*
X6713034Y-3607068D01*
X6713663Y-3606994D01*
X6714257Y-3606778D01*
X6714258Y-3606778D01*
X6729518Y-3601239D01*
X6729518Y-3601239D01*
X6730113Y-3601023D01*
X6742435Y-3592945D01*
X6744219Y-3591775D01*
X6744219Y-3591775D01*
X6744748Y-3591428D01*
X6756784Y-3578723D01*
X6765574Y-3563590D01*
X6766408Y-3560836D01*
X6770463Y-3547447D01*
X6770463Y-3547447D01*
X6770647Y-3546841D01*
X6771477Y-3533460D01*
X6771691Y-3530006D01*
X6771691Y-3530006D01*
X6771730Y-3529374D01*
X6768767Y-3512126D01*
X6764708Y-3502588D01*
X6762163Y-3496605D01*
X6762162Y-3496605D01*
X6761915Y-3496023D01*
X6751542Y-3481928D01*
X6738204Y-3470597D01*
X6737640Y-3470309D01*
X6737640Y-3470309D01*
X6723182Y-3462926D01*
X6723182Y-3462926D01*
X6722618Y-3462638D01*
X6722004Y-3462488D01*
X6722003Y-3462488D01*
X6706091Y-3458594D01*
X6706091Y-3458594D01*
X6705619Y-3458478D01*
X6705135Y-3458448D01*
X6705135Y-3458448D01*
X6704836Y-3458430D01*
X6704515Y-3458410D01*
X6691898Y-3458410D01*
X6682298Y-3459529D01*
X6679526Y-3459852D01*
X6679526Y-3459852D01*
X6678897Y-3459926D01*
X6678303Y-3460141D01*
X6678302Y-3460142D01*
X6668564Y-3463676D01*
X6662447Y-3465897D01*
X6655278Y-3470597D01*
X6649147Y-3474617D01*
X6647811Y-3475492D01*
X6635776Y-3488197D01*
X6631475Y-3495601D01*
X6626457Y-3500096D01*
X6619756Y-3500782D01*
X6613931Y-3497399D01*
X6611207Y-3491238D01*
X6611150Y-3490127D01*
X6611150Y-3345398D01*
X6613232Y-3338991D01*
X6614342Y-3337690D01*
X6634235Y-3317798D01*
X6640237Y-3314740D01*
X6646891Y-3315793D01*
X6651654Y-3320557D01*
X6652726Y-3322661D01*
X6655656Y-3328412D01*
X6656953Y-3330957D01*
X6666484Y-3340488D01*
X6667248Y-3340877D01*
X6667248Y-3340877D01*
X6668561Y-3341546D01*
X6678493Y-3346607D01*
X6684641Y-3347580D01*
X6690644Y-3350639D01*
X6691286Y-3351340D01*
X6692382Y-3352646D01*
X6693060Y-3353454D01*
X6693886Y-3353930D01*
X6694616Y-3354543D01*
X6694565Y-3354605D01*
X6695333Y-3355195D01*
X6696026Y-3355888D01*
X6696027Y-3355889D01*
X6860537Y-3520399D01*
X6863596Y-3526401D01*
X6863730Y-3528106D01*
X6863730Y-3563834D01*
X6861648Y-3570240D01*
X6856198Y-3574200D01*
X6851125Y-3574599D01*
X6847427Y-3574014D01*
X6847427Y-3574014D01*
X6846580Y-3573880D01*
X6845733Y-3574014D01*
X6834115Y-3575854D01*
X6834115Y-3575854D01*
X6833267Y-3575988D01*
X6825584Y-3579903D01*
X6822913Y-3581264D01*
X6821258Y-3582107D01*
X6811727Y-3591638D01*
X6811338Y-3592402D01*
X6811338Y-3592402D01*
X6811175Y-3592721D01*
X6805608Y-3603647D01*
X6805474Y-3604495D01*
X6805474Y-3604495D01*
X6803718Y-3615583D01*
X6803500Y-3616960D01*
X6803559Y-3617334D01*
X6803352Y-3619139D01*
X6802887Y-3621146D01*
X6802661Y-3621971D01*
X6801469Y-3625740D01*
X6801469Y-3625741D01*
X6801282Y-3626333D01*
X6801230Y-3626994D01*
X6801230Y-3627207D01*
X6801222Y-3627422D01*
X6801187Y-3627420D01*
X6801089Y-3628278D01*
X6801109Y-3628279D01*
X6801045Y-3629092D01*
X6800861Y-3629885D01*
X6800919Y-3630698D01*
X6800919Y-3630698D01*
X6801203Y-3634706D01*
X6801230Y-3635476D01*
X6801230Y-3802049D01*
X6801089Y-3803278D01*
X6801109Y-3803279D01*
X6801045Y-3804092D01*
X6800861Y-3804885D01*
X6800919Y-3805698D01*
X6800919Y-3805698D01*
X6801203Y-3809706D01*
X6801230Y-3810476D01*
X6801230Y-3811845D01*
X6801290Y-3812247D01*
X6801401Y-3812984D01*
X6801495Y-3813834D01*
X6801818Y-3818398D01*
X6802112Y-3819158D01*
X6802246Y-3819758D01*
X6802433Y-3820464D01*
X6802614Y-3821051D01*
X6802735Y-3821856D01*
X6803087Y-3822590D01*
X6803088Y-3822591D01*
X6804716Y-3825981D01*
X6805056Y-3826767D01*
X6805498Y-3827910D01*
X6806706Y-3831033D01*
X6807210Y-3831672D01*
X6807514Y-3832205D01*
X6807902Y-3832827D01*
X6808246Y-3833333D01*
X6808599Y-3834068D01*
X6811013Y-3836680D01*
X6811705Y-3837428D01*
X6812260Y-3838078D01*
X6815093Y-3841671D01*
X6815763Y-3842134D01*
X6816210Y-3842554D01*
X6816764Y-3843035D01*
X6817242Y-3843417D01*
X6817795Y-3844016D01*
X6821752Y-3846314D01*
X6822474Y-3846772D01*
X6826237Y-3849373D01*
X6827014Y-3849619D01*
X6827562Y-3849887D01*
X6828240Y-3850187D01*
X6828805Y-3850411D01*
X6829509Y-3850820D01*
X6833844Y-3851824D01*
X6833966Y-3851853D01*
X6834791Y-3852079D01*
X6838560Y-3853271D01*
X6838561Y-3853271D01*
X6839153Y-3853458D01*
X6839814Y-3853510D01*
X6840027Y-3853510D01*
X6840242Y-3853518D01*
X6840240Y-3853552D01*
X6841098Y-3853651D01*
X6841099Y-3853631D01*
X6841912Y-3853695D01*
X6842705Y-3853878D01*
X6843518Y-3853821D01*
X6843518Y-3853821D01*
X6847526Y-3853537D01*
X6848296Y-3853510D01*
X6889869Y-3853510D01*
X6891098Y-3853651D01*
X6891099Y-3853631D01*
X6891912Y-3853695D01*
X6892705Y-3853878D01*
X6893518Y-3853821D01*
X6893518Y-3853821D01*
X6897526Y-3853537D01*
X6898296Y-3853510D01*
X6939869Y-3853510D01*
X6941098Y-3853651D01*
X6941099Y-3853631D01*
X6941912Y-3853695D01*
X6942705Y-3853878D01*
X6943518Y-3853821D01*
X6943518Y-3853821D01*
X6947526Y-3853537D01*
X6948296Y-3853510D01*
X6949665Y-3853510D01*
X6950804Y-3853339D01*
X6951654Y-3853245D01*
X6953618Y-3853106D01*
X6955405Y-3852979D01*
X6955406Y-3852979D01*
X6956218Y-3852922D01*
X6956978Y-3852628D01*
X6957578Y-3852494D01*
X6958284Y-3852306D01*
X6958871Y-3852126D01*
X6959676Y-3852005D01*
X6960410Y-3851652D01*
X6960411Y-3851652D01*
X6963801Y-3850024D01*
X6964587Y-3849684D01*
X6968092Y-3848328D01*
X6968853Y-3848034D01*
X6969492Y-3847529D01*
X6970025Y-3847226D01*
X6970647Y-3846838D01*
X6971153Y-3846494D01*
X6971888Y-3846141D01*
X6975248Y-3843035D01*
X6975898Y-3842480D01*
X6978851Y-3840152D01*
X6979491Y-3839647D01*
X6979954Y-3838977D01*
X6980374Y-3838530D01*
X6980855Y-3837976D01*
X6981237Y-3837498D01*
X6981836Y-3836945D01*
X6982664Y-3835519D01*
X6983276Y-3834466D01*
X6984134Y-3832988D01*
X6984592Y-3832266D01*
X6985445Y-3831033D01*
X6987193Y-3828503D01*
X6987439Y-3827726D01*
X6987707Y-3827178D01*
X6988007Y-3826500D01*
X6988231Y-3825935D01*
X6988640Y-3825231D01*
X6989673Y-3820774D01*
X6989899Y-3819949D01*
X6991091Y-3816180D01*
X6991091Y-3816179D01*
X6991278Y-3815587D01*
X6991330Y-3814926D01*
X6991330Y-3814713D01*
X6991338Y-3814498D01*
X6991372Y-3814500D01*
X6991471Y-3813642D01*
X6991451Y-3813641D01*
X6991515Y-3812828D01*
X6991698Y-3812034D01*
X6991633Y-3811116D01*
X6991357Y-3807214D01*
X6991330Y-3806444D01*
X6991330Y-3655075D01*
X6991253Y-3654560D01*
X6990716Y-3650992D01*
X6990139Y-3647152D01*
X6990299Y-3643071D01*
X6990379Y-3642725D01*
X6991698Y-3637034D01*
X6991588Y-3635476D01*
X6991018Y-3627422D01*
X6990742Y-3623522D01*
X6990448Y-3622762D01*
X6990448Y-3622761D01*
X6989960Y-3621502D01*
X6989247Y-3617678D01*
X6989360Y-3616960D01*
X6989142Y-3615583D01*
X6987386Y-3604495D01*
X6987386Y-3604495D01*
X6987252Y-3603647D01*
X6981685Y-3592721D01*
X6981522Y-3592402D01*
X6981522Y-3592402D01*
X6981133Y-3591638D01*
X6971602Y-3582107D01*
X6969947Y-3581264D01*
X6967276Y-3579903D01*
X6959593Y-3575988D01*
X6958745Y-3575854D01*
X6958745Y-3575854D01*
X6947127Y-3574014D01*
X6946280Y-3573880D01*
X6941435Y-3574647D01*
X6934782Y-3573593D01*
X6930018Y-3568830D01*
X6928830Y-3563881D01*
X6928830Y-3512006D01*
X6928871Y-3511056D01*
X6929123Y-3508178D01*
X6929123Y-3508178D01*
X6929206Y-3507228D01*
X6928211Y-3503514D01*
X6928006Y-3502588D01*
X6927504Y-3499743D01*
X6927339Y-3498804D01*
X6926862Y-3497978D01*
X6926692Y-3497511D01*
X6926482Y-3497061D01*
X6926235Y-3496140D01*
X6924031Y-3492993D01*
X6923521Y-3492192D01*
X6921599Y-3488863D01*
X6920869Y-3488250D01*
X6920869Y-3488250D01*
X6918656Y-3486393D01*
X6917955Y-3485751D01*
X6738663Y-3306459D01*
X6738021Y-3305758D01*
X6736124Y-3303498D01*
X6733708Y-3298197D01*
X6732912Y-3293170D01*
X6732912Y-3293170D01*
X6732778Y-3292322D01*
X6726659Y-3280313D01*
X6717128Y-3270782D01*
X6715978Y-3270196D01*
X6712713Y-3268533D01*
X6705118Y-3264663D01*
X6696832Y-3263350D01*
X6690830Y-3260292D01*
X6687771Y-3254290D01*
X6687679Y-3253535D01*
X6687619Y-3252852D01*
X6687391Y-3250252D01*
X6687350Y-3249303D01*
X6687350Y-2999096D01*
X6687391Y-2998146D01*
X6687643Y-2995269D01*
X6687726Y-2994319D01*
X6686732Y-2990607D01*
X6686526Y-2989680D01*
X6686235Y-2988032D01*
X6685859Y-2985895D01*
X6685382Y-2985070D01*
X6685212Y-2984603D01*
X6685002Y-2984153D01*
X6684755Y-2983232D01*
X6682551Y-2980084D01*
X6682040Y-2979282D01*
X6681939Y-2979107D01*
X6680119Y-2975954D01*
X6679389Y-2975341D01*
X6679389Y-2975341D01*
X6677176Y-2973485D01*
X6676475Y-2972843D01*
X6651833Y-2948200D01*
X6627184Y-2923551D01*
X6624126Y-2917549D01*
X6625179Y-2910895D01*
X6629943Y-2906132D01*
X6635294Y-2904951D01*
X6637503Y-2905033D01*
G37*
G04 #@! TD.AperFunction*
G04 #@! TA.AperFunction,Conductor*
G36*
X5138717Y-3717578D02*
G01*
X5140654Y-3719382D01*
X5146382Y-3726197D01*
X5146881Y-3726791D01*
X5158815Y-3734735D01*
X5159556Y-3734966D01*
X5171759Y-3738779D01*
X5171759Y-3738779D01*
X5172500Y-3739010D01*
X5179667Y-3739142D01*
X5186058Y-3739259D01*
X5186058Y-3739259D01*
X5186834Y-3739273D01*
X5187397Y-3739120D01*
X5193925Y-3740376D01*
X5196365Y-3742212D01*
X5256621Y-3802468D01*
X5257976Y-3804120D01*
X5258853Y-3805431D01*
X5267585Y-3811266D01*
X5275286Y-3812798D01*
X5275286Y-3812798D01*
X5275287Y-3812798D01*
X5276833Y-3813106D01*
X5276833Y-3813106D01*
X5277886Y-3813315D01*
X5279433Y-3813007D01*
X5281559Y-3812798D01*
X5333555Y-3812798D01*
X5339962Y-3814880D01*
X5343921Y-3820330D01*
X5343921Y-3827066D01*
X5342473Y-3829965D01*
X5335311Y-3840155D01*
X5329152Y-3855951D01*
X5329067Y-3856602D01*
X5329067Y-3856603D01*
X5327383Y-3869390D01*
X5326939Y-3872761D01*
X5328800Y-3889613D01*
X5329026Y-3890231D01*
X5329026Y-3890231D01*
X5332198Y-3898900D01*
X5334627Y-3905536D01*
X5344083Y-3919608D01*
X5344569Y-3920050D01*
X5344569Y-3920050D01*
X5355853Y-3930318D01*
X5356623Y-3931019D01*
X5357201Y-3931333D01*
X5370946Y-3938796D01*
X5370947Y-3938796D01*
X5371524Y-3939109D01*
X5372159Y-3939276D01*
X5372159Y-3939276D01*
X5384753Y-3942580D01*
X5387923Y-3943412D01*
X5393359Y-3943497D01*
X5395002Y-3943523D01*
X5401375Y-3945705D01*
X5405249Y-3951216D01*
X5405143Y-3957952D01*
X5402538Y-3962129D01*
X5325698Y-4038969D01*
X5324626Y-4039910D01*
X5322334Y-4041668D01*
X5321821Y-4042472D01*
X5319759Y-4045709D01*
X5319495Y-4046104D01*
X5316745Y-4050032D01*
X5316556Y-4050735D01*
X5316165Y-4051348D01*
X5315959Y-4052279D01*
X5315959Y-4052279D01*
X5315127Y-4056027D01*
X5315015Y-4056488D01*
X5313774Y-4061119D01*
X5313782Y-4061220D01*
X5311281Y-4067050D01*
X5302662Y-4076809D01*
X5302332Y-4077511D01*
X5302332Y-4077512D01*
X5296899Y-4089083D01*
X5296899Y-4089083D01*
X5296569Y-4089786D01*
X5296450Y-4090554D01*
X5296414Y-4090781D01*
X5294364Y-4103952D01*
X5296223Y-4118168D01*
X5301997Y-4131290D01*
X5302496Y-4131884D01*
X5302496Y-4131884D01*
X5305762Y-4135770D01*
X5311222Y-4142265D01*
X5311868Y-4142695D01*
X5311868Y-4142695D01*
X5312982Y-4143436D01*
X5317162Y-4148719D01*
X5317438Y-4155450D01*
X5313705Y-4161058D01*
X5306942Y-4163410D01*
X4453590Y-4163410D01*
X4447183Y-4161328D01*
X4443224Y-4155878D01*
X4443224Y-4149142D01*
X4443477Y-4148444D01*
X4444107Y-4146878D01*
X4447518Y-4138392D01*
X4449415Y-4133673D01*
X4449415Y-4133672D01*
X4449660Y-4133063D01*
X4452049Y-4116278D01*
X4452065Y-4114800D01*
X4450028Y-4097968D01*
X4446888Y-4089659D01*
X4446571Y-4082930D01*
X4450269Y-4077300D01*
X4452136Y-4076095D01*
X4457586Y-4073318D01*
X4461542Y-4071302D01*
X4461542Y-4071302D01*
X4462306Y-4070913D01*
X4471837Y-4061382D01*
X4477956Y-4049373D01*
X4478090Y-4048525D01*
X4478090Y-4048525D01*
X4479930Y-4036907D01*
X4480064Y-4036060D01*
X4479110Y-4030035D01*
X4478090Y-4023595D01*
X4478090Y-4023595D01*
X4477956Y-4022747D01*
X4471840Y-4010744D01*
X4470786Y-4004091D01*
X4473845Y-3998088D01*
X4479847Y-3995030D01*
X4481552Y-3994896D01*
X4554610Y-3994896D01*
X4556737Y-3995105D01*
X4557231Y-3995204D01*
X4557231Y-3995204D01*
X4558284Y-3995413D01*
X4559337Y-3995204D01*
X4559832Y-3995105D01*
X4560884Y-3994896D01*
X4568585Y-3993364D01*
X4577317Y-3987529D01*
X4578194Y-3986218D01*
X4579549Y-3984566D01*
X4725989Y-3838126D01*
X4731991Y-3835068D01*
X4738645Y-3836122D01*
X4743408Y-3840886D01*
X4744462Y-3847539D01*
X4744043Y-3850187D01*
X4743408Y-3854196D01*
X4743542Y-3855043D01*
X4745382Y-3866661D01*
X4745382Y-3866661D01*
X4745516Y-3867509D01*
X4748192Y-3872761D01*
X4751173Y-3878611D01*
X4751635Y-3879518D01*
X4761166Y-3889049D01*
X4761930Y-3889438D01*
X4761930Y-3889438D01*
X4762350Y-3889652D01*
X4773175Y-3895168D01*
X4774023Y-3895302D01*
X4774023Y-3895302D01*
X4785641Y-3897142D01*
X4786488Y-3897276D01*
X4787335Y-3897142D01*
X4798953Y-3895302D01*
X4798953Y-3895302D01*
X4799801Y-3895168D01*
X4810626Y-3889652D01*
X4811046Y-3889438D01*
X4811046Y-3889438D01*
X4811810Y-3889049D01*
X4821341Y-3879518D01*
X4821803Y-3878611D01*
X4824784Y-3872761D01*
X4827460Y-3867509D01*
X4827594Y-3866661D01*
X4827594Y-3866661D01*
X4829434Y-3855043D01*
X4829568Y-3854196D01*
X4828934Y-3850187D01*
X4827594Y-3841731D01*
X4827594Y-3841731D01*
X4827460Y-3840883D01*
X4821341Y-3828874D01*
X4811810Y-3819343D01*
X4810811Y-3818834D01*
X4806514Y-3816645D01*
X4799801Y-3813224D01*
X4798953Y-3813090D01*
X4798953Y-3813090D01*
X4787335Y-3811250D01*
X4786488Y-3811116D01*
X4785641Y-3811250D01*
X4779831Y-3812170D01*
X4773178Y-3811116D01*
X4768414Y-3806352D01*
X4767360Y-3799699D01*
X4770419Y-3793697D01*
X4845427Y-3718688D01*
X4851429Y-3715630D01*
X4853134Y-3715496D01*
X5132310Y-3715496D01*
X5138717Y-3717578D01*
G37*
G04 #@! TD.AperFunction*
G04 #@! TA.AperFunction,Conductor*
G36*
X3729605Y-2905592D02*
G01*
X3733564Y-2911042D01*
X3733564Y-2917778D01*
X3731368Y-2921625D01*
X3728622Y-2924735D01*
X3728292Y-2925438D01*
X3728292Y-2925438D01*
X3722859Y-2937009D01*
X3722859Y-2937009D01*
X3722529Y-2937712D01*
X3722409Y-2938480D01*
X3720896Y-2948200D01*
X3720323Y-2951878D01*
X3722182Y-2966094D01*
X3727956Y-2979216D01*
X3728455Y-2979810D01*
X3728455Y-2979811D01*
X3736681Y-2989597D01*
X3737181Y-2990191D01*
X3749115Y-2998135D01*
X3749856Y-2998366D01*
X3762059Y-3002179D01*
X3762059Y-3002179D01*
X3762800Y-3002410D01*
X3770557Y-3002552D01*
X3776358Y-3002659D01*
X3776358Y-3002659D01*
X3777134Y-3002673D01*
X3790966Y-2998902D01*
X3803183Y-2991400D01*
X3806787Y-2987419D01*
X3812629Y-2984066D01*
X3819327Y-2984788D01*
X3824321Y-2989309D01*
X3824844Y-2990344D01*
X3830273Y-3002682D01*
X3830773Y-3003276D01*
X3830773Y-3003276D01*
X3830985Y-3003529D01*
X3831088Y-3003782D01*
X3831183Y-3003936D01*
X3831157Y-3003952D01*
X3833514Y-3009772D01*
X3831890Y-3016310D01*
X3827134Y-3020456D01*
X3826496Y-3020639D01*
X3825839Y-3021053D01*
X3825838Y-3021053D01*
X3815027Y-3027875D01*
X3814371Y-3028289D01*
X3804880Y-3039035D01*
X3804550Y-3039738D01*
X3804550Y-3039738D01*
X3799118Y-3051309D01*
X3799117Y-3051309D01*
X3798787Y-3052012D01*
X3798668Y-3052780D01*
X3796984Y-3063593D01*
X3796582Y-3066178D01*
X3796683Y-3066948D01*
X3796737Y-3067368D01*
X3798441Y-3080394D01*
X3804215Y-3093516D01*
X3804714Y-3094110D01*
X3804714Y-3094111D01*
X3812728Y-3103644D01*
X3813440Y-3104491D01*
X3825374Y-3112435D01*
X3826115Y-3112666D01*
X3838317Y-3116479D01*
X3838318Y-3116479D01*
X3839058Y-3116710D01*
X3846816Y-3116852D01*
X3852617Y-3116959D01*
X3852617Y-3116959D01*
X3853393Y-3116973D01*
X3867224Y-3113202D01*
X3879442Y-3105700D01*
X3880577Y-3104446D01*
X3886980Y-3097372D01*
X3889063Y-3095071D01*
X3895314Y-3082169D01*
X3897692Y-3068031D01*
X3897707Y-3066796D01*
X3895675Y-3052604D01*
X3889741Y-3039553D01*
X3889234Y-3038964D01*
X3888816Y-3038311D01*
X3889045Y-3038164D01*
X3886914Y-3033083D01*
X3888458Y-3026525D01*
X3893203Y-3022389D01*
X3893283Y-3022367D01*
X3905500Y-3014866D01*
X3907536Y-3012617D01*
X3913238Y-3006317D01*
X3915121Y-3004237D01*
X3921372Y-2991335D01*
X3923108Y-2981020D01*
X3923681Y-2977612D01*
X3923681Y-2977612D01*
X3923751Y-2977197D01*
X3923756Y-2976776D01*
X3923756Y-2976776D01*
X3923759Y-2976568D01*
X3923780Y-2976504D01*
X3923794Y-2976356D01*
X3923829Y-2976359D01*
X3925919Y-2970187D01*
X3931417Y-2966295D01*
X3934658Y-2965802D01*
X3993778Y-2965802D01*
X4000185Y-2967884D01*
X4004145Y-2973334D01*
X4004145Y-2980070D01*
X4002696Y-2982969D01*
X3996148Y-2992286D01*
X3996148Y-2992287D01*
X3995770Y-2992825D01*
X3990270Y-3006930D01*
X3990184Y-3007582D01*
X3990184Y-3007582D01*
X3988435Y-3020871D01*
X3988294Y-3021940D01*
X3989955Y-3036988D01*
X3995158Y-3051206D01*
X3995524Y-3051751D01*
X3995525Y-3051751D01*
X4002848Y-3062649D01*
X4003602Y-3063772D01*
X4004088Y-3064213D01*
X4004088Y-3064213D01*
X4013953Y-3073190D01*
X4014800Y-3073961D01*
X4028105Y-3081185D01*
X4042749Y-3085026D01*
X4049439Y-3085131D01*
X4057229Y-3085254D01*
X4057229Y-3085254D01*
X4057886Y-3085264D01*
X4058527Y-3085117D01*
X4058527Y-3085117D01*
X4072004Y-3082031D01*
X4072644Y-3081884D01*
X4073230Y-3081589D01*
X4073230Y-3081589D01*
X4085582Y-3075377D01*
X4085582Y-3075377D01*
X4086169Y-3075082D01*
X4093937Y-3068447D01*
X4097181Y-3065676D01*
X4097681Y-3065249D01*
X4106516Y-3052955D01*
X4107177Y-3051309D01*
X4111917Y-3039518D01*
X4112162Y-3038908D01*
X4112257Y-3038242D01*
X4114245Y-3024272D01*
X4114245Y-3024271D01*
X4114296Y-3023920D01*
X4114309Y-3022600D01*
X4114122Y-3021053D01*
X4113121Y-3012780D01*
X4112491Y-3007570D01*
X4112258Y-3006956D01*
X4112258Y-3006955D01*
X4108047Y-2995810D01*
X4107139Y-2993408D01*
X4106767Y-2992867D01*
X4106767Y-2992866D01*
X4099901Y-2982876D01*
X4097987Y-2976417D01*
X4100236Y-2970066D01*
X4105788Y-2966251D01*
X4108884Y-2965802D01*
X4207296Y-2965802D01*
X4213703Y-2967884D01*
X4215003Y-2968994D01*
X4234041Y-2988032D01*
X4237099Y-2994034D01*
X4236045Y-3000688D01*
X4231282Y-3005451D01*
X4227099Y-3007582D01*
X4222423Y-3009965D01*
X4221162Y-3010607D01*
X4211631Y-3020138D01*
X4205512Y-3032147D01*
X4205378Y-3032995D01*
X4205378Y-3032995D01*
X4203978Y-3041831D01*
X4203404Y-3045460D01*
X4203538Y-3046307D01*
X4205378Y-3057925D01*
X4205378Y-3057925D01*
X4205512Y-3058773D01*
X4208894Y-3065411D01*
X4210594Y-3068746D01*
X4211631Y-3070782D01*
X4221162Y-3080313D01*
X4221048Y-3080426D01*
X4224451Y-3085110D01*
X4224450Y-3090228D01*
X4224816Y-3090286D01*
X4224816Y-3090286D01*
X4224816Y-3090286D01*
X4224629Y-3091469D01*
X4224450Y-3091819D01*
X4224450Y-3091846D01*
X4224417Y-3091950D01*
X4224388Y-3091941D01*
X4221571Y-3097471D01*
X4215569Y-3100529D01*
X4215180Y-3100560D01*
X4214988Y-3100529D01*
X4214416Y-3100620D01*
X4214415Y-3100620D01*
X4202523Y-3102504D01*
X4202523Y-3102504D01*
X4201675Y-3102638D01*
X4189666Y-3108757D01*
X4185556Y-3112867D01*
X4179553Y-3115926D01*
X4177848Y-3116060D01*
X4066157Y-3116060D01*
X4064031Y-3115850D01*
X4063423Y-3115729D01*
X4062370Y-3115520D01*
X4061317Y-3115729D01*
X4061317Y-3115729D01*
X4059657Y-3116060D01*
X4059657Y-3116060D01*
X4059657Y-3116060D01*
X4053139Y-3117356D01*
X4051621Y-3117658D01*
X4047864Y-3120168D01*
X4044808Y-3122210D01*
X4044808Y-3122210D01*
X4044063Y-3122708D01*
X4042508Y-3123747D01*
X4041911Y-3124640D01*
X4041911Y-3124640D01*
X4041567Y-3125155D01*
X4040212Y-3126806D01*
X3941801Y-3225218D01*
X3935798Y-3228276D01*
X3929922Y-3227580D01*
X3929500Y-3227406D01*
X3928607Y-3226809D01*
X3927554Y-3226600D01*
X3923283Y-3225750D01*
X3923283Y-3225750D01*
X3922759Y-3225646D01*
X3678809Y-3225646D01*
X3678285Y-3225750D01*
X3678285Y-3225750D01*
X3675782Y-3226248D01*
X3672961Y-3226809D01*
X3672068Y-3227406D01*
X3672068Y-3227406D01*
X3669109Y-3229383D01*
X3666329Y-3231241D01*
X3665732Y-3232133D01*
X3662948Y-3236301D01*
X3661897Y-3237873D01*
X3660734Y-3243721D01*
X3660734Y-3249413D01*
X3659137Y-3254752D01*
X3659213Y-3254788D01*
X3658883Y-3255491D01*
X3653450Y-3267062D01*
X3653450Y-3267062D01*
X3653120Y-3267765D01*
X3653001Y-3268533D01*
X3651297Y-3279475D01*
X3650914Y-3281931D01*
X3652773Y-3296147D01*
X3653086Y-3296858D01*
X3658234Y-3308558D01*
X3658235Y-3308558D01*
X3658547Y-3309269D01*
X3659047Y-3309864D01*
X3659088Y-3309929D01*
X3660734Y-3315689D01*
X3660734Y-3321671D01*
X3660838Y-3322195D01*
X3660838Y-3322195D01*
X3661117Y-3323598D01*
X3661897Y-3327519D01*
X3666329Y-3334151D01*
X3667221Y-3334748D01*
X3670791Y-3337133D01*
X3674962Y-3342423D01*
X3675226Y-3349155D01*
X3671484Y-3354756D01*
X3670791Y-3355259D01*
X3666329Y-3358241D01*
X3661897Y-3364873D01*
X3661688Y-3365926D01*
X3660907Y-3369850D01*
X3660734Y-3370721D01*
X3660734Y-3448671D01*
X3661897Y-3454519D01*
X3662494Y-3455412D01*
X3662494Y-3455412D01*
X3665510Y-3459926D01*
X3666329Y-3461151D01*
X3667221Y-3461748D01*
X3670791Y-3464133D01*
X3674962Y-3469423D01*
X3675226Y-3476155D01*
X3671484Y-3481756D01*
X3670791Y-3482259D01*
X3666329Y-3485241D01*
X3665732Y-3486133D01*
X3663064Y-3490127D01*
X3661897Y-3491873D01*
X3661688Y-3492926D01*
X3660838Y-3497196D01*
X3660734Y-3497721D01*
X3660734Y-3515849D01*
X3659701Y-3520481D01*
X3659029Y-3521912D01*
X3658909Y-3522679D01*
X3658909Y-3522680D01*
X3657164Y-3533888D01*
X3656823Y-3536078D01*
X3656924Y-3536848D01*
X3658566Y-3549406D01*
X3658682Y-3550294D01*
X3658995Y-3551004D01*
X3658995Y-3551005D01*
X3659811Y-3552859D01*
X3660734Y-3557249D01*
X3660734Y-3575671D01*
X3660838Y-3576195D01*
X3660838Y-3576195D01*
X3661079Y-3577407D01*
X3661897Y-3581519D01*
X3662494Y-3582412D01*
X3662494Y-3582412D01*
X3665732Y-3587258D01*
X3666329Y-3588151D01*
X3667221Y-3588748D01*
X3670791Y-3591133D01*
X3674962Y-3596423D01*
X3675226Y-3603155D01*
X3671484Y-3608756D01*
X3670791Y-3609259D01*
X3666329Y-3612241D01*
X3665732Y-3613133D01*
X3663018Y-3617195D01*
X3661897Y-3618873D01*
X3660734Y-3624721D01*
X3660734Y-3702671D01*
X3660838Y-3703195D01*
X3660838Y-3703195D01*
X3661287Y-3705453D01*
X3661897Y-3708519D01*
X3666329Y-3715151D01*
X3667221Y-3715748D01*
X3670791Y-3718133D01*
X3674962Y-3723423D01*
X3675226Y-3730155D01*
X3671484Y-3735756D01*
X3670791Y-3736259D01*
X3668339Y-3737897D01*
X3666329Y-3739241D01*
X3665732Y-3740133D01*
X3662631Y-3744774D01*
X3661897Y-3745873D01*
X3661688Y-3746926D01*
X3661030Y-3750235D01*
X3660734Y-3751721D01*
X3660734Y-3809267D01*
X3658652Y-3815674D01*
X3652829Y-3819748D01*
X3652558Y-3819825D01*
X3642989Y-3822560D01*
X3642989Y-3822560D01*
X3642243Y-3822774D01*
X3641586Y-3823188D01*
X3637346Y-3825863D01*
X3631529Y-3827545D01*
X3561734Y-3827545D01*
X3555327Y-3825463D01*
X3551367Y-3820013D01*
X3550834Y-3816645D01*
X3550834Y-3751721D01*
X3550538Y-3750235D01*
X3549880Y-3746926D01*
X3549671Y-3745873D01*
X3548937Y-3744774D01*
X3546349Y-3740902D01*
X3545872Y-3740188D01*
X3544044Y-3733705D01*
X3546375Y-3727384D01*
X3548762Y-3725149D01*
X3548782Y-3725135D01*
X3555255Y-3718651D01*
X3556373Y-3717018D01*
X3560154Y-3708467D01*
X3560580Y-3706903D01*
X3560747Y-3705468D01*
X3560784Y-3704837D01*
X3560784Y-3677922D01*
X3560330Y-3676526D01*
X3559876Y-3676196D01*
X3262510Y-3676196D01*
X3261114Y-3676650D01*
X3260784Y-3677104D01*
X3260784Y-3704831D01*
X3260822Y-3705473D01*
X3260999Y-3706957D01*
X3261427Y-3708516D01*
X3265223Y-3717063D01*
X3266344Y-3718694D01*
X3273541Y-3725878D01*
X3273438Y-3725982D01*
X3276900Y-3730477D01*
X3277088Y-3737211D01*
X3275695Y-3740190D01*
X3275219Y-3740902D01*
X3272631Y-3744774D01*
X3271897Y-3745873D01*
X3271688Y-3746926D01*
X3271030Y-3750235D01*
X3270734Y-3751721D01*
X3270734Y-3753773D01*
X3268652Y-3760180D01*
X3266088Y-3762701D01*
X3265982Y-3762774D01*
X3265178Y-3763287D01*
X3261828Y-3765221D01*
X3261215Y-3765951D01*
X3261215Y-3765951D01*
X3259341Y-3768185D01*
X3258699Y-3768886D01*
X3241074Y-3786511D01*
X3240373Y-3787153D01*
X3237409Y-3789640D01*
X3235698Y-3792603D01*
X3235475Y-3792990D01*
X3234964Y-3793792D01*
X3232745Y-3796962D01*
X3232498Y-3797883D01*
X3232284Y-3798341D01*
X3232111Y-3798816D01*
X3231634Y-3799642D01*
X3231210Y-3802049D01*
X3230962Y-3803452D01*
X3230757Y-3804380D01*
X3230096Y-3806847D01*
X3229755Y-3808118D01*
X3229838Y-3809067D01*
X3229838Y-3809067D01*
X3230092Y-3811971D01*
X3230134Y-3812921D01*
X3230134Y-3862340D01*
X3228052Y-3868747D01*
X3227404Y-3869555D01*
X3220622Y-3877235D01*
X3220292Y-3877938D01*
X3220292Y-3877938D01*
X3214859Y-3889509D01*
X3214859Y-3889509D01*
X3214529Y-3890212D01*
X3214409Y-3890980D01*
X3212636Y-3902368D01*
X3212323Y-3904378D01*
X3214182Y-3918594D01*
X3219956Y-3931716D01*
X3220455Y-3932310D01*
X3220455Y-3932311D01*
X3227119Y-3940238D01*
X3229181Y-3942691D01*
X3241115Y-3950635D01*
X3241856Y-3950866D01*
X3254059Y-3954679D01*
X3254059Y-3954679D01*
X3254800Y-3954910D01*
X3262557Y-3955052D01*
X3268358Y-3955159D01*
X3268358Y-3955159D01*
X3269134Y-3955173D01*
X3282966Y-3951402D01*
X3295183Y-3943900D01*
X3304804Y-3933271D01*
X3311055Y-3920369D01*
X3313434Y-3906231D01*
X3313449Y-3904996D01*
X3311416Y-3890804D01*
X3305482Y-3877753D01*
X3298277Y-3869390D01*
X3295671Y-3863178D01*
X3295634Y-3862275D01*
X3295634Y-3858646D01*
X3297716Y-3852239D01*
X3303166Y-3848279D01*
X3306534Y-3847746D01*
X3467304Y-3847746D01*
X3473711Y-3849828D01*
X3477670Y-3855278D01*
X3477670Y-3862014D01*
X3475011Y-3866353D01*
X3463730Y-3877635D01*
X3462078Y-3878990D01*
X3460767Y-3879867D01*
X3459294Y-3882071D01*
X3454932Y-3888599D01*
X3452883Y-3898900D01*
X3453092Y-3899953D01*
X3453092Y-3899953D01*
X3453191Y-3900447D01*
X3453400Y-3902574D01*
X3453400Y-3971426D01*
X3453191Y-3973552D01*
X3452883Y-3975100D01*
X3453400Y-3977700D01*
X3454932Y-3985401D01*
X3460767Y-3994133D01*
X3461659Y-3994730D01*
X3462078Y-3995010D01*
X3463730Y-3996365D01*
X3511795Y-4044430D01*
X3514853Y-4050433D01*
X3514243Y-4056097D01*
X3513291Y-4058539D01*
X3513052Y-4059151D01*
X3512967Y-4059802D01*
X3512967Y-4059803D01*
X3510971Y-4074964D01*
X3510839Y-4075961D01*
X3512700Y-4092813D01*
X3512926Y-4093431D01*
X3512926Y-4093431D01*
X3517606Y-4106221D01*
X3518527Y-4108736D01*
X3527983Y-4122808D01*
X3528469Y-4123250D01*
X3528469Y-4123250D01*
X3539013Y-4132845D01*
X3540523Y-4134219D01*
X3541101Y-4134533D01*
X3553048Y-4141020D01*
X3557685Y-4145906D01*
X3558565Y-4152585D01*
X3555350Y-4158505D01*
X3549270Y-4161405D01*
X3547419Y-4161490D01*
X3547281Y-4161485D01*
X3546429Y-4161418D01*
X3529871Y-4159458D01*
X3498160Y-4155705D01*
X3497316Y-4155571D01*
X3463249Y-4148795D01*
X3449641Y-4146088D01*
X3448809Y-4145888D01*
X3404603Y-4133421D01*
X3402027Y-4132694D01*
X3401213Y-4132430D01*
X3401168Y-4132413D01*
X3375133Y-4122808D01*
X3355611Y-4115606D01*
X3354820Y-4115279D01*
X3310677Y-4094929D01*
X3309915Y-4094540D01*
X3267505Y-4070790D01*
X3266776Y-4070342D01*
X3238280Y-4051302D01*
X3226360Y-4043338D01*
X3225668Y-4042835D01*
X3225645Y-4042817D01*
X3209431Y-4030035D01*
X3187497Y-4012743D01*
X3186846Y-4012187D01*
X3151153Y-3979193D01*
X3150547Y-3978587D01*
X3117553Y-3942894D01*
X3116997Y-3942243D01*
X3088935Y-3906647D01*
X3086905Y-3904071D01*
X3086402Y-3903380D01*
X3085864Y-3902574D01*
X3073738Y-3884427D01*
X3059397Y-3862964D01*
X3058950Y-3862235D01*
X3035200Y-3819825D01*
X3034811Y-3819063D01*
X3014461Y-3774920D01*
X3014134Y-3774129D01*
X3001682Y-3740376D01*
X2997310Y-3728527D01*
X2997046Y-3727713D01*
X2983852Y-3680931D01*
X2983652Y-3680099D01*
X2979594Y-3659699D01*
X2977559Y-3649470D01*
X3260784Y-3649470D01*
X3261238Y-3650866D01*
X3261692Y-3651196D01*
X3396558Y-3651196D01*
X3397954Y-3650742D01*
X3398284Y-3650288D01*
X3398284Y-3649470D01*
X3423284Y-3649470D01*
X3423738Y-3650866D01*
X3424192Y-3651196D01*
X3559058Y-3651196D01*
X3560454Y-3650742D01*
X3560784Y-3650288D01*
X3560784Y-3622561D01*
X3560746Y-3621919D01*
X3560569Y-3620435D01*
X3560141Y-3618876D01*
X3556345Y-3610329D01*
X3555224Y-3608698D01*
X3554430Y-3607906D01*
X3551366Y-3601907D01*
X3552414Y-3595252D01*
X3554416Y-3592491D01*
X3555255Y-3591651D01*
X3556373Y-3590018D01*
X3560154Y-3581467D01*
X3560580Y-3579903D01*
X3560747Y-3578468D01*
X3560784Y-3577837D01*
X3560784Y-3550922D01*
X3560330Y-3549526D01*
X3559876Y-3549196D01*
X3425010Y-3549196D01*
X3423614Y-3549650D01*
X3423284Y-3550104D01*
X3423284Y-3649470D01*
X3398284Y-3649470D01*
X3398284Y-3550922D01*
X3397830Y-3549526D01*
X3397376Y-3549196D01*
X3262510Y-3549196D01*
X3261114Y-3549650D01*
X3260784Y-3550104D01*
X3260784Y-3577831D01*
X3260822Y-3578473D01*
X3260999Y-3579957D01*
X3261427Y-3581516D01*
X3265223Y-3590063D01*
X3266344Y-3591693D01*
X3267138Y-3592486D01*
X3270202Y-3598485D01*
X3269154Y-3605140D01*
X3267152Y-3607901D01*
X3266313Y-3608741D01*
X3265195Y-3610374D01*
X3261414Y-3618925D01*
X3260988Y-3620489D01*
X3260821Y-3621924D01*
X3260784Y-3622555D01*
X3260784Y-3649470D01*
X2977559Y-3649470D01*
X2974169Y-3632424D01*
X2974035Y-3631579D01*
X2973773Y-3629364D01*
X2968322Y-3583311D01*
X2968255Y-3582458D01*
X2968208Y-3581264D01*
X2966490Y-3537546D01*
X3020830Y-3537546D01*
X3023793Y-3554794D01*
X3024041Y-3555377D01*
X3028405Y-3565632D01*
X3030645Y-3570897D01*
X3041018Y-3584992D01*
X3054355Y-3596323D01*
X3054919Y-3596611D01*
X3054920Y-3596611D01*
X3069378Y-3603994D01*
X3069378Y-3603994D01*
X3069942Y-3604282D01*
X3070556Y-3604432D01*
X3070556Y-3604432D01*
X3086469Y-3608326D01*
X3086469Y-3608326D01*
X3086941Y-3608441D01*
X3087425Y-3608471D01*
X3087425Y-3608472D01*
X3087724Y-3608490D01*
X3088045Y-3608510D01*
X3100662Y-3608510D01*
X3110262Y-3607391D01*
X3113034Y-3607068D01*
X3113034Y-3607068D01*
X3113663Y-3606994D01*
X3114257Y-3606778D01*
X3114258Y-3606778D01*
X3129518Y-3601239D01*
X3129518Y-3601239D01*
X3130113Y-3601023D01*
X3142435Y-3592945D01*
X3144219Y-3591775D01*
X3144219Y-3591775D01*
X3144748Y-3591428D01*
X3156784Y-3578723D01*
X3165574Y-3563590D01*
X3166408Y-3560836D01*
X3170463Y-3547447D01*
X3170463Y-3547447D01*
X3170647Y-3546841D01*
X3171477Y-3533460D01*
X3171691Y-3530006D01*
X3171691Y-3530006D01*
X3171730Y-3529374D01*
X3170544Y-3522470D01*
X3260784Y-3522470D01*
X3261238Y-3523866D01*
X3261692Y-3524196D01*
X3559058Y-3524196D01*
X3560454Y-3523742D01*
X3560784Y-3523288D01*
X3560784Y-3495561D01*
X3560746Y-3494919D01*
X3560569Y-3493435D01*
X3560141Y-3491876D01*
X3556345Y-3483329D01*
X3555224Y-3481698D01*
X3548027Y-3474514D01*
X3548130Y-3474410D01*
X3544668Y-3469914D01*
X3544480Y-3463181D01*
X3545873Y-3460202D01*
X3549074Y-3455412D01*
X3549074Y-3455412D01*
X3549671Y-3454519D01*
X3550834Y-3448671D01*
X3550834Y-3370721D01*
X3550661Y-3369850D01*
X3549880Y-3365926D01*
X3549671Y-3364873D01*
X3545872Y-3359188D01*
X3544044Y-3352705D01*
X3546375Y-3346384D01*
X3548762Y-3344149D01*
X3548782Y-3344135D01*
X3555255Y-3337651D01*
X3556373Y-3336018D01*
X3560154Y-3327467D01*
X3560580Y-3325903D01*
X3560747Y-3324468D01*
X3560784Y-3323837D01*
X3560784Y-3296922D01*
X3560330Y-3295526D01*
X3559876Y-3295196D01*
X3262510Y-3295196D01*
X3261114Y-3295650D01*
X3260784Y-3296104D01*
X3260784Y-3323831D01*
X3260822Y-3324473D01*
X3260999Y-3325957D01*
X3261427Y-3327516D01*
X3265223Y-3336063D01*
X3266344Y-3337694D01*
X3273541Y-3344878D01*
X3273438Y-3344982D01*
X3276900Y-3349477D01*
X3277088Y-3356211D01*
X3275695Y-3359190D01*
X3271897Y-3364873D01*
X3271688Y-3365926D01*
X3270907Y-3369850D01*
X3270734Y-3370721D01*
X3270734Y-3448671D01*
X3271897Y-3454519D01*
X3272494Y-3455412D01*
X3272494Y-3455412D01*
X3275696Y-3460204D01*
X3277524Y-3466687D01*
X3275193Y-3473007D01*
X3272806Y-3475243D01*
X3272786Y-3475257D01*
X3266313Y-3481741D01*
X3265195Y-3483374D01*
X3261414Y-3491925D01*
X3260988Y-3493489D01*
X3260821Y-3494924D01*
X3260784Y-3495555D01*
X3260784Y-3522470D01*
X3170544Y-3522470D01*
X3168767Y-3512126D01*
X3164708Y-3502588D01*
X3162163Y-3496605D01*
X3162162Y-3496605D01*
X3161915Y-3496023D01*
X3151542Y-3481928D01*
X3138204Y-3470597D01*
X3137640Y-3470309D01*
X3137640Y-3470309D01*
X3123182Y-3462926D01*
X3123182Y-3462926D01*
X3122618Y-3462638D01*
X3122004Y-3462488D01*
X3122003Y-3462488D01*
X3106091Y-3458594D01*
X3106091Y-3458594D01*
X3105619Y-3458478D01*
X3105135Y-3458448D01*
X3105135Y-3458448D01*
X3104836Y-3458430D01*
X3104515Y-3458410D01*
X3091898Y-3458410D01*
X3082298Y-3459529D01*
X3079526Y-3459852D01*
X3079526Y-3459852D01*
X3078897Y-3459926D01*
X3078303Y-3460141D01*
X3078302Y-3460142D01*
X3068564Y-3463676D01*
X3062447Y-3465897D01*
X3055278Y-3470597D01*
X3049147Y-3474617D01*
X3047811Y-3475492D01*
X3035776Y-3488197D01*
X3026986Y-3503330D01*
X3026802Y-3503937D01*
X3026802Y-3503937D01*
X3022363Y-3518595D01*
X3021913Y-3520079D01*
X3021874Y-3520711D01*
X3020921Y-3536078D01*
X3020830Y-3537546D01*
X2966490Y-3537546D01*
X2966347Y-3533888D01*
X2966347Y-3533032D01*
X2966666Y-3524899D01*
X2968255Y-3484462D01*
X2968322Y-3483609D01*
X2969570Y-3473070D01*
X2974035Y-3435340D01*
X2974169Y-3434495D01*
X2974307Y-3433803D01*
X2983519Y-3387488D01*
X2983652Y-3386821D01*
X2983852Y-3385989D01*
X2995417Y-3344982D01*
X2997046Y-3339207D01*
X2997310Y-3338393D01*
X2999267Y-3333089D01*
X3009963Y-3304095D01*
X3014134Y-3292791D01*
X3014461Y-3292000D01*
X3033555Y-3250582D01*
X3111739Y-3250582D01*
X3113598Y-3264798D01*
X3119372Y-3277920D01*
X3119871Y-3278514D01*
X3119871Y-3278515D01*
X3127573Y-3287676D01*
X3128597Y-3288895D01*
X3140531Y-3296839D01*
X3141272Y-3297070D01*
X3153475Y-3300883D01*
X3153475Y-3300883D01*
X3154216Y-3301114D01*
X3161973Y-3301256D01*
X3167774Y-3301363D01*
X3167774Y-3301363D01*
X3168550Y-3301377D01*
X3182382Y-3297606D01*
X3194599Y-3290104D01*
X3199024Y-3285216D01*
X3203699Y-3280051D01*
X3204220Y-3279475D01*
X3209552Y-3268470D01*
X3260784Y-3268470D01*
X3261238Y-3269866D01*
X3261692Y-3270196D01*
X3396558Y-3270196D01*
X3397954Y-3269742D01*
X3398284Y-3269288D01*
X3398284Y-3268470D01*
X3423284Y-3268470D01*
X3423738Y-3269866D01*
X3424192Y-3270196D01*
X3559058Y-3270196D01*
X3560454Y-3269742D01*
X3560784Y-3269288D01*
X3560784Y-3241561D01*
X3560746Y-3240919D01*
X3560569Y-3239435D01*
X3560141Y-3237876D01*
X3556345Y-3229329D01*
X3555224Y-3227698D01*
X3548739Y-3221225D01*
X3547106Y-3220107D01*
X3538555Y-3216326D01*
X3536991Y-3215900D01*
X3535556Y-3215733D01*
X3534925Y-3215696D01*
X3425010Y-3215696D01*
X3423614Y-3216150D01*
X3423284Y-3216604D01*
X3423284Y-3268470D01*
X3398284Y-3268470D01*
X3398284Y-3217422D01*
X3397830Y-3216026D01*
X3397376Y-3215696D01*
X3286649Y-3215696D01*
X3286007Y-3215734D01*
X3284523Y-3215911D01*
X3282964Y-3216339D01*
X3274417Y-3220135D01*
X3272786Y-3221256D01*
X3266313Y-3227741D01*
X3265195Y-3229374D01*
X3261414Y-3237925D01*
X3260988Y-3239489D01*
X3260821Y-3240924D01*
X3260784Y-3241555D01*
X3260784Y-3268470D01*
X3209552Y-3268470D01*
X3210471Y-3266573D01*
X3212121Y-3256764D01*
X3212780Y-3252851D01*
X3212780Y-3252851D01*
X3212850Y-3252435D01*
X3212865Y-3251200D01*
X3210832Y-3237008D01*
X3204898Y-3223957D01*
X3195540Y-3213096D01*
X3183509Y-3205298D01*
X3180211Y-3204312D01*
X3170518Y-3201413D01*
X3170518Y-3201413D01*
X3169774Y-3201191D01*
X3162606Y-3201147D01*
X3156214Y-3201108D01*
X3156214Y-3201108D01*
X3155438Y-3201103D01*
X3154691Y-3201316D01*
X3154691Y-3201316D01*
X3142399Y-3204829D01*
X3142399Y-3204829D01*
X3141653Y-3205043D01*
X3140996Y-3205457D01*
X3135323Y-3209037D01*
X3129528Y-3212693D01*
X3120038Y-3223439D01*
X3119708Y-3224142D01*
X3119708Y-3224142D01*
X3114275Y-3235713D01*
X3114275Y-3235713D01*
X3113945Y-3236416D01*
X3113825Y-3237184D01*
X3111991Y-3248967D01*
X3111739Y-3250582D01*
X3033555Y-3250582D01*
X3034811Y-3247857D01*
X3035200Y-3247095D01*
X3058950Y-3204685D01*
X3059397Y-3203956D01*
X3081529Y-3170833D01*
X3086402Y-3163540D01*
X3086905Y-3162848D01*
X3091755Y-3156695D01*
X3104335Y-3140739D01*
X3116997Y-3124677D01*
X3117553Y-3124026D01*
X3150547Y-3088333D01*
X3151153Y-3087727D01*
X3186846Y-3054733D01*
X3187497Y-3054177D01*
X3212545Y-3034430D01*
X3225668Y-3024085D01*
X3226360Y-3023582D01*
X3226388Y-3023563D01*
X3245779Y-3010607D01*
X3266776Y-2996577D01*
X3267505Y-2996130D01*
X3309915Y-2972380D01*
X3310677Y-2971991D01*
X3354820Y-2951641D01*
X3355611Y-2951314D01*
X3390585Y-2938411D01*
X3401213Y-2934490D01*
X3402027Y-2934226D01*
X3448809Y-2921032D01*
X3449641Y-2920832D01*
X3470253Y-2916732D01*
X3497316Y-2911349D01*
X3498160Y-2911215D01*
X3544329Y-2905751D01*
X3546429Y-2905502D01*
X3547282Y-2905435D01*
X3579615Y-2904165D01*
X3592881Y-2903643D01*
X3594003Y-2903749D01*
X3595047Y-2903750D01*
X3596244Y-2904026D01*
X3597442Y-2903755D01*
X3597549Y-2903755D01*
X3599740Y-2903510D01*
X3723198Y-2903510D01*
X3729605Y-2905592D01*
G37*
G04 #@! TD.AperFunction*
G04 #@! TA.AperFunction,Conductor*
G36*
X4559148Y-2905592D02*
G01*
X4563107Y-2911042D01*
X4563107Y-2917778D01*
X4559906Y-2922624D01*
X4558156Y-2924151D01*
X4558155Y-2924151D01*
X4557660Y-2924583D01*
X4556271Y-2926560D01*
X4548433Y-2937712D01*
X4547911Y-2938455D01*
X4541752Y-2954251D01*
X4541667Y-2954902D01*
X4541667Y-2954903D01*
X4539706Y-2969796D01*
X4539539Y-2971061D01*
X4541400Y-2987913D01*
X4541626Y-2988531D01*
X4541626Y-2988531D01*
X4546694Y-3002380D01*
X4547227Y-3003836D01*
X4556683Y-3017908D01*
X4557169Y-3018350D01*
X4557169Y-3018350D01*
X4568731Y-3028871D01*
X4569223Y-3029319D01*
X4569801Y-3029633D01*
X4583546Y-3037096D01*
X4583547Y-3037096D01*
X4584124Y-3037409D01*
X4584759Y-3037576D01*
X4584759Y-3037576D01*
X4593000Y-3039738D01*
X4600523Y-3041712D01*
X4607578Y-3041822D01*
X4616819Y-3041968D01*
X4616819Y-3041968D01*
X4617476Y-3041978D01*
X4618116Y-3041831D01*
X4618117Y-3041831D01*
X4626704Y-3039865D01*
X4634003Y-3038193D01*
X4639956Y-3035199D01*
X4646559Y-3034170D01*
X4647353Y-3034296D01*
X4647353Y-3034296D01*
X4648200Y-3034430D01*
X4649047Y-3034296D01*
X4660665Y-3032456D01*
X4660665Y-3032456D01*
X4661513Y-3032322D01*
X4672021Y-3026967D01*
X4672758Y-3026592D01*
X4672758Y-3026592D01*
X4673522Y-3026203D01*
X4683053Y-3016672D01*
X4689172Y-3004663D01*
X4689306Y-3003815D01*
X4689306Y-3003815D01*
X4690471Y-2996461D01*
X4742739Y-2996461D01*
X4744600Y-3013313D01*
X4744826Y-3013931D01*
X4744826Y-3013931D01*
X4749692Y-3027227D01*
X4750427Y-3029236D01*
X4759883Y-3043308D01*
X4760369Y-3043750D01*
X4760369Y-3043750D01*
X4771828Y-3054177D01*
X4772423Y-3054719D01*
X4773001Y-3055033D01*
X4786746Y-3062496D01*
X4786747Y-3062496D01*
X4787324Y-3062809D01*
X4787959Y-3062976D01*
X4787959Y-3062976D01*
X4799756Y-3066071D01*
X4803723Y-3067112D01*
X4810778Y-3067222D01*
X4820019Y-3067368D01*
X4820019Y-3067368D01*
X4820676Y-3067378D01*
X4821316Y-3067231D01*
X4821317Y-3067231D01*
X4832300Y-3064716D01*
X4837203Y-3063593D01*
X4845267Y-3059537D01*
X4851763Y-3056270D01*
X4851763Y-3056270D01*
X4852350Y-3055975D01*
X4861687Y-3048000D01*
X4864743Y-3045390D01*
X4864743Y-3045390D01*
X4865242Y-3044963D01*
X4872811Y-3034430D01*
X4874753Y-3031728D01*
X4875136Y-3031195D01*
X4876455Y-3027914D01*
X4881215Y-3016073D01*
X4881215Y-3016072D01*
X4881460Y-3015463D01*
X4883849Y-2998678D01*
X4883865Y-2997200D01*
X4881828Y-2980368D01*
X4881595Y-2979753D01*
X4881595Y-2979753D01*
X4876067Y-2965122D01*
X4875835Y-2964508D01*
X4867684Y-2952648D01*
X4866603Y-2951076D01*
X4866603Y-2951076D01*
X4866231Y-2950535D01*
X4865741Y-2950098D01*
X4865741Y-2950098D01*
X4854063Y-2939693D01*
X4854063Y-2939693D01*
X4853572Y-2939256D01*
X4838588Y-2931322D01*
X4837951Y-2931162D01*
X4837951Y-2931162D01*
X4822781Y-2927352D01*
X4822781Y-2927352D01*
X4822144Y-2927192D01*
X4813615Y-2927147D01*
X4805846Y-2927106D01*
X4805846Y-2927106D01*
X4805190Y-2927103D01*
X4788703Y-2931061D01*
X4788119Y-2931363D01*
X4788119Y-2931363D01*
X4781169Y-2934950D01*
X4773637Y-2938837D01*
X4773142Y-2939269D01*
X4773142Y-2939269D01*
X4768816Y-2943043D01*
X4760860Y-2949983D01*
X4759695Y-2951641D01*
X4752993Y-2961178D01*
X4751111Y-2963855D01*
X4744952Y-2979651D01*
X4744867Y-2980302D01*
X4744867Y-2980303D01*
X4742825Y-2995810D01*
X4742739Y-2996461D01*
X4690471Y-2996461D01*
X4691146Y-2992197D01*
X4691280Y-2991350D01*
X4690658Y-2987419D01*
X4689306Y-2978885D01*
X4689306Y-2978885D01*
X4689172Y-2978037D01*
X4684564Y-2968994D01*
X4683442Y-2966792D01*
X4683442Y-2966792D01*
X4683053Y-2966028D01*
X4682202Y-2965178D01*
X4682067Y-2964899D01*
X4681942Y-2964727D01*
X4681973Y-2964705D01*
X4679089Y-2958779D01*
X4678888Y-2957121D01*
X4678628Y-2954968D01*
X4672635Y-2939108D01*
X4667583Y-2931757D01*
X4663403Y-2925676D01*
X4663403Y-2925676D01*
X4663031Y-2925135D01*
X4660128Y-2922548D01*
X4656729Y-2916732D01*
X4657398Y-2910029D01*
X4661880Y-2904999D01*
X4667379Y-2903510D01*
X4969505Y-2903510D01*
X4975912Y-2905592D01*
X4979871Y-2911042D01*
X4979748Y-2918138D01*
X4976560Y-2926897D01*
X4976275Y-2928075D01*
X4974178Y-2944671D01*
X4974161Y-2945882D01*
X4975794Y-2962532D01*
X4976045Y-2963716D01*
X4981326Y-2979590D01*
X4981834Y-2980690D01*
X4988785Y-2992167D01*
X4989839Y-2993077D01*
X4990755Y-2992567D01*
X5046893Y-2936430D01*
X5052895Y-2933371D01*
X5059549Y-2934425D01*
X5062308Y-2936430D01*
X5118146Y-2992268D01*
X5118900Y-2992653D01*
X5122296Y-2995351D01*
X5128347Y-3002550D01*
X5128348Y-3002551D01*
X5128847Y-3003145D01*
X5140781Y-3011089D01*
X5141522Y-3011320D01*
X5153725Y-3015133D01*
X5153725Y-3015133D01*
X5154466Y-3015364D01*
X5162124Y-3015505D01*
X5168024Y-3015613D01*
X5168024Y-3015613D01*
X5168800Y-3015627D01*
X5182632Y-3011856D01*
X5194849Y-3004354D01*
X5197006Y-3001971D01*
X5203949Y-2994301D01*
X5204470Y-2993725D01*
X5204809Y-2993026D01*
X5205243Y-2992383D01*
X5205389Y-2992481D01*
X5209418Y-2988288D01*
X5216049Y-2987101D01*
X5217811Y-2987494D01*
X5224146Y-2989474D01*
X5224146Y-2989474D01*
X5224887Y-2989705D01*
X5227736Y-2989757D01*
X5234104Y-2991956D01*
X5237963Y-2997478D01*
X5238370Y-2999459D01*
X5239900Y-3013313D01*
X5240126Y-3013931D01*
X5240126Y-3013931D01*
X5244992Y-3027227D01*
X5245727Y-3029236D01*
X5255183Y-3043308D01*
X5255669Y-3043750D01*
X5255669Y-3043750D01*
X5267128Y-3054177D01*
X5267723Y-3054719D01*
X5268301Y-3055033D01*
X5276501Y-3059485D01*
X5281138Y-3064371D01*
X5282200Y-3069064D01*
X5282200Y-3254638D01*
X5281991Y-3256764D01*
X5281683Y-3258312D01*
X5281892Y-3259365D01*
X5282200Y-3260912D01*
X5283732Y-3268613D01*
X5283424Y-3268674D01*
X5283896Y-3272620D01*
X5282619Y-3280818D01*
X5282423Y-3282078D01*
X5284282Y-3296294D01*
X5290056Y-3309416D01*
X5290253Y-3309651D01*
X5291819Y-3315980D01*
X5289285Y-3322222D01*
X5283565Y-3325782D01*
X5277824Y-3325644D01*
X5265002Y-3321809D01*
X5265002Y-3321809D01*
X5264258Y-3321587D01*
X5257090Y-3321543D01*
X5250698Y-3321504D01*
X5250698Y-3321504D01*
X5249922Y-3321499D01*
X5249175Y-3321712D01*
X5249175Y-3321712D01*
X5236883Y-3325225D01*
X5236883Y-3325225D01*
X5236137Y-3325439D01*
X5226296Y-3331648D01*
X5224968Y-3332486D01*
X5218439Y-3334144D01*
X5212182Y-3331648D01*
X5208587Y-3325951D01*
X5209028Y-3319228D01*
X5211070Y-3315953D01*
X5218958Y-3307239D01*
X5219479Y-3306663D01*
X5225730Y-3293761D01*
X5227696Y-3282078D01*
X5228039Y-3280038D01*
X5228039Y-3280038D01*
X5228109Y-3279623D01*
X5228124Y-3278387D01*
X5226091Y-3264196D01*
X5220157Y-3251145D01*
X5210799Y-3240284D01*
X5198769Y-3232486D01*
X5192610Y-3230644D01*
X5185777Y-3228601D01*
X5185777Y-3228601D01*
X5185033Y-3228378D01*
X5177865Y-3228334D01*
X5171473Y-3228295D01*
X5171473Y-3228295D01*
X5170697Y-3228291D01*
X5169950Y-3228504D01*
X5169950Y-3228504D01*
X5157658Y-3232017D01*
X5157658Y-3232017D01*
X5156912Y-3232230D01*
X5156255Y-3232645D01*
X5145493Y-3239435D01*
X5144787Y-3239880D01*
X5135297Y-3250626D01*
X5134967Y-3251329D01*
X5134967Y-3251329D01*
X5129534Y-3262901D01*
X5129534Y-3262901D01*
X5129204Y-3263604D01*
X5129084Y-3264371D01*
X5127174Y-3276640D01*
X5126998Y-3277770D01*
X5128857Y-3291985D01*
X5134631Y-3305108D01*
X5135130Y-3305702D01*
X5135131Y-3305702D01*
X5143357Y-3315488D01*
X5143856Y-3316082D01*
X5144502Y-3316512D01*
X5144503Y-3316513D01*
X5146299Y-3317708D01*
X5150479Y-3322991D01*
X5151159Y-3326782D01*
X5151159Y-3642849D01*
X5149077Y-3649255D01*
X5147885Y-3650543D01*
X5147812Y-3650589D01*
X5147298Y-3651171D01*
X5147298Y-3651171D01*
X5140374Y-3659011D01*
X5134572Y-3662436D01*
X5132204Y-3662696D01*
X4841358Y-3662696D01*
X4839232Y-3662487D01*
X4838737Y-3662388D01*
X4838737Y-3662388D01*
X4837684Y-3662179D01*
X4836631Y-3662388D01*
X4828436Y-3664018D01*
X4828436Y-3664018D01*
X4827383Y-3664228D01*
X4820855Y-3668590D01*
X4820855Y-3668590D01*
X4818651Y-3670063D01*
X4818054Y-3670955D01*
X4817775Y-3671374D01*
X4816419Y-3673026D01*
X4682598Y-3806847D01*
X4568562Y-3920883D01*
X4562559Y-3923941D01*
X4555906Y-3922887D01*
X4551142Y-3918124D01*
X4550089Y-3914881D01*
X4549606Y-3911835D01*
X4549472Y-3910987D01*
X4544514Y-3901257D01*
X4543742Y-3899742D01*
X4543742Y-3899742D01*
X4543353Y-3898978D01*
X4536176Y-3891801D01*
X4533117Y-3885798D01*
X4534171Y-3879145D01*
X4538935Y-3874381D01*
X4545424Y-3871075D01*
X4545424Y-3871075D01*
X4546188Y-3870685D01*
X4555719Y-3861154D01*
X4556997Y-3858646D01*
X4558005Y-3856668D01*
X4561838Y-3849145D01*
X4561972Y-3848298D01*
X4561972Y-3848297D01*
X4563812Y-3836680D01*
X4563947Y-3835832D01*
X4562892Y-3829173D01*
X4561972Y-3823367D01*
X4561972Y-3823367D01*
X4561838Y-3822520D01*
X4557113Y-3813247D01*
X4556108Y-3811274D01*
X4556108Y-3811274D01*
X4555719Y-3810510D01*
X4546188Y-3800980D01*
X4545406Y-3800581D01*
X4541076Y-3798375D01*
X4534179Y-3794861D01*
X4533332Y-3794726D01*
X4533331Y-3794726D01*
X4521714Y-3792886D01*
X4520866Y-3792752D01*
X4520019Y-3792886D01*
X4519770Y-3792886D01*
X4513363Y-3790805D01*
X4512063Y-3789694D01*
X4496995Y-3774626D01*
X4495640Y-3772975D01*
X4495360Y-3772555D01*
X4494763Y-3771663D01*
X4486031Y-3765828D01*
X4481442Y-3764915D01*
X4475730Y-3763779D01*
X4474677Y-3763988D01*
X4474677Y-3763988D01*
X4474182Y-3764087D01*
X4472056Y-3764296D01*
X4422258Y-3764296D01*
X4420132Y-3764087D01*
X4419637Y-3763988D01*
X4419637Y-3763988D01*
X4418584Y-3763779D01*
X4412871Y-3764915D01*
X4408283Y-3765828D01*
X4399551Y-3771663D01*
X4398954Y-3772555D01*
X4398674Y-3772974D01*
X4397319Y-3774626D01*
X4309241Y-3862703D01*
X4303239Y-3865762D01*
X4301534Y-3865896D01*
X3935635Y-3865896D01*
X3929228Y-3863814D01*
X3925269Y-3858364D01*
X3925269Y-3851628D01*
X3929579Y-3845933D01*
X3934346Y-3842748D01*
X3935239Y-3842151D01*
X3936137Y-3840808D01*
X3939074Y-3836412D01*
X3939074Y-3836412D01*
X3939671Y-3835519D01*
X3940282Y-3832446D01*
X3940730Y-3830195D01*
X3940730Y-3830195D01*
X3940834Y-3829671D01*
X3940834Y-3803456D01*
X3942916Y-3797049D01*
X3944026Y-3795748D01*
X3996433Y-3743342D01*
X4208623Y-3743342D01*
X4208724Y-3744112D01*
X4208810Y-3744774D01*
X4210482Y-3757558D01*
X4216256Y-3770680D01*
X4216755Y-3771274D01*
X4216756Y-3771275D01*
X4224982Y-3781061D01*
X4225481Y-3781655D01*
X4237415Y-3789599D01*
X4238156Y-3789830D01*
X4250359Y-3793643D01*
X4250359Y-3793643D01*
X4251100Y-3793874D01*
X4258858Y-3794016D01*
X4264658Y-3794123D01*
X4264658Y-3794123D01*
X4265434Y-3794137D01*
X4279266Y-3790366D01*
X4291483Y-3782864D01*
X4301104Y-3772235D01*
X4307355Y-3759333D01*
X4309443Y-3746926D01*
X4309664Y-3745611D01*
X4309664Y-3745611D01*
X4309734Y-3745195D01*
X4309749Y-3743960D01*
X4307716Y-3729768D01*
X4301782Y-3716717D01*
X4292424Y-3705856D01*
X4280394Y-3698058D01*
X4276225Y-3696812D01*
X4267402Y-3694173D01*
X4267402Y-3694173D01*
X4266658Y-3693951D01*
X4259490Y-3693907D01*
X4253098Y-3693868D01*
X4253098Y-3693868D01*
X4252322Y-3693863D01*
X4251575Y-3694076D01*
X4251575Y-3694076D01*
X4239283Y-3697589D01*
X4239283Y-3697589D01*
X4238537Y-3697803D01*
X4237880Y-3698217D01*
X4227398Y-3704831D01*
X4226412Y-3705453D01*
X4216922Y-3716199D01*
X4216592Y-3716902D01*
X4216592Y-3716902D01*
X4211159Y-3728473D01*
X4211159Y-3728473D01*
X4210829Y-3729176D01*
X4210709Y-3729944D01*
X4209477Y-3737861D01*
X4208623Y-3743342D01*
X3996433Y-3743342D01*
X4211687Y-3528088D01*
X4211722Y-3528060D01*
X4952704Y-3528060D01*
X4952838Y-3528907D01*
X4954678Y-3540525D01*
X4954678Y-3540525D01*
X4954812Y-3541372D01*
X4960931Y-3553382D01*
X4970462Y-3562912D01*
X4971226Y-3563302D01*
X4971226Y-3563302D01*
X4972491Y-3563946D01*
X4982471Y-3569031D01*
X4983319Y-3569166D01*
X4983319Y-3569166D01*
X4994937Y-3571006D01*
X4995784Y-3571140D01*
X4996631Y-3571006D01*
X5008249Y-3569166D01*
X5008249Y-3569166D01*
X5009097Y-3569031D01*
X5019077Y-3563946D01*
X5020342Y-3563302D01*
X5020342Y-3563302D01*
X5021106Y-3562912D01*
X5030637Y-3553382D01*
X5036756Y-3541372D01*
X5036890Y-3540525D01*
X5036890Y-3540525D01*
X5038730Y-3528907D01*
X5038864Y-3528060D01*
X5038253Y-3524196D01*
X5036890Y-3515595D01*
X5036890Y-3515594D01*
X5036756Y-3514747D01*
X5031727Y-3504877D01*
X5031026Y-3503502D01*
X5031026Y-3503501D01*
X5030637Y-3502738D01*
X5021106Y-3493207D01*
X5009097Y-3487088D01*
X5008249Y-3486953D01*
X5008249Y-3486953D01*
X4996631Y-3485113D01*
X4995784Y-3484979D01*
X4994937Y-3485113D01*
X4983319Y-3486953D01*
X4983319Y-3486953D01*
X4982471Y-3487088D01*
X4970462Y-3493207D01*
X4960931Y-3502738D01*
X4960542Y-3503501D01*
X4960542Y-3503502D01*
X4959841Y-3504877D01*
X4954812Y-3514747D01*
X4954678Y-3515594D01*
X4954678Y-3515595D01*
X4953316Y-3524196D01*
X4952704Y-3528060D01*
X4211722Y-3528060D01*
X4213339Y-3526732D01*
X4213854Y-3526388D01*
X4213854Y-3526388D01*
X4214746Y-3525792D01*
X4220836Y-3516679D01*
X4222434Y-3508643D01*
X4222434Y-3508643D01*
X4222974Y-3505929D01*
X4222643Y-3504269D01*
X4222434Y-3502142D01*
X4222434Y-3358930D01*
X4224516Y-3352523D01*
X4225627Y-3351222D01*
X4229737Y-3347112D01*
X4235856Y-3335102D01*
X4235990Y-3334255D01*
X4235990Y-3334255D01*
X4237830Y-3322637D01*
X4237964Y-3321790D01*
X4237015Y-3315793D01*
X4235990Y-3309325D01*
X4235990Y-3309324D01*
X4235856Y-3308477D01*
X4230553Y-3298069D01*
X4230126Y-3297232D01*
X4230126Y-3297232D01*
X4229737Y-3296468D01*
X4220206Y-3286937D01*
X4220387Y-3286756D01*
X4217165Y-3282320D01*
X4217165Y-3275583D01*
X4221125Y-3270133D01*
X4222583Y-3269240D01*
X4223442Y-3268802D01*
X4223442Y-3268802D01*
X4224206Y-3268413D01*
X4233737Y-3258882D01*
X4239856Y-3246872D01*
X4239990Y-3246025D01*
X4239990Y-3246025D01*
X4241830Y-3234407D01*
X4241965Y-3233560D01*
X4240559Y-3224687D01*
X4241613Y-3218033D01*
X4245269Y-3213919D01*
X4248225Y-3211943D01*
X4250444Y-3210461D01*
X4250444Y-3210461D01*
X4251122Y-3210008D01*
X4251122Y-3210008D01*
X4252529Y-3209068D01*
X4253422Y-3208471D01*
X4254363Y-3207064D01*
X4255718Y-3205412D01*
X4282591Y-3178539D01*
X4284243Y-3177183D01*
X4284758Y-3176839D01*
X4284758Y-3176839D01*
X4285650Y-3176243D01*
X4287646Y-3173256D01*
X4291740Y-3167130D01*
X4292259Y-3164519D01*
X4293338Y-3159094D01*
X4293338Y-3159093D01*
X4293878Y-3156380D01*
X4293547Y-3154720D01*
X4293338Y-3152594D01*
X4293338Y-3140739D01*
X4294786Y-3136282D01*
X4927839Y-3136282D01*
X4929698Y-3150498D01*
X4935472Y-3163620D01*
X4935971Y-3164214D01*
X4935972Y-3164215D01*
X4940891Y-3170067D01*
X4944697Y-3174595D01*
X4956631Y-3182539D01*
X4957372Y-3182770D01*
X4969575Y-3186583D01*
X4969575Y-3186583D01*
X4970316Y-3186814D01*
X4978074Y-3186956D01*
X4983874Y-3187063D01*
X4983874Y-3187063D01*
X4984650Y-3187077D01*
X4998482Y-3183306D01*
X5010699Y-3175804D01*
X5020320Y-3165175D01*
X5026571Y-3152273D01*
X5028950Y-3138135D01*
X5028965Y-3136900D01*
X5026932Y-3122708D01*
X5024215Y-3116731D01*
X5021320Y-3110364D01*
X5021320Y-3110364D01*
X5020998Y-3109657D01*
X5021053Y-3109632D01*
X5019494Y-3103644D01*
X5021952Y-3097372D01*
X5027627Y-3093743D01*
X5033625Y-3093887D01*
X5045775Y-3097683D01*
X5045775Y-3097683D01*
X5046516Y-3097914D01*
X5054274Y-3098056D01*
X5060074Y-3098163D01*
X5060074Y-3098163D01*
X5060850Y-3098177D01*
X5074682Y-3094406D01*
X5086899Y-3086904D01*
X5089667Y-3083847D01*
X5092763Y-3080426D01*
X5096520Y-3076275D01*
X5102771Y-3063373D01*
X5104818Y-3051206D01*
X5105080Y-3049651D01*
X5105080Y-3049651D01*
X5105150Y-3049235D01*
X5105165Y-3048000D01*
X5103132Y-3033808D01*
X5102518Y-3032456D01*
X5098653Y-3023957D01*
X5097897Y-3017263D01*
X5100375Y-3012266D01*
X5101306Y-3011202D01*
X5100789Y-3010267D01*
X5055821Y-2965298D01*
X5054512Y-2964632D01*
X5053958Y-2964719D01*
X5008713Y-3009965D01*
X5008053Y-3011261D01*
X5008810Y-3012105D01*
X5011540Y-3018264D01*
X5010564Y-3024017D01*
X5006575Y-3032513D01*
X5006575Y-3032513D01*
X5006245Y-3033216D01*
X5006125Y-3033984D01*
X5004326Y-3045538D01*
X5004039Y-3047382D01*
X5005898Y-3061598D01*
X5011672Y-3074720D01*
X5011869Y-3074955D01*
X5013435Y-3081284D01*
X5010901Y-3087526D01*
X5005181Y-3091086D01*
X4999440Y-3090948D01*
X4986618Y-3087113D01*
X4986618Y-3087113D01*
X4985874Y-3086891D01*
X4978706Y-3086847D01*
X4972314Y-3086808D01*
X4972314Y-3086808D01*
X4971538Y-3086803D01*
X4970791Y-3087016D01*
X4970791Y-3087016D01*
X4958499Y-3090529D01*
X4958499Y-3090529D01*
X4957753Y-3090743D01*
X4957096Y-3091157D01*
X4946364Y-3097928D01*
X4945628Y-3098393D01*
X4936138Y-3109139D01*
X4935808Y-3109842D01*
X4935808Y-3109842D01*
X4930375Y-3121413D01*
X4930375Y-3121413D01*
X4930045Y-3122116D01*
X4929925Y-3122884D01*
X4928143Y-3134332D01*
X4927839Y-3136282D01*
X4294786Y-3136282D01*
X4295420Y-3134332D01*
X4296531Y-3133031D01*
X4300641Y-3128921D01*
X4301320Y-3127589D01*
X4303277Y-3123747D01*
X4306760Y-3116912D01*
X4306894Y-3116064D01*
X4306894Y-3116064D01*
X4308734Y-3104446D01*
X4308868Y-3103599D01*
X4308108Y-3098796D01*
X4306894Y-3091134D01*
X4306894Y-3091134D01*
X4306760Y-3090286D01*
X4302207Y-3081351D01*
X4301030Y-3079041D01*
X4301030Y-3079041D01*
X4300641Y-3078277D01*
X4295554Y-3073190D01*
X4292496Y-3067188D01*
X4293550Y-3060534D01*
X4298313Y-3055771D01*
X4301557Y-3054717D01*
X4309749Y-3053420D01*
X4309749Y-3053420D01*
X4310597Y-3053285D01*
X4322606Y-3047166D01*
X4332137Y-3037635D01*
X4332658Y-3036613D01*
X4336899Y-3028289D01*
X4338256Y-3025626D01*
X4338367Y-3024927D01*
X4342282Y-3019538D01*
X4348689Y-3017457D01*
X4352448Y-3018359D01*
X4352495Y-3018213D01*
X4353311Y-3018478D01*
X4354075Y-3018868D01*
X4354923Y-3019002D01*
X4354923Y-3019002D01*
X4366541Y-3020842D01*
X4367388Y-3020976D01*
X4368235Y-3020842D01*
X4379853Y-3019002D01*
X4379853Y-3019002D01*
X4380701Y-3018868D01*
X4390390Y-3013931D01*
X4391946Y-3013138D01*
X4391946Y-3013138D01*
X4392710Y-3012749D01*
X4402241Y-3003218D01*
X4403062Y-3001607D01*
X4404736Y-2998321D01*
X4408360Y-2991209D01*
X4408494Y-2990361D01*
X4408494Y-2990361D01*
X4410334Y-2978743D01*
X4410468Y-2977896D01*
X4409626Y-2972578D01*
X4408494Y-2965431D01*
X4408494Y-2965431D01*
X4408360Y-2964583D01*
X4402241Y-2952574D01*
X4392710Y-2943043D01*
X4391843Y-2942601D01*
X4389348Y-2941330D01*
X4380701Y-2936924D01*
X4379853Y-2936790D01*
X4379853Y-2936790D01*
X4368235Y-2934950D01*
X4367388Y-2934816D01*
X4367394Y-2934779D01*
X4361512Y-2932868D01*
X4360211Y-2931757D01*
X4350571Y-2922117D01*
X4347513Y-2916115D01*
X4348567Y-2909461D01*
X4353330Y-2904698D01*
X4358279Y-2903510D01*
X4552741Y-2903510D01*
X4559148Y-2905592D01*
G37*
G04 #@! TD.AperFunction*
G04 #@! TA.AperFunction,Conductor*
G36*
X6093013Y-3787228D02*
G01*
X6096973Y-3792678D01*
X6096973Y-3799414D01*
X6094314Y-3803753D01*
X5996810Y-3901257D01*
X5990807Y-3904316D01*
X5989102Y-3904450D01*
X5476384Y-3904450D01*
X5469977Y-3902368D01*
X5466018Y-3896918D01*
X5465884Y-3891795D01*
X5465660Y-3891763D01*
X5465878Y-3890231D01*
X5468049Y-3874978D01*
X5468065Y-3873500D01*
X5466028Y-3856668D01*
X5465795Y-3856053D01*
X5465795Y-3856053D01*
X5460768Y-3842748D01*
X5460035Y-3840808D01*
X5459662Y-3840266D01*
X5459662Y-3840266D01*
X5452519Y-3829872D01*
X5450605Y-3823413D01*
X5452854Y-3817062D01*
X5458406Y-3813247D01*
X5461502Y-3812798D01*
X5895596Y-3812798D01*
X5902003Y-3814880D01*
X5905963Y-3820330D01*
X5906404Y-3822285D01*
X5906481Y-3822873D01*
X5906481Y-3822874D01*
X5906582Y-3823644D01*
X5912356Y-3836766D01*
X5912855Y-3837360D01*
X5912855Y-3837361D01*
X5918793Y-3844425D01*
X5921581Y-3847741D01*
X5933515Y-3855685D01*
X5934256Y-3855916D01*
X5946459Y-3859729D01*
X5946459Y-3859729D01*
X5947200Y-3859960D01*
X5954957Y-3860102D01*
X5960758Y-3860209D01*
X5960758Y-3860209D01*
X5961534Y-3860223D01*
X5975366Y-3856452D01*
X5987583Y-3848950D01*
X5988673Y-3847746D01*
X5996683Y-3838897D01*
X5997204Y-3838321D01*
X6003455Y-3825419D01*
X6005228Y-3814880D01*
X6005764Y-3811697D01*
X6005764Y-3811697D01*
X6005834Y-3811281D01*
X6005849Y-3810046D01*
X6005188Y-3805431D01*
X6004065Y-3797591D01*
X6005217Y-3790954D01*
X6010051Y-3786262D01*
X6014855Y-3785146D01*
X6086606Y-3785146D01*
X6093013Y-3787228D01*
G37*
G04 #@! TD.AperFunction*
G04 #@! TA.AperFunction,Conductor*
G36*
X6471168Y-2905592D02*
G01*
X6475127Y-2911042D01*
X6475127Y-2917778D01*
X6474628Y-2919042D01*
X6472155Y-2924309D01*
X6472155Y-2924309D01*
X6471825Y-2925012D01*
X6469619Y-2939178D01*
X6469710Y-2939873D01*
X6467561Y-2946221D01*
X6466529Y-2947414D01*
X6404226Y-3009717D01*
X6398223Y-3012776D01*
X6396518Y-3012910D01*
X6286177Y-3012910D01*
X6285227Y-3012868D01*
X6282349Y-3012617D01*
X6282349Y-3012617D01*
X6281399Y-3012534D01*
X6277686Y-3013529D01*
X6276759Y-3013734D01*
X6274145Y-3014195D01*
X6272975Y-3014401D01*
X6272150Y-3014878D01*
X6271682Y-3015048D01*
X6271233Y-3015258D01*
X6270312Y-3015505D01*
X6268644Y-3016672D01*
X6267164Y-3017708D01*
X6266363Y-3018219D01*
X6263034Y-3020141D01*
X6262421Y-3020871D01*
X6262421Y-3020871D01*
X6260564Y-3023084D01*
X6259922Y-3023785D01*
X6221587Y-3062120D01*
X6215585Y-3065178D01*
X6211224Y-3064984D01*
X6208768Y-3064367D01*
X6205124Y-3063452D01*
X6196700Y-3063408D01*
X6188826Y-3063366D01*
X6188826Y-3063366D01*
X6188169Y-3063363D01*
X6171683Y-3067321D01*
X6171099Y-3067623D01*
X6171099Y-3067623D01*
X6164978Y-3070782D01*
X6156617Y-3075097D01*
X6156122Y-3075529D01*
X6156122Y-3075529D01*
X6145746Y-3084581D01*
X6143840Y-3086243D01*
X6143229Y-3087113D01*
X6134892Y-3098975D01*
X6134091Y-3100115D01*
X6127932Y-3115911D01*
X6127847Y-3116562D01*
X6127847Y-3116563D01*
X6125867Y-3131601D01*
X6125719Y-3132721D01*
X6127580Y-3149573D01*
X6127806Y-3150191D01*
X6127806Y-3150191D01*
X6131064Y-3159093D01*
X6133407Y-3165496D01*
X6142863Y-3179568D01*
X6143349Y-3180010D01*
X6143349Y-3180010D01*
X6153853Y-3189569D01*
X6155403Y-3190979D01*
X6155981Y-3191293D01*
X6169726Y-3198756D01*
X6169726Y-3198756D01*
X6170303Y-3199069D01*
X6170939Y-3199236D01*
X6170939Y-3199236D01*
X6178870Y-3201316D01*
X6186703Y-3203372D01*
X6193758Y-3203482D01*
X6202999Y-3203628D01*
X6202999Y-3203628D01*
X6203656Y-3203638D01*
X6204296Y-3203491D01*
X6204297Y-3203491D01*
X6214724Y-3201103D01*
X6220183Y-3199853D01*
X6228392Y-3195724D01*
X6234742Y-3192530D01*
X6234743Y-3192530D01*
X6235330Y-3192235D01*
X6248222Y-3181223D01*
X6248329Y-3181075D01*
X6254037Y-3177859D01*
X6260729Y-3178634D01*
X6264847Y-3182258D01*
X6264939Y-3182180D01*
X6272761Y-3191486D01*
X6275290Y-3197729D01*
X6275317Y-3198499D01*
X6275317Y-3319050D01*
X6275276Y-3320000D01*
X6275039Y-3322708D01*
X6274941Y-3323828D01*
X6275936Y-3327542D01*
X6276141Y-3328468D01*
X6276643Y-3331313D01*
X6276808Y-3332252D01*
X6277285Y-3333078D01*
X6277455Y-3333545D01*
X6277665Y-3333995D01*
X6277912Y-3334916D01*
X6279464Y-3337133D01*
X6280116Y-3338063D01*
X6280626Y-3338864D01*
X6282548Y-3342193D01*
X6283278Y-3342806D01*
X6283279Y-3342806D01*
X6285491Y-3344663D01*
X6286193Y-3345305D01*
X6380020Y-3439133D01*
X6383078Y-3445135D01*
X6382024Y-3451789D01*
X6380020Y-3454547D01*
X6250085Y-3584482D01*
X6117714Y-3716853D01*
X6111711Y-3719912D01*
X6110006Y-3720046D01*
X5414482Y-3720046D01*
X5408075Y-3717964D01*
X5406774Y-3716853D01*
X5386732Y-3696812D01*
X5383674Y-3690809D01*
X5383563Y-3689813D01*
X5383544Y-3689516D01*
X5383549Y-3689096D01*
X5383460Y-3688478D01*
X5381949Y-3677922D01*
X5381516Y-3674904D01*
X5375582Y-3661853D01*
X5366224Y-3650992D01*
X5354194Y-3643194D01*
X5350617Y-3642125D01*
X5341202Y-3639309D01*
X5341202Y-3639309D01*
X5340458Y-3639087D01*
X5333290Y-3639043D01*
X5326898Y-3639004D01*
X5326898Y-3639004D01*
X5326122Y-3638999D01*
X5325375Y-3639212D01*
X5325375Y-3639212D01*
X5313083Y-3642725D01*
X5313083Y-3642725D01*
X5312337Y-3642939D01*
X5311680Y-3643353D01*
X5300935Y-3650133D01*
X5300212Y-3650589D01*
X5290722Y-3661335D01*
X5290392Y-3662038D01*
X5290392Y-3662038D01*
X5284959Y-3673609D01*
X5284959Y-3673609D01*
X5284629Y-3674312D01*
X5284509Y-3675080D01*
X5282826Y-3685893D01*
X5282423Y-3688478D01*
X5284282Y-3702694D01*
X5290056Y-3715816D01*
X5290555Y-3716410D01*
X5290556Y-3716411D01*
X5298782Y-3726197D01*
X5299281Y-3726791D01*
X5311215Y-3734735D01*
X5316094Y-3736259D01*
X5323887Y-3738694D01*
X5329382Y-3742591D01*
X5331536Y-3748974D01*
X5329527Y-3755404D01*
X5324123Y-3759426D01*
X5320637Y-3759998D01*
X5293336Y-3759998D01*
X5286929Y-3757916D01*
X5285629Y-3756805D01*
X5233382Y-3704559D01*
X5230324Y-3698557D01*
X5230341Y-3695043D01*
X5231064Y-3690747D01*
X5231064Y-3690747D01*
X5231134Y-3690331D01*
X5231149Y-3689096D01*
X5229116Y-3674904D01*
X5223182Y-3661853D01*
X5213824Y-3650992D01*
X5208930Y-3647820D01*
X5204686Y-3642589D01*
X5203959Y-3638674D01*
X5203959Y-3601432D01*
X5474758Y-3601432D01*
X5476616Y-3615648D01*
X5482390Y-3628770D01*
X5482890Y-3629364D01*
X5482890Y-3629364D01*
X5489950Y-3637763D01*
X5491615Y-3639745D01*
X5503550Y-3647689D01*
X5504291Y-3647920D01*
X5516493Y-3651732D01*
X5516493Y-3651732D01*
X5517234Y-3651964D01*
X5524992Y-3652106D01*
X5530792Y-3652213D01*
X5530793Y-3652213D01*
X5531568Y-3652227D01*
X5540434Y-3649810D01*
X5547163Y-3650133D01*
X5552348Y-3654246D01*
X5559983Y-3665608D01*
X5560469Y-3666050D01*
X5560469Y-3666050D01*
X5572037Y-3676577D01*
X5572523Y-3677019D01*
X5573101Y-3677333D01*
X5586846Y-3684796D01*
X5586847Y-3684796D01*
X5587424Y-3685109D01*
X5588059Y-3685276D01*
X5588059Y-3685276D01*
X5600266Y-3688478D01*
X5603823Y-3689412D01*
X5610878Y-3689522D01*
X5620119Y-3689668D01*
X5620119Y-3689668D01*
X5620776Y-3689678D01*
X5621416Y-3689531D01*
X5621417Y-3689531D01*
X5630003Y-3687565D01*
X5637303Y-3685893D01*
X5644650Y-3682198D01*
X5651862Y-3678570D01*
X5651863Y-3678570D01*
X5652450Y-3678275D01*
X5665342Y-3667263D01*
X5674389Y-3654673D01*
X5674853Y-3654028D01*
X5675236Y-3653495D01*
X5675591Y-3652612D01*
X5681315Y-3638373D01*
X5681315Y-3638372D01*
X5681560Y-3637763D01*
X5683949Y-3620978D01*
X5683956Y-3620287D01*
X5683961Y-3619857D01*
X5683961Y-3619857D01*
X5683964Y-3619500D01*
X5681928Y-3602668D01*
X5681695Y-3602053D01*
X5681695Y-3602053D01*
X5676167Y-3587422D01*
X5675934Y-3586808D01*
X5666331Y-3572835D01*
X5666448Y-3572755D01*
X5666152Y-3572070D01*
X5664701Y-3571383D01*
X5654163Y-3561993D01*
X5654162Y-3561993D01*
X5653672Y-3561556D01*
X5638688Y-3553622D01*
X5638051Y-3553462D01*
X5638051Y-3553462D01*
X5622881Y-3549652D01*
X5622881Y-3549652D01*
X5622244Y-3549492D01*
X5613714Y-3549447D01*
X5605946Y-3549406D01*
X5605946Y-3549406D01*
X5605289Y-3549403D01*
X5588803Y-3553361D01*
X5588219Y-3553663D01*
X5588219Y-3553663D01*
X5583899Y-3555893D01*
X5573737Y-3561137D01*
X5571615Y-3562989D01*
X5565418Y-3565632D01*
X5558521Y-3563922D01*
X5546528Y-3556148D01*
X5543948Y-3555377D01*
X5533536Y-3552263D01*
X5533536Y-3552263D01*
X5532792Y-3552040D01*
X5525624Y-3551997D01*
X5519233Y-3551958D01*
X5519232Y-3551958D01*
X5518456Y-3551953D01*
X5517709Y-3552166D01*
X5517709Y-3552166D01*
X5505418Y-3555679D01*
X5505418Y-3555679D01*
X5504671Y-3555893D01*
X5504015Y-3556307D01*
X5493433Y-3562983D01*
X5492546Y-3563543D01*
X5483056Y-3574289D01*
X5482726Y-3574991D01*
X5482726Y-3574992D01*
X5477293Y-3586563D01*
X5477293Y-3586563D01*
X5476963Y-3587266D01*
X5476844Y-3588034D01*
X5475144Y-3598947D01*
X5474758Y-3601432D01*
X5203959Y-3601432D01*
X5203959Y-3416413D01*
X5206041Y-3410006D01*
X5211491Y-3406047D01*
X5218227Y-3406047D01*
X5222124Y-3408288D01*
X5222582Y-3408696D01*
X5223081Y-3409291D01*
X5235015Y-3417235D01*
X5235756Y-3417466D01*
X5247959Y-3421279D01*
X5247959Y-3421279D01*
X5248700Y-3421510D01*
X5256458Y-3421652D01*
X5262258Y-3421759D01*
X5262258Y-3421759D01*
X5263034Y-3421773D01*
X5276866Y-3418002D01*
X5289083Y-3410500D01*
X5293853Y-3405231D01*
X5299695Y-3401878D01*
X5301934Y-3401646D01*
X5521254Y-3401646D01*
X5527661Y-3403728D01*
X5528961Y-3404838D01*
X5679660Y-3555537D01*
X5680601Y-3557385D01*
X5682614Y-3558491D01*
X5771278Y-3647155D01*
X5771513Y-3647427D01*
X5771737Y-3647887D01*
X5772475Y-3648571D01*
X5775350Y-3651238D01*
X5775644Y-3651521D01*
X5777008Y-3652885D01*
X5777388Y-3653146D01*
X5777734Y-3653449D01*
X5779945Y-3655500D01*
X5780879Y-3655873D01*
X5780879Y-3655873D01*
X5780910Y-3655885D01*
X5783037Y-3657021D01*
X5783065Y-3657040D01*
X5783065Y-3657040D01*
X5783895Y-3657609D01*
X5784873Y-3657841D01*
X5786415Y-3658207D01*
X5787936Y-3658688D01*
X5790342Y-3659648D01*
X5790971Y-3659710D01*
X5791471Y-3659710D01*
X5793488Y-3659946D01*
X5793807Y-3659962D01*
X5794787Y-3660194D01*
X5795784Y-3660058D01*
X5795784Y-3660058D01*
X5797611Y-3659810D01*
X5799081Y-3659710D01*
X5799740Y-3659710D01*
X5806147Y-3661792D01*
X5807448Y-3662902D01*
X5809058Y-3664513D01*
X5821067Y-3670632D01*
X5821915Y-3670766D01*
X5821915Y-3670766D01*
X5833533Y-3672606D01*
X5834380Y-3672740D01*
X5835227Y-3672606D01*
X5846845Y-3670766D01*
X5846845Y-3670766D01*
X5847693Y-3670632D01*
X5859702Y-3664513D01*
X5869233Y-3654982D01*
X5870014Y-3653449D01*
X5871162Y-3651196D01*
X5875352Y-3642973D01*
X5875486Y-3642125D01*
X5875486Y-3642125D01*
X5877326Y-3630507D01*
X5877460Y-3629660D01*
X5876336Y-3622561D01*
X5875486Y-3617195D01*
X5875486Y-3617195D01*
X5875352Y-3616347D01*
X5873269Y-3612260D01*
X6075400Y-3612260D01*
X6075534Y-3613107D01*
X6077374Y-3624725D01*
X6077374Y-3624725D01*
X6077508Y-3625573D01*
X6080999Y-3632425D01*
X6082162Y-3634706D01*
X6083627Y-3637582D01*
X6093158Y-3647113D01*
X6093922Y-3647502D01*
X6093922Y-3647502D01*
X6094743Y-3647920D01*
X6105167Y-3653232D01*
X6106015Y-3653366D01*
X6106015Y-3653366D01*
X6117633Y-3655206D01*
X6118480Y-3655340D01*
X6119327Y-3655206D01*
X6130945Y-3653366D01*
X6130945Y-3653366D01*
X6131793Y-3653232D01*
X6142217Y-3647920D01*
X6143038Y-3647502D01*
X6143038Y-3647502D01*
X6143802Y-3647113D01*
X6153333Y-3637582D01*
X6154798Y-3634706D01*
X6155960Y-3632425D01*
X6159452Y-3625573D01*
X6159586Y-3624725D01*
X6159586Y-3624725D01*
X6161426Y-3613107D01*
X6161560Y-3612260D01*
X6160965Y-3608499D01*
X6159586Y-3599795D01*
X6159586Y-3599795D01*
X6159452Y-3598947D01*
X6153951Y-3588151D01*
X6153722Y-3587702D01*
X6153722Y-3587702D01*
X6153333Y-3586938D01*
X6143802Y-3577407D01*
X6131793Y-3571288D01*
X6130945Y-3571154D01*
X6130945Y-3571154D01*
X6119327Y-3569314D01*
X6118480Y-3569180D01*
X6117633Y-3569314D01*
X6106015Y-3571154D01*
X6106015Y-3571154D01*
X6105167Y-3571288D01*
X6093158Y-3577407D01*
X6083627Y-3586938D01*
X6083238Y-3587702D01*
X6083238Y-3587702D01*
X6083009Y-3588151D01*
X6077508Y-3598947D01*
X6077374Y-3599795D01*
X6077374Y-3599795D01*
X6075995Y-3608499D01*
X6075400Y-3612260D01*
X5873269Y-3612260D01*
X5870586Y-3606994D01*
X5869622Y-3605102D01*
X5869622Y-3605102D01*
X5869233Y-3604338D01*
X5859702Y-3594807D01*
X5858115Y-3593998D01*
X5855146Y-3592486D01*
X5847693Y-3588688D01*
X5846845Y-3588554D01*
X5846845Y-3588554D01*
X5835227Y-3586714D01*
X5834380Y-3586580D01*
X5833533Y-3586714D01*
X5821915Y-3588554D01*
X5821915Y-3588554D01*
X5821067Y-3588688D01*
X5818600Y-3589945D01*
X5812713Y-3592945D01*
X5806060Y-3593998D01*
X5800057Y-3590940D01*
X5707438Y-3498321D01*
X6149733Y-3498321D01*
X6150365Y-3499026D01*
X6159471Y-3504985D01*
X6160553Y-3505531D01*
X6176233Y-3511362D01*
X6177408Y-3511655D01*
X6193990Y-3513868D01*
X6195201Y-3513893D01*
X6211861Y-3512377D01*
X6213048Y-3512133D01*
X6228958Y-3506964D01*
X6230061Y-3506464D01*
X6242077Y-3499301D01*
X6242986Y-3498262D01*
X6242469Y-3497327D01*
X6197501Y-3452358D01*
X6196192Y-3451692D01*
X6195638Y-3451779D01*
X6150393Y-3497025D01*
X6149733Y-3498321D01*
X5707438Y-3498321D01*
X5563218Y-3354101D01*
X5562983Y-3353829D01*
X5562759Y-3353369D01*
X5559146Y-3350018D01*
X5558852Y-3349734D01*
X5557488Y-3348371D01*
X5557108Y-3348110D01*
X5556762Y-3347806D01*
X5555289Y-3346440D01*
X5554551Y-3345756D01*
X5553586Y-3345371D01*
X5551459Y-3344235D01*
X5551431Y-3344216D01*
X5551431Y-3344216D01*
X5550601Y-3343647D01*
X5548081Y-3343049D01*
X5546560Y-3342567D01*
X5544154Y-3341608D01*
X5543525Y-3341546D01*
X5543025Y-3341546D01*
X5541008Y-3341310D01*
X5540689Y-3341294D01*
X5539709Y-3341062D01*
X5538712Y-3341198D01*
X5538712Y-3341198D01*
X5536885Y-3341446D01*
X5535415Y-3341546D01*
X5509150Y-3341546D01*
X5502743Y-3339464D01*
X5500911Y-3336942D01*
X6063219Y-3336942D01*
X6065078Y-3351158D01*
X6070852Y-3364280D01*
X6071351Y-3364874D01*
X6071351Y-3364875D01*
X6079577Y-3374661D01*
X6080077Y-3375255D01*
X6092011Y-3383199D01*
X6092752Y-3383430D01*
X6104955Y-3387243D01*
X6104955Y-3387243D01*
X6105696Y-3387474D01*
X6112467Y-3387598D01*
X6118834Y-3389797D01*
X6122693Y-3395319D01*
X6122510Y-3402224D01*
X6118239Y-3413957D01*
X6117955Y-3415135D01*
X6115858Y-3431731D01*
X6115841Y-3432942D01*
X6117474Y-3449592D01*
X6117725Y-3450776D01*
X6123006Y-3466650D01*
X6123514Y-3467750D01*
X6130465Y-3479227D01*
X6131519Y-3480137D01*
X6132435Y-3479627D01*
X6178515Y-3433548D01*
X6214512Y-3433548D01*
X6214599Y-3434102D01*
X6259826Y-3479329D01*
X6261133Y-3479994D01*
X6261825Y-3479378D01*
X6267547Y-3470766D01*
X6268100Y-3469690D01*
X6274040Y-3454051D01*
X6274342Y-3452877D01*
X6276707Y-3436048D01*
X6276760Y-3435365D01*
X6276781Y-3433803D01*
X6276748Y-3433120D01*
X6274853Y-3416229D01*
X6274585Y-3415049D01*
X6269083Y-3399250D01*
X6268560Y-3398157D01*
X6262053Y-3387744D01*
X6260966Y-3386832D01*
X6260089Y-3387328D01*
X6215178Y-3432239D01*
X6214512Y-3433548D01*
X6178515Y-3433548D01*
X6242213Y-3369850D01*
X6242862Y-3368575D01*
X6242197Y-3367844D01*
X6232086Y-3361428D01*
X6230997Y-3360897D01*
X6215238Y-3355285D01*
X6214058Y-3355009D01*
X6197447Y-3353028D01*
X6196236Y-3353019D01*
X6179599Y-3354768D01*
X6178415Y-3355028D01*
X6177869Y-3355214D01*
X6171133Y-3355308D01*
X6165628Y-3351425D01*
X6163457Y-3345048D01*
X6163607Y-3343087D01*
X6163758Y-3342193D01*
X6164330Y-3338795D01*
X6164345Y-3337560D01*
X6162312Y-3323368D01*
X6156378Y-3310317D01*
X6147020Y-3299456D01*
X6134989Y-3291658D01*
X6128142Y-3289611D01*
X6121998Y-3287773D01*
X6121998Y-3287773D01*
X6121254Y-3287551D01*
X6114086Y-3287507D01*
X6107694Y-3287468D01*
X6107694Y-3287468D01*
X6106918Y-3287463D01*
X6106171Y-3287676D01*
X6106171Y-3287676D01*
X6093879Y-3291189D01*
X6093879Y-3291189D01*
X6093133Y-3291403D01*
X6092476Y-3291817D01*
X6083301Y-3297606D01*
X6081008Y-3299053D01*
X6071518Y-3309799D01*
X6071188Y-3310502D01*
X6071188Y-3310502D01*
X6065755Y-3322073D01*
X6065755Y-3322073D01*
X6065425Y-3322776D01*
X6065305Y-3323544D01*
X6063655Y-3334144D01*
X6063219Y-3336942D01*
X5500911Y-3336942D01*
X5498784Y-3334014D01*
X5498784Y-3327278D01*
X5500298Y-3324285D01*
X5500625Y-3323831D01*
X5510136Y-3310595D01*
X5512103Y-3305702D01*
X5516215Y-3295473D01*
X5516215Y-3295472D01*
X5516460Y-3294863D01*
X5518849Y-3278078D01*
X5518865Y-3276600D01*
X5517082Y-3261869D01*
X5518379Y-3255259D01*
X5523314Y-3250673D01*
X5527903Y-3249660D01*
X5529390Y-3249660D01*
X5535797Y-3251742D01*
X5537098Y-3252852D01*
X5542358Y-3258113D01*
X5554367Y-3264232D01*
X5555215Y-3264366D01*
X5555215Y-3264366D01*
X5566833Y-3266206D01*
X5567680Y-3266340D01*
X5568527Y-3266206D01*
X5580145Y-3264366D01*
X5580145Y-3264366D01*
X5580993Y-3264232D01*
X5593002Y-3258113D01*
X5594612Y-3256502D01*
X5600615Y-3253444D01*
X5602320Y-3253310D01*
X5879872Y-3253310D01*
X5880230Y-3253336D01*
X5880714Y-3253502D01*
X5885637Y-3253318D01*
X5886046Y-3253310D01*
X5887975Y-3253310D01*
X5888429Y-3253225D01*
X5888886Y-3253196D01*
X5889832Y-3253160D01*
X5890895Y-3253120D01*
X5890895Y-3253120D01*
X5891901Y-3253083D01*
X5892856Y-3252672D01*
X5895162Y-3251971D01*
X5896185Y-3251781D01*
X5897217Y-3251145D01*
X5898390Y-3250422D01*
X5899807Y-3249686D01*
X5900442Y-3249413D01*
X5902186Y-3248664D01*
X5902675Y-3248262D01*
X5903028Y-3247909D01*
X5904622Y-3246649D01*
X5904858Y-3246435D01*
X5905715Y-3245907D01*
X5907440Y-3243638D01*
X5908409Y-3242528D01*
X6085183Y-3065754D01*
X6091185Y-3062696D01*
X6101693Y-3061032D01*
X6112018Y-3055771D01*
X6112938Y-3055302D01*
X6112938Y-3055302D01*
X6113702Y-3054913D01*
X6123233Y-3045382D01*
X6124064Y-3043750D01*
X6125842Y-3040260D01*
X6129352Y-3033373D01*
X6129486Y-3032525D01*
X6129486Y-3032525D01*
X6131326Y-3020907D01*
X6131460Y-3020060D01*
X6130758Y-3015627D01*
X6129486Y-3007595D01*
X6129486Y-3007595D01*
X6129352Y-3006747D01*
X6124669Y-2997557D01*
X6123622Y-2995502D01*
X6123622Y-2995502D01*
X6123233Y-2994738D01*
X6113702Y-2985207D01*
X6111459Y-2984064D01*
X6109310Y-2982969D01*
X6101693Y-2979088D01*
X6100845Y-2978954D01*
X6100845Y-2978954D01*
X6089227Y-2977114D01*
X6088380Y-2976980D01*
X6087533Y-2977114D01*
X6075915Y-2978954D01*
X6075915Y-2978954D01*
X6075067Y-2979088D01*
X6067450Y-2982969D01*
X6065301Y-2984064D01*
X6063058Y-2985207D01*
X6053527Y-2994738D01*
X6053138Y-2995502D01*
X6053138Y-2995502D01*
X6048420Y-3004761D01*
X6047408Y-3006747D01*
X6047373Y-3006968D01*
X6043602Y-3012158D01*
X6037195Y-3014240D01*
X6030788Y-3012158D01*
X6026829Y-3006708D01*
X6026404Y-3001804D01*
X6026799Y-2999031D01*
X6026799Y-2999030D01*
X6026849Y-2998678D01*
X6026864Y-2997200D01*
X6024828Y-2980368D01*
X6024595Y-2979753D01*
X6024595Y-2979753D01*
X6019067Y-2965122D01*
X6018834Y-2964508D01*
X6010684Y-2952648D01*
X6009603Y-2951076D01*
X6009603Y-2951076D01*
X6009231Y-2950535D01*
X6008741Y-2950098D01*
X6008741Y-2950098D01*
X5997063Y-2939693D01*
X5997062Y-2939693D01*
X5996572Y-2939256D01*
X5981588Y-2931322D01*
X5980951Y-2931162D01*
X5980951Y-2931162D01*
X5965781Y-2927352D01*
X5965781Y-2927352D01*
X5965144Y-2927192D01*
X5956614Y-2927147D01*
X5948846Y-2927106D01*
X5948846Y-2927106D01*
X5948189Y-2927103D01*
X5943374Y-2928259D01*
X5938409Y-2929451D01*
X5931693Y-2928923D01*
X5928157Y-2926560D01*
X5923715Y-2922117D01*
X5920656Y-2916115D01*
X5921710Y-2909461D01*
X5926474Y-2904698D01*
X5931422Y-2903510D01*
X6464761Y-2903510D01*
X6471168Y-2905592D01*
G37*
G04 #@! TD.AperFunction*
G04 #@! TA.AperFunction,Conductor*
G36*
X4163771Y-3258811D02*
G01*
X4165071Y-3259922D01*
X4173562Y-3268413D01*
X4173381Y-3268594D01*
X4176603Y-3273030D01*
X4176603Y-3279766D01*
X4172643Y-3285216D01*
X4171185Y-3286110D01*
X4170326Y-3286548D01*
X4170326Y-3286548D01*
X4169562Y-3286937D01*
X4160031Y-3296468D01*
X4159642Y-3297232D01*
X4159642Y-3297232D01*
X4159215Y-3298069D01*
X4153912Y-3308477D01*
X4153778Y-3309324D01*
X4153778Y-3309325D01*
X4152753Y-3315793D01*
X4151804Y-3321790D01*
X4151938Y-3322637D01*
X4153778Y-3334255D01*
X4153778Y-3334255D01*
X4153912Y-3335102D01*
X4160031Y-3347112D01*
X4164141Y-3351222D01*
X4167200Y-3357224D01*
X4167334Y-3358930D01*
X4167334Y-3490003D01*
X4165252Y-3496410D01*
X4164141Y-3497710D01*
X3959441Y-3702410D01*
X3953439Y-3705469D01*
X3946785Y-3704415D01*
X3942022Y-3699651D01*
X3940834Y-3694703D01*
X3940834Y-3650123D01*
X3942916Y-3643716D01*
X3944026Y-3642415D01*
X4067087Y-3519354D01*
X4068739Y-3517999D01*
X4069253Y-3517655D01*
X4069254Y-3517655D01*
X4070146Y-3517058D01*
X4071691Y-3514747D01*
X4076236Y-3507945D01*
X4076530Y-3506464D01*
X4078164Y-3498249D01*
X4078374Y-3497196D01*
X4078043Y-3495535D01*
X4077834Y-3493409D01*
X4077834Y-3311323D01*
X4079916Y-3304916D01*
X4081026Y-3303615D01*
X4124720Y-3259922D01*
X4130722Y-3256864D01*
X4132427Y-3256729D01*
X4157364Y-3256729D01*
X4163771Y-3258811D01*
G37*
G04 #@! TD.AperFunction*
G04 #@! TA.AperFunction,Conductor*
G36*
X6585805Y-2974428D02*
G01*
X6587106Y-2975538D01*
X6619057Y-3007490D01*
X6622116Y-3013493D01*
X6622250Y-3015198D01*
X6622250Y-3233202D01*
X6620168Y-3239609D01*
X6619057Y-3240910D01*
X6556925Y-3303042D01*
X6556224Y-3303685D01*
X6553281Y-3306154D01*
X6551359Y-3309483D01*
X6550849Y-3310284D01*
X6548645Y-3313432D01*
X6548398Y-3314353D01*
X6548188Y-3314802D01*
X6548018Y-3315270D01*
X6547541Y-3316095D01*
X6547376Y-3317035D01*
X6546874Y-3319879D01*
X6546669Y-3320806D01*
X6545674Y-3324519D01*
X6545757Y-3325469D01*
X6545757Y-3325469D01*
X6546008Y-3328347D01*
X6546050Y-3329297D01*
X6546050Y-3371757D01*
X6543968Y-3378163D01*
X6538518Y-3382123D01*
X6531782Y-3382123D01*
X6530050Y-3381298D01*
X6530046Y-3381307D01*
X6529341Y-3380981D01*
X6528689Y-3380558D01*
X6527116Y-3380088D01*
X6515698Y-3376673D01*
X6515698Y-3376673D01*
X6514954Y-3376451D01*
X6507786Y-3376407D01*
X6501394Y-3376368D01*
X6501394Y-3376368D01*
X6500618Y-3376363D01*
X6499871Y-3376576D01*
X6499871Y-3376576D01*
X6487579Y-3380089D01*
X6487579Y-3380089D01*
X6486833Y-3380303D01*
X6486176Y-3380717D01*
X6475444Y-3387488D01*
X6474708Y-3387953D01*
X6474194Y-3388535D01*
X6472701Y-3390225D01*
X6466900Y-3393650D01*
X6464531Y-3393910D01*
X6431377Y-3393910D01*
X6424970Y-3391828D01*
X6423670Y-3390717D01*
X6343610Y-3310657D01*
X6340551Y-3304655D01*
X6340417Y-3302950D01*
X6340417Y-3198288D01*
X6342499Y-3191881D01*
X6343236Y-3190973D01*
X6346763Y-3187077D01*
X6349787Y-3183735D01*
X6356038Y-3170833D01*
X6358417Y-3156695D01*
X6358432Y-3155460D01*
X6356400Y-3141268D01*
X6350466Y-3128217D01*
X6341107Y-3117356D01*
X6329077Y-3109558D01*
X6325095Y-3108368D01*
X6316085Y-3105673D01*
X6316085Y-3105673D01*
X6315341Y-3105451D01*
X6308173Y-3105407D01*
X6301782Y-3105368D01*
X6301781Y-3105368D01*
X6301005Y-3105363D01*
X6300258Y-3105577D01*
X6300258Y-3105577D01*
X6298618Y-3106045D01*
X6291886Y-3105804D01*
X6286581Y-3101652D01*
X6284730Y-3095175D01*
X6287039Y-3088847D01*
X6287915Y-3087857D01*
X6294570Y-3081202D01*
X6300572Y-3078144D01*
X6302278Y-3078010D01*
X6412619Y-3078010D01*
X6413569Y-3078051D01*
X6416446Y-3078303D01*
X6416447Y-3078303D01*
X6417397Y-3078386D01*
X6421110Y-3077391D01*
X6422037Y-3077186D01*
X6424881Y-3076684D01*
X6425820Y-3076519D01*
X6426646Y-3076042D01*
X6427114Y-3075872D01*
X6427563Y-3075662D01*
X6428484Y-3075415D01*
X6431632Y-3073211D01*
X6432433Y-3072701D01*
X6435761Y-3070779D01*
X6436374Y-3070049D01*
X6436375Y-3070049D01*
X6438232Y-3067836D01*
X6438874Y-3067135D01*
X6512947Y-2993061D01*
X6518949Y-2990003D01*
X6520854Y-2989871D01*
X6525654Y-2989959D01*
X6525654Y-2989959D01*
X6526430Y-2989973D01*
X6540262Y-2986202D01*
X6552479Y-2978700D01*
X6553000Y-2978125D01*
X6553000Y-2978125D01*
X6554986Y-2975931D01*
X6560829Y-2972578D01*
X6563067Y-2972346D01*
X6579398Y-2972346D01*
X6585805Y-2974428D01*
G37*
G04 #@! TD.AperFunction*
G04 #@! TA.AperFunction,Conductor*
G36*
X5524345Y-2905592D02*
G01*
X5528305Y-2911042D01*
X5528305Y-2917778D01*
X5523994Y-2923473D01*
X5521507Y-2925135D01*
X5518167Y-2927367D01*
X5517452Y-2928437D01*
X5517290Y-2928678D01*
X5515935Y-2930330D01*
X5457009Y-2989256D01*
X5455357Y-2990611D01*
X5454046Y-2991488D01*
X5453449Y-2992380D01*
X5453267Y-2992653D01*
X5452573Y-2993692D01*
X5448211Y-3000220D01*
X5447726Y-3002659D01*
X5446920Y-3006708D01*
X5446162Y-3010521D01*
X5446371Y-3011574D01*
X5446371Y-3011574D01*
X5446470Y-3012069D01*
X5446679Y-3014195D01*
X5446679Y-3174229D01*
X5446470Y-3176356D01*
X5446373Y-3176839D01*
X5446162Y-3177903D01*
X5446679Y-3180503D01*
X5448211Y-3188204D01*
X5448807Y-3189096D01*
X5448807Y-3189096D01*
X5449123Y-3189569D01*
X5450951Y-3196052D01*
X5448620Y-3202373D01*
X5443019Y-3206115D01*
X5441313Y-3206452D01*
X5440846Y-3206506D01*
X5440190Y-3206503D01*
X5423703Y-3210461D01*
X5423119Y-3210763D01*
X5423119Y-3210763D01*
X5417458Y-3213684D01*
X5408637Y-3218237D01*
X5408142Y-3218669D01*
X5408142Y-3218669D01*
X5397107Y-3228295D01*
X5395860Y-3229383D01*
X5395482Y-3229921D01*
X5386619Y-3242533D01*
X5386111Y-3243255D01*
X5385873Y-3243867D01*
X5385597Y-3244380D01*
X5380735Y-3249043D01*
X5374061Y-3249957D01*
X5367734Y-3246344D01*
X5367458Y-3246025D01*
X5366224Y-3244592D01*
X5354194Y-3236794D01*
X5346211Y-3234407D01*
X5342777Y-3233380D01*
X5337235Y-3229550D01*
X5335000Y-3222937D01*
X5335000Y-3069056D01*
X5337082Y-3062649D01*
X5341002Y-3059318D01*
X5347063Y-3056270D01*
X5347063Y-3056270D01*
X5347650Y-3055975D01*
X5356987Y-3048000D01*
X5360043Y-3045390D01*
X5360043Y-3045390D01*
X5360542Y-3044963D01*
X5368111Y-3034430D01*
X5370053Y-3031728D01*
X5370436Y-3031195D01*
X5371755Y-3027914D01*
X5376515Y-3016073D01*
X5376515Y-3016072D01*
X5376760Y-3015463D01*
X5379149Y-2998678D01*
X5379165Y-2997200D01*
X5377128Y-2980368D01*
X5376895Y-2979753D01*
X5376895Y-2979753D01*
X5371367Y-2965122D01*
X5371135Y-2964508D01*
X5362984Y-2952648D01*
X5361903Y-2951076D01*
X5361903Y-2951076D01*
X5361531Y-2950535D01*
X5361041Y-2950098D01*
X5361041Y-2950098D01*
X5349363Y-2939693D01*
X5349363Y-2939693D01*
X5348872Y-2939256D01*
X5333888Y-2931322D01*
X5333251Y-2931162D01*
X5333251Y-2931162D01*
X5318081Y-2927352D01*
X5318081Y-2927352D01*
X5317444Y-2927192D01*
X5308915Y-2927147D01*
X5301146Y-2927106D01*
X5301146Y-2927106D01*
X5300490Y-2927103D01*
X5299851Y-2927256D01*
X5299851Y-2927256D01*
X5298204Y-2927652D01*
X5292733Y-2928965D01*
X5286017Y-2928437D01*
X5280895Y-2924062D01*
X5280266Y-2922878D01*
X5278467Y-2918921D01*
X5277710Y-2912227D01*
X5281033Y-2906367D01*
X5287165Y-2903579D01*
X5288390Y-2903510D01*
X5517938Y-2903510D01*
X5524345Y-2905592D01*
G37*
G04 #@! TD.AperFunction*
G04 #@! TA.AperFunction,Conductor*
G36*
X5790146Y-2905592D02*
G01*
X5794106Y-2911042D01*
X5794163Y-2917597D01*
X5793975Y-2918213D01*
X5793645Y-2918916D01*
X5792676Y-2925135D01*
X5791625Y-2931887D01*
X5791439Y-2933082D01*
X5793298Y-2947298D01*
X5793611Y-2948009D01*
X5793611Y-2948009D01*
X5795738Y-2952844D01*
X5796169Y-2957121D01*
X5798812Y-2959830D01*
X5799072Y-2960420D01*
X5800834Y-2962516D01*
X5807533Y-2970486D01*
X5808297Y-2971395D01*
X5820231Y-2979339D01*
X5820972Y-2979570D01*
X5833175Y-2983383D01*
X5833175Y-2983383D01*
X5833916Y-2983614D01*
X5841673Y-2983756D01*
X5847474Y-2983863D01*
X5847474Y-2983863D01*
X5848250Y-2983877D01*
X5862082Y-2980106D01*
X5870666Y-2974835D01*
X5877215Y-2973257D01*
X5883441Y-2975829D01*
X5886966Y-2981570D01*
X5887176Y-2985547D01*
X5885866Y-2995502D01*
X5885739Y-2996461D01*
X5887600Y-3013313D01*
X5887826Y-3013931D01*
X5887826Y-3013931D01*
X5892692Y-3027227D01*
X5893427Y-3029236D01*
X5893793Y-3029781D01*
X5893793Y-3029781D01*
X5893808Y-3029803D01*
X5893812Y-3029819D01*
X5894091Y-3030367D01*
X5893984Y-3030422D01*
X5895468Y-3035632D01*
X5896138Y-3035738D01*
X5900237Y-3039371D01*
X5901989Y-3041978D01*
X5902883Y-3043308D01*
X5903369Y-3043750D01*
X5903369Y-3043750D01*
X5914827Y-3054177D01*
X5915423Y-3054719D01*
X5916001Y-3055033D01*
X5929746Y-3062496D01*
X5929746Y-3062496D01*
X5930323Y-3062809D01*
X5930959Y-3062976D01*
X5930959Y-3062976D01*
X5942756Y-3066071D01*
X5946723Y-3067112D01*
X5953778Y-3067222D01*
X5963019Y-3067368D01*
X5963019Y-3067368D01*
X5963676Y-3067378D01*
X5964316Y-3067231D01*
X5964317Y-3067231D01*
X5969383Y-3066071D01*
X5971998Y-3065472D01*
X5978707Y-3066071D01*
X5983784Y-3070499D01*
X5985288Y-3077066D01*
X5982645Y-3083262D01*
X5982138Y-3083804D01*
X5875925Y-3190017D01*
X5869923Y-3193076D01*
X5868218Y-3193210D01*
X5790611Y-3193210D01*
X5784204Y-3191128D01*
X5780244Y-3185678D01*
X5780244Y-3178942D01*
X5782903Y-3174602D01*
X5804534Y-3152972D01*
X5840951Y-3116554D01*
X5846954Y-3113496D01*
X5856613Y-3111966D01*
X5856614Y-3111966D01*
X5857461Y-3111832D01*
X5866109Y-3107426D01*
X5868706Y-3106102D01*
X5868707Y-3106102D01*
X5869470Y-3105713D01*
X5879001Y-3096182D01*
X5879514Y-3095175D01*
X5881642Y-3090998D01*
X5885120Y-3084173D01*
X5885255Y-3083325D01*
X5885255Y-3083325D01*
X5887095Y-3071707D01*
X5887229Y-3070860D01*
X5886639Y-3067135D01*
X5885255Y-3058395D01*
X5885255Y-3058395D01*
X5885120Y-3057547D01*
X5884731Y-3056783D01*
X5884731Y-3056783D01*
X5881478Y-3050399D01*
X5880776Y-3045966D01*
X5877053Y-3043590D01*
X5869470Y-3036007D01*
X5867884Y-3035199D01*
X5865800Y-3034137D01*
X5857461Y-3029888D01*
X5856614Y-3029754D01*
X5856613Y-3029754D01*
X5844996Y-3027914D01*
X5844148Y-3027780D01*
X5843301Y-3027914D01*
X5831683Y-3029754D01*
X5831683Y-3029754D01*
X5830836Y-3029888D01*
X5822497Y-3034137D01*
X5820413Y-3035199D01*
X5818826Y-3036007D01*
X5809296Y-3045538D01*
X5808906Y-3046302D01*
X5808906Y-3046302D01*
X5808747Y-3046615D01*
X5803177Y-3057547D01*
X5801620Y-3067378D01*
X5801512Y-3068055D01*
X5798454Y-3074057D01*
X5733181Y-3139330D01*
X5727179Y-3142389D01*
X5725474Y-3142523D01*
X5570307Y-3142523D01*
X5563900Y-3140441D01*
X5562599Y-3139330D01*
X5560989Y-3137720D01*
X5557874Y-3136133D01*
X5557627Y-3136007D01*
X5548980Y-3131601D01*
X5548132Y-3131467D01*
X5548132Y-3131467D01*
X5536514Y-3129627D01*
X5535667Y-3129492D01*
X5534820Y-3129627D01*
X5523202Y-3131467D01*
X5523202Y-3131467D01*
X5522354Y-3131601D01*
X5520156Y-3132721D01*
X5515327Y-3135181D01*
X5508674Y-3136235D01*
X5502671Y-3133177D01*
X5499613Y-3127174D01*
X5499479Y-3125469D01*
X5499479Y-3025971D01*
X5501561Y-3019564D01*
X5502671Y-3018264D01*
X5544943Y-2975992D01*
X5550945Y-2972934D01*
X5552650Y-2972800D01*
X5635125Y-2972800D01*
X5641532Y-2974882D01*
X5645492Y-2980332D01*
X5645932Y-2985123D01*
X5644566Y-2995502D01*
X5644439Y-2996461D01*
X5646300Y-3013313D01*
X5646526Y-3013931D01*
X5646526Y-3013931D01*
X5651392Y-3027227D01*
X5652127Y-3029236D01*
X5661583Y-3043308D01*
X5662069Y-3043750D01*
X5662069Y-3043750D01*
X5673527Y-3054177D01*
X5674123Y-3054719D01*
X5674701Y-3055033D01*
X5688446Y-3062496D01*
X5688446Y-3062496D01*
X5689023Y-3062809D01*
X5689659Y-3062976D01*
X5689659Y-3062976D01*
X5701456Y-3066071D01*
X5705423Y-3067112D01*
X5712478Y-3067222D01*
X5721719Y-3067368D01*
X5721719Y-3067368D01*
X5722376Y-3067378D01*
X5723016Y-3067231D01*
X5723017Y-3067231D01*
X5733999Y-3064716D01*
X5738903Y-3063593D01*
X5746967Y-3059537D01*
X5753462Y-3056270D01*
X5753463Y-3056270D01*
X5754050Y-3055975D01*
X5763387Y-3048000D01*
X5766443Y-3045390D01*
X5766443Y-3045390D01*
X5766942Y-3044963D01*
X5774511Y-3034430D01*
X5776453Y-3031728D01*
X5776836Y-3031195D01*
X5778155Y-3027914D01*
X5782915Y-3016073D01*
X5782915Y-3016072D01*
X5783160Y-3015463D01*
X5785549Y-2998678D01*
X5785564Y-2997200D01*
X5783528Y-2980368D01*
X5783295Y-2979753D01*
X5781437Y-2974835D01*
X5779423Y-2969505D01*
X5779243Y-2965696D01*
X5776778Y-2963407D01*
X5768303Y-2951076D01*
X5768303Y-2951076D01*
X5767931Y-2950535D01*
X5767441Y-2950098D01*
X5767441Y-2950098D01*
X5755763Y-2939693D01*
X5755762Y-2939693D01*
X5755272Y-2939256D01*
X5740288Y-2931322D01*
X5739651Y-2931162D01*
X5739651Y-2931162D01*
X5724481Y-2927352D01*
X5724481Y-2927352D01*
X5723844Y-2927192D01*
X5715314Y-2927147D01*
X5707546Y-2927106D01*
X5707546Y-2927106D01*
X5706889Y-2927103D01*
X5701334Y-2928437D01*
X5693297Y-2930366D01*
X5686582Y-2929838D01*
X5683516Y-2927789D01*
X5683233Y-2927367D01*
X5679893Y-2925135D01*
X5679893Y-2925134D01*
X5677406Y-2923473D01*
X5673236Y-2918183D01*
X5672971Y-2911451D01*
X5676714Y-2905850D01*
X5683462Y-2903510D01*
X5783739Y-2903510D01*
X5790146Y-2905592D01*
G37*
G04 #@! TD.AperFunction*
M02*
