G04 #@! TF.GenerationSoftware,KiCad,Pcbnew,(6.0.4)*
G04 #@! TF.CreationDate,2022-04-30T14:08:03+02:00*
G04 #@! TF.ProjectId,nRF52832_qfaa,6e524635-3238-4333-925f-716661612e6b,rev?*
G04 #@! TF.SameCoordinates,Original*
G04 #@! TF.FileFunction,Copper,L1,Top*
G04 #@! TF.FilePolarity,Positive*
%FSLAX45Y45*%
G04 Gerber Fmt 4.5, Leading zero omitted, Abs format (unit mm)*
G04 Created by KiCad (PCBNEW (6.0.4)) date 2022-04-30 14:08:03*
%MOMM*%
%LPD*%
G01*
G04 APERTURE LIST*
G04 Aperture macros list*
%AMRoundRect*
0 Rectangle with rounded corners*
0 $1 Rounding radius*
0 $2 $3 $4 $5 $6 $7 $8 $9 X,Y pos of 4 corners*
0 Add a 4 corners polygon primitive as box body*
4,1,4,$2,$3,$4,$5,$6,$7,$8,$9,$2,$3,0*
0 Add four circle primitives for the rounded corners*
1,1,$1+$1,$2,$3*
1,1,$1+$1,$4,$5*
1,1,$1+$1,$6,$7*
1,1,$1+$1,$8,$9*
0 Add four rect primitives between the rounded corners*
20,1,$1+$1,$2,$3,$4,$5,0*
20,1,$1+$1,$4,$5,$6,$7,0*
20,1,$1+$1,$6,$7,$8,$9,0*
20,1,$1+$1,$8,$9,$2,$3,0*%
%AMHorizOval*
0 Thick line with rounded ends*
0 $1 width*
0 $2 $3 position (X,Y) of the first rounded end (center of the circle)*
0 $4 $5 position (X,Y) of the second rounded end (center of the circle)*
0 Add line between two ends*
20,1,$1,$2,$3,$4,$5,0*
0 Add two circle primitives to create the rounded ends*
1,1,$1,$2,$3*
1,1,$1,$4,$5*%
G04 Aperture macros list end*
G04 #@! TA.AperFunction,SMDPad,CuDef*
%ADD10R,0.850000X0.950000*%
G04 #@! TD*
G04 #@! TA.AperFunction,SMDPad,CuDef*
%ADD11RoundRect,0.140000X0.170000X-0.140000X0.170000X0.140000X-0.170000X0.140000X-0.170000X-0.140000X0*%
G04 #@! TD*
G04 #@! TA.AperFunction,SMDPad,CuDef*
%ADD12RoundRect,0.140000X0.140000X0.170000X-0.140000X0.170000X-0.140000X-0.170000X0.140000X-0.170000X0*%
G04 #@! TD*
G04 #@! TA.AperFunction,SMDPad,CuDef*
%ADD13RoundRect,0.140000X-0.170000X0.140000X-0.170000X-0.140000X0.170000X-0.140000X0.170000X0.140000X0*%
G04 #@! TD*
G04 #@! TA.AperFunction,SMDPad,CuDef*
%ADD14RoundRect,0.140000X-0.140000X-0.170000X0.140000X-0.170000X0.140000X0.170000X-0.140000X0.170000X0*%
G04 #@! TD*
G04 #@! TA.AperFunction,SMDPad,CuDef*
%ADD15R,1.000000X1.800000*%
G04 #@! TD*
G04 #@! TA.AperFunction,SMDPad,CuDef*
%ADD16R,1.000000X0.800000*%
G04 #@! TD*
G04 #@! TA.AperFunction,SMDPad,CuDef*
%ADD17R,0.500000X0.400000*%
G04 #@! TD*
G04 #@! TA.AperFunction,SMDPad,CuDef*
%ADD18R,0.500000X0.300000*%
G04 #@! TD*
G04 #@! TA.AperFunction,SMDPad,CuDef*
%ADD19RoundRect,0.147500X0.147500X0.172500X-0.147500X0.172500X-0.147500X-0.172500X0.147500X-0.172500X0*%
G04 #@! TD*
G04 #@! TA.AperFunction,SMDPad,CuDef*
%ADD20R,1.060000X0.650000*%
G04 #@! TD*
G04 #@! TA.AperFunction,SMDPad,CuDef*
%ADD21RoundRect,0.062500X-0.062500X0.375000X-0.062500X-0.375000X0.062500X-0.375000X0.062500X0.375000X0*%
G04 #@! TD*
G04 #@! TA.AperFunction,SMDPad,CuDef*
%ADD22RoundRect,0.062500X-0.375000X0.062500X-0.375000X-0.062500X0.375000X-0.062500X0.375000X0.062500X0*%
G04 #@! TD*
G04 #@! TA.AperFunction,ComponentPad*
%ADD23C,0.500000*%
G04 #@! TD*
G04 #@! TA.AperFunction,SMDPad,CuDef*
%ADD24R,1.450000X1.450000*%
G04 #@! TD*
G04 #@! TA.AperFunction,SMDPad,CuDef*
%ADD25RoundRect,0.135000X0.135000X0.185000X-0.135000X0.185000X-0.135000X-0.185000X0.135000X-0.185000X0*%
G04 #@! TD*
G04 #@! TA.AperFunction,SMDPad,CuDef*
%ADD26RoundRect,0.135000X-0.185000X0.135000X-0.185000X-0.135000X0.185000X-0.135000X0.185000X0.135000X0*%
G04 #@! TD*
G04 #@! TA.AperFunction,SMDPad,CuDef*
%ADD27RoundRect,0.218750X-0.256250X0.218750X-0.256250X-0.218750X0.256250X-0.218750X0.256250X0.218750X0*%
G04 #@! TD*
G04 #@! TA.AperFunction,SMDPad,CuDef*
%ADD28R,0.900000X0.800000*%
G04 #@! TD*
G04 #@! TA.AperFunction,SMDPad,CuDef*
%ADD29RoundRect,0.030000X0.295000X0.070000X-0.295000X0.070000X-0.295000X-0.070000X0.295000X-0.070000X0*%
G04 #@! TD*
G04 #@! TA.AperFunction,SMDPad,CuDef*
%ADD30RoundRect,0.030000X-0.070000X0.295000X-0.070000X-0.295000X0.070000X-0.295000X0.070000X0.295000X0*%
G04 #@! TD*
G04 #@! TA.AperFunction,SMDPad,CuDef*
%ADD31RoundRect,0.030000X-0.295000X-0.070000X0.295000X-0.070000X0.295000X0.070000X-0.295000X0.070000X0*%
G04 #@! TD*
G04 #@! TA.AperFunction,SMDPad,CuDef*
%ADD32RoundRect,0.030000X0.070000X-0.295000X0.070000X0.295000X-0.070000X0.295000X-0.070000X-0.295000X0*%
G04 #@! TD*
G04 #@! TA.AperFunction,SMDPad,CuDef*
%ADD33R,4.700000X4.700000*%
G04 #@! TD*
G04 #@! TA.AperFunction,ComponentPad*
%ADD34C,0.908000*%
G04 #@! TD*
G04 #@! TA.AperFunction,SMDPad,CuDef*
%ADD35C,0.910000*%
G04 #@! TD*
G04 #@! TA.AperFunction,SMDPad,CuDef*
%ADD36HorizOval,0.910000X0.100000X0.100000X-0.100000X-0.100000X0*%
G04 #@! TD*
G04 #@! TA.AperFunction,SMDPad,CuDef*
%ADD37RoundRect,0.125000X-0.125000X0.250000X-0.125000X-0.250000X0.125000X-0.250000X0.125000X0.250000X0*%
G04 #@! TD*
G04 #@! TA.AperFunction,SMDPad,CuDef*
%ADD38R,4.300000X3.400000*%
G04 #@! TD*
G04 #@! TA.AperFunction,SMDPad,CuDef*
%ADD39R,1.000000X0.900000*%
G04 #@! TD*
G04 #@! TA.AperFunction,SMDPad,CuDef*
%ADD40R,0.550000X1.700000*%
G04 #@! TD*
G04 #@! TA.AperFunction,ComponentPad*
%ADD41C,0.850000*%
G04 #@! TD*
G04 #@! TA.AperFunction,SMDPad,CuDef*
%ADD42C,1.000000*%
G04 #@! TD*
G04 #@! TA.AperFunction,ViaPad*
%ADD43C,0.600000*%
G04 #@! TD*
G04 #@! TA.AperFunction,ViaPad*
%ADD44C,0.450000*%
G04 #@! TD*
G04 #@! TA.AperFunction,Conductor*
%ADD45C,0.200000*%
G04 #@! TD*
G04 #@! TA.AperFunction,Conductor*
%ADD46C,0.250000*%
G04 #@! TD*
G04 #@! TA.AperFunction,Conductor*
%ADD47C,0.500000*%
G04 #@! TD*
G04 #@! TA.AperFunction,Conductor*
%ADD48C,0.400000*%
G04 #@! TD*
G04 #@! TA.AperFunction,Conductor*
%ADD49C,0.150000*%
G04 #@! TD*
G04 #@! TA.AperFunction,Conductor*
%ADD50C,0.127000*%
G04 #@! TD*
G04 #@! TA.AperFunction,Conductor*
%ADD51C,0.254000*%
G04 #@! TD*
G04 APERTURE END LIST*
D10*
X3966988Y-3776760D03*
X3966988Y-3921760D03*
X4081988Y-3921760D03*
X4081988Y-3776760D03*
D11*
X4055984Y-3312160D03*
X4055984Y-3216160D03*
D12*
X4088484Y-4048760D03*
X3992484Y-4048760D03*
D13*
X3872088Y-3838460D03*
X3872088Y-3934460D03*
D14*
X3967084Y-3413760D03*
X4063084Y-3413760D03*
D11*
X4856084Y-3979660D03*
X4856084Y-3883660D03*
X4919584Y-3144260D03*
X4919584Y-3048260D03*
D13*
X4214988Y-3810260D03*
X4214988Y-3906260D03*
D12*
X3932788Y-3528060D03*
X3836788Y-3528060D03*
X3945488Y-3629660D03*
X3849488Y-3629660D03*
D13*
X4754484Y-3911860D03*
X4754484Y-4007860D03*
X4652884Y-3911860D03*
X4652884Y-4007860D03*
D15*
X4969420Y-3912496D03*
X5219420Y-3912496D03*
D12*
X5059420Y-4075796D03*
X4963420Y-4075796D03*
D14*
X5153920Y-4075796D03*
X5249920Y-4075796D03*
D16*
X3302184Y-3062596D03*
X3452184Y-3062596D03*
X3452184Y-3172596D03*
X3302184Y-3172596D03*
D17*
X3693884Y-3129096D03*
D18*
X3693884Y-3079096D03*
X3693884Y-3029096D03*
D17*
X3693884Y-2979096D03*
X3593884Y-2979096D03*
D18*
X3593884Y-3029096D03*
X3593884Y-3079096D03*
D17*
X3593884Y-3129096D03*
D11*
X6228080Y-3677660D03*
X6228080Y-3581660D03*
D12*
X6123680Y-3680460D03*
X6027680Y-3680460D03*
D14*
X3468884Y-3981196D03*
X3564884Y-3981196D03*
D12*
X5888984Y-3756660D03*
X5792984Y-3756660D03*
D19*
X5889484Y-3858260D03*
X5792484Y-3858260D03*
D20*
X6782580Y-3965960D03*
X6782580Y-3870960D03*
X6782580Y-3775960D03*
X6562580Y-3775960D03*
X6562580Y-3965960D03*
D21*
X6595580Y-3036710D03*
X6545580Y-3036710D03*
X6495580Y-3036710D03*
X6445580Y-3036710D03*
D22*
X6376830Y-3105460D03*
X6376830Y-3155460D03*
X6376830Y-3205460D03*
X6376830Y-3255460D03*
D21*
X6445580Y-3324210D03*
X6495580Y-3324210D03*
X6545580Y-3324210D03*
X6595580Y-3324210D03*
D22*
X6664330Y-3255460D03*
X6664330Y-3205460D03*
X6664330Y-3155460D03*
X6664330Y-3105460D03*
D23*
X6473080Y-3132960D03*
X6568080Y-3132960D03*
X6568080Y-3227960D03*
D24*
X6520580Y-3180460D03*
D23*
X6473080Y-3227960D03*
D25*
X6901380Y-3214460D03*
X6799380Y-3214460D03*
X5891984Y-3959860D03*
X5789984Y-3959860D03*
D13*
X6215380Y-2997460D03*
X6215380Y-3093460D03*
D11*
X6926580Y-3931660D03*
X6926580Y-3835660D03*
D26*
X6482080Y-3489760D03*
X6482080Y-3591760D03*
X6215380Y-3388160D03*
X6215380Y-3490160D03*
D25*
X6901380Y-3112860D03*
X6799380Y-3112860D03*
D26*
X6215380Y-3184760D03*
X6215380Y-3286760D03*
D27*
X6355080Y-3474710D03*
X6355080Y-3632210D03*
D28*
X6064580Y-3826760D03*
X6064580Y-4016760D03*
X6264580Y-3921760D03*
D29*
X4865584Y-3684560D03*
X4865584Y-3644560D03*
X4865584Y-3604560D03*
X4865584Y-3564560D03*
X4865584Y-3524560D03*
X4865584Y-3484560D03*
X4865584Y-3444560D03*
X4865584Y-3404560D03*
X4865584Y-3364560D03*
X4865584Y-3324560D03*
X4865584Y-3284560D03*
X4865584Y-3244560D03*
D30*
X4785584Y-3164560D03*
X4745584Y-3164560D03*
X4705584Y-3164560D03*
X4665584Y-3164560D03*
X4625584Y-3164560D03*
X4585584Y-3164560D03*
X4545584Y-3164560D03*
X4505584Y-3164560D03*
X4465584Y-3164560D03*
X4425584Y-3164560D03*
X4385584Y-3164560D03*
X4345584Y-3164560D03*
D31*
X4265584Y-3244560D03*
X4265584Y-3284560D03*
X4265584Y-3324560D03*
X4265584Y-3364560D03*
X4265584Y-3404560D03*
X4265584Y-3444560D03*
X4265584Y-3484560D03*
X4265584Y-3524560D03*
X4265584Y-3564560D03*
X4265584Y-3604560D03*
X4265584Y-3644560D03*
X4265584Y-3684560D03*
D32*
X4345584Y-3764560D03*
X4385584Y-3764560D03*
X4425584Y-3764560D03*
X4465584Y-3764560D03*
X4505584Y-3764560D03*
X4545584Y-3764560D03*
X4585584Y-3764560D03*
X4625584Y-3764560D03*
X4665584Y-3764560D03*
X4705584Y-3764560D03*
X4745584Y-3764560D03*
X4785584Y-3764560D03*
D33*
X4565584Y-3464560D03*
D34*
X4745584Y-3644560D03*
X4745584Y-3524560D03*
X4745584Y-3404560D03*
X4745584Y-3284560D03*
X4625584Y-3644560D03*
X4625584Y-3524560D03*
X4625584Y-3404560D03*
X4625584Y-3284560D03*
X4505584Y-3644560D03*
X4505584Y-3524560D03*
X4505584Y-3404560D03*
X4505584Y-3284560D03*
X4385584Y-3644560D03*
X4385584Y-3524560D03*
X4385584Y-3404560D03*
X4385584Y-3284560D03*
D35*
X3310984Y-3460596D03*
X3310984Y-3625596D03*
X3310984Y-3790596D03*
X3544984Y-3790596D03*
X3544984Y-3625596D03*
D36*
X3534984Y-3470596D03*
D37*
X6024880Y-3016760D03*
X5897880Y-3016760D03*
X5770880Y-3016760D03*
X5643880Y-3016760D03*
X5643880Y-3556760D03*
X5770880Y-3556760D03*
X5897880Y-3556760D03*
X6024880Y-3556760D03*
D38*
X5834380Y-3286760D03*
D12*
X6898380Y-3320060D03*
X6802380Y-3320060D03*
D26*
X6926580Y-3413560D03*
X6926580Y-3515560D03*
D13*
X6393180Y-3962660D03*
X6393180Y-4058660D03*
X4551284Y-3939800D03*
X4551284Y-4035800D03*
D14*
X3858384Y-3210560D03*
X3954384Y-3210560D03*
D19*
X3336784Y-3981196D03*
X3239784Y-3981196D03*
D39*
X5336784Y-3280896D03*
X5176784Y-3280896D03*
X5176784Y-3690896D03*
X5336784Y-3690896D03*
D40*
X5399284Y-3485896D03*
D41*
X4051300Y-3022600D03*
D42*
X5511800Y-3733800D03*
D26*
X4316588Y-3841296D03*
X4316588Y-3943296D03*
D42*
X6946900Y-3670300D03*
D13*
X6412484Y-3742696D03*
X6412484Y-3838696D03*
D42*
X5334000Y-3022600D03*
X5384800Y-4013200D03*
X5588000Y-4076700D03*
X5499100Y-3048000D03*
X5029200Y-3009900D03*
X5562600Y-3898900D03*
X5168900Y-3086100D03*
D43*
X5935980Y-3667760D03*
X5758180Y-3680460D03*
D44*
X4100688Y-3663696D03*
X4233784Y-4023360D03*
X3928984Y-3083560D03*
X3890884Y-3134360D03*
X3801984Y-3147060D03*
X6786880Y-3020060D03*
X6964680Y-3121660D03*
X5580380Y-3020060D03*
X4144955Y-3274131D03*
D43*
X3326384Y-3282696D03*
D44*
X6723380Y-3870960D03*
X4754484Y-4087763D03*
D43*
X4151884Y-4120896D03*
D44*
X4192611Y-3080487D03*
D43*
X5713984Y-3858260D03*
X5104384Y-4019296D03*
D44*
X6558280Y-3832860D03*
X4919584Y-2997200D03*
D43*
X5423908Y-2954722D03*
X3192780Y-3832860D03*
D44*
X6101080Y-3210560D03*
D43*
X3631184Y-3981196D03*
D44*
X6384681Y-3312160D03*
X4652884Y-4087763D03*
D43*
X5472684Y-3485896D03*
X5015484Y-3612896D03*
D44*
X6310884Y-4070096D03*
D43*
X3638682Y-3483950D03*
X5499100Y-4089400D03*
D44*
X6177280Y-3528060D03*
D43*
X6977380Y-3223260D03*
D44*
X4144813Y-3375589D03*
X6278880Y-2980960D03*
X4508500Y-3924300D03*
D43*
X3262884Y-3904996D03*
X4978400Y-3136900D03*
X6570980Y-4036060D03*
X5384800Y-3873500D03*
D44*
X4786488Y-3854196D03*
D43*
X3162300Y-3251200D03*
X5054600Y-3048000D03*
X4259184Y-3743960D03*
X6634480Y-4036060D03*
D44*
X6482080Y-3904996D03*
X6118480Y-3612260D03*
D43*
X4381500Y-4114800D03*
X3568700Y-3905246D03*
D44*
X4447904Y-3838304D03*
X4194884Y-3321790D03*
D43*
X3732784Y-3790696D03*
X5162550Y-2965450D03*
X5232971Y-2939791D03*
D44*
X4198884Y-3233560D03*
D43*
X3732784Y-3663696D03*
D44*
X4214988Y-3143610D03*
D43*
X3701475Y-3282549D03*
X6520180Y-2939796D03*
X6189980Y-3134360D03*
X5344925Y-4104570D03*
X5256784Y-3371596D03*
D44*
X5834380Y-3629660D03*
D43*
X5525318Y-3602050D03*
D44*
X5567680Y-3223260D03*
X6088380Y-3020060D03*
X5535667Y-3172573D03*
X5844148Y-3070860D03*
D43*
X5842000Y-2933700D03*
D44*
X4297284Y-3012313D03*
D43*
X3873201Y-2975961D03*
X3770884Y-2952496D03*
D44*
X4367388Y-2977896D03*
D43*
X3847143Y-3066796D03*
D44*
X4246484Y-3045460D03*
X6691806Y-3305635D03*
X6946280Y-3616960D03*
X6846580Y-3616960D03*
D43*
X5332984Y-3282696D03*
X6307867Y-3155460D03*
X6507480Y-3426460D03*
X5332984Y-3689096D03*
D44*
X4648200Y-2991350D03*
X4813300Y-2997200D03*
X6692286Y-3712575D03*
D43*
X5904143Y-4075936D03*
X6298184Y-3777996D03*
X5180584Y-3689096D03*
X5955284Y-3810046D03*
D44*
X4309984Y-4048760D03*
D43*
X5177559Y-3278387D03*
D44*
X4995784Y-3528060D03*
D43*
X6113780Y-3337560D03*
D44*
X4436984Y-4036060D03*
X5701284Y-4036060D03*
X4520866Y-3835832D03*
D43*
X3662890Y-3868931D03*
X3707384Y-3536696D03*
D44*
X4265788Y-3103599D03*
D45*
X3878184Y-3413760D02*
X3878184Y-3312160D01*
D46*
X6384681Y-3312160D02*
X6384681Y-3312160D01*
D47*
X6101080Y-3210560D02*
X5910580Y-3210560D01*
D45*
X4192611Y-3080487D02*
X4190711Y-3082388D01*
D48*
X3928158Y-3095434D02*
X3929033Y-3094559D01*
D46*
X6278880Y-2980960D02*
X6278880Y-2980960D01*
D49*
X6414516Y-2952496D02*
X6307344Y-2952496D01*
X6278880Y-2994660D02*
X6278880Y-2980960D01*
D45*
X4170284Y-3401060D02*
X4144813Y-3375589D01*
X4564887Y-4087763D02*
X4652884Y-4087763D01*
X6445580Y-3255460D02*
X6520580Y-3180460D01*
X4870384Y-3564560D02*
X4871984Y-3566160D01*
X4966778Y-3566160D02*
X5013514Y-3612896D01*
D47*
X5910580Y-3210560D02*
X5834380Y-3286760D01*
D49*
X3890884Y-4086860D02*
X3890884Y-4036060D01*
D50*
X5713984Y-3790696D02*
X5713984Y-3858260D01*
X5748020Y-3756660D02*
X5713984Y-3790696D01*
D46*
X6373500Y-3300979D02*
X6384681Y-3312160D01*
X5511800Y-4076700D02*
X5499100Y-4089400D01*
D45*
X4233784Y-3912356D02*
X4227688Y-3906260D01*
D46*
X6977180Y-3515560D02*
X6990080Y-3502660D01*
D45*
X3649436Y-3473196D02*
X3638682Y-3483950D01*
D46*
X6381744Y-4070096D02*
X6393180Y-4058660D01*
D45*
X3872088Y-3934460D02*
X3872088Y-4017264D01*
D48*
X6215180Y-3490160D02*
X6177280Y-3528060D01*
D51*
X3192780Y-3733800D02*
X3192780Y-3832860D01*
D46*
X5461000Y-2997200D02*
X5423908Y-2954722D01*
D45*
X4665584Y-3684560D02*
X4625584Y-3644560D01*
D46*
X3801984Y-3454796D02*
X3801984Y-3147060D01*
D45*
X3992484Y-4048760D02*
X3903584Y-4048760D01*
D49*
X6445580Y-3036710D02*
X6445580Y-2983560D01*
D48*
X3928984Y-3094509D02*
X3929033Y-3094559D01*
D49*
X4133249Y-4102261D02*
X4151884Y-4120896D01*
D45*
X3878184Y-3413760D02*
X3967084Y-3413760D01*
D50*
X5110084Y-4075796D02*
X5059420Y-4075796D01*
D45*
X3195580Y-3830060D02*
X3192780Y-3832860D01*
X5013514Y-3612896D02*
X5015484Y-3612896D01*
X4081988Y-3682396D02*
X4081988Y-3776760D01*
X4002644Y-2933700D02*
X3928158Y-3008186D01*
D49*
X6376830Y-3105460D02*
X6324148Y-3105460D01*
D46*
X6262380Y-2997460D02*
X6278880Y-2980960D01*
X6562580Y-3828559D02*
X6558280Y-3832859D01*
D49*
X6445580Y-2983560D02*
X6414516Y-2952496D01*
D45*
X4195684Y-3077415D02*
X4192611Y-3080487D01*
D46*
X5461000Y-3048000D02*
X5461000Y-2997200D01*
D45*
X3783584Y-3473196D02*
X3783584Y-3563756D01*
D49*
X5643880Y-3016760D02*
X5583680Y-3016760D01*
D45*
X6299200Y-3276600D02*
X6299200Y-3289300D01*
X3878184Y-3312160D02*
X3878184Y-3230360D01*
D46*
X4754484Y-4007860D02*
X4754484Y-4087763D01*
X4144813Y-3274272D02*
X4144813Y-3375589D01*
D51*
X3192780Y-3543300D02*
X3192780Y-3568700D01*
D45*
X6382141Y-3314700D02*
X6384681Y-3312160D01*
X4865584Y-3484560D02*
X4785584Y-3484560D01*
X3783584Y-3473196D02*
X3649436Y-3473196D01*
X4195684Y-3070860D02*
X4195684Y-3077415D01*
D50*
X5792984Y-3756660D02*
X5748020Y-3756660D01*
X5153920Y-4075796D02*
X5110084Y-4075796D01*
D46*
X6968580Y-3214460D02*
X6977380Y-3223260D01*
X6891280Y-3870960D02*
X6782580Y-3870960D01*
D48*
X3876532Y-3147060D02*
X3928158Y-3095434D01*
D49*
X3906285Y-4102261D02*
X3890884Y-4086860D01*
D45*
X4233784Y-4023360D02*
X4233784Y-3912356D01*
X4665584Y-3564560D02*
X4565584Y-3464560D01*
D49*
X4007885Y-4102261D02*
X4133249Y-4102261D01*
D45*
X4865584Y-3564560D02*
X4870384Y-3564560D01*
X6664330Y-3155460D02*
X6545580Y-3155460D01*
X4144884Y-3375519D02*
X4144813Y-3375589D01*
X4918102Y-3566160D02*
X4966778Y-3566160D01*
D50*
X5399284Y-3485896D02*
X5472684Y-3485896D01*
D46*
X6901380Y-3317060D02*
X6898380Y-3320060D01*
D45*
X4190711Y-3088533D02*
X4190711Y-3082388D01*
X4144884Y-3375660D02*
X4144884Y-3375660D01*
D46*
X3796284Y-3460496D02*
X3801984Y-3454796D01*
D48*
X6228080Y-3581660D02*
X6228080Y-3578860D01*
D50*
X5792484Y-3858260D02*
X5713984Y-3858260D01*
D46*
X6990080Y-3387076D02*
X6923064Y-3320060D01*
D51*
X3310984Y-3625596D02*
X3298284Y-3638296D01*
D45*
X4856084Y-3979660D02*
X4859584Y-3979660D01*
D46*
X6562580Y-3775960D02*
X6562580Y-3828559D01*
D51*
X3192780Y-3568700D02*
X3192780Y-3733800D01*
D45*
X3872088Y-4017264D02*
X3890884Y-4036060D01*
D48*
X6228080Y-3578860D02*
X6177280Y-3528060D01*
D50*
X4865584Y-3484560D02*
X4865886Y-3484258D01*
D45*
X3878184Y-3230360D02*
X3858384Y-3210560D01*
D51*
X3199384Y-3638296D02*
X3192780Y-3631692D01*
D45*
X6324600Y-3314700D02*
X6382141Y-3314700D01*
X3796284Y-3460496D02*
X3783584Y-3473196D01*
X3858384Y-3216160D02*
X3858384Y-3210560D01*
X4919584Y-3048260D02*
X4919584Y-2997200D01*
D46*
X5588000Y-4076700D02*
X5511800Y-4076700D01*
D51*
X3254188Y-3733800D02*
X3192780Y-3733800D01*
D45*
X4195684Y-3401060D02*
X4170284Y-3401060D01*
X6299200Y-3289300D02*
X6324600Y-3314700D01*
D49*
X6324148Y-3105460D02*
X6291580Y-3072892D01*
D45*
X3967084Y-3464560D02*
X3967084Y-3413760D01*
D46*
X3800348Y-3464560D02*
X3967084Y-3464560D01*
D51*
X3564884Y-3981196D02*
X3631184Y-3981196D01*
D46*
X6923064Y-3320060D02*
X6898380Y-3320060D01*
D45*
X4182984Y-2969260D02*
X4147424Y-2933700D01*
D46*
X6926580Y-3515560D02*
X6977180Y-3515560D01*
D49*
X6307344Y-2952496D02*
X6278880Y-2980960D01*
D46*
X4144955Y-3274131D02*
X4144813Y-3274272D01*
D45*
X4144884Y-3134360D02*
X4144884Y-3375519D01*
X4865584Y-3564560D02*
X4665584Y-3564560D01*
D51*
X3310984Y-3790596D02*
X3254188Y-3733800D01*
D46*
X6901380Y-3214460D02*
X6968580Y-3214460D01*
X4144884Y-3134360D02*
X4182984Y-3096260D01*
D49*
X4007885Y-4102261D02*
X3906285Y-4102261D01*
D45*
X4665584Y-3764560D02*
X4665584Y-3684560D01*
X3928158Y-3008186D02*
X3928158Y-3095434D01*
D46*
X4195684Y-3058160D02*
X4195684Y-3070860D01*
X4652884Y-4007860D02*
X4652884Y-4087763D01*
D45*
X3903584Y-4048760D02*
X3890884Y-4036060D01*
X6545580Y-3205460D02*
X6520580Y-3180460D01*
D50*
X5090047Y-3484258D02*
X5104384Y-3498596D01*
D46*
X4144884Y-3134360D02*
X4144884Y-3274060D01*
D50*
X5104384Y-4070096D02*
X5104384Y-4019296D01*
D45*
X4265584Y-3484560D02*
X3987084Y-3484560D01*
X3865484Y-3203460D02*
X3858384Y-3210560D01*
D47*
X6101080Y-3210560D02*
X6101080Y-3210560D01*
D45*
X6376830Y-3255460D02*
X6320340Y-3255460D01*
X4785584Y-3484560D02*
X4745584Y-3524560D01*
X6664330Y-3205460D02*
X6545580Y-3205460D01*
D46*
X4144884Y-3274060D02*
X4144955Y-3274131D01*
D51*
X3298284Y-3638296D02*
X3199384Y-3638296D01*
D45*
X4827884Y-4007860D02*
X4856084Y-3979660D01*
D47*
X6177280Y-3528060D02*
X5935980Y-3286760D01*
D45*
X4147424Y-2933700D02*
X4002644Y-2933700D01*
D49*
X5583680Y-3016760D02*
X5580380Y-3020060D01*
D48*
X3801984Y-3147060D02*
X3876532Y-3147060D01*
D50*
X4865886Y-3484258D02*
X5090047Y-3484258D01*
D46*
X6310884Y-4070096D02*
X6381744Y-4070096D01*
D45*
X3783584Y-3563756D02*
X3849488Y-3629660D01*
D46*
X6425184Y-3825996D02*
X6551417Y-3825996D01*
D51*
X3192780Y-3631692D02*
X3192780Y-3568700D01*
D49*
X6291580Y-3007360D02*
X6278880Y-2994660D01*
D45*
X4144884Y-3134360D02*
X4190711Y-3088533D01*
X3992484Y-3934460D02*
X3872088Y-3934460D01*
D46*
X6901380Y-3112860D02*
X6901380Y-3317060D01*
X6990080Y-3502660D02*
X6990080Y-3387076D01*
D51*
X3275484Y-3460596D02*
X3192780Y-3543300D01*
D50*
X5110084Y-4075796D02*
X5104384Y-4070096D01*
D46*
X4182984Y-3096260D02*
X4182984Y-3083560D01*
D45*
X3987084Y-3484560D02*
X3967084Y-3464560D01*
D46*
X5423908Y-2954722D02*
X5422900Y-2959100D01*
X4182984Y-3083560D02*
X4195684Y-3070860D01*
X4195684Y-3058160D02*
X4195684Y-2981960D01*
D45*
X3992484Y-3934460D02*
X4005184Y-3921760D01*
X4754484Y-4007860D02*
X4827884Y-4007860D01*
X6320340Y-3255460D02*
X6299200Y-3276600D01*
D49*
X3992484Y-4086860D02*
X4007885Y-4102261D01*
D46*
X4579224Y-4007860D02*
X4754484Y-4007860D01*
D49*
X3992484Y-4048760D02*
X3992484Y-4086860D01*
D45*
X4545584Y-3484560D02*
X4565584Y-3464560D01*
D49*
X6291580Y-3072892D02*
X6291580Y-3007360D01*
D45*
X4871984Y-3566160D02*
X4918102Y-3566160D01*
D46*
X6551417Y-3825996D02*
X6558280Y-3832860D01*
D45*
X4265584Y-3484560D02*
X4545584Y-3484560D01*
D46*
X3796284Y-3460496D02*
X3800348Y-3464560D01*
D45*
X4100688Y-3663696D02*
X4081988Y-3682396D01*
D48*
X6215380Y-3490160D02*
X6215180Y-3490160D01*
D45*
X4551284Y-4035800D02*
X4551284Y-4074160D01*
D46*
X4195684Y-2981960D02*
X4182984Y-2969260D01*
D45*
X6545580Y-3155460D02*
X6520580Y-3180460D01*
X6541280Y-3159760D02*
X6520580Y-3180460D01*
D46*
X6926580Y-3835660D02*
X6891280Y-3870960D01*
D51*
X3310984Y-3460596D02*
X3275484Y-3460596D01*
D46*
X6215380Y-2997460D02*
X6262380Y-2997460D01*
D45*
X4551284Y-4074160D02*
X4564887Y-4087763D01*
D47*
X5935980Y-3286760D02*
X5834380Y-3286760D01*
D45*
X3992484Y-4048760D02*
X3992484Y-3934460D01*
X6376830Y-3255460D02*
X6445580Y-3255460D01*
D46*
X4551284Y-4035800D02*
X4579224Y-4007860D01*
D48*
X6118480Y-3612260D02*
X6062980Y-3556760D01*
D51*
X3239784Y-3981196D02*
X3239784Y-3928096D01*
D45*
X4259184Y-3778764D02*
X4259184Y-3743960D01*
D49*
X4785584Y-3118500D02*
X4799188Y-3104896D01*
D50*
X3267084Y-3062596D02*
X3302184Y-3062596D01*
X3161284Y-3168396D02*
X3267084Y-3062596D01*
D49*
X4785584Y-3164560D02*
X4785584Y-3118500D01*
D45*
X4785584Y-3853292D02*
X4785584Y-3764560D01*
D48*
X6123680Y-3680460D02*
X6123680Y-3617460D01*
D49*
X4265584Y-3684560D02*
X4219524Y-3684560D01*
D46*
X4524000Y-3939800D02*
X4551284Y-3939800D01*
D49*
X4202288Y-3727196D02*
X4219052Y-3743960D01*
D46*
X5422900Y-3898900D02*
X5384800Y-3873500D01*
D45*
X4919584Y-3144260D02*
X4935084Y-3144260D01*
X4786488Y-3854196D02*
X4785584Y-3853292D01*
D46*
X6570980Y-4036060D02*
X6634480Y-4036060D01*
D50*
X3162300Y-3251200D02*
X3161284Y-3250184D01*
D48*
X6062980Y-3556760D02*
X6024880Y-3556760D01*
D49*
X4978400Y-3136900D02*
X4971040Y-3144260D01*
D48*
X6177280Y-3671060D02*
X6118480Y-3612260D01*
X6570980Y-4036060D02*
X6570980Y-3974360D01*
D46*
X6202680Y-3677660D02*
X6149080Y-3677660D01*
D50*
X3161284Y-3250184D02*
X3161284Y-3168396D01*
D51*
X3239784Y-3928096D02*
X3262884Y-3904996D01*
D46*
X6149080Y-3677660D02*
X6151880Y-3680460D01*
X4754484Y-3886200D02*
X4754484Y-3911860D01*
D48*
X6570980Y-3974360D02*
X6562580Y-3965960D01*
D49*
X4799188Y-3104896D02*
X4880220Y-3104896D01*
D46*
X4508500Y-3924300D02*
X4524000Y-3939800D01*
X6482080Y-3961892D02*
X6486148Y-3965960D01*
D45*
X4265584Y-3737560D02*
X4259184Y-3743960D01*
D46*
X5562600Y-3898900D02*
X5422900Y-3898900D01*
X4786488Y-3854196D02*
X4754484Y-3886200D01*
X5384800Y-3873500D02*
X5397500Y-3873500D01*
X6396480Y-3965960D02*
X6393180Y-3962660D01*
D49*
X4880220Y-3104896D02*
X4919584Y-3144260D01*
X4219052Y-3743960D02*
X4259184Y-3743960D01*
D46*
X6562580Y-3965960D02*
X6486148Y-3965960D01*
X6482080Y-3904996D02*
X6482080Y-3961892D01*
D49*
X4219524Y-3684560D02*
X4202288Y-3701796D01*
X4202288Y-3701796D02*
X4202288Y-3727196D01*
X4971040Y-3144260D02*
X4919584Y-3144260D01*
D48*
X6123680Y-3617460D02*
X6118480Y-3612260D01*
X6126480Y-3677660D02*
X6123680Y-3680460D01*
D46*
X6486148Y-3965960D02*
X6396480Y-3965960D01*
D45*
X4227688Y-3810260D02*
X4259184Y-3778764D01*
D48*
X6228080Y-3677660D02*
X6126480Y-3677660D01*
D50*
X4623060Y-3911860D02*
X4591699Y-3880499D01*
X4652884Y-3911860D02*
X4623060Y-3911860D01*
D45*
X4705584Y-3822160D02*
X4705584Y-3764560D01*
X4652884Y-3911860D02*
X4652884Y-3874860D01*
D50*
X4495800Y-3991316D02*
X4495800Y-4039188D01*
X4490357Y-3880499D02*
X4464699Y-3906157D01*
X4495800Y-4039188D02*
X4420188Y-4114800D01*
X4591699Y-3880499D02*
X4490357Y-3880499D01*
D45*
X4652884Y-3874860D02*
X4705584Y-3822160D01*
D50*
X4381500Y-4114800D02*
X4394200Y-4127500D01*
X4464699Y-3906157D02*
X4464699Y-3960215D01*
X4420188Y-4114800D02*
X4381500Y-4114800D01*
X4464699Y-3960215D02*
X4495800Y-3991316D01*
D51*
X3544984Y-3856896D02*
X3544984Y-3790596D01*
D45*
X4447904Y-3838304D02*
X4465584Y-3820623D01*
D51*
X3568700Y-3905246D02*
X3568700Y-3880612D01*
D45*
X4465584Y-3820623D02*
X4465584Y-3764560D01*
D51*
X3568700Y-3880612D02*
X3544984Y-3856896D01*
X3544984Y-3790596D02*
X3570484Y-3816096D01*
D45*
X4265584Y-3564560D02*
X4072824Y-3564560D01*
X4072824Y-3564560D02*
X4007724Y-3629660D01*
X4007724Y-3629660D02*
X3945488Y-3629660D01*
X3936288Y-3524560D02*
X3932788Y-3528060D01*
X4265584Y-3524560D02*
X3936288Y-3524560D01*
D49*
X4232114Y-3284560D02*
X4194884Y-3321790D01*
D46*
X5168900Y-3086100D02*
X5168900Y-2971800D01*
X5168900Y-2971800D02*
X5162550Y-2965450D01*
D49*
X4265584Y-3284560D02*
X4232114Y-3284560D01*
D46*
X5334000Y-3022600D02*
X5315780Y-3022600D01*
D49*
X4209884Y-3244560D02*
X4198884Y-3233560D01*
D46*
X5315780Y-3022600D02*
X5232971Y-2939791D01*
D49*
X4265584Y-3244560D02*
X4209884Y-3244560D01*
D50*
X4865584Y-3644560D02*
X4920148Y-3644560D01*
X4977384Y-3701796D02*
X4977384Y-3904532D01*
X4977384Y-3904532D02*
X4969420Y-3912496D01*
X4920148Y-3644560D02*
X4977384Y-3701796D01*
X4969420Y-4069796D02*
X4963420Y-4075796D01*
D45*
X4990084Y-3891832D02*
X4969420Y-3912496D01*
D50*
X4969420Y-3912496D02*
X4969420Y-4069796D01*
X5256784Y-4006596D02*
X5256784Y-4068932D01*
X5219420Y-3912496D02*
X5219420Y-3969232D01*
X4865584Y-3604560D02*
X4930948Y-3604560D01*
X5219420Y-3893032D02*
X5219420Y-3912496D01*
X5256784Y-4068932D02*
X5249920Y-4075796D01*
X5219420Y-3969232D02*
X5256784Y-4006596D01*
X4930948Y-3604560D02*
X5219420Y-3893032D01*
D49*
X4345584Y-3164560D02*
X4345584Y-3185160D01*
X4342944Y-3118552D02*
X4345584Y-3121192D01*
X4345584Y-3121192D02*
X4345584Y-3164560D01*
X4310739Y-3122219D02*
X4310739Y-3118552D01*
X4284409Y-3148549D02*
X4310739Y-3122219D01*
X4310739Y-3118552D02*
X4342944Y-3118552D01*
X4219927Y-3148549D02*
X4284409Y-3148549D01*
X4214988Y-3143610D02*
X4219927Y-3148549D01*
X4909348Y-3684560D02*
X4939284Y-3714496D01*
X4939284Y-3714496D02*
X4939284Y-3727196D01*
X4856084Y-3810396D02*
X4856084Y-3883660D01*
X4865584Y-3684560D02*
X4909348Y-3684560D01*
X4939284Y-3727196D02*
X4856084Y-3810396D01*
D46*
X6495580Y-2964396D02*
X6495580Y-3033380D01*
X6215380Y-3184760D02*
X6215380Y-3159760D01*
X6545580Y-2965196D02*
X6545580Y-3033380D01*
X6215380Y-3093460D02*
X6215380Y-3108960D01*
X6215380Y-3159760D02*
X6189980Y-3134360D01*
X6215380Y-3108960D02*
X6189980Y-3134360D01*
X5344925Y-4053075D02*
X5384800Y-4013200D01*
X6520180Y-2939796D02*
X6545580Y-2965196D01*
X5344925Y-4104570D02*
X5344925Y-4053075D01*
X6520180Y-2939796D02*
X6495580Y-2964396D01*
D50*
X5827016Y-3485896D02*
X5897880Y-3556760D01*
X5217197Y-3404560D02*
X5235534Y-3422897D01*
X5472684Y-3371596D02*
X5586984Y-3485896D01*
X5235534Y-3422897D02*
X5294383Y-3422897D01*
X4865584Y-3404560D02*
X5217197Y-3404560D01*
X5294383Y-3422897D02*
X5345684Y-3371596D01*
X5586984Y-3485896D02*
X5827016Y-3485896D01*
X5345684Y-3371596D02*
X5472684Y-3371596D01*
D45*
X5834380Y-3629660D02*
X5834380Y-3629660D01*
X5770880Y-3556760D02*
X5770880Y-3578860D01*
X5821680Y-3629660D02*
X5834380Y-3629660D01*
X5770880Y-3578860D02*
X5821680Y-3629660D01*
D50*
X5256784Y-3371596D02*
X5244084Y-3384296D01*
X5256784Y-3371596D02*
X5249748Y-3364560D01*
X5249748Y-3364560D02*
X4865584Y-3364560D01*
X5525318Y-3602050D02*
X5598590Y-3602050D01*
X4865584Y-3444560D02*
X5190048Y-3444560D01*
X5598590Y-3602050D02*
X5643880Y-3556760D01*
X5190048Y-3444560D02*
X5347538Y-3602050D01*
X5347538Y-3602050D02*
X5525318Y-3602050D01*
D45*
X6088380Y-3020060D02*
X6088380Y-3020060D01*
X5567680Y-3223260D02*
X5567680Y-3223260D01*
D50*
X5502148Y-3223260D02*
X5567680Y-3223260D01*
D45*
X6085080Y-3016760D02*
X6088380Y-3020060D01*
D50*
X4999020Y-3324560D02*
X5110480Y-3213100D01*
X5110480Y-3213100D02*
X5491988Y-3213100D01*
X4865584Y-3324560D02*
X4999020Y-3324560D01*
D45*
X6024880Y-3016760D02*
X6085080Y-3016760D01*
D50*
X5491988Y-3213100D02*
X5502148Y-3223260D01*
X5099026Y-3185448D02*
X4999914Y-3284560D01*
X4999914Y-3284560D02*
X4865584Y-3284560D01*
D45*
X5535667Y-3168387D02*
X5535667Y-3172573D01*
D50*
X5522792Y-3185448D02*
X5099026Y-3185448D01*
D45*
X5867400Y-2933700D02*
X5842000Y-2933700D01*
X5897880Y-3016760D02*
X5849642Y-3064998D01*
X5849642Y-3064998D02*
X5847080Y-3064998D01*
X5897880Y-3016760D02*
X5897880Y-2964180D01*
D50*
X5535667Y-3172573D02*
X5522792Y-3185448D01*
D45*
X5897880Y-2964180D02*
X5867400Y-2933700D01*
D50*
X5000808Y-3244560D02*
X5087572Y-3157796D01*
X4865584Y-3244560D02*
X5000808Y-3244560D01*
X5589468Y-3091760D02*
X5695880Y-3091760D01*
D45*
X5695880Y-3091760D02*
X5770880Y-3016760D01*
D50*
X5087572Y-3157796D02*
X5488500Y-3157796D01*
X5517524Y-3128772D02*
X5552456Y-3128772D01*
X5488500Y-3157796D02*
X5517524Y-3128772D01*
X5552456Y-3128772D02*
X5589468Y-3091760D01*
X3542284Y-3231896D02*
X3516884Y-3257296D01*
X3542284Y-3168396D02*
X3542284Y-3231896D01*
X3581584Y-3129096D02*
X3542284Y-3168396D01*
X3593884Y-3129096D02*
X3581584Y-3129096D01*
X3386884Y-3257296D02*
X3302184Y-3172596D01*
X3516884Y-3257296D02*
X3386884Y-3257296D01*
X3555384Y-3079096D02*
X3593884Y-3079096D01*
X3452184Y-3172596D02*
X3474786Y-3172596D01*
X3523485Y-3110995D02*
X3555384Y-3079096D01*
X3523485Y-3123897D02*
X3523485Y-3110995D01*
X3474786Y-3172596D02*
X3523485Y-3123897D01*
X3593884Y-3029096D02*
X3485684Y-3029096D01*
X3485684Y-3029096D02*
X3452184Y-3062596D01*
X3873201Y-2975961D02*
X3854228Y-2994935D01*
D49*
X4625584Y-3109092D02*
X4545188Y-3028696D01*
X4625584Y-3164560D02*
X4625584Y-3109092D01*
X4625584Y-3164560D02*
X4625584Y-3124088D01*
D50*
X3854228Y-2994935D02*
X3825893Y-2994935D01*
X3825893Y-2994935D02*
X3741732Y-3079096D01*
D49*
X4545188Y-3028696D02*
X4313667Y-3028696D01*
D50*
X3741732Y-3079096D02*
X3693884Y-3079096D01*
D49*
X4313667Y-3028696D02*
X4297284Y-3012313D01*
X4545188Y-2977896D02*
X4665584Y-3098292D01*
D50*
X3758184Y-2965196D02*
X3770884Y-2952496D01*
X3758184Y-3002496D02*
X3758184Y-2965196D01*
D49*
X4665584Y-3098292D02*
X4665584Y-3164560D01*
D50*
X3693884Y-3029096D02*
X3731584Y-3029096D01*
X3731584Y-3029096D02*
X3758184Y-3002496D01*
D49*
X4367388Y-2977896D02*
X4545188Y-2977896D01*
D50*
X3733984Y-3129096D02*
X3693884Y-3129096D01*
D49*
X4259672Y-3058648D02*
X4246484Y-3045460D01*
D50*
X3847143Y-3066796D02*
X3796284Y-3066796D01*
D49*
X4585584Y-3164560D02*
X4585584Y-3111451D01*
D50*
X3796284Y-3066796D02*
X3733984Y-3129096D01*
D49*
X4532781Y-3058648D02*
X4259672Y-3058648D01*
D50*
X3847143Y-3066796D02*
X3847084Y-3066737D01*
D49*
X4585584Y-3111451D02*
X4532781Y-3058648D01*
D46*
X6787955Y-3305635D02*
X6802380Y-3320060D01*
X6691806Y-3305635D02*
X6787955Y-3305635D01*
X6730371Y-3255460D02*
X6794971Y-3320060D01*
X6667660Y-3255460D02*
X6730371Y-3255460D01*
X6794971Y-3320060D02*
X6802380Y-3320060D01*
D45*
X6482080Y-3451860D02*
X6507480Y-3426460D01*
D46*
X6892280Y-3965960D02*
X6926580Y-3931660D01*
X6545580Y-3623960D02*
X6545580Y-3413760D01*
X5379688Y-3733800D02*
X5336784Y-3690896D01*
X6532880Y-3426460D02*
X6507480Y-3426460D01*
X5511800Y-3733800D02*
X5379688Y-3733800D01*
X6507480Y-3426460D02*
X6495580Y-3414560D01*
X6643080Y-3904460D02*
X6643080Y-3721460D01*
X6545580Y-3413760D02*
X6520180Y-3413760D01*
X6782580Y-3965960D02*
X6892280Y-3965960D01*
X6704580Y-3965960D02*
X6643080Y-3904460D01*
X6782580Y-3965960D02*
X6704580Y-3965960D01*
D45*
X6482080Y-3489760D02*
X6482080Y-3451860D01*
D46*
X6520180Y-3413760D02*
X6507480Y-3426460D01*
X6757180Y-3978660D02*
X6816080Y-3978660D01*
X6643080Y-3721460D02*
X6545580Y-3623960D01*
X6495580Y-3414560D02*
X6495580Y-3327540D01*
D51*
X6545580Y-3324210D02*
X6545580Y-3413760D01*
D46*
X6373500Y-3155460D02*
X6307867Y-3155460D01*
D51*
X6545580Y-3413760D02*
X6532880Y-3426460D01*
D49*
X4705584Y-3067284D02*
X4705584Y-3164560D01*
X4610100Y-2971800D02*
X4705584Y-3067284D01*
X4745584Y-3064916D02*
X4745584Y-3164560D01*
X4813300Y-2997200D02*
X4745584Y-3064916D01*
D46*
X6346184Y-3729996D02*
X6298184Y-3777996D01*
D45*
X6030080Y-3921760D02*
X5991980Y-3959860D01*
X5891984Y-4063777D02*
X5904143Y-4075936D01*
X5891984Y-3959860D02*
X5891984Y-4063777D01*
D46*
X6425184Y-3729996D02*
X6346184Y-3729996D01*
X6264580Y-3859860D02*
X6264580Y-3921760D01*
X6298184Y-3777996D02*
X6298184Y-3826256D01*
D45*
X5991980Y-3959860D02*
X5891984Y-3959860D01*
D46*
X6298184Y-3826256D02*
X6264580Y-3859860D01*
D45*
X6264580Y-3921760D02*
X6030080Y-3921760D01*
D46*
X6758035Y-3775960D02*
X6700502Y-3718427D01*
X6782580Y-3775960D02*
X6758035Y-3775960D01*
D50*
X6047866Y-3810046D02*
X6064580Y-3826760D01*
D49*
X4316588Y-3943296D02*
X4316588Y-4042156D01*
D45*
X6033520Y-3826760D02*
X6064580Y-3826760D01*
D50*
X5901898Y-3756660D02*
X5955284Y-3810046D01*
X5888984Y-3756660D02*
X5901898Y-3756660D01*
X5889484Y-3858260D02*
X5907070Y-3858260D01*
X5907070Y-3858260D02*
X5955284Y-3810046D01*
X5955284Y-3810046D02*
X6047866Y-3810046D01*
D49*
X4316588Y-4042156D02*
X4309984Y-4048760D01*
D45*
X4995784Y-3528060D02*
X4995784Y-3528060D01*
X6215380Y-3286760D02*
X6215380Y-3337560D01*
D46*
X6215380Y-3337560D02*
X6113780Y-3337560D01*
D45*
X4865584Y-3524560D02*
X4992284Y-3524560D01*
D46*
X6215380Y-3388160D02*
X6215380Y-3337560D01*
D45*
X4992284Y-3524560D02*
X4995784Y-3528060D01*
D49*
X4394200Y-3993276D02*
X4436984Y-4036060D01*
X4425584Y-3797054D02*
X4394200Y-3828438D01*
X4425584Y-3764560D02*
X4425584Y-3797054D01*
X4394200Y-3828438D02*
X4394200Y-3993276D01*
D45*
X5777484Y-3959860D02*
X5701284Y-4036060D01*
D49*
X4081988Y-4042264D02*
X4088484Y-4048760D01*
D45*
X4151488Y-3676396D02*
X4151488Y-3852260D01*
X4151488Y-3852260D02*
X4081988Y-3921760D01*
D49*
X4081988Y-3921760D02*
X4081988Y-4042264D01*
D45*
X4183324Y-3644560D02*
X4151488Y-3676396D01*
X4261484Y-3644560D02*
X4183324Y-3644560D01*
X4083624Y-3604560D02*
X3979688Y-3708496D01*
X3921584Y-3776760D02*
X3890884Y-3807460D01*
X3890884Y-3807460D02*
X3890884Y-3838460D01*
X3979688Y-3708496D02*
X3979688Y-3776760D01*
X4265584Y-3604560D02*
X4083624Y-3604560D01*
X3979688Y-3776760D02*
X3921584Y-3776760D01*
X4214784Y-3444560D02*
X4093884Y-3444560D01*
D48*
X4063084Y-3319260D02*
X4055984Y-3312160D01*
X4063084Y-3413760D02*
X4063084Y-3319260D01*
D45*
X4265584Y-3444560D02*
X4264584Y-3444560D01*
X4093884Y-3444560D02*
X4063084Y-3413760D01*
X4264584Y-3444560D02*
X4093884Y-3444560D01*
D51*
X3336784Y-3981196D02*
X3468884Y-3981196D01*
X3544984Y-3460596D02*
X3415284Y-3590296D01*
X3415284Y-3590296D02*
X3415284Y-3981196D01*
D46*
X6441630Y-3632210D02*
X6482080Y-3591760D01*
X6355080Y-3632210D02*
X6441630Y-3632210D01*
X6445580Y-3324210D02*
X6445580Y-3384210D01*
X6445580Y-3384210D02*
X6355080Y-3474710D01*
X6720300Y-3105460D02*
X6744879Y-3130039D01*
X6744879Y-3170609D02*
X6788730Y-3214460D01*
X6667660Y-3105460D02*
X6720300Y-3105460D01*
X6788730Y-3214460D02*
X6799380Y-3214460D01*
X6744879Y-3130039D02*
X6744879Y-3170609D01*
X6602984Y-2952496D02*
X6595580Y-2959900D01*
X6643116Y-2952496D02*
X6602984Y-2952496D01*
X6799380Y-3112860D02*
X6799380Y-3108760D01*
X6799380Y-3108760D02*
X6643116Y-2952496D01*
X6595580Y-2959900D02*
X6595580Y-3033380D01*
X6888280Y-3413560D02*
X6926580Y-3413560D01*
X6621780Y-3388360D02*
X6863080Y-3388360D01*
X6595580Y-3327540D02*
X6595580Y-3362160D01*
X6595580Y-3362160D02*
X6621780Y-3388360D01*
X6863080Y-3388360D02*
X6888280Y-3413560D01*
D48*
X4055984Y-3216160D02*
X4055984Y-3045460D01*
X3954384Y-3210560D02*
X4050384Y-3210560D01*
X4050384Y-3210560D02*
X4055984Y-3216160D01*
D45*
X4055984Y-3216160D02*
X4055984Y-3070860D01*
D50*
X3662890Y-3868931D02*
X3643884Y-3849925D01*
X3643884Y-3849925D02*
X3643884Y-3724496D01*
D49*
X4505584Y-3820550D02*
X4505584Y-3764560D01*
D50*
X3643884Y-3724496D02*
X3544984Y-3625596D01*
D49*
X4520866Y-3835832D02*
X4505584Y-3820550D01*
X4265788Y-3103599D02*
X4280787Y-3088600D01*
X4465584Y-3132065D02*
X4465584Y-3164560D01*
X4422119Y-3088600D02*
X4465584Y-3132065D01*
X4280787Y-3088600D02*
X4422119Y-3088600D01*
X4545584Y-3117992D02*
X4519788Y-3092196D01*
X4545584Y-3164560D02*
X4545584Y-3117992D01*
X4505584Y-3164560D02*
X4505584Y-3128792D01*
X4505584Y-3128792D02*
X4468988Y-3092196D01*
X4545584Y-3797501D02*
X4548333Y-3800251D01*
X4545584Y-3764560D02*
X4545584Y-3797501D01*
X4585584Y-3764560D02*
X4585584Y-3816289D01*
X4585584Y-3816289D02*
X4585584Y-3834516D01*
X4626187Y-3765163D02*
X4626187Y-3822700D01*
X4625584Y-3764560D02*
X4626187Y-3765163D01*
X4626187Y-3822700D02*
X4626187Y-3844713D01*
X4745584Y-3831600D02*
X4710288Y-3866896D01*
X4745584Y-3764560D02*
X4745584Y-3831600D01*
X4345584Y-3812300D02*
X4316588Y-3841296D01*
X4345584Y-3764560D02*
X4345584Y-3812300D01*
D46*
X6064580Y-4016760D02*
X6062980Y-4016760D01*
G04 #@! TA.AperFunction,Conductor*
G36*
X6677618Y-2909378D02*
G01*
X6681229Y-2909780D01*
X6682024Y-2909898D01*
X6723328Y-2917612D01*
X6724110Y-2917788D01*
X6764731Y-2928528D01*
X6765500Y-2928762D01*
X6777136Y-2932778D01*
X6805217Y-2942470D01*
X6805967Y-2942760D01*
X6844564Y-2959361D01*
X6845290Y-2959705D01*
X6882558Y-2979109D01*
X6883257Y-2979506D01*
X6901178Y-2990590D01*
X6918991Y-3001607D01*
X6919659Y-3002055D01*
X6928046Y-3008141D01*
X6953665Y-3026731D01*
X6954297Y-3027227D01*
X6986095Y-3054096D01*
X6986390Y-3054345D01*
X6986983Y-3054886D01*
X7016989Y-3084299D01*
X7017541Y-3084883D01*
X7045294Y-3116429D01*
X7045802Y-3117053D01*
X7067136Y-3145253D01*
X7069211Y-3150139D01*
X7075871Y-3192588D01*
X7076098Y-3194034D01*
X7076230Y-3195724D01*
X7076230Y-3877641D01*
X7076059Y-3879566D01*
X7070011Y-3913261D01*
X7069388Y-3916731D01*
X7067353Y-3921381D01*
X7054943Y-3937785D01*
X7047723Y-3947328D01*
X7045802Y-3949868D01*
X7045293Y-3950491D01*
X7041671Y-3954609D01*
X7017541Y-3982037D01*
X7016989Y-3982620D01*
X6986983Y-4012034D01*
X6986390Y-4012574D01*
X6954337Y-4039660D01*
X6954298Y-4039693D01*
X6953665Y-4040189D01*
X6933207Y-4055034D01*
X6919659Y-4064865D01*
X6918991Y-4065313D01*
X6908484Y-4071812D01*
X6883543Y-4087237D01*
X6883257Y-4087413D01*
X6882558Y-4087811D01*
X6847199Y-4106221D01*
X6845291Y-4107214D01*
X6844564Y-4107559D01*
X6805967Y-4124159D01*
X6805217Y-4124450D01*
X6793692Y-4128428D01*
X6765500Y-4138158D01*
X6764731Y-4138392D01*
X6724110Y-4149132D01*
X6723328Y-4149308D01*
X6682024Y-4157022D01*
X6681230Y-4157140D01*
X6639471Y-4161785D01*
X6638670Y-4161844D01*
X6599683Y-4163284D01*
X6598491Y-4163171D01*
X6597512Y-4163169D01*
X6596316Y-4162894D01*
X6595119Y-4163165D01*
X6595011Y-4163165D01*
X6592820Y-4163410D01*
X5638361Y-4163410D01*
X5631954Y-4161328D01*
X5627994Y-4155878D01*
X5627994Y-4149142D01*
X5631954Y-4143692D01*
X5632779Y-4143147D01*
X5633797Y-4142541D01*
X5634706Y-4141502D01*
X5634189Y-4140567D01*
X5589221Y-4095598D01*
X5587912Y-4094932D01*
X5587358Y-4095019D01*
X5542113Y-4140265D01*
X5541453Y-4141561D01*
X5542085Y-4142266D01*
X5543802Y-4143389D01*
X5548023Y-4148639D01*
X5548352Y-4155368D01*
X5544664Y-4161005D01*
X5537834Y-4163410D01*
X5383232Y-4163410D01*
X5376825Y-4161328D01*
X5372866Y-4155878D01*
X5372866Y-4149142D01*
X5376270Y-4144123D01*
X5376562Y-4143881D01*
X5377224Y-4143474D01*
X5378993Y-4141520D01*
X5386324Y-4133421D01*
X5386845Y-4132845D01*
X5393096Y-4119943D01*
X5394895Y-4109249D01*
X5395404Y-4106221D01*
X5395404Y-4106221D01*
X5395474Y-4105805D01*
X5395489Y-4104570D01*
X5393868Y-4093247D01*
X5395020Y-4086609D01*
X5399854Y-4081917D01*
X5402224Y-4081077D01*
X5404269Y-4080608D01*
X5408703Y-4079593D01*
X5415484Y-4076182D01*
X5507561Y-4076182D01*
X5509194Y-4092832D01*
X5509445Y-4094016D01*
X5514726Y-4109890D01*
X5515234Y-4110990D01*
X5522185Y-4122467D01*
X5523239Y-4123377D01*
X5524155Y-4122867D01*
X5569102Y-4077921D01*
X5569768Y-4076612D01*
X5569681Y-4076058D01*
X5524414Y-4030792D01*
X5523129Y-4030137D01*
X5522411Y-4030785D01*
X5516220Y-4040392D01*
X5515681Y-4041476D01*
X5509960Y-4057197D01*
X5509675Y-4058375D01*
X5507578Y-4074971D01*
X5507561Y-4076182D01*
X5415484Y-4076182D01*
X5417892Y-4074971D01*
X5423263Y-4072270D01*
X5423263Y-4072270D01*
X5423850Y-4071975D01*
X5433737Y-4063530D01*
X5436243Y-4061390D01*
X5436243Y-4061390D01*
X5436742Y-4060963D01*
X5446636Y-4047195D01*
X5447746Y-4044434D01*
X5452715Y-4032073D01*
X5452715Y-4032072D01*
X5452960Y-4031463D01*
X5455349Y-4014678D01*
X5455365Y-4013200D01*
X5455217Y-4011978D01*
X5541349Y-4011978D01*
X5541852Y-4012874D01*
X5586779Y-4057802D01*
X5588088Y-4058468D01*
X5588642Y-4058381D01*
X5633933Y-4013090D01*
X5634582Y-4011815D01*
X5633917Y-4011084D01*
X5623806Y-4004668D01*
X5622717Y-4004137D01*
X5606958Y-3998525D01*
X5605778Y-3998249D01*
X5589167Y-3996268D01*
X5587956Y-3996259D01*
X5571319Y-3998008D01*
X5570135Y-3998268D01*
X5554299Y-4003659D01*
X5553203Y-4004175D01*
X5542260Y-4010907D01*
X5541349Y-4011978D01*
X5455217Y-4011978D01*
X5453328Y-3996368D01*
X5453095Y-3995753D01*
X5453095Y-3995753D01*
X5447913Y-3982037D01*
X5447335Y-3980508D01*
X5443402Y-3974785D01*
X5438103Y-3967076D01*
X5438103Y-3967076D01*
X5437731Y-3966535D01*
X5437241Y-3966098D01*
X5437241Y-3966098D01*
X5425563Y-3955693D01*
X5425563Y-3955693D01*
X5425072Y-3955256D01*
X5424492Y-3954949D01*
X5424491Y-3954948D01*
X5419236Y-3952166D01*
X5414548Y-3947328D01*
X5413599Y-3940659D01*
X5416751Y-3934705D01*
X5422801Y-3931742D01*
X5425038Y-3931655D01*
X5426533Y-3931752D01*
X5427381Y-3931504D01*
X5428357Y-3931450D01*
X5494264Y-3931450D01*
X5500671Y-3933532D01*
X5503312Y-3936270D01*
X5509183Y-3945008D01*
X5509669Y-3945450D01*
X5509669Y-3945450D01*
X5521237Y-3955977D01*
X5521723Y-3956419D01*
X5522301Y-3956733D01*
X5536046Y-3964196D01*
X5536047Y-3964196D01*
X5536624Y-3964509D01*
X5537259Y-3964676D01*
X5537259Y-3964676D01*
X5548761Y-3967693D01*
X5553023Y-3968812D01*
X5560078Y-3968922D01*
X5569319Y-3969068D01*
X5569319Y-3969068D01*
X5569976Y-3969078D01*
X5570616Y-3968931D01*
X5570617Y-3968931D01*
X5581080Y-3966535D01*
X5586503Y-3965293D01*
X5595580Y-3960728D01*
X5601062Y-3957970D01*
X5601063Y-3957970D01*
X5601650Y-3957675D01*
X5614542Y-3946663D01*
X5622742Y-3935253D01*
X5624053Y-3933428D01*
X5624436Y-3932895D01*
X5626378Y-3928064D01*
X5630515Y-3917773D01*
X5630515Y-3917772D01*
X5630760Y-3917163D01*
X5633149Y-3900378D01*
X5633164Y-3898900D01*
X5631128Y-3882068D01*
X5630895Y-3881453D01*
X5630895Y-3881453D01*
X5625886Y-3868197D01*
X5625134Y-3866208D01*
X5618430Y-3856452D01*
X5615903Y-3852776D01*
X5615903Y-3852776D01*
X5615531Y-3852235D01*
X5615041Y-3851798D01*
X5615041Y-3851798D01*
X5606327Y-3844034D01*
X5732984Y-3844034D01*
X5733438Y-3845430D01*
X5733892Y-3845760D01*
X5778258Y-3845760D01*
X5779654Y-3845306D01*
X5779984Y-3844852D01*
X5779984Y-3795417D01*
X5780118Y-3793712D01*
X5780484Y-3791402D01*
X5780484Y-3770886D01*
X5780030Y-3769490D01*
X5779576Y-3769160D01*
X5736710Y-3769160D01*
X5735314Y-3769614D01*
X5734984Y-3770068D01*
X5734984Y-3778661D01*
X5735008Y-3779172D01*
X5735213Y-3781336D01*
X5735495Y-3782625D01*
X5739389Y-3793713D01*
X5740143Y-3795136D01*
X5743278Y-3799381D01*
X5745410Y-3805772D01*
X5743278Y-3812333D01*
X5738223Y-3819178D01*
X5737469Y-3820603D01*
X5733500Y-3831903D01*
X5733217Y-3833192D01*
X5733008Y-3835406D01*
X5732984Y-3835920D01*
X5732984Y-3844034D01*
X5606327Y-3844034D01*
X5603363Y-3841393D01*
X5603362Y-3841393D01*
X5602872Y-3840956D01*
X5587888Y-3833022D01*
X5587251Y-3832862D01*
X5587251Y-3832862D01*
X5572081Y-3829052D01*
X5572081Y-3829052D01*
X5571444Y-3828892D01*
X5562915Y-3828847D01*
X5555146Y-3828806D01*
X5555146Y-3828806D01*
X5554490Y-3828803D01*
X5538003Y-3832761D01*
X5537419Y-3833063D01*
X5537419Y-3833063D01*
X5530306Y-3836734D01*
X5522937Y-3840537D01*
X5522442Y-3840969D01*
X5522442Y-3840969D01*
X5510719Y-3851196D01*
X5510160Y-3851683D01*
X5503325Y-3861409D01*
X5503108Y-3861718D01*
X5497721Y-3865762D01*
X5494190Y-3866350D01*
X5443446Y-3866350D01*
X5437039Y-3864268D01*
X5433495Y-3859234D01*
X5433332Y-3859308D01*
X5433063Y-3858716D01*
X5427398Y-3846257D01*
X5418040Y-3835396D01*
X5406010Y-3827598D01*
X5401450Y-3826235D01*
X5393018Y-3823713D01*
X5393018Y-3823713D01*
X5392274Y-3823491D01*
X5385106Y-3823447D01*
X5378714Y-3823408D01*
X5378714Y-3823408D01*
X5377938Y-3823403D01*
X5377191Y-3823616D01*
X5377191Y-3823616D01*
X5364899Y-3827129D01*
X5364899Y-3827129D01*
X5364153Y-3827343D01*
X5363496Y-3827757D01*
X5353957Y-3833776D01*
X5352028Y-3834993D01*
X5342538Y-3845739D01*
X5342208Y-3846442D01*
X5342208Y-3846442D01*
X5336775Y-3858013D01*
X5336775Y-3858013D01*
X5336445Y-3858716D01*
X5336325Y-3859484D01*
X5334728Y-3869745D01*
X5334239Y-3872882D01*
X5336098Y-3887098D01*
X5341872Y-3900220D01*
X5342371Y-3900814D01*
X5342372Y-3900815D01*
X5350598Y-3910601D01*
X5351097Y-3911195D01*
X5363031Y-3919139D01*
X5363772Y-3919370D01*
X5363773Y-3919371D01*
X5371612Y-3921820D01*
X5374156Y-3922614D01*
X5374633Y-3922763D01*
X5380127Y-3926661D01*
X5382282Y-3933044D01*
X5380273Y-3939474D01*
X5374868Y-3943495D01*
X5373927Y-3943766D01*
X5360843Y-3946908D01*
X5360842Y-3946908D01*
X5360203Y-3947061D01*
X5359619Y-3947363D01*
X5359619Y-3947363D01*
X5358641Y-3947868D01*
X5345137Y-3954837D01*
X5344642Y-3955269D01*
X5344642Y-3955269D01*
X5333152Y-3965293D01*
X5332360Y-3965983D01*
X5331609Y-3967052D01*
X5323023Y-3979268D01*
X5322611Y-3979855D01*
X5319708Y-3987301D01*
X5316691Y-3995039D01*
X5316691Y-3995039D01*
X5316452Y-3995651D01*
X5316367Y-3996303D01*
X5316342Y-3996401D01*
X5312732Y-4002088D01*
X5306468Y-4004568D01*
X5299943Y-4002893D01*
X5295649Y-3997702D01*
X5294884Y-3993690D01*
X5294884Y-3816096D01*
X5293977Y-3816096D01*
X5293963Y-3816086D01*
X5293402Y-3815997D01*
X5287400Y-3812939D01*
X5286044Y-3811287D01*
X5284472Y-3808933D01*
X5283875Y-3808041D01*
X5282437Y-3807080D01*
X5278136Y-3804206D01*
X5278136Y-3804206D01*
X5277243Y-3803609D01*
X5274422Y-3803048D01*
X5271919Y-3802550D01*
X5271919Y-3802550D01*
X5271395Y-3802446D01*
X5170684Y-3802446D01*
X5164277Y-3800364D01*
X5162977Y-3799253D01*
X5138277Y-3774553D01*
X5135218Y-3768551D01*
X5136272Y-3761897D01*
X5141036Y-3757134D01*
X5145984Y-3755946D01*
X5228759Y-3755946D01*
X5229283Y-3755842D01*
X5229283Y-3755842D01*
X5231786Y-3755344D01*
X5234607Y-3754783D01*
X5235979Y-3753866D01*
X5240347Y-3750948D01*
X5241239Y-3750351D01*
X5243439Y-3747058D01*
X5245074Y-3744612D01*
X5245074Y-3744612D01*
X5245671Y-3743719D01*
X5246093Y-3741594D01*
X5249385Y-3735716D01*
X5255503Y-3732896D01*
X5262110Y-3734210D01*
X5266683Y-3739157D01*
X5267475Y-3741594D01*
X5267897Y-3743719D01*
X5268494Y-3744612D01*
X5268494Y-3744612D01*
X5270129Y-3747058D01*
X5272329Y-3750351D01*
X5273222Y-3750948D01*
X5277590Y-3753866D01*
X5278961Y-3754783D01*
X5281782Y-3755344D01*
X5284285Y-3755842D01*
X5284285Y-3755842D01*
X5284809Y-3755946D01*
X5350951Y-3755946D01*
X5357358Y-3758028D01*
X5357848Y-3758410D01*
X5358443Y-3759119D01*
X5361771Y-3761041D01*
X5362572Y-3761551D01*
X5363992Y-3762546D01*
X5365720Y-3763755D01*
X5366641Y-3764002D01*
X5367091Y-3764212D01*
X5367558Y-3764382D01*
X5368384Y-3764859D01*
X5371499Y-3765408D01*
X5372168Y-3765526D01*
X5373095Y-3765732D01*
X5376807Y-3766726D01*
X5377757Y-3766643D01*
X5379628Y-3766479D01*
X5380634Y-3766391D01*
X5381584Y-3766350D01*
X5443464Y-3766350D01*
X5449871Y-3768432D01*
X5452512Y-3771170D01*
X5458383Y-3779908D01*
X5458869Y-3780350D01*
X5458869Y-3780350D01*
X5470409Y-3790851D01*
X5470923Y-3791319D01*
X5471501Y-3791633D01*
X5485246Y-3799096D01*
X5485247Y-3799096D01*
X5485824Y-3799409D01*
X5486459Y-3799576D01*
X5486459Y-3799576D01*
X5497399Y-3802446D01*
X5502223Y-3803712D01*
X5509278Y-3803822D01*
X5518519Y-3803968D01*
X5518519Y-3803968D01*
X5519176Y-3803978D01*
X5519816Y-3803831D01*
X5519817Y-3803831D01*
X5529528Y-3801607D01*
X5535703Y-3800193D01*
X5545199Y-3795417D01*
X5550263Y-3792870D01*
X5550263Y-3792870D01*
X5550850Y-3792575D01*
X5561304Y-3783646D01*
X5563243Y-3781990D01*
X5563243Y-3781990D01*
X5563742Y-3781563D01*
X5573636Y-3767795D01*
X5574397Y-3765903D01*
X5579715Y-3752673D01*
X5579715Y-3752672D01*
X5579960Y-3752063D01*
X5581331Y-3742434D01*
X5734984Y-3742434D01*
X5735438Y-3743830D01*
X5735892Y-3744160D01*
X5778758Y-3744160D01*
X5780154Y-3743706D01*
X5780484Y-3743252D01*
X5780484Y-3697386D01*
X5780030Y-3695990D01*
X5779576Y-3695660D01*
X5773982Y-3695660D01*
X5773472Y-3695684D01*
X5771307Y-3695889D01*
X5770019Y-3696171D01*
X5758931Y-3700065D01*
X5757507Y-3700819D01*
X5748176Y-3707712D01*
X5747036Y-3708852D01*
X5740143Y-3718183D01*
X5739389Y-3719607D01*
X5735495Y-3730695D01*
X5735213Y-3731984D01*
X5735008Y-3734146D01*
X5734984Y-3734660D01*
X5734984Y-3742434D01*
X5581331Y-3742434D01*
X5582349Y-3735278D01*
X5582365Y-3733800D01*
X5580328Y-3716968D01*
X5580095Y-3716353D01*
X5580095Y-3716353D01*
X5575308Y-3703685D01*
X5574335Y-3701108D01*
X5570342Y-3695299D01*
X5565103Y-3687676D01*
X5565103Y-3687676D01*
X5564731Y-3687135D01*
X5564241Y-3686698D01*
X5564241Y-3686698D01*
X5552563Y-3676293D01*
X5552563Y-3676293D01*
X5552072Y-3675856D01*
X5551492Y-3675549D01*
X5551491Y-3675548D01*
X5540005Y-3669467D01*
X5535317Y-3664629D01*
X5534368Y-3657960D01*
X5537520Y-3652006D01*
X5542239Y-3649318D01*
X5545400Y-3648456D01*
X5557618Y-3640954D01*
X5560357Y-3637928D01*
X5565691Y-3632035D01*
X5571534Y-3628682D01*
X5573772Y-3628450D01*
X5594916Y-3628450D01*
X5597043Y-3628659D01*
X5597537Y-3628758D01*
X5597537Y-3628758D01*
X5598590Y-3628967D01*
X5599643Y-3628758D01*
X5600138Y-3628659D01*
X5601190Y-3628450D01*
X5608891Y-3626918D01*
X5617623Y-3621083D01*
X5618500Y-3619771D01*
X5619855Y-3618120D01*
X5620473Y-3617502D01*
X5626475Y-3614444D01*
X5628180Y-3614310D01*
X5648199Y-3614310D01*
X5660194Y-3614310D01*
X5664934Y-3613686D01*
X5665690Y-3613334D01*
X5665690Y-3613333D01*
X5671772Y-3610497D01*
X5675338Y-3608835D01*
X5683455Y-3600718D01*
X5688306Y-3590314D01*
X5688520Y-3588688D01*
X5688883Y-3585927D01*
X5688883Y-3585927D01*
X5688930Y-3585574D01*
X5688930Y-3527946D01*
X5688702Y-3526212D01*
X5688492Y-3524618D01*
X5689720Y-3517995D01*
X5694606Y-3513358D01*
X5699299Y-3512296D01*
X5715461Y-3512296D01*
X5721868Y-3514378D01*
X5725828Y-3519828D01*
X5726268Y-3524619D01*
X5725877Y-3527592D01*
X5725876Y-3527593D01*
X5725830Y-3527946D01*
X5725830Y-3585574D01*
X5726454Y-3590314D01*
X5726806Y-3591070D01*
X5726806Y-3591070D01*
X5728439Y-3594571D01*
X5731305Y-3600718D01*
X5739422Y-3608835D01*
X5749825Y-3613686D01*
X5750652Y-3613795D01*
X5750652Y-3613795D01*
X5754213Y-3614263D01*
X5754213Y-3614263D01*
X5754566Y-3614310D01*
X5759318Y-3614310D01*
X5765725Y-3616392D01*
X5767025Y-3617502D01*
X5793135Y-3643612D01*
X5795140Y-3646371D01*
X5799527Y-3654982D01*
X5809058Y-3664513D01*
X5809822Y-3664902D01*
X5809822Y-3664902D01*
X5810631Y-3665314D01*
X5821067Y-3670632D01*
X5821915Y-3670766D01*
X5821915Y-3670766D01*
X5833533Y-3672606D01*
X5834380Y-3672740D01*
X5835227Y-3672606D01*
X5846845Y-3670766D01*
X5846845Y-3670766D01*
X5847693Y-3670632D01*
X5858129Y-3665314D01*
X5858938Y-3664902D01*
X5858938Y-3664902D01*
X5859702Y-3664513D01*
X5869233Y-3654982D01*
X5869622Y-3654218D01*
X5872024Y-3649504D01*
X5875352Y-3642973D01*
X5875486Y-3642125D01*
X5875486Y-3642125D01*
X5877326Y-3630507D01*
X5877460Y-3629660D01*
X5877026Y-3626915D01*
X5878079Y-3620262D01*
X5882843Y-3615498D01*
X5887791Y-3614310D01*
X5912424Y-3614310D01*
X5914194Y-3614310D01*
X5918934Y-3613686D01*
X5919690Y-3613334D01*
X5919690Y-3613333D01*
X5925772Y-3610497D01*
X5929338Y-3608835D01*
X5937455Y-3600718D01*
X5942306Y-3590314D01*
X5942520Y-3588688D01*
X5942883Y-3585927D01*
X5942883Y-3585927D01*
X5942930Y-3585574D01*
X5942930Y-3527946D01*
X5942306Y-3523205D01*
X5941953Y-3522449D01*
X5938529Y-3515106D01*
X5937455Y-3512802D01*
X5930020Y-3505367D01*
X5926962Y-3499365D01*
X5928016Y-3492711D01*
X5932779Y-3487948D01*
X5937728Y-3486760D01*
X5985032Y-3486760D01*
X5991439Y-3488842D01*
X5995399Y-3494292D01*
X5995399Y-3501028D01*
X5992740Y-3505367D01*
X5985305Y-3512802D01*
X5980454Y-3523205D01*
X5980345Y-3524032D01*
X5980345Y-3524032D01*
X5979876Y-3527593D01*
X5979830Y-3527946D01*
X5979830Y-3585574D01*
X5980454Y-3590314D01*
X5980806Y-3591070D01*
X5980806Y-3591070D01*
X5982439Y-3594571D01*
X5985305Y-3600718D01*
X5993030Y-3608443D01*
X5996088Y-3614445D01*
X5995035Y-3621099D01*
X5991799Y-3624918D01*
X5982872Y-3631512D01*
X5981732Y-3632652D01*
X5974839Y-3641983D01*
X5974085Y-3643407D01*
X5970191Y-3654495D01*
X5969909Y-3655784D01*
X5969704Y-3657946D01*
X5969680Y-3658460D01*
X5969680Y-3666234D01*
X5970134Y-3667630D01*
X5970588Y-3667960D01*
X6029280Y-3667960D01*
X6035687Y-3670042D01*
X6039646Y-3675492D01*
X6040180Y-3678860D01*
X6040180Y-3739734D01*
X6040634Y-3741130D01*
X6041088Y-3741460D01*
X6046681Y-3741460D01*
X6047192Y-3741436D01*
X6049356Y-3741231D01*
X6050645Y-3740949D01*
X6061733Y-3737055D01*
X6063157Y-3736301D01*
X6072488Y-3729408D01*
X6073629Y-3728268D01*
X6074152Y-3727559D01*
X6079633Y-3723643D01*
X6086369Y-3723696D01*
X6089172Y-3725106D01*
X6089174Y-3725108D01*
X6089848Y-3725782D01*
X6100731Y-3730857D01*
X6101558Y-3730966D01*
X6101558Y-3730966D01*
X6105336Y-3731463D01*
X6105337Y-3731463D01*
X6105690Y-3731510D01*
X6123675Y-3731510D01*
X6141670Y-3731510D01*
X6146629Y-3730857D01*
X6147384Y-3730505D01*
X6147384Y-3730505D01*
X6152596Y-3728075D01*
X6157512Y-3725782D01*
X6162391Y-3720902D01*
X6168394Y-3717844D01*
X6170099Y-3717710D01*
X6184855Y-3717710D01*
X6190874Y-3719608D01*
X6191248Y-3719982D01*
X6192112Y-3720385D01*
X6192113Y-3720385D01*
X6194135Y-3721328D01*
X6202131Y-3725057D01*
X6202958Y-3725166D01*
X6202958Y-3725166D01*
X6206736Y-3725663D01*
X6206737Y-3725663D01*
X6207090Y-3725710D01*
X6228074Y-3725710D01*
X6249070Y-3725710D01*
X6252467Y-3725263D01*
X6259091Y-3726490D01*
X6263728Y-3731377D01*
X6264607Y-3738056D01*
X6262060Y-3743285D01*
X6255922Y-3750235D01*
X6255592Y-3750938D01*
X6255592Y-3750938D01*
X6250159Y-3762509D01*
X6250159Y-3762509D01*
X6249829Y-3763212D01*
X6249709Y-3763980D01*
X6247756Y-3776528D01*
X6247623Y-3777378D01*
X6249482Y-3791594D01*
X6255256Y-3804716D01*
X6255755Y-3805311D01*
X6255756Y-3805311D01*
X6257243Y-3807080D01*
X6259772Y-3813323D01*
X6258148Y-3819861D01*
X6256606Y-3821801D01*
X6242904Y-3835503D01*
X6242204Y-3836144D01*
X6239261Y-3838614D01*
X6237339Y-3841943D01*
X6236829Y-3842744D01*
X6234625Y-3845892D01*
X6234378Y-3846813D01*
X6234168Y-3847262D01*
X6233998Y-3847730D01*
X6233521Y-3848555D01*
X6233356Y-3849495D01*
X6232854Y-3852339D01*
X6232648Y-3853267D01*
X6232601Y-3853444D01*
X6232550Y-3853632D01*
X6228881Y-3859282D01*
X6222022Y-3861710D01*
X6217605Y-3861710D01*
X6217081Y-3861814D01*
X6217081Y-3861814D01*
X6214578Y-3862312D01*
X6211757Y-3862873D01*
X6210864Y-3863470D01*
X6210864Y-3863470D01*
X6206966Y-3866075D01*
X6205125Y-3867305D01*
X6204528Y-3868197D01*
X6201398Y-3872882D01*
X6200693Y-3873937D01*
X6200484Y-3874990D01*
X6199646Y-3879200D01*
X6199530Y-3879785D01*
X6199530Y-3880810D01*
X6197448Y-3887217D01*
X6191998Y-3891176D01*
X6188630Y-3891710D01*
X6137415Y-3891710D01*
X6131008Y-3889628D01*
X6127049Y-3884178D01*
X6127049Y-3877442D01*
X6127511Y-3876489D01*
X6127459Y-3876468D01*
X6127870Y-3875476D01*
X6128467Y-3874583D01*
X6129427Y-3869754D01*
X6129526Y-3869259D01*
X6129526Y-3869259D01*
X6129630Y-3868735D01*
X6129630Y-3784785D01*
X6129525Y-3784256D01*
X6128832Y-3780773D01*
X6128467Y-3778937D01*
X6126857Y-3776528D01*
X6124632Y-3773197D01*
X6124035Y-3772305D01*
X6122173Y-3771061D01*
X6118296Y-3768470D01*
X6118296Y-3768470D01*
X6117403Y-3767873D01*
X6113943Y-3767185D01*
X6112079Y-3766814D01*
X6112079Y-3766814D01*
X6111555Y-3766710D01*
X6017605Y-3766710D01*
X6017081Y-3766814D01*
X6017081Y-3766814D01*
X6015217Y-3767185D01*
X6011757Y-3767873D01*
X6010864Y-3768470D01*
X6010864Y-3768470D01*
X6006987Y-3771061D01*
X6005125Y-3772305D01*
X6004670Y-3772985D01*
X5998811Y-3775970D01*
X5992158Y-3774916D01*
X5989678Y-3772970D01*
X5989616Y-3773041D01*
X5989031Y-3772530D01*
X5988524Y-3771942D01*
X5976493Y-3764144D01*
X5970025Y-3762210D01*
X5963502Y-3760259D01*
X5963502Y-3760259D01*
X5962758Y-3760037D01*
X5948422Y-3759949D01*
X5948423Y-3759746D01*
X5942783Y-3758731D01*
X5938120Y-3753869D01*
X5937034Y-3749125D01*
X5937034Y-3735670D01*
X5936381Y-3730711D01*
X5936002Y-3729897D01*
X5932398Y-3722169D01*
X5931306Y-3719828D01*
X5922816Y-3711338D01*
X5911933Y-3706263D01*
X5911106Y-3706154D01*
X5911106Y-3706154D01*
X5907327Y-3705656D01*
X5907327Y-3705656D01*
X5906974Y-3705610D01*
X5888989Y-3705610D01*
X5870994Y-3705610D01*
X5866035Y-3706263D01*
X5865280Y-3706615D01*
X5865279Y-3706615D01*
X5862342Y-3707985D01*
X5855152Y-3711338D01*
X5854478Y-3712012D01*
X5854476Y-3712014D01*
X5848033Y-3713983D01*
X5841664Y-3711790D01*
X5839456Y-3709561D01*
X5838933Y-3708852D01*
X5837792Y-3707712D01*
X5830684Y-3702461D01*
X5969680Y-3702461D01*
X5969704Y-3702972D01*
X5969909Y-3705136D01*
X5970191Y-3706425D01*
X5974085Y-3717513D01*
X5974839Y-3718937D01*
X5981732Y-3728268D01*
X5982872Y-3729408D01*
X5992203Y-3736301D01*
X5993627Y-3737055D01*
X6004715Y-3740949D01*
X6006004Y-3741231D01*
X6008166Y-3741436D01*
X6008680Y-3741460D01*
X6013454Y-3741460D01*
X6014850Y-3741006D01*
X6015180Y-3740552D01*
X6015180Y-3694686D01*
X6014726Y-3693290D01*
X6014272Y-3692960D01*
X5971406Y-3692960D01*
X5970010Y-3693414D01*
X5969680Y-3693868D01*
X5969680Y-3702461D01*
X5830684Y-3702461D01*
X5828461Y-3700819D01*
X5827037Y-3700065D01*
X5815949Y-3696171D01*
X5814660Y-3695889D01*
X5812498Y-3695684D01*
X5811984Y-3695660D01*
X5807210Y-3695660D01*
X5805814Y-3696114D01*
X5805484Y-3696568D01*
X5805484Y-3818503D01*
X5805350Y-3820208D01*
X5804984Y-3822518D01*
X5804984Y-3859860D01*
X5802902Y-3866267D01*
X5797452Y-3870226D01*
X5794084Y-3870760D01*
X5734710Y-3870760D01*
X5733314Y-3871214D01*
X5732984Y-3871668D01*
X5732984Y-3880600D01*
X5733008Y-3881114D01*
X5733217Y-3883328D01*
X5733500Y-3884617D01*
X5737469Y-3895917D01*
X5738223Y-3897342D01*
X5745249Y-3906855D01*
X5746965Y-3908571D01*
X5746706Y-3908830D01*
X5749713Y-3913037D01*
X5749661Y-3919774D01*
X5748685Y-3921712D01*
X5748577Y-3921820D01*
X5743577Y-3932543D01*
X5743468Y-3933369D01*
X5743468Y-3933370D01*
X5743086Y-3936271D01*
X5742934Y-3937428D01*
X5742934Y-3947398D01*
X5740852Y-3953805D01*
X5739741Y-3955105D01*
X5704481Y-3990366D01*
X5698479Y-3993424D01*
X5698166Y-3993473D01*
X5688819Y-3994954D01*
X5688819Y-3994954D01*
X5687971Y-3995088D01*
X5681001Y-3998640D01*
X5676841Y-4000759D01*
X5675962Y-4001207D01*
X5666431Y-4010738D01*
X5666042Y-4011502D01*
X5666042Y-4011502D01*
X5665233Y-4013090D01*
X5660312Y-4022747D01*
X5660287Y-4022735D01*
X5656635Y-4027762D01*
X5655431Y-4028153D01*
X5655588Y-4028430D01*
X5651809Y-4030568D01*
X5606898Y-4075479D01*
X5606232Y-4076788D01*
X5606319Y-4077342D01*
X5651546Y-4122569D01*
X5652853Y-4123234D01*
X5653545Y-4122618D01*
X5659267Y-4114006D01*
X5659820Y-4112930D01*
X5665760Y-4097291D01*
X5666062Y-4096117D01*
X5667902Y-4083022D01*
X5670855Y-4076967D01*
X5676803Y-4073805D01*
X5683645Y-4074827D01*
X5684711Y-4075371D01*
X5687971Y-4077032D01*
X5688819Y-4077166D01*
X5688819Y-4077166D01*
X5700437Y-4079006D01*
X5701284Y-4079140D01*
X5702131Y-4079006D01*
X5713749Y-4077166D01*
X5713749Y-4077166D01*
X5714597Y-4077032D01*
X5724522Y-4071975D01*
X5725842Y-4071302D01*
X5725842Y-4071302D01*
X5726606Y-4070913D01*
X5736137Y-4061382D01*
X5737669Y-4058375D01*
X5738701Y-4056349D01*
X5742256Y-4049373D01*
X5743920Y-4038865D01*
X5746978Y-4032863D01*
X5764745Y-4015096D01*
X5770747Y-4012038D01*
X5772552Y-4011954D01*
X5772552Y-4011910D01*
X5807416Y-4011910D01*
X5807769Y-4011863D01*
X5807769Y-4011863D01*
X5811474Y-4011376D01*
X5811475Y-4011376D01*
X5812301Y-4011267D01*
X5823024Y-4006266D01*
X5831390Y-3997900D01*
X5831794Y-3997036D01*
X5832055Y-3996662D01*
X5837435Y-3992608D01*
X5844171Y-3992490D01*
X5849913Y-3996662D01*
X5850174Y-3997036D01*
X5850577Y-3997900D01*
X5858741Y-4006064D01*
X5861800Y-4012067D01*
X5861934Y-4013772D01*
X5861934Y-4045630D01*
X5860901Y-4050262D01*
X5856118Y-4060449D01*
X5856117Y-4060450D01*
X5855787Y-4061153D01*
X5855668Y-4061920D01*
X5854207Y-4071302D01*
X5853582Y-4075319D01*
X5855441Y-4089534D01*
X5861215Y-4102657D01*
X5861714Y-4103251D01*
X5861714Y-4103251D01*
X5868220Y-4110990D01*
X5870440Y-4113631D01*
X5882374Y-4121575D01*
X5883115Y-4121807D01*
X5895317Y-4125619D01*
X5895318Y-4125619D01*
X5896058Y-4125850D01*
X5903816Y-4125993D01*
X5909617Y-4126099D01*
X5909617Y-4126099D01*
X5910393Y-4126113D01*
X5924224Y-4122342D01*
X5936442Y-4114841D01*
X5946063Y-4104212D01*
X5952314Y-4091310D01*
X5953870Y-4082060D01*
X5954610Y-4077661D01*
X6332180Y-4077661D01*
X6332204Y-4078172D01*
X6332409Y-4080336D01*
X6332691Y-4081625D01*
X6336585Y-4092713D01*
X6337339Y-4094137D01*
X6344232Y-4103468D01*
X6345372Y-4104608D01*
X6354703Y-4111501D01*
X6356127Y-4112255D01*
X6367215Y-4116149D01*
X6368504Y-4116431D01*
X6370666Y-4116636D01*
X6371180Y-4116660D01*
X6378954Y-4116660D01*
X6380350Y-4116206D01*
X6380680Y-4115752D01*
X6380680Y-4114934D01*
X6405680Y-4114934D01*
X6406134Y-4116330D01*
X6406588Y-4116660D01*
X6415181Y-4116660D01*
X6415692Y-4116636D01*
X6417856Y-4116431D01*
X6419145Y-4116149D01*
X6430233Y-4112255D01*
X6431657Y-4111501D01*
X6440988Y-4104608D01*
X6442128Y-4103468D01*
X6449021Y-4094137D01*
X6449775Y-4092713D01*
X6453669Y-4081625D01*
X6453951Y-4080336D01*
X6454156Y-4078174D01*
X6454180Y-4077660D01*
X6454180Y-4072886D01*
X6453726Y-4071490D01*
X6453272Y-4071160D01*
X6407406Y-4071160D01*
X6406010Y-4071614D01*
X6405680Y-4072068D01*
X6405680Y-4114934D01*
X6380680Y-4114934D01*
X6380680Y-4072886D01*
X6380226Y-4071490D01*
X6379772Y-4071160D01*
X6333906Y-4071160D01*
X6332510Y-4071614D01*
X6332180Y-4072068D01*
X6332180Y-4077661D01*
X5954610Y-4077661D01*
X5954622Y-4077587D01*
X5954622Y-4077587D01*
X5954692Y-4077172D01*
X5954707Y-4075936D01*
X5952675Y-4061744D01*
X5946741Y-4048693D01*
X5937383Y-4037833D01*
X5927005Y-4031106D01*
X5922761Y-4025875D01*
X5922034Y-4021960D01*
X5922034Y-4013772D01*
X5924116Y-4007365D01*
X5925226Y-4006064D01*
X5933390Y-3997900D01*
X5933801Y-3997020D01*
X5933968Y-3996662D01*
X5934182Y-3996203D01*
X5938776Y-3991277D01*
X5944060Y-3989910D01*
X5986672Y-3989910D01*
X5987031Y-3989936D01*
X5987515Y-3990102D01*
X5988521Y-3990065D01*
X5989516Y-3990212D01*
X5989483Y-3990434D01*
X5994702Y-3991916D01*
X5998863Y-3997214D01*
X5999530Y-4000968D01*
X5999530Y-4058735D01*
X5999634Y-4059259D01*
X5999634Y-4059259D01*
X5999905Y-4060618D01*
X6000693Y-4064583D01*
X6001290Y-4065476D01*
X6001290Y-4065476D01*
X6001682Y-4066063D01*
X6005125Y-4071215D01*
X6006017Y-4071812D01*
X6010746Y-4074971D01*
X6011757Y-4075647D01*
X6013826Y-4076058D01*
X6017081Y-4076706D01*
X6017081Y-4076706D01*
X6017605Y-4076810D01*
X6111555Y-4076810D01*
X6112079Y-4076706D01*
X6112079Y-4076706D01*
X6115334Y-4076058D01*
X6117403Y-4075647D01*
X6118414Y-4074971D01*
X6123142Y-4071812D01*
X6124035Y-4071215D01*
X6127478Y-4066063D01*
X6127870Y-4065476D01*
X6127870Y-4065476D01*
X6128467Y-4064583D01*
X6129255Y-4060618D01*
X6129526Y-4059259D01*
X6129526Y-4059259D01*
X6129630Y-4058735D01*
X6129630Y-3974785D01*
X6129470Y-3973982D01*
X6128676Y-3969990D01*
X6128467Y-3968937D01*
X6127870Y-3968044D01*
X6127459Y-3967052D01*
X6127826Y-3966900D01*
X6126524Y-3962281D01*
X6128856Y-3955961D01*
X6134458Y-3952219D01*
X6137415Y-3951810D01*
X6188630Y-3951810D01*
X6195037Y-3953892D01*
X6198996Y-3959342D01*
X6199530Y-3962710D01*
X6199530Y-3963735D01*
X6199634Y-3964259D01*
X6199634Y-3964259D01*
X6200084Y-3966521D01*
X6200693Y-3969583D01*
X6201290Y-3970476D01*
X6201290Y-3970476D01*
X6203902Y-3974385D01*
X6205125Y-3976215D01*
X6206017Y-3976812D01*
X6210355Y-3979710D01*
X6211757Y-3980647D01*
X6214149Y-3981122D01*
X6217081Y-3981706D01*
X6217081Y-3981706D01*
X6217605Y-3981810D01*
X6311555Y-3981810D01*
X6312079Y-3981706D01*
X6312079Y-3981706D01*
X6315011Y-3981122D01*
X6317403Y-3980647D01*
X6318805Y-3979710D01*
X6323142Y-3976812D01*
X6324035Y-3976215D01*
X6324241Y-3975907D01*
X6329848Y-3973051D01*
X6336501Y-3974104D01*
X6341265Y-3978868D01*
X6342360Y-3982394D01*
X6342575Y-3984028D01*
X6342783Y-3985609D01*
X6343135Y-3986364D01*
X6343135Y-3986364D01*
X6344516Y-3989326D01*
X6347858Y-3996492D01*
X6348532Y-3997166D01*
X6348534Y-3997168D01*
X6350503Y-4003611D01*
X6348310Y-4009980D01*
X6346081Y-4012188D01*
X6345372Y-4012711D01*
X6344232Y-4013852D01*
X6337339Y-4023183D01*
X6336585Y-4024607D01*
X6332691Y-4035695D01*
X6332409Y-4036984D01*
X6332204Y-4039146D01*
X6332180Y-4039660D01*
X6332180Y-4044434D01*
X6332634Y-4045830D01*
X6333088Y-4046160D01*
X6452454Y-4046160D01*
X6453850Y-4045706D01*
X6454180Y-4045252D01*
X6454180Y-4039658D01*
X6454156Y-4039148D01*
X6453951Y-4036983D01*
X6453669Y-4035695D01*
X6449775Y-4024607D01*
X6449021Y-4023183D01*
X6443631Y-4015886D01*
X6441499Y-4009496D01*
X6443530Y-4003073D01*
X6448949Y-3999070D01*
X6452399Y-3998510D01*
X6480417Y-3998510D01*
X6486824Y-4000592D01*
X6490485Y-4005236D01*
X6490693Y-4006283D01*
X6495125Y-4012915D01*
X6496017Y-4013512D01*
X6496086Y-4013557D01*
X6501757Y-4017347D01*
X6504578Y-4017908D01*
X6507081Y-4018406D01*
X6507081Y-4018406D01*
X6507605Y-4018510D01*
X6510327Y-4018510D01*
X6516734Y-4020592D01*
X6520693Y-4026042D01*
X6521097Y-4031087D01*
X6520539Y-4034675D01*
X6520419Y-4035442D01*
X6522278Y-4049658D01*
X6528052Y-4062780D01*
X6528551Y-4063374D01*
X6528551Y-4063375D01*
X6536777Y-4073161D01*
X6537277Y-4073755D01*
X6549211Y-4081699D01*
X6549952Y-4081930D01*
X6562155Y-4085743D01*
X6562155Y-4085743D01*
X6562896Y-4085974D01*
X6570653Y-4086116D01*
X6576454Y-4086223D01*
X6576454Y-4086223D01*
X6577230Y-4086237D01*
X6591062Y-4082466D01*
X6596983Y-4078830D01*
X6603531Y-4077252D01*
X6608725Y-4079046D01*
X6612711Y-4081699D01*
X6617989Y-4083348D01*
X6625655Y-4085743D01*
X6625655Y-4085743D01*
X6626396Y-4085974D01*
X6634153Y-4086116D01*
X6639954Y-4086223D01*
X6639954Y-4086223D01*
X6640730Y-4086237D01*
X6654562Y-4082466D01*
X6666779Y-4074964D01*
X6669633Y-4071812D01*
X6675879Y-4064911D01*
X6676400Y-4064335D01*
X6682651Y-4051433D01*
X6684291Y-4041685D01*
X6684960Y-4037711D01*
X6684960Y-4037711D01*
X6685030Y-4037295D01*
X6685045Y-4036060D01*
X6683012Y-4021868D01*
X6678088Y-4011037D01*
X6677331Y-4004343D01*
X6680653Y-3998483D01*
X6686786Y-3995695D01*
X6691738Y-3996283D01*
X6692450Y-3996542D01*
X6693275Y-3997019D01*
X6694214Y-3997184D01*
X6694214Y-3997184D01*
X6697059Y-3997686D01*
X6697986Y-3997891D01*
X6701699Y-3998886D01*
X6701845Y-3998874D01*
X6707628Y-4001328D01*
X6710502Y-4005320D01*
X6710693Y-4006283D01*
X6715125Y-4012915D01*
X6716017Y-4013512D01*
X6716086Y-4013557D01*
X6721757Y-4017347D01*
X6724578Y-4017908D01*
X6727081Y-4018406D01*
X6727081Y-4018406D01*
X6727605Y-4018510D01*
X6837555Y-4018510D01*
X6838079Y-4018406D01*
X6838079Y-4018406D01*
X6840582Y-4017908D01*
X6843403Y-4017347D01*
X6849074Y-4013557D01*
X6849142Y-4013512D01*
X6850035Y-4012915D01*
X6854467Y-4006283D01*
X6854675Y-4005236D01*
X6859048Y-4000116D01*
X6864743Y-3998510D01*
X6890383Y-3998510D01*
X6891333Y-3998551D01*
X6894210Y-3998803D01*
X6894211Y-3998803D01*
X6895161Y-3998886D01*
X6898874Y-3997891D01*
X6899801Y-3997686D01*
X6902645Y-3997184D01*
X6903584Y-3997019D01*
X6904410Y-3996542D01*
X6904878Y-3996372D01*
X6905327Y-3996162D01*
X6906248Y-3995915D01*
X6909396Y-3993711D01*
X6910197Y-3993201D01*
X6913525Y-3991279D01*
X6914466Y-3990158D01*
X6915996Y-3988335D01*
X6916638Y-3987634D01*
X6921370Y-3982902D01*
X6927373Y-3979844D01*
X6929077Y-3979710D01*
X6945884Y-3979710D01*
X6947570Y-3979710D01*
X6952529Y-3979057D01*
X6953284Y-3978705D01*
X6953284Y-3978705D01*
X6958284Y-3976373D01*
X6963412Y-3973982D01*
X6971902Y-3965492D01*
X6976977Y-3954609D01*
X6977093Y-3953731D01*
X6977583Y-3950003D01*
X6977583Y-3950003D01*
X6977630Y-3949650D01*
X6977630Y-3913670D01*
X6976977Y-3908711D01*
X6976557Y-3907810D01*
X6973091Y-3900378D01*
X6971902Y-3897828D01*
X6971228Y-3897154D01*
X6971226Y-3897152D01*
X6969257Y-3890709D01*
X6971450Y-3884340D01*
X6973679Y-3882132D01*
X6974388Y-3881609D01*
X6975528Y-3880468D01*
X6982421Y-3871137D01*
X6983175Y-3869713D01*
X6987069Y-3858625D01*
X6987351Y-3857336D01*
X6987556Y-3855174D01*
X6987580Y-3854660D01*
X6987580Y-3849886D01*
X6987126Y-3848490D01*
X6986672Y-3848160D01*
X6924980Y-3848160D01*
X6918573Y-3846078D01*
X6914613Y-3840628D01*
X6914080Y-3837260D01*
X6914080Y-3821434D01*
X6939080Y-3821434D01*
X6939534Y-3822830D01*
X6939988Y-3823160D01*
X6985854Y-3823160D01*
X6987250Y-3822706D01*
X6987580Y-3822252D01*
X6987580Y-3816658D01*
X6987556Y-3816148D01*
X6987351Y-3813983D01*
X6987069Y-3812695D01*
X6983175Y-3801607D01*
X6982421Y-3800183D01*
X6975528Y-3790852D01*
X6974388Y-3789712D01*
X6965057Y-3782819D01*
X6963633Y-3782065D01*
X6952545Y-3778171D01*
X6951256Y-3777889D01*
X6949094Y-3777684D01*
X6948580Y-3777660D01*
X6940806Y-3777660D01*
X6939410Y-3778114D01*
X6939080Y-3778568D01*
X6939080Y-3821434D01*
X6914080Y-3821434D01*
X6914080Y-3779386D01*
X6913626Y-3777990D01*
X6913172Y-3777660D01*
X6904578Y-3777660D01*
X6904068Y-3777684D01*
X6901903Y-3777889D01*
X6900615Y-3778171D01*
X6889527Y-3782065D01*
X6888103Y-3782819D01*
X6878772Y-3789712D01*
X6877632Y-3790851D01*
X6875298Y-3794011D01*
X6869817Y-3797928D01*
X6863080Y-3797875D01*
X6857662Y-3793873D01*
X6855630Y-3787535D01*
X6855630Y-3741485D01*
X6855515Y-3740909D01*
X6854948Y-3738056D01*
X6854467Y-3735637D01*
X6853478Y-3734157D01*
X6850632Y-3729897D01*
X6850035Y-3729005D01*
X6848643Y-3728075D01*
X6844296Y-3725170D01*
X6844296Y-3725170D01*
X6843403Y-3724573D01*
X6839920Y-3723880D01*
X6838079Y-3723514D01*
X6838079Y-3723514D01*
X6837555Y-3723410D01*
X6756032Y-3723410D01*
X6749626Y-3721328D01*
X6748325Y-3720217D01*
X6742912Y-3714805D01*
X6736870Y-3708762D01*
X6733811Y-3702760D01*
X6733392Y-3700110D01*
X6733392Y-3700110D01*
X6733257Y-3699263D01*
X6732460Y-3697698D01*
X6727528Y-3688017D01*
X6727528Y-3688017D01*
X6727138Y-3687253D01*
X6717608Y-3677723D01*
X6716766Y-3677294D01*
X6713020Y-3675385D01*
X6705598Y-3671604D01*
X6704751Y-3671469D01*
X6704751Y-3671469D01*
X6693133Y-3669629D01*
X6692286Y-3669495D01*
X6691438Y-3669629D01*
X6679821Y-3671469D01*
X6679820Y-3671469D01*
X6678973Y-3671604D01*
X6671551Y-3675385D01*
X6667805Y-3677294D01*
X6666964Y-3677723D01*
X6666357Y-3678329D01*
X6666357Y-3678329D01*
X6663877Y-3680809D01*
X6657875Y-3683868D01*
X6651221Y-3682814D01*
X6648462Y-3680809D01*
X6584613Y-3616960D01*
X6803500Y-3616960D01*
X6803634Y-3617807D01*
X6805474Y-3629425D01*
X6805474Y-3629425D01*
X6805608Y-3630273D01*
X6809445Y-3637802D01*
X6810965Y-3640787D01*
X6811727Y-3642282D01*
X6821258Y-3651813D01*
X6833267Y-3657932D01*
X6834115Y-3658066D01*
X6834115Y-3658066D01*
X6845733Y-3659906D01*
X6846580Y-3660040D01*
X6847427Y-3659906D01*
X6859045Y-3658066D01*
X6859045Y-3658066D01*
X6859893Y-3657932D01*
X6860657Y-3657542D01*
X6860657Y-3657542D01*
X6860704Y-3657519D01*
X6860755Y-3657510D01*
X6861473Y-3657277D01*
X6861510Y-3657391D01*
X6867357Y-3656465D01*
X6873360Y-3659523D01*
X6876418Y-3665526D01*
X6876459Y-3668653D01*
X6876339Y-3669561D01*
X6878200Y-3686413D01*
X6878426Y-3687031D01*
X6878426Y-3687031D01*
X6883702Y-3701450D01*
X6884027Y-3702336D01*
X6893483Y-3716408D01*
X6893969Y-3716850D01*
X6893969Y-3716850D01*
X6905537Y-3727377D01*
X6906023Y-3727819D01*
X6906601Y-3728133D01*
X6920346Y-3735596D01*
X6920346Y-3735596D01*
X6920923Y-3735909D01*
X6921559Y-3736076D01*
X6921559Y-3736076D01*
X6933304Y-3739157D01*
X6937323Y-3740212D01*
X6944378Y-3740322D01*
X6953619Y-3740468D01*
X6953619Y-3740468D01*
X6954276Y-3740478D01*
X6954916Y-3740331D01*
X6954917Y-3740331D01*
X6963503Y-3738365D01*
X6970803Y-3736693D01*
X6978352Y-3732896D01*
X6985362Y-3729370D01*
X6985363Y-3729370D01*
X6985950Y-3729075D01*
X6997507Y-3719204D01*
X6998343Y-3718490D01*
X6998343Y-3718490D01*
X6998842Y-3718063D01*
X7007757Y-3705657D01*
X7008353Y-3704828D01*
X7008736Y-3704295D01*
X7009451Y-3702517D01*
X7014815Y-3689173D01*
X7014815Y-3689172D01*
X7015060Y-3688563D01*
X7017449Y-3671778D01*
X7017464Y-3670300D01*
X7015428Y-3653468D01*
X7015195Y-3652853D01*
X7015195Y-3652853D01*
X7010481Y-3640379D01*
X7009434Y-3637608D01*
X7003390Y-3628813D01*
X7000203Y-3624176D01*
X7000203Y-3624176D01*
X6999831Y-3623635D01*
X6991777Y-3616459D01*
X6988262Y-3610025D01*
X6987386Y-3604495D01*
X6987386Y-3604495D01*
X6987252Y-3603647D01*
X6982418Y-3594160D01*
X6981522Y-3592402D01*
X6981522Y-3592402D01*
X6981133Y-3591638D01*
X6971602Y-3582107D01*
X6970856Y-3581727D01*
X6966903Y-3576286D01*
X6966903Y-3569549D01*
X6970793Y-3564150D01*
X6975531Y-3560651D01*
X6976671Y-3559511D01*
X6983474Y-3550300D01*
X6984228Y-3548876D01*
X6988072Y-3537930D01*
X6988355Y-3536642D01*
X6988556Y-3534514D01*
X6988580Y-3534000D01*
X6988580Y-3529786D01*
X6988126Y-3528390D01*
X6987672Y-3528060D01*
X6866306Y-3528060D01*
X6864910Y-3528514D01*
X6864580Y-3528968D01*
X6864580Y-3534000D01*
X6864604Y-3534514D01*
X6864805Y-3536642D01*
X6865088Y-3537930D01*
X6868932Y-3548876D01*
X6869686Y-3550300D01*
X6876489Y-3559511D01*
X6877629Y-3560651D01*
X6877951Y-3560889D01*
X6878162Y-3561184D01*
X6878205Y-3561227D01*
X6878198Y-3561234D01*
X6881868Y-3566370D01*
X6881860Y-3567387D01*
X6884629Y-3566948D01*
X6888025Y-3568081D01*
X6888264Y-3568208D01*
X6899210Y-3572052D01*
X6900498Y-3572335D01*
X6902626Y-3572536D01*
X6903140Y-3572560D01*
X6904190Y-3572560D01*
X6910597Y-3574642D01*
X6914557Y-3580092D01*
X6914557Y-3586828D01*
X6912447Y-3590271D01*
X6912538Y-3590337D01*
X6912033Y-3591032D01*
X6911427Y-3591638D01*
X6911038Y-3592402D01*
X6911038Y-3592402D01*
X6909821Y-3594790D01*
X6906645Y-3601023D01*
X6906142Y-3602011D01*
X6901378Y-3606774D01*
X6894725Y-3607828D01*
X6888722Y-3604770D01*
X6886718Y-3602011D01*
X6886215Y-3601023D01*
X6883039Y-3594790D01*
X6881822Y-3592402D01*
X6881822Y-3592402D01*
X6881433Y-3591638D01*
X6875216Y-3585422D01*
X6872550Y-3580189D01*
X6871390Y-3580556D01*
X6866527Y-3579368D01*
X6859893Y-3575988D01*
X6859045Y-3575854D01*
X6859045Y-3575854D01*
X6847427Y-3574014D01*
X6846580Y-3573880D01*
X6845733Y-3574014D01*
X6834115Y-3575854D01*
X6834115Y-3575854D01*
X6833267Y-3575988D01*
X6826633Y-3579368D01*
X6823375Y-3581028D01*
X6821258Y-3582107D01*
X6811727Y-3591638D01*
X6811338Y-3592402D01*
X6811338Y-3592402D01*
X6810442Y-3594160D01*
X6805608Y-3603647D01*
X6805474Y-3604495D01*
X6805474Y-3604495D01*
X6804292Y-3611955D01*
X6803500Y-3616960D01*
X6584613Y-3616960D01*
X6581322Y-3613670D01*
X6578264Y-3607667D01*
X6578130Y-3605962D01*
X6578130Y-3537546D01*
X6620830Y-3537546D01*
X6623793Y-3554794D01*
X6624041Y-3555377D01*
X6630249Y-3569965D01*
X6630645Y-3570897D01*
X6641018Y-3584992D01*
X6654355Y-3596323D01*
X6654919Y-3596611D01*
X6654920Y-3596611D01*
X6669378Y-3603994D01*
X6669378Y-3603994D01*
X6669942Y-3604282D01*
X6670556Y-3604432D01*
X6670556Y-3604432D01*
X6686469Y-3608326D01*
X6686469Y-3608326D01*
X6686941Y-3608441D01*
X6687425Y-3608471D01*
X6687425Y-3608472D01*
X6687724Y-3608490D01*
X6688045Y-3608510D01*
X6700662Y-3608510D01*
X6710489Y-3607364D01*
X6713034Y-3607068D01*
X6713034Y-3607068D01*
X6713663Y-3606994D01*
X6714257Y-3606778D01*
X6714258Y-3606778D01*
X6729518Y-3601239D01*
X6729518Y-3601239D01*
X6730113Y-3601023D01*
X6743059Y-3592535D01*
X6744219Y-3591775D01*
X6744219Y-3591775D01*
X6744748Y-3591428D01*
X6756784Y-3578723D01*
X6765574Y-3563590D01*
X6766666Y-3559984D01*
X6770463Y-3547447D01*
X6770463Y-3547447D01*
X6770647Y-3546841D01*
X6771099Y-3539549D01*
X6771691Y-3530006D01*
X6771691Y-3530006D01*
X6771730Y-3529374D01*
X6768767Y-3512126D01*
X6765322Y-3504031D01*
X6762163Y-3496605D01*
X6762162Y-3496605D01*
X6761915Y-3496023D01*
X6751542Y-3481928D01*
X6738204Y-3470597D01*
X6737640Y-3470309D01*
X6737640Y-3470309D01*
X6723182Y-3462926D01*
X6723182Y-3462926D01*
X6722618Y-3462638D01*
X6722004Y-3462488D01*
X6722003Y-3462488D01*
X6706091Y-3458594D01*
X6706091Y-3458594D01*
X6705619Y-3458478D01*
X6705135Y-3458448D01*
X6705135Y-3458448D01*
X6704836Y-3458430D01*
X6704515Y-3458410D01*
X6691898Y-3458410D01*
X6683617Y-3459375D01*
X6679526Y-3459852D01*
X6679526Y-3459852D01*
X6678897Y-3459926D01*
X6678303Y-3460141D01*
X6678302Y-3460142D01*
X6670518Y-3462967D01*
X6662447Y-3465897D01*
X6647811Y-3475492D01*
X6635776Y-3488197D01*
X6626986Y-3503330D01*
X6626802Y-3503937D01*
X6626802Y-3503937D01*
X6622484Y-3518195D01*
X6621913Y-3520079D01*
X6621763Y-3522504D01*
X6620875Y-3536810D01*
X6620830Y-3537546D01*
X6578130Y-3537546D01*
X6578130Y-3420253D01*
X6578422Y-3418035D01*
X6578462Y-3417579D01*
X6578709Y-3416658D01*
X6578671Y-3416225D01*
X6581189Y-3410292D01*
X6586964Y-3406822D01*
X6593675Y-3407410D01*
X6597123Y-3409736D01*
X6597422Y-3410035D01*
X6598065Y-3410736D01*
X6600534Y-3413679D01*
X6603863Y-3415601D01*
X6604664Y-3416111D01*
X6607812Y-3418315D01*
X6608733Y-3418562D01*
X6609182Y-3418772D01*
X6609650Y-3418942D01*
X6610475Y-3419419D01*
X6611414Y-3419584D01*
X6611414Y-3419584D01*
X6614259Y-3420086D01*
X6615187Y-3420292D01*
X6618899Y-3421286D01*
X6622728Y-3420951D01*
X6623677Y-3420910D01*
X6845082Y-3420910D01*
X6851489Y-3422992D01*
X6852790Y-3424102D01*
X6863922Y-3435235D01*
X6864565Y-3435936D01*
X6867034Y-3438879D01*
X6870363Y-3440801D01*
X6871164Y-3441311D01*
X6874312Y-3443515D01*
X6875233Y-3443762D01*
X6875682Y-3443972D01*
X6876150Y-3444142D01*
X6876975Y-3444619D01*
X6876981Y-3444620D01*
X6880320Y-3446746D01*
X6883868Y-3450295D01*
X6886927Y-3456298D01*
X6885873Y-3462951D01*
X6882637Y-3466770D01*
X6877629Y-3470469D01*
X6876489Y-3471609D01*
X6869686Y-3480820D01*
X6868932Y-3482244D01*
X6865088Y-3493190D01*
X6864805Y-3494478D01*
X6864604Y-3496606D01*
X6864580Y-3497120D01*
X6864580Y-3501334D01*
X6865034Y-3502730D01*
X6865488Y-3503060D01*
X6986854Y-3503060D01*
X6988250Y-3502606D01*
X6988580Y-3502152D01*
X6988580Y-3497120D01*
X6988556Y-3496606D01*
X6988355Y-3494478D01*
X6988072Y-3493190D01*
X6984228Y-3482244D01*
X6983474Y-3480820D01*
X6976671Y-3471609D01*
X6975531Y-3470469D01*
X6970523Y-3466770D01*
X6966606Y-3461289D01*
X6966659Y-3454553D01*
X6969292Y-3450295D01*
X6972986Y-3446600D01*
X6977987Y-3435877D01*
X6978159Y-3434567D01*
X6978583Y-3431345D01*
X6978583Y-3431345D01*
X6978630Y-3430992D01*
X6978630Y-3396128D01*
X6978477Y-3394968D01*
X6978096Y-3392070D01*
X6978096Y-3392069D01*
X6977987Y-3391243D01*
X6972986Y-3380520D01*
X6964620Y-3372153D01*
X6958165Y-3369143D01*
X6953238Y-3364549D01*
X6951953Y-3357936D01*
X6952487Y-3355653D01*
X6955869Y-3346025D01*
X6956151Y-3344736D01*
X6956356Y-3342574D01*
X6956380Y-3342060D01*
X6956380Y-3334286D01*
X6955926Y-3332890D01*
X6955472Y-3332560D01*
X6896780Y-3332560D01*
X6890373Y-3330478D01*
X6886413Y-3325028D01*
X6885880Y-3321660D01*
X6885880Y-3305834D01*
X6910880Y-3305834D01*
X6911334Y-3307230D01*
X6911788Y-3307560D01*
X6954654Y-3307560D01*
X6956050Y-3307106D01*
X6956380Y-3306652D01*
X6956380Y-3298058D01*
X6956356Y-3297548D01*
X6956151Y-3295383D01*
X6955869Y-3294095D01*
X6951975Y-3283007D01*
X6951221Y-3281583D01*
X6946918Y-3275757D01*
X6944786Y-3269367D01*
X6946918Y-3262805D01*
X6953274Y-3254200D01*
X6954028Y-3252776D01*
X6957872Y-3241830D01*
X6958155Y-3240542D01*
X6958356Y-3238414D01*
X6958380Y-3237900D01*
X6958380Y-3228686D01*
X6957926Y-3227290D01*
X6957472Y-3226960D01*
X6915606Y-3226960D01*
X6914210Y-3227414D01*
X6913880Y-3227868D01*
X6913880Y-3273697D01*
X6911798Y-3280104D01*
X6910880Y-3281368D01*
X6910880Y-3305834D01*
X6885880Y-3305834D01*
X6885880Y-3261823D01*
X6887962Y-3255416D01*
X6888880Y-3254152D01*
X6888880Y-3200234D01*
X6913880Y-3200234D01*
X6914334Y-3201630D01*
X6914788Y-3201960D01*
X6956654Y-3201960D01*
X6958050Y-3201506D01*
X6958380Y-3201052D01*
X6958380Y-3191020D01*
X6958356Y-3190506D01*
X6958155Y-3188378D01*
X6957872Y-3187090D01*
X6954028Y-3176144D01*
X6953274Y-3174720D01*
X6949888Y-3170136D01*
X6947756Y-3163746D01*
X6949888Y-3157184D01*
X6953274Y-3152600D01*
X6954028Y-3151176D01*
X6957872Y-3140230D01*
X6958155Y-3138942D01*
X6958356Y-3136814D01*
X6958380Y-3136300D01*
X6958380Y-3127086D01*
X6957926Y-3125690D01*
X6957472Y-3125360D01*
X6915606Y-3125360D01*
X6914210Y-3125814D01*
X6913880Y-3126268D01*
X6913880Y-3200234D01*
X6888880Y-3200234D01*
X6888880Y-3098634D01*
X6913880Y-3098634D01*
X6914334Y-3100030D01*
X6914788Y-3100360D01*
X6956654Y-3100360D01*
X6958050Y-3099906D01*
X6958380Y-3099452D01*
X6958380Y-3089420D01*
X6958356Y-3088906D01*
X6958155Y-3086778D01*
X6957872Y-3085490D01*
X6954028Y-3074544D01*
X6953274Y-3073120D01*
X6946471Y-3063909D01*
X6945331Y-3062769D01*
X6936120Y-3055966D01*
X6934696Y-3055212D01*
X6923750Y-3051368D01*
X6922462Y-3051085D01*
X6920334Y-3050884D01*
X6919820Y-3050860D01*
X6915606Y-3050860D01*
X6914210Y-3051314D01*
X6913880Y-3051768D01*
X6913880Y-3098634D01*
X6888880Y-3098634D01*
X6888880Y-3052586D01*
X6888426Y-3051190D01*
X6887972Y-3050860D01*
X6882940Y-3050860D01*
X6882426Y-3050884D01*
X6880298Y-3051085D01*
X6879010Y-3051368D01*
X6868064Y-3055212D01*
X6866640Y-3055966D01*
X6857429Y-3062769D01*
X6856289Y-3063909D01*
X6852590Y-3068917D01*
X6847109Y-3072834D01*
X6840373Y-3072781D01*
X6836115Y-3070148D01*
X6832420Y-3066453D01*
X6821697Y-3061453D01*
X6820871Y-3061344D01*
X6820870Y-3061344D01*
X6817165Y-3060856D01*
X6817165Y-3060856D01*
X6816812Y-3060810D01*
X6801978Y-3060810D01*
X6795571Y-3058728D01*
X6794270Y-3057617D01*
X6667474Y-2930821D01*
X6666831Y-2930120D01*
X6664361Y-2927177D01*
X6664533Y-2927032D01*
X6661627Y-2922381D01*
X6662096Y-2915661D01*
X6666426Y-2910500D01*
X6673408Y-2908910D01*
X6677618Y-2909378D01*
G37*
G04 #@! TD.AperFunction*
G04 #@! TA.AperFunction,Conductor*
G36*
X5135622Y-2905592D02*
G01*
X5139582Y-2911042D01*
X5139582Y-2917778D01*
X5135622Y-2923228D01*
X5135033Y-2923627D01*
X5129778Y-2926943D01*
X5120288Y-2937689D01*
X5119958Y-2938392D01*
X5119958Y-2938392D01*
X5114525Y-2949963D01*
X5114525Y-2949963D01*
X5114195Y-2950666D01*
X5114075Y-2951434D01*
X5112154Y-2963776D01*
X5111989Y-2964832D01*
X5113014Y-2972670D01*
X5111781Y-2979292D01*
X5106890Y-2983925D01*
X5100210Y-2984799D01*
X5094293Y-2981579D01*
X5092295Y-2978392D01*
X5092271Y-2978404D01*
X5092109Y-2978095D01*
X5092010Y-2977936D01*
X5091990Y-2977883D01*
X5091735Y-2977208D01*
X5087242Y-2970671D01*
X5082503Y-2963776D01*
X5082503Y-2963776D01*
X5082131Y-2963235D01*
X5081641Y-2962798D01*
X5081641Y-2962798D01*
X5069963Y-2952393D01*
X5069963Y-2952393D01*
X5069472Y-2951956D01*
X5054488Y-2944022D01*
X5053851Y-2943862D01*
X5053851Y-2943862D01*
X5038681Y-2940052D01*
X5038681Y-2940052D01*
X5038044Y-2939892D01*
X5029515Y-2939847D01*
X5021746Y-2939806D01*
X5021746Y-2939806D01*
X5021090Y-2939803D01*
X5004603Y-2943761D01*
X5004019Y-2944063D01*
X5004019Y-2944063D01*
X5000965Y-2945639D01*
X4989537Y-2951537D01*
X4989042Y-2951969D01*
X4989042Y-2951969D01*
X4977592Y-2961958D01*
X4976760Y-2962683D01*
X4975808Y-2964038D01*
X4967424Y-2975968D01*
X4967011Y-2976555D01*
X4966773Y-2977167D01*
X4966772Y-2977167D01*
X4963378Y-2985873D01*
X4959111Y-2991086D01*
X4952595Y-2992795D01*
X4949611Y-2992198D01*
X4945549Y-2990771D01*
X4944260Y-2990489D01*
X4942098Y-2990284D01*
X4941584Y-2990260D01*
X4933810Y-2990260D01*
X4932414Y-2990714D01*
X4932084Y-2991168D01*
X4932084Y-3049860D01*
X4930002Y-3056267D01*
X4924552Y-3060226D01*
X4921184Y-3060760D01*
X4860310Y-3060760D01*
X4858914Y-3061214D01*
X4858584Y-3061668D01*
X4858584Y-3066446D01*
X4856502Y-3072853D01*
X4851052Y-3076812D01*
X4847684Y-3077346D01*
X4802975Y-3077346D01*
X4800849Y-3077137D01*
X4800241Y-3077016D01*
X4799188Y-3076806D01*
X4798523Y-3076938D01*
X4792354Y-3074934D01*
X4788394Y-3069484D01*
X4788394Y-3062747D01*
X4791053Y-3058408D01*
X4806123Y-3043339D01*
X4812125Y-3040280D01*
X4812910Y-3040219D01*
X4813300Y-3040280D01*
X4814147Y-3040146D01*
X4825765Y-3038306D01*
X4825765Y-3038306D01*
X4826613Y-3038172D01*
X4835260Y-3033766D01*
X4837858Y-3032442D01*
X4837858Y-3032442D01*
X4838622Y-3032053D01*
X4840625Y-3030049D01*
X4846628Y-3026991D01*
X4853281Y-3028045D01*
X4858045Y-3032808D01*
X4858699Y-3034389D01*
X4859038Y-3035430D01*
X4859492Y-3035760D01*
X4905358Y-3035760D01*
X4906754Y-3035306D01*
X4907084Y-3034852D01*
X4907084Y-2991986D01*
X4906630Y-2990590D01*
X4906176Y-2990260D01*
X4897583Y-2990260D01*
X4897072Y-2990284D01*
X4894908Y-2990489D01*
X4893619Y-2990771D01*
X4882531Y-2994665D01*
X4881108Y-2995419D01*
X4873152Y-3001295D01*
X4866762Y-3003427D01*
X4860339Y-3001396D01*
X4856337Y-2995977D01*
X4855910Y-2994232D01*
X4855353Y-2990714D01*
X4854272Y-2983887D01*
X4848599Y-2972753D01*
X4848542Y-2972642D01*
X4848542Y-2972642D01*
X4848153Y-2971878D01*
X4838622Y-2962347D01*
X4826613Y-2956228D01*
X4825765Y-2956094D01*
X4825765Y-2956094D01*
X4814147Y-2954254D01*
X4813300Y-2954120D01*
X4812453Y-2954254D01*
X4800835Y-2956094D01*
X4800835Y-2956094D01*
X4799987Y-2956228D01*
X4787978Y-2962347D01*
X4778447Y-2971878D01*
X4778058Y-2972642D01*
X4778058Y-2972642D01*
X4778001Y-2972753D01*
X4772328Y-2983887D01*
X4772194Y-2984735D01*
X4772194Y-2984735D01*
X4770967Y-2992481D01*
X4770220Y-2997200D01*
X4770183Y-2997194D01*
X4768272Y-3003076D01*
X4767161Y-3004377D01*
X4732108Y-3039431D01*
X4726105Y-3042489D01*
X4719452Y-3041435D01*
X4716693Y-3039431D01*
X4692011Y-3014749D01*
X4688953Y-3008747D01*
X4689273Y-3004679D01*
X4689172Y-3004663D01*
X4691052Y-2992795D01*
X4691280Y-2991350D01*
X4690427Y-2985964D01*
X4689306Y-2978885D01*
X4689306Y-2978885D01*
X4689172Y-2978037D01*
X4684288Y-2968451D01*
X4683442Y-2966792D01*
X4683442Y-2966792D01*
X4683053Y-2966028D01*
X4673522Y-2956497D01*
X4661513Y-2950378D01*
X4660665Y-2950244D01*
X4660665Y-2950244D01*
X4649047Y-2948404D01*
X4648200Y-2948270D01*
X4634887Y-2950378D01*
X4634793Y-2950426D01*
X4628437Y-2950426D01*
X4625750Y-2949123D01*
X4621742Y-2946445D01*
X4621742Y-2946445D01*
X4620849Y-2945848D01*
X4619797Y-2945639D01*
X4619797Y-2945639D01*
X4611153Y-2943920D01*
X4610100Y-2943710D01*
X4599351Y-2945848D01*
X4598458Y-2946445D01*
X4598458Y-2946445D01*
X4597398Y-2947153D01*
X4590238Y-2951938D01*
X4584780Y-2960105D01*
X4579490Y-2964275D01*
X4572759Y-2964540D01*
X4568010Y-2961756D01*
X4567346Y-2961093D01*
X4565991Y-2959441D01*
X4565647Y-2958926D01*
X4565647Y-2958926D01*
X4565050Y-2958034D01*
X4562750Y-2956497D01*
X4562750Y-2956496D01*
X4559193Y-2954120D01*
X4559193Y-2954120D01*
X4557654Y-2953091D01*
X4556830Y-2952541D01*
X4556830Y-2952541D01*
X4555938Y-2951944D01*
X4547901Y-2950346D01*
X4547901Y-2950346D01*
X4547901Y-2950346D01*
X4546241Y-2950016D01*
X4546241Y-2950016D01*
X4545188Y-2949806D01*
X4544135Y-2950016D01*
X4543528Y-2950137D01*
X4541401Y-2950346D01*
X4404528Y-2950346D01*
X4398121Y-2948264D01*
X4396820Y-2947153D01*
X4392710Y-2943043D01*
X4391843Y-2942601D01*
X4388396Y-2940845D01*
X4380701Y-2936924D01*
X4379853Y-2936790D01*
X4379853Y-2936790D01*
X4368235Y-2934950D01*
X4367388Y-2934816D01*
X4366541Y-2934950D01*
X4354923Y-2936790D01*
X4354923Y-2936790D01*
X4354075Y-2936924D01*
X4346380Y-2940845D01*
X4342933Y-2942601D01*
X4342066Y-2943043D01*
X4332535Y-2952574D01*
X4332146Y-2953338D01*
X4332146Y-2953338D01*
X4330227Y-2957103D01*
X4326416Y-2964583D01*
X4326305Y-2965283D01*
X4322390Y-2970671D01*
X4315983Y-2972753D01*
X4312224Y-2971850D01*
X4312177Y-2971996D01*
X4311361Y-2971731D01*
X4310597Y-2971342D01*
X4309749Y-2971207D01*
X4309749Y-2971207D01*
X4298131Y-2969367D01*
X4297284Y-2969233D01*
X4296437Y-2969367D01*
X4284819Y-2971207D01*
X4284819Y-2971207D01*
X4283971Y-2971342D01*
X4271962Y-2977461D01*
X4262431Y-2986991D01*
X4260345Y-2991086D01*
X4257555Y-2996562D01*
X4252791Y-3001326D01*
X4247843Y-3002514D01*
X4247331Y-3002514D01*
X4246484Y-3002380D01*
X4245339Y-3002561D01*
X4234019Y-3004354D01*
X4234019Y-3004354D01*
X4233171Y-3004488D01*
X4224524Y-3008894D01*
X4222550Y-3009900D01*
X4221162Y-3010607D01*
X4211631Y-3020138D01*
X4211242Y-3020902D01*
X4211242Y-3020902D01*
X4210195Y-3022956D01*
X4205512Y-3032147D01*
X4205378Y-3032995D01*
X4205378Y-3032995D01*
X4204146Y-3040771D01*
X4203404Y-3045460D01*
X4203538Y-3046307D01*
X4205378Y-3057925D01*
X4205378Y-3057925D01*
X4205512Y-3058773D01*
X4209220Y-3066050D01*
X4210883Y-3069312D01*
X4211631Y-3070782D01*
X4221162Y-3080313D01*
X4221048Y-3080426D01*
X4224451Y-3085110D01*
X4224450Y-3090228D01*
X4224816Y-3090286D01*
X4224816Y-3090286D01*
X4224816Y-3090286D01*
X4224629Y-3091469D01*
X4224450Y-3091819D01*
X4224450Y-3091846D01*
X4224417Y-3091950D01*
X4224388Y-3091941D01*
X4221571Y-3097471D01*
X4215569Y-3100529D01*
X4215180Y-3100560D01*
X4214988Y-3100529D01*
X4214416Y-3100620D01*
X4214415Y-3100620D01*
X4202523Y-3102504D01*
X4202523Y-3102504D01*
X4201675Y-3102638D01*
X4189666Y-3108757D01*
X4180135Y-3118288D01*
X4174016Y-3130297D01*
X4173882Y-3131144D01*
X4173882Y-3131145D01*
X4172443Y-3140230D01*
X4171908Y-3143610D01*
X4172042Y-3144457D01*
X4173882Y-3156075D01*
X4173882Y-3156075D01*
X4174016Y-3156922D01*
X4180135Y-3168932D01*
X4187033Y-3175830D01*
X4190091Y-3181832D01*
X4189037Y-3188486D01*
X4184274Y-3193249D01*
X4174327Y-3198317D01*
X4174326Y-3198318D01*
X4173562Y-3198707D01*
X4164031Y-3208238D01*
X4163642Y-3209002D01*
X4163642Y-3209002D01*
X4162509Y-3211227D01*
X4157912Y-3220247D01*
X4157778Y-3221095D01*
X4157778Y-3221095D01*
X4156211Y-3230991D01*
X4155804Y-3233560D01*
X4155938Y-3234407D01*
X4157778Y-3246025D01*
X4157778Y-3246025D01*
X4157912Y-3246872D01*
X4161649Y-3254206D01*
X4163408Y-3257659D01*
X4164031Y-3258882D01*
X4173562Y-3268413D01*
X4173381Y-3268594D01*
X4176603Y-3273030D01*
X4176603Y-3279766D01*
X4172643Y-3285216D01*
X4171185Y-3286110D01*
X4170326Y-3286548D01*
X4170326Y-3286548D01*
X4169562Y-3286937D01*
X4160031Y-3296468D01*
X4159642Y-3297232D01*
X4159642Y-3297232D01*
X4159300Y-3297903D01*
X4153912Y-3308477D01*
X4153778Y-3309324D01*
X4153778Y-3309325D01*
X4152143Y-3319649D01*
X4151804Y-3321790D01*
X4151938Y-3322637D01*
X4153778Y-3334255D01*
X4153778Y-3334255D01*
X4153912Y-3335102D01*
X4156690Y-3340554D01*
X4159224Y-3345527D01*
X4160031Y-3347112D01*
X4169562Y-3356643D01*
X4170326Y-3357032D01*
X4170326Y-3357032D01*
X4171057Y-3357404D01*
X4181571Y-3362762D01*
X4182419Y-3362896D01*
X4182419Y-3362896D01*
X4194037Y-3364736D01*
X4194884Y-3364870D01*
X4200519Y-3363978D01*
X4207173Y-3365031D01*
X4211936Y-3369795D01*
X4213034Y-3373547D01*
X4213034Y-3373830D01*
X4213139Y-3374355D01*
X4213558Y-3376464D01*
X4214371Y-3380554D01*
X4214566Y-3380844D01*
X4215058Y-3387104D01*
X4214784Y-3387949D01*
X4214371Y-3388566D01*
X4213034Y-3395290D01*
X4213034Y-3402860D01*
X4210952Y-3409267D01*
X4205502Y-3413226D01*
X4202134Y-3413760D01*
X4162099Y-3413760D01*
X4155692Y-3411678D01*
X4154391Y-3410567D01*
X4122676Y-3378852D01*
X4119618Y-3372850D01*
X4119484Y-3371145D01*
X4119484Y-3032760D01*
X4118674Y-3032760D01*
X4114824Y-3027461D01*
X4114401Y-3023921D01*
X4114296Y-3023920D01*
X4114306Y-3022956D01*
X4114306Y-3022956D01*
X4114309Y-3022600D01*
X4114141Y-3021205D01*
X4113155Y-3013057D01*
X4112491Y-3007570D01*
X4112258Y-3006956D01*
X4112258Y-3006955D01*
X4108110Y-2995977D01*
X4107139Y-2993408D01*
X4101021Y-2984506D01*
X4098936Y-2981472D01*
X4098564Y-2980931D01*
X4098074Y-2980494D01*
X4098074Y-2980494D01*
X4087751Y-2971297D01*
X4087751Y-2971297D01*
X4087260Y-2970860D01*
X4079380Y-2966688D01*
X4074461Y-2964083D01*
X4074460Y-2964083D01*
X4073880Y-2963776D01*
X4073244Y-2963616D01*
X4073244Y-2963616D01*
X4062221Y-2960847D01*
X4059197Y-2960087D01*
X4051679Y-2960048D01*
X4044715Y-2960012D01*
X4044714Y-2960012D01*
X4044058Y-2960008D01*
X4043419Y-2960162D01*
X4043419Y-2960162D01*
X4040677Y-2960820D01*
X4029337Y-2963542D01*
X4028753Y-2963844D01*
X4028753Y-2963844D01*
X4016467Y-2970185D01*
X4016467Y-2970185D01*
X4015883Y-2970486D01*
X4014001Y-2972128D01*
X4009637Y-2975935D01*
X4004475Y-2980438D01*
X3999332Y-2987756D01*
X3996230Y-2992170D01*
X3995770Y-2992825D01*
X3990270Y-3006930D01*
X3990184Y-3007582D01*
X3990184Y-3007582D01*
X3988542Y-3020060D01*
X3988294Y-3021940D01*
X3989955Y-3036988D01*
X3990398Y-3038197D01*
X3990952Y-3043484D01*
X3979784Y-3121660D01*
X3979784Y-3148610D01*
X3977702Y-3155017D01*
X3972252Y-3158976D01*
X3968884Y-3159510D01*
X3939733Y-3159510D01*
X3936394Y-3159510D01*
X3931435Y-3160163D01*
X3930680Y-3160515D01*
X3930679Y-3160515D01*
X3928193Y-3161675D01*
X3920552Y-3165238D01*
X3919878Y-3165912D01*
X3919876Y-3165914D01*
X3913433Y-3167883D01*
X3907064Y-3165690D01*
X3904856Y-3163461D01*
X3904333Y-3162752D01*
X3903192Y-3161612D01*
X3893861Y-3154719D01*
X3892437Y-3153965D01*
X3881349Y-3150071D01*
X3880060Y-3149789D01*
X3877898Y-3149584D01*
X3877384Y-3149560D01*
X3872610Y-3149560D01*
X3871214Y-3150014D01*
X3870884Y-3150468D01*
X3870884Y-3269834D01*
X3871338Y-3271230D01*
X3871792Y-3271560D01*
X3877385Y-3271560D01*
X3877896Y-3271536D01*
X3880060Y-3271331D01*
X3881349Y-3271049D01*
X3892437Y-3267155D01*
X3893861Y-3266401D01*
X3903192Y-3259508D01*
X3904333Y-3258368D01*
X3904856Y-3257659D01*
X3910337Y-3253743D01*
X3917073Y-3253796D01*
X3919876Y-3255206D01*
X3919878Y-3255208D01*
X3920552Y-3255882D01*
X3931435Y-3260957D01*
X3932262Y-3261066D01*
X3932262Y-3261066D01*
X3936040Y-3261563D01*
X3936041Y-3261563D01*
X3936394Y-3261610D01*
X3939731Y-3261610D01*
X3968884Y-3261610D01*
X3975291Y-3263692D01*
X3979250Y-3269142D01*
X3979784Y-3272510D01*
X3979784Y-3351497D01*
X3979650Y-3353202D01*
X3979584Y-3353618D01*
X3979584Y-3415360D01*
X3977502Y-3421767D01*
X3972052Y-3425726D01*
X3968684Y-3426260D01*
X3910810Y-3426260D01*
X3909414Y-3426714D01*
X3909084Y-3427168D01*
X3909084Y-3435761D01*
X3909108Y-3436272D01*
X3909313Y-3438436D01*
X3909595Y-3439725D01*
X3913489Y-3450813D01*
X3914243Y-3452236D01*
X3919986Y-3460011D01*
X3922118Y-3466402D01*
X3920086Y-3472825D01*
X3914668Y-3476827D01*
X3912640Y-3477294D01*
X3909839Y-3477663D01*
X3909084Y-3478015D01*
X3909083Y-3478015D01*
X3904288Y-3480252D01*
X3898956Y-3482738D01*
X3898282Y-3483412D01*
X3898280Y-3483414D01*
X3891837Y-3485383D01*
X3885468Y-3483190D01*
X3883260Y-3480961D01*
X3882737Y-3480252D01*
X3881596Y-3479112D01*
X3872265Y-3472219D01*
X3870841Y-3471465D01*
X3859753Y-3467571D01*
X3858464Y-3467289D01*
X3856302Y-3467084D01*
X3855788Y-3467060D01*
X3851014Y-3467060D01*
X3849618Y-3467514D01*
X3849288Y-3467968D01*
X3849288Y-3529660D01*
X3847206Y-3536067D01*
X3841756Y-3540026D01*
X3838388Y-3540560D01*
X3780514Y-3540560D01*
X3779118Y-3541014D01*
X3778256Y-3542199D01*
X3778788Y-3544461D01*
X3778788Y-3550061D01*
X3778812Y-3550572D01*
X3779017Y-3552736D01*
X3779299Y-3554025D01*
X3783193Y-3565113D01*
X3783947Y-3566537D01*
X3790840Y-3575869D01*
X3791979Y-3577008D01*
X3793182Y-3577897D01*
X3797099Y-3583378D01*
X3797046Y-3590114D01*
X3796339Y-3591765D01*
X3795893Y-3592607D01*
X3791999Y-3603695D01*
X3791717Y-3604984D01*
X3791512Y-3607146D01*
X3791488Y-3607660D01*
X3791488Y-3615434D01*
X3791942Y-3616830D01*
X3792396Y-3617160D01*
X3851088Y-3617160D01*
X3857495Y-3619242D01*
X3861454Y-3624692D01*
X3861988Y-3628060D01*
X3861988Y-3688934D01*
X3862442Y-3690330D01*
X3862896Y-3690660D01*
X3868489Y-3690660D01*
X3869000Y-3690636D01*
X3871164Y-3690431D01*
X3872453Y-3690149D01*
X3883541Y-3686255D01*
X3884965Y-3685501D01*
X3894296Y-3678608D01*
X3895437Y-3677468D01*
X3895960Y-3676759D01*
X3901441Y-3672843D01*
X3908177Y-3672896D01*
X3910980Y-3674306D01*
X3910982Y-3674308D01*
X3911656Y-3674982D01*
X3922539Y-3680057D01*
X3923366Y-3680166D01*
X3923366Y-3680166D01*
X3927144Y-3680663D01*
X3927145Y-3680663D01*
X3927498Y-3680710D01*
X3942012Y-3680710D01*
X3948419Y-3682792D01*
X3952379Y-3688242D01*
X3952379Y-3694978D01*
X3952206Y-3695429D01*
X3951739Y-3696111D01*
X3951506Y-3697089D01*
X3951141Y-3698631D01*
X3950660Y-3700152D01*
X3949783Y-3702349D01*
X3945475Y-3707528D01*
X3939659Y-3709210D01*
X3922513Y-3709210D01*
X3921989Y-3709314D01*
X3921989Y-3709314D01*
X3920071Y-3709696D01*
X3916665Y-3710373D01*
X3915772Y-3710970D01*
X3915772Y-3710970D01*
X3911733Y-3713669D01*
X3910033Y-3714805D01*
X3909436Y-3715697D01*
X3906416Y-3720217D01*
X3905601Y-3721437D01*
X3905270Y-3723103D01*
X3904596Y-3726490D01*
X3904438Y-3727285D01*
X3904438Y-3746459D01*
X3902356Y-3752866D01*
X3901470Y-3753854D01*
X3901049Y-3754113D01*
X3900440Y-3754914D01*
X3900440Y-3754914D01*
X3899324Y-3756382D01*
X3898355Y-3757492D01*
X3873390Y-3782457D01*
X3873117Y-3782693D01*
X3872657Y-3782917D01*
X3871415Y-3784256D01*
X3869306Y-3786530D01*
X3869022Y-3786824D01*
X3868629Y-3787218D01*
X3862627Y-3790276D01*
X3860922Y-3790410D01*
X3851098Y-3790410D01*
X3846139Y-3791063D01*
X3845384Y-3791415D01*
X3845383Y-3791415D01*
X3842342Y-3792834D01*
X3835256Y-3796138D01*
X3826766Y-3804628D01*
X3821691Y-3815511D01*
X3821582Y-3816338D01*
X3821582Y-3816338D01*
X3821118Y-3819861D01*
X3821038Y-3820470D01*
X3821038Y-3856450D01*
X3821691Y-3861409D01*
X3822043Y-3862164D01*
X3822043Y-3862164D01*
X3823721Y-3865762D01*
X3826766Y-3872292D01*
X3827440Y-3872966D01*
X3827442Y-3872968D01*
X3829411Y-3879411D01*
X3827218Y-3885780D01*
X3824989Y-3887988D01*
X3824280Y-3888511D01*
X3823140Y-3889652D01*
X3816247Y-3898983D01*
X3815493Y-3900407D01*
X3811599Y-3911495D01*
X3811317Y-3912784D01*
X3811112Y-3914946D01*
X3811088Y-3915460D01*
X3811088Y-3920234D01*
X3811542Y-3921630D01*
X3811996Y-3921960D01*
X3873688Y-3921960D01*
X3880095Y-3924042D01*
X3884054Y-3929492D01*
X3884588Y-3932860D01*
X3884588Y-3990734D01*
X3885042Y-3992130D01*
X3885496Y-3992460D01*
X3894089Y-3992460D01*
X3894600Y-3992436D01*
X3896765Y-3992231D01*
X3897899Y-3991982D01*
X3904603Y-3992642D01*
X3906393Y-3993635D01*
X3908166Y-3994849D01*
X3916717Y-3998630D01*
X3918281Y-3999056D01*
X3919716Y-3999223D01*
X3920347Y-3999260D01*
X3927880Y-3999260D01*
X3934287Y-4001342D01*
X3938246Y-4006792D01*
X3938164Y-4013772D01*
X3934995Y-4022795D01*
X3934713Y-4024084D01*
X3934508Y-4026246D01*
X3934484Y-4026760D01*
X3934484Y-4034534D01*
X3934938Y-4035930D01*
X3935392Y-4036260D01*
X3994084Y-4036260D01*
X4000491Y-4038342D01*
X4004450Y-4043792D01*
X4004984Y-4047160D01*
X4004984Y-4108034D01*
X4005438Y-4109430D01*
X4005892Y-4109760D01*
X4011485Y-4109760D01*
X4011996Y-4109736D01*
X4014160Y-4109531D01*
X4015449Y-4109249D01*
X4026537Y-4105355D01*
X4027961Y-4104601D01*
X4037292Y-4097708D01*
X4038433Y-4096568D01*
X4038956Y-4095859D01*
X4044437Y-4091943D01*
X4051173Y-4091996D01*
X4053976Y-4093406D01*
X4053978Y-4093408D01*
X4054652Y-4094082D01*
X4065535Y-4099157D01*
X4066362Y-4099266D01*
X4066362Y-4099266D01*
X4070140Y-4099763D01*
X4070141Y-4099763D01*
X4070494Y-4099810D01*
X4088479Y-4099810D01*
X4106474Y-4099810D01*
X4111433Y-4099157D01*
X4112188Y-4098805D01*
X4112188Y-4098805D01*
X4118505Y-4095859D01*
X4122316Y-4094082D01*
X4130806Y-4085592D01*
X4135881Y-4074709D01*
X4136121Y-4072886D01*
X4136487Y-4070103D01*
X4136487Y-4070103D01*
X4136534Y-4069750D01*
X4136534Y-4027770D01*
X4135881Y-4022811D01*
X4135484Y-4021960D01*
X4131922Y-4014321D01*
X4130806Y-4011928D01*
X4125640Y-4006762D01*
X4122581Y-4000759D01*
X4123635Y-3994106D01*
X4128399Y-3989342D01*
X4131221Y-3988364D01*
X4131258Y-3988356D01*
X4131258Y-3988356D01*
X4132311Y-3988147D01*
X4135448Y-3986051D01*
X4138050Y-3984312D01*
X4138943Y-3983715D01*
X4139674Y-3982622D01*
X4142778Y-3977976D01*
X4142778Y-3977976D01*
X4143375Y-3977083D01*
X4143991Y-3973982D01*
X4144434Y-3971759D01*
X4144434Y-3971759D01*
X4144538Y-3971235D01*
X4144538Y-3955061D01*
X4146620Y-3948654D01*
X4152070Y-3944695D01*
X4158806Y-3944695D01*
X4164206Y-3948585D01*
X4166040Y-3951068D01*
X4167180Y-3952208D01*
X4176511Y-3959101D01*
X4177935Y-3959855D01*
X4189023Y-3963749D01*
X4190312Y-3964031D01*
X4192474Y-3964236D01*
X4192988Y-3964260D01*
X4200762Y-3964260D01*
X4202158Y-3963806D01*
X4202488Y-3963352D01*
X4202488Y-3904660D01*
X4204570Y-3898253D01*
X4210020Y-3894293D01*
X4213388Y-3893760D01*
X4216588Y-3893760D01*
X4222995Y-3895842D01*
X4226955Y-3901292D01*
X4227488Y-3904660D01*
X4227488Y-3962534D01*
X4227942Y-3963930D01*
X4228396Y-3964260D01*
X4236990Y-3964260D01*
X4237500Y-3964236D01*
X4239665Y-3964031D01*
X4240953Y-3963749D01*
X4251708Y-3959972D01*
X4258443Y-3959813D01*
X4263984Y-3963643D01*
X4265198Y-3965649D01*
X4270182Y-3976336D01*
X4278548Y-3984702D01*
X4282188Y-3986400D01*
X4282745Y-3986660D01*
X4287671Y-3991254D01*
X4289038Y-3996538D01*
X4289038Y-4005340D01*
X4286956Y-4011747D01*
X4284935Y-4013768D01*
X4284662Y-4013907D01*
X4275131Y-4023438D01*
X4269012Y-4035447D01*
X4268878Y-4036295D01*
X4268878Y-4036295D01*
X4267947Y-4042172D01*
X4266904Y-4048760D01*
X4267038Y-4049607D01*
X4267038Y-4049607D01*
X4268878Y-4061225D01*
X4268878Y-4061225D01*
X4269012Y-4062073D01*
X4272360Y-4068643D01*
X4273810Y-4071490D01*
X4275131Y-4074082D01*
X4284662Y-4083613D01*
X4296671Y-4089732D01*
X4297519Y-4089866D01*
X4297519Y-4089866D01*
X4309137Y-4091706D01*
X4309984Y-4091840D01*
X4320258Y-4090213D01*
X4326912Y-4091267D01*
X4331676Y-4096030D01*
X4332734Y-4102656D01*
X4331436Y-4110990D01*
X4330939Y-4114182D01*
X4332798Y-4128398D01*
X4338572Y-4141520D01*
X4339072Y-4142115D01*
X4339072Y-4142115D01*
X4341914Y-4145496D01*
X4344443Y-4151740D01*
X4342819Y-4158278D01*
X4337663Y-4162613D01*
X4333570Y-4163410D01*
X3599795Y-4163410D01*
X3597679Y-4163170D01*
X3597512Y-4163169D01*
X3596316Y-4162894D01*
X3595118Y-4163165D01*
X3594185Y-4163164D01*
X3592936Y-4163279D01*
X3547282Y-4161485D01*
X3546429Y-4161418D01*
X3541950Y-4160888D01*
X3498160Y-4155705D01*
X3497316Y-4155571D01*
X3464941Y-4149131D01*
X3449641Y-4146088D01*
X3448809Y-4145888D01*
X3402027Y-4132694D01*
X3401213Y-4132430D01*
X3400444Y-4132146D01*
X3371790Y-4121575D01*
X3355611Y-4115606D01*
X3354820Y-4115279D01*
X3310677Y-4094929D01*
X3309915Y-4094540D01*
X3267505Y-4070790D01*
X3267459Y-4070761D01*
X3934484Y-4070761D01*
X3934508Y-4071272D01*
X3934713Y-4073436D01*
X3934995Y-4074725D01*
X3938889Y-4085813D01*
X3939643Y-4087237D01*
X3946536Y-4096568D01*
X3947676Y-4097708D01*
X3957007Y-4104601D01*
X3958431Y-4105355D01*
X3969519Y-4109249D01*
X3970808Y-4109531D01*
X3972970Y-4109736D01*
X3973484Y-4109760D01*
X3978258Y-4109760D01*
X3979654Y-4109306D01*
X3979984Y-4108852D01*
X3979984Y-4062986D01*
X3979530Y-4061590D01*
X3979076Y-4061260D01*
X3936210Y-4061260D01*
X3934814Y-4061714D01*
X3934484Y-4062168D01*
X3934484Y-4070761D01*
X3267459Y-4070761D01*
X3266776Y-4070342D01*
X3247102Y-4057197D01*
X3241133Y-4053209D01*
X3236963Y-4047919D01*
X3236698Y-4041187D01*
X3240441Y-4035586D01*
X3247189Y-4033246D01*
X3257833Y-4033246D01*
X3263046Y-4032478D01*
X3263834Y-4032362D01*
X3264672Y-4032239D01*
X3275072Y-4027133D01*
X3276137Y-4026066D01*
X3280567Y-4021628D01*
X3286567Y-4018565D01*
X3293221Y-4019613D01*
X3295982Y-4021615D01*
X3301546Y-4027169D01*
X3311955Y-4032257D01*
X3313628Y-4032501D01*
X3318344Y-4033189D01*
X3318345Y-4033189D01*
X3318735Y-4033246D01*
X3354833Y-4033246D01*
X3360046Y-4032478D01*
X3360834Y-4032362D01*
X3361672Y-4032239D01*
X3372072Y-4027133D01*
X3373137Y-4026066D01*
X3379621Y-4019571D01*
X3380257Y-4018934D01*
X3380511Y-4018414D01*
X3385788Y-4014509D01*
X3389247Y-4013946D01*
X3418232Y-4013946D01*
X3424638Y-4016028D01*
X3426524Y-4017946D01*
X3426562Y-4018028D01*
X3435052Y-4026518D01*
X3445935Y-4031593D01*
X3446762Y-4031702D01*
X3446762Y-4031702D01*
X3450540Y-4032199D01*
X3450541Y-4032199D01*
X3450894Y-4032246D01*
X3468879Y-4032246D01*
X3486874Y-4032246D01*
X3491833Y-4031593D01*
X3492588Y-4031241D01*
X3492588Y-4031241D01*
X3498905Y-4028295D01*
X3502716Y-4026518D01*
X3503390Y-4025844D01*
X3503392Y-4025842D01*
X3509835Y-4023873D01*
X3516204Y-4026066D01*
X3518412Y-4028295D01*
X3518935Y-4029004D01*
X3520076Y-4030144D01*
X3529407Y-4037037D01*
X3530831Y-4037791D01*
X3541919Y-4041685D01*
X3543208Y-4041967D01*
X3545370Y-4042172D01*
X3545884Y-4042196D01*
X3550658Y-4042196D01*
X3552054Y-4041742D01*
X3552384Y-4041288D01*
X3552384Y-4040470D01*
X3577384Y-4040470D01*
X3577838Y-4041866D01*
X3578292Y-4042196D01*
X3583885Y-4042196D01*
X3584396Y-4042172D01*
X3586560Y-4041967D01*
X3587849Y-4041685D01*
X3598937Y-4037791D01*
X3600361Y-4037037D01*
X3609692Y-4030144D01*
X3610832Y-4029004D01*
X3617725Y-4019673D01*
X3618479Y-4018249D01*
X3622373Y-4007161D01*
X3622655Y-4005872D01*
X3622860Y-4003710D01*
X3622884Y-4003196D01*
X3622884Y-3995422D01*
X3622430Y-3994026D01*
X3621976Y-3993696D01*
X3579110Y-3993696D01*
X3577714Y-3994150D01*
X3577384Y-3994604D01*
X3577384Y-4040470D01*
X3552384Y-4040470D01*
X3552384Y-3979596D01*
X3554466Y-3973189D01*
X3559916Y-3969229D01*
X3563284Y-3968696D01*
X3621158Y-3968696D01*
X3622554Y-3968242D01*
X3622884Y-3967788D01*
X3622884Y-3959194D01*
X3622860Y-3958684D01*
X3622655Y-3956519D01*
X3622373Y-3955231D01*
X3621751Y-3953461D01*
X3811088Y-3953461D01*
X3811112Y-3953972D01*
X3811317Y-3956136D01*
X3811599Y-3957425D01*
X3815493Y-3968513D01*
X3816247Y-3969937D01*
X3823140Y-3979268D01*
X3824280Y-3980408D01*
X3833611Y-3987301D01*
X3835035Y-3988055D01*
X3846123Y-3991949D01*
X3847412Y-3992231D01*
X3849574Y-3992436D01*
X3850088Y-3992460D01*
X3857862Y-3992460D01*
X3859258Y-3992006D01*
X3859588Y-3991552D01*
X3859588Y-3948686D01*
X3859134Y-3947290D01*
X3858680Y-3946960D01*
X3812814Y-3946960D01*
X3811418Y-3947414D01*
X3811088Y-3947868D01*
X3811088Y-3953461D01*
X3621751Y-3953461D01*
X3618479Y-3944143D01*
X3617725Y-3942719D01*
X3614657Y-3938566D01*
X3612525Y-3932176D01*
X3613616Y-3927338D01*
X3614653Y-3925198D01*
X3616871Y-3920619D01*
X3617438Y-3917246D01*
X3620554Y-3911273D01*
X3626586Y-3908273D01*
X3633229Y-3909390D01*
X3634227Y-3909981D01*
X3640474Y-3914139D01*
X3640475Y-3914140D01*
X3641121Y-3914570D01*
X3641862Y-3914801D01*
X3654064Y-3918613D01*
X3654064Y-3918613D01*
X3654805Y-3918845D01*
X3662563Y-3918987D01*
X3668364Y-3919094D01*
X3668364Y-3919094D01*
X3669140Y-3919108D01*
X3682971Y-3915337D01*
X3695189Y-3907835D01*
X3704810Y-3897206D01*
X3711061Y-3884304D01*
X3713187Y-3871668D01*
X3713369Y-3870582D01*
X3713369Y-3870581D01*
X3713439Y-3870166D01*
X3713454Y-3868931D01*
X3711422Y-3854739D01*
X3711119Y-3854074D01*
X3711319Y-3847361D01*
X3715438Y-3842031D01*
X3721904Y-3840140D01*
X3723323Y-3840276D01*
X3723958Y-3840379D01*
X3724700Y-3840610D01*
X3732457Y-3840752D01*
X3738258Y-3840859D01*
X3738258Y-3840859D01*
X3739034Y-3840873D01*
X3752866Y-3837102D01*
X3765083Y-3829600D01*
X3774704Y-3818971D01*
X3780955Y-3806069D01*
X3782801Y-3795099D01*
X3783264Y-3792347D01*
X3783264Y-3792347D01*
X3783334Y-3791931D01*
X3783349Y-3790696D01*
X3781316Y-3776504D01*
X3775382Y-3763453D01*
X3766024Y-3752592D01*
X3753993Y-3744794D01*
X3750354Y-3743706D01*
X3741002Y-3740909D01*
X3741002Y-3740909D01*
X3740258Y-3740687D01*
X3733090Y-3740643D01*
X3726698Y-3740604D01*
X3726698Y-3740604D01*
X3725922Y-3740599D01*
X3725175Y-3740812D01*
X3725175Y-3740812D01*
X3712883Y-3744325D01*
X3712883Y-3744325D01*
X3712137Y-3744539D01*
X3711480Y-3744953D01*
X3700696Y-3751758D01*
X3700012Y-3752189D01*
X3698812Y-3753547D01*
X3691036Y-3762352D01*
X3691036Y-3762353D01*
X3690522Y-3762935D01*
X3690247Y-3763519D01*
X3685037Y-3767693D01*
X3678308Y-3768011D01*
X3672677Y-3764312D01*
X3670284Y-3757497D01*
X3670284Y-3728169D01*
X3670493Y-3726043D01*
X3670592Y-3725549D01*
X3670801Y-3724496D01*
X3670284Y-3721896D01*
X3670284Y-3721896D01*
X3668752Y-3714195D01*
X3662917Y-3705463D01*
X3661606Y-3704586D01*
X3659954Y-3703231D01*
X3619801Y-3663078D01*
X3682223Y-3663078D01*
X3684082Y-3677294D01*
X3689856Y-3690416D01*
X3690355Y-3691010D01*
X3690355Y-3691011D01*
X3698294Y-3700455D01*
X3699081Y-3701391D01*
X3711015Y-3709335D01*
X3711756Y-3709566D01*
X3723959Y-3713379D01*
X3723959Y-3713379D01*
X3724700Y-3713610D01*
X3732457Y-3713752D01*
X3738258Y-3713859D01*
X3738258Y-3713859D01*
X3739034Y-3713873D01*
X3752866Y-3710102D01*
X3765083Y-3702600D01*
X3765881Y-3701719D01*
X3774183Y-3692547D01*
X3774704Y-3691971D01*
X3780955Y-3679069D01*
X3781104Y-3678183D01*
X3781151Y-3678094D01*
X3781320Y-3677564D01*
X3781412Y-3677593D01*
X3784220Y-3672211D01*
X3790252Y-3669211D01*
X3796895Y-3670328D01*
X3800621Y-3673516D01*
X3803540Y-3677468D01*
X3804680Y-3678608D01*
X3814011Y-3685501D01*
X3815435Y-3686255D01*
X3826523Y-3690149D01*
X3827812Y-3690431D01*
X3829974Y-3690636D01*
X3830488Y-3690660D01*
X3835262Y-3690660D01*
X3836658Y-3690206D01*
X3836988Y-3689752D01*
X3836988Y-3643886D01*
X3836534Y-3642490D01*
X3836080Y-3642160D01*
X3793214Y-3642160D01*
X3789199Y-3643465D01*
X3782462Y-3643465D01*
X3777012Y-3639505D01*
X3775908Y-3637609D01*
X3775704Y-3637160D01*
X3775382Y-3636453D01*
X3766024Y-3625592D01*
X3753993Y-3617794D01*
X3749527Y-3616459D01*
X3741002Y-3613909D01*
X3741002Y-3613909D01*
X3740258Y-3613687D01*
X3733090Y-3613643D01*
X3726698Y-3613604D01*
X3726698Y-3613604D01*
X3725922Y-3613599D01*
X3725175Y-3613812D01*
X3725175Y-3613812D01*
X3712883Y-3617325D01*
X3712883Y-3617325D01*
X3712137Y-3617539D01*
X3711480Y-3617953D01*
X3700800Y-3624692D01*
X3700012Y-3625189D01*
X3690522Y-3635935D01*
X3690192Y-3636638D01*
X3690192Y-3636638D01*
X3684759Y-3648209D01*
X3684759Y-3648209D01*
X3684429Y-3648912D01*
X3684309Y-3649680D01*
X3683022Y-3657946D01*
X3682223Y-3663078D01*
X3619801Y-3663078D01*
X3611174Y-3654450D01*
X3608115Y-3648448D01*
X3608353Y-3643922D01*
X3608520Y-3643296D01*
X3608765Y-3642686D01*
X3608863Y-3642002D01*
X3610226Y-3632425D01*
X3611001Y-3626979D01*
X3611015Y-3625596D01*
X3609109Y-3609845D01*
X3608877Y-3609231D01*
X3608877Y-3609230D01*
X3603734Y-3595619D01*
X3603501Y-3595004D01*
X3597958Y-3586938D01*
X3594887Y-3582470D01*
X3594515Y-3581929D01*
X3594025Y-3581492D01*
X3594025Y-3581492D01*
X3583159Y-3571811D01*
X3583159Y-3571811D01*
X3582669Y-3571374D01*
X3582088Y-3571067D01*
X3582088Y-3571067D01*
X3569229Y-3564258D01*
X3569229Y-3564258D01*
X3568647Y-3563950D01*
X3555169Y-3560565D01*
X3549462Y-3556985D01*
X3546949Y-3550735D01*
X3548591Y-3544201D01*
X3552276Y-3540611D01*
X3559940Y-3536078D01*
X3656823Y-3536078D01*
X3658682Y-3550294D01*
X3664456Y-3563416D01*
X3664955Y-3564010D01*
X3664955Y-3564011D01*
X3673129Y-3573734D01*
X3673681Y-3574391D01*
X3685615Y-3582335D01*
X3686356Y-3582566D01*
X3698559Y-3586379D01*
X3698559Y-3586379D01*
X3699300Y-3586610D01*
X3707057Y-3586752D01*
X3712858Y-3586859D01*
X3712858Y-3586859D01*
X3713634Y-3586873D01*
X3727466Y-3583102D01*
X3739683Y-3575600D01*
X3749304Y-3564971D01*
X3755555Y-3552069D01*
X3757139Y-3542653D01*
X3758759Y-3539549D01*
X3757957Y-3537332D01*
X3757943Y-3537117D01*
X3757949Y-3536696D01*
X3755916Y-3522504D01*
X3751974Y-3513834D01*
X3778788Y-3513834D01*
X3779242Y-3515230D01*
X3779696Y-3515560D01*
X3822562Y-3515560D01*
X3823958Y-3515106D01*
X3824288Y-3514652D01*
X3824288Y-3468786D01*
X3823834Y-3467390D01*
X3823380Y-3467060D01*
X3817786Y-3467060D01*
X3817276Y-3467084D01*
X3815111Y-3467289D01*
X3813823Y-3467571D01*
X3802735Y-3471465D01*
X3801311Y-3472219D01*
X3791980Y-3479112D01*
X3790840Y-3480252D01*
X3783947Y-3489583D01*
X3783193Y-3491007D01*
X3779299Y-3502095D01*
X3779017Y-3503384D01*
X3778812Y-3505546D01*
X3778788Y-3506060D01*
X3778788Y-3513834D01*
X3751974Y-3513834D01*
X3749982Y-3509453D01*
X3740624Y-3498592D01*
X3728593Y-3490794D01*
X3724543Y-3489583D01*
X3715602Y-3486909D01*
X3715602Y-3486909D01*
X3714858Y-3486687D01*
X3707690Y-3486643D01*
X3701298Y-3486604D01*
X3701298Y-3486604D01*
X3700522Y-3486599D01*
X3699775Y-3486812D01*
X3699775Y-3486812D01*
X3687483Y-3490325D01*
X3687483Y-3490325D01*
X3686737Y-3490539D01*
X3686080Y-3490953D01*
X3675280Y-3497767D01*
X3674612Y-3498189D01*
X3665122Y-3508935D01*
X3664792Y-3509638D01*
X3664792Y-3509638D01*
X3659359Y-3521209D01*
X3659359Y-3521209D01*
X3659029Y-3521912D01*
X3658909Y-3522680D01*
X3656950Y-3535263D01*
X3656823Y-3536078D01*
X3559940Y-3536078D01*
X3564889Y-3533151D01*
X3564889Y-3533151D01*
X3565479Y-3532802D01*
X3594251Y-3504031D01*
X3601854Y-3494229D01*
X3602304Y-3493190D01*
X3608159Y-3479659D01*
X3608432Y-3479029D01*
X3611022Y-3462671D01*
X3610867Y-3461028D01*
X3609984Y-3451686D01*
X3609464Y-3446183D01*
X3608438Y-3443335D01*
X3604086Y-3431246D01*
X3604086Y-3431245D01*
X3603854Y-3430600D01*
X3603061Y-3429434D01*
X3594930Y-3417470D01*
X3594930Y-3417470D01*
X3594545Y-3416902D01*
X3582121Y-3405950D01*
X3569529Y-3399534D01*
X3909084Y-3399534D01*
X3909538Y-3400930D01*
X3909992Y-3401260D01*
X3952858Y-3401260D01*
X3954254Y-3400806D01*
X3954584Y-3400352D01*
X3954584Y-3354486D01*
X3954130Y-3353090D01*
X3953676Y-3352760D01*
X3948082Y-3352760D01*
X3947572Y-3352784D01*
X3945407Y-3352989D01*
X3944119Y-3353271D01*
X3933031Y-3357165D01*
X3931607Y-3357919D01*
X3922276Y-3364812D01*
X3921136Y-3365952D01*
X3914243Y-3375283D01*
X3913489Y-3376707D01*
X3909595Y-3387795D01*
X3909313Y-3389084D01*
X3909108Y-3391246D01*
X3909084Y-3391760D01*
X3909084Y-3399534D01*
X3569529Y-3399534D01*
X3567365Y-3398431D01*
X3554385Y-3395530D01*
X3551871Y-3394968D01*
X3551871Y-3394968D01*
X3551202Y-3394818D01*
X3550517Y-3394840D01*
X3550517Y-3394840D01*
X3543889Y-3395048D01*
X3534648Y-3395338D01*
X3533990Y-3395530D01*
X3533990Y-3395530D01*
X3519402Y-3399768D01*
X3519402Y-3399768D01*
X3518744Y-3399959D01*
X3518154Y-3400308D01*
X3518154Y-3400308D01*
X3505625Y-3407717D01*
X3504489Y-3408390D01*
X3475717Y-3437161D01*
X3468114Y-3446963D01*
X3467842Y-3447592D01*
X3467841Y-3447593D01*
X3463838Y-3456844D01*
X3461536Y-3462163D01*
X3458946Y-3478521D01*
X3459010Y-3479203D01*
X3459010Y-3479203D01*
X3459402Y-3483352D01*
X3460334Y-3493207D01*
X3460345Y-3493330D01*
X3458876Y-3499904D01*
X3457201Y-3502063D01*
X3393473Y-3565791D01*
X3392773Y-3566433D01*
X3389809Y-3568920D01*
X3389332Y-3569746D01*
X3387875Y-3572270D01*
X3387364Y-3573072D01*
X3387017Y-3573568D01*
X3386265Y-3574642D01*
X3385145Y-3576242D01*
X3385097Y-3576418D01*
X3380798Y-3581028D01*
X3374754Y-3582369D01*
X3372451Y-3582208D01*
X3371527Y-3582730D01*
X3329882Y-3624375D01*
X3329216Y-3625684D01*
X3329303Y-3626238D01*
X3371284Y-3668218D01*
X3374995Y-3670109D01*
X3376582Y-3670360D01*
X3381346Y-3675124D01*
X3382534Y-3680073D01*
X3382534Y-3736224D01*
X3380452Y-3742631D01*
X3375002Y-3746590D01*
X3373137Y-3746819D01*
X3371527Y-3747730D01*
X3329882Y-3789375D01*
X3329216Y-3790684D01*
X3329303Y-3791238D01*
X3371284Y-3833218D01*
X3374995Y-3835109D01*
X3376582Y-3835360D01*
X3381346Y-3840124D01*
X3382534Y-3845073D01*
X3382534Y-3922901D01*
X3380452Y-3929308D01*
X3375002Y-3933267D01*
X3368266Y-3933267D01*
X3366847Y-3932693D01*
X3362374Y-3930507D01*
X3362373Y-3930507D01*
X3361613Y-3930135D01*
X3358464Y-3929676D01*
X3355224Y-3929203D01*
X3355223Y-3929203D01*
X3354833Y-3929146D01*
X3322465Y-3929146D01*
X3316058Y-3927064D01*
X3312099Y-3921614D01*
X3311716Y-3916438D01*
X3313364Y-3906647D01*
X3313364Y-3906647D01*
X3313434Y-3906231D01*
X3313449Y-3904996D01*
X3311416Y-3890804D01*
X3309381Y-3886328D01*
X3307104Y-3881319D01*
X3306347Y-3874625D01*
X3309669Y-3868764D01*
X3316038Y-3865952D01*
X3325654Y-3865077D01*
X3326841Y-3864833D01*
X3341791Y-3859976D01*
X3342894Y-3859475D01*
X3353498Y-3853154D01*
X3354407Y-3852116D01*
X3353891Y-3851180D01*
X3312205Y-3809494D01*
X3310896Y-3808828D01*
X3310342Y-3808915D01*
X3267528Y-3851730D01*
X3261526Y-3854788D01*
X3259754Y-3854922D01*
X3256798Y-3854904D01*
X3256798Y-3854904D01*
X3256022Y-3854899D01*
X3255275Y-3855112D01*
X3254719Y-3855189D01*
X3254605Y-3855168D01*
X3253706Y-3855561D01*
X3250618Y-3856443D01*
X3242983Y-3858625D01*
X3242983Y-3858625D01*
X3242237Y-3858839D01*
X3241580Y-3859253D01*
X3230900Y-3865992D01*
X3230112Y-3866489D01*
X3220622Y-3877235D01*
X3220292Y-3877938D01*
X3220292Y-3877938D01*
X3214859Y-3889509D01*
X3214859Y-3889509D01*
X3214529Y-3890212D01*
X3214409Y-3890980D01*
X3212878Y-3900815D01*
X3212323Y-3904378D01*
X3212424Y-3905148D01*
X3212414Y-3905925D01*
X3212264Y-3905923D01*
X3211184Y-3911723D01*
X3210538Y-3912765D01*
X3209645Y-3914042D01*
X3209398Y-3914963D01*
X3209184Y-3915421D01*
X3209011Y-3915896D01*
X3208534Y-3916722D01*
X3208080Y-3919300D01*
X3207862Y-3920532D01*
X3207657Y-3921460D01*
X3207063Y-3923677D01*
X3206655Y-3925198D01*
X3206738Y-3926147D01*
X3206738Y-3926148D01*
X3206848Y-3927402D01*
X3205333Y-3933966D01*
X3203704Y-3936052D01*
X3199815Y-3939948D01*
X3196311Y-3943458D01*
X3191223Y-3953867D01*
X3190957Y-3955693D01*
X3190333Y-3959972D01*
X3190234Y-3960647D01*
X3190234Y-3990400D01*
X3188152Y-3996807D01*
X3182702Y-4000766D01*
X3175966Y-4000766D01*
X3171935Y-3998404D01*
X3171891Y-3998363D01*
X3154898Y-3982655D01*
X3151153Y-3979193D01*
X3150547Y-3978587D01*
X3117553Y-3942894D01*
X3116997Y-3942243D01*
X3095363Y-3914801D01*
X3086905Y-3904071D01*
X3086402Y-3903380D01*
X3085406Y-3901889D01*
X3075130Y-3886510D01*
X3059397Y-3862964D01*
X3058950Y-3862235D01*
X3035200Y-3819825D01*
X3034811Y-3819063D01*
X3021478Y-3790141D01*
X3235073Y-3790141D01*
X3236607Y-3805787D01*
X3236859Y-3806971D01*
X3241821Y-3821886D01*
X3242329Y-3822986D01*
X3248445Y-3833086D01*
X3249500Y-3833996D01*
X3250416Y-3833486D01*
X3292086Y-3791817D01*
X3292752Y-3790508D01*
X3292665Y-3789954D01*
X3250654Y-3747943D01*
X3249368Y-3747288D01*
X3248651Y-3747937D01*
X3243260Y-3756301D01*
X3242721Y-3757386D01*
X3237345Y-3772158D01*
X3237060Y-3773335D01*
X3235090Y-3788931D01*
X3235073Y-3790141D01*
X3021478Y-3790141D01*
X3014461Y-3774920D01*
X3014134Y-3774129D01*
X3002526Y-3742666D01*
X2997538Y-3729145D01*
X3267604Y-3729145D01*
X3268107Y-3730042D01*
X3309763Y-3771698D01*
X3311072Y-3772364D01*
X3311626Y-3772277D01*
X3353656Y-3730246D01*
X3354305Y-3728972D01*
X3353640Y-3728241D01*
X3344805Y-3722634D01*
X3343716Y-3722103D01*
X3333127Y-3718332D01*
X3327789Y-3714222D01*
X3325887Y-3707760D01*
X3328147Y-3701413D01*
X3333415Y-3697698D01*
X3341791Y-3694976D01*
X3342894Y-3694475D01*
X3353498Y-3688154D01*
X3354407Y-3687116D01*
X3353891Y-3686180D01*
X3312205Y-3644494D01*
X3310896Y-3643828D01*
X3310342Y-3643915D01*
X3268348Y-3685910D01*
X3267687Y-3687206D01*
X3268320Y-3687911D01*
X3276217Y-3693079D01*
X3277299Y-3693625D01*
X3288869Y-3697928D01*
X3294148Y-3702112D01*
X3295960Y-3708601D01*
X3293612Y-3714915D01*
X3288582Y-3718463D01*
X3279211Y-3721653D01*
X3278115Y-3722169D01*
X3268515Y-3728075D01*
X3267604Y-3729145D01*
X2997538Y-3729145D01*
X2997310Y-3728527D01*
X2997046Y-3727713D01*
X2996872Y-3727096D01*
X2992861Y-3712876D01*
X2983852Y-3680931D01*
X2983652Y-3680099D01*
X2980082Y-3662153D01*
X2974169Y-3632424D01*
X2974035Y-3631579D01*
X2973887Y-3630325D01*
X2973273Y-3625141D01*
X3235073Y-3625141D01*
X3236607Y-3640787D01*
X3236859Y-3641971D01*
X3241821Y-3656886D01*
X3242329Y-3657986D01*
X3248445Y-3668086D01*
X3249500Y-3668996D01*
X3250416Y-3668486D01*
X3292086Y-3626817D01*
X3292752Y-3625508D01*
X3292665Y-3624954D01*
X3250654Y-3582943D01*
X3249368Y-3582288D01*
X3248651Y-3582937D01*
X3243260Y-3591301D01*
X3242721Y-3592386D01*
X3237345Y-3607158D01*
X3237060Y-3608335D01*
X3235090Y-3623931D01*
X3235073Y-3625141D01*
X2973273Y-3625141D01*
X2968444Y-3584338D01*
X2968322Y-3583311D01*
X2968255Y-3582458D01*
X2968226Y-3581718D01*
X2966490Y-3537546D01*
X3020830Y-3537546D01*
X3023793Y-3554794D01*
X3024041Y-3555377D01*
X3030249Y-3569965D01*
X3030645Y-3570897D01*
X3041018Y-3584992D01*
X3054355Y-3596323D01*
X3054919Y-3596611D01*
X3054920Y-3596611D01*
X3069378Y-3603994D01*
X3069378Y-3603994D01*
X3069942Y-3604282D01*
X3070556Y-3604432D01*
X3070556Y-3604432D01*
X3086469Y-3608326D01*
X3086469Y-3608326D01*
X3086941Y-3608441D01*
X3087425Y-3608471D01*
X3087425Y-3608472D01*
X3087724Y-3608490D01*
X3088045Y-3608510D01*
X3100662Y-3608510D01*
X3110489Y-3607364D01*
X3113034Y-3607068D01*
X3113034Y-3607068D01*
X3113663Y-3606994D01*
X3114257Y-3606778D01*
X3114258Y-3606778D01*
X3129518Y-3601239D01*
X3129518Y-3601239D01*
X3130113Y-3601023D01*
X3143059Y-3592535D01*
X3144219Y-3591775D01*
X3144219Y-3591775D01*
X3144748Y-3591428D01*
X3156784Y-3578723D01*
X3165251Y-3564145D01*
X3267604Y-3564145D01*
X3268107Y-3565042D01*
X3309763Y-3606698D01*
X3311072Y-3607364D01*
X3311626Y-3607277D01*
X3353656Y-3565246D01*
X3354305Y-3563972D01*
X3353640Y-3563241D01*
X3344805Y-3557634D01*
X3343716Y-3557103D01*
X3333127Y-3553332D01*
X3327789Y-3549222D01*
X3325887Y-3542760D01*
X3328147Y-3536413D01*
X3333415Y-3532698D01*
X3341791Y-3529976D01*
X3342894Y-3529475D01*
X3353498Y-3523154D01*
X3354407Y-3522116D01*
X3353891Y-3521180D01*
X3312205Y-3479494D01*
X3310896Y-3478828D01*
X3310342Y-3478915D01*
X3268348Y-3520910D01*
X3267687Y-3522206D01*
X3268320Y-3522911D01*
X3276217Y-3528079D01*
X3277299Y-3528625D01*
X3288869Y-3532928D01*
X3294148Y-3537112D01*
X3295960Y-3543601D01*
X3293612Y-3549915D01*
X3288582Y-3553463D01*
X3279211Y-3556653D01*
X3278115Y-3557169D01*
X3268515Y-3563075D01*
X3267604Y-3564145D01*
X3165251Y-3564145D01*
X3165574Y-3563590D01*
X3166666Y-3559984D01*
X3170463Y-3547447D01*
X3170463Y-3547447D01*
X3170647Y-3546841D01*
X3171099Y-3539549D01*
X3171691Y-3530006D01*
X3171691Y-3530006D01*
X3171730Y-3529374D01*
X3168767Y-3512126D01*
X3165322Y-3504031D01*
X3162163Y-3496605D01*
X3162162Y-3496605D01*
X3161915Y-3496023D01*
X3151542Y-3481928D01*
X3138204Y-3470597D01*
X3137640Y-3470309D01*
X3137640Y-3470309D01*
X3123182Y-3462926D01*
X3123182Y-3462926D01*
X3122618Y-3462638D01*
X3122004Y-3462488D01*
X3122003Y-3462488D01*
X3112414Y-3460141D01*
X3235073Y-3460141D01*
X3236607Y-3475787D01*
X3236859Y-3476971D01*
X3241821Y-3491886D01*
X3242329Y-3492986D01*
X3248445Y-3503086D01*
X3249500Y-3503996D01*
X3250416Y-3503486D01*
X3292086Y-3461817D01*
X3292663Y-3460684D01*
X3329216Y-3460684D01*
X3329303Y-3461238D01*
X3371284Y-3503218D01*
X3372591Y-3503884D01*
X3373283Y-3503268D01*
X3378222Y-3495833D01*
X3378776Y-3494755D01*
X3384358Y-3480061D01*
X3384659Y-3478887D01*
X3386884Y-3463057D01*
X3386937Y-3462374D01*
X3386957Y-3460939D01*
X3386924Y-3460256D01*
X3385141Y-3444369D01*
X3384873Y-3443188D01*
X3379704Y-3428343D01*
X3379180Y-3427250D01*
X3373491Y-3418146D01*
X3372404Y-3417234D01*
X3371527Y-3417730D01*
X3329882Y-3459375D01*
X3329216Y-3460684D01*
X3292663Y-3460684D01*
X3292752Y-3460508D01*
X3292665Y-3459954D01*
X3250654Y-3417943D01*
X3249368Y-3417288D01*
X3248651Y-3417937D01*
X3243260Y-3426301D01*
X3242721Y-3427386D01*
X3237345Y-3442158D01*
X3237060Y-3443335D01*
X3235090Y-3458931D01*
X3235073Y-3460141D01*
X3112414Y-3460141D01*
X3106091Y-3458594D01*
X3106091Y-3458594D01*
X3105619Y-3458478D01*
X3105135Y-3458448D01*
X3105135Y-3458448D01*
X3104836Y-3458430D01*
X3104515Y-3458410D01*
X3091898Y-3458410D01*
X3083617Y-3459375D01*
X3079526Y-3459852D01*
X3079526Y-3459852D01*
X3078897Y-3459926D01*
X3078303Y-3460141D01*
X3078302Y-3460142D01*
X3070518Y-3462967D01*
X3062447Y-3465897D01*
X3047811Y-3475492D01*
X3035776Y-3488197D01*
X3026986Y-3503330D01*
X3026802Y-3503937D01*
X3026802Y-3503937D01*
X3022484Y-3518195D01*
X3021913Y-3520079D01*
X3021763Y-3522504D01*
X3020875Y-3536810D01*
X3020830Y-3537546D01*
X2966490Y-3537546D01*
X2966347Y-3533888D01*
X2966347Y-3533032D01*
X2966360Y-3532698D01*
X2968255Y-3484462D01*
X2968322Y-3483609D01*
X2969706Y-3471921D01*
X2974035Y-3435340D01*
X2974169Y-3434495D01*
X2974330Y-3433687D01*
X2981022Y-3400042D01*
X2981201Y-3399145D01*
X3267604Y-3399145D01*
X3268107Y-3400042D01*
X3309763Y-3441698D01*
X3311072Y-3442364D01*
X3311626Y-3442277D01*
X3353656Y-3400246D01*
X3354305Y-3398972D01*
X3353640Y-3398241D01*
X3344805Y-3392634D01*
X3343716Y-3392103D01*
X3328908Y-3386830D01*
X3327728Y-3386553D01*
X3312119Y-3384692D01*
X3310909Y-3384684D01*
X3295275Y-3386327D01*
X3294092Y-3386587D01*
X3279211Y-3391653D01*
X3278115Y-3392169D01*
X3268515Y-3398075D01*
X3267604Y-3399145D01*
X2981201Y-3399145D01*
X2983652Y-3386821D01*
X2983852Y-3385989D01*
X2997046Y-3339207D01*
X2997310Y-3338393D01*
X2997396Y-3338160D01*
X3008125Y-3309077D01*
X3014134Y-3292791D01*
X3014461Y-3292000D01*
X3034811Y-3247857D01*
X3035200Y-3247095D01*
X3058950Y-3204685D01*
X3059397Y-3203956D01*
X3078939Y-3174710D01*
X3086402Y-3163540D01*
X3086905Y-3162848D01*
X3086981Y-3162752D01*
X3101403Y-3144457D01*
X3116997Y-3124677D01*
X3117553Y-3124026D01*
X3150547Y-3088333D01*
X3151153Y-3087727D01*
X3186846Y-3054733D01*
X3187497Y-3054177D01*
X3214486Y-3032900D01*
X3220806Y-3030569D01*
X3227290Y-3032397D01*
X3231460Y-3037688D01*
X3232134Y-3041460D01*
X3232134Y-3055696D01*
X3230052Y-3062103D01*
X3228941Y-3063403D01*
X3145214Y-3147131D01*
X3143562Y-3148486D01*
X3142251Y-3149363D01*
X3140778Y-3151567D01*
X3136416Y-3158095D01*
X3134367Y-3168396D01*
X3134576Y-3169449D01*
X3134576Y-3169449D01*
X3134675Y-3169943D01*
X3134884Y-3172070D01*
X3134884Y-3203303D01*
X3132802Y-3209710D01*
X3130697Y-3211682D01*
X3130776Y-3211775D01*
X3130185Y-3212279D01*
X3129528Y-3212693D01*
X3120038Y-3223439D01*
X3119708Y-3224142D01*
X3119708Y-3224142D01*
X3114275Y-3235713D01*
X3114275Y-3235713D01*
X3113945Y-3236416D01*
X3113825Y-3237184D01*
X3112602Y-3245042D01*
X3111739Y-3250582D01*
X3113598Y-3264798D01*
X3119372Y-3277920D01*
X3119871Y-3278514D01*
X3119871Y-3278515D01*
X3128097Y-3288301D01*
X3128597Y-3288895D01*
X3140531Y-3296839D01*
X3141272Y-3297070D01*
X3153475Y-3300883D01*
X3153475Y-3300883D01*
X3154216Y-3301114D01*
X3161973Y-3301256D01*
X3167774Y-3301363D01*
X3167774Y-3301363D01*
X3168550Y-3301377D01*
X3182382Y-3297606D01*
X3194599Y-3290104D01*
X3199024Y-3285216D01*
X3203699Y-3280051D01*
X3204220Y-3279475D01*
X3210471Y-3266573D01*
X3212202Y-3256285D01*
X3212780Y-3252851D01*
X3212780Y-3252851D01*
X3212850Y-3252435D01*
X3212865Y-3251200D01*
X3210832Y-3237008D01*
X3204898Y-3223957D01*
X3195540Y-3213096D01*
X3192655Y-3211227D01*
X3188411Y-3205995D01*
X3187684Y-3202080D01*
X3187684Y-3183846D01*
X3189766Y-3177439D01*
X3190876Y-3176139D01*
X3213526Y-3153489D01*
X3219529Y-3150430D01*
X3226182Y-3151484D01*
X3230946Y-3156248D01*
X3232134Y-3161196D01*
X3232134Y-3214571D01*
X3232238Y-3215095D01*
X3232238Y-3215095D01*
X3232639Y-3217110D01*
X3233297Y-3220419D01*
X3233894Y-3221312D01*
X3233894Y-3221312D01*
X3236695Y-3225505D01*
X3237729Y-3227051D01*
X3238621Y-3227648D01*
X3242514Y-3230249D01*
X3244361Y-3231483D01*
X3247182Y-3232044D01*
X3249685Y-3232542D01*
X3249685Y-3232542D01*
X3250209Y-3232646D01*
X3320384Y-3232646D01*
X3326791Y-3234728D01*
X3328091Y-3235838D01*
X3365619Y-3273366D01*
X3366974Y-3275018D01*
X3367851Y-3276329D01*
X3370055Y-3277802D01*
X3376583Y-3282164D01*
X3386884Y-3284213D01*
X3387937Y-3284004D01*
X3387937Y-3284004D01*
X3388431Y-3283905D01*
X3390558Y-3283696D01*
X3513210Y-3283696D01*
X3515336Y-3283905D01*
X3515831Y-3284004D01*
X3515831Y-3284004D01*
X3516884Y-3284213D01*
X3517937Y-3284004D01*
X3518431Y-3283905D01*
X3519484Y-3283696D01*
X3527185Y-3282164D01*
X3527534Y-3281931D01*
X3650914Y-3281931D01*
X3652773Y-3296147D01*
X3658547Y-3309269D01*
X3659047Y-3309863D01*
X3659047Y-3309863D01*
X3666683Y-3318947D01*
X3667772Y-3320244D01*
X3679707Y-3328188D01*
X3680448Y-3328419D01*
X3692650Y-3332232D01*
X3692650Y-3332232D01*
X3693391Y-3332463D01*
X3701149Y-3332605D01*
X3706949Y-3332712D01*
X3706949Y-3332712D01*
X3707725Y-3332726D01*
X3721557Y-3328955D01*
X3733774Y-3321453D01*
X3743395Y-3310824D01*
X3749646Y-3297922D01*
X3751784Y-3285216D01*
X3751955Y-3284200D01*
X3751955Y-3284200D01*
X3752025Y-3283784D01*
X3752040Y-3282549D01*
X3750008Y-3268357D01*
X3744074Y-3255306D01*
X3734715Y-3244445D01*
X3722685Y-3236647D01*
X3718145Y-3235290D01*
X3709693Y-3232762D01*
X3709693Y-3232762D01*
X3709022Y-3232561D01*
X3800384Y-3232561D01*
X3800408Y-3233072D01*
X3800613Y-3235236D01*
X3800895Y-3236525D01*
X3804789Y-3247613D01*
X3805543Y-3249037D01*
X3812436Y-3258368D01*
X3813576Y-3259508D01*
X3822907Y-3266401D01*
X3824331Y-3267155D01*
X3835419Y-3271049D01*
X3836708Y-3271331D01*
X3838870Y-3271536D01*
X3839384Y-3271560D01*
X3844158Y-3271560D01*
X3845554Y-3271106D01*
X3845884Y-3270652D01*
X3845884Y-3224786D01*
X3845430Y-3223390D01*
X3844976Y-3223060D01*
X3802110Y-3223060D01*
X3800714Y-3223514D01*
X3800384Y-3223968D01*
X3800384Y-3232561D01*
X3709022Y-3232561D01*
X3708949Y-3232540D01*
X3701781Y-3232496D01*
X3695390Y-3232457D01*
X3695389Y-3232457D01*
X3694613Y-3232452D01*
X3693866Y-3232665D01*
X3693866Y-3232665D01*
X3681575Y-3236178D01*
X3681574Y-3236178D01*
X3680828Y-3236392D01*
X3680171Y-3236806D01*
X3674251Y-3240542D01*
X3668703Y-3244042D01*
X3659213Y-3254788D01*
X3658883Y-3255490D01*
X3658883Y-3255491D01*
X3653450Y-3267062D01*
X3653450Y-3267062D01*
X3653120Y-3267765D01*
X3653001Y-3268533D01*
X3651199Y-3280104D01*
X3650914Y-3281931D01*
X3527534Y-3281931D01*
X3528252Y-3281451D01*
X3533713Y-3277802D01*
X3535917Y-3276329D01*
X3536794Y-3275018D01*
X3538149Y-3273366D01*
X3558354Y-3253161D01*
X3560006Y-3251806D01*
X3560425Y-3251526D01*
X3561317Y-3250929D01*
X3567152Y-3242197D01*
X3568684Y-3234496D01*
X3568684Y-3234496D01*
X3569201Y-3231896D01*
X3568893Y-3230349D01*
X3568684Y-3228223D01*
X3568684Y-3196334D01*
X3800384Y-3196334D01*
X3800838Y-3197730D01*
X3801292Y-3198060D01*
X3844158Y-3198060D01*
X3845554Y-3197606D01*
X3845884Y-3197152D01*
X3845884Y-3151286D01*
X3845430Y-3149890D01*
X3844976Y-3149560D01*
X3839382Y-3149560D01*
X3838872Y-3149584D01*
X3836707Y-3149789D01*
X3835419Y-3150071D01*
X3824331Y-3153965D01*
X3822907Y-3154719D01*
X3813576Y-3161612D01*
X3812436Y-3162752D01*
X3805543Y-3172083D01*
X3804789Y-3173507D01*
X3800895Y-3184595D01*
X3800613Y-3185884D01*
X3800408Y-3188046D01*
X3800384Y-3188560D01*
X3800384Y-3196334D01*
X3568684Y-3196334D01*
X3568684Y-3183846D01*
X3570766Y-3177439D01*
X3571876Y-3176139D01*
X3575677Y-3172338D01*
X3581679Y-3169280D01*
X3583384Y-3169146D01*
X3620859Y-3169146D01*
X3621383Y-3169042D01*
X3621383Y-3169042D01*
X3623886Y-3168544D01*
X3626707Y-3167983D01*
X3629103Y-3166382D01*
X3632446Y-3164148D01*
X3633339Y-3163551D01*
X3633936Y-3162658D01*
X3633936Y-3162658D01*
X3634821Y-3161334D01*
X3640111Y-3157163D01*
X3646843Y-3156899D01*
X3652444Y-3160641D01*
X3652947Y-3161334D01*
X3653832Y-3162658D01*
X3653832Y-3162658D01*
X3654429Y-3163551D01*
X3655321Y-3164148D01*
X3658665Y-3166382D01*
X3661061Y-3167983D01*
X3663882Y-3168544D01*
X3666385Y-3169042D01*
X3666385Y-3169042D01*
X3666909Y-3169146D01*
X3720859Y-3169146D01*
X3721383Y-3169042D01*
X3721383Y-3169042D01*
X3723886Y-3168544D01*
X3726707Y-3167983D01*
X3729103Y-3166382D01*
X3732446Y-3164148D01*
X3733339Y-3163551D01*
X3733936Y-3162658D01*
X3733936Y-3162658D01*
X3736541Y-3158760D01*
X3741831Y-3154589D01*
X3743078Y-3154238D01*
X3743232Y-3154174D01*
X3744285Y-3153964D01*
X3750813Y-3149602D01*
X3753017Y-3148129D01*
X3753894Y-3146818D01*
X3755249Y-3145166D01*
X3797037Y-3103378D01*
X3803039Y-3100320D01*
X3809693Y-3101374D01*
X3812301Y-3103447D01*
X3812361Y-3103379D01*
X3812940Y-3103896D01*
X3813440Y-3104491D01*
X3825374Y-3112435D01*
X3826115Y-3112666D01*
X3838317Y-3116479D01*
X3838318Y-3116479D01*
X3839058Y-3116710D01*
X3846816Y-3116852D01*
X3852617Y-3116959D01*
X3852617Y-3116959D01*
X3853393Y-3116973D01*
X3867224Y-3113202D01*
X3879442Y-3105700D01*
X3880464Y-3104571D01*
X3884687Y-3099906D01*
X3889063Y-3095071D01*
X3895314Y-3082169D01*
X3897230Y-3070782D01*
X3897622Y-3068447D01*
X3897622Y-3068447D01*
X3897692Y-3068031D01*
X3897707Y-3066796D01*
X3895675Y-3052604D01*
X3889741Y-3039553D01*
X3889234Y-3038964D01*
X3888816Y-3038311D01*
X3889045Y-3038164D01*
X3886914Y-3033083D01*
X3888458Y-3026525D01*
X3893203Y-3022389D01*
X3893283Y-3022367D01*
X3905500Y-3014866D01*
X3907985Y-3012121D01*
X3914600Y-3004813D01*
X3915121Y-3004237D01*
X3921372Y-2991335D01*
X3923115Y-2980976D01*
X3923681Y-2977612D01*
X3923681Y-2977612D01*
X3923751Y-2977197D01*
X3923766Y-2975961D01*
X3921734Y-2961770D01*
X3915800Y-2948719D01*
X3906441Y-2937858D01*
X3894411Y-2930060D01*
X3892014Y-2929343D01*
X3881419Y-2926175D01*
X3881419Y-2926175D01*
X3880675Y-2925952D01*
X3873507Y-2925908D01*
X3867116Y-2925869D01*
X3867115Y-2925869D01*
X3866339Y-2925865D01*
X3865592Y-2926078D01*
X3865592Y-2926078D01*
X3853301Y-2929591D01*
X3853300Y-2929591D01*
X3852554Y-2929804D01*
X3851897Y-2930219D01*
X3845127Y-2934490D01*
X3840429Y-2937454D01*
X3837434Y-2940845D01*
X3831633Y-2944269D01*
X3824927Y-2943630D01*
X3819878Y-2939170D01*
X3819342Y-2938141D01*
X3816904Y-2932778D01*
X3813482Y-2925253D01*
X3810270Y-2921525D01*
X3807665Y-2915313D01*
X3809209Y-2908755D01*
X3814312Y-2904358D01*
X3818527Y-2903510D01*
X5129215Y-2903510D01*
X5135622Y-2905592D01*
G37*
G04 #@! TD.AperFunction*
G04 #@! TA.AperFunction,Conductor*
G36*
X4864091Y-3969242D02*
G01*
X4868051Y-3974692D01*
X4868584Y-3978060D01*
X4868584Y-4035934D01*
X4869038Y-4037330D01*
X4869492Y-4037660D01*
X4878086Y-4037660D01*
X4878596Y-4037636D01*
X4880761Y-4037431D01*
X4882049Y-4037149D01*
X4893137Y-4033255D01*
X4894561Y-4032501D01*
X4896508Y-4031063D01*
X4902898Y-4028931D01*
X4909321Y-4030962D01*
X4913324Y-4036381D01*
X4913884Y-4039830D01*
X4913884Y-4120896D01*
X4926695Y-4120896D01*
X4931301Y-4121917D01*
X4940471Y-4126193D01*
X4941298Y-4126302D01*
X4941298Y-4126302D01*
X4945077Y-4126799D01*
X4945077Y-4126799D01*
X4945430Y-4126846D01*
X4963415Y-4126846D01*
X4981410Y-4126846D01*
X4986369Y-4126193D01*
X4995539Y-4121917D01*
X5000145Y-4120896D01*
X5006248Y-4120896D01*
X5012655Y-4122978D01*
X5013956Y-4124088D01*
X5014612Y-4124744D01*
X5023943Y-4131637D01*
X5025367Y-4132391D01*
X5036455Y-4136285D01*
X5037744Y-4136567D01*
X5039906Y-4136772D01*
X5040420Y-4136796D01*
X5045194Y-4136796D01*
X5046590Y-4136342D01*
X5046920Y-4135888D01*
X5046920Y-4131796D01*
X5049002Y-4125389D01*
X5054452Y-4121429D01*
X5057820Y-4120896D01*
X5061020Y-4120896D01*
X5067427Y-4122978D01*
X5071387Y-4128428D01*
X5071920Y-4131796D01*
X5071920Y-4135070D01*
X5072374Y-4136466D01*
X5072828Y-4136796D01*
X5078422Y-4136796D01*
X5078932Y-4136772D01*
X5081097Y-4136567D01*
X5082385Y-4136285D01*
X5093473Y-4132391D01*
X5094897Y-4131637D01*
X5100194Y-4127724D01*
X5106584Y-4125592D01*
X5113146Y-4127724D01*
X5118444Y-4131637D01*
X5119867Y-4132391D01*
X5130955Y-4136285D01*
X5132244Y-4136567D01*
X5134406Y-4136772D01*
X5134920Y-4136796D01*
X5139694Y-4136796D01*
X5141090Y-4136342D01*
X5141420Y-4135888D01*
X5141420Y-4131796D01*
X5143502Y-4125389D01*
X5148952Y-4121429D01*
X5152320Y-4120896D01*
X5155520Y-4120896D01*
X5161927Y-4122978D01*
X5165887Y-4128428D01*
X5166420Y-4131796D01*
X5166420Y-4135070D01*
X5166874Y-4136466D01*
X5167328Y-4136796D01*
X5172922Y-4136796D01*
X5173432Y-4136772D01*
X5175597Y-4136567D01*
X5176885Y-4136285D01*
X5187973Y-4132391D01*
X5189397Y-4131637D01*
X5198728Y-4124744D01*
X5199384Y-4124088D01*
X5205387Y-4121030D01*
X5207092Y-4120896D01*
X5213195Y-4120896D01*
X5217801Y-4121917D01*
X5226971Y-4126193D01*
X5227798Y-4126302D01*
X5227798Y-4126302D01*
X5231577Y-4126799D01*
X5231577Y-4126799D01*
X5231930Y-4126846D01*
X5249915Y-4126846D01*
X5267910Y-4126846D01*
X5272869Y-4126193D01*
X5282039Y-4121917D01*
X5286645Y-4120896D01*
X5290311Y-4120896D01*
X5296718Y-4122978D01*
X5300288Y-4127406D01*
X5301684Y-4130579D01*
X5301684Y-4130579D01*
X5301997Y-4131290D01*
X5302496Y-4131884D01*
X5302496Y-4131884D01*
X5310630Y-4141561D01*
X5311222Y-4142265D01*
X5311868Y-4142695D01*
X5311868Y-4142695D01*
X5312982Y-4143436D01*
X5317162Y-4148719D01*
X5317438Y-4155450D01*
X5313705Y-4161058D01*
X5306942Y-4163410D01*
X4429582Y-4163410D01*
X4423176Y-4161328D01*
X4419216Y-4155878D01*
X4419216Y-4149142D01*
X4421501Y-4145195D01*
X4423210Y-4143308D01*
X4428462Y-4140330D01*
X4428444Y-4140289D01*
X4428781Y-4140149D01*
X4429164Y-4139932D01*
X4429436Y-4139878D01*
X4429436Y-4139878D01*
X4430489Y-4139668D01*
X4432750Y-4138157D01*
X4438329Y-4134430D01*
X4439222Y-4133833D01*
X4440098Y-4132522D01*
X4441453Y-4130870D01*
X4489420Y-4082903D01*
X4495423Y-4079845D01*
X4502076Y-4080899D01*
X4503604Y-4081843D01*
X4512807Y-4088641D01*
X4514231Y-4089395D01*
X4525319Y-4093289D01*
X4526608Y-4093571D01*
X4528770Y-4093776D01*
X4529284Y-4093800D01*
X4537058Y-4093800D01*
X4538454Y-4093346D01*
X4538784Y-4092892D01*
X4538784Y-4034200D01*
X4540866Y-4027793D01*
X4546316Y-4023833D01*
X4549684Y-4023300D01*
X4552884Y-4023300D01*
X4559291Y-4025382D01*
X4563251Y-4030832D01*
X4563784Y-4034200D01*
X4563784Y-4092074D01*
X4564238Y-4093470D01*
X4564692Y-4093800D01*
X4573286Y-4093800D01*
X4573796Y-4093776D01*
X4575961Y-4093571D01*
X4577249Y-4093289D01*
X4588337Y-4089395D01*
X4589761Y-4088641D01*
X4599092Y-4081748D01*
X4600232Y-4080608D01*
X4607125Y-4071277D01*
X4608260Y-4069133D01*
X4608475Y-4069246D01*
X4611853Y-4064820D01*
X4618307Y-4062890D01*
X4621662Y-4063502D01*
X4626919Y-4065349D01*
X4628208Y-4065631D01*
X4630370Y-4065836D01*
X4630884Y-4065860D01*
X4638658Y-4065860D01*
X4640054Y-4065406D01*
X4640384Y-4064952D01*
X4640384Y-4064134D01*
X4665384Y-4064134D01*
X4665838Y-4065530D01*
X4666292Y-4065860D01*
X4674886Y-4065860D01*
X4675396Y-4065836D01*
X4677561Y-4065631D01*
X4678849Y-4065349D01*
X4689937Y-4061455D01*
X4691361Y-4060701D01*
X4697208Y-4056382D01*
X4703598Y-4054250D01*
X4710160Y-4056382D01*
X4716007Y-4060701D01*
X4717431Y-4061455D01*
X4728519Y-4065349D01*
X4729808Y-4065631D01*
X4731970Y-4065836D01*
X4732484Y-4065860D01*
X4740258Y-4065860D01*
X4741654Y-4065406D01*
X4741984Y-4064952D01*
X4741984Y-4022086D01*
X4741530Y-4020690D01*
X4741076Y-4020360D01*
X4667110Y-4020360D01*
X4665714Y-4020814D01*
X4665384Y-4021268D01*
X4665384Y-4064134D01*
X4640384Y-4064134D01*
X4640384Y-4006260D01*
X4642466Y-3999853D01*
X4647916Y-3995893D01*
X4651284Y-3995360D01*
X4756084Y-3995360D01*
X4762491Y-3997442D01*
X4766451Y-4002892D01*
X4766984Y-4006260D01*
X4766984Y-4064134D01*
X4767438Y-4065530D01*
X4767892Y-4065860D01*
X4776486Y-4065860D01*
X4776996Y-4065836D01*
X4779161Y-4065631D01*
X4780449Y-4065349D01*
X4791537Y-4061455D01*
X4792961Y-4060701D01*
X4802292Y-4053808D01*
X4803432Y-4052668D01*
X4810325Y-4043337D01*
X4811460Y-4041193D01*
X4811607Y-4041270D01*
X4815134Y-4036648D01*
X4821589Y-4034718D01*
X4824943Y-4035331D01*
X4830119Y-4037149D01*
X4831408Y-4037431D01*
X4833570Y-4037636D01*
X4834084Y-4037660D01*
X4841858Y-4037660D01*
X4843254Y-4037206D01*
X4843584Y-4036752D01*
X4843584Y-3978060D01*
X4845666Y-3971653D01*
X4851116Y-3967693D01*
X4854484Y-3967160D01*
X4857684Y-3967160D01*
X4864091Y-3969242D01*
G37*
G04 #@! TD.AperFunction*
G04 #@! TA.AperFunction,Conductor*
G36*
X6515120Y-3639513D02*
G01*
X6519358Y-3643642D01*
X6520261Y-3645205D01*
X6520991Y-3645818D01*
X6520991Y-3645818D01*
X6523204Y-3647675D01*
X6523905Y-3648318D01*
X6574757Y-3699169D01*
X6577815Y-3705172D01*
X6576761Y-3711825D01*
X6575868Y-3713283D01*
X6575080Y-3714368D01*
X6575080Y-3836734D01*
X6575534Y-3838130D01*
X6575988Y-3838460D01*
X6599630Y-3838460D01*
X6606037Y-3840542D01*
X6609997Y-3845992D01*
X6610530Y-3849360D01*
X6610530Y-3902510D01*
X6608448Y-3908917D01*
X6602998Y-3912876D01*
X6599630Y-3913410D01*
X6535802Y-3913410D01*
X6529396Y-3911328D01*
X6525436Y-3905878D01*
X6525037Y-3904215D01*
X6525014Y-3904072D01*
X6524229Y-3899113D01*
X6523186Y-3892531D01*
X6523186Y-3892531D01*
X6523052Y-3891683D01*
X6517839Y-3881453D01*
X6517322Y-3880438D01*
X6517322Y-3880438D01*
X6516933Y-3879674D01*
X6507402Y-3870143D01*
X6505667Y-3869259D01*
X6503588Y-3868200D01*
X6495393Y-3864024D01*
X6482679Y-3862010D01*
X6476677Y-3858952D01*
X6474381Y-3854446D01*
X6474017Y-3854564D01*
X6473030Y-3851526D01*
X6472576Y-3851196D01*
X6353210Y-3851196D01*
X6351814Y-3851650D01*
X6351484Y-3852104D01*
X6351484Y-3857697D01*
X6351508Y-3858208D01*
X6351713Y-3860372D01*
X6351995Y-3861661D01*
X6355889Y-3872749D01*
X6356643Y-3874173D01*
X6363536Y-3883504D01*
X6364676Y-3884644D01*
X6374007Y-3891537D01*
X6375431Y-3892291D01*
X6378663Y-3893426D01*
X6384018Y-3897513D01*
X6385948Y-3903967D01*
X6383716Y-3910323D01*
X6378175Y-3914153D01*
X6375051Y-3914610D01*
X6372190Y-3914610D01*
X6367231Y-3915263D01*
X6366476Y-3915615D01*
X6366475Y-3915615D01*
X6362978Y-3917246D01*
X6356348Y-3920338D01*
X6348237Y-3928448D01*
X6342235Y-3931507D01*
X6335581Y-3930453D01*
X6330818Y-3925689D01*
X6329630Y-3920741D01*
X6329630Y-3879785D01*
X6329514Y-3879200D01*
X6328676Y-3874990D01*
X6328467Y-3873937D01*
X6327762Y-3872882D01*
X6324632Y-3868197D01*
X6324035Y-3867305D01*
X6322682Y-3866401D01*
X6318512Y-3861111D01*
X6318247Y-3854379D01*
X6321732Y-3848988D01*
X6322773Y-3848114D01*
X6322773Y-3848114D01*
X6323503Y-3847501D01*
X6325425Y-3844173D01*
X6325935Y-3843372D01*
X6327592Y-3841005D01*
X6327592Y-3841005D01*
X6328139Y-3840224D01*
X6328386Y-3839303D01*
X6328596Y-3838853D01*
X6328766Y-3838386D01*
X6329243Y-3837560D01*
X6329910Y-3833776D01*
X6330116Y-3832848D01*
X6331110Y-3829137D01*
X6331075Y-3828739D01*
X6333586Y-3822825D01*
X6339360Y-3819356D01*
X6346071Y-3819943D01*
X6351155Y-3824362D01*
X6351793Y-3825761D01*
X6352392Y-3826196D01*
X6471758Y-3826196D01*
X6475310Y-3825042D01*
X6482046Y-3825042D01*
X6486379Y-3827694D01*
X6491625Y-3832931D01*
X6493258Y-3834049D01*
X6501809Y-3837830D01*
X6503373Y-3838256D01*
X6504808Y-3838423D01*
X6505439Y-3838460D01*
X6548354Y-3838460D01*
X6549750Y-3838006D01*
X6550080Y-3837552D01*
X6550080Y-3790186D01*
X6549626Y-3788790D01*
X6549172Y-3788460D01*
X6481306Y-3788460D01*
X6479910Y-3788914D01*
X6478032Y-3791498D01*
X6477962Y-3791448D01*
X6476762Y-3793802D01*
X6470759Y-3796861D01*
X6464106Y-3795807D01*
X6461347Y-3793802D01*
X6460292Y-3792747D01*
X6459583Y-3792224D01*
X6455667Y-3786743D01*
X6455720Y-3780006D01*
X6457130Y-3777204D01*
X6457132Y-3777202D01*
X6457806Y-3776528D01*
X6462509Y-3766442D01*
X6467104Y-3761515D01*
X6473716Y-3760230D01*
X6478795Y-3762230D01*
X6480487Y-3763460D01*
X6548354Y-3763460D01*
X6549750Y-3763006D01*
X6550080Y-3762552D01*
X6550080Y-3715186D01*
X6549626Y-3713790D01*
X6549172Y-3713460D01*
X6505445Y-3713460D01*
X6504803Y-3713498D01*
X6503319Y-3713675D01*
X6501760Y-3714103D01*
X6493213Y-3717899D01*
X6491582Y-3719020D01*
X6485109Y-3725505D01*
X6483422Y-3727968D01*
X6483193Y-3727811D01*
X6479685Y-3731727D01*
X6473100Y-3733144D01*
X6466938Y-3730420D01*
X6463555Y-3724595D01*
X6463405Y-3723724D01*
X6463200Y-3722169D01*
X6462881Y-3719747D01*
X6462282Y-3718463D01*
X6459862Y-3713273D01*
X6457806Y-3708864D01*
X6449316Y-3700374D01*
X6438433Y-3695299D01*
X6437606Y-3695190D01*
X6437606Y-3695190D01*
X6433827Y-3694692D01*
X6433827Y-3694692D01*
X6433474Y-3694646D01*
X6424879Y-3694646D01*
X6418472Y-3692564D01*
X6414512Y-3687114D01*
X6414512Y-3680378D01*
X6415167Y-3678797D01*
X6419287Y-3670711D01*
X6424050Y-3665948D01*
X6428999Y-3664760D01*
X6439733Y-3664760D01*
X6440683Y-3664801D01*
X6443560Y-3665053D01*
X6443561Y-3665053D01*
X6444511Y-3665136D01*
X6448224Y-3664141D01*
X6449151Y-3663936D01*
X6451995Y-3663434D01*
X6452934Y-3663269D01*
X6453760Y-3662792D01*
X6454228Y-3662622D01*
X6454677Y-3662412D01*
X6455598Y-3662165D01*
X6458746Y-3659961D01*
X6459547Y-3659451D01*
X6462875Y-3657529D01*
X6465345Y-3654586D01*
X6465988Y-3653885D01*
X6477870Y-3642002D01*
X6483872Y-3638944D01*
X6485578Y-3638810D01*
X6504512Y-3638810D01*
X6504864Y-3638764D01*
X6504865Y-3638763D01*
X6508496Y-3638285D01*
X6515120Y-3639513D01*
G37*
G04 #@! TD.AperFunction*
G04 #@! TA.AperFunction,Conductor*
G36*
X6694238Y-3758195D02*
G01*
X6706337Y-3770295D01*
X6709396Y-3776298D01*
X6709530Y-3778003D01*
X6709530Y-3810435D01*
X6709549Y-3810532D01*
X6708135Y-3816977D01*
X6706445Y-3819166D01*
X6705109Y-3820505D01*
X6703991Y-3822138D01*
X6700210Y-3830689D01*
X6699784Y-3832253D01*
X6699617Y-3833688D01*
X6699580Y-3834319D01*
X6699580Y-3856734D01*
X6700034Y-3858130D01*
X6700488Y-3858460D01*
X6784180Y-3858460D01*
X6790587Y-3860542D01*
X6794546Y-3865992D01*
X6795080Y-3869360D01*
X6795080Y-3872560D01*
X6792998Y-3878967D01*
X6787548Y-3882926D01*
X6784180Y-3883460D01*
X6701306Y-3883460D01*
X6699910Y-3883914D01*
X6699580Y-3884368D01*
X6699580Y-3888612D01*
X6697498Y-3895019D01*
X6692048Y-3898979D01*
X6685312Y-3898979D01*
X6680972Y-3896320D01*
X6678823Y-3894170D01*
X6675764Y-3888168D01*
X6675630Y-3886462D01*
X6675630Y-3765903D01*
X6677712Y-3759496D01*
X6683162Y-3755536D01*
X6689898Y-3755536D01*
X6694238Y-3758195D01*
G37*
G04 #@! TD.AperFunction*
G04 #@! TA.AperFunction,Conductor*
G36*
X4130685Y-3636692D02*
G01*
X4134644Y-3642142D01*
X4134644Y-3648878D01*
X4132269Y-3652923D01*
X4131377Y-3653885D01*
X4129910Y-3655466D01*
X4129626Y-3655760D01*
X4128263Y-3657124D01*
X4128002Y-3657504D01*
X4127698Y-3657850D01*
X4125648Y-3660061D01*
X4125275Y-3660995D01*
X4125263Y-3661026D01*
X4124127Y-3663153D01*
X4124108Y-3663181D01*
X4124108Y-3663181D01*
X4123539Y-3664011D01*
X4122950Y-3666492D01*
X4122941Y-3666531D01*
X4122459Y-3668052D01*
X4121500Y-3670458D01*
X4121438Y-3671087D01*
X4121438Y-3671587D01*
X4121202Y-3673604D01*
X4121186Y-3673923D01*
X4120954Y-3674903D01*
X4121090Y-3675900D01*
X4121090Y-3675900D01*
X4121338Y-3677727D01*
X4121438Y-3679197D01*
X4121438Y-3688360D01*
X4119356Y-3694767D01*
X4113906Y-3698726D01*
X4110538Y-3699260D01*
X4096214Y-3699260D01*
X4094818Y-3699714D01*
X4094488Y-3700168D01*
X4094488Y-3778360D01*
X4092406Y-3784767D01*
X4086956Y-3788726D01*
X4083588Y-3789260D01*
X4080388Y-3789260D01*
X4073981Y-3787178D01*
X4070021Y-3781728D01*
X4069488Y-3778360D01*
X4069488Y-3700986D01*
X4069034Y-3699590D01*
X4068580Y-3699260D01*
X4057736Y-3699260D01*
X4051329Y-3697178D01*
X4047370Y-3691728D01*
X4047370Y-3684992D01*
X4050029Y-3680652D01*
X4092879Y-3637802D01*
X4098881Y-3634744D01*
X4100586Y-3634610D01*
X4124278Y-3634610D01*
X4130685Y-3636692D01*
G37*
G04 #@! TD.AperFunction*
G04 #@! TA.AperFunction,Conductor*
G36*
X5181005Y-3473042D02*
G01*
X5182305Y-3474152D01*
X5315391Y-3607238D01*
X5318450Y-3613241D01*
X5317396Y-3619894D01*
X5312632Y-3624658D01*
X5307684Y-3625846D01*
X5284809Y-3625846D01*
X5284285Y-3625950D01*
X5284285Y-3625950D01*
X5281782Y-3626448D01*
X5278961Y-3627009D01*
X5278068Y-3627606D01*
X5278068Y-3627606D01*
X5273690Y-3630531D01*
X5272329Y-3631441D01*
X5271732Y-3632333D01*
X5268645Y-3636955D01*
X5267897Y-3638073D01*
X5267688Y-3639126D01*
X5267688Y-3639126D01*
X5267475Y-3640198D01*
X5264183Y-3646076D01*
X5258065Y-3648896D01*
X5251458Y-3647582D01*
X5246885Y-3642635D01*
X5246093Y-3640198D01*
X5245880Y-3639126D01*
X5245880Y-3639126D01*
X5245671Y-3638073D01*
X5244924Y-3636955D01*
X5241836Y-3632333D01*
X5241239Y-3631441D01*
X5239878Y-3630531D01*
X5235500Y-3627606D01*
X5235500Y-3627606D01*
X5234607Y-3627009D01*
X5231786Y-3626448D01*
X5229283Y-3625950D01*
X5229283Y-3625950D01*
X5228759Y-3625846D01*
X5124809Y-3625846D01*
X5124285Y-3625950D01*
X5124285Y-3625950D01*
X5121782Y-3626448D01*
X5118961Y-3627009D01*
X5118068Y-3627606D01*
X5118068Y-3627606D01*
X5113690Y-3630531D01*
X5112329Y-3631441D01*
X5111732Y-3632333D01*
X5108645Y-3636955D01*
X5107897Y-3638073D01*
X5107358Y-3640787D01*
X5106838Y-3643396D01*
X5106734Y-3643921D01*
X5106734Y-3716696D01*
X5104652Y-3723103D01*
X5099202Y-3727062D01*
X5092466Y-3727062D01*
X5088127Y-3724403D01*
X4952213Y-3588490D01*
X4950858Y-3586838D01*
X4950578Y-3586419D01*
X4949981Y-3585527D01*
X4941249Y-3579692D01*
X4938324Y-3579110D01*
X4936858Y-3578818D01*
X4930980Y-3575527D01*
X4928160Y-3569409D01*
X4928084Y-3568128D01*
X4928084Y-3565510D01*
X4930166Y-3559103D01*
X4935616Y-3555143D01*
X4938984Y-3554610D01*
X4957645Y-3554610D01*
X4964052Y-3556692D01*
X4965352Y-3557802D01*
X4970462Y-3562912D01*
X4971226Y-3563302D01*
X4971226Y-3563302D01*
X4972020Y-3563706D01*
X4982471Y-3569031D01*
X4983319Y-3569166D01*
X4983319Y-3569166D01*
X4994937Y-3571006D01*
X4995784Y-3571140D01*
X4996631Y-3571006D01*
X5008249Y-3569166D01*
X5008249Y-3569166D01*
X5009097Y-3569031D01*
X5019549Y-3563706D01*
X5020342Y-3563302D01*
X5020342Y-3563302D01*
X5021106Y-3562912D01*
X5030637Y-3553382D01*
X5031696Y-3551303D01*
X5032518Y-3549689D01*
X5036756Y-3541372D01*
X5036890Y-3540525D01*
X5036890Y-3540525D01*
X5038730Y-3528907D01*
X5038864Y-3528060D01*
X5038364Y-3524900D01*
X5036890Y-3515595D01*
X5036890Y-3515594D01*
X5036756Y-3514747D01*
X5031158Y-3503760D01*
X5031026Y-3503502D01*
X5031026Y-3503501D01*
X5030637Y-3502738D01*
X5021106Y-3493207D01*
X5020134Y-3492711D01*
X5017898Y-3491572D01*
X5013134Y-3486808D01*
X5012080Y-3480155D01*
X5015139Y-3474153D01*
X5021141Y-3471094D01*
X5022846Y-3470960D01*
X5174598Y-3470960D01*
X5181005Y-3473042D01*
G37*
G04 #@! TD.AperFunction*
G04 #@! TA.AperFunction,Conductor*
G36*
X6158255Y-3376003D02*
G01*
X6162558Y-3381186D01*
X6163330Y-3385216D01*
X6163330Y-3405592D01*
X6163376Y-3405945D01*
X6163376Y-3405945D01*
X6163814Y-3409267D01*
X6163973Y-3410477D01*
X6168973Y-3421200D01*
X6172668Y-3424895D01*
X6175727Y-3430898D01*
X6174673Y-3437551D01*
X6171437Y-3441370D01*
X6166429Y-3445069D01*
X6165289Y-3446209D01*
X6158486Y-3455420D01*
X6157732Y-3456844D01*
X6153888Y-3467790D01*
X6153605Y-3469078D01*
X6153404Y-3471206D01*
X6153380Y-3471720D01*
X6153380Y-3475934D01*
X6153834Y-3477330D01*
X6154288Y-3477660D01*
X6216980Y-3477660D01*
X6223387Y-3479742D01*
X6227346Y-3485192D01*
X6227880Y-3488560D01*
X6227880Y-3491760D01*
X6225798Y-3498167D01*
X6220348Y-3502126D01*
X6216980Y-3502660D01*
X6155106Y-3502660D01*
X6153710Y-3503114D01*
X6153380Y-3503568D01*
X6153380Y-3508600D01*
X6153404Y-3509114D01*
X6153605Y-3511242D01*
X6153888Y-3512530D01*
X6157732Y-3523476D01*
X6158486Y-3524900D01*
X6165289Y-3534111D01*
X6166429Y-3535251D01*
X6167414Y-3535978D01*
X6171330Y-3541459D01*
X6171222Y-3548357D01*
X6167591Y-3558695D01*
X6167309Y-3559984D01*
X6167104Y-3562146D01*
X6167080Y-3562660D01*
X6167080Y-3567434D01*
X6167534Y-3568830D01*
X6167988Y-3569160D01*
X6229680Y-3569160D01*
X6236087Y-3571242D01*
X6240046Y-3576692D01*
X6240580Y-3580060D01*
X6240580Y-3583260D01*
X6238498Y-3589667D01*
X6233048Y-3593626D01*
X6229680Y-3594160D01*
X6168806Y-3594160D01*
X6167541Y-3594571D01*
X6160805Y-3594571D01*
X6155355Y-3590611D01*
X6154461Y-3589153D01*
X6153722Y-3587702D01*
X6153722Y-3587702D01*
X6153333Y-3586938D01*
X6143802Y-3577407D01*
X6143019Y-3577008D01*
X6138132Y-3574518D01*
X6135373Y-3572514D01*
X6089071Y-3526212D01*
X6089070Y-3526211D01*
X6086814Y-3523955D01*
X6084735Y-3522895D01*
X6083277Y-3522002D01*
X6081389Y-3520630D01*
X6079169Y-3519909D01*
X6077590Y-3519255D01*
X6075510Y-3518195D01*
X6073205Y-3517830D01*
X6071543Y-3517431D01*
X6070262Y-3517015D01*
X6069770Y-3516855D01*
X6064540Y-3512985D01*
X6064455Y-3512802D01*
X6056338Y-3504685D01*
X6055906Y-3504484D01*
X6052014Y-3499318D01*
X6051896Y-3492583D01*
X6055760Y-3487064D01*
X6057895Y-3485808D01*
X6065747Y-3482321D01*
X6067378Y-3481200D01*
X6073851Y-3474715D01*
X6074969Y-3473082D01*
X6078750Y-3464531D01*
X6079176Y-3462967D01*
X6079343Y-3461532D01*
X6079380Y-3460901D01*
X6079380Y-3394078D01*
X6081462Y-3387671D01*
X6086912Y-3383711D01*
X6093530Y-3383674D01*
X6104955Y-3387243D01*
X6104955Y-3387243D01*
X6105696Y-3387474D01*
X6113453Y-3387616D01*
X6119254Y-3387723D01*
X6119254Y-3387723D01*
X6120030Y-3387737D01*
X6133862Y-3383966D01*
X6146079Y-3376464D01*
X6146139Y-3376562D01*
X6151727Y-3374338D01*
X6158255Y-3376003D01*
G37*
G04 #@! TD.AperFunction*
G04 #@! TA.AperFunction,Conductor*
G36*
X5475392Y-3411639D02*
G01*
X5565719Y-3501966D01*
X5567074Y-3503618D01*
X5567288Y-3503937D01*
X5567951Y-3504929D01*
X5570155Y-3506402D01*
X5571154Y-3507070D01*
X5576683Y-3510764D01*
X5584384Y-3512296D01*
X5584384Y-3512296D01*
X5584385Y-3512296D01*
X5585931Y-3512604D01*
X5585931Y-3512604D01*
X5586984Y-3512813D01*
X5588037Y-3512604D01*
X5588421Y-3512604D01*
X5594828Y-3514685D01*
X5598787Y-3520135D01*
X5599227Y-3524926D01*
X5598876Y-3527592D01*
X5598876Y-3527593D01*
X5598830Y-3527946D01*
X5598830Y-3546209D01*
X5598830Y-3559960D01*
X5596748Y-3566366D01*
X5595638Y-3567667D01*
X5590848Y-3572457D01*
X5584845Y-3575516D01*
X5583140Y-3575650D01*
X5573639Y-3575650D01*
X5567232Y-3573568D01*
X5565382Y-3571865D01*
X5564694Y-3571067D01*
X5558558Y-3563946D01*
X5546528Y-3556148D01*
X5541384Y-3554610D01*
X5533536Y-3552263D01*
X5533536Y-3552263D01*
X5532792Y-3552040D01*
X5525624Y-3551997D01*
X5519233Y-3551958D01*
X5519232Y-3551958D01*
X5518456Y-3551953D01*
X5517709Y-3552166D01*
X5517709Y-3552166D01*
X5505418Y-3555679D01*
X5505418Y-3555679D01*
X5504671Y-3555893D01*
X5504015Y-3556307D01*
X5493289Y-3563075D01*
X5492546Y-3563543D01*
X5490650Y-3565691D01*
X5485108Y-3571965D01*
X5479307Y-3575389D01*
X5476938Y-3575650D01*
X5467684Y-3575650D01*
X5461277Y-3573568D01*
X5457318Y-3568118D01*
X5456784Y-3564750D01*
X5456784Y-3500122D01*
X5456330Y-3498726D01*
X5455876Y-3498396D01*
X5343510Y-3498396D01*
X5342114Y-3498850D01*
X5341784Y-3499304D01*
X5341784Y-3532646D01*
X5339702Y-3539053D01*
X5334252Y-3543012D01*
X5327516Y-3543012D01*
X5323177Y-3540353D01*
X5250728Y-3467905D01*
X5247670Y-3461902D01*
X5248723Y-3455249D01*
X5253487Y-3450485D01*
X5258435Y-3449297D01*
X5290709Y-3449297D01*
X5292835Y-3449506D01*
X5293330Y-3449605D01*
X5293330Y-3449605D01*
X5294383Y-3449814D01*
X5295436Y-3449605D01*
X5295785Y-3449535D01*
X5296983Y-3449297D01*
X5304684Y-3447765D01*
X5311044Y-3443515D01*
X5311212Y-3443403D01*
X5313416Y-3441930D01*
X5314293Y-3440619D01*
X5315648Y-3438967D01*
X5323177Y-3431439D01*
X5329179Y-3428380D01*
X5335833Y-3429434D01*
X5340596Y-3434198D01*
X5341784Y-3439146D01*
X5341784Y-3471670D01*
X5342238Y-3473066D01*
X5342692Y-3473396D01*
X5455058Y-3473396D01*
X5456454Y-3472942D01*
X5456784Y-3472488D01*
X5456784Y-3419346D01*
X5458866Y-3412939D01*
X5464316Y-3408980D01*
X5471052Y-3408980D01*
X5475392Y-3411639D01*
G37*
G04 #@! TD.AperFunction*
G04 #@! TA.AperFunction,Conductor*
G36*
X4043903Y-3464653D02*
G01*
X4044740Y-3464763D01*
X4044741Y-3464764D01*
X4045094Y-3464810D01*
X4047095Y-3464810D01*
X4067166Y-3464810D01*
X4073573Y-3466892D01*
X4074132Y-3467327D01*
X4074257Y-3467430D01*
X4074612Y-3467785D01*
X4074993Y-3468046D01*
X4075338Y-3468349D01*
X4077549Y-3470400D01*
X4078483Y-3470773D01*
X4078483Y-3470773D01*
X4078514Y-3470785D01*
X4080641Y-3471921D01*
X4081499Y-3472509D01*
X4082477Y-3472741D01*
X4082477Y-3472742D01*
X4083585Y-3473004D01*
X4089338Y-3476509D01*
X4091933Y-3482726D01*
X4090377Y-3489281D01*
X4085266Y-3493669D01*
X4081068Y-3494510D01*
X3996289Y-3494510D01*
X3989882Y-3492428D01*
X3985922Y-3486978D01*
X3985922Y-3480242D01*
X3989882Y-3474792D01*
X3992677Y-3473326D01*
X4001137Y-3470355D01*
X4002561Y-3469601D01*
X4006499Y-3466692D01*
X4012975Y-3464560D01*
X4042480Y-3464560D01*
X4043903Y-3464653D01*
G37*
G04 #@! TD.AperFunction*
G04 #@! TA.AperFunction,Conductor*
G36*
X6283626Y-3199453D02*
G01*
X6286099Y-3201099D01*
X6286840Y-3201330D01*
X6299042Y-3205143D01*
X6299042Y-3205143D01*
X6299783Y-3205374D01*
X6301452Y-3205405D01*
X6302529Y-3205425D01*
X6308897Y-3207624D01*
X6312756Y-3213145D01*
X6312988Y-3214309D01*
X6313030Y-3214300D01*
X6313544Y-3216883D01*
X6312752Y-3223572D01*
X6310567Y-3226710D01*
X6310047Y-3227231D01*
X6309015Y-3228678D01*
X6304482Y-3237951D01*
X6303988Y-3239548D01*
X6303740Y-3241252D01*
X6303987Y-3242699D01*
X6304099Y-3242809D01*
X6304747Y-3242960D01*
X6378430Y-3242960D01*
X6384837Y-3245042D01*
X6388796Y-3250492D01*
X6389330Y-3253860D01*
X6389330Y-3296234D01*
X6389784Y-3297630D01*
X6390238Y-3297960D01*
X6402130Y-3297960D01*
X6408537Y-3300042D01*
X6412496Y-3305492D01*
X6413030Y-3308860D01*
X6413030Y-3366212D01*
X6410948Y-3372619D01*
X6409837Y-3373920D01*
X6376040Y-3407717D01*
X6370038Y-3410776D01*
X6368332Y-3410910D01*
X6326155Y-3410910D01*
X6325732Y-3410977D01*
X6325732Y-3410977D01*
X6324113Y-3411233D01*
X6316338Y-3412465D01*
X6308108Y-3416658D01*
X6305599Y-3417937D01*
X6304505Y-3418494D01*
X6295114Y-3427885D01*
X6294725Y-3428649D01*
X6294725Y-3428649D01*
X6294325Y-3429434D01*
X6289085Y-3439718D01*
X6288373Y-3444211D01*
X6288140Y-3445684D01*
X6285082Y-3451686D01*
X6279079Y-3454744D01*
X6272426Y-3453691D01*
X6268606Y-3450455D01*
X6265471Y-3446209D01*
X6264331Y-3445069D01*
X6259323Y-3441370D01*
X6255406Y-3435889D01*
X6255459Y-3429153D01*
X6258092Y-3424895D01*
X6261786Y-3421200D01*
X6266787Y-3410477D01*
X6266946Y-3409267D01*
X6267383Y-3405945D01*
X6267383Y-3405945D01*
X6267430Y-3405592D01*
X6267430Y-3370728D01*
X6267307Y-3369795D01*
X6266896Y-3366670D01*
X6266896Y-3366669D01*
X6266787Y-3365843D01*
X6261786Y-3355120D01*
X6253420Y-3346753D01*
X6252596Y-3346369D01*
X6248557Y-3341009D01*
X6248439Y-3334273D01*
X6252597Y-3328550D01*
X6253420Y-3328166D01*
X6261786Y-3319800D01*
X6266787Y-3309077D01*
X6266966Y-3307713D01*
X6267383Y-3304545D01*
X6267383Y-3304545D01*
X6267430Y-3304192D01*
X6267430Y-3269328D01*
X6267414Y-3269207D01*
X6303678Y-3269207D01*
X6304005Y-3271433D01*
X6304502Y-3273031D01*
X6309050Y-3282295D01*
X6310085Y-3283740D01*
X6317351Y-3290993D01*
X6318798Y-3292025D01*
X6328071Y-3296558D01*
X6329668Y-3297052D01*
X6335503Y-3297903D01*
X6336289Y-3297960D01*
X6362604Y-3297960D01*
X6364000Y-3297506D01*
X6364330Y-3297052D01*
X6364330Y-3269686D01*
X6363876Y-3268290D01*
X6363422Y-3267960D01*
X6305220Y-3267960D01*
X6303824Y-3268414D01*
X6303734Y-3268537D01*
X6303678Y-3269207D01*
X6267414Y-3269207D01*
X6267326Y-3268537D01*
X6266896Y-3265270D01*
X6266896Y-3265269D01*
X6266787Y-3264443D01*
X6261786Y-3253720D01*
X6253420Y-3245353D01*
X6252556Y-3244950D01*
X6252182Y-3244689D01*
X6248128Y-3239309D01*
X6248010Y-3232573D01*
X6252182Y-3226831D01*
X6252556Y-3226570D01*
X6253420Y-3226166D01*
X6261786Y-3217800D01*
X6265224Y-3210428D01*
X6266434Y-3207833D01*
X6266434Y-3207833D01*
X6266787Y-3207077D01*
X6266896Y-3206250D01*
X6267121Y-3205476D01*
X6270913Y-3199908D01*
X6277253Y-3197632D01*
X6283626Y-3199453D01*
G37*
G04 #@! TD.AperFunction*
G04 #@! TA.AperFunction,Conductor*
G36*
X6471168Y-2905592D02*
G01*
X6475127Y-2911042D01*
X6475127Y-2917778D01*
X6474628Y-2919042D01*
X6472155Y-2924309D01*
X6472155Y-2924309D01*
X6471825Y-2925012D01*
X6471705Y-2925780D01*
X6469742Y-2938392D01*
X6469619Y-2939178D01*
X6469720Y-2939948D01*
X6469710Y-2940725D01*
X6469482Y-2940722D01*
X6468447Y-2946276D01*
X6467802Y-2947318D01*
X6467408Y-2947881D01*
X6465625Y-2950428D01*
X6465378Y-2951349D01*
X6465168Y-2951798D01*
X6464998Y-2952265D01*
X6464521Y-2953091D01*
X6464356Y-2954031D01*
X6464029Y-2954927D01*
X6463880Y-2954872D01*
X6461207Y-2959900D01*
X6455153Y-2962854D01*
X6453635Y-2962960D01*
X6453418Y-2962960D01*
X6447011Y-2960878D01*
X6444769Y-2957793D01*
X6443980Y-2957219D01*
X6443980Y-2956560D01*
X6304280Y-2956560D01*
X6304280Y-2999504D01*
X6302198Y-3005911D01*
X6296827Y-3009844D01*
X6287397Y-3012987D01*
X6280661Y-3013039D01*
X6277544Y-3011465D01*
X6275472Y-3009960D01*
X6156106Y-3009960D01*
X6154710Y-3010414D01*
X6154380Y-3010868D01*
X6154380Y-3016461D01*
X6154404Y-3016972D01*
X6154609Y-3019136D01*
X6154891Y-3020425D01*
X6158785Y-3031513D01*
X6159539Y-3032937D01*
X6166432Y-3042268D01*
X6167572Y-3043409D01*
X6168281Y-3043932D01*
X6172197Y-3049413D01*
X6172144Y-3056149D01*
X6170734Y-3058952D01*
X6170732Y-3058954D01*
X6170058Y-3059628D01*
X6164983Y-3070511D01*
X6164874Y-3071338D01*
X6164874Y-3071338D01*
X6164376Y-3075116D01*
X6164330Y-3075470D01*
X6164330Y-3085348D01*
X6162248Y-3091755D01*
X6159247Y-3094567D01*
X6157208Y-3095853D01*
X6147718Y-3106599D01*
X6147388Y-3107302D01*
X6147388Y-3107302D01*
X6141955Y-3118873D01*
X6141955Y-3118873D01*
X6141625Y-3119576D01*
X6141505Y-3120344D01*
X6139897Y-3130671D01*
X6139419Y-3133742D01*
X6141278Y-3147958D01*
X6147052Y-3161080D01*
X6147551Y-3161674D01*
X6147551Y-3161675D01*
X6155777Y-3171461D01*
X6156277Y-3172055D01*
X6156923Y-3172485D01*
X6156923Y-3172485D01*
X6158470Y-3173514D01*
X6162650Y-3178797D01*
X6163330Y-3182588D01*
X6163330Y-3202192D01*
X6163376Y-3202545D01*
X6163376Y-3202545D01*
X6163781Y-3205617D01*
X6163973Y-3207077D01*
X6168973Y-3217800D01*
X6177340Y-3226166D01*
X6178204Y-3226570D01*
X6178577Y-3226831D01*
X6182632Y-3232211D01*
X6182749Y-3238947D01*
X6178577Y-3244689D01*
X6178204Y-3244950D01*
X6177340Y-3245353D01*
X6168973Y-3253720D01*
X6163973Y-3264443D01*
X6163864Y-3265269D01*
X6163864Y-3265270D01*
X6163434Y-3268537D01*
X6163330Y-3269328D01*
X6163330Y-3289973D01*
X6161248Y-3296380D01*
X6155798Y-3300340D01*
X6149062Y-3300340D01*
X6146502Y-3299120D01*
X6134989Y-3291658D01*
X6129793Y-3290104D01*
X6121998Y-3287773D01*
X6121998Y-3287773D01*
X6121254Y-3287551D01*
X6114086Y-3287507D01*
X6107694Y-3287468D01*
X6107694Y-3287468D01*
X6106918Y-3287463D01*
X6106171Y-3287676D01*
X6106171Y-3287676D01*
X6093879Y-3291189D01*
X6093879Y-3291189D01*
X6093133Y-3291403D01*
X6083345Y-3297579D01*
X6077529Y-3299260D01*
X5591106Y-3299260D01*
X5589710Y-3299714D01*
X5589380Y-3300168D01*
X5589380Y-3424642D01*
X5587298Y-3431049D01*
X5581848Y-3435008D01*
X5575112Y-3435008D01*
X5570773Y-3432349D01*
X5493949Y-3355526D01*
X5492594Y-3353874D01*
X5492314Y-3353455D01*
X5491717Y-3352563D01*
X5482985Y-3346728D01*
X5476947Y-3345527D01*
X5472684Y-3344679D01*
X5471631Y-3344888D01*
X5471631Y-3344888D01*
X5471137Y-3344987D01*
X5469010Y-3345196D01*
X5416670Y-3345196D01*
X5410263Y-3343114D01*
X5406303Y-3337664D01*
X5405979Y-3332169D01*
X5406730Y-3328396D01*
X5406730Y-3328395D01*
X5406834Y-3327871D01*
X5406834Y-3250400D01*
X5408916Y-3243993D01*
X5414366Y-3240033D01*
X5417734Y-3239500D01*
X5476103Y-3239500D01*
X5482510Y-3241582D01*
X5482812Y-3241840D01*
X5483115Y-3242293D01*
X5491847Y-3248128D01*
X5499548Y-3249660D01*
X5499548Y-3249660D01*
X5499549Y-3249660D01*
X5501095Y-3249968D01*
X5501095Y-3249968D01*
X5502148Y-3250177D01*
X5503695Y-3249869D01*
X5505821Y-3249660D01*
X5529390Y-3249660D01*
X5535797Y-3251742D01*
X5537098Y-3252852D01*
X5542358Y-3258113D01*
X5554367Y-3264232D01*
X5555215Y-3264366D01*
X5555215Y-3264366D01*
X5566833Y-3266206D01*
X5567680Y-3266340D01*
X5577209Y-3264831D01*
X5583863Y-3265885D01*
X5588626Y-3270648D01*
X5589281Y-3272229D01*
X5589834Y-3273930D01*
X5590288Y-3274260D01*
X6077654Y-3274260D01*
X6079050Y-3273806D01*
X6079380Y-3273352D01*
X6079380Y-3112625D01*
X6079342Y-3111983D01*
X6079165Y-3110499D01*
X6078737Y-3108940D01*
X6074941Y-3100393D01*
X6073820Y-3098762D01*
X6067335Y-3092289D01*
X6065702Y-3091171D01*
X6057906Y-3087724D01*
X6052888Y-3083230D01*
X6051470Y-3076644D01*
X6054194Y-3070483D01*
X6055735Y-3069116D01*
X6056338Y-3068835D01*
X6062229Y-3062943D01*
X6068231Y-3059885D01*
X6073382Y-3060701D01*
X6073487Y-3060377D01*
X6074303Y-3060642D01*
X6075067Y-3061032D01*
X6075915Y-3061166D01*
X6075915Y-3061166D01*
X6087533Y-3063006D01*
X6088380Y-3063140D01*
X6089227Y-3063006D01*
X6100845Y-3061166D01*
X6100845Y-3061166D01*
X6101693Y-3061032D01*
X6111044Y-3056267D01*
X6112938Y-3055302D01*
X6112938Y-3055302D01*
X6113702Y-3054913D01*
X6123233Y-3045382D01*
X6129352Y-3033373D01*
X6129486Y-3032525D01*
X6129486Y-3032525D01*
X6131326Y-3020907D01*
X6131460Y-3020060D01*
X6131279Y-3018915D01*
X6129486Y-3007595D01*
X6129486Y-3007595D01*
X6129352Y-3006747D01*
X6124487Y-2997200D01*
X6123622Y-2995502D01*
X6123622Y-2995502D01*
X6123233Y-2994738D01*
X6113702Y-2985207D01*
X6111821Y-2984249D01*
X6109829Y-2983234D01*
X6154380Y-2983234D01*
X6154834Y-2984630D01*
X6155288Y-2984960D01*
X6201154Y-2984960D01*
X6202550Y-2984506D01*
X6202880Y-2984052D01*
X6202880Y-2983234D01*
X6227880Y-2983234D01*
X6228334Y-2984630D01*
X6228788Y-2984960D01*
X6274654Y-2984960D01*
X6276050Y-2984506D01*
X6276380Y-2984052D01*
X6276380Y-2978458D01*
X6276356Y-2977948D01*
X6276151Y-2975783D01*
X6275869Y-2974495D01*
X6271975Y-2963407D01*
X6271221Y-2961983D01*
X6264328Y-2952652D01*
X6263188Y-2951512D01*
X6253857Y-2944619D01*
X6252433Y-2943865D01*
X6241345Y-2939971D01*
X6240056Y-2939689D01*
X6237894Y-2939484D01*
X6237380Y-2939460D01*
X6229606Y-2939460D01*
X6228210Y-2939914D01*
X6227880Y-2940368D01*
X6227880Y-2983234D01*
X6202880Y-2983234D01*
X6202880Y-2941186D01*
X6202426Y-2939790D01*
X6201972Y-2939460D01*
X6193378Y-2939460D01*
X6192868Y-2939484D01*
X6190703Y-2939689D01*
X6189415Y-2939971D01*
X6178327Y-2943865D01*
X6176903Y-2944619D01*
X6167572Y-2951512D01*
X6166432Y-2952652D01*
X6159539Y-2961983D01*
X6158785Y-2963407D01*
X6154891Y-2974495D01*
X6154609Y-2975784D01*
X6154404Y-2977946D01*
X6154380Y-2978460D01*
X6154380Y-2983234D01*
X6109829Y-2983234D01*
X6109032Y-2982828D01*
X6101693Y-2979088D01*
X6100845Y-2978954D01*
X6100845Y-2978954D01*
X6089227Y-2977114D01*
X6088380Y-2976980D01*
X6076021Y-2978937D01*
X6069368Y-2977883D01*
X6065388Y-2974423D01*
X6064858Y-2973666D01*
X6064455Y-2972802D01*
X6056338Y-2964685D01*
X6045934Y-2959834D01*
X6045108Y-2959725D01*
X6045108Y-2959725D01*
X6041547Y-2959256D01*
X6041547Y-2959256D01*
X6041194Y-2959210D01*
X6024885Y-2959210D01*
X6008566Y-2959210D01*
X6003825Y-2959834D01*
X6003070Y-2960186D01*
X6003070Y-2960186D01*
X5998642Y-2962251D01*
X5993422Y-2964685D01*
X5985305Y-2972802D01*
X5980454Y-2983205D01*
X5980345Y-2984032D01*
X5980345Y-2984032D01*
X5979876Y-2987593D01*
X5979830Y-2987946D01*
X5979830Y-3045574D01*
X5980454Y-3050314D01*
X5980806Y-3051070D01*
X5980806Y-3051070D01*
X5982738Y-3055212D01*
X5985305Y-3060718D01*
X5992740Y-3068152D01*
X5995798Y-3074155D01*
X5994744Y-3080808D01*
X5989981Y-3085572D01*
X5985032Y-3086760D01*
X5937728Y-3086760D01*
X5931321Y-3084678D01*
X5927361Y-3079228D01*
X5927361Y-3072492D01*
X5930020Y-3068152D01*
X5937455Y-3060718D01*
X5942306Y-3050314D01*
X5942622Y-3047912D01*
X5942883Y-3045927D01*
X5942883Y-3045927D01*
X5942930Y-3045574D01*
X5942930Y-2987946D01*
X5942306Y-2983205D01*
X5941953Y-2982449D01*
X5938931Y-2975968D01*
X5937455Y-2972802D01*
X5930945Y-2966292D01*
X5927887Y-2960290D01*
X5927760Y-2958994D01*
X5927740Y-2958465D01*
X5927740Y-2958465D01*
X5927703Y-2957459D01*
X5927292Y-2956503D01*
X5926591Y-2954196D01*
X5926585Y-2954164D01*
X5926401Y-2953175D01*
X5925658Y-2951969D01*
X5925042Y-2950970D01*
X5924306Y-2949553D01*
X5924209Y-2949327D01*
X5923284Y-2947174D01*
X5922882Y-2946685D01*
X5922529Y-2946331D01*
X5921269Y-2944738D01*
X5921055Y-2944502D01*
X5920527Y-2943645D01*
X5918258Y-2941920D01*
X5917148Y-2940951D01*
X5898315Y-2922117D01*
X5895256Y-2916115D01*
X5896310Y-2909461D01*
X5901074Y-2904698D01*
X5906022Y-2903510D01*
X6464761Y-2903510D01*
X6471168Y-2905592D01*
G37*
G04 #@! TD.AperFunction*
G04 #@! TA.AperFunction,Conductor*
G36*
X6672337Y-3145042D02*
G01*
X6676296Y-3150492D01*
X6676830Y-3153860D01*
X6676830Y-3207060D01*
X6674748Y-3213467D01*
X6669298Y-3217426D01*
X6665930Y-3217960D01*
X6662730Y-3217960D01*
X6656323Y-3215878D01*
X6652363Y-3210428D01*
X6651830Y-3207060D01*
X6651830Y-3153860D01*
X6653912Y-3147453D01*
X6659362Y-3143493D01*
X6662730Y-3142960D01*
X6665930Y-3142960D01*
X6672337Y-3145042D01*
G37*
G04 #@! TD.AperFunction*
G04 #@! TA.AperFunction,Conductor*
G36*
X5790146Y-2905592D02*
G01*
X5794106Y-2911042D01*
X5794163Y-2917597D01*
X5793975Y-2918213D01*
X5793645Y-2918916D01*
X5792515Y-2926175D01*
X5791885Y-2930219D01*
X5791439Y-2933082D01*
X5791540Y-2933852D01*
X5793245Y-2946897D01*
X5792012Y-2953519D01*
X5787121Y-2958152D01*
X5782437Y-2959210D01*
X5756844Y-2959210D01*
X5754566Y-2959210D01*
X5749825Y-2959834D01*
X5749070Y-2960186D01*
X5749070Y-2960186D01*
X5744642Y-2962251D01*
X5739422Y-2964685D01*
X5731305Y-2972802D01*
X5726454Y-2983205D01*
X5726345Y-2984032D01*
X5726345Y-2984032D01*
X5725876Y-2987593D01*
X5725830Y-2987946D01*
X5725830Y-3003575D01*
X5725830Y-3014798D01*
X5723748Y-3021205D01*
X5722638Y-3022505D01*
X5714929Y-3030214D01*
X5708926Y-3033272D01*
X5702273Y-3032219D01*
X5700814Y-3031325D01*
X5697972Y-3029260D01*
X5642280Y-3029260D01*
X5635873Y-3027178D01*
X5631913Y-3021728D01*
X5631380Y-3018360D01*
X5631380Y-3002534D01*
X5656380Y-3002534D01*
X5656834Y-3003930D01*
X5657288Y-3004260D01*
X5697154Y-3004260D01*
X5698550Y-3003806D01*
X5698880Y-3003352D01*
X5698880Y-2988843D01*
X5698813Y-2987992D01*
X5697438Y-2979311D01*
X5696914Y-2977699D01*
X5691581Y-2967232D01*
X5690585Y-2965861D01*
X5682279Y-2957554D01*
X5680908Y-2956559D01*
X5670441Y-2951226D01*
X5668829Y-2950702D01*
X5660148Y-2949327D01*
X5659297Y-2949260D01*
X5658106Y-2949260D01*
X5656710Y-2949714D01*
X5656380Y-2950168D01*
X5656380Y-3002534D01*
X5631380Y-3002534D01*
X5631380Y-2950986D01*
X5630926Y-2949590D01*
X5630472Y-2949260D01*
X5628463Y-2949260D01*
X5627612Y-2949327D01*
X5618931Y-2950702D01*
X5617319Y-2951226D01*
X5606852Y-2956559D01*
X5605481Y-2957554D01*
X5597174Y-2965861D01*
X5596179Y-2967232D01*
X5590846Y-2977699D01*
X5590322Y-2979311D01*
X5588947Y-2987992D01*
X5588880Y-2988843D01*
X5588880Y-3002690D01*
X5586798Y-3009097D01*
X5581348Y-3013057D01*
X5574612Y-3013057D01*
X5569162Y-3009097D01*
X5568736Y-3008467D01*
X5564873Y-3002284D01*
X5563786Y-3001372D01*
X5562909Y-3001868D01*
X5453213Y-3111565D01*
X5452553Y-3112861D01*
X5452872Y-3113217D01*
X5455601Y-3119375D01*
X5454189Y-3125962D01*
X5449175Y-3130461D01*
X5444759Y-3131396D01*
X5242323Y-3131396D01*
X5235916Y-3129314D01*
X5231956Y-3123864D01*
X5231956Y-3117128D01*
X5232209Y-3116430D01*
X5234626Y-3110419D01*
X5237060Y-3104363D01*
X5239449Y-3087578D01*
X5239465Y-3086100D01*
X5237428Y-3069268D01*
X5237195Y-3068653D01*
X5237195Y-3068653D01*
X5231667Y-3054022D01*
X5231435Y-3053408D01*
X5225805Y-3045217D01*
X5222203Y-3039976D01*
X5222203Y-3039976D01*
X5221831Y-3039435D01*
X5221341Y-3038998D01*
X5221341Y-3038998D01*
X5209663Y-3028593D01*
X5209663Y-3028593D01*
X5209172Y-3028156D01*
X5207250Y-3027138D01*
X5202562Y-3022300D01*
X5201450Y-3017505D01*
X5201450Y-3001262D01*
X5203532Y-2994855D01*
X5203787Y-2994540D01*
X5203949Y-2994301D01*
X5204470Y-2993725D01*
X5204809Y-2993026D01*
X5205243Y-2992383D01*
X5205389Y-2992481D01*
X5209418Y-2988288D01*
X5216049Y-2987101D01*
X5217811Y-2987494D01*
X5224146Y-2989474D01*
X5224146Y-2989474D01*
X5224887Y-2989705D01*
X5229340Y-2989787D01*
X5232679Y-2989848D01*
X5239046Y-2992047D01*
X5240186Y-2993039D01*
X5260335Y-3013188D01*
X5263394Y-3019190D01*
X5263527Y-3021010D01*
X5263525Y-3021209D01*
X5263439Y-3021861D01*
X5265300Y-3038713D01*
X5265526Y-3039331D01*
X5265526Y-3039331D01*
X5270124Y-3051897D01*
X5271127Y-3054636D01*
X5280583Y-3068708D01*
X5281069Y-3069150D01*
X5281069Y-3069150D01*
X5291427Y-3078576D01*
X5293123Y-3080119D01*
X5293701Y-3080433D01*
X5307446Y-3087896D01*
X5307447Y-3087896D01*
X5308024Y-3088209D01*
X5308659Y-3088376D01*
X5308659Y-3088376D01*
X5321360Y-3091708D01*
X5324423Y-3092512D01*
X5331478Y-3092622D01*
X5340719Y-3092768D01*
X5340719Y-3092768D01*
X5341376Y-3092778D01*
X5342016Y-3092631D01*
X5342017Y-3092631D01*
X5352553Y-3090218D01*
X5357903Y-3088993D01*
X5368831Y-3083497D01*
X5372463Y-3081670D01*
X5372463Y-3081670D01*
X5373050Y-3081375D01*
X5382961Y-3072910D01*
X5385443Y-3070790D01*
X5385443Y-3070790D01*
X5385942Y-3070363D01*
X5394402Y-3058590D01*
X5395453Y-3057128D01*
X5395836Y-3056595D01*
X5398289Y-3050492D01*
X5402610Y-3045324D01*
X5409144Y-3043683D01*
X5415394Y-3046196D01*
X5418974Y-3051903D01*
X5419251Y-3053494D01*
X5420294Y-3064132D01*
X5420545Y-3065316D01*
X5425826Y-3081190D01*
X5426334Y-3082290D01*
X5433285Y-3093767D01*
X5434339Y-3094677D01*
X5435255Y-3094167D01*
X5480202Y-3049221D01*
X5480868Y-3047912D01*
X5480781Y-3047358D01*
X5435514Y-3002092D01*
X5434229Y-3001437D01*
X5433511Y-3002085D01*
X5427320Y-3011692D01*
X5426781Y-3012776D01*
X5424804Y-3018208D01*
X5420657Y-3023517D01*
X5414181Y-3025374D01*
X5407851Y-3023070D01*
X5404084Y-3017485D01*
X5403740Y-3015790D01*
X5403113Y-3010607D01*
X5402528Y-3005768D01*
X5402295Y-3005153D01*
X5402295Y-3005153D01*
X5397131Y-2991485D01*
X5396535Y-2989908D01*
X5391978Y-2983278D01*
X5452449Y-2983278D01*
X5452952Y-2984174D01*
X5497879Y-3029102D01*
X5499188Y-3029768D01*
X5499742Y-3029681D01*
X5545033Y-2984390D01*
X5545682Y-2983115D01*
X5545017Y-2982384D01*
X5534906Y-2975968D01*
X5533817Y-2975437D01*
X5518058Y-2969825D01*
X5516878Y-2969549D01*
X5500267Y-2967568D01*
X5499056Y-2967559D01*
X5482419Y-2969308D01*
X5481235Y-2969568D01*
X5465399Y-2974959D01*
X5464303Y-2975475D01*
X5453360Y-2982207D01*
X5452449Y-2983278D01*
X5391978Y-2983278D01*
X5389730Y-2980006D01*
X5387303Y-2976476D01*
X5387303Y-2976476D01*
X5386931Y-2975935D01*
X5386441Y-2975498D01*
X5386441Y-2975498D01*
X5374763Y-2965093D01*
X5374763Y-2965093D01*
X5374272Y-2964656D01*
X5359288Y-2956722D01*
X5358651Y-2956562D01*
X5358651Y-2956562D01*
X5343481Y-2952752D01*
X5343481Y-2952752D01*
X5342844Y-2952592D01*
X5334315Y-2952547D01*
X5326546Y-2952506D01*
X5326546Y-2952506D01*
X5325890Y-2952503D01*
X5309403Y-2956461D01*
X5308819Y-2956763D01*
X5308819Y-2956763D01*
X5307424Y-2957483D01*
X5300776Y-2958571D01*
X5294717Y-2955504D01*
X5286719Y-2947507D01*
X5283661Y-2941504D01*
X5283550Y-2940508D01*
X5283531Y-2940211D01*
X5283536Y-2939791D01*
X5283338Y-2938411D01*
X5281709Y-2927032D01*
X5281503Y-2925599D01*
X5278467Y-2918921D01*
X5277710Y-2912227D01*
X5281033Y-2906367D01*
X5287165Y-2903579D01*
X5288390Y-2903510D01*
X5783739Y-2903510D01*
X5790146Y-2905592D01*
G37*
G04 #@! TD.AperFunction*
M02*
