G04 #@! TF.GenerationSoftware,KiCad,Pcbnew,(6.0.4)*
G04 #@! TF.CreationDate,2022-04-30T14:08:03+02:00*
G04 #@! TF.ProjectId,nRF52832_qfaa,6e524635-3238-4333-925f-716661612e6b,rev?*
G04 #@! TF.SameCoordinates,Original*
G04 #@! TF.FileFunction,Copper,L3,Inr*
G04 #@! TF.FilePolarity,Positive*
%FSLAX45Y45*%
G04 Gerber Fmt 4.5, Leading zero omitted, Abs format (unit mm)*
G04 Created by KiCad (PCBNEW (6.0.4)) date 2022-04-30 14:08:03*
%MOMM*%
%LPD*%
G01*
G04 APERTURE LIST*
G04 #@! TA.AperFunction,ComponentPad*
%ADD10C,0.500000*%
G04 #@! TD*
G04 #@! TA.AperFunction,ComponentPad*
%ADD11C,0.908000*%
G04 #@! TD*
G04 #@! TA.AperFunction,ComponentPad*
%ADD12C,0.850000*%
G04 #@! TD*
G04 #@! TA.AperFunction,ViaPad*
%ADD13C,0.600000*%
G04 #@! TD*
G04 #@! TA.AperFunction,ViaPad*
%ADD14C,0.450000*%
G04 #@! TD*
G04 #@! TA.AperFunction,Conductor*
%ADD15C,0.400000*%
G04 #@! TD*
G04 #@! TA.AperFunction,Conductor*
%ADD16C,0.200000*%
G04 #@! TD*
G04 #@! TA.AperFunction,Conductor*
%ADD17C,0.254000*%
G04 #@! TD*
G04 #@! TA.AperFunction,Conductor*
%ADD18C,0.150000*%
G04 #@! TD*
G04 #@! TA.AperFunction,Conductor*
%ADD19C,0.127000*%
G04 #@! TD*
G04 APERTURE END LIST*
D10*
X6473080Y-3132960D03*
X6568080Y-3132960D03*
X6568080Y-3227960D03*
X6473080Y-3227960D03*
D11*
X4745584Y-3644560D03*
X4745584Y-3524560D03*
X4745584Y-3404560D03*
X4745584Y-3284560D03*
X4625584Y-3644560D03*
X4625584Y-3524560D03*
X4625584Y-3404560D03*
X4625584Y-3284560D03*
X4505584Y-3644560D03*
X4505584Y-3524560D03*
X4505584Y-3404560D03*
X4505584Y-3284560D03*
X4385584Y-3644560D03*
X4385584Y-3524560D03*
X4385584Y-3404560D03*
X4385584Y-3284560D03*
D12*
X4051300Y-3022600D03*
D13*
X5935980Y-3667760D03*
X5758180Y-3680460D03*
D14*
X4100688Y-3663696D03*
X4233784Y-4023360D03*
X3928984Y-3083560D03*
X3890884Y-3134360D03*
X3801984Y-3147060D03*
X6786880Y-3020060D03*
X6964680Y-3121660D03*
X5580380Y-3020060D03*
X4144955Y-3274131D03*
D13*
X3326384Y-3282696D03*
D14*
X6723380Y-3870960D03*
X4754484Y-4087763D03*
D13*
X4151884Y-4120896D03*
D14*
X4192611Y-3080487D03*
D13*
X5713984Y-3858260D03*
X5104384Y-4019296D03*
D14*
X6558280Y-3832860D03*
X4919584Y-2997200D03*
D13*
X5423908Y-2954722D03*
X3192780Y-3832860D03*
D14*
X6101080Y-3210560D03*
D13*
X3631184Y-3981196D03*
D14*
X6384681Y-3312160D03*
X4652884Y-4087763D03*
D13*
X5472684Y-3485896D03*
X5015484Y-3612896D03*
D14*
X6310884Y-4070096D03*
D13*
X3638682Y-3483950D03*
X5499100Y-4089400D03*
D14*
X6177280Y-3528060D03*
D13*
X6977380Y-3223260D03*
D14*
X4144813Y-3375589D03*
X6278880Y-2980960D03*
X4508500Y-3924300D03*
D13*
X3262884Y-3904996D03*
X4978400Y-3136900D03*
X6570980Y-4036060D03*
X5384800Y-3873500D03*
D14*
X4786488Y-3854196D03*
D13*
X3162300Y-3251200D03*
X5054600Y-3048000D03*
X4259184Y-3743960D03*
X6634480Y-4036060D03*
D14*
X6482080Y-3904996D03*
X6118480Y-3612260D03*
D13*
X4381500Y-4114800D03*
X3568700Y-3905246D03*
D14*
X4447904Y-3838304D03*
X4194884Y-3321790D03*
D13*
X3732784Y-3790696D03*
X5162550Y-2965450D03*
X5232971Y-2939791D03*
D14*
X4198884Y-3233560D03*
D13*
X3732784Y-3663696D03*
D14*
X4214988Y-3143610D03*
D13*
X3701475Y-3282549D03*
X6520180Y-2939796D03*
X6189980Y-3134360D03*
X5344925Y-4104570D03*
X5256784Y-3371596D03*
D14*
X5834380Y-3629660D03*
D13*
X5525318Y-3602050D03*
D14*
X5567680Y-3223260D03*
X6088380Y-3020060D03*
X5535667Y-3172573D03*
X5844148Y-3070860D03*
D13*
X5842000Y-2933700D03*
D14*
X4297284Y-3012313D03*
D13*
X3873201Y-2975961D03*
X3770884Y-2952496D03*
D14*
X4367388Y-2977896D03*
D13*
X3847143Y-3066796D03*
D14*
X4246484Y-3045460D03*
X6691806Y-3305635D03*
X6946280Y-3616960D03*
X6846580Y-3616960D03*
D13*
X5332984Y-3282696D03*
X6307867Y-3155460D03*
X6507480Y-3426460D03*
X5332984Y-3689096D03*
D14*
X4648200Y-2991350D03*
X4813300Y-2997200D03*
X6692286Y-3712575D03*
D13*
X5904143Y-4075936D03*
X6298184Y-3777996D03*
X5180584Y-3689096D03*
X5955284Y-3810046D03*
D14*
X4309984Y-4048760D03*
D13*
X5177559Y-3278387D03*
D14*
X4995784Y-3528060D03*
D13*
X6113780Y-3337560D03*
D14*
X4436984Y-4036060D03*
X5701284Y-4036060D03*
X4520866Y-3835832D03*
D13*
X3662890Y-3868931D03*
X3707384Y-3536696D03*
D14*
X4265788Y-3103599D03*
D15*
X4165600Y-3937000D02*
X4267200Y-3937000D01*
X5199380Y-3959860D02*
X6278880Y-3959860D01*
D16*
X4786488Y-3935588D02*
X4787900Y-3937000D01*
D15*
X3444748Y-4074160D02*
X4025580Y-4074160D01*
D16*
X4786488Y-3854196D02*
X4786488Y-3935588D01*
D15*
X6319680Y-3919060D02*
X6177280Y-3776660D01*
X5525254Y-3070860D02*
X6066654Y-3612260D01*
X6436680Y-4036060D02*
X6319680Y-3919060D01*
X6066654Y-3612260D02*
X6118480Y-3612260D01*
D17*
X3377184Y-3466084D02*
X3377184Y-3777996D01*
X3162300Y-3251200D02*
X3377184Y-3466084D01*
D15*
X4787900Y-3937000D02*
X5176520Y-3937000D01*
X4025580Y-4074160D02*
X4162740Y-3937000D01*
X6570980Y-4036060D02*
X6436680Y-4036060D01*
X5176520Y-3937000D02*
X5199380Y-3959860D01*
X6177280Y-3776660D02*
X6177280Y-3671060D01*
X6177280Y-3671060D02*
X6118480Y-3612260D01*
D17*
X3377184Y-3777996D02*
X3262884Y-3892296D01*
D15*
X6278880Y-3959860D02*
X6319680Y-3919060D01*
X5044440Y-3070860D02*
X5525254Y-3070860D01*
D18*
X4259184Y-3928984D02*
X4267200Y-3937000D01*
X4259184Y-3743960D02*
X4259184Y-3928984D01*
D15*
X4267200Y-3937000D02*
X4787900Y-3937000D01*
X4978400Y-3136900D02*
X5044440Y-3070860D01*
X3262884Y-3892296D02*
X3444748Y-4074160D01*
D19*
X5332984Y-3282696D02*
X5332984Y-3689096D01*
D18*
X4436984Y-4036060D02*
X5046971Y-4036060D01*
X5046971Y-4036060D02*
X5087611Y-4076700D01*
X5087611Y-4076700D02*
X5194300Y-4076700D01*
X5234940Y-4036060D02*
X5701284Y-4036060D01*
X5194300Y-4076700D02*
X5234940Y-4036060D01*
G04 #@! TA.AperFunction,Conductor*
G36*
X3729605Y-2905592D02*
G01*
X3733564Y-2911042D01*
X3733564Y-2917778D01*
X3731368Y-2921625D01*
X3728622Y-2924735D01*
X3728292Y-2925438D01*
X3728292Y-2925438D01*
X3722859Y-2937009D01*
X3722859Y-2937009D01*
X3722529Y-2937712D01*
X3722409Y-2938480D01*
X3720896Y-2948200D01*
X3720323Y-2951878D01*
X3722182Y-2966094D01*
X3727956Y-2979216D01*
X3728455Y-2979810D01*
X3728455Y-2979811D01*
X3736681Y-2989597D01*
X3737181Y-2990191D01*
X3749115Y-2998135D01*
X3749856Y-2998366D01*
X3762059Y-3002179D01*
X3762059Y-3002179D01*
X3762800Y-3002410D01*
X3770458Y-3002551D01*
X3776358Y-3002659D01*
X3776358Y-3002659D01*
X3777134Y-3002673D01*
X3790966Y-2998902D01*
X3803183Y-2991400D01*
X3806787Y-2987419D01*
X3812629Y-2984066D01*
X3819327Y-2984788D01*
X3824321Y-2989309D01*
X3824844Y-2990344D01*
X3830273Y-3002682D01*
X3830773Y-3003276D01*
X3830773Y-3003276D01*
X3830985Y-3003529D01*
X3831088Y-3003782D01*
X3831183Y-3003936D01*
X3831157Y-3003952D01*
X3833514Y-3009772D01*
X3831890Y-3016310D01*
X3827134Y-3020456D01*
X3826496Y-3020639D01*
X3825839Y-3021053D01*
X3825838Y-3021053D01*
X3815027Y-3027875D01*
X3814371Y-3028289D01*
X3804880Y-3039035D01*
X3804550Y-3039738D01*
X3804550Y-3039738D01*
X3799118Y-3051309D01*
X3799117Y-3051309D01*
X3798787Y-3052012D01*
X3796582Y-3066178D01*
X3798441Y-3080394D01*
X3798754Y-3081105D01*
X3802678Y-3090024D01*
X3803353Y-3096727D01*
X3799959Y-3102546D01*
X3794406Y-3105180D01*
X3788671Y-3106088D01*
X3776662Y-3112207D01*
X3767131Y-3121738D01*
X3761012Y-3133747D01*
X3760878Y-3134595D01*
X3760878Y-3134595D01*
X3759359Y-3144181D01*
X3758904Y-3147060D01*
X3759038Y-3147907D01*
X3760878Y-3159525D01*
X3760878Y-3159525D01*
X3761012Y-3160373D01*
X3764332Y-3166889D01*
X3766698Y-3171532D01*
X3767131Y-3172382D01*
X3776662Y-3181913D01*
X3777426Y-3182302D01*
X3777426Y-3182302D01*
X3778536Y-3182868D01*
X3788671Y-3188032D01*
X3789519Y-3188166D01*
X3789519Y-3188166D01*
X3801137Y-3190006D01*
X3801984Y-3190140D01*
X3802831Y-3190006D01*
X3814449Y-3188166D01*
X3814449Y-3188166D01*
X3815297Y-3188032D01*
X3825432Y-3182868D01*
X3826542Y-3182302D01*
X3826542Y-3182302D01*
X3827306Y-3181913D01*
X3836837Y-3172382D01*
X3837270Y-3171532D01*
X3840791Y-3164621D01*
X3845555Y-3159857D01*
X3852209Y-3158803D01*
X3858211Y-3161862D01*
X3865562Y-3169213D01*
X3877571Y-3175332D01*
X3878419Y-3175466D01*
X3878419Y-3175466D01*
X3890037Y-3177306D01*
X3890884Y-3177440D01*
X3891731Y-3177306D01*
X3903349Y-3175466D01*
X3903349Y-3175466D01*
X3904197Y-3175332D01*
X3916206Y-3169213D01*
X3925737Y-3159682D01*
X3927259Y-3156695D01*
X3927661Y-3155906D01*
X3931856Y-3147673D01*
X3931990Y-3146825D01*
X3931990Y-3146825D01*
X3933830Y-3135207D01*
X3933964Y-3134360D01*
X3934053Y-3134374D01*
X3935912Y-3128654D01*
X3941362Y-3124694D01*
X3941449Y-3124666D01*
X3942297Y-3124532D01*
X3949220Y-3121004D01*
X3953542Y-3118802D01*
X3953542Y-3118802D01*
X3954306Y-3118413D01*
X3963837Y-3108882D01*
X3965000Y-3106599D01*
X3966074Y-3104491D01*
X3969956Y-3096873D01*
X3970090Y-3096025D01*
X3970090Y-3096025D01*
X3971930Y-3084407D01*
X3972064Y-3083560D01*
X3971676Y-3081105D01*
X3970090Y-3071095D01*
X3970090Y-3071095D01*
X3969956Y-3070247D01*
X3963837Y-3058238D01*
X3954306Y-3048707D01*
X3942297Y-3042588D01*
X3941449Y-3042454D01*
X3941449Y-3042454D01*
X3929831Y-3040614D01*
X3928984Y-3040480D01*
X3928137Y-3040614D01*
X3916519Y-3042454D01*
X3916519Y-3042454D01*
X3915671Y-3042588D01*
X3908503Y-3046241D01*
X3905893Y-3047570D01*
X3899239Y-3048624D01*
X3893237Y-3045566D01*
X3891022Y-3042370D01*
X3890063Y-3040261D01*
X3890063Y-3040260D01*
X3889741Y-3039553D01*
X3889234Y-3038965D01*
X3888816Y-3038311D01*
X3889045Y-3038164D01*
X3886914Y-3033083D01*
X3888458Y-3026525D01*
X3893203Y-3022389D01*
X3893283Y-3022367D01*
X3893979Y-3021940D01*
X3988294Y-3021940D01*
X3989955Y-3036988D01*
X3995158Y-3051206D01*
X3995524Y-3051751D01*
X3995525Y-3051751D01*
X3999420Y-3057547D01*
X4003602Y-3063772D01*
X4004088Y-3064213D01*
X4004088Y-3064213D01*
X4013953Y-3073190D01*
X4014800Y-3073961D01*
X4028105Y-3081185D01*
X4042749Y-3085026D01*
X4049439Y-3085131D01*
X4057229Y-3085254D01*
X4057229Y-3085254D01*
X4057886Y-3085264D01*
X4058527Y-3085117D01*
X4058527Y-3085117D01*
X4072004Y-3082031D01*
X4072644Y-3081884D01*
X4073230Y-3081589D01*
X4073230Y-3081589D01*
X4085582Y-3075377D01*
X4085582Y-3075377D01*
X4086169Y-3075082D01*
X4097681Y-3065249D01*
X4106516Y-3052955D01*
X4107177Y-3051309D01*
X4111619Y-3040261D01*
X4112162Y-3038908D01*
X4112257Y-3038242D01*
X4114245Y-3024272D01*
X4114245Y-3024271D01*
X4114296Y-3023920D01*
X4114309Y-3022600D01*
X4114122Y-3021053D01*
X4112569Y-3008222D01*
X4112491Y-3007570D01*
X4112258Y-3006956D01*
X4112258Y-3006955D01*
X4108118Y-2995997D01*
X4107139Y-2993408D01*
X4101178Y-2984735D01*
X4098936Y-2981472D01*
X4098564Y-2980931D01*
X4098074Y-2980494D01*
X4098074Y-2980494D01*
X4087751Y-2971297D01*
X4087751Y-2971297D01*
X4087260Y-2970860D01*
X4079057Y-2966516D01*
X4074461Y-2964083D01*
X4074460Y-2964083D01*
X4073880Y-2963776D01*
X4073244Y-2963616D01*
X4073244Y-2963616D01*
X4065894Y-2961770D01*
X4059197Y-2960087D01*
X4051679Y-2960048D01*
X4044715Y-2960012D01*
X4044714Y-2960012D01*
X4044058Y-2960008D01*
X4043419Y-2960162D01*
X4043419Y-2960162D01*
X4040677Y-2960820D01*
X4029337Y-2963542D01*
X4028753Y-2963844D01*
X4028753Y-2963844D01*
X4016467Y-2970185D01*
X4016467Y-2970185D01*
X4015883Y-2970486D01*
X4014115Y-2972029D01*
X4007361Y-2977921D01*
X4004475Y-2980438D01*
X4000295Y-2986385D01*
X3996230Y-2992170D01*
X3995770Y-2992825D01*
X3990270Y-3006930D01*
X3990184Y-3007582D01*
X3990184Y-3007582D01*
X3988431Y-3020902D01*
X3988294Y-3021940D01*
X3893979Y-3021940D01*
X3905500Y-3014866D01*
X3915121Y-3004237D01*
X3921372Y-2991335D01*
X3923118Y-2980960D01*
X3923681Y-2977612D01*
X3923681Y-2977612D01*
X3923751Y-2977197D01*
X3923766Y-2975961D01*
X3921734Y-2961770D01*
X3915800Y-2948719D01*
X3906441Y-2937858D01*
X3894411Y-2930060D01*
X3892014Y-2929343D01*
X3881419Y-2926175D01*
X3881419Y-2926175D01*
X3880675Y-2925952D01*
X3873507Y-2925908D01*
X3867116Y-2925869D01*
X3867115Y-2925869D01*
X3866339Y-2925865D01*
X3865592Y-2926078D01*
X3865592Y-2926078D01*
X3853301Y-2929591D01*
X3853300Y-2929591D01*
X3852554Y-2929804D01*
X3851897Y-2930219D01*
X3843763Y-2935351D01*
X3840429Y-2937454D01*
X3837434Y-2940845D01*
X3831633Y-2944269D01*
X3824927Y-2943630D01*
X3819878Y-2939170D01*
X3819342Y-2938141D01*
X3817042Y-2933082D01*
X3813482Y-2925253D01*
X3810270Y-2921525D01*
X3807665Y-2915313D01*
X3809209Y-2908755D01*
X3814312Y-2904358D01*
X3818527Y-2903510D01*
X5129215Y-2903510D01*
X5135622Y-2905592D01*
X5139582Y-2911042D01*
X5139582Y-2917778D01*
X5135622Y-2923228D01*
X5135033Y-2923627D01*
X5129778Y-2926943D01*
X5120288Y-2937689D01*
X5119958Y-2938392D01*
X5119958Y-2938392D01*
X5114525Y-2949963D01*
X5114525Y-2949963D01*
X5114195Y-2950666D01*
X5114075Y-2951434D01*
X5112703Y-2960247D01*
X5111989Y-2964832D01*
X5113848Y-2979048D01*
X5119622Y-2992170D01*
X5120121Y-2992764D01*
X5120122Y-2992765D01*
X5128317Y-3002514D01*
X5128847Y-3003145D01*
X5140781Y-3011089D01*
X5141522Y-3011320D01*
X5153725Y-3015133D01*
X5153725Y-3015133D01*
X5154466Y-3015364D01*
X5162224Y-3015506D01*
X5168024Y-3015613D01*
X5168024Y-3015613D01*
X5168800Y-3015627D01*
X5182632Y-3011856D01*
X5194849Y-3004354D01*
X5197006Y-3001971D01*
X5203949Y-2994301D01*
X5204470Y-2993725D01*
X5204809Y-2993026D01*
X5205243Y-2992383D01*
X5205389Y-2992481D01*
X5209418Y-2988288D01*
X5216049Y-2987101D01*
X5217811Y-2987494D01*
X5224146Y-2989474D01*
X5224146Y-2989474D01*
X5224887Y-2989705D01*
X5232645Y-2989847D01*
X5238445Y-2989954D01*
X5238445Y-2989954D01*
X5239221Y-2989968D01*
X5253053Y-2986197D01*
X5265270Y-2978695D01*
X5265971Y-2977921D01*
X5271338Y-2971991D01*
X5274891Y-2968066D01*
X5281142Y-2955164D01*
X5283521Y-2941026D01*
X5283536Y-2939791D01*
X5281503Y-2925599D01*
X5278752Y-2919548D01*
X5278467Y-2918921D01*
X5277710Y-2912227D01*
X5281033Y-2906367D01*
X5287165Y-2903579D01*
X5288390Y-2903510D01*
X5378188Y-2903510D01*
X5384595Y-2905592D01*
X5388555Y-2911042D01*
X5388555Y-2917778D01*
X5386358Y-2921625D01*
X5381646Y-2926961D01*
X5381316Y-2927664D01*
X5381316Y-2927664D01*
X5375883Y-2939235D01*
X5375883Y-2939236D01*
X5375553Y-2939939D01*
X5375433Y-2940706D01*
X5373763Y-2951434D01*
X5373347Y-2954105D01*
X5375206Y-2968320D01*
X5380980Y-2981443D01*
X5381479Y-2982037D01*
X5381480Y-2982037D01*
X5389692Y-2991807D01*
X5390205Y-2992417D01*
X5402139Y-3000361D01*
X5402880Y-3000593D01*
X5415083Y-3004405D01*
X5415083Y-3004405D01*
X5415824Y-3004637D01*
X5423582Y-3004779D01*
X5429382Y-3004885D01*
X5429382Y-3004885D01*
X5430158Y-3004899D01*
X5443990Y-3001128D01*
X5456207Y-2993627D01*
X5458975Y-2990569D01*
X5465307Y-2983573D01*
X5465828Y-2982998D01*
X5472079Y-2970096D01*
X5473776Y-2960012D01*
X5474388Y-2956373D01*
X5474388Y-2956373D01*
X5474458Y-2955958D01*
X5474473Y-2954722D01*
X5472440Y-2940531D01*
X5466506Y-2927480D01*
X5466000Y-2926891D01*
X5465999Y-2926891D01*
X5462569Y-2922910D01*
X5461376Y-2921525D01*
X5458770Y-2915313D01*
X5460314Y-2908755D01*
X5465418Y-2904358D01*
X5469633Y-2903510D01*
X5783739Y-2903510D01*
X5790146Y-2905592D01*
X5794106Y-2911042D01*
X5794163Y-2917597D01*
X5793975Y-2918213D01*
X5793645Y-2918916D01*
X5792515Y-2926175D01*
X5791885Y-2930219D01*
X5791439Y-2933082D01*
X5793298Y-2947298D01*
X5799072Y-2960420D01*
X5799571Y-2961014D01*
X5799571Y-2961015D01*
X5807689Y-2970671D01*
X5808297Y-2971395D01*
X5820231Y-2979339D01*
X5820972Y-2979570D01*
X5833175Y-2983383D01*
X5833175Y-2983383D01*
X5833916Y-2983614D01*
X5841673Y-2983756D01*
X5847474Y-2983863D01*
X5847474Y-2983863D01*
X5848250Y-2983877D01*
X5862082Y-2980106D01*
X5874299Y-2972604D01*
X5883920Y-2961975D01*
X5890171Y-2949073D01*
X5892010Y-2938141D01*
X5892480Y-2935351D01*
X5892480Y-2935351D01*
X5892550Y-2934935D01*
X5892565Y-2933700D01*
X5890532Y-2919508D01*
X5890211Y-2918801D01*
X5889993Y-2918056D01*
X5890162Y-2918006D01*
X5889509Y-2912228D01*
X5892831Y-2906368D01*
X5898963Y-2903579D01*
X5900188Y-2903510D01*
X6464761Y-2903510D01*
X6471168Y-2905592D01*
X6475127Y-2911042D01*
X6475127Y-2917778D01*
X6474628Y-2919042D01*
X6472155Y-2924309D01*
X6472155Y-2924309D01*
X6471825Y-2925012D01*
X6471705Y-2925780D01*
X6469742Y-2938392D01*
X6469619Y-2939178D01*
X6471478Y-2953394D01*
X6477252Y-2966516D01*
X6477751Y-2967110D01*
X6477751Y-2967111D01*
X6484840Y-2975544D01*
X6486477Y-2977491D01*
X6498411Y-2985435D01*
X6499152Y-2985666D01*
X6511355Y-2989479D01*
X6511355Y-2989479D01*
X6512096Y-2989710D01*
X6519853Y-2989852D01*
X6525654Y-2989959D01*
X6525654Y-2989959D01*
X6526430Y-2989973D01*
X6540262Y-2986202D01*
X6552479Y-2978700D01*
X6562100Y-2968071D01*
X6568351Y-2955169D01*
X6570185Y-2944269D01*
X6570660Y-2941447D01*
X6570660Y-2941447D01*
X6570730Y-2941031D01*
X6570745Y-2939796D01*
X6568712Y-2925604D01*
X6568123Y-2924309D01*
X6565674Y-2918921D01*
X6564917Y-2912227D01*
X6568239Y-2906367D01*
X6574372Y-2903579D01*
X6575596Y-2903510D01*
X6592765Y-2903510D01*
X6594881Y-2903750D01*
X6595048Y-2903750D01*
X6596244Y-2904026D01*
X6597441Y-2903755D01*
X6598313Y-2903756D01*
X6599629Y-2903634D01*
X6638670Y-2905076D01*
X6639471Y-2905135D01*
X6681230Y-2909780D01*
X6682024Y-2909898D01*
X6723328Y-2917612D01*
X6724110Y-2917788D01*
X6764731Y-2928528D01*
X6765500Y-2928762D01*
X6779807Y-2933700D01*
X6805217Y-2942470D01*
X6805967Y-2942760D01*
X6844564Y-2959361D01*
X6845290Y-2959705D01*
X6882558Y-2979109D01*
X6883257Y-2979506D01*
X6903414Y-2991973D01*
X6918991Y-3001607D01*
X6919659Y-3002055D01*
X6927276Y-3007582D01*
X6953665Y-3026731D01*
X6954297Y-3027227D01*
X6985294Y-3053420D01*
X6986390Y-3054345D01*
X6986985Y-3054887D01*
X6998740Y-3066410D01*
X7000745Y-3068376D01*
X7003863Y-3074348D01*
X7002875Y-3081011D01*
X6998160Y-3085822D01*
X6991517Y-3086942D01*
X6988166Y-3085872D01*
X6980500Y-3081966D01*
X6977993Y-3080688D01*
X6977145Y-3080554D01*
X6977145Y-3080554D01*
X6965527Y-3078714D01*
X6964680Y-3078580D01*
X6963833Y-3078714D01*
X6952215Y-3080554D01*
X6952215Y-3080554D01*
X6951367Y-3080688D01*
X6944068Y-3084407D01*
X6941292Y-3085822D01*
X6939358Y-3086807D01*
X6929827Y-3096338D01*
X6929438Y-3097102D01*
X6929438Y-3097102D01*
X6928531Y-3098882D01*
X6923708Y-3108347D01*
X6923574Y-3109195D01*
X6923574Y-3109195D01*
X6921930Y-3119576D01*
X6921600Y-3121660D01*
X6921734Y-3122507D01*
X6923574Y-3134125D01*
X6923574Y-3134125D01*
X6923708Y-3134973D01*
X6929827Y-3146982D01*
X6939358Y-3156513D01*
X6941502Y-3157605D01*
X6949945Y-3161907D01*
X6954709Y-3166671D01*
X6955763Y-3173325D01*
X6952704Y-3179327D01*
X6950814Y-3180838D01*
X6944608Y-3184753D01*
X6935118Y-3195499D01*
X6934788Y-3196202D01*
X6934788Y-3196202D01*
X6929355Y-3207773D01*
X6929355Y-3207773D01*
X6929025Y-3208476D01*
X6928905Y-3209244D01*
X6927338Y-3219309D01*
X6926819Y-3222642D01*
X6928678Y-3236858D01*
X6934452Y-3249980D01*
X6934951Y-3250574D01*
X6934951Y-3250575D01*
X6942444Y-3259488D01*
X6943677Y-3260955D01*
X6955611Y-3268899D01*
X6956352Y-3269130D01*
X6968555Y-3272943D01*
X6968555Y-3272943D01*
X6969296Y-3273174D01*
X6977053Y-3273316D01*
X6982854Y-3273423D01*
X6982854Y-3273423D01*
X6983630Y-3273437D01*
X6997462Y-3269666D01*
X7009679Y-3262164D01*
X7019300Y-3251535D01*
X7025551Y-3238633D01*
X7027276Y-3228381D01*
X7027860Y-3224911D01*
X7027860Y-3224911D01*
X7027930Y-3224495D01*
X7027945Y-3223260D01*
X7025912Y-3209068D01*
X7019978Y-3196017D01*
X7010620Y-3185156D01*
X6998589Y-3177358D01*
X6996334Y-3176684D01*
X6993126Y-3175724D01*
X6987584Y-3171894D01*
X6985352Y-3165538D01*
X6987282Y-3159084D01*
X6989587Y-3156724D01*
X6990002Y-3156513D01*
X6999533Y-3146982D01*
X7005652Y-3134973D01*
X7005786Y-3134125D01*
X7005786Y-3134125D01*
X7007626Y-3122507D01*
X7007760Y-3121660D01*
X7007430Y-3119576D01*
X7005786Y-3109195D01*
X7005786Y-3109195D01*
X7005652Y-3108347D01*
X7000829Y-3098882D01*
X7000217Y-3097680D01*
X6999163Y-3091027D01*
X7002221Y-3085024D01*
X7008224Y-3081966D01*
X7014877Y-3083020D01*
X7018113Y-3085532D01*
X7045294Y-3116429D01*
X7045802Y-3117053D01*
X7067136Y-3145253D01*
X7069211Y-3150139D01*
X7076060Y-3193789D01*
X7076098Y-3194034D01*
X7076230Y-3195724D01*
X7076230Y-3877641D01*
X7076059Y-3879566D01*
X7070320Y-3911542D01*
X7069388Y-3916731D01*
X7067353Y-3921381D01*
X7045802Y-3949868D01*
X7045293Y-3950491D01*
X7017541Y-3982037D01*
X7016989Y-3982620D01*
X6986983Y-4012034D01*
X6986390Y-4012574D01*
X6956499Y-4037833D01*
X6954298Y-4039693D01*
X6953665Y-4040189D01*
X6939955Y-4050137D01*
X6919659Y-4064865D01*
X6918991Y-4065313D01*
X6912122Y-4069561D01*
X6888773Y-4084002D01*
X6883257Y-4087413D01*
X6882558Y-4087811D01*
X6845933Y-4106880D01*
X6845291Y-4107214D01*
X6844564Y-4107559D01*
X6805967Y-4124159D01*
X6805217Y-4124450D01*
X6792801Y-4128735D01*
X6765500Y-4138158D01*
X6764731Y-4138392D01*
X6724110Y-4149132D01*
X6723328Y-4149308D01*
X6682024Y-4157022D01*
X6681230Y-4157140D01*
X6639471Y-4161785D01*
X6638670Y-4161844D01*
X6599683Y-4163284D01*
X6598491Y-4163171D01*
X6597512Y-4163169D01*
X6596316Y-4162894D01*
X6595119Y-4163165D01*
X6595011Y-4163165D01*
X6592820Y-4163410D01*
X5383232Y-4163410D01*
X5376825Y-4161328D01*
X5372866Y-4155878D01*
X5372866Y-4149142D01*
X5376270Y-4144123D01*
X5376562Y-4143881D01*
X5377224Y-4143474D01*
X5378993Y-4141520D01*
X5386324Y-4133421D01*
X5386845Y-4132845D01*
X5393096Y-4119943D01*
X5395206Y-4107400D01*
X5395404Y-4106221D01*
X5395404Y-4106221D01*
X5395474Y-4105805D01*
X5395489Y-4104570D01*
X5393457Y-4090378D01*
X5388293Y-4079021D01*
X5387537Y-4072327D01*
X5390859Y-4066467D01*
X5396992Y-4063679D01*
X5398216Y-4063610D01*
X5439730Y-4063610D01*
X5446137Y-4065692D01*
X5450097Y-4071142D01*
X5450500Y-4076187D01*
X5448539Y-4088782D01*
X5450398Y-4102998D01*
X5456172Y-4116120D01*
X5456671Y-4116714D01*
X5456672Y-4116715D01*
X5464898Y-4126501D01*
X5465397Y-4127095D01*
X5477331Y-4135039D01*
X5478072Y-4135270D01*
X5490275Y-4139083D01*
X5490275Y-4139083D01*
X5491016Y-4139314D01*
X5498774Y-4139456D01*
X5504574Y-4139563D01*
X5504574Y-4139563D01*
X5505350Y-4139577D01*
X5519182Y-4135806D01*
X5531399Y-4128304D01*
X5541020Y-4117675D01*
X5547271Y-4104773D01*
X5549447Y-4091840D01*
X5549580Y-4091051D01*
X5549580Y-4091051D01*
X5549650Y-4090635D01*
X5549665Y-4089400D01*
X5547754Y-4076055D01*
X5548906Y-4069418D01*
X5553740Y-4064726D01*
X5558544Y-4063610D01*
X5664144Y-4063610D01*
X5670551Y-4065692D01*
X5671852Y-4066802D01*
X5675962Y-4070913D01*
X5676726Y-4071302D01*
X5676726Y-4071302D01*
X5678738Y-4072327D01*
X5687971Y-4077032D01*
X5688819Y-4077166D01*
X5688819Y-4077166D01*
X5700437Y-4079006D01*
X5701284Y-4079140D01*
X5702131Y-4079006D01*
X5713749Y-4077166D01*
X5713749Y-4077166D01*
X5714597Y-4077032D01*
X5717959Y-4075319D01*
X5853582Y-4075319D01*
X5855441Y-4089534D01*
X5861215Y-4102657D01*
X5861714Y-4103251D01*
X5861714Y-4103251D01*
X5865336Y-4107559D01*
X5870440Y-4113631D01*
X5882374Y-4121575D01*
X5883115Y-4121807D01*
X5895317Y-4125619D01*
X5895318Y-4125619D01*
X5896058Y-4125850D01*
X5903816Y-4125993D01*
X5909617Y-4126099D01*
X5909617Y-4126099D01*
X5910393Y-4126113D01*
X5924224Y-4122342D01*
X5936442Y-4114841D01*
X5946063Y-4104212D01*
X5952314Y-4091310D01*
X5953903Y-4081863D01*
X5954622Y-4077587D01*
X5954622Y-4077587D01*
X5954692Y-4077172D01*
X5954707Y-4075936D01*
X5953871Y-4070096D01*
X6267804Y-4070096D01*
X6267938Y-4070943D01*
X6269778Y-4082561D01*
X6269778Y-4082561D01*
X6269912Y-4083409D01*
X6273806Y-4091051D01*
X6274868Y-4093135D01*
X6276031Y-4095418D01*
X6285562Y-4104949D01*
X6286326Y-4105338D01*
X6286326Y-4105338D01*
X6287619Y-4105997D01*
X6297571Y-4111068D01*
X6298419Y-4111202D01*
X6298419Y-4111202D01*
X6310037Y-4113042D01*
X6310884Y-4113176D01*
X6311731Y-4113042D01*
X6323349Y-4111202D01*
X6323349Y-4111202D01*
X6324197Y-4111068D01*
X6334149Y-4105997D01*
X6335442Y-4105338D01*
X6335442Y-4105338D01*
X6336206Y-4104949D01*
X6345737Y-4095418D01*
X6346900Y-4093135D01*
X6347962Y-4091051D01*
X6351856Y-4083409D01*
X6351990Y-4082561D01*
X6351990Y-4082561D01*
X6353830Y-4070943D01*
X6353964Y-4070096D01*
X6353124Y-4064791D01*
X6351990Y-4057631D01*
X6351990Y-4057631D01*
X6351856Y-4056783D01*
X6347434Y-4048105D01*
X6346126Y-4045538D01*
X6346126Y-4045538D01*
X6345737Y-4044774D01*
X6336206Y-4035243D01*
X6324197Y-4029124D01*
X6323349Y-4028990D01*
X6323349Y-4028990D01*
X6311731Y-4027150D01*
X6310884Y-4027016D01*
X6310037Y-4027150D01*
X6298419Y-4028990D01*
X6298419Y-4028990D01*
X6297571Y-4029124D01*
X6285562Y-4035243D01*
X6276031Y-4044774D01*
X6275642Y-4045538D01*
X6275642Y-4045538D01*
X6274334Y-4048105D01*
X6269912Y-4056783D01*
X6269778Y-4057631D01*
X6269778Y-4057631D01*
X6268644Y-4064791D01*
X6267804Y-4070096D01*
X5953871Y-4070096D01*
X5952675Y-4061744D01*
X5946741Y-4048693D01*
X5937383Y-4037833D01*
X5925352Y-4030035D01*
X5922307Y-4029124D01*
X5912361Y-4026149D01*
X5912361Y-4026149D01*
X5911617Y-4025927D01*
X5904449Y-4025883D01*
X5898057Y-4025844D01*
X5898057Y-4025844D01*
X5897280Y-4025839D01*
X5896534Y-4026053D01*
X5896534Y-4026053D01*
X5884242Y-4029566D01*
X5884242Y-4029566D01*
X5883496Y-4029779D01*
X5882839Y-4030193D01*
X5873169Y-4036295D01*
X5871371Y-4037429D01*
X5861880Y-4048175D01*
X5861550Y-4048878D01*
X5861550Y-4048878D01*
X5856118Y-4060449D01*
X5856117Y-4060450D01*
X5855787Y-4061153D01*
X5855668Y-4061920D01*
X5854207Y-4071302D01*
X5853582Y-4075319D01*
X5717959Y-4075319D01*
X5723829Y-4072327D01*
X5725842Y-4071302D01*
X5725842Y-4071302D01*
X5726606Y-4070913D01*
X5736137Y-4061382D01*
X5742256Y-4049373D01*
X5742390Y-4048525D01*
X5742390Y-4048525D01*
X5744230Y-4036907D01*
X5744364Y-4036060D01*
X5744144Y-4034669D01*
X5742390Y-4023595D01*
X5742390Y-4023595D01*
X5742256Y-4022747D01*
X5737158Y-4012743D01*
X5736526Y-4011502D01*
X5736526Y-4011502D01*
X5736137Y-4010738D01*
X5726606Y-4001207D01*
X5714597Y-3995088D01*
X5713749Y-3994954D01*
X5713749Y-3994954D01*
X5702131Y-3993114D01*
X5701284Y-3992980D01*
X5700437Y-3993114D01*
X5688819Y-3994954D01*
X5688819Y-3994954D01*
X5687971Y-3995088D01*
X5675962Y-4001207D01*
X5671852Y-4005317D01*
X5665849Y-4008376D01*
X5664144Y-4008510D01*
X5238727Y-4008510D01*
X5236600Y-4008301D01*
X5235993Y-4008180D01*
X5234940Y-4007970D01*
X5233887Y-4008180D01*
X5232228Y-4008510D01*
X5232227Y-4008510D01*
X5232227Y-4008510D01*
X5232226Y-4008510D01*
X5225244Y-4009899D01*
X5225243Y-4009899D01*
X5224498Y-4010047D01*
X5224191Y-4010108D01*
X5217378Y-4014661D01*
X5217378Y-4014661D01*
X5215078Y-4016198D01*
X5214481Y-4017090D01*
X5214481Y-4017090D01*
X5214137Y-4017605D01*
X5212782Y-4019257D01*
X5186081Y-4045957D01*
X5180079Y-4049016D01*
X5178373Y-4049150D01*
X5162738Y-4049150D01*
X5156331Y-4047068D01*
X5152372Y-4041618D01*
X5152355Y-4035083D01*
X5152555Y-4034669D01*
X5154315Y-4024207D01*
X5154864Y-4020947D01*
X5154864Y-4020947D01*
X5154934Y-4020531D01*
X5154949Y-4019296D01*
X5152916Y-4005104D01*
X5146982Y-3992053D01*
X5137624Y-3981192D01*
X5125594Y-3973394D01*
X5124020Y-3972924D01*
X5112602Y-3969509D01*
X5112602Y-3969509D01*
X5111858Y-3969287D01*
X5104690Y-3969243D01*
X5098298Y-3969204D01*
X5098298Y-3969204D01*
X5097522Y-3969199D01*
X5096775Y-3969412D01*
X5096775Y-3969412D01*
X5084483Y-3972925D01*
X5084483Y-3972925D01*
X5083737Y-3973139D01*
X5083080Y-3973553D01*
X5072419Y-3980280D01*
X5071612Y-3980789D01*
X5062122Y-3991535D01*
X5061792Y-3992238D01*
X5061792Y-3992238D01*
X5057250Y-4001912D01*
X5052642Y-4006827D01*
X5047662Y-4008108D01*
X5046971Y-4007970D01*
X5045918Y-4008180D01*
X5045310Y-4008301D01*
X5043184Y-4008510D01*
X4474124Y-4008510D01*
X4467717Y-4006428D01*
X4466416Y-4005317D01*
X4462306Y-4001207D01*
X4450297Y-3995088D01*
X4449449Y-3994954D01*
X4449449Y-3994954D01*
X4437831Y-3993114D01*
X4436984Y-3992980D01*
X4436137Y-3993114D01*
X4424519Y-3994954D01*
X4424519Y-3994954D01*
X4423671Y-3995088D01*
X4411662Y-4001207D01*
X4402131Y-4010738D01*
X4401742Y-4011502D01*
X4401742Y-4011502D01*
X4401110Y-4012743D01*
X4396012Y-4022747D01*
X4395878Y-4023595D01*
X4395878Y-4023595D01*
X4394124Y-4034669D01*
X4393904Y-4036060D01*
X4396012Y-4049373D01*
X4396402Y-4050137D01*
X4396521Y-4050505D01*
X4396521Y-4057242D01*
X4392561Y-4062692D01*
X4386088Y-4064773D01*
X4381555Y-4064745D01*
X4375414Y-4064708D01*
X4375414Y-4064708D01*
X4374638Y-4064703D01*
X4373891Y-4064916D01*
X4373891Y-4064916D01*
X4365832Y-4067220D01*
X4359099Y-4066979D01*
X4353795Y-4062827D01*
X4351943Y-4056349D01*
X4352071Y-4055035D01*
X4353064Y-4048760D01*
X4352337Y-4044168D01*
X4351090Y-4036295D01*
X4351090Y-4036295D01*
X4350956Y-4035447D01*
X4344837Y-4023438D01*
X4335306Y-4013907D01*
X4333965Y-4013224D01*
X4328051Y-4010211D01*
X4323297Y-4007788D01*
X4322449Y-4007654D01*
X4322449Y-4007654D01*
X4310831Y-4005814D01*
X4309984Y-4005680D01*
X4309137Y-4005814D01*
X4297519Y-4007654D01*
X4297519Y-4007654D01*
X4296671Y-4007788D01*
X4288071Y-4012170D01*
X4281417Y-4013224D01*
X4275415Y-4010166D01*
X4273410Y-4007407D01*
X4273308Y-4007205D01*
X4268637Y-3998038D01*
X4259106Y-3988507D01*
X4247097Y-3982388D01*
X4246249Y-3982254D01*
X4246249Y-3982254D01*
X4234631Y-3980414D01*
X4233784Y-3980280D01*
X4232937Y-3980414D01*
X4221319Y-3982254D01*
X4221319Y-3982254D01*
X4220471Y-3982388D01*
X4208462Y-3988507D01*
X4198931Y-3998038D01*
X4192812Y-4010047D01*
X4192678Y-4010895D01*
X4192678Y-4010895D01*
X4191218Y-4020110D01*
X4190704Y-4023360D01*
X4190838Y-4024207D01*
X4192678Y-4035825D01*
X4192678Y-4035825D01*
X4192812Y-4036673D01*
X4196940Y-4044774D01*
X4197329Y-4045538D01*
X4198931Y-4048682D01*
X4208462Y-4058213D01*
X4209226Y-4058602D01*
X4209226Y-4058602D01*
X4211824Y-4059926D01*
X4220471Y-4064332D01*
X4221319Y-4064466D01*
X4221319Y-4064466D01*
X4232937Y-4066306D01*
X4233784Y-4066440D01*
X4234631Y-4066306D01*
X4246249Y-4064466D01*
X4246249Y-4064466D01*
X4247097Y-4064332D01*
X4255697Y-4059950D01*
X4262351Y-4058896D01*
X4268353Y-4061954D01*
X4270357Y-4064713D01*
X4272360Y-4068643D01*
X4273532Y-4070943D01*
X4275131Y-4074082D01*
X4284662Y-4083613D01*
X4296671Y-4089732D01*
X4297519Y-4089866D01*
X4297519Y-4089866D01*
X4309137Y-4091706D01*
X4309984Y-4091840D01*
X4320258Y-4090213D01*
X4326912Y-4091267D01*
X4331676Y-4096030D01*
X4332734Y-4102656D01*
X4331424Y-4111068D01*
X4330939Y-4114182D01*
X4332798Y-4128398D01*
X4338572Y-4141520D01*
X4339072Y-4142115D01*
X4339072Y-4142115D01*
X4341914Y-4145496D01*
X4344443Y-4151740D01*
X4342819Y-4158278D01*
X4337663Y-4162613D01*
X4333570Y-4163410D01*
X4204298Y-4163410D01*
X4197892Y-4161328D01*
X4193932Y-4155878D01*
X4193932Y-4149142D01*
X4194489Y-4147757D01*
X4198459Y-4139563D01*
X4200055Y-4136269D01*
X4202434Y-4122131D01*
X4202449Y-4120896D01*
X4200416Y-4106704D01*
X4194482Y-4093653D01*
X4185124Y-4082792D01*
X4173093Y-4074994D01*
X4170042Y-4074082D01*
X4160102Y-4071109D01*
X4160102Y-4071109D01*
X4159358Y-4070887D01*
X4152190Y-4070843D01*
X4145798Y-4070804D01*
X4145798Y-4070804D01*
X4145022Y-4070799D01*
X4144275Y-4071012D01*
X4144275Y-4071012D01*
X4131983Y-4074525D01*
X4131983Y-4074525D01*
X4131237Y-4074739D01*
X4130580Y-4075153D01*
X4126261Y-4077878D01*
X4119112Y-4082389D01*
X4109622Y-4093135D01*
X4109292Y-4093838D01*
X4109292Y-4093838D01*
X4103859Y-4105409D01*
X4103859Y-4105409D01*
X4103529Y-4106112D01*
X4103409Y-4106880D01*
X4101878Y-4116715D01*
X4101323Y-4120278D01*
X4103182Y-4134494D01*
X4103963Y-4136269D01*
X4108956Y-4147616D01*
X4108780Y-4147694D01*
X4110165Y-4153289D01*
X4107630Y-4159531D01*
X4101911Y-4163091D01*
X4099293Y-4163410D01*
X3599795Y-4163410D01*
X3597679Y-4163170D01*
X3597512Y-4163169D01*
X3596316Y-4162894D01*
X3595118Y-4163165D01*
X3594185Y-4163164D01*
X3592936Y-4163279D01*
X3547282Y-4161485D01*
X3546429Y-4161418D01*
X3541950Y-4160888D01*
X3498160Y-4155705D01*
X3497316Y-4155571D01*
X3464941Y-4149131D01*
X3449641Y-4146088D01*
X3448809Y-4145888D01*
X3402027Y-4132694D01*
X3401213Y-4132430D01*
X3400444Y-4132146D01*
X3369949Y-4120896D01*
X3355611Y-4115606D01*
X3354820Y-4115279D01*
X3310677Y-4094929D01*
X3309915Y-4094540D01*
X3267505Y-4070790D01*
X3266776Y-4070342D01*
X3236536Y-4050137D01*
X3226360Y-4043338D01*
X3225668Y-4042835D01*
X3224965Y-4042281D01*
X3208106Y-4028990D01*
X3187497Y-4012743D01*
X3186846Y-4012187D01*
X3151153Y-3979193D01*
X3150547Y-3978587D01*
X3117553Y-3942894D01*
X3116997Y-3942243D01*
X3093101Y-3911932D01*
X3087344Y-3904628D01*
X3518139Y-3904628D01*
X3519998Y-3918844D01*
X3525772Y-3931966D01*
X3526271Y-3932560D01*
X3526271Y-3932561D01*
X3532482Y-3939948D01*
X3534997Y-3942941D01*
X3546931Y-3950885D01*
X3547672Y-3951116D01*
X3559875Y-3954929D01*
X3559875Y-3954929D01*
X3560616Y-3955160D01*
X3567998Y-3955295D01*
X3572020Y-3955369D01*
X3578387Y-3957568D01*
X3582246Y-3963090D01*
X3582590Y-3967944D01*
X3580623Y-3980578D01*
X3582482Y-3994794D01*
X3588256Y-4007916D01*
X3588755Y-4008510D01*
X3588755Y-4008511D01*
X3593925Y-4014661D01*
X3597481Y-4018891D01*
X3609415Y-4026835D01*
X3610156Y-4027066D01*
X3622359Y-4030879D01*
X3622359Y-4030879D01*
X3623100Y-4031110D01*
X3630857Y-4031252D01*
X3636658Y-4031359D01*
X3636658Y-4031359D01*
X3637434Y-4031373D01*
X3651266Y-4027602D01*
X3663483Y-4020100D01*
X3673104Y-4009471D01*
X3679355Y-3996569D01*
X3681734Y-3982431D01*
X3681749Y-3981196D01*
X3679716Y-3967004D01*
X3673782Y-3953953D01*
X3664424Y-3943092D01*
X3658210Y-3939065D01*
X3653966Y-3933833D01*
X3653608Y-3927106D01*
X3657272Y-3921453D01*
X3663559Y-3919033D01*
X3664339Y-3919020D01*
X3668363Y-3919094D01*
X3668364Y-3919094D01*
X3669140Y-3919108D01*
X3682971Y-3915337D01*
X3695189Y-3907835D01*
X3704810Y-3897206D01*
X3711061Y-3884304D01*
X3712985Y-3872867D01*
X3713369Y-3870582D01*
X3713369Y-3870581D01*
X3713439Y-3870166D01*
X3713454Y-3868931D01*
X3711422Y-3854739D01*
X3711119Y-3854074D01*
X3711319Y-3847361D01*
X3715438Y-3842031D01*
X3721904Y-3840140D01*
X3723323Y-3840276D01*
X3723958Y-3840379D01*
X3724700Y-3840610D01*
X3732457Y-3840752D01*
X3738258Y-3840859D01*
X3738258Y-3840859D01*
X3739034Y-3840873D01*
X3748458Y-3838304D01*
X4404823Y-3838304D01*
X4404958Y-3839151D01*
X4406798Y-3850769D01*
X4406798Y-3850769D01*
X4406932Y-3851616D01*
X4410793Y-3859194D01*
X4412610Y-3862760D01*
X4413051Y-3863626D01*
X4422582Y-3873156D01*
X4423346Y-3873546D01*
X4423346Y-3873546D01*
X4424170Y-3873966D01*
X4434591Y-3879276D01*
X4435438Y-3879410D01*
X4435439Y-3879410D01*
X4447056Y-3881250D01*
X4447904Y-3881384D01*
X4448751Y-3881250D01*
X4460369Y-3879410D01*
X4460369Y-3879410D01*
X4461216Y-3879276D01*
X4471637Y-3873966D01*
X4472462Y-3873546D01*
X4472462Y-3873546D01*
X4473226Y-3873156D01*
X4473832Y-3872550D01*
X4473832Y-3872550D01*
X4477913Y-3868469D01*
X4483916Y-3865411D01*
X4490569Y-3866465D01*
X4493328Y-3868469D01*
X4495544Y-3870685D01*
X4496308Y-3871074D01*
X4496308Y-3871075D01*
X4498906Y-3872398D01*
X4507554Y-3876804D01*
X4508401Y-3876939D01*
X4508401Y-3876939D01*
X4520019Y-3878779D01*
X4520866Y-3878913D01*
X4521714Y-3878779D01*
X4533331Y-3876939D01*
X4533332Y-3876939D01*
X4534179Y-3876804D01*
X4542826Y-3872398D01*
X4545424Y-3871075D01*
X4545424Y-3871074D01*
X4546188Y-3870685D01*
X4555719Y-3861154D01*
X4556641Y-3859344D01*
X4557509Y-3857642D01*
X5663423Y-3857642D01*
X5665282Y-3871858D01*
X5671056Y-3884980D01*
X5671555Y-3885574D01*
X5671555Y-3885575D01*
X5676162Y-3891054D01*
X5680281Y-3895955D01*
X5692215Y-3903899D01*
X5692956Y-3904130D01*
X5705159Y-3907943D01*
X5705159Y-3907943D01*
X5705900Y-3908174D01*
X5713657Y-3908316D01*
X5719458Y-3908423D01*
X5719458Y-3908423D01*
X5720234Y-3908437D01*
X5734066Y-3904666D01*
X5746283Y-3897164D01*
X5747653Y-3895651D01*
X5755383Y-3887111D01*
X5755904Y-3886535D01*
X5762155Y-3873633D01*
X5763950Y-3862964D01*
X5764464Y-3859911D01*
X5764464Y-3859911D01*
X5764534Y-3859495D01*
X5764549Y-3858260D01*
X5762516Y-3844068D01*
X5756582Y-3831017D01*
X5747224Y-3820156D01*
X5735193Y-3812358D01*
X5731592Y-3811281D01*
X5725396Y-3809428D01*
X5904723Y-3809428D01*
X5906582Y-3823644D01*
X5912356Y-3836766D01*
X5912855Y-3837360D01*
X5912855Y-3837361D01*
X5921081Y-3847147D01*
X5921581Y-3847741D01*
X5933515Y-3855685D01*
X5934256Y-3855916D01*
X5946459Y-3859729D01*
X5946459Y-3859729D01*
X5947200Y-3859960D01*
X5954957Y-3860102D01*
X5960758Y-3860209D01*
X5960758Y-3860209D01*
X5961534Y-3860223D01*
X5975366Y-3856452D01*
X5987583Y-3848950D01*
X5997204Y-3838321D01*
X5999850Y-3832860D01*
X6515200Y-3832860D01*
X6515334Y-3833707D01*
X6517174Y-3845325D01*
X6517174Y-3845325D01*
X6517308Y-3846172D01*
X6519213Y-3849910D01*
X6521925Y-3855232D01*
X6523427Y-3858182D01*
X6532958Y-3867712D01*
X6533722Y-3868102D01*
X6533722Y-3868102D01*
X6534935Y-3868719D01*
X6544968Y-3873832D01*
X6545815Y-3873966D01*
X6545815Y-3873966D01*
X6557433Y-3875806D01*
X6558280Y-3875940D01*
X6559128Y-3875806D01*
X6570745Y-3873966D01*
X6570746Y-3873966D01*
X6571593Y-3873832D01*
X6577229Y-3870960D01*
X6680300Y-3870960D01*
X6680434Y-3871807D01*
X6682274Y-3883425D01*
X6682274Y-3883425D01*
X6682408Y-3884273D01*
X6688527Y-3896282D01*
X6698058Y-3905813D01*
X6710067Y-3911932D01*
X6710915Y-3912066D01*
X6710915Y-3912066D01*
X6722533Y-3913906D01*
X6723380Y-3914040D01*
X6724227Y-3913906D01*
X6735845Y-3912066D01*
X6735845Y-3912066D01*
X6736693Y-3911932D01*
X6748702Y-3905813D01*
X6758233Y-3896282D01*
X6764352Y-3884273D01*
X6764486Y-3883425D01*
X6764486Y-3883425D01*
X6766326Y-3871807D01*
X6766460Y-3870960D01*
X6766008Y-3868102D01*
X6764486Y-3858495D01*
X6764486Y-3858495D01*
X6764352Y-3857647D01*
X6758233Y-3845638D01*
X6748702Y-3836107D01*
X6736693Y-3829988D01*
X6735845Y-3829854D01*
X6735845Y-3829854D01*
X6724227Y-3828014D01*
X6723380Y-3827880D01*
X6722533Y-3828014D01*
X6710915Y-3829854D01*
X6710915Y-3829854D01*
X6710067Y-3829988D01*
X6698058Y-3836107D01*
X6688527Y-3845638D01*
X6682408Y-3857647D01*
X6682274Y-3858495D01*
X6682274Y-3858495D01*
X6680752Y-3868102D01*
X6680300Y-3870960D01*
X6577229Y-3870960D01*
X6581626Y-3868719D01*
X6582838Y-3868102D01*
X6582838Y-3868102D01*
X6583602Y-3867712D01*
X6593133Y-3858182D01*
X6594636Y-3855232D01*
X6597348Y-3849910D01*
X6599252Y-3846172D01*
X6599386Y-3845325D01*
X6599386Y-3845325D01*
X6601226Y-3833707D01*
X6601361Y-3832860D01*
X6600577Y-3827910D01*
X6599386Y-3820395D01*
X6599386Y-3820394D01*
X6599252Y-3819547D01*
X6594489Y-3810198D01*
X6593522Y-3808302D01*
X6593522Y-3808302D01*
X6593133Y-3807538D01*
X6583602Y-3798007D01*
X6582277Y-3797332D01*
X6579377Y-3795854D01*
X6571593Y-3791888D01*
X6570746Y-3791754D01*
X6570745Y-3791753D01*
X6559128Y-3789913D01*
X6558280Y-3789779D01*
X6557433Y-3789913D01*
X6545815Y-3791753D01*
X6545815Y-3791754D01*
X6544968Y-3791888D01*
X6537183Y-3795854D01*
X6534283Y-3797332D01*
X6532958Y-3798007D01*
X6523427Y-3807538D01*
X6523038Y-3808302D01*
X6523038Y-3808302D01*
X6522072Y-3810198D01*
X6517308Y-3819547D01*
X6517174Y-3820394D01*
X6517174Y-3820395D01*
X6515984Y-3827910D01*
X6515200Y-3832860D01*
X5999850Y-3832860D01*
X6003455Y-3825419D01*
X6005419Y-3813746D01*
X6005764Y-3811697D01*
X6005764Y-3811697D01*
X6005834Y-3811281D01*
X6005849Y-3810046D01*
X6003816Y-3795854D01*
X5997882Y-3782803D01*
X5993208Y-3777378D01*
X6247623Y-3777378D01*
X6249482Y-3791594D01*
X6255256Y-3804716D01*
X6255755Y-3805310D01*
X6255755Y-3805311D01*
X6263981Y-3815097D01*
X6264481Y-3815691D01*
X6276415Y-3823635D01*
X6277156Y-3823866D01*
X6289359Y-3827679D01*
X6289359Y-3827679D01*
X6290100Y-3827910D01*
X6297857Y-3828052D01*
X6303658Y-3828159D01*
X6303658Y-3828159D01*
X6304434Y-3828173D01*
X6318266Y-3824402D01*
X6330483Y-3816900D01*
X6340104Y-3806271D01*
X6346355Y-3793369D01*
X6348014Y-3783510D01*
X6348664Y-3779647D01*
X6348664Y-3779647D01*
X6348734Y-3779231D01*
X6348749Y-3777996D01*
X6346716Y-3763804D01*
X6340782Y-3750753D01*
X6331424Y-3739892D01*
X6319393Y-3732094D01*
X6316064Y-3731099D01*
X6306402Y-3728209D01*
X6306402Y-3728209D01*
X6305658Y-3727987D01*
X6298490Y-3727943D01*
X6292098Y-3727904D01*
X6292098Y-3727904D01*
X6291322Y-3727899D01*
X6290575Y-3728112D01*
X6290575Y-3728112D01*
X6278283Y-3731625D01*
X6278283Y-3731625D01*
X6277537Y-3731839D01*
X6276880Y-3732253D01*
X6266148Y-3739024D01*
X6265412Y-3739489D01*
X6255922Y-3750235D01*
X6255592Y-3750938D01*
X6255592Y-3750938D01*
X6250159Y-3762509D01*
X6250159Y-3762509D01*
X6249829Y-3763212D01*
X6249709Y-3763980D01*
X6247851Y-3775912D01*
X6247623Y-3777378D01*
X5993208Y-3777378D01*
X5988524Y-3771942D01*
X5976493Y-3764144D01*
X5970502Y-3762353D01*
X5963502Y-3760259D01*
X5963502Y-3760259D01*
X5962758Y-3760037D01*
X5955590Y-3759993D01*
X5949198Y-3759954D01*
X5949198Y-3759954D01*
X5948422Y-3759949D01*
X5947675Y-3760162D01*
X5947675Y-3760162D01*
X5935383Y-3763675D01*
X5935383Y-3763675D01*
X5934637Y-3763889D01*
X5922512Y-3771539D01*
X5913022Y-3782285D01*
X5912692Y-3782988D01*
X5912692Y-3782988D01*
X5907259Y-3794559D01*
X5907259Y-3794559D01*
X5906929Y-3795262D01*
X5906809Y-3796030D01*
X5904887Y-3808376D01*
X5904723Y-3809428D01*
X5725396Y-3809428D01*
X5722202Y-3808473D01*
X5722202Y-3808473D01*
X5721458Y-3808251D01*
X5714290Y-3808207D01*
X5707898Y-3808168D01*
X5707898Y-3808168D01*
X5707122Y-3808163D01*
X5706375Y-3808376D01*
X5706375Y-3808376D01*
X5694083Y-3811889D01*
X5694083Y-3811889D01*
X5693337Y-3812103D01*
X5692680Y-3812517D01*
X5681995Y-3819259D01*
X5681212Y-3819753D01*
X5671722Y-3830499D01*
X5671392Y-3831202D01*
X5671392Y-3831202D01*
X5665959Y-3842773D01*
X5665959Y-3842773D01*
X5665629Y-3843476D01*
X5665509Y-3844244D01*
X5663778Y-3855362D01*
X5663423Y-3857642D01*
X4557509Y-3857642D01*
X4557963Y-3856750D01*
X4561838Y-3849145D01*
X4561972Y-3848298D01*
X4561972Y-3848297D01*
X4563812Y-3836680D01*
X4563947Y-3835832D01*
X4563342Y-3832012D01*
X4561972Y-3823367D01*
X4561972Y-3823367D01*
X4561838Y-3822520D01*
X4555719Y-3810510D01*
X4546188Y-3800980D01*
X4534179Y-3794861D01*
X4533332Y-3794726D01*
X4533331Y-3794726D01*
X4521714Y-3792886D01*
X4520866Y-3792752D01*
X4520019Y-3792886D01*
X4508401Y-3794726D01*
X4508401Y-3794726D01*
X4507554Y-3794861D01*
X4495544Y-3800980D01*
X4494938Y-3801586D01*
X4494938Y-3801586D01*
X4490857Y-3805667D01*
X4484855Y-3808725D01*
X4478201Y-3807672D01*
X4475442Y-3805667D01*
X4473226Y-3803451D01*
X4461216Y-3797332D01*
X4460369Y-3797198D01*
X4460369Y-3797197D01*
X4448751Y-3795357D01*
X4447904Y-3795223D01*
X4447056Y-3795357D01*
X4435439Y-3797197D01*
X4435438Y-3797198D01*
X4434591Y-3797332D01*
X4422582Y-3803451D01*
X4413051Y-3812982D01*
X4406932Y-3824991D01*
X4406798Y-3825838D01*
X4406798Y-3825839D01*
X4405619Y-3833281D01*
X4404823Y-3838304D01*
X3748458Y-3838304D01*
X3752866Y-3837102D01*
X3765083Y-3829600D01*
X3774704Y-3818971D01*
X3780955Y-3806069D01*
X3783092Y-3793369D01*
X3783264Y-3792347D01*
X3783264Y-3792347D01*
X3783334Y-3791931D01*
X3783349Y-3790696D01*
X3781316Y-3776504D01*
X3775382Y-3763453D01*
X3766024Y-3752592D01*
X3753993Y-3744794D01*
X3752420Y-3744324D01*
X3741002Y-3740909D01*
X3741002Y-3740909D01*
X3740258Y-3740687D01*
X3733090Y-3740643D01*
X3726698Y-3740604D01*
X3726698Y-3740604D01*
X3725922Y-3740599D01*
X3725175Y-3740812D01*
X3725175Y-3740812D01*
X3712883Y-3744325D01*
X3712883Y-3744325D01*
X3712137Y-3744539D01*
X3711480Y-3744953D01*
X3701167Y-3751460D01*
X3700012Y-3752189D01*
X3690522Y-3762935D01*
X3690192Y-3763638D01*
X3690192Y-3763638D01*
X3684759Y-3775209D01*
X3684759Y-3775209D01*
X3684429Y-3775912D01*
X3684309Y-3776680D01*
X3682749Y-3786703D01*
X3682223Y-3790078D01*
X3684082Y-3804294D01*
X3684395Y-3805005D01*
X3684597Y-3805730D01*
X3684315Y-3812461D01*
X3680131Y-3817740D01*
X3673642Y-3819552D01*
X3671876Y-3819256D01*
X3671876Y-3819259D01*
X3671108Y-3819144D01*
X3670364Y-3818921D01*
X3663195Y-3818878D01*
X3656804Y-3818839D01*
X3656804Y-3818839D01*
X3656027Y-3818834D01*
X3655281Y-3819047D01*
X3655281Y-3819047D01*
X3642989Y-3822560D01*
X3642989Y-3822560D01*
X3642243Y-3822774D01*
X3641586Y-3823188D01*
X3630778Y-3830007D01*
X3630118Y-3830424D01*
X3620627Y-3841170D01*
X3620297Y-3841872D01*
X3620297Y-3841873D01*
X3614864Y-3853444D01*
X3614864Y-3853444D01*
X3614534Y-3854147D01*
X3614415Y-3854915D01*
X3614129Y-3856750D01*
X3611087Y-3862760D01*
X3605092Y-3865834D01*
X3598436Y-3864797D01*
X3597430Y-3864219D01*
X3595179Y-3862760D01*
X3589909Y-3859344D01*
X3586283Y-3858260D01*
X3576918Y-3855459D01*
X3576918Y-3855459D01*
X3576174Y-3855237D01*
X3569006Y-3855193D01*
X3562614Y-3855154D01*
X3562614Y-3855154D01*
X3561838Y-3855149D01*
X3561091Y-3855362D01*
X3561091Y-3855362D01*
X3548799Y-3858875D01*
X3548799Y-3858875D01*
X3548053Y-3859089D01*
X3535928Y-3866739D01*
X3526438Y-3877485D01*
X3526108Y-3878188D01*
X3526108Y-3878188D01*
X3520675Y-3889759D01*
X3520675Y-3889759D01*
X3520345Y-3890462D01*
X3520225Y-3891230D01*
X3519423Y-3896385D01*
X3518139Y-3904628D01*
X3087344Y-3904628D01*
X3086905Y-3904071D01*
X3086402Y-3903380D01*
X3082662Y-3897782D01*
X3072809Y-3883037D01*
X3059397Y-3862964D01*
X3058950Y-3862235D01*
X3042154Y-3832242D01*
X3142219Y-3832242D01*
X3144078Y-3846458D01*
X3149852Y-3859580D01*
X3150351Y-3860174D01*
X3150351Y-3860175D01*
X3157712Y-3868931D01*
X3159077Y-3870555D01*
X3171011Y-3878499D01*
X3171752Y-3878730D01*
X3183955Y-3882543D01*
X3183955Y-3882543D01*
X3184696Y-3882774D01*
X3192453Y-3882916D01*
X3198254Y-3883023D01*
X3198254Y-3883023D01*
X3199030Y-3883037D01*
X3212862Y-3879266D01*
X3225079Y-3871764D01*
X3234700Y-3861135D01*
X3240951Y-3848233D01*
X3242824Y-3837102D01*
X3243260Y-3834511D01*
X3243260Y-3834511D01*
X3243330Y-3834095D01*
X3243345Y-3832860D01*
X3241312Y-3818668D01*
X3235378Y-3805617D01*
X3226020Y-3794756D01*
X3213989Y-3786958D01*
X3212416Y-3786488D01*
X3200998Y-3783073D01*
X3200998Y-3783073D01*
X3200254Y-3782851D01*
X3193086Y-3782807D01*
X3186694Y-3782768D01*
X3186694Y-3782768D01*
X3185918Y-3782763D01*
X3185171Y-3782976D01*
X3185171Y-3782976D01*
X3172879Y-3786489D01*
X3172879Y-3786489D01*
X3172133Y-3786703D01*
X3160008Y-3794353D01*
X3150518Y-3805099D01*
X3150188Y-3805802D01*
X3150188Y-3805802D01*
X3144755Y-3817373D01*
X3144755Y-3817373D01*
X3144425Y-3818076D01*
X3144305Y-3818844D01*
X3142491Y-3830499D01*
X3142219Y-3832242D01*
X3042154Y-3832242D01*
X3035200Y-3819825D01*
X3034811Y-3819063D01*
X3014461Y-3774920D01*
X3014134Y-3774129D01*
X3001765Y-3740604D01*
X2997310Y-3728527D01*
X2997046Y-3727713D01*
X2983852Y-3680931D01*
X2983652Y-3680099D01*
X2980266Y-3663078D01*
X3682223Y-3663078D01*
X3684082Y-3677294D01*
X3689856Y-3690416D01*
X3690355Y-3691010D01*
X3690355Y-3691011D01*
X3696748Y-3698615D01*
X3699081Y-3701391D01*
X3711015Y-3709335D01*
X3711756Y-3709566D01*
X3723959Y-3713379D01*
X3723959Y-3713379D01*
X3724700Y-3713610D01*
X3732457Y-3713752D01*
X3738258Y-3713859D01*
X3738258Y-3713859D01*
X3739034Y-3713873D01*
X3752866Y-3710102D01*
X3765083Y-3702600D01*
X3767645Y-3699770D01*
X3772815Y-3694058D01*
X3774704Y-3691971D01*
X3780955Y-3679069D01*
X3782858Y-3667760D01*
X3783264Y-3665347D01*
X3783264Y-3665347D01*
X3783334Y-3664931D01*
X3783349Y-3663696D01*
X4057608Y-3663696D01*
X4057742Y-3664543D01*
X4059582Y-3676161D01*
X4059582Y-3676161D01*
X4059716Y-3677009D01*
X4065835Y-3689018D01*
X4075366Y-3698549D01*
X4076130Y-3698938D01*
X4076130Y-3698938D01*
X4077763Y-3699770D01*
X4087375Y-3704668D01*
X4088223Y-3704802D01*
X4088223Y-3704802D01*
X4099841Y-3706642D01*
X4100688Y-3706776D01*
X4101535Y-3706642D01*
X4113153Y-3704802D01*
X4113153Y-3704802D01*
X4114001Y-3704668D01*
X4123613Y-3699770D01*
X4125246Y-3698938D01*
X4125246Y-3698938D01*
X4126010Y-3698549D01*
X4135541Y-3689018D01*
X4141660Y-3677009D01*
X4141794Y-3676161D01*
X4141794Y-3676161D01*
X4143634Y-3664543D01*
X4143768Y-3663696D01*
X4143008Y-3658896D01*
X4141794Y-3651231D01*
X4141794Y-3651231D01*
X4141660Y-3650383D01*
X4138341Y-3643870D01*
X4319657Y-3643870D01*
X4321395Y-3659615D01*
X4326839Y-3674492D01*
X4335675Y-3687640D01*
X4336816Y-3688678D01*
X4343509Y-3694769D01*
X4347392Y-3698302D01*
X4347969Y-3698615D01*
X4360736Y-3705547D01*
X4360736Y-3705547D01*
X4361313Y-3705861D01*
X4361948Y-3706027D01*
X4361949Y-3706027D01*
X4372271Y-3708735D01*
X4376636Y-3709881D01*
X4383136Y-3709983D01*
X4391819Y-3710119D01*
X4391819Y-3710119D01*
X4392476Y-3710129D01*
X4393116Y-3709983D01*
X4393116Y-3709983D01*
X4407277Y-3706739D01*
X4407917Y-3706593D01*
X4408504Y-3706298D01*
X4408504Y-3706298D01*
X4421483Y-3699770D01*
X4421483Y-3699770D01*
X4422070Y-3699475D01*
X4427580Y-3694769D01*
X4433616Y-3689614D01*
X4433616Y-3689614D01*
X4434115Y-3689187D01*
X4436642Y-3685671D01*
X4442071Y-3681683D01*
X4448807Y-3681648D01*
X4454541Y-3685952D01*
X4455675Y-3687640D01*
X4456816Y-3688678D01*
X4463509Y-3694769D01*
X4467392Y-3698302D01*
X4467969Y-3698615D01*
X4480736Y-3705547D01*
X4480736Y-3705547D01*
X4481313Y-3705861D01*
X4481948Y-3706027D01*
X4481949Y-3706027D01*
X4492271Y-3708735D01*
X4496636Y-3709881D01*
X4503136Y-3709983D01*
X4511819Y-3710119D01*
X4511819Y-3710119D01*
X4512476Y-3710129D01*
X4513116Y-3709983D01*
X4513116Y-3709983D01*
X4527277Y-3706739D01*
X4527917Y-3706593D01*
X4528504Y-3706298D01*
X4528504Y-3706298D01*
X4541483Y-3699770D01*
X4541483Y-3699770D01*
X4542070Y-3699475D01*
X4547580Y-3694769D01*
X4553616Y-3689614D01*
X4553616Y-3689614D01*
X4554115Y-3689187D01*
X4556642Y-3685671D01*
X4562071Y-3681683D01*
X4568807Y-3681648D01*
X4574541Y-3685952D01*
X4575675Y-3687640D01*
X4576816Y-3688678D01*
X4583509Y-3694769D01*
X4587392Y-3698302D01*
X4587969Y-3698615D01*
X4600736Y-3705547D01*
X4600736Y-3705547D01*
X4601313Y-3705861D01*
X4601948Y-3706027D01*
X4601949Y-3706027D01*
X4612271Y-3708735D01*
X4616636Y-3709881D01*
X4623136Y-3709983D01*
X4631819Y-3710119D01*
X4631819Y-3710119D01*
X4632476Y-3710129D01*
X4633116Y-3709983D01*
X4633116Y-3709983D01*
X4647277Y-3706739D01*
X4647917Y-3706593D01*
X4648504Y-3706298D01*
X4648504Y-3706298D01*
X4661483Y-3699770D01*
X4661483Y-3699770D01*
X4662070Y-3699475D01*
X4667580Y-3694769D01*
X4673616Y-3689614D01*
X4673616Y-3689614D01*
X4674115Y-3689187D01*
X4676642Y-3685671D01*
X4682071Y-3681683D01*
X4688807Y-3681648D01*
X4694541Y-3685952D01*
X4695675Y-3687640D01*
X4696816Y-3688678D01*
X4703509Y-3694769D01*
X4707392Y-3698302D01*
X4707969Y-3698615D01*
X4720736Y-3705547D01*
X4720736Y-3705547D01*
X4721313Y-3705861D01*
X4721948Y-3706027D01*
X4721949Y-3706027D01*
X4732271Y-3708735D01*
X4736636Y-3709881D01*
X4743136Y-3709983D01*
X4751819Y-3710119D01*
X4751819Y-3710119D01*
X4752476Y-3710129D01*
X4753116Y-3709983D01*
X4753116Y-3709983D01*
X4767277Y-3706739D01*
X4767917Y-3706593D01*
X4768504Y-3706298D01*
X4768504Y-3706298D01*
X4781483Y-3699770D01*
X4781483Y-3699770D01*
X4782070Y-3699475D01*
X4787580Y-3694769D01*
X4793616Y-3689614D01*
X4793616Y-3689614D01*
X4794115Y-3689187D01*
X4794625Y-3688478D01*
X5130023Y-3688478D01*
X5131882Y-3702694D01*
X5137656Y-3715816D01*
X5138155Y-3716410D01*
X5138156Y-3716411D01*
X5146122Y-3725888D01*
X5146881Y-3726791D01*
X5158815Y-3734735D01*
X5159556Y-3734966D01*
X5171759Y-3738779D01*
X5171759Y-3738779D01*
X5172500Y-3739010D01*
X5180258Y-3739152D01*
X5186058Y-3739259D01*
X5186058Y-3739259D01*
X5186834Y-3739273D01*
X5200666Y-3735502D01*
X5212883Y-3728000D01*
X5213725Y-3727070D01*
X5220332Y-3719771D01*
X5222504Y-3717371D01*
X5228755Y-3704469D01*
X5230555Y-3693769D01*
X5231064Y-3690747D01*
X5231064Y-3690747D01*
X5231134Y-3690331D01*
X5231149Y-3689096D01*
X5229116Y-3674904D01*
X5223182Y-3661853D01*
X5213824Y-3650992D01*
X5201794Y-3643194D01*
X5199588Y-3642535D01*
X5188802Y-3639309D01*
X5188802Y-3639309D01*
X5188058Y-3639087D01*
X5180890Y-3639043D01*
X5174498Y-3639004D01*
X5174498Y-3639004D01*
X5173722Y-3638999D01*
X5172975Y-3639212D01*
X5172975Y-3639212D01*
X5160683Y-3642725D01*
X5160683Y-3642725D01*
X5159937Y-3642939D01*
X5159280Y-3643353D01*
X5149100Y-3649776D01*
X5147812Y-3650589D01*
X5138322Y-3661335D01*
X5137992Y-3662038D01*
X5137992Y-3662038D01*
X5132559Y-3673609D01*
X5132559Y-3673609D01*
X5132229Y-3674312D01*
X5132109Y-3675080D01*
X5130460Y-3685671D01*
X5130023Y-3688478D01*
X4794625Y-3688478D01*
X4801382Y-3679075D01*
X4802976Y-3676856D01*
X4803360Y-3676322D01*
X4803876Y-3675037D01*
X4809023Y-3662233D01*
X4809023Y-3662233D01*
X4809268Y-3661624D01*
X4811500Y-3645941D01*
X4811515Y-3644560D01*
X4809612Y-3628833D01*
X4807252Y-3622590D01*
X4804244Y-3614630D01*
X4804244Y-3614629D01*
X4804012Y-3614015D01*
X4797887Y-3605102D01*
X4795412Y-3601501D01*
X4795411Y-3601500D01*
X4795039Y-3600959D01*
X4794549Y-3600522D01*
X4794549Y-3600522D01*
X4785709Y-3592646D01*
X4782310Y-3586830D01*
X4782980Y-3580127D01*
X4785881Y-3576220D01*
X4793616Y-3569614D01*
X4793616Y-3569614D01*
X4794115Y-3569187D01*
X4803360Y-3556322D01*
X4804991Y-3552263D01*
X4809023Y-3542233D01*
X4809023Y-3542233D01*
X4809268Y-3541624D01*
X4811199Y-3528060D01*
X4952704Y-3528060D01*
X4952838Y-3528907D01*
X4954678Y-3540525D01*
X4954678Y-3540525D01*
X4954812Y-3541372D01*
X4957907Y-3547447D01*
X4959872Y-3551303D01*
X4960931Y-3553382D01*
X4970462Y-3562912D01*
X4971226Y-3563302D01*
X4971226Y-3563302D01*
X4973369Y-3564393D01*
X4978132Y-3569157D01*
X4979186Y-3575810D01*
X4976590Y-3581321D01*
X4973222Y-3585135D01*
X4972892Y-3585838D01*
X4972892Y-3585838D01*
X4967459Y-3597409D01*
X4967459Y-3597409D01*
X4967129Y-3598112D01*
X4967009Y-3598880D01*
X4965780Y-3606774D01*
X4964923Y-3612278D01*
X4966782Y-3626494D01*
X4972556Y-3639616D01*
X4973055Y-3640210D01*
X4973056Y-3640211D01*
X4980868Y-3649504D01*
X4981781Y-3650591D01*
X4993715Y-3658535D01*
X4994456Y-3658766D01*
X5006659Y-3662579D01*
X5006659Y-3662579D01*
X5007400Y-3662810D01*
X5015158Y-3662952D01*
X5020958Y-3663059D01*
X5020958Y-3663059D01*
X5021734Y-3663073D01*
X5035566Y-3659302D01*
X5047783Y-3651800D01*
X5049703Y-3649680D01*
X5054346Y-3644549D01*
X5057404Y-3641171D01*
X5063655Y-3628269D01*
X5065362Y-3618122D01*
X5065964Y-3614547D01*
X5065964Y-3614547D01*
X5066034Y-3614131D01*
X5066049Y-3612896D01*
X5064016Y-3598704D01*
X5058082Y-3585653D01*
X5048724Y-3574792D01*
X5040734Y-3569614D01*
X5037345Y-3567417D01*
X5037345Y-3567417D01*
X5036694Y-3566994D01*
X5036290Y-3566874D01*
X5031466Y-3562407D01*
X5030158Y-3555799D01*
X5031269Y-3552141D01*
X5036756Y-3541372D01*
X5036890Y-3540525D01*
X5036890Y-3540525D01*
X5038730Y-3528907D01*
X5038864Y-3528060D01*
X5038106Y-3523273D01*
X5036890Y-3515595D01*
X5036890Y-3515594D01*
X5036756Y-3514747D01*
X5030637Y-3502738D01*
X5021106Y-3493207D01*
X5009097Y-3487088D01*
X5008249Y-3486953D01*
X5008249Y-3486953D01*
X4996631Y-3485113D01*
X4995784Y-3484979D01*
X4994937Y-3485113D01*
X4983319Y-3486953D01*
X4983319Y-3486953D01*
X4982471Y-3487088D01*
X4970462Y-3493207D01*
X4960931Y-3502738D01*
X4954812Y-3514747D01*
X4954678Y-3515594D01*
X4954678Y-3515595D01*
X4953462Y-3523273D01*
X4952704Y-3528060D01*
X4811199Y-3528060D01*
X4811500Y-3525941D01*
X4811515Y-3524560D01*
X4809612Y-3508833D01*
X4807597Y-3503502D01*
X4804244Y-3494630D01*
X4804244Y-3494629D01*
X4804012Y-3494015D01*
X4796860Y-3483609D01*
X4795412Y-3481501D01*
X4795411Y-3481500D01*
X4795039Y-3480959D01*
X4794549Y-3480522D01*
X4794549Y-3480522D01*
X4785709Y-3472646D01*
X4782310Y-3466830D01*
X4782980Y-3460127D01*
X4785881Y-3456220D01*
X4793616Y-3449614D01*
X4793616Y-3449614D01*
X4794115Y-3449187D01*
X4802279Y-3437826D01*
X4802976Y-3436856D01*
X4803360Y-3436322D01*
X4804484Y-3433524D01*
X4809023Y-3422233D01*
X4809023Y-3422233D01*
X4809268Y-3421624D01*
X4811500Y-3405941D01*
X4811515Y-3404560D01*
X4809612Y-3388833D01*
X4809197Y-3387737D01*
X4804244Y-3374630D01*
X4804244Y-3374629D01*
X4804012Y-3374015D01*
X4801925Y-3370978D01*
X5206223Y-3370978D01*
X5208082Y-3385194D01*
X5213856Y-3398316D01*
X5214355Y-3398910D01*
X5214356Y-3398911D01*
X5220561Y-3406293D01*
X5223081Y-3409291D01*
X5235015Y-3417235D01*
X5235756Y-3417466D01*
X5247959Y-3421279D01*
X5247959Y-3421279D01*
X5248700Y-3421510D01*
X5256458Y-3421652D01*
X5262258Y-3421759D01*
X5262258Y-3421759D01*
X5263034Y-3421773D01*
X5276866Y-3418002D01*
X5289083Y-3410500D01*
X5289090Y-3410511D01*
X5294981Y-3408167D01*
X5301509Y-3409831D01*
X5305812Y-3415014D01*
X5306584Y-3419044D01*
X5306584Y-3640558D01*
X5304502Y-3646964D01*
X5301500Y-3649776D01*
X5300869Y-3650174D01*
X5300869Y-3650175D01*
X5300212Y-3650589D01*
X5299698Y-3651171D01*
X5299698Y-3651171D01*
X5298349Y-3652699D01*
X5290722Y-3661335D01*
X5290392Y-3662038D01*
X5290392Y-3662038D01*
X5284959Y-3673609D01*
X5284959Y-3673609D01*
X5284629Y-3674312D01*
X5284509Y-3675080D01*
X5282860Y-3685671D01*
X5282423Y-3688478D01*
X5284282Y-3702694D01*
X5290056Y-3715816D01*
X5290555Y-3716410D01*
X5290556Y-3716411D01*
X5298522Y-3725888D01*
X5299281Y-3726791D01*
X5311215Y-3734735D01*
X5311956Y-3734966D01*
X5324159Y-3738779D01*
X5324159Y-3738779D01*
X5324900Y-3739010D01*
X5332658Y-3739152D01*
X5338458Y-3739259D01*
X5338458Y-3739259D01*
X5339234Y-3739273D01*
X5353066Y-3735502D01*
X5365283Y-3728000D01*
X5366125Y-3727070D01*
X5372732Y-3719771D01*
X5374904Y-3717371D01*
X5381155Y-3704469D01*
X5382955Y-3693769D01*
X5383464Y-3690747D01*
X5383464Y-3690747D01*
X5383534Y-3690331D01*
X5383549Y-3689096D01*
X5382224Y-3679842D01*
X5707619Y-3679842D01*
X5709478Y-3694058D01*
X5715252Y-3707180D01*
X5715751Y-3707774D01*
X5715751Y-3707775D01*
X5723231Y-3716672D01*
X5724477Y-3718155D01*
X5736411Y-3726099D01*
X5737152Y-3726330D01*
X5749355Y-3730143D01*
X5749355Y-3730143D01*
X5750096Y-3730374D01*
X5757853Y-3730516D01*
X5763654Y-3730623D01*
X5763654Y-3730623D01*
X5764430Y-3730637D01*
X5778262Y-3726866D01*
X5790479Y-3719364D01*
X5792283Y-3717371D01*
X5799579Y-3709311D01*
X5800100Y-3708735D01*
X5806351Y-3695833D01*
X5808730Y-3681695D01*
X5808735Y-3681274D01*
X5808772Y-3680855D01*
X5808884Y-3680865D01*
X5810893Y-3674927D01*
X5816391Y-3671034D01*
X5821339Y-3670675D01*
X5833533Y-3672606D01*
X5834380Y-3672740D01*
X5835227Y-3672606D01*
X5846845Y-3670766D01*
X5846845Y-3670766D01*
X5847693Y-3670632D01*
X5858065Y-3665347D01*
X5858938Y-3664902D01*
X5858938Y-3664902D01*
X5859702Y-3664513D01*
X5867031Y-3657184D01*
X5873033Y-3654126D01*
X5879687Y-3655180D01*
X5884450Y-3659943D01*
X5885353Y-3665596D01*
X5885548Y-3665599D01*
X5885539Y-3666375D01*
X5885419Y-3667142D01*
X5887278Y-3681358D01*
X5893052Y-3694480D01*
X5893551Y-3695074D01*
X5893551Y-3695075D01*
X5901449Y-3704469D01*
X5902277Y-3705455D01*
X5914211Y-3713399D01*
X5914952Y-3713630D01*
X5927155Y-3717443D01*
X5927155Y-3717443D01*
X5927896Y-3717674D01*
X5935653Y-3717816D01*
X5941454Y-3717923D01*
X5941454Y-3717923D01*
X5942230Y-3717937D01*
X5956062Y-3714166D01*
X5958652Y-3712575D01*
X6649205Y-3712575D01*
X6649339Y-3713423D01*
X6651179Y-3725040D01*
X6651179Y-3725041D01*
X6651314Y-3725888D01*
X6657433Y-3737897D01*
X6666964Y-3747428D01*
X6678973Y-3753547D01*
X6679820Y-3753682D01*
X6679821Y-3753682D01*
X6691438Y-3755522D01*
X6692286Y-3755656D01*
X6693133Y-3755522D01*
X6704751Y-3753682D01*
X6704751Y-3753682D01*
X6705598Y-3753547D01*
X6717608Y-3747428D01*
X6727138Y-3737897D01*
X6733257Y-3725888D01*
X6733392Y-3725041D01*
X6733392Y-3725040D01*
X6735232Y-3713423D01*
X6735366Y-3712575D01*
X6734399Y-3706469D01*
X6733392Y-3700110D01*
X6733392Y-3700110D01*
X6733257Y-3699263D01*
X6727648Y-3688254D01*
X6727528Y-3688017D01*
X6727528Y-3688017D01*
X6727138Y-3687253D01*
X6717608Y-3677723D01*
X6716766Y-3677294D01*
X6714246Y-3676010D01*
X6705598Y-3671604D01*
X6704751Y-3671469D01*
X6704751Y-3671469D01*
X6693133Y-3669629D01*
X6692286Y-3669495D01*
X6691438Y-3669629D01*
X6679821Y-3671469D01*
X6679820Y-3671469D01*
X6678973Y-3671604D01*
X6670325Y-3676010D01*
X6667805Y-3677294D01*
X6666964Y-3677723D01*
X6657433Y-3687253D01*
X6657044Y-3688017D01*
X6657043Y-3688017D01*
X6656923Y-3688254D01*
X6651314Y-3699263D01*
X6651179Y-3700110D01*
X6651179Y-3700110D01*
X6650172Y-3706469D01*
X6649205Y-3712575D01*
X5958652Y-3712575D01*
X5968279Y-3706664D01*
X5977900Y-3696035D01*
X5984151Y-3683133D01*
X5985922Y-3672606D01*
X5986460Y-3669411D01*
X5986460Y-3669411D01*
X5986530Y-3668995D01*
X5986545Y-3667760D01*
X5984512Y-3653568D01*
X5978578Y-3640517D01*
X5969220Y-3629656D01*
X5957189Y-3621858D01*
X5955616Y-3621388D01*
X5944198Y-3617973D01*
X5944198Y-3617973D01*
X5943454Y-3617751D01*
X5936286Y-3617707D01*
X5929894Y-3617668D01*
X5929894Y-3617668D01*
X5929118Y-3617663D01*
X5928371Y-3617876D01*
X5928371Y-3617876D01*
X5916079Y-3621389D01*
X5916079Y-3621389D01*
X5915333Y-3621603D01*
X5914676Y-3622017D01*
X5903902Y-3628815D01*
X5903208Y-3629253D01*
X5896396Y-3636966D01*
X5890595Y-3640390D01*
X5883889Y-3639750D01*
X5878839Y-3635291D01*
X5877402Y-3630028D01*
X5877460Y-3629660D01*
X5877126Y-3627551D01*
X5875486Y-3617195D01*
X5875486Y-3617195D01*
X5875449Y-3616960D01*
X6803500Y-3616960D01*
X6803634Y-3617807D01*
X6805474Y-3629425D01*
X6805474Y-3629425D01*
X6805608Y-3630273D01*
X6809736Y-3638374D01*
X6810805Y-3640472D01*
X6811727Y-3642282D01*
X6821258Y-3651813D01*
X6822022Y-3652202D01*
X6822022Y-3652202D01*
X6823315Y-3652861D01*
X6833267Y-3657932D01*
X6834115Y-3658066D01*
X6834115Y-3658066D01*
X6845733Y-3659906D01*
X6846580Y-3660040D01*
X6847427Y-3659906D01*
X6859045Y-3658066D01*
X6859045Y-3658066D01*
X6859893Y-3657932D01*
X6869845Y-3652861D01*
X6871138Y-3652202D01*
X6871138Y-3652202D01*
X6871902Y-3651813D01*
X6881433Y-3642282D01*
X6882355Y-3640472D01*
X6885498Y-3634303D01*
X6886718Y-3631909D01*
X6891481Y-3627146D01*
X6898135Y-3626092D01*
X6904137Y-3629150D01*
X6906142Y-3631909D01*
X6907362Y-3634303D01*
X6910505Y-3640472D01*
X6911427Y-3642282D01*
X6920958Y-3651813D01*
X6921722Y-3652202D01*
X6921722Y-3652202D01*
X6923015Y-3652861D01*
X6932967Y-3657932D01*
X6933815Y-3658066D01*
X6933815Y-3658066D01*
X6945433Y-3659906D01*
X6946280Y-3660040D01*
X6947127Y-3659906D01*
X6958745Y-3658066D01*
X6958745Y-3658066D01*
X6959593Y-3657932D01*
X6969545Y-3652861D01*
X6970838Y-3652202D01*
X6970838Y-3652202D01*
X6971602Y-3651813D01*
X6981133Y-3642282D01*
X6982055Y-3640472D01*
X6983124Y-3638374D01*
X6987252Y-3630273D01*
X6987386Y-3629425D01*
X6987386Y-3629425D01*
X6989226Y-3617807D01*
X6989360Y-3616960D01*
X6989142Y-3615583D01*
X6987386Y-3604495D01*
X6987386Y-3604495D01*
X6987252Y-3603647D01*
X6981133Y-3591638D01*
X6971602Y-3582107D01*
X6959593Y-3575988D01*
X6958745Y-3575854D01*
X6958745Y-3575854D01*
X6947127Y-3574014D01*
X6946280Y-3573880D01*
X6945433Y-3574014D01*
X6933815Y-3575854D01*
X6933815Y-3575854D01*
X6932967Y-3575988D01*
X6920958Y-3582107D01*
X6911427Y-3591638D01*
X6906335Y-3601632D01*
X6906142Y-3602011D01*
X6901378Y-3606774D01*
X6894725Y-3607828D01*
X6888722Y-3604770D01*
X6886718Y-3602011D01*
X6886525Y-3601632D01*
X6881433Y-3591638D01*
X6871902Y-3582107D01*
X6859893Y-3575988D01*
X6859045Y-3575854D01*
X6859045Y-3575854D01*
X6847427Y-3574014D01*
X6846580Y-3573880D01*
X6845733Y-3574014D01*
X6834115Y-3575854D01*
X6834115Y-3575854D01*
X6833267Y-3575988D01*
X6821258Y-3582107D01*
X6811727Y-3591638D01*
X6805608Y-3603647D01*
X6805474Y-3604495D01*
X6805474Y-3604495D01*
X6803718Y-3615583D01*
X6803500Y-3616960D01*
X5875449Y-3616960D01*
X5875352Y-3616347D01*
X5870586Y-3606994D01*
X5869622Y-3605102D01*
X5869622Y-3605102D01*
X5869233Y-3604338D01*
X5859702Y-3594807D01*
X5847693Y-3588688D01*
X5846845Y-3588554D01*
X5846845Y-3588554D01*
X5835227Y-3586714D01*
X5834380Y-3586580D01*
X5833533Y-3586714D01*
X5821915Y-3588554D01*
X5821915Y-3588554D01*
X5821067Y-3588688D01*
X5809058Y-3594807D01*
X5799527Y-3604338D01*
X5799138Y-3605102D01*
X5799138Y-3605102D01*
X5798174Y-3606994D01*
X5793408Y-3616347D01*
X5793274Y-3617195D01*
X5793274Y-3617195D01*
X5791970Y-3625429D01*
X5788911Y-3631432D01*
X5782909Y-3634490D01*
X5778081Y-3634167D01*
X5766398Y-3630673D01*
X5766398Y-3630673D01*
X5765654Y-3630451D01*
X5758486Y-3630407D01*
X5752094Y-3630368D01*
X5752094Y-3630368D01*
X5751318Y-3630363D01*
X5750571Y-3630576D01*
X5750571Y-3630576D01*
X5738279Y-3634089D01*
X5738279Y-3634089D01*
X5737533Y-3634303D01*
X5736876Y-3634717D01*
X5726563Y-3641224D01*
X5725408Y-3641953D01*
X5715918Y-3652699D01*
X5715588Y-3653402D01*
X5715588Y-3653402D01*
X5710155Y-3664973D01*
X5710155Y-3664973D01*
X5709825Y-3665676D01*
X5709705Y-3666444D01*
X5707739Y-3679069D01*
X5707619Y-3679842D01*
X5382224Y-3679842D01*
X5381516Y-3674904D01*
X5375582Y-3661853D01*
X5366224Y-3650992D01*
X5365573Y-3650570D01*
X5365572Y-3650570D01*
X5364355Y-3649781D01*
X5360111Y-3644549D01*
X5359384Y-3640634D01*
X5359384Y-3601432D01*
X5474758Y-3601432D01*
X5476616Y-3615648D01*
X5482390Y-3628770D01*
X5482890Y-3629364D01*
X5482890Y-3629364D01*
X5490989Y-3638999D01*
X5491615Y-3639745D01*
X5503550Y-3647689D01*
X5504291Y-3647920D01*
X5516493Y-3651732D01*
X5516493Y-3651732D01*
X5517234Y-3651964D01*
X5524992Y-3652106D01*
X5530792Y-3652213D01*
X5530793Y-3652213D01*
X5531568Y-3652227D01*
X5545400Y-3648456D01*
X5557618Y-3640954D01*
X5567238Y-3630325D01*
X5573489Y-3617423D01*
X5575281Y-3606774D01*
X5575798Y-3603701D01*
X5575798Y-3603700D01*
X5575868Y-3603285D01*
X5575883Y-3602050D01*
X5573851Y-3587858D01*
X5567917Y-3574807D01*
X5558558Y-3563946D01*
X5546528Y-3556148D01*
X5540989Y-3554492D01*
X5533536Y-3552263D01*
X5533536Y-3552263D01*
X5532792Y-3552040D01*
X5525624Y-3551997D01*
X5519233Y-3551958D01*
X5519232Y-3551958D01*
X5518456Y-3551953D01*
X5517709Y-3552166D01*
X5517709Y-3552166D01*
X5505418Y-3555679D01*
X5505418Y-3555679D01*
X5504671Y-3555893D01*
X5504015Y-3556307D01*
X5493433Y-3562983D01*
X5492546Y-3563543D01*
X5483056Y-3574289D01*
X5482726Y-3574991D01*
X5482726Y-3574992D01*
X5477293Y-3586563D01*
X5477293Y-3586563D01*
X5476963Y-3587266D01*
X5476844Y-3588034D01*
X5476315Y-3591428D01*
X5474758Y-3601432D01*
X5359384Y-3601432D01*
X5359384Y-3485278D01*
X5422123Y-3485278D01*
X5423982Y-3499494D01*
X5429756Y-3512616D01*
X5430255Y-3513210D01*
X5430256Y-3513211D01*
X5438068Y-3522504D01*
X5438981Y-3523591D01*
X5450915Y-3531535D01*
X5451656Y-3531766D01*
X5463859Y-3535579D01*
X5463859Y-3535579D01*
X5464600Y-3535810D01*
X5472358Y-3535952D01*
X5478158Y-3536059D01*
X5478158Y-3536059D01*
X5478934Y-3536073D01*
X5492766Y-3532302D01*
X5499675Y-3528060D01*
X6134200Y-3528060D01*
X6134334Y-3528907D01*
X6136174Y-3540525D01*
X6136174Y-3540525D01*
X6136308Y-3541373D01*
X6139403Y-3547447D01*
X6141368Y-3551303D01*
X6142427Y-3553382D01*
X6151958Y-3562913D01*
X6152722Y-3563302D01*
X6152722Y-3563302D01*
X6154336Y-3564125D01*
X6163967Y-3569032D01*
X6164815Y-3569166D01*
X6164815Y-3569166D01*
X6176433Y-3571006D01*
X6177280Y-3571140D01*
X6178127Y-3571006D01*
X6189745Y-3569166D01*
X6189745Y-3569166D01*
X6190593Y-3569032D01*
X6200223Y-3564125D01*
X6201838Y-3563302D01*
X6201838Y-3563302D01*
X6202602Y-3562913D01*
X6212133Y-3553382D01*
X6213192Y-3551303D01*
X6215157Y-3547447D01*
X6218252Y-3541373D01*
X6218386Y-3540525D01*
X6218386Y-3540525D01*
X6218858Y-3537546D01*
X6620830Y-3537546D01*
X6623793Y-3554794D01*
X6624041Y-3555377D01*
X6627340Y-3563128D01*
X6630645Y-3570897D01*
X6641018Y-3584992D01*
X6654355Y-3596323D01*
X6654919Y-3596611D01*
X6654920Y-3596611D01*
X6669378Y-3603994D01*
X6669378Y-3603994D01*
X6669942Y-3604282D01*
X6670556Y-3604432D01*
X6670556Y-3604432D01*
X6686469Y-3608326D01*
X6686469Y-3608326D01*
X6686941Y-3608441D01*
X6687425Y-3608471D01*
X6687425Y-3608472D01*
X6687724Y-3608490D01*
X6688045Y-3608510D01*
X6700662Y-3608510D01*
X6710262Y-3607391D01*
X6713034Y-3607068D01*
X6713034Y-3607068D01*
X6713663Y-3606994D01*
X6714257Y-3606778D01*
X6714258Y-3606778D01*
X6729518Y-3601239D01*
X6729518Y-3601239D01*
X6730113Y-3601023D01*
X6742890Y-3592646D01*
X6744219Y-3591775D01*
X6744219Y-3591775D01*
X6744748Y-3591428D01*
X6756784Y-3578723D01*
X6765574Y-3563590D01*
X6765758Y-3562983D01*
X6770463Y-3547447D01*
X6770463Y-3547447D01*
X6770647Y-3546841D01*
X6770986Y-3541372D01*
X6771691Y-3530006D01*
X6771691Y-3530006D01*
X6771730Y-3529374D01*
X6768767Y-3512126D01*
X6764444Y-3501968D01*
X6762163Y-3496605D01*
X6762162Y-3496605D01*
X6761915Y-3496023D01*
X6751542Y-3481928D01*
X6738204Y-3470597D01*
X6737640Y-3470309D01*
X6737640Y-3470309D01*
X6723182Y-3462926D01*
X6723182Y-3462926D01*
X6722618Y-3462638D01*
X6722004Y-3462488D01*
X6722003Y-3462488D01*
X6706091Y-3458594D01*
X6706091Y-3458594D01*
X6705619Y-3458478D01*
X6705135Y-3458448D01*
X6705135Y-3458448D01*
X6704836Y-3458430D01*
X6704515Y-3458410D01*
X6691898Y-3458410D01*
X6682762Y-3459475D01*
X6679526Y-3459852D01*
X6679526Y-3459852D01*
X6678897Y-3459926D01*
X6678303Y-3460141D01*
X6678302Y-3460142D01*
X6667246Y-3464155D01*
X6662447Y-3465897D01*
X6647811Y-3475492D01*
X6635776Y-3488197D01*
X6626986Y-3503330D01*
X6626802Y-3503937D01*
X6626802Y-3503937D01*
X6623271Y-3515595D01*
X6621913Y-3520079D01*
X6621807Y-3521797D01*
X6620921Y-3536078D01*
X6620830Y-3537546D01*
X6218858Y-3537546D01*
X6220226Y-3528907D01*
X6220360Y-3528060D01*
X6219908Y-3525207D01*
X6218386Y-3515595D01*
X6218386Y-3515595D01*
X6218252Y-3514747D01*
X6212133Y-3502738D01*
X6202602Y-3493207D01*
X6190593Y-3487088D01*
X6189745Y-3486954D01*
X6189745Y-3486954D01*
X6178127Y-3485114D01*
X6177280Y-3484980D01*
X6176433Y-3485114D01*
X6164815Y-3486954D01*
X6164815Y-3486954D01*
X6163967Y-3487088D01*
X6151958Y-3493207D01*
X6142427Y-3502738D01*
X6136308Y-3514747D01*
X6136174Y-3515595D01*
X6136174Y-3515595D01*
X6134651Y-3525207D01*
X6134200Y-3528060D01*
X5499675Y-3528060D01*
X5504983Y-3524800D01*
X5514604Y-3514171D01*
X5520855Y-3501269D01*
X5522617Y-3490794D01*
X5523164Y-3487547D01*
X5523164Y-3487547D01*
X5523234Y-3487131D01*
X5523249Y-3485896D01*
X5521216Y-3471704D01*
X5515282Y-3458653D01*
X5505924Y-3447792D01*
X5493894Y-3439994D01*
X5488801Y-3438471D01*
X5480902Y-3436109D01*
X5480902Y-3436109D01*
X5480158Y-3435887D01*
X5472990Y-3435843D01*
X5466598Y-3435804D01*
X5466598Y-3435804D01*
X5465822Y-3435799D01*
X5465075Y-3436012D01*
X5465075Y-3436012D01*
X5452783Y-3439525D01*
X5452783Y-3439525D01*
X5452037Y-3439739D01*
X5451380Y-3440153D01*
X5442189Y-3445953D01*
X5439912Y-3447389D01*
X5430422Y-3458135D01*
X5430092Y-3458838D01*
X5430092Y-3458838D01*
X5424659Y-3470409D01*
X5424659Y-3470409D01*
X5424329Y-3471112D01*
X5424209Y-3471880D01*
X5422435Y-3483275D01*
X5422123Y-3485278D01*
X5359384Y-3485278D01*
X5359384Y-3425842D01*
X6456919Y-3425842D01*
X6458778Y-3440058D01*
X6464552Y-3453180D01*
X6465051Y-3453774D01*
X6465051Y-3453775D01*
X6472502Y-3462638D01*
X6473777Y-3464155D01*
X6485711Y-3472099D01*
X6486452Y-3472330D01*
X6498655Y-3476143D01*
X6498655Y-3476143D01*
X6499396Y-3476374D01*
X6507153Y-3476516D01*
X6512954Y-3476623D01*
X6512954Y-3476623D01*
X6513730Y-3476637D01*
X6527562Y-3472866D01*
X6539779Y-3465364D01*
X6549400Y-3454735D01*
X6555651Y-3441833D01*
X6558030Y-3427695D01*
X6558045Y-3426460D01*
X6556012Y-3412268D01*
X6550078Y-3399217D01*
X6540720Y-3388356D01*
X6528689Y-3380558D01*
X6527116Y-3380088D01*
X6515698Y-3376673D01*
X6515698Y-3376673D01*
X6514954Y-3376451D01*
X6507786Y-3376407D01*
X6501394Y-3376368D01*
X6501394Y-3376368D01*
X6500618Y-3376363D01*
X6499871Y-3376576D01*
X6499871Y-3376576D01*
X6487579Y-3380089D01*
X6487579Y-3380089D01*
X6486833Y-3380303D01*
X6486176Y-3380717D01*
X6475444Y-3387488D01*
X6474708Y-3387953D01*
X6465218Y-3398699D01*
X6464888Y-3399402D01*
X6464888Y-3399402D01*
X6459455Y-3410973D01*
X6459455Y-3410973D01*
X6459125Y-3411676D01*
X6459005Y-3412444D01*
X6457576Y-3421624D01*
X6456919Y-3425842D01*
X5359384Y-3425842D01*
X5359384Y-3336942D01*
X6063219Y-3336942D01*
X6065078Y-3351158D01*
X6070852Y-3364280D01*
X6071351Y-3364874D01*
X6071351Y-3364875D01*
X6079577Y-3374661D01*
X6080077Y-3375255D01*
X6092011Y-3383199D01*
X6092752Y-3383430D01*
X6104955Y-3387243D01*
X6104955Y-3387243D01*
X6105696Y-3387474D01*
X6113453Y-3387616D01*
X6119254Y-3387723D01*
X6119254Y-3387723D01*
X6120030Y-3387737D01*
X6133862Y-3383966D01*
X6146079Y-3376464D01*
X6148787Y-3373473D01*
X6152925Y-3368901D01*
X6155700Y-3365835D01*
X6161951Y-3352933D01*
X6164147Y-3339881D01*
X6164260Y-3339211D01*
X6164260Y-3339211D01*
X6164330Y-3338795D01*
X6164345Y-3337560D01*
X6162312Y-3323368D01*
X6157216Y-3312160D01*
X6341601Y-3312160D01*
X6341735Y-3313007D01*
X6343575Y-3324625D01*
X6343575Y-3324625D01*
X6343709Y-3325473D01*
X6348013Y-3333920D01*
X6349005Y-3335867D01*
X6349828Y-3337482D01*
X6359359Y-3347013D01*
X6371368Y-3353132D01*
X6372216Y-3353266D01*
X6372216Y-3353266D01*
X6383834Y-3355106D01*
X6384681Y-3355240D01*
X6385528Y-3355106D01*
X6397146Y-3353266D01*
X6397146Y-3353266D01*
X6397994Y-3353132D01*
X6410003Y-3347013D01*
X6419534Y-3337482D01*
X6420357Y-3335867D01*
X6421348Y-3333920D01*
X6425653Y-3325473D01*
X6425787Y-3324625D01*
X6425787Y-3324625D01*
X6427627Y-3313007D01*
X6427761Y-3312160D01*
X6427331Y-3309441D01*
X6426728Y-3305635D01*
X6648725Y-3305635D01*
X6648860Y-3306482D01*
X6650700Y-3318100D01*
X6650700Y-3318100D01*
X6650834Y-3318947D01*
X6654985Y-3327095D01*
X6655482Y-3328070D01*
X6656953Y-3330957D01*
X6666484Y-3340488D01*
X6678493Y-3346607D01*
X6679341Y-3346741D01*
X6679341Y-3346741D01*
X6690959Y-3348581D01*
X6691806Y-3348715D01*
X6692653Y-3348581D01*
X6704271Y-3346741D01*
X6704271Y-3346741D01*
X6705118Y-3346607D01*
X6717128Y-3340488D01*
X6726659Y-3330957D01*
X6728130Y-3328070D01*
X6728626Y-3327095D01*
X6732778Y-3318947D01*
X6732912Y-3318100D01*
X6732912Y-3318100D01*
X6734752Y-3306482D01*
X6734886Y-3305635D01*
X6733907Y-3299453D01*
X6732912Y-3293170D01*
X6732912Y-3293170D01*
X6732778Y-3292322D01*
X6726659Y-3280313D01*
X6717128Y-3270782D01*
X6715063Y-3269730D01*
X6712478Y-3268413D01*
X6705118Y-3264663D01*
X6704271Y-3264529D01*
X6704271Y-3264529D01*
X6692653Y-3262689D01*
X6691806Y-3262554D01*
X6690959Y-3262689D01*
X6679341Y-3264529D01*
X6679341Y-3264529D01*
X6678493Y-3264663D01*
X6671134Y-3268413D01*
X6668549Y-3269730D01*
X6666484Y-3270782D01*
X6656953Y-3280313D01*
X6650834Y-3292322D01*
X6650700Y-3293170D01*
X6650700Y-3293170D01*
X6649705Y-3299453D01*
X6648725Y-3305635D01*
X6426728Y-3305635D01*
X6425787Y-3299695D01*
X6425787Y-3299695D01*
X6425653Y-3298847D01*
X6420010Y-3287773D01*
X6419923Y-3287602D01*
X6419923Y-3287602D01*
X6419534Y-3286838D01*
X6410003Y-3277307D01*
X6408694Y-3276640D01*
X6405284Y-3274903D01*
X6397994Y-3271188D01*
X6397146Y-3271054D01*
X6397146Y-3271054D01*
X6385528Y-3269214D01*
X6384681Y-3269080D01*
X6383834Y-3269214D01*
X6372216Y-3271054D01*
X6372216Y-3271054D01*
X6371368Y-3271188D01*
X6364078Y-3274903D01*
X6360668Y-3276640D01*
X6359359Y-3277307D01*
X6349828Y-3286838D01*
X6349439Y-3287602D01*
X6349439Y-3287602D01*
X6349352Y-3287773D01*
X6343709Y-3298847D01*
X6343575Y-3299695D01*
X6343575Y-3299695D01*
X6342031Y-3309441D01*
X6341601Y-3312160D01*
X6157216Y-3312160D01*
X6156378Y-3310317D01*
X6147020Y-3299456D01*
X6134989Y-3291658D01*
X6133416Y-3291188D01*
X6121998Y-3287773D01*
X6121998Y-3287773D01*
X6121254Y-3287551D01*
X6114086Y-3287507D01*
X6107694Y-3287468D01*
X6107694Y-3287468D01*
X6106918Y-3287463D01*
X6106171Y-3287676D01*
X6106171Y-3287676D01*
X6093879Y-3291189D01*
X6093879Y-3291189D01*
X6093133Y-3291403D01*
X6092476Y-3291817D01*
X6090933Y-3292791D01*
X6081008Y-3299053D01*
X6071518Y-3309799D01*
X6071188Y-3310502D01*
X6071188Y-3310502D01*
X6065755Y-3322073D01*
X6065755Y-3322073D01*
X6065425Y-3322776D01*
X6065305Y-3323544D01*
X6063756Y-3333492D01*
X6063219Y-3336942D01*
X5359384Y-3336942D01*
X5359384Y-3331321D01*
X5361466Y-3324914D01*
X5364045Y-3322528D01*
X5364024Y-3322503D01*
X5364489Y-3322117D01*
X5364581Y-3322032D01*
X5364622Y-3322007D01*
X5364622Y-3322007D01*
X5365283Y-3321600D01*
X5365804Y-3321025D01*
X5365804Y-3321025D01*
X5374383Y-3311547D01*
X5374904Y-3310971D01*
X5381155Y-3298069D01*
X5382814Y-3288208D01*
X5383464Y-3284347D01*
X5383464Y-3284347D01*
X5383534Y-3283931D01*
X5383549Y-3282696D01*
X5381516Y-3268504D01*
X5375582Y-3255453D01*
X5366224Y-3244592D01*
X5354194Y-3236794D01*
X5350617Y-3235725D01*
X5341202Y-3232909D01*
X5341202Y-3232909D01*
X5340458Y-3232687D01*
X5333290Y-3232643D01*
X5326898Y-3232604D01*
X5326898Y-3232604D01*
X5326122Y-3232599D01*
X5325375Y-3232812D01*
X5325375Y-3232812D01*
X5313083Y-3236325D01*
X5313083Y-3236325D01*
X5312337Y-3236539D01*
X5311680Y-3236953D01*
X5301102Y-3243628D01*
X5300212Y-3244189D01*
X5290722Y-3254935D01*
X5290392Y-3255638D01*
X5290392Y-3255638D01*
X5284959Y-3267209D01*
X5284959Y-3267209D01*
X5284629Y-3267912D01*
X5284509Y-3268680D01*
X5283227Y-3276918D01*
X5282423Y-3282078D01*
X5284282Y-3296294D01*
X5290056Y-3309416D01*
X5290253Y-3309651D01*
X5291819Y-3315980D01*
X5289285Y-3322222D01*
X5283565Y-3325782D01*
X5277824Y-3325644D01*
X5265002Y-3321809D01*
X5265002Y-3321809D01*
X5264258Y-3321587D01*
X5257090Y-3321543D01*
X5250698Y-3321504D01*
X5250698Y-3321504D01*
X5249922Y-3321499D01*
X5249175Y-3321712D01*
X5249175Y-3321712D01*
X5236883Y-3325225D01*
X5236883Y-3325225D01*
X5236137Y-3325439D01*
X5229520Y-3329614D01*
X5224968Y-3332486D01*
X5223919Y-3332752D01*
X5222980Y-3334257D01*
X5214522Y-3343835D01*
X5214192Y-3344538D01*
X5214192Y-3344538D01*
X5208759Y-3356109D01*
X5208759Y-3356109D01*
X5208429Y-3356812D01*
X5208309Y-3357580D01*
X5207266Y-3364280D01*
X5206223Y-3370978D01*
X4801925Y-3370978D01*
X4797730Y-3364875D01*
X4795412Y-3361501D01*
X4795411Y-3361500D01*
X4795039Y-3360959D01*
X4794549Y-3360522D01*
X4794549Y-3360522D01*
X4785709Y-3352646D01*
X4782310Y-3346830D01*
X4782980Y-3340127D01*
X4785881Y-3336220D01*
X4793616Y-3329614D01*
X4793616Y-3329614D01*
X4794115Y-3329187D01*
X4801473Y-3318947D01*
X4802976Y-3316856D01*
X4803360Y-3316322D01*
X4805511Y-3310971D01*
X4809023Y-3302233D01*
X4809023Y-3302233D01*
X4809268Y-3301624D01*
X4811500Y-3285941D01*
X4811515Y-3284560D01*
X4810693Y-3277770D01*
X5126998Y-3277770D01*
X5128857Y-3291985D01*
X5134631Y-3305108D01*
X5135130Y-3305702D01*
X5135131Y-3305702D01*
X5143357Y-3315488D01*
X5143856Y-3316082D01*
X5155790Y-3324026D01*
X5156531Y-3324258D01*
X5168734Y-3328070D01*
X5168734Y-3328070D01*
X5169475Y-3328302D01*
X5177233Y-3328444D01*
X5183033Y-3328550D01*
X5183033Y-3328550D01*
X5183809Y-3328564D01*
X5197641Y-3324793D01*
X5198302Y-3324387D01*
X5209107Y-3317753D01*
X5210096Y-3317515D01*
X5211070Y-3315953D01*
X5218958Y-3307239D01*
X5219479Y-3306663D01*
X5225730Y-3293761D01*
X5227696Y-3282078D01*
X5228039Y-3280038D01*
X5228039Y-3280038D01*
X5228109Y-3279623D01*
X5228124Y-3278387D01*
X5226091Y-3264196D01*
X5220157Y-3251145D01*
X5210799Y-3240284D01*
X5198769Y-3232486D01*
X5197195Y-3232015D01*
X5185777Y-3228601D01*
X5185777Y-3228601D01*
X5185033Y-3228378D01*
X5177865Y-3228334D01*
X5171473Y-3228295D01*
X5171473Y-3228295D01*
X5170697Y-3228291D01*
X5169950Y-3228504D01*
X5169950Y-3228504D01*
X5157658Y-3232017D01*
X5157658Y-3232017D01*
X5156912Y-3232230D01*
X5156255Y-3232645D01*
X5145656Y-3239332D01*
X5144787Y-3239880D01*
X5135297Y-3250626D01*
X5134967Y-3251329D01*
X5134967Y-3251329D01*
X5129534Y-3262901D01*
X5129534Y-3262901D01*
X5129204Y-3263604D01*
X5129084Y-3264371D01*
X5127174Y-3276640D01*
X5126998Y-3277770D01*
X4810693Y-3277770D01*
X4809612Y-3268833D01*
X4809220Y-3267797D01*
X4804244Y-3254630D01*
X4804244Y-3254629D01*
X4804012Y-3254015D01*
X4797145Y-3244023D01*
X4795412Y-3241501D01*
X4795411Y-3241500D01*
X4795039Y-3240959D01*
X4783212Y-3230421D01*
X4769211Y-3223008D01*
X4761472Y-3221064D01*
X4754484Y-3219309D01*
X4754484Y-3219309D01*
X4753847Y-3219149D01*
X4745880Y-3219107D01*
X4738663Y-3219070D01*
X4738662Y-3219070D01*
X4738006Y-3219066D01*
X4722602Y-3222764D01*
X4722018Y-3223066D01*
X4722018Y-3223066D01*
X4715100Y-3226636D01*
X4708525Y-3230030D01*
X4705654Y-3232535D01*
X4699541Y-3237867D01*
X4696588Y-3240444D01*
X4696210Y-3240981D01*
X4696210Y-3240982D01*
X4694532Y-3243369D01*
X4689145Y-3247414D01*
X4682409Y-3247520D01*
X4676631Y-3243275D01*
X4675412Y-3241501D01*
X4675411Y-3241500D01*
X4675039Y-3240959D01*
X4663212Y-3230421D01*
X4649211Y-3223008D01*
X4641472Y-3221064D01*
X4634484Y-3219309D01*
X4634484Y-3219309D01*
X4633847Y-3219149D01*
X4625880Y-3219107D01*
X4618663Y-3219070D01*
X4618662Y-3219070D01*
X4618006Y-3219066D01*
X4602602Y-3222764D01*
X4602018Y-3223066D01*
X4602018Y-3223066D01*
X4595100Y-3226636D01*
X4588525Y-3230030D01*
X4585654Y-3232535D01*
X4579541Y-3237867D01*
X4576588Y-3240444D01*
X4576210Y-3240981D01*
X4576210Y-3240982D01*
X4574532Y-3243369D01*
X4569145Y-3247414D01*
X4562409Y-3247520D01*
X4556631Y-3243275D01*
X4555412Y-3241501D01*
X4555411Y-3241500D01*
X4555039Y-3240959D01*
X4543212Y-3230421D01*
X4529211Y-3223008D01*
X4521472Y-3221064D01*
X4514484Y-3219309D01*
X4514484Y-3219309D01*
X4513847Y-3219149D01*
X4505880Y-3219107D01*
X4498663Y-3219070D01*
X4498662Y-3219070D01*
X4498006Y-3219066D01*
X4482602Y-3222764D01*
X4482018Y-3223066D01*
X4482018Y-3223066D01*
X4475100Y-3226636D01*
X4468525Y-3230030D01*
X4465654Y-3232535D01*
X4459541Y-3237867D01*
X4456588Y-3240444D01*
X4456210Y-3240981D01*
X4456210Y-3240982D01*
X4454532Y-3243369D01*
X4449145Y-3247414D01*
X4442409Y-3247520D01*
X4436631Y-3243275D01*
X4435412Y-3241501D01*
X4435411Y-3241500D01*
X4435039Y-3240959D01*
X4423212Y-3230421D01*
X4409211Y-3223008D01*
X4401472Y-3221064D01*
X4394484Y-3219309D01*
X4394484Y-3219309D01*
X4393847Y-3219149D01*
X4385880Y-3219107D01*
X4378663Y-3219070D01*
X4378662Y-3219070D01*
X4378006Y-3219066D01*
X4362602Y-3222764D01*
X4362018Y-3223066D01*
X4362018Y-3223066D01*
X4355100Y-3226636D01*
X4348525Y-3230030D01*
X4345654Y-3232535D01*
X4339541Y-3237867D01*
X4336588Y-3240444D01*
X4331689Y-3247414D01*
X4328388Y-3252111D01*
X4327479Y-3253404D01*
X4321725Y-3268164D01*
X4321639Y-3268815D01*
X4320025Y-3281077D01*
X4319657Y-3283870D01*
X4321395Y-3299615D01*
X4326839Y-3314492D01*
X4335675Y-3327640D01*
X4336835Y-3328696D01*
X4345478Y-3336561D01*
X4348816Y-3342413D01*
X4348077Y-3349108D01*
X4345308Y-3352837D01*
X4342707Y-3355106D01*
X4336588Y-3360444D01*
X4327479Y-3373404D01*
X4321725Y-3388164D01*
X4321639Y-3388815D01*
X4320046Y-3400911D01*
X4319657Y-3403870D01*
X4321395Y-3419615D01*
X4326839Y-3434492D01*
X4335675Y-3447640D01*
X4337374Y-3449187D01*
X4345478Y-3456561D01*
X4348816Y-3462413D01*
X4348077Y-3469108D01*
X4345308Y-3472837D01*
X4336588Y-3480444D01*
X4333028Y-3485508D01*
X4329470Y-3490572D01*
X4327479Y-3493404D01*
X4321725Y-3508164D01*
X4321639Y-3508815D01*
X4319837Y-3522504D01*
X4319657Y-3523870D01*
X4321395Y-3539615D01*
X4326839Y-3554492D01*
X4335675Y-3567640D01*
X4337204Y-3569031D01*
X4345478Y-3576561D01*
X4348816Y-3582413D01*
X4348077Y-3589108D01*
X4345308Y-3592837D01*
X4336588Y-3600444D01*
X4327479Y-3613404D01*
X4321725Y-3628164D01*
X4321639Y-3628815D01*
X4319964Y-3641539D01*
X4319657Y-3643870D01*
X4138341Y-3643870D01*
X4137153Y-3641539D01*
X4135930Y-3639138D01*
X4135930Y-3639138D01*
X4135541Y-3638374D01*
X4126010Y-3628843D01*
X4114001Y-3622724D01*
X4113153Y-3622590D01*
X4113153Y-3622590D01*
X4101535Y-3620750D01*
X4100688Y-3620616D01*
X4099841Y-3620750D01*
X4088223Y-3622590D01*
X4088223Y-3622590D01*
X4087375Y-3622724D01*
X4075366Y-3628843D01*
X4065835Y-3638374D01*
X4065446Y-3639138D01*
X4065446Y-3639138D01*
X4064223Y-3641539D01*
X4059716Y-3650383D01*
X4059582Y-3651231D01*
X4059582Y-3651231D01*
X4058368Y-3658896D01*
X4057608Y-3663696D01*
X3783349Y-3663696D01*
X3781316Y-3649504D01*
X3775382Y-3636453D01*
X3766024Y-3625592D01*
X3753993Y-3617794D01*
X3751203Y-3616960D01*
X3741002Y-3613909D01*
X3741002Y-3613909D01*
X3740258Y-3613687D01*
X3733090Y-3613643D01*
X3726698Y-3613604D01*
X3726698Y-3613604D01*
X3725922Y-3613599D01*
X3725175Y-3613812D01*
X3725175Y-3613812D01*
X3712883Y-3617325D01*
X3712883Y-3617325D01*
X3712137Y-3617539D01*
X3711480Y-3617953D01*
X3703301Y-3623114D01*
X3700012Y-3625189D01*
X3690522Y-3635935D01*
X3690192Y-3636638D01*
X3690192Y-3636638D01*
X3684759Y-3648209D01*
X3684759Y-3648209D01*
X3684429Y-3648912D01*
X3684309Y-3649680D01*
X3682495Y-3661335D01*
X3682223Y-3663078D01*
X2980266Y-3663078D01*
X2979643Y-3659943D01*
X2974169Y-3632424D01*
X2974035Y-3631579D01*
X2973928Y-3630673D01*
X2968477Y-3584614D01*
X2968322Y-3583311D01*
X2968255Y-3582458D01*
X2968126Y-3579182D01*
X2966490Y-3537546D01*
X3020830Y-3537546D01*
X3023793Y-3554794D01*
X3024041Y-3555377D01*
X3027340Y-3563128D01*
X3030645Y-3570897D01*
X3041018Y-3584992D01*
X3054355Y-3596323D01*
X3054919Y-3596611D01*
X3054920Y-3596611D01*
X3069378Y-3603994D01*
X3069378Y-3603994D01*
X3069942Y-3604282D01*
X3070556Y-3604432D01*
X3070556Y-3604432D01*
X3086469Y-3608326D01*
X3086469Y-3608326D01*
X3086941Y-3608441D01*
X3087425Y-3608471D01*
X3087425Y-3608472D01*
X3087724Y-3608490D01*
X3088045Y-3608510D01*
X3100662Y-3608510D01*
X3110262Y-3607391D01*
X3113034Y-3607068D01*
X3113034Y-3607068D01*
X3113663Y-3606994D01*
X3114257Y-3606778D01*
X3114258Y-3606778D01*
X3129518Y-3601239D01*
X3129518Y-3601239D01*
X3130113Y-3601023D01*
X3142890Y-3592646D01*
X3144219Y-3591775D01*
X3144219Y-3591775D01*
X3144748Y-3591428D01*
X3156784Y-3578723D01*
X3165574Y-3563590D01*
X3165758Y-3562983D01*
X3170463Y-3547447D01*
X3170463Y-3547447D01*
X3170647Y-3546841D01*
X3170986Y-3541372D01*
X3171691Y-3530006D01*
X3171691Y-3530006D01*
X3171730Y-3529374D01*
X3168767Y-3512126D01*
X3164444Y-3501968D01*
X3162163Y-3496605D01*
X3162162Y-3496605D01*
X3161915Y-3496023D01*
X3152576Y-3483333D01*
X3588121Y-3483333D01*
X3589980Y-3497548D01*
X3595754Y-3510671D01*
X3596253Y-3511265D01*
X3596253Y-3511265D01*
X3599893Y-3515595D01*
X3604979Y-3521645D01*
X3616913Y-3529589D01*
X3617654Y-3529821D01*
X3629856Y-3533633D01*
X3629857Y-3533633D01*
X3630597Y-3533865D01*
X3638355Y-3534007D01*
X3644156Y-3534113D01*
X3644156Y-3534113D01*
X3644932Y-3534127D01*
X3645637Y-3533935D01*
X3652232Y-3535205D01*
X3656835Y-3540124D01*
X3657772Y-3543334D01*
X3658682Y-3550294D01*
X3664456Y-3563416D01*
X3664955Y-3564010D01*
X3664955Y-3564011D01*
X3671173Y-3571407D01*
X3673681Y-3574391D01*
X3685615Y-3582335D01*
X3686356Y-3582566D01*
X3698559Y-3586379D01*
X3698559Y-3586379D01*
X3699300Y-3586610D01*
X3707057Y-3586752D01*
X3712858Y-3586859D01*
X3712858Y-3586859D01*
X3713634Y-3586873D01*
X3727466Y-3583102D01*
X3739683Y-3575600D01*
X3740234Y-3574992D01*
X3748783Y-3565547D01*
X3749304Y-3564971D01*
X3755555Y-3552069D01*
X3757312Y-3541624D01*
X3757864Y-3538347D01*
X3757864Y-3538347D01*
X3757934Y-3537931D01*
X3757949Y-3536696D01*
X3755916Y-3522504D01*
X3749982Y-3509453D01*
X3740624Y-3498592D01*
X3728593Y-3490794D01*
X3726138Y-3490060D01*
X3715602Y-3486909D01*
X3715602Y-3486909D01*
X3714858Y-3486687D01*
X3707515Y-3486642D01*
X3701298Y-3486604D01*
X3701298Y-3486604D01*
X3700522Y-3486599D01*
X3700326Y-3486655D01*
X3693954Y-3485508D01*
X3689291Y-3480646D01*
X3688315Y-3477448D01*
X3688101Y-3475952D01*
X3687214Y-3469759D01*
X3681280Y-3456708D01*
X3671922Y-3445847D01*
X3659891Y-3438049D01*
X3655902Y-3436856D01*
X3646900Y-3434164D01*
X3646900Y-3434164D01*
X3646156Y-3433941D01*
X3638987Y-3433897D01*
X3632596Y-3433858D01*
X3632596Y-3433858D01*
X3631819Y-3433854D01*
X3631073Y-3434067D01*
X3631073Y-3434067D01*
X3618781Y-3437580D01*
X3618781Y-3437580D01*
X3618035Y-3437793D01*
X3617378Y-3438208D01*
X3611632Y-3441833D01*
X3605910Y-3445443D01*
X3596419Y-3456189D01*
X3596089Y-3456892D01*
X3596089Y-3456892D01*
X3590657Y-3468464D01*
X3590656Y-3468464D01*
X3590326Y-3469167D01*
X3590207Y-3469934D01*
X3588404Y-3481517D01*
X3588121Y-3483333D01*
X3152576Y-3483333D01*
X3151542Y-3481928D01*
X3138204Y-3470597D01*
X3137640Y-3470309D01*
X3137640Y-3470309D01*
X3123182Y-3462926D01*
X3123182Y-3462926D01*
X3122618Y-3462638D01*
X3122004Y-3462488D01*
X3122003Y-3462488D01*
X3106091Y-3458594D01*
X3106091Y-3458594D01*
X3105619Y-3458478D01*
X3105135Y-3458448D01*
X3105135Y-3458448D01*
X3104836Y-3458430D01*
X3104515Y-3458410D01*
X3091898Y-3458410D01*
X3082762Y-3459475D01*
X3079526Y-3459852D01*
X3079526Y-3459852D01*
X3078897Y-3459926D01*
X3078303Y-3460141D01*
X3078302Y-3460142D01*
X3067246Y-3464155D01*
X3062447Y-3465897D01*
X3047811Y-3475492D01*
X3035776Y-3488197D01*
X3026986Y-3503330D01*
X3026802Y-3503937D01*
X3026802Y-3503937D01*
X3023271Y-3515595D01*
X3021913Y-3520079D01*
X3021807Y-3521797D01*
X3020921Y-3536078D01*
X3020830Y-3537546D01*
X2966490Y-3537546D01*
X2966347Y-3533888D01*
X2966347Y-3533032D01*
X2966391Y-3531896D01*
X2968255Y-3484462D01*
X2968322Y-3483609D01*
X2970308Y-3466830D01*
X2974035Y-3435340D01*
X2974169Y-3434495D01*
X2974170Y-3434492D01*
X2983230Y-3388944D01*
X2983652Y-3386821D01*
X2983852Y-3385989D01*
X2986785Y-3375589D01*
X4101733Y-3375589D01*
X4101867Y-3376437D01*
X4103707Y-3388054D01*
X4103707Y-3388055D01*
X4103841Y-3388902D01*
X4108248Y-3397550D01*
X4109097Y-3399217D01*
X4109961Y-3400911D01*
X4119491Y-3410442D01*
X4120255Y-3410831D01*
X4120255Y-3410831D01*
X4122853Y-3412155D01*
X4131501Y-3416561D01*
X4132348Y-3416695D01*
X4132348Y-3416696D01*
X4143966Y-3418536D01*
X4144813Y-3418670D01*
X4145661Y-3418536D01*
X4157278Y-3416696D01*
X4157279Y-3416695D01*
X4158126Y-3416561D01*
X4166774Y-3412155D01*
X4169371Y-3410831D01*
X4169371Y-3410831D01*
X4170135Y-3410442D01*
X4179666Y-3400911D01*
X4180529Y-3399217D01*
X4181379Y-3397550D01*
X4185785Y-3388902D01*
X4185919Y-3388055D01*
X4185920Y-3388054D01*
X4187760Y-3376437D01*
X4187894Y-3375589D01*
X4187820Y-3375123D01*
X4189841Y-3368901D01*
X4195291Y-3364942D01*
X4196954Y-3364542D01*
X4199849Y-3364084D01*
X4208197Y-3362762D01*
X4216844Y-3358355D01*
X4219442Y-3357032D01*
X4219442Y-3357032D01*
X4220206Y-3356643D01*
X4229737Y-3347112D01*
X4235856Y-3335102D01*
X4235990Y-3334255D01*
X4235990Y-3334255D01*
X4237830Y-3322637D01*
X4237964Y-3321790D01*
X4236959Y-3315441D01*
X4235990Y-3309325D01*
X4235990Y-3309324D01*
X4235856Y-3308477D01*
X4230834Y-3298621D01*
X4230126Y-3297232D01*
X4230126Y-3297232D01*
X4229737Y-3296468D01*
X4220206Y-3286937D01*
X4220387Y-3286756D01*
X4217165Y-3282320D01*
X4217165Y-3275583D01*
X4221125Y-3270133D01*
X4222583Y-3269240D01*
X4222634Y-3269214D01*
X4222702Y-3269179D01*
X4223442Y-3268802D01*
X4223442Y-3268802D01*
X4224206Y-3268413D01*
X4233737Y-3258882D01*
X4239856Y-3246872D01*
X4239990Y-3246025D01*
X4239990Y-3246025D01*
X4241830Y-3234407D01*
X4241965Y-3233560D01*
X4241537Y-3230858D01*
X4239990Y-3221095D01*
X4239990Y-3221095D01*
X4239856Y-3220247D01*
X4234552Y-3209837D01*
X4234126Y-3209002D01*
X4234126Y-3209002D01*
X4233737Y-3208238D01*
X4226839Y-3201340D01*
X4223781Y-3195338D01*
X4224835Y-3188684D01*
X4229598Y-3183921D01*
X4239546Y-3178852D01*
X4239546Y-3178852D01*
X4240310Y-3178463D01*
X4246200Y-3172573D01*
X5492587Y-3172573D01*
X5492721Y-3173420D01*
X5494561Y-3185038D01*
X5494561Y-3185038D01*
X5494695Y-3185885D01*
X5498658Y-3193663D01*
X5500218Y-3196724D01*
X5500814Y-3197895D01*
X5510345Y-3207426D01*
X5511109Y-3207815D01*
X5511109Y-3207815D01*
X5518800Y-3211734D01*
X5523563Y-3216497D01*
X5524365Y-3221555D01*
X5524734Y-3221555D01*
X5524734Y-3222413D01*
X5524600Y-3223260D01*
X5524734Y-3224107D01*
X5526574Y-3235725D01*
X5526574Y-3235725D01*
X5526708Y-3236573D01*
X5530810Y-3244624D01*
X5532394Y-3247732D01*
X5532827Y-3248582D01*
X5542358Y-3258113D01*
X5554367Y-3264232D01*
X5555215Y-3264366D01*
X5555215Y-3264366D01*
X5566833Y-3266206D01*
X5567680Y-3266340D01*
X5568527Y-3266206D01*
X5580145Y-3264366D01*
X5580145Y-3264366D01*
X5580993Y-3264232D01*
X5593002Y-3258113D01*
X5602533Y-3248582D01*
X5602966Y-3247732D01*
X5604550Y-3244624D01*
X5608652Y-3236573D01*
X5608786Y-3235725D01*
X5608786Y-3235725D01*
X5610626Y-3224107D01*
X5610760Y-3223260D01*
X5609482Y-3215186D01*
X5608786Y-3210795D01*
X5608786Y-3210795D01*
X5608749Y-3210560D01*
X6058000Y-3210560D01*
X6058134Y-3211407D01*
X6059974Y-3223025D01*
X6059974Y-3223025D01*
X6060108Y-3223873D01*
X6063765Y-3231050D01*
X6065476Y-3234407D01*
X6066227Y-3235882D01*
X6075758Y-3245413D01*
X6087767Y-3251532D01*
X6088615Y-3251666D01*
X6088615Y-3251666D01*
X6100233Y-3253506D01*
X6101080Y-3253640D01*
X6101927Y-3253506D01*
X6113545Y-3251666D01*
X6113545Y-3251666D01*
X6114393Y-3251532D01*
X6126402Y-3245413D01*
X6135933Y-3235882D01*
X6136684Y-3234407D01*
X6138395Y-3231050D01*
X6140252Y-3227404D01*
X6427570Y-3227404D01*
X6427671Y-3228174D01*
X6427697Y-3228373D01*
X6429243Y-3240199D01*
X6434440Y-3252011D01*
X6434940Y-3252605D01*
X6434940Y-3252605D01*
X6441843Y-3260818D01*
X6442744Y-3261889D01*
X6443390Y-3262319D01*
X6452840Y-3268610D01*
X6452840Y-3268610D01*
X6453486Y-3269040D01*
X6454226Y-3269271D01*
X6454226Y-3269271D01*
X6461004Y-3271388D01*
X6465803Y-3272888D01*
X6472447Y-3273010D01*
X6477929Y-3273110D01*
X6477930Y-3273110D01*
X6478705Y-3273124D01*
X6491155Y-3269730D01*
X6491900Y-3269273D01*
X6501490Y-3263384D01*
X6502152Y-3262978D01*
X6510812Y-3253411D01*
X6511151Y-3252712D01*
X6511553Y-3252115D01*
X6516862Y-3247968D01*
X6523594Y-3247732D01*
X6529179Y-3251499D01*
X6529277Y-3251640D01*
X6529440Y-3252011D01*
X6529940Y-3252605D01*
X6529940Y-3252605D01*
X6536843Y-3260818D01*
X6537744Y-3261889D01*
X6538390Y-3262319D01*
X6547840Y-3268610D01*
X6547840Y-3268610D01*
X6548486Y-3269040D01*
X6549226Y-3269271D01*
X6549226Y-3269271D01*
X6556004Y-3271388D01*
X6560803Y-3272888D01*
X6567447Y-3273010D01*
X6572929Y-3273110D01*
X6572930Y-3273110D01*
X6573705Y-3273124D01*
X6586155Y-3269730D01*
X6586900Y-3269273D01*
X6596490Y-3263384D01*
X6597152Y-3262978D01*
X6605812Y-3253411D01*
X6606202Y-3252605D01*
X6609998Y-3244771D01*
X6611439Y-3241797D01*
X6612915Y-3233024D01*
X6613510Y-3229488D01*
X6613510Y-3229487D01*
X6613580Y-3229072D01*
X6613593Y-3227960D01*
X6611764Y-3215186D01*
X6607329Y-3205433D01*
X6606744Y-3204145D01*
X6606744Y-3204145D01*
X6606423Y-3203439D01*
X6605916Y-3202851D01*
X6605916Y-3202851D01*
X6598506Y-3194251D01*
X6598506Y-3194251D01*
X6597999Y-3193663D01*
X6591734Y-3189602D01*
X6587490Y-3184370D01*
X6587131Y-3177643D01*
X6590795Y-3171990D01*
X6591959Y-3171166D01*
X6594611Y-3169538D01*
X6597152Y-3167978D01*
X6605812Y-3158411D01*
X6606202Y-3157605D01*
X6610189Y-3149377D01*
X6611439Y-3146797D01*
X6612501Y-3140484D01*
X6613510Y-3134488D01*
X6613510Y-3134487D01*
X6613580Y-3134072D01*
X6613593Y-3132960D01*
X6611764Y-3120186D01*
X6606900Y-3109488D01*
X6606744Y-3109145D01*
X6606744Y-3109145D01*
X6606423Y-3108439D01*
X6605916Y-3107851D01*
X6605916Y-3107851D01*
X6598506Y-3099251D01*
X6598506Y-3099251D01*
X6597999Y-3098663D01*
X6587171Y-3091644D01*
X6586427Y-3091422D01*
X6586427Y-3091422D01*
X6575551Y-3088169D01*
X6575551Y-3088169D01*
X6574807Y-3087947D01*
X6568396Y-3087907D01*
X6562680Y-3087872D01*
X6562679Y-3087872D01*
X6561903Y-3087868D01*
X6561156Y-3088081D01*
X6550242Y-3091200D01*
X6550242Y-3091201D01*
X6549495Y-3091414D01*
X6548839Y-3091828D01*
X6548839Y-3091828D01*
X6539564Y-3097680D01*
X6538582Y-3098300D01*
X6538068Y-3098882D01*
X6530554Y-3107390D01*
X6530553Y-3107390D01*
X6530040Y-3107972D01*
X6529710Y-3108675D01*
X6529687Y-3108710D01*
X6524429Y-3112922D01*
X6517700Y-3113239D01*
X6512070Y-3109540D01*
X6511670Y-3108983D01*
X6511423Y-3108439D01*
X6510893Y-3107824D01*
X6503506Y-3099251D01*
X6503506Y-3099251D01*
X6502999Y-3098663D01*
X6492171Y-3091644D01*
X6491427Y-3091422D01*
X6491427Y-3091422D01*
X6480551Y-3088169D01*
X6480551Y-3088169D01*
X6479807Y-3087947D01*
X6473396Y-3087907D01*
X6467680Y-3087872D01*
X6467679Y-3087872D01*
X6466903Y-3087868D01*
X6466156Y-3088081D01*
X6455242Y-3091200D01*
X6455242Y-3091201D01*
X6454495Y-3091414D01*
X6453839Y-3091828D01*
X6453839Y-3091828D01*
X6444564Y-3097680D01*
X6443582Y-3098300D01*
X6435040Y-3107972D01*
X6429555Y-3119653D01*
X6429436Y-3120420D01*
X6429436Y-3120421D01*
X6428856Y-3124142D01*
X6427570Y-3132404D01*
X6429243Y-3145199D01*
X6434440Y-3157011D01*
X6434940Y-3157605D01*
X6434940Y-3157605D01*
X6439168Y-3162635D01*
X6442744Y-3166889D01*
X6443390Y-3167319D01*
X6449522Y-3171401D01*
X6453702Y-3176684D01*
X6453978Y-3183415D01*
X6450245Y-3189023D01*
X6449299Y-3189693D01*
X6443582Y-3193300D01*
X6435040Y-3202972D01*
X6429555Y-3214653D01*
X6427570Y-3227404D01*
X6140252Y-3227404D01*
X6142052Y-3223873D01*
X6142186Y-3223025D01*
X6142186Y-3223025D01*
X6144026Y-3211407D01*
X6144160Y-3210560D01*
X6143378Y-3205623D01*
X6142186Y-3198095D01*
X6142186Y-3198095D01*
X6142052Y-3197247D01*
X6136652Y-3186650D01*
X6136322Y-3186002D01*
X6136322Y-3186002D01*
X6135933Y-3185238D01*
X6126402Y-3175707D01*
X6124484Y-3174730D01*
X6121608Y-3173264D01*
X6114393Y-3169588D01*
X6113545Y-3169454D01*
X6113545Y-3169454D01*
X6101927Y-3167614D01*
X6101080Y-3167480D01*
X6100233Y-3167614D01*
X6088615Y-3169454D01*
X6088615Y-3169454D01*
X6087767Y-3169588D01*
X6080552Y-3173264D01*
X6077676Y-3174730D01*
X6075758Y-3175707D01*
X6066227Y-3185238D01*
X6065838Y-3186002D01*
X6065838Y-3186002D01*
X6065508Y-3186650D01*
X6060108Y-3197247D01*
X6059974Y-3198095D01*
X6059974Y-3198095D01*
X6058782Y-3205623D01*
X6058000Y-3210560D01*
X5608749Y-3210560D01*
X5608652Y-3209947D01*
X5602533Y-3197938D01*
X5593002Y-3188407D01*
X5592238Y-3188018D01*
X5592238Y-3188018D01*
X5584547Y-3184099D01*
X5579784Y-3179336D01*
X5578982Y-3174278D01*
X5578613Y-3174278D01*
X5578613Y-3173420D01*
X5578747Y-3172573D01*
X5578050Y-3168168D01*
X5576773Y-3160108D01*
X5576773Y-3160107D01*
X5576639Y-3159260D01*
X5571992Y-3150139D01*
X5570909Y-3148015D01*
X5570909Y-3148015D01*
X5570520Y-3147251D01*
X5560989Y-3137720D01*
X5557874Y-3136133D01*
X5556819Y-3135595D01*
X5553182Y-3133742D01*
X6139419Y-3133742D01*
X6141278Y-3147958D01*
X6147052Y-3161080D01*
X6147551Y-3161674D01*
X6147551Y-3161675D01*
X6154091Y-3169454D01*
X6156277Y-3172055D01*
X6168211Y-3179999D01*
X6168952Y-3180230D01*
X6181155Y-3184043D01*
X6181155Y-3184043D01*
X6181896Y-3184274D01*
X6189653Y-3184416D01*
X6195454Y-3184523D01*
X6195454Y-3184523D01*
X6196230Y-3184537D01*
X6210062Y-3180766D01*
X6222279Y-3173264D01*
X6231900Y-3162635D01*
X6232253Y-3161907D01*
X6236818Y-3152485D01*
X6241484Y-3147627D01*
X6248116Y-3146440D01*
X6254178Y-3149377D01*
X6257435Y-3155825D01*
X6259165Y-3169058D01*
X6264939Y-3182180D01*
X6265439Y-3182774D01*
X6265439Y-3182775D01*
X6271518Y-3190006D01*
X6274164Y-3193155D01*
X6286099Y-3201099D01*
X6286840Y-3201330D01*
X6299042Y-3205143D01*
X6299042Y-3205143D01*
X6299783Y-3205374D01*
X6307541Y-3205516D01*
X6313341Y-3205623D01*
X6313341Y-3205623D01*
X6314117Y-3205637D01*
X6327949Y-3201866D01*
X6340166Y-3194364D01*
X6349787Y-3183735D01*
X6356038Y-3170833D01*
X6357843Y-3160108D01*
X6358347Y-3157111D01*
X6358347Y-3157111D01*
X6358417Y-3156695D01*
X6358432Y-3155460D01*
X6356400Y-3141268D01*
X6350466Y-3128217D01*
X6341107Y-3117356D01*
X6329077Y-3109558D01*
X6325333Y-3108439D01*
X6316085Y-3105673D01*
X6316085Y-3105673D01*
X6315341Y-3105451D01*
X6308173Y-3105407D01*
X6301782Y-3105368D01*
X6301781Y-3105368D01*
X6301005Y-3105363D01*
X6300258Y-3105576D01*
X6300258Y-3105576D01*
X6287967Y-3109089D01*
X6287966Y-3109089D01*
X6287220Y-3109303D01*
X6286563Y-3109717D01*
X6277559Y-3115398D01*
X6275095Y-3116953D01*
X6265605Y-3127699D01*
X6265275Y-3128402D01*
X6265275Y-3128402D01*
X6261161Y-3137165D01*
X6256553Y-3142079D01*
X6249937Y-3143347D01*
X6243839Y-3140484D01*
X6240504Y-3134077D01*
X6240503Y-3134072D01*
X6238512Y-3120168D01*
X6232578Y-3107117D01*
X6223220Y-3096256D01*
X6211189Y-3088458D01*
X6208745Y-3087727D01*
X6198198Y-3084573D01*
X6198198Y-3084573D01*
X6197454Y-3084351D01*
X6190286Y-3084307D01*
X6183894Y-3084268D01*
X6183894Y-3084268D01*
X6183118Y-3084263D01*
X6182371Y-3084476D01*
X6182371Y-3084476D01*
X6170079Y-3087989D01*
X6170079Y-3087989D01*
X6169333Y-3088203D01*
X6168676Y-3088617D01*
X6160911Y-3093516D01*
X6157208Y-3095853D01*
X6147718Y-3106599D01*
X6147388Y-3107302D01*
X6147388Y-3107302D01*
X6141955Y-3118873D01*
X6141955Y-3118873D01*
X6141625Y-3119576D01*
X6141505Y-3120344D01*
X6139824Y-3131145D01*
X6139419Y-3133742D01*
X5553182Y-3133742D01*
X5548980Y-3131601D01*
X5548132Y-3131467D01*
X5548132Y-3131467D01*
X5536514Y-3129627D01*
X5535667Y-3129492D01*
X5534820Y-3129627D01*
X5523202Y-3131467D01*
X5523202Y-3131467D01*
X5522354Y-3131601D01*
X5514515Y-3135595D01*
X5513460Y-3136133D01*
X5510345Y-3137720D01*
X5500814Y-3147251D01*
X5500425Y-3148015D01*
X5500425Y-3148015D01*
X5499343Y-3150139D01*
X5494695Y-3159260D01*
X5494561Y-3160107D01*
X5494561Y-3160108D01*
X5493284Y-3168168D01*
X5492587Y-3172573D01*
X4246200Y-3172573D01*
X4249841Y-3168932D01*
X4250327Y-3167978D01*
X4252037Y-3164621D01*
X4255960Y-3156922D01*
X4256147Y-3155740D01*
X4256301Y-3155438D01*
X4256359Y-3155259D01*
X4256388Y-3155268D01*
X4259205Y-3149738D01*
X4265207Y-3146680D01*
X4265596Y-3146649D01*
X4265788Y-3146679D01*
X4266361Y-3146589D01*
X4266361Y-3146589D01*
X4278253Y-3144705D01*
X4278253Y-3144705D01*
X4279101Y-3144571D01*
X4291110Y-3138452D01*
X4300641Y-3128921D01*
X4301285Y-3127658D01*
X4303912Y-3122502D01*
X4306760Y-3116912D01*
X4306894Y-3116064D01*
X4306894Y-3116064D01*
X4308734Y-3104446D01*
X4308868Y-3103599D01*
X4307964Y-3097886D01*
X4306894Y-3091134D01*
X4306894Y-3091134D01*
X4306760Y-3090286D01*
X4300641Y-3078277D01*
X4295554Y-3073190D01*
X4294367Y-3070860D01*
X5801068Y-3070860D01*
X5801202Y-3071707D01*
X5803042Y-3083325D01*
X5803042Y-3083325D01*
X5803177Y-3084173D01*
X5809296Y-3096182D01*
X5818826Y-3105713D01*
X5819590Y-3106102D01*
X5819590Y-3106102D01*
X5821583Y-3107117D01*
X5830836Y-3111832D01*
X5831683Y-3111966D01*
X5831683Y-3111966D01*
X5843301Y-3113806D01*
X5844148Y-3113940D01*
X5844996Y-3113806D01*
X5856613Y-3111966D01*
X5856614Y-3111966D01*
X5857461Y-3111832D01*
X5866714Y-3107117D01*
X5868706Y-3106102D01*
X5868707Y-3106102D01*
X5869470Y-3105713D01*
X5879001Y-3096182D01*
X5885120Y-3084173D01*
X5885255Y-3083325D01*
X5885255Y-3083325D01*
X5887095Y-3071707D01*
X5887229Y-3070860D01*
X5886020Y-3063226D01*
X5885255Y-3058395D01*
X5885255Y-3058395D01*
X5885120Y-3057547D01*
X5880616Y-3048707D01*
X5879391Y-3046302D01*
X5879390Y-3046302D01*
X5879001Y-3045538D01*
X5869470Y-3036007D01*
X5857461Y-3029888D01*
X5856614Y-3029754D01*
X5856613Y-3029754D01*
X5844996Y-3027914D01*
X5844148Y-3027780D01*
X5843301Y-3027914D01*
X5831683Y-3029754D01*
X5831683Y-3029754D01*
X5830836Y-3029888D01*
X5818826Y-3036007D01*
X5809296Y-3045538D01*
X5808906Y-3046302D01*
X5808906Y-3046302D01*
X5807681Y-3048707D01*
X5803177Y-3057547D01*
X5803042Y-3058395D01*
X5803042Y-3058395D01*
X5802277Y-3063226D01*
X5801068Y-3070860D01*
X4294367Y-3070860D01*
X4292496Y-3067188D01*
X4293550Y-3060534D01*
X4298313Y-3055771D01*
X4301557Y-3054717D01*
X4309749Y-3053420D01*
X4309749Y-3053420D01*
X4310597Y-3053285D01*
X4320346Y-3048318D01*
X4321842Y-3047556D01*
X4321842Y-3047555D01*
X4322606Y-3047166D01*
X4332137Y-3037635D01*
X4332658Y-3036613D01*
X4336899Y-3028289D01*
X4338256Y-3025626D01*
X4338367Y-3024927D01*
X4342282Y-3019538D01*
X4348689Y-3017457D01*
X4352448Y-3018359D01*
X4352495Y-3018213D01*
X4353311Y-3018478D01*
X4354075Y-3018868D01*
X4354923Y-3019002D01*
X4354923Y-3019002D01*
X4366541Y-3020842D01*
X4367388Y-3020976D01*
X4368235Y-3020842D01*
X4379853Y-3019002D01*
X4379853Y-3019002D01*
X4380701Y-3018868D01*
X4389685Y-3014290D01*
X4391946Y-3013138D01*
X4391946Y-3013138D01*
X4392710Y-3012749D01*
X4402241Y-3003218D01*
X4403062Y-3001607D01*
X4405050Y-2997705D01*
X4408288Y-2991350D01*
X4605120Y-2991350D01*
X4605254Y-2992197D01*
X4607094Y-3003815D01*
X4607094Y-3003815D01*
X4607228Y-3004663D01*
X4613347Y-3016672D01*
X4622878Y-3026203D01*
X4623642Y-3026592D01*
X4623642Y-3026592D01*
X4624379Y-3026967D01*
X4634887Y-3032322D01*
X4635735Y-3032456D01*
X4635735Y-3032456D01*
X4647353Y-3034296D01*
X4648200Y-3034430D01*
X4649047Y-3034296D01*
X4660665Y-3032456D01*
X4660665Y-3032456D01*
X4661513Y-3032322D01*
X4672021Y-3026967D01*
X4672758Y-3026592D01*
X4672758Y-3026592D01*
X4673522Y-3026203D01*
X4683053Y-3016672D01*
X4689172Y-3004663D01*
X4689306Y-3003815D01*
X4689306Y-3003815D01*
X4690354Y-2997200D01*
X4770220Y-2997200D01*
X4770354Y-2998047D01*
X4772194Y-3009665D01*
X4772194Y-3009665D01*
X4772328Y-3010513D01*
X4776387Y-3018478D01*
X4777488Y-3020639D01*
X4778447Y-3022522D01*
X4787978Y-3032053D01*
X4788742Y-3032442D01*
X4788742Y-3032442D01*
X4791340Y-3033766D01*
X4799987Y-3038172D01*
X4800835Y-3038306D01*
X4800835Y-3038306D01*
X4812453Y-3040146D01*
X4813300Y-3040280D01*
X4814147Y-3040146D01*
X4825765Y-3038306D01*
X4825765Y-3038306D01*
X4826613Y-3038172D01*
X4835260Y-3033766D01*
X4837858Y-3032442D01*
X4837858Y-3032442D01*
X4838622Y-3032053D01*
X4848153Y-3022522D01*
X4849112Y-3020639D01*
X4850213Y-3018478D01*
X4854272Y-3010513D01*
X4854406Y-3009665D01*
X4854406Y-3009665D01*
X4855676Y-3001646D01*
X4857939Y-2997206D01*
X4857927Y-2997194D01*
X4874945Y-2997194D01*
X4876154Y-2998403D01*
X4877208Y-3001646D01*
X4878478Y-3009665D01*
X4878478Y-3009665D01*
X4878612Y-3010513D01*
X4882671Y-3018478D01*
X4883772Y-3020639D01*
X4884731Y-3022522D01*
X4894262Y-3032053D01*
X4895026Y-3032442D01*
X4895026Y-3032442D01*
X4897624Y-3033766D01*
X4906271Y-3038172D01*
X4907119Y-3038306D01*
X4907119Y-3038306D01*
X4918737Y-3040146D01*
X4919584Y-3040280D01*
X4920431Y-3040146D01*
X4932049Y-3038306D01*
X4932049Y-3038306D01*
X4932897Y-3038172D01*
X4941544Y-3033766D01*
X4944142Y-3032442D01*
X4944142Y-3032442D01*
X4944906Y-3032053D01*
X4954437Y-3022522D01*
X4955396Y-3020639D01*
X4955691Y-3020060D01*
X5537300Y-3020060D01*
X5537434Y-3020907D01*
X5539274Y-3032525D01*
X5539274Y-3032525D01*
X5539408Y-3033373D01*
X5545527Y-3045382D01*
X5555058Y-3054913D01*
X5555822Y-3055302D01*
X5555822Y-3055302D01*
X5558420Y-3056626D01*
X5567067Y-3061032D01*
X5567915Y-3061166D01*
X5567915Y-3061166D01*
X5579533Y-3063006D01*
X5580380Y-3063140D01*
X5581227Y-3063006D01*
X5592845Y-3061166D01*
X5592845Y-3061166D01*
X5593693Y-3061032D01*
X5602340Y-3056626D01*
X5604938Y-3055302D01*
X5604938Y-3055302D01*
X5605702Y-3054913D01*
X5615233Y-3045382D01*
X5621352Y-3033373D01*
X5621486Y-3032525D01*
X5621486Y-3032525D01*
X5623326Y-3020907D01*
X5623460Y-3020060D01*
X6045300Y-3020060D01*
X6045434Y-3020907D01*
X6047274Y-3032525D01*
X6047274Y-3032525D01*
X6047408Y-3033373D01*
X6053527Y-3045382D01*
X6063058Y-3054913D01*
X6063822Y-3055302D01*
X6063822Y-3055302D01*
X6066420Y-3056626D01*
X6075067Y-3061032D01*
X6075915Y-3061166D01*
X6075915Y-3061166D01*
X6087533Y-3063006D01*
X6088380Y-3063140D01*
X6089227Y-3063006D01*
X6100845Y-3061166D01*
X6100845Y-3061166D01*
X6101693Y-3061032D01*
X6110340Y-3056626D01*
X6112938Y-3055302D01*
X6112938Y-3055302D01*
X6113702Y-3054913D01*
X6123233Y-3045382D01*
X6129352Y-3033373D01*
X6129486Y-3032525D01*
X6129486Y-3032525D01*
X6131326Y-3020907D01*
X6131460Y-3020060D01*
X6130758Y-3015627D01*
X6129486Y-3007595D01*
X6129486Y-3007595D01*
X6129352Y-3006747D01*
X6123233Y-2994738D01*
X6113702Y-2985207D01*
X6111459Y-2984064D01*
X6107029Y-2981807D01*
X6105366Y-2980960D01*
X6235800Y-2980960D01*
X6235934Y-2981807D01*
X6237774Y-2993425D01*
X6237774Y-2993425D01*
X6237908Y-2994273D01*
X6241753Y-3001818D01*
X6243252Y-3004761D01*
X6244027Y-3006282D01*
X6253558Y-3015813D01*
X6254322Y-3016202D01*
X6254322Y-3016202D01*
X6255343Y-3016722D01*
X6265567Y-3021932D01*
X6266415Y-3022066D01*
X6266415Y-3022066D01*
X6278033Y-3023906D01*
X6278880Y-3024040D01*
X6279727Y-3023906D01*
X6291345Y-3022066D01*
X6291345Y-3022066D01*
X6292193Y-3021932D01*
X6295866Y-3020060D01*
X6743800Y-3020060D01*
X6743934Y-3020907D01*
X6745774Y-3032525D01*
X6745774Y-3032525D01*
X6745908Y-3033373D01*
X6752027Y-3045382D01*
X6761558Y-3054913D01*
X6762322Y-3055302D01*
X6762322Y-3055302D01*
X6764920Y-3056626D01*
X6773567Y-3061032D01*
X6774415Y-3061166D01*
X6774415Y-3061166D01*
X6786033Y-3063006D01*
X6786880Y-3063140D01*
X6787727Y-3063006D01*
X6799345Y-3061166D01*
X6799345Y-3061166D01*
X6800193Y-3061032D01*
X6808840Y-3056626D01*
X6811438Y-3055302D01*
X6811438Y-3055302D01*
X6812202Y-3054913D01*
X6821733Y-3045382D01*
X6827852Y-3033373D01*
X6827986Y-3032525D01*
X6827986Y-3032525D01*
X6829826Y-3020907D01*
X6829960Y-3020060D01*
X6829258Y-3015627D01*
X6827986Y-3007595D01*
X6827986Y-3007595D01*
X6827852Y-3006747D01*
X6821733Y-2994738D01*
X6812202Y-2985207D01*
X6809959Y-2984064D01*
X6805529Y-2981807D01*
X6800193Y-2979088D01*
X6799345Y-2978954D01*
X6799345Y-2978954D01*
X6787727Y-2977114D01*
X6786880Y-2976980D01*
X6786033Y-2977114D01*
X6774415Y-2978954D01*
X6774415Y-2978954D01*
X6773567Y-2979088D01*
X6768231Y-2981807D01*
X6763801Y-2984064D01*
X6761558Y-2985207D01*
X6752027Y-2994738D01*
X6745908Y-3006747D01*
X6745774Y-3007595D01*
X6745774Y-3007595D01*
X6744502Y-3015627D01*
X6743800Y-3020060D01*
X6295866Y-3020060D01*
X6302417Y-3016722D01*
X6303438Y-3016202D01*
X6303438Y-3016202D01*
X6304202Y-3015813D01*
X6313733Y-3006282D01*
X6314508Y-3004761D01*
X6316007Y-3001818D01*
X6319852Y-2994273D01*
X6319986Y-2993425D01*
X6319986Y-2993425D01*
X6321826Y-2981807D01*
X6321960Y-2980960D01*
X6321602Y-2978695D01*
X6319986Y-2968495D01*
X6319986Y-2968495D01*
X6319852Y-2967647D01*
X6313733Y-2955638D01*
X6304202Y-2946107D01*
X6292193Y-2939988D01*
X6291345Y-2939854D01*
X6291345Y-2939854D01*
X6279727Y-2938014D01*
X6278880Y-2937880D01*
X6278033Y-2938014D01*
X6266415Y-2939854D01*
X6266415Y-2939854D01*
X6265567Y-2939988D01*
X6253558Y-2946107D01*
X6244027Y-2955638D01*
X6237908Y-2967647D01*
X6237774Y-2968495D01*
X6237774Y-2968495D01*
X6236158Y-2978695D01*
X6235800Y-2980960D01*
X6105366Y-2980960D01*
X6101693Y-2979088D01*
X6100845Y-2978954D01*
X6100845Y-2978954D01*
X6089227Y-2977114D01*
X6088380Y-2976980D01*
X6087533Y-2977114D01*
X6075915Y-2978954D01*
X6075915Y-2978954D01*
X6075067Y-2979088D01*
X6069731Y-2981807D01*
X6065301Y-2984064D01*
X6063058Y-2985207D01*
X6053527Y-2994738D01*
X6047408Y-3006747D01*
X6047274Y-3007595D01*
X6047274Y-3007595D01*
X6046002Y-3015627D01*
X6045300Y-3020060D01*
X5623460Y-3020060D01*
X5622758Y-3015627D01*
X5621486Y-3007595D01*
X5621486Y-3007595D01*
X5621352Y-3006747D01*
X5615233Y-2994738D01*
X5605702Y-2985207D01*
X5603459Y-2984064D01*
X5599029Y-2981807D01*
X5593693Y-2979088D01*
X5592845Y-2978954D01*
X5592845Y-2978954D01*
X5581227Y-2977114D01*
X5580380Y-2976980D01*
X5579533Y-2977114D01*
X5567915Y-2978954D01*
X5567915Y-2978954D01*
X5567067Y-2979088D01*
X5561731Y-2981807D01*
X5557301Y-2984064D01*
X5555058Y-2985207D01*
X5545527Y-2994738D01*
X5539408Y-3006747D01*
X5539274Y-3007595D01*
X5539274Y-3007595D01*
X5538002Y-3015627D01*
X5537300Y-3020060D01*
X4955691Y-3020060D01*
X4956497Y-3018478D01*
X4960556Y-3010513D01*
X4960690Y-3009665D01*
X4960690Y-3009665D01*
X4962530Y-2998047D01*
X4962664Y-2997200D01*
X4962205Y-2994301D01*
X4960690Y-2984735D01*
X4960690Y-2984735D01*
X4960556Y-2983887D01*
X4956150Y-2975240D01*
X4954826Y-2972642D01*
X4954826Y-2972642D01*
X4954437Y-2971878D01*
X4944906Y-2962347D01*
X4942805Y-2961276D01*
X4940322Y-2960012D01*
X4932897Y-2956228D01*
X4932049Y-2956094D01*
X4932049Y-2956094D01*
X4920431Y-2954254D01*
X4919584Y-2954120D01*
X4918737Y-2954254D01*
X4907119Y-2956094D01*
X4907119Y-2956094D01*
X4906271Y-2956228D01*
X4898846Y-2960012D01*
X4896364Y-2961276D01*
X4894262Y-2962347D01*
X4884731Y-2971878D01*
X4884342Y-2972642D01*
X4884342Y-2972642D01*
X4883018Y-2975240D01*
X4878612Y-2983887D01*
X4878478Y-2984735D01*
X4878478Y-2984735D01*
X4877208Y-2992754D01*
X4874945Y-2997194D01*
X4857927Y-2997194D01*
X4856730Y-2995997D01*
X4855676Y-2992754D01*
X4854406Y-2984735D01*
X4854406Y-2984735D01*
X4854272Y-2983887D01*
X4849866Y-2975240D01*
X4848542Y-2972642D01*
X4848542Y-2972642D01*
X4848153Y-2971878D01*
X4838622Y-2962347D01*
X4836521Y-2961276D01*
X4834038Y-2960012D01*
X4826613Y-2956228D01*
X4825765Y-2956094D01*
X4825765Y-2956094D01*
X4814147Y-2954254D01*
X4813300Y-2954120D01*
X4812453Y-2954254D01*
X4800835Y-2956094D01*
X4800835Y-2956094D01*
X4799987Y-2956228D01*
X4792562Y-2960012D01*
X4790080Y-2961276D01*
X4787978Y-2962347D01*
X4778447Y-2971878D01*
X4778058Y-2972642D01*
X4778058Y-2972642D01*
X4776734Y-2975240D01*
X4772328Y-2983887D01*
X4772194Y-2984735D01*
X4772194Y-2984735D01*
X4770679Y-2994301D01*
X4770220Y-2997200D01*
X4690354Y-2997200D01*
X4691146Y-2992197D01*
X4691280Y-2991350D01*
X4690494Y-2986385D01*
X4689306Y-2978885D01*
X4689306Y-2978885D01*
X4689172Y-2978037D01*
X4684221Y-2968320D01*
X4683442Y-2966792D01*
X4683442Y-2966792D01*
X4683053Y-2966028D01*
X4673522Y-2956497D01*
X4672287Y-2955868D01*
X4668856Y-2954120D01*
X4661513Y-2950378D01*
X4660665Y-2950244D01*
X4660665Y-2950244D01*
X4649047Y-2948404D01*
X4648200Y-2948270D01*
X4647353Y-2948404D01*
X4635735Y-2950244D01*
X4635735Y-2950244D01*
X4634887Y-2950378D01*
X4627544Y-2954120D01*
X4624113Y-2955868D01*
X4622878Y-2956497D01*
X4613347Y-2966028D01*
X4612958Y-2966792D01*
X4612958Y-2966792D01*
X4612179Y-2968320D01*
X4607228Y-2978037D01*
X4607094Y-2978885D01*
X4607094Y-2978885D01*
X4605906Y-2986385D01*
X4605120Y-2991350D01*
X4408288Y-2991350D01*
X4408360Y-2991209D01*
X4408494Y-2990361D01*
X4408494Y-2990361D01*
X4410334Y-2978743D01*
X4410468Y-2977896D01*
X4409630Y-2972604D01*
X4408494Y-2965431D01*
X4408494Y-2965431D01*
X4408360Y-2964583D01*
X4403170Y-2954398D01*
X4402630Y-2953338D01*
X4402630Y-2953338D01*
X4402241Y-2952574D01*
X4392710Y-2943043D01*
X4391843Y-2942601D01*
X4388123Y-2940706D01*
X4380701Y-2936924D01*
X4379853Y-2936790D01*
X4379853Y-2936790D01*
X4368235Y-2934950D01*
X4367388Y-2934816D01*
X4366541Y-2934950D01*
X4354923Y-2936790D01*
X4354923Y-2936790D01*
X4354075Y-2936924D01*
X4346653Y-2940706D01*
X4342933Y-2942601D01*
X4342066Y-2943043D01*
X4332535Y-2952574D01*
X4332146Y-2953338D01*
X4332146Y-2953338D01*
X4331606Y-2954398D01*
X4326416Y-2964583D01*
X4326305Y-2965283D01*
X4322390Y-2970671D01*
X4315983Y-2972753D01*
X4312224Y-2971850D01*
X4312177Y-2971996D01*
X4311361Y-2971731D01*
X4310597Y-2971342D01*
X4309749Y-2971207D01*
X4309749Y-2971207D01*
X4298131Y-2969367D01*
X4297284Y-2969233D01*
X4296437Y-2969367D01*
X4284819Y-2971207D01*
X4284819Y-2971207D01*
X4283971Y-2971342D01*
X4271962Y-2977461D01*
X4262431Y-2986991D01*
X4260801Y-2990191D01*
X4257555Y-2996562D01*
X4252791Y-3001326D01*
X4247843Y-3002514D01*
X4247331Y-3002514D01*
X4246484Y-3002380D01*
X4245637Y-3002514D01*
X4234019Y-3004354D01*
X4234019Y-3004354D01*
X4233171Y-3004488D01*
X4227099Y-3007582D01*
X4223011Y-3009665D01*
X4221162Y-3010607D01*
X4211631Y-3020138D01*
X4211242Y-3020902D01*
X4211242Y-3020902D01*
X4205664Y-3031849D01*
X4200901Y-3036612D01*
X4194247Y-3037666D01*
X4192611Y-3037407D01*
X4191764Y-3037541D01*
X4180146Y-3039381D01*
X4180146Y-3039381D01*
X4179299Y-3039515D01*
X4167289Y-3045634D01*
X4157758Y-3055165D01*
X4157369Y-3055929D01*
X4157369Y-3055929D01*
X4156972Y-3056709D01*
X4151639Y-3067175D01*
X4151505Y-3068022D01*
X4151505Y-3068022D01*
X4149977Y-3077671D01*
X4149531Y-3080487D01*
X4149665Y-3081335D01*
X4151505Y-3092952D01*
X4151505Y-3092953D01*
X4151639Y-3093800D01*
X4157758Y-3105809D01*
X4167289Y-3115340D01*
X4168053Y-3115729D01*
X4168054Y-3115730D01*
X4169056Y-3116241D01*
X4173820Y-3121004D01*
X4174874Y-3127658D01*
X4174474Y-3129321D01*
X4174405Y-3129533D01*
X4174016Y-3130297D01*
X4171908Y-3143610D01*
X4172042Y-3144457D01*
X4173882Y-3156075D01*
X4173882Y-3156075D01*
X4174016Y-3156922D01*
X4177939Y-3164621D01*
X4179649Y-3167978D01*
X4180135Y-3168932D01*
X4187033Y-3175830D01*
X4190091Y-3181832D01*
X4189037Y-3188486D01*
X4184274Y-3193249D01*
X4174327Y-3198317D01*
X4174326Y-3198318D01*
X4173562Y-3198707D01*
X4164031Y-3208238D01*
X4163642Y-3209002D01*
X4163642Y-3209002D01*
X4163217Y-3209837D01*
X4157912Y-3220247D01*
X4157778Y-3221095D01*
X4157778Y-3221095D01*
X4157631Y-3222022D01*
X4154573Y-3228024D01*
X4148570Y-3231083D01*
X4146660Y-3231083D01*
X4146660Y-3231184D01*
X4145802Y-3231184D01*
X4144955Y-3231050D01*
X4144107Y-3231184D01*
X4132490Y-3233024D01*
X4132489Y-3233024D01*
X4131642Y-3233159D01*
X4119633Y-3239278D01*
X4110102Y-3248809D01*
X4103983Y-3260818D01*
X4103848Y-3261665D01*
X4103848Y-3261666D01*
X4102507Y-3270133D01*
X4101874Y-3274131D01*
X4102008Y-3274978D01*
X4103848Y-3286596D01*
X4103848Y-3286596D01*
X4103983Y-3287443D01*
X4110102Y-3299453D01*
X4119633Y-3308983D01*
X4120396Y-3309373D01*
X4120397Y-3309373D01*
X4131642Y-3315102D01*
X4131469Y-3315441D01*
X4135585Y-3318436D01*
X4137663Y-3324844D01*
X4135577Y-3331250D01*
X4131349Y-3334319D01*
X4131501Y-3334617D01*
X4122486Y-3339211D01*
X4119491Y-3340737D01*
X4109961Y-3350267D01*
X4109571Y-3351031D01*
X4109571Y-3351031D01*
X4108501Y-3353132D01*
X4103841Y-3362277D01*
X4103707Y-3363124D01*
X4103707Y-3363124D01*
X4102164Y-3372866D01*
X4101733Y-3375589D01*
X2986785Y-3375589D01*
X2995549Y-3344513D01*
X2997046Y-3339207D01*
X2997310Y-3338393D01*
X2999267Y-3333089D01*
X3014134Y-3292791D01*
X3014461Y-3292000D01*
X3019035Y-3282078D01*
X3275823Y-3282078D01*
X3277682Y-3296294D01*
X3283456Y-3309416D01*
X3283955Y-3310010D01*
X3283955Y-3310011D01*
X3292110Y-3319712D01*
X3292681Y-3320391D01*
X3304615Y-3328335D01*
X3305356Y-3328566D01*
X3317559Y-3332379D01*
X3317559Y-3332379D01*
X3318300Y-3332610D01*
X3326050Y-3332752D01*
X3331858Y-3332859D01*
X3331858Y-3332859D01*
X3332634Y-3332873D01*
X3346466Y-3329102D01*
X3358683Y-3321600D01*
X3361547Y-3318436D01*
X3367783Y-3311547D01*
X3368304Y-3310971D01*
X3374555Y-3298069D01*
X3376214Y-3288208D01*
X3376864Y-3284347D01*
X3376864Y-3284347D01*
X3376934Y-3283931D01*
X3376949Y-3282696D01*
X3376839Y-3281931D01*
X3650914Y-3281931D01*
X3652773Y-3296147D01*
X3658547Y-3309269D01*
X3659047Y-3309863D01*
X3659047Y-3309863D01*
X3666683Y-3318947D01*
X3667772Y-3320244D01*
X3679707Y-3328188D01*
X3680448Y-3328419D01*
X3692650Y-3332232D01*
X3692650Y-3332232D01*
X3693391Y-3332463D01*
X3701149Y-3332605D01*
X3706949Y-3332712D01*
X3706949Y-3332712D01*
X3707725Y-3332726D01*
X3721557Y-3328955D01*
X3733774Y-3321453D01*
X3735274Y-3319797D01*
X3742874Y-3311400D01*
X3743395Y-3310824D01*
X3749646Y-3297922D01*
X3751603Y-3286293D01*
X3751955Y-3284200D01*
X3751955Y-3284200D01*
X3752025Y-3283784D01*
X3752040Y-3282549D01*
X3750008Y-3268357D01*
X3744074Y-3255306D01*
X3734715Y-3244445D01*
X3722685Y-3236647D01*
X3721111Y-3236177D01*
X3709693Y-3232762D01*
X3709693Y-3232762D01*
X3708949Y-3232540D01*
X3701781Y-3232496D01*
X3695390Y-3232457D01*
X3695389Y-3232457D01*
X3694613Y-3232452D01*
X3693866Y-3232665D01*
X3693866Y-3232665D01*
X3681575Y-3236178D01*
X3681574Y-3236178D01*
X3680828Y-3236392D01*
X3680171Y-3236806D01*
X3669770Y-3243369D01*
X3668703Y-3244042D01*
X3659213Y-3254788D01*
X3658883Y-3255490D01*
X3658883Y-3255491D01*
X3653450Y-3267062D01*
X3653450Y-3267062D01*
X3653120Y-3267765D01*
X3653001Y-3268533D01*
X3651339Y-3279202D01*
X3650914Y-3281931D01*
X3376839Y-3281931D01*
X3374916Y-3268504D01*
X3368982Y-3255453D01*
X3359624Y-3244592D01*
X3347593Y-3236794D01*
X3344017Y-3235725D01*
X3334602Y-3232909D01*
X3334602Y-3232909D01*
X3333858Y-3232687D01*
X3326690Y-3232643D01*
X3320298Y-3232604D01*
X3320298Y-3232604D01*
X3319522Y-3232599D01*
X3318775Y-3232812D01*
X3318775Y-3232812D01*
X3306483Y-3236325D01*
X3306483Y-3236325D01*
X3305737Y-3236539D01*
X3305080Y-3236953D01*
X3294502Y-3243628D01*
X3293612Y-3244189D01*
X3284122Y-3254935D01*
X3283792Y-3255638D01*
X3283792Y-3255638D01*
X3278359Y-3267209D01*
X3278359Y-3267209D01*
X3278029Y-3267912D01*
X3277909Y-3268680D01*
X3276627Y-3276918D01*
X3275823Y-3282078D01*
X3019035Y-3282078D01*
X3034811Y-3247857D01*
X3035200Y-3247095D01*
X3058950Y-3204685D01*
X3059397Y-3203956D01*
X3078523Y-3175332D01*
X3086402Y-3163540D01*
X3086905Y-3162848D01*
X3087683Y-3161862D01*
X3101621Y-3144181D01*
X3116997Y-3124677D01*
X3117553Y-3124026D01*
X3150547Y-3088333D01*
X3151153Y-3087727D01*
X3186846Y-3054733D01*
X3187497Y-3054177D01*
X3212545Y-3034430D01*
X3225668Y-3024085D01*
X3226360Y-3023582D01*
X3226388Y-3023563D01*
X3247844Y-3009227D01*
X3266776Y-2996577D01*
X3267505Y-2996130D01*
X3309915Y-2972380D01*
X3310677Y-2971991D01*
X3354820Y-2951641D01*
X3355611Y-2951314D01*
X3383496Y-2941026D01*
X3401213Y-2934490D01*
X3402027Y-2934226D01*
X3448809Y-2921032D01*
X3449641Y-2920832D01*
X3472850Y-2916215D01*
X3497316Y-2911349D01*
X3498160Y-2911215D01*
X3542741Y-2905939D01*
X3546429Y-2905502D01*
X3547282Y-2905435D01*
X3579615Y-2904165D01*
X3592881Y-2903643D01*
X3594003Y-2903749D01*
X3595047Y-2903750D01*
X3596244Y-2904026D01*
X3597442Y-2903755D01*
X3597549Y-2903755D01*
X3599740Y-2903510D01*
X3723198Y-2903510D01*
X3729605Y-2905592D01*
G37*
G04 #@! TD.AperFunction*
M02*
