%TF.GenerationSoftware,KiCad,Pcbnew,6.0.9-8da3e8f707~116~ubuntu22.04.1*%
%TF.CreationDate,2022-12-14T17:32:59+01:00*%
%TF.ProjectId,test_fixture,74657374-5f66-4697-9874-7572652e6b69,rev?*%
%TF.SameCoordinates,Original*%
%TF.FileFunction,Soldermask,Bot*%
%TF.FilePolarity,Negative*%
%FSLAX46Y46*%
G04 Gerber Fmt 4.6, Leading zero omitted, Abs format (unit mm)*
G04 Created by KiCad (PCBNEW 6.0.9-8da3e8f707~116~ubuntu22.04.1) date 2022-12-14 17:32:59*
%MOMM*%
%LPD*%
G01*
G04 APERTURE LIST*
%ADD10C,1.200000*%
%ADD11C,2.100000*%
%ADD12C,1.800000*%
%ADD13C,1.600000*%
%ADD14R,1.700000X1.700000*%
%ADD15O,1.700000X1.700000*%
G04 APERTURE END LIST*
D10*
%TO.C,POGO8*%
X129489200Y-81813400D03*
%TD*%
%TO.C,POGO13*%
X136017000Y-83235800D03*
%TD*%
%TO.C,POGO12*%
X129921000Y-91287600D03*
%TD*%
D11*
%TO.C,H9*%
X146100800Y-80797400D03*
%TD*%
D12*
%TO.C,U1*%
X98552000Y-139370600D03*
X101092000Y-139370600D03*
X103632000Y-139370600D03*
X106172000Y-139370600D03*
X108712000Y-139370600D03*
X111252000Y-139370600D03*
X113792000Y-139370600D03*
D13*
X116332000Y-139370600D03*
X118872000Y-139370600D03*
X121412000Y-139370600D03*
X123952000Y-139370600D03*
X126492000Y-139370600D03*
X129032000Y-139370600D03*
X131572000Y-139370600D03*
X134112000Y-139370600D03*
X136652000Y-139370600D03*
X139192000Y-139370600D03*
X141732000Y-139370600D03*
X144272000Y-139370600D03*
X146812000Y-139370600D03*
X146812000Y-121690600D03*
X144272000Y-121690600D03*
X141732000Y-121690600D03*
X139192000Y-121690600D03*
X136652000Y-121690600D03*
X134112000Y-121690600D03*
X131572000Y-121690600D03*
X129032000Y-121690600D03*
X126492000Y-121690600D03*
X123952000Y-121690600D03*
X121412000Y-121690600D03*
X118872000Y-121690600D03*
X116332000Y-121690600D03*
X113792000Y-121690600D03*
X111252000Y-121690600D03*
X108712000Y-121690600D03*
X106172000Y-121690600D03*
X103632000Y-121690600D03*
X101092000Y-121690600D03*
X98552000Y-121690600D03*
%TD*%
D11*
%TO.C,H4*%
X84124800Y-117043200D03*
%TD*%
D10*
%TO.C,POGO25*%
X109880400Y-92684600D03*
%TD*%
%TO.C,POGO2*%
X108204000Y-89865200D03*
%TD*%
D14*
%TO.C,J1*%
X87477600Y-80721200D03*
D15*
X87477600Y-83261200D03*
X87477600Y-85801200D03*
%TD*%
D10*
%TO.C,POGO22*%
X111785400Y-89865200D03*
%TD*%
%TO.C,POGO7*%
X133858000Y-91109800D03*
%TD*%
%TO.C,POGO6*%
X124637800Y-81661000D03*
%TD*%
%TO.C,POGO3*%
X107442000Y-87299800D03*
%TD*%
%TO.C,POGO15*%
X130606800Y-85191600D03*
%TD*%
%TO.C,POGO19*%
X140716000Y-81635600D03*
%TD*%
%TO.C,POGO23*%
X111531400Y-87249000D03*
%TD*%
D11*
%TO.C,H7*%
X103505000Y-80797400D03*
%TD*%
%TO.C,H10*%
X146100800Y-92811600D03*
%TD*%
D10*
%TO.C,POGO21*%
X112801400Y-88519000D03*
%TD*%
%TO.C,POGO16*%
X141503400Y-92278200D03*
%TD*%
%TO.C,POGO11*%
X123952000Y-92735400D03*
%TD*%
%TO.C,POGO14*%
X108788200Y-82092800D03*
%TD*%
%TO.C,POGO20*%
X112623600Y-84658200D03*
%TD*%
D11*
%TO.C,H3*%
X84124800Y-71424800D03*
%TD*%
D10*
%TO.C,POGO10*%
X114046000Y-92633800D03*
%TD*%
%TO.C,POGO1*%
X126619000Y-82905600D03*
%TD*%
D11*
%TO.C,H8*%
X103505000Y-92811600D03*
%TD*%
D10*
%TO.C,J6*%
X135991600Y-86233000D03*
%TD*%
%TO.C,J5*%
X120624600Y-92684600D03*
%TD*%
D11*
%TO.C,H6*%
X151079200Y-140309600D03*
%TD*%
%TO.C,H5*%
X151079200Y-71424800D03*
%TD*%
D10*
%TO.C,POGO24*%
X112039400Y-92710000D03*
%TD*%
%TO.C,POGO17*%
X117856000Y-92913200D03*
%TD*%
%TO.C,POGO4*%
X107442000Y-84683600D03*
%TD*%
%TO.C,POGO5*%
X122199400Y-81584800D03*
%TD*%
%TO.C,POGO18*%
X108864400Y-86029800D03*
%TD*%
M02*
