%TF.GenerationSoftware,KiCad,Pcbnew,6.0.9-8da3e8f707~116~ubuntu22.04.1*%
%TF.CreationDate,2022-12-14T17:32:58+01:00*%
%TF.ProjectId,test_fixture,74657374-5f66-4697-9874-7572652e6b69,rev?*%
%TF.SameCoordinates,Original*%
%TF.FileFunction,Paste,Top*%
%TF.FilePolarity,Positive*%
%FSLAX46Y46*%
G04 Gerber Fmt 4.6, Leading zero omitted, Abs format (unit mm)*
G04 Created by KiCad (PCBNEW 6.0.9-8da3e8f707~116~ubuntu22.04.1) date 2022-12-14 17:32:58*
%MOMM*%
%LPD*%
G01*
G04 APERTURE LIST*
G04 Aperture macros list*
%AMRoundRect*
0 Rectangle with rounded corners*
0 $1 Rounding radius*
0 $2 $3 $4 $5 $6 $7 $8 $9 X,Y pos of 4 corners*
0 Add a 4 corners polygon primitive as box body*
4,1,4,$2,$3,$4,$5,$6,$7,$8,$9,$2,$3,0*
0 Add four circle primitives for the rounded corners*
1,1,$1+$1,$2,$3*
1,1,$1+$1,$4,$5*
1,1,$1+$1,$6,$7*
1,1,$1+$1,$8,$9*
0 Add four rect primitives between the rounded corners*
20,1,$1+$1,$2,$3,$4,$5,0*
20,1,$1+$1,$4,$5,$6,$7,0*
20,1,$1+$1,$6,$7,$8,$9,0*
20,1,$1+$1,$8,$9,$2,$3,0*%
G04 Aperture macros list end*
%ADD10R,3.940000X5.840000*%
%ADD11R,0.510000X0.600000*%
%ADD12RoundRect,0.020000X0.180000X-0.575000X0.180000X0.575000X-0.180000X0.575000X-0.180000X-0.575000X0*%
%ADD13RoundRect,0.250000X0.625000X-0.312500X0.625000X0.312500X-0.625000X0.312500X-0.625000X-0.312500X0*%
%ADD14RoundRect,0.200000X-0.200000X-0.275000X0.200000X-0.275000X0.200000X0.275000X-0.200000X0.275000X0*%
%ADD15R,4.550000X5.250000*%
%ADD16R,4.600000X1.100000*%
%ADD17RoundRect,0.250000X0.650000X-0.325000X0.650000X0.325000X-0.650000X0.325000X-0.650000X-0.325000X0*%
%ADD18R,2.400000X0.740000*%
%ADD19RoundRect,0.200000X0.275000X-0.200000X0.275000X0.200000X-0.275000X0.200000X-0.275000X-0.200000X0*%
%ADD20RoundRect,0.200000X0.200000X0.275000X-0.200000X0.275000X-0.200000X-0.275000X0.200000X-0.275000X0*%
G04 APERTURE END LIST*
D10*
%TO.C,R4*%
X133042200Y-103124000D03*
D11*
X131327200Y-106324000D03*
D10*
X142192200Y-103124000D03*
D11*
X143907200Y-106324000D03*
%TD*%
D12*
%TO.C,U3*%
X116393200Y-111343200D03*
X117043200Y-111343200D03*
X117693200Y-111343200D03*
X117693200Y-109423200D03*
X117043200Y-109423200D03*
X116393200Y-109423200D03*
%TD*%
D13*
%TO.C,C9*%
X103463000Y-111469900D03*
X103463000Y-108544900D03*
%TD*%
%TO.C,C3*%
X129489200Y-111886900D03*
X129489200Y-108961900D03*
%TD*%
%TO.C,C4*%
X111633000Y-111876300D03*
X111633000Y-108951300D03*
%TD*%
D14*
%TO.C,R6*%
X146380200Y-96545400D03*
X148030200Y-96545400D03*
%TD*%
D12*
%TO.C,U4*%
X137272000Y-111353800D03*
X137922000Y-111353800D03*
X138572000Y-111353800D03*
X138572000Y-109433800D03*
X137922000Y-109433800D03*
X137272000Y-109433800D03*
%TD*%
D15*
%TO.C,U2*%
X92048200Y-110826600D03*
X87198200Y-105276600D03*
X92048200Y-105276600D03*
X87198200Y-110826600D03*
D16*
X98773200Y-111451600D03*
X98773200Y-109751600D03*
X98773200Y-108051600D03*
X98773200Y-106351600D03*
X98773200Y-104651600D03*
%TD*%
D13*
%TO.C,C7*%
X131953000Y-111886900D03*
X131953000Y-108961900D03*
%TD*%
%TO.C,C8*%
X109143800Y-111876300D03*
X109143800Y-108951300D03*
%TD*%
%TO.C,C2*%
X143687800Y-111886900D03*
X143687800Y-108961900D03*
%TD*%
D17*
%TO.C,C10*%
X107654000Y-105437200D03*
X107654000Y-102487200D03*
%TD*%
D13*
%TO.C,C1*%
X122555000Y-111876300D03*
X122555000Y-108951300D03*
%TD*%
D14*
%TO.C,R7*%
X133617200Y-96545400D03*
X135267200Y-96545400D03*
%TD*%
D18*
%TO.C,J3*%
X97327000Y-96951800D03*
X93427000Y-96951800D03*
X97327000Y-95681800D03*
X93427000Y-95681800D03*
X97327000Y-94411800D03*
X93427000Y-94411800D03*
X97327000Y-93141800D03*
X93427000Y-93141800D03*
X97327000Y-91871800D03*
X93427000Y-91871800D03*
%TD*%
D19*
%TO.C,R1*%
X103463000Y-106451400D03*
X103463000Y-104801400D03*
%TD*%
D14*
%TO.C,R8*%
X137020800Y-96545400D03*
X138670800Y-96545400D03*
%TD*%
D13*
%TO.C,C6*%
X146202400Y-111886900D03*
X146202400Y-108961900D03*
%TD*%
%TO.C,C5*%
X124993400Y-111876300D03*
X124993400Y-108951300D03*
%TD*%
D14*
%TO.C,R5*%
X143129000Y-96545400D03*
X144779000Y-96545400D03*
%TD*%
D19*
%TO.C,R2*%
X103437600Y-103352600D03*
X103437600Y-101702600D03*
%TD*%
D20*
%TO.C,R9*%
X131546600Y-96494600D03*
X129896600Y-96494600D03*
%TD*%
D10*
%TO.C,R3*%
X112163400Y-103113400D03*
D11*
X110448400Y-106313400D03*
X123028400Y-106313400D03*
D10*
X121313400Y-103113400D03*
%TD*%
M02*
