M48
; DRILL file {KiCad 6.0.9-8da3e8f707~116~ubuntu22.04.1} date Mi 14 Dez 2022 17:33:08 CET
; FORMAT={-:-/ absolute / inch / decimal}
; #@! TF.CreationDate,2022-12-14T17:33:08+01:00
; #@! TF.GenerationSoftware,Kicad,Pcbnew,6.0.9-8da3e8f707~116~ubuntu22.04.1
; #@! TF.FileFunction,Plated,1,2,PTH
FMAT,2
INCH
; #@! TA.AperFunction,Plated,PTH,ViaDrill
T1C0.0157
; #@! TA.AperFunction,Plated,PTH,ComponentDrill
T2C0.0236
; #@! TA.AperFunction,Plated,PTH,ComponentDrill
T3C0.0394
%
G90
G05
T1
X3.419Y-4.102
X3.423Y-4.396
X3.588Y-3.616
X3.592Y-3.718
X3.592Y-3.833
X3.5974Y-3.765
X3.635Y-3.023
X3.639Y-4.103
X3.641Y-4.405
X3.758Y-3.881
X3.814Y-3.403
X3.973Y-3.536
X4.023Y-3.535
X4.05Y-4.578
X4.139Y-3.576
X4.148Y-4.285
X4.1485Y-4.0175
X4.163Y-4.102
X4.168Y-4.691
X4.1834Y-3.9716
X4.215Y-4.633
X4.346Y-4.262
X4.346Y-4.446
X4.432Y-4.336
X4.532Y-2.832
X4.536Y-4.465
X4.536Y-4.574
X4.6037Y-4.4286
X4.6178Y-5.1872
X4.623Y-5.382
X4.673Y-4.335
X4.808Y-3.721
X4.872Y-4.2518
X4.873Y-4.447
X4.878Y-3.721
X4.883Y-4.153
X4.968Y-4.35
X4.982Y-4.428
X4.9901Y-3.7179
X5.01Y-4.215
X5.0323Y-3.6942
X5.042Y-3.434
X5.139Y-4.251
X5.148Y-4.455
X5.176Y-4.5
X5.206Y-3.7353
X5.2531Y-4.3196
X5.361Y-3.856
X5.367Y-4.365
X5.429Y-4.434
X5.462Y-3.859
X5.5536Y-4.4154
X5.707Y-4.247
X5.712Y-4.447
X5.757Y-4.185
X5.7655Y-4.05
X5.809Y-4.045
X5.815Y-3.979
X5.862Y-3.82
X5.8844Y-4.0257
X5.895Y-3.143
X5.9025Y-3.7627
X5.93Y-3.833
T2
X4.23Y-3.334
X4.23Y-3.437
X4.26Y-3.538
X4.283Y-3.232
X4.286Y-3.387
X4.326Y-3.649
X4.391Y-3.435
X4.401Y-3.538
X4.411Y-3.65
X4.434Y-3.333
X4.441Y-3.485
X4.49Y-3.647
X4.64Y-3.658
X4.749Y-3.649
X4.811Y-3.212
X4.88Y-3.651
X4.907Y-3.215
X4.985Y-3.264
X5.098Y-3.221
X5.115Y-3.594
X5.142Y-3.354
X5.27Y-3.587
X5.354Y-3.395
X5.355Y-3.277
X5.54Y-3.214
X5.571Y-3.633
T3
X3.444Y-3.178
X3.444Y-3.278
X3.444Y-3.378
X3.88Y-4.791
X3.88Y-5.487
X3.98Y-4.791
X3.98Y-5.487
X4.08Y-4.791
X4.08Y-5.487
X4.18Y-4.791
X4.18Y-5.487
X4.28Y-4.791
X4.28Y-5.487
X4.38Y-4.791
X4.38Y-5.487
X4.48Y-4.791
X4.48Y-5.487
X4.58Y-4.791
X4.58Y-5.487
X4.68Y-4.791
X4.68Y-5.487
X4.78Y-4.791
X4.78Y-5.487
X4.88Y-4.791
X4.88Y-5.487
X4.98Y-4.791
X4.98Y-5.487
X5.08Y-4.791
X5.08Y-5.487
X5.18Y-4.791
X5.18Y-5.487
X5.28Y-4.791
X5.28Y-5.487
X5.38Y-4.791
X5.38Y-5.487
X5.48Y-4.791
X5.48Y-5.487
X5.58Y-4.791
X5.58Y-5.487
X5.68Y-4.791
X5.68Y-5.487
X5.78Y-4.791
X5.78Y-5.487
T0
M30
