%TF.GenerationSoftware,KiCad,Pcbnew,6.0.9-8da3e8f707~116~ubuntu22.04.1*%
%TF.CreationDate,2022-12-14T18:32:25+01:00*%
%TF.ProjectId,test_fixture,74657374-5f66-4697-9874-7572652e6b69,rev?*%
%TF.SameCoordinates,Original*%
%TF.FileFunction,Copper,L1,Top*%
%TF.FilePolarity,Positive*%
%FSLAX46Y46*%
G04 Gerber Fmt 4.6, Leading zero omitted, Abs format (unit mm)*
G04 Created by KiCad (PCBNEW 6.0.9-8da3e8f707~116~ubuntu22.04.1) date 2022-12-14 18:32:25*
%MOMM*%
%LPD*%
G01*
G04 APERTURE LIST*
G04 Aperture macros list*
%AMRoundRect*
0 Rectangle with rounded corners*
0 $1 Rounding radius*
0 $2 $3 $4 $5 $6 $7 $8 $9 X,Y pos of 4 corners*
0 Add a 4 corners polygon primitive as box body*
4,1,4,$2,$3,$4,$5,$6,$7,$8,$9,$2,$3,0*
0 Add four circle primitives for the rounded corners*
1,1,$1+$1,$2,$3*
1,1,$1+$1,$4,$5*
1,1,$1+$1,$6,$7*
1,1,$1+$1,$8,$9*
0 Add four rect primitives between the rounded corners*
20,1,$1+$1,$2,$3,$4,$5,0*
20,1,$1+$1,$4,$5,$6,$7,0*
20,1,$1+$1,$6,$7,$8,$9,0*
20,1,$1+$1,$8,$9,$2,$3,0*%
%AMFreePoly0*
4,1,22,0.500000,-0.750000,0.000000,-0.750000,0.000000,-0.745033,-0.079941,-0.743568,-0.215256,-0.701293,-0.333266,-0.622738,-0.424486,-0.514219,-0.481581,-0.384460,-0.499164,-0.250000,-0.500000,-0.250000,-0.500000,0.250000,-0.499164,0.250000,-0.499963,0.256109,-0.478152,0.396186,-0.417904,0.524511,-0.324060,0.630769,-0.204165,0.706417,-0.067858,0.745374,0.000000,0.744959,0.000000,0.750000,
0.500000,0.750000,0.500000,-0.750000,0.500000,-0.750000,$1*%
%AMFreePoly1*
4,1,20,0.000000,0.744959,0.073905,0.744508,0.209726,0.703889,0.328688,0.626782,0.421226,0.519385,0.479903,0.390333,0.500000,0.250000,0.500000,-0.250000,0.499851,-0.262216,0.476331,-0.402017,0.414519,-0.529596,0.319384,-0.634700,0.198574,-0.708877,0.061801,-0.746166,0.000000,-0.745033,0.000000,-0.750000,-0.500000,-0.750000,-0.500000,0.750000,0.000000,0.750000,0.000000,0.744959,
0.000000,0.744959,$1*%
G04 Aperture macros list end*
%ADD10C,0.300000*%
%TA.AperFunction,NonConductor*%
%ADD11C,0.300000*%
%TD*%
%TA.AperFunction,SMDPad,CuDef*%
%ADD12R,1.000000X1.500000*%
%TD*%
%TA.AperFunction,SMDPad,CuDef*%
%ADD13C,1.500000*%
%TD*%
%TA.AperFunction,ComponentPad*%
%ADD14C,1.200000*%
%TD*%
%TA.AperFunction,SMDPad,CuDef*%
%ADD15FreePoly0,0.000000*%
%TD*%
%TA.AperFunction,SMDPad,CuDef*%
%ADD16FreePoly1,0.000000*%
%TD*%
%TA.AperFunction,SMDPad,CuDef*%
%ADD17R,3.940000X5.840000*%
%TD*%
%TA.AperFunction,SMDPad,CuDef*%
%ADD18R,0.510000X0.600000*%
%TD*%
%TA.AperFunction,ComponentPad*%
%ADD19C,1.800000*%
%TD*%
%TA.AperFunction,ComponentPad*%
%ADD20C,1.600000*%
%TD*%
%TA.AperFunction,SMDPad,CuDef*%
%ADD21RoundRect,0.020000X0.180000X-0.575000X0.180000X0.575000X-0.180000X0.575000X-0.180000X-0.575000X0*%
%TD*%
%TA.AperFunction,ComponentPad*%
%ADD22R,1.700000X1.700000*%
%TD*%
%TA.AperFunction,ComponentPad*%
%ADD23O,1.700000X1.700000*%
%TD*%
%TA.AperFunction,SMDPad,CuDef*%
%ADD24RoundRect,0.250000X0.625000X-0.312500X0.625000X0.312500X-0.625000X0.312500X-0.625000X-0.312500X0*%
%TD*%
%TA.AperFunction,SMDPad,CuDef*%
%ADD25RoundRect,0.200000X-0.200000X-0.275000X0.200000X-0.275000X0.200000X0.275000X-0.200000X0.275000X0*%
%TD*%
%TA.AperFunction,SMDPad,CuDef*%
%ADD26R,4.600000X1.100000*%
%TD*%
%TA.AperFunction,SMDPad,CuDef*%
%ADD27R,9.400000X10.800000*%
%TD*%
%TA.AperFunction,SMDPad,CuDef*%
%ADD28RoundRect,0.250000X0.650000X-0.325000X0.650000X0.325000X-0.650000X0.325000X-0.650000X-0.325000X0*%
%TD*%
%TA.AperFunction,SMDPad,CuDef*%
%ADD29FreePoly0,180.000000*%
%TD*%
%TA.AperFunction,SMDPad,CuDef*%
%ADD30FreePoly1,180.000000*%
%TD*%
%TA.AperFunction,SMDPad,CuDef*%
%ADD31R,2.400000X0.740000*%
%TD*%
%TA.AperFunction,SMDPad,CuDef*%
%ADD32RoundRect,0.200000X0.275000X-0.200000X0.275000X0.200000X-0.275000X0.200000X-0.275000X-0.200000X0*%
%TD*%
%TA.AperFunction,SMDPad,CuDef*%
%ADD33RoundRect,0.200000X0.200000X0.275000X-0.200000X0.275000X-0.200000X-0.275000X0.200000X-0.275000X0*%
%TD*%
%TA.AperFunction,ViaPad*%
%ADD34C,0.800000*%
%TD*%
%TA.AperFunction,Conductor*%
%ADD35C,0.250000*%
%TD*%
%TA.AperFunction,Conductor*%
%ADD36C,1.000000*%
%TD*%
%TA.AperFunction,Conductor*%
%ADD37C,0.400000*%
%TD*%
G04 APERTURE END LIST*
D10*
D11*
X87438542Y-72278761D02*
X87438542Y-70278761D01*
X87795685Y-70278761D01*
X88009971Y-70374000D01*
X88152828Y-70564476D01*
X88224257Y-70754952D01*
X88295685Y-71135904D01*
X88295685Y-71421619D01*
X88224257Y-71802571D01*
X88152828Y-71993047D01*
X88009971Y-72183523D01*
X87795685Y-72278761D01*
X87438542Y-72278761D01*
X88938542Y-72278761D02*
X88938542Y-70945428D01*
X88938542Y-70278761D02*
X88867114Y-70374000D01*
X88938542Y-70469238D01*
X89009971Y-70374000D01*
X88938542Y-70278761D01*
X88938542Y-70469238D01*
X90295685Y-72183523D02*
X90152828Y-72278761D01*
X89867114Y-72278761D01*
X89724257Y-72183523D01*
X89652828Y-72088285D01*
X89581400Y-71897809D01*
X89581400Y-71326380D01*
X89652828Y-71135904D01*
X89724257Y-71040666D01*
X89867114Y-70945428D01*
X90152828Y-70945428D01*
X90295685Y-71040666D01*
X90724257Y-70945428D02*
X91295685Y-70945428D01*
X90938542Y-70278761D02*
X90938542Y-71993047D01*
X91009971Y-72183523D01*
X91152828Y-72278761D01*
X91295685Y-72278761D01*
X92009971Y-72278761D02*
X91867114Y-72183523D01*
X91795685Y-72088285D01*
X91724257Y-71897809D01*
X91724257Y-71326380D01*
X91795685Y-71135904D01*
X91867114Y-71040666D01*
X92009971Y-70945428D01*
X92224257Y-70945428D01*
X92367114Y-71040666D01*
X92438542Y-71135904D01*
X92509971Y-71326380D01*
X92509971Y-71897809D01*
X92438542Y-72088285D01*
X92367114Y-72183523D01*
X92224257Y-72278761D01*
X92009971Y-72278761D01*
X92938542Y-70945428D02*
X93509971Y-70945428D01*
X93152828Y-72278761D02*
X93152828Y-70564476D01*
X93224257Y-70374000D01*
X93367114Y-70278761D01*
X93509971Y-70278761D01*
X94652828Y-70945428D02*
X94652828Y-72278761D01*
X94009971Y-70945428D02*
X94009971Y-71993047D01*
X94081400Y-72183523D01*
X94224257Y-72278761D01*
X94438542Y-72278761D01*
X94581400Y-72183523D01*
X94652828Y-72088285D01*
X95367114Y-70945428D02*
X95367114Y-72278761D01*
X95367114Y-71135904D02*
X95438542Y-71040666D01*
X95581400Y-70945428D01*
X95795685Y-70945428D01*
X95938542Y-71040666D01*
X96009971Y-71231142D01*
X96009971Y-72278761D01*
X96724257Y-71516857D02*
X97867114Y-71516857D01*
X99081400Y-71231142D02*
X98581400Y-71231142D01*
X98581400Y-72278761D02*
X98581400Y-70278761D01*
X99295685Y-70278761D01*
X99867114Y-72278761D02*
X99867114Y-70945428D01*
X99867114Y-70278761D02*
X99795685Y-70374000D01*
X99867114Y-70469238D01*
X99938542Y-70374000D01*
X99867114Y-70278761D01*
X99867114Y-70469238D01*
X100438542Y-72278761D02*
X101224257Y-70945428D01*
X100438542Y-70945428D02*
X101224257Y-72278761D01*
X101581400Y-70945428D02*
X102152828Y-70945428D01*
X101795685Y-70278761D02*
X101795685Y-71993047D01*
X101867114Y-72183523D01*
X102009971Y-72278761D01*
X102152828Y-72278761D01*
X103295685Y-70945428D02*
X103295685Y-72278761D01*
X102652828Y-70945428D02*
X102652828Y-71993047D01*
X102724257Y-72183523D01*
X102867114Y-72278761D01*
X103081400Y-72278761D01*
X103224257Y-72183523D01*
X103295685Y-72088285D01*
X104009971Y-72278761D02*
X104009971Y-70945428D01*
X104009971Y-71326380D02*
X104081400Y-71135904D01*
X104152828Y-71040666D01*
X104295685Y-70945428D01*
X104438542Y-70945428D01*
X105509971Y-72183523D02*
X105367114Y-72278761D01*
X105081400Y-72278761D01*
X104938542Y-72183523D01*
X104867114Y-71993047D01*
X104867114Y-71231142D01*
X104938542Y-71040666D01*
X105081400Y-70945428D01*
X105367114Y-70945428D01*
X105509971Y-71040666D01*
X105581400Y-71231142D01*
X105581400Y-71421619D01*
X104867114Y-71612095D01*
X108152828Y-72278761D02*
X107295685Y-72278761D01*
X107724257Y-72278761D02*
X107724257Y-70278761D01*
X107581400Y-70564476D01*
X107438542Y-70754952D01*
X107295685Y-70850190D01*
X108795685Y-72088285D02*
X108867114Y-72183523D01*
X108795685Y-72278761D01*
X108724257Y-72183523D01*
X108795685Y-72088285D01*
X108795685Y-72278761D01*
X109367114Y-70278761D02*
X110295685Y-70278761D01*
X109795685Y-71040666D01*
X110009971Y-71040666D01*
X110152828Y-71135904D01*
X110224257Y-71231142D01*
X110295685Y-71421619D01*
X110295685Y-71897809D01*
X110224257Y-72088285D01*
X110152828Y-72183523D01*
X110009971Y-72278761D01*
X109581400Y-72278761D01*
X109438542Y-72183523D01*
X109367114Y-72088285D01*
%TO.C,JP5*%
G36*
X107158600Y-99787000D02*
G01*
X106658600Y-99787000D01*
X106658600Y-99387000D01*
X107158600Y-99387000D01*
X107158600Y-99787000D01*
G37*
G36*
X107158600Y-98987000D02*
G01*
X106658600Y-98987000D01*
X106658600Y-98587000D01*
X107158600Y-98587000D01*
X107158600Y-98987000D01*
G37*
%TO.C,JP1*%
G36*
X114611200Y-112334600D02*
G01*
X114111200Y-112334600D01*
X114111200Y-111934600D01*
X114611200Y-111934600D01*
X114611200Y-112334600D01*
G37*
G36*
X114611200Y-111534600D02*
G01*
X114111200Y-111534600D01*
X114111200Y-111134600D01*
X114611200Y-111134600D01*
X114611200Y-111534600D01*
G37*
%TO.C,JP6*%
G36*
X114677000Y-109616800D02*
G01*
X114177000Y-109616800D01*
X114177000Y-109216800D01*
X114677000Y-109216800D01*
X114677000Y-109616800D01*
G37*
G36*
X114677000Y-108816800D02*
G01*
X114177000Y-108816800D01*
X114177000Y-108416800D01*
X114677000Y-108416800D01*
X114677000Y-108816800D01*
G37*
%TO.C,JP3*%
G36*
X119949800Y-111534600D02*
G01*
X119449800Y-111534600D01*
X119449800Y-111134600D01*
X119949800Y-111134600D01*
X119949800Y-111534600D01*
G37*
G36*
X119949800Y-112334600D02*
G01*
X119449800Y-112334600D01*
X119449800Y-111934600D01*
X119949800Y-111934600D01*
X119949800Y-112334600D01*
G37*
%TD*%
D12*
%TO.P,JP5,1,A*%
%TO.N,VDD*%
X106258600Y-99187000D03*
%TO.P,JP5,2,B*%
%TO.N,Net-(JP5-Pad2)*%
X107558600Y-99187000D03*
%TD*%
D13*
%TO.P,BUTTON1,1,1*%
%TO.N,/BUTTON*%
X135473440Y-71907400D03*
%TD*%
D14*
%TO.P,POGO8,1,Pin_1*%
%TO.N,/FF_D*%
X129489200Y-81813400D03*
%TD*%
%TO.P,POGO13,1,Pin_1*%
%TO.N,/BATT+*%
X136017000Y-83235800D03*
%TD*%
D13*
%TO.P,GND1,1,1*%
%TO.N,GND*%
X92811600Y-81254600D03*
%TD*%
D14*
%TO.P,POGO12,1,Pin_1*%
%TO.N,/I2C_DATA*%
X129921000Y-91287600D03*
%TD*%
D15*
%TO.P,JP8,1,A*%
%TO.N,/CURRENT_SENSE_OUTPUT*%
X134224000Y-108798800D03*
D16*
%TO.P,JP8,2,B*%
%TO.N,Net-(JP8-Pad2)*%
X135524000Y-108798800D03*
%TD*%
D17*
%TO.P,R4,1*%
%TO.N,Net-(JP7-Pad2)*%
X133042200Y-103124000D03*
D18*
X131327200Y-106324000D03*
D17*
%TO.P,R4,2*%
%TO.N,/BATT+*%
X142192200Y-103124000D03*
D18*
X143907200Y-106324000D03*
%TD*%
D19*
%TO.P,U1,1,GP0*%
%TO.N,/UART_RX*%
X98552000Y-139370600D03*
%TO.P,U1,2,GP1*%
%TO.N,/UART_TX*%
X101092000Y-139370600D03*
%TO.P,U1,3,GND*%
%TO.N,GND*%
X103632000Y-139370600D03*
%TO.P,U1,4,GP2*%
%TO.N,/RESET*%
X106172000Y-139370600D03*
%TO.P,U1,5,GP3*%
%TO.N,/SWDCLK*%
X108712000Y-139370600D03*
%TO.P,U1,6,GP4*%
%TO.N,/SWDIO*%
X111252000Y-139370600D03*
%TO.P,U1,7,GP5*%
%TO.N,/BUTTON_DIVIDED*%
X113792000Y-139370600D03*
D20*
%TO.P,U1,8,GND*%
%TO.N,GND*%
X116332000Y-139370600D03*
%TO.P,U1,9,GP6*%
%TO.N,Net-(U1-Pad9)*%
X118872000Y-139370600D03*
%TO.P,U1,10,GP7*%
%TO.N,unconnected-(U1-Pad10)*%
X121412000Y-139370600D03*
%TO.P,U1,11,GP8*%
%TO.N,unconnected-(U1-Pad11)*%
X123952000Y-139370600D03*
%TO.P,U1,12,GP9*%
%TO.N,unconnected-(U1-Pad12)*%
X126492000Y-139370600D03*
%TO.P,U1,13,GND*%
%TO.N,GND*%
X129032000Y-139370600D03*
%TO.P,U1,14,GP10*%
%TO.N,/PDM_DATA*%
X131572000Y-139370600D03*
%TO.P,U1,15,GP11*%
%TO.N,/PDM_CLK*%
X134112000Y-139370600D03*
%TO.P,U1,16,GP12*%
%TO.N,unconnected-(U1-Pad16)*%
X136652000Y-139370600D03*
%TO.P,U1,17,GP13*%
%TO.N,unconnected-(U1-Pad17)*%
X139192000Y-139370600D03*
%TO.P,U1,18,GND*%
%TO.N,GND*%
X141732000Y-139370600D03*
%TO.P,U1,19,GP14*%
%TO.N,unconnected-(U1-Pad19)*%
X144272000Y-139370600D03*
%TO.P,U1,20,GP15*%
%TO.N,unconnected-(U1-Pad20)*%
X146812000Y-139370600D03*
%TO.P,U1,21,GP16*%
%TO.N,/SWO*%
X146812000Y-121690600D03*
%TO.P,U1,22,GP17*%
%TO.N,/VTREF*%
X144272000Y-121690600D03*
%TO.P,U1,23,GND*%
%TO.N,GND*%
X141732000Y-121690600D03*
%TO.P,U1,24,GP18*%
%TO.N,/I2C_CLK*%
X139192000Y-121690600D03*
%TO.P,U1,25,GP19*%
%TO.N,/I2C_DATA*%
X136652000Y-121690600D03*
%TO.P,U1,26,GP20*%
%TO.N,/FF_CLK*%
X134112000Y-121690600D03*
%TO.P,U1,27,GP21*%
%TO.N,/FF_D*%
X131572000Y-121690600D03*
%TO.P,U1,28,GND*%
%TO.N,GND*%
X129032000Y-121690600D03*
%TO.P,U1,29,GP22*%
%TO.N,/FF_Q*%
X126492000Y-121690600D03*
%TO.P,U1,30,~{RUN}*%
%TO.N,unconnected-(U1-Pad30)*%
X123952000Y-121690600D03*
%TO.P,U1,31,GP26*%
%TO.N,/CURRENT_SENSE_OUTPUT*%
X121412000Y-121690600D03*
%TO.P,U1,32,GP27*%
%TO.N,/DEC_CAP*%
X118872000Y-121690600D03*
%TO.P,U1,33,AGND*%
%TO.N,GNDA*%
X116332000Y-121690600D03*
%TO.P,U1,34,GP28*%
%TO.N,/SENSE_3_3V*%
X113792000Y-121690600D03*
%TO.P,U1,35,ADC_VREF*%
%TO.N,+3.3VADC*%
X111252000Y-121690600D03*
%TO.P,U1,36,3V3_OUT*%
%TO.N,+3.3V*%
X108712000Y-121690600D03*
%TO.P,U1,37,3V3_EN*%
%TO.N,unconnected-(U1-Pad37)*%
X106172000Y-121690600D03*
%TO.P,U1,38,GND*%
%TO.N,GND*%
X103632000Y-121690600D03*
%TO.P,U1,39,VSYS*%
%TO.N,+5V*%
X101092000Y-121690600D03*
%TO.P,U1,40,VBUS*%
%TO.N,unconnected-(U1-Pad40)*%
X98552000Y-121690600D03*
%TD*%
D13*
%TO.P,GND2,1,1*%
%TO.N,GND*%
X149758400Y-79832200D03*
%TD*%
D21*
%TO.P,U3,1*%
%TO.N,Net-(JP1-Pad2)*%
X116393200Y-111343200D03*
%TO.P,U3,2*%
%TO.N,GNDA*%
X117043200Y-111343200D03*
%TO.P,U3,3*%
%TO.N,Net-(JP3-Pad2)*%
X117693200Y-111343200D03*
%TO.P,U3,4*%
%TO.N,/BATT+*%
X117693200Y-109423200D03*
%TO.P,U3,5*%
%TO.N,Net-(JP5-Pad2)*%
X117043200Y-109423200D03*
%TO.P,U3,6*%
%TO.N,Net-(JP6-Pad2)*%
X116393200Y-109423200D03*
%TD*%
D14*
%TO.P,POGO25,1,Pin_1*%
%TO.N,/PDM_DATA*%
X109880400Y-92684600D03*
%TD*%
%TO.P,POGO2,1,Pin_1*%
%TO.N,/VTREF*%
X108204000Y-89865200D03*
%TD*%
D22*
%TO.P,J1,1,Pin_1*%
%TO.N,GND*%
X87477600Y-80721200D03*
D23*
%TO.P,J1,2,Pin_2*%
%TO.N,/UART_TX*%
X87477600Y-83261200D03*
%TO.P,J1,3,Pin_3*%
%TO.N,/UART_RX*%
X87477600Y-85801200D03*
%TD*%
D14*
%TO.P,POGO22,1,Pin_1*%
%TO.N,/SWDIO*%
X111785400Y-89865200D03*
%TD*%
D24*
%TO.P,C9,1*%
%TO.N,+5V*%
X103463000Y-111469900D03*
%TO.P,C9,2*%
%TO.N,GND*%
X103463000Y-108544900D03*
%TD*%
D14*
%TO.P,POGO7,1,Pin_1*%
%TO.N,/BUTTON*%
X133858000Y-91109800D03*
%TD*%
%TO.P,POGO6,1,Pin_1*%
%TO.N,GND*%
X124637800Y-81661000D03*
%TD*%
D24*
%TO.P,C3,1*%
%TO.N,+3.3VADC*%
X129489200Y-111886900D03*
%TO.P,C3,2*%
%TO.N,GNDA*%
X129489200Y-108961900D03*
%TD*%
%TO.P,C4,1*%
%TO.N,+3.3VADC*%
X111633000Y-111876300D03*
%TO.P,C4,2*%
%TO.N,GNDA*%
X111633000Y-108951300D03*
%TD*%
D25*
%TO.P,R6,1*%
%TO.N,/SENSE_3_3V*%
X146380200Y-96545400D03*
%TO.P,R6,2*%
%TO.N,GND*%
X148030200Y-96545400D03*
%TD*%
D14*
%TO.P,POGO3,1,Pin_1*%
%TO.N,GND*%
X107442000Y-87299800D03*
%TD*%
D21*
%TO.P,U4,1*%
%TO.N,Net-(JP2-Pad2)*%
X137272000Y-111353800D03*
%TO.P,U4,2*%
%TO.N,GNDA*%
X137922000Y-111353800D03*
%TO.P,U4,3*%
%TO.N,Net-(JP4-Pad2)*%
X138572000Y-111353800D03*
%TO.P,U4,4*%
%TO.N,/BATT+*%
X138572000Y-109433800D03*
%TO.P,U4,5*%
%TO.N,Net-(JP7-Pad2)*%
X137922000Y-109433800D03*
%TO.P,U4,6*%
%TO.N,Net-(JP8-Pad2)*%
X137272000Y-109433800D03*
%TD*%
D13*
%TO.P,PDM_CLK1,1,1*%
%TO.N,/PDM_CLK*%
X110286800Y-96520000D03*
%TD*%
%TO.P,BATT+1,1,1*%
%TO.N,/BATT+*%
X140533120Y-71907400D03*
%TD*%
D26*
%TO.P,U2,1,EN*%
%TO.N,+5V*%
X98773200Y-111451600D03*
%TO.P,U2,2,VIN*%
X98773200Y-109751600D03*
D27*
%TO.P,U2,3,GND*%
%TO.N,GND*%
X89623200Y-108051600D03*
D26*
X98773200Y-108051600D03*
%TO.P,U2,4,VOUT*%
%TO.N,VDD*%
X98773200Y-106351600D03*
%TO.P,U2,5,ADJ*%
%TO.N,Net-(R1-Pad2)*%
X98773200Y-104651600D03*
%TD*%
D13*
%TO.P,FF_Q1,1,1*%
%TO.N,/FF_Q*%
X130413760Y-71907400D03*
%TD*%
D14*
%TO.P,POGO15,1,Pin_1*%
%TO.N,/FF_Q*%
X130606800Y-85191600D03*
%TD*%
D24*
%TO.P,C7,1*%
%TO.N,+3.3VADC*%
X131953000Y-111886900D03*
%TO.P,C7,2*%
%TO.N,GNDA*%
X131953000Y-108961900D03*
%TD*%
%TO.P,C8,1*%
%TO.N,+3.3VADC*%
X109143800Y-111876300D03*
%TO.P,C8,2*%
%TO.N,GNDA*%
X109143800Y-108951300D03*
%TD*%
D14*
%TO.P,POGO19,1,Pin_1*%
%TO.N,/BATT+*%
X140716000Y-81635600D03*
%TD*%
D15*
%TO.P,JP2,1,A*%
%TO.N,+3.3VADC*%
X134376400Y-112431000D03*
D16*
%TO.P,JP2,2,B*%
%TO.N,Net-(JP2-Pad2)*%
X135676400Y-112431000D03*
%TD*%
D14*
%TO.P,POGO23,1,Pin_1*%
%TO.N,/SWO*%
X111531400Y-87249000D03*
%TD*%
D13*
%TO.P,PDM_DATA1,1,1*%
%TO.N,/PDM_DATA*%
X104140000Y-97358200D03*
%TD*%
%TO.P,FF_CLK1,1,1*%
%TO.N,/FF_CLK*%
X113728500Y-96520000D03*
%TD*%
D12*
%TO.P,JP1,1,A*%
%TO.N,+3.3VADC*%
X113711200Y-111734600D03*
%TO.P,JP1,2,B*%
%TO.N,Net-(JP1-Pad2)*%
X115011200Y-111734600D03*
%TD*%
D24*
%TO.P,C2,1*%
%TO.N,+3.3V*%
X143687800Y-111886900D03*
%TO.P,C2,2*%
%TO.N,GNDA*%
X143687800Y-108961900D03*
%TD*%
D14*
%TO.P,POGO21,1,Pin_1*%
%TO.N,/SWDCLK*%
X112801400Y-88519000D03*
%TD*%
D28*
%TO.P,C10,1*%
%TO.N,VDD*%
X107654000Y-105437200D03*
%TO.P,C10,2*%
%TO.N,GND*%
X107654000Y-102487200D03*
%TD*%
D14*
%TO.P,POGO16,1,Pin_1*%
%TO.N,/P3.3V*%
X141503400Y-92278200D03*
%TD*%
%TO.P,POGO11,1,Pin_1*%
%TO.N,/I2C_CLK*%
X123952000Y-92735400D03*
%TD*%
%TO.P,POGO14,1,Pin_1*%
%TO.N,GND*%
X108788200Y-82092800D03*
%TD*%
%TO.P,POGO20,1,Pin_1*%
%TO.N,/RESET*%
X112623600Y-84658200D03*
%TD*%
D12*
%TO.P,JP6,1,A*%
%TO.N,/CURRENT_SENSE_OUTPUT*%
X113777000Y-109016800D03*
%TO.P,JP6,2,B*%
%TO.N,Net-(JP6-Pad2)*%
X115077000Y-109016800D03*
%TD*%
D15*
%TO.P,JP7,1,A*%
%TO.N,VDD*%
X128331200Y-105547600D03*
D16*
%TO.P,JP7,2,B*%
%TO.N,Net-(JP7-Pad2)*%
X129631200Y-105547600D03*
%TD*%
D29*
%TO.P,JP4,1,A*%
%TO.N,+3.3V*%
X141061200Y-112151600D03*
D30*
%TO.P,JP4,2,B*%
%TO.N,Net-(JP4-Pad2)*%
X139761200Y-112151600D03*
%TD*%
D14*
%TO.P,POGO10,1,Pin_1*%
%TO.N,/FF_CLK*%
X114046000Y-92633800D03*
%TD*%
%TO.P,POGO1,1,Pin_1*%
%TO.N,/UART_RX*%
X126619000Y-82905600D03*
%TD*%
D13*
%TO.P,DEC_CAP1,1,1*%
%TO.N,/DEC_CAP*%
X117170200Y-96520000D03*
%TD*%
D24*
%TO.P,C1,1*%
%TO.N,+3.3V*%
X122555000Y-111876300D03*
%TO.P,C1,2*%
%TO.N,GNDA*%
X122555000Y-108951300D03*
%TD*%
D25*
%TO.P,R7,1*%
%TO.N,/BUTTON*%
X133617200Y-96545400D03*
%TO.P,R7,2*%
%TO.N,/BUTTON_DIVIDED*%
X135267200Y-96545400D03*
%TD*%
D14*
%TO.P,J6,1,Pin_1*%
%TO.N,GND*%
X135991600Y-86233000D03*
%TD*%
D31*
%TO.P,J3,1,VTref*%
%TO.N,/VTREF*%
X97327000Y-96951800D03*
%TO.P,J3,2,SWDIO/TMS*%
%TO.N,/SWDIO*%
X93427000Y-96951800D03*
%TO.P,J3,3,GND*%
%TO.N,GND*%
X97327000Y-95681800D03*
%TO.P,J3,4,SWDCLK/TCK*%
%TO.N,/SWDCLK*%
X93427000Y-95681800D03*
%TO.P,J3,5,GND*%
%TO.N,GND*%
X97327000Y-94411800D03*
%TO.P,J3,6,SWO/TDO*%
%TO.N,/SWO*%
X93427000Y-94411800D03*
%TO.P,J3,7,KEY*%
%TO.N,unconnected-(J3-Pad7)*%
X97327000Y-93141800D03*
%TO.P,J3,8,NC/TDI*%
%TO.N,Net-(J3-Pad8)*%
X93427000Y-93141800D03*
%TO.P,J3,9,GNDDetect*%
%TO.N,GND*%
X97327000Y-91871800D03*
%TO.P,J3,10,~{RESET}*%
%TO.N,/RESET*%
X93427000Y-91871800D03*
%TD*%
D12*
%TO.P,JP3,1,A*%
%TO.N,+3.3V*%
X120349800Y-111734600D03*
%TO.P,JP3,2,B*%
%TO.N,Net-(JP3-Pad2)*%
X119049800Y-111734600D03*
%TD*%
D14*
%TO.P,J5,1,Pin_1*%
%TO.N,GND*%
X120624600Y-92684600D03*
%TD*%
D32*
%TO.P,R1,1*%
%TO.N,VDD*%
X103463000Y-106451400D03*
%TO.P,R1,2*%
%TO.N,Net-(R1-Pad2)*%
X103463000Y-104801400D03*
%TD*%
D25*
%TO.P,R8,1*%
%TO.N,/BUTTON_DIVIDED*%
X137020800Y-96545400D03*
%TO.P,R8,2*%
%TO.N,GND*%
X138670800Y-96545400D03*
%TD*%
D13*
%TO.P,I2C_SDA1,1,1*%
%TO.N,/I2C_DATA*%
X120294400Y-71907400D03*
%TD*%
%TO.P,P3.3V1,1,1*%
%TO.N,/P3.3V*%
X145592800Y-71907400D03*
%TD*%
D24*
%TO.P,C6,1*%
%TO.N,+3.3V*%
X146202400Y-111886900D03*
%TO.P,C6,2*%
%TO.N,GNDA*%
X146202400Y-108961900D03*
%TD*%
D14*
%TO.P,POGO24,1,Pin_1*%
%TO.N,/PDM_CLK*%
X112039400Y-92710000D03*
%TD*%
D24*
%TO.P,C5,1*%
%TO.N,+3.3V*%
X124993400Y-111876300D03*
%TO.P,C5,2*%
%TO.N,GNDA*%
X124993400Y-108951300D03*
%TD*%
D14*
%TO.P,POGO17,1,Pin_1*%
%TO.N,/DEC_CAP*%
X117856000Y-92913200D03*
%TD*%
D13*
%TO.P,FF_D1,1,1*%
%TO.N,/FF_D*%
X125354080Y-71907400D03*
%TD*%
D14*
%TO.P,POGO4,1,Pin_1*%
%TO.N,GND*%
X107442000Y-84683600D03*
%TD*%
%TO.P,POGO5,1,Pin_1*%
%TO.N,/UART_TX*%
X122199400Y-81584800D03*
%TD*%
D25*
%TO.P,R5,1*%
%TO.N,/P3.3V*%
X143129000Y-96545400D03*
%TO.P,R5,2*%
%TO.N,/SENSE_3_3V*%
X144779000Y-96545400D03*
%TD*%
D13*
%TO.P,I2C_CLK1,1,1*%
%TO.N,/I2C_CLK*%
X115234720Y-71907400D03*
%TD*%
D32*
%TO.P,R2,1*%
%TO.N,Net-(R1-Pad2)*%
X103437600Y-103352600D03*
%TO.P,R2,2*%
%TO.N,GND*%
X103437600Y-101702600D03*
%TD*%
D14*
%TO.P,POGO18,1,Pin_1*%
%TO.N,Net-(J3-Pad8)*%
X108864400Y-86029800D03*
%TD*%
D33*
%TO.P,R9,1*%
%TO.N,/BUTTON*%
X131546600Y-96494600D03*
%TO.P,R9,2*%
%TO.N,Net-(U1-Pad9)*%
X129896600Y-96494600D03*
%TD*%
D17*
%TO.P,R3,1*%
%TO.N,Net-(JP5-Pad2)*%
X112163400Y-103113400D03*
D18*
X110448400Y-106313400D03*
%TO.P,R3,2*%
%TO.N,/BATT+*%
X123028400Y-106313400D03*
D17*
X121313400Y-103113400D03*
%TD*%
D34*
%TO.N,/VTREF*%
X95453200Y-98577400D03*
X107061000Y-117678200D03*
%TO.N,/SWDIO*%
X91236800Y-97358200D03*
%TO.N,/SWDCLK*%
X91373856Y-95631000D03*
X102870000Y-116281200D03*
%TO.N,/SWO*%
X91236800Y-94437200D03*
X105130600Y-90830400D03*
X105867200Y-119151400D03*
%TO.N,/RESET*%
X91135200Y-91846400D03*
%TO.N,/FF_Q*%
X127820072Y-93831941D03*
X146444300Y-102870000D03*
%TO.N,/DEC_CAP*%
X124028200Y-105486200D03*
X118694200Y-110109000D03*
%TO.N,Net-(J3-Pad8)*%
X96875600Y-86436200D03*
%TO.N,GND*%
X149733000Y-79832200D03*
X100914200Y-89814400D03*
X102184200Y-89789000D03*
X86944200Y-111658400D03*
X86842600Y-104190800D03*
X117424200Y-136702800D03*
X105359200Y-108839000D03*
X92481400Y-111887000D03*
X138734800Y-98018600D03*
X146227800Y-106299000D03*
X92430600Y-104216200D03*
X92811600Y-81254600D03*
X105371900Y-102044500D03*
X148894800Y-97028000D03*
X147701000Y-101066600D03*
%TO.N,+3.3V*%
X145084800Y-112953800D03*
X115214400Y-113411000D03*
X141061200Y-112151600D03*
X123774200Y-112953800D03*
X136321800Y-110871000D03*
%TO.N,GNDA*%
X116933306Y-112486494D03*
X130530600Y-107975400D03*
X110388400Y-108254800D03*
X144957800Y-107873800D03*
X137896600Y-112623600D03*
X123748835Y-107996049D03*
%TO.N,+3.3VADC*%
X110388400Y-112928400D03*
X130759200Y-113157000D03*
%TO.N,VDD*%
X127254000Y-107061000D03*
X105740200Y-104190800D03*
X106258600Y-100878400D03*
%TO.N,/CURRENT_SENSE_OUTPUT*%
X112572800Y-110134400D03*
X133429447Y-109716597D03*
X115214400Y-116179600D03*
X131470400Y-114300000D03*
%TO.N,/I2C_CLK*%
X115112800Y-71932800D03*
X150622000Y-97358200D03*
%TO.N,/I2C_DATA*%
X128066800Y-87223600D03*
X149924662Y-95573034D03*
%TO.N,/PDM_CLK*%
X123901200Y-94513400D03*
%TO.N,/PDM_DATA*%
X122123200Y-94513400D03*
%TO.N,/BUTTON*%
X132232400Y-94876300D03*
%TO.N,/FF_CLK*%
X149463131Y-102252930D03*
%TO.N,/FF_D*%
X147548600Y-102743000D03*
X126749300Y-94434975D03*
%TO.N,/BUTTON_DIVIDED*%
X126542800Y-112471200D03*
X136169400Y-97942400D03*
%TO.N,Net-(U1-Pad9)*%
X117291145Y-131754766D03*
X126187200Y-110490000D03*
%TD*%
D35*
%TO.N,/UART_RX*%
X99237800Y-85013800D02*
X101008600Y-83243000D01*
X87477600Y-85801200D02*
X95453200Y-85801200D01*
X96240600Y-85013800D02*
X99237800Y-85013800D01*
X101008600Y-83243000D02*
X126281600Y-83243000D01*
X95453200Y-85801200D02*
X96240600Y-85013800D01*
X126281600Y-83243000D02*
X126619000Y-82905600D01*
%TO.N,/VTREF*%
X97327000Y-96951800D02*
X95834200Y-96951800D01*
X108915200Y-124155200D02*
X107950000Y-123190000D01*
X95453200Y-97332800D02*
X95453200Y-98577400D01*
X97327000Y-96951800D02*
X98679000Y-96951800D01*
X107587000Y-122827000D02*
X107587000Y-118204200D01*
X95834200Y-96951800D02*
X95631000Y-97155000D01*
X101498400Y-94132400D02*
X101498400Y-91871800D01*
X107950000Y-123190000D02*
X107587000Y-122827000D01*
X98679000Y-96951800D02*
X101498400Y-94132400D01*
X95631000Y-97155000D02*
X95453200Y-97332800D01*
X141807400Y-124155200D02*
X110134400Y-124155200D01*
X107587000Y-118204200D02*
X107061000Y-117678200D01*
X103505000Y-89865200D02*
X108204000Y-89865200D01*
X95453200Y-98577400D02*
X95453200Y-98704400D01*
X101498400Y-91871800D02*
X103505000Y-89865200D01*
X110134400Y-124155200D02*
X108915200Y-124155200D01*
X144272000Y-121690600D02*
X141807400Y-124155200D01*
%TO.N,/SWDIO*%
X110744000Y-88823800D02*
X111785400Y-89865200D01*
X91643200Y-96951800D02*
X91236800Y-97358200D01*
X95681800Y-95808800D02*
X95681800Y-90855800D01*
X95681800Y-90855800D02*
X97713800Y-88823800D01*
X94538800Y-96951800D02*
X95681800Y-95808800D01*
X97713800Y-88823800D02*
X110744000Y-88823800D01*
X93427000Y-96951800D02*
X91643200Y-96951800D01*
X93427000Y-96951800D02*
X94538800Y-96951800D01*
%TO.N,/SWDCLK*%
X91373856Y-95631000D02*
X91109800Y-95681800D01*
X102217000Y-123172000D02*
X102217000Y-116934200D01*
X93427000Y-95681800D02*
X94640400Y-95681800D01*
X111607600Y-88519000D02*
X112801400Y-88519000D01*
X91109800Y-95681800D02*
X91084400Y-95656400D01*
X95123000Y-90627200D02*
X97459800Y-88290400D01*
X93427000Y-95681800D02*
X91373856Y-95631000D01*
X108712000Y-139370600D02*
X108712000Y-129667000D01*
X94640400Y-95681800D02*
X95123000Y-95199200D01*
X102641400Y-123596400D02*
X102217000Y-123172000D01*
X111379000Y-88290400D02*
X111607600Y-88519000D01*
X97459800Y-88290400D02*
X111379000Y-88290400D01*
X95123000Y-95199200D02*
X95123000Y-90627200D01*
X102217000Y-116934200D02*
X102870000Y-116281200D01*
X108712000Y-129667000D02*
X102641400Y-123596400D01*
%TO.N,/SWO*%
X89992200Y-97383600D02*
X92075000Y-99466400D01*
X102079999Y-92221345D02*
X103521744Y-90779600D01*
X143661600Y-124841000D02*
X107162600Y-124841000D01*
X104902000Y-120116600D02*
X105867200Y-119151400D01*
X104902000Y-122580400D02*
X104902000Y-120116600D01*
X146812000Y-121690600D02*
X143661600Y-124841000D01*
X92075000Y-99466400D02*
X97358200Y-99466400D01*
X102079999Y-94744601D02*
X102079999Y-92221345D01*
X97358200Y-99466400D02*
X102079999Y-94744601D01*
X91236800Y-94437200D02*
X90932000Y-94437200D01*
X93427000Y-94411800D02*
X91262200Y-94411800D01*
X107162600Y-124841000D02*
X104902000Y-122580400D01*
X105029000Y-90779600D02*
X105130600Y-90830400D01*
X91262200Y-94411800D02*
X91236800Y-94437200D01*
X103521744Y-90779600D02*
X105029000Y-90779600D01*
X89992200Y-95377000D02*
X89992200Y-97383600D01*
X105130600Y-90830400D02*
X105130600Y-90678000D01*
X90932000Y-94437200D02*
X89992200Y-95377000D01*
%TO.N,/RESET*%
X111658400Y-83693000D02*
X112623600Y-84658200D01*
X101244400Y-83693000D02*
X111658400Y-83693000D01*
X93427000Y-91871800D02*
X93427000Y-91510400D01*
X91160600Y-91871800D02*
X91135200Y-91846400D01*
X93427000Y-91510400D02*
X101244400Y-83693000D01*
X93427000Y-91871800D02*
X91160600Y-91871800D01*
%TO.N,/FF_Q*%
X148590000Y-114782600D02*
X146786600Y-116586000D01*
X146444300Y-102870000D02*
X148590000Y-105015700D01*
X127820072Y-89934128D02*
X130606800Y-87147400D01*
X131596600Y-116586000D02*
X126492000Y-121690600D01*
X130413760Y-71907400D02*
X130413760Y-84998560D01*
X127820072Y-93831941D02*
X127820072Y-89934128D01*
X148590000Y-105015700D02*
X148590000Y-114782600D01*
X130413760Y-84998560D02*
X130606800Y-85191600D01*
X146786600Y-116586000D02*
X131596600Y-116586000D01*
X130606800Y-87147400D02*
X130606800Y-85191600D01*
%TO.N,/P3.3V*%
X145592800Y-71907400D02*
X145592800Y-79290144D01*
X143129000Y-93903800D02*
X141503400Y-92278200D01*
X141503400Y-83379544D02*
X141503400Y-92278200D01*
X145592800Y-79290144D02*
X141503400Y-83379544D01*
X143129000Y-96545400D02*
X143129000Y-93903800D01*
%TO.N,/DEC_CAP*%
X123257200Y-107289600D02*
X119457596Y-107289600D01*
X118516400Y-109956600D02*
X118694200Y-110109000D01*
X117170200Y-93599000D02*
X117856000Y-92913200D01*
X119457596Y-107289600D02*
X118516400Y-108230796D01*
X124028200Y-106518600D02*
X123257200Y-107289600D01*
X124028200Y-105486200D02*
X124028200Y-106518600D01*
X117170200Y-96520000D02*
X117170200Y-93599000D01*
X118694200Y-110109000D02*
X118795800Y-110236000D01*
X118516400Y-108230796D02*
X118516400Y-109956600D01*
%TO.N,Net-(J3-Pad8)*%
X92989400Y-88214200D02*
X93167200Y-88036400D01*
X96723200Y-86614000D02*
X96875600Y-86436200D01*
X90805000Y-93141800D02*
X90093800Y-92430600D01*
X96875600Y-86436200D02*
X96723200Y-86309200D01*
X93167200Y-88036400D02*
X95300800Y-88036400D01*
X90093800Y-92430600D02*
X90093800Y-91109800D01*
X90093800Y-91109800D02*
X92989400Y-88214200D01*
X95300800Y-88036400D02*
X96723200Y-86614000D01*
X93427000Y-93141800D02*
X90805000Y-93141800D01*
D36*
%TO.N,GND*%
X103632000Y-117703600D02*
X103632000Y-121690600D01*
D37*
X105827100Y-102499700D02*
X107654000Y-102499700D01*
X103632000Y-139370600D02*
X103632000Y-137617200D01*
D35*
X98856800Y-91871800D02*
X100914200Y-89814400D01*
X99517200Y-94894400D02*
X100761800Y-93649800D01*
X98831400Y-95681800D02*
X99517200Y-94996000D01*
X102235000Y-90271600D02*
X102184200Y-89789000D01*
X97327000Y-95681800D02*
X98831400Y-95681800D01*
D36*
X98773200Y-108051600D02*
X102969700Y-108051600D01*
D37*
X103632000Y-137617200D02*
X103784400Y-137464800D01*
X147701000Y-101066600D02*
X146862800Y-101066600D01*
D35*
X99517200Y-94894400D02*
X99034600Y-94411800D01*
D36*
X105166700Y-108544900D02*
X106451400Y-109829600D01*
D35*
X138734800Y-96609400D02*
X138670800Y-96545400D01*
D36*
X103463000Y-108544900D02*
X105166700Y-108544900D01*
D35*
X100761800Y-93649800D02*
X100761800Y-91744800D01*
X100761800Y-91744800D02*
X102235000Y-90271600D01*
D36*
X102969700Y-108051600D02*
X103463000Y-108544900D01*
D37*
X145643600Y-102285800D02*
X145643600Y-105714800D01*
X103437600Y-101702600D02*
X105030000Y-101702600D01*
D36*
X103632000Y-121690600D02*
X103632000Y-122821970D01*
D35*
X97327000Y-91871800D02*
X98856800Y-91871800D01*
D37*
X146862800Y-101066600D02*
X145643600Y-102285800D01*
D36*
X103632000Y-122821970D02*
X117424200Y-136614170D01*
D35*
X148894800Y-97028000D02*
X148412200Y-96545400D01*
D36*
X117424200Y-136614170D02*
X117424200Y-136702800D01*
D37*
X105030000Y-101702600D02*
X105371900Y-102044500D01*
D36*
X106451400Y-114884200D02*
X103632000Y-117703600D01*
D35*
X138734800Y-98018600D02*
X138734800Y-96609400D01*
D37*
X145643600Y-105714800D02*
X146227800Y-106299000D01*
D36*
X98773200Y-108051600D02*
X89623200Y-108051600D01*
D35*
X99034600Y-94411800D02*
X97327000Y-94411800D01*
D37*
X105371900Y-102044500D02*
X105827100Y-102499700D01*
D35*
X102184200Y-89789000D02*
X102235000Y-89535000D01*
D36*
X106451400Y-109829600D02*
X106451400Y-114884200D01*
D35*
X99517200Y-94996000D02*
X99517200Y-94894400D01*
X148412200Y-96545400D02*
X148030200Y-96545400D01*
%TO.N,+3.3V*%
X123139200Y-112979200D02*
X123774200Y-112953800D01*
X124053600Y-112979200D02*
X124993400Y-112039400D01*
X122555000Y-112395000D02*
X123139200Y-112979200D01*
D37*
X128143000Y-111125000D02*
X128651000Y-110617000D01*
X124206000Y-113385600D02*
X127355600Y-113385600D01*
D35*
X124993400Y-112039400D02*
X124993400Y-111876300D01*
D37*
X136067800Y-110617000D02*
X136321800Y-110871000D01*
D35*
X144500600Y-113004600D02*
X143687800Y-112191800D01*
X122555000Y-111876300D02*
X122555000Y-112395000D01*
D37*
X123774200Y-112953800D02*
X124206000Y-113385600D01*
D35*
X120349800Y-111734600D02*
X122413300Y-111734600D01*
D37*
X128651000Y-110617000D02*
X136067800Y-110617000D01*
D35*
X146151700Y-111886900D02*
X145084800Y-112953800D01*
X123774200Y-112953800D02*
X124053600Y-112979200D01*
D37*
X115214400Y-113411000D02*
X115214400Y-113512600D01*
D35*
X122413300Y-111734600D02*
X122555000Y-111876300D01*
D37*
X128143000Y-112598200D02*
X128143000Y-111125000D01*
X115660600Y-113958800D02*
X122769200Y-113958800D01*
X115214400Y-113512600D02*
X115660600Y-113958800D01*
X127355600Y-113385600D02*
X128143000Y-112598200D01*
D35*
X145034000Y-113004600D02*
X144500600Y-113004600D01*
X145084800Y-112953800D02*
X145034000Y-113004600D01*
D37*
X122769200Y-113958800D02*
X123774200Y-112953800D01*
D35*
X146202400Y-111886900D02*
X146151700Y-111886900D01*
X143687800Y-112191800D02*
X143687800Y-111886900D01*
%TO.N,GNDA*%
X109840300Y-108254800D02*
X110388400Y-108254800D01*
X145288000Y-107873800D02*
X146202400Y-108788200D01*
X130530600Y-107975400D02*
X130966500Y-107975400D01*
X144399000Y-107873800D02*
X144957800Y-107873800D01*
X129489200Y-108712000D02*
X130225800Y-107975400D01*
X144957800Y-107873800D02*
X145288000Y-107873800D01*
X124282200Y-107924600D02*
X124993400Y-108635800D01*
X124993400Y-108635800D02*
X124993400Y-108951300D01*
X130225800Y-107975400D02*
X130530600Y-107975400D01*
X110388400Y-108254800D02*
X110936500Y-108254800D01*
X110936500Y-108254800D02*
X111633000Y-108951300D01*
X122555000Y-108585000D02*
X123215400Y-107924600D01*
X137922000Y-111353800D02*
X137922000Y-112598200D01*
X143687800Y-108961900D02*
X143687800Y-108585000D01*
X117043200Y-112376600D02*
X116933306Y-112486494D01*
X129489200Y-108961900D02*
X129489200Y-108712000D01*
X123748835Y-107996049D02*
X124282200Y-107924600D01*
X143687800Y-108585000D02*
X144399000Y-107873800D01*
X123215400Y-107924600D02*
X123748835Y-107996049D01*
X109143800Y-108951300D02*
X109840300Y-108254800D01*
X146202400Y-108788200D02*
X146202400Y-108961900D01*
X117043200Y-111343200D02*
X117043200Y-112376600D01*
X130966500Y-107975400D02*
X131953000Y-108961900D01*
X122555000Y-108951300D02*
X122555000Y-108585000D01*
X137922000Y-112598200D02*
X137896600Y-112623600D01*
%TO.N,+3.3VADC*%
X129489200Y-112268000D02*
X130378200Y-113157000D01*
X110580900Y-112928400D02*
X111633000Y-111876300D01*
D36*
X110388400Y-112928400D02*
X112318800Y-114858800D01*
D35*
X130378200Y-113157000D02*
X130759200Y-113157000D01*
X113711200Y-111734600D02*
X111774700Y-111734600D01*
D36*
X111429800Y-115747800D02*
X111429800Y-121512800D01*
X112318800Y-114858800D02*
X111429800Y-115747800D01*
X111429800Y-121512800D02*
X111252000Y-121690600D01*
X129057400Y-114858800D02*
X130759200Y-113157000D01*
D35*
X111774700Y-111734600D02*
X111633000Y-111876300D01*
X129489200Y-111886900D02*
X129489200Y-112268000D01*
X131953000Y-112445800D02*
X131953000Y-111886900D01*
X131953000Y-111886900D02*
X132497100Y-112431000D01*
X132497100Y-112431000D02*
X134376400Y-112431000D01*
X109143800Y-111876300D02*
X110195900Y-112928400D01*
D36*
X112318800Y-114858800D02*
X129057400Y-114858800D01*
D35*
X110388400Y-112928400D02*
X110580900Y-112928400D01*
X110195900Y-112928400D02*
X110388400Y-112928400D01*
X130759200Y-113157000D02*
X131241800Y-113157000D01*
X131241800Y-113157000D02*
X131953000Y-112445800D01*
D36*
%TO.N,+5V*%
X102728300Y-111469900D02*
X101092000Y-113106200D01*
X103463000Y-111469900D02*
X98791500Y-111469900D01*
X98791500Y-111469900D02*
X98773200Y-111451600D01*
X101092000Y-113106200D02*
X101092000Y-121690600D01*
X103265700Y-111469900D02*
X103463000Y-111469900D01*
X103463000Y-111469900D02*
X102728300Y-111469900D01*
X98773200Y-109751600D02*
X101547400Y-109751600D01*
X101547400Y-109751600D02*
X103265700Y-111469900D01*
D37*
%TO.N,VDD*%
X106258600Y-100878400D02*
X106172000Y-100965000D01*
D36*
X98773200Y-106351600D02*
X103363200Y-106351600D01*
D37*
X128331200Y-105547600D02*
X128331200Y-105983800D01*
D36*
X106627300Y-106451400D02*
X107654000Y-105424700D01*
X103463000Y-106451400D02*
X106627300Y-106451400D01*
D37*
X128331200Y-105983800D02*
X127254000Y-107061000D01*
X106258600Y-99187000D02*
X106258600Y-100878400D01*
D36*
X103363200Y-106351600D02*
X103463000Y-106451400D01*
X106974100Y-105424700D02*
X105740200Y-104190800D01*
X107654000Y-105424700D02*
X106974100Y-105424700D01*
D35*
%TO.N,Net-(JP1-Pad2)*%
X116393200Y-111343200D02*
X116393200Y-112003600D01*
X116078000Y-112318800D02*
X115595400Y-112318800D01*
X116393200Y-112003600D02*
X116078000Y-112318800D01*
X115595400Y-112318800D02*
X115011200Y-111734600D01*
%TO.N,Net-(JP2-Pad2)*%
X137272000Y-111353800D02*
X137272000Y-111952800D01*
X135742000Y-112496600D02*
X135676400Y-112431000D01*
X137272000Y-111952800D02*
X136728200Y-112496600D01*
X136728200Y-112496600D02*
X135742000Y-112496600D01*
%TO.N,Net-(JP3-Pad2)*%
X117703600Y-111353600D02*
X117703600Y-112039400D01*
X117693200Y-111343200D02*
X117703600Y-111353600D01*
X117703600Y-112039400D02*
X117983000Y-112318800D01*
X117983000Y-112318800D02*
X118465600Y-112318800D01*
X118465600Y-112318800D02*
X119049800Y-111734600D01*
%TO.N,Net-(JP4-Pad2)*%
X138572000Y-111775000D02*
X139090400Y-112293400D01*
X139090400Y-112293400D02*
X139619400Y-112293400D01*
X138572000Y-111353800D02*
X138572000Y-111775000D01*
X139619400Y-112293400D02*
X139761200Y-112151600D01*
%TO.N,Net-(JP5-Pad2)*%
X115544600Y-106883200D02*
X111018200Y-106883200D01*
D36*
X112054200Y-103113400D02*
X112163400Y-103113400D01*
D35*
X117043200Y-109423200D02*
X117043200Y-108381800D01*
D36*
X108127800Y-99187000D02*
X112054200Y-103113400D01*
D35*
X111018200Y-106883200D02*
X110448400Y-106313400D01*
D36*
X107558600Y-99187000D02*
X108127800Y-99187000D01*
D35*
X117043200Y-108381800D02*
X115544600Y-106883200D01*
%TO.N,/CURRENT_SENSE_OUTPUT*%
X134224000Y-108981000D02*
X133429447Y-109716597D01*
X134224000Y-108798800D02*
X134224000Y-108981000D01*
X129895600Y-115874800D02*
X123571000Y-115874800D01*
X113777000Y-109016800D02*
X113690400Y-109016800D01*
X121412000Y-118033800D02*
X121412000Y-121690600D01*
X123571000Y-115874800D02*
X121412000Y-118033800D01*
X131470400Y-114300000D02*
X129895600Y-115874800D01*
X133429447Y-109716597D02*
X133324600Y-109880400D01*
X119557800Y-116179600D02*
X121412000Y-118033800D01*
X115214400Y-116179600D02*
X119557800Y-116179600D01*
X113690400Y-109016800D02*
X112572800Y-110134400D01*
%TO.N,Net-(JP6-Pad2)*%
X116393200Y-109423200D02*
X116393200Y-108722400D01*
X115788200Y-108305600D02*
X115077000Y-109016800D01*
X115976400Y-108305600D02*
X115788200Y-108305600D01*
X116393200Y-108722400D02*
X115976400Y-108305600D01*
%TO.N,Net-(JP7-Pad2)*%
X137922000Y-108761404D02*
X136119996Y-106959400D01*
D36*
X130618600Y-105547600D02*
X133042200Y-103124000D01*
D35*
X137922000Y-109433800D02*
X137922000Y-108761404D01*
X136119996Y-106959400D02*
X131962600Y-106959400D01*
D36*
X129631200Y-105547600D02*
X130618600Y-105547600D01*
D35*
X131962600Y-106959400D02*
X131327200Y-106324000D01*
%TO.N,Net-(JP8-Pad2)*%
X137272000Y-109433800D02*
X137272000Y-108747800D01*
X136906000Y-108381800D02*
X135941000Y-108381800D01*
X137272000Y-108747800D02*
X136906000Y-108381800D01*
X135941000Y-108381800D02*
X135524000Y-108798800D01*
%TO.N,Net-(R1-Pad2)*%
X103437600Y-103352600D02*
X103437600Y-104776000D01*
D37*
X98773200Y-104651600D02*
X103313200Y-104651600D01*
D35*
X103437600Y-104776000D02*
X103463000Y-104801400D01*
D37*
X103313200Y-104651600D02*
X103463000Y-104801400D01*
D35*
%TO.N,/SENSE_3_3V*%
X130614000Y-116324800D02*
X123757396Y-116324800D01*
X142443200Y-112725200D02*
X141325600Y-113842800D01*
X141325600Y-113842800D02*
X133096000Y-113842800D01*
X145719800Y-97917000D02*
X144805400Y-98831400D01*
X145719800Y-96545400D02*
X145719800Y-97917000D01*
X133096000Y-113842800D02*
X130614000Y-116324800D01*
X143587800Y-107848400D02*
X143050627Y-107848400D01*
X115189000Y-123087600D02*
X113792000Y-121690600D01*
X122631200Y-117450996D02*
X122631200Y-122351800D01*
X145719800Y-96545400D02*
X144779000Y-96545400D01*
X123757396Y-116324800D02*
X122631200Y-117450996D01*
X121894600Y-123088400D02*
X115189000Y-123088400D01*
X115189000Y-123088400D02*
X115189000Y-123087600D01*
X142443200Y-108455827D02*
X142443200Y-112725200D01*
X144805400Y-98831400D02*
X144805400Y-106630800D01*
X144805400Y-106630800D02*
X143587800Y-107848400D01*
X122631200Y-122351800D02*
X121894600Y-123088400D01*
X146380200Y-96545400D02*
X145719800Y-96545400D01*
X143050627Y-107848400D02*
X142443200Y-108455827D01*
%TO.N,/I2C_CLK*%
X139192000Y-121690600D02*
X142010600Y-118872000D01*
X142010600Y-118872000D02*
X147751800Y-118872000D01*
X147751800Y-118872000D02*
X151155400Y-115468400D01*
X151155400Y-97891600D02*
X150622000Y-97358200D01*
X151155400Y-115468400D02*
X151155400Y-97891600D01*
%TO.N,/I2C_DATA*%
X128498600Y-80670400D02*
X128498600Y-86766400D01*
X149924662Y-95573034D02*
X149897000Y-95600696D01*
X120294400Y-71907400D02*
X120294400Y-72466200D01*
X128066800Y-87223600D02*
X128016000Y-87249000D01*
X150444200Y-115316000D02*
X147523200Y-118237000D01*
X149834600Y-95663096D02*
X149834600Y-95834200D01*
X149897000Y-95600696D02*
X149897000Y-97979400D01*
X128498600Y-86766400D02*
X128066800Y-87223600D01*
X140105600Y-118237000D02*
X136652000Y-121690600D01*
X149924662Y-95573034D02*
X149834600Y-95663096D01*
X150444200Y-98526600D02*
X150444200Y-115316000D01*
X149897000Y-97979400D02*
X150444200Y-98526600D01*
X120294400Y-72466200D02*
X128498600Y-80670400D01*
X147523200Y-118237000D02*
X140105600Y-118237000D01*
%TO.N,/PDM_CLK*%
X124282200Y-91313000D02*
X125323600Y-92354400D01*
X110286800Y-96520000D02*
X110286800Y-94462600D01*
X112039400Y-92710000D02*
X113436400Y-91313000D01*
X110286800Y-94462600D02*
X112039400Y-92710000D01*
X125323600Y-93497400D02*
X124307600Y-94513400D01*
X124307600Y-94513400D02*
X123901200Y-94513400D01*
X125323600Y-92354400D02*
X125323600Y-93497400D01*
X113436400Y-91313000D02*
X124282200Y-91313000D01*
%TO.N,/PDM_DATA*%
X124891800Y-94869000D02*
X124587000Y-95173800D01*
X125882400Y-91998800D02*
X125882400Y-93929200D01*
X124954800Y-94856800D02*
X124891800Y-94856800D01*
X111861600Y-91389200D02*
X112674400Y-91389200D01*
X124256800Y-90652600D02*
X124536200Y-90652600D01*
X113207800Y-90855800D02*
X113411000Y-90652600D01*
X124891800Y-94856800D02*
X124891800Y-94869000D01*
X122834400Y-95300800D02*
X122123200Y-94589600D01*
X111175800Y-91389200D02*
X111861600Y-91389200D01*
X124460000Y-95300800D02*
X122834400Y-95300800D01*
X124536200Y-90652600D02*
X125882400Y-91998800D01*
X124587000Y-95173800D02*
X124460000Y-95300800D01*
X122123200Y-94589600D02*
X122123200Y-94513400D01*
X125780800Y-94030800D02*
X124954800Y-94856800D01*
X109880400Y-92684600D02*
X111175800Y-91389200D01*
X113411000Y-90652600D02*
X124256800Y-90652600D01*
X108813600Y-92684600D02*
X109880400Y-92684600D01*
X125882400Y-93929200D02*
X125780800Y-94030800D01*
X112674400Y-91389200D02*
X113207800Y-90855800D01*
X104140000Y-97358200D02*
X108813600Y-92684600D01*
%TO.N,/BUTTON*%
X135473440Y-81620360D02*
X133731000Y-83362800D01*
X133731000Y-83362800D02*
X133858000Y-83489800D01*
X133426200Y-96545400D02*
X133617200Y-96545400D01*
X131546600Y-96494600D02*
X132232400Y-95808800D01*
X135473440Y-71907400D02*
X135473440Y-81620360D01*
X132232400Y-95808800D02*
X132232400Y-95351600D01*
X133858000Y-83489800D02*
X133858000Y-91109800D01*
X132232400Y-94876300D02*
X132232400Y-95351600D01*
X132232400Y-94876300D02*
X132366700Y-94876300D01*
X132232400Y-95351600D02*
X133426200Y-96545400D01*
%TO.N,/FF_CLK*%
X138124400Y-117678200D02*
X147332700Y-117678200D01*
X147332700Y-117678200D02*
X149834600Y-115176300D01*
X113728500Y-92951300D02*
X114046000Y-92633800D01*
X134112000Y-121690600D02*
X138124400Y-117678200D01*
X113728500Y-96520000D02*
X113728500Y-92951300D01*
X149834600Y-115176300D02*
X149834600Y-102489000D01*
%TO.N,/FF_D*%
X129489200Y-76149200D02*
X129489200Y-81813400D01*
X149326600Y-115047904D02*
X149326600Y-104521000D01*
X136168600Y-117094000D02*
X147280504Y-117094000D01*
X131572000Y-121690600D02*
X136168600Y-117094000D01*
X126749300Y-94434975D02*
X126749300Y-89760300D01*
X125354080Y-71907400D02*
X129184400Y-75737720D01*
X129184400Y-75844400D02*
X129489200Y-76149200D01*
X149326600Y-104521000D02*
X147548600Y-102743000D01*
X129489200Y-87020400D02*
X129489200Y-81813400D01*
X126749300Y-89760300D02*
X129489200Y-87020400D01*
X129184400Y-75737720D02*
X129184400Y-75844400D01*
X147280504Y-117094000D02*
X149326600Y-115047904D01*
%TO.N,/BUTTON_DIVIDED*%
X126529000Y-107361305D02*
X127127000Y-107959305D01*
X136169400Y-97942400D02*
X134493000Y-99618800D01*
X130048000Y-99542600D02*
X126529000Y-103061600D01*
X127127000Y-111887000D02*
X126542800Y-112471200D01*
X136169400Y-97942400D02*
X136169400Y-97447600D01*
X136169400Y-97396800D02*
X137020800Y-96545400D01*
X130124200Y-99618800D02*
X130048000Y-99542600D01*
X134493000Y-99618800D02*
X130124200Y-99618800D01*
X127127000Y-107959305D02*
X127127000Y-111887000D01*
X126529000Y-103061600D02*
X126529000Y-107361305D01*
X136169400Y-97942400D02*
X136169400Y-97396800D01*
X136169400Y-97447600D02*
X135267200Y-96545400D01*
%TO.N,/BATT+*%
X140533120Y-81452720D02*
X140716000Y-81635600D01*
X140533120Y-71907400D02*
X140533120Y-81452720D01*
X138572000Y-108798600D02*
X140436600Y-106934000D01*
D36*
X121313400Y-103113400D02*
X121313400Y-102308200D01*
X138455400Y-94582208D02*
X138455400Y-92659200D01*
X138455400Y-85674200D02*
X137515600Y-84734400D01*
X137515600Y-84734400D02*
X136017000Y-83235800D01*
D35*
X122631200Y-106807000D02*
X123028400Y-106409800D01*
D36*
X129844800Y-93776800D02*
X137337800Y-93776800D01*
D35*
X140436600Y-106934000D02*
X143297200Y-106934000D01*
X119303800Y-106807000D02*
X122631200Y-106807000D01*
D36*
X142192200Y-103124000D02*
X142192200Y-98319008D01*
X121313400Y-102308200D02*
X129844800Y-93776800D01*
X138455400Y-92659200D02*
X138455400Y-85674200D01*
D35*
X140716000Y-81635600D02*
X137617200Y-84734400D01*
D36*
X137337800Y-93776800D02*
X138455400Y-92659200D01*
D35*
X137617200Y-84734400D02*
X137515600Y-84734400D01*
D36*
X142192200Y-98319008D02*
X138455400Y-94582208D01*
D35*
X143297200Y-106934000D02*
X143907200Y-106324000D01*
X117693200Y-109423200D02*
X117693200Y-108417600D01*
X123028400Y-106409800D02*
X123028400Y-106313400D01*
X117693200Y-108417600D02*
X119303800Y-106807000D01*
X138572000Y-109433800D02*
X138572000Y-108798600D01*
%TO.N,Net-(U1-Pad9)*%
X129896600Y-96494600D02*
X129896600Y-98424000D01*
X126193400Y-110433000D02*
X126187200Y-110490000D01*
X126085600Y-102235000D02*
X126060200Y-102260400D01*
X117291145Y-131754766D02*
X118872000Y-133335621D01*
X126060200Y-107924600D02*
X126193400Y-108057800D01*
X126060200Y-102260400D02*
X126060200Y-107924600D01*
X118872000Y-133335621D02*
X118872000Y-139370600D01*
X129896600Y-98424000D02*
X126085600Y-102235000D01*
X126187200Y-110490000D02*
X126161800Y-110464600D01*
X126193400Y-108057800D02*
X126193400Y-110433000D01*
%TD*%
%TA.AperFunction,Conductor*%
%TO.N,GND*%
G36*
X152595000Y-69210035D02*
G01*
X152641885Y-69263349D01*
X152653658Y-69316868D01*
X152650335Y-70554644D01*
X152630150Y-70622711D01*
X152576369Y-70669060D01*
X152506069Y-70678975D01*
X152441567Y-70649309D01*
X152420123Y-70625128D01*
X152300599Y-70449254D01*
X152300596Y-70449251D01*
X152297749Y-70445061D01*
X152197125Y-70338653D01*
X152128913Y-70266521D01*
X152125433Y-70262841D01*
X152121406Y-70259762D01*
X151930219Y-70113588D01*
X151930215Y-70113585D01*
X151926199Y-70110515D01*
X151705174Y-69992003D01*
X151700393Y-69990357D01*
X151700389Y-69990355D01*
X151472833Y-69912001D01*
X151468044Y-69910352D01*
X151364511Y-69892469D01*
X151224820Y-69868340D01*
X151224814Y-69868339D01*
X151220910Y-69867665D01*
X151216949Y-69867485D01*
X151216948Y-69867485D01*
X151192269Y-69866364D01*
X151192250Y-69866364D01*
X151190850Y-69866300D01*
X151016185Y-69866300D01*
X151013677Y-69866502D01*
X151013672Y-69866502D01*
X150834256Y-69880937D01*
X150834251Y-69880938D01*
X150829215Y-69881343D01*
X150824307Y-69882548D01*
X150824304Y-69882549D01*
X150592526Y-69939480D01*
X150585661Y-69941166D01*
X150581009Y-69943141D01*
X150581005Y-69943142D01*
X150460261Y-69994395D01*
X150354804Y-70039159D01*
X150142585Y-70172800D01*
X149954462Y-70338653D01*
X149795276Y-70532449D01*
X149669122Y-70749204D01*
X149667309Y-70753927D01*
X149667308Y-70753929D01*
X149645393Y-70811019D01*
X149579245Y-70983339D01*
X149527959Y-71228833D01*
X149527730Y-71233882D01*
X149527729Y-71233888D01*
X149525602Y-71280734D01*
X149516582Y-71479368D01*
X149545408Y-71728499D01*
X149546787Y-71733373D01*
X149546788Y-71733377D01*
X149596032Y-71907400D01*
X149613694Y-71969817D01*
X149615828Y-71974392D01*
X149615830Y-71974399D01*
X149717547Y-72192531D01*
X149719684Y-72197113D01*
X149722526Y-72201294D01*
X149722526Y-72201295D01*
X149857805Y-72400352D01*
X149857808Y-72400356D01*
X149860651Y-72404539D01*
X149864128Y-72408216D01*
X149864129Y-72408217D01*
X149964438Y-72514291D01*
X150032967Y-72586759D01*
X150036993Y-72589837D01*
X150036994Y-72589838D01*
X150228181Y-72736012D01*
X150228185Y-72736015D01*
X150232201Y-72739085D01*
X150453226Y-72857597D01*
X150458007Y-72859243D01*
X150458011Y-72859245D01*
X150683738Y-72936969D01*
X150690356Y-72939248D01*
X150793889Y-72957131D01*
X150933580Y-72981260D01*
X150933586Y-72981261D01*
X150937490Y-72981935D01*
X150941451Y-72982115D01*
X150941452Y-72982115D01*
X150966131Y-72983236D01*
X150966150Y-72983236D01*
X150967550Y-72983300D01*
X151142215Y-72983300D01*
X151144723Y-72983098D01*
X151144728Y-72983098D01*
X151324144Y-72968663D01*
X151324149Y-72968662D01*
X151329185Y-72968257D01*
X151334093Y-72967052D01*
X151334096Y-72967051D01*
X151567825Y-72909641D01*
X151572739Y-72908434D01*
X151577391Y-72906459D01*
X151577395Y-72906458D01*
X151798941Y-72812417D01*
X151798942Y-72812417D01*
X151803596Y-72810441D01*
X152015815Y-72676800D01*
X152203938Y-72510947D01*
X152363124Y-72317151D01*
X152365667Y-72312782D01*
X152365671Y-72312776D01*
X152410755Y-72235314D01*
X152462308Y-72186501D01*
X152532068Y-72173308D01*
X152597887Y-72199925D01*
X152638866Y-72257901D01*
X152645653Y-72299030D01*
X152594769Y-91253100D01*
X152552737Y-106909938D01*
X152532552Y-106978005D01*
X152478771Y-107024354D01*
X152426737Y-107035600D01*
X151914900Y-107035600D01*
X151846779Y-107015598D01*
X151800286Y-106961942D01*
X151788900Y-106909600D01*
X151788900Y-97970368D01*
X151789427Y-97959185D01*
X151791102Y-97951692D01*
X151790819Y-97942671D01*
X151788962Y-97883602D01*
X151788900Y-97879644D01*
X151788900Y-97851744D01*
X151788396Y-97847753D01*
X151787463Y-97835911D01*
X151786323Y-97799636D01*
X151786074Y-97791711D01*
X151780421Y-97772252D01*
X151776412Y-97752893D01*
X151776246Y-97751583D01*
X151773874Y-97732803D01*
X151770958Y-97725437D01*
X151770956Y-97725431D01*
X151757600Y-97691698D01*
X151753755Y-97680468D01*
X151743630Y-97645617D01*
X151743630Y-97645616D01*
X151741419Y-97638007D01*
X151731105Y-97620566D01*
X151722408Y-97602813D01*
X151717872Y-97591358D01*
X151714952Y-97583983D01*
X151697146Y-97559475D01*
X151688963Y-97548212D01*
X151682447Y-97538292D01*
X151659942Y-97500238D01*
X151645621Y-97485917D01*
X151632780Y-97470883D01*
X151625532Y-97460907D01*
X151620872Y-97454493D01*
X151586801Y-97426307D01*
X151578022Y-97418318D01*
X151569122Y-97409418D01*
X151535096Y-97347106D01*
X151532907Y-97333493D01*
X151516232Y-97174835D01*
X151516232Y-97174833D01*
X151515542Y-97168272D01*
X151456527Y-96986644D01*
X151361040Y-96821256D01*
X151353560Y-96812948D01*
X151237675Y-96684245D01*
X151237674Y-96684244D01*
X151233253Y-96679334D01*
X151078752Y-96567082D01*
X151072724Y-96564398D01*
X151072722Y-96564397D01*
X150910319Y-96492091D01*
X150910318Y-96492091D01*
X150904288Y-96489406D01*
X150810887Y-96469553D01*
X150723944Y-96451072D01*
X150723939Y-96451072D01*
X150717487Y-96449700D01*
X150656500Y-96449700D01*
X150588379Y-96429698D01*
X150541886Y-96376042D01*
X150530500Y-96323700D01*
X150530500Y-96306280D01*
X150550502Y-96238159D01*
X150562864Y-96221970D01*
X150567643Y-96216663D01*
X150588038Y-96194011D01*
X150659283Y-96114886D01*
X150659284Y-96114885D01*
X150663702Y-96109978D01*
X150721976Y-96009044D01*
X150755885Y-95950313D01*
X150755886Y-95950312D01*
X150759189Y-95944590D01*
X150818204Y-95762962D01*
X150824273Y-95705224D01*
X150837476Y-95579599D01*
X150838166Y-95573034D01*
X150818204Y-95383106D01*
X150759189Y-95201478D01*
X150663702Y-95036090D01*
X150593798Y-94958453D01*
X150540337Y-94899079D01*
X150540336Y-94899078D01*
X150535915Y-94894168D01*
X150401743Y-94796686D01*
X150386756Y-94785797D01*
X150386755Y-94785796D01*
X150381414Y-94781916D01*
X150375386Y-94779232D01*
X150375384Y-94779231D01*
X150212981Y-94706925D01*
X150212980Y-94706925D01*
X150206950Y-94704240D01*
X150113549Y-94684387D01*
X150026606Y-94665906D01*
X150026601Y-94665906D01*
X150020149Y-94664534D01*
X149829175Y-94664534D01*
X149822723Y-94665906D01*
X149822718Y-94665906D01*
X149735775Y-94684387D01*
X149642374Y-94704240D01*
X149636344Y-94706925D01*
X149636343Y-94706925D01*
X149473940Y-94779231D01*
X149473938Y-94779232D01*
X149467910Y-94781916D01*
X149462569Y-94785796D01*
X149462568Y-94785797D01*
X149447581Y-94796686D01*
X149313409Y-94894168D01*
X149308988Y-94899078D01*
X149308987Y-94899079D01*
X149255527Y-94958453D01*
X149185622Y-95036090D01*
X149090135Y-95201478D01*
X149031120Y-95383106D01*
X149011158Y-95573034D01*
X149026375Y-95717811D01*
X149031096Y-95762733D01*
X149018324Y-95832571D01*
X148969822Y-95884418D01*
X148900989Y-95901812D01*
X148833679Y-95879231D01*
X148798010Y-95841175D01*
X148795376Y-95836826D01*
X148786069Y-95824957D01*
X148675643Y-95714531D01*
X148663774Y-95705224D01*
X148530188Y-95624321D01*
X148516443Y-95618115D01*
X148366556Y-95571144D01*
X148353506Y-95568531D01*
X148298614Y-95563487D01*
X148287076Y-95566875D01*
X148285871Y-95568265D01*
X148284200Y-95575948D01*
X148284200Y-96273285D01*
X148288675Y-96288524D01*
X148290065Y-96289729D01*
X148297748Y-96291400D01*
X148920084Y-96291400D01*
X148935323Y-96286925D01*
X148936528Y-96285535D01*
X148938199Y-96277852D01*
X148938199Y-96216695D01*
X148937936Y-96210944D01*
X148932569Y-96152527D01*
X148946256Y-96082862D01*
X148995433Y-96031655D01*
X149064488Y-96015165D01*
X149131496Y-96038626D01*
X149167158Y-96077998D01*
X149185622Y-96109978D01*
X149223934Y-96152527D01*
X149231136Y-96160526D01*
X149261853Y-96224534D01*
X149263500Y-96244837D01*
X149263500Y-97900633D01*
X149262973Y-97911816D01*
X149261298Y-97919309D01*
X149261547Y-97927235D01*
X149261547Y-97927236D01*
X149263438Y-97987386D01*
X149263500Y-97991345D01*
X149263500Y-98019256D01*
X149263997Y-98023190D01*
X149263997Y-98023191D01*
X149264005Y-98023256D01*
X149264938Y-98035093D01*
X149266327Y-98079289D01*
X149270934Y-98095145D01*
X149271978Y-98098739D01*
X149275987Y-98118100D01*
X149277172Y-98127476D01*
X149278526Y-98138197D01*
X149281445Y-98145568D01*
X149281445Y-98145570D01*
X149294804Y-98179312D01*
X149298649Y-98190542D01*
X149310982Y-98232993D01*
X149315015Y-98239812D01*
X149315017Y-98239817D01*
X149321293Y-98250428D01*
X149329988Y-98268176D01*
X149337448Y-98287017D01*
X149342110Y-98293433D01*
X149342110Y-98293434D01*
X149363436Y-98322787D01*
X149369952Y-98332707D01*
X149384864Y-98357921D01*
X149392458Y-98370762D01*
X149406779Y-98385083D01*
X149419619Y-98400116D01*
X149431528Y-98416507D01*
X149437634Y-98421558D01*
X149465605Y-98444698D01*
X149474384Y-98452688D01*
X149773795Y-98752099D01*
X149807821Y-98814411D01*
X149810700Y-98841194D01*
X149810700Y-101242414D01*
X149790698Y-101310535D01*
X149737042Y-101357028D01*
X149666768Y-101367132D01*
X149658503Y-101365661D01*
X149565075Y-101345802D01*
X149565070Y-101345802D01*
X149558618Y-101344430D01*
X149367644Y-101344430D01*
X149361192Y-101345802D01*
X149361187Y-101345802D01*
X149308375Y-101357028D01*
X149180843Y-101384136D01*
X149174813Y-101386821D01*
X149174812Y-101386821D01*
X149012409Y-101459127D01*
X149012407Y-101459128D01*
X149006379Y-101461812D01*
X148851878Y-101574064D01*
X148724091Y-101715986D01*
X148720790Y-101721704D01*
X148633535Y-101872834D01*
X148628604Y-101881374D01*
X148569589Y-102063002D01*
X148568899Y-102069563D01*
X148568899Y-102069565D01*
X148553981Y-102211501D01*
X148526968Y-102277158D01*
X148468746Y-102317787D01*
X148397801Y-102320490D01*
X148336657Y-102284408D01*
X148319555Y-102261335D01*
X148287640Y-102206056D01*
X148159853Y-102064134D01*
X148060757Y-101992136D01*
X148010694Y-101955763D01*
X148010693Y-101955762D01*
X148005352Y-101951882D01*
X147999324Y-101949198D01*
X147999322Y-101949197D01*
X147836919Y-101876891D01*
X147836918Y-101876891D01*
X147830888Y-101874206D01*
X147737487Y-101854353D01*
X147650544Y-101835872D01*
X147650539Y-101835872D01*
X147644087Y-101834500D01*
X147453113Y-101834500D01*
X147446661Y-101835872D01*
X147446656Y-101835872D01*
X147359713Y-101854353D01*
X147266312Y-101874206D01*
X147260282Y-101876891D01*
X147260281Y-101876891D01*
X147097878Y-101949197D01*
X147097876Y-101949198D01*
X147091848Y-101951882D01*
X147086507Y-101955762D01*
X147086506Y-101955763D01*
X146969823Y-102040538D01*
X146902955Y-102064397D01*
X146844514Y-102053709D01*
X146732623Y-102003892D01*
X146732615Y-102003889D01*
X146726588Y-102001206D01*
X146633187Y-101981353D01*
X146546244Y-101962872D01*
X146546239Y-101962872D01*
X146539787Y-101961500D01*
X146348813Y-101961500D01*
X146342361Y-101962872D01*
X146342356Y-101962872D01*
X146255412Y-101981353D01*
X146162012Y-102001206D01*
X146155982Y-102003891D01*
X146155981Y-102003891D01*
X145993578Y-102076197D01*
X145993576Y-102076198D01*
X145987548Y-102078882D01*
X145833047Y-102191134D01*
X145705260Y-102333056D01*
X145701959Y-102338774D01*
X145674019Y-102387167D01*
X145622637Y-102436160D01*
X145552923Y-102449596D01*
X145487012Y-102423210D01*
X145445830Y-102365378D01*
X145438900Y-102324167D01*
X145438900Y-99145995D01*
X145458902Y-99077874D01*
X145475805Y-99056899D01*
X145780606Y-98752099D01*
X146112058Y-98420647D01*
X146120337Y-98413113D01*
X146126818Y-98409000D01*
X146173444Y-98359348D01*
X146176198Y-98356507D01*
X146195935Y-98336770D01*
X146198415Y-98333573D01*
X146206120Y-98324551D01*
X146207123Y-98323483D01*
X146236386Y-98292321D01*
X146240205Y-98285375D01*
X146240207Y-98285372D01*
X146246148Y-98274566D01*
X146256999Y-98258047D01*
X146257359Y-98257583D01*
X146269414Y-98242041D01*
X146272559Y-98234772D01*
X146272562Y-98234768D01*
X146286974Y-98201463D01*
X146292191Y-98190813D01*
X146313495Y-98152060D01*
X146318533Y-98132437D01*
X146324937Y-98113734D01*
X146329833Y-98102420D01*
X146329833Y-98102419D01*
X146332981Y-98095145D01*
X146334220Y-98087322D01*
X146334223Y-98087312D01*
X146339899Y-98051476D01*
X146342305Y-98039856D01*
X146351328Y-98004711D01*
X146351328Y-98004710D01*
X146353300Y-97997030D01*
X146353300Y-97976776D01*
X146354851Y-97957065D01*
X146356780Y-97944886D01*
X146358020Y-97937057D01*
X146353859Y-97893038D01*
X146353300Y-97881181D01*
X146353300Y-97654900D01*
X146373302Y-97586779D01*
X146426958Y-97540286D01*
X146479299Y-97528900D01*
X146630489Y-97528899D01*
X146636834Y-97528899D01*
X146639692Y-97528636D01*
X146639701Y-97528636D01*
X146675204Y-97525374D01*
X146710262Y-97522153D01*
X146718230Y-97519656D01*
X146866650Y-97473144D01*
X146866652Y-97473143D01*
X146873899Y-97470872D01*
X147020581Y-97382039D01*
X147116459Y-97286161D01*
X147178771Y-97252135D01*
X147249586Y-97257200D01*
X147294649Y-97286161D01*
X147384757Y-97376269D01*
X147396626Y-97385576D01*
X147530212Y-97466479D01*
X147543957Y-97472685D01*
X147693844Y-97519656D01*
X147706894Y-97522269D01*
X147761786Y-97527313D01*
X147773324Y-97523925D01*
X147774529Y-97522535D01*
X147776200Y-97514852D01*
X147776200Y-97510284D01*
X148284200Y-97510284D01*
X148288675Y-97525523D01*
X148290065Y-97526728D01*
X148294494Y-97527691D01*
X148353515Y-97522268D01*
X148366551Y-97519657D01*
X148516443Y-97472685D01*
X148530188Y-97466479D01*
X148663774Y-97385576D01*
X148675643Y-97376269D01*
X148786069Y-97265843D01*
X148795376Y-97253974D01*
X148876279Y-97120388D01*
X148882485Y-97106643D01*
X148929456Y-96956756D01*
X148932069Y-96943706D01*
X148937934Y-96879879D01*
X148938200Y-96874091D01*
X148938200Y-96817515D01*
X148933725Y-96802276D01*
X148932335Y-96801071D01*
X148924652Y-96799400D01*
X148302315Y-96799400D01*
X148287076Y-96803875D01*
X148285871Y-96805265D01*
X148284200Y-96812948D01*
X148284200Y-97510284D01*
X147776200Y-97510284D01*
X147776200Y-95580516D01*
X147771725Y-95565277D01*
X147770335Y-95564072D01*
X147765906Y-95563109D01*
X147706885Y-95568532D01*
X147693849Y-95571143D01*
X147543957Y-95618115D01*
X147530212Y-95624321D01*
X147396626Y-95705224D01*
X147384757Y-95714531D01*
X147294649Y-95804639D01*
X147232337Y-95838665D01*
X147161522Y-95833600D01*
X147116459Y-95804639D01*
X147020581Y-95708761D01*
X146873899Y-95619928D01*
X146866652Y-95617657D01*
X146866650Y-95617656D01*
X146800364Y-95596883D01*
X146710262Y-95568647D01*
X146636835Y-95561900D01*
X146633937Y-95561900D01*
X146379535Y-95561901D01*
X146123566Y-95561901D01*
X146120708Y-95562164D01*
X146120699Y-95562164D01*
X146086819Y-95565277D01*
X146050138Y-95568647D01*
X146043760Y-95570646D01*
X146043759Y-95570646D01*
X145893750Y-95617656D01*
X145893748Y-95617657D01*
X145886501Y-95619928D01*
X145739819Y-95708761D01*
X145668695Y-95779885D01*
X145606383Y-95813911D01*
X145535568Y-95808846D01*
X145490505Y-95779885D01*
X145419381Y-95708761D01*
X145272699Y-95619928D01*
X145265452Y-95617657D01*
X145265450Y-95617656D01*
X145199164Y-95596883D01*
X145109062Y-95568647D01*
X145035635Y-95561900D01*
X145032737Y-95561900D01*
X144778335Y-95561901D01*
X144522366Y-95561901D01*
X144519508Y-95562164D01*
X144519499Y-95562164D01*
X144485619Y-95565277D01*
X144448938Y-95568647D01*
X144442560Y-95570646D01*
X144442559Y-95570646D01*
X144292550Y-95617656D01*
X144292548Y-95617657D01*
X144285301Y-95619928D01*
X144138619Y-95708761D01*
X144043095Y-95804285D01*
X143980783Y-95838311D01*
X143909968Y-95833246D01*
X143864905Y-95804285D01*
X143799405Y-95738785D01*
X143765379Y-95676473D01*
X143762500Y-95649690D01*
X143762500Y-93982568D01*
X143763027Y-93971385D01*
X143764702Y-93963892D01*
X143762562Y-93895801D01*
X143762500Y-93891844D01*
X143762500Y-93863944D01*
X143761996Y-93859953D01*
X143761063Y-93848111D01*
X143759923Y-93811836D01*
X143759674Y-93803911D01*
X143757090Y-93795017D01*
X143754021Y-93784452D01*
X143750012Y-93765093D01*
X143749846Y-93763783D01*
X143747474Y-93745003D01*
X143744558Y-93737637D01*
X143744556Y-93737631D01*
X143731200Y-93703898D01*
X143727355Y-93692668D01*
X143717230Y-93657817D01*
X143717230Y-93657816D01*
X143715019Y-93650207D01*
X143704705Y-93632766D01*
X143696008Y-93615013D01*
X143691472Y-93603558D01*
X143688552Y-93596183D01*
X143662563Y-93560412D01*
X143656047Y-93550492D01*
X143637578Y-93519263D01*
X143633542Y-93512438D01*
X143619221Y-93498117D01*
X143606380Y-93483083D01*
X143599131Y-93473106D01*
X143594472Y-93466693D01*
X143588368Y-93461643D01*
X143588363Y-93461638D01*
X143560402Y-93438507D01*
X143551621Y-93430517D01*
X142987273Y-92866168D01*
X144538182Y-92866168D01*
X144567008Y-93115299D01*
X144568387Y-93120173D01*
X144568388Y-93120177D01*
X144607326Y-93257781D01*
X144635294Y-93356617D01*
X144637428Y-93361192D01*
X144637430Y-93361199D01*
X144728086Y-93555610D01*
X144741284Y-93583913D01*
X144744126Y-93588094D01*
X144744126Y-93588095D01*
X144879405Y-93787152D01*
X144879408Y-93787156D01*
X144882251Y-93791339D01*
X144885728Y-93795016D01*
X144885729Y-93795017D01*
X144986038Y-93901091D01*
X145054567Y-93973559D01*
X145058593Y-93976637D01*
X145058594Y-93976638D01*
X145249781Y-94122812D01*
X145249785Y-94122815D01*
X145253801Y-94125885D01*
X145258259Y-94128275D01*
X145258260Y-94128276D01*
X145328996Y-94166204D01*
X145474826Y-94244397D01*
X145479607Y-94246043D01*
X145479611Y-94246045D01*
X145705338Y-94323769D01*
X145711956Y-94326048D01*
X145815489Y-94343931D01*
X145955180Y-94368060D01*
X145955186Y-94368061D01*
X145959090Y-94368735D01*
X145963051Y-94368915D01*
X145963052Y-94368915D01*
X145987731Y-94370036D01*
X145987750Y-94370036D01*
X145989150Y-94370100D01*
X146163815Y-94370100D01*
X146166323Y-94369898D01*
X146166328Y-94369898D01*
X146345744Y-94355463D01*
X146345749Y-94355462D01*
X146350785Y-94355057D01*
X146355693Y-94353852D01*
X146355696Y-94353851D01*
X146589425Y-94296441D01*
X146594339Y-94295234D01*
X146598991Y-94293259D01*
X146598995Y-94293258D01*
X146820541Y-94199217D01*
X146820542Y-94199217D01*
X146825196Y-94197241D01*
X147037415Y-94063600D01*
X147225538Y-93897747D01*
X147384724Y-93703951D01*
X147510878Y-93487196D01*
X147518749Y-93466693D01*
X147569423Y-93334683D01*
X147600755Y-93253061D01*
X147624515Y-93139330D01*
X147651006Y-93012521D01*
X147652041Y-93007567D01*
X147652331Y-93001197D01*
X147658462Y-92866168D01*
X147663418Y-92757032D01*
X147662408Y-92748298D01*
X147635174Y-92512934D01*
X147634592Y-92507901D01*
X147595610Y-92370139D01*
X147567684Y-92271452D01*
X147567683Y-92271450D01*
X147566306Y-92266583D01*
X147564172Y-92262008D01*
X147564170Y-92262001D01*
X147462453Y-92043869D01*
X147462451Y-92043865D01*
X147460316Y-92039287D01*
X147457474Y-92035105D01*
X147322195Y-91836048D01*
X147322192Y-91836044D01*
X147319349Y-91831861D01*
X147218725Y-91725453D01*
X147150513Y-91653321D01*
X147147033Y-91649641D01*
X147143006Y-91646562D01*
X146951819Y-91500388D01*
X146951815Y-91500385D01*
X146947799Y-91497315D01*
X146726774Y-91378803D01*
X146721993Y-91377157D01*
X146721989Y-91377155D01*
X146494433Y-91298801D01*
X146489644Y-91297152D01*
X146386111Y-91279269D01*
X146246420Y-91255140D01*
X146246414Y-91255139D01*
X146242510Y-91254465D01*
X146238549Y-91254285D01*
X146238548Y-91254285D01*
X146213869Y-91253164D01*
X146213850Y-91253164D01*
X146212450Y-91253100D01*
X146037785Y-91253100D01*
X146035277Y-91253302D01*
X146035272Y-91253302D01*
X145855856Y-91267737D01*
X145855851Y-91267738D01*
X145850815Y-91268143D01*
X145845907Y-91269348D01*
X145845904Y-91269349D01*
X145614126Y-91326280D01*
X145607261Y-91327966D01*
X145602609Y-91329941D01*
X145602605Y-91329942D01*
X145381059Y-91423983D01*
X145376404Y-91425959D01*
X145164185Y-91559600D01*
X144976062Y-91725453D01*
X144816876Y-91919249D01*
X144690722Y-92136004D01*
X144600845Y-92370139D01*
X144599812Y-92375085D01*
X144599810Y-92375091D01*
X144582500Y-92457953D01*
X144549559Y-92615633D01*
X144549330Y-92620682D01*
X144549329Y-92620688D01*
X144545971Y-92694642D01*
X144538182Y-92866168D01*
X142987273Y-92866168D01*
X142639835Y-92518730D01*
X142605810Y-92456418D01*
X142604235Y-92411558D01*
X142615123Y-92336463D01*
X142616649Y-92278200D01*
X142603583Y-92136004D01*
X142598537Y-92081080D01*
X142598536Y-92081077D01*
X142598008Y-92075326D01*
X142542707Y-91879247D01*
X142532080Y-91857696D01*
X142455156Y-91701710D01*
X142452601Y-91696529D01*
X142434196Y-91671881D01*
X142334158Y-91537915D01*
X142334158Y-91537914D01*
X142330705Y-91533291D01*
X142181103Y-91395000D01*
X142182081Y-91393942D01*
X142144326Y-91342229D01*
X142136900Y-91299611D01*
X142136900Y-83694138D01*
X142156902Y-83626017D01*
X142173805Y-83605043D01*
X144444811Y-81334038D01*
X144507123Y-81300012D01*
X144577939Y-81305077D01*
X144634774Y-81347624D01*
X144648101Y-81369883D01*
X144727566Y-81540294D01*
X144741284Y-81569713D01*
X144744126Y-81573894D01*
X144744126Y-81573895D01*
X144879405Y-81772952D01*
X144879408Y-81772956D01*
X144882251Y-81777139D01*
X144885728Y-81780816D01*
X144885729Y-81780817D01*
X144986038Y-81886891D01*
X145054567Y-81959359D01*
X145058593Y-81962437D01*
X145058594Y-81962438D01*
X145249781Y-82108612D01*
X145249785Y-82108615D01*
X145253801Y-82111685D01*
X145258259Y-82114075D01*
X145258260Y-82114076D01*
X145285439Y-82128649D01*
X145474826Y-82230197D01*
X145479607Y-82231843D01*
X145479611Y-82231845D01*
X145705338Y-82309569D01*
X145711956Y-82311848D01*
X145815489Y-82329731D01*
X145955180Y-82353860D01*
X145955186Y-82353861D01*
X145959090Y-82354535D01*
X145963051Y-82354715D01*
X145963052Y-82354715D01*
X145987731Y-82355836D01*
X145987750Y-82355836D01*
X145989150Y-82355900D01*
X146163815Y-82355900D01*
X146166323Y-82355698D01*
X146166328Y-82355698D01*
X146345744Y-82341263D01*
X146345749Y-82341262D01*
X146350785Y-82340857D01*
X146355693Y-82339652D01*
X146355696Y-82339651D01*
X146589425Y-82282241D01*
X146594339Y-82281034D01*
X146598991Y-82279059D01*
X146598995Y-82279058D01*
X146820541Y-82185017D01*
X146820542Y-82185017D01*
X146825196Y-82183041D01*
X147037415Y-82049400D01*
X147225538Y-81883547D01*
X147384724Y-81689751D01*
X147510878Y-81472996D01*
X147526337Y-81432726D01*
X147598943Y-81243581D01*
X147600755Y-81238861D01*
X147606873Y-81209578D01*
X147651006Y-80998321D01*
X147652041Y-80993367D01*
X147657082Y-80882361D01*
X149072793Y-80882361D01*
X149082087Y-80894375D01*
X149122488Y-80922664D01*
X149131984Y-80928147D01*
X149321513Y-81016526D01*
X149331805Y-81020272D01*
X149533801Y-81074396D01*
X149544596Y-81076299D01*
X149752925Y-81094526D01*
X149763875Y-81094526D01*
X149972204Y-81076299D01*
X149982999Y-81074396D01*
X150184995Y-81020272D01*
X150195287Y-81016526D01*
X150384816Y-80928147D01*
X150394312Y-80922664D01*
X150435548Y-80893790D01*
X150443923Y-80883312D01*
X150436857Y-80869868D01*
X149771211Y-80204221D01*
X149757268Y-80196608D01*
X149755434Y-80196739D01*
X149748820Y-80200990D01*
X149079220Y-80870591D01*
X149072793Y-80882361D01*
X147657082Y-80882361D01*
X147663418Y-80742832D01*
X147634592Y-80493701D01*
X147624665Y-80458617D01*
X147567684Y-80257252D01*
X147567683Y-80257250D01*
X147566306Y-80252383D01*
X147564172Y-80247808D01*
X147564170Y-80247801D01*
X147462453Y-80029669D01*
X147462451Y-80029665D01*
X147460316Y-80025087D01*
X147457474Y-80020905D01*
X147332951Y-79837675D01*
X148496074Y-79837675D01*
X148514301Y-80046004D01*
X148516204Y-80056799D01*
X148570328Y-80258795D01*
X148574074Y-80269087D01*
X148662454Y-80458617D01*
X148667934Y-80468107D01*
X148696811Y-80509349D01*
X148707287Y-80517723D01*
X148720734Y-80510655D01*
X149386379Y-79845011D01*
X149392756Y-79833332D01*
X150122808Y-79833332D01*
X150122939Y-79835166D01*
X150127190Y-79841780D01*
X150796791Y-80511380D01*
X150808561Y-80517807D01*
X150820576Y-80508511D01*
X150848866Y-80468107D01*
X150854346Y-80458617D01*
X150942726Y-80269087D01*
X150946472Y-80258795D01*
X151000596Y-80056799D01*
X151002499Y-80046004D01*
X151020726Y-79837675D01*
X151020726Y-79826725D01*
X151002499Y-79618396D01*
X151000596Y-79607601D01*
X150946472Y-79405605D01*
X150942726Y-79395313D01*
X150854346Y-79205783D01*
X150848866Y-79196293D01*
X150819989Y-79155051D01*
X150809513Y-79146677D01*
X150796066Y-79153745D01*
X150130421Y-79819389D01*
X150122808Y-79833332D01*
X149392756Y-79833332D01*
X149393992Y-79831068D01*
X149393861Y-79829234D01*
X149389610Y-79822620D01*
X148720009Y-79153020D01*
X148708239Y-79146593D01*
X148696224Y-79155889D01*
X148667934Y-79196293D01*
X148662454Y-79205783D01*
X148574074Y-79395313D01*
X148570328Y-79405605D01*
X148516204Y-79607601D01*
X148514301Y-79618396D01*
X148496074Y-79826725D01*
X148496074Y-79837675D01*
X147332951Y-79837675D01*
X147322195Y-79821848D01*
X147322192Y-79821844D01*
X147319349Y-79817661D01*
X147147033Y-79635441D01*
X147110620Y-79607601D01*
X146951819Y-79486188D01*
X146951815Y-79486185D01*
X146947799Y-79483115D01*
X146905024Y-79460179D01*
X146731235Y-79366995D01*
X146726774Y-79364603D01*
X146721993Y-79362957D01*
X146721989Y-79362955D01*
X146494433Y-79284601D01*
X146489644Y-79282952D01*
X146484655Y-79282090D01*
X146484654Y-79282090D01*
X146330853Y-79255524D01*
X146267131Y-79224219D01*
X146230450Y-79163433D01*
X146226300Y-79131363D01*
X146226300Y-78781087D01*
X149072877Y-78781087D01*
X149079945Y-78794534D01*
X149745589Y-79460179D01*
X149759532Y-79467792D01*
X149761366Y-79467661D01*
X149767980Y-79463410D01*
X150437580Y-78793809D01*
X150444007Y-78782039D01*
X150434713Y-78770025D01*
X150394312Y-78741736D01*
X150384816Y-78736253D01*
X150195287Y-78647874D01*
X150184995Y-78644128D01*
X149982999Y-78590004D01*
X149972204Y-78588101D01*
X149763875Y-78569874D01*
X149752925Y-78569874D01*
X149544596Y-78588101D01*
X149533801Y-78590004D01*
X149331805Y-78644128D01*
X149321513Y-78647874D01*
X149131983Y-78736254D01*
X149122493Y-78741734D01*
X149081251Y-78770611D01*
X149072877Y-78781087D01*
X146226300Y-78781087D01*
X146226300Y-73065754D01*
X146246302Y-72997633D01*
X146280028Y-72962542D01*
X146346934Y-72915694D01*
X146400327Y-72878308D01*
X146400330Y-72878306D01*
X146404838Y-72875149D01*
X146560549Y-72719438D01*
X146590405Y-72676800D01*
X146683699Y-72543562D01*
X146683700Y-72543560D01*
X146686856Y-72539053D01*
X146689179Y-72534071D01*
X146689182Y-72534066D01*
X146777595Y-72344461D01*
X146779920Y-72339476D01*
X146836915Y-72126771D01*
X146856107Y-71907400D01*
X146836915Y-71688029D01*
X146779920Y-71475324D01*
X146730915Y-71370232D01*
X146689182Y-71280734D01*
X146689179Y-71280729D01*
X146686856Y-71275747D01*
X146657546Y-71233888D01*
X146563708Y-71099873D01*
X146563706Y-71099870D01*
X146560549Y-71095362D01*
X146404838Y-70939651D01*
X146224454Y-70813344D01*
X146024876Y-70720280D01*
X145812171Y-70663285D01*
X145592800Y-70644093D01*
X145373429Y-70663285D01*
X145160724Y-70720280D01*
X145067362Y-70763815D01*
X144966134Y-70811018D01*
X144966129Y-70811021D01*
X144961147Y-70813344D01*
X144956640Y-70816500D01*
X144956638Y-70816501D01*
X144785273Y-70936492D01*
X144785270Y-70936494D01*
X144780762Y-70939651D01*
X144625051Y-71095362D01*
X144621894Y-71099870D01*
X144621892Y-71099873D01*
X144528054Y-71233888D01*
X144498744Y-71275747D01*
X144496421Y-71280729D01*
X144496418Y-71280734D01*
X144454685Y-71370232D01*
X144405680Y-71475324D01*
X144348685Y-71688029D01*
X144329493Y-71907400D01*
X144348685Y-72126771D01*
X144405680Y-72339476D01*
X144408005Y-72344461D01*
X144496418Y-72534066D01*
X144496421Y-72534071D01*
X144498744Y-72539053D01*
X144501900Y-72543560D01*
X144501901Y-72543562D01*
X144595196Y-72676800D01*
X144625051Y-72719438D01*
X144780762Y-72875149D01*
X144785270Y-72878306D01*
X144785273Y-72878308D01*
X144838666Y-72915694D01*
X144905572Y-72962542D01*
X144949899Y-73017998D01*
X144959300Y-73065754D01*
X144959300Y-78975550D01*
X144939298Y-79043671D01*
X144922395Y-79064645D01*
X142017012Y-81970027D01*
X141954700Y-82004053D01*
X141883884Y-81998988D01*
X141827049Y-81956441D01*
X141802238Y-81889921D01*
X141803221Y-81862852D01*
X141805122Y-81849741D01*
X141827723Y-81693863D01*
X141829249Y-81635600D01*
X141810608Y-81432726D01*
X141755307Y-81236647D01*
X141744680Y-81215096D01*
X141667756Y-81059110D01*
X141665201Y-81053929D01*
X141646796Y-81029281D01*
X141546758Y-80895315D01*
X141546758Y-80895314D01*
X141543305Y-80890691D01*
X141393703Y-80752400D01*
X141225385Y-80646200D01*
X141178447Y-80592934D01*
X141166620Y-80539638D01*
X141166620Y-73065754D01*
X141186622Y-72997633D01*
X141220348Y-72962542D01*
X141287254Y-72915694D01*
X141340647Y-72878308D01*
X141340650Y-72878306D01*
X141345158Y-72875149D01*
X141500869Y-72719438D01*
X141530725Y-72676800D01*
X141624019Y-72543562D01*
X141624020Y-72543560D01*
X141627176Y-72539053D01*
X141629499Y-72534071D01*
X141629502Y-72534066D01*
X141717915Y-72344461D01*
X141720240Y-72339476D01*
X141777235Y-72126771D01*
X141796427Y-71907400D01*
X141777235Y-71688029D01*
X141720240Y-71475324D01*
X141671235Y-71370232D01*
X141629502Y-71280734D01*
X141629499Y-71280729D01*
X141627176Y-71275747D01*
X141597866Y-71233888D01*
X141504028Y-71099873D01*
X141504026Y-71099870D01*
X141500869Y-71095362D01*
X141345158Y-70939651D01*
X141164774Y-70813344D01*
X140965196Y-70720280D01*
X140752491Y-70663285D01*
X140533120Y-70644093D01*
X140313749Y-70663285D01*
X140101044Y-70720280D01*
X140007682Y-70763815D01*
X139906454Y-70811018D01*
X139906449Y-70811021D01*
X139901467Y-70813344D01*
X139896960Y-70816500D01*
X139896958Y-70816501D01*
X139725593Y-70936492D01*
X139725590Y-70936494D01*
X139721082Y-70939651D01*
X139565371Y-71095362D01*
X139562214Y-71099870D01*
X139562212Y-71099873D01*
X139468374Y-71233888D01*
X139439064Y-71275747D01*
X139436741Y-71280729D01*
X139436738Y-71280734D01*
X139395005Y-71370232D01*
X139346000Y-71475324D01*
X139289005Y-71688029D01*
X139269813Y-71907400D01*
X139289005Y-72126771D01*
X139346000Y-72339476D01*
X139348325Y-72344461D01*
X139436738Y-72534066D01*
X139436741Y-72534071D01*
X139439064Y-72539053D01*
X139442220Y-72543560D01*
X139442221Y-72543562D01*
X139535516Y-72676800D01*
X139565371Y-72719438D01*
X139721082Y-72875149D01*
X139725590Y-72878306D01*
X139725593Y-72878308D01*
X139778986Y-72915694D01*
X139845892Y-72962542D01*
X139890219Y-73017998D01*
X139899620Y-73065754D01*
X139899620Y-80836833D01*
X139879618Y-80904954D01*
X139872572Y-80914836D01*
X139782351Y-81029281D01*
X139779662Y-81034392D01*
X139779660Y-81034395D01*
X139748024Y-81094526D01*
X139687492Y-81209578D01*
X139627078Y-81404143D01*
X139603132Y-81606459D01*
X139608618Y-81690155D01*
X139614537Y-81780458D01*
X139599033Y-81849741D01*
X139577902Y-81877794D01*
X137920660Y-83535036D01*
X137858348Y-83569062D01*
X137787533Y-83563997D01*
X137742470Y-83535036D01*
X137081819Y-82874385D01*
X137057166Y-82836423D01*
X137056307Y-82836847D01*
X136968756Y-82659310D01*
X136966201Y-82654129D01*
X136890728Y-82553058D01*
X136847758Y-82495515D01*
X136847758Y-82495514D01*
X136844305Y-82490891D01*
X136694703Y-82352600D01*
X136627501Y-82310199D01*
X136527288Y-82246969D01*
X136527283Y-82246967D01*
X136522404Y-82243888D01*
X136333180Y-82168395D01*
X136133366Y-82128649D01*
X136127588Y-82128573D01*
X136121846Y-82127970D01*
X136122119Y-82125372D01*
X136064873Y-82107717D01*
X136019112Y-82053436D01*
X136009962Y-81983031D01*
X136023436Y-81945568D01*
X136023052Y-81945402D01*
X136023053Y-81945401D01*
X136040616Y-81904817D01*
X136045823Y-81894187D01*
X136067135Y-81855420D01*
X136069106Y-81847743D01*
X136069108Y-81847738D01*
X136072172Y-81835802D01*
X136078578Y-81817090D01*
X136083473Y-81805779D01*
X136086621Y-81798505D01*
X136087861Y-81790677D01*
X136087863Y-81790670D01*
X136093539Y-81754836D01*
X136095945Y-81743216D01*
X136104968Y-81708071D01*
X136104968Y-81708070D01*
X136106940Y-81700390D01*
X136106940Y-81680136D01*
X136108491Y-81660425D01*
X136110420Y-81648246D01*
X136111660Y-81640417D01*
X136107499Y-81596398D01*
X136106940Y-81584541D01*
X136106940Y-73065754D01*
X136126942Y-72997633D01*
X136160668Y-72962542D01*
X136227574Y-72915694D01*
X136280967Y-72878308D01*
X136280970Y-72878306D01*
X136285478Y-72875149D01*
X136441189Y-72719438D01*
X136471045Y-72676800D01*
X136564339Y-72543562D01*
X136564340Y-72543560D01*
X136567496Y-72539053D01*
X136569819Y-72534071D01*
X136569822Y-72534066D01*
X136658235Y-72344461D01*
X136660560Y-72339476D01*
X136717555Y-72126771D01*
X136736747Y-71907400D01*
X136717555Y-71688029D01*
X136660560Y-71475324D01*
X136611555Y-71370232D01*
X136569822Y-71280734D01*
X136569819Y-71280729D01*
X136567496Y-71275747D01*
X136538186Y-71233888D01*
X136444348Y-71099873D01*
X136444346Y-71099870D01*
X136441189Y-71095362D01*
X136285478Y-70939651D01*
X136105094Y-70813344D01*
X135905516Y-70720280D01*
X135692811Y-70663285D01*
X135473440Y-70644093D01*
X135467965Y-70644572D01*
X135462459Y-70644572D01*
X135462459Y-70643403D01*
X135398575Y-70630563D01*
X135347583Y-70581162D01*
X135331200Y-70519032D01*
X135331200Y-69441680D01*
X135351202Y-69373559D01*
X135404858Y-69327066D01*
X135456276Y-69315683D01*
X152526734Y-69190533D01*
X152595000Y-69210035D01*
G37*
%TD.AperFunction*%
%TA.AperFunction,Conductor*%
G36*
X145647412Y-103320609D02*
G01*
X145674019Y-103352833D01*
X145705260Y-103406944D01*
X145833047Y-103548866D01*
X145987548Y-103661118D01*
X145993576Y-103663802D01*
X145993578Y-103663803D01*
X146155981Y-103736109D01*
X146162012Y-103738794D01*
X146255412Y-103758647D01*
X146342356Y-103777128D01*
X146342361Y-103777128D01*
X146348813Y-103778500D01*
X146404706Y-103778500D01*
X146472827Y-103798502D01*
X146493801Y-103815405D01*
X147919595Y-105241200D01*
X147953621Y-105303512D01*
X147956500Y-105330295D01*
X147956500Y-106909600D01*
X147936498Y-106977721D01*
X147882842Y-107024214D01*
X147830500Y-107035600D01*
X145516225Y-107035600D01*
X145448104Y-107015598D01*
X145401611Y-106961942D01*
X145391507Y-106891668D01*
X145397692Y-106868413D01*
X145399095Y-106865860D01*
X145401064Y-106858190D01*
X145401067Y-106858183D01*
X145404132Y-106846242D01*
X145410538Y-106827530D01*
X145415434Y-106816217D01*
X145418581Y-106808945D01*
X145425497Y-106765281D01*
X145427904Y-106753660D01*
X145436928Y-106718511D01*
X145436928Y-106718510D01*
X145438900Y-106710830D01*
X145438900Y-106690569D01*
X145440451Y-106670858D01*
X145442379Y-106658685D01*
X145443619Y-106650857D01*
X145439459Y-106606846D01*
X145438900Y-106594989D01*
X145438900Y-103415833D01*
X145458902Y-103347712D01*
X145512558Y-103301219D01*
X145582832Y-103291115D01*
X145647412Y-103320609D01*
G37*
%TD.AperFunction*%
%TA.AperFunction,Conductor*%
G36*
X138754288Y-96311402D02*
G01*
X138775262Y-96328305D01*
X138887895Y-96440938D01*
X138921921Y-96503250D01*
X138924800Y-96530033D01*
X138924800Y-97510284D01*
X138929275Y-97525523D01*
X138930665Y-97526728D01*
X138935094Y-97527691D01*
X138994115Y-97522268D01*
X139007151Y-97519657D01*
X139157043Y-97472685D01*
X139170788Y-97466479D01*
X139304374Y-97385576D01*
X139316243Y-97376269D01*
X139426669Y-97265843D01*
X139435978Y-97253971D01*
X139452671Y-97226408D01*
X139505068Y-97178501D01*
X139575047Y-97166528D01*
X139640392Y-97194289D01*
X139649542Y-97202584D01*
X141146795Y-98699837D01*
X141180821Y-98762149D01*
X141183700Y-98788932D01*
X141183700Y-99569500D01*
X141163698Y-99637621D01*
X141110042Y-99684114D01*
X141057700Y-99695500D01*
X140174066Y-99695500D01*
X140111884Y-99702255D01*
X139975495Y-99753385D01*
X139858939Y-99840739D01*
X139771585Y-99957295D01*
X139720455Y-100093684D01*
X139713700Y-100155866D01*
X139713700Y-106092134D01*
X139720455Y-106154316D01*
X139771585Y-106290705D01*
X139858939Y-106407261D01*
X139866119Y-106412642D01*
X139872469Y-106418992D01*
X139870471Y-106420990D01*
X139904334Y-106466270D01*
X139909366Y-106537088D01*
X139875353Y-106599343D01*
X139549712Y-106924984D01*
X139487400Y-106959010D01*
X139458984Y-106961878D01*
X138763152Y-106952841D01*
X137037495Y-106930429D01*
X136969639Y-106909544D01*
X136950036Y-106893535D01*
X136623648Y-106567147D01*
X136616108Y-106558861D01*
X136611996Y-106552382D01*
X136562344Y-106505756D01*
X136559503Y-106503002D01*
X136539766Y-106483265D01*
X136536569Y-106480785D01*
X136527547Y-106473080D01*
X136501096Y-106448241D01*
X136495317Y-106442814D01*
X136488371Y-106438995D01*
X136488368Y-106438993D01*
X136477562Y-106433052D01*
X136461043Y-106422201D01*
X136456906Y-106418992D01*
X136445037Y-106409786D01*
X136437768Y-106406641D01*
X136437764Y-106406638D01*
X136404459Y-106392226D01*
X136393809Y-106387009D01*
X136355056Y-106365705D01*
X136335433Y-106360667D01*
X136316730Y-106354263D01*
X136305416Y-106349367D01*
X136305415Y-106349367D01*
X136298141Y-106346219D01*
X136290318Y-106344980D01*
X136290308Y-106344977D01*
X136254472Y-106339301D01*
X136242852Y-106336895D01*
X136207707Y-106327872D01*
X136207706Y-106327872D01*
X136200026Y-106325900D01*
X136179772Y-106325900D01*
X136160061Y-106324349D01*
X136147882Y-106322420D01*
X136140053Y-106321180D01*
X136132161Y-106321926D01*
X136096035Y-106325341D01*
X136084177Y-106325900D01*
X135631419Y-106325900D01*
X135563298Y-106305898D01*
X135516805Y-106252242D01*
X135506701Y-106181968D01*
X135509889Y-106169530D01*
X135509344Y-106169400D01*
X135511171Y-106161715D01*
X135513945Y-106154316D01*
X135520700Y-106092134D01*
X135520700Y-100155866D01*
X135513945Y-100093684D01*
X135462815Y-99957295D01*
X135375461Y-99840739D01*
X135372216Y-99838307D01*
X135339376Y-99778167D01*
X135336498Y-99751741D01*
X135336419Y-99723833D01*
X135356228Y-99655656D01*
X135373323Y-99634381D01*
X136119899Y-98887805D01*
X136182211Y-98853779D01*
X136208994Y-98850900D01*
X136264887Y-98850900D01*
X136271339Y-98849528D01*
X136271344Y-98849528D01*
X136358287Y-98831047D01*
X136451688Y-98811194D01*
X136468938Y-98803514D01*
X136620122Y-98736203D01*
X136620124Y-98736202D01*
X136626152Y-98733518D01*
X136780653Y-98621266D01*
X136796185Y-98604016D01*
X136904021Y-98484252D01*
X136904022Y-98484251D01*
X136908440Y-98479344D01*
X136967890Y-98376373D01*
X137000623Y-98319679D01*
X137000624Y-98319678D01*
X137003927Y-98313956D01*
X137062942Y-98132328D01*
X137064438Y-98118100D01*
X137082214Y-97948965D01*
X137082904Y-97942400D01*
X137073158Y-97849671D01*
X137063632Y-97759035D01*
X137063632Y-97759033D01*
X137062942Y-97752472D01*
X137043890Y-97693835D01*
X137041863Y-97622867D01*
X137078525Y-97562069D01*
X137142238Y-97530744D01*
X137163719Y-97528899D01*
X137277434Y-97528899D01*
X137280292Y-97528636D01*
X137280301Y-97528636D01*
X137315804Y-97525374D01*
X137350862Y-97522153D01*
X137358830Y-97519656D01*
X137507250Y-97473144D01*
X137507252Y-97473143D01*
X137514499Y-97470872D01*
X137661181Y-97382039D01*
X137757059Y-97286161D01*
X137819371Y-97252135D01*
X137890186Y-97257200D01*
X137935249Y-97286161D01*
X138025357Y-97376269D01*
X138037226Y-97385576D01*
X138170812Y-97466479D01*
X138184557Y-97472685D01*
X138334444Y-97519656D01*
X138347494Y-97522269D01*
X138402386Y-97527313D01*
X138413924Y-97523925D01*
X138415129Y-97522535D01*
X138416800Y-97514852D01*
X138416800Y-96417400D01*
X138436802Y-96349279D01*
X138490458Y-96302786D01*
X138542800Y-96291400D01*
X138686167Y-96291400D01*
X138754288Y-96311402D01*
G37*
%TD.AperFunction*%
%TA.AperFunction,Conductor*%
G36*
X137286229Y-85933625D02*
G01*
X137301871Y-85946905D01*
X137409995Y-86055029D01*
X137444021Y-86117341D01*
X137446900Y-86144124D01*
X137446900Y-92189274D01*
X137426898Y-92257395D01*
X137409996Y-92278369D01*
X136956971Y-92731395D01*
X136894658Y-92765420D01*
X136867875Y-92768300D01*
X135457200Y-92768300D01*
X135389079Y-92748298D01*
X135342586Y-92694642D01*
X135331200Y-92642300D01*
X135331200Y-87346559D01*
X135351202Y-87278438D01*
X135404858Y-87231945D01*
X135475132Y-87221841D01*
X135506938Y-87230791D01*
X135642435Y-87289005D01*
X135653378Y-87292560D01*
X135840720Y-87334952D01*
X135852130Y-87336454D01*
X136044069Y-87343995D01*
X136055551Y-87343393D01*
X136245645Y-87315832D01*
X136256840Y-87313144D01*
X136438731Y-87251400D01*
X136449228Y-87246726D01*
X136559632Y-87184898D01*
X136569495Y-87174821D01*
X136566539Y-87167149D01*
X135721485Y-86322095D01*
X135687459Y-86259783D01*
X135692524Y-86188968D01*
X135721485Y-86143905D01*
X135902505Y-85962885D01*
X135964817Y-85928859D01*
X136035632Y-85933924D01*
X136080695Y-85962885D01*
X136921837Y-86804027D01*
X136934214Y-86810785D01*
X136940794Y-86805859D01*
X137005326Y-86690628D01*
X137010000Y-86680131D01*
X137071744Y-86498240D01*
X137074432Y-86487045D01*
X137102289Y-86294911D01*
X137102919Y-86287528D01*
X137104250Y-86236704D01*
X137104007Y-86229305D01*
X137087305Y-86047529D01*
X137100990Y-85977864D01*
X137150166Y-85926656D01*
X137219221Y-85910165D01*
X137286229Y-85933625D01*
G37*
%TD.AperFunction*%
%TD*%
%TA.AperFunction,Conductor*%
%TO.N,GND*%
G36*
X152368571Y-120695402D02*
G01*
X152415064Y-120749058D01*
X152426446Y-120800345D01*
X152454951Y-124204621D01*
X152581657Y-139337003D01*
X152562227Y-139405287D01*
X152508962Y-139452227D01*
X152438775Y-139462919D01*
X152373950Y-139433968D01*
X152351450Y-139408879D01*
X152300595Y-139334049D01*
X152297749Y-139329861D01*
X152197125Y-139223453D01*
X152128913Y-139151321D01*
X152125433Y-139147641D01*
X152070667Y-139105769D01*
X151930219Y-138998388D01*
X151930215Y-138998385D01*
X151926199Y-138995315D01*
X151705174Y-138876803D01*
X151700393Y-138875157D01*
X151700389Y-138875155D01*
X151472833Y-138796801D01*
X151468044Y-138795152D01*
X151364511Y-138777269D01*
X151224820Y-138753140D01*
X151224814Y-138753139D01*
X151220910Y-138752465D01*
X151216949Y-138752285D01*
X151216948Y-138752285D01*
X151192269Y-138751164D01*
X151192250Y-138751164D01*
X151190850Y-138751100D01*
X151016185Y-138751100D01*
X151013677Y-138751302D01*
X151013672Y-138751302D01*
X150834256Y-138765737D01*
X150834251Y-138765738D01*
X150829215Y-138766143D01*
X150824307Y-138767348D01*
X150824304Y-138767349D01*
X150669956Y-138805261D01*
X150585661Y-138825966D01*
X150581009Y-138827941D01*
X150581005Y-138827942D01*
X150460261Y-138879195D01*
X150354804Y-138923959D01*
X150350520Y-138926657D01*
X150147270Y-139054650D01*
X150142585Y-139057600D01*
X149954462Y-139223453D01*
X149795276Y-139417249D01*
X149669122Y-139634004D01*
X149579245Y-139868139D01*
X149578212Y-139873085D01*
X149578210Y-139873091D01*
X149545043Y-140031857D01*
X149527959Y-140113633D01*
X149527730Y-140118682D01*
X149527729Y-140118688D01*
X149523795Y-140205319D01*
X149516582Y-140364168D01*
X149517163Y-140369188D01*
X149517163Y-140369192D01*
X149526524Y-140450094D01*
X149545408Y-140613299D01*
X149546787Y-140618173D01*
X149546788Y-140618177D01*
X149593279Y-140782472D01*
X149613694Y-140854617D01*
X149615828Y-140859192D01*
X149615830Y-140859199D01*
X149674584Y-140985196D01*
X149719684Y-141081913D01*
X149722526Y-141086094D01*
X149722526Y-141086095D01*
X149857805Y-141285152D01*
X149857808Y-141285156D01*
X149860651Y-141289339D01*
X149864128Y-141293016D01*
X149864129Y-141293017D01*
X149964438Y-141399091D01*
X150032967Y-141471559D01*
X150036993Y-141474637D01*
X150036994Y-141474638D01*
X150228181Y-141620812D01*
X150228185Y-141620815D01*
X150232201Y-141623885D01*
X150292802Y-141656379D01*
X150303166Y-141661936D01*
X150353749Y-141711755D01*
X150369368Y-141781012D01*
X150345064Y-141847719D01*
X150288554Y-141890697D01*
X150243048Y-141898979D01*
X97331983Y-141656379D01*
X97263956Y-141636064D01*
X97217710Y-141582196D01*
X97206564Y-141529617D01*
X97213080Y-140453092D01*
X97213920Y-140314361D01*
X97234334Y-140246363D01*
X97288270Y-140200196D01*
X97358604Y-140190517D01*
X97423005Y-140220401D01*
X97435155Y-140232626D01*
X97563147Y-140380384D01*
X97741349Y-140528330D01*
X97941322Y-140645184D01*
X98157694Y-140727809D01*
X98162760Y-140728840D01*
X98162761Y-140728840D01*
X98215846Y-140739640D01*
X98384656Y-140773985D01*
X98515324Y-140778776D01*
X98610949Y-140782283D01*
X98610953Y-140782283D01*
X98616113Y-140782472D01*
X98621233Y-140781816D01*
X98621235Y-140781816D01*
X98694270Y-140772460D01*
X98845847Y-140753042D01*
X98850795Y-140751557D01*
X98850802Y-140751556D01*
X99062747Y-140687969D01*
X99067690Y-140686486D01*
X99072565Y-140684098D01*
X99271049Y-140586862D01*
X99271052Y-140586860D01*
X99275684Y-140584591D01*
X99464243Y-140450094D01*
X99628303Y-140286605D01*
X99631319Y-140282408D01*
X99631326Y-140282400D01*
X99718960Y-140160444D01*
X99774954Y-140116796D01*
X99845658Y-140110350D01*
X99908622Y-140143153D01*
X99928715Y-140168136D01*
X99948800Y-140200913D01*
X99948806Y-140200921D01*
X99951501Y-140205319D01*
X100103147Y-140380384D01*
X100281349Y-140528330D01*
X100481322Y-140645184D01*
X100697694Y-140727809D01*
X100702760Y-140728840D01*
X100702761Y-140728840D01*
X100755846Y-140739640D01*
X100924656Y-140773985D01*
X101055324Y-140778776D01*
X101150949Y-140782283D01*
X101150953Y-140782283D01*
X101156113Y-140782472D01*
X101161233Y-140781816D01*
X101161235Y-140781816D01*
X101234270Y-140772460D01*
X101385847Y-140753042D01*
X101390795Y-140751557D01*
X101390802Y-140751556D01*
X101602747Y-140687969D01*
X101607690Y-140686486D01*
X101612565Y-140684098D01*
X101811049Y-140586862D01*
X101811052Y-140586860D01*
X101815684Y-140584591D01*
X102004243Y-140450094D01*
X102168303Y-140286605D01*
X102171319Y-140282408D01*
X102171326Y-140282400D01*
X102258960Y-140160444D01*
X102314954Y-140116796D01*
X102385658Y-140110350D01*
X102448622Y-140143153D01*
X102468715Y-140168136D01*
X102488800Y-140200913D01*
X102488806Y-140200921D01*
X102491501Y-140205319D01*
X102643147Y-140380384D01*
X102821349Y-140528330D01*
X103021322Y-140645184D01*
X103237694Y-140727809D01*
X103242760Y-140728840D01*
X103242761Y-140728840D01*
X103295846Y-140739640D01*
X103464656Y-140773985D01*
X103595324Y-140778776D01*
X103690949Y-140782283D01*
X103690953Y-140782283D01*
X103696113Y-140782472D01*
X103701233Y-140781816D01*
X103701235Y-140781816D01*
X103774270Y-140772460D01*
X103925847Y-140753042D01*
X103930795Y-140751557D01*
X103930802Y-140751556D01*
X104142747Y-140687969D01*
X104147690Y-140686486D01*
X104152565Y-140684098D01*
X104351049Y-140586862D01*
X104351052Y-140586860D01*
X104355684Y-140584591D01*
X104544243Y-140450094D01*
X104708303Y-140286605D01*
X104711319Y-140282408D01*
X104711326Y-140282400D01*
X104798960Y-140160444D01*
X104854954Y-140116796D01*
X104925658Y-140110350D01*
X104988622Y-140143153D01*
X105008715Y-140168136D01*
X105028800Y-140200913D01*
X105028806Y-140200921D01*
X105031501Y-140205319D01*
X105183147Y-140380384D01*
X105361349Y-140528330D01*
X105561322Y-140645184D01*
X105777694Y-140727809D01*
X105782760Y-140728840D01*
X105782761Y-140728840D01*
X105835846Y-140739640D01*
X106004656Y-140773985D01*
X106135324Y-140778776D01*
X106230949Y-140782283D01*
X106230953Y-140782283D01*
X106236113Y-140782472D01*
X106241233Y-140781816D01*
X106241235Y-140781816D01*
X106314270Y-140772460D01*
X106465847Y-140753042D01*
X106470795Y-140751557D01*
X106470802Y-140751556D01*
X106682747Y-140687969D01*
X106687690Y-140686486D01*
X106692565Y-140684098D01*
X106891049Y-140586862D01*
X106891052Y-140586860D01*
X106895684Y-140584591D01*
X107084243Y-140450094D01*
X107248303Y-140286605D01*
X107251319Y-140282408D01*
X107251326Y-140282400D01*
X107338960Y-140160444D01*
X107394954Y-140116796D01*
X107465658Y-140110350D01*
X107528622Y-140143153D01*
X107548715Y-140168136D01*
X107568800Y-140200913D01*
X107568806Y-140200921D01*
X107571501Y-140205319D01*
X107723147Y-140380384D01*
X107901349Y-140528330D01*
X108101322Y-140645184D01*
X108317694Y-140727809D01*
X108322760Y-140728840D01*
X108322761Y-140728840D01*
X108375846Y-140739640D01*
X108544656Y-140773985D01*
X108675324Y-140778776D01*
X108770949Y-140782283D01*
X108770953Y-140782283D01*
X108776113Y-140782472D01*
X108781233Y-140781816D01*
X108781235Y-140781816D01*
X108854270Y-140772460D01*
X109005847Y-140753042D01*
X109010795Y-140751557D01*
X109010802Y-140751556D01*
X109222747Y-140687969D01*
X109227690Y-140686486D01*
X109232565Y-140684098D01*
X109431049Y-140586862D01*
X109431052Y-140586860D01*
X109435684Y-140584591D01*
X109624243Y-140450094D01*
X109788303Y-140286605D01*
X109791319Y-140282408D01*
X109791326Y-140282400D01*
X109878960Y-140160444D01*
X109934954Y-140116796D01*
X110005658Y-140110350D01*
X110068622Y-140143153D01*
X110088715Y-140168136D01*
X110108800Y-140200913D01*
X110108806Y-140200921D01*
X110111501Y-140205319D01*
X110263147Y-140380384D01*
X110441349Y-140528330D01*
X110641322Y-140645184D01*
X110857694Y-140727809D01*
X110862760Y-140728840D01*
X110862761Y-140728840D01*
X110915846Y-140739640D01*
X111084656Y-140773985D01*
X111215324Y-140778776D01*
X111310949Y-140782283D01*
X111310953Y-140782283D01*
X111316113Y-140782472D01*
X111321233Y-140781816D01*
X111321235Y-140781816D01*
X111394270Y-140772460D01*
X111545847Y-140753042D01*
X111550795Y-140751557D01*
X111550802Y-140751556D01*
X111762747Y-140687969D01*
X111767690Y-140686486D01*
X111772565Y-140684098D01*
X111971049Y-140586862D01*
X111971052Y-140586860D01*
X111975684Y-140584591D01*
X112164243Y-140450094D01*
X112328303Y-140286605D01*
X112331319Y-140282408D01*
X112331326Y-140282400D01*
X112418960Y-140160444D01*
X112474954Y-140116796D01*
X112545658Y-140110350D01*
X112608622Y-140143153D01*
X112628715Y-140168136D01*
X112648800Y-140200913D01*
X112648806Y-140200921D01*
X112651501Y-140205319D01*
X112803147Y-140380384D01*
X112981349Y-140528330D01*
X113181322Y-140645184D01*
X113397694Y-140727809D01*
X113402760Y-140728840D01*
X113402761Y-140728840D01*
X113455846Y-140739640D01*
X113624656Y-140773985D01*
X113755324Y-140778776D01*
X113850949Y-140782283D01*
X113850953Y-140782283D01*
X113856113Y-140782472D01*
X113861233Y-140781816D01*
X113861235Y-140781816D01*
X113934270Y-140772460D01*
X114085847Y-140753042D01*
X114090795Y-140751557D01*
X114090802Y-140751556D01*
X114302747Y-140687969D01*
X114307690Y-140686486D01*
X114312565Y-140684098D01*
X114511049Y-140586862D01*
X114511052Y-140586860D01*
X114515684Y-140584591D01*
X114704243Y-140450094D01*
X114868303Y-140286605D01*
X115003458Y-140098517D01*
X115008906Y-140087494D01*
X115057016Y-140035288D01*
X115125717Y-140017379D01*
X115193194Y-140039455D01*
X115225076Y-140071049D01*
X115308729Y-140190517D01*
X115325802Y-140214900D01*
X115487700Y-140376798D01*
X115492208Y-140379955D01*
X115492211Y-140379957D01*
X115492821Y-140380384D01*
X115675251Y-140508123D01*
X115680233Y-140510446D01*
X115680238Y-140510449D01*
X115839238Y-140584591D01*
X115882757Y-140604884D01*
X115888065Y-140606306D01*
X115888067Y-140606307D01*
X116098598Y-140662719D01*
X116098600Y-140662719D01*
X116103913Y-140664143D01*
X116332000Y-140684098D01*
X116560087Y-140664143D01*
X116565400Y-140662719D01*
X116565402Y-140662719D01*
X116775933Y-140606307D01*
X116775935Y-140606306D01*
X116781243Y-140604884D01*
X116824762Y-140584591D01*
X116983762Y-140510449D01*
X116983767Y-140510446D01*
X116988749Y-140508123D01*
X117171179Y-140380384D01*
X117171789Y-140379957D01*
X117171792Y-140379955D01*
X117176300Y-140376798D01*
X117338198Y-140214900D01*
X117469523Y-140027349D01*
X117471846Y-140022367D01*
X117471849Y-140022362D01*
X117487805Y-139988143D01*
X117534722Y-139934858D01*
X117602999Y-139915397D01*
X117670959Y-139935939D01*
X117716195Y-139988143D01*
X117732151Y-140022362D01*
X117732154Y-140022367D01*
X117734477Y-140027349D01*
X117865802Y-140214900D01*
X118027700Y-140376798D01*
X118032208Y-140379955D01*
X118032211Y-140379957D01*
X118032821Y-140380384D01*
X118215251Y-140508123D01*
X118220233Y-140510446D01*
X118220238Y-140510449D01*
X118379238Y-140584591D01*
X118422757Y-140604884D01*
X118428065Y-140606306D01*
X118428067Y-140606307D01*
X118638598Y-140662719D01*
X118638600Y-140662719D01*
X118643913Y-140664143D01*
X118872000Y-140684098D01*
X119100087Y-140664143D01*
X119105400Y-140662719D01*
X119105402Y-140662719D01*
X119315933Y-140606307D01*
X119315935Y-140606306D01*
X119321243Y-140604884D01*
X119364762Y-140584591D01*
X119523762Y-140510449D01*
X119523767Y-140510446D01*
X119528749Y-140508123D01*
X119711179Y-140380384D01*
X119711789Y-140379957D01*
X119711792Y-140379955D01*
X119716300Y-140376798D01*
X119878198Y-140214900D01*
X120009523Y-140027349D01*
X120011846Y-140022367D01*
X120011849Y-140022362D01*
X120027805Y-139988143D01*
X120074722Y-139934858D01*
X120142999Y-139915397D01*
X120210959Y-139935939D01*
X120256195Y-139988143D01*
X120272151Y-140022362D01*
X120272154Y-140022367D01*
X120274477Y-140027349D01*
X120405802Y-140214900D01*
X120567700Y-140376798D01*
X120572208Y-140379955D01*
X120572211Y-140379957D01*
X120572821Y-140380384D01*
X120755251Y-140508123D01*
X120760233Y-140510446D01*
X120760238Y-140510449D01*
X120919238Y-140584591D01*
X120962757Y-140604884D01*
X120968065Y-140606306D01*
X120968067Y-140606307D01*
X121178598Y-140662719D01*
X121178600Y-140662719D01*
X121183913Y-140664143D01*
X121412000Y-140684098D01*
X121640087Y-140664143D01*
X121645400Y-140662719D01*
X121645402Y-140662719D01*
X121855933Y-140606307D01*
X121855935Y-140606306D01*
X121861243Y-140604884D01*
X121904762Y-140584591D01*
X122063762Y-140510449D01*
X122063767Y-140510446D01*
X122068749Y-140508123D01*
X122251179Y-140380384D01*
X122251789Y-140379957D01*
X122251792Y-140379955D01*
X122256300Y-140376798D01*
X122418198Y-140214900D01*
X122549523Y-140027349D01*
X122551846Y-140022367D01*
X122551849Y-140022362D01*
X122567805Y-139988143D01*
X122614722Y-139934858D01*
X122682999Y-139915397D01*
X122750959Y-139935939D01*
X122796195Y-139988143D01*
X122812151Y-140022362D01*
X122812154Y-140022367D01*
X122814477Y-140027349D01*
X122945802Y-140214900D01*
X123107700Y-140376798D01*
X123112208Y-140379955D01*
X123112211Y-140379957D01*
X123112821Y-140380384D01*
X123295251Y-140508123D01*
X123300233Y-140510446D01*
X123300238Y-140510449D01*
X123459238Y-140584591D01*
X123502757Y-140604884D01*
X123508065Y-140606306D01*
X123508067Y-140606307D01*
X123718598Y-140662719D01*
X123718600Y-140662719D01*
X123723913Y-140664143D01*
X123952000Y-140684098D01*
X124180087Y-140664143D01*
X124185400Y-140662719D01*
X124185402Y-140662719D01*
X124395933Y-140606307D01*
X124395935Y-140606306D01*
X124401243Y-140604884D01*
X124444762Y-140584591D01*
X124603762Y-140510449D01*
X124603767Y-140510446D01*
X124608749Y-140508123D01*
X124791179Y-140380384D01*
X124791789Y-140379957D01*
X124791792Y-140379955D01*
X124796300Y-140376798D01*
X124958198Y-140214900D01*
X125089523Y-140027349D01*
X125091846Y-140022367D01*
X125091849Y-140022362D01*
X125107805Y-139988143D01*
X125154722Y-139934858D01*
X125222999Y-139915397D01*
X125290959Y-139935939D01*
X125336195Y-139988143D01*
X125352151Y-140022362D01*
X125352154Y-140022367D01*
X125354477Y-140027349D01*
X125485802Y-140214900D01*
X125647700Y-140376798D01*
X125652208Y-140379955D01*
X125652211Y-140379957D01*
X125652821Y-140380384D01*
X125835251Y-140508123D01*
X125840233Y-140510446D01*
X125840238Y-140510449D01*
X125999238Y-140584591D01*
X126042757Y-140604884D01*
X126048065Y-140606306D01*
X126048067Y-140606307D01*
X126258598Y-140662719D01*
X126258600Y-140662719D01*
X126263913Y-140664143D01*
X126492000Y-140684098D01*
X126720087Y-140664143D01*
X126725400Y-140662719D01*
X126725402Y-140662719D01*
X126935933Y-140606307D01*
X126935935Y-140606306D01*
X126941243Y-140604884D01*
X126984762Y-140584591D01*
X127143762Y-140510449D01*
X127143767Y-140510446D01*
X127148749Y-140508123D01*
X127331179Y-140380384D01*
X127331789Y-140379957D01*
X127331792Y-140379955D01*
X127336300Y-140376798D01*
X127498198Y-140214900D01*
X127629523Y-140027349D01*
X127631846Y-140022367D01*
X127631849Y-140022362D01*
X127647805Y-139988143D01*
X127694722Y-139934858D01*
X127762999Y-139915397D01*
X127830959Y-139935939D01*
X127876195Y-139988143D01*
X127892151Y-140022362D01*
X127892154Y-140022367D01*
X127894477Y-140027349D01*
X128025802Y-140214900D01*
X128187700Y-140376798D01*
X128192208Y-140379955D01*
X128192211Y-140379957D01*
X128192821Y-140380384D01*
X128375251Y-140508123D01*
X128380233Y-140510446D01*
X128380238Y-140510449D01*
X128539238Y-140584591D01*
X128582757Y-140604884D01*
X128588065Y-140606306D01*
X128588067Y-140606307D01*
X128798598Y-140662719D01*
X128798600Y-140662719D01*
X128803913Y-140664143D01*
X129032000Y-140684098D01*
X129260087Y-140664143D01*
X129265400Y-140662719D01*
X129265402Y-140662719D01*
X129475933Y-140606307D01*
X129475935Y-140606306D01*
X129481243Y-140604884D01*
X129524762Y-140584591D01*
X129683762Y-140510449D01*
X129683767Y-140510446D01*
X129688749Y-140508123D01*
X129871179Y-140380384D01*
X129871789Y-140379957D01*
X129871792Y-140379955D01*
X129876300Y-140376798D01*
X130038198Y-140214900D01*
X130169523Y-140027349D01*
X130171846Y-140022367D01*
X130171849Y-140022362D01*
X130187805Y-139988143D01*
X130234722Y-139934858D01*
X130302999Y-139915397D01*
X130370959Y-139935939D01*
X130416195Y-139988143D01*
X130432151Y-140022362D01*
X130432154Y-140022367D01*
X130434477Y-140027349D01*
X130565802Y-140214900D01*
X130727700Y-140376798D01*
X130732208Y-140379955D01*
X130732211Y-140379957D01*
X130732821Y-140380384D01*
X130915251Y-140508123D01*
X130920233Y-140510446D01*
X130920238Y-140510449D01*
X131079238Y-140584591D01*
X131122757Y-140604884D01*
X131128065Y-140606306D01*
X131128067Y-140606307D01*
X131338598Y-140662719D01*
X131338600Y-140662719D01*
X131343913Y-140664143D01*
X131572000Y-140684098D01*
X131800087Y-140664143D01*
X131805400Y-140662719D01*
X131805402Y-140662719D01*
X132015933Y-140606307D01*
X132015935Y-140606306D01*
X132021243Y-140604884D01*
X132064762Y-140584591D01*
X132223762Y-140510449D01*
X132223767Y-140510446D01*
X132228749Y-140508123D01*
X132411179Y-140380384D01*
X132411789Y-140379957D01*
X132411792Y-140379955D01*
X132416300Y-140376798D01*
X132578198Y-140214900D01*
X132709523Y-140027349D01*
X132711846Y-140022367D01*
X132711849Y-140022362D01*
X132727805Y-139988143D01*
X132774722Y-139934858D01*
X132842999Y-139915397D01*
X132910959Y-139935939D01*
X132956195Y-139988143D01*
X132972151Y-140022362D01*
X132972154Y-140022367D01*
X132974477Y-140027349D01*
X133105802Y-140214900D01*
X133267700Y-140376798D01*
X133272208Y-140379955D01*
X133272211Y-140379957D01*
X133272821Y-140380384D01*
X133455251Y-140508123D01*
X133460233Y-140510446D01*
X133460238Y-140510449D01*
X133619238Y-140584591D01*
X133662757Y-140604884D01*
X133668065Y-140606306D01*
X133668067Y-140606307D01*
X133878598Y-140662719D01*
X133878600Y-140662719D01*
X133883913Y-140664143D01*
X134112000Y-140684098D01*
X134340087Y-140664143D01*
X134345400Y-140662719D01*
X134345402Y-140662719D01*
X134555933Y-140606307D01*
X134555935Y-140606306D01*
X134561243Y-140604884D01*
X134604762Y-140584591D01*
X134763762Y-140510449D01*
X134763767Y-140510446D01*
X134768749Y-140508123D01*
X134951179Y-140380384D01*
X134951789Y-140379957D01*
X134951792Y-140379955D01*
X134956300Y-140376798D01*
X135118198Y-140214900D01*
X135249523Y-140027349D01*
X135251846Y-140022367D01*
X135251849Y-140022362D01*
X135267805Y-139988143D01*
X135314722Y-139934858D01*
X135382999Y-139915397D01*
X135450959Y-139935939D01*
X135496195Y-139988143D01*
X135512151Y-140022362D01*
X135512154Y-140022367D01*
X135514477Y-140027349D01*
X135645802Y-140214900D01*
X135807700Y-140376798D01*
X135812208Y-140379955D01*
X135812211Y-140379957D01*
X135812821Y-140380384D01*
X135995251Y-140508123D01*
X136000233Y-140510446D01*
X136000238Y-140510449D01*
X136159238Y-140584591D01*
X136202757Y-140604884D01*
X136208065Y-140606306D01*
X136208067Y-140606307D01*
X136418598Y-140662719D01*
X136418600Y-140662719D01*
X136423913Y-140664143D01*
X136652000Y-140684098D01*
X136880087Y-140664143D01*
X136885400Y-140662719D01*
X136885402Y-140662719D01*
X137095933Y-140606307D01*
X137095935Y-140606306D01*
X137101243Y-140604884D01*
X137144762Y-140584591D01*
X137303762Y-140510449D01*
X137303767Y-140510446D01*
X137308749Y-140508123D01*
X137491179Y-140380384D01*
X137491789Y-140379957D01*
X137491792Y-140379955D01*
X137496300Y-140376798D01*
X137658198Y-140214900D01*
X137789523Y-140027349D01*
X137791846Y-140022367D01*
X137791849Y-140022362D01*
X137807805Y-139988143D01*
X137854722Y-139934858D01*
X137922999Y-139915397D01*
X137990959Y-139935939D01*
X138036195Y-139988143D01*
X138052151Y-140022362D01*
X138052154Y-140022367D01*
X138054477Y-140027349D01*
X138185802Y-140214900D01*
X138347700Y-140376798D01*
X138352208Y-140379955D01*
X138352211Y-140379957D01*
X138352821Y-140380384D01*
X138535251Y-140508123D01*
X138540233Y-140510446D01*
X138540238Y-140510449D01*
X138699238Y-140584591D01*
X138742757Y-140604884D01*
X138748065Y-140606306D01*
X138748067Y-140606307D01*
X138958598Y-140662719D01*
X138958600Y-140662719D01*
X138963913Y-140664143D01*
X139192000Y-140684098D01*
X139420087Y-140664143D01*
X139425400Y-140662719D01*
X139425402Y-140662719D01*
X139635933Y-140606307D01*
X139635935Y-140606306D01*
X139641243Y-140604884D01*
X139684762Y-140584591D01*
X139843762Y-140510449D01*
X139843767Y-140510446D01*
X139848749Y-140508123D01*
X140031179Y-140380384D01*
X140031789Y-140379957D01*
X140031792Y-140379955D01*
X140036300Y-140376798D01*
X140198198Y-140214900D01*
X140329523Y-140027349D01*
X140331846Y-140022367D01*
X140331849Y-140022362D01*
X140347805Y-139988143D01*
X140394722Y-139934858D01*
X140462999Y-139915397D01*
X140530959Y-139935939D01*
X140576195Y-139988143D01*
X140592151Y-140022362D01*
X140592154Y-140022367D01*
X140594477Y-140027349D01*
X140725802Y-140214900D01*
X140887700Y-140376798D01*
X140892208Y-140379955D01*
X140892211Y-140379957D01*
X140892821Y-140380384D01*
X141075251Y-140508123D01*
X141080233Y-140510446D01*
X141080238Y-140510449D01*
X141239238Y-140584591D01*
X141282757Y-140604884D01*
X141288065Y-140606306D01*
X141288067Y-140606307D01*
X141498598Y-140662719D01*
X141498600Y-140662719D01*
X141503913Y-140664143D01*
X141732000Y-140684098D01*
X141960087Y-140664143D01*
X141965400Y-140662719D01*
X141965402Y-140662719D01*
X142175933Y-140606307D01*
X142175935Y-140606306D01*
X142181243Y-140604884D01*
X142224762Y-140584591D01*
X142383762Y-140510449D01*
X142383767Y-140510446D01*
X142388749Y-140508123D01*
X142571179Y-140380384D01*
X142571789Y-140379957D01*
X142571792Y-140379955D01*
X142576300Y-140376798D01*
X142738198Y-140214900D01*
X142869523Y-140027349D01*
X142871846Y-140022367D01*
X142871849Y-140022362D01*
X142887805Y-139988143D01*
X142934722Y-139934858D01*
X143002999Y-139915397D01*
X143070959Y-139935939D01*
X143116195Y-139988143D01*
X143132151Y-140022362D01*
X143132154Y-140022367D01*
X143134477Y-140027349D01*
X143265802Y-140214900D01*
X143427700Y-140376798D01*
X143432208Y-140379955D01*
X143432211Y-140379957D01*
X143432821Y-140380384D01*
X143615251Y-140508123D01*
X143620233Y-140510446D01*
X143620238Y-140510449D01*
X143779238Y-140584591D01*
X143822757Y-140604884D01*
X143828065Y-140606306D01*
X143828067Y-140606307D01*
X144038598Y-140662719D01*
X144038600Y-140662719D01*
X144043913Y-140664143D01*
X144272000Y-140684098D01*
X144500087Y-140664143D01*
X144505400Y-140662719D01*
X144505402Y-140662719D01*
X144715933Y-140606307D01*
X144715935Y-140606306D01*
X144721243Y-140604884D01*
X144764762Y-140584591D01*
X144923762Y-140510449D01*
X144923767Y-140510446D01*
X144928749Y-140508123D01*
X145111179Y-140380384D01*
X145111789Y-140379957D01*
X145111792Y-140379955D01*
X145116300Y-140376798D01*
X145278198Y-140214900D01*
X145409523Y-140027349D01*
X145411846Y-140022367D01*
X145411849Y-140022362D01*
X145427805Y-139988143D01*
X145474722Y-139934858D01*
X145542999Y-139915397D01*
X145610959Y-139935939D01*
X145656195Y-139988143D01*
X145672151Y-140022362D01*
X145672154Y-140022367D01*
X145674477Y-140027349D01*
X145805802Y-140214900D01*
X145967700Y-140376798D01*
X145972208Y-140379955D01*
X145972211Y-140379957D01*
X145972821Y-140380384D01*
X146155251Y-140508123D01*
X146160233Y-140510446D01*
X146160238Y-140510449D01*
X146319238Y-140584591D01*
X146362757Y-140604884D01*
X146368065Y-140606306D01*
X146368067Y-140606307D01*
X146578598Y-140662719D01*
X146578600Y-140662719D01*
X146583913Y-140664143D01*
X146812000Y-140684098D01*
X147040087Y-140664143D01*
X147045400Y-140662719D01*
X147045402Y-140662719D01*
X147255933Y-140606307D01*
X147255935Y-140606306D01*
X147261243Y-140604884D01*
X147304762Y-140584591D01*
X147463762Y-140510449D01*
X147463767Y-140510446D01*
X147468749Y-140508123D01*
X147651179Y-140380384D01*
X147651789Y-140379957D01*
X147651792Y-140379955D01*
X147656300Y-140376798D01*
X147818198Y-140214900D01*
X147949523Y-140027349D01*
X147951846Y-140022367D01*
X147951849Y-140022362D01*
X148043961Y-139824825D01*
X148043961Y-139824824D01*
X148046284Y-139819843D01*
X148105543Y-139598687D01*
X148125498Y-139370600D01*
X148105543Y-139142513D01*
X148104119Y-139137198D01*
X148047707Y-138926667D01*
X148047706Y-138926665D01*
X148046284Y-138921357D01*
X147987032Y-138794290D01*
X147951849Y-138718838D01*
X147951846Y-138718833D01*
X147949523Y-138713851D01*
X147818198Y-138526300D01*
X147656300Y-138364402D01*
X147651792Y-138361245D01*
X147651789Y-138361243D01*
X147499228Y-138254419D01*
X147468749Y-138233077D01*
X147463767Y-138230754D01*
X147463762Y-138230751D01*
X147266225Y-138138639D01*
X147266224Y-138138639D01*
X147261243Y-138136316D01*
X147255935Y-138134894D01*
X147255933Y-138134893D01*
X147045402Y-138078481D01*
X147045400Y-138078481D01*
X147040087Y-138077057D01*
X146812000Y-138057102D01*
X146583913Y-138077057D01*
X146578600Y-138078481D01*
X146578598Y-138078481D01*
X146368067Y-138134893D01*
X146368065Y-138134894D01*
X146362757Y-138136316D01*
X146357776Y-138138639D01*
X146357775Y-138138639D01*
X146160238Y-138230751D01*
X146160233Y-138230754D01*
X146155251Y-138233077D01*
X146124772Y-138254419D01*
X145972211Y-138361243D01*
X145972208Y-138361245D01*
X145967700Y-138364402D01*
X145805802Y-138526300D01*
X145674477Y-138713851D01*
X145672154Y-138718833D01*
X145672151Y-138718838D01*
X145656195Y-138753057D01*
X145609278Y-138806342D01*
X145541001Y-138825803D01*
X145473041Y-138805261D01*
X145427805Y-138753057D01*
X145411849Y-138718838D01*
X145411846Y-138718833D01*
X145409523Y-138713851D01*
X145278198Y-138526300D01*
X145116300Y-138364402D01*
X145111792Y-138361245D01*
X145111789Y-138361243D01*
X144959228Y-138254419D01*
X144928749Y-138233077D01*
X144923767Y-138230754D01*
X144923762Y-138230751D01*
X144726225Y-138138639D01*
X144726224Y-138138639D01*
X144721243Y-138136316D01*
X144715935Y-138134894D01*
X144715933Y-138134893D01*
X144505402Y-138078481D01*
X144505400Y-138078481D01*
X144500087Y-138077057D01*
X144272000Y-138057102D01*
X144043913Y-138077057D01*
X144038600Y-138078481D01*
X144038598Y-138078481D01*
X143828067Y-138134893D01*
X143828065Y-138134894D01*
X143822757Y-138136316D01*
X143817776Y-138138639D01*
X143817775Y-138138639D01*
X143620238Y-138230751D01*
X143620233Y-138230754D01*
X143615251Y-138233077D01*
X143584772Y-138254419D01*
X143432211Y-138361243D01*
X143432208Y-138361245D01*
X143427700Y-138364402D01*
X143265802Y-138526300D01*
X143134477Y-138713851D01*
X143132154Y-138718833D01*
X143132151Y-138718838D01*
X143116195Y-138753057D01*
X143069278Y-138806342D01*
X143001001Y-138825803D01*
X142933041Y-138805261D01*
X142887805Y-138753057D01*
X142871849Y-138718838D01*
X142871846Y-138718833D01*
X142869523Y-138713851D01*
X142738198Y-138526300D01*
X142576300Y-138364402D01*
X142571792Y-138361245D01*
X142571789Y-138361243D01*
X142419228Y-138254419D01*
X142388749Y-138233077D01*
X142383767Y-138230754D01*
X142383762Y-138230751D01*
X142186225Y-138138639D01*
X142186224Y-138138639D01*
X142181243Y-138136316D01*
X142175935Y-138134894D01*
X142175933Y-138134893D01*
X141965402Y-138078481D01*
X141965400Y-138078481D01*
X141960087Y-138077057D01*
X141732000Y-138057102D01*
X141503913Y-138077057D01*
X141498600Y-138078481D01*
X141498598Y-138078481D01*
X141288067Y-138134893D01*
X141288065Y-138134894D01*
X141282757Y-138136316D01*
X141277776Y-138138639D01*
X141277775Y-138138639D01*
X141080238Y-138230751D01*
X141080233Y-138230754D01*
X141075251Y-138233077D01*
X141044772Y-138254419D01*
X140892211Y-138361243D01*
X140892208Y-138361245D01*
X140887700Y-138364402D01*
X140725802Y-138526300D01*
X140594477Y-138713851D01*
X140592154Y-138718833D01*
X140592151Y-138718838D01*
X140576195Y-138753057D01*
X140529278Y-138806342D01*
X140461001Y-138825803D01*
X140393041Y-138805261D01*
X140347805Y-138753057D01*
X140331849Y-138718838D01*
X140331846Y-138718833D01*
X140329523Y-138713851D01*
X140198198Y-138526300D01*
X140036300Y-138364402D01*
X140031792Y-138361245D01*
X140031789Y-138361243D01*
X139879228Y-138254419D01*
X139848749Y-138233077D01*
X139843767Y-138230754D01*
X139843762Y-138230751D01*
X139646225Y-138138639D01*
X139646224Y-138138639D01*
X139641243Y-138136316D01*
X139635935Y-138134894D01*
X139635933Y-138134893D01*
X139425402Y-138078481D01*
X139425400Y-138078481D01*
X139420087Y-138077057D01*
X139192000Y-138057102D01*
X138963913Y-138077057D01*
X138958600Y-138078481D01*
X138958598Y-138078481D01*
X138748067Y-138134893D01*
X138748065Y-138134894D01*
X138742757Y-138136316D01*
X138737776Y-138138639D01*
X138737775Y-138138639D01*
X138540238Y-138230751D01*
X138540233Y-138230754D01*
X138535251Y-138233077D01*
X138504772Y-138254419D01*
X138352211Y-138361243D01*
X138352208Y-138361245D01*
X138347700Y-138364402D01*
X138185802Y-138526300D01*
X138054477Y-138713851D01*
X138052154Y-138718833D01*
X138052151Y-138718838D01*
X138036195Y-138753057D01*
X137989278Y-138806342D01*
X137921001Y-138825803D01*
X137853041Y-138805261D01*
X137807805Y-138753057D01*
X137791849Y-138718838D01*
X137791846Y-138718833D01*
X137789523Y-138713851D01*
X137658198Y-138526300D01*
X137496300Y-138364402D01*
X137491792Y-138361245D01*
X137491789Y-138361243D01*
X137339228Y-138254419D01*
X137308749Y-138233077D01*
X137303767Y-138230754D01*
X137303762Y-138230751D01*
X137106225Y-138138639D01*
X137106224Y-138138639D01*
X137101243Y-138136316D01*
X137095935Y-138134894D01*
X137095933Y-138134893D01*
X136885402Y-138078481D01*
X136885400Y-138078481D01*
X136880087Y-138077057D01*
X136652000Y-138057102D01*
X136423913Y-138077057D01*
X136418600Y-138078481D01*
X136418598Y-138078481D01*
X136208067Y-138134893D01*
X136208065Y-138134894D01*
X136202757Y-138136316D01*
X136197776Y-138138639D01*
X136197775Y-138138639D01*
X136000238Y-138230751D01*
X136000233Y-138230754D01*
X135995251Y-138233077D01*
X135964772Y-138254419D01*
X135812211Y-138361243D01*
X135812208Y-138361245D01*
X135807700Y-138364402D01*
X135645802Y-138526300D01*
X135514477Y-138713851D01*
X135512154Y-138718833D01*
X135512151Y-138718838D01*
X135496195Y-138753057D01*
X135449278Y-138806342D01*
X135381001Y-138825803D01*
X135313041Y-138805261D01*
X135267805Y-138753057D01*
X135251849Y-138718838D01*
X135251846Y-138718833D01*
X135249523Y-138713851D01*
X135118198Y-138526300D01*
X134956300Y-138364402D01*
X134951792Y-138361245D01*
X134951789Y-138361243D01*
X134799228Y-138254419D01*
X134768749Y-138233077D01*
X134763767Y-138230754D01*
X134763762Y-138230751D01*
X134566225Y-138138639D01*
X134566224Y-138138639D01*
X134561243Y-138136316D01*
X134555935Y-138134894D01*
X134555933Y-138134893D01*
X134345402Y-138078481D01*
X134345400Y-138078481D01*
X134340087Y-138077057D01*
X134112000Y-138057102D01*
X133883913Y-138077057D01*
X133878600Y-138078481D01*
X133878598Y-138078481D01*
X133668067Y-138134893D01*
X133668065Y-138134894D01*
X133662757Y-138136316D01*
X133657776Y-138138639D01*
X133657775Y-138138639D01*
X133460238Y-138230751D01*
X133460233Y-138230754D01*
X133455251Y-138233077D01*
X133424772Y-138254419D01*
X133272211Y-138361243D01*
X133272208Y-138361245D01*
X133267700Y-138364402D01*
X133105802Y-138526300D01*
X132974477Y-138713851D01*
X132972154Y-138718833D01*
X132972151Y-138718838D01*
X132956195Y-138753057D01*
X132909278Y-138806342D01*
X132841001Y-138825803D01*
X132773041Y-138805261D01*
X132727805Y-138753057D01*
X132711849Y-138718838D01*
X132711846Y-138718833D01*
X132709523Y-138713851D01*
X132578198Y-138526300D01*
X132416300Y-138364402D01*
X132411792Y-138361245D01*
X132411789Y-138361243D01*
X132259228Y-138254419D01*
X132228749Y-138233077D01*
X132223767Y-138230754D01*
X132223762Y-138230751D01*
X132026225Y-138138639D01*
X132026224Y-138138639D01*
X132021243Y-138136316D01*
X132015935Y-138134894D01*
X132015933Y-138134893D01*
X131805402Y-138078481D01*
X131805400Y-138078481D01*
X131800087Y-138077057D01*
X131572000Y-138057102D01*
X131343913Y-138077057D01*
X131338600Y-138078481D01*
X131338598Y-138078481D01*
X131128067Y-138134893D01*
X131128065Y-138134894D01*
X131122757Y-138136316D01*
X131117776Y-138138639D01*
X131117775Y-138138639D01*
X130920238Y-138230751D01*
X130920233Y-138230754D01*
X130915251Y-138233077D01*
X130884772Y-138254419D01*
X130732211Y-138361243D01*
X130732208Y-138361245D01*
X130727700Y-138364402D01*
X130565802Y-138526300D01*
X130434477Y-138713851D01*
X130432154Y-138718833D01*
X130432151Y-138718838D01*
X130416195Y-138753057D01*
X130369278Y-138806342D01*
X130301001Y-138825803D01*
X130233041Y-138805261D01*
X130187805Y-138753057D01*
X130171849Y-138718838D01*
X130171846Y-138718833D01*
X130169523Y-138713851D01*
X130038198Y-138526300D01*
X129876300Y-138364402D01*
X129871792Y-138361245D01*
X129871789Y-138361243D01*
X129719228Y-138254419D01*
X129688749Y-138233077D01*
X129683767Y-138230754D01*
X129683762Y-138230751D01*
X129486225Y-138138639D01*
X129486224Y-138138639D01*
X129481243Y-138136316D01*
X129475935Y-138134894D01*
X129475933Y-138134893D01*
X129265402Y-138078481D01*
X129265400Y-138078481D01*
X129260087Y-138077057D01*
X129032000Y-138057102D01*
X128803913Y-138077057D01*
X128798600Y-138078481D01*
X128798598Y-138078481D01*
X128588067Y-138134893D01*
X128588065Y-138134894D01*
X128582757Y-138136316D01*
X128577776Y-138138639D01*
X128577775Y-138138639D01*
X128380238Y-138230751D01*
X128380233Y-138230754D01*
X128375251Y-138233077D01*
X128344772Y-138254419D01*
X128192211Y-138361243D01*
X128192208Y-138361245D01*
X128187700Y-138364402D01*
X128025802Y-138526300D01*
X127894477Y-138713851D01*
X127892154Y-138718833D01*
X127892151Y-138718838D01*
X127876195Y-138753057D01*
X127829278Y-138806342D01*
X127761001Y-138825803D01*
X127693041Y-138805261D01*
X127647805Y-138753057D01*
X127631849Y-138718838D01*
X127631846Y-138718833D01*
X127629523Y-138713851D01*
X127498198Y-138526300D01*
X127336300Y-138364402D01*
X127331792Y-138361245D01*
X127331789Y-138361243D01*
X127179228Y-138254419D01*
X127148749Y-138233077D01*
X127143767Y-138230754D01*
X127143762Y-138230751D01*
X126946225Y-138138639D01*
X126946224Y-138138639D01*
X126941243Y-138136316D01*
X126935935Y-138134894D01*
X126935933Y-138134893D01*
X126725402Y-138078481D01*
X126725400Y-138078481D01*
X126720087Y-138077057D01*
X126492000Y-138057102D01*
X126263913Y-138077057D01*
X126258600Y-138078481D01*
X126258598Y-138078481D01*
X126048067Y-138134893D01*
X126048065Y-138134894D01*
X126042757Y-138136316D01*
X126037776Y-138138639D01*
X126037775Y-138138639D01*
X125840238Y-138230751D01*
X125840233Y-138230754D01*
X125835251Y-138233077D01*
X125804772Y-138254419D01*
X125652211Y-138361243D01*
X125652208Y-138361245D01*
X125647700Y-138364402D01*
X125485802Y-138526300D01*
X125354477Y-138713851D01*
X125352154Y-138718833D01*
X125352151Y-138718838D01*
X125336195Y-138753057D01*
X125289278Y-138806342D01*
X125221001Y-138825803D01*
X125153041Y-138805261D01*
X125107805Y-138753057D01*
X125091849Y-138718838D01*
X125091846Y-138718833D01*
X125089523Y-138713851D01*
X124958198Y-138526300D01*
X124796300Y-138364402D01*
X124791792Y-138361245D01*
X124791789Y-138361243D01*
X124639228Y-138254419D01*
X124608749Y-138233077D01*
X124603767Y-138230754D01*
X124603762Y-138230751D01*
X124406225Y-138138639D01*
X124406224Y-138138639D01*
X124401243Y-138136316D01*
X124395935Y-138134894D01*
X124395933Y-138134893D01*
X124185402Y-138078481D01*
X124185400Y-138078481D01*
X124180087Y-138077057D01*
X123952000Y-138057102D01*
X123723913Y-138077057D01*
X123718600Y-138078481D01*
X123718598Y-138078481D01*
X123508067Y-138134893D01*
X123508065Y-138134894D01*
X123502757Y-138136316D01*
X123497776Y-138138639D01*
X123497775Y-138138639D01*
X123300238Y-138230751D01*
X123300233Y-138230754D01*
X123295251Y-138233077D01*
X123264772Y-138254419D01*
X123112211Y-138361243D01*
X123112208Y-138361245D01*
X123107700Y-138364402D01*
X122945802Y-138526300D01*
X122814477Y-138713851D01*
X122812154Y-138718833D01*
X122812151Y-138718838D01*
X122796195Y-138753057D01*
X122749278Y-138806342D01*
X122681001Y-138825803D01*
X122613041Y-138805261D01*
X122567805Y-138753057D01*
X122551849Y-138718838D01*
X122551846Y-138718833D01*
X122549523Y-138713851D01*
X122418198Y-138526300D01*
X122256300Y-138364402D01*
X122251792Y-138361245D01*
X122251789Y-138361243D01*
X122099228Y-138254419D01*
X122068749Y-138233077D01*
X122063767Y-138230754D01*
X122063762Y-138230751D01*
X121866225Y-138138639D01*
X121866224Y-138138639D01*
X121861243Y-138136316D01*
X121855935Y-138134894D01*
X121855933Y-138134893D01*
X121645402Y-138078481D01*
X121645400Y-138078481D01*
X121640087Y-138077057D01*
X121412000Y-138057102D01*
X121183913Y-138077057D01*
X121178600Y-138078481D01*
X121178598Y-138078481D01*
X120968067Y-138134893D01*
X120968065Y-138134894D01*
X120962757Y-138136316D01*
X120957776Y-138138639D01*
X120957775Y-138138639D01*
X120760238Y-138230751D01*
X120760233Y-138230754D01*
X120755251Y-138233077D01*
X120724772Y-138254419D01*
X120572211Y-138361243D01*
X120572208Y-138361245D01*
X120567700Y-138364402D01*
X120405802Y-138526300D01*
X120274477Y-138713851D01*
X120272154Y-138718833D01*
X120272151Y-138718838D01*
X120256195Y-138753057D01*
X120209278Y-138806342D01*
X120141001Y-138825803D01*
X120073041Y-138805261D01*
X120027805Y-138753057D01*
X120011849Y-138718838D01*
X120011846Y-138718833D01*
X120009523Y-138713851D01*
X119878198Y-138526300D01*
X119716300Y-138364402D01*
X119711792Y-138361245D01*
X119711789Y-138361243D01*
X119559229Y-138254419D01*
X119514901Y-138198962D01*
X119505500Y-138151206D01*
X119505500Y-133414389D01*
X119506027Y-133403206D01*
X119507702Y-133395713D01*
X119505562Y-133327622D01*
X119505500Y-133323665D01*
X119505500Y-133295765D01*
X119504996Y-133291774D01*
X119504063Y-133279932D01*
X119502923Y-133243657D01*
X119502674Y-133235732D01*
X119497021Y-133216273D01*
X119493012Y-133196914D01*
X119492846Y-133195604D01*
X119490474Y-133176824D01*
X119487558Y-133169458D01*
X119487556Y-133169452D01*
X119474200Y-133135719D01*
X119470355Y-133124489D01*
X119460230Y-133089638D01*
X119460230Y-133089637D01*
X119458019Y-133082028D01*
X119447705Y-133064587D01*
X119439008Y-133046834D01*
X119434472Y-133035379D01*
X119431552Y-133028004D01*
X119405563Y-132992233D01*
X119399047Y-132982313D01*
X119380578Y-132951084D01*
X119376542Y-132944259D01*
X119362221Y-132929938D01*
X119349380Y-132914904D01*
X119342131Y-132904927D01*
X119337472Y-132898514D01*
X119303395Y-132870323D01*
X119294616Y-132862333D01*
X118238267Y-131805983D01*
X118204241Y-131743671D01*
X118202052Y-131730058D01*
X118185377Y-131571401D01*
X118185377Y-131571399D01*
X118184687Y-131564838D01*
X118125672Y-131383210D01*
X118030185Y-131217822D01*
X117902398Y-131075900D01*
X117747897Y-130963648D01*
X117741869Y-130960964D01*
X117741867Y-130960963D01*
X117579464Y-130888657D01*
X117579463Y-130888657D01*
X117573433Y-130885972D01*
X117480033Y-130866119D01*
X117393089Y-130847638D01*
X117393084Y-130847638D01*
X117386632Y-130846266D01*
X117195658Y-130846266D01*
X117189206Y-130847638D01*
X117189201Y-130847638D01*
X117102257Y-130866119D01*
X117008857Y-130885972D01*
X117002827Y-130888657D01*
X117002826Y-130888657D01*
X116840423Y-130960963D01*
X116840421Y-130960964D01*
X116834393Y-130963648D01*
X116679892Y-131075900D01*
X116552105Y-131217822D01*
X116456618Y-131383210D01*
X116397603Y-131564838D01*
X116377641Y-131754766D01*
X116397603Y-131944694D01*
X116456618Y-132126322D01*
X116552105Y-132291710D01*
X116679892Y-132433632D01*
X116834393Y-132545884D01*
X116840421Y-132548568D01*
X116840423Y-132548569D01*
X117002826Y-132620875D01*
X117008857Y-132623560D01*
X117102257Y-132643413D01*
X117189201Y-132661894D01*
X117189206Y-132661894D01*
X117195658Y-132663266D01*
X117251551Y-132663266D01*
X117319672Y-132683268D01*
X117340646Y-132700171D01*
X118201595Y-133561120D01*
X118235621Y-133623432D01*
X118238500Y-133650215D01*
X118238500Y-138151206D01*
X118218498Y-138219327D01*
X118184771Y-138254419D01*
X118032211Y-138361243D01*
X118032208Y-138361245D01*
X118027700Y-138364402D01*
X117865802Y-138526300D01*
X117734477Y-138713851D01*
X117732154Y-138718833D01*
X117732151Y-138718838D01*
X117716195Y-138753057D01*
X117669278Y-138806342D01*
X117601001Y-138825803D01*
X117533041Y-138805261D01*
X117487805Y-138753057D01*
X117471849Y-138718838D01*
X117471846Y-138718833D01*
X117469523Y-138713851D01*
X117338198Y-138526300D01*
X117176300Y-138364402D01*
X117171792Y-138361245D01*
X117171789Y-138361243D01*
X117019228Y-138254419D01*
X116988749Y-138233077D01*
X116983767Y-138230754D01*
X116983762Y-138230751D01*
X116786225Y-138138639D01*
X116786224Y-138138639D01*
X116781243Y-138136316D01*
X116775935Y-138134894D01*
X116775933Y-138134893D01*
X116565402Y-138078481D01*
X116565400Y-138078481D01*
X116560087Y-138077057D01*
X116332000Y-138057102D01*
X116103913Y-138077057D01*
X116098600Y-138078481D01*
X116098598Y-138078481D01*
X115888067Y-138134893D01*
X115888065Y-138134894D01*
X115882757Y-138136316D01*
X115877776Y-138138639D01*
X115877775Y-138138639D01*
X115680238Y-138230751D01*
X115680233Y-138230754D01*
X115675251Y-138233077D01*
X115644772Y-138254419D01*
X115492211Y-138361243D01*
X115492208Y-138361245D01*
X115487700Y-138364402D01*
X115325802Y-138526300D01*
X115322645Y-138530808D01*
X115322643Y-138530811D01*
X115224007Y-138671678D01*
X115168550Y-138716006D01*
X115097930Y-138723315D01*
X115034570Y-138691284D01*
X115015002Y-138667847D01*
X114926350Y-138530811D01*
X114911764Y-138508265D01*
X114892496Y-138487089D01*
X114780859Y-138364402D01*
X114755887Y-138336958D01*
X114751836Y-138333759D01*
X114751832Y-138333755D01*
X114578177Y-138196611D01*
X114578172Y-138196608D01*
X114574123Y-138193410D01*
X114569607Y-138190917D01*
X114569604Y-138190915D01*
X114375879Y-138083973D01*
X114375875Y-138083971D01*
X114371355Y-138081476D01*
X114366486Y-138079752D01*
X114366482Y-138079750D01*
X114157903Y-138005888D01*
X114157899Y-138005887D01*
X114153028Y-138004162D01*
X114147935Y-138003255D01*
X114147932Y-138003254D01*
X113930095Y-137964451D01*
X113930089Y-137964450D01*
X113925006Y-137963545D01*
X113852096Y-137962654D01*
X113698581Y-137960779D01*
X113698579Y-137960779D01*
X113693411Y-137960716D01*
X113464464Y-137995750D01*
X113244314Y-138067706D01*
X113239726Y-138070094D01*
X113239722Y-138070096D01*
X113091401Y-138147307D01*
X113038872Y-138174652D01*
X113034739Y-138177755D01*
X113034736Y-138177757D01*
X112932632Y-138254419D01*
X112853655Y-138313717D01*
X112693639Y-138481164D01*
X112626306Y-138579871D01*
X112571397Y-138624871D01*
X112500872Y-138633042D01*
X112437125Y-138601788D01*
X112416428Y-138577305D01*
X112374571Y-138512604D01*
X112371764Y-138508265D01*
X112352496Y-138487089D01*
X112240859Y-138364402D01*
X112215887Y-138336958D01*
X112211836Y-138333759D01*
X112211832Y-138333755D01*
X112038177Y-138196611D01*
X112038172Y-138196608D01*
X112034123Y-138193410D01*
X112029607Y-138190917D01*
X112029604Y-138190915D01*
X111835879Y-138083973D01*
X111835875Y-138083971D01*
X111831355Y-138081476D01*
X111826486Y-138079752D01*
X111826482Y-138079750D01*
X111617903Y-138005888D01*
X111617899Y-138005887D01*
X111613028Y-138004162D01*
X111607935Y-138003255D01*
X111607932Y-138003254D01*
X111390095Y-137964451D01*
X111390089Y-137964450D01*
X111385006Y-137963545D01*
X111312096Y-137962654D01*
X111158581Y-137960779D01*
X111158579Y-137960779D01*
X111153411Y-137960716D01*
X110924464Y-137995750D01*
X110704314Y-138067706D01*
X110699726Y-138070094D01*
X110699722Y-138070096D01*
X110551401Y-138147307D01*
X110498872Y-138174652D01*
X110494739Y-138177755D01*
X110494736Y-138177757D01*
X110392632Y-138254419D01*
X110313655Y-138313717D01*
X110153639Y-138481164D01*
X110086306Y-138579871D01*
X110031397Y-138624871D01*
X109960872Y-138633042D01*
X109897125Y-138601788D01*
X109876428Y-138577305D01*
X109834571Y-138512604D01*
X109831764Y-138508265D01*
X109812496Y-138487089D01*
X109700859Y-138364402D01*
X109675887Y-138336958D01*
X109671836Y-138333759D01*
X109671832Y-138333755D01*
X109498178Y-138196612D01*
X109498175Y-138196610D01*
X109494123Y-138193410D01*
X109410607Y-138147307D01*
X109360636Y-138096874D01*
X109345500Y-138036998D01*
X109345500Y-129745767D01*
X109346027Y-129734584D01*
X109347702Y-129727091D01*
X109345562Y-129659000D01*
X109345500Y-129655043D01*
X109345500Y-129627144D01*
X109344996Y-129623153D01*
X109344063Y-129611311D01*
X109342923Y-129575036D01*
X109342674Y-129567111D01*
X109340462Y-129559497D01*
X109340461Y-129559492D01*
X109337023Y-129547659D01*
X109333012Y-129528295D01*
X109331467Y-129516064D01*
X109330474Y-129508203D01*
X109327557Y-129500836D01*
X109327556Y-129500831D01*
X109314198Y-129467092D01*
X109310354Y-129455865D01*
X109300230Y-129421022D01*
X109298018Y-129413407D01*
X109287707Y-129395972D01*
X109279012Y-129378224D01*
X109271552Y-129359383D01*
X109245564Y-129323613D01*
X109239048Y-129313693D01*
X109220580Y-129282465D01*
X109220578Y-129282462D01*
X109216542Y-129275638D01*
X109202221Y-129261317D01*
X109189380Y-129246283D01*
X109182131Y-129236306D01*
X109177472Y-129229893D01*
X109143395Y-129201702D01*
X109134616Y-129193712D01*
X103082279Y-123141374D01*
X103048253Y-123079062D01*
X103053318Y-123008247D01*
X103095865Y-122951411D01*
X103162385Y-122926600D01*
X103203985Y-122930572D01*
X103398598Y-122982719D01*
X103398600Y-122982719D01*
X103403913Y-122984143D01*
X103632000Y-123004098D01*
X103860087Y-122984143D01*
X103865400Y-122982719D01*
X103865402Y-122982719D01*
X104075933Y-122926307D01*
X104075935Y-122926306D01*
X104081243Y-122924884D01*
X104086220Y-122922563D01*
X104086226Y-122922561D01*
X104202220Y-122868472D01*
X104272412Y-122857811D01*
X104337225Y-122886791D01*
X104357406Y-122908606D01*
X104368435Y-122923786D01*
X104374952Y-122933707D01*
X104389172Y-122957751D01*
X104397458Y-122971762D01*
X104411779Y-122986083D01*
X104424619Y-123001116D01*
X104436528Y-123017507D01*
X104470605Y-123045698D01*
X104479384Y-123053688D01*
X106658943Y-125233247D01*
X106666487Y-125241537D01*
X106670600Y-125248018D01*
X106676377Y-125253443D01*
X106720267Y-125294658D01*
X106723109Y-125297413D01*
X106742830Y-125317134D01*
X106746025Y-125319612D01*
X106755047Y-125327318D01*
X106787279Y-125357586D01*
X106794228Y-125361406D01*
X106805032Y-125367346D01*
X106821556Y-125378199D01*
X106837559Y-125390613D01*
X106878143Y-125408176D01*
X106888773Y-125413383D01*
X106927540Y-125434695D01*
X106935217Y-125436666D01*
X106935222Y-125436668D01*
X106947158Y-125439732D01*
X106965866Y-125446137D01*
X106984455Y-125454181D01*
X106992283Y-125455421D01*
X106992290Y-125455423D01*
X107028124Y-125461099D01*
X107039744Y-125463505D01*
X107071559Y-125471673D01*
X107082570Y-125474500D01*
X107102824Y-125474500D01*
X107122534Y-125476051D01*
X107142543Y-125479220D01*
X107150435Y-125478474D01*
X107169180Y-125476702D01*
X107186562Y-125475059D01*
X107198419Y-125474500D01*
X143582833Y-125474500D01*
X143594016Y-125475027D01*
X143601509Y-125476702D01*
X143609435Y-125476453D01*
X143609436Y-125476453D01*
X143669586Y-125474562D01*
X143673545Y-125474500D01*
X143701456Y-125474500D01*
X143705391Y-125474003D01*
X143705456Y-125473995D01*
X143717293Y-125473062D01*
X143749551Y-125472048D01*
X143753570Y-125471922D01*
X143761489Y-125471673D01*
X143780943Y-125466021D01*
X143800300Y-125462013D01*
X143812530Y-125460468D01*
X143812531Y-125460468D01*
X143820397Y-125459474D01*
X143827768Y-125456555D01*
X143827770Y-125456555D01*
X143861512Y-125443196D01*
X143872742Y-125439351D01*
X143907583Y-125429229D01*
X143907584Y-125429229D01*
X143915193Y-125427018D01*
X143922012Y-125422985D01*
X143922017Y-125422983D01*
X143932628Y-125416707D01*
X143950376Y-125408012D01*
X143969217Y-125400552D01*
X143989587Y-125385753D01*
X144004987Y-125374564D01*
X144014907Y-125368048D01*
X144046135Y-125349580D01*
X144046138Y-125349578D01*
X144052962Y-125345542D01*
X144067283Y-125331221D01*
X144082317Y-125318380D01*
X144084032Y-125317134D01*
X144098707Y-125306472D01*
X144126898Y-125272395D01*
X144134888Y-125263616D01*
X146398752Y-122999752D01*
X146461064Y-122965726D01*
X146520459Y-122967141D01*
X146578591Y-122982718D01*
X146578602Y-122982720D01*
X146583913Y-122984143D01*
X146812000Y-123004098D01*
X147040087Y-122984143D01*
X147045400Y-122982719D01*
X147045402Y-122982719D01*
X147255933Y-122926307D01*
X147255935Y-122926306D01*
X147261243Y-122924884D01*
X147303501Y-122905179D01*
X147463762Y-122830449D01*
X147463767Y-122830446D01*
X147468749Y-122828123D01*
X147593500Y-122740771D01*
X147651789Y-122699957D01*
X147651792Y-122699955D01*
X147656300Y-122696798D01*
X147818198Y-122534900D01*
X147830175Y-122517796D01*
X147946366Y-122351857D01*
X147949523Y-122347349D01*
X147951846Y-122342367D01*
X147951849Y-122342362D01*
X148043961Y-122144825D01*
X148043961Y-122144824D01*
X148046284Y-122139843D01*
X148105543Y-121918687D01*
X148125498Y-121690600D01*
X148105543Y-121462513D01*
X148046284Y-121241357D01*
X147967805Y-121073057D01*
X147951849Y-121038838D01*
X147951846Y-121038833D01*
X147949523Y-121033851D01*
X147837363Y-120873670D01*
X147814675Y-120806397D01*
X147831960Y-120737537D01*
X147883729Y-120688952D01*
X147940576Y-120675400D01*
X152300450Y-120675400D01*
X152368571Y-120695402D01*
G37*
%TD.AperFunction*%
%TA.AperFunction,Conductor*%
G36*
X99890959Y-122255939D02*
G01*
X99936195Y-122308143D01*
X99952151Y-122342362D01*
X99952154Y-122342367D01*
X99954477Y-122347349D01*
X99957634Y-122351857D01*
X100073826Y-122517796D01*
X100085802Y-122534900D01*
X100247700Y-122696798D01*
X100252208Y-122699955D01*
X100252211Y-122699957D01*
X100310500Y-122740771D01*
X100435251Y-122828123D01*
X100440233Y-122830446D01*
X100440238Y-122830449D01*
X100600499Y-122905179D01*
X100642757Y-122924884D01*
X100648065Y-122926306D01*
X100648067Y-122926307D01*
X100858598Y-122982719D01*
X100858600Y-122982719D01*
X100863913Y-122984143D01*
X101092000Y-123004098D01*
X101320087Y-122984143D01*
X101424890Y-122956061D01*
X101495865Y-122957751D01*
X101554661Y-122997545D01*
X101582609Y-123062809D01*
X101583500Y-123077768D01*
X101583500Y-123093233D01*
X101582973Y-123104416D01*
X101581298Y-123111909D01*
X101581547Y-123119835D01*
X101581547Y-123119836D01*
X101583438Y-123179986D01*
X101583500Y-123183945D01*
X101583500Y-123211856D01*
X101583997Y-123215790D01*
X101583997Y-123215791D01*
X101584005Y-123215856D01*
X101584938Y-123227693D01*
X101586327Y-123271889D01*
X101591978Y-123291339D01*
X101595987Y-123310700D01*
X101598526Y-123330797D01*
X101601443Y-123338165D01*
X101601444Y-123338168D01*
X101614804Y-123371912D01*
X101618649Y-123383142D01*
X101630982Y-123425593D01*
X101635015Y-123432412D01*
X101635017Y-123432417D01*
X101641293Y-123443028D01*
X101649988Y-123460776D01*
X101657448Y-123479617D01*
X101662110Y-123486033D01*
X101662110Y-123486034D01*
X101683436Y-123515387D01*
X101689952Y-123525307D01*
X101712458Y-123563362D01*
X101726779Y-123577683D01*
X101739619Y-123592716D01*
X101751528Y-123609107D01*
X101757634Y-123614158D01*
X101785605Y-123637298D01*
X101794384Y-123645288D01*
X102136858Y-123987762D01*
X108041595Y-129892500D01*
X108075621Y-129954812D01*
X108078500Y-129981595D01*
X108078500Y-138035919D01*
X108058498Y-138104040D01*
X108010679Y-138147683D01*
X107963463Y-138172262D01*
X107958872Y-138174652D01*
X107954737Y-138177757D01*
X107954734Y-138177759D01*
X107876853Y-138236234D01*
X107773655Y-138313717D01*
X107613639Y-138481164D01*
X107546306Y-138579871D01*
X107491397Y-138624871D01*
X107420872Y-138633042D01*
X107357125Y-138601788D01*
X107336428Y-138577305D01*
X107294571Y-138512604D01*
X107291764Y-138508265D01*
X107272496Y-138487089D01*
X107160859Y-138364402D01*
X107135887Y-138336958D01*
X107131836Y-138333759D01*
X107131832Y-138333755D01*
X106958177Y-138196611D01*
X106958172Y-138196608D01*
X106954123Y-138193410D01*
X106949607Y-138190917D01*
X106949604Y-138190915D01*
X106755879Y-138083973D01*
X106755875Y-138083971D01*
X106751355Y-138081476D01*
X106746486Y-138079752D01*
X106746482Y-138079750D01*
X106537903Y-138005888D01*
X106537899Y-138005887D01*
X106533028Y-138004162D01*
X106527935Y-138003255D01*
X106527932Y-138003254D01*
X106310095Y-137964451D01*
X106310089Y-137964450D01*
X106305006Y-137963545D01*
X106232096Y-137962654D01*
X106078581Y-137960779D01*
X106078579Y-137960779D01*
X106073411Y-137960716D01*
X105844464Y-137995750D01*
X105624314Y-138067706D01*
X105619726Y-138070094D01*
X105619722Y-138070096D01*
X105471401Y-138147307D01*
X105418872Y-138174652D01*
X105414739Y-138177755D01*
X105414736Y-138177757D01*
X105312632Y-138254419D01*
X105233655Y-138313717D01*
X105073639Y-138481164D01*
X105006306Y-138579871D01*
X104951397Y-138624871D01*
X104880872Y-138633042D01*
X104817125Y-138601788D01*
X104796428Y-138577305D01*
X104754571Y-138512604D01*
X104751764Y-138508265D01*
X104732496Y-138487089D01*
X104620859Y-138364402D01*
X104595887Y-138336958D01*
X104591836Y-138333759D01*
X104591832Y-138333755D01*
X104418177Y-138196611D01*
X104418172Y-138196608D01*
X104414123Y-138193410D01*
X104409607Y-138190917D01*
X104409604Y-138190915D01*
X104215879Y-138083973D01*
X104215875Y-138083971D01*
X104211355Y-138081476D01*
X104206486Y-138079752D01*
X104206482Y-138079750D01*
X103997903Y-138005888D01*
X103997899Y-138005887D01*
X103993028Y-138004162D01*
X103987935Y-138003255D01*
X103987932Y-138003254D01*
X103770095Y-137964451D01*
X103770089Y-137964450D01*
X103765006Y-137963545D01*
X103692096Y-137962654D01*
X103538581Y-137960779D01*
X103538579Y-137960779D01*
X103533411Y-137960716D01*
X103304464Y-137995750D01*
X103084314Y-138067706D01*
X103079726Y-138070094D01*
X103079722Y-138070096D01*
X102931401Y-138147307D01*
X102878872Y-138174652D01*
X102874739Y-138177755D01*
X102874736Y-138177757D01*
X102772632Y-138254419D01*
X102693655Y-138313717D01*
X102533639Y-138481164D01*
X102466306Y-138579871D01*
X102411397Y-138624871D01*
X102340872Y-138633042D01*
X102277125Y-138601788D01*
X102256428Y-138577305D01*
X102214571Y-138512604D01*
X102211764Y-138508265D01*
X102192496Y-138487089D01*
X102080859Y-138364402D01*
X102055887Y-138336958D01*
X102051836Y-138333759D01*
X102051832Y-138333755D01*
X101878177Y-138196611D01*
X101878172Y-138196608D01*
X101874123Y-138193410D01*
X101869607Y-138190917D01*
X101869604Y-138190915D01*
X101675879Y-138083973D01*
X101675875Y-138083971D01*
X101671355Y-138081476D01*
X101666486Y-138079752D01*
X101666482Y-138079750D01*
X101457903Y-138005888D01*
X101457899Y-138005887D01*
X101453028Y-138004162D01*
X101447935Y-138003255D01*
X101447932Y-138003254D01*
X101230095Y-137964451D01*
X101230089Y-137964450D01*
X101225006Y-137963545D01*
X101152096Y-137962654D01*
X100998581Y-137960779D01*
X100998579Y-137960779D01*
X100993411Y-137960716D01*
X100764464Y-137995750D01*
X100544314Y-138067706D01*
X100539726Y-138070094D01*
X100539722Y-138070096D01*
X100391401Y-138147307D01*
X100338872Y-138174652D01*
X100334739Y-138177755D01*
X100334736Y-138177757D01*
X100232632Y-138254419D01*
X100153655Y-138313717D01*
X99993639Y-138481164D01*
X99926306Y-138579871D01*
X99871397Y-138624871D01*
X99800872Y-138633042D01*
X99737125Y-138601788D01*
X99716428Y-138577305D01*
X99674571Y-138512604D01*
X99671764Y-138508265D01*
X99652496Y-138487089D01*
X99540859Y-138364402D01*
X99515887Y-138336958D01*
X99511836Y-138333759D01*
X99511832Y-138333755D01*
X99338177Y-138196611D01*
X99338172Y-138196608D01*
X99334123Y-138193410D01*
X99329607Y-138190917D01*
X99329604Y-138190915D01*
X99135879Y-138083973D01*
X99135875Y-138083971D01*
X99131355Y-138081476D01*
X99126486Y-138079752D01*
X99126482Y-138079750D01*
X98917903Y-138005888D01*
X98917899Y-138005887D01*
X98913028Y-138004162D01*
X98907935Y-138003255D01*
X98907932Y-138003254D01*
X98690095Y-137964451D01*
X98690089Y-137964450D01*
X98685006Y-137963545D01*
X98612096Y-137962654D01*
X98458581Y-137960779D01*
X98458579Y-137960779D01*
X98453411Y-137960716D01*
X98224464Y-137995750D01*
X98004314Y-138067706D01*
X97999726Y-138070094D01*
X97999722Y-138070096D01*
X97851401Y-138147307D01*
X97798872Y-138174652D01*
X97794739Y-138177755D01*
X97794736Y-138177757D01*
X97692632Y-138254419D01*
X97613655Y-138313717D01*
X97453639Y-138481164D01*
X97450716Y-138485449D01*
X97449388Y-138487089D01*
X97390975Y-138527443D01*
X97320018Y-138529811D01*
X97259045Y-138493441D01*
X97227414Y-138429879D01*
X97225466Y-138407035D01*
X97321079Y-122611756D01*
X97341493Y-122543758D01*
X97395429Y-122497591D01*
X97465763Y-122487912D01*
X97530164Y-122517796D01*
X97543041Y-122530956D01*
X97545802Y-122534900D01*
X97707700Y-122696798D01*
X97712208Y-122699955D01*
X97712211Y-122699957D01*
X97770500Y-122740771D01*
X97895251Y-122828123D01*
X97900233Y-122830446D01*
X97900238Y-122830449D01*
X98060499Y-122905179D01*
X98102757Y-122924884D01*
X98108065Y-122926306D01*
X98108067Y-122926307D01*
X98318598Y-122982719D01*
X98318600Y-122982719D01*
X98323913Y-122984143D01*
X98552000Y-123004098D01*
X98780087Y-122984143D01*
X98785400Y-122982719D01*
X98785402Y-122982719D01*
X98995933Y-122926307D01*
X98995935Y-122926306D01*
X99001243Y-122924884D01*
X99043501Y-122905179D01*
X99203762Y-122830449D01*
X99203767Y-122830446D01*
X99208749Y-122828123D01*
X99333500Y-122740771D01*
X99391789Y-122699957D01*
X99391792Y-122699955D01*
X99396300Y-122696798D01*
X99558198Y-122534900D01*
X99570175Y-122517796D01*
X99686366Y-122351857D01*
X99689523Y-122347349D01*
X99691846Y-122342367D01*
X99691849Y-122342362D01*
X99707805Y-122308143D01*
X99754722Y-122254858D01*
X99822999Y-122235397D01*
X99890959Y-122255939D01*
G37*
%TD.AperFunction*%
%TD*%
M02*
